G04 #@! TF.GenerationSoftware,KiCad,Pcbnew,(5.1.4)-1*
G04 #@! TF.CreationDate,2019-10-21T16:34:44-04:00*
G04 #@! TF.ProjectId,relay_ctrl_turbo,72656c61-795f-4637-9472-6c5f74757262,rev?*
G04 #@! TF.SameCoordinates,Original*
G04 #@! TF.FileFunction,Legend,Top*
G04 #@! TF.FilePolarity,Positive*
%FSLAX46Y46*%
G04 Gerber Fmt 4.6, Leading zero omitted, Abs format (unit mm)*
G04 Created by KiCad (PCBNEW (5.1.4)-1) date 2019-10-21 16:34:44*
%MOMM*%
%LPD*%
G04 APERTURE LIST*
%ADD10C,0.120000*%
%ADD11C,0.150000*%
G04 APERTURE END LIST*
D10*
X161858000Y-44510000D02*
X160528000Y-44510000D01*
X161858000Y-43180000D02*
X161858000Y-44510000D01*
X161858000Y-41910000D02*
X159198000Y-41910000D01*
X159198000Y-41910000D02*
X159198000Y-39310000D01*
X161858000Y-41910000D02*
X161858000Y-39310000D01*
X161858000Y-39310000D02*
X159198000Y-39310000D01*
X161306000Y-45314000D02*
X159656000Y-45314000D01*
X161306000Y-50514000D02*
X161306000Y-45314000D01*
X156006000Y-50514000D02*
X161306000Y-50514000D01*
X156006000Y-45314000D02*
X156006000Y-50514000D01*
X157656000Y-45314000D02*
X156006000Y-45314000D01*
X159656000Y-45314000D02*
G75*
G02X157656000Y-45314000I-1000000J0D01*
G01*
X151734000Y-46086000D02*
X151734000Y-49926000D01*
X153574000Y-46086000D02*
X153574000Y-49926000D01*
X163672000Y-46086000D02*
X163672000Y-49926000D01*
X165512000Y-46086000D02*
X165512000Y-49926000D01*
X151190000Y-50606000D02*
X149860000Y-50606000D01*
X151190000Y-49276000D02*
X151190000Y-50606000D01*
X151190000Y-48006000D02*
X148530000Y-48006000D01*
X148530000Y-48006000D02*
X148530000Y-45406000D01*
X151190000Y-48006000D02*
X151190000Y-45406000D01*
X151190000Y-45406000D02*
X148530000Y-45406000D01*
X168716000Y-50606000D02*
X167386000Y-50606000D01*
X168716000Y-49276000D02*
X168716000Y-50606000D01*
X168716000Y-48006000D02*
X166056000Y-48006000D01*
X166056000Y-48006000D02*
X166056000Y-45406000D01*
X168716000Y-48006000D02*
X168716000Y-45406000D01*
X168716000Y-45406000D02*
X166056000Y-45406000D01*
X158302000Y-44510000D02*
X156972000Y-44510000D01*
X158302000Y-43180000D02*
X158302000Y-44510000D01*
X158302000Y-41910000D02*
X155642000Y-41910000D01*
X155642000Y-41910000D02*
X155642000Y-39310000D01*
X158302000Y-41910000D02*
X158302000Y-39310000D01*
X158302000Y-39310000D02*
X155642000Y-39310000D01*
D11*
X162480666Y-44156380D02*
X162480666Y-44870666D01*
X162433047Y-45013523D01*
X162337809Y-45108761D01*
X162194952Y-45156380D01*
X162099714Y-45156380D01*
X163480666Y-45156380D02*
X162909238Y-45156380D01*
X163194952Y-45156380D02*
X163194952Y-44156380D01*
X163099714Y-44299238D01*
X163004476Y-44394476D01*
X162909238Y-44442095D01*
X157894095Y-47458380D02*
X157894095Y-48267904D01*
X157941714Y-48363142D01*
X157989333Y-48410761D01*
X158084571Y-48458380D01*
X158275047Y-48458380D01*
X158370285Y-48410761D01*
X158417904Y-48363142D01*
X158465523Y-48267904D01*
X158465523Y-47458380D01*
X159465523Y-48458380D02*
X158894095Y-48458380D01*
X159179809Y-48458380D02*
X159179809Y-47458380D01*
X159084571Y-47601238D01*
X158989333Y-47696476D01*
X158894095Y-47744095D01*
X153106380Y-48172666D02*
X152630190Y-48506000D01*
X153106380Y-48744095D02*
X152106380Y-48744095D01*
X152106380Y-48363142D01*
X152154000Y-48267904D01*
X152201619Y-48220285D01*
X152296857Y-48172666D01*
X152439714Y-48172666D01*
X152534952Y-48220285D01*
X152582571Y-48267904D01*
X152630190Y-48363142D01*
X152630190Y-48744095D01*
X152201619Y-47791714D02*
X152154000Y-47744095D01*
X152106380Y-47648857D01*
X152106380Y-47410761D01*
X152154000Y-47315523D01*
X152201619Y-47267904D01*
X152296857Y-47220285D01*
X152392095Y-47220285D01*
X152534952Y-47267904D01*
X153106380Y-47839333D01*
X153106380Y-47220285D01*
X165044380Y-48172666D02*
X164568190Y-48506000D01*
X165044380Y-48744095D02*
X164044380Y-48744095D01*
X164044380Y-48363142D01*
X164092000Y-48267904D01*
X164139619Y-48220285D01*
X164234857Y-48172666D01*
X164377714Y-48172666D01*
X164472952Y-48220285D01*
X164520571Y-48267904D01*
X164568190Y-48363142D01*
X164568190Y-48744095D01*
X165044380Y-47220285D02*
X165044380Y-47791714D01*
X165044380Y-47506000D02*
X164044380Y-47506000D01*
X164187238Y-47601238D01*
X164282476Y-47696476D01*
X164330095Y-47791714D01*
X150288666Y-44156380D02*
X150288666Y-44870666D01*
X150241047Y-45013523D01*
X150145809Y-45108761D01*
X150002952Y-45156380D01*
X149907714Y-45156380D01*
X151193428Y-44489714D02*
X151193428Y-45156380D01*
X150955333Y-44108761D02*
X150717238Y-44823047D01*
X151336285Y-44823047D01*
X166290666Y-44156380D02*
X166290666Y-44870666D01*
X166243047Y-45013523D01*
X166147809Y-45108761D01*
X166004952Y-45156380D01*
X165909714Y-45156380D01*
X166671619Y-44156380D02*
X167290666Y-44156380D01*
X166957333Y-44537333D01*
X167100190Y-44537333D01*
X167195428Y-44584952D01*
X167243047Y-44632571D01*
X167290666Y-44727809D01*
X167290666Y-44965904D01*
X167243047Y-45061142D01*
X167195428Y-45108761D01*
X167100190Y-45156380D01*
X166814476Y-45156380D01*
X166719238Y-45108761D01*
X166671619Y-45061142D01*
X154098666Y-44156380D02*
X154098666Y-44870666D01*
X154051047Y-45013523D01*
X153955809Y-45108761D01*
X153812952Y-45156380D01*
X153717714Y-45156380D01*
X154527238Y-44251619D02*
X154574857Y-44204000D01*
X154670095Y-44156380D01*
X154908190Y-44156380D01*
X155003428Y-44204000D01*
X155051047Y-44251619D01*
X155098666Y-44346857D01*
X155098666Y-44442095D01*
X155051047Y-44584952D01*
X154479619Y-45156380D01*
X155098666Y-45156380D01*
M02*
