G04 #@! TF.GenerationSoftware,KiCad,Pcbnew,(5.1.4)-1*
G04 #@! TF.CreationDate,2019-10-21T16:34:43-04:00*
G04 #@! TF.ProjectId,relay_ctrl_turbo,72656c61-795f-4637-9472-6c5f74757262,rev?*
G04 #@! TF.SameCoordinates,Original*
G04 #@! TF.FileFunction,Copper,L1,Top*
G04 #@! TF.FilePolarity,Positive*
%FSLAX46Y46*%
G04 Gerber Fmt 4.6, Leading zero omitted, Abs format (unit mm)*
G04 Created by KiCad (PCBNEW (5.1.4)-1) date 2019-10-21 16:34:43*
%MOMM*%
%LPD*%
G04 APERTURE LIST*
%ADD10O,1.700000X1.700000*%
%ADD11R,1.700000X1.700000*%
%ADD12O,1.600000X1.600000*%
%ADD13R,1.600000X1.600000*%
%ADD14O,1.400000X1.400000*%
%ADD15C,1.400000*%
%ADD16C,0.800000*%
%ADD17C,0.250000*%
%ADD18C,1.000000*%
%ADD19C,0.254000*%
G04 APERTURE END LIST*
D10*
X160528000Y-40640000D03*
D11*
X160528000Y-43180000D03*
D12*
X162466000Y-46644000D03*
X154846000Y-49184000D03*
X162466000Y-49184000D03*
D13*
X154846000Y-46644000D03*
D14*
X152654000Y-50546000D03*
D15*
X152654000Y-45466000D03*
D14*
X164592000Y-50546000D03*
D15*
X164592000Y-45466000D03*
D10*
X149860000Y-46736000D03*
D11*
X149860000Y-49276000D03*
D10*
X167386000Y-46736000D03*
D11*
X167386000Y-49276000D03*
D10*
X156972000Y-40640000D03*
D11*
X156972000Y-43180000D03*
D16*
X164592000Y-48006000D03*
X166370000Y-44958000D03*
X162306000Y-44704000D03*
D17*
X156972000Y-44280000D02*
X156972000Y-43180000D01*
X156811001Y-44440999D02*
X156972000Y-44280000D01*
X152155001Y-44440999D02*
X156811001Y-44440999D01*
X149860000Y-46736000D02*
X152155001Y-44440999D01*
X159678001Y-41489999D02*
X160528000Y-40640000D01*
X159352999Y-41815001D02*
X159678001Y-41489999D01*
X159352999Y-43084003D02*
X159352999Y-41815001D01*
X157545993Y-44891009D02*
X159352999Y-43084003D01*
X153720999Y-45583999D02*
X154413989Y-44891009D01*
X154413989Y-44891009D02*
X157545993Y-44891009D01*
X153720999Y-46515001D02*
X153720999Y-45583999D01*
X150960000Y-49276000D02*
X153720999Y-46515001D01*
X149860000Y-49276000D02*
X150960000Y-49276000D01*
X162162998Y-50546000D02*
X152654000Y-50546000D01*
X160528000Y-44280000D02*
X160528000Y-43180000D01*
X160528000Y-48911002D02*
X160528000Y-44280000D01*
X162162998Y-50546000D02*
X160528000Y-48911002D01*
X164592000Y-50546000D02*
X162162998Y-50546000D01*
D18*
X165100000Y-44958000D02*
X164592000Y-45466000D01*
X166370000Y-44958000D02*
X165100000Y-44958000D01*
X163830000Y-44704000D02*
X162306000Y-44704000D01*
X164592000Y-45466000D02*
X163830000Y-44704000D01*
D17*
X162558000Y-49276000D02*
X162466000Y-49184000D01*
X167386000Y-49276000D02*
X162558000Y-49276000D01*
X167294000Y-46644000D02*
X167386000Y-46736000D01*
X162466000Y-46644000D02*
X167294000Y-46644000D01*
D19*
G36*
X159147463Y-44384494D02*
G01*
X159226815Y-44481185D01*
X159323506Y-44560537D01*
X159433820Y-44619502D01*
X159553518Y-44655812D01*
X159678000Y-44668072D01*
X159768001Y-44668072D01*
X159768000Y-48873679D01*
X159764324Y-48911002D01*
X159768000Y-48948324D01*
X159768000Y-48948334D01*
X159778997Y-49059987D01*
X159816615Y-49184000D01*
X159822454Y-49203248D01*
X159893026Y-49335278D01*
X159932871Y-49383828D01*
X159987999Y-49451003D01*
X160017003Y-49474806D01*
X160328197Y-49786000D01*
X156141042Y-49786000D01*
X156197246Y-49667087D01*
X156237904Y-49533039D01*
X156115915Y-49311000D01*
X154973000Y-49311000D01*
X154973000Y-49331000D01*
X154719000Y-49331000D01*
X154719000Y-49311000D01*
X153576085Y-49311000D01*
X153475843Y-49493456D01*
X153399275Y-49430618D01*
X153167354Y-49306653D01*
X152915706Y-49230317D01*
X152719579Y-49211000D01*
X152588421Y-49211000D01*
X152392294Y-49230317D01*
X152140646Y-49306653D01*
X151908725Y-49430618D01*
X151749561Y-49561240D01*
X153514364Y-47796438D01*
X153515463Y-47798494D01*
X153594815Y-47895185D01*
X153691506Y-47974537D01*
X153801820Y-48033502D01*
X153921518Y-48069812D01*
X153946080Y-48072231D01*
X153782481Y-48220586D01*
X153614963Y-48446580D01*
X153494754Y-48700913D01*
X153454096Y-48834961D01*
X153576085Y-49057000D01*
X154719000Y-49057000D01*
X154719000Y-49037000D01*
X154973000Y-49037000D01*
X154973000Y-49057000D01*
X156115915Y-49057000D01*
X156237904Y-48834961D01*
X156197246Y-48700913D01*
X156077037Y-48446580D01*
X155909519Y-48220586D01*
X155745920Y-48072231D01*
X155770482Y-48069812D01*
X155890180Y-48033502D01*
X156000494Y-47974537D01*
X156097185Y-47895185D01*
X156176537Y-47798494D01*
X156235502Y-47688180D01*
X156271812Y-47568482D01*
X156284072Y-47444000D01*
X156284072Y-45844000D01*
X156271812Y-45719518D01*
X156251030Y-45651009D01*
X157508671Y-45651009D01*
X157545993Y-45654685D01*
X157583315Y-45651009D01*
X157583326Y-45651009D01*
X157694979Y-45640012D01*
X157838240Y-45596555D01*
X157970269Y-45525983D01*
X158085994Y-45431010D01*
X158109796Y-45402007D01*
X159140443Y-44371361D01*
X159147463Y-44384494D01*
X159147463Y-44384494D01*
G37*
X159147463Y-44384494D02*
X159226815Y-44481185D01*
X159323506Y-44560537D01*
X159433820Y-44619502D01*
X159553518Y-44655812D01*
X159678000Y-44668072D01*
X159768001Y-44668072D01*
X159768000Y-48873679D01*
X159764324Y-48911002D01*
X159768000Y-48948324D01*
X159768000Y-48948334D01*
X159778997Y-49059987D01*
X159816615Y-49184000D01*
X159822454Y-49203248D01*
X159893026Y-49335278D01*
X159932871Y-49383828D01*
X159987999Y-49451003D01*
X160017003Y-49474806D01*
X160328197Y-49786000D01*
X156141042Y-49786000D01*
X156197246Y-49667087D01*
X156237904Y-49533039D01*
X156115915Y-49311000D01*
X154973000Y-49311000D01*
X154973000Y-49331000D01*
X154719000Y-49331000D01*
X154719000Y-49311000D01*
X153576085Y-49311000D01*
X153475843Y-49493456D01*
X153399275Y-49430618D01*
X153167354Y-49306653D01*
X152915706Y-49230317D01*
X152719579Y-49211000D01*
X152588421Y-49211000D01*
X152392294Y-49230317D01*
X152140646Y-49306653D01*
X151908725Y-49430618D01*
X151749561Y-49561240D01*
X153514364Y-47796438D01*
X153515463Y-47798494D01*
X153594815Y-47895185D01*
X153691506Y-47974537D01*
X153801820Y-48033502D01*
X153921518Y-48069812D01*
X153946080Y-48072231D01*
X153782481Y-48220586D01*
X153614963Y-48446580D01*
X153494754Y-48700913D01*
X153454096Y-48834961D01*
X153576085Y-49057000D01*
X154719000Y-49057000D01*
X154719000Y-49037000D01*
X154973000Y-49037000D01*
X154973000Y-49057000D01*
X156115915Y-49057000D01*
X156237904Y-48834961D01*
X156197246Y-48700913D01*
X156077037Y-48446580D01*
X155909519Y-48220586D01*
X155745920Y-48072231D01*
X155770482Y-48069812D01*
X155890180Y-48033502D01*
X156000494Y-47974537D01*
X156097185Y-47895185D01*
X156176537Y-47798494D01*
X156235502Y-47688180D01*
X156271812Y-47568482D01*
X156284072Y-47444000D01*
X156284072Y-45844000D01*
X156271812Y-45719518D01*
X156251030Y-45651009D01*
X157508671Y-45651009D01*
X157545993Y-45654685D01*
X157583315Y-45651009D01*
X157583326Y-45651009D01*
X157694979Y-45640012D01*
X157838240Y-45596555D01*
X157970269Y-45525983D01*
X158085994Y-45431010D01*
X158109796Y-45402007D01*
X159140443Y-44371361D01*
X159147463Y-44384494D01*
G36*
X166145294Y-47565014D02*
G01*
X166330866Y-47791134D01*
X166360687Y-47815607D01*
X166291820Y-47836498D01*
X166181506Y-47895463D01*
X166084815Y-47974815D01*
X166005463Y-48071506D01*
X165946498Y-48181820D01*
X165910188Y-48301518D01*
X165897928Y-48426000D01*
X165897928Y-48516000D01*
X163736076Y-48516000D01*
X163664932Y-48382899D01*
X163485608Y-48164392D01*
X163267101Y-47985068D01*
X163134142Y-47914000D01*
X163267101Y-47842932D01*
X163485608Y-47663608D01*
X163664932Y-47445101D01*
X163686901Y-47404000D01*
X166059230Y-47404000D01*
X166145294Y-47565014D01*
X166145294Y-47565014D01*
G37*
X166145294Y-47565014D02*
X166330866Y-47791134D01*
X166360687Y-47815607D01*
X166291820Y-47836498D01*
X166181506Y-47895463D01*
X166084815Y-47974815D01*
X166005463Y-48071506D01*
X165946498Y-48181820D01*
X165910188Y-48301518D01*
X165897928Y-48426000D01*
X165897928Y-48516000D01*
X163736076Y-48516000D01*
X163664932Y-48382899D01*
X163485608Y-48164392D01*
X163267101Y-47985068D01*
X163134142Y-47914000D01*
X163267101Y-47842932D01*
X163485608Y-47663608D01*
X163664932Y-47445101D01*
X163686901Y-47404000D01*
X166059230Y-47404000D01*
X166145294Y-47565014D01*
G36*
X167996000Y-45378229D02*
G01*
X167957034Y-45357401D01*
X167677111Y-45272487D01*
X167458950Y-45251000D01*
X167313050Y-45251000D01*
X167094889Y-45272487D01*
X166814966Y-45357401D01*
X166556986Y-45495294D01*
X166330866Y-45680866D01*
X166164158Y-45884000D01*
X165864210Y-45884000D01*
X165920183Y-45654260D01*
X165931390Y-45391527D01*
X165891125Y-45131656D01*
X165800935Y-44884634D01*
X165747037Y-44783797D01*
X165513271Y-44724337D01*
X165629925Y-44607683D01*
X165624242Y-44602000D01*
X167996000Y-44602000D01*
X167996000Y-45378229D01*
X167996000Y-45378229D01*
G37*
X167996000Y-45378229D02*
X167957034Y-45357401D01*
X167677111Y-45272487D01*
X167458950Y-45251000D01*
X167313050Y-45251000D01*
X167094889Y-45272487D01*
X166814966Y-45357401D01*
X166556986Y-45495294D01*
X166330866Y-45680866D01*
X166164158Y-45884000D01*
X165864210Y-45884000D01*
X165920183Y-45654260D01*
X165931390Y-45391527D01*
X165891125Y-45131656D01*
X165800935Y-44884634D01*
X165747037Y-44783797D01*
X165513271Y-44724337D01*
X165629925Y-44607683D01*
X165624242Y-44602000D01*
X167996000Y-44602000D01*
X167996000Y-45378229D01*
G36*
X161937550Y-44493425D02*
G01*
X162052207Y-44554710D01*
X162176617Y-44592450D01*
X162273581Y-44602000D01*
X162306000Y-44605193D01*
X162338419Y-44602000D01*
X163559758Y-44602000D01*
X163554075Y-44607683D01*
X163670729Y-44724337D01*
X163436963Y-44783797D01*
X163326066Y-45022242D01*
X163263817Y-45277740D01*
X163256912Y-45439622D01*
X163017808Y-45311818D01*
X162747309Y-45229764D01*
X162536492Y-45209000D01*
X162395508Y-45209000D01*
X162184691Y-45229764D01*
X161914192Y-45311818D01*
X161664899Y-45445068D01*
X161446392Y-45624392D01*
X161288000Y-45817393D01*
X161288000Y-44668072D01*
X161378000Y-44668072D01*
X161502482Y-44655812D01*
X161622180Y-44619502D01*
X161732494Y-44560537D01*
X161829185Y-44481185D01*
X161866795Y-44435357D01*
X161937550Y-44493425D01*
X161937550Y-44493425D01*
G37*
X161937550Y-44493425D02*
X162052207Y-44554710D01*
X162176617Y-44592450D01*
X162273581Y-44602000D01*
X162306000Y-44605193D01*
X162338419Y-44602000D01*
X163559758Y-44602000D01*
X163554075Y-44607683D01*
X163670729Y-44724337D01*
X163436963Y-44783797D01*
X163326066Y-45022242D01*
X163263817Y-45277740D01*
X163256912Y-45439622D01*
X163017808Y-45311818D01*
X162747309Y-45229764D01*
X162536492Y-45209000D01*
X162395508Y-45209000D01*
X162184691Y-45229764D01*
X161914192Y-45311818D01*
X161664899Y-45445068D01*
X161446392Y-45624392D01*
X161288000Y-45817393D01*
X161288000Y-44668072D01*
X161378000Y-44668072D01*
X161502482Y-44655812D01*
X161622180Y-44619502D01*
X161732494Y-44560537D01*
X161829185Y-44481185D01*
X161866795Y-44435357D01*
X161937550Y-44493425D01*
G36*
X164785748Y-45451858D02*
G01*
X164771605Y-45466000D01*
X164785748Y-45480143D01*
X164606143Y-45659748D01*
X164592000Y-45645605D01*
X164577858Y-45659748D01*
X164398253Y-45480143D01*
X164412395Y-45466000D01*
X164398253Y-45451858D01*
X164577858Y-45272253D01*
X164592000Y-45286395D01*
X164606143Y-45272253D01*
X164785748Y-45451858D01*
X164785748Y-45451858D01*
G37*
X164785748Y-45451858D02*
X164771605Y-45466000D01*
X164785748Y-45480143D01*
X164606143Y-45659748D01*
X164592000Y-45645605D01*
X164577858Y-45659748D01*
X164398253Y-45480143D01*
X164412395Y-45466000D01*
X164398253Y-45451858D01*
X164577858Y-45272253D01*
X164592000Y-45286395D01*
X164606143Y-45272253D01*
X164785748Y-45451858D01*
G36*
X159287294Y-39810986D02*
G01*
X159149401Y-40068966D01*
X159064487Y-40348889D01*
X159035815Y-40640000D01*
X159064487Y-40931111D01*
X159087203Y-41005996D01*
X158841997Y-41251202D01*
X158812999Y-41275000D01*
X158789201Y-41303998D01*
X158789200Y-41303999D01*
X158718025Y-41390725D01*
X158647453Y-41522755D01*
X158603997Y-41666016D01*
X158589323Y-41815001D01*
X158593000Y-41852333D01*
X158592999Y-42769200D01*
X158460072Y-42902127D01*
X158460072Y-42330000D01*
X158447812Y-42205518D01*
X158411502Y-42085820D01*
X158352537Y-41975506D01*
X158273185Y-41878815D01*
X158176494Y-41799463D01*
X158066180Y-41740498D01*
X157985534Y-41716034D01*
X158069588Y-41640269D01*
X158243641Y-41406920D01*
X158368825Y-41144099D01*
X158413476Y-40996890D01*
X158292155Y-40767000D01*
X157099000Y-40767000D01*
X157099000Y-40787000D01*
X156845000Y-40787000D01*
X156845000Y-40767000D01*
X156825000Y-40767000D01*
X156825000Y-40513000D01*
X156845000Y-40513000D01*
X156845000Y-40493000D01*
X157099000Y-40493000D01*
X157099000Y-40513000D01*
X158292155Y-40513000D01*
X158413476Y-40283110D01*
X158368825Y-40135901D01*
X158243641Y-39873080D01*
X158171230Y-39776000D01*
X159316006Y-39776000D01*
X159287294Y-39810986D01*
X159287294Y-39810986D01*
G37*
X159287294Y-39810986D02*
X159149401Y-40068966D01*
X159064487Y-40348889D01*
X159035815Y-40640000D01*
X159064487Y-40931111D01*
X159087203Y-41005996D01*
X158841997Y-41251202D01*
X158812999Y-41275000D01*
X158789201Y-41303998D01*
X158789200Y-41303999D01*
X158718025Y-41390725D01*
X158647453Y-41522755D01*
X158603997Y-41666016D01*
X158589323Y-41815001D01*
X158593000Y-41852333D01*
X158592999Y-42769200D01*
X158460072Y-42902127D01*
X158460072Y-42330000D01*
X158447812Y-42205518D01*
X158411502Y-42085820D01*
X158352537Y-41975506D01*
X158273185Y-41878815D01*
X158176494Y-41799463D01*
X158066180Y-41740498D01*
X157985534Y-41716034D01*
X158069588Y-41640269D01*
X158243641Y-41406920D01*
X158368825Y-41144099D01*
X158413476Y-40996890D01*
X158292155Y-40767000D01*
X157099000Y-40767000D01*
X157099000Y-40787000D01*
X156845000Y-40787000D01*
X156845000Y-40767000D01*
X156825000Y-40767000D01*
X156825000Y-40513000D01*
X156845000Y-40513000D01*
X156845000Y-40493000D01*
X157099000Y-40493000D01*
X157099000Y-40513000D01*
X158292155Y-40513000D01*
X158413476Y-40283110D01*
X158368825Y-40135901D01*
X158243641Y-39873080D01*
X158171230Y-39776000D01*
X159316006Y-39776000D01*
X159287294Y-39810986D01*
M02*
