G04 #@! TF.GenerationSoftware,KiCad,Pcbnew,(5.1.4)-1*
G04 #@! TF.CreationDate,2019-10-21T16:34:43-04:00*
G04 #@! TF.ProjectId,relay_ctrl_turbo,72656c61-795f-4637-9472-6c5f74757262,rev?*
G04 #@! TF.SameCoordinates,Original*
G04 #@! TF.FileFunction,Copper,L2,Bot*
G04 #@! TF.FilePolarity,Positive*
%FSLAX46Y46*%
G04 Gerber Fmt 4.6, Leading zero omitted, Abs format (unit mm)*
G04 Created by KiCad (PCBNEW (5.1.4)-1) date 2019-10-21 16:34:44*
%MOMM*%
%LPD*%
G04 APERTURE LIST*
%ADD10O,1.700000X1.700000*%
%ADD11R,1.700000X1.700000*%
%ADD12O,1.600000X1.600000*%
%ADD13R,1.600000X1.600000*%
%ADD14O,1.400000X1.400000*%
%ADD15C,1.400000*%
%ADD16C,0.800000*%
%ADD17C,0.250000*%
%ADD18C,0.254000*%
G04 APERTURE END LIST*
D10*
X160528000Y-40640000D03*
D11*
X160528000Y-43180000D03*
D12*
X162466000Y-46644000D03*
X154846000Y-49184000D03*
X162466000Y-49184000D03*
D13*
X154846000Y-46644000D03*
D14*
X152654000Y-50546000D03*
D15*
X152654000Y-45466000D03*
D14*
X164592000Y-50546000D03*
D15*
X164592000Y-45466000D03*
D10*
X149860000Y-46736000D03*
D11*
X149860000Y-49276000D03*
D10*
X167386000Y-46736000D03*
D11*
X167386000Y-49276000D03*
D10*
X156972000Y-40640000D03*
D11*
X156972000Y-43180000D03*
D16*
X164592000Y-48006000D03*
X166370000Y-44958000D03*
X162306000Y-44704000D03*
D17*
X153643949Y-45466000D02*
X152654000Y-45466000D01*
X154718000Y-45466000D02*
X153643949Y-45466000D01*
X154846000Y-45594000D02*
X154718000Y-45466000D01*
X154846000Y-46644000D02*
X154846000Y-45594000D01*
D18*
G36*
X167996000Y-45378229D02*
G01*
X167957034Y-45357401D01*
X167677111Y-45272487D01*
X167458950Y-45251000D01*
X167313050Y-45251000D01*
X167094889Y-45272487D01*
X166814966Y-45357401D01*
X166556986Y-45495294D01*
X166330866Y-45680866D01*
X166145294Y-45906986D01*
X166007401Y-46164966D01*
X165922487Y-46444889D01*
X165893815Y-46736000D01*
X165922487Y-47027111D01*
X166007401Y-47307034D01*
X166145294Y-47565014D01*
X166330866Y-47791134D01*
X166360687Y-47815607D01*
X166291820Y-47836498D01*
X166181506Y-47895463D01*
X166084815Y-47974815D01*
X166005463Y-48071506D01*
X165946498Y-48181820D01*
X165910188Y-48301518D01*
X165897928Y-48426000D01*
X165897928Y-50126000D01*
X165910188Y-50250482D01*
X165946498Y-50370180D01*
X166005463Y-50480494D01*
X166084815Y-50577185D01*
X166181506Y-50656537D01*
X166291820Y-50715502D01*
X166411518Y-50751812D01*
X166536000Y-50764072D01*
X167996001Y-50764072D01*
X167996001Y-50902000D01*
X165879079Y-50902000D01*
X165907683Y-50807706D01*
X165933459Y-50546000D01*
X165907683Y-50284294D01*
X165831347Y-50032646D01*
X165707382Y-49800725D01*
X165540555Y-49597445D01*
X165337275Y-49430618D01*
X165105354Y-49306653D01*
X164853706Y-49230317D01*
X164657579Y-49211000D01*
X164526421Y-49211000D01*
X164330294Y-49230317D01*
X164078646Y-49306653D01*
X163885705Y-49409783D01*
X163907943Y-49184000D01*
X163880236Y-48902691D01*
X163798182Y-48632192D01*
X163664932Y-48382899D01*
X163485608Y-48164392D01*
X163267101Y-47985068D01*
X163134142Y-47914000D01*
X163267101Y-47842932D01*
X163485608Y-47663608D01*
X163664932Y-47445101D01*
X163798182Y-47195808D01*
X163880236Y-46925309D01*
X163907943Y-46644000D01*
X163903081Y-46594632D01*
X163909797Y-46621037D01*
X164148242Y-46731934D01*
X164403740Y-46794183D01*
X164666473Y-46805390D01*
X164926344Y-46765125D01*
X165173366Y-46674935D01*
X165274203Y-46621037D01*
X165333664Y-46387269D01*
X164592000Y-45645605D01*
X164577858Y-45659748D01*
X164398253Y-45480143D01*
X164412395Y-45466000D01*
X164398253Y-45451858D01*
X164577858Y-45272253D01*
X164592000Y-45286395D01*
X164606143Y-45272253D01*
X164785748Y-45451858D01*
X164771605Y-45466000D01*
X165513269Y-46207664D01*
X165747037Y-46148203D01*
X165857934Y-45909758D01*
X165920183Y-45654260D01*
X165931390Y-45391527D01*
X165891125Y-45131656D01*
X165800935Y-44884634D01*
X165747037Y-44783797D01*
X165513271Y-44724337D01*
X165629925Y-44607683D01*
X165624242Y-44602000D01*
X167996000Y-44602000D01*
X167996000Y-45378229D01*
X167996000Y-45378229D01*
G37*
X167996000Y-45378229D02*
X167957034Y-45357401D01*
X167677111Y-45272487D01*
X167458950Y-45251000D01*
X167313050Y-45251000D01*
X167094889Y-45272487D01*
X166814966Y-45357401D01*
X166556986Y-45495294D01*
X166330866Y-45680866D01*
X166145294Y-45906986D01*
X166007401Y-46164966D01*
X165922487Y-46444889D01*
X165893815Y-46736000D01*
X165922487Y-47027111D01*
X166007401Y-47307034D01*
X166145294Y-47565014D01*
X166330866Y-47791134D01*
X166360687Y-47815607D01*
X166291820Y-47836498D01*
X166181506Y-47895463D01*
X166084815Y-47974815D01*
X166005463Y-48071506D01*
X165946498Y-48181820D01*
X165910188Y-48301518D01*
X165897928Y-48426000D01*
X165897928Y-50126000D01*
X165910188Y-50250482D01*
X165946498Y-50370180D01*
X166005463Y-50480494D01*
X166084815Y-50577185D01*
X166181506Y-50656537D01*
X166291820Y-50715502D01*
X166411518Y-50751812D01*
X166536000Y-50764072D01*
X167996001Y-50764072D01*
X167996001Y-50902000D01*
X165879079Y-50902000D01*
X165907683Y-50807706D01*
X165933459Y-50546000D01*
X165907683Y-50284294D01*
X165831347Y-50032646D01*
X165707382Y-49800725D01*
X165540555Y-49597445D01*
X165337275Y-49430618D01*
X165105354Y-49306653D01*
X164853706Y-49230317D01*
X164657579Y-49211000D01*
X164526421Y-49211000D01*
X164330294Y-49230317D01*
X164078646Y-49306653D01*
X163885705Y-49409783D01*
X163907943Y-49184000D01*
X163880236Y-48902691D01*
X163798182Y-48632192D01*
X163664932Y-48382899D01*
X163485608Y-48164392D01*
X163267101Y-47985068D01*
X163134142Y-47914000D01*
X163267101Y-47842932D01*
X163485608Y-47663608D01*
X163664932Y-47445101D01*
X163798182Y-47195808D01*
X163880236Y-46925309D01*
X163907943Y-46644000D01*
X163903081Y-46594632D01*
X163909797Y-46621037D01*
X164148242Y-46731934D01*
X164403740Y-46794183D01*
X164666473Y-46805390D01*
X164926344Y-46765125D01*
X165173366Y-46674935D01*
X165274203Y-46621037D01*
X165333664Y-46387269D01*
X164592000Y-45645605D01*
X164577858Y-45659748D01*
X164398253Y-45480143D01*
X164412395Y-45466000D01*
X164398253Y-45451858D01*
X164577858Y-45272253D01*
X164592000Y-45286395D01*
X164606143Y-45272253D01*
X164785748Y-45451858D01*
X164771605Y-45466000D01*
X165513269Y-46207664D01*
X165747037Y-46148203D01*
X165857934Y-45909758D01*
X165920183Y-45654260D01*
X165931390Y-45391527D01*
X165891125Y-45131656D01*
X165800935Y-44884634D01*
X165747037Y-44783797D01*
X165513271Y-44724337D01*
X165629925Y-44607683D01*
X165624242Y-44602000D01*
X167996000Y-44602000D01*
X167996000Y-45378229D01*
G36*
X159287294Y-39810986D02*
G01*
X159149401Y-40068966D01*
X159064487Y-40348889D01*
X159035815Y-40640000D01*
X159064487Y-40931111D01*
X159149401Y-41211034D01*
X159287294Y-41469014D01*
X159472866Y-41695134D01*
X159502687Y-41719607D01*
X159433820Y-41740498D01*
X159323506Y-41799463D01*
X159226815Y-41878815D01*
X159147463Y-41975506D01*
X159088498Y-42085820D01*
X159052188Y-42205518D01*
X159039928Y-42330000D01*
X159039928Y-44030000D01*
X159052188Y-44154482D01*
X159088498Y-44274180D01*
X159147463Y-44384494D01*
X159226815Y-44481185D01*
X159323506Y-44560537D01*
X159433820Y-44619502D01*
X159553518Y-44655812D01*
X159678000Y-44668072D01*
X161378000Y-44668072D01*
X161502482Y-44655812D01*
X161622180Y-44619502D01*
X161732494Y-44560537D01*
X161829185Y-44481185D01*
X161866795Y-44435357D01*
X161937550Y-44493425D01*
X162052207Y-44554710D01*
X162176617Y-44592450D01*
X162273581Y-44602000D01*
X162306000Y-44605193D01*
X162338419Y-44602000D01*
X163559758Y-44602000D01*
X163554075Y-44607683D01*
X163670729Y-44724337D01*
X163436963Y-44783797D01*
X163326066Y-45022242D01*
X163263817Y-45277740D01*
X163256912Y-45439622D01*
X163017808Y-45311818D01*
X162747309Y-45229764D01*
X162536492Y-45209000D01*
X162395508Y-45209000D01*
X162184691Y-45229764D01*
X161914192Y-45311818D01*
X161664899Y-45445068D01*
X161446392Y-45624392D01*
X161267068Y-45842899D01*
X161133818Y-46092192D01*
X161051764Y-46362691D01*
X161024057Y-46644000D01*
X161051764Y-46925309D01*
X161133818Y-47195808D01*
X161267068Y-47445101D01*
X161446392Y-47663608D01*
X161664899Y-47842932D01*
X161797858Y-47914000D01*
X161664899Y-47985068D01*
X161446392Y-48164392D01*
X161267068Y-48382899D01*
X161133818Y-48632192D01*
X161051764Y-48902691D01*
X161024057Y-49184000D01*
X161051764Y-49465309D01*
X161133818Y-49735808D01*
X161267068Y-49985101D01*
X161446392Y-50203608D01*
X161664899Y-50382932D01*
X161914192Y-50516182D01*
X162184691Y-50598236D01*
X162395508Y-50619000D01*
X162536492Y-50619000D01*
X162747309Y-50598236D01*
X163017808Y-50516182D01*
X163266574Y-50383214D01*
X163250541Y-50546000D01*
X163276317Y-50807706D01*
X163304921Y-50902000D01*
X153941079Y-50902000D01*
X153969683Y-50807706D01*
X153995459Y-50546000D01*
X153973239Y-50320398D01*
X153990869Y-50336385D01*
X154232119Y-50481070D01*
X154496960Y-50575909D01*
X154719000Y-50454624D01*
X154719000Y-49311000D01*
X154973000Y-49311000D01*
X154973000Y-50454624D01*
X155195040Y-50575909D01*
X155459881Y-50481070D01*
X155701131Y-50336385D01*
X155909519Y-50147414D01*
X156077037Y-49921420D01*
X156197246Y-49667087D01*
X156237904Y-49533039D01*
X156115915Y-49311000D01*
X154973000Y-49311000D01*
X154719000Y-49311000D01*
X153576085Y-49311000D01*
X153475843Y-49493456D01*
X153399275Y-49430618D01*
X153167354Y-49306653D01*
X152915706Y-49230317D01*
X152719579Y-49211000D01*
X152588421Y-49211000D01*
X152392294Y-49230317D01*
X152140646Y-49306653D01*
X151908725Y-49430618D01*
X151705445Y-49597445D01*
X151538618Y-49800725D01*
X151414653Y-50032646D01*
X151338317Y-50284294D01*
X151312541Y-50546000D01*
X151338317Y-50807706D01*
X151366921Y-50902000D01*
X149250000Y-50902000D01*
X149250000Y-50764072D01*
X150710000Y-50764072D01*
X150834482Y-50751812D01*
X150954180Y-50715502D01*
X151064494Y-50656537D01*
X151161185Y-50577185D01*
X151240537Y-50480494D01*
X151299502Y-50370180D01*
X151335812Y-50250482D01*
X151348072Y-50126000D01*
X151348072Y-48426000D01*
X151335812Y-48301518D01*
X151299502Y-48181820D01*
X151240537Y-48071506D01*
X151161185Y-47974815D01*
X151064494Y-47895463D01*
X150954180Y-47836498D01*
X150885313Y-47815607D01*
X150915134Y-47791134D01*
X151100706Y-47565014D01*
X151238599Y-47307034D01*
X151323513Y-47027111D01*
X151352185Y-46736000D01*
X151323513Y-46444889D01*
X151238599Y-46164966D01*
X151100706Y-45906986D01*
X150915134Y-45680866D01*
X150689014Y-45495294D01*
X150431034Y-45357401D01*
X150151111Y-45272487D01*
X149932950Y-45251000D01*
X149787050Y-45251000D01*
X149568889Y-45272487D01*
X149288966Y-45357401D01*
X149250000Y-45378229D01*
X149250000Y-44602000D01*
X151630025Y-44602000D01*
X151617038Y-44614987D01*
X151470939Y-44833641D01*
X151370304Y-45076595D01*
X151319000Y-45334514D01*
X151319000Y-45597486D01*
X151370304Y-45855405D01*
X151470939Y-46098359D01*
X151617038Y-46317013D01*
X151802987Y-46502962D01*
X152021641Y-46649061D01*
X152264595Y-46749696D01*
X152522514Y-46801000D01*
X152785486Y-46801000D01*
X153043405Y-46749696D01*
X153286359Y-46649061D01*
X153407928Y-46567832D01*
X153407928Y-47444000D01*
X153420188Y-47568482D01*
X153456498Y-47688180D01*
X153515463Y-47798494D01*
X153594815Y-47895185D01*
X153691506Y-47974537D01*
X153801820Y-48033502D01*
X153921518Y-48069812D01*
X153946080Y-48072231D01*
X153782481Y-48220586D01*
X153614963Y-48446580D01*
X153494754Y-48700913D01*
X153454096Y-48834961D01*
X153576085Y-49057000D01*
X154719000Y-49057000D01*
X154719000Y-49037000D01*
X154973000Y-49037000D01*
X154973000Y-49057000D01*
X156115915Y-49057000D01*
X156237904Y-48834961D01*
X156197246Y-48700913D01*
X156077037Y-48446580D01*
X155909519Y-48220586D01*
X155745920Y-48072231D01*
X155770482Y-48069812D01*
X155890180Y-48033502D01*
X156000494Y-47974537D01*
X156097185Y-47895185D01*
X156176537Y-47798494D01*
X156235502Y-47688180D01*
X156271812Y-47568482D01*
X156284072Y-47444000D01*
X156284072Y-45844000D01*
X156271812Y-45719518D01*
X156235502Y-45599820D01*
X156176537Y-45489506D01*
X156097185Y-45392815D01*
X156000494Y-45313463D01*
X155890180Y-45254498D01*
X155770482Y-45218188D01*
X155646000Y-45205928D01*
X155500326Y-45205928D01*
X155480974Y-45169724D01*
X155386001Y-45053999D01*
X155356997Y-45030196D01*
X155281804Y-44955003D01*
X155258001Y-44925999D01*
X155142276Y-44831026D01*
X155010247Y-44760454D01*
X154866986Y-44716997D01*
X154755333Y-44706000D01*
X154755322Y-44706000D01*
X154718000Y-44702324D01*
X154680678Y-44706000D01*
X153751775Y-44706000D01*
X153690962Y-44614987D01*
X153677975Y-44602000D01*
X155161581Y-44602000D01*
X155194000Y-44605193D01*
X155226419Y-44602000D01*
X155323383Y-44592450D01*
X155447793Y-44554710D01*
X155562450Y-44493425D01*
X155633205Y-44435357D01*
X155670815Y-44481185D01*
X155767506Y-44560537D01*
X155877820Y-44619502D01*
X155997518Y-44655812D01*
X156122000Y-44668072D01*
X157822000Y-44668072D01*
X157946482Y-44655812D01*
X158066180Y-44619502D01*
X158176494Y-44560537D01*
X158273185Y-44481185D01*
X158352537Y-44384494D01*
X158411502Y-44274180D01*
X158447812Y-44154482D01*
X158460072Y-44030000D01*
X158460072Y-42330000D01*
X158447812Y-42205518D01*
X158411502Y-42085820D01*
X158352537Y-41975506D01*
X158273185Y-41878815D01*
X158176494Y-41799463D01*
X158066180Y-41740498D01*
X157985534Y-41716034D01*
X158069588Y-41640269D01*
X158243641Y-41406920D01*
X158368825Y-41144099D01*
X158413476Y-40996890D01*
X158292155Y-40767000D01*
X157099000Y-40767000D01*
X157099000Y-40787000D01*
X156845000Y-40787000D01*
X156845000Y-40767000D01*
X156825000Y-40767000D01*
X156825000Y-40513000D01*
X156845000Y-40513000D01*
X156845000Y-40493000D01*
X157099000Y-40493000D01*
X157099000Y-40513000D01*
X158292155Y-40513000D01*
X158413476Y-40283110D01*
X158368825Y-40135901D01*
X158243641Y-39873080D01*
X158171230Y-39776000D01*
X159316006Y-39776000D01*
X159287294Y-39810986D01*
X159287294Y-39810986D01*
G37*
X159287294Y-39810986D02*
X159149401Y-40068966D01*
X159064487Y-40348889D01*
X159035815Y-40640000D01*
X159064487Y-40931111D01*
X159149401Y-41211034D01*
X159287294Y-41469014D01*
X159472866Y-41695134D01*
X159502687Y-41719607D01*
X159433820Y-41740498D01*
X159323506Y-41799463D01*
X159226815Y-41878815D01*
X159147463Y-41975506D01*
X159088498Y-42085820D01*
X159052188Y-42205518D01*
X159039928Y-42330000D01*
X159039928Y-44030000D01*
X159052188Y-44154482D01*
X159088498Y-44274180D01*
X159147463Y-44384494D01*
X159226815Y-44481185D01*
X159323506Y-44560537D01*
X159433820Y-44619502D01*
X159553518Y-44655812D01*
X159678000Y-44668072D01*
X161378000Y-44668072D01*
X161502482Y-44655812D01*
X161622180Y-44619502D01*
X161732494Y-44560537D01*
X161829185Y-44481185D01*
X161866795Y-44435357D01*
X161937550Y-44493425D01*
X162052207Y-44554710D01*
X162176617Y-44592450D01*
X162273581Y-44602000D01*
X162306000Y-44605193D01*
X162338419Y-44602000D01*
X163559758Y-44602000D01*
X163554075Y-44607683D01*
X163670729Y-44724337D01*
X163436963Y-44783797D01*
X163326066Y-45022242D01*
X163263817Y-45277740D01*
X163256912Y-45439622D01*
X163017808Y-45311818D01*
X162747309Y-45229764D01*
X162536492Y-45209000D01*
X162395508Y-45209000D01*
X162184691Y-45229764D01*
X161914192Y-45311818D01*
X161664899Y-45445068D01*
X161446392Y-45624392D01*
X161267068Y-45842899D01*
X161133818Y-46092192D01*
X161051764Y-46362691D01*
X161024057Y-46644000D01*
X161051764Y-46925309D01*
X161133818Y-47195808D01*
X161267068Y-47445101D01*
X161446392Y-47663608D01*
X161664899Y-47842932D01*
X161797858Y-47914000D01*
X161664899Y-47985068D01*
X161446392Y-48164392D01*
X161267068Y-48382899D01*
X161133818Y-48632192D01*
X161051764Y-48902691D01*
X161024057Y-49184000D01*
X161051764Y-49465309D01*
X161133818Y-49735808D01*
X161267068Y-49985101D01*
X161446392Y-50203608D01*
X161664899Y-50382932D01*
X161914192Y-50516182D01*
X162184691Y-50598236D01*
X162395508Y-50619000D01*
X162536492Y-50619000D01*
X162747309Y-50598236D01*
X163017808Y-50516182D01*
X163266574Y-50383214D01*
X163250541Y-50546000D01*
X163276317Y-50807706D01*
X163304921Y-50902000D01*
X153941079Y-50902000D01*
X153969683Y-50807706D01*
X153995459Y-50546000D01*
X153973239Y-50320398D01*
X153990869Y-50336385D01*
X154232119Y-50481070D01*
X154496960Y-50575909D01*
X154719000Y-50454624D01*
X154719000Y-49311000D01*
X154973000Y-49311000D01*
X154973000Y-50454624D01*
X155195040Y-50575909D01*
X155459881Y-50481070D01*
X155701131Y-50336385D01*
X155909519Y-50147414D01*
X156077037Y-49921420D01*
X156197246Y-49667087D01*
X156237904Y-49533039D01*
X156115915Y-49311000D01*
X154973000Y-49311000D01*
X154719000Y-49311000D01*
X153576085Y-49311000D01*
X153475843Y-49493456D01*
X153399275Y-49430618D01*
X153167354Y-49306653D01*
X152915706Y-49230317D01*
X152719579Y-49211000D01*
X152588421Y-49211000D01*
X152392294Y-49230317D01*
X152140646Y-49306653D01*
X151908725Y-49430618D01*
X151705445Y-49597445D01*
X151538618Y-49800725D01*
X151414653Y-50032646D01*
X151338317Y-50284294D01*
X151312541Y-50546000D01*
X151338317Y-50807706D01*
X151366921Y-50902000D01*
X149250000Y-50902000D01*
X149250000Y-50764072D01*
X150710000Y-50764072D01*
X150834482Y-50751812D01*
X150954180Y-50715502D01*
X151064494Y-50656537D01*
X151161185Y-50577185D01*
X151240537Y-50480494D01*
X151299502Y-50370180D01*
X151335812Y-50250482D01*
X151348072Y-50126000D01*
X151348072Y-48426000D01*
X151335812Y-48301518D01*
X151299502Y-48181820D01*
X151240537Y-48071506D01*
X151161185Y-47974815D01*
X151064494Y-47895463D01*
X150954180Y-47836498D01*
X150885313Y-47815607D01*
X150915134Y-47791134D01*
X151100706Y-47565014D01*
X151238599Y-47307034D01*
X151323513Y-47027111D01*
X151352185Y-46736000D01*
X151323513Y-46444889D01*
X151238599Y-46164966D01*
X151100706Y-45906986D01*
X150915134Y-45680866D01*
X150689014Y-45495294D01*
X150431034Y-45357401D01*
X150151111Y-45272487D01*
X149932950Y-45251000D01*
X149787050Y-45251000D01*
X149568889Y-45272487D01*
X149288966Y-45357401D01*
X149250000Y-45378229D01*
X149250000Y-44602000D01*
X151630025Y-44602000D01*
X151617038Y-44614987D01*
X151470939Y-44833641D01*
X151370304Y-45076595D01*
X151319000Y-45334514D01*
X151319000Y-45597486D01*
X151370304Y-45855405D01*
X151470939Y-46098359D01*
X151617038Y-46317013D01*
X151802987Y-46502962D01*
X152021641Y-46649061D01*
X152264595Y-46749696D01*
X152522514Y-46801000D01*
X152785486Y-46801000D01*
X153043405Y-46749696D01*
X153286359Y-46649061D01*
X153407928Y-46567832D01*
X153407928Y-47444000D01*
X153420188Y-47568482D01*
X153456498Y-47688180D01*
X153515463Y-47798494D01*
X153594815Y-47895185D01*
X153691506Y-47974537D01*
X153801820Y-48033502D01*
X153921518Y-48069812D01*
X153946080Y-48072231D01*
X153782481Y-48220586D01*
X153614963Y-48446580D01*
X153494754Y-48700913D01*
X153454096Y-48834961D01*
X153576085Y-49057000D01*
X154719000Y-49057000D01*
X154719000Y-49037000D01*
X154973000Y-49037000D01*
X154973000Y-49057000D01*
X156115915Y-49057000D01*
X156237904Y-48834961D01*
X156197246Y-48700913D01*
X156077037Y-48446580D01*
X155909519Y-48220586D01*
X155745920Y-48072231D01*
X155770482Y-48069812D01*
X155890180Y-48033502D01*
X156000494Y-47974537D01*
X156097185Y-47895185D01*
X156176537Y-47798494D01*
X156235502Y-47688180D01*
X156271812Y-47568482D01*
X156284072Y-47444000D01*
X156284072Y-45844000D01*
X156271812Y-45719518D01*
X156235502Y-45599820D01*
X156176537Y-45489506D01*
X156097185Y-45392815D01*
X156000494Y-45313463D01*
X155890180Y-45254498D01*
X155770482Y-45218188D01*
X155646000Y-45205928D01*
X155500326Y-45205928D01*
X155480974Y-45169724D01*
X155386001Y-45053999D01*
X155356997Y-45030196D01*
X155281804Y-44955003D01*
X155258001Y-44925999D01*
X155142276Y-44831026D01*
X155010247Y-44760454D01*
X154866986Y-44716997D01*
X154755333Y-44706000D01*
X154755322Y-44706000D01*
X154718000Y-44702324D01*
X154680678Y-44706000D01*
X153751775Y-44706000D01*
X153690962Y-44614987D01*
X153677975Y-44602000D01*
X155161581Y-44602000D01*
X155194000Y-44605193D01*
X155226419Y-44602000D01*
X155323383Y-44592450D01*
X155447793Y-44554710D01*
X155562450Y-44493425D01*
X155633205Y-44435357D01*
X155670815Y-44481185D01*
X155767506Y-44560537D01*
X155877820Y-44619502D01*
X155997518Y-44655812D01*
X156122000Y-44668072D01*
X157822000Y-44668072D01*
X157946482Y-44655812D01*
X158066180Y-44619502D01*
X158176494Y-44560537D01*
X158273185Y-44481185D01*
X158352537Y-44384494D01*
X158411502Y-44274180D01*
X158447812Y-44154482D01*
X158460072Y-44030000D01*
X158460072Y-42330000D01*
X158447812Y-42205518D01*
X158411502Y-42085820D01*
X158352537Y-41975506D01*
X158273185Y-41878815D01*
X158176494Y-41799463D01*
X158066180Y-41740498D01*
X157985534Y-41716034D01*
X158069588Y-41640269D01*
X158243641Y-41406920D01*
X158368825Y-41144099D01*
X158413476Y-40996890D01*
X158292155Y-40767000D01*
X157099000Y-40767000D01*
X157099000Y-40787000D01*
X156845000Y-40787000D01*
X156845000Y-40767000D01*
X156825000Y-40767000D01*
X156825000Y-40513000D01*
X156845000Y-40513000D01*
X156845000Y-40493000D01*
X157099000Y-40493000D01*
X157099000Y-40513000D01*
X158292155Y-40513000D01*
X158413476Y-40283110D01*
X158368825Y-40135901D01*
X158243641Y-39873080D01*
X158171230Y-39776000D01*
X159316006Y-39776000D01*
X159287294Y-39810986D01*
M02*
