G04 #@! TF.GenerationSoftware,KiCad,Pcbnew,(5.1.4)-1*
G04 #@! TF.CreationDate,2019-10-21T16:34:44-04:00*
G04 #@! TF.ProjectId,relay_ctrl_turbo,72656c61-795f-4637-9472-6c5f74757262,rev?*
G04 #@! TF.SameCoordinates,Original*
G04 #@! TF.FileFunction,Soldermask,Top*
G04 #@! TF.FilePolarity,Negative*
%FSLAX46Y46*%
G04 Gerber Fmt 4.6, Leading zero omitted, Abs format (unit mm)*
G04 Created by KiCad (PCBNEW (5.1.4)-1) date 2019-10-21 16:34:44*
%MOMM*%
%LPD*%
G04 APERTURE LIST*
%ADD10C,0.100000*%
G04 APERTURE END LIST*
D10*
G36*
X164665665Y-49798622D02*
G01*
X164739222Y-49805867D01*
X164880786Y-49848810D01*
X165011252Y-49918546D01*
X165041040Y-49942992D01*
X165125607Y-50012393D01*
X165195008Y-50096960D01*
X165219454Y-50126748D01*
X165289190Y-50257214D01*
X165332133Y-50398778D01*
X165346633Y-50546000D01*
X165332133Y-50693222D01*
X165289190Y-50834786D01*
X165219454Y-50965252D01*
X165195008Y-50995040D01*
X165125607Y-51079607D01*
X165041040Y-51149008D01*
X165011252Y-51173454D01*
X164880786Y-51243190D01*
X164739222Y-51286133D01*
X164665665Y-51293378D01*
X164628888Y-51297000D01*
X164555112Y-51297000D01*
X164518335Y-51293378D01*
X164444778Y-51286133D01*
X164303214Y-51243190D01*
X164172748Y-51173454D01*
X164142960Y-51149008D01*
X164058393Y-51079607D01*
X163988992Y-50995040D01*
X163964546Y-50965252D01*
X163894810Y-50834786D01*
X163851867Y-50693222D01*
X163837367Y-50546000D01*
X163851867Y-50398778D01*
X163894810Y-50257214D01*
X163964546Y-50126748D01*
X163988992Y-50096960D01*
X164058393Y-50012393D01*
X164142960Y-49942992D01*
X164172748Y-49918546D01*
X164303214Y-49848810D01*
X164444778Y-49805867D01*
X164518335Y-49798622D01*
X164555112Y-49795000D01*
X164628888Y-49795000D01*
X164665665Y-49798622D01*
X164665665Y-49798622D01*
G37*
G36*
X152727665Y-49798622D02*
G01*
X152801222Y-49805867D01*
X152942786Y-49848810D01*
X153073252Y-49918546D01*
X153103040Y-49942992D01*
X153187607Y-50012393D01*
X153257008Y-50096960D01*
X153281454Y-50126748D01*
X153351190Y-50257214D01*
X153394133Y-50398778D01*
X153408633Y-50546000D01*
X153394133Y-50693222D01*
X153351190Y-50834786D01*
X153281454Y-50965252D01*
X153257008Y-50995040D01*
X153187607Y-51079607D01*
X153103040Y-51149008D01*
X153073252Y-51173454D01*
X152942786Y-51243190D01*
X152801222Y-51286133D01*
X152727665Y-51293378D01*
X152690888Y-51297000D01*
X152617112Y-51297000D01*
X152580335Y-51293378D01*
X152506778Y-51286133D01*
X152365214Y-51243190D01*
X152234748Y-51173454D01*
X152204960Y-51149008D01*
X152120393Y-51079607D01*
X152050992Y-50995040D01*
X152026546Y-50965252D01*
X151956810Y-50834786D01*
X151913867Y-50693222D01*
X151899367Y-50546000D01*
X151913867Y-50398778D01*
X151956810Y-50257214D01*
X152026546Y-50126748D01*
X152050992Y-50096960D01*
X152120393Y-50012393D01*
X152204960Y-49942992D01*
X152234748Y-49918546D01*
X152365214Y-49848810D01*
X152506778Y-49805867D01*
X152580335Y-49798622D01*
X152617112Y-49795000D01*
X152690888Y-49795000D01*
X152727665Y-49798622D01*
X152727665Y-49798622D01*
G37*
G36*
X150761000Y-50177000D02*
G01*
X148959000Y-50177000D01*
X148959000Y-48375000D01*
X150761000Y-48375000D01*
X150761000Y-50177000D01*
X150761000Y-50177000D01*
G37*
G36*
X168287000Y-50177000D02*
G01*
X166485000Y-50177000D01*
X166485000Y-48375000D01*
X168287000Y-48375000D01*
X168287000Y-50177000D01*
X168287000Y-50177000D01*
G37*
G36*
X162632823Y-48345313D02*
G01*
X162793242Y-48393976D01*
X162925906Y-48464886D01*
X162941078Y-48472996D01*
X163070659Y-48579341D01*
X163177004Y-48708922D01*
X163177005Y-48708924D01*
X163256024Y-48856758D01*
X163304687Y-49017177D01*
X163321117Y-49184000D01*
X163304687Y-49350823D01*
X163256024Y-49511242D01*
X163185114Y-49643906D01*
X163177004Y-49659078D01*
X163070659Y-49788659D01*
X162941078Y-49895004D01*
X162941076Y-49895005D01*
X162793242Y-49974024D01*
X162632823Y-50022687D01*
X162507804Y-50035000D01*
X162424196Y-50035000D01*
X162299177Y-50022687D01*
X162138758Y-49974024D01*
X161990924Y-49895005D01*
X161990922Y-49895004D01*
X161861341Y-49788659D01*
X161754996Y-49659078D01*
X161746886Y-49643906D01*
X161675976Y-49511242D01*
X161627313Y-49350823D01*
X161610883Y-49184000D01*
X161627313Y-49017177D01*
X161675976Y-48856758D01*
X161754995Y-48708924D01*
X161754996Y-48708922D01*
X161861341Y-48579341D01*
X161990922Y-48472996D01*
X162006094Y-48464886D01*
X162138758Y-48393976D01*
X162299177Y-48345313D01*
X162424196Y-48333000D01*
X162507804Y-48333000D01*
X162632823Y-48345313D01*
X162632823Y-48345313D01*
G37*
G36*
X155012823Y-48345313D02*
G01*
X155173242Y-48393976D01*
X155305906Y-48464886D01*
X155321078Y-48472996D01*
X155450659Y-48579341D01*
X155557004Y-48708922D01*
X155557005Y-48708924D01*
X155636024Y-48856758D01*
X155684687Y-49017177D01*
X155701117Y-49184000D01*
X155684687Y-49350823D01*
X155636024Y-49511242D01*
X155565114Y-49643906D01*
X155557004Y-49659078D01*
X155450659Y-49788659D01*
X155321078Y-49895004D01*
X155321076Y-49895005D01*
X155173242Y-49974024D01*
X155012823Y-50022687D01*
X154887804Y-50035000D01*
X154804196Y-50035000D01*
X154679177Y-50022687D01*
X154518758Y-49974024D01*
X154370924Y-49895005D01*
X154370922Y-49895004D01*
X154241341Y-49788659D01*
X154134996Y-49659078D01*
X154126886Y-49643906D01*
X154055976Y-49511242D01*
X154007313Y-49350823D01*
X153990883Y-49184000D01*
X154007313Y-49017177D01*
X154055976Y-48856758D01*
X154134995Y-48708924D01*
X154134996Y-48708922D01*
X154241341Y-48579341D01*
X154370922Y-48472996D01*
X154386094Y-48464886D01*
X154518758Y-48393976D01*
X154679177Y-48345313D01*
X154804196Y-48333000D01*
X154887804Y-48333000D01*
X155012823Y-48345313D01*
X155012823Y-48345313D01*
G37*
G36*
X167496443Y-45841519D02*
G01*
X167562627Y-45848037D01*
X167732466Y-45899557D01*
X167732468Y-45899558D01*
X167810729Y-45941390D01*
X167888991Y-45983222D01*
X167924729Y-46012552D01*
X168026186Y-46095814D01*
X168101955Y-46188140D01*
X168138778Y-46233009D01*
X168222443Y-46389534D01*
X168273963Y-46559373D01*
X168291359Y-46736000D01*
X168273963Y-46912627D01*
X168222443Y-47082466D01*
X168138778Y-47238991D01*
X168109448Y-47274729D01*
X168026186Y-47376186D01*
X167924729Y-47459448D01*
X167888991Y-47488778D01*
X167732466Y-47572443D01*
X167562627Y-47623963D01*
X167496442Y-47630482D01*
X167430260Y-47637000D01*
X167341740Y-47637000D01*
X167275558Y-47630482D01*
X167209373Y-47623963D01*
X167039534Y-47572443D01*
X166883009Y-47488778D01*
X166847271Y-47459448D01*
X166745814Y-47376186D01*
X166662552Y-47274729D01*
X166633222Y-47238991D01*
X166549557Y-47082466D01*
X166498037Y-46912627D01*
X166480641Y-46736000D01*
X166498037Y-46559373D01*
X166549557Y-46389534D01*
X166633222Y-46233009D01*
X166670045Y-46188140D01*
X166745814Y-46095814D01*
X166847271Y-46012552D01*
X166883009Y-45983222D01*
X166961272Y-45941389D01*
X167039532Y-45899558D01*
X167039534Y-45899557D01*
X167209373Y-45848037D01*
X167275558Y-45841518D01*
X167341740Y-45835000D01*
X167430260Y-45835000D01*
X167496443Y-45841519D01*
X167496443Y-45841519D01*
G37*
G36*
X149970443Y-45841519D02*
G01*
X150036627Y-45848037D01*
X150206466Y-45899557D01*
X150206468Y-45899558D01*
X150284729Y-45941390D01*
X150362991Y-45983222D01*
X150398729Y-46012552D01*
X150500186Y-46095814D01*
X150575955Y-46188140D01*
X150612778Y-46233009D01*
X150696443Y-46389534D01*
X150747963Y-46559373D01*
X150765359Y-46736000D01*
X150747963Y-46912627D01*
X150696443Y-47082466D01*
X150612778Y-47238991D01*
X150583448Y-47274729D01*
X150500186Y-47376186D01*
X150398729Y-47459448D01*
X150362991Y-47488778D01*
X150206466Y-47572443D01*
X150036627Y-47623963D01*
X149970442Y-47630482D01*
X149904260Y-47637000D01*
X149815740Y-47637000D01*
X149749558Y-47630482D01*
X149683373Y-47623963D01*
X149513534Y-47572443D01*
X149357009Y-47488778D01*
X149321271Y-47459448D01*
X149219814Y-47376186D01*
X149136552Y-47274729D01*
X149107222Y-47238991D01*
X149023557Y-47082466D01*
X148972037Y-46912627D01*
X148954641Y-46736000D01*
X148972037Y-46559373D01*
X149023557Y-46389534D01*
X149107222Y-46233009D01*
X149144045Y-46188140D01*
X149219814Y-46095814D01*
X149321271Y-46012552D01*
X149357009Y-45983222D01*
X149435272Y-45941389D01*
X149513532Y-45899558D01*
X149513534Y-45899557D01*
X149683373Y-45848037D01*
X149749558Y-45841518D01*
X149815740Y-45835000D01*
X149904260Y-45835000D01*
X149970443Y-45841519D01*
X149970443Y-45841519D01*
G37*
G36*
X155697000Y-47495000D02*
G01*
X153995000Y-47495000D01*
X153995000Y-45793000D01*
X155697000Y-45793000D01*
X155697000Y-47495000D01*
X155697000Y-47495000D01*
G37*
G36*
X162632823Y-45805313D02*
G01*
X162793242Y-45853976D01*
X162925906Y-45924886D01*
X162941078Y-45932996D01*
X163070659Y-46039341D01*
X163177004Y-46168922D01*
X163177005Y-46168924D01*
X163256024Y-46316758D01*
X163304687Y-46477177D01*
X163321117Y-46644000D01*
X163304687Y-46810823D01*
X163256024Y-46971242D01*
X163196573Y-47082466D01*
X163177004Y-47119078D01*
X163070659Y-47248659D01*
X162941078Y-47355004D01*
X162941076Y-47355005D01*
X162793242Y-47434024D01*
X162632823Y-47482687D01*
X162507804Y-47495000D01*
X162424196Y-47495000D01*
X162299177Y-47482687D01*
X162138758Y-47434024D01*
X161990924Y-47355005D01*
X161990922Y-47355004D01*
X161861341Y-47248659D01*
X161754996Y-47119078D01*
X161735427Y-47082466D01*
X161675976Y-46971242D01*
X161627313Y-46810823D01*
X161610883Y-46644000D01*
X161627313Y-46477177D01*
X161675976Y-46316758D01*
X161754995Y-46168924D01*
X161754996Y-46168922D01*
X161861341Y-46039341D01*
X161990922Y-45932996D01*
X162006094Y-45924886D01*
X162138758Y-45853976D01*
X162299177Y-45805313D01*
X162424196Y-45793000D01*
X162507804Y-45793000D01*
X162632823Y-45805313D01*
X162632823Y-45805313D01*
G37*
G36*
X152873059Y-44743860D02*
G01*
X153009732Y-44800472D01*
X153132735Y-44882660D01*
X153237340Y-44987265D01*
X153319528Y-45110268D01*
X153376140Y-45246941D01*
X153405000Y-45392033D01*
X153405000Y-45539967D01*
X153376140Y-45685059D01*
X153319528Y-45821732D01*
X153237340Y-45944735D01*
X153132735Y-46049340D01*
X153009732Y-46131528D01*
X153009731Y-46131529D01*
X153009730Y-46131529D01*
X152873059Y-46188140D01*
X152727968Y-46217000D01*
X152580032Y-46217000D01*
X152434941Y-46188140D01*
X152298270Y-46131529D01*
X152298269Y-46131529D01*
X152298268Y-46131528D01*
X152175265Y-46049340D01*
X152070660Y-45944735D01*
X151988472Y-45821732D01*
X151931860Y-45685059D01*
X151903000Y-45539967D01*
X151903000Y-45392033D01*
X151931860Y-45246941D01*
X151988472Y-45110268D01*
X152070660Y-44987265D01*
X152175265Y-44882660D01*
X152298268Y-44800472D01*
X152434941Y-44743860D01*
X152580032Y-44715000D01*
X152727968Y-44715000D01*
X152873059Y-44743860D01*
X152873059Y-44743860D01*
G37*
G36*
X164811059Y-44743860D02*
G01*
X164947732Y-44800472D01*
X165070735Y-44882660D01*
X165175340Y-44987265D01*
X165257528Y-45110268D01*
X165314140Y-45246941D01*
X165343000Y-45392033D01*
X165343000Y-45539967D01*
X165314140Y-45685059D01*
X165257528Y-45821732D01*
X165175340Y-45944735D01*
X165070735Y-46049340D01*
X164947732Y-46131528D01*
X164947731Y-46131529D01*
X164947730Y-46131529D01*
X164811059Y-46188140D01*
X164665968Y-46217000D01*
X164518032Y-46217000D01*
X164372941Y-46188140D01*
X164236270Y-46131529D01*
X164236269Y-46131529D01*
X164236268Y-46131528D01*
X164113265Y-46049340D01*
X164008660Y-45944735D01*
X163926472Y-45821732D01*
X163869860Y-45685059D01*
X163841000Y-45539967D01*
X163841000Y-45392033D01*
X163869860Y-45246941D01*
X163926472Y-45110268D01*
X164008660Y-44987265D01*
X164113265Y-44882660D01*
X164236268Y-44800472D01*
X164372941Y-44743860D01*
X164518032Y-44715000D01*
X164665968Y-44715000D01*
X164811059Y-44743860D01*
X164811059Y-44743860D01*
G37*
G36*
X157873000Y-44081000D02*
G01*
X156071000Y-44081000D01*
X156071000Y-42279000D01*
X157873000Y-42279000D01*
X157873000Y-44081000D01*
X157873000Y-44081000D01*
G37*
G36*
X161429000Y-44081000D02*
G01*
X159627000Y-44081000D01*
X159627000Y-42279000D01*
X161429000Y-42279000D01*
X161429000Y-44081000D01*
X161429000Y-44081000D01*
G37*
G36*
X160638442Y-39745518D02*
G01*
X160704627Y-39752037D01*
X160874466Y-39803557D01*
X161030991Y-39887222D01*
X161066729Y-39916552D01*
X161168186Y-39999814D01*
X161251448Y-40101271D01*
X161280778Y-40137009D01*
X161364443Y-40293534D01*
X161415963Y-40463373D01*
X161433359Y-40640000D01*
X161415963Y-40816627D01*
X161364443Y-40986466D01*
X161280778Y-41142991D01*
X161251448Y-41178729D01*
X161168186Y-41280186D01*
X161066729Y-41363448D01*
X161030991Y-41392778D01*
X160874466Y-41476443D01*
X160704627Y-41527963D01*
X160638442Y-41534482D01*
X160572260Y-41541000D01*
X160483740Y-41541000D01*
X160417558Y-41534482D01*
X160351373Y-41527963D01*
X160181534Y-41476443D01*
X160025009Y-41392778D01*
X159989271Y-41363448D01*
X159887814Y-41280186D01*
X159804552Y-41178729D01*
X159775222Y-41142991D01*
X159691557Y-40986466D01*
X159640037Y-40816627D01*
X159622641Y-40640000D01*
X159640037Y-40463373D01*
X159691557Y-40293534D01*
X159775222Y-40137009D01*
X159804552Y-40101271D01*
X159887814Y-39999814D01*
X159989271Y-39916552D01*
X160025009Y-39887222D01*
X160181534Y-39803557D01*
X160351373Y-39752037D01*
X160417557Y-39745519D01*
X160483740Y-39739000D01*
X160572260Y-39739000D01*
X160638442Y-39745518D01*
X160638442Y-39745518D01*
G37*
G36*
X157082442Y-39745518D02*
G01*
X157148627Y-39752037D01*
X157318466Y-39803557D01*
X157474991Y-39887222D01*
X157510729Y-39916552D01*
X157612186Y-39999814D01*
X157695448Y-40101271D01*
X157724778Y-40137009D01*
X157808443Y-40293534D01*
X157859963Y-40463373D01*
X157877359Y-40640000D01*
X157859963Y-40816627D01*
X157808443Y-40986466D01*
X157724778Y-41142991D01*
X157695448Y-41178729D01*
X157612186Y-41280186D01*
X157510729Y-41363448D01*
X157474991Y-41392778D01*
X157318466Y-41476443D01*
X157148627Y-41527963D01*
X157082442Y-41534482D01*
X157016260Y-41541000D01*
X156927740Y-41541000D01*
X156861558Y-41534482D01*
X156795373Y-41527963D01*
X156625534Y-41476443D01*
X156469009Y-41392778D01*
X156433271Y-41363448D01*
X156331814Y-41280186D01*
X156248552Y-41178729D01*
X156219222Y-41142991D01*
X156135557Y-40986466D01*
X156084037Y-40816627D01*
X156066641Y-40640000D01*
X156084037Y-40463373D01*
X156135557Y-40293534D01*
X156219222Y-40137009D01*
X156248552Y-40101271D01*
X156331814Y-39999814D01*
X156433271Y-39916552D01*
X156469009Y-39887222D01*
X156625534Y-39803557D01*
X156795373Y-39752037D01*
X156861557Y-39745519D01*
X156927740Y-39739000D01*
X157016260Y-39739000D01*
X157082442Y-39745518D01*
X157082442Y-39745518D01*
G37*
M02*
