M48
;DRILL file {KiCad (6.0.0-rc1-dev-392-gd9d005190)} date 08/31/18 18:54:16
;FORMAT={3:3/ absolute / metric / suppress leading zeros}
FMAT,2
METRIC,TZ
T1C1.000
T2C1.200
T3C3.200
%
G90
G05
M71
T1
X103840Y-64545
X103840Y-67315
X103840Y-70085
X103840Y-72855
X103840Y-75625
X103840Y-78395
X103840Y-81165
X106680Y-63160
X106680Y-65930
X106680Y-68700
X106680Y-71470
X106680Y-74240
X106680Y-77010
X106680Y-79780
X106680Y-82550
X129540Y-129200
X129540Y-131970
X129540Y-134740
X129540Y-137510
X129540Y-140280
X129540Y-143050
X129540Y-145820
X129540Y-148590
X132380Y-130585
X132380Y-133355
X132380Y-136125
X132380Y-138895
X132380Y-141665
X132380Y-144435
X132380Y-147205
X129540Y-63160
X129540Y-65930
X129540Y-68700
X129540Y-71470
X129540Y-74240
X129540Y-77010
X129540Y-79780
X129540Y-82550
X132380Y-64545
X132380Y-67315
X132380Y-70085
X132380Y-72855
X132380Y-75625
X132380Y-78395
X132380Y-81165
X140970Y-100330
X140970Y-102870
X140970Y-105410
X140970Y-107950
X140970Y-110490
X103840Y-130585
X103840Y-133355
X103840Y-136125
X103840Y-138895
X103840Y-141665
X103840Y-144435
X103840Y-147205
X106680Y-129200
X106680Y-131970
X106680Y-134740
X106680Y-137510
X106680Y-140280
X106680Y-143050
X106680Y-145820
X106680Y-148590
T2
X104140Y-104140
X104140Y-107640
T3
X129840Y-56205
X129840Y-89505
X106380Y-122245
X106380Y-155545
X106380Y-56205
X106380Y-89505
X129840Y-122245
X129840Y-155545
T0
M30
