G04 #@! TF.GenerationSoftware,KiCad,Pcbnew,(6.0.0-rc1-dev-392-gd9d005190)*
G04 #@! TF.CreationDate,2018-08-31T18:51:34-04:00*
G04 #@! TF.ProjectId,db15_HV,646231355F48562E6B696361645F7063,rev?*
G04 #@! TF.SameCoordinates,Original*
G04 #@! TF.FileFunction,Soldermask,Bot*
G04 #@! TF.FilePolarity,Negative*
%FSLAX46Y46*%
G04 Gerber Fmt 4.6, Leading zero omitted, Abs format (unit mm)*
G04 Created by KiCad (PCBNEW (6.0.0-rc1-dev-392-gd9d005190)) date 08/31/18 18:51:34*
%MOMM*%
%LPD*%
G01*
G04 APERTURE LIST*
%ADD10O,2.100000X2.100000*%
%ADD11R,2.100000X2.100000*%
%ADD12C,4.400000*%
%ADD13C,2.000000*%
%ADD14R,2.000000X2.000000*%
%ADD15C,2.800000*%
%ADD16R,2.800000X2.800000*%
G04 APERTURE END LIST*
D10*
G04 #@! TO.C,J3*
X140970000Y-100330000D03*
X140970000Y-102870000D03*
X140970000Y-105410000D03*
X140970000Y-107950000D03*
D11*
X140970000Y-110490000D03*
G04 #@! TD*
D12*
G04 #@! TO.C,J2_IN1*
X129840000Y-56205000D03*
X129840000Y-89505000D03*
D13*
X132380000Y-64545000D03*
X132380000Y-67315000D03*
X132380000Y-70085000D03*
X132380000Y-72855000D03*
X132380000Y-75625000D03*
X132380000Y-78395000D03*
X132380000Y-81165000D03*
X129540000Y-63160000D03*
X129540000Y-65930000D03*
X129540000Y-68700000D03*
X129540000Y-71470000D03*
X129540000Y-74240000D03*
X129540000Y-77010000D03*
X129540000Y-79780000D03*
D14*
X129540000Y-82550000D03*
G04 #@! TD*
D12*
G04 #@! TO.C,J2_OUT1*
X106380000Y-89505000D03*
X106380000Y-56205000D03*
D13*
X103840000Y-64545000D03*
X103840000Y-67315000D03*
X103840000Y-70085000D03*
X103840000Y-72855000D03*
X103840000Y-75625000D03*
X103840000Y-78395000D03*
X103840000Y-81165000D03*
X106680000Y-63160000D03*
X106680000Y-65930000D03*
X106680000Y-68700000D03*
X106680000Y-71470000D03*
X106680000Y-74240000D03*
X106680000Y-77010000D03*
X106680000Y-79780000D03*
D14*
X106680000Y-82550000D03*
G04 #@! TD*
D12*
G04 #@! TO.C,J1_IN1*
X129840000Y-122245000D03*
X129840000Y-155545000D03*
D13*
X132380000Y-130585000D03*
X132380000Y-133355000D03*
X132380000Y-136125000D03*
X132380000Y-138895000D03*
X132380000Y-141665000D03*
X132380000Y-144435000D03*
X132380000Y-147205000D03*
X129540000Y-129200000D03*
X129540000Y-131970000D03*
X129540000Y-134740000D03*
X129540000Y-137510000D03*
X129540000Y-140280000D03*
X129540000Y-143050000D03*
X129540000Y-145820000D03*
D14*
X129540000Y-148590000D03*
G04 #@! TD*
D12*
G04 #@! TO.C,J1_OUT1*
X106380000Y-155545000D03*
X106380000Y-122245000D03*
D13*
X103840000Y-130585000D03*
X103840000Y-133355000D03*
X103840000Y-136125000D03*
X103840000Y-138895000D03*
X103840000Y-141665000D03*
X103840000Y-144435000D03*
X103840000Y-147205000D03*
X106680000Y-129200000D03*
X106680000Y-131970000D03*
X106680000Y-134740000D03*
X106680000Y-137510000D03*
X106680000Y-140280000D03*
X106680000Y-143050000D03*
X106680000Y-145820000D03*
D14*
X106680000Y-148590000D03*
G04 #@! TD*
D15*
G04 #@! TO.C,J2*
X104140000Y-107640000D03*
D16*
X104140000Y-104140000D03*
G04 #@! TD*
M02*
