G04 #@! TF.GenerationSoftware,KiCad,Pcbnew,(5.1.4)-1*
G04 #@! TF.CreationDate,2019-09-19T18:51:56-04:00*
G04 #@! TF.ProjectId,power_distribution,706f7765-725f-4646-9973-747269627574,rev?*
G04 #@! TF.SameCoordinates,Original*
G04 #@! TF.FileFunction,Copper,L1,Top*
G04 #@! TF.FilePolarity,Positive*
%FSLAX46Y46*%
G04 Gerber Fmt 4.6, Leading zero omitted, Abs format (unit mm)*
G04 Created by KiCad (PCBNEW (5.1.4)-1) date 2019-09-19 18:51:56*
%MOMM*%
%LPD*%
G04 APERTURE LIST*
%ADD10C,0.800000*%
%ADD11C,5.400000*%
%ADD12O,1.600000X1.600000*%
%ADD13C,1.600000*%
%ADD14C,2.500000*%
%ADD15R,2.500000X2.500000*%
%ADD16O,1.700000X1.700000*%
%ADD17R,1.700000X1.700000*%
%ADD18C,1.500000*%
%ADD19C,4.000000*%
G04 APERTURE END LIST*
D10*
X201329891Y-84420109D03*
X199898000Y-83827000D03*
X198466109Y-84420109D03*
X197873000Y-85852000D03*
X198466109Y-87283891D03*
X199898000Y-87877000D03*
X201329891Y-87283891D03*
X201923000Y-85852000D03*
D11*
X199898000Y-85852000D03*
D10*
X149767891Y-84420109D03*
X148336000Y-83827000D03*
X146904109Y-84420109D03*
X146311000Y-85852000D03*
X146904109Y-87283891D03*
X148336000Y-87877000D03*
X149767891Y-87283891D03*
X150361000Y-85852000D03*
D11*
X148336000Y-85852000D03*
D12*
X179832000Y-79756000D03*
D13*
X187452000Y-79756000D03*
D14*
X168228000Y-79756000D03*
D15*
X173228000Y-79756000D03*
D16*
X191262000Y-82550000D03*
D17*
X191262000Y-80010000D03*
D14*
X191464000Y-93980000D03*
X186464000Y-93980000D03*
X181464000Y-93980000D03*
X176464000Y-93980000D03*
X171464000Y-93980000D03*
X166464000Y-93980000D03*
X161464000Y-93980000D03*
D15*
X156464000Y-93980000D03*
D18*
X179832000Y-79756000D02*
X173228000Y-79756000D01*
D19*
X156464000Y-88646000D02*
X156464000Y-93980000D01*
X157734000Y-87376000D02*
X156464000Y-88646000D01*
X173228000Y-79756000D02*
X173228000Y-87376000D01*
X173228000Y-87376000D02*
X157734000Y-87376000D01*
X186464000Y-88420000D02*
X186464000Y-93980000D01*
X185420000Y-87376000D02*
X186464000Y-88420000D01*
X176464000Y-87818000D02*
X176022000Y-87376000D01*
X176464000Y-93980000D02*
X176464000Y-87818000D01*
X173228000Y-87376000D02*
X176022000Y-87376000D01*
X176022000Y-87376000D02*
X185420000Y-87376000D01*
X171300234Y-87376000D02*
X173228000Y-87376000D01*
X166464000Y-92212234D02*
X171300234Y-87376000D01*
X166464000Y-93980000D02*
X166464000Y-92212234D01*
D18*
X191008000Y-79756000D02*
X191262000Y-80010000D01*
X187452000Y-79756000D02*
X191008000Y-79756000D01*
M02*
