M48
; DRILL file {KiCad (5.1.4)-1} date 19-Sep-19 18:52:00
; FORMAT={3:3/ absolute / metric / suppress leading zeros}
; #@! TF.CreationDate,2019-09-19T18:52:00-04:00
; #@! TF.GenerationSoftware,Kicad,Pcbnew,(5.1.4)-1
FMAT,2
METRIC,TZ
T1C0.500
T2C0.800
T3C1.000
T4C1.300
T5C2.700
%
G90
G05
T1
X197873Y-85852
X198466Y-84420
X198466Y-87284
X199898Y-83827
X199898Y-87877
X201330Y-84420
X201330Y-87284
X201923Y-85852
X146311Y-85852
X146904Y-84420
X146904Y-87284
X148336Y-83827
X148336Y-87877
X149768Y-84420
X149768Y-87284
X150361Y-85852
T2
X179832Y-79756
X187452Y-79756
T3
X191262Y-80010
X191262Y-82550
T4
X168228Y-79756
X173228Y-79756
X156464Y-93980
X161464Y-93980
X166464Y-93980
X171464Y-93980
X176464Y-93980
X181464Y-93980
X186464Y-93980
X191464Y-93980
T5
X199898Y-85852
X148336Y-85852
T0
M30
