G04 #@! TF.GenerationSoftware,KiCad,Pcbnew,(5.1.4)-1*
G04 #@! TF.CreationDate,2019-09-19T18:51:56-04:00*
G04 #@! TF.ProjectId,power_distribution,706f7765-725f-4646-9973-747269627574,rev?*
G04 #@! TF.SameCoordinates,Original*
G04 #@! TF.FileFunction,Soldermask,Top*
G04 #@! TF.FilePolarity,Negative*
%FSLAX46Y46*%
G04 Gerber Fmt 4.6, Leading zero omitted, Abs format (unit mm)*
G04 Created by KiCad (PCBNEW (5.1.4)-1) date 2019-09-19 18:51:56*
%MOMM*%
%LPD*%
G04 APERTURE LIST*
%ADD10C,0.100000*%
G04 APERTURE END LIST*
D10*
G36*
X186843487Y-92728996D02*
G01*
X187080253Y-92827068D01*
X187080255Y-92827069D01*
X187293339Y-92969447D01*
X187474553Y-93150661D01*
X187616932Y-93363747D01*
X187715004Y-93600513D01*
X187765000Y-93851861D01*
X187765000Y-94108139D01*
X187715004Y-94359487D01*
X187616932Y-94596253D01*
X187616931Y-94596255D01*
X187474553Y-94809339D01*
X187293339Y-94990553D01*
X187080255Y-95132931D01*
X187080254Y-95132932D01*
X187080253Y-95132932D01*
X186843487Y-95231004D01*
X186592139Y-95281000D01*
X186335861Y-95281000D01*
X186084513Y-95231004D01*
X185847747Y-95132932D01*
X185847746Y-95132932D01*
X185847745Y-95132931D01*
X185634661Y-94990553D01*
X185453447Y-94809339D01*
X185311069Y-94596255D01*
X185311068Y-94596253D01*
X185212996Y-94359487D01*
X185163000Y-94108139D01*
X185163000Y-93851861D01*
X185212996Y-93600513D01*
X185311068Y-93363747D01*
X185453447Y-93150661D01*
X185634661Y-92969447D01*
X185847745Y-92827069D01*
X185847747Y-92827068D01*
X186084513Y-92728996D01*
X186335861Y-92679000D01*
X186592139Y-92679000D01*
X186843487Y-92728996D01*
X186843487Y-92728996D01*
G37*
G36*
X157765000Y-95281000D02*
G01*
X155163000Y-95281000D01*
X155163000Y-92679000D01*
X157765000Y-92679000D01*
X157765000Y-95281000D01*
X157765000Y-95281000D01*
G37*
G36*
X161843487Y-92728996D02*
G01*
X162080253Y-92827068D01*
X162080255Y-92827069D01*
X162293339Y-92969447D01*
X162474553Y-93150661D01*
X162616932Y-93363747D01*
X162715004Y-93600513D01*
X162765000Y-93851861D01*
X162765000Y-94108139D01*
X162715004Y-94359487D01*
X162616932Y-94596253D01*
X162616931Y-94596255D01*
X162474553Y-94809339D01*
X162293339Y-94990553D01*
X162080255Y-95132931D01*
X162080254Y-95132932D01*
X162080253Y-95132932D01*
X161843487Y-95231004D01*
X161592139Y-95281000D01*
X161335861Y-95281000D01*
X161084513Y-95231004D01*
X160847747Y-95132932D01*
X160847746Y-95132932D01*
X160847745Y-95132931D01*
X160634661Y-94990553D01*
X160453447Y-94809339D01*
X160311069Y-94596255D01*
X160311068Y-94596253D01*
X160212996Y-94359487D01*
X160163000Y-94108139D01*
X160163000Y-93851861D01*
X160212996Y-93600513D01*
X160311068Y-93363747D01*
X160453447Y-93150661D01*
X160634661Y-92969447D01*
X160847745Y-92827069D01*
X160847747Y-92827068D01*
X161084513Y-92728996D01*
X161335861Y-92679000D01*
X161592139Y-92679000D01*
X161843487Y-92728996D01*
X161843487Y-92728996D01*
G37*
G36*
X166843487Y-92728996D02*
G01*
X167080253Y-92827068D01*
X167080255Y-92827069D01*
X167293339Y-92969447D01*
X167474553Y-93150661D01*
X167616932Y-93363747D01*
X167715004Y-93600513D01*
X167765000Y-93851861D01*
X167765000Y-94108139D01*
X167715004Y-94359487D01*
X167616932Y-94596253D01*
X167616931Y-94596255D01*
X167474553Y-94809339D01*
X167293339Y-94990553D01*
X167080255Y-95132931D01*
X167080254Y-95132932D01*
X167080253Y-95132932D01*
X166843487Y-95231004D01*
X166592139Y-95281000D01*
X166335861Y-95281000D01*
X166084513Y-95231004D01*
X165847747Y-95132932D01*
X165847746Y-95132932D01*
X165847745Y-95132931D01*
X165634661Y-94990553D01*
X165453447Y-94809339D01*
X165311069Y-94596255D01*
X165311068Y-94596253D01*
X165212996Y-94359487D01*
X165163000Y-94108139D01*
X165163000Y-93851861D01*
X165212996Y-93600513D01*
X165311068Y-93363747D01*
X165453447Y-93150661D01*
X165634661Y-92969447D01*
X165847745Y-92827069D01*
X165847747Y-92827068D01*
X166084513Y-92728996D01*
X166335861Y-92679000D01*
X166592139Y-92679000D01*
X166843487Y-92728996D01*
X166843487Y-92728996D01*
G37*
G36*
X171843487Y-92728996D02*
G01*
X172080253Y-92827068D01*
X172080255Y-92827069D01*
X172293339Y-92969447D01*
X172474553Y-93150661D01*
X172616932Y-93363747D01*
X172715004Y-93600513D01*
X172765000Y-93851861D01*
X172765000Y-94108139D01*
X172715004Y-94359487D01*
X172616932Y-94596253D01*
X172616931Y-94596255D01*
X172474553Y-94809339D01*
X172293339Y-94990553D01*
X172080255Y-95132931D01*
X172080254Y-95132932D01*
X172080253Y-95132932D01*
X171843487Y-95231004D01*
X171592139Y-95281000D01*
X171335861Y-95281000D01*
X171084513Y-95231004D01*
X170847747Y-95132932D01*
X170847746Y-95132932D01*
X170847745Y-95132931D01*
X170634661Y-94990553D01*
X170453447Y-94809339D01*
X170311069Y-94596255D01*
X170311068Y-94596253D01*
X170212996Y-94359487D01*
X170163000Y-94108139D01*
X170163000Y-93851861D01*
X170212996Y-93600513D01*
X170311068Y-93363747D01*
X170453447Y-93150661D01*
X170634661Y-92969447D01*
X170847745Y-92827069D01*
X170847747Y-92827068D01*
X171084513Y-92728996D01*
X171335861Y-92679000D01*
X171592139Y-92679000D01*
X171843487Y-92728996D01*
X171843487Y-92728996D01*
G37*
G36*
X176843487Y-92728996D02*
G01*
X177080253Y-92827068D01*
X177080255Y-92827069D01*
X177293339Y-92969447D01*
X177474553Y-93150661D01*
X177616932Y-93363747D01*
X177715004Y-93600513D01*
X177765000Y-93851861D01*
X177765000Y-94108139D01*
X177715004Y-94359487D01*
X177616932Y-94596253D01*
X177616931Y-94596255D01*
X177474553Y-94809339D01*
X177293339Y-94990553D01*
X177080255Y-95132931D01*
X177080254Y-95132932D01*
X177080253Y-95132932D01*
X176843487Y-95231004D01*
X176592139Y-95281000D01*
X176335861Y-95281000D01*
X176084513Y-95231004D01*
X175847747Y-95132932D01*
X175847746Y-95132932D01*
X175847745Y-95132931D01*
X175634661Y-94990553D01*
X175453447Y-94809339D01*
X175311069Y-94596255D01*
X175311068Y-94596253D01*
X175212996Y-94359487D01*
X175163000Y-94108139D01*
X175163000Y-93851861D01*
X175212996Y-93600513D01*
X175311068Y-93363747D01*
X175453447Y-93150661D01*
X175634661Y-92969447D01*
X175847745Y-92827069D01*
X175847747Y-92827068D01*
X176084513Y-92728996D01*
X176335861Y-92679000D01*
X176592139Y-92679000D01*
X176843487Y-92728996D01*
X176843487Y-92728996D01*
G37*
G36*
X181843487Y-92728996D02*
G01*
X182080253Y-92827068D01*
X182080255Y-92827069D01*
X182293339Y-92969447D01*
X182474553Y-93150661D01*
X182616932Y-93363747D01*
X182715004Y-93600513D01*
X182765000Y-93851861D01*
X182765000Y-94108139D01*
X182715004Y-94359487D01*
X182616932Y-94596253D01*
X182616931Y-94596255D01*
X182474553Y-94809339D01*
X182293339Y-94990553D01*
X182080255Y-95132931D01*
X182080254Y-95132932D01*
X182080253Y-95132932D01*
X181843487Y-95231004D01*
X181592139Y-95281000D01*
X181335861Y-95281000D01*
X181084513Y-95231004D01*
X180847747Y-95132932D01*
X180847746Y-95132932D01*
X180847745Y-95132931D01*
X180634661Y-94990553D01*
X180453447Y-94809339D01*
X180311069Y-94596255D01*
X180311068Y-94596253D01*
X180212996Y-94359487D01*
X180163000Y-94108139D01*
X180163000Y-93851861D01*
X180212996Y-93600513D01*
X180311068Y-93363747D01*
X180453447Y-93150661D01*
X180634661Y-92969447D01*
X180847745Y-92827069D01*
X180847747Y-92827068D01*
X181084513Y-92728996D01*
X181335861Y-92679000D01*
X181592139Y-92679000D01*
X181843487Y-92728996D01*
X181843487Y-92728996D01*
G37*
G36*
X191843487Y-92728996D02*
G01*
X192080253Y-92827068D01*
X192080255Y-92827069D01*
X192293339Y-92969447D01*
X192474553Y-93150661D01*
X192616932Y-93363747D01*
X192715004Y-93600513D01*
X192765000Y-93851861D01*
X192765000Y-94108139D01*
X192715004Y-94359487D01*
X192616932Y-94596253D01*
X192616931Y-94596255D01*
X192474553Y-94809339D01*
X192293339Y-94990553D01*
X192080255Y-95132931D01*
X192080254Y-95132932D01*
X192080253Y-95132932D01*
X191843487Y-95231004D01*
X191592139Y-95281000D01*
X191335861Y-95281000D01*
X191084513Y-95231004D01*
X190847747Y-95132932D01*
X190847746Y-95132932D01*
X190847745Y-95132931D01*
X190634661Y-94990553D01*
X190453447Y-94809339D01*
X190311069Y-94596255D01*
X190311068Y-94596253D01*
X190212996Y-94359487D01*
X190163000Y-94108139D01*
X190163000Y-93851861D01*
X190212996Y-93600513D01*
X190311068Y-93363747D01*
X190453447Y-93150661D01*
X190634661Y-92969447D01*
X190847745Y-92827069D01*
X190847747Y-92827068D01*
X191084513Y-92728996D01*
X191335861Y-92679000D01*
X191592139Y-92679000D01*
X191843487Y-92728996D01*
X191843487Y-92728996D01*
G37*
G36*
X148872693Y-83153859D02*
G01*
X149138437Y-83206719D01*
X149639087Y-83414095D01*
X149819561Y-83534684D01*
X150089660Y-83715158D01*
X150472842Y-84098340D01*
X150653316Y-84368439D01*
X150773905Y-84548913D01*
X150907363Y-84871109D01*
X150981281Y-85049564D01*
X151087000Y-85581049D01*
X151087000Y-86122951D01*
X151051186Y-86303000D01*
X150981281Y-86654437D01*
X150773905Y-87155087D01*
X150717521Y-87239471D01*
X150472842Y-87605660D01*
X150089660Y-87988842D01*
X149826774Y-88164496D01*
X149639087Y-88289905D01*
X149138437Y-88497281D01*
X148872694Y-88550140D01*
X148606951Y-88603000D01*
X148065049Y-88603000D01*
X147799306Y-88550140D01*
X147533563Y-88497281D01*
X147032913Y-88289905D01*
X146845226Y-88164496D01*
X146582340Y-87988842D01*
X146199158Y-87605660D01*
X145954479Y-87239471D01*
X145898095Y-87155087D01*
X145690719Y-86654437D01*
X145620814Y-86303000D01*
X145585000Y-86122951D01*
X145585000Y-85581049D01*
X145690719Y-85049564D01*
X145764637Y-84871109D01*
X145898095Y-84548913D01*
X146018684Y-84368439D01*
X146199158Y-84098340D01*
X146582340Y-83715158D01*
X146852439Y-83534684D01*
X147032913Y-83414095D01*
X147533563Y-83206719D01*
X147799307Y-83153859D01*
X148065049Y-83101000D01*
X148606951Y-83101000D01*
X148872693Y-83153859D01*
X148872693Y-83153859D01*
G37*
G36*
X200434693Y-83153859D02*
G01*
X200700437Y-83206719D01*
X201201087Y-83414095D01*
X201381561Y-83534684D01*
X201651660Y-83715158D01*
X202034842Y-84098340D01*
X202215316Y-84368439D01*
X202335905Y-84548913D01*
X202469363Y-84871109D01*
X202543281Y-85049564D01*
X202649000Y-85581049D01*
X202649000Y-86122951D01*
X202613186Y-86303000D01*
X202543281Y-86654437D01*
X202335905Y-87155087D01*
X202279521Y-87239471D01*
X202034842Y-87605660D01*
X201651660Y-87988842D01*
X201388774Y-88164496D01*
X201201087Y-88289905D01*
X200700437Y-88497281D01*
X200434694Y-88550140D01*
X200168951Y-88603000D01*
X199627049Y-88603000D01*
X199361306Y-88550140D01*
X199095563Y-88497281D01*
X198594913Y-88289905D01*
X198407226Y-88164496D01*
X198144340Y-87988842D01*
X197761158Y-87605660D01*
X197516479Y-87239471D01*
X197460095Y-87155087D01*
X197252719Y-86654437D01*
X197182814Y-86303000D01*
X197147000Y-86122951D01*
X197147000Y-85581049D01*
X197252719Y-85049564D01*
X197326637Y-84871109D01*
X197460095Y-84548913D01*
X197580684Y-84368439D01*
X197761158Y-84098340D01*
X198144340Y-83715158D01*
X198414439Y-83534684D01*
X198594913Y-83414095D01*
X199095563Y-83206719D01*
X199361307Y-83153859D01*
X199627049Y-83101000D01*
X200168951Y-83101000D01*
X200434693Y-83153859D01*
X200434693Y-83153859D01*
G37*
G36*
X191372443Y-81655519D02*
G01*
X191438627Y-81662037D01*
X191608466Y-81713557D01*
X191764991Y-81797222D01*
X191800729Y-81826552D01*
X191902186Y-81909814D01*
X191985448Y-82011271D01*
X192014778Y-82047009D01*
X192098443Y-82203534D01*
X192149963Y-82373373D01*
X192167359Y-82550000D01*
X192149963Y-82726627D01*
X192098443Y-82896466D01*
X192014778Y-83052991D01*
X191985448Y-83088729D01*
X191902186Y-83190186D01*
X191800729Y-83273448D01*
X191764991Y-83302778D01*
X191608466Y-83386443D01*
X191438627Y-83437963D01*
X191372443Y-83444481D01*
X191306260Y-83451000D01*
X191217740Y-83451000D01*
X191151557Y-83444481D01*
X191085373Y-83437963D01*
X190915534Y-83386443D01*
X190759009Y-83302778D01*
X190723271Y-83273448D01*
X190621814Y-83190186D01*
X190538552Y-83088729D01*
X190509222Y-83052991D01*
X190425557Y-82896466D01*
X190374037Y-82726627D01*
X190356641Y-82550000D01*
X190374037Y-82373373D01*
X190425557Y-82203534D01*
X190509222Y-82047009D01*
X190538552Y-82011271D01*
X190621814Y-81909814D01*
X190723271Y-81826552D01*
X190759009Y-81797222D01*
X190915534Y-81713557D01*
X191085373Y-81662037D01*
X191151557Y-81655519D01*
X191217740Y-81649000D01*
X191306260Y-81649000D01*
X191372443Y-81655519D01*
X191372443Y-81655519D01*
G37*
G36*
X174529000Y-81057000D02*
G01*
X171927000Y-81057000D01*
X171927000Y-78455000D01*
X174529000Y-78455000D01*
X174529000Y-81057000D01*
X174529000Y-81057000D01*
G37*
G36*
X168607487Y-78504996D02*
G01*
X168844253Y-78603068D01*
X168844255Y-78603069D01*
X169057339Y-78745447D01*
X169238553Y-78926661D01*
X169380932Y-79139747D01*
X169479004Y-79376513D01*
X169529000Y-79627861D01*
X169529000Y-79884139D01*
X169479004Y-80135487D01*
X169411490Y-80298480D01*
X169380931Y-80372255D01*
X169238553Y-80585339D01*
X169057339Y-80766553D01*
X168844255Y-80908931D01*
X168844254Y-80908932D01*
X168844253Y-80908932D01*
X168607487Y-81007004D01*
X168356139Y-81057000D01*
X168099861Y-81057000D01*
X167848513Y-81007004D01*
X167611747Y-80908932D01*
X167611746Y-80908932D01*
X167611745Y-80908931D01*
X167398661Y-80766553D01*
X167217447Y-80585339D01*
X167075069Y-80372255D01*
X167044510Y-80298480D01*
X166976996Y-80135487D01*
X166927000Y-79884139D01*
X166927000Y-79627861D01*
X166976996Y-79376513D01*
X167075068Y-79139747D01*
X167217447Y-78926661D01*
X167398661Y-78745447D01*
X167611745Y-78603069D01*
X167611747Y-78603068D01*
X167848513Y-78504996D01*
X168099861Y-78455000D01*
X168356139Y-78455000D01*
X168607487Y-78504996D01*
X168607487Y-78504996D01*
G37*
G36*
X192163000Y-80911000D02*
G01*
X190361000Y-80911000D01*
X190361000Y-79109000D01*
X192163000Y-79109000D01*
X192163000Y-80911000D01*
X192163000Y-80911000D01*
G37*
G36*
X187700228Y-78937703D02*
G01*
X187855100Y-79001853D01*
X187994481Y-79094985D01*
X188113015Y-79213519D01*
X188206147Y-79352900D01*
X188270297Y-79507772D01*
X188303000Y-79672184D01*
X188303000Y-79839816D01*
X188270297Y-80004228D01*
X188206147Y-80159100D01*
X188113015Y-80298481D01*
X187994481Y-80417015D01*
X187855100Y-80510147D01*
X187700228Y-80574297D01*
X187535816Y-80607000D01*
X187368184Y-80607000D01*
X187203772Y-80574297D01*
X187048900Y-80510147D01*
X186909519Y-80417015D01*
X186790985Y-80298481D01*
X186697853Y-80159100D01*
X186633703Y-80004228D01*
X186601000Y-79839816D01*
X186601000Y-79672184D01*
X186633703Y-79507772D01*
X186697853Y-79352900D01*
X186790985Y-79213519D01*
X186909519Y-79094985D01*
X187048900Y-79001853D01*
X187203772Y-78937703D01*
X187368184Y-78905000D01*
X187535816Y-78905000D01*
X187700228Y-78937703D01*
X187700228Y-78937703D01*
G37*
G36*
X179998823Y-78917313D02*
G01*
X180159242Y-78965976D01*
X180226361Y-79001852D01*
X180307078Y-79044996D01*
X180436659Y-79151341D01*
X180543004Y-79280922D01*
X180543005Y-79280924D01*
X180622024Y-79428758D01*
X180670687Y-79589177D01*
X180687117Y-79756000D01*
X180670687Y-79922823D01*
X180622024Y-80083242D01*
X180581477Y-80159100D01*
X180543004Y-80231078D01*
X180436659Y-80360659D01*
X180307078Y-80467004D01*
X180307076Y-80467005D01*
X180159242Y-80546024D01*
X179998823Y-80594687D01*
X179873804Y-80607000D01*
X179790196Y-80607000D01*
X179665177Y-80594687D01*
X179504758Y-80546024D01*
X179356924Y-80467005D01*
X179356922Y-80467004D01*
X179227341Y-80360659D01*
X179120996Y-80231078D01*
X179082523Y-80159100D01*
X179041976Y-80083242D01*
X178993313Y-79922823D01*
X178976883Y-79756000D01*
X178993313Y-79589177D01*
X179041976Y-79428758D01*
X179120995Y-79280924D01*
X179120996Y-79280922D01*
X179227341Y-79151341D01*
X179356922Y-79044996D01*
X179437639Y-79001852D01*
X179504758Y-78965976D01*
X179665177Y-78917313D01*
X179790196Y-78905000D01*
X179873804Y-78905000D01*
X179998823Y-78917313D01*
X179998823Y-78917313D01*
G37*
M02*
