G04 #@! TF.GenerationSoftware,KiCad,Pcbnew,(5.1.4)-1*
G04 #@! TF.CreationDate,2019-09-19T18:51:56-04:00*
G04 #@! TF.ProjectId,power_distribution,706f7765-725f-4646-9973-747269627574,rev?*
G04 #@! TF.SameCoordinates,Original*
G04 #@! TF.FileFunction,Legend,Top*
G04 #@! TF.FilePolarity,Positive*
%FSLAX46Y46*%
G04 Gerber Fmt 4.6, Leading zero omitted, Abs format (unit mm)*
G04 Created by KiCad (PCBNEW (5.1.4)-1) date 2019-09-19 18:51:56*
%MOMM*%
%LPD*%
G04 APERTURE LIST*
%ADD10C,0.150000*%
%ADD11C,0.120000*%
G04 APERTURE END LIST*
D10*
X193556000Y-83581619D02*
X193508380Y-83676857D01*
X193508380Y-83819714D01*
X193556000Y-83962571D01*
X193651238Y-84057809D01*
X193746476Y-84105428D01*
X193936952Y-84153047D01*
X194079809Y-84153047D01*
X194270285Y-84105428D01*
X194365523Y-84057809D01*
X194460761Y-83962571D01*
X194508380Y-83819714D01*
X194508380Y-83724476D01*
X194460761Y-83581619D01*
X194413142Y-83534000D01*
X194079809Y-83534000D01*
X194079809Y-83724476D01*
X194508380Y-83105428D02*
X193508380Y-83105428D01*
X194508380Y-82534000D01*
X193508380Y-82534000D01*
X194508380Y-82057809D02*
X193508380Y-82057809D01*
X193508380Y-81819714D01*
X193556000Y-81676857D01*
X193651238Y-81581619D01*
X193746476Y-81534000D01*
X193936952Y-81486380D01*
X194079809Y-81486380D01*
X194270285Y-81534000D01*
X194365523Y-81581619D01*
X194460761Y-81676857D01*
X194508380Y-81819714D01*
X194508380Y-82057809D01*
X193508380Y-79819714D02*
X193508380Y-80295904D01*
X193984571Y-80343523D01*
X193936952Y-80295904D01*
X193889333Y-80200666D01*
X193889333Y-79962571D01*
X193936952Y-79867333D01*
X193984571Y-79819714D01*
X194079809Y-79772095D01*
X194317904Y-79772095D01*
X194413142Y-79819714D01*
X194460761Y-79867333D01*
X194508380Y-79962571D01*
X194508380Y-80200666D01*
X194460761Y-80295904D01*
X194413142Y-80343523D01*
X193508380Y-79486380D02*
X194508380Y-79153047D01*
X193508380Y-78819714D01*
X188190571Y-77668380D02*
X188190571Y-76668380D01*
X188571523Y-76668380D01*
X188666761Y-76716000D01*
X188714380Y-76763619D01*
X188762000Y-76858857D01*
X188762000Y-77001714D01*
X188714380Y-77096952D01*
X188666761Y-77144571D01*
X188571523Y-77192190D01*
X188190571Y-77192190D01*
X189095333Y-76668380D02*
X189333428Y-77668380D01*
X189523904Y-76954095D01*
X189714380Y-77668380D01*
X189952476Y-76668380D01*
X190904857Y-77668380D02*
X190571523Y-77192190D01*
X190333428Y-77668380D02*
X190333428Y-76668380D01*
X190714380Y-76668380D01*
X190809619Y-76716000D01*
X190857238Y-76763619D01*
X190904857Y-76858857D01*
X190904857Y-77001714D01*
X190857238Y-77096952D01*
X190809619Y-77144571D01*
X190714380Y-77192190D01*
X190333428Y-77192190D01*
X192571523Y-77668380D02*
X192095333Y-77668380D01*
X192095333Y-76668380D01*
X192904857Y-77144571D02*
X193238190Y-77144571D01*
X193381047Y-77668380D02*
X192904857Y-77668380D01*
X192904857Y-76668380D01*
X193381047Y-76668380D01*
X193809619Y-77668380D02*
X193809619Y-76668380D01*
X194047714Y-76668380D01*
X194190571Y-76716000D01*
X194285809Y-76811238D01*
X194333428Y-76906476D01*
X194381047Y-77096952D01*
X194381047Y-77239809D01*
X194333428Y-77430285D01*
X194285809Y-77525523D01*
X194190571Y-77620761D01*
X194047714Y-77668380D01*
X193809619Y-77668380D01*
X145941023Y-77256142D02*
X145893404Y-77303761D01*
X145750547Y-77351380D01*
X145655309Y-77351380D01*
X145512452Y-77303761D01*
X145417214Y-77208523D01*
X145369595Y-77113285D01*
X145321976Y-76922809D01*
X145321976Y-76779952D01*
X145369595Y-76589476D01*
X145417214Y-76494238D01*
X145512452Y-76399000D01*
X145655309Y-76351380D01*
X145750547Y-76351380D01*
X145893404Y-76399000D01*
X145941023Y-76446619D01*
X146750547Y-77303761D02*
X146655309Y-77351380D01*
X146464833Y-77351380D01*
X146369595Y-77303761D01*
X146321976Y-77208523D01*
X146321976Y-76827571D01*
X146369595Y-76732333D01*
X146464833Y-76684714D01*
X146655309Y-76684714D01*
X146750547Y-76732333D01*
X146798166Y-76827571D01*
X146798166Y-76922809D01*
X146321976Y-77018047D01*
X147226738Y-77351380D02*
X147226738Y-76351380D01*
X147798166Y-77351380D01*
X147798166Y-76351380D01*
X148131500Y-76351380D02*
X148702928Y-76351380D01*
X148417214Y-77351380D02*
X148417214Y-76351380D01*
X149607690Y-77351380D02*
X149274357Y-76875190D01*
X149036261Y-77351380D02*
X149036261Y-76351380D01*
X149417214Y-76351380D01*
X149512452Y-76399000D01*
X149560071Y-76446619D01*
X149607690Y-76541857D01*
X149607690Y-76684714D01*
X149560071Y-76779952D01*
X149512452Y-76827571D01*
X149417214Y-76875190D01*
X149036261Y-76875190D01*
X150036261Y-76827571D02*
X150369595Y-76827571D01*
X150512452Y-77351380D02*
X150036261Y-77351380D01*
X150036261Y-76351380D01*
X150512452Y-76351380D01*
X150845785Y-76351380D02*
X151512452Y-77351380D01*
X151512452Y-76351380D02*
X150845785Y-77351380D01*
X152512452Y-76351380D02*
X153083880Y-76351380D01*
X152798166Y-77351380D02*
X152798166Y-76351380D01*
X153417214Y-76827571D02*
X153750547Y-76827571D01*
X153893404Y-77351380D02*
X153417214Y-77351380D01*
X153417214Y-76351380D01*
X153893404Y-76351380D01*
X154893404Y-77256142D02*
X154845785Y-77303761D01*
X154702928Y-77351380D01*
X154607690Y-77351380D01*
X154464833Y-77303761D01*
X154369595Y-77208523D01*
X154321976Y-77113285D01*
X154274357Y-76922809D01*
X154274357Y-76779952D01*
X154321976Y-76589476D01*
X154369595Y-76494238D01*
X154464833Y-76399000D01*
X154607690Y-76351380D01*
X154702928Y-76351380D01*
X154845785Y-76399000D01*
X154893404Y-76446619D01*
X156083880Y-77351380D02*
X156083880Y-76351380D01*
X156464833Y-76351380D01*
X156560071Y-76399000D01*
X156607690Y-76446619D01*
X156655309Y-76541857D01*
X156655309Y-76684714D01*
X156607690Y-76779952D01*
X156560071Y-76827571D01*
X156464833Y-76875190D01*
X156083880Y-76875190D01*
X157274357Y-76351380D02*
X157464833Y-76351380D01*
X157560071Y-76399000D01*
X157655309Y-76494238D01*
X157702928Y-76684714D01*
X157702928Y-77018047D01*
X157655309Y-77208523D01*
X157560071Y-77303761D01*
X157464833Y-77351380D01*
X157274357Y-77351380D01*
X157179119Y-77303761D01*
X157083880Y-77208523D01*
X157036261Y-77018047D01*
X157036261Y-76684714D01*
X157083880Y-76494238D01*
X157179119Y-76399000D01*
X157274357Y-76351380D01*
X158036261Y-76351380D02*
X158274357Y-77351380D01*
X158464833Y-76637095D01*
X158655309Y-77351380D01*
X158893404Y-76351380D01*
X159274357Y-76827571D02*
X159607690Y-76827571D01*
X159750547Y-77351380D02*
X159274357Y-77351380D01*
X159274357Y-76351380D01*
X159750547Y-76351380D01*
X160750547Y-77351380D02*
X160417214Y-76875190D01*
X160179119Y-77351380D02*
X160179119Y-76351380D01*
X160560071Y-76351380D01*
X160655309Y-76399000D01*
X160702928Y-76446619D01*
X160750547Y-76541857D01*
X160750547Y-76684714D01*
X160702928Y-76779952D01*
X160655309Y-76827571D01*
X160560071Y-76875190D01*
X160179119Y-76875190D01*
X161941023Y-77351380D02*
X161941023Y-76351380D01*
X162179119Y-76351380D01*
X162321976Y-76399000D01*
X162417214Y-76494238D01*
X162464833Y-76589476D01*
X162512452Y-76779952D01*
X162512452Y-76922809D01*
X162464833Y-77113285D01*
X162417214Y-77208523D01*
X162321976Y-77303761D01*
X162179119Y-77351380D01*
X161941023Y-77351380D01*
X162941023Y-77351380D02*
X162941023Y-76351380D01*
X163369595Y-77303761D02*
X163512452Y-77351380D01*
X163750547Y-77351380D01*
X163845785Y-77303761D01*
X163893404Y-77256142D01*
X163941023Y-77160904D01*
X163941023Y-77065666D01*
X163893404Y-76970428D01*
X163845785Y-76922809D01*
X163750547Y-76875190D01*
X163560071Y-76827571D01*
X163464833Y-76779952D01*
X163417214Y-76732333D01*
X163369595Y-76637095D01*
X163369595Y-76541857D01*
X163417214Y-76446619D01*
X163464833Y-76399000D01*
X163560071Y-76351380D01*
X163798166Y-76351380D01*
X163941023Y-76399000D01*
X164226738Y-76351380D02*
X164798166Y-76351380D01*
X164512452Y-77351380D02*
X164512452Y-76351380D01*
X145941023Y-79001380D02*
X145607690Y-78525190D01*
X145369595Y-79001380D02*
X145369595Y-78001380D01*
X145750547Y-78001380D01*
X145845785Y-78049000D01*
X145893404Y-78096619D01*
X145941023Y-78191857D01*
X145941023Y-78334714D01*
X145893404Y-78429952D01*
X145845785Y-78477571D01*
X145750547Y-78525190D01*
X145369595Y-78525190D01*
X146369595Y-78477571D02*
X146702928Y-78477571D01*
X146845785Y-79001380D02*
X146369595Y-79001380D01*
X146369595Y-78001380D01*
X146845785Y-78001380D01*
X147131500Y-78001380D02*
X147464833Y-79001380D01*
X147798166Y-78001380D01*
X149417214Y-79001380D02*
X148845785Y-79001380D01*
X149131500Y-79001380D02*
X149131500Y-78001380D01*
X149036261Y-78144238D01*
X148941023Y-78239476D01*
X148845785Y-78287095D01*
X149845785Y-78906142D02*
X149893404Y-78953761D01*
X149845785Y-79001380D01*
X149798166Y-78953761D01*
X149845785Y-78906142D01*
X149845785Y-79001380D01*
X150512452Y-78001380D02*
X150607690Y-78001380D01*
X150702928Y-78049000D01*
X150750547Y-78096619D01*
X150798166Y-78191857D01*
X150845785Y-78382333D01*
X150845785Y-78620428D01*
X150798166Y-78810904D01*
X150750547Y-78906142D01*
X150702928Y-78953761D01*
X150607690Y-79001380D01*
X150512452Y-79001380D01*
X150417214Y-78953761D01*
X150369595Y-78906142D01*
X150321976Y-78810904D01*
X150274357Y-78620428D01*
X150274357Y-78382333D01*
X150321976Y-78191857D01*
X150369595Y-78096619D01*
X150417214Y-78049000D01*
X150512452Y-78001380D01*
X186626857Y-88098380D02*
X186150666Y-88098380D01*
X186103047Y-88574571D01*
X186150666Y-88526952D01*
X186245904Y-88479333D01*
X186484000Y-88479333D01*
X186579238Y-88526952D01*
X186626857Y-88574571D01*
X186674476Y-88669809D01*
X186674476Y-88907904D01*
X186626857Y-89003142D01*
X186579238Y-89050761D01*
X186484000Y-89098380D01*
X186245904Y-89098380D01*
X186150666Y-89050761D01*
X186103047Y-89003142D01*
X186960190Y-88098380D02*
X187293523Y-89098380D01*
X187626857Y-88098380D01*
X190769714Y-88146000D02*
X190674476Y-88098380D01*
X190531619Y-88098380D01*
X190388761Y-88146000D01*
X190293523Y-88241238D01*
X190245904Y-88336476D01*
X190198285Y-88526952D01*
X190198285Y-88669809D01*
X190245904Y-88860285D01*
X190293523Y-88955523D01*
X190388761Y-89050761D01*
X190531619Y-89098380D01*
X190626857Y-89098380D01*
X190769714Y-89050761D01*
X190817333Y-89003142D01*
X190817333Y-88669809D01*
X190626857Y-88669809D01*
X191245904Y-89098380D02*
X191245904Y-88098380D01*
X191817333Y-89098380D01*
X191817333Y-88098380D01*
X192293523Y-89098380D02*
X192293523Y-88098380D01*
X192531619Y-88098380D01*
X192674476Y-88146000D01*
X192769714Y-88241238D01*
X192817333Y-88336476D01*
X192864952Y-88526952D01*
X192864952Y-88669809D01*
X192817333Y-88860285D01*
X192769714Y-88955523D01*
X192674476Y-89050761D01*
X192531619Y-89098380D01*
X192293523Y-89098380D01*
X176466857Y-88098380D02*
X175990666Y-88098380D01*
X175943047Y-88574571D01*
X175990666Y-88526952D01*
X176085904Y-88479333D01*
X176324000Y-88479333D01*
X176419238Y-88526952D01*
X176466857Y-88574571D01*
X176514476Y-88669809D01*
X176514476Y-88907904D01*
X176466857Y-89003142D01*
X176419238Y-89050761D01*
X176324000Y-89098380D01*
X176085904Y-89098380D01*
X175990666Y-89050761D01*
X175943047Y-89003142D01*
X176800190Y-88098380D02*
X177133523Y-89098380D01*
X177466857Y-88098380D01*
X180609714Y-88146000D02*
X180514476Y-88098380D01*
X180371619Y-88098380D01*
X180228761Y-88146000D01*
X180133523Y-88241238D01*
X180085904Y-88336476D01*
X180038285Y-88526952D01*
X180038285Y-88669809D01*
X180085904Y-88860285D01*
X180133523Y-88955523D01*
X180228761Y-89050761D01*
X180371619Y-89098380D01*
X180466857Y-89098380D01*
X180609714Y-89050761D01*
X180657333Y-89003142D01*
X180657333Y-88669809D01*
X180466857Y-88669809D01*
X181085904Y-89098380D02*
X181085904Y-88098380D01*
X181657333Y-89098380D01*
X181657333Y-88098380D01*
X182133523Y-89098380D02*
X182133523Y-88098380D01*
X182371619Y-88098380D01*
X182514476Y-88146000D01*
X182609714Y-88241238D01*
X182657333Y-88336476D01*
X182704952Y-88526952D01*
X182704952Y-88669809D01*
X182657333Y-88860285D01*
X182609714Y-88955523D01*
X182514476Y-89050761D01*
X182371619Y-89098380D01*
X182133523Y-89098380D01*
X166560857Y-88098380D02*
X166084666Y-88098380D01*
X166037047Y-88574571D01*
X166084666Y-88526952D01*
X166179904Y-88479333D01*
X166418000Y-88479333D01*
X166513238Y-88526952D01*
X166560857Y-88574571D01*
X166608476Y-88669809D01*
X166608476Y-88907904D01*
X166560857Y-89003142D01*
X166513238Y-89050761D01*
X166418000Y-89098380D01*
X166179904Y-89098380D01*
X166084666Y-89050761D01*
X166037047Y-89003142D01*
X166894190Y-88098380D02*
X167227523Y-89098380D01*
X167560857Y-88098380D01*
X170703714Y-88146000D02*
X170608476Y-88098380D01*
X170465619Y-88098380D01*
X170322761Y-88146000D01*
X170227523Y-88241238D01*
X170179904Y-88336476D01*
X170132285Y-88526952D01*
X170132285Y-88669809D01*
X170179904Y-88860285D01*
X170227523Y-88955523D01*
X170322761Y-89050761D01*
X170465619Y-89098380D01*
X170560857Y-89098380D01*
X170703714Y-89050761D01*
X170751333Y-89003142D01*
X170751333Y-88669809D01*
X170560857Y-88669809D01*
X171179904Y-89098380D02*
X171179904Y-88098380D01*
X171751333Y-89098380D01*
X171751333Y-88098380D01*
X172227523Y-89098380D02*
X172227523Y-88098380D01*
X172465619Y-88098380D01*
X172608476Y-88146000D01*
X172703714Y-88241238D01*
X172751333Y-88336476D01*
X172798952Y-88526952D01*
X172798952Y-88669809D01*
X172751333Y-88860285D01*
X172703714Y-88955523D01*
X172608476Y-89050761D01*
X172465619Y-89098380D01*
X172227523Y-89098380D01*
X156400857Y-88098380D02*
X155924666Y-88098380D01*
X155877047Y-88574571D01*
X155924666Y-88526952D01*
X156019904Y-88479333D01*
X156258000Y-88479333D01*
X156353238Y-88526952D01*
X156400857Y-88574571D01*
X156448476Y-88669809D01*
X156448476Y-88907904D01*
X156400857Y-89003142D01*
X156353238Y-89050761D01*
X156258000Y-89098380D01*
X156019904Y-89098380D01*
X155924666Y-89050761D01*
X155877047Y-89003142D01*
X156734190Y-88098380D02*
X157067523Y-89098380D01*
X157400857Y-88098380D01*
X160543714Y-88146000D02*
X160448476Y-88098380D01*
X160305619Y-88098380D01*
X160162761Y-88146000D01*
X160067523Y-88241238D01*
X160019904Y-88336476D01*
X159972285Y-88526952D01*
X159972285Y-88669809D01*
X160019904Y-88860285D01*
X160067523Y-88955523D01*
X160162761Y-89050761D01*
X160305619Y-89098380D01*
X160400857Y-89098380D01*
X160543714Y-89050761D01*
X160591333Y-89003142D01*
X160591333Y-88669809D01*
X160400857Y-88669809D01*
X161019904Y-89098380D02*
X161019904Y-88098380D01*
X161591333Y-89098380D01*
X161591333Y-88098380D01*
X162067523Y-89098380D02*
X162067523Y-88098380D01*
X162305619Y-88098380D01*
X162448476Y-88146000D01*
X162543714Y-88241238D01*
X162591333Y-88336476D01*
X162638952Y-88526952D01*
X162638952Y-88669809D01*
X162591333Y-88860285D01*
X162543714Y-88955523D01*
X162448476Y-89050761D01*
X162305619Y-89098380D01*
X162067523Y-89098380D01*
D11*
X180372000Y-78386000D02*
X180372000Y-78716000D01*
X186912000Y-78386000D02*
X180372000Y-78386000D01*
X186912000Y-78716000D02*
X186912000Y-78386000D01*
X180372000Y-81126000D02*
X180372000Y-80796000D01*
X186912000Y-81126000D02*
X180372000Y-81126000D01*
X186912000Y-80796000D02*
X186912000Y-81126000D01*
X176028000Y-75456000D02*
X174528000Y-75456000D01*
X176028000Y-77196000D02*
X176028000Y-75456000D01*
X169408000Y-78780000D02*
X169502000Y-78687000D01*
X167158000Y-81031000D02*
X167217000Y-80972000D01*
X169238000Y-78540000D02*
X169297000Y-78482000D01*
X166953000Y-80825000D02*
X167047000Y-80732000D01*
X165668000Y-84816000D02*
X165668000Y-75696000D01*
X175788000Y-84816000D02*
X175788000Y-75696000D01*
X175788000Y-75696000D02*
X165668000Y-75696000D01*
X175788000Y-84816000D02*
X165668000Y-84816000D01*
X175788000Y-77256000D02*
X165668000Y-77256000D01*
X169128000Y-82756000D02*
G75*
G03X169128000Y-82756000I-900000J0D01*
G01*
X169908000Y-79756000D02*
G75*
G03X169908000Y-79756000I-1680000J0D01*
G01*
X174128000Y-82756000D02*
G75*
G03X174128000Y-82756000I-900000J0D01*
G01*
X173198617Y-78075550D02*
G75*
G02X174017000Y-78272000I29383J-1680450D01*
G01*
X174711953Y-78966912D02*
G75*
G02X174712000Y-80545000I-1483953J-789088D01*
G01*
X174017088Y-81239953D02*
G75*
G02X172439000Y-81240000I-789088J1483953D01*
G01*
X171744047Y-80545088D02*
G75*
G02X171744000Y-78967000I1483953J789088D01*
G01*
X172439288Y-78272648D02*
G75*
G02X173228000Y-78076000I788712J-1483352D01*
G01*
X189932000Y-78680000D02*
X191262000Y-78680000D01*
X189932000Y-80010000D02*
X189932000Y-78680000D01*
X189932000Y-81280000D02*
X192592000Y-81280000D01*
X192592000Y-81280000D02*
X192592000Y-83880000D01*
X189932000Y-81280000D02*
X189932000Y-83880000D01*
X189932000Y-83880000D02*
X192592000Y-83880000D01*
X153664000Y-97780000D02*
X154264000Y-97780000D01*
X153664000Y-96940000D02*
X153664000Y-97780000D01*
X190284000Y-94956000D02*
X190190000Y-95049000D01*
X192534000Y-92705000D02*
X192475000Y-92764000D01*
X190454000Y-95196000D02*
X190395000Y-95254000D01*
X192739000Y-92911000D02*
X192645000Y-93004000D01*
X185284000Y-94956000D02*
X185190000Y-95049000D01*
X187534000Y-92705000D02*
X187475000Y-92764000D01*
X185454000Y-95196000D02*
X185395000Y-95254000D01*
X187739000Y-92911000D02*
X187645000Y-93004000D01*
X180284000Y-94956000D02*
X180190000Y-95049000D01*
X182534000Y-92705000D02*
X182475000Y-92764000D01*
X180454000Y-95196000D02*
X180395000Y-95254000D01*
X182739000Y-92911000D02*
X182645000Y-93004000D01*
X175284000Y-94956000D02*
X175190000Y-95049000D01*
X177534000Y-92705000D02*
X177475000Y-92764000D01*
X175454000Y-95196000D02*
X175395000Y-95254000D01*
X177739000Y-92911000D02*
X177645000Y-93004000D01*
X170284000Y-94956000D02*
X170190000Y-95049000D01*
X172534000Y-92705000D02*
X172475000Y-92764000D01*
X170454000Y-95196000D02*
X170395000Y-95254000D01*
X172739000Y-92911000D02*
X172645000Y-93004000D01*
X165284000Y-94956000D02*
X165190000Y-95049000D01*
X167534000Y-92705000D02*
X167475000Y-92764000D01*
X165454000Y-95196000D02*
X165395000Y-95254000D01*
X167739000Y-92911000D02*
X167645000Y-93004000D01*
X160284000Y-94956000D02*
X160190000Y-95049000D01*
X162534000Y-92705000D02*
X162475000Y-92764000D01*
X160454000Y-95196000D02*
X160395000Y-95254000D01*
X162739000Y-92911000D02*
X162645000Y-93004000D01*
X194024000Y-89820000D02*
X194024000Y-97541000D01*
X153904000Y-89820000D02*
X153904000Y-97541000D01*
X153904000Y-97541000D02*
X194024000Y-97541000D01*
X153904000Y-89820000D02*
X194024000Y-89820000D01*
X153904000Y-91580000D02*
X194024000Y-91580000D01*
X153904000Y-96280000D02*
X194024000Y-96280000D01*
X153904000Y-96880000D02*
X194024000Y-96880000D01*
X192014000Y-90980000D02*
G75*
G03X192014000Y-90980000I-550000J0D01*
G01*
X193144000Y-93980000D02*
G75*
G03X193144000Y-93980000I-1680000J0D01*
G01*
X187014000Y-90980000D02*
G75*
G03X187014000Y-90980000I-550000J0D01*
G01*
X188144000Y-93980000D02*
G75*
G03X188144000Y-93980000I-1680000J0D01*
G01*
X182014000Y-90980000D02*
G75*
G03X182014000Y-90980000I-550000J0D01*
G01*
X183144000Y-93980000D02*
G75*
G03X183144000Y-93980000I-1680000J0D01*
G01*
X177014000Y-90980000D02*
G75*
G03X177014000Y-90980000I-550000J0D01*
G01*
X178144000Y-93980000D02*
G75*
G03X178144000Y-93980000I-1680000J0D01*
G01*
X172014000Y-90980000D02*
G75*
G03X172014000Y-90980000I-550000J0D01*
G01*
X173144000Y-93980000D02*
G75*
G03X173144000Y-93980000I-1680000J0D01*
G01*
X167014000Y-90980000D02*
G75*
G03X167014000Y-90980000I-550000J0D01*
G01*
X168144000Y-93980000D02*
G75*
G03X168144000Y-93980000I-1680000J0D01*
G01*
X162014000Y-90980000D02*
G75*
G03X162014000Y-90980000I-550000J0D01*
G01*
X163144000Y-93980000D02*
G75*
G03X163144000Y-93980000I-1680000J0D01*
G01*
X157014000Y-90980000D02*
G75*
G03X157014000Y-90980000I-550000J0D01*
G01*
X156493383Y-95660450D02*
G75*
G02X155675000Y-95464000I-29383J1680450D01*
G01*
X154980047Y-94769088D02*
G75*
G02X154980000Y-93191000I1483953J789088D01*
G01*
X155674912Y-92496047D02*
G75*
G02X157253000Y-92496000I789088J-1483953D01*
G01*
X157947953Y-93190912D02*
G75*
G02X157948000Y-94769000I-1483953J-789088D01*
G01*
X157252712Y-95463352D02*
G75*
G02X156464000Y-95660000I-788712J1483352D01*
G01*
D10*
X199136095Y-82604380D02*
X199136095Y-81604380D01*
X199136095Y-82080571D02*
X199707523Y-82080571D01*
X199707523Y-82604380D02*
X199707523Y-81604380D01*
X200136095Y-81699619D02*
X200183714Y-81652000D01*
X200278952Y-81604380D01*
X200517047Y-81604380D01*
X200612285Y-81652000D01*
X200659904Y-81699619D01*
X200707523Y-81794857D01*
X200707523Y-81890095D01*
X200659904Y-82032952D01*
X200088476Y-82604380D01*
X200707523Y-82604380D01*
X147574095Y-82604380D02*
X147574095Y-81604380D01*
X147574095Y-82080571D02*
X148145523Y-82080571D01*
X148145523Y-82604380D02*
X148145523Y-81604380D01*
X149145523Y-82604380D02*
X148574095Y-82604380D01*
X148859809Y-82604380D02*
X148859809Y-81604380D01*
X148764571Y-81747238D01*
X148669333Y-81842476D01*
X148574095Y-81890095D01*
X183475333Y-82578380D02*
X183142000Y-82102190D01*
X182903904Y-82578380D02*
X182903904Y-81578380D01*
X183284857Y-81578380D01*
X183380095Y-81626000D01*
X183427714Y-81673619D01*
X183475333Y-81768857D01*
X183475333Y-81911714D01*
X183427714Y-82006952D01*
X183380095Y-82054571D01*
X183284857Y-82102190D01*
X182903904Y-82102190D01*
X184427714Y-82578380D02*
X183856285Y-82578380D01*
X184142000Y-82578380D02*
X184142000Y-81578380D01*
X184046761Y-81721238D01*
X183951523Y-81816476D01*
X183856285Y-81864095D01*
X163496666Y-83526380D02*
X163496666Y-84240666D01*
X163449047Y-84383523D01*
X163353809Y-84478761D01*
X163210952Y-84526380D01*
X163115714Y-84526380D01*
X163877619Y-83526380D02*
X164496666Y-83526380D01*
X164163333Y-83907333D01*
X164306190Y-83907333D01*
X164401428Y-83954952D01*
X164449047Y-84002571D01*
X164496666Y-84097809D01*
X164496666Y-84335904D01*
X164449047Y-84431142D01*
X164401428Y-84478761D01*
X164306190Y-84526380D01*
X164020476Y-84526380D01*
X163925238Y-84478761D01*
X163877619Y-84431142D01*
X187626666Y-82510380D02*
X187626666Y-83224666D01*
X187579047Y-83367523D01*
X187483809Y-83462761D01*
X187340952Y-83510380D01*
X187245714Y-83510380D01*
X188055238Y-82605619D02*
X188102857Y-82558000D01*
X188198095Y-82510380D01*
X188436190Y-82510380D01*
X188531428Y-82558000D01*
X188579047Y-82605619D01*
X188626666Y-82700857D01*
X188626666Y-82796095D01*
X188579047Y-82938952D01*
X188007619Y-83510380D01*
X188626666Y-83510380D01*
X154098666Y-86320380D02*
X154098666Y-87034666D01*
X154051047Y-87177523D01*
X153955809Y-87272761D01*
X153812952Y-87320380D01*
X153717714Y-87320380D01*
X155098666Y-87320380D02*
X154527238Y-87320380D01*
X154812952Y-87320380D02*
X154812952Y-86320380D01*
X154717714Y-86463238D01*
X154622476Y-86558476D01*
X154527238Y-86606095D01*
M02*
