G04 #@! TF.GenerationSoftware,KiCad,Pcbnew,(5.1.4)-1*
G04 #@! TF.CreationDate,2019-12-12T14:50:36-05:00*
G04 #@! TF.ProjectId,led_lock_ctrl,6c65645f-6c6f-4636-9b5f-6374726c2e6b,rev?*
G04 #@! TF.SameCoordinates,Original*
G04 #@! TF.FileFunction,Profile,NP*
%FSLAX46Y46*%
G04 Gerber Fmt 4.6, Leading zero omitted, Abs format (unit mm)*
G04 Created by KiCad (PCBNEW (5.1.4)-1) date 2019-12-12 14:50:36*
%MOMM*%
%LPD*%
G04 APERTURE LIST*
%ADD10C,0.050000*%
%ADD11C,0.000100*%
G04 APERTURE END LIST*
D10*
X162814000Y-86868000D02*
X162814000Y-88392000D01*
X163068000Y-86868000D02*
X162814000Y-86868000D01*
X198882000Y-86868000D02*
X163068000Y-86868000D01*
X162814000Y-120904000D02*
X162814000Y-119634000D01*
X204978000Y-120904000D02*
X162814000Y-120904000D01*
X204978000Y-86868000D02*
X204978000Y-120904000D01*
X198882000Y-86868000D02*
X204978000Y-86868000D01*
X162814000Y-88392000D02*
X162814000Y-119634000D01*
D11*
X190348000Y-87946000D02*
X190348000Y-88646000D01*
X190048000Y-87646000D02*
G75*
G02X190348000Y-87946000I0J-300000D01*
G01*
X189748000Y-87946000D02*
G75*
G02X190048000Y-87646000I300000J0D01*
G01*
X189748000Y-88646000D02*
X189748000Y-87946000D01*
X190048000Y-88946000D02*
G75*
G02X189748000Y-88646000I0J300000D01*
G01*
X190348000Y-88646000D02*
G75*
G02X190048000Y-88946000I-300000J0D01*
G01*
X197348000Y-87946000D02*
X197348000Y-88646000D01*
X197048000Y-87646000D02*
G75*
G02X197348000Y-87946000I0J-300000D01*
G01*
X196748000Y-87946000D02*
G75*
G02X197048000Y-87646000I300000J0D01*
G01*
X196748000Y-88646000D02*
X196748000Y-87946000D01*
X197048000Y-88946000D02*
G75*
G02X196748000Y-88646000I0J300000D01*
G01*
X197348000Y-88646000D02*
G75*
G02X197048000Y-88946000I-300000J0D01*
G01*
D10*
X185573343Y-87295380D02*
X185573343Y-86295380D01*
X185954295Y-86295380D01*
X186049533Y-86343000D01*
X186097152Y-86390619D01*
X186144771Y-86485857D01*
X186144771Y-86628714D01*
X186097152Y-86723952D01*
X186049533Y-86771571D01*
X185954295Y-86819190D01*
X185573343Y-86819190D01*
X187144771Y-87200142D02*
X187097152Y-87247761D01*
X186954295Y-87295380D01*
X186859057Y-87295380D01*
X186716200Y-87247761D01*
X186620962Y-87152523D01*
X186573343Y-87057285D01*
X186525724Y-86866809D01*
X186525724Y-86723952D01*
X186573343Y-86533476D01*
X186620962Y-86438238D01*
X186716200Y-86343000D01*
X186859057Y-86295380D01*
X186954295Y-86295380D01*
X187097152Y-86343000D01*
X187144771Y-86390619D01*
X187906676Y-86771571D02*
X188049533Y-86819190D01*
X188097152Y-86866809D01*
X188144771Y-86962047D01*
X188144771Y-87104904D01*
X188097152Y-87200142D01*
X188049533Y-87247761D01*
X187954295Y-87295380D01*
X187573343Y-87295380D01*
X187573343Y-86295380D01*
X187906676Y-86295380D01*
X188001914Y-86343000D01*
X188049533Y-86390619D01*
X188097152Y-86485857D01*
X188097152Y-86581095D01*
X188049533Y-86676333D01*
X188001914Y-86723952D01*
X187906676Y-86771571D01*
X187573343Y-86771571D01*
X188335248Y-86058000D02*
X189240010Y-86058000D01*
X188573343Y-86771571D02*
X188906676Y-86771571D01*
X189049533Y-87295380D02*
X188573343Y-87295380D01*
X188573343Y-86295380D01*
X189049533Y-86295380D01*
X189240010Y-86058000D02*
X190240010Y-86058000D01*
X189478105Y-87295380D02*
X189478105Y-86295380D01*
X189716200Y-86295380D01*
X189859057Y-86343000D01*
X189954295Y-86438238D01*
X190001914Y-86533476D01*
X190049533Y-86723952D01*
X190049533Y-86866809D01*
X190001914Y-87057285D01*
X189954295Y-87152523D01*
X189859057Y-87247761D01*
X189716200Y-87295380D01*
X189478105Y-87295380D01*
X190240010Y-86058000D02*
X191240010Y-86058000D01*
X191001914Y-86343000D02*
X190906676Y-86295380D01*
X190763819Y-86295380D01*
X190620962Y-86343000D01*
X190525724Y-86438238D01*
X190478105Y-86533476D01*
X190430486Y-86723952D01*
X190430486Y-86866809D01*
X190478105Y-87057285D01*
X190525724Y-87152523D01*
X190620962Y-87247761D01*
X190763819Y-87295380D01*
X190859057Y-87295380D01*
X191001914Y-87247761D01*
X191049533Y-87200142D01*
X191049533Y-86866809D01*
X190859057Y-86866809D01*
X191240010Y-86058000D02*
X192144771Y-86058000D01*
X191478105Y-86771571D02*
X191811438Y-86771571D01*
X191954295Y-87295380D02*
X191478105Y-87295380D01*
X191478105Y-86295380D01*
X191954295Y-86295380D01*
M02*
