G04 #@! TF.GenerationSoftware,KiCad,Pcbnew,(5.1.4)-1*
G04 #@! TF.CreationDate,2019-12-12T14:50:35-05:00*
G04 #@! TF.ProjectId,led_lock_ctrl,6c65645f-6c6f-4636-9b5f-6374726c2e6b,rev?*
G04 #@! TF.SameCoordinates,Original*
G04 #@! TF.FileFunction,Copper,L2,Bot*
G04 #@! TF.FilePolarity,Positive*
%FSLAX46Y46*%
G04 Gerber Fmt 4.6, Leading zero omitted, Abs format (unit mm)*
G04 Created by KiCad (PCBNEW (5.1.4)-1) date 2019-12-12 14:50:35*
%MOMM*%
%LPD*%
G04 APERTURE LIST*
%ADD10O,1.600000X1.600000*%
%ADD11C,1.600000*%
%ADD12R,1.600000X1.600000*%
%ADD13O,1.700000X1.700000*%
%ADD14R,1.700000X1.700000*%
%ADD15C,2.400000*%
%ADD16R,2.400000X2.400000*%
%ADD17O,0.950000X1.900000*%
%ADD18C,1.450000*%
%ADD19C,0.800000*%
%ADD20C,0.500000*%
%ADD21C,0.250000*%
%ADD22C,0.254000*%
G04 APERTURE END LIST*
D10*
X197612000Y-108966000D03*
D11*
X197612000Y-101346000D03*
D10*
X164338000Y-113030000D03*
D11*
X164338000Y-105410000D03*
D10*
X167640000Y-113030000D03*
D11*
X167640000Y-105410000D03*
D10*
X171196000Y-101346000D03*
X194056000Y-108966000D03*
X173736000Y-101346000D03*
X191516000Y-108966000D03*
X176276000Y-101346000D03*
X188976000Y-108966000D03*
X178816000Y-101346000D03*
X186436000Y-108966000D03*
X181356000Y-101346000D03*
X183896000Y-108966000D03*
X183896000Y-101346000D03*
X181356000Y-108966000D03*
X186436000Y-101346000D03*
X178816000Y-108966000D03*
X188976000Y-101346000D03*
X176276000Y-108966000D03*
X191516000Y-101346000D03*
X173736000Y-108966000D03*
X194056000Y-101346000D03*
D12*
X171196000Y-108966000D03*
D13*
X164592000Y-119126000D03*
X164592000Y-116586000D03*
X167132000Y-119126000D03*
D14*
X167132000Y-116586000D03*
D15*
X182570000Y-90678000D03*
D16*
X179070000Y-90678000D03*
D17*
X190048000Y-88296000D03*
X197048000Y-88296000D03*
D18*
X191048000Y-90996000D03*
X196048000Y-90996000D03*
D13*
X200660000Y-88646000D03*
X203200000Y-88646000D03*
X200660000Y-91186000D03*
X203200000Y-91186000D03*
X200660000Y-93726000D03*
X203200000Y-93726000D03*
X200660000Y-96266000D03*
X203200000Y-96266000D03*
X200660000Y-98806000D03*
X203200000Y-98806000D03*
X200660000Y-101346000D03*
X203200000Y-101346000D03*
X200660000Y-103886000D03*
X203200000Y-103886000D03*
X200660000Y-106426000D03*
X203200000Y-106426000D03*
X200660000Y-108966000D03*
X203200000Y-108966000D03*
X200660000Y-111506000D03*
X203200000Y-111506000D03*
X200660000Y-114046000D03*
X203200000Y-114046000D03*
X200660000Y-116586000D03*
X203200000Y-116586000D03*
X200660000Y-119126000D03*
D14*
X203200000Y-119126000D03*
D13*
X164592000Y-88646000D03*
X164592000Y-91186000D03*
D14*
X164592000Y-93726000D03*
D10*
X194056000Y-94742000D03*
D11*
X186436000Y-94742000D03*
D10*
X172212000Y-112014000D03*
D11*
X172212000Y-119634000D03*
D10*
X181356000Y-98044000D03*
D11*
X188976000Y-98044000D03*
D10*
X195326000Y-112522000D03*
D11*
X187706000Y-112522000D03*
D10*
X170434000Y-98044000D03*
D11*
X178054000Y-98044000D03*
D14*
X196596000Y-118872000D03*
D13*
X194056000Y-118872000D03*
X191516000Y-118872000D03*
X188976000Y-118872000D03*
X186436000Y-118872000D03*
X183896000Y-118872000D03*
X181356000Y-118872000D03*
X178816000Y-118872000D03*
X176276000Y-118872000D03*
D19*
X190500000Y-112014000D03*
X197612000Y-103886000D03*
X197612000Y-106426000D03*
X175260000Y-104648000D03*
X190246000Y-104648000D03*
X180340000Y-104648000D03*
X169926000Y-119634000D03*
X195072000Y-105664000D03*
X195072000Y-103378000D03*
D20*
X180720001Y-92328001D02*
X179070000Y-90678000D01*
X186888003Y-92328001D02*
X180720001Y-92328001D01*
X196125999Y-101565997D02*
X186888003Y-92328001D01*
X196125999Y-111722001D02*
X196125999Y-101565997D01*
X195326000Y-112522000D02*
X196125999Y-111722001D01*
D21*
X181356000Y-101346000D02*
X181356000Y-99709002D01*
X170292998Y-88646000D02*
X165794081Y-88646000D01*
X165794081Y-88646000D02*
X164592000Y-88646000D01*
X181356000Y-99709002D02*
X170292998Y-88646000D01*
X167640000Y-111898630D02*
X167640000Y-113030000D01*
X167640000Y-110364410D02*
X167640000Y-111898630D01*
X172340410Y-105664000D02*
X167640000Y-110364410D01*
X195072000Y-105664000D02*
X172340410Y-105664000D01*
X173011999Y-112813999D02*
X172212000Y-112014000D01*
X173845001Y-113647001D02*
X173011999Y-112813999D01*
X195866001Y-113647001D02*
X173845001Y-113647001D01*
X196642003Y-112870999D02*
X195866001Y-113647001D01*
X202024999Y-112870999D02*
X196642003Y-112870999D01*
X203200000Y-114046000D02*
X202024999Y-112870999D01*
D20*
X203200000Y-119126000D02*
X200660000Y-119126000D01*
X167981999Y-118276001D02*
X167132000Y-119126000D01*
X172704003Y-118276001D02*
X167981999Y-118276001D01*
X174600003Y-120172001D02*
X172704003Y-118276001D01*
X198411918Y-120172001D02*
X174600003Y-120172001D01*
X199457919Y-119126000D02*
X198411918Y-120172001D01*
X200660000Y-119126000D02*
X199457919Y-119126000D01*
D21*
X173990000Y-103378000D02*
X164338000Y-113030000D01*
X195072000Y-103378000D02*
X173990000Y-103378000D01*
D22*
G36*
X170785700Y-119422184D02*
G01*
X170771783Y-119704512D01*
X170813213Y-119984130D01*
X170906147Y-120244000D01*
X168110532Y-120244000D01*
X168187134Y-120181134D01*
X168372706Y-119955014D01*
X168510599Y-119697034D01*
X168595513Y-119417111D01*
X168620738Y-119161001D01*
X170851169Y-119161001D01*
X170785700Y-119422184D01*
X170785700Y-119422184D01*
G37*
X170785700Y-119422184D02*
X170771783Y-119704512D01*
X170813213Y-119984130D01*
X170906147Y-120244000D01*
X168110532Y-120244000D01*
X168187134Y-120181134D01*
X168372706Y-119955014D01*
X168510599Y-119697034D01*
X168595513Y-119417111D01*
X168620738Y-119161001D01*
X170851169Y-119161001D01*
X170785700Y-119422184D01*
G36*
X172405748Y-119619858D02*
G01*
X172391605Y-119634000D01*
X172405748Y-119648143D01*
X172226143Y-119827748D01*
X172212000Y-119813605D01*
X172197858Y-119827748D01*
X172018253Y-119648143D01*
X172032395Y-119634000D01*
X172018253Y-119619858D01*
X172197858Y-119440253D01*
X172212000Y-119454395D01*
X172226143Y-119440253D01*
X172405748Y-119619858D01*
X172405748Y-119619858D01*
G37*
X172405748Y-119619858D02*
X172391605Y-119634000D01*
X172405748Y-119648143D01*
X172226143Y-119827748D01*
X172212000Y-119813605D01*
X172197858Y-119827748D01*
X172018253Y-119648143D01*
X172032395Y-119634000D01*
X172018253Y-119619858D01*
X172197858Y-119440253D01*
X172212000Y-119454395D01*
X172226143Y-119440253D01*
X172405748Y-119619858D01*
G36*
X194412226Y-106467937D02*
G01*
X194581744Y-106581205D01*
X194770102Y-106659226D01*
X194970061Y-106699000D01*
X195173939Y-106699000D01*
X195240999Y-106685661D01*
X195240999Y-108147922D01*
X195075608Y-107946392D01*
X194857101Y-107767068D01*
X194607808Y-107633818D01*
X194337309Y-107551764D01*
X194126492Y-107531000D01*
X193985508Y-107531000D01*
X193774691Y-107551764D01*
X193504192Y-107633818D01*
X193254899Y-107767068D01*
X193036392Y-107946392D01*
X192857068Y-108164899D01*
X192786000Y-108297858D01*
X192714932Y-108164899D01*
X192535608Y-107946392D01*
X192317101Y-107767068D01*
X192067808Y-107633818D01*
X191797309Y-107551764D01*
X191586492Y-107531000D01*
X191445508Y-107531000D01*
X191234691Y-107551764D01*
X190964192Y-107633818D01*
X190714899Y-107767068D01*
X190496392Y-107946392D01*
X190317068Y-108164899D01*
X190246000Y-108297858D01*
X190174932Y-108164899D01*
X189995608Y-107946392D01*
X189777101Y-107767068D01*
X189527808Y-107633818D01*
X189257309Y-107551764D01*
X189046492Y-107531000D01*
X188905508Y-107531000D01*
X188694691Y-107551764D01*
X188424192Y-107633818D01*
X188174899Y-107767068D01*
X187956392Y-107946392D01*
X187777068Y-108164899D01*
X187706000Y-108297858D01*
X187634932Y-108164899D01*
X187455608Y-107946392D01*
X187237101Y-107767068D01*
X186987808Y-107633818D01*
X186717309Y-107551764D01*
X186506492Y-107531000D01*
X186365508Y-107531000D01*
X186154691Y-107551764D01*
X185884192Y-107633818D01*
X185634899Y-107767068D01*
X185416392Y-107946392D01*
X185237068Y-108164899D01*
X185163421Y-108302682D01*
X185048385Y-108110869D01*
X184859414Y-107902481D01*
X184633420Y-107734963D01*
X184379087Y-107614754D01*
X184245039Y-107574096D01*
X184023000Y-107696085D01*
X184023000Y-108839000D01*
X184043000Y-108839000D01*
X184043000Y-109093000D01*
X184023000Y-109093000D01*
X184023000Y-110235915D01*
X184245039Y-110357904D01*
X184379087Y-110317246D01*
X184633420Y-110197037D01*
X184859414Y-110029519D01*
X185048385Y-109821131D01*
X185163421Y-109629318D01*
X185237068Y-109767101D01*
X185416392Y-109985608D01*
X185634899Y-110164932D01*
X185884192Y-110298182D01*
X186154691Y-110380236D01*
X186365508Y-110401000D01*
X186506492Y-110401000D01*
X186717309Y-110380236D01*
X186987808Y-110298182D01*
X187237101Y-110164932D01*
X187455608Y-109985608D01*
X187634932Y-109767101D01*
X187706000Y-109634142D01*
X187777068Y-109767101D01*
X187956392Y-109985608D01*
X188174899Y-110164932D01*
X188424192Y-110298182D01*
X188694691Y-110380236D01*
X188905508Y-110401000D01*
X189046492Y-110401000D01*
X189257309Y-110380236D01*
X189527808Y-110298182D01*
X189777101Y-110164932D01*
X189995608Y-109985608D01*
X190174932Y-109767101D01*
X190246000Y-109634142D01*
X190317068Y-109767101D01*
X190496392Y-109985608D01*
X190714899Y-110164932D01*
X190964192Y-110298182D01*
X191234691Y-110380236D01*
X191445508Y-110401000D01*
X191586492Y-110401000D01*
X191797309Y-110380236D01*
X192067808Y-110298182D01*
X192317101Y-110164932D01*
X192535608Y-109985608D01*
X192714932Y-109767101D01*
X192786000Y-109634142D01*
X192857068Y-109767101D01*
X193036392Y-109985608D01*
X193254899Y-110164932D01*
X193504192Y-110298182D01*
X193774691Y-110380236D01*
X193985508Y-110401000D01*
X194126492Y-110401000D01*
X194337309Y-110380236D01*
X194607808Y-110298182D01*
X194857101Y-110164932D01*
X195075608Y-109985608D01*
X195240999Y-109784078D01*
X195240999Y-111088429D01*
X195044691Y-111107764D01*
X194774192Y-111189818D01*
X194524899Y-111323068D01*
X194306392Y-111502392D01*
X194127068Y-111720899D01*
X193993818Y-111970192D01*
X193911764Y-112240691D01*
X193884057Y-112522000D01*
X193911764Y-112803309D01*
X193937151Y-112887001D01*
X189096509Y-112887001D01*
X189141000Y-112663335D01*
X189141000Y-112380665D01*
X189085853Y-112103426D01*
X188977680Y-111842273D01*
X188820637Y-111607241D01*
X188620759Y-111407363D01*
X188385727Y-111250320D01*
X188124574Y-111142147D01*
X187847335Y-111087000D01*
X187564665Y-111087000D01*
X187287426Y-111142147D01*
X187026273Y-111250320D01*
X186791241Y-111407363D01*
X186591363Y-111607241D01*
X186434320Y-111842273D01*
X186326147Y-112103426D01*
X186271000Y-112380665D01*
X186271000Y-112663335D01*
X186315491Y-112887001D01*
X174159803Y-112887001D01*
X173612708Y-112339907D01*
X173626236Y-112295309D01*
X173653943Y-112014000D01*
X173626236Y-111732691D01*
X173544182Y-111462192D01*
X173410932Y-111212899D01*
X173231608Y-110994392D01*
X173013101Y-110815068D01*
X172763808Y-110681818D01*
X172493309Y-110599764D01*
X172282492Y-110579000D01*
X172141508Y-110579000D01*
X171930691Y-110599764D01*
X171660192Y-110681818D01*
X171410899Y-110815068D01*
X171192392Y-110994392D01*
X171013068Y-111212899D01*
X170879818Y-111462192D01*
X170797764Y-111732691D01*
X170770057Y-112014000D01*
X170797764Y-112295309D01*
X170879818Y-112565808D01*
X171013068Y-112815101D01*
X171192392Y-113033608D01*
X171410899Y-113212932D01*
X171660192Y-113346182D01*
X171930691Y-113428236D01*
X172141508Y-113449000D01*
X172282492Y-113449000D01*
X172493309Y-113428236D01*
X172537907Y-113414708D01*
X173281202Y-114158003D01*
X173305000Y-114187002D01*
X173420725Y-114281975D01*
X173552754Y-114352547D01*
X173696015Y-114396004D01*
X173807668Y-114407001D01*
X173807676Y-114407001D01*
X173845001Y-114410677D01*
X173882326Y-114407001D01*
X195828679Y-114407001D01*
X195866001Y-114410677D01*
X195903323Y-114407001D01*
X195903334Y-114407001D01*
X196014987Y-114396004D01*
X196158248Y-114352547D01*
X196290277Y-114281975D01*
X196406002Y-114187002D01*
X196429804Y-114157999D01*
X196956805Y-113630999D01*
X199234069Y-113630999D01*
X199196487Y-113754889D01*
X199167815Y-114046000D01*
X199196487Y-114337111D01*
X199281401Y-114617034D01*
X199419294Y-114875014D01*
X199604866Y-115101134D01*
X199830986Y-115286706D01*
X199885791Y-115316000D01*
X199830986Y-115345294D01*
X199604866Y-115530866D01*
X199419294Y-115756986D01*
X199281401Y-116014966D01*
X199196487Y-116294889D01*
X199167815Y-116586000D01*
X199196487Y-116877111D01*
X199281401Y-117157034D01*
X199419294Y-117415014D01*
X199604866Y-117641134D01*
X199830986Y-117826706D01*
X199885791Y-117856000D01*
X199830986Y-117885294D01*
X199604866Y-118070866D01*
X199467944Y-118237706D01*
X199457919Y-118236719D01*
X199414450Y-118241000D01*
X199414442Y-118241000D01*
X199284429Y-118253805D01*
X199117606Y-118304411D01*
X198963860Y-118386589D01*
X198862872Y-118469468D01*
X198862870Y-118469470D01*
X198829102Y-118497183D01*
X198801389Y-118530951D01*
X198084072Y-119248269D01*
X198084072Y-118022000D01*
X198071812Y-117897518D01*
X198035502Y-117777820D01*
X197976537Y-117667506D01*
X197897185Y-117570815D01*
X197800494Y-117491463D01*
X197690180Y-117432498D01*
X197570482Y-117396188D01*
X197446000Y-117383928D01*
X195746000Y-117383928D01*
X195621518Y-117396188D01*
X195501820Y-117432498D01*
X195391506Y-117491463D01*
X195294815Y-117570815D01*
X195215463Y-117667506D01*
X195156498Y-117777820D01*
X195132034Y-117858466D01*
X195056269Y-117774412D01*
X194822920Y-117600359D01*
X194560099Y-117475175D01*
X194412890Y-117430524D01*
X194183000Y-117551845D01*
X194183000Y-118745000D01*
X194203000Y-118745000D01*
X194203000Y-118999000D01*
X194183000Y-118999000D01*
X194183000Y-119019000D01*
X193929000Y-119019000D01*
X193929000Y-118999000D01*
X193909000Y-118999000D01*
X193909000Y-118745000D01*
X193929000Y-118745000D01*
X193929000Y-117551845D01*
X193699110Y-117430524D01*
X193551901Y-117475175D01*
X193289080Y-117600359D01*
X193055731Y-117774412D01*
X192860822Y-117990645D01*
X192791201Y-118107523D01*
X192756706Y-118042986D01*
X192571134Y-117816866D01*
X192345014Y-117631294D01*
X192087034Y-117493401D01*
X191807111Y-117408487D01*
X191588950Y-117387000D01*
X191443050Y-117387000D01*
X191224889Y-117408487D01*
X190944966Y-117493401D01*
X190686986Y-117631294D01*
X190460866Y-117816866D01*
X190275294Y-118042986D01*
X190246000Y-118097791D01*
X190216706Y-118042986D01*
X190031134Y-117816866D01*
X189805014Y-117631294D01*
X189547034Y-117493401D01*
X189267111Y-117408487D01*
X189048950Y-117387000D01*
X188903050Y-117387000D01*
X188684889Y-117408487D01*
X188404966Y-117493401D01*
X188146986Y-117631294D01*
X187920866Y-117816866D01*
X187735294Y-118042986D01*
X187700799Y-118107523D01*
X187631178Y-117990645D01*
X187436269Y-117774412D01*
X187202920Y-117600359D01*
X186940099Y-117475175D01*
X186792890Y-117430524D01*
X186563000Y-117551845D01*
X186563000Y-118745000D01*
X186583000Y-118745000D01*
X186583000Y-118999000D01*
X186563000Y-118999000D01*
X186563000Y-119019000D01*
X186309000Y-119019000D01*
X186309000Y-118999000D01*
X186289000Y-118999000D01*
X186289000Y-118745000D01*
X186309000Y-118745000D01*
X186309000Y-117551845D01*
X186079110Y-117430524D01*
X185931901Y-117475175D01*
X185669080Y-117600359D01*
X185435731Y-117774412D01*
X185240822Y-117990645D01*
X185171201Y-118107523D01*
X185136706Y-118042986D01*
X184951134Y-117816866D01*
X184725014Y-117631294D01*
X184467034Y-117493401D01*
X184187111Y-117408487D01*
X183968950Y-117387000D01*
X183823050Y-117387000D01*
X183604889Y-117408487D01*
X183324966Y-117493401D01*
X183066986Y-117631294D01*
X182840866Y-117816866D01*
X182655294Y-118042986D01*
X182626000Y-118097791D01*
X182596706Y-118042986D01*
X182411134Y-117816866D01*
X182185014Y-117631294D01*
X181927034Y-117493401D01*
X181647111Y-117408487D01*
X181428950Y-117387000D01*
X181283050Y-117387000D01*
X181064889Y-117408487D01*
X180784966Y-117493401D01*
X180526986Y-117631294D01*
X180300866Y-117816866D01*
X180115294Y-118042986D01*
X180080799Y-118107523D01*
X180011178Y-117990645D01*
X179816269Y-117774412D01*
X179582920Y-117600359D01*
X179320099Y-117475175D01*
X179172890Y-117430524D01*
X178943000Y-117551845D01*
X178943000Y-118745000D01*
X178963000Y-118745000D01*
X178963000Y-118999000D01*
X178943000Y-118999000D01*
X178943000Y-119019000D01*
X178689000Y-119019000D01*
X178689000Y-118999000D01*
X178669000Y-118999000D01*
X178669000Y-118745000D01*
X178689000Y-118745000D01*
X178689000Y-117551845D01*
X178459110Y-117430524D01*
X178311901Y-117475175D01*
X178049080Y-117600359D01*
X177815731Y-117774412D01*
X177620822Y-117990645D01*
X177551201Y-118107523D01*
X177516706Y-118042986D01*
X177331134Y-117816866D01*
X177105014Y-117631294D01*
X176847034Y-117493401D01*
X176567111Y-117408487D01*
X176348950Y-117387000D01*
X176203050Y-117387000D01*
X175984889Y-117408487D01*
X175704966Y-117493401D01*
X175446986Y-117631294D01*
X175220866Y-117816866D01*
X175035294Y-118042986D01*
X174897401Y-118300966D01*
X174812487Y-118580889D01*
X174783815Y-118872000D01*
X174809187Y-119129606D01*
X173360537Y-117680957D01*
X173332820Y-117647184D01*
X173198062Y-117536590D01*
X173044316Y-117454412D01*
X172877493Y-117403806D01*
X172747480Y-117391001D01*
X172747472Y-117391001D01*
X172704003Y-117386720D01*
X172660534Y-117391001D01*
X168620072Y-117391001D01*
X168620072Y-115736000D01*
X168607812Y-115611518D01*
X168571502Y-115491820D01*
X168512537Y-115381506D01*
X168433185Y-115284815D01*
X168336494Y-115205463D01*
X168226180Y-115146498D01*
X168106482Y-115110188D01*
X167982000Y-115097928D01*
X166282000Y-115097928D01*
X166157518Y-115110188D01*
X166037820Y-115146498D01*
X165927506Y-115205463D01*
X165830815Y-115284815D01*
X165751463Y-115381506D01*
X165692498Y-115491820D01*
X165671607Y-115560687D01*
X165647134Y-115530866D01*
X165421014Y-115345294D01*
X165163034Y-115207401D01*
X164883111Y-115122487D01*
X164664950Y-115101000D01*
X164519050Y-115101000D01*
X164300889Y-115122487D01*
X164020966Y-115207401D01*
X163762986Y-115345294D01*
X163536866Y-115530866D01*
X163474000Y-115607468D01*
X163474000Y-114177312D01*
X163536899Y-114228932D01*
X163786192Y-114362182D01*
X164056691Y-114444236D01*
X164267508Y-114465000D01*
X164408492Y-114465000D01*
X164619309Y-114444236D01*
X164889808Y-114362182D01*
X165139101Y-114228932D01*
X165357608Y-114049608D01*
X165536932Y-113831101D01*
X165670182Y-113581808D01*
X165752236Y-113311309D01*
X165779943Y-113030000D01*
X165752236Y-112748691D01*
X165738708Y-112704093D01*
X166880001Y-111562800D01*
X166880001Y-111809099D01*
X166838899Y-111831068D01*
X166620392Y-112010392D01*
X166441068Y-112228899D01*
X166307818Y-112478192D01*
X166225764Y-112748691D01*
X166198057Y-113030000D01*
X166225764Y-113311309D01*
X166307818Y-113581808D01*
X166441068Y-113831101D01*
X166620392Y-114049608D01*
X166838899Y-114228932D01*
X167088192Y-114362182D01*
X167358691Y-114444236D01*
X167569508Y-114465000D01*
X167710492Y-114465000D01*
X167921309Y-114444236D01*
X168191808Y-114362182D01*
X168441101Y-114228932D01*
X168659608Y-114049608D01*
X168838932Y-113831101D01*
X168972182Y-113581808D01*
X169054236Y-113311309D01*
X169081943Y-113030000D01*
X169054236Y-112748691D01*
X168972182Y-112478192D01*
X168838932Y-112228899D01*
X168659608Y-112010392D01*
X168441101Y-111831068D01*
X168400000Y-111809099D01*
X168400000Y-110679211D01*
X169757928Y-109321283D01*
X169757928Y-109766000D01*
X169770188Y-109890482D01*
X169806498Y-110010180D01*
X169865463Y-110120494D01*
X169944815Y-110217185D01*
X170041506Y-110296537D01*
X170151820Y-110355502D01*
X170271518Y-110391812D01*
X170396000Y-110404072D01*
X171996000Y-110404072D01*
X172120482Y-110391812D01*
X172240180Y-110355502D01*
X172350494Y-110296537D01*
X172447185Y-110217185D01*
X172526537Y-110120494D01*
X172585502Y-110010180D01*
X172621812Y-109890482D01*
X172623581Y-109872518D01*
X172716392Y-109985608D01*
X172934899Y-110164932D01*
X173184192Y-110298182D01*
X173454691Y-110380236D01*
X173665508Y-110401000D01*
X173806492Y-110401000D01*
X174017309Y-110380236D01*
X174287808Y-110298182D01*
X174537101Y-110164932D01*
X174755608Y-109985608D01*
X174934932Y-109767101D01*
X175006000Y-109634142D01*
X175077068Y-109767101D01*
X175256392Y-109985608D01*
X175474899Y-110164932D01*
X175724192Y-110298182D01*
X175994691Y-110380236D01*
X176205508Y-110401000D01*
X176346492Y-110401000D01*
X176557309Y-110380236D01*
X176827808Y-110298182D01*
X177077101Y-110164932D01*
X177295608Y-109985608D01*
X177474932Y-109767101D01*
X177546000Y-109634142D01*
X177617068Y-109767101D01*
X177796392Y-109985608D01*
X178014899Y-110164932D01*
X178264192Y-110298182D01*
X178534691Y-110380236D01*
X178745508Y-110401000D01*
X178886492Y-110401000D01*
X179097309Y-110380236D01*
X179367808Y-110298182D01*
X179617101Y-110164932D01*
X179835608Y-109985608D01*
X180014932Y-109767101D01*
X180088579Y-109629318D01*
X180203615Y-109821131D01*
X180392586Y-110029519D01*
X180618580Y-110197037D01*
X180872913Y-110317246D01*
X181006961Y-110357904D01*
X181229000Y-110235915D01*
X181229000Y-109093000D01*
X181483000Y-109093000D01*
X181483000Y-110235915D01*
X181705039Y-110357904D01*
X181839087Y-110317246D01*
X182093420Y-110197037D01*
X182319414Y-110029519D01*
X182508385Y-109821131D01*
X182626000Y-109625018D01*
X182743615Y-109821131D01*
X182932586Y-110029519D01*
X183158580Y-110197037D01*
X183412913Y-110317246D01*
X183546961Y-110357904D01*
X183769000Y-110235915D01*
X183769000Y-109093000D01*
X181483000Y-109093000D01*
X181229000Y-109093000D01*
X181209000Y-109093000D01*
X181209000Y-108839000D01*
X181229000Y-108839000D01*
X181229000Y-107696085D01*
X181483000Y-107696085D01*
X181483000Y-108839000D01*
X183769000Y-108839000D01*
X183769000Y-107696085D01*
X183546961Y-107574096D01*
X183412913Y-107614754D01*
X183158580Y-107734963D01*
X182932586Y-107902481D01*
X182743615Y-108110869D01*
X182626000Y-108306982D01*
X182508385Y-108110869D01*
X182319414Y-107902481D01*
X182093420Y-107734963D01*
X181839087Y-107614754D01*
X181705039Y-107574096D01*
X181483000Y-107696085D01*
X181229000Y-107696085D01*
X181006961Y-107574096D01*
X180872913Y-107614754D01*
X180618580Y-107734963D01*
X180392586Y-107902481D01*
X180203615Y-108110869D01*
X180088579Y-108302682D01*
X180014932Y-108164899D01*
X179835608Y-107946392D01*
X179617101Y-107767068D01*
X179367808Y-107633818D01*
X179097309Y-107551764D01*
X178886492Y-107531000D01*
X178745508Y-107531000D01*
X178534691Y-107551764D01*
X178264192Y-107633818D01*
X178014899Y-107767068D01*
X177796392Y-107946392D01*
X177617068Y-108164899D01*
X177546000Y-108297858D01*
X177474932Y-108164899D01*
X177295608Y-107946392D01*
X177077101Y-107767068D01*
X176827808Y-107633818D01*
X176557309Y-107551764D01*
X176346492Y-107531000D01*
X176205508Y-107531000D01*
X175994691Y-107551764D01*
X175724192Y-107633818D01*
X175474899Y-107767068D01*
X175256392Y-107946392D01*
X175077068Y-108164899D01*
X175006000Y-108297858D01*
X174934932Y-108164899D01*
X174755608Y-107946392D01*
X174537101Y-107767068D01*
X174287808Y-107633818D01*
X174017309Y-107551764D01*
X173806492Y-107531000D01*
X173665508Y-107531000D01*
X173454691Y-107551764D01*
X173184192Y-107633818D01*
X172934899Y-107767068D01*
X172716392Y-107946392D01*
X172623581Y-108059482D01*
X172621812Y-108041518D01*
X172585502Y-107921820D01*
X172526537Y-107811506D01*
X172447185Y-107714815D01*
X172350494Y-107635463D01*
X172240180Y-107576498D01*
X172120482Y-107540188D01*
X171996000Y-107527928D01*
X171551284Y-107527928D01*
X172655212Y-106424000D01*
X194368289Y-106424000D01*
X194412226Y-106467937D01*
X194412226Y-106467937D01*
G37*
X194412226Y-106467937D02*
X194581744Y-106581205D01*
X194770102Y-106659226D01*
X194970061Y-106699000D01*
X195173939Y-106699000D01*
X195240999Y-106685661D01*
X195240999Y-108147922D01*
X195075608Y-107946392D01*
X194857101Y-107767068D01*
X194607808Y-107633818D01*
X194337309Y-107551764D01*
X194126492Y-107531000D01*
X193985508Y-107531000D01*
X193774691Y-107551764D01*
X193504192Y-107633818D01*
X193254899Y-107767068D01*
X193036392Y-107946392D01*
X192857068Y-108164899D01*
X192786000Y-108297858D01*
X192714932Y-108164899D01*
X192535608Y-107946392D01*
X192317101Y-107767068D01*
X192067808Y-107633818D01*
X191797309Y-107551764D01*
X191586492Y-107531000D01*
X191445508Y-107531000D01*
X191234691Y-107551764D01*
X190964192Y-107633818D01*
X190714899Y-107767068D01*
X190496392Y-107946392D01*
X190317068Y-108164899D01*
X190246000Y-108297858D01*
X190174932Y-108164899D01*
X189995608Y-107946392D01*
X189777101Y-107767068D01*
X189527808Y-107633818D01*
X189257309Y-107551764D01*
X189046492Y-107531000D01*
X188905508Y-107531000D01*
X188694691Y-107551764D01*
X188424192Y-107633818D01*
X188174899Y-107767068D01*
X187956392Y-107946392D01*
X187777068Y-108164899D01*
X187706000Y-108297858D01*
X187634932Y-108164899D01*
X187455608Y-107946392D01*
X187237101Y-107767068D01*
X186987808Y-107633818D01*
X186717309Y-107551764D01*
X186506492Y-107531000D01*
X186365508Y-107531000D01*
X186154691Y-107551764D01*
X185884192Y-107633818D01*
X185634899Y-107767068D01*
X185416392Y-107946392D01*
X185237068Y-108164899D01*
X185163421Y-108302682D01*
X185048385Y-108110869D01*
X184859414Y-107902481D01*
X184633420Y-107734963D01*
X184379087Y-107614754D01*
X184245039Y-107574096D01*
X184023000Y-107696085D01*
X184023000Y-108839000D01*
X184043000Y-108839000D01*
X184043000Y-109093000D01*
X184023000Y-109093000D01*
X184023000Y-110235915D01*
X184245039Y-110357904D01*
X184379087Y-110317246D01*
X184633420Y-110197037D01*
X184859414Y-110029519D01*
X185048385Y-109821131D01*
X185163421Y-109629318D01*
X185237068Y-109767101D01*
X185416392Y-109985608D01*
X185634899Y-110164932D01*
X185884192Y-110298182D01*
X186154691Y-110380236D01*
X186365508Y-110401000D01*
X186506492Y-110401000D01*
X186717309Y-110380236D01*
X186987808Y-110298182D01*
X187237101Y-110164932D01*
X187455608Y-109985608D01*
X187634932Y-109767101D01*
X187706000Y-109634142D01*
X187777068Y-109767101D01*
X187956392Y-109985608D01*
X188174899Y-110164932D01*
X188424192Y-110298182D01*
X188694691Y-110380236D01*
X188905508Y-110401000D01*
X189046492Y-110401000D01*
X189257309Y-110380236D01*
X189527808Y-110298182D01*
X189777101Y-110164932D01*
X189995608Y-109985608D01*
X190174932Y-109767101D01*
X190246000Y-109634142D01*
X190317068Y-109767101D01*
X190496392Y-109985608D01*
X190714899Y-110164932D01*
X190964192Y-110298182D01*
X191234691Y-110380236D01*
X191445508Y-110401000D01*
X191586492Y-110401000D01*
X191797309Y-110380236D01*
X192067808Y-110298182D01*
X192317101Y-110164932D01*
X192535608Y-109985608D01*
X192714932Y-109767101D01*
X192786000Y-109634142D01*
X192857068Y-109767101D01*
X193036392Y-109985608D01*
X193254899Y-110164932D01*
X193504192Y-110298182D01*
X193774691Y-110380236D01*
X193985508Y-110401000D01*
X194126492Y-110401000D01*
X194337309Y-110380236D01*
X194607808Y-110298182D01*
X194857101Y-110164932D01*
X195075608Y-109985608D01*
X195240999Y-109784078D01*
X195240999Y-111088429D01*
X195044691Y-111107764D01*
X194774192Y-111189818D01*
X194524899Y-111323068D01*
X194306392Y-111502392D01*
X194127068Y-111720899D01*
X193993818Y-111970192D01*
X193911764Y-112240691D01*
X193884057Y-112522000D01*
X193911764Y-112803309D01*
X193937151Y-112887001D01*
X189096509Y-112887001D01*
X189141000Y-112663335D01*
X189141000Y-112380665D01*
X189085853Y-112103426D01*
X188977680Y-111842273D01*
X188820637Y-111607241D01*
X188620759Y-111407363D01*
X188385727Y-111250320D01*
X188124574Y-111142147D01*
X187847335Y-111087000D01*
X187564665Y-111087000D01*
X187287426Y-111142147D01*
X187026273Y-111250320D01*
X186791241Y-111407363D01*
X186591363Y-111607241D01*
X186434320Y-111842273D01*
X186326147Y-112103426D01*
X186271000Y-112380665D01*
X186271000Y-112663335D01*
X186315491Y-112887001D01*
X174159803Y-112887001D01*
X173612708Y-112339907D01*
X173626236Y-112295309D01*
X173653943Y-112014000D01*
X173626236Y-111732691D01*
X173544182Y-111462192D01*
X173410932Y-111212899D01*
X173231608Y-110994392D01*
X173013101Y-110815068D01*
X172763808Y-110681818D01*
X172493309Y-110599764D01*
X172282492Y-110579000D01*
X172141508Y-110579000D01*
X171930691Y-110599764D01*
X171660192Y-110681818D01*
X171410899Y-110815068D01*
X171192392Y-110994392D01*
X171013068Y-111212899D01*
X170879818Y-111462192D01*
X170797764Y-111732691D01*
X170770057Y-112014000D01*
X170797764Y-112295309D01*
X170879818Y-112565808D01*
X171013068Y-112815101D01*
X171192392Y-113033608D01*
X171410899Y-113212932D01*
X171660192Y-113346182D01*
X171930691Y-113428236D01*
X172141508Y-113449000D01*
X172282492Y-113449000D01*
X172493309Y-113428236D01*
X172537907Y-113414708D01*
X173281202Y-114158003D01*
X173305000Y-114187002D01*
X173420725Y-114281975D01*
X173552754Y-114352547D01*
X173696015Y-114396004D01*
X173807668Y-114407001D01*
X173807676Y-114407001D01*
X173845001Y-114410677D01*
X173882326Y-114407001D01*
X195828679Y-114407001D01*
X195866001Y-114410677D01*
X195903323Y-114407001D01*
X195903334Y-114407001D01*
X196014987Y-114396004D01*
X196158248Y-114352547D01*
X196290277Y-114281975D01*
X196406002Y-114187002D01*
X196429804Y-114157999D01*
X196956805Y-113630999D01*
X199234069Y-113630999D01*
X199196487Y-113754889D01*
X199167815Y-114046000D01*
X199196487Y-114337111D01*
X199281401Y-114617034D01*
X199419294Y-114875014D01*
X199604866Y-115101134D01*
X199830986Y-115286706D01*
X199885791Y-115316000D01*
X199830986Y-115345294D01*
X199604866Y-115530866D01*
X199419294Y-115756986D01*
X199281401Y-116014966D01*
X199196487Y-116294889D01*
X199167815Y-116586000D01*
X199196487Y-116877111D01*
X199281401Y-117157034D01*
X199419294Y-117415014D01*
X199604866Y-117641134D01*
X199830986Y-117826706D01*
X199885791Y-117856000D01*
X199830986Y-117885294D01*
X199604866Y-118070866D01*
X199467944Y-118237706D01*
X199457919Y-118236719D01*
X199414450Y-118241000D01*
X199414442Y-118241000D01*
X199284429Y-118253805D01*
X199117606Y-118304411D01*
X198963860Y-118386589D01*
X198862872Y-118469468D01*
X198862870Y-118469470D01*
X198829102Y-118497183D01*
X198801389Y-118530951D01*
X198084072Y-119248269D01*
X198084072Y-118022000D01*
X198071812Y-117897518D01*
X198035502Y-117777820D01*
X197976537Y-117667506D01*
X197897185Y-117570815D01*
X197800494Y-117491463D01*
X197690180Y-117432498D01*
X197570482Y-117396188D01*
X197446000Y-117383928D01*
X195746000Y-117383928D01*
X195621518Y-117396188D01*
X195501820Y-117432498D01*
X195391506Y-117491463D01*
X195294815Y-117570815D01*
X195215463Y-117667506D01*
X195156498Y-117777820D01*
X195132034Y-117858466D01*
X195056269Y-117774412D01*
X194822920Y-117600359D01*
X194560099Y-117475175D01*
X194412890Y-117430524D01*
X194183000Y-117551845D01*
X194183000Y-118745000D01*
X194203000Y-118745000D01*
X194203000Y-118999000D01*
X194183000Y-118999000D01*
X194183000Y-119019000D01*
X193929000Y-119019000D01*
X193929000Y-118999000D01*
X193909000Y-118999000D01*
X193909000Y-118745000D01*
X193929000Y-118745000D01*
X193929000Y-117551845D01*
X193699110Y-117430524D01*
X193551901Y-117475175D01*
X193289080Y-117600359D01*
X193055731Y-117774412D01*
X192860822Y-117990645D01*
X192791201Y-118107523D01*
X192756706Y-118042986D01*
X192571134Y-117816866D01*
X192345014Y-117631294D01*
X192087034Y-117493401D01*
X191807111Y-117408487D01*
X191588950Y-117387000D01*
X191443050Y-117387000D01*
X191224889Y-117408487D01*
X190944966Y-117493401D01*
X190686986Y-117631294D01*
X190460866Y-117816866D01*
X190275294Y-118042986D01*
X190246000Y-118097791D01*
X190216706Y-118042986D01*
X190031134Y-117816866D01*
X189805014Y-117631294D01*
X189547034Y-117493401D01*
X189267111Y-117408487D01*
X189048950Y-117387000D01*
X188903050Y-117387000D01*
X188684889Y-117408487D01*
X188404966Y-117493401D01*
X188146986Y-117631294D01*
X187920866Y-117816866D01*
X187735294Y-118042986D01*
X187700799Y-118107523D01*
X187631178Y-117990645D01*
X187436269Y-117774412D01*
X187202920Y-117600359D01*
X186940099Y-117475175D01*
X186792890Y-117430524D01*
X186563000Y-117551845D01*
X186563000Y-118745000D01*
X186583000Y-118745000D01*
X186583000Y-118999000D01*
X186563000Y-118999000D01*
X186563000Y-119019000D01*
X186309000Y-119019000D01*
X186309000Y-118999000D01*
X186289000Y-118999000D01*
X186289000Y-118745000D01*
X186309000Y-118745000D01*
X186309000Y-117551845D01*
X186079110Y-117430524D01*
X185931901Y-117475175D01*
X185669080Y-117600359D01*
X185435731Y-117774412D01*
X185240822Y-117990645D01*
X185171201Y-118107523D01*
X185136706Y-118042986D01*
X184951134Y-117816866D01*
X184725014Y-117631294D01*
X184467034Y-117493401D01*
X184187111Y-117408487D01*
X183968950Y-117387000D01*
X183823050Y-117387000D01*
X183604889Y-117408487D01*
X183324966Y-117493401D01*
X183066986Y-117631294D01*
X182840866Y-117816866D01*
X182655294Y-118042986D01*
X182626000Y-118097791D01*
X182596706Y-118042986D01*
X182411134Y-117816866D01*
X182185014Y-117631294D01*
X181927034Y-117493401D01*
X181647111Y-117408487D01*
X181428950Y-117387000D01*
X181283050Y-117387000D01*
X181064889Y-117408487D01*
X180784966Y-117493401D01*
X180526986Y-117631294D01*
X180300866Y-117816866D01*
X180115294Y-118042986D01*
X180080799Y-118107523D01*
X180011178Y-117990645D01*
X179816269Y-117774412D01*
X179582920Y-117600359D01*
X179320099Y-117475175D01*
X179172890Y-117430524D01*
X178943000Y-117551845D01*
X178943000Y-118745000D01*
X178963000Y-118745000D01*
X178963000Y-118999000D01*
X178943000Y-118999000D01*
X178943000Y-119019000D01*
X178689000Y-119019000D01*
X178689000Y-118999000D01*
X178669000Y-118999000D01*
X178669000Y-118745000D01*
X178689000Y-118745000D01*
X178689000Y-117551845D01*
X178459110Y-117430524D01*
X178311901Y-117475175D01*
X178049080Y-117600359D01*
X177815731Y-117774412D01*
X177620822Y-117990645D01*
X177551201Y-118107523D01*
X177516706Y-118042986D01*
X177331134Y-117816866D01*
X177105014Y-117631294D01*
X176847034Y-117493401D01*
X176567111Y-117408487D01*
X176348950Y-117387000D01*
X176203050Y-117387000D01*
X175984889Y-117408487D01*
X175704966Y-117493401D01*
X175446986Y-117631294D01*
X175220866Y-117816866D01*
X175035294Y-118042986D01*
X174897401Y-118300966D01*
X174812487Y-118580889D01*
X174783815Y-118872000D01*
X174809187Y-119129606D01*
X173360537Y-117680957D01*
X173332820Y-117647184D01*
X173198062Y-117536590D01*
X173044316Y-117454412D01*
X172877493Y-117403806D01*
X172747480Y-117391001D01*
X172747472Y-117391001D01*
X172704003Y-117386720D01*
X172660534Y-117391001D01*
X168620072Y-117391001D01*
X168620072Y-115736000D01*
X168607812Y-115611518D01*
X168571502Y-115491820D01*
X168512537Y-115381506D01*
X168433185Y-115284815D01*
X168336494Y-115205463D01*
X168226180Y-115146498D01*
X168106482Y-115110188D01*
X167982000Y-115097928D01*
X166282000Y-115097928D01*
X166157518Y-115110188D01*
X166037820Y-115146498D01*
X165927506Y-115205463D01*
X165830815Y-115284815D01*
X165751463Y-115381506D01*
X165692498Y-115491820D01*
X165671607Y-115560687D01*
X165647134Y-115530866D01*
X165421014Y-115345294D01*
X165163034Y-115207401D01*
X164883111Y-115122487D01*
X164664950Y-115101000D01*
X164519050Y-115101000D01*
X164300889Y-115122487D01*
X164020966Y-115207401D01*
X163762986Y-115345294D01*
X163536866Y-115530866D01*
X163474000Y-115607468D01*
X163474000Y-114177312D01*
X163536899Y-114228932D01*
X163786192Y-114362182D01*
X164056691Y-114444236D01*
X164267508Y-114465000D01*
X164408492Y-114465000D01*
X164619309Y-114444236D01*
X164889808Y-114362182D01*
X165139101Y-114228932D01*
X165357608Y-114049608D01*
X165536932Y-113831101D01*
X165670182Y-113581808D01*
X165752236Y-113311309D01*
X165779943Y-113030000D01*
X165752236Y-112748691D01*
X165738708Y-112704093D01*
X166880001Y-111562800D01*
X166880001Y-111809099D01*
X166838899Y-111831068D01*
X166620392Y-112010392D01*
X166441068Y-112228899D01*
X166307818Y-112478192D01*
X166225764Y-112748691D01*
X166198057Y-113030000D01*
X166225764Y-113311309D01*
X166307818Y-113581808D01*
X166441068Y-113831101D01*
X166620392Y-114049608D01*
X166838899Y-114228932D01*
X167088192Y-114362182D01*
X167358691Y-114444236D01*
X167569508Y-114465000D01*
X167710492Y-114465000D01*
X167921309Y-114444236D01*
X168191808Y-114362182D01*
X168441101Y-114228932D01*
X168659608Y-114049608D01*
X168838932Y-113831101D01*
X168972182Y-113581808D01*
X169054236Y-113311309D01*
X169081943Y-113030000D01*
X169054236Y-112748691D01*
X168972182Y-112478192D01*
X168838932Y-112228899D01*
X168659608Y-112010392D01*
X168441101Y-111831068D01*
X168400000Y-111809099D01*
X168400000Y-110679211D01*
X169757928Y-109321283D01*
X169757928Y-109766000D01*
X169770188Y-109890482D01*
X169806498Y-110010180D01*
X169865463Y-110120494D01*
X169944815Y-110217185D01*
X170041506Y-110296537D01*
X170151820Y-110355502D01*
X170271518Y-110391812D01*
X170396000Y-110404072D01*
X171996000Y-110404072D01*
X172120482Y-110391812D01*
X172240180Y-110355502D01*
X172350494Y-110296537D01*
X172447185Y-110217185D01*
X172526537Y-110120494D01*
X172585502Y-110010180D01*
X172621812Y-109890482D01*
X172623581Y-109872518D01*
X172716392Y-109985608D01*
X172934899Y-110164932D01*
X173184192Y-110298182D01*
X173454691Y-110380236D01*
X173665508Y-110401000D01*
X173806492Y-110401000D01*
X174017309Y-110380236D01*
X174287808Y-110298182D01*
X174537101Y-110164932D01*
X174755608Y-109985608D01*
X174934932Y-109767101D01*
X175006000Y-109634142D01*
X175077068Y-109767101D01*
X175256392Y-109985608D01*
X175474899Y-110164932D01*
X175724192Y-110298182D01*
X175994691Y-110380236D01*
X176205508Y-110401000D01*
X176346492Y-110401000D01*
X176557309Y-110380236D01*
X176827808Y-110298182D01*
X177077101Y-110164932D01*
X177295608Y-109985608D01*
X177474932Y-109767101D01*
X177546000Y-109634142D01*
X177617068Y-109767101D01*
X177796392Y-109985608D01*
X178014899Y-110164932D01*
X178264192Y-110298182D01*
X178534691Y-110380236D01*
X178745508Y-110401000D01*
X178886492Y-110401000D01*
X179097309Y-110380236D01*
X179367808Y-110298182D01*
X179617101Y-110164932D01*
X179835608Y-109985608D01*
X180014932Y-109767101D01*
X180088579Y-109629318D01*
X180203615Y-109821131D01*
X180392586Y-110029519D01*
X180618580Y-110197037D01*
X180872913Y-110317246D01*
X181006961Y-110357904D01*
X181229000Y-110235915D01*
X181229000Y-109093000D01*
X181483000Y-109093000D01*
X181483000Y-110235915D01*
X181705039Y-110357904D01*
X181839087Y-110317246D01*
X182093420Y-110197037D01*
X182319414Y-110029519D01*
X182508385Y-109821131D01*
X182626000Y-109625018D01*
X182743615Y-109821131D01*
X182932586Y-110029519D01*
X183158580Y-110197037D01*
X183412913Y-110317246D01*
X183546961Y-110357904D01*
X183769000Y-110235915D01*
X183769000Y-109093000D01*
X181483000Y-109093000D01*
X181229000Y-109093000D01*
X181209000Y-109093000D01*
X181209000Y-108839000D01*
X181229000Y-108839000D01*
X181229000Y-107696085D01*
X181483000Y-107696085D01*
X181483000Y-108839000D01*
X183769000Y-108839000D01*
X183769000Y-107696085D01*
X183546961Y-107574096D01*
X183412913Y-107614754D01*
X183158580Y-107734963D01*
X182932586Y-107902481D01*
X182743615Y-108110869D01*
X182626000Y-108306982D01*
X182508385Y-108110869D01*
X182319414Y-107902481D01*
X182093420Y-107734963D01*
X181839087Y-107614754D01*
X181705039Y-107574096D01*
X181483000Y-107696085D01*
X181229000Y-107696085D01*
X181006961Y-107574096D01*
X180872913Y-107614754D01*
X180618580Y-107734963D01*
X180392586Y-107902481D01*
X180203615Y-108110869D01*
X180088579Y-108302682D01*
X180014932Y-108164899D01*
X179835608Y-107946392D01*
X179617101Y-107767068D01*
X179367808Y-107633818D01*
X179097309Y-107551764D01*
X178886492Y-107531000D01*
X178745508Y-107531000D01*
X178534691Y-107551764D01*
X178264192Y-107633818D01*
X178014899Y-107767068D01*
X177796392Y-107946392D01*
X177617068Y-108164899D01*
X177546000Y-108297858D01*
X177474932Y-108164899D01*
X177295608Y-107946392D01*
X177077101Y-107767068D01*
X176827808Y-107633818D01*
X176557309Y-107551764D01*
X176346492Y-107531000D01*
X176205508Y-107531000D01*
X175994691Y-107551764D01*
X175724192Y-107633818D01*
X175474899Y-107767068D01*
X175256392Y-107946392D01*
X175077068Y-108164899D01*
X175006000Y-108297858D01*
X174934932Y-108164899D01*
X174755608Y-107946392D01*
X174537101Y-107767068D01*
X174287808Y-107633818D01*
X174017309Y-107551764D01*
X173806492Y-107531000D01*
X173665508Y-107531000D01*
X173454691Y-107551764D01*
X173184192Y-107633818D01*
X172934899Y-107767068D01*
X172716392Y-107946392D01*
X172623581Y-108059482D01*
X172621812Y-108041518D01*
X172585502Y-107921820D01*
X172526537Y-107811506D01*
X172447185Y-107714815D01*
X172350494Y-107635463D01*
X172240180Y-107576498D01*
X172120482Y-107540188D01*
X171996000Y-107527928D01*
X171551284Y-107527928D01*
X172655212Y-106424000D01*
X194368289Y-106424000D01*
X194412226Y-106467937D01*
G36*
X184675248Y-88355500D02*
G01*
X188938000Y-88355500D01*
X188938000Y-88898000D01*
X188984105Y-89112110D01*
X189071095Y-89313111D01*
X189195627Y-89493279D01*
X189352915Y-89645690D01*
X189536914Y-89764487D01*
X189750062Y-89840268D01*
X189921000Y-89713734D01*
X189921000Y-89571596D01*
X189927765Y-89572307D01*
X189986034Y-89578020D01*
X190013730Y-89578020D01*
X190041256Y-89581014D01*
X190050123Y-89581046D01*
X190052217Y-89581039D01*
X190079863Y-89578235D01*
X190107649Y-89578429D01*
X190116474Y-89577564D01*
X190174703Y-89571444D01*
X190175000Y-89571383D01*
X190175000Y-89713734D01*
X190345781Y-89840152D01*
X190288472Y-90056867D01*
X191048000Y-90816395D01*
X191807528Y-90056867D01*
X191745035Y-89820550D01*
X191502322Y-89707150D01*
X191242151Y-89643281D01*
X190974518Y-89631396D01*
X190709709Y-89671952D01*
X190693026Y-89678010D01*
X190743085Y-89645690D01*
X190900373Y-89493279D01*
X191024905Y-89313111D01*
X191111895Y-89112110D01*
X191158000Y-88898000D01*
X191158000Y-88355500D01*
X192804772Y-88355500D01*
X192804772Y-87528000D01*
X195973745Y-87528000D01*
X195938000Y-87694000D01*
X195938000Y-88169000D01*
X196112950Y-88169000D01*
X196112950Y-88423000D01*
X195938000Y-88423000D01*
X195938000Y-88898000D01*
X195984105Y-89112110D01*
X196071095Y-89313111D01*
X196195627Y-89493279D01*
X196352915Y-89645690D01*
X196414847Y-89685676D01*
X196242151Y-89643281D01*
X195974518Y-89631396D01*
X195709709Y-89671952D01*
X195457900Y-89763391D01*
X195350965Y-89820550D01*
X195288472Y-90056867D01*
X196048000Y-90816395D01*
X196807528Y-90056867D01*
X196750219Y-89840152D01*
X196921000Y-89713734D01*
X196921000Y-89571596D01*
X196927765Y-89572307D01*
X196986034Y-89578020D01*
X197013730Y-89578020D01*
X197041256Y-89581014D01*
X197050123Y-89581046D01*
X197052217Y-89581039D01*
X197079863Y-89578235D01*
X197107649Y-89578429D01*
X197116474Y-89577564D01*
X197174703Y-89571444D01*
X197175000Y-89571383D01*
X197175000Y-89713734D01*
X197345938Y-89840268D01*
X197559086Y-89764487D01*
X197743085Y-89645690D01*
X197900373Y-89493279D01*
X198024905Y-89313111D01*
X198111895Y-89112110D01*
X198158000Y-88898000D01*
X198158000Y-88423000D01*
X197983050Y-88423000D01*
X197983050Y-88169000D01*
X198158000Y-88169000D01*
X198158000Y-87694000D01*
X198122255Y-87528000D01*
X199693023Y-87528000D01*
X199562412Y-87645731D01*
X199388359Y-87879080D01*
X199263175Y-88141901D01*
X199218524Y-88289110D01*
X199339845Y-88519000D01*
X200533000Y-88519000D01*
X200533000Y-88499000D01*
X200787000Y-88499000D01*
X200787000Y-88519000D01*
X203073000Y-88519000D01*
X203073000Y-88499000D01*
X203327000Y-88499000D01*
X203327000Y-88519000D01*
X203347000Y-88519000D01*
X203347000Y-88773000D01*
X203327000Y-88773000D01*
X203327000Y-88793000D01*
X203073000Y-88793000D01*
X203073000Y-88773000D01*
X200787000Y-88773000D01*
X200787000Y-88793000D01*
X200533000Y-88793000D01*
X200533000Y-88773000D01*
X199339845Y-88773000D01*
X199218524Y-89002890D01*
X199263175Y-89150099D01*
X199388359Y-89412920D01*
X199562412Y-89646269D01*
X199778645Y-89841178D01*
X199895523Y-89910799D01*
X199830986Y-89945294D01*
X199604866Y-90130866D01*
X199419294Y-90356986D01*
X199281401Y-90614966D01*
X199196487Y-90894889D01*
X199167815Y-91186000D01*
X199196487Y-91477111D01*
X199281401Y-91757034D01*
X199419294Y-92015014D01*
X199604866Y-92241134D01*
X199830986Y-92426706D01*
X199885791Y-92456000D01*
X199830986Y-92485294D01*
X199604866Y-92670866D01*
X199419294Y-92896986D01*
X199281401Y-93154966D01*
X199196487Y-93434889D01*
X199167815Y-93726000D01*
X199196487Y-94017111D01*
X199281401Y-94297034D01*
X199419294Y-94555014D01*
X199604866Y-94781134D01*
X199830986Y-94966706D01*
X199885791Y-94996000D01*
X199830986Y-95025294D01*
X199604866Y-95210866D01*
X199419294Y-95436986D01*
X199281401Y-95694966D01*
X199196487Y-95974889D01*
X199167815Y-96266000D01*
X199196487Y-96557111D01*
X199281401Y-96837034D01*
X199419294Y-97095014D01*
X199604866Y-97321134D01*
X199830986Y-97506706D01*
X199885791Y-97536000D01*
X199830986Y-97565294D01*
X199604866Y-97750866D01*
X199419294Y-97976986D01*
X199281401Y-98234966D01*
X199196487Y-98514889D01*
X199167815Y-98806000D01*
X199196487Y-99097111D01*
X199281401Y-99377034D01*
X199419294Y-99635014D01*
X199604866Y-99861134D01*
X199830986Y-100046706D01*
X199885791Y-100076000D01*
X199830986Y-100105294D01*
X199604866Y-100290866D01*
X199419294Y-100516986D01*
X199281401Y-100774966D01*
X199196487Y-101054889D01*
X199167815Y-101346000D01*
X199196487Y-101637111D01*
X199281401Y-101917034D01*
X199419294Y-102175014D01*
X199604866Y-102401134D01*
X199830986Y-102586706D01*
X199885791Y-102616000D01*
X199830986Y-102645294D01*
X199604866Y-102830866D01*
X199419294Y-103056986D01*
X199281401Y-103314966D01*
X199196487Y-103594889D01*
X199167815Y-103886000D01*
X199196487Y-104177111D01*
X199281401Y-104457034D01*
X199419294Y-104715014D01*
X199604866Y-104941134D01*
X199830986Y-105126706D01*
X199885791Y-105156000D01*
X199830986Y-105185294D01*
X199604866Y-105370866D01*
X199419294Y-105596986D01*
X199281401Y-105854966D01*
X199196487Y-106134889D01*
X199167815Y-106426000D01*
X199196487Y-106717111D01*
X199281401Y-106997034D01*
X199419294Y-107255014D01*
X199604866Y-107481134D01*
X199830986Y-107666706D01*
X199885791Y-107696000D01*
X199830986Y-107725294D01*
X199604866Y-107910866D01*
X199419294Y-108136986D01*
X199281401Y-108394966D01*
X199196487Y-108674889D01*
X199167815Y-108966000D01*
X199196487Y-109257111D01*
X199281401Y-109537034D01*
X199419294Y-109795014D01*
X199604866Y-110021134D01*
X199830986Y-110206706D01*
X199885791Y-110236000D01*
X199830986Y-110265294D01*
X199604866Y-110450866D01*
X199419294Y-110676986D01*
X199281401Y-110934966D01*
X199196487Y-111214889D01*
X199167815Y-111506000D01*
X199196487Y-111797111D01*
X199281401Y-112077034D01*
X199299556Y-112110999D01*
X196921566Y-112110999D01*
X196947588Y-112062314D01*
X196998194Y-111895491D01*
X197010999Y-111765478D01*
X197010999Y-111765468D01*
X197015280Y-111722002D01*
X197010999Y-111678536D01*
X197010999Y-110271888D01*
X197060192Y-110298182D01*
X197330691Y-110380236D01*
X197541508Y-110401000D01*
X197682492Y-110401000D01*
X197893309Y-110380236D01*
X198163808Y-110298182D01*
X198413101Y-110164932D01*
X198631608Y-109985608D01*
X198810932Y-109767101D01*
X198944182Y-109517808D01*
X199026236Y-109247309D01*
X199053943Y-108966000D01*
X199026236Y-108684691D01*
X198944182Y-108414192D01*
X198810932Y-108164899D01*
X198631608Y-107946392D01*
X198413101Y-107767068D01*
X198163808Y-107633818D01*
X197893309Y-107551764D01*
X197682492Y-107531000D01*
X197541508Y-107531000D01*
X197330691Y-107551764D01*
X197060192Y-107633818D01*
X197010999Y-107660112D01*
X197010999Y-102649158D01*
X197125996Y-102703571D01*
X197400184Y-102772300D01*
X197682512Y-102786217D01*
X197962130Y-102744787D01*
X198228292Y-102649603D01*
X198353514Y-102582671D01*
X198425097Y-102338702D01*
X197612000Y-101525605D01*
X197597858Y-101539748D01*
X197418253Y-101360143D01*
X197432395Y-101346000D01*
X197791605Y-101346000D01*
X198604702Y-102159097D01*
X198848671Y-102087514D01*
X198969571Y-101832004D01*
X199038300Y-101557816D01*
X199052217Y-101275488D01*
X199010787Y-100995870D01*
X198915603Y-100729708D01*
X198848671Y-100604486D01*
X198604702Y-100532903D01*
X197791605Y-101346000D01*
X197432395Y-101346000D01*
X196619298Y-100532903D01*
X196406826Y-100595245D01*
X196164879Y-100353298D01*
X196798903Y-100353298D01*
X197612000Y-101166395D01*
X198425097Y-100353298D01*
X198353514Y-100109329D01*
X198098004Y-99988429D01*
X197823816Y-99919700D01*
X197541488Y-99905783D01*
X197261870Y-99947213D01*
X196995708Y-100042397D01*
X196870486Y-100109329D01*
X196798903Y-100353298D01*
X196164879Y-100353298D01*
X190553581Y-94742000D01*
X192614057Y-94742000D01*
X192641764Y-95023309D01*
X192723818Y-95293808D01*
X192857068Y-95543101D01*
X193036392Y-95761608D01*
X193254899Y-95940932D01*
X193504192Y-96074182D01*
X193774691Y-96156236D01*
X193985508Y-96177000D01*
X194126492Y-96177000D01*
X194337309Y-96156236D01*
X194607808Y-96074182D01*
X194857101Y-95940932D01*
X195075608Y-95761608D01*
X195254932Y-95543101D01*
X195388182Y-95293808D01*
X195470236Y-95023309D01*
X195497943Y-94742000D01*
X195470236Y-94460691D01*
X195388182Y-94190192D01*
X195254932Y-93940899D01*
X195075608Y-93722392D01*
X194857101Y-93543068D01*
X194607808Y-93409818D01*
X194337309Y-93327764D01*
X194126492Y-93307000D01*
X193985508Y-93307000D01*
X193774691Y-93327764D01*
X193504192Y-93409818D01*
X193254899Y-93543068D01*
X193036392Y-93722392D01*
X192857068Y-93940899D01*
X192723818Y-94190192D01*
X192641764Y-94460691D01*
X192614057Y-94742000D01*
X190553581Y-94742000D01*
X187746714Y-91935133D01*
X190288472Y-91935133D01*
X190350965Y-92171450D01*
X190593678Y-92284850D01*
X190853849Y-92348719D01*
X191121482Y-92360604D01*
X191386291Y-92320048D01*
X191638100Y-92228609D01*
X191745035Y-92171450D01*
X191807528Y-91935133D01*
X195288472Y-91935133D01*
X195350965Y-92171450D01*
X195593678Y-92284850D01*
X195853849Y-92348719D01*
X196121482Y-92360604D01*
X196386291Y-92320048D01*
X196638100Y-92228609D01*
X196745035Y-92171450D01*
X196807528Y-91935133D01*
X196048000Y-91175605D01*
X195288472Y-91935133D01*
X191807528Y-91935133D01*
X191048000Y-91175605D01*
X190288472Y-91935133D01*
X187746714Y-91935133D01*
X187544537Y-91732957D01*
X187516820Y-91699184D01*
X187382062Y-91588590D01*
X187228316Y-91506412D01*
X187061493Y-91455806D01*
X186931480Y-91443001D01*
X186931472Y-91443001D01*
X186888003Y-91438720D01*
X186844534Y-91443001D01*
X184238929Y-91443001D01*
X184293699Y-91332790D01*
X184365117Y-91069482D01*
X189683396Y-91069482D01*
X189723952Y-91334291D01*
X189815391Y-91586100D01*
X189872550Y-91693035D01*
X190108867Y-91755528D01*
X190868395Y-90996000D01*
X191227605Y-90996000D01*
X191987133Y-91755528D01*
X192223450Y-91693035D01*
X192336850Y-91450322D01*
X192400719Y-91190151D01*
X192406077Y-91069482D01*
X194683396Y-91069482D01*
X194723952Y-91334291D01*
X194815391Y-91586100D01*
X194872550Y-91693035D01*
X195108867Y-91755528D01*
X195868395Y-90996000D01*
X196227605Y-90996000D01*
X196987133Y-91755528D01*
X197223450Y-91693035D01*
X197336850Y-91450322D01*
X197400719Y-91190151D01*
X197412604Y-90922518D01*
X197372048Y-90657709D01*
X197280609Y-90405900D01*
X197223450Y-90298965D01*
X196987133Y-90236472D01*
X196227605Y-90996000D01*
X195868395Y-90996000D01*
X195108867Y-90236472D01*
X194872550Y-90298965D01*
X194759150Y-90541678D01*
X194695281Y-90801849D01*
X194683396Y-91069482D01*
X192406077Y-91069482D01*
X192412604Y-90922518D01*
X192372048Y-90657709D01*
X192280609Y-90405900D01*
X192223450Y-90298965D01*
X191987133Y-90236472D01*
X191227605Y-90996000D01*
X190868395Y-90996000D01*
X190108867Y-90236472D01*
X189872550Y-90298965D01*
X189759150Y-90541678D01*
X189695281Y-90801849D01*
X189683396Y-91069482D01*
X184365117Y-91069482D01*
X184388322Y-90983931D01*
X184413067Y-90623316D01*
X184366985Y-90264802D01*
X184251846Y-89922167D01*
X184132836Y-89699514D01*
X183847980Y-89579626D01*
X182749605Y-90678000D01*
X182763748Y-90692142D01*
X182584142Y-90871748D01*
X182570000Y-90857605D01*
X182555858Y-90871748D01*
X182376252Y-90692142D01*
X182390395Y-90678000D01*
X181292020Y-89579626D01*
X181007164Y-89699514D01*
X180908072Y-89898912D01*
X180908072Y-89478000D01*
X180900392Y-89400020D01*
X181471626Y-89400020D01*
X182570000Y-90498395D01*
X183668374Y-89400020D01*
X183548486Y-89115164D01*
X183224790Y-88954301D01*
X182875931Y-88859678D01*
X182515316Y-88834933D01*
X182156802Y-88881015D01*
X181814167Y-88996154D01*
X181591514Y-89115164D01*
X181471626Y-89400020D01*
X180900392Y-89400020D01*
X180895812Y-89353518D01*
X180859502Y-89233820D01*
X180800537Y-89123506D01*
X180721185Y-89026815D01*
X180624494Y-88947463D01*
X180514180Y-88888498D01*
X180394482Y-88852188D01*
X180270000Y-88839928D01*
X177870000Y-88839928D01*
X177745518Y-88852188D01*
X177625820Y-88888498D01*
X177515506Y-88947463D01*
X177418815Y-89026815D01*
X177339463Y-89123506D01*
X177280498Y-89233820D01*
X177244188Y-89353518D01*
X177231928Y-89478000D01*
X177231928Y-91878000D01*
X177244188Y-92002482D01*
X177280498Y-92122180D01*
X177339463Y-92232494D01*
X177418815Y-92329185D01*
X177515506Y-92408537D01*
X177625820Y-92467502D01*
X177745518Y-92503812D01*
X177870000Y-92516072D01*
X179656493Y-92516072D01*
X180063471Y-92923050D01*
X180091184Y-92956818D01*
X180124952Y-92984531D01*
X180124954Y-92984533D01*
X180225942Y-93067412D01*
X180379688Y-93149590D01*
X180546511Y-93200196D01*
X180676524Y-93213001D01*
X180676532Y-93213001D01*
X180720001Y-93217282D01*
X180763470Y-93213001D01*
X186521425Y-93213001D01*
X186622896Y-93314472D01*
X186365488Y-93301783D01*
X186085870Y-93343213D01*
X185819708Y-93438397D01*
X185694486Y-93505329D01*
X185622903Y-93749298D01*
X186436000Y-94562395D01*
X186450143Y-94548253D01*
X186629748Y-94727858D01*
X186615605Y-94742000D01*
X187428702Y-95555097D01*
X187672671Y-95483514D01*
X187793571Y-95228004D01*
X187862300Y-94953816D01*
X187876217Y-94671488D01*
X187858181Y-94549757D01*
X193385620Y-100077196D01*
X193254899Y-100147068D01*
X193036392Y-100326392D01*
X192857068Y-100544899D01*
X192786000Y-100677858D01*
X192714932Y-100544899D01*
X192535608Y-100326392D01*
X192317101Y-100147068D01*
X192067808Y-100013818D01*
X191797309Y-99931764D01*
X191586492Y-99911000D01*
X191445508Y-99911000D01*
X191234691Y-99931764D01*
X190964192Y-100013818D01*
X190714899Y-100147068D01*
X190496392Y-100326392D01*
X190317068Y-100544899D01*
X190246000Y-100677858D01*
X190174932Y-100544899D01*
X189995608Y-100326392D01*
X189777101Y-100147068D01*
X189527808Y-100013818D01*
X189257309Y-99931764D01*
X189046492Y-99911000D01*
X188905508Y-99911000D01*
X188694691Y-99931764D01*
X188424192Y-100013818D01*
X188174899Y-100147068D01*
X187956392Y-100326392D01*
X187777068Y-100544899D01*
X187706000Y-100677858D01*
X187634932Y-100544899D01*
X187455608Y-100326392D01*
X187237101Y-100147068D01*
X186987808Y-100013818D01*
X186717309Y-99931764D01*
X186506492Y-99911000D01*
X186365508Y-99911000D01*
X186154691Y-99931764D01*
X185884192Y-100013818D01*
X185634899Y-100147068D01*
X185416392Y-100326392D01*
X185237068Y-100544899D01*
X185166000Y-100677858D01*
X185094932Y-100544899D01*
X184915608Y-100326392D01*
X184697101Y-100147068D01*
X184447808Y-100013818D01*
X184177309Y-99931764D01*
X183966492Y-99911000D01*
X183825508Y-99911000D01*
X183614691Y-99931764D01*
X183344192Y-100013818D01*
X183094899Y-100147068D01*
X182876392Y-100326392D01*
X182697068Y-100544899D01*
X182626000Y-100677858D01*
X182554932Y-100544899D01*
X182375608Y-100326392D01*
X182157101Y-100147068D01*
X182116000Y-100125099D01*
X182116000Y-99746324D01*
X182119676Y-99709001D01*
X182116000Y-99671678D01*
X182116000Y-99671669D01*
X182105003Y-99560016D01*
X182061546Y-99416755D01*
X182010515Y-99321284D01*
X182157101Y-99242932D01*
X182375608Y-99063608D01*
X182554932Y-98845101D01*
X182688182Y-98595808D01*
X182770236Y-98325309D01*
X182797943Y-98044000D01*
X182784023Y-97902665D01*
X187541000Y-97902665D01*
X187541000Y-98185335D01*
X187596147Y-98462574D01*
X187704320Y-98723727D01*
X187861363Y-98958759D01*
X188061241Y-99158637D01*
X188296273Y-99315680D01*
X188557426Y-99423853D01*
X188834665Y-99479000D01*
X189117335Y-99479000D01*
X189394574Y-99423853D01*
X189655727Y-99315680D01*
X189890759Y-99158637D01*
X190090637Y-98958759D01*
X190247680Y-98723727D01*
X190355853Y-98462574D01*
X190411000Y-98185335D01*
X190411000Y-97902665D01*
X190355853Y-97625426D01*
X190247680Y-97364273D01*
X190090637Y-97129241D01*
X189890759Y-96929363D01*
X189655727Y-96772320D01*
X189394574Y-96664147D01*
X189117335Y-96609000D01*
X188834665Y-96609000D01*
X188557426Y-96664147D01*
X188296273Y-96772320D01*
X188061241Y-96929363D01*
X187861363Y-97129241D01*
X187704320Y-97364273D01*
X187596147Y-97625426D01*
X187541000Y-97902665D01*
X182784023Y-97902665D01*
X182770236Y-97762691D01*
X182688182Y-97492192D01*
X182554932Y-97242899D01*
X182375608Y-97024392D01*
X182157101Y-96845068D01*
X181907808Y-96711818D01*
X181637309Y-96629764D01*
X181426492Y-96609000D01*
X181285508Y-96609000D01*
X181074691Y-96629764D01*
X180804192Y-96711818D01*
X180554899Y-96845068D01*
X180336392Y-97024392D01*
X180157068Y-97242899D01*
X180090061Y-97368260D01*
X178456503Y-95734702D01*
X185622903Y-95734702D01*
X185694486Y-95978671D01*
X185949996Y-96099571D01*
X186224184Y-96168300D01*
X186506512Y-96182217D01*
X186786130Y-96140787D01*
X187052292Y-96045603D01*
X187177514Y-95978671D01*
X187249097Y-95734702D01*
X186436000Y-94921605D01*
X185622903Y-95734702D01*
X178456503Y-95734702D01*
X177534313Y-94812512D01*
X184995783Y-94812512D01*
X185037213Y-95092130D01*
X185132397Y-95358292D01*
X185199329Y-95483514D01*
X185443298Y-95555097D01*
X186256395Y-94742000D01*
X185443298Y-93928903D01*
X185199329Y-94000486D01*
X185078429Y-94255996D01*
X185009700Y-94530184D01*
X184995783Y-94812512D01*
X177534313Y-94812512D01*
X170856802Y-88135003D01*
X170832999Y-88105999D01*
X170717274Y-88011026D01*
X170585245Y-87940454D01*
X170441984Y-87896997D01*
X170330331Y-87886000D01*
X170330320Y-87886000D01*
X170292998Y-87882324D01*
X170255676Y-87886000D01*
X165869595Y-87886000D01*
X165832706Y-87816986D01*
X165647134Y-87590866D01*
X165570532Y-87528000D01*
X184675248Y-87528000D01*
X184675248Y-88355500D01*
X184675248Y-88355500D01*
G37*
X184675248Y-88355500D02*
X188938000Y-88355500D01*
X188938000Y-88898000D01*
X188984105Y-89112110D01*
X189071095Y-89313111D01*
X189195627Y-89493279D01*
X189352915Y-89645690D01*
X189536914Y-89764487D01*
X189750062Y-89840268D01*
X189921000Y-89713734D01*
X189921000Y-89571596D01*
X189927765Y-89572307D01*
X189986034Y-89578020D01*
X190013730Y-89578020D01*
X190041256Y-89581014D01*
X190050123Y-89581046D01*
X190052217Y-89581039D01*
X190079863Y-89578235D01*
X190107649Y-89578429D01*
X190116474Y-89577564D01*
X190174703Y-89571444D01*
X190175000Y-89571383D01*
X190175000Y-89713734D01*
X190345781Y-89840152D01*
X190288472Y-90056867D01*
X191048000Y-90816395D01*
X191807528Y-90056867D01*
X191745035Y-89820550D01*
X191502322Y-89707150D01*
X191242151Y-89643281D01*
X190974518Y-89631396D01*
X190709709Y-89671952D01*
X190693026Y-89678010D01*
X190743085Y-89645690D01*
X190900373Y-89493279D01*
X191024905Y-89313111D01*
X191111895Y-89112110D01*
X191158000Y-88898000D01*
X191158000Y-88355500D01*
X192804772Y-88355500D01*
X192804772Y-87528000D01*
X195973745Y-87528000D01*
X195938000Y-87694000D01*
X195938000Y-88169000D01*
X196112950Y-88169000D01*
X196112950Y-88423000D01*
X195938000Y-88423000D01*
X195938000Y-88898000D01*
X195984105Y-89112110D01*
X196071095Y-89313111D01*
X196195627Y-89493279D01*
X196352915Y-89645690D01*
X196414847Y-89685676D01*
X196242151Y-89643281D01*
X195974518Y-89631396D01*
X195709709Y-89671952D01*
X195457900Y-89763391D01*
X195350965Y-89820550D01*
X195288472Y-90056867D01*
X196048000Y-90816395D01*
X196807528Y-90056867D01*
X196750219Y-89840152D01*
X196921000Y-89713734D01*
X196921000Y-89571596D01*
X196927765Y-89572307D01*
X196986034Y-89578020D01*
X197013730Y-89578020D01*
X197041256Y-89581014D01*
X197050123Y-89581046D01*
X197052217Y-89581039D01*
X197079863Y-89578235D01*
X197107649Y-89578429D01*
X197116474Y-89577564D01*
X197174703Y-89571444D01*
X197175000Y-89571383D01*
X197175000Y-89713734D01*
X197345938Y-89840268D01*
X197559086Y-89764487D01*
X197743085Y-89645690D01*
X197900373Y-89493279D01*
X198024905Y-89313111D01*
X198111895Y-89112110D01*
X198158000Y-88898000D01*
X198158000Y-88423000D01*
X197983050Y-88423000D01*
X197983050Y-88169000D01*
X198158000Y-88169000D01*
X198158000Y-87694000D01*
X198122255Y-87528000D01*
X199693023Y-87528000D01*
X199562412Y-87645731D01*
X199388359Y-87879080D01*
X199263175Y-88141901D01*
X199218524Y-88289110D01*
X199339845Y-88519000D01*
X200533000Y-88519000D01*
X200533000Y-88499000D01*
X200787000Y-88499000D01*
X200787000Y-88519000D01*
X203073000Y-88519000D01*
X203073000Y-88499000D01*
X203327000Y-88499000D01*
X203327000Y-88519000D01*
X203347000Y-88519000D01*
X203347000Y-88773000D01*
X203327000Y-88773000D01*
X203327000Y-88793000D01*
X203073000Y-88793000D01*
X203073000Y-88773000D01*
X200787000Y-88773000D01*
X200787000Y-88793000D01*
X200533000Y-88793000D01*
X200533000Y-88773000D01*
X199339845Y-88773000D01*
X199218524Y-89002890D01*
X199263175Y-89150099D01*
X199388359Y-89412920D01*
X199562412Y-89646269D01*
X199778645Y-89841178D01*
X199895523Y-89910799D01*
X199830986Y-89945294D01*
X199604866Y-90130866D01*
X199419294Y-90356986D01*
X199281401Y-90614966D01*
X199196487Y-90894889D01*
X199167815Y-91186000D01*
X199196487Y-91477111D01*
X199281401Y-91757034D01*
X199419294Y-92015014D01*
X199604866Y-92241134D01*
X199830986Y-92426706D01*
X199885791Y-92456000D01*
X199830986Y-92485294D01*
X199604866Y-92670866D01*
X199419294Y-92896986D01*
X199281401Y-93154966D01*
X199196487Y-93434889D01*
X199167815Y-93726000D01*
X199196487Y-94017111D01*
X199281401Y-94297034D01*
X199419294Y-94555014D01*
X199604866Y-94781134D01*
X199830986Y-94966706D01*
X199885791Y-94996000D01*
X199830986Y-95025294D01*
X199604866Y-95210866D01*
X199419294Y-95436986D01*
X199281401Y-95694966D01*
X199196487Y-95974889D01*
X199167815Y-96266000D01*
X199196487Y-96557111D01*
X199281401Y-96837034D01*
X199419294Y-97095014D01*
X199604866Y-97321134D01*
X199830986Y-97506706D01*
X199885791Y-97536000D01*
X199830986Y-97565294D01*
X199604866Y-97750866D01*
X199419294Y-97976986D01*
X199281401Y-98234966D01*
X199196487Y-98514889D01*
X199167815Y-98806000D01*
X199196487Y-99097111D01*
X199281401Y-99377034D01*
X199419294Y-99635014D01*
X199604866Y-99861134D01*
X199830986Y-100046706D01*
X199885791Y-100076000D01*
X199830986Y-100105294D01*
X199604866Y-100290866D01*
X199419294Y-100516986D01*
X199281401Y-100774966D01*
X199196487Y-101054889D01*
X199167815Y-101346000D01*
X199196487Y-101637111D01*
X199281401Y-101917034D01*
X199419294Y-102175014D01*
X199604866Y-102401134D01*
X199830986Y-102586706D01*
X199885791Y-102616000D01*
X199830986Y-102645294D01*
X199604866Y-102830866D01*
X199419294Y-103056986D01*
X199281401Y-103314966D01*
X199196487Y-103594889D01*
X199167815Y-103886000D01*
X199196487Y-104177111D01*
X199281401Y-104457034D01*
X199419294Y-104715014D01*
X199604866Y-104941134D01*
X199830986Y-105126706D01*
X199885791Y-105156000D01*
X199830986Y-105185294D01*
X199604866Y-105370866D01*
X199419294Y-105596986D01*
X199281401Y-105854966D01*
X199196487Y-106134889D01*
X199167815Y-106426000D01*
X199196487Y-106717111D01*
X199281401Y-106997034D01*
X199419294Y-107255014D01*
X199604866Y-107481134D01*
X199830986Y-107666706D01*
X199885791Y-107696000D01*
X199830986Y-107725294D01*
X199604866Y-107910866D01*
X199419294Y-108136986D01*
X199281401Y-108394966D01*
X199196487Y-108674889D01*
X199167815Y-108966000D01*
X199196487Y-109257111D01*
X199281401Y-109537034D01*
X199419294Y-109795014D01*
X199604866Y-110021134D01*
X199830986Y-110206706D01*
X199885791Y-110236000D01*
X199830986Y-110265294D01*
X199604866Y-110450866D01*
X199419294Y-110676986D01*
X199281401Y-110934966D01*
X199196487Y-111214889D01*
X199167815Y-111506000D01*
X199196487Y-111797111D01*
X199281401Y-112077034D01*
X199299556Y-112110999D01*
X196921566Y-112110999D01*
X196947588Y-112062314D01*
X196998194Y-111895491D01*
X197010999Y-111765478D01*
X197010999Y-111765468D01*
X197015280Y-111722002D01*
X197010999Y-111678536D01*
X197010999Y-110271888D01*
X197060192Y-110298182D01*
X197330691Y-110380236D01*
X197541508Y-110401000D01*
X197682492Y-110401000D01*
X197893309Y-110380236D01*
X198163808Y-110298182D01*
X198413101Y-110164932D01*
X198631608Y-109985608D01*
X198810932Y-109767101D01*
X198944182Y-109517808D01*
X199026236Y-109247309D01*
X199053943Y-108966000D01*
X199026236Y-108684691D01*
X198944182Y-108414192D01*
X198810932Y-108164899D01*
X198631608Y-107946392D01*
X198413101Y-107767068D01*
X198163808Y-107633818D01*
X197893309Y-107551764D01*
X197682492Y-107531000D01*
X197541508Y-107531000D01*
X197330691Y-107551764D01*
X197060192Y-107633818D01*
X197010999Y-107660112D01*
X197010999Y-102649158D01*
X197125996Y-102703571D01*
X197400184Y-102772300D01*
X197682512Y-102786217D01*
X197962130Y-102744787D01*
X198228292Y-102649603D01*
X198353514Y-102582671D01*
X198425097Y-102338702D01*
X197612000Y-101525605D01*
X197597858Y-101539748D01*
X197418253Y-101360143D01*
X197432395Y-101346000D01*
X197791605Y-101346000D01*
X198604702Y-102159097D01*
X198848671Y-102087514D01*
X198969571Y-101832004D01*
X199038300Y-101557816D01*
X199052217Y-101275488D01*
X199010787Y-100995870D01*
X198915603Y-100729708D01*
X198848671Y-100604486D01*
X198604702Y-100532903D01*
X197791605Y-101346000D01*
X197432395Y-101346000D01*
X196619298Y-100532903D01*
X196406826Y-100595245D01*
X196164879Y-100353298D01*
X196798903Y-100353298D01*
X197612000Y-101166395D01*
X198425097Y-100353298D01*
X198353514Y-100109329D01*
X198098004Y-99988429D01*
X197823816Y-99919700D01*
X197541488Y-99905783D01*
X197261870Y-99947213D01*
X196995708Y-100042397D01*
X196870486Y-100109329D01*
X196798903Y-100353298D01*
X196164879Y-100353298D01*
X190553581Y-94742000D01*
X192614057Y-94742000D01*
X192641764Y-95023309D01*
X192723818Y-95293808D01*
X192857068Y-95543101D01*
X193036392Y-95761608D01*
X193254899Y-95940932D01*
X193504192Y-96074182D01*
X193774691Y-96156236D01*
X193985508Y-96177000D01*
X194126492Y-96177000D01*
X194337309Y-96156236D01*
X194607808Y-96074182D01*
X194857101Y-95940932D01*
X195075608Y-95761608D01*
X195254932Y-95543101D01*
X195388182Y-95293808D01*
X195470236Y-95023309D01*
X195497943Y-94742000D01*
X195470236Y-94460691D01*
X195388182Y-94190192D01*
X195254932Y-93940899D01*
X195075608Y-93722392D01*
X194857101Y-93543068D01*
X194607808Y-93409818D01*
X194337309Y-93327764D01*
X194126492Y-93307000D01*
X193985508Y-93307000D01*
X193774691Y-93327764D01*
X193504192Y-93409818D01*
X193254899Y-93543068D01*
X193036392Y-93722392D01*
X192857068Y-93940899D01*
X192723818Y-94190192D01*
X192641764Y-94460691D01*
X192614057Y-94742000D01*
X190553581Y-94742000D01*
X187746714Y-91935133D01*
X190288472Y-91935133D01*
X190350965Y-92171450D01*
X190593678Y-92284850D01*
X190853849Y-92348719D01*
X191121482Y-92360604D01*
X191386291Y-92320048D01*
X191638100Y-92228609D01*
X191745035Y-92171450D01*
X191807528Y-91935133D01*
X195288472Y-91935133D01*
X195350965Y-92171450D01*
X195593678Y-92284850D01*
X195853849Y-92348719D01*
X196121482Y-92360604D01*
X196386291Y-92320048D01*
X196638100Y-92228609D01*
X196745035Y-92171450D01*
X196807528Y-91935133D01*
X196048000Y-91175605D01*
X195288472Y-91935133D01*
X191807528Y-91935133D01*
X191048000Y-91175605D01*
X190288472Y-91935133D01*
X187746714Y-91935133D01*
X187544537Y-91732957D01*
X187516820Y-91699184D01*
X187382062Y-91588590D01*
X187228316Y-91506412D01*
X187061493Y-91455806D01*
X186931480Y-91443001D01*
X186931472Y-91443001D01*
X186888003Y-91438720D01*
X186844534Y-91443001D01*
X184238929Y-91443001D01*
X184293699Y-91332790D01*
X184365117Y-91069482D01*
X189683396Y-91069482D01*
X189723952Y-91334291D01*
X189815391Y-91586100D01*
X189872550Y-91693035D01*
X190108867Y-91755528D01*
X190868395Y-90996000D01*
X191227605Y-90996000D01*
X191987133Y-91755528D01*
X192223450Y-91693035D01*
X192336850Y-91450322D01*
X192400719Y-91190151D01*
X192406077Y-91069482D01*
X194683396Y-91069482D01*
X194723952Y-91334291D01*
X194815391Y-91586100D01*
X194872550Y-91693035D01*
X195108867Y-91755528D01*
X195868395Y-90996000D01*
X196227605Y-90996000D01*
X196987133Y-91755528D01*
X197223450Y-91693035D01*
X197336850Y-91450322D01*
X197400719Y-91190151D01*
X197412604Y-90922518D01*
X197372048Y-90657709D01*
X197280609Y-90405900D01*
X197223450Y-90298965D01*
X196987133Y-90236472D01*
X196227605Y-90996000D01*
X195868395Y-90996000D01*
X195108867Y-90236472D01*
X194872550Y-90298965D01*
X194759150Y-90541678D01*
X194695281Y-90801849D01*
X194683396Y-91069482D01*
X192406077Y-91069482D01*
X192412604Y-90922518D01*
X192372048Y-90657709D01*
X192280609Y-90405900D01*
X192223450Y-90298965D01*
X191987133Y-90236472D01*
X191227605Y-90996000D01*
X190868395Y-90996000D01*
X190108867Y-90236472D01*
X189872550Y-90298965D01*
X189759150Y-90541678D01*
X189695281Y-90801849D01*
X189683396Y-91069482D01*
X184365117Y-91069482D01*
X184388322Y-90983931D01*
X184413067Y-90623316D01*
X184366985Y-90264802D01*
X184251846Y-89922167D01*
X184132836Y-89699514D01*
X183847980Y-89579626D01*
X182749605Y-90678000D01*
X182763748Y-90692142D01*
X182584142Y-90871748D01*
X182570000Y-90857605D01*
X182555858Y-90871748D01*
X182376252Y-90692142D01*
X182390395Y-90678000D01*
X181292020Y-89579626D01*
X181007164Y-89699514D01*
X180908072Y-89898912D01*
X180908072Y-89478000D01*
X180900392Y-89400020D01*
X181471626Y-89400020D01*
X182570000Y-90498395D01*
X183668374Y-89400020D01*
X183548486Y-89115164D01*
X183224790Y-88954301D01*
X182875931Y-88859678D01*
X182515316Y-88834933D01*
X182156802Y-88881015D01*
X181814167Y-88996154D01*
X181591514Y-89115164D01*
X181471626Y-89400020D01*
X180900392Y-89400020D01*
X180895812Y-89353518D01*
X180859502Y-89233820D01*
X180800537Y-89123506D01*
X180721185Y-89026815D01*
X180624494Y-88947463D01*
X180514180Y-88888498D01*
X180394482Y-88852188D01*
X180270000Y-88839928D01*
X177870000Y-88839928D01*
X177745518Y-88852188D01*
X177625820Y-88888498D01*
X177515506Y-88947463D01*
X177418815Y-89026815D01*
X177339463Y-89123506D01*
X177280498Y-89233820D01*
X177244188Y-89353518D01*
X177231928Y-89478000D01*
X177231928Y-91878000D01*
X177244188Y-92002482D01*
X177280498Y-92122180D01*
X177339463Y-92232494D01*
X177418815Y-92329185D01*
X177515506Y-92408537D01*
X177625820Y-92467502D01*
X177745518Y-92503812D01*
X177870000Y-92516072D01*
X179656493Y-92516072D01*
X180063471Y-92923050D01*
X180091184Y-92956818D01*
X180124952Y-92984531D01*
X180124954Y-92984533D01*
X180225942Y-93067412D01*
X180379688Y-93149590D01*
X180546511Y-93200196D01*
X180676524Y-93213001D01*
X180676532Y-93213001D01*
X180720001Y-93217282D01*
X180763470Y-93213001D01*
X186521425Y-93213001D01*
X186622896Y-93314472D01*
X186365488Y-93301783D01*
X186085870Y-93343213D01*
X185819708Y-93438397D01*
X185694486Y-93505329D01*
X185622903Y-93749298D01*
X186436000Y-94562395D01*
X186450143Y-94548253D01*
X186629748Y-94727858D01*
X186615605Y-94742000D01*
X187428702Y-95555097D01*
X187672671Y-95483514D01*
X187793571Y-95228004D01*
X187862300Y-94953816D01*
X187876217Y-94671488D01*
X187858181Y-94549757D01*
X193385620Y-100077196D01*
X193254899Y-100147068D01*
X193036392Y-100326392D01*
X192857068Y-100544899D01*
X192786000Y-100677858D01*
X192714932Y-100544899D01*
X192535608Y-100326392D01*
X192317101Y-100147068D01*
X192067808Y-100013818D01*
X191797309Y-99931764D01*
X191586492Y-99911000D01*
X191445508Y-99911000D01*
X191234691Y-99931764D01*
X190964192Y-100013818D01*
X190714899Y-100147068D01*
X190496392Y-100326392D01*
X190317068Y-100544899D01*
X190246000Y-100677858D01*
X190174932Y-100544899D01*
X189995608Y-100326392D01*
X189777101Y-100147068D01*
X189527808Y-100013818D01*
X189257309Y-99931764D01*
X189046492Y-99911000D01*
X188905508Y-99911000D01*
X188694691Y-99931764D01*
X188424192Y-100013818D01*
X188174899Y-100147068D01*
X187956392Y-100326392D01*
X187777068Y-100544899D01*
X187706000Y-100677858D01*
X187634932Y-100544899D01*
X187455608Y-100326392D01*
X187237101Y-100147068D01*
X186987808Y-100013818D01*
X186717309Y-99931764D01*
X186506492Y-99911000D01*
X186365508Y-99911000D01*
X186154691Y-99931764D01*
X185884192Y-100013818D01*
X185634899Y-100147068D01*
X185416392Y-100326392D01*
X185237068Y-100544899D01*
X185166000Y-100677858D01*
X185094932Y-100544899D01*
X184915608Y-100326392D01*
X184697101Y-100147068D01*
X184447808Y-100013818D01*
X184177309Y-99931764D01*
X183966492Y-99911000D01*
X183825508Y-99911000D01*
X183614691Y-99931764D01*
X183344192Y-100013818D01*
X183094899Y-100147068D01*
X182876392Y-100326392D01*
X182697068Y-100544899D01*
X182626000Y-100677858D01*
X182554932Y-100544899D01*
X182375608Y-100326392D01*
X182157101Y-100147068D01*
X182116000Y-100125099D01*
X182116000Y-99746324D01*
X182119676Y-99709001D01*
X182116000Y-99671678D01*
X182116000Y-99671669D01*
X182105003Y-99560016D01*
X182061546Y-99416755D01*
X182010515Y-99321284D01*
X182157101Y-99242932D01*
X182375608Y-99063608D01*
X182554932Y-98845101D01*
X182688182Y-98595808D01*
X182770236Y-98325309D01*
X182797943Y-98044000D01*
X182784023Y-97902665D01*
X187541000Y-97902665D01*
X187541000Y-98185335D01*
X187596147Y-98462574D01*
X187704320Y-98723727D01*
X187861363Y-98958759D01*
X188061241Y-99158637D01*
X188296273Y-99315680D01*
X188557426Y-99423853D01*
X188834665Y-99479000D01*
X189117335Y-99479000D01*
X189394574Y-99423853D01*
X189655727Y-99315680D01*
X189890759Y-99158637D01*
X190090637Y-98958759D01*
X190247680Y-98723727D01*
X190355853Y-98462574D01*
X190411000Y-98185335D01*
X190411000Y-97902665D01*
X190355853Y-97625426D01*
X190247680Y-97364273D01*
X190090637Y-97129241D01*
X189890759Y-96929363D01*
X189655727Y-96772320D01*
X189394574Y-96664147D01*
X189117335Y-96609000D01*
X188834665Y-96609000D01*
X188557426Y-96664147D01*
X188296273Y-96772320D01*
X188061241Y-96929363D01*
X187861363Y-97129241D01*
X187704320Y-97364273D01*
X187596147Y-97625426D01*
X187541000Y-97902665D01*
X182784023Y-97902665D01*
X182770236Y-97762691D01*
X182688182Y-97492192D01*
X182554932Y-97242899D01*
X182375608Y-97024392D01*
X182157101Y-96845068D01*
X181907808Y-96711818D01*
X181637309Y-96629764D01*
X181426492Y-96609000D01*
X181285508Y-96609000D01*
X181074691Y-96629764D01*
X180804192Y-96711818D01*
X180554899Y-96845068D01*
X180336392Y-97024392D01*
X180157068Y-97242899D01*
X180090061Y-97368260D01*
X178456503Y-95734702D01*
X185622903Y-95734702D01*
X185694486Y-95978671D01*
X185949996Y-96099571D01*
X186224184Y-96168300D01*
X186506512Y-96182217D01*
X186786130Y-96140787D01*
X187052292Y-96045603D01*
X187177514Y-95978671D01*
X187249097Y-95734702D01*
X186436000Y-94921605D01*
X185622903Y-95734702D01*
X178456503Y-95734702D01*
X177534313Y-94812512D01*
X184995783Y-94812512D01*
X185037213Y-95092130D01*
X185132397Y-95358292D01*
X185199329Y-95483514D01*
X185443298Y-95555097D01*
X186256395Y-94742000D01*
X185443298Y-93928903D01*
X185199329Y-94000486D01*
X185078429Y-94255996D01*
X185009700Y-94530184D01*
X184995783Y-94812512D01*
X177534313Y-94812512D01*
X170856802Y-88135003D01*
X170832999Y-88105999D01*
X170717274Y-88011026D01*
X170585245Y-87940454D01*
X170441984Y-87896997D01*
X170330331Y-87886000D01*
X170330320Y-87886000D01*
X170292998Y-87882324D01*
X170255676Y-87886000D01*
X165869595Y-87886000D01*
X165832706Y-87816986D01*
X165647134Y-87590866D01*
X165570532Y-87528000D01*
X184675248Y-87528000D01*
X184675248Y-88355500D01*
G36*
X177356435Y-96784239D02*
G01*
X177139241Y-96929363D01*
X176939363Y-97129241D01*
X176782320Y-97364273D01*
X176674147Y-97625426D01*
X176619000Y-97902665D01*
X176619000Y-98185335D01*
X176674147Y-98462574D01*
X176782320Y-98723727D01*
X176939363Y-98958759D01*
X177139241Y-99158637D01*
X177374273Y-99315680D01*
X177635426Y-99423853D01*
X177912665Y-99479000D01*
X178195335Y-99479000D01*
X178472574Y-99423853D01*
X178733727Y-99315680D01*
X178968759Y-99158637D01*
X179168637Y-98958759D01*
X179313761Y-98741565D01*
X180596001Y-100023806D01*
X180596001Y-100125099D01*
X180554899Y-100147068D01*
X180336392Y-100326392D01*
X180157068Y-100544899D01*
X180086000Y-100677858D01*
X180014932Y-100544899D01*
X179835608Y-100326392D01*
X179617101Y-100147068D01*
X179367808Y-100013818D01*
X179097309Y-99931764D01*
X178886492Y-99911000D01*
X178745508Y-99911000D01*
X178534691Y-99931764D01*
X178264192Y-100013818D01*
X178014899Y-100147068D01*
X177796392Y-100326392D01*
X177617068Y-100544899D01*
X177546000Y-100677858D01*
X177474932Y-100544899D01*
X177295608Y-100326392D01*
X177077101Y-100147068D01*
X176827808Y-100013818D01*
X176557309Y-99931764D01*
X176346492Y-99911000D01*
X176205508Y-99911000D01*
X175994691Y-99931764D01*
X175724192Y-100013818D01*
X175474899Y-100147068D01*
X175256392Y-100326392D01*
X175077068Y-100544899D01*
X175006000Y-100677858D01*
X174934932Y-100544899D01*
X174755608Y-100326392D01*
X174537101Y-100147068D01*
X174287808Y-100013818D01*
X174017309Y-99931764D01*
X173806492Y-99911000D01*
X173665508Y-99911000D01*
X173454691Y-99931764D01*
X173184192Y-100013818D01*
X172934899Y-100147068D01*
X172716392Y-100326392D01*
X172537068Y-100544899D01*
X172466000Y-100677858D01*
X172394932Y-100544899D01*
X172215608Y-100326392D01*
X171997101Y-100147068D01*
X171747808Y-100013818D01*
X171477309Y-99931764D01*
X171266492Y-99911000D01*
X171125508Y-99911000D01*
X170914691Y-99931764D01*
X170644192Y-100013818D01*
X170394899Y-100147068D01*
X170176392Y-100326392D01*
X169997068Y-100544899D01*
X169863818Y-100794192D01*
X169781764Y-101064691D01*
X169754057Y-101346000D01*
X169781764Y-101627309D01*
X169863818Y-101897808D01*
X169997068Y-102147101D01*
X170176392Y-102365608D01*
X170394899Y-102544932D01*
X170644192Y-102678182D01*
X170914691Y-102760236D01*
X171125508Y-102781000D01*
X171266492Y-102781000D01*
X171477309Y-102760236D01*
X171747808Y-102678182D01*
X171997101Y-102544932D01*
X172215608Y-102365608D01*
X172394932Y-102147101D01*
X172466000Y-102014142D01*
X172537068Y-102147101D01*
X172716392Y-102365608D01*
X172934899Y-102544932D01*
X173184192Y-102678182D01*
X173454691Y-102760236D01*
X173535103Y-102768156D01*
X173449999Y-102837999D01*
X173426201Y-102866997D01*
X164663907Y-111629292D01*
X164619309Y-111615764D01*
X164408492Y-111595000D01*
X164267508Y-111595000D01*
X164056691Y-111615764D01*
X163786192Y-111697818D01*
X163536899Y-111831068D01*
X163474000Y-111882688D01*
X163474000Y-106453607D01*
X163524903Y-106402704D01*
X163596486Y-106646671D01*
X163851996Y-106767571D01*
X164126184Y-106836300D01*
X164408512Y-106850217D01*
X164688130Y-106808787D01*
X164954292Y-106713603D01*
X165079514Y-106646671D01*
X165151097Y-106402702D01*
X166826903Y-106402702D01*
X166898486Y-106646671D01*
X167153996Y-106767571D01*
X167428184Y-106836300D01*
X167710512Y-106850217D01*
X167990130Y-106808787D01*
X168256292Y-106713603D01*
X168381514Y-106646671D01*
X168453097Y-106402702D01*
X167640000Y-105589605D01*
X166826903Y-106402702D01*
X165151097Y-106402702D01*
X164338000Y-105589605D01*
X164323858Y-105603748D01*
X164144253Y-105424143D01*
X164158395Y-105410000D01*
X164517605Y-105410000D01*
X165330702Y-106223097D01*
X165574671Y-106151514D01*
X165695571Y-105896004D01*
X165764300Y-105621816D01*
X165771265Y-105480512D01*
X166199783Y-105480512D01*
X166241213Y-105760130D01*
X166336397Y-106026292D01*
X166403329Y-106151514D01*
X166647298Y-106223097D01*
X167460395Y-105410000D01*
X167819605Y-105410000D01*
X168632702Y-106223097D01*
X168876671Y-106151514D01*
X168997571Y-105896004D01*
X169066300Y-105621816D01*
X169080217Y-105339488D01*
X169038787Y-105059870D01*
X168943603Y-104793708D01*
X168876671Y-104668486D01*
X168632702Y-104596903D01*
X167819605Y-105410000D01*
X167460395Y-105410000D01*
X166647298Y-104596903D01*
X166403329Y-104668486D01*
X166282429Y-104923996D01*
X166213700Y-105198184D01*
X166199783Y-105480512D01*
X165771265Y-105480512D01*
X165778217Y-105339488D01*
X165736787Y-105059870D01*
X165641603Y-104793708D01*
X165574671Y-104668486D01*
X165330702Y-104596903D01*
X164517605Y-105410000D01*
X164158395Y-105410000D01*
X164144253Y-105395858D01*
X164323858Y-105216253D01*
X164338000Y-105230395D01*
X165151097Y-104417298D01*
X166826903Y-104417298D01*
X167640000Y-105230395D01*
X168453097Y-104417298D01*
X168381514Y-104173329D01*
X168126004Y-104052429D01*
X167851816Y-103983700D01*
X167569488Y-103969783D01*
X167289870Y-104011213D01*
X167023708Y-104106397D01*
X166898486Y-104173329D01*
X166826903Y-104417298D01*
X165151097Y-104417298D01*
X165079514Y-104173329D01*
X164824004Y-104052429D01*
X164549816Y-103983700D01*
X164267488Y-103969783D01*
X163987870Y-104011213D01*
X163721708Y-104106397D01*
X163596486Y-104173329D01*
X163524903Y-104417296D01*
X163474000Y-104366393D01*
X163474000Y-98044000D01*
X168992057Y-98044000D01*
X169019764Y-98325309D01*
X169101818Y-98595808D01*
X169235068Y-98845101D01*
X169414392Y-99063608D01*
X169632899Y-99242932D01*
X169882192Y-99376182D01*
X170152691Y-99458236D01*
X170363508Y-99479000D01*
X170504492Y-99479000D01*
X170715309Y-99458236D01*
X170985808Y-99376182D01*
X171235101Y-99242932D01*
X171453608Y-99063608D01*
X171632932Y-98845101D01*
X171766182Y-98595808D01*
X171848236Y-98325309D01*
X171875943Y-98044000D01*
X171848236Y-97762691D01*
X171766182Y-97492192D01*
X171632932Y-97242899D01*
X171453608Y-97024392D01*
X171235101Y-96845068D01*
X170985808Y-96711818D01*
X170715309Y-96629764D01*
X170504492Y-96609000D01*
X170363508Y-96609000D01*
X170152691Y-96629764D01*
X169882192Y-96711818D01*
X169632899Y-96845068D01*
X169414392Y-97024392D01*
X169235068Y-97242899D01*
X169101818Y-97492192D01*
X169019764Y-97762691D01*
X168992057Y-98044000D01*
X163474000Y-98044000D01*
X163474000Y-95152770D01*
X163497820Y-95165502D01*
X163617518Y-95201812D01*
X163742000Y-95214072D01*
X165442000Y-95214072D01*
X165566482Y-95201812D01*
X165686180Y-95165502D01*
X165796494Y-95106537D01*
X165893185Y-95027185D01*
X165972537Y-94930494D01*
X166031502Y-94820180D01*
X166067812Y-94700482D01*
X166080072Y-94576000D01*
X166080072Y-92876000D01*
X166067812Y-92751518D01*
X166031502Y-92631820D01*
X165972537Y-92521506D01*
X165893185Y-92424815D01*
X165796494Y-92345463D01*
X165686180Y-92286498D01*
X165605534Y-92262034D01*
X165689588Y-92186269D01*
X165863641Y-91952920D01*
X165988825Y-91690099D01*
X166033476Y-91542890D01*
X165912155Y-91313000D01*
X164719000Y-91313000D01*
X164719000Y-91333000D01*
X164465000Y-91333000D01*
X164465000Y-91313000D01*
X164445000Y-91313000D01*
X164445000Y-91059000D01*
X164465000Y-91059000D01*
X164465000Y-91039000D01*
X164719000Y-91039000D01*
X164719000Y-91059000D01*
X165912155Y-91059000D01*
X166033476Y-90829110D01*
X165988825Y-90681901D01*
X165863641Y-90419080D01*
X165689588Y-90185731D01*
X165473355Y-89990822D01*
X165356477Y-89921201D01*
X165421014Y-89886706D01*
X165647134Y-89701134D01*
X165832706Y-89475014D01*
X165869595Y-89406000D01*
X169978197Y-89406000D01*
X177356435Y-96784239D01*
X177356435Y-96784239D01*
G37*
X177356435Y-96784239D02*
X177139241Y-96929363D01*
X176939363Y-97129241D01*
X176782320Y-97364273D01*
X176674147Y-97625426D01*
X176619000Y-97902665D01*
X176619000Y-98185335D01*
X176674147Y-98462574D01*
X176782320Y-98723727D01*
X176939363Y-98958759D01*
X177139241Y-99158637D01*
X177374273Y-99315680D01*
X177635426Y-99423853D01*
X177912665Y-99479000D01*
X178195335Y-99479000D01*
X178472574Y-99423853D01*
X178733727Y-99315680D01*
X178968759Y-99158637D01*
X179168637Y-98958759D01*
X179313761Y-98741565D01*
X180596001Y-100023806D01*
X180596001Y-100125099D01*
X180554899Y-100147068D01*
X180336392Y-100326392D01*
X180157068Y-100544899D01*
X180086000Y-100677858D01*
X180014932Y-100544899D01*
X179835608Y-100326392D01*
X179617101Y-100147068D01*
X179367808Y-100013818D01*
X179097309Y-99931764D01*
X178886492Y-99911000D01*
X178745508Y-99911000D01*
X178534691Y-99931764D01*
X178264192Y-100013818D01*
X178014899Y-100147068D01*
X177796392Y-100326392D01*
X177617068Y-100544899D01*
X177546000Y-100677858D01*
X177474932Y-100544899D01*
X177295608Y-100326392D01*
X177077101Y-100147068D01*
X176827808Y-100013818D01*
X176557309Y-99931764D01*
X176346492Y-99911000D01*
X176205508Y-99911000D01*
X175994691Y-99931764D01*
X175724192Y-100013818D01*
X175474899Y-100147068D01*
X175256392Y-100326392D01*
X175077068Y-100544899D01*
X175006000Y-100677858D01*
X174934932Y-100544899D01*
X174755608Y-100326392D01*
X174537101Y-100147068D01*
X174287808Y-100013818D01*
X174017309Y-99931764D01*
X173806492Y-99911000D01*
X173665508Y-99911000D01*
X173454691Y-99931764D01*
X173184192Y-100013818D01*
X172934899Y-100147068D01*
X172716392Y-100326392D01*
X172537068Y-100544899D01*
X172466000Y-100677858D01*
X172394932Y-100544899D01*
X172215608Y-100326392D01*
X171997101Y-100147068D01*
X171747808Y-100013818D01*
X171477309Y-99931764D01*
X171266492Y-99911000D01*
X171125508Y-99911000D01*
X170914691Y-99931764D01*
X170644192Y-100013818D01*
X170394899Y-100147068D01*
X170176392Y-100326392D01*
X169997068Y-100544899D01*
X169863818Y-100794192D01*
X169781764Y-101064691D01*
X169754057Y-101346000D01*
X169781764Y-101627309D01*
X169863818Y-101897808D01*
X169997068Y-102147101D01*
X170176392Y-102365608D01*
X170394899Y-102544932D01*
X170644192Y-102678182D01*
X170914691Y-102760236D01*
X171125508Y-102781000D01*
X171266492Y-102781000D01*
X171477309Y-102760236D01*
X171747808Y-102678182D01*
X171997101Y-102544932D01*
X172215608Y-102365608D01*
X172394932Y-102147101D01*
X172466000Y-102014142D01*
X172537068Y-102147101D01*
X172716392Y-102365608D01*
X172934899Y-102544932D01*
X173184192Y-102678182D01*
X173454691Y-102760236D01*
X173535103Y-102768156D01*
X173449999Y-102837999D01*
X173426201Y-102866997D01*
X164663907Y-111629292D01*
X164619309Y-111615764D01*
X164408492Y-111595000D01*
X164267508Y-111595000D01*
X164056691Y-111615764D01*
X163786192Y-111697818D01*
X163536899Y-111831068D01*
X163474000Y-111882688D01*
X163474000Y-106453607D01*
X163524903Y-106402704D01*
X163596486Y-106646671D01*
X163851996Y-106767571D01*
X164126184Y-106836300D01*
X164408512Y-106850217D01*
X164688130Y-106808787D01*
X164954292Y-106713603D01*
X165079514Y-106646671D01*
X165151097Y-106402702D01*
X166826903Y-106402702D01*
X166898486Y-106646671D01*
X167153996Y-106767571D01*
X167428184Y-106836300D01*
X167710512Y-106850217D01*
X167990130Y-106808787D01*
X168256292Y-106713603D01*
X168381514Y-106646671D01*
X168453097Y-106402702D01*
X167640000Y-105589605D01*
X166826903Y-106402702D01*
X165151097Y-106402702D01*
X164338000Y-105589605D01*
X164323858Y-105603748D01*
X164144253Y-105424143D01*
X164158395Y-105410000D01*
X164517605Y-105410000D01*
X165330702Y-106223097D01*
X165574671Y-106151514D01*
X165695571Y-105896004D01*
X165764300Y-105621816D01*
X165771265Y-105480512D01*
X166199783Y-105480512D01*
X166241213Y-105760130D01*
X166336397Y-106026292D01*
X166403329Y-106151514D01*
X166647298Y-106223097D01*
X167460395Y-105410000D01*
X167819605Y-105410000D01*
X168632702Y-106223097D01*
X168876671Y-106151514D01*
X168997571Y-105896004D01*
X169066300Y-105621816D01*
X169080217Y-105339488D01*
X169038787Y-105059870D01*
X168943603Y-104793708D01*
X168876671Y-104668486D01*
X168632702Y-104596903D01*
X167819605Y-105410000D01*
X167460395Y-105410000D01*
X166647298Y-104596903D01*
X166403329Y-104668486D01*
X166282429Y-104923996D01*
X166213700Y-105198184D01*
X166199783Y-105480512D01*
X165771265Y-105480512D01*
X165778217Y-105339488D01*
X165736787Y-105059870D01*
X165641603Y-104793708D01*
X165574671Y-104668486D01*
X165330702Y-104596903D01*
X164517605Y-105410000D01*
X164158395Y-105410000D01*
X164144253Y-105395858D01*
X164323858Y-105216253D01*
X164338000Y-105230395D01*
X165151097Y-104417298D01*
X166826903Y-104417298D01*
X167640000Y-105230395D01*
X168453097Y-104417298D01*
X168381514Y-104173329D01*
X168126004Y-104052429D01*
X167851816Y-103983700D01*
X167569488Y-103969783D01*
X167289870Y-104011213D01*
X167023708Y-104106397D01*
X166898486Y-104173329D01*
X166826903Y-104417298D01*
X165151097Y-104417298D01*
X165079514Y-104173329D01*
X164824004Y-104052429D01*
X164549816Y-103983700D01*
X164267488Y-103969783D01*
X163987870Y-104011213D01*
X163721708Y-104106397D01*
X163596486Y-104173329D01*
X163524903Y-104417296D01*
X163474000Y-104366393D01*
X163474000Y-98044000D01*
X168992057Y-98044000D01*
X169019764Y-98325309D01*
X169101818Y-98595808D01*
X169235068Y-98845101D01*
X169414392Y-99063608D01*
X169632899Y-99242932D01*
X169882192Y-99376182D01*
X170152691Y-99458236D01*
X170363508Y-99479000D01*
X170504492Y-99479000D01*
X170715309Y-99458236D01*
X170985808Y-99376182D01*
X171235101Y-99242932D01*
X171453608Y-99063608D01*
X171632932Y-98845101D01*
X171766182Y-98595808D01*
X171848236Y-98325309D01*
X171875943Y-98044000D01*
X171848236Y-97762691D01*
X171766182Y-97492192D01*
X171632932Y-97242899D01*
X171453608Y-97024392D01*
X171235101Y-96845068D01*
X170985808Y-96711818D01*
X170715309Y-96629764D01*
X170504492Y-96609000D01*
X170363508Y-96609000D01*
X170152691Y-96629764D01*
X169882192Y-96711818D01*
X169632899Y-96845068D01*
X169414392Y-97024392D01*
X169235068Y-97242899D01*
X169101818Y-97492192D01*
X169019764Y-97762691D01*
X168992057Y-98044000D01*
X163474000Y-98044000D01*
X163474000Y-95152770D01*
X163497820Y-95165502D01*
X163617518Y-95201812D01*
X163742000Y-95214072D01*
X165442000Y-95214072D01*
X165566482Y-95201812D01*
X165686180Y-95165502D01*
X165796494Y-95106537D01*
X165893185Y-95027185D01*
X165972537Y-94930494D01*
X166031502Y-94820180D01*
X166067812Y-94700482D01*
X166080072Y-94576000D01*
X166080072Y-92876000D01*
X166067812Y-92751518D01*
X166031502Y-92631820D01*
X165972537Y-92521506D01*
X165893185Y-92424815D01*
X165796494Y-92345463D01*
X165686180Y-92286498D01*
X165605534Y-92262034D01*
X165689588Y-92186269D01*
X165863641Y-91952920D01*
X165988825Y-91690099D01*
X166033476Y-91542890D01*
X165912155Y-91313000D01*
X164719000Y-91313000D01*
X164719000Y-91333000D01*
X164465000Y-91333000D01*
X164465000Y-91313000D01*
X164445000Y-91313000D01*
X164445000Y-91059000D01*
X164465000Y-91059000D01*
X164465000Y-91039000D01*
X164719000Y-91039000D01*
X164719000Y-91059000D01*
X165912155Y-91059000D01*
X166033476Y-90829110D01*
X165988825Y-90681901D01*
X165863641Y-90419080D01*
X165689588Y-90185731D01*
X165473355Y-89990822D01*
X165356477Y-89921201D01*
X165421014Y-89886706D01*
X165647134Y-89701134D01*
X165832706Y-89475014D01*
X165869595Y-89406000D01*
X169978197Y-89406000D01*
X177356435Y-96784239D01*
G36*
X194412226Y-104181937D02*
G01*
X194581744Y-104295205D01*
X194770102Y-104373226D01*
X194970061Y-104413000D01*
X195173939Y-104413000D01*
X195241000Y-104399661D01*
X195241000Y-104642339D01*
X195173939Y-104629000D01*
X194970061Y-104629000D01*
X194770102Y-104668774D01*
X194581744Y-104746795D01*
X194412226Y-104860063D01*
X194368289Y-104904000D01*
X173538802Y-104904000D01*
X174304802Y-104138000D01*
X194368289Y-104138000D01*
X194412226Y-104181937D01*
X194412226Y-104181937D01*
G37*
X194412226Y-104181937D02*
X194581744Y-104295205D01*
X194770102Y-104373226D01*
X194970061Y-104413000D01*
X195173939Y-104413000D01*
X195241000Y-104399661D01*
X195241000Y-104642339D01*
X195173939Y-104629000D01*
X194970061Y-104629000D01*
X194770102Y-104668774D01*
X194581744Y-104746795D01*
X194412226Y-104860063D01*
X194368289Y-104904000D01*
X173538802Y-104904000D01*
X174304802Y-104138000D01*
X194368289Y-104138000D01*
X194412226Y-104181937D01*
M02*
