G04 #@! TF.GenerationSoftware,KiCad,Pcbnew,(5.1.4)-1*
G04 #@! TF.CreationDate,2019-12-12T14:50:36-05:00*
G04 #@! TF.ProjectId,led_lock_ctrl,6c65645f-6c6f-4636-9b5f-6374726c2e6b,rev?*
G04 #@! TF.SameCoordinates,Original*
G04 #@! TF.FileFunction,Soldermask,Bot*
G04 #@! TF.FilePolarity,Negative*
%FSLAX46Y46*%
G04 Gerber Fmt 4.6, Leading zero omitted, Abs format (unit mm)*
G04 Created by KiCad (PCBNEW (5.1.4)-1) date 2019-12-12 14:50:36*
%MOMM*%
%LPD*%
G04 APERTURE LIST*
%ADD10C,0.100000*%
G04 APERTURE END LIST*
D10*
G36*
X172460228Y-118815703D02*
G01*
X172615100Y-118879853D01*
X172754481Y-118972985D01*
X172873015Y-119091519D01*
X172966147Y-119230900D01*
X173030297Y-119385772D01*
X173063000Y-119550184D01*
X173063000Y-119717816D01*
X173030297Y-119882228D01*
X172966147Y-120037100D01*
X172873015Y-120176481D01*
X172754481Y-120295015D01*
X172615100Y-120388147D01*
X172460228Y-120452297D01*
X172295816Y-120485000D01*
X172128184Y-120485000D01*
X171963772Y-120452297D01*
X171808900Y-120388147D01*
X171669519Y-120295015D01*
X171550985Y-120176481D01*
X171457853Y-120037100D01*
X171393703Y-119882228D01*
X171361000Y-119717816D01*
X171361000Y-119550184D01*
X171393703Y-119385772D01*
X171457853Y-119230900D01*
X171550985Y-119091519D01*
X171669519Y-118972985D01*
X171808900Y-118879853D01*
X171963772Y-118815703D01*
X172128184Y-118783000D01*
X172295816Y-118783000D01*
X172460228Y-118815703D01*
X172460228Y-118815703D01*
G37*
G36*
X204101000Y-120027000D02*
G01*
X202299000Y-120027000D01*
X202299000Y-118225000D01*
X204101000Y-118225000D01*
X204101000Y-120027000D01*
X204101000Y-120027000D01*
G37*
G36*
X200770442Y-118231518D02*
G01*
X200836627Y-118238037D01*
X201006466Y-118289557D01*
X201162991Y-118373222D01*
X201198729Y-118402552D01*
X201300186Y-118485814D01*
X201383448Y-118587271D01*
X201412778Y-118623009D01*
X201496443Y-118779534D01*
X201547963Y-118949373D01*
X201565359Y-119126000D01*
X201547963Y-119302627D01*
X201496443Y-119472466D01*
X201412778Y-119628991D01*
X201383448Y-119664729D01*
X201300186Y-119766186D01*
X201198729Y-119849448D01*
X201162991Y-119878778D01*
X201006466Y-119962443D01*
X200836627Y-120013963D01*
X200770442Y-120020482D01*
X200704260Y-120027000D01*
X200615740Y-120027000D01*
X200549558Y-120020482D01*
X200483373Y-120013963D01*
X200313534Y-119962443D01*
X200157009Y-119878778D01*
X200121271Y-119849448D01*
X200019814Y-119766186D01*
X199936552Y-119664729D01*
X199907222Y-119628991D01*
X199823557Y-119472466D01*
X199772037Y-119302627D01*
X199754641Y-119126000D01*
X199772037Y-118949373D01*
X199823557Y-118779534D01*
X199907222Y-118623009D01*
X199936552Y-118587271D01*
X200019814Y-118485814D01*
X200121271Y-118402552D01*
X200157009Y-118373222D01*
X200313534Y-118289557D01*
X200483373Y-118238037D01*
X200549558Y-118231518D01*
X200615740Y-118225000D01*
X200704260Y-118225000D01*
X200770442Y-118231518D01*
X200770442Y-118231518D01*
G37*
G36*
X164702442Y-118231518D02*
G01*
X164768627Y-118238037D01*
X164938466Y-118289557D01*
X165094991Y-118373222D01*
X165130729Y-118402552D01*
X165232186Y-118485814D01*
X165315448Y-118587271D01*
X165344778Y-118623009D01*
X165428443Y-118779534D01*
X165479963Y-118949373D01*
X165497359Y-119126000D01*
X165479963Y-119302627D01*
X165428443Y-119472466D01*
X165344778Y-119628991D01*
X165315448Y-119664729D01*
X165232186Y-119766186D01*
X165130729Y-119849448D01*
X165094991Y-119878778D01*
X164938466Y-119962443D01*
X164768627Y-120013963D01*
X164702442Y-120020482D01*
X164636260Y-120027000D01*
X164547740Y-120027000D01*
X164481558Y-120020482D01*
X164415373Y-120013963D01*
X164245534Y-119962443D01*
X164089009Y-119878778D01*
X164053271Y-119849448D01*
X163951814Y-119766186D01*
X163868552Y-119664729D01*
X163839222Y-119628991D01*
X163755557Y-119472466D01*
X163704037Y-119302627D01*
X163686641Y-119126000D01*
X163704037Y-118949373D01*
X163755557Y-118779534D01*
X163839222Y-118623009D01*
X163868552Y-118587271D01*
X163951814Y-118485814D01*
X164053271Y-118402552D01*
X164089009Y-118373222D01*
X164245534Y-118289557D01*
X164415373Y-118238037D01*
X164481558Y-118231518D01*
X164547740Y-118225000D01*
X164636260Y-118225000D01*
X164702442Y-118231518D01*
X164702442Y-118231518D01*
G37*
G36*
X167242442Y-118231518D02*
G01*
X167308627Y-118238037D01*
X167478466Y-118289557D01*
X167634991Y-118373222D01*
X167670729Y-118402552D01*
X167772186Y-118485814D01*
X167855448Y-118587271D01*
X167884778Y-118623009D01*
X167968443Y-118779534D01*
X168019963Y-118949373D01*
X168037359Y-119126000D01*
X168019963Y-119302627D01*
X167968443Y-119472466D01*
X167884778Y-119628991D01*
X167855448Y-119664729D01*
X167772186Y-119766186D01*
X167670729Y-119849448D01*
X167634991Y-119878778D01*
X167478466Y-119962443D01*
X167308627Y-120013963D01*
X167242442Y-120020482D01*
X167176260Y-120027000D01*
X167087740Y-120027000D01*
X167021558Y-120020482D01*
X166955373Y-120013963D01*
X166785534Y-119962443D01*
X166629009Y-119878778D01*
X166593271Y-119849448D01*
X166491814Y-119766186D01*
X166408552Y-119664729D01*
X166379222Y-119628991D01*
X166295557Y-119472466D01*
X166244037Y-119302627D01*
X166226641Y-119126000D01*
X166244037Y-118949373D01*
X166295557Y-118779534D01*
X166379222Y-118623009D01*
X166408552Y-118587271D01*
X166491814Y-118485814D01*
X166593271Y-118402552D01*
X166629009Y-118373222D01*
X166785534Y-118289557D01*
X166955373Y-118238037D01*
X167021558Y-118231518D01*
X167087740Y-118225000D01*
X167176260Y-118225000D01*
X167242442Y-118231518D01*
X167242442Y-118231518D01*
G37*
G36*
X184006443Y-117977519D02*
G01*
X184072627Y-117984037D01*
X184242466Y-118035557D01*
X184398991Y-118119222D01*
X184434729Y-118148552D01*
X184536186Y-118231814D01*
X184619448Y-118333271D01*
X184648778Y-118369009D01*
X184732443Y-118525534D01*
X184783963Y-118695373D01*
X184801359Y-118872000D01*
X184783963Y-119048627D01*
X184732443Y-119218466D01*
X184648778Y-119374991D01*
X184639931Y-119385771D01*
X184536186Y-119512186D01*
X184434729Y-119595448D01*
X184398991Y-119624778D01*
X184242466Y-119708443D01*
X184072627Y-119759963D01*
X184009453Y-119766185D01*
X183940260Y-119773000D01*
X183851740Y-119773000D01*
X183782547Y-119766185D01*
X183719373Y-119759963D01*
X183549534Y-119708443D01*
X183393009Y-119624778D01*
X183357271Y-119595448D01*
X183255814Y-119512186D01*
X183152069Y-119385771D01*
X183143222Y-119374991D01*
X183059557Y-119218466D01*
X183008037Y-119048627D01*
X182990641Y-118872000D01*
X183008037Y-118695373D01*
X183059557Y-118525534D01*
X183143222Y-118369009D01*
X183172552Y-118333271D01*
X183255814Y-118231814D01*
X183357271Y-118148552D01*
X183393009Y-118119222D01*
X183549534Y-118035557D01*
X183719373Y-117984037D01*
X183785557Y-117977519D01*
X183851740Y-117971000D01*
X183940260Y-117971000D01*
X184006443Y-117977519D01*
X184006443Y-117977519D01*
G37*
G36*
X186546443Y-117977519D02*
G01*
X186612627Y-117984037D01*
X186782466Y-118035557D01*
X186938991Y-118119222D01*
X186974729Y-118148552D01*
X187076186Y-118231814D01*
X187159448Y-118333271D01*
X187188778Y-118369009D01*
X187272443Y-118525534D01*
X187323963Y-118695373D01*
X187341359Y-118872000D01*
X187323963Y-119048627D01*
X187272443Y-119218466D01*
X187188778Y-119374991D01*
X187179931Y-119385771D01*
X187076186Y-119512186D01*
X186974729Y-119595448D01*
X186938991Y-119624778D01*
X186782466Y-119708443D01*
X186612627Y-119759963D01*
X186549453Y-119766185D01*
X186480260Y-119773000D01*
X186391740Y-119773000D01*
X186322547Y-119766185D01*
X186259373Y-119759963D01*
X186089534Y-119708443D01*
X185933009Y-119624778D01*
X185897271Y-119595448D01*
X185795814Y-119512186D01*
X185692069Y-119385771D01*
X185683222Y-119374991D01*
X185599557Y-119218466D01*
X185548037Y-119048627D01*
X185530641Y-118872000D01*
X185548037Y-118695373D01*
X185599557Y-118525534D01*
X185683222Y-118369009D01*
X185712552Y-118333271D01*
X185795814Y-118231814D01*
X185897271Y-118148552D01*
X185933009Y-118119222D01*
X186089534Y-118035557D01*
X186259373Y-117984037D01*
X186325557Y-117977519D01*
X186391740Y-117971000D01*
X186480260Y-117971000D01*
X186546443Y-117977519D01*
X186546443Y-117977519D01*
G37*
G36*
X189086443Y-117977519D02*
G01*
X189152627Y-117984037D01*
X189322466Y-118035557D01*
X189478991Y-118119222D01*
X189514729Y-118148552D01*
X189616186Y-118231814D01*
X189699448Y-118333271D01*
X189728778Y-118369009D01*
X189812443Y-118525534D01*
X189863963Y-118695373D01*
X189881359Y-118872000D01*
X189863963Y-119048627D01*
X189812443Y-119218466D01*
X189728778Y-119374991D01*
X189719931Y-119385771D01*
X189616186Y-119512186D01*
X189514729Y-119595448D01*
X189478991Y-119624778D01*
X189322466Y-119708443D01*
X189152627Y-119759963D01*
X189089453Y-119766185D01*
X189020260Y-119773000D01*
X188931740Y-119773000D01*
X188862547Y-119766185D01*
X188799373Y-119759963D01*
X188629534Y-119708443D01*
X188473009Y-119624778D01*
X188437271Y-119595448D01*
X188335814Y-119512186D01*
X188232069Y-119385771D01*
X188223222Y-119374991D01*
X188139557Y-119218466D01*
X188088037Y-119048627D01*
X188070641Y-118872000D01*
X188088037Y-118695373D01*
X188139557Y-118525534D01*
X188223222Y-118369009D01*
X188252552Y-118333271D01*
X188335814Y-118231814D01*
X188437271Y-118148552D01*
X188473009Y-118119222D01*
X188629534Y-118035557D01*
X188799373Y-117984037D01*
X188865557Y-117977519D01*
X188931740Y-117971000D01*
X189020260Y-117971000D01*
X189086443Y-117977519D01*
X189086443Y-117977519D01*
G37*
G36*
X191626443Y-117977519D02*
G01*
X191692627Y-117984037D01*
X191862466Y-118035557D01*
X192018991Y-118119222D01*
X192054729Y-118148552D01*
X192156186Y-118231814D01*
X192239448Y-118333271D01*
X192268778Y-118369009D01*
X192352443Y-118525534D01*
X192403963Y-118695373D01*
X192421359Y-118872000D01*
X192403963Y-119048627D01*
X192352443Y-119218466D01*
X192268778Y-119374991D01*
X192259931Y-119385771D01*
X192156186Y-119512186D01*
X192054729Y-119595448D01*
X192018991Y-119624778D01*
X191862466Y-119708443D01*
X191692627Y-119759963D01*
X191629453Y-119766185D01*
X191560260Y-119773000D01*
X191471740Y-119773000D01*
X191402547Y-119766185D01*
X191339373Y-119759963D01*
X191169534Y-119708443D01*
X191013009Y-119624778D01*
X190977271Y-119595448D01*
X190875814Y-119512186D01*
X190772069Y-119385771D01*
X190763222Y-119374991D01*
X190679557Y-119218466D01*
X190628037Y-119048627D01*
X190610641Y-118872000D01*
X190628037Y-118695373D01*
X190679557Y-118525534D01*
X190763222Y-118369009D01*
X190792552Y-118333271D01*
X190875814Y-118231814D01*
X190977271Y-118148552D01*
X191013009Y-118119222D01*
X191169534Y-118035557D01*
X191339373Y-117984037D01*
X191405557Y-117977519D01*
X191471740Y-117971000D01*
X191560260Y-117971000D01*
X191626443Y-117977519D01*
X191626443Y-117977519D01*
G37*
G36*
X194166443Y-117977519D02*
G01*
X194232627Y-117984037D01*
X194402466Y-118035557D01*
X194558991Y-118119222D01*
X194594729Y-118148552D01*
X194696186Y-118231814D01*
X194779448Y-118333271D01*
X194808778Y-118369009D01*
X194892443Y-118525534D01*
X194943963Y-118695373D01*
X194961359Y-118872000D01*
X194943963Y-119048627D01*
X194892443Y-119218466D01*
X194808778Y-119374991D01*
X194799931Y-119385771D01*
X194696186Y-119512186D01*
X194594729Y-119595448D01*
X194558991Y-119624778D01*
X194402466Y-119708443D01*
X194232627Y-119759963D01*
X194169453Y-119766185D01*
X194100260Y-119773000D01*
X194011740Y-119773000D01*
X193942547Y-119766185D01*
X193879373Y-119759963D01*
X193709534Y-119708443D01*
X193553009Y-119624778D01*
X193517271Y-119595448D01*
X193415814Y-119512186D01*
X193312069Y-119385771D01*
X193303222Y-119374991D01*
X193219557Y-119218466D01*
X193168037Y-119048627D01*
X193150641Y-118872000D01*
X193168037Y-118695373D01*
X193219557Y-118525534D01*
X193303222Y-118369009D01*
X193332552Y-118333271D01*
X193415814Y-118231814D01*
X193517271Y-118148552D01*
X193553009Y-118119222D01*
X193709534Y-118035557D01*
X193879373Y-117984037D01*
X193945557Y-117977519D01*
X194011740Y-117971000D01*
X194100260Y-117971000D01*
X194166443Y-117977519D01*
X194166443Y-117977519D01*
G37*
G36*
X197497000Y-119773000D02*
G01*
X195695000Y-119773000D01*
X195695000Y-117971000D01*
X197497000Y-117971000D01*
X197497000Y-119773000D01*
X197497000Y-119773000D01*
G37*
G36*
X178926443Y-117977519D02*
G01*
X178992627Y-117984037D01*
X179162466Y-118035557D01*
X179318991Y-118119222D01*
X179354729Y-118148552D01*
X179456186Y-118231814D01*
X179539448Y-118333271D01*
X179568778Y-118369009D01*
X179652443Y-118525534D01*
X179703963Y-118695373D01*
X179721359Y-118872000D01*
X179703963Y-119048627D01*
X179652443Y-119218466D01*
X179568778Y-119374991D01*
X179559931Y-119385771D01*
X179456186Y-119512186D01*
X179354729Y-119595448D01*
X179318991Y-119624778D01*
X179162466Y-119708443D01*
X178992627Y-119759963D01*
X178929453Y-119766185D01*
X178860260Y-119773000D01*
X178771740Y-119773000D01*
X178702547Y-119766185D01*
X178639373Y-119759963D01*
X178469534Y-119708443D01*
X178313009Y-119624778D01*
X178277271Y-119595448D01*
X178175814Y-119512186D01*
X178072069Y-119385771D01*
X178063222Y-119374991D01*
X177979557Y-119218466D01*
X177928037Y-119048627D01*
X177910641Y-118872000D01*
X177928037Y-118695373D01*
X177979557Y-118525534D01*
X178063222Y-118369009D01*
X178092552Y-118333271D01*
X178175814Y-118231814D01*
X178277271Y-118148552D01*
X178313009Y-118119222D01*
X178469534Y-118035557D01*
X178639373Y-117984037D01*
X178705557Y-117977519D01*
X178771740Y-117971000D01*
X178860260Y-117971000D01*
X178926443Y-117977519D01*
X178926443Y-117977519D01*
G37*
G36*
X176386443Y-117977519D02*
G01*
X176452627Y-117984037D01*
X176622466Y-118035557D01*
X176778991Y-118119222D01*
X176814729Y-118148552D01*
X176916186Y-118231814D01*
X176999448Y-118333271D01*
X177028778Y-118369009D01*
X177112443Y-118525534D01*
X177163963Y-118695373D01*
X177181359Y-118872000D01*
X177163963Y-119048627D01*
X177112443Y-119218466D01*
X177028778Y-119374991D01*
X177019931Y-119385771D01*
X176916186Y-119512186D01*
X176814729Y-119595448D01*
X176778991Y-119624778D01*
X176622466Y-119708443D01*
X176452627Y-119759963D01*
X176389453Y-119766185D01*
X176320260Y-119773000D01*
X176231740Y-119773000D01*
X176162547Y-119766185D01*
X176099373Y-119759963D01*
X175929534Y-119708443D01*
X175773009Y-119624778D01*
X175737271Y-119595448D01*
X175635814Y-119512186D01*
X175532069Y-119385771D01*
X175523222Y-119374991D01*
X175439557Y-119218466D01*
X175388037Y-119048627D01*
X175370641Y-118872000D01*
X175388037Y-118695373D01*
X175439557Y-118525534D01*
X175523222Y-118369009D01*
X175552552Y-118333271D01*
X175635814Y-118231814D01*
X175737271Y-118148552D01*
X175773009Y-118119222D01*
X175929534Y-118035557D01*
X176099373Y-117984037D01*
X176165557Y-117977519D01*
X176231740Y-117971000D01*
X176320260Y-117971000D01*
X176386443Y-117977519D01*
X176386443Y-117977519D01*
G37*
G36*
X181466443Y-117977519D02*
G01*
X181532627Y-117984037D01*
X181702466Y-118035557D01*
X181858991Y-118119222D01*
X181894729Y-118148552D01*
X181996186Y-118231814D01*
X182079448Y-118333271D01*
X182108778Y-118369009D01*
X182192443Y-118525534D01*
X182243963Y-118695373D01*
X182261359Y-118872000D01*
X182243963Y-119048627D01*
X182192443Y-119218466D01*
X182108778Y-119374991D01*
X182099931Y-119385771D01*
X181996186Y-119512186D01*
X181894729Y-119595448D01*
X181858991Y-119624778D01*
X181702466Y-119708443D01*
X181532627Y-119759963D01*
X181469453Y-119766185D01*
X181400260Y-119773000D01*
X181311740Y-119773000D01*
X181242547Y-119766185D01*
X181179373Y-119759963D01*
X181009534Y-119708443D01*
X180853009Y-119624778D01*
X180817271Y-119595448D01*
X180715814Y-119512186D01*
X180612069Y-119385771D01*
X180603222Y-119374991D01*
X180519557Y-119218466D01*
X180468037Y-119048627D01*
X180450641Y-118872000D01*
X180468037Y-118695373D01*
X180519557Y-118525534D01*
X180603222Y-118369009D01*
X180632552Y-118333271D01*
X180715814Y-118231814D01*
X180817271Y-118148552D01*
X180853009Y-118119222D01*
X181009534Y-118035557D01*
X181179373Y-117984037D01*
X181245557Y-117977519D01*
X181311740Y-117971000D01*
X181400260Y-117971000D01*
X181466443Y-117977519D01*
X181466443Y-117977519D01*
G37*
G36*
X168033000Y-117487000D02*
G01*
X166231000Y-117487000D01*
X166231000Y-115685000D01*
X168033000Y-115685000D01*
X168033000Y-117487000D01*
X168033000Y-117487000D01*
G37*
G36*
X203310443Y-115691519D02*
G01*
X203376627Y-115698037D01*
X203546466Y-115749557D01*
X203702991Y-115833222D01*
X203738729Y-115862552D01*
X203840186Y-115945814D01*
X203923448Y-116047271D01*
X203952778Y-116083009D01*
X204036443Y-116239534D01*
X204087963Y-116409373D01*
X204105359Y-116586000D01*
X204087963Y-116762627D01*
X204036443Y-116932466D01*
X203952778Y-117088991D01*
X203923448Y-117124729D01*
X203840186Y-117226186D01*
X203738729Y-117309448D01*
X203702991Y-117338778D01*
X203546466Y-117422443D01*
X203376627Y-117473963D01*
X203310442Y-117480482D01*
X203244260Y-117487000D01*
X203155740Y-117487000D01*
X203089558Y-117480482D01*
X203023373Y-117473963D01*
X202853534Y-117422443D01*
X202697009Y-117338778D01*
X202661271Y-117309448D01*
X202559814Y-117226186D01*
X202476552Y-117124729D01*
X202447222Y-117088991D01*
X202363557Y-116932466D01*
X202312037Y-116762627D01*
X202294641Y-116586000D01*
X202312037Y-116409373D01*
X202363557Y-116239534D01*
X202447222Y-116083009D01*
X202476552Y-116047271D01*
X202559814Y-115945814D01*
X202661271Y-115862552D01*
X202697009Y-115833222D01*
X202853534Y-115749557D01*
X203023373Y-115698037D01*
X203089557Y-115691519D01*
X203155740Y-115685000D01*
X203244260Y-115685000D01*
X203310443Y-115691519D01*
X203310443Y-115691519D01*
G37*
G36*
X200770443Y-115691519D02*
G01*
X200836627Y-115698037D01*
X201006466Y-115749557D01*
X201162991Y-115833222D01*
X201198729Y-115862552D01*
X201300186Y-115945814D01*
X201383448Y-116047271D01*
X201412778Y-116083009D01*
X201496443Y-116239534D01*
X201547963Y-116409373D01*
X201565359Y-116586000D01*
X201547963Y-116762627D01*
X201496443Y-116932466D01*
X201412778Y-117088991D01*
X201383448Y-117124729D01*
X201300186Y-117226186D01*
X201198729Y-117309448D01*
X201162991Y-117338778D01*
X201006466Y-117422443D01*
X200836627Y-117473963D01*
X200770442Y-117480482D01*
X200704260Y-117487000D01*
X200615740Y-117487000D01*
X200549558Y-117480482D01*
X200483373Y-117473963D01*
X200313534Y-117422443D01*
X200157009Y-117338778D01*
X200121271Y-117309448D01*
X200019814Y-117226186D01*
X199936552Y-117124729D01*
X199907222Y-117088991D01*
X199823557Y-116932466D01*
X199772037Y-116762627D01*
X199754641Y-116586000D01*
X199772037Y-116409373D01*
X199823557Y-116239534D01*
X199907222Y-116083009D01*
X199936552Y-116047271D01*
X200019814Y-115945814D01*
X200121271Y-115862552D01*
X200157009Y-115833222D01*
X200313534Y-115749557D01*
X200483373Y-115698037D01*
X200549557Y-115691519D01*
X200615740Y-115685000D01*
X200704260Y-115685000D01*
X200770443Y-115691519D01*
X200770443Y-115691519D01*
G37*
G36*
X164702443Y-115691519D02*
G01*
X164768627Y-115698037D01*
X164938466Y-115749557D01*
X165094991Y-115833222D01*
X165130729Y-115862552D01*
X165232186Y-115945814D01*
X165315448Y-116047271D01*
X165344778Y-116083009D01*
X165428443Y-116239534D01*
X165479963Y-116409373D01*
X165497359Y-116586000D01*
X165479963Y-116762627D01*
X165428443Y-116932466D01*
X165344778Y-117088991D01*
X165315448Y-117124729D01*
X165232186Y-117226186D01*
X165130729Y-117309448D01*
X165094991Y-117338778D01*
X164938466Y-117422443D01*
X164768627Y-117473963D01*
X164702442Y-117480482D01*
X164636260Y-117487000D01*
X164547740Y-117487000D01*
X164481558Y-117480482D01*
X164415373Y-117473963D01*
X164245534Y-117422443D01*
X164089009Y-117338778D01*
X164053271Y-117309448D01*
X163951814Y-117226186D01*
X163868552Y-117124729D01*
X163839222Y-117088991D01*
X163755557Y-116932466D01*
X163704037Y-116762627D01*
X163686641Y-116586000D01*
X163704037Y-116409373D01*
X163755557Y-116239534D01*
X163839222Y-116083009D01*
X163868552Y-116047271D01*
X163951814Y-115945814D01*
X164053271Y-115862552D01*
X164089009Y-115833222D01*
X164245534Y-115749557D01*
X164415373Y-115698037D01*
X164481557Y-115691519D01*
X164547740Y-115685000D01*
X164636260Y-115685000D01*
X164702443Y-115691519D01*
X164702443Y-115691519D01*
G37*
G36*
X203310442Y-113151518D02*
G01*
X203376627Y-113158037D01*
X203546466Y-113209557D01*
X203702991Y-113293222D01*
X203725901Y-113312024D01*
X203840186Y-113405814D01*
X203921647Y-113505076D01*
X203952778Y-113543009D01*
X204036443Y-113699534D01*
X204087963Y-113869373D01*
X204105359Y-114046000D01*
X204087963Y-114222627D01*
X204036443Y-114392466D01*
X203952778Y-114548991D01*
X203923448Y-114584729D01*
X203840186Y-114686186D01*
X203738729Y-114769448D01*
X203702991Y-114798778D01*
X203546466Y-114882443D01*
X203376627Y-114933963D01*
X203310442Y-114940482D01*
X203244260Y-114947000D01*
X203155740Y-114947000D01*
X203089558Y-114940482D01*
X203023373Y-114933963D01*
X202853534Y-114882443D01*
X202697009Y-114798778D01*
X202661271Y-114769448D01*
X202559814Y-114686186D01*
X202476552Y-114584729D01*
X202447222Y-114548991D01*
X202363557Y-114392466D01*
X202312037Y-114222627D01*
X202294641Y-114046000D01*
X202312037Y-113869373D01*
X202363557Y-113699534D01*
X202447222Y-113543009D01*
X202478353Y-113505076D01*
X202559814Y-113405814D01*
X202674099Y-113312024D01*
X202697009Y-113293222D01*
X202853534Y-113209557D01*
X203023373Y-113158037D01*
X203089558Y-113151518D01*
X203155740Y-113145000D01*
X203244260Y-113145000D01*
X203310442Y-113151518D01*
X203310442Y-113151518D01*
G37*
G36*
X200770442Y-113151518D02*
G01*
X200836627Y-113158037D01*
X201006466Y-113209557D01*
X201162991Y-113293222D01*
X201185901Y-113312024D01*
X201300186Y-113405814D01*
X201381647Y-113505076D01*
X201412778Y-113543009D01*
X201496443Y-113699534D01*
X201547963Y-113869373D01*
X201565359Y-114046000D01*
X201547963Y-114222627D01*
X201496443Y-114392466D01*
X201412778Y-114548991D01*
X201383448Y-114584729D01*
X201300186Y-114686186D01*
X201198729Y-114769448D01*
X201162991Y-114798778D01*
X201006466Y-114882443D01*
X200836627Y-114933963D01*
X200770442Y-114940482D01*
X200704260Y-114947000D01*
X200615740Y-114947000D01*
X200549558Y-114940482D01*
X200483373Y-114933963D01*
X200313534Y-114882443D01*
X200157009Y-114798778D01*
X200121271Y-114769448D01*
X200019814Y-114686186D01*
X199936552Y-114584729D01*
X199907222Y-114548991D01*
X199823557Y-114392466D01*
X199772037Y-114222627D01*
X199754641Y-114046000D01*
X199772037Y-113869373D01*
X199823557Y-113699534D01*
X199907222Y-113543009D01*
X199938353Y-113505076D01*
X200019814Y-113405814D01*
X200134099Y-113312024D01*
X200157009Y-113293222D01*
X200313534Y-113209557D01*
X200483373Y-113158037D01*
X200549558Y-113151518D01*
X200615740Y-113145000D01*
X200704260Y-113145000D01*
X200770442Y-113151518D01*
X200770442Y-113151518D01*
G37*
G36*
X167806823Y-112191313D02*
G01*
X167967242Y-112239976D01*
X168099906Y-112310886D01*
X168115078Y-112318996D01*
X168244659Y-112425341D01*
X168351004Y-112554922D01*
X168351005Y-112554924D01*
X168430024Y-112702758D01*
X168478687Y-112863177D01*
X168495117Y-113030000D01*
X168478687Y-113196823D01*
X168430024Y-113357242D01*
X168404061Y-113405815D01*
X168351004Y-113505078D01*
X168244659Y-113634659D01*
X168115078Y-113741004D01*
X168115076Y-113741005D01*
X167967242Y-113820024D01*
X167806823Y-113868687D01*
X167681804Y-113881000D01*
X167598196Y-113881000D01*
X167473177Y-113868687D01*
X167312758Y-113820024D01*
X167164924Y-113741005D01*
X167164922Y-113741004D01*
X167035341Y-113634659D01*
X166928996Y-113505078D01*
X166875939Y-113405815D01*
X166849976Y-113357242D01*
X166801313Y-113196823D01*
X166784883Y-113030000D01*
X166801313Y-112863177D01*
X166849976Y-112702758D01*
X166928995Y-112554924D01*
X166928996Y-112554922D01*
X167035341Y-112425341D01*
X167164922Y-112318996D01*
X167180094Y-112310886D01*
X167312758Y-112239976D01*
X167473177Y-112191313D01*
X167598196Y-112179000D01*
X167681804Y-112179000D01*
X167806823Y-112191313D01*
X167806823Y-112191313D01*
G37*
G36*
X164504823Y-112191313D02*
G01*
X164665242Y-112239976D01*
X164797906Y-112310886D01*
X164813078Y-112318996D01*
X164942659Y-112425341D01*
X165049004Y-112554922D01*
X165049005Y-112554924D01*
X165128024Y-112702758D01*
X165176687Y-112863177D01*
X165193117Y-113030000D01*
X165176687Y-113196823D01*
X165128024Y-113357242D01*
X165102061Y-113405815D01*
X165049004Y-113505078D01*
X164942659Y-113634659D01*
X164813078Y-113741004D01*
X164813076Y-113741005D01*
X164665242Y-113820024D01*
X164504823Y-113868687D01*
X164379804Y-113881000D01*
X164296196Y-113881000D01*
X164171177Y-113868687D01*
X164010758Y-113820024D01*
X163862924Y-113741005D01*
X163862922Y-113741004D01*
X163733341Y-113634659D01*
X163626996Y-113505078D01*
X163573939Y-113405815D01*
X163547976Y-113357242D01*
X163499313Y-113196823D01*
X163482883Y-113030000D01*
X163499313Y-112863177D01*
X163547976Y-112702758D01*
X163626995Y-112554924D01*
X163626996Y-112554922D01*
X163733341Y-112425341D01*
X163862922Y-112318996D01*
X163878094Y-112310886D01*
X164010758Y-112239976D01*
X164171177Y-112191313D01*
X164296196Y-112179000D01*
X164379804Y-112179000D01*
X164504823Y-112191313D01*
X164504823Y-112191313D01*
G37*
G36*
X187954228Y-111703703D02*
G01*
X188109100Y-111767853D01*
X188248481Y-111860985D01*
X188367015Y-111979519D01*
X188460147Y-112118900D01*
X188524297Y-112273772D01*
X188557000Y-112438184D01*
X188557000Y-112605816D01*
X188524297Y-112770228D01*
X188460147Y-112925100D01*
X188367015Y-113064481D01*
X188248481Y-113183015D01*
X188109100Y-113276147D01*
X187954228Y-113340297D01*
X187789816Y-113373000D01*
X187622184Y-113373000D01*
X187457772Y-113340297D01*
X187302900Y-113276147D01*
X187163519Y-113183015D01*
X187044985Y-113064481D01*
X186951853Y-112925100D01*
X186887703Y-112770228D01*
X186855000Y-112605816D01*
X186855000Y-112438184D01*
X186887703Y-112273772D01*
X186951853Y-112118900D01*
X187044985Y-111979519D01*
X187163519Y-111860985D01*
X187302900Y-111767853D01*
X187457772Y-111703703D01*
X187622184Y-111671000D01*
X187789816Y-111671000D01*
X187954228Y-111703703D01*
X187954228Y-111703703D01*
G37*
G36*
X195492823Y-111683313D02*
G01*
X195653242Y-111731976D01*
X195720361Y-111767852D01*
X195801078Y-111810996D01*
X195930659Y-111917341D01*
X196037004Y-112046922D01*
X196037005Y-112046924D01*
X196116024Y-112194758D01*
X196164687Y-112355177D01*
X196181117Y-112522000D01*
X196164687Y-112688823D01*
X196116024Y-112849242D01*
X196075477Y-112925100D01*
X196037004Y-112997078D01*
X195930659Y-113126659D01*
X195801078Y-113233004D01*
X195801076Y-113233005D01*
X195653242Y-113312024D01*
X195492823Y-113360687D01*
X195367804Y-113373000D01*
X195284196Y-113373000D01*
X195159177Y-113360687D01*
X194998758Y-113312024D01*
X194850924Y-113233005D01*
X194850922Y-113233004D01*
X194721341Y-113126659D01*
X194614996Y-112997078D01*
X194576523Y-112925100D01*
X194535976Y-112849242D01*
X194487313Y-112688823D01*
X194470883Y-112522000D01*
X194487313Y-112355177D01*
X194535976Y-112194758D01*
X194614995Y-112046924D01*
X194614996Y-112046922D01*
X194721341Y-111917341D01*
X194850922Y-111810996D01*
X194931639Y-111767852D01*
X194998758Y-111731976D01*
X195159177Y-111683313D01*
X195284196Y-111671000D01*
X195367804Y-111671000D01*
X195492823Y-111683313D01*
X195492823Y-111683313D01*
G37*
G36*
X172378823Y-111175313D02*
G01*
X172539242Y-111223976D01*
X172671906Y-111294886D01*
X172687078Y-111302996D01*
X172816659Y-111409341D01*
X172923004Y-111538922D01*
X172923005Y-111538924D01*
X173002024Y-111686758D01*
X173050687Y-111847177D01*
X173067117Y-112014000D01*
X173050687Y-112180823D01*
X173002024Y-112341242D01*
X172957072Y-112425341D01*
X172923004Y-112489078D01*
X172816659Y-112618659D01*
X172687078Y-112725004D01*
X172687076Y-112725005D01*
X172539242Y-112804024D01*
X172378823Y-112852687D01*
X172253804Y-112865000D01*
X172170196Y-112865000D01*
X172045177Y-112852687D01*
X171884758Y-112804024D01*
X171736924Y-112725005D01*
X171736922Y-112725004D01*
X171607341Y-112618659D01*
X171500996Y-112489078D01*
X171466928Y-112425341D01*
X171421976Y-112341242D01*
X171373313Y-112180823D01*
X171356883Y-112014000D01*
X171373313Y-111847177D01*
X171421976Y-111686758D01*
X171500995Y-111538924D01*
X171500996Y-111538922D01*
X171607341Y-111409341D01*
X171736922Y-111302996D01*
X171752094Y-111294886D01*
X171884758Y-111223976D01*
X172045177Y-111175313D01*
X172170196Y-111163000D01*
X172253804Y-111163000D01*
X172378823Y-111175313D01*
X172378823Y-111175313D01*
G37*
G36*
X200770443Y-110611519D02*
G01*
X200836627Y-110618037D01*
X201006466Y-110669557D01*
X201162991Y-110753222D01*
X201198729Y-110782552D01*
X201300186Y-110865814D01*
X201383448Y-110967271D01*
X201412778Y-111003009D01*
X201496443Y-111159534D01*
X201547963Y-111329373D01*
X201565359Y-111506000D01*
X201547963Y-111682627D01*
X201498048Y-111847175D01*
X201496442Y-111852468D01*
X201461766Y-111917341D01*
X201412778Y-112008991D01*
X201408667Y-112014000D01*
X201300186Y-112146186D01*
X201198729Y-112229448D01*
X201162991Y-112258778D01*
X201006466Y-112342443D01*
X200836627Y-112393963D01*
X200770443Y-112400481D01*
X200704260Y-112407000D01*
X200615740Y-112407000D01*
X200549557Y-112400481D01*
X200483373Y-112393963D01*
X200313534Y-112342443D01*
X200157009Y-112258778D01*
X200121271Y-112229448D01*
X200019814Y-112146186D01*
X199911333Y-112014000D01*
X199907222Y-112008991D01*
X199858234Y-111917341D01*
X199823558Y-111852468D01*
X199821952Y-111847175D01*
X199772037Y-111682627D01*
X199754641Y-111506000D01*
X199772037Y-111329373D01*
X199823557Y-111159534D01*
X199907222Y-111003009D01*
X199936552Y-110967271D01*
X200019814Y-110865814D01*
X200121271Y-110782552D01*
X200157009Y-110753222D01*
X200313534Y-110669557D01*
X200483373Y-110618037D01*
X200549557Y-110611519D01*
X200615740Y-110605000D01*
X200704260Y-110605000D01*
X200770443Y-110611519D01*
X200770443Y-110611519D01*
G37*
G36*
X203310443Y-110611519D02*
G01*
X203376627Y-110618037D01*
X203546466Y-110669557D01*
X203702991Y-110753222D01*
X203738729Y-110782552D01*
X203840186Y-110865814D01*
X203923448Y-110967271D01*
X203952778Y-111003009D01*
X204036443Y-111159534D01*
X204087963Y-111329373D01*
X204105359Y-111506000D01*
X204087963Y-111682627D01*
X204038048Y-111847175D01*
X204036442Y-111852468D01*
X204001766Y-111917341D01*
X203952778Y-112008991D01*
X203948667Y-112014000D01*
X203840186Y-112146186D01*
X203738729Y-112229448D01*
X203702991Y-112258778D01*
X203546466Y-112342443D01*
X203376627Y-112393963D01*
X203310443Y-112400481D01*
X203244260Y-112407000D01*
X203155740Y-112407000D01*
X203089557Y-112400481D01*
X203023373Y-112393963D01*
X202853534Y-112342443D01*
X202697009Y-112258778D01*
X202661271Y-112229448D01*
X202559814Y-112146186D01*
X202451333Y-112014000D01*
X202447222Y-112008991D01*
X202398234Y-111917341D01*
X202363558Y-111852468D01*
X202361952Y-111847175D01*
X202312037Y-111682627D01*
X202294641Y-111506000D01*
X202312037Y-111329373D01*
X202363557Y-111159534D01*
X202447222Y-111003009D01*
X202476552Y-110967271D01*
X202559814Y-110865814D01*
X202661271Y-110782552D01*
X202697009Y-110753222D01*
X202853534Y-110669557D01*
X203023373Y-110618037D01*
X203089557Y-110611519D01*
X203155740Y-110605000D01*
X203244260Y-110605000D01*
X203310443Y-110611519D01*
X203310443Y-110611519D01*
G37*
G36*
X203310443Y-108071519D02*
G01*
X203376627Y-108078037D01*
X203546466Y-108129557D01*
X203702991Y-108213222D01*
X203738729Y-108242552D01*
X203840186Y-108325814D01*
X203923448Y-108427271D01*
X203952778Y-108463009D01*
X204036443Y-108619534D01*
X204087963Y-108789373D01*
X204105359Y-108966000D01*
X204087963Y-109142627D01*
X204036443Y-109312466D01*
X203952778Y-109468991D01*
X203923448Y-109504729D01*
X203840186Y-109606186D01*
X203738729Y-109689448D01*
X203702991Y-109718778D01*
X203546466Y-109802443D01*
X203376627Y-109853963D01*
X203310443Y-109860481D01*
X203244260Y-109867000D01*
X203155740Y-109867000D01*
X203089557Y-109860481D01*
X203023373Y-109853963D01*
X202853534Y-109802443D01*
X202697009Y-109718778D01*
X202661271Y-109689448D01*
X202559814Y-109606186D01*
X202476552Y-109504729D01*
X202447222Y-109468991D01*
X202363557Y-109312466D01*
X202312037Y-109142627D01*
X202294641Y-108966000D01*
X202312037Y-108789373D01*
X202363557Y-108619534D01*
X202447222Y-108463009D01*
X202476552Y-108427271D01*
X202559814Y-108325814D01*
X202661271Y-108242552D01*
X202697009Y-108213222D01*
X202853534Y-108129557D01*
X203023373Y-108078037D01*
X203089557Y-108071519D01*
X203155740Y-108065000D01*
X203244260Y-108065000D01*
X203310443Y-108071519D01*
X203310443Y-108071519D01*
G37*
G36*
X200770443Y-108071519D02*
G01*
X200836627Y-108078037D01*
X201006466Y-108129557D01*
X201162991Y-108213222D01*
X201198729Y-108242552D01*
X201300186Y-108325814D01*
X201383448Y-108427271D01*
X201412778Y-108463009D01*
X201496443Y-108619534D01*
X201547963Y-108789373D01*
X201565359Y-108966000D01*
X201547963Y-109142627D01*
X201496443Y-109312466D01*
X201412778Y-109468991D01*
X201383448Y-109504729D01*
X201300186Y-109606186D01*
X201198729Y-109689448D01*
X201162991Y-109718778D01*
X201006466Y-109802443D01*
X200836627Y-109853963D01*
X200770443Y-109860481D01*
X200704260Y-109867000D01*
X200615740Y-109867000D01*
X200549557Y-109860481D01*
X200483373Y-109853963D01*
X200313534Y-109802443D01*
X200157009Y-109718778D01*
X200121271Y-109689448D01*
X200019814Y-109606186D01*
X199936552Y-109504729D01*
X199907222Y-109468991D01*
X199823557Y-109312466D01*
X199772037Y-109142627D01*
X199754641Y-108966000D01*
X199772037Y-108789373D01*
X199823557Y-108619534D01*
X199907222Y-108463009D01*
X199936552Y-108427271D01*
X200019814Y-108325814D01*
X200121271Y-108242552D01*
X200157009Y-108213222D01*
X200313534Y-108129557D01*
X200483373Y-108078037D01*
X200549557Y-108071519D01*
X200615740Y-108065000D01*
X200704260Y-108065000D01*
X200770443Y-108071519D01*
X200770443Y-108071519D01*
G37*
G36*
X184062823Y-108127313D02*
G01*
X184223242Y-108175976D01*
X184292922Y-108213221D01*
X184371078Y-108254996D01*
X184500659Y-108361341D01*
X184607004Y-108490922D01*
X184607005Y-108490924D01*
X184686024Y-108638758D01*
X184734687Y-108799177D01*
X184751117Y-108966000D01*
X184734687Y-109132823D01*
X184686024Y-109293242D01*
X184675747Y-109312468D01*
X184607004Y-109441078D01*
X184500659Y-109570659D01*
X184371078Y-109677004D01*
X184371076Y-109677005D01*
X184223242Y-109756024D01*
X184062823Y-109804687D01*
X183937804Y-109817000D01*
X183854196Y-109817000D01*
X183729177Y-109804687D01*
X183568758Y-109756024D01*
X183420924Y-109677005D01*
X183420922Y-109677004D01*
X183291341Y-109570659D01*
X183184996Y-109441078D01*
X183116253Y-109312468D01*
X183105976Y-109293242D01*
X183057313Y-109132823D01*
X183040883Y-108966000D01*
X183057313Y-108799177D01*
X183105976Y-108638758D01*
X183184995Y-108490924D01*
X183184996Y-108490922D01*
X183291341Y-108361341D01*
X183420922Y-108254996D01*
X183499078Y-108213221D01*
X183568758Y-108175976D01*
X183729177Y-108127313D01*
X183854196Y-108115000D01*
X183937804Y-108115000D01*
X184062823Y-108127313D01*
X184062823Y-108127313D01*
G37*
G36*
X176442823Y-108127313D02*
G01*
X176603242Y-108175976D01*
X176672922Y-108213221D01*
X176751078Y-108254996D01*
X176880659Y-108361341D01*
X176987004Y-108490922D01*
X176987005Y-108490924D01*
X177066024Y-108638758D01*
X177114687Y-108799177D01*
X177131117Y-108966000D01*
X177114687Y-109132823D01*
X177066024Y-109293242D01*
X177055747Y-109312468D01*
X176987004Y-109441078D01*
X176880659Y-109570659D01*
X176751078Y-109677004D01*
X176751076Y-109677005D01*
X176603242Y-109756024D01*
X176442823Y-109804687D01*
X176317804Y-109817000D01*
X176234196Y-109817000D01*
X176109177Y-109804687D01*
X175948758Y-109756024D01*
X175800924Y-109677005D01*
X175800922Y-109677004D01*
X175671341Y-109570659D01*
X175564996Y-109441078D01*
X175496253Y-109312468D01*
X175485976Y-109293242D01*
X175437313Y-109132823D01*
X175420883Y-108966000D01*
X175437313Y-108799177D01*
X175485976Y-108638758D01*
X175564995Y-108490924D01*
X175564996Y-108490922D01*
X175671341Y-108361341D01*
X175800922Y-108254996D01*
X175879078Y-108213221D01*
X175948758Y-108175976D01*
X176109177Y-108127313D01*
X176234196Y-108115000D01*
X176317804Y-108115000D01*
X176442823Y-108127313D01*
X176442823Y-108127313D01*
G37*
G36*
X194222823Y-108127313D02*
G01*
X194383242Y-108175976D01*
X194452922Y-108213221D01*
X194531078Y-108254996D01*
X194660659Y-108361341D01*
X194767004Y-108490922D01*
X194767005Y-108490924D01*
X194846024Y-108638758D01*
X194894687Y-108799177D01*
X194911117Y-108966000D01*
X194894687Y-109132823D01*
X194846024Y-109293242D01*
X194835747Y-109312468D01*
X194767004Y-109441078D01*
X194660659Y-109570659D01*
X194531078Y-109677004D01*
X194531076Y-109677005D01*
X194383242Y-109756024D01*
X194222823Y-109804687D01*
X194097804Y-109817000D01*
X194014196Y-109817000D01*
X193889177Y-109804687D01*
X193728758Y-109756024D01*
X193580924Y-109677005D01*
X193580922Y-109677004D01*
X193451341Y-109570659D01*
X193344996Y-109441078D01*
X193276253Y-109312468D01*
X193265976Y-109293242D01*
X193217313Y-109132823D01*
X193200883Y-108966000D01*
X193217313Y-108799177D01*
X193265976Y-108638758D01*
X193344995Y-108490924D01*
X193344996Y-108490922D01*
X193451341Y-108361341D01*
X193580922Y-108254996D01*
X193659078Y-108213221D01*
X193728758Y-108175976D01*
X193889177Y-108127313D01*
X194014196Y-108115000D01*
X194097804Y-108115000D01*
X194222823Y-108127313D01*
X194222823Y-108127313D01*
G37*
G36*
X197778823Y-108127313D02*
G01*
X197939242Y-108175976D01*
X198008922Y-108213221D01*
X198087078Y-108254996D01*
X198216659Y-108361341D01*
X198323004Y-108490922D01*
X198323005Y-108490924D01*
X198402024Y-108638758D01*
X198450687Y-108799177D01*
X198467117Y-108966000D01*
X198450687Y-109132823D01*
X198402024Y-109293242D01*
X198391747Y-109312468D01*
X198323004Y-109441078D01*
X198216659Y-109570659D01*
X198087078Y-109677004D01*
X198087076Y-109677005D01*
X197939242Y-109756024D01*
X197778823Y-109804687D01*
X197653804Y-109817000D01*
X197570196Y-109817000D01*
X197445177Y-109804687D01*
X197284758Y-109756024D01*
X197136924Y-109677005D01*
X197136922Y-109677004D01*
X197007341Y-109570659D01*
X196900996Y-109441078D01*
X196832253Y-109312468D01*
X196821976Y-109293242D01*
X196773313Y-109132823D01*
X196756883Y-108966000D01*
X196773313Y-108799177D01*
X196821976Y-108638758D01*
X196900995Y-108490924D01*
X196900996Y-108490922D01*
X197007341Y-108361341D01*
X197136922Y-108254996D01*
X197215078Y-108213221D01*
X197284758Y-108175976D01*
X197445177Y-108127313D01*
X197570196Y-108115000D01*
X197653804Y-108115000D01*
X197778823Y-108127313D01*
X197778823Y-108127313D01*
G37*
G36*
X191682823Y-108127313D02*
G01*
X191843242Y-108175976D01*
X191912922Y-108213221D01*
X191991078Y-108254996D01*
X192120659Y-108361341D01*
X192227004Y-108490922D01*
X192227005Y-108490924D01*
X192306024Y-108638758D01*
X192354687Y-108799177D01*
X192371117Y-108966000D01*
X192354687Y-109132823D01*
X192306024Y-109293242D01*
X192295747Y-109312468D01*
X192227004Y-109441078D01*
X192120659Y-109570659D01*
X191991078Y-109677004D01*
X191991076Y-109677005D01*
X191843242Y-109756024D01*
X191682823Y-109804687D01*
X191557804Y-109817000D01*
X191474196Y-109817000D01*
X191349177Y-109804687D01*
X191188758Y-109756024D01*
X191040924Y-109677005D01*
X191040922Y-109677004D01*
X190911341Y-109570659D01*
X190804996Y-109441078D01*
X190736253Y-109312468D01*
X190725976Y-109293242D01*
X190677313Y-109132823D01*
X190660883Y-108966000D01*
X190677313Y-108799177D01*
X190725976Y-108638758D01*
X190804995Y-108490924D01*
X190804996Y-108490922D01*
X190911341Y-108361341D01*
X191040922Y-108254996D01*
X191119078Y-108213221D01*
X191188758Y-108175976D01*
X191349177Y-108127313D01*
X191474196Y-108115000D01*
X191557804Y-108115000D01*
X191682823Y-108127313D01*
X191682823Y-108127313D01*
G37*
G36*
X189142823Y-108127313D02*
G01*
X189303242Y-108175976D01*
X189372922Y-108213221D01*
X189451078Y-108254996D01*
X189580659Y-108361341D01*
X189687004Y-108490922D01*
X189687005Y-108490924D01*
X189766024Y-108638758D01*
X189814687Y-108799177D01*
X189831117Y-108966000D01*
X189814687Y-109132823D01*
X189766024Y-109293242D01*
X189755747Y-109312468D01*
X189687004Y-109441078D01*
X189580659Y-109570659D01*
X189451078Y-109677004D01*
X189451076Y-109677005D01*
X189303242Y-109756024D01*
X189142823Y-109804687D01*
X189017804Y-109817000D01*
X188934196Y-109817000D01*
X188809177Y-109804687D01*
X188648758Y-109756024D01*
X188500924Y-109677005D01*
X188500922Y-109677004D01*
X188371341Y-109570659D01*
X188264996Y-109441078D01*
X188196253Y-109312468D01*
X188185976Y-109293242D01*
X188137313Y-109132823D01*
X188120883Y-108966000D01*
X188137313Y-108799177D01*
X188185976Y-108638758D01*
X188264995Y-108490924D01*
X188264996Y-108490922D01*
X188371341Y-108361341D01*
X188500922Y-108254996D01*
X188579078Y-108213221D01*
X188648758Y-108175976D01*
X188809177Y-108127313D01*
X188934196Y-108115000D01*
X189017804Y-108115000D01*
X189142823Y-108127313D01*
X189142823Y-108127313D01*
G37*
G36*
X186602823Y-108127313D02*
G01*
X186763242Y-108175976D01*
X186832922Y-108213221D01*
X186911078Y-108254996D01*
X187040659Y-108361341D01*
X187147004Y-108490922D01*
X187147005Y-108490924D01*
X187226024Y-108638758D01*
X187274687Y-108799177D01*
X187291117Y-108966000D01*
X187274687Y-109132823D01*
X187226024Y-109293242D01*
X187215747Y-109312468D01*
X187147004Y-109441078D01*
X187040659Y-109570659D01*
X186911078Y-109677004D01*
X186911076Y-109677005D01*
X186763242Y-109756024D01*
X186602823Y-109804687D01*
X186477804Y-109817000D01*
X186394196Y-109817000D01*
X186269177Y-109804687D01*
X186108758Y-109756024D01*
X185960924Y-109677005D01*
X185960922Y-109677004D01*
X185831341Y-109570659D01*
X185724996Y-109441078D01*
X185656253Y-109312468D01*
X185645976Y-109293242D01*
X185597313Y-109132823D01*
X185580883Y-108966000D01*
X185597313Y-108799177D01*
X185645976Y-108638758D01*
X185724995Y-108490924D01*
X185724996Y-108490922D01*
X185831341Y-108361341D01*
X185960922Y-108254996D01*
X186039078Y-108213221D01*
X186108758Y-108175976D01*
X186269177Y-108127313D01*
X186394196Y-108115000D01*
X186477804Y-108115000D01*
X186602823Y-108127313D01*
X186602823Y-108127313D01*
G37*
G36*
X181522823Y-108127313D02*
G01*
X181683242Y-108175976D01*
X181752922Y-108213221D01*
X181831078Y-108254996D01*
X181960659Y-108361341D01*
X182067004Y-108490922D01*
X182067005Y-108490924D01*
X182146024Y-108638758D01*
X182194687Y-108799177D01*
X182211117Y-108966000D01*
X182194687Y-109132823D01*
X182146024Y-109293242D01*
X182135747Y-109312468D01*
X182067004Y-109441078D01*
X181960659Y-109570659D01*
X181831078Y-109677004D01*
X181831076Y-109677005D01*
X181683242Y-109756024D01*
X181522823Y-109804687D01*
X181397804Y-109817000D01*
X181314196Y-109817000D01*
X181189177Y-109804687D01*
X181028758Y-109756024D01*
X180880924Y-109677005D01*
X180880922Y-109677004D01*
X180751341Y-109570659D01*
X180644996Y-109441078D01*
X180576253Y-109312468D01*
X180565976Y-109293242D01*
X180517313Y-109132823D01*
X180500883Y-108966000D01*
X180517313Y-108799177D01*
X180565976Y-108638758D01*
X180644995Y-108490924D01*
X180644996Y-108490922D01*
X180751341Y-108361341D01*
X180880922Y-108254996D01*
X180959078Y-108213221D01*
X181028758Y-108175976D01*
X181189177Y-108127313D01*
X181314196Y-108115000D01*
X181397804Y-108115000D01*
X181522823Y-108127313D01*
X181522823Y-108127313D01*
G37*
G36*
X178982823Y-108127313D02*
G01*
X179143242Y-108175976D01*
X179212922Y-108213221D01*
X179291078Y-108254996D01*
X179420659Y-108361341D01*
X179527004Y-108490922D01*
X179527005Y-108490924D01*
X179606024Y-108638758D01*
X179654687Y-108799177D01*
X179671117Y-108966000D01*
X179654687Y-109132823D01*
X179606024Y-109293242D01*
X179595747Y-109312468D01*
X179527004Y-109441078D01*
X179420659Y-109570659D01*
X179291078Y-109677004D01*
X179291076Y-109677005D01*
X179143242Y-109756024D01*
X178982823Y-109804687D01*
X178857804Y-109817000D01*
X178774196Y-109817000D01*
X178649177Y-109804687D01*
X178488758Y-109756024D01*
X178340924Y-109677005D01*
X178340922Y-109677004D01*
X178211341Y-109570659D01*
X178104996Y-109441078D01*
X178036253Y-109312468D01*
X178025976Y-109293242D01*
X177977313Y-109132823D01*
X177960883Y-108966000D01*
X177977313Y-108799177D01*
X178025976Y-108638758D01*
X178104995Y-108490924D01*
X178104996Y-108490922D01*
X178211341Y-108361341D01*
X178340922Y-108254996D01*
X178419078Y-108213221D01*
X178488758Y-108175976D01*
X178649177Y-108127313D01*
X178774196Y-108115000D01*
X178857804Y-108115000D01*
X178982823Y-108127313D01*
X178982823Y-108127313D01*
G37*
G36*
X173902823Y-108127313D02*
G01*
X174063242Y-108175976D01*
X174132922Y-108213221D01*
X174211078Y-108254996D01*
X174340659Y-108361341D01*
X174447004Y-108490922D01*
X174447005Y-108490924D01*
X174526024Y-108638758D01*
X174574687Y-108799177D01*
X174591117Y-108966000D01*
X174574687Y-109132823D01*
X174526024Y-109293242D01*
X174515747Y-109312468D01*
X174447004Y-109441078D01*
X174340659Y-109570659D01*
X174211078Y-109677004D01*
X174211076Y-109677005D01*
X174063242Y-109756024D01*
X173902823Y-109804687D01*
X173777804Y-109817000D01*
X173694196Y-109817000D01*
X173569177Y-109804687D01*
X173408758Y-109756024D01*
X173260924Y-109677005D01*
X173260922Y-109677004D01*
X173131341Y-109570659D01*
X173024996Y-109441078D01*
X172956253Y-109312468D01*
X172945976Y-109293242D01*
X172897313Y-109132823D01*
X172880883Y-108966000D01*
X172897313Y-108799177D01*
X172945976Y-108638758D01*
X173024995Y-108490924D01*
X173024996Y-108490922D01*
X173131341Y-108361341D01*
X173260922Y-108254996D01*
X173339078Y-108213221D01*
X173408758Y-108175976D01*
X173569177Y-108127313D01*
X173694196Y-108115000D01*
X173777804Y-108115000D01*
X173902823Y-108127313D01*
X173902823Y-108127313D01*
G37*
G36*
X172047000Y-109817000D02*
G01*
X170345000Y-109817000D01*
X170345000Y-108115000D01*
X172047000Y-108115000D01*
X172047000Y-109817000D01*
X172047000Y-109817000D01*
G37*
G36*
X203310443Y-105531519D02*
G01*
X203376627Y-105538037D01*
X203546466Y-105589557D01*
X203702991Y-105673222D01*
X203738729Y-105702552D01*
X203840186Y-105785814D01*
X203923448Y-105887271D01*
X203952778Y-105923009D01*
X203952779Y-105923011D01*
X204031890Y-106071015D01*
X204036443Y-106079534D01*
X204087963Y-106249373D01*
X204105359Y-106426000D01*
X204087963Y-106602627D01*
X204036443Y-106772466D01*
X203952778Y-106928991D01*
X203923448Y-106964729D01*
X203840186Y-107066186D01*
X203738729Y-107149448D01*
X203702991Y-107178778D01*
X203546466Y-107262443D01*
X203376627Y-107313963D01*
X203310442Y-107320482D01*
X203244260Y-107327000D01*
X203155740Y-107327000D01*
X203089558Y-107320482D01*
X203023373Y-107313963D01*
X202853534Y-107262443D01*
X202697009Y-107178778D01*
X202661271Y-107149448D01*
X202559814Y-107066186D01*
X202476552Y-106964729D01*
X202447222Y-106928991D01*
X202363557Y-106772466D01*
X202312037Y-106602627D01*
X202294641Y-106426000D01*
X202312037Y-106249373D01*
X202363557Y-106079534D01*
X202368111Y-106071015D01*
X202447221Y-105923011D01*
X202447222Y-105923009D01*
X202476552Y-105887271D01*
X202559814Y-105785814D01*
X202661271Y-105702552D01*
X202697009Y-105673222D01*
X202853534Y-105589557D01*
X203023373Y-105538037D01*
X203089558Y-105531518D01*
X203155740Y-105525000D01*
X203244260Y-105525000D01*
X203310443Y-105531519D01*
X203310443Y-105531519D01*
G37*
G36*
X200770443Y-105531519D02*
G01*
X200836627Y-105538037D01*
X201006466Y-105589557D01*
X201162991Y-105673222D01*
X201198729Y-105702552D01*
X201300186Y-105785814D01*
X201383448Y-105887271D01*
X201412778Y-105923009D01*
X201412779Y-105923011D01*
X201491890Y-106071015D01*
X201496443Y-106079534D01*
X201547963Y-106249373D01*
X201565359Y-106426000D01*
X201547963Y-106602627D01*
X201496443Y-106772466D01*
X201412778Y-106928991D01*
X201383448Y-106964729D01*
X201300186Y-107066186D01*
X201198729Y-107149448D01*
X201162991Y-107178778D01*
X201006466Y-107262443D01*
X200836627Y-107313963D01*
X200770442Y-107320482D01*
X200704260Y-107327000D01*
X200615740Y-107327000D01*
X200549558Y-107320482D01*
X200483373Y-107313963D01*
X200313534Y-107262443D01*
X200157009Y-107178778D01*
X200121271Y-107149448D01*
X200019814Y-107066186D01*
X199936552Y-106964729D01*
X199907222Y-106928991D01*
X199823557Y-106772466D01*
X199772037Y-106602627D01*
X199754641Y-106426000D01*
X199772037Y-106249373D01*
X199823557Y-106079534D01*
X199828111Y-106071015D01*
X199907221Y-105923011D01*
X199907222Y-105923009D01*
X199936552Y-105887271D01*
X200019814Y-105785814D01*
X200121271Y-105702552D01*
X200157009Y-105673222D01*
X200313534Y-105589557D01*
X200483373Y-105538037D01*
X200549558Y-105531518D01*
X200615740Y-105525000D01*
X200704260Y-105525000D01*
X200770443Y-105531519D01*
X200770443Y-105531519D01*
G37*
G36*
X167888228Y-104591703D02*
G01*
X168043100Y-104655853D01*
X168182481Y-104748985D01*
X168301015Y-104867519D01*
X168394147Y-105006900D01*
X168458297Y-105161772D01*
X168491000Y-105326184D01*
X168491000Y-105493816D01*
X168458297Y-105658228D01*
X168394147Y-105813100D01*
X168301015Y-105952481D01*
X168182481Y-106071015D01*
X168043100Y-106164147D01*
X167888228Y-106228297D01*
X167723816Y-106261000D01*
X167556184Y-106261000D01*
X167391772Y-106228297D01*
X167236900Y-106164147D01*
X167097519Y-106071015D01*
X166978985Y-105952481D01*
X166885853Y-105813100D01*
X166821703Y-105658228D01*
X166789000Y-105493816D01*
X166789000Y-105326184D01*
X166821703Y-105161772D01*
X166885853Y-105006900D01*
X166978985Y-104867519D01*
X167097519Y-104748985D01*
X167236900Y-104655853D01*
X167391772Y-104591703D01*
X167556184Y-104559000D01*
X167723816Y-104559000D01*
X167888228Y-104591703D01*
X167888228Y-104591703D01*
G37*
G36*
X164586228Y-104591703D02*
G01*
X164741100Y-104655853D01*
X164880481Y-104748985D01*
X164999015Y-104867519D01*
X165092147Y-105006900D01*
X165156297Y-105161772D01*
X165189000Y-105326184D01*
X165189000Y-105493816D01*
X165156297Y-105658228D01*
X165092147Y-105813100D01*
X164999015Y-105952481D01*
X164880481Y-106071015D01*
X164741100Y-106164147D01*
X164586228Y-106228297D01*
X164421816Y-106261000D01*
X164254184Y-106261000D01*
X164089772Y-106228297D01*
X163934900Y-106164147D01*
X163795519Y-106071015D01*
X163676985Y-105952481D01*
X163583853Y-105813100D01*
X163519703Y-105658228D01*
X163487000Y-105493816D01*
X163487000Y-105326184D01*
X163519703Y-105161772D01*
X163583853Y-105006900D01*
X163676985Y-104867519D01*
X163795519Y-104748985D01*
X163934900Y-104655853D01*
X164089772Y-104591703D01*
X164254184Y-104559000D01*
X164421816Y-104559000D01*
X164586228Y-104591703D01*
X164586228Y-104591703D01*
G37*
G36*
X203310443Y-102991519D02*
G01*
X203376627Y-102998037D01*
X203546466Y-103049557D01*
X203702991Y-103133222D01*
X203738729Y-103162552D01*
X203840186Y-103245814D01*
X203923448Y-103347271D01*
X203952778Y-103383009D01*
X204036443Y-103539534D01*
X204087963Y-103709373D01*
X204105359Y-103886000D01*
X204087963Y-104062627D01*
X204036443Y-104232466D01*
X203952778Y-104388991D01*
X203923448Y-104424729D01*
X203840186Y-104526186D01*
X203738729Y-104609448D01*
X203702991Y-104638778D01*
X203546466Y-104722443D01*
X203376627Y-104773963D01*
X203310442Y-104780482D01*
X203244260Y-104787000D01*
X203155740Y-104787000D01*
X203089558Y-104780482D01*
X203023373Y-104773963D01*
X202853534Y-104722443D01*
X202697009Y-104638778D01*
X202661271Y-104609448D01*
X202559814Y-104526186D01*
X202476552Y-104424729D01*
X202447222Y-104388991D01*
X202363557Y-104232466D01*
X202312037Y-104062627D01*
X202294641Y-103886000D01*
X202312037Y-103709373D01*
X202363557Y-103539534D01*
X202447222Y-103383009D01*
X202476552Y-103347271D01*
X202559814Y-103245814D01*
X202661271Y-103162552D01*
X202697009Y-103133222D01*
X202853534Y-103049557D01*
X203023373Y-102998037D01*
X203089557Y-102991519D01*
X203155740Y-102985000D01*
X203244260Y-102985000D01*
X203310443Y-102991519D01*
X203310443Y-102991519D01*
G37*
G36*
X200770443Y-102991519D02*
G01*
X200836627Y-102998037D01*
X201006466Y-103049557D01*
X201162991Y-103133222D01*
X201198729Y-103162552D01*
X201300186Y-103245814D01*
X201383448Y-103347271D01*
X201412778Y-103383009D01*
X201496443Y-103539534D01*
X201547963Y-103709373D01*
X201565359Y-103886000D01*
X201547963Y-104062627D01*
X201496443Y-104232466D01*
X201412778Y-104388991D01*
X201383448Y-104424729D01*
X201300186Y-104526186D01*
X201198729Y-104609448D01*
X201162991Y-104638778D01*
X201006466Y-104722443D01*
X200836627Y-104773963D01*
X200770442Y-104780482D01*
X200704260Y-104787000D01*
X200615740Y-104787000D01*
X200549558Y-104780482D01*
X200483373Y-104773963D01*
X200313534Y-104722443D01*
X200157009Y-104638778D01*
X200121271Y-104609448D01*
X200019814Y-104526186D01*
X199936552Y-104424729D01*
X199907222Y-104388991D01*
X199823557Y-104232466D01*
X199772037Y-104062627D01*
X199754641Y-103886000D01*
X199772037Y-103709373D01*
X199823557Y-103539534D01*
X199907222Y-103383009D01*
X199936552Y-103347271D01*
X200019814Y-103245814D01*
X200121271Y-103162552D01*
X200157009Y-103133222D01*
X200313534Y-103049557D01*
X200483373Y-102998037D01*
X200549557Y-102991519D01*
X200615740Y-102985000D01*
X200704260Y-102985000D01*
X200770443Y-102991519D01*
X200770443Y-102991519D01*
G37*
G36*
X203310443Y-100451519D02*
G01*
X203376627Y-100458037D01*
X203546466Y-100509557D01*
X203702991Y-100593222D01*
X203738729Y-100622552D01*
X203840186Y-100705814D01*
X203920369Y-100803519D01*
X203952778Y-100843009D01*
X204036443Y-100999534D01*
X204087963Y-101169373D01*
X204105359Y-101346000D01*
X204087963Y-101522627D01*
X204036443Y-101692466D01*
X203952778Y-101848991D01*
X203923448Y-101884729D01*
X203840186Y-101986186D01*
X203738729Y-102069448D01*
X203702991Y-102098778D01*
X203546466Y-102182443D01*
X203376627Y-102233963D01*
X203310443Y-102240481D01*
X203244260Y-102247000D01*
X203155740Y-102247000D01*
X203089557Y-102240481D01*
X203023373Y-102233963D01*
X202853534Y-102182443D01*
X202697009Y-102098778D01*
X202661271Y-102069448D01*
X202559814Y-101986186D01*
X202476552Y-101884729D01*
X202447222Y-101848991D01*
X202363557Y-101692466D01*
X202312037Y-101522627D01*
X202294641Y-101346000D01*
X202312037Y-101169373D01*
X202363557Y-100999534D01*
X202447222Y-100843009D01*
X202479631Y-100803519D01*
X202559814Y-100705814D01*
X202661271Y-100622552D01*
X202697009Y-100593222D01*
X202853534Y-100509557D01*
X203023373Y-100458037D01*
X203089557Y-100451519D01*
X203155740Y-100445000D01*
X203244260Y-100445000D01*
X203310443Y-100451519D01*
X203310443Y-100451519D01*
G37*
G36*
X200770443Y-100451519D02*
G01*
X200836627Y-100458037D01*
X201006466Y-100509557D01*
X201162991Y-100593222D01*
X201198729Y-100622552D01*
X201300186Y-100705814D01*
X201380369Y-100803519D01*
X201412778Y-100843009D01*
X201496443Y-100999534D01*
X201547963Y-101169373D01*
X201565359Y-101346000D01*
X201547963Y-101522627D01*
X201496443Y-101692466D01*
X201412778Y-101848991D01*
X201383448Y-101884729D01*
X201300186Y-101986186D01*
X201198729Y-102069448D01*
X201162991Y-102098778D01*
X201006466Y-102182443D01*
X200836627Y-102233963D01*
X200770443Y-102240481D01*
X200704260Y-102247000D01*
X200615740Y-102247000D01*
X200549557Y-102240481D01*
X200483373Y-102233963D01*
X200313534Y-102182443D01*
X200157009Y-102098778D01*
X200121271Y-102069448D01*
X200019814Y-101986186D01*
X199936552Y-101884729D01*
X199907222Y-101848991D01*
X199823557Y-101692466D01*
X199772037Y-101522627D01*
X199754641Y-101346000D01*
X199772037Y-101169373D01*
X199823557Y-100999534D01*
X199907222Y-100843009D01*
X199939631Y-100803519D01*
X200019814Y-100705814D01*
X200121271Y-100622552D01*
X200157009Y-100593222D01*
X200313534Y-100509557D01*
X200483373Y-100458037D01*
X200549557Y-100451519D01*
X200615740Y-100445000D01*
X200704260Y-100445000D01*
X200770443Y-100451519D01*
X200770443Y-100451519D01*
G37*
G36*
X194222823Y-100507313D02*
G01*
X194383242Y-100555976D01*
X194450361Y-100591852D01*
X194531078Y-100634996D01*
X194660659Y-100741341D01*
X194767004Y-100870922D01*
X194767005Y-100870924D01*
X194846024Y-101018758D01*
X194894687Y-101179177D01*
X194911117Y-101346000D01*
X194894687Y-101512823D01*
X194846024Y-101673242D01*
X194805477Y-101749100D01*
X194767004Y-101821078D01*
X194660659Y-101950659D01*
X194531078Y-102057004D01*
X194531076Y-102057005D01*
X194383242Y-102136024D01*
X194222823Y-102184687D01*
X194097804Y-102197000D01*
X194014196Y-102197000D01*
X193889177Y-102184687D01*
X193728758Y-102136024D01*
X193580924Y-102057005D01*
X193580922Y-102057004D01*
X193451341Y-101950659D01*
X193344996Y-101821078D01*
X193306523Y-101749100D01*
X193265976Y-101673242D01*
X193217313Y-101512823D01*
X193200883Y-101346000D01*
X193217313Y-101179177D01*
X193265976Y-101018758D01*
X193344995Y-100870924D01*
X193344996Y-100870922D01*
X193451341Y-100741341D01*
X193580922Y-100634996D01*
X193661639Y-100591852D01*
X193728758Y-100555976D01*
X193889177Y-100507313D01*
X194014196Y-100495000D01*
X194097804Y-100495000D01*
X194222823Y-100507313D01*
X194222823Y-100507313D01*
G37*
G36*
X186602823Y-100507313D02*
G01*
X186763242Y-100555976D01*
X186830361Y-100591852D01*
X186911078Y-100634996D01*
X187040659Y-100741341D01*
X187147004Y-100870922D01*
X187147005Y-100870924D01*
X187226024Y-101018758D01*
X187274687Y-101179177D01*
X187291117Y-101346000D01*
X187274687Y-101512823D01*
X187226024Y-101673242D01*
X187185477Y-101749100D01*
X187147004Y-101821078D01*
X187040659Y-101950659D01*
X186911078Y-102057004D01*
X186911076Y-102057005D01*
X186763242Y-102136024D01*
X186602823Y-102184687D01*
X186477804Y-102197000D01*
X186394196Y-102197000D01*
X186269177Y-102184687D01*
X186108758Y-102136024D01*
X185960924Y-102057005D01*
X185960922Y-102057004D01*
X185831341Y-101950659D01*
X185724996Y-101821078D01*
X185686523Y-101749100D01*
X185645976Y-101673242D01*
X185597313Y-101512823D01*
X185580883Y-101346000D01*
X185597313Y-101179177D01*
X185645976Y-101018758D01*
X185724995Y-100870924D01*
X185724996Y-100870922D01*
X185831341Y-100741341D01*
X185960922Y-100634996D01*
X186041639Y-100591852D01*
X186108758Y-100555976D01*
X186269177Y-100507313D01*
X186394196Y-100495000D01*
X186477804Y-100495000D01*
X186602823Y-100507313D01*
X186602823Y-100507313D01*
G37*
G36*
X189142823Y-100507313D02*
G01*
X189303242Y-100555976D01*
X189370361Y-100591852D01*
X189451078Y-100634996D01*
X189580659Y-100741341D01*
X189687004Y-100870922D01*
X189687005Y-100870924D01*
X189766024Y-101018758D01*
X189814687Y-101179177D01*
X189831117Y-101346000D01*
X189814687Y-101512823D01*
X189766024Y-101673242D01*
X189725477Y-101749100D01*
X189687004Y-101821078D01*
X189580659Y-101950659D01*
X189451078Y-102057004D01*
X189451076Y-102057005D01*
X189303242Y-102136024D01*
X189142823Y-102184687D01*
X189017804Y-102197000D01*
X188934196Y-102197000D01*
X188809177Y-102184687D01*
X188648758Y-102136024D01*
X188500924Y-102057005D01*
X188500922Y-102057004D01*
X188371341Y-101950659D01*
X188264996Y-101821078D01*
X188226523Y-101749100D01*
X188185976Y-101673242D01*
X188137313Y-101512823D01*
X188120883Y-101346000D01*
X188137313Y-101179177D01*
X188185976Y-101018758D01*
X188264995Y-100870924D01*
X188264996Y-100870922D01*
X188371341Y-100741341D01*
X188500922Y-100634996D01*
X188581639Y-100591852D01*
X188648758Y-100555976D01*
X188809177Y-100507313D01*
X188934196Y-100495000D01*
X189017804Y-100495000D01*
X189142823Y-100507313D01*
X189142823Y-100507313D01*
G37*
G36*
X191682823Y-100507313D02*
G01*
X191843242Y-100555976D01*
X191910361Y-100591852D01*
X191991078Y-100634996D01*
X192120659Y-100741341D01*
X192227004Y-100870922D01*
X192227005Y-100870924D01*
X192306024Y-101018758D01*
X192354687Y-101179177D01*
X192371117Y-101346000D01*
X192354687Y-101512823D01*
X192306024Y-101673242D01*
X192265477Y-101749100D01*
X192227004Y-101821078D01*
X192120659Y-101950659D01*
X191991078Y-102057004D01*
X191991076Y-102057005D01*
X191843242Y-102136024D01*
X191682823Y-102184687D01*
X191557804Y-102197000D01*
X191474196Y-102197000D01*
X191349177Y-102184687D01*
X191188758Y-102136024D01*
X191040924Y-102057005D01*
X191040922Y-102057004D01*
X190911341Y-101950659D01*
X190804996Y-101821078D01*
X190766523Y-101749100D01*
X190725976Y-101673242D01*
X190677313Y-101512823D01*
X190660883Y-101346000D01*
X190677313Y-101179177D01*
X190725976Y-101018758D01*
X190804995Y-100870924D01*
X190804996Y-100870922D01*
X190911341Y-100741341D01*
X191040922Y-100634996D01*
X191121639Y-100591852D01*
X191188758Y-100555976D01*
X191349177Y-100507313D01*
X191474196Y-100495000D01*
X191557804Y-100495000D01*
X191682823Y-100507313D01*
X191682823Y-100507313D01*
G37*
G36*
X184062823Y-100507313D02*
G01*
X184223242Y-100555976D01*
X184290361Y-100591852D01*
X184371078Y-100634996D01*
X184500659Y-100741341D01*
X184607004Y-100870922D01*
X184607005Y-100870924D01*
X184686024Y-101018758D01*
X184734687Y-101179177D01*
X184751117Y-101346000D01*
X184734687Y-101512823D01*
X184686024Y-101673242D01*
X184645477Y-101749100D01*
X184607004Y-101821078D01*
X184500659Y-101950659D01*
X184371078Y-102057004D01*
X184371076Y-102057005D01*
X184223242Y-102136024D01*
X184062823Y-102184687D01*
X183937804Y-102197000D01*
X183854196Y-102197000D01*
X183729177Y-102184687D01*
X183568758Y-102136024D01*
X183420924Y-102057005D01*
X183420922Y-102057004D01*
X183291341Y-101950659D01*
X183184996Y-101821078D01*
X183146523Y-101749100D01*
X183105976Y-101673242D01*
X183057313Y-101512823D01*
X183040883Y-101346000D01*
X183057313Y-101179177D01*
X183105976Y-101018758D01*
X183184995Y-100870924D01*
X183184996Y-100870922D01*
X183291341Y-100741341D01*
X183420922Y-100634996D01*
X183501639Y-100591852D01*
X183568758Y-100555976D01*
X183729177Y-100507313D01*
X183854196Y-100495000D01*
X183937804Y-100495000D01*
X184062823Y-100507313D01*
X184062823Y-100507313D01*
G37*
G36*
X181522823Y-100507313D02*
G01*
X181683242Y-100555976D01*
X181750361Y-100591852D01*
X181831078Y-100634996D01*
X181960659Y-100741341D01*
X182067004Y-100870922D01*
X182067005Y-100870924D01*
X182146024Y-101018758D01*
X182194687Y-101179177D01*
X182211117Y-101346000D01*
X182194687Y-101512823D01*
X182146024Y-101673242D01*
X182105477Y-101749100D01*
X182067004Y-101821078D01*
X181960659Y-101950659D01*
X181831078Y-102057004D01*
X181831076Y-102057005D01*
X181683242Y-102136024D01*
X181522823Y-102184687D01*
X181397804Y-102197000D01*
X181314196Y-102197000D01*
X181189177Y-102184687D01*
X181028758Y-102136024D01*
X180880924Y-102057005D01*
X180880922Y-102057004D01*
X180751341Y-101950659D01*
X180644996Y-101821078D01*
X180606523Y-101749100D01*
X180565976Y-101673242D01*
X180517313Y-101512823D01*
X180500883Y-101346000D01*
X180517313Y-101179177D01*
X180565976Y-101018758D01*
X180644995Y-100870924D01*
X180644996Y-100870922D01*
X180751341Y-100741341D01*
X180880922Y-100634996D01*
X180961639Y-100591852D01*
X181028758Y-100555976D01*
X181189177Y-100507313D01*
X181314196Y-100495000D01*
X181397804Y-100495000D01*
X181522823Y-100507313D01*
X181522823Y-100507313D01*
G37*
G36*
X197860228Y-100527703D02*
G01*
X198015100Y-100591853D01*
X198154481Y-100684985D01*
X198273015Y-100803519D01*
X198366147Y-100942900D01*
X198430297Y-101097772D01*
X198463000Y-101262184D01*
X198463000Y-101429816D01*
X198430297Y-101594228D01*
X198366147Y-101749100D01*
X198273015Y-101888481D01*
X198154481Y-102007015D01*
X198015100Y-102100147D01*
X197860228Y-102164297D01*
X197695816Y-102197000D01*
X197528184Y-102197000D01*
X197363772Y-102164297D01*
X197208900Y-102100147D01*
X197069519Y-102007015D01*
X196950985Y-101888481D01*
X196857853Y-101749100D01*
X196793703Y-101594228D01*
X196761000Y-101429816D01*
X196761000Y-101262184D01*
X196793703Y-101097772D01*
X196857853Y-100942900D01*
X196950985Y-100803519D01*
X197069519Y-100684985D01*
X197208900Y-100591853D01*
X197363772Y-100527703D01*
X197528184Y-100495000D01*
X197695816Y-100495000D01*
X197860228Y-100527703D01*
X197860228Y-100527703D01*
G37*
G36*
X178982823Y-100507313D02*
G01*
X179143242Y-100555976D01*
X179210361Y-100591852D01*
X179291078Y-100634996D01*
X179420659Y-100741341D01*
X179527004Y-100870922D01*
X179527005Y-100870924D01*
X179606024Y-101018758D01*
X179654687Y-101179177D01*
X179671117Y-101346000D01*
X179654687Y-101512823D01*
X179606024Y-101673242D01*
X179565477Y-101749100D01*
X179527004Y-101821078D01*
X179420659Y-101950659D01*
X179291078Y-102057004D01*
X179291076Y-102057005D01*
X179143242Y-102136024D01*
X178982823Y-102184687D01*
X178857804Y-102197000D01*
X178774196Y-102197000D01*
X178649177Y-102184687D01*
X178488758Y-102136024D01*
X178340924Y-102057005D01*
X178340922Y-102057004D01*
X178211341Y-101950659D01*
X178104996Y-101821078D01*
X178066523Y-101749100D01*
X178025976Y-101673242D01*
X177977313Y-101512823D01*
X177960883Y-101346000D01*
X177977313Y-101179177D01*
X178025976Y-101018758D01*
X178104995Y-100870924D01*
X178104996Y-100870922D01*
X178211341Y-100741341D01*
X178340922Y-100634996D01*
X178421639Y-100591852D01*
X178488758Y-100555976D01*
X178649177Y-100507313D01*
X178774196Y-100495000D01*
X178857804Y-100495000D01*
X178982823Y-100507313D01*
X178982823Y-100507313D01*
G37*
G36*
X176442823Y-100507313D02*
G01*
X176603242Y-100555976D01*
X176670361Y-100591852D01*
X176751078Y-100634996D01*
X176880659Y-100741341D01*
X176987004Y-100870922D01*
X176987005Y-100870924D01*
X177066024Y-101018758D01*
X177114687Y-101179177D01*
X177131117Y-101346000D01*
X177114687Y-101512823D01*
X177066024Y-101673242D01*
X177025477Y-101749100D01*
X176987004Y-101821078D01*
X176880659Y-101950659D01*
X176751078Y-102057004D01*
X176751076Y-102057005D01*
X176603242Y-102136024D01*
X176442823Y-102184687D01*
X176317804Y-102197000D01*
X176234196Y-102197000D01*
X176109177Y-102184687D01*
X175948758Y-102136024D01*
X175800924Y-102057005D01*
X175800922Y-102057004D01*
X175671341Y-101950659D01*
X175564996Y-101821078D01*
X175526523Y-101749100D01*
X175485976Y-101673242D01*
X175437313Y-101512823D01*
X175420883Y-101346000D01*
X175437313Y-101179177D01*
X175485976Y-101018758D01*
X175564995Y-100870924D01*
X175564996Y-100870922D01*
X175671341Y-100741341D01*
X175800922Y-100634996D01*
X175881639Y-100591852D01*
X175948758Y-100555976D01*
X176109177Y-100507313D01*
X176234196Y-100495000D01*
X176317804Y-100495000D01*
X176442823Y-100507313D01*
X176442823Y-100507313D01*
G37*
G36*
X171362823Y-100507313D02*
G01*
X171523242Y-100555976D01*
X171590361Y-100591852D01*
X171671078Y-100634996D01*
X171800659Y-100741341D01*
X171907004Y-100870922D01*
X171907005Y-100870924D01*
X171986024Y-101018758D01*
X172034687Y-101179177D01*
X172051117Y-101346000D01*
X172034687Y-101512823D01*
X171986024Y-101673242D01*
X171945477Y-101749100D01*
X171907004Y-101821078D01*
X171800659Y-101950659D01*
X171671078Y-102057004D01*
X171671076Y-102057005D01*
X171523242Y-102136024D01*
X171362823Y-102184687D01*
X171237804Y-102197000D01*
X171154196Y-102197000D01*
X171029177Y-102184687D01*
X170868758Y-102136024D01*
X170720924Y-102057005D01*
X170720922Y-102057004D01*
X170591341Y-101950659D01*
X170484996Y-101821078D01*
X170446523Y-101749100D01*
X170405976Y-101673242D01*
X170357313Y-101512823D01*
X170340883Y-101346000D01*
X170357313Y-101179177D01*
X170405976Y-101018758D01*
X170484995Y-100870924D01*
X170484996Y-100870922D01*
X170591341Y-100741341D01*
X170720922Y-100634996D01*
X170801639Y-100591852D01*
X170868758Y-100555976D01*
X171029177Y-100507313D01*
X171154196Y-100495000D01*
X171237804Y-100495000D01*
X171362823Y-100507313D01*
X171362823Y-100507313D01*
G37*
G36*
X173902823Y-100507313D02*
G01*
X174063242Y-100555976D01*
X174130361Y-100591852D01*
X174211078Y-100634996D01*
X174340659Y-100741341D01*
X174447004Y-100870922D01*
X174447005Y-100870924D01*
X174526024Y-101018758D01*
X174574687Y-101179177D01*
X174591117Y-101346000D01*
X174574687Y-101512823D01*
X174526024Y-101673242D01*
X174485477Y-101749100D01*
X174447004Y-101821078D01*
X174340659Y-101950659D01*
X174211078Y-102057004D01*
X174211076Y-102057005D01*
X174063242Y-102136024D01*
X173902823Y-102184687D01*
X173777804Y-102197000D01*
X173694196Y-102197000D01*
X173569177Y-102184687D01*
X173408758Y-102136024D01*
X173260924Y-102057005D01*
X173260922Y-102057004D01*
X173131341Y-101950659D01*
X173024996Y-101821078D01*
X172986523Y-101749100D01*
X172945976Y-101673242D01*
X172897313Y-101512823D01*
X172880883Y-101346000D01*
X172897313Y-101179177D01*
X172945976Y-101018758D01*
X173024995Y-100870924D01*
X173024996Y-100870922D01*
X173131341Y-100741341D01*
X173260922Y-100634996D01*
X173341639Y-100591852D01*
X173408758Y-100555976D01*
X173569177Y-100507313D01*
X173694196Y-100495000D01*
X173777804Y-100495000D01*
X173902823Y-100507313D01*
X173902823Y-100507313D01*
G37*
G36*
X200770442Y-97911518D02*
G01*
X200836627Y-97918037D01*
X201006466Y-97969557D01*
X201162991Y-98053222D01*
X201198729Y-98082552D01*
X201300186Y-98165814D01*
X201383448Y-98267271D01*
X201412778Y-98303009D01*
X201496443Y-98459534D01*
X201547963Y-98629373D01*
X201565359Y-98806000D01*
X201547963Y-98982627D01*
X201496443Y-99152466D01*
X201412778Y-99308991D01*
X201383448Y-99344729D01*
X201300186Y-99446186D01*
X201198729Y-99529448D01*
X201162991Y-99558778D01*
X201006466Y-99642443D01*
X200836627Y-99693963D01*
X200770442Y-99700482D01*
X200704260Y-99707000D01*
X200615740Y-99707000D01*
X200549558Y-99700482D01*
X200483373Y-99693963D01*
X200313534Y-99642443D01*
X200157009Y-99558778D01*
X200121271Y-99529448D01*
X200019814Y-99446186D01*
X199936552Y-99344729D01*
X199907222Y-99308991D01*
X199823557Y-99152466D01*
X199772037Y-98982627D01*
X199754641Y-98806000D01*
X199772037Y-98629373D01*
X199823557Y-98459534D01*
X199907222Y-98303009D01*
X199936552Y-98267271D01*
X200019814Y-98165814D01*
X200121271Y-98082552D01*
X200157009Y-98053222D01*
X200313534Y-97969557D01*
X200483373Y-97918037D01*
X200549558Y-97911518D01*
X200615740Y-97905000D01*
X200704260Y-97905000D01*
X200770442Y-97911518D01*
X200770442Y-97911518D01*
G37*
G36*
X203310442Y-97911518D02*
G01*
X203376627Y-97918037D01*
X203546466Y-97969557D01*
X203702991Y-98053222D01*
X203738729Y-98082552D01*
X203840186Y-98165814D01*
X203923448Y-98267271D01*
X203952778Y-98303009D01*
X204036443Y-98459534D01*
X204087963Y-98629373D01*
X204105359Y-98806000D01*
X204087963Y-98982627D01*
X204036443Y-99152466D01*
X203952778Y-99308991D01*
X203923448Y-99344729D01*
X203840186Y-99446186D01*
X203738729Y-99529448D01*
X203702991Y-99558778D01*
X203546466Y-99642443D01*
X203376627Y-99693963D01*
X203310442Y-99700482D01*
X203244260Y-99707000D01*
X203155740Y-99707000D01*
X203089558Y-99700482D01*
X203023373Y-99693963D01*
X202853534Y-99642443D01*
X202697009Y-99558778D01*
X202661271Y-99529448D01*
X202559814Y-99446186D01*
X202476552Y-99344729D01*
X202447222Y-99308991D01*
X202363557Y-99152466D01*
X202312037Y-98982627D01*
X202294641Y-98806000D01*
X202312037Y-98629373D01*
X202363557Y-98459534D01*
X202447222Y-98303009D01*
X202476552Y-98267271D01*
X202559814Y-98165814D01*
X202661271Y-98082552D01*
X202697009Y-98053222D01*
X202853534Y-97969557D01*
X203023373Y-97918037D01*
X203089558Y-97911518D01*
X203155740Y-97905000D01*
X203244260Y-97905000D01*
X203310442Y-97911518D01*
X203310442Y-97911518D01*
G37*
G36*
X170600823Y-97205313D02*
G01*
X170761242Y-97253976D01*
X170828361Y-97289852D01*
X170909078Y-97332996D01*
X171038659Y-97439341D01*
X171145004Y-97568922D01*
X171145005Y-97568924D01*
X171224024Y-97716758D01*
X171272687Y-97877177D01*
X171289117Y-98044000D01*
X171272687Y-98210823D01*
X171224024Y-98371242D01*
X171183477Y-98447100D01*
X171145004Y-98519078D01*
X171038659Y-98648659D01*
X170909078Y-98755004D01*
X170909076Y-98755005D01*
X170761242Y-98834024D01*
X170600823Y-98882687D01*
X170475804Y-98895000D01*
X170392196Y-98895000D01*
X170267177Y-98882687D01*
X170106758Y-98834024D01*
X169958924Y-98755005D01*
X169958922Y-98755004D01*
X169829341Y-98648659D01*
X169722996Y-98519078D01*
X169684523Y-98447100D01*
X169643976Y-98371242D01*
X169595313Y-98210823D01*
X169578883Y-98044000D01*
X169595313Y-97877177D01*
X169643976Y-97716758D01*
X169722995Y-97568924D01*
X169722996Y-97568922D01*
X169829341Y-97439341D01*
X169958922Y-97332996D01*
X170039639Y-97289852D01*
X170106758Y-97253976D01*
X170267177Y-97205313D01*
X170392196Y-97193000D01*
X170475804Y-97193000D01*
X170600823Y-97205313D01*
X170600823Y-97205313D01*
G37*
G36*
X181522823Y-97205313D02*
G01*
X181683242Y-97253976D01*
X181750361Y-97289852D01*
X181831078Y-97332996D01*
X181960659Y-97439341D01*
X182067004Y-97568922D01*
X182067005Y-97568924D01*
X182146024Y-97716758D01*
X182194687Y-97877177D01*
X182211117Y-98044000D01*
X182194687Y-98210823D01*
X182146024Y-98371242D01*
X182105477Y-98447100D01*
X182067004Y-98519078D01*
X181960659Y-98648659D01*
X181831078Y-98755004D01*
X181831076Y-98755005D01*
X181683242Y-98834024D01*
X181522823Y-98882687D01*
X181397804Y-98895000D01*
X181314196Y-98895000D01*
X181189177Y-98882687D01*
X181028758Y-98834024D01*
X180880924Y-98755005D01*
X180880922Y-98755004D01*
X180751341Y-98648659D01*
X180644996Y-98519078D01*
X180606523Y-98447100D01*
X180565976Y-98371242D01*
X180517313Y-98210823D01*
X180500883Y-98044000D01*
X180517313Y-97877177D01*
X180565976Y-97716758D01*
X180644995Y-97568924D01*
X180644996Y-97568922D01*
X180751341Y-97439341D01*
X180880922Y-97332996D01*
X180961639Y-97289852D01*
X181028758Y-97253976D01*
X181189177Y-97205313D01*
X181314196Y-97193000D01*
X181397804Y-97193000D01*
X181522823Y-97205313D01*
X181522823Y-97205313D01*
G37*
G36*
X178302228Y-97225703D02*
G01*
X178457100Y-97289853D01*
X178596481Y-97382985D01*
X178715015Y-97501519D01*
X178808147Y-97640900D01*
X178872297Y-97795772D01*
X178905000Y-97960184D01*
X178905000Y-98127816D01*
X178872297Y-98292228D01*
X178808147Y-98447100D01*
X178715015Y-98586481D01*
X178596481Y-98705015D01*
X178457100Y-98798147D01*
X178302228Y-98862297D01*
X178137816Y-98895000D01*
X177970184Y-98895000D01*
X177805772Y-98862297D01*
X177650900Y-98798147D01*
X177511519Y-98705015D01*
X177392985Y-98586481D01*
X177299853Y-98447100D01*
X177235703Y-98292228D01*
X177203000Y-98127816D01*
X177203000Y-97960184D01*
X177235703Y-97795772D01*
X177299853Y-97640900D01*
X177392985Y-97501519D01*
X177511519Y-97382985D01*
X177650900Y-97289853D01*
X177805772Y-97225703D01*
X177970184Y-97193000D01*
X178137816Y-97193000D01*
X178302228Y-97225703D01*
X178302228Y-97225703D01*
G37*
G36*
X189224228Y-97225703D02*
G01*
X189379100Y-97289853D01*
X189518481Y-97382985D01*
X189637015Y-97501519D01*
X189730147Y-97640900D01*
X189794297Y-97795772D01*
X189827000Y-97960184D01*
X189827000Y-98127816D01*
X189794297Y-98292228D01*
X189730147Y-98447100D01*
X189637015Y-98586481D01*
X189518481Y-98705015D01*
X189379100Y-98798147D01*
X189224228Y-98862297D01*
X189059816Y-98895000D01*
X188892184Y-98895000D01*
X188727772Y-98862297D01*
X188572900Y-98798147D01*
X188433519Y-98705015D01*
X188314985Y-98586481D01*
X188221853Y-98447100D01*
X188157703Y-98292228D01*
X188125000Y-98127816D01*
X188125000Y-97960184D01*
X188157703Y-97795772D01*
X188221853Y-97640900D01*
X188314985Y-97501519D01*
X188433519Y-97382985D01*
X188572900Y-97289853D01*
X188727772Y-97225703D01*
X188892184Y-97193000D01*
X189059816Y-97193000D01*
X189224228Y-97225703D01*
X189224228Y-97225703D01*
G37*
G36*
X200770443Y-95371519D02*
G01*
X200836627Y-95378037D01*
X201006466Y-95429557D01*
X201162991Y-95513222D01*
X201185901Y-95532024D01*
X201300186Y-95625814D01*
X201383448Y-95727271D01*
X201412778Y-95763009D01*
X201496443Y-95919534D01*
X201547963Y-96089373D01*
X201565359Y-96266000D01*
X201547963Y-96442627D01*
X201496443Y-96612466D01*
X201412778Y-96768991D01*
X201383448Y-96804729D01*
X201300186Y-96906186D01*
X201198729Y-96989448D01*
X201162991Y-97018778D01*
X201006466Y-97102443D01*
X200836627Y-97153963D01*
X200770443Y-97160481D01*
X200704260Y-97167000D01*
X200615740Y-97167000D01*
X200549557Y-97160481D01*
X200483373Y-97153963D01*
X200313534Y-97102443D01*
X200157009Y-97018778D01*
X200121271Y-96989448D01*
X200019814Y-96906186D01*
X199936552Y-96804729D01*
X199907222Y-96768991D01*
X199823557Y-96612466D01*
X199772037Y-96442627D01*
X199754641Y-96266000D01*
X199772037Y-96089373D01*
X199823557Y-95919534D01*
X199907222Y-95763009D01*
X199936552Y-95727271D01*
X200019814Y-95625814D01*
X200134099Y-95532024D01*
X200157009Y-95513222D01*
X200313534Y-95429557D01*
X200483373Y-95378037D01*
X200549557Y-95371519D01*
X200615740Y-95365000D01*
X200704260Y-95365000D01*
X200770443Y-95371519D01*
X200770443Y-95371519D01*
G37*
G36*
X203310443Y-95371519D02*
G01*
X203376627Y-95378037D01*
X203546466Y-95429557D01*
X203702991Y-95513222D01*
X203725901Y-95532024D01*
X203840186Y-95625814D01*
X203923448Y-95727271D01*
X203952778Y-95763009D01*
X204036443Y-95919534D01*
X204087963Y-96089373D01*
X204105359Y-96266000D01*
X204087963Y-96442627D01*
X204036443Y-96612466D01*
X203952778Y-96768991D01*
X203923448Y-96804729D01*
X203840186Y-96906186D01*
X203738729Y-96989448D01*
X203702991Y-97018778D01*
X203546466Y-97102443D01*
X203376627Y-97153963D01*
X203310443Y-97160481D01*
X203244260Y-97167000D01*
X203155740Y-97167000D01*
X203089557Y-97160481D01*
X203023373Y-97153963D01*
X202853534Y-97102443D01*
X202697009Y-97018778D01*
X202661271Y-96989448D01*
X202559814Y-96906186D01*
X202476552Y-96804729D01*
X202447222Y-96768991D01*
X202363557Y-96612466D01*
X202312037Y-96442627D01*
X202294641Y-96266000D01*
X202312037Y-96089373D01*
X202363557Y-95919534D01*
X202447222Y-95763009D01*
X202476552Y-95727271D01*
X202559814Y-95625814D01*
X202674099Y-95532024D01*
X202697009Y-95513222D01*
X202853534Y-95429557D01*
X203023373Y-95378037D01*
X203089557Y-95371519D01*
X203155740Y-95365000D01*
X203244260Y-95365000D01*
X203310443Y-95371519D01*
X203310443Y-95371519D01*
G37*
G36*
X186684228Y-93923703D02*
G01*
X186839100Y-93987853D01*
X186978481Y-94080985D01*
X187097015Y-94199519D01*
X187190147Y-94338900D01*
X187254297Y-94493772D01*
X187287000Y-94658184D01*
X187287000Y-94825816D01*
X187254297Y-94990228D01*
X187190147Y-95145100D01*
X187097015Y-95284481D01*
X186978481Y-95403015D01*
X186839100Y-95496147D01*
X186684228Y-95560297D01*
X186519816Y-95593000D01*
X186352184Y-95593000D01*
X186187772Y-95560297D01*
X186032900Y-95496147D01*
X185893519Y-95403015D01*
X185774985Y-95284481D01*
X185681853Y-95145100D01*
X185617703Y-94990228D01*
X185585000Y-94825816D01*
X185585000Y-94658184D01*
X185617703Y-94493772D01*
X185681853Y-94338900D01*
X185774985Y-94199519D01*
X185893519Y-94080985D01*
X186032900Y-93987853D01*
X186187772Y-93923703D01*
X186352184Y-93891000D01*
X186519816Y-93891000D01*
X186684228Y-93923703D01*
X186684228Y-93923703D01*
G37*
G36*
X194222823Y-93903313D02*
G01*
X194383242Y-93951976D01*
X194450361Y-93987852D01*
X194531078Y-94030996D01*
X194660659Y-94137341D01*
X194767004Y-94266922D01*
X194767005Y-94266924D01*
X194846024Y-94414758D01*
X194894687Y-94575177D01*
X194911117Y-94742000D01*
X194894687Y-94908823D01*
X194846024Y-95069242D01*
X194805477Y-95145100D01*
X194767004Y-95217078D01*
X194660659Y-95346659D01*
X194531078Y-95453004D01*
X194531076Y-95453005D01*
X194383242Y-95532024D01*
X194222823Y-95580687D01*
X194097804Y-95593000D01*
X194014196Y-95593000D01*
X193889177Y-95580687D01*
X193728758Y-95532024D01*
X193580924Y-95453005D01*
X193580922Y-95453004D01*
X193451341Y-95346659D01*
X193344996Y-95217078D01*
X193306523Y-95145100D01*
X193265976Y-95069242D01*
X193217313Y-94908823D01*
X193200883Y-94742000D01*
X193217313Y-94575177D01*
X193265976Y-94414758D01*
X193344995Y-94266924D01*
X193344996Y-94266922D01*
X193451341Y-94137341D01*
X193580922Y-94030996D01*
X193661639Y-93987852D01*
X193728758Y-93951976D01*
X193889177Y-93903313D01*
X194014196Y-93891000D01*
X194097804Y-93891000D01*
X194222823Y-93903313D01*
X194222823Y-93903313D01*
G37*
G36*
X200770442Y-92831518D02*
G01*
X200836627Y-92838037D01*
X201006466Y-92889557D01*
X201162991Y-92973222D01*
X201198729Y-93002552D01*
X201300186Y-93085814D01*
X201383448Y-93187271D01*
X201412778Y-93223009D01*
X201496443Y-93379534D01*
X201547963Y-93549373D01*
X201565359Y-93726000D01*
X201547963Y-93902627D01*
X201496443Y-94072466D01*
X201496442Y-94072468D01*
X201461766Y-94137341D01*
X201412778Y-94228991D01*
X201383448Y-94264729D01*
X201300186Y-94366186D01*
X201198729Y-94449448D01*
X201162991Y-94478778D01*
X201006466Y-94562443D01*
X200836627Y-94613963D01*
X200770443Y-94620481D01*
X200704260Y-94627000D01*
X200615740Y-94627000D01*
X200549557Y-94620481D01*
X200483373Y-94613963D01*
X200313534Y-94562443D01*
X200157009Y-94478778D01*
X200121271Y-94449448D01*
X200019814Y-94366186D01*
X199936552Y-94264729D01*
X199907222Y-94228991D01*
X199858234Y-94137341D01*
X199823558Y-94072468D01*
X199823557Y-94072466D01*
X199772037Y-93902627D01*
X199754641Y-93726000D01*
X199772037Y-93549373D01*
X199823557Y-93379534D01*
X199907222Y-93223009D01*
X199936552Y-93187271D01*
X200019814Y-93085814D01*
X200121271Y-93002552D01*
X200157009Y-92973222D01*
X200313534Y-92889557D01*
X200483373Y-92838037D01*
X200549558Y-92831518D01*
X200615740Y-92825000D01*
X200704260Y-92825000D01*
X200770442Y-92831518D01*
X200770442Y-92831518D01*
G37*
G36*
X165493000Y-94627000D02*
G01*
X163691000Y-94627000D01*
X163691000Y-92825000D01*
X165493000Y-92825000D01*
X165493000Y-94627000D01*
X165493000Y-94627000D01*
G37*
G36*
X203310442Y-92831518D02*
G01*
X203376627Y-92838037D01*
X203546466Y-92889557D01*
X203702991Y-92973222D01*
X203738729Y-93002552D01*
X203840186Y-93085814D01*
X203923448Y-93187271D01*
X203952778Y-93223009D01*
X204036443Y-93379534D01*
X204087963Y-93549373D01*
X204105359Y-93726000D01*
X204087963Y-93902627D01*
X204036443Y-94072466D01*
X204036442Y-94072468D01*
X204001766Y-94137341D01*
X203952778Y-94228991D01*
X203923448Y-94264729D01*
X203840186Y-94366186D01*
X203738729Y-94449448D01*
X203702991Y-94478778D01*
X203546466Y-94562443D01*
X203376627Y-94613963D01*
X203310443Y-94620481D01*
X203244260Y-94627000D01*
X203155740Y-94627000D01*
X203089557Y-94620481D01*
X203023373Y-94613963D01*
X202853534Y-94562443D01*
X202697009Y-94478778D01*
X202661271Y-94449448D01*
X202559814Y-94366186D01*
X202476552Y-94264729D01*
X202447222Y-94228991D01*
X202398234Y-94137341D01*
X202363558Y-94072468D01*
X202363557Y-94072466D01*
X202312037Y-93902627D01*
X202294641Y-93726000D01*
X202312037Y-93549373D01*
X202363557Y-93379534D01*
X202447222Y-93223009D01*
X202476552Y-93187271D01*
X202559814Y-93085814D01*
X202661271Y-93002552D01*
X202697009Y-92973222D01*
X202853534Y-92889557D01*
X203023373Y-92838037D01*
X203089558Y-92831518D01*
X203155740Y-92825000D01*
X203244260Y-92825000D01*
X203310442Y-92831518D01*
X203310442Y-92831518D01*
G37*
G36*
X200770443Y-90291519D02*
G01*
X200836627Y-90298037D01*
X201006466Y-90349557D01*
X201162991Y-90433222D01*
X201198729Y-90462552D01*
X201300186Y-90545814D01*
X201367980Y-90628423D01*
X201412778Y-90683009D01*
X201496443Y-90839534D01*
X201547963Y-91009373D01*
X201565359Y-91186000D01*
X201547963Y-91362627D01*
X201496443Y-91532466D01*
X201412778Y-91688991D01*
X201383448Y-91724729D01*
X201300186Y-91826186D01*
X201233485Y-91880925D01*
X201162991Y-91938778D01*
X201006466Y-92022443D01*
X200836627Y-92073963D01*
X200770443Y-92080481D01*
X200704260Y-92087000D01*
X200615740Y-92087000D01*
X200549557Y-92080481D01*
X200483373Y-92073963D01*
X200313534Y-92022443D01*
X200157009Y-91938778D01*
X200086515Y-91880925D01*
X200019814Y-91826186D01*
X199936552Y-91724729D01*
X199907222Y-91688991D01*
X199823557Y-91532466D01*
X199772037Y-91362627D01*
X199754641Y-91186000D01*
X199772037Y-91009373D01*
X199823557Y-90839534D01*
X199907222Y-90683009D01*
X199952020Y-90628423D01*
X200019814Y-90545814D01*
X200121271Y-90462552D01*
X200157009Y-90433222D01*
X200313534Y-90349557D01*
X200483373Y-90298037D01*
X200549558Y-90291518D01*
X200615740Y-90285000D01*
X200704260Y-90285000D01*
X200770443Y-90291519D01*
X200770443Y-90291519D01*
G37*
G36*
X203310443Y-90291519D02*
G01*
X203376627Y-90298037D01*
X203546466Y-90349557D01*
X203702991Y-90433222D01*
X203738729Y-90462552D01*
X203840186Y-90545814D01*
X203907980Y-90628423D01*
X203952778Y-90683009D01*
X204036443Y-90839534D01*
X204087963Y-91009373D01*
X204105359Y-91186000D01*
X204087963Y-91362627D01*
X204036443Y-91532466D01*
X203952778Y-91688991D01*
X203923448Y-91724729D01*
X203840186Y-91826186D01*
X203773485Y-91880925D01*
X203702991Y-91938778D01*
X203546466Y-92022443D01*
X203376627Y-92073963D01*
X203310443Y-92080481D01*
X203244260Y-92087000D01*
X203155740Y-92087000D01*
X203089557Y-92080481D01*
X203023373Y-92073963D01*
X202853534Y-92022443D01*
X202697009Y-91938778D01*
X202626515Y-91880925D01*
X202559814Y-91826186D01*
X202476552Y-91724729D01*
X202447222Y-91688991D01*
X202363557Y-91532466D01*
X202312037Y-91362627D01*
X202294641Y-91186000D01*
X202312037Y-91009373D01*
X202363557Y-90839534D01*
X202447222Y-90683009D01*
X202492020Y-90628423D01*
X202559814Y-90545814D01*
X202661271Y-90462552D01*
X202697009Y-90433222D01*
X202853534Y-90349557D01*
X203023373Y-90298037D01*
X203089558Y-90291518D01*
X203155740Y-90285000D01*
X203244260Y-90285000D01*
X203310443Y-90291519D01*
X203310443Y-90291519D01*
G37*
G36*
X164702443Y-90291519D02*
G01*
X164768627Y-90298037D01*
X164938466Y-90349557D01*
X165094991Y-90433222D01*
X165130729Y-90462552D01*
X165232186Y-90545814D01*
X165299980Y-90628423D01*
X165344778Y-90683009D01*
X165428443Y-90839534D01*
X165479963Y-91009373D01*
X165497359Y-91186000D01*
X165479963Y-91362627D01*
X165428443Y-91532466D01*
X165344778Y-91688991D01*
X165315448Y-91724729D01*
X165232186Y-91826186D01*
X165165485Y-91880925D01*
X165094991Y-91938778D01*
X164938466Y-92022443D01*
X164768627Y-92073963D01*
X164702443Y-92080481D01*
X164636260Y-92087000D01*
X164547740Y-92087000D01*
X164481557Y-92080481D01*
X164415373Y-92073963D01*
X164245534Y-92022443D01*
X164089009Y-91938778D01*
X164018515Y-91880925D01*
X163951814Y-91826186D01*
X163868552Y-91724729D01*
X163839222Y-91688991D01*
X163755557Y-91532466D01*
X163704037Y-91362627D01*
X163686641Y-91186000D01*
X163704037Y-91009373D01*
X163755557Y-90839534D01*
X163839222Y-90683009D01*
X163884020Y-90628423D01*
X163951814Y-90545814D01*
X164053271Y-90462552D01*
X164089009Y-90433222D01*
X164245534Y-90349557D01*
X164415373Y-90298037D01*
X164481558Y-90291518D01*
X164547740Y-90285000D01*
X164636260Y-90285000D01*
X164702443Y-90291519D01*
X164702443Y-90291519D01*
G37*
G36*
X180321000Y-91929000D02*
G01*
X177819000Y-91929000D01*
X177819000Y-89427000D01*
X180321000Y-89427000D01*
X180321000Y-91929000D01*
X180321000Y-91929000D01*
G37*
G36*
X182934903Y-89475075D02*
G01*
X183077072Y-89533963D01*
X183162571Y-89569378D01*
X183367466Y-89706285D01*
X183541715Y-89880534D01*
X183541716Y-89880536D01*
X183678623Y-90085431D01*
X183772925Y-90313097D01*
X183821000Y-90554786D01*
X183821000Y-90801214D01*
X183797458Y-90919569D01*
X183772925Y-91042903D01*
X183678622Y-91270571D01*
X183541715Y-91475466D01*
X183367466Y-91649715D01*
X183162571Y-91786622D01*
X183162570Y-91786623D01*
X183162569Y-91786623D01*
X182934903Y-91880925D01*
X182693214Y-91929000D01*
X182446786Y-91929000D01*
X182205097Y-91880925D01*
X181977431Y-91786623D01*
X181977430Y-91786623D01*
X181977429Y-91786622D01*
X181772534Y-91649715D01*
X181598285Y-91475466D01*
X181461378Y-91270571D01*
X181367075Y-91042903D01*
X181342542Y-90919569D01*
X181319000Y-90801214D01*
X181319000Y-90554786D01*
X181367075Y-90313097D01*
X181461377Y-90085431D01*
X181598284Y-89880536D01*
X181598285Y-89880534D01*
X181772534Y-89706285D01*
X181977429Y-89569378D01*
X182062929Y-89533963D01*
X182205097Y-89475075D01*
X182446786Y-89427000D01*
X182693214Y-89427000D01*
X182934903Y-89475075D01*
X182934903Y-89475075D01*
G37*
G36*
X196274348Y-90249820D02*
G01*
X196274350Y-90249821D01*
X196274351Y-90249821D01*
X196415574Y-90308317D01*
X196415577Y-90308319D01*
X196542669Y-90393239D01*
X196650761Y-90501331D01*
X196680484Y-90545815D01*
X196735683Y-90628426D01*
X196794179Y-90769649D01*
X196794180Y-90769652D01*
X196808080Y-90839534D01*
X196824000Y-90919571D01*
X196824000Y-91072429D01*
X196794179Y-91222351D01*
X196735683Y-91363574D01*
X196735681Y-91363577D01*
X196650761Y-91490669D01*
X196542669Y-91598761D01*
X196466409Y-91649716D01*
X196415574Y-91683683D01*
X196274351Y-91742179D01*
X196274350Y-91742179D01*
X196274348Y-91742180D01*
X196124431Y-91772000D01*
X195971569Y-91772000D01*
X195821652Y-91742180D01*
X195821650Y-91742179D01*
X195821649Y-91742179D01*
X195680426Y-91683683D01*
X195629591Y-91649716D01*
X195553331Y-91598761D01*
X195445239Y-91490669D01*
X195360319Y-91363577D01*
X195360317Y-91363574D01*
X195301821Y-91222351D01*
X195272000Y-91072429D01*
X195272000Y-90919571D01*
X195287920Y-90839534D01*
X195301820Y-90769652D01*
X195301821Y-90769649D01*
X195360317Y-90628426D01*
X195415516Y-90545815D01*
X195445239Y-90501331D01*
X195553331Y-90393239D01*
X195680423Y-90308319D01*
X195680426Y-90308317D01*
X195821649Y-90249821D01*
X195821650Y-90249821D01*
X195821652Y-90249820D01*
X195971569Y-90220000D01*
X196124431Y-90220000D01*
X196274348Y-90249820D01*
X196274348Y-90249820D01*
G37*
G36*
X191274348Y-90249820D02*
G01*
X191274350Y-90249821D01*
X191274351Y-90249821D01*
X191415574Y-90308317D01*
X191415577Y-90308319D01*
X191542669Y-90393239D01*
X191650761Y-90501331D01*
X191680484Y-90545815D01*
X191735683Y-90628426D01*
X191794179Y-90769649D01*
X191794180Y-90769652D01*
X191808080Y-90839534D01*
X191824000Y-90919571D01*
X191824000Y-91072429D01*
X191794179Y-91222351D01*
X191735683Y-91363574D01*
X191735681Y-91363577D01*
X191650761Y-91490669D01*
X191542669Y-91598761D01*
X191466409Y-91649716D01*
X191415574Y-91683683D01*
X191274351Y-91742179D01*
X191274350Y-91742179D01*
X191274348Y-91742180D01*
X191124431Y-91772000D01*
X190971569Y-91772000D01*
X190821652Y-91742180D01*
X190821650Y-91742179D01*
X190821649Y-91742179D01*
X190680426Y-91683683D01*
X190629591Y-91649716D01*
X190553331Y-91598761D01*
X190445239Y-91490669D01*
X190360319Y-91363577D01*
X190360317Y-91363574D01*
X190301821Y-91222351D01*
X190272000Y-91072429D01*
X190272000Y-90919571D01*
X190287920Y-90839534D01*
X190301820Y-90769652D01*
X190301821Y-90769649D01*
X190360317Y-90628426D01*
X190415516Y-90545815D01*
X190445239Y-90501331D01*
X190553331Y-90393239D01*
X190680423Y-90308319D01*
X190680426Y-90308317D01*
X190821649Y-90249821D01*
X190821650Y-90249821D01*
X190821652Y-90249820D01*
X190971569Y-90220000D01*
X191124431Y-90220000D01*
X191274348Y-90249820D01*
X191274348Y-90249820D01*
G37*
G36*
X203310442Y-87751518D02*
G01*
X203376627Y-87758037D01*
X203546466Y-87809557D01*
X203702991Y-87893222D01*
X203738729Y-87922552D01*
X203840186Y-88005814D01*
X203923448Y-88107271D01*
X203952778Y-88143009D01*
X204036443Y-88299534D01*
X204087963Y-88469373D01*
X204105359Y-88646000D01*
X204087963Y-88822627D01*
X204036443Y-88992466D01*
X203952778Y-89148991D01*
X203923448Y-89184729D01*
X203840186Y-89286186D01*
X203738729Y-89369448D01*
X203702991Y-89398778D01*
X203702989Y-89398779D01*
X203560251Y-89475075D01*
X203546466Y-89482443D01*
X203376627Y-89533963D01*
X203310442Y-89540482D01*
X203244260Y-89547000D01*
X203155740Y-89547000D01*
X203089558Y-89540482D01*
X203023373Y-89533963D01*
X202853534Y-89482443D01*
X202839750Y-89475075D01*
X202697011Y-89398779D01*
X202697009Y-89398778D01*
X202661271Y-89369448D01*
X202559814Y-89286186D01*
X202476552Y-89184729D01*
X202447222Y-89148991D01*
X202363557Y-88992466D01*
X202312037Y-88822627D01*
X202294641Y-88646000D01*
X202312037Y-88469373D01*
X202363557Y-88299534D01*
X202447222Y-88143009D01*
X202476552Y-88107271D01*
X202559814Y-88005814D01*
X202661271Y-87922552D01*
X202697009Y-87893222D01*
X202853534Y-87809557D01*
X203023373Y-87758037D01*
X203089558Y-87751518D01*
X203155740Y-87745000D01*
X203244260Y-87745000D01*
X203310442Y-87751518D01*
X203310442Y-87751518D01*
G37*
G36*
X164702442Y-87751518D02*
G01*
X164768627Y-87758037D01*
X164938466Y-87809557D01*
X165094991Y-87893222D01*
X165130729Y-87922552D01*
X165232186Y-88005814D01*
X165315448Y-88107271D01*
X165344778Y-88143009D01*
X165428443Y-88299534D01*
X165479963Y-88469373D01*
X165497359Y-88646000D01*
X165479963Y-88822627D01*
X165428443Y-88992466D01*
X165344778Y-89148991D01*
X165315448Y-89184729D01*
X165232186Y-89286186D01*
X165130729Y-89369448D01*
X165094991Y-89398778D01*
X165094989Y-89398779D01*
X164952251Y-89475075D01*
X164938466Y-89482443D01*
X164768627Y-89533963D01*
X164702442Y-89540482D01*
X164636260Y-89547000D01*
X164547740Y-89547000D01*
X164481558Y-89540482D01*
X164415373Y-89533963D01*
X164245534Y-89482443D01*
X164231750Y-89475075D01*
X164089011Y-89398779D01*
X164089009Y-89398778D01*
X164053271Y-89369448D01*
X163951814Y-89286186D01*
X163868552Y-89184729D01*
X163839222Y-89148991D01*
X163755557Y-88992466D01*
X163704037Y-88822627D01*
X163686641Y-88646000D01*
X163704037Y-88469373D01*
X163755557Y-88299534D01*
X163839222Y-88143009D01*
X163868552Y-88107271D01*
X163951814Y-88005814D01*
X164053271Y-87922552D01*
X164089009Y-87893222D01*
X164245534Y-87809557D01*
X164415373Y-87758037D01*
X164481558Y-87751518D01*
X164547740Y-87745000D01*
X164636260Y-87745000D01*
X164702442Y-87751518D01*
X164702442Y-87751518D01*
G37*
G36*
X200770442Y-87751518D02*
G01*
X200836627Y-87758037D01*
X201006466Y-87809557D01*
X201162991Y-87893222D01*
X201198729Y-87922552D01*
X201300186Y-88005814D01*
X201383448Y-88107271D01*
X201412778Y-88143009D01*
X201496443Y-88299534D01*
X201547963Y-88469373D01*
X201565359Y-88646000D01*
X201547963Y-88822627D01*
X201496443Y-88992466D01*
X201412778Y-89148991D01*
X201383448Y-89184729D01*
X201300186Y-89286186D01*
X201198729Y-89369448D01*
X201162991Y-89398778D01*
X201162989Y-89398779D01*
X201020251Y-89475075D01*
X201006466Y-89482443D01*
X200836627Y-89533963D01*
X200770442Y-89540482D01*
X200704260Y-89547000D01*
X200615740Y-89547000D01*
X200549558Y-89540482D01*
X200483373Y-89533963D01*
X200313534Y-89482443D01*
X200299750Y-89475075D01*
X200157011Y-89398779D01*
X200157009Y-89398778D01*
X200121271Y-89369448D01*
X200019814Y-89286186D01*
X199936552Y-89184729D01*
X199907222Y-89148991D01*
X199823557Y-88992466D01*
X199772037Y-88822627D01*
X199754641Y-88646000D01*
X199772037Y-88469373D01*
X199823557Y-88299534D01*
X199907222Y-88143009D01*
X199936552Y-88107271D01*
X200019814Y-88005814D01*
X200121271Y-87922552D01*
X200157009Y-87893222D01*
X200313534Y-87809557D01*
X200483373Y-87758037D01*
X200549558Y-87751518D01*
X200615740Y-87745000D01*
X200704260Y-87745000D01*
X200770442Y-87751518D01*
X200770442Y-87751518D01*
G37*
G36*
X190151114Y-87302611D02*
G01*
X190250265Y-87332688D01*
X190341644Y-87381531D01*
X190421738Y-87447262D01*
X190487469Y-87527356D01*
X190536312Y-87618735D01*
X190566389Y-87717886D01*
X190574000Y-87795161D01*
X190574000Y-88796839D01*
X190566389Y-88874114D01*
X190536312Y-88973265D01*
X190487469Y-89064644D01*
X190421738Y-89144738D01*
X190341644Y-89210469D01*
X190250264Y-89259312D01*
X190151113Y-89289389D01*
X190048000Y-89299545D01*
X189944886Y-89289389D01*
X189845735Y-89259312D01*
X189754356Y-89210469D01*
X189674262Y-89144738D01*
X189608531Y-89064644D01*
X189559688Y-88973264D01*
X189529611Y-88874113D01*
X189522000Y-88796838D01*
X189522001Y-87795161D01*
X189529612Y-87717886D01*
X189559689Y-87618735D01*
X189608532Y-87527356D01*
X189674263Y-87447262D01*
X189754357Y-87381531D01*
X189845736Y-87332688D01*
X189944887Y-87302611D01*
X190048000Y-87292455D01*
X190151114Y-87302611D01*
X190151114Y-87302611D01*
G37*
G36*
X197151114Y-87302611D02*
G01*
X197250265Y-87332688D01*
X197341644Y-87381531D01*
X197421738Y-87447262D01*
X197487469Y-87527356D01*
X197536312Y-87618735D01*
X197566389Y-87717886D01*
X197574000Y-87795161D01*
X197574000Y-88796839D01*
X197566389Y-88874114D01*
X197536312Y-88973265D01*
X197487469Y-89064644D01*
X197421738Y-89144738D01*
X197341644Y-89210469D01*
X197250264Y-89259312D01*
X197151113Y-89289389D01*
X197048000Y-89299545D01*
X196944886Y-89289389D01*
X196845735Y-89259312D01*
X196754356Y-89210469D01*
X196674262Y-89144738D01*
X196608531Y-89064644D01*
X196559688Y-88973264D01*
X196529611Y-88874113D01*
X196522000Y-88796838D01*
X196522001Y-87795161D01*
X196529612Y-87717886D01*
X196559689Y-87618735D01*
X196608532Y-87527356D01*
X196674263Y-87447262D01*
X196754357Y-87381531D01*
X196845736Y-87332688D01*
X196944887Y-87302611D01*
X197048000Y-87292455D01*
X197151114Y-87302611D01*
X197151114Y-87302611D01*
G37*
M02*
