M48
; DRILL file {KiCad (5.1.4)-1} date 12-Dec-19 14:50:33
; FORMAT={3:3/ absolute / metric / suppress leading zeros}
; #@! TF.CreationDate,2019-12-12T14:50:33-05:00
; #@! TF.GenerationSoftware,Kicad,Pcbnew,(5.1.4)-1
FMAT,2
METRIC,TZ
T1C0.400
T2C0.600
T3C0.800
T4C0.850
T5C1.000
T6C1.200
%
G90
G05
T1
X169926Y-119634
X175260Y-104648
X180340Y-104648
X190246Y-104648
X190500Y-112014
X195072Y-103378
X195072Y-105664
X197612Y-103886
X197612Y-106426
T2
X190048Y-88296
X197048Y-88296
T3
X164338Y-105410
X164338Y-113030
X170434Y-98044
X178054Y-98044
X172212Y-112014
X172212Y-119634
X187706Y-112522
X195326Y-112522
X171196Y-101346
X171196Y-108966
X173736Y-101346
X173736Y-108966
X176276Y-101346
X176276Y-108966
X178816Y-101346
X178816Y-108966
X181356Y-101346
X181356Y-108966
X183896Y-101346
X183896Y-108966
X186436Y-101346
X186436Y-108966
X188976Y-101346
X188976Y-108966
X191516Y-101346
X191516Y-108966
X194056Y-101346
X194056Y-108966
X181356Y-98044
X188976Y-98044
X186436Y-94742
X194056Y-94742
X167640Y-105410
X167640Y-113030
X197612Y-101346
X197612Y-108966
T4
X191048Y-90996
X196048Y-90996
T5
X164592Y-88646
X164592Y-91186
X164592Y-93726
X176276Y-118872
X178816Y-118872
X181356Y-118872
X183896Y-118872
X186436Y-118872
X188976Y-118872
X191516Y-118872
X194056Y-118872
X196596Y-118872
X164592Y-116586
X164592Y-119126
X167132Y-116586
X167132Y-119126
X200660Y-88646
X200660Y-91186
X200660Y-93726
X200660Y-96266
X200660Y-98806
X200660Y-101346
X200660Y-103886
X200660Y-106426
X200660Y-108966
X200660Y-111506
X200660Y-114046
X200660Y-116586
X200660Y-119126
X203200Y-88646
X203200Y-91186
X203200Y-93726
X203200Y-96266
X203200Y-98806
X203200Y-101346
X203200Y-103886
X203200Y-106426
X203200Y-108966
X203200Y-111506
X203200Y-114046
X203200Y-116586
X203200Y-119126
T6
X179070Y-90678
X182570Y-90678
T0
M30
