G04 #@! TF.GenerationSoftware,KiCad,Pcbnew,(5.1.4)-1*
G04 #@! TF.CreationDate,2019-12-12T14:50:36-05:00*
G04 #@! TF.ProjectId,led_lock_ctrl,6c65645f-6c6f-4636-9b5f-6374726c2e6b,rev?*
G04 #@! TF.SameCoordinates,Original*
G04 #@! TF.FileFunction,Legend,Top*
G04 #@! TF.FilePolarity,Positive*
%FSLAX46Y46*%
G04 Gerber Fmt 4.6, Leading zero omitted, Abs format (unit mm)*
G04 Created by KiCad (PCBNEW (5.1.4)-1) date 2019-12-12 14:50:36*
%MOMM*%
%LPD*%
G04 APERTURE LIST*
%ADD10C,0.100000*%
%ADD11C,0.150000*%
%ADD12C,0.080000*%
%ADD13C,0.060000*%
%ADD14C,0.120000*%
%ADD15C,0.127000*%
%ADD16C,0.200000*%
%ADD17C,0.050000*%
G04 APERTURE END LIST*
D10*
X169088666Y-116536000D02*
X169188666Y-116569333D01*
X169222000Y-116602666D01*
X169255333Y-116669333D01*
X169255333Y-116769333D01*
X169222000Y-116836000D01*
X169188666Y-116869333D01*
X169122000Y-116902666D01*
X168855333Y-116902666D01*
X168855333Y-116202666D01*
X169088666Y-116202666D01*
X169155333Y-116236000D01*
X169188666Y-116269333D01*
X169222000Y-116336000D01*
X169222000Y-116402666D01*
X169188666Y-116469333D01*
X169155333Y-116502666D01*
X169088666Y-116536000D01*
X168855333Y-116536000D01*
X169455333Y-116202666D02*
X169855333Y-116202666D01*
X169655333Y-116902666D02*
X169655333Y-116202666D01*
X170088666Y-116902666D02*
X170088666Y-116202666D01*
X170488666Y-116902666D01*
X170488666Y-116202666D01*
X168805333Y-118996666D02*
X169238666Y-118996666D01*
X169005333Y-119263333D01*
X169105333Y-119263333D01*
X169172000Y-119296666D01*
X169205333Y-119330000D01*
X169238666Y-119396666D01*
X169238666Y-119563333D01*
X169205333Y-119630000D01*
X169172000Y-119663333D01*
X169105333Y-119696666D01*
X168905333Y-119696666D01*
X168838666Y-119663333D01*
X168805333Y-119630000D01*
X169438666Y-118996666D02*
X169672000Y-119696666D01*
X169905333Y-118996666D01*
X170072000Y-118996666D02*
X170505333Y-118996666D01*
X170272000Y-119263333D01*
X170372000Y-119263333D01*
X170438666Y-119296666D01*
X170472000Y-119330000D01*
X170505333Y-119396666D01*
X170505333Y-119563333D01*
X170472000Y-119630000D01*
X170438666Y-119663333D01*
X170372000Y-119696666D01*
X170172000Y-119696666D01*
X170105333Y-119663333D01*
X170072000Y-119630000D01*
D11*
X177990857Y-95210380D02*
X177514666Y-95210380D01*
X177467047Y-95686571D01*
X177514666Y-95638952D01*
X177609904Y-95591333D01*
X177848000Y-95591333D01*
X177943238Y-95638952D01*
X177990857Y-95686571D01*
X178038476Y-95781809D01*
X178038476Y-96019904D01*
X177990857Y-96115142D01*
X177943238Y-96162761D01*
X177848000Y-96210380D01*
X177609904Y-96210380D01*
X177514666Y-96162761D01*
X177467047Y-96115142D01*
X178324190Y-95210380D02*
X178657523Y-96210380D01*
X178990857Y-95210380D01*
X182133714Y-95258000D02*
X182038476Y-95210380D01*
X181895619Y-95210380D01*
X181752761Y-95258000D01*
X181657523Y-95353238D01*
X181609904Y-95448476D01*
X181562285Y-95638952D01*
X181562285Y-95781809D01*
X181609904Y-95972285D01*
X181657523Y-96067523D01*
X181752761Y-96162761D01*
X181895619Y-96210380D01*
X181990857Y-96210380D01*
X182133714Y-96162761D01*
X182181333Y-96115142D01*
X182181333Y-95781809D01*
X181990857Y-95781809D01*
X182609904Y-96210380D02*
X182609904Y-95210380D01*
X183181333Y-96210380D01*
X183181333Y-95210380D01*
X183657523Y-96210380D02*
X183657523Y-95210380D01*
X183895619Y-95210380D01*
X184038476Y-95258000D01*
X184133714Y-95353238D01*
X184181333Y-95448476D01*
X184228952Y-95638952D01*
X184228952Y-95781809D01*
X184181333Y-95972285D01*
X184133714Y-96067523D01*
X184038476Y-96162761D01*
X183895619Y-96210380D01*
X183657523Y-96210380D01*
D12*
X174527714Y-114786285D02*
X174499142Y-114814857D01*
X174413428Y-114843428D01*
X174356285Y-114843428D01*
X174270571Y-114814857D01*
X174213428Y-114757714D01*
X174184857Y-114700571D01*
X174156285Y-114586285D01*
X174156285Y-114500571D01*
X174184857Y-114386285D01*
X174213428Y-114329142D01*
X174270571Y-114272000D01*
X174356285Y-114243428D01*
X174413428Y-114243428D01*
X174499142Y-114272000D01*
X174527714Y-114300571D01*
X174784857Y-114529142D02*
X174984857Y-114529142D01*
X175070571Y-114843428D02*
X174784857Y-114843428D01*
X174784857Y-114243428D01*
X175070571Y-114243428D01*
X175327714Y-114843428D02*
X175327714Y-114243428D01*
X175670571Y-114843428D01*
X175670571Y-114243428D01*
X175870571Y-114243428D02*
X176213428Y-114243428D01*
X176042000Y-114843428D02*
X176042000Y-114243428D01*
X176756285Y-114843428D02*
X176556285Y-114557714D01*
X176413428Y-114843428D02*
X176413428Y-114243428D01*
X176642000Y-114243428D01*
X176699142Y-114272000D01*
X176727714Y-114300571D01*
X176756285Y-114357714D01*
X176756285Y-114443428D01*
X176727714Y-114500571D01*
X176699142Y-114529142D01*
X176642000Y-114557714D01*
X176413428Y-114557714D01*
X177013428Y-114529142D02*
X177213428Y-114529142D01*
X177299142Y-114843428D02*
X177013428Y-114843428D01*
X177013428Y-114243428D01*
X177299142Y-114243428D01*
X177499142Y-114243428D02*
X177899142Y-114843428D01*
X177899142Y-114243428D02*
X177499142Y-114843428D01*
X178870571Y-114843428D02*
X178584857Y-114843428D01*
X178584857Y-114243428D01*
X179184857Y-114243428D02*
X179299142Y-114243428D01*
X179356285Y-114272000D01*
X179413428Y-114329142D01*
X179442000Y-114443428D01*
X179442000Y-114643428D01*
X179413428Y-114757714D01*
X179356285Y-114814857D01*
X179299142Y-114843428D01*
X179184857Y-114843428D01*
X179127714Y-114814857D01*
X179070571Y-114757714D01*
X179042000Y-114643428D01*
X179042000Y-114443428D01*
X179070571Y-114329142D01*
X179127714Y-114272000D01*
X179184857Y-114243428D01*
X180042000Y-114786285D02*
X180013428Y-114814857D01*
X179927714Y-114843428D01*
X179870571Y-114843428D01*
X179784857Y-114814857D01*
X179727714Y-114757714D01*
X179699142Y-114700571D01*
X179670571Y-114586285D01*
X179670571Y-114500571D01*
X179699142Y-114386285D01*
X179727714Y-114329142D01*
X179784857Y-114272000D01*
X179870571Y-114243428D01*
X179927714Y-114243428D01*
X180013428Y-114272000D01*
X180042000Y-114300571D01*
X180299142Y-114843428D02*
X180299142Y-114243428D01*
X180642000Y-114843428D02*
X180384857Y-114500571D01*
X180642000Y-114243428D02*
X180299142Y-114586285D01*
X180899142Y-114843428D02*
X180899142Y-114243428D01*
X181184857Y-114843428D02*
X181184857Y-114243428D01*
X181527714Y-114843428D01*
X181527714Y-114243428D01*
X182127714Y-114272000D02*
X182070571Y-114243428D01*
X181984857Y-114243428D01*
X181899142Y-114272000D01*
X181842000Y-114329142D01*
X181813428Y-114386285D01*
X181784857Y-114500571D01*
X181784857Y-114586285D01*
X181813428Y-114700571D01*
X181842000Y-114757714D01*
X181899142Y-114814857D01*
X181984857Y-114843428D01*
X182042000Y-114843428D01*
X182127714Y-114814857D01*
X182156285Y-114786285D01*
X182156285Y-114586285D01*
X182042000Y-114586285D01*
X183156285Y-114843428D02*
X182870571Y-114843428D01*
X182870571Y-114243428D01*
X183356285Y-114529142D02*
X183556285Y-114529142D01*
X183642000Y-114843428D02*
X183356285Y-114843428D01*
X183356285Y-114243428D01*
X183642000Y-114243428D01*
X183899142Y-114843428D02*
X183899142Y-114243428D01*
X184042000Y-114243428D01*
X184127714Y-114272000D01*
X184184857Y-114329142D01*
X184213428Y-114386285D01*
X184242000Y-114500571D01*
X184242000Y-114586285D01*
X184213428Y-114700571D01*
X184184857Y-114757714D01*
X184127714Y-114814857D01*
X184042000Y-114843428D01*
X183899142Y-114843428D01*
X185299142Y-114786285D02*
X185270571Y-114814857D01*
X185184857Y-114843428D01*
X185127714Y-114843428D01*
X185042000Y-114814857D01*
X184984857Y-114757714D01*
X184956285Y-114700571D01*
X184927714Y-114586285D01*
X184927714Y-114500571D01*
X184956285Y-114386285D01*
X184984857Y-114329142D01*
X185042000Y-114272000D01*
X185127714Y-114243428D01*
X185184857Y-114243428D01*
X185270571Y-114272000D01*
X185299142Y-114300571D01*
X185470571Y-114243428D02*
X185813428Y-114243428D01*
X185642000Y-114843428D02*
X185642000Y-114243428D01*
X186356285Y-114843428D02*
X186156285Y-114557714D01*
X186013428Y-114843428D02*
X186013428Y-114243428D01*
X186242000Y-114243428D01*
X186299142Y-114272000D01*
X186327714Y-114300571D01*
X186356285Y-114357714D01*
X186356285Y-114443428D01*
X186327714Y-114500571D01*
X186299142Y-114529142D01*
X186242000Y-114557714D01*
X186013428Y-114557714D01*
X186899142Y-114843428D02*
X186613428Y-114843428D01*
X186613428Y-114243428D01*
X174527714Y-115823428D02*
X174327714Y-115537714D01*
X174184857Y-115823428D02*
X174184857Y-115223428D01*
X174413428Y-115223428D01*
X174470571Y-115252000D01*
X174499142Y-115280571D01*
X174527714Y-115337714D01*
X174527714Y-115423428D01*
X174499142Y-115480571D01*
X174470571Y-115509142D01*
X174413428Y-115537714D01*
X174184857Y-115537714D01*
X174784857Y-115509142D02*
X174984857Y-115509142D01*
X175070571Y-115823428D02*
X174784857Y-115823428D01*
X174784857Y-115223428D01*
X175070571Y-115223428D01*
X175242000Y-115223428D02*
X175442000Y-115823428D01*
X175642000Y-115223428D01*
X176270571Y-115280571D02*
X176299142Y-115252000D01*
X176356285Y-115223428D01*
X176499142Y-115223428D01*
X176556285Y-115252000D01*
X176584857Y-115280571D01*
X176613428Y-115337714D01*
X176613428Y-115394857D01*
X176584857Y-115480571D01*
X176242000Y-115823428D01*
X176613428Y-115823428D01*
X176870571Y-115766285D02*
X176899142Y-115794857D01*
X176870571Y-115823428D01*
X176842000Y-115794857D01*
X176870571Y-115766285D01*
X176870571Y-115823428D01*
X177270571Y-115223428D02*
X177327714Y-115223428D01*
X177384857Y-115252000D01*
X177413428Y-115280571D01*
X177442000Y-115337714D01*
X177470571Y-115452000D01*
X177470571Y-115594857D01*
X177442000Y-115709142D01*
X177413428Y-115766285D01*
X177384857Y-115794857D01*
X177327714Y-115823428D01*
X177270571Y-115823428D01*
X177213428Y-115794857D01*
X177184857Y-115766285D01*
X177156285Y-115709142D01*
X177127714Y-115594857D01*
X177127714Y-115452000D01*
X177156285Y-115337714D01*
X177184857Y-115280571D01*
X177213428Y-115252000D01*
X177270571Y-115223428D01*
D13*
X175188380Y-116766952D02*
X174997904Y-116766952D01*
X174997904Y-116366952D01*
X175550285Y-116728857D02*
X175531238Y-116747904D01*
X175474095Y-116766952D01*
X175436000Y-116766952D01*
X175378857Y-116747904D01*
X175340761Y-116709809D01*
X175321714Y-116671714D01*
X175302666Y-116595523D01*
X175302666Y-116538380D01*
X175321714Y-116462190D01*
X175340761Y-116424095D01*
X175378857Y-116386000D01*
X175436000Y-116366952D01*
X175474095Y-116366952D01*
X175531238Y-116386000D01*
X175550285Y-116405047D01*
X175721714Y-116766952D02*
X175721714Y-116366952D01*
X175950285Y-116766952D02*
X175778857Y-116538380D01*
X175950285Y-116366952D02*
X175721714Y-116595523D01*
X176026476Y-116805047D02*
X176331238Y-116805047D01*
X176426476Y-116766952D02*
X176426476Y-116366952D01*
X176655047Y-116766952D01*
X176655047Y-116366952D01*
X177074095Y-116728857D02*
X177055047Y-116747904D01*
X176997904Y-116766952D01*
X176959809Y-116766952D01*
X176902666Y-116747904D01*
X176864571Y-116709809D01*
X176845523Y-116671714D01*
X176826476Y-116595523D01*
X176826476Y-116538380D01*
X176845523Y-116462190D01*
X176864571Y-116424095D01*
X176902666Y-116386000D01*
X176959809Y-116366952D01*
X176997904Y-116366952D01*
X177055047Y-116386000D01*
X177074095Y-116405047D01*
X178369333Y-116386000D02*
X178331238Y-116366952D01*
X178274095Y-116366952D01*
X178216952Y-116386000D01*
X178178857Y-116424095D01*
X178159809Y-116462190D01*
X178140761Y-116538380D01*
X178140761Y-116595523D01*
X178159809Y-116671714D01*
X178178857Y-116709809D01*
X178216952Y-116747904D01*
X178274095Y-116766952D01*
X178312190Y-116766952D01*
X178369333Y-116747904D01*
X178388380Y-116728857D01*
X178388380Y-116595523D01*
X178312190Y-116595523D01*
X178559809Y-116766952D02*
X178559809Y-116366952D01*
X178788380Y-116766952D01*
X178788380Y-116366952D01*
X178978857Y-116766952D02*
X178978857Y-116366952D01*
X179074095Y-116366952D01*
X179131238Y-116386000D01*
X179169333Y-116424095D01*
X179188380Y-116462190D01*
X179207428Y-116538380D01*
X179207428Y-116595523D01*
X179188380Y-116671714D01*
X179169333Y-116709809D01*
X179131238Y-116747904D01*
X179074095Y-116766952D01*
X178978857Y-116766952D01*
X180483619Y-116766952D02*
X180293142Y-116766952D01*
X180293142Y-116366952D01*
X180845523Y-116728857D02*
X180826476Y-116747904D01*
X180769333Y-116766952D01*
X180731238Y-116766952D01*
X180674095Y-116747904D01*
X180636000Y-116709809D01*
X180616952Y-116671714D01*
X180597904Y-116595523D01*
X180597904Y-116538380D01*
X180616952Y-116462190D01*
X180636000Y-116424095D01*
X180674095Y-116386000D01*
X180731238Y-116366952D01*
X180769333Y-116366952D01*
X180826476Y-116386000D01*
X180845523Y-116405047D01*
X181016952Y-116766952D02*
X181016952Y-116366952D01*
X181245523Y-116766952D02*
X181074095Y-116538380D01*
X181245523Y-116366952D02*
X181016952Y-116595523D01*
X181321714Y-116805047D02*
X181626476Y-116805047D01*
X181721714Y-116766952D02*
X181721714Y-116366952D01*
X181950285Y-116766952D01*
X181950285Y-116366952D01*
X182216952Y-116366952D02*
X182293142Y-116366952D01*
X182331238Y-116386000D01*
X182369333Y-116424095D01*
X182388380Y-116500285D01*
X182388380Y-116633619D01*
X182369333Y-116709809D01*
X182331238Y-116747904D01*
X182293142Y-116766952D01*
X182216952Y-116766952D01*
X182178857Y-116747904D01*
X182140761Y-116709809D01*
X182121714Y-116633619D01*
X182121714Y-116500285D01*
X182140761Y-116424095D01*
X182178857Y-116386000D01*
X182216952Y-116366952D01*
X183093142Y-116766952D02*
X182959809Y-116576476D01*
X182864571Y-116766952D02*
X182864571Y-116366952D01*
X183016952Y-116366952D01*
X183055047Y-116386000D01*
X183074095Y-116405047D01*
X183093142Y-116443142D01*
X183093142Y-116500285D01*
X183074095Y-116538380D01*
X183055047Y-116557428D01*
X183016952Y-116576476D01*
X182864571Y-116576476D01*
X183455047Y-116766952D02*
X183264571Y-116766952D01*
X183264571Y-116366952D01*
X183816952Y-116728857D02*
X183797904Y-116747904D01*
X183740761Y-116766952D01*
X183702666Y-116766952D01*
X183645523Y-116747904D01*
X183607428Y-116709809D01*
X183588380Y-116671714D01*
X183569333Y-116595523D01*
X183569333Y-116538380D01*
X183588380Y-116462190D01*
X183607428Y-116424095D01*
X183645523Y-116386000D01*
X183702666Y-116366952D01*
X183740761Y-116366952D01*
X183797904Y-116386000D01*
X183816952Y-116405047D01*
X183988380Y-116766952D02*
X183988380Y-116366952D01*
X184216952Y-116766952D02*
X184045523Y-116538380D01*
X184216952Y-116366952D02*
X183988380Y-116595523D01*
X184293142Y-116805047D02*
X184597904Y-116805047D01*
X184693142Y-116766952D02*
X184693142Y-116366952D01*
X184921714Y-116766952D01*
X184921714Y-116366952D01*
X185340761Y-116728857D02*
X185321714Y-116747904D01*
X185264571Y-116766952D01*
X185226476Y-116766952D01*
X185169333Y-116747904D01*
X185131238Y-116709809D01*
X185112190Y-116671714D01*
X185093142Y-116595523D01*
X185093142Y-116538380D01*
X185112190Y-116462190D01*
X185131238Y-116424095D01*
X185169333Y-116386000D01*
X185226476Y-116366952D01*
X185264571Y-116366952D01*
X185321714Y-116386000D01*
X185340761Y-116405047D01*
X186331238Y-116386000D02*
X186293142Y-116366952D01*
X186236000Y-116366952D01*
X186178857Y-116386000D01*
X186140761Y-116424095D01*
X186121714Y-116462190D01*
X186102666Y-116538380D01*
X186102666Y-116595523D01*
X186121714Y-116671714D01*
X186140761Y-116709809D01*
X186178857Y-116747904D01*
X186236000Y-116766952D01*
X186274095Y-116766952D01*
X186331238Y-116747904D01*
X186350285Y-116728857D01*
X186350285Y-116595523D01*
X186274095Y-116595523D01*
X186521714Y-116766952D02*
X186521714Y-116366952D01*
X186750285Y-116766952D01*
X186750285Y-116366952D01*
X186940761Y-116766952D02*
X186940761Y-116366952D01*
X187036000Y-116366952D01*
X187093142Y-116386000D01*
X187131238Y-116424095D01*
X187150285Y-116462190D01*
X187169333Y-116538380D01*
X187169333Y-116595523D01*
X187150285Y-116671714D01*
X187131238Y-116709809D01*
X187093142Y-116747904D01*
X187036000Y-116766952D01*
X186940761Y-116766952D01*
X188178857Y-116766952D02*
X188045523Y-116576476D01*
X187950285Y-116766952D02*
X187950285Y-116366952D01*
X188102666Y-116366952D01*
X188140761Y-116386000D01*
X188159809Y-116405047D01*
X188178857Y-116443142D01*
X188178857Y-116500285D01*
X188159809Y-116538380D01*
X188140761Y-116557428D01*
X188102666Y-116576476D01*
X187950285Y-116576476D01*
X188540761Y-116766952D02*
X188350285Y-116766952D01*
X188350285Y-116366952D01*
X188902666Y-116728857D02*
X188883619Y-116747904D01*
X188826476Y-116766952D01*
X188788380Y-116766952D01*
X188731238Y-116747904D01*
X188693142Y-116709809D01*
X188674095Y-116671714D01*
X188655047Y-116595523D01*
X188655047Y-116538380D01*
X188674095Y-116462190D01*
X188693142Y-116424095D01*
X188731238Y-116386000D01*
X188788380Y-116366952D01*
X188826476Y-116366952D01*
X188883619Y-116386000D01*
X188902666Y-116405047D01*
X189074095Y-116766952D02*
X189074095Y-116366952D01*
X189302666Y-116766952D02*
X189131238Y-116538380D01*
X189302666Y-116366952D02*
X189074095Y-116595523D01*
X189378857Y-116805047D02*
X189683619Y-116805047D01*
X189778857Y-116766952D02*
X189778857Y-116366952D01*
X190007428Y-116766952D01*
X190007428Y-116366952D01*
X190274095Y-116366952D02*
X190350285Y-116366952D01*
X190388380Y-116386000D01*
X190426476Y-116424095D01*
X190445523Y-116500285D01*
X190445523Y-116633619D01*
X190426476Y-116709809D01*
X190388380Y-116747904D01*
X190350285Y-116766952D01*
X190274095Y-116766952D01*
X190236000Y-116747904D01*
X190197904Y-116709809D01*
X190178857Y-116633619D01*
X190178857Y-116500285D01*
X190197904Y-116424095D01*
X190236000Y-116386000D01*
X190274095Y-116366952D01*
X191112190Y-116766952D02*
X190921714Y-116766952D01*
X190921714Y-116366952D01*
X191474095Y-116728857D02*
X191455047Y-116747904D01*
X191397904Y-116766952D01*
X191359809Y-116766952D01*
X191302666Y-116747904D01*
X191264571Y-116709809D01*
X191245523Y-116671714D01*
X191226476Y-116595523D01*
X191226476Y-116538380D01*
X191245523Y-116462190D01*
X191264571Y-116424095D01*
X191302666Y-116386000D01*
X191359809Y-116366952D01*
X191397904Y-116366952D01*
X191455047Y-116386000D01*
X191474095Y-116405047D01*
X191645523Y-116766952D02*
X191645523Y-116366952D01*
X191874095Y-116766952D02*
X191702666Y-116538380D01*
X191874095Y-116366952D02*
X191645523Y-116595523D01*
X192045523Y-116766952D02*
X192045523Y-116366952D01*
X192140761Y-116366952D01*
X192197904Y-116386000D01*
X192236000Y-116424095D01*
X192255047Y-116462190D01*
X192274095Y-116538380D01*
X192274095Y-116595523D01*
X192255047Y-116671714D01*
X192236000Y-116709809D01*
X192197904Y-116747904D01*
X192140761Y-116766952D01*
X192045523Y-116766952D01*
X192350285Y-116805047D02*
X192655047Y-116805047D01*
X192750285Y-116766952D02*
X192750285Y-116366952D01*
X192978857Y-116766952D01*
X192978857Y-116366952D01*
X193397904Y-116728857D02*
X193378857Y-116747904D01*
X193321714Y-116766952D01*
X193283619Y-116766952D01*
X193226476Y-116747904D01*
X193188380Y-116709809D01*
X193169333Y-116671714D01*
X193150285Y-116595523D01*
X193150285Y-116538380D01*
X193169333Y-116462190D01*
X193188380Y-116424095D01*
X193226476Y-116386000D01*
X193283619Y-116366952D01*
X193321714Y-116366952D01*
X193378857Y-116386000D01*
X193397904Y-116405047D01*
X194083619Y-116386000D02*
X194045523Y-116366952D01*
X193988380Y-116366952D01*
X193931238Y-116386000D01*
X193893142Y-116424095D01*
X193874095Y-116462190D01*
X193855047Y-116538380D01*
X193855047Y-116595523D01*
X193874095Y-116671714D01*
X193893142Y-116709809D01*
X193931238Y-116747904D01*
X193988380Y-116766952D01*
X194026476Y-116766952D01*
X194083619Y-116747904D01*
X194102666Y-116728857D01*
X194102666Y-116595523D01*
X194026476Y-116595523D01*
X194274095Y-116766952D02*
X194274095Y-116366952D01*
X194502666Y-116766952D01*
X194502666Y-116366952D01*
X194693142Y-116766952D02*
X194693142Y-116366952D01*
X194788380Y-116366952D01*
X194845523Y-116386000D01*
X194883619Y-116424095D01*
X194902666Y-116462190D01*
X194921714Y-116538380D01*
X194921714Y-116595523D01*
X194902666Y-116671714D01*
X194883619Y-116709809D01*
X194845523Y-116747904D01*
X194788380Y-116766952D01*
X194693142Y-116766952D01*
X195588380Y-116766952D02*
X195397904Y-116766952D01*
X195397904Y-116366952D01*
X195950285Y-116728857D02*
X195931238Y-116747904D01*
X195874095Y-116766952D01*
X195836000Y-116766952D01*
X195778857Y-116747904D01*
X195740761Y-116709809D01*
X195721714Y-116671714D01*
X195702666Y-116595523D01*
X195702666Y-116538380D01*
X195721714Y-116462190D01*
X195740761Y-116424095D01*
X195778857Y-116386000D01*
X195836000Y-116366952D01*
X195874095Y-116366952D01*
X195931238Y-116386000D01*
X195950285Y-116405047D01*
X196121714Y-116766952D02*
X196121714Y-116366952D01*
X196350285Y-116766952D02*
X196178857Y-116538380D01*
X196350285Y-116366952D02*
X196121714Y-116595523D01*
X196521714Y-116766952D02*
X196521714Y-116366952D01*
X196616952Y-116366952D01*
X196674095Y-116386000D01*
X196712190Y-116424095D01*
X196731238Y-116462190D01*
X196750285Y-116538380D01*
X196750285Y-116595523D01*
X196731238Y-116671714D01*
X196712190Y-116709809D01*
X196674095Y-116747904D01*
X196616952Y-116766952D01*
X196521714Y-116766952D01*
X196826476Y-116805047D02*
X197131238Y-116805047D01*
X197226476Y-116766952D02*
X197226476Y-116366952D01*
X197455047Y-116766952D01*
X197455047Y-116366952D01*
X197721714Y-116366952D02*
X197797904Y-116366952D01*
X197836000Y-116386000D01*
X197874095Y-116424095D01*
X197893142Y-116500285D01*
X197893142Y-116633619D01*
X197874095Y-116709809D01*
X197836000Y-116747904D01*
X197797904Y-116766952D01*
X197721714Y-116766952D01*
X197683619Y-116747904D01*
X197645523Y-116709809D01*
X197626476Y-116633619D01*
X197626476Y-116500285D01*
X197645523Y-116424095D01*
X197683619Y-116386000D01*
X197721714Y-116366952D01*
D14*
X166947904Y-94271714D02*
X166947904Y-94652666D01*
X167328857Y-94690761D01*
X167290761Y-94652666D01*
X167252666Y-94576476D01*
X167252666Y-94386000D01*
X167290761Y-94309809D01*
X167328857Y-94271714D01*
X167405047Y-94233619D01*
X167595523Y-94233619D01*
X167671714Y-94271714D01*
X167709809Y-94309809D01*
X167747904Y-94386000D01*
X167747904Y-94576476D01*
X167709809Y-94652666D01*
X167671714Y-94690761D01*
X166947904Y-94005047D02*
X167747904Y-93738380D01*
X166947904Y-93471714D01*
X166986000Y-92176476D02*
X166947904Y-92252666D01*
X166947904Y-92366952D01*
X166986000Y-92481238D01*
X167062190Y-92557428D01*
X167138380Y-92595523D01*
X167290761Y-92633619D01*
X167405047Y-92633619D01*
X167557428Y-92595523D01*
X167633619Y-92557428D01*
X167709809Y-92481238D01*
X167747904Y-92366952D01*
X167747904Y-92290761D01*
X167709809Y-92176476D01*
X167671714Y-92138380D01*
X167405047Y-92138380D01*
X167405047Y-92290761D01*
X167747904Y-91795523D02*
X166947904Y-91795523D01*
X167747904Y-91338380D01*
X166947904Y-91338380D01*
X167747904Y-90957428D02*
X166947904Y-90957428D01*
X166947904Y-90766952D01*
X166986000Y-90652666D01*
X167062190Y-90576476D01*
X167138380Y-90538380D01*
X167290761Y-90500285D01*
X167405047Y-90500285D01*
X167557428Y-90538380D01*
X167633619Y-90576476D01*
X167709809Y-90652666D01*
X167747904Y-90766952D01*
X167747904Y-90957428D01*
X167747904Y-89128857D02*
X167747904Y-89586000D01*
X167747904Y-89357428D02*
X166947904Y-89357428D01*
X167062190Y-89433619D01*
X167138380Y-89509809D01*
X167176476Y-89586000D01*
X167024095Y-88824095D02*
X166986000Y-88786000D01*
X166947904Y-88709809D01*
X166947904Y-88519333D01*
X166986000Y-88443142D01*
X167024095Y-88405047D01*
X167100285Y-88366952D01*
X167176476Y-88366952D01*
X167290761Y-88405047D01*
X167747904Y-88862190D01*
X167747904Y-88366952D01*
X166947904Y-88138380D02*
X167747904Y-87871714D01*
X166947904Y-87605047D01*
X196242000Y-108426000D02*
X196572000Y-108426000D01*
X196242000Y-101886000D02*
X196242000Y-108426000D01*
X196572000Y-101886000D02*
X196242000Y-101886000D01*
X198982000Y-108426000D02*
X198652000Y-108426000D01*
X198982000Y-101886000D02*
X198982000Y-108426000D01*
X198652000Y-101886000D02*
X198982000Y-101886000D01*
X162968000Y-112490000D02*
X163298000Y-112490000D01*
X162968000Y-105950000D02*
X162968000Y-112490000D01*
X163298000Y-105950000D02*
X162968000Y-105950000D01*
X165708000Y-112490000D02*
X165378000Y-112490000D01*
X165708000Y-105950000D02*
X165708000Y-112490000D01*
X165378000Y-105950000D02*
X165708000Y-105950000D01*
X166270000Y-112490000D02*
X166600000Y-112490000D01*
X166270000Y-105950000D02*
X166270000Y-112490000D01*
X166600000Y-105950000D02*
X166270000Y-105950000D01*
X169010000Y-112490000D02*
X168680000Y-112490000D01*
X169010000Y-105950000D02*
X169010000Y-112490000D01*
X168680000Y-105950000D02*
X169010000Y-105950000D01*
X169806000Y-100016000D02*
X169806000Y-110296000D01*
X195446000Y-100016000D02*
X169806000Y-100016000D01*
X195446000Y-110296000D02*
X195446000Y-100016000D01*
X169806000Y-110296000D02*
X195446000Y-110296000D01*
X169866000Y-102506000D02*
X169866000Y-104156000D01*
X195386000Y-102506000D02*
X169866000Y-102506000D01*
X195386000Y-107806000D02*
X195386000Y-102506000D01*
X169866000Y-107806000D02*
X195386000Y-107806000D01*
X169866000Y-106156000D02*
X169866000Y-107806000D01*
X169866000Y-104156000D02*
G75*
G02X169866000Y-106156000I0J-1000000D01*
G01*
X168462000Y-115256000D02*
X168462000Y-116586000D01*
X167132000Y-115256000D02*
X168462000Y-115256000D01*
X168462000Y-117856000D02*
X168462000Y-120456000D01*
X165862000Y-117856000D02*
X168462000Y-117856000D01*
X165862000Y-115256000D02*
X165862000Y-117856000D01*
X168462000Y-120456000D02*
X163262000Y-120456000D01*
X165862000Y-115256000D02*
X163262000Y-115256000D01*
X163262000Y-115256000D02*
X163262000Y-120456000D01*
X176670000Y-94578000D02*
X178170000Y-94578000D01*
X176670000Y-92838000D02*
X176670000Y-94578000D01*
X184730000Y-87218000D02*
X184730000Y-94338000D01*
X176910000Y-87218000D02*
X176910000Y-94338000D01*
X176910000Y-94338000D02*
X184730000Y-94338000D01*
X176910000Y-87218000D02*
X184730000Y-87218000D01*
X176910000Y-92778000D02*
X184730000Y-92778000D01*
X184125000Y-90678000D02*
G75*
G03X184125000Y-90678000I-1555000J0D01*
G01*
X179097011Y-92233492D02*
G75*
G02X178462000Y-92110000I-27011J1555492D01*
G01*
X177637891Y-91285742D02*
G75*
G02X177638000Y-90070000I1432109J607742D01*
G01*
X178462258Y-89245891D02*
G75*
G02X179678000Y-89246000I607742J-1432109D01*
G01*
X180502109Y-90070258D02*
G75*
G02X180502000Y-91286000I-1432109J-607742D01*
G01*
X179677587Y-92109385D02*
G75*
G02X179070000Y-92233000I-607587J1431385D01*
G01*
D15*
X197298000Y-86146000D02*
X197298000Y-87196000D01*
X189798000Y-86146000D02*
X197298000Y-86146000D01*
X189798000Y-87196000D02*
X189798000Y-86146000D01*
D16*
X194948000Y-92246000D02*
G75*
G03X194948000Y-92246000I-100000J0D01*
G01*
D15*
X189798000Y-91146000D02*
X189798000Y-89296000D01*
X197298000Y-89296000D02*
X197298000Y-91146000D01*
D14*
X165922000Y-95056000D02*
X164592000Y-95056000D01*
X165922000Y-93726000D02*
X165922000Y-95056000D01*
X165922000Y-92456000D02*
X163262000Y-92456000D01*
X163262000Y-92456000D02*
X163262000Y-87316000D01*
X165922000Y-92456000D02*
X165922000Y-87316000D01*
X165922000Y-87316000D02*
X163262000Y-87316000D01*
X193516000Y-96112000D02*
X193516000Y-95782000D01*
X186976000Y-96112000D02*
X193516000Y-96112000D01*
X186976000Y-95782000D02*
X186976000Y-96112000D01*
X193516000Y-93372000D02*
X193516000Y-93702000D01*
X186976000Y-93372000D02*
X193516000Y-93372000D01*
X186976000Y-93702000D02*
X186976000Y-93372000D01*
X173582000Y-112554000D02*
X173252000Y-112554000D01*
X173582000Y-119094000D02*
X173582000Y-112554000D01*
X173252000Y-119094000D02*
X173582000Y-119094000D01*
X170842000Y-112554000D02*
X171172000Y-112554000D01*
X170842000Y-119094000D02*
X170842000Y-112554000D01*
X171172000Y-119094000D02*
X170842000Y-119094000D01*
X181896000Y-96674000D02*
X181896000Y-97004000D01*
X188436000Y-96674000D02*
X181896000Y-96674000D01*
X188436000Y-97004000D02*
X188436000Y-96674000D01*
X181896000Y-99414000D02*
X181896000Y-99084000D01*
X188436000Y-99414000D02*
X181896000Y-99414000D01*
X188436000Y-99084000D02*
X188436000Y-99414000D01*
X194786000Y-113892000D02*
X194786000Y-113562000D01*
X188246000Y-113892000D02*
X194786000Y-113892000D01*
X188246000Y-113562000D02*
X188246000Y-113892000D01*
X194786000Y-111152000D02*
X194786000Y-111482000D01*
X188246000Y-111152000D02*
X194786000Y-111152000D01*
X188246000Y-111482000D02*
X188246000Y-111152000D01*
X170974000Y-96674000D02*
X170974000Y-97004000D01*
X177514000Y-96674000D02*
X170974000Y-96674000D01*
X177514000Y-97004000D02*
X177514000Y-96674000D01*
X170974000Y-99414000D02*
X170974000Y-99084000D01*
X177514000Y-99414000D02*
X170974000Y-99414000D01*
X177514000Y-99084000D02*
X177514000Y-99414000D01*
X174946000Y-117542000D02*
X174946000Y-120202000D01*
X195326000Y-117542000D02*
X174946000Y-117542000D01*
X195326000Y-120202000D02*
X174946000Y-120202000D01*
X195326000Y-117542000D02*
X195326000Y-120202000D01*
X196596000Y-117542000D02*
X197926000Y-117542000D01*
X197926000Y-117542000D02*
X197926000Y-118872000D01*
D11*
X197953333Y-100020380D02*
X197620000Y-99544190D01*
X197381904Y-100020380D02*
X197381904Y-99020380D01*
X197762857Y-99020380D01*
X197858095Y-99068000D01*
X197905714Y-99115619D01*
X197953333Y-99210857D01*
X197953333Y-99353714D01*
X197905714Y-99448952D01*
X197858095Y-99496571D01*
X197762857Y-99544190D01*
X197381904Y-99544190D01*
X198858095Y-99020380D02*
X198381904Y-99020380D01*
X198334285Y-99496571D01*
X198381904Y-99448952D01*
X198477142Y-99401333D01*
X198715238Y-99401333D01*
X198810476Y-99448952D01*
X198858095Y-99496571D01*
X198905714Y-99591809D01*
X198905714Y-99829904D01*
X198858095Y-99925142D01*
X198810476Y-99972761D01*
X198715238Y-100020380D01*
X198477142Y-100020380D01*
X198381904Y-99972761D01*
X198334285Y-99925142D01*
X164171333Y-104084380D02*
X163838000Y-103608190D01*
X163599904Y-104084380D02*
X163599904Y-103084380D01*
X163980857Y-103084380D01*
X164076095Y-103132000D01*
X164123714Y-103179619D01*
X164171333Y-103274857D01*
X164171333Y-103417714D01*
X164123714Y-103512952D01*
X164076095Y-103560571D01*
X163980857Y-103608190D01*
X163599904Y-103608190D01*
X164742761Y-103512952D02*
X164647523Y-103465333D01*
X164599904Y-103417714D01*
X164552285Y-103322476D01*
X164552285Y-103274857D01*
X164599904Y-103179619D01*
X164647523Y-103132000D01*
X164742761Y-103084380D01*
X164933238Y-103084380D01*
X165028476Y-103132000D01*
X165076095Y-103179619D01*
X165123714Y-103274857D01*
X165123714Y-103322476D01*
X165076095Y-103417714D01*
X165028476Y-103465333D01*
X164933238Y-103512952D01*
X164742761Y-103512952D01*
X164647523Y-103560571D01*
X164599904Y-103608190D01*
X164552285Y-103703428D01*
X164552285Y-103893904D01*
X164599904Y-103989142D01*
X164647523Y-104036761D01*
X164742761Y-104084380D01*
X164933238Y-104084380D01*
X165028476Y-104036761D01*
X165076095Y-103989142D01*
X165123714Y-103893904D01*
X165123714Y-103703428D01*
X165076095Y-103608190D01*
X165028476Y-103560571D01*
X164933238Y-103512952D01*
X167473333Y-104084380D02*
X167140000Y-103608190D01*
X166901904Y-104084380D02*
X166901904Y-103084380D01*
X167282857Y-103084380D01*
X167378095Y-103132000D01*
X167425714Y-103179619D01*
X167473333Y-103274857D01*
X167473333Y-103417714D01*
X167425714Y-103512952D01*
X167378095Y-103560571D01*
X167282857Y-103608190D01*
X166901904Y-103608190D01*
X167806666Y-103084380D02*
X168473333Y-103084380D01*
X168044761Y-104084380D01*
X194056095Y-98512380D02*
X194056095Y-99321904D01*
X194103714Y-99417142D01*
X194151333Y-99464761D01*
X194246571Y-99512380D01*
X194437047Y-99512380D01*
X194532285Y-99464761D01*
X194579904Y-99417142D01*
X194627523Y-99321904D01*
X194627523Y-98512380D01*
X195627523Y-99512380D02*
X195056095Y-99512380D01*
X195341809Y-99512380D02*
X195341809Y-98512380D01*
X195246571Y-98655238D01*
X195151333Y-98750476D01*
X195056095Y-98798095D01*
X167814666Y-121372380D02*
X167814666Y-122086666D01*
X167767047Y-122229523D01*
X167671809Y-122324761D01*
X167528952Y-122372380D01*
X167433714Y-122372380D01*
X168719428Y-121372380D02*
X168528952Y-121372380D01*
X168433714Y-121420000D01*
X168386095Y-121467619D01*
X168290857Y-121610476D01*
X168243238Y-121800952D01*
X168243238Y-122181904D01*
X168290857Y-122277142D01*
X168338476Y-122324761D01*
X168433714Y-122372380D01*
X168624190Y-122372380D01*
X168719428Y-122324761D01*
X168767047Y-122277142D01*
X168814666Y-122181904D01*
X168814666Y-121943809D01*
X168767047Y-121848571D01*
X168719428Y-121800952D01*
X168624190Y-121753333D01*
X168433714Y-121753333D01*
X168338476Y-121800952D01*
X168290857Y-121848571D01*
X168243238Y-121943809D01*
X180486666Y-85670380D02*
X180486666Y-86384666D01*
X180439047Y-86527523D01*
X180343809Y-86622761D01*
X180200952Y-86670380D01*
X180105714Y-86670380D01*
X181439047Y-85670380D02*
X180962857Y-85670380D01*
X180915238Y-86146571D01*
X180962857Y-86098952D01*
X181058095Y-86051333D01*
X181296190Y-86051333D01*
X181391428Y-86098952D01*
X181439047Y-86146571D01*
X181486666Y-86241809D01*
X181486666Y-86479904D01*
X181439047Y-86575142D01*
X181391428Y-86622761D01*
X181296190Y-86670380D01*
X181058095Y-86670380D01*
X180962857Y-86622761D01*
X180915238Y-86575142D01*
D17*
X196516646Y-92416348D02*
X196516646Y-93130676D01*
X196469024Y-93273542D01*
X196373780Y-93368786D01*
X196230915Y-93416408D01*
X196135671Y-93416408D01*
X197421462Y-92749701D02*
X197421462Y-93416408D01*
X197183353Y-92368726D02*
X196945243Y-93083054D01*
X197564328Y-93083054D01*
X190681180Y-85481395D02*
X190109391Y-85481395D01*
X190395285Y-85481395D02*
X190395285Y-84480765D01*
X190299987Y-84623713D01*
X190204689Y-84719011D01*
X190109391Y-84766660D01*
X191300617Y-84480765D02*
X191395915Y-84480765D01*
X191491213Y-84528415D01*
X191538862Y-84576064D01*
X191586511Y-84671362D01*
X191634160Y-84861958D01*
X191634160Y-85100203D01*
X191586511Y-85290799D01*
X191538862Y-85386097D01*
X191491213Y-85433746D01*
X191395915Y-85481395D01*
X191300617Y-85481395D01*
X191205319Y-85433746D01*
X191157670Y-85386097D01*
X191110021Y-85290799D01*
X191062372Y-85100203D01*
X191062372Y-84861958D01*
X191110021Y-84671362D01*
X191157670Y-84576064D01*
X191205319Y-84528415D01*
X191300617Y-84480765D01*
X192539492Y-84480765D02*
X192063002Y-84480765D01*
X192015353Y-84957256D01*
X192063002Y-84909607D01*
X192158300Y-84861958D01*
X192396545Y-84861958D01*
X192491843Y-84909607D01*
X192539492Y-84957256D01*
X192587141Y-85052554D01*
X192587141Y-85290799D01*
X192539492Y-85386097D01*
X192491843Y-85433746D01*
X192396545Y-85481395D01*
X192158300Y-85481395D01*
X192063002Y-85433746D01*
X192015353Y-85386097D01*
X193206579Y-84480765D02*
X193301877Y-84480765D01*
X193397175Y-84528415D01*
X193444824Y-84576064D01*
X193492473Y-84671362D01*
X193540122Y-84861958D01*
X193540122Y-85100203D01*
X193492473Y-85290799D01*
X193444824Y-85386097D01*
X193397175Y-85433746D01*
X193301877Y-85481395D01*
X193206579Y-85481395D01*
X193111281Y-85433746D01*
X193063632Y-85386097D01*
X193015983Y-85290799D01*
X192968334Y-85100203D01*
X192968334Y-84861958D01*
X193015983Y-84671362D01*
X193063632Y-84576064D01*
X193111281Y-84528415D01*
X193206579Y-84480765D01*
X194493103Y-85481395D02*
X193921315Y-85481395D01*
X194207209Y-85481395D02*
X194207209Y-84480765D01*
X194111911Y-84623713D01*
X194016613Y-84719011D01*
X193921315Y-84766660D01*
X194826647Y-84480765D02*
X195493733Y-84480765D01*
X195064892Y-85481395D01*
X196065522Y-84480765D02*
X196160820Y-84480765D01*
X196256118Y-84528415D01*
X196303767Y-84576064D01*
X196351416Y-84671362D01*
X196399065Y-84861958D01*
X196399065Y-85100203D01*
X196351416Y-85290799D01*
X196303767Y-85386097D01*
X196256118Y-85433746D01*
X196160820Y-85481395D01*
X196065522Y-85481395D01*
X195970224Y-85433746D01*
X195922575Y-85386097D01*
X195874926Y-85290799D01*
X195827277Y-85100203D01*
X195827277Y-84861958D01*
X195874926Y-84671362D01*
X195922575Y-84576064D01*
X195970224Y-84528415D01*
X196065522Y-84480765D01*
X197018503Y-84480765D02*
X197113801Y-84480765D01*
X197209099Y-84528415D01*
X197256748Y-84576064D01*
X197304397Y-84671362D01*
X197352046Y-84861958D01*
X197352046Y-85100203D01*
X197304397Y-85290799D01*
X197256748Y-85386097D01*
X197209099Y-85433746D01*
X197113801Y-85481395D01*
X197018503Y-85481395D01*
X196923205Y-85433746D01*
X196875556Y-85386097D01*
X196827907Y-85290799D01*
X196780258Y-85100203D01*
X196780258Y-84861958D01*
X196827907Y-84671362D01*
X196875556Y-84576064D01*
X196923205Y-84528415D01*
X197018503Y-84480765D01*
X197971484Y-84480765D02*
X198066782Y-84480765D01*
X198162080Y-84528415D01*
X198209729Y-84576064D01*
X198257378Y-84671362D01*
X198305027Y-84861958D01*
X198305027Y-85100203D01*
X198257378Y-85290799D01*
X198209729Y-85386097D01*
X198162080Y-85433746D01*
X198066782Y-85481395D01*
X197971484Y-85481395D01*
X197876186Y-85433746D01*
X197828537Y-85386097D01*
X197780888Y-85290799D01*
X197733239Y-85100203D01*
X197733239Y-84861958D01*
X197780888Y-84671362D01*
X197828537Y-84576064D01*
X197876186Y-84528415D01*
X197971484Y-84480765D01*
X199258008Y-85481395D02*
X198686220Y-85481395D01*
X198972114Y-85481395D02*
X198972114Y-84480765D01*
X198876816Y-84623713D01*
X198781518Y-84719011D01*
X198686220Y-84766660D01*
D11*
X198040666Y-96988380D02*
X198040666Y-97702666D01*
X197993047Y-97845523D01*
X197897809Y-97940761D01*
X197754952Y-97988380D01*
X197659714Y-97988380D01*
X198469238Y-97083619D02*
X198516857Y-97036000D01*
X198612095Y-96988380D01*
X198850190Y-96988380D01*
X198945428Y-97036000D01*
X198993047Y-97083619D01*
X199040666Y-97178857D01*
X199040666Y-97274095D01*
X198993047Y-97416952D01*
X198421619Y-97988380D01*
X199040666Y-97988380D01*
X164258666Y-85304380D02*
X164258666Y-86018666D01*
X164211047Y-86161523D01*
X164115809Y-86256761D01*
X163972952Y-86304380D01*
X163877714Y-86304380D01*
X165258666Y-86304380D02*
X164687238Y-86304380D01*
X164972952Y-86304380D02*
X164972952Y-85304380D01*
X164877714Y-85447238D01*
X164782476Y-85542476D01*
X164687238Y-85590095D01*
X195921333Y-95194380D02*
X195588000Y-94718190D01*
X195349904Y-95194380D02*
X195349904Y-94194380D01*
X195730857Y-94194380D01*
X195826095Y-94242000D01*
X195873714Y-94289619D01*
X195921333Y-94384857D01*
X195921333Y-94527714D01*
X195873714Y-94622952D01*
X195826095Y-94670571D01*
X195730857Y-94718190D01*
X195349904Y-94718190D01*
X196778476Y-94194380D02*
X196588000Y-94194380D01*
X196492761Y-94242000D01*
X196445142Y-94289619D01*
X196349904Y-94432476D01*
X196302285Y-94622952D01*
X196302285Y-95003904D01*
X196349904Y-95099142D01*
X196397523Y-95146761D01*
X196492761Y-95194380D01*
X196683238Y-95194380D01*
X196778476Y-95146761D01*
X196826095Y-95099142D01*
X196873714Y-95003904D01*
X196873714Y-94765809D01*
X196826095Y-94670571D01*
X196778476Y-94622952D01*
X196683238Y-94575333D01*
X196492761Y-94575333D01*
X196397523Y-94622952D01*
X196349904Y-94670571D01*
X196302285Y-94765809D01*
X174839333Y-112720380D02*
X174506000Y-112244190D01*
X174267904Y-112720380D02*
X174267904Y-111720380D01*
X174648857Y-111720380D01*
X174744095Y-111768000D01*
X174791714Y-111815619D01*
X174839333Y-111910857D01*
X174839333Y-112053714D01*
X174791714Y-112148952D01*
X174744095Y-112196571D01*
X174648857Y-112244190D01*
X174267904Y-112244190D01*
X175696476Y-112053714D02*
X175696476Y-112720380D01*
X175458380Y-111672761D02*
X175220285Y-112387047D01*
X175839333Y-112387047D01*
X190841333Y-98496380D02*
X190508000Y-98020190D01*
X190269904Y-98496380D02*
X190269904Y-97496380D01*
X190650857Y-97496380D01*
X190746095Y-97544000D01*
X190793714Y-97591619D01*
X190841333Y-97686857D01*
X190841333Y-97829714D01*
X190793714Y-97924952D01*
X190746095Y-97972571D01*
X190650857Y-98020190D01*
X190269904Y-98020190D01*
X191174666Y-97496380D02*
X191793714Y-97496380D01*
X191460380Y-97877333D01*
X191603238Y-97877333D01*
X191698476Y-97924952D01*
X191746095Y-97972571D01*
X191793714Y-98067809D01*
X191793714Y-98305904D01*
X191746095Y-98401142D01*
X191698476Y-98448761D01*
X191603238Y-98496380D01*
X191317523Y-98496380D01*
X191222285Y-98448761D01*
X191174666Y-98401142D01*
X184999333Y-112974380D02*
X184666000Y-112498190D01*
X184427904Y-112974380D02*
X184427904Y-111974380D01*
X184808857Y-111974380D01*
X184904095Y-112022000D01*
X184951714Y-112069619D01*
X184999333Y-112164857D01*
X184999333Y-112307714D01*
X184951714Y-112402952D01*
X184904095Y-112450571D01*
X184808857Y-112498190D01*
X184427904Y-112498190D01*
X185380285Y-112069619D02*
X185427904Y-112022000D01*
X185523142Y-111974380D01*
X185761238Y-111974380D01*
X185856476Y-112022000D01*
X185904095Y-112069619D01*
X185951714Y-112164857D01*
X185951714Y-112260095D01*
X185904095Y-112402952D01*
X185332666Y-112974380D01*
X185951714Y-112974380D01*
X167981333Y-98496380D02*
X167648000Y-98020190D01*
X167409904Y-98496380D02*
X167409904Y-97496380D01*
X167790857Y-97496380D01*
X167886095Y-97544000D01*
X167933714Y-97591619D01*
X167981333Y-97686857D01*
X167981333Y-97829714D01*
X167933714Y-97924952D01*
X167886095Y-97972571D01*
X167790857Y-98020190D01*
X167409904Y-98020190D01*
X168933714Y-98496380D02*
X168362285Y-98496380D01*
X168648000Y-98496380D02*
X168648000Y-97496380D01*
X168552761Y-97639238D01*
X168457523Y-97734476D01*
X168362285Y-97782095D01*
X196262666Y-114768380D02*
X196262666Y-115482666D01*
X196215047Y-115625523D01*
X196119809Y-115720761D01*
X195976952Y-115768380D01*
X195881714Y-115768380D01*
X196643619Y-114768380D02*
X197262666Y-114768380D01*
X196929333Y-115149333D01*
X197072190Y-115149333D01*
X197167428Y-115196952D01*
X197215047Y-115244571D01*
X197262666Y-115339809D01*
X197262666Y-115577904D01*
X197215047Y-115673142D01*
X197167428Y-115720761D01*
X197072190Y-115768380D01*
X196786476Y-115768380D01*
X196691238Y-115720761D01*
X196643619Y-115673142D01*
M02*
