G04 #@! TF.GenerationSoftware,KiCad,Pcbnew,(6.0.0-rc1-dev-392-gd9d005190)*
G04 #@! TF.CreationDate,2019-08-06T21:11:29-04:00*
G04 #@! TF.ProjectId,relay_ctrl_compressor_bainet,72656C61795F6374726C5F636F6D7072,rev?*
G04 #@! TF.SameCoordinates,Original*
G04 #@! TF.FileFunction,Copper,L1,Top,Signal*
G04 #@! TF.FilePolarity,Positive*
%FSLAX46Y46*%
G04 Gerber Fmt 4.6, Leading zero omitted, Abs format (unit mm)*
G04 Created by KiCad (PCBNEW (6.0.0-rc1-dev-392-gd9d005190)) date 08/06/19 21:11:29*
%MOMM*%
%LPD*%
G01*
G04 APERTURE LIST*
G04 #@! TA.AperFunction,ComponentPad*
%ADD10C,4.000000*%
G04 #@! TD*
G04 #@! TA.AperFunction,ComponentPad*
%ADD11C,1.600000*%
G04 #@! TD*
G04 #@! TA.AperFunction,ComponentPad*
%ADD12R,1.600000X1.600000*%
G04 #@! TD*
G04 #@! TA.AperFunction,ComponentPad*
%ADD13O,1.600000X1.600000*%
G04 #@! TD*
G04 #@! TA.AperFunction,ComponentPad*
%ADD14O,1.905000X2.000000*%
G04 #@! TD*
G04 #@! TA.AperFunction,ComponentPad*
%ADD15R,1.905000X2.000000*%
G04 #@! TD*
G04 #@! TA.AperFunction,ComponentPad*
%ADD16O,1.700000X1.700000*%
G04 #@! TD*
G04 #@! TA.AperFunction,ComponentPad*
%ADD17R,1.700000X1.700000*%
G04 #@! TD*
G04 #@! TA.AperFunction,ComponentPad*
%ADD18C,2.000000*%
G04 #@! TD*
G04 #@! TA.AperFunction,ComponentPad*
%ADD19C,1.500000*%
G04 #@! TD*
G04 #@! TA.AperFunction,ComponentPad*
%ADD20R,1.500000X1.500000*%
G04 #@! TD*
G04 #@! TA.AperFunction,ComponentPad*
%ADD21C,1.200000*%
G04 #@! TD*
G04 #@! TA.AperFunction,ComponentPad*
%ADD22R,1.200000X1.200000*%
G04 #@! TD*
G04 #@! TA.AperFunction,Conductor*
%ADD23C,0.250000*%
G04 #@! TD*
G04 #@! TA.AperFunction,Conductor*
%ADD24C,0.254000*%
G04 #@! TD*
G04 APERTURE END LIST*
D10*
G04 #@! TO.P,J2,0*
G04 #@! TO.N,GND*
X159060000Y-125245000D03*
X125760000Y-125245000D03*
D11*
G04 #@! TO.P,J2,15*
G04 #@! TO.N,Net-(J2-Pad15)*
X150720000Y-126665000D03*
G04 #@! TO.P,J2,14*
G04 #@! TO.N,Net-(J2-Pad14)*
X147950000Y-126665000D03*
G04 #@! TO.P,J2,13*
G04 #@! TO.N,/Compressor2_remoteinterlock*
X145180000Y-126665000D03*
G04 #@! TO.P,J2,12*
G04 #@! TO.N,Net-(J2-Pad12)*
X142410000Y-126665000D03*
G04 #@! TO.P,J2,11*
G04 #@! TO.N,Net-(J2-Pad11)*
X139640000Y-126665000D03*
G04 #@! TO.P,J2,10*
G04 #@! TO.N,/Compressor2_24Vreturn*
X136870000Y-126665000D03*
G04 #@! TO.P,J2,9*
G04 #@! TO.N,Net-(J2-Pad11)*
X134100000Y-126665000D03*
G04 #@! TO.P,J2,8*
G04 #@! TO.N,Net-(J2-Pad8)*
X152105000Y-123825000D03*
G04 #@! TO.P,J2,7*
G04 #@! TO.N,Net-(J2-Pad7)*
X149335000Y-123825000D03*
G04 #@! TO.P,J2,6*
G04 #@! TO.N,Net-(J2-Pad6)*
X146565000Y-123825000D03*
G04 #@! TO.P,J2,5*
G04 #@! TO.N,Net-(J2-Pad5)*
X143795000Y-123825000D03*
G04 #@! TO.P,J2,4*
G04 #@! TO.N,Net-(J2-Pad4)*
X141025000Y-123825000D03*
G04 #@! TO.P,J2,3*
G04 #@! TO.N,Net-(J2-Pad3)*
X138255000Y-123825000D03*
G04 #@! TO.P,J2,2*
G04 #@! TO.N,Compressor2_active*
X135485000Y-123825000D03*
D12*
G04 #@! TO.P,J2,1*
G04 #@! TO.N,+5V*
X132715000Y-123825000D03*
G04 #@! TD*
D10*
G04 #@! TO.P,J1,0*
G04 #@! TO.N,GND*
X117150000Y-125245000D03*
X83850000Y-125245000D03*
D11*
G04 #@! TO.P,J1,15*
G04 #@! TO.N,Net-(J1-Pad15)*
X108810000Y-126665000D03*
G04 #@! TO.P,J1,14*
G04 #@! TO.N,Net-(J1-Pad14)*
X106040000Y-126665000D03*
G04 #@! TO.P,J1,13*
G04 #@! TO.N,/Compressor1_remoteinterlock*
X103270000Y-126665000D03*
G04 #@! TO.P,J1,12*
G04 #@! TO.N,Net-(J1-Pad12)*
X100500000Y-126665000D03*
G04 #@! TO.P,J1,11*
G04 #@! TO.N,Net-(J1-Pad11)*
X97730000Y-126665000D03*
G04 #@! TO.P,J1,10*
G04 #@! TO.N,/Compressor1_24Vreturn*
X94960000Y-126665000D03*
G04 #@! TO.P,J1,9*
G04 #@! TO.N,Net-(J1-Pad11)*
X92190000Y-126665000D03*
G04 #@! TO.P,J1,8*
G04 #@! TO.N,Net-(J1-Pad8)*
X110195000Y-123825000D03*
G04 #@! TO.P,J1,7*
G04 #@! TO.N,Net-(J1-Pad7)*
X107425000Y-123825000D03*
G04 #@! TO.P,J1,6*
G04 #@! TO.N,Net-(J1-Pad6)*
X104655000Y-123825000D03*
G04 #@! TO.P,J1,5*
G04 #@! TO.N,Net-(J1-Pad5)*
X101885000Y-123825000D03*
G04 #@! TO.P,J1,4*
G04 #@! TO.N,Net-(J1-Pad4)*
X99115000Y-123825000D03*
G04 #@! TO.P,J1,3*
G04 #@! TO.N,Net-(J1-Pad3)*
X96345000Y-123825000D03*
G04 #@! TO.P,J1,2*
G04 #@! TO.N,Compressor1_active*
X93575000Y-123825000D03*
D12*
G04 #@! TO.P,J1,1*
G04 #@! TO.N,+5V*
X90805000Y-123825000D03*
G04 #@! TD*
D13*
G04 #@! TO.P,R3,2*
G04 #@! TO.N,Compressor1_interlock*
X102870000Y-105410000D03*
D11*
G04 #@! TO.P,R3,1*
G04 #@! TO.N,Net-(R3-Pad1)*
X95250000Y-105410000D03*
G04 #@! TD*
D13*
G04 #@! TO.P,U5,4*
G04 #@! TO.N,/Compressor1_remoteinterlock*
X95250000Y-116205000D03*
G04 #@! TO.P,U5,2*
G04 #@! TO.N,GND*
X92710000Y-108585000D03*
G04 #@! TO.P,U5,3*
G04 #@! TO.N,/Compressor1_24Vreturn*
X92710000Y-116205000D03*
D12*
G04 #@! TO.P,U5,1*
G04 #@! TO.N,Net-(R3-Pad1)*
X95250000Y-108585000D03*
G04 #@! TD*
D13*
G04 #@! TO.P,U6,4*
G04 #@! TO.N,/Compressor2_remoteinterlock*
X142240000Y-116205000D03*
G04 #@! TO.P,U6,2*
G04 #@! TO.N,GND*
X139700000Y-108585000D03*
G04 #@! TO.P,U6,3*
G04 #@! TO.N,/Compressor2_24Vreturn*
X139700000Y-116205000D03*
D12*
G04 #@! TO.P,U6,1*
G04 #@! TO.N,Net-(R4-Pad1)*
X142240000Y-108585000D03*
G04 #@! TD*
D13*
G04 #@! TO.P,U4,4*
G04 #@! TO.N,/Backing2_pin3*
X128270000Y-108585000D03*
G04 #@! TO.P,U4,2*
G04 #@! TO.N,GND*
X130810000Y-116205000D03*
G04 #@! TO.P,U4,3*
G04 #@! TO.N,/Backing2_10Vreference*
X130810000Y-108585000D03*
D12*
G04 #@! TO.P,U4,1*
G04 #@! TO.N,Net-(R2-Pad1)*
X128270000Y-116205000D03*
G04 #@! TD*
D13*
G04 #@! TO.P,U3,4*
G04 #@! TO.N,/Backing1_pin3*
X114935000Y-108585000D03*
G04 #@! TO.P,U3,2*
G04 #@! TO.N,GND*
X117475000Y-116205000D03*
G04 #@! TO.P,U3,3*
G04 #@! TO.N,/Backing1_10Vreference*
X117475000Y-108585000D03*
D12*
G04 #@! TO.P,U3,1*
G04 #@! TO.N,Net-(R1-Pad1)*
X114935000Y-116205000D03*
G04 #@! TD*
D13*
G04 #@! TO.P,U2,16*
G04 #@! TO.N,+5V*
X139065000Y-92075000D03*
G04 #@! TO.P,U2,8*
G04 #@! TO.N,+10V*
X156845000Y-99695000D03*
G04 #@! TO.P,U2,15*
G04 #@! TO.N,GND*
X141605000Y-92075000D03*
G04 #@! TO.P,U2,7*
X154305000Y-99695000D03*
G04 #@! TO.P,U2,14*
X144145000Y-92075000D03*
G04 #@! TO.P,U2,6*
X151765000Y-99695000D03*
G04 #@! TO.P,U2,13*
G04 #@! TO.N,/select*
X146685000Y-92075000D03*
G04 #@! TO.P,U2,5*
G04 #@! TO.N,Backing2_status*
X149225000Y-99695000D03*
G04 #@! TO.P,U2,12*
G04 #@! TO.N,GND*
X149225000Y-92075000D03*
G04 #@! TO.P,U2,4*
G04 #@! TO.N,Backing2_active*
X146685000Y-99695000D03*
G04 #@! TO.P,U2,11*
G04 #@! TO.N,GND*
X151765000Y-92075000D03*
G04 #@! TO.P,U2,3*
G04 #@! TO.N,Backing1_status*
X144145000Y-99695000D03*
G04 #@! TO.P,U2,10*
G04 #@! TO.N,GND*
X154305000Y-92075000D03*
G04 #@! TO.P,U2,2*
G04 #@! TO.N,Backing1_active*
X141605000Y-99695000D03*
G04 #@! TO.P,U2,9*
G04 #@! TO.N,GND*
X156845000Y-92075000D03*
D12*
G04 #@! TO.P,U2,1*
G04 #@! TO.N,+10V*
X139065000Y-99695000D03*
G04 #@! TD*
D14*
G04 #@! TO.P,U1,3*
G04 #@! TO.N,+5V*
X100965000Y-86360000D03*
G04 #@! TO.P,U1,2*
G04 #@! TO.N,GND*
X98425000Y-86360000D03*
D15*
G04 #@! TO.P,U1,1*
G04 #@! TO.N,+10V*
X95885000Y-86360000D03*
G04 #@! TD*
D13*
G04 #@! TO.P,R4,2*
G04 #@! TO.N,Compressor2_interlock*
X135255000Y-116205000D03*
D11*
G04 #@! TO.P,R4,1*
G04 #@! TO.N,Net-(R4-Pad1)*
X135255000Y-108585000D03*
G04 #@! TD*
D13*
G04 #@! TO.P,R2,2*
G04 #@! TO.N,Backing2_interlock*
X123190000Y-108585000D03*
D11*
G04 #@! TO.P,R2,1*
G04 #@! TO.N,Net-(R2-Pad1)*
X123190000Y-116205000D03*
G04 #@! TD*
D13*
G04 #@! TO.P,R1,2*
G04 #@! TO.N,Backing1_interlock*
X109855000Y-108585000D03*
D11*
G04 #@! TO.P,R1,1*
G04 #@! TO.N,Net-(R1-Pad1)*
X109855000Y-116205000D03*
G04 #@! TD*
D16*
G04 #@! TO.P,J7,4*
G04 #@! TO.N,/Backing2_10Vreference*
X130810000Y-104775000D03*
G04 #@! TO.P,J7,3*
G04 #@! TO.N,/Backing2_pin3*
X128270000Y-104775000D03*
G04 #@! TO.P,J7,2*
G04 #@! TO.N,Backing2_status*
X125730000Y-104775000D03*
D17*
G04 #@! TO.P,J7,1*
G04 #@! TO.N,GND*
X123190000Y-104775000D03*
G04 #@! TD*
D16*
G04 #@! TO.P,J6,4*
G04 #@! TO.N,/Backing1_10Vreference*
X117475000Y-104775000D03*
G04 #@! TO.P,J6,3*
G04 #@! TO.N,/Backing1_pin3*
X114935000Y-104775000D03*
G04 #@! TO.P,J6,2*
G04 #@! TO.N,Backing1_status*
X112395000Y-104775000D03*
D17*
G04 #@! TO.P,J6,1*
G04 #@! TO.N,GND*
X109855000Y-104775000D03*
G04 #@! TD*
D16*
G04 #@! TO.P,J5,2*
G04 #@! TO.N,+10V*
X88900000Y-86360000D03*
D17*
G04 #@! TO.P,J5,1*
G04 #@! TO.N,GND*
X86360000Y-86360000D03*
G04 #@! TD*
D16*
G04 #@! TO.P,J4,3*
G04 #@! TO.N,+10V*
X149225000Y-88265000D03*
G04 #@! TO.P,J4,2*
G04 #@! TO.N,/select*
X146685000Y-88265000D03*
D17*
G04 #@! TO.P,J4,1*
G04 #@! TO.N,GND*
X144145000Y-88265000D03*
G04 #@! TD*
D18*
G04 #@! TO.P,J3,SH*
G04 #@! TO.N,GND*
X128395000Y-89280000D03*
X112135000Y-89280000D03*
D19*
G04 #@! TO.P,J3,8*
G04 #@! TO.N,Backing2_interlock*
X116685000Y-88390000D03*
G04 #@! TO.P,J3,6*
G04 #@! TO.N,Compressor2_interlock*
X118725000Y-88390000D03*
G04 #@! TO.P,J3,4*
G04 #@! TO.N,Backing2_active*
X120765000Y-88390000D03*
G04 #@! TO.P,J3,2*
G04 #@! TO.N,Compressor2_active*
X122805000Y-88390000D03*
G04 #@! TO.P,J3,7*
G04 #@! TO.N,Backing1_interlock*
X117705000Y-90170000D03*
G04 #@! TO.P,J3,5*
G04 #@! TO.N,Compressor1_interlock*
X119745000Y-90170000D03*
G04 #@! TO.P,J3,3*
G04 #@! TO.N,Backing1_active*
X121785000Y-90170000D03*
D20*
G04 #@! TO.P,J3,1*
G04 #@! TO.N,Compressor1_active*
X123825000Y-90170000D03*
G04 #@! TD*
D11*
G04 #@! TO.P,C2,2*
G04 #@! TO.N,GND*
X101600000Y-94575000D03*
D12*
G04 #@! TO.P,C2,1*
G04 #@! TO.N,+5V*
X101600000Y-92075000D03*
G04 #@! TD*
D21*
G04 #@! TO.P,C1,2*
G04 #@! TO.N,+10V*
X93980000Y-92480000D03*
D22*
G04 #@! TO.P,C1,1*
G04 #@! TO.N,GND*
X93980000Y-93980000D03*
G04 #@! TD*
D23*
G04 #@! TO.N,+5V*
X102167500Y-86360000D02*
X100965000Y-86360000D01*
X139065000Y-92075000D02*
X133350000Y-86360000D01*
X100965000Y-91440000D02*
X101600000Y-92075000D01*
X100965000Y-86360000D02*
X100965000Y-91440000D01*
X102650000Y-92075000D02*
X101600000Y-92075000D01*
X108365000Y-86360000D02*
X102650000Y-92075000D01*
X133350000Y-86360000D02*
X108365000Y-86360000D01*
X131665000Y-123825000D02*
X132715000Y-123825000D01*
X127249989Y-128240011D02*
X131665000Y-123825000D01*
X91760021Y-128240011D02*
X127249989Y-128240011D01*
X90805000Y-127284990D02*
X91760021Y-128240011D01*
X90805000Y-123825000D02*
X90805000Y-127284990D01*
X100330000Y-92075000D02*
X101600000Y-92075000D01*
X90805000Y-101820000D02*
X95470000Y-97155000D01*
X90805000Y-123825000D02*
X90805000Y-101820000D01*
X95470000Y-97155000D02*
X98425000Y-97155000D01*
X98425000Y-97155000D02*
X99060000Y-96520000D01*
X99060000Y-96520000D02*
X99060000Y-93345000D01*
X99060000Y-93345000D02*
X100330000Y-92075000D01*
G04 #@! TO.N,Net-(J1-Pad11)*
X96930001Y-127464999D02*
X97730000Y-126665000D01*
X96604999Y-127790001D02*
X96930001Y-127464999D01*
X93315001Y-127790001D02*
X96604999Y-127790001D01*
X92190000Y-126665000D02*
X93315001Y-127790001D01*
G04 #@! TO.N,Net-(J2-Pad11)*
X138840001Y-127464999D02*
X139640000Y-126665000D01*
X138514999Y-127790001D02*
X138840001Y-127464999D01*
X135225001Y-127790001D02*
X138514999Y-127790001D01*
X134100000Y-126665000D02*
X135225001Y-127790001D01*
G04 #@! TO.N,+10V*
X95885000Y-87610000D02*
X95885000Y-86360000D01*
X156845000Y-99695000D02*
X158115000Y-98425000D01*
X150427081Y-88265000D02*
X149225000Y-88265000D01*
X154700002Y-88265000D02*
X150427081Y-88265000D01*
X158115000Y-91679998D02*
X154700002Y-88265000D01*
X158115000Y-98425000D02*
X158115000Y-91679998D01*
X154700002Y-88265000D02*
X150255002Y-83820000D01*
X150255002Y-83820000D02*
X106045000Y-83820000D01*
G04 #@! TO.N,/Compressor1_remoteinterlock*
X102470001Y-125865001D02*
X103270000Y-126665000D01*
X102259999Y-125865001D02*
X102470001Y-125865001D01*
X100759999Y-124365001D02*
X102259999Y-125865001D01*
X100759999Y-121714999D02*
X100759999Y-124365001D01*
X95250000Y-116205000D02*
X100759999Y-121714999D01*
G04 #@! TO.N,/Compressor1_24Vreturn*
X94960000Y-118455000D02*
X92710000Y-116205000D01*
X94960000Y-126665000D02*
X94960000Y-118455000D01*
G04 #@! TO.N,/Compressor2_24Vreturn*
X136870000Y-119035000D02*
X139700000Y-116205000D01*
X136870000Y-126665000D02*
X136870000Y-119035000D01*
G04 #@! TO.N,Backing2_interlock*
X114598999Y-89139999D02*
X111125000Y-92613998D01*
X116685000Y-88390000D02*
X115935001Y-89139999D01*
X115935001Y-89139999D02*
X114598999Y-89139999D01*
X111125000Y-92613998D02*
X111125000Y-100330000D01*
X101744999Y-109760001D02*
X109459998Y-117475000D01*
X101744999Y-104869999D02*
X101744999Y-109760001D01*
X103389987Y-103225011D02*
X101744999Y-104869999D01*
X111125000Y-100330000D02*
X108229989Y-103225011D01*
X108229989Y-103225011D02*
X103389987Y-103225011D01*
X109459998Y-117475000D02*
X118745000Y-117475000D01*
X118745000Y-117475000D02*
X120015000Y-116205000D01*
X120015000Y-116205000D02*
X120015000Y-109855000D01*
X120015000Y-109855000D02*
X121285000Y-108585000D01*
X121285000Y-108585000D02*
X123190000Y-108585000D01*
G04 #@! TO.N,Compressor2_interlock*
X134455001Y-117004999D02*
X135255000Y-116205000D01*
X133534991Y-117925009D02*
X134455001Y-117004999D01*
X101294990Y-104445010D02*
X101294990Y-110184990D01*
X102964999Y-102775001D02*
X101294990Y-104445010D01*
X118725000Y-88390000D02*
X117649999Y-87314999D01*
X117649999Y-87314999D02*
X112138999Y-87314999D01*
X112138999Y-87314999D02*
X110490000Y-88963998D01*
X109035009Y-117925009D02*
X133534991Y-117925009D01*
X110490000Y-88963998D02*
X110490000Y-99695000D01*
X110490000Y-99695000D02*
X107409999Y-102775001D01*
X101294990Y-110184990D02*
X109035009Y-117925009D01*
X107409999Y-102775001D02*
X102964999Y-102775001D01*
G04 #@! TO.N,Backing2_active*
X121514999Y-87640001D02*
X120765000Y-88390000D01*
X121840001Y-87314999D02*
X121514999Y-87640001D01*
X129861409Y-87314999D02*
X121840001Y-87314999D01*
X140971410Y-98425000D02*
X129861409Y-87314999D01*
X145415000Y-98425000D02*
X140971410Y-98425000D01*
X146685000Y-99695000D02*
X145415000Y-98425000D01*
G04 #@! TO.N,Backing1_interlock*
X109055001Y-107785001D02*
X109855000Y-108585000D01*
X108679999Y-107409999D02*
X109055001Y-107785001D01*
X108679999Y-103664999D02*
X108679999Y-107409999D01*
X117705000Y-94639998D02*
X108679999Y-103664999D01*
X117705000Y-90170000D02*
X117705000Y-94639998D01*
G04 #@! TO.N,Compressor1_interlock*
X119745000Y-93236408D02*
X119745000Y-91230660D01*
X111030001Y-101951407D02*
X119745000Y-93236408D01*
X119745000Y-91230660D02*
X119745000Y-90170000D01*
X111030001Y-109075001D02*
X111030001Y-101951407D01*
X110395001Y-109710001D02*
X111030001Y-109075001D01*
X107170001Y-109710001D02*
X110395001Y-109710001D01*
X102870000Y-105410000D02*
X107170001Y-109710001D01*
G04 #@! TO.N,Backing1_active*
X121785000Y-91230660D02*
X121785000Y-90170000D01*
X125214341Y-94660001D02*
X121785000Y-91230660D01*
X136570001Y-94660001D02*
X125214341Y-94660001D01*
X141605000Y-99695000D02*
X136570001Y-94660001D01*
G04 #@! TO.N,/Backing1_10Vreference*
X117475000Y-108585000D02*
X117475000Y-104775000D01*
G04 #@! TO.N,Backing1_status*
X113244999Y-103925001D02*
X112395000Y-104775000D01*
X116349999Y-100820001D02*
X113244999Y-103925001D01*
X143019999Y-100820001D02*
X116349999Y-100820001D01*
X144145000Y-99695000D02*
X143019999Y-100820001D01*
G04 #@! TO.N,/Backing1_pin3*
X114935000Y-108585000D02*
X114935000Y-104775000D01*
G04 #@! TO.N,/Backing2_10Vreference*
X130810000Y-108585000D02*
X130810000Y-104775000D01*
G04 #@! TO.N,Backing2_status*
X126579999Y-103925001D02*
X125730000Y-104775000D01*
X129234989Y-101270011D02*
X126579999Y-103925001D01*
X147649989Y-101270011D02*
X129234989Y-101270011D01*
X149225000Y-99695000D02*
X147649989Y-101270011D01*
G04 #@! TO.N,/Backing2_pin3*
X128270000Y-105977081D02*
X128270000Y-108585000D01*
X128270000Y-104775000D02*
X128270000Y-105977081D01*
G04 #@! TO.N,Net-(R1-Pad1)*
X114935000Y-116205000D02*
X109855000Y-116205000D01*
G04 #@! TO.N,Net-(R2-Pad1)*
X128270000Y-116205000D02*
X123190000Y-116205000D01*
G04 #@! TO.N,Net-(R3-Pad1)*
X95250000Y-108585000D02*
X95250000Y-105410000D01*
G04 #@! TO.N,Net-(R4-Pad1)*
X136054999Y-107785001D02*
X135255000Y-108585000D01*
X136380001Y-107459999D02*
X136054999Y-107785001D01*
X140240001Y-107459999D02*
X136380001Y-107459999D01*
X141365002Y-108585000D02*
X140240001Y-107459999D01*
X142240000Y-108585000D02*
X141365002Y-108585000D01*
G04 #@! TO.N,/select*
X146685000Y-92075000D02*
X146685000Y-88265000D01*
G04 #@! TO.N,/Compressor2_remoteinterlock*
X145180000Y-119145000D02*
X142240000Y-116205000D01*
X145180000Y-119145000D02*
X145180000Y-126665000D01*
G04 #@! TD*
D24*
G04 #@! TO.N,+5V*
G36*
X101092000Y-87830594D02*
X101337980Y-87950563D01*
X101831924Y-87735973D01*
X102274318Y-87303091D01*
X102517380Y-86733864D01*
X102390573Y-86487002D01*
X102552500Y-86487002D01*
X102552500Y-86487000D01*
X106553000Y-86487000D01*
X106553000Y-96393000D01*
X97917000Y-96393000D01*
X97917000Y-92360750D01*
X100165000Y-92360750D01*
X100165000Y-93001309D01*
X100261673Y-93234698D01*
X100440301Y-93413327D01*
X100646759Y-93498845D01*
X100383466Y-93762138D01*
X100165000Y-94289561D01*
X100165000Y-94860439D01*
X100383466Y-95387862D01*
X100787138Y-95791534D01*
X101314561Y-96010000D01*
X101885439Y-96010000D01*
X102412862Y-95791534D01*
X102816534Y-95387862D01*
X103035000Y-94860439D01*
X103035000Y-94289561D01*
X102816534Y-93762138D01*
X102553241Y-93498845D01*
X102759699Y-93413327D01*
X102938327Y-93234698D01*
X103035000Y-93001309D01*
X103035000Y-92360750D01*
X102876250Y-92202000D01*
X101727000Y-92202000D01*
X101727000Y-92222000D01*
X101473000Y-92222000D01*
X101473000Y-92202000D01*
X100323750Y-92202000D01*
X100165000Y-92360750D01*
X97917000Y-92360750D01*
X97917000Y-91148691D01*
X100165000Y-91148691D01*
X100165000Y-91789250D01*
X100323750Y-91948000D01*
X101473000Y-91948000D01*
X101473000Y-90798750D01*
X101727000Y-90798750D01*
X101727000Y-91948000D01*
X102876250Y-91948000D01*
X103035000Y-91789250D01*
X103035000Y-91148691D01*
X102938327Y-90915302D01*
X102759699Y-90736673D01*
X102526310Y-90640000D01*
X101885750Y-90640000D01*
X101727000Y-90798750D01*
X101473000Y-90798750D01*
X101314250Y-90640000D01*
X100673690Y-90640000D01*
X100440301Y-90736673D01*
X100261673Y-90915302D01*
X100165000Y-91148691D01*
X97917000Y-91148691D01*
X97917000Y-87925052D01*
X98425000Y-88026100D01*
X99044411Y-87902891D01*
X99569523Y-87552023D01*
X99704159Y-87350526D01*
X100098076Y-87735973D01*
X100592020Y-87950563D01*
X100838000Y-87830594D01*
X100838000Y-86487000D01*
X101092000Y-86487000D01*
X101092000Y-87830594D01*
X101092000Y-87830594D01*
G37*
X101092000Y-87830594D02*
X101337980Y-87950563D01*
X101831924Y-87735973D01*
X102274318Y-87303091D01*
X102517380Y-86733864D01*
X102390573Y-86487002D01*
X102552500Y-86487002D01*
X102552500Y-86487000D01*
X106553000Y-86487000D01*
X106553000Y-96393000D01*
X97917000Y-96393000D01*
X97917000Y-92360750D01*
X100165000Y-92360750D01*
X100165000Y-93001309D01*
X100261673Y-93234698D01*
X100440301Y-93413327D01*
X100646759Y-93498845D01*
X100383466Y-93762138D01*
X100165000Y-94289561D01*
X100165000Y-94860439D01*
X100383466Y-95387862D01*
X100787138Y-95791534D01*
X101314561Y-96010000D01*
X101885439Y-96010000D01*
X102412862Y-95791534D01*
X102816534Y-95387862D01*
X103035000Y-94860439D01*
X103035000Y-94289561D01*
X102816534Y-93762138D01*
X102553241Y-93498845D01*
X102759699Y-93413327D01*
X102938327Y-93234698D01*
X103035000Y-93001309D01*
X103035000Y-92360750D01*
X102876250Y-92202000D01*
X101727000Y-92202000D01*
X101727000Y-92222000D01*
X101473000Y-92222000D01*
X101473000Y-92202000D01*
X100323750Y-92202000D01*
X100165000Y-92360750D01*
X97917000Y-92360750D01*
X97917000Y-91148691D01*
X100165000Y-91148691D01*
X100165000Y-91789250D01*
X100323750Y-91948000D01*
X101473000Y-91948000D01*
X101473000Y-90798750D01*
X101727000Y-90798750D01*
X101727000Y-91948000D01*
X102876250Y-91948000D01*
X103035000Y-91789250D01*
X103035000Y-91148691D01*
X102938327Y-90915302D01*
X102759699Y-90736673D01*
X102526310Y-90640000D01*
X101885750Y-90640000D01*
X101727000Y-90798750D01*
X101473000Y-90798750D01*
X101314250Y-90640000D01*
X100673690Y-90640000D01*
X100440301Y-90736673D01*
X100261673Y-90915302D01*
X100165000Y-91148691D01*
X97917000Y-91148691D01*
X97917000Y-87925052D01*
X98425000Y-88026100D01*
X99044411Y-87902891D01*
X99569523Y-87552023D01*
X99704159Y-87350526D01*
X100098076Y-87735973D01*
X100592020Y-87950563D01*
X100838000Y-87830594D01*
X100838000Y-86487000D01*
X101092000Y-86487000D01*
X101092000Y-87830594D01*
G04 #@! TO.N,GND*
G36*
X82423000Y-90170000D02*
X82432667Y-90218601D01*
X82460197Y-90259803D01*
X82501399Y-90287333D01*
X82550000Y-90297000D01*
X90043000Y-90297000D01*
X90043000Y-97155000D01*
X90052667Y-97203601D01*
X90080197Y-97244803D01*
X90121399Y-97272333D01*
X90170000Y-97282000D01*
X94268198Y-97282000D01*
X90320528Y-101229671D01*
X90257072Y-101272071D01*
X90214672Y-101335527D01*
X90214671Y-101335528D01*
X90089097Y-101523463D01*
X90030112Y-101820000D01*
X90045001Y-101894852D01*
X90045000Y-122377560D01*
X90005000Y-122377560D01*
X89757235Y-122426843D01*
X89547191Y-122567191D01*
X89406843Y-122777235D01*
X89357560Y-123025000D01*
X89357560Y-124625000D01*
X89406843Y-124872765D01*
X89547191Y-125082809D01*
X89757235Y-125223157D01*
X90005000Y-125272440D01*
X90045000Y-125272440D01*
X90045001Y-127210138D01*
X90030112Y-127284990D01*
X90089097Y-127581527D01*
X90205368Y-127755538D01*
X90257072Y-127832919D01*
X90320528Y-127875319D01*
X91169692Y-128724484D01*
X91212092Y-128787940D01*
X91275548Y-128830340D01*
X91463483Y-128955915D01*
X91511626Y-128965491D01*
X91685169Y-129000011D01*
X91685173Y-129000011D01*
X91760021Y-129014899D01*
X91834869Y-129000011D01*
X127175142Y-129000011D01*
X127249989Y-129014899D01*
X127324836Y-129000011D01*
X127324841Y-129000011D01*
X127546526Y-128955915D01*
X127797918Y-128787940D01*
X127840320Y-128724481D01*
X131472059Y-125092744D01*
X131667235Y-125223157D01*
X131915000Y-125272440D01*
X133515000Y-125272440D01*
X133762765Y-125223157D01*
X133972809Y-125082809D01*
X134113157Y-124872765D01*
X134162440Y-124625000D01*
X134162440Y-124381893D01*
X134268466Y-124637862D01*
X134672138Y-125041534D01*
X135199561Y-125260000D01*
X135770439Y-125260000D01*
X136110000Y-125119349D01*
X136110000Y-125426570D01*
X136057138Y-125448466D01*
X135653466Y-125852138D01*
X135485000Y-126258850D01*
X135316534Y-125852138D01*
X134912862Y-125448466D01*
X134385439Y-125230000D01*
X133814561Y-125230000D01*
X133287138Y-125448466D01*
X132883466Y-125852138D01*
X132665000Y-126379561D01*
X132665000Y-126950439D01*
X132883466Y-127477862D01*
X133287138Y-127881534D01*
X133814561Y-128100000D01*
X134385439Y-128100000D01*
X134438302Y-128078104D01*
X134634672Y-128274474D01*
X134677072Y-128337930D01*
X134740528Y-128380330D01*
X134928463Y-128505905D01*
X134976606Y-128515481D01*
X135150149Y-128550001D01*
X135150153Y-128550001D01*
X135225001Y-128564889D01*
X135299849Y-128550001D01*
X138440152Y-128550001D01*
X138514999Y-128564889D01*
X138589846Y-128550001D01*
X138589851Y-128550001D01*
X138811536Y-128505905D01*
X139062928Y-128337930D01*
X139105330Y-128274471D01*
X139301698Y-128078103D01*
X139354561Y-128100000D01*
X139925439Y-128100000D01*
X140452862Y-127881534D01*
X140856534Y-127477862D01*
X141025000Y-127071150D01*
X141193466Y-127477862D01*
X141597138Y-127881534D01*
X142124561Y-128100000D01*
X142695439Y-128100000D01*
X143222862Y-127881534D01*
X143626534Y-127477862D01*
X143795000Y-127071150D01*
X143963466Y-127477862D01*
X144367138Y-127881534D01*
X144894561Y-128100000D01*
X145465439Y-128100000D01*
X145992862Y-127881534D01*
X146396534Y-127477862D01*
X146565000Y-127071150D01*
X146733466Y-127477862D01*
X147137138Y-127881534D01*
X147664561Y-128100000D01*
X148235439Y-128100000D01*
X148762862Y-127881534D01*
X149166534Y-127477862D01*
X149335000Y-127071150D01*
X149503466Y-127477862D01*
X149907138Y-127881534D01*
X150434561Y-128100000D01*
X151005439Y-128100000D01*
X151532862Y-127881534D01*
X151936534Y-127477862D01*
X152084756Y-127120022D01*
X157364584Y-127120022D01*
X157585353Y-127490743D01*
X158557012Y-127884119D01*
X159605247Y-127875713D01*
X160534647Y-127490743D01*
X160755416Y-127120022D01*
X159060000Y-125424605D01*
X157364584Y-127120022D01*
X152084756Y-127120022D01*
X152155000Y-126950439D01*
X152155000Y-126379561D01*
X151936534Y-125852138D01*
X151532862Y-125448466D01*
X151005439Y-125230000D01*
X150434561Y-125230000D01*
X149907138Y-125448466D01*
X149503466Y-125852138D01*
X149335000Y-126258850D01*
X149166534Y-125852138D01*
X148762862Y-125448466D01*
X148235439Y-125230000D01*
X147664561Y-125230000D01*
X147137138Y-125448466D01*
X146733466Y-125852138D01*
X146565000Y-126258850D01*
X146396534Y-125852138D01*
X145992862Y-125448466D01*
X145940000Y-125426570D01*
X145940000Y-125119349D01*
X146279561Y-125260000D01*
X146850439Y-125260000D01*
X147377862Y-125041534D01*
X147781534Y-124637862D01*
X147950000Y-124231150D01*
X148118466Y-124637862D01*
X148522138Y-125041534D01*
X149049561Y-125260000D01*
X149620439Y-125260000D01*
X150147862Y-125041534D01*
X150551534Y-124637862D01*
X150720000Y-124231150D01*
X150888466Y-124637862D01*
X151292138Y-125041534D01*
X151819561Y-125260000D01*
X152390439Y-125260000D01*
X152917862Y-125041534D01*
X153217384Y-124742012D01*
X156420881Y-124742012D01*
X156429287Y-125790247D01*
X156814257Y-126719647D01*
X157184978Y-126940416D01*
X158880395Y-125245000D01*
X159239605Y-125245000D01*
X160935022Y-126940416D01*
X161305743Y-126719647D01*
X161699119Y-125747988D01*
X161690713Y-124699753D01*
X161305743Y-123770353D01*
X160935022Y-123549584D01*
X159239605Y-125245000D01*
X158880395Y-125245000D01*
X157184978Y-123549584D01*
X156814257Y-123770353D01*
X156420881Y-124742012D01*
X153217384Y-124742012D01*
X153321534Y-124637862D01*
X153540000Y-124110439D01*
X153540000Y-123539561D01*
X153469757Y-123369978D01*
X157364584Y-123369978D01*
X159060000Y-125065395D01*
X160755416Y-123369978D01*
X160534647Y-122999257D01*
X159562988Y-122605881D01*
X158514753Y-122614287D01*
X157585353Y-122999257D01*
X157364584Y-123369978D01*
X153469757Y-123369978D01*
X153321534Y-123012138D01*
X152917862Y-122608466D01*
X152390439Y-122390000D01*
X151819561Y-122390000D01*
X151292138Y-122608466D01*
X150888466Y-123012138D01*
X150720000Y-123418850D01*
X150551534Y-123012138D01*
X150147862Y-122608466D01*
X149620439Y-122390000D01*
X149049561Y-122390000D01*
X148522138Y-122608466D01*
X148118466Y-123012138D01*
X147950000Y-123418850D01*
X147781534Y-123012138D01*
X147377862Y-122608466D01*
X146850439Y-122390000D01*
X146279561Y-122390000D01*
X145940000Y-122530651D01*
X145940000Y-119219847D01*
X145954888Y-119145000D01*
X145940000Y-119070153D01*
X145940000Y-119070148D01*
X145895904Y-118848463D01*
X145727929Y-118597071D01*
X145664473Y-118554671D01*
X143638688Y-116528887D01*
X143703113Y-116205000D01*
X143591740Y-115645091D01*
X143274577Y-115170423D01*
X142799909Y-114853260D01*
X142381333Y-114770000D01*
X142098667Y-114770000D01*
X141680091Y-114853260D01*
X141205423Y-115170423D01*
X140970000Y-115522758D01*
X140734577Y-115170423D01*
X140259909Y-114853260D01*
X139841333Y-114770000D01*
X139558667Y-114770000D01*
X139140091Y-114853260D01*
X138665423Y-115170423D01*
X138348260Y-115645091D01*
X138236887Y-116205000D01*
X138301312Y-116528886D01*
X136385528Y-118444671D01*
X136322072Y-118487071D01*
X136279672Y-118550527D01*
X136279671Y-118550528D01*
X136154097Y-118738463D01*
X136095112Y-119035000D01*
X136110001Y-119109852D01*
X136110001Y-122530651D01*
X135770439Y-122390000D01*
X135199561Y-122390000D01*
X134672138Y-122608466D01*
X134268466Y-123012138D01*
X134162440Y-123268107D01*
X134162440Y-123025000D01*
X134113157Y-122777235D01*
X133972809Y-122567191D01*
X133762765Y-122426843D01*
X133515000Y-122377560D01*
X131915000Y-122377560D01*
X131667235Y-122426843D01*
X131457191Y-122567191D01*
X131316843Y-122777235D01*
X131267560Y-123025000D01*
X131267560Y-123176517D01*
X131180526Y-123234671D01*
X131180524Y-123234673D01*
X131117071Y-123277071D01*
X131074673Y-123340524D01*
X128216750Y-126198448D01*
X128399119Y-125747988D01*
X128390713Y-124699753D01*
X128005743Y-123770353D01*
X127635022Y-123549584D01*
X125939605Y-125245000D01*
X125953748Y-125259142D01*
X125774142Y-125438748D01*
X125760000Y-125424605D01*
X124064584Y-127120022D01*
X124278962Y-127480011D01*
X118631038Y-127480011D01*
X118845416Y-127120022D01*
X117150000Y-125424605D01*
X115454584Y-127120022D01*
X115668962Y-127480011D01*
X110024385Y-127480011D01*
X110026534Y-127477862D01*
X110245000Y-126950439D01*
X110245000Y-126379561D01*
X110026534Y-125852138D01*
X109622862Y-125448466D01*
X109095439Y-125230000D01*
X108524561Y-125230000D01*
X107997138Y-125448466D01*
X107593466Y-125852138D01*
X107425000Y-126258850D01*
X107256534Y-125852138D01*
X106852862Y-125448466D01*
X106325439Y-125230000D01*
X105754561Y-125230000D01*
X105227138Y-125448466D01*
X104823466Y-125852138D01*
X104655000Y-126258850D01*
X104486534Y-125852138D01*
X104082862Y-125448466D01*
X103555439Y-125230000D01*
X102984561Y-125230000D01*
X102924716Y-125254789D01*
X102766538Y-125149097D01*
X102582238Y-125112437D01*
X102565967Y-125096167D01*
X102697862Y-125041534D01*
X103101534Y-124637862D01*
X103270000Y-124231150D01*
X103438466Y-124637862D01*
X103842138Y-125041534D01*
X104369561Y-125260000D01*
X104940439Y-125260000D01*
X105467862Y-125041534D01*
X105871534Y-124637862D01*
X106040000Y-124231150D01*
X106208466Y-124637862D01*
X106612138Y-125041534D01*
X107139561Y-125260000D01*
X107710439Y-125260000D01*
X108237862Y-125041534D01*
X108641534Y-124637862D01*
X108810000Y-124231150D01*
X108978466Y-124637862D01*
X109382138Y-125041534D01*
X109909561Y-125260000D01*
X110480439Y-125260000D01*
X111007862Y-125041534D01*
X111307384Y-124742012D01*
X114510881Y-124742012D01*
X114519287Y-125790247D01*
X114904257Y-126719647D01*
X115274978Y-126940416D01*
X116970395Y-125245000D01*
X117329605Y-125245000D01*
X119025022Y-126940416D01*
X119395743Y-126719647D01*
X119789119Y-125747988D01*
X119781052Y-124742012D01*
X123120881Y-124742012D01*
X123129287Y-125790247D01*
X123514257Y-126719647D01*
X123884978Y-126940416D01*
X125580395Y-125245000D01*
X123884978Y-123549584D01*
X123514257Y-123770353D01*
X123120881Y-124742012D01*
X119781052Y-124742012D01*
X119780713Y-124699753D01*
X119395743Y-123770353D01*
X119025022Y-123549584D01*
X117329605Y-125245000D01*
X116970395Y-125245000D01*
X115274978Y-123549584D01*
X114904257Y-123770353D01*
X114510881Y-124742012D01*
X111307384Y-124742012D01*
X111411534Y-124637862D01*
X111630000Y-124110439D01*
X111630000Y-123539561D01*
X111559757Y-123369978D01*
X115454584Y-123369978D01*
X117150000Y-125065395D01*
X118845416Y-123369978D01*
X124064584Y-123369978D01*
X125760000Y-125065395D01*
X127455416Y-123369978D01*
X127234647Y-122999257D01*
X126262988Y-122605881D01*
X125214753Y-122614287D01*
X124285353Y-122999257D01*
X124064584Y-123369978D01*
X118845416Y-123369978D01*
X118624647Y-122999257D01*
X117652988Y-122605881D01*
X116604753Y-122614287D01*
X115675353Y-122999257D01*
X115454584Y-123369978D01*
X111559757Y-123369978D01*
X111411534Y-123012138D01*
X111007862Y-122608466D01*
X110480439Y-122390000D01*
X109909561Y-122390000D01*
X109382138Y-122608466D01*
X108978466Y-123012138D01*
X108810000Y-123418850D01*
X108641534Y-123012138D01*
X108237862Y-122608466D01*
X107710439Y-122390000D01*
X107139561Y-122390000D01*
X106612138Y-122608466D01*
X106208466Y-123012138D01*
X106040000Y-123418850D01*
X105871534Y-123012138D01*
X105467862Y-122608466D01*
X104940439Y-122390000D01*
X104369561Y-122390000D01*
X103842138Y-122608466D01*
X103438466Y-123012138D01*
X103270000Y-123418850D01*
X103101534Y-123012138D01*
X102697862Y-122608466D01*
X102170439Y-122390000D01*
X101599561Y-122390000D01*
X101519999Y-122422956D01*
X101519999Y-121789845D01*
X101534887Y-121714998D01*
X101519999Y-121640151D01*
X101519999Y-121640147D01*
X101475903Y-121418462D01*
X101434101Y-121355901D01*
X101350328Y-121230525D01*
X101350326Y-121230523D01*
X101307928Y-121167070D01*
X101244475Y-121124672D01*
X96648688Y-116528887D01*
X96713113Y-116205000D01*
X96601740Y-115645091D01*
X96284577Y-115170423D01*
X95809909Y-114853260D01*
X95391333Y-114770000D01*
X95108667Y-114770000D01*
X94690091Y-114853260D01*
X94215423Y-115170423D01*
X93980000Y-115522758D01*
X93744577Y-115170423D01*
X93269909Y-114853260D01*
X92851333Y-114770000D01*
X92568667Y-114770000D01*
X92150091Y-114853260D01*
X91675423Y-115170423D01*
X91565000Y-115335683D01*
X91565000Y-109446828D01*
X91972577Y-109816041D01*
X92360961Y-109976904D01*
X92583000Y-109854915D01*
X92583000Y-108712000D01*
X92563000Y-108712000D01*
X92563000Y-108458000D01*
X92583000Y-108458000D01*
X92583000Y-107315085D01*
X92837000Y-107315085D01*
X92837000Y-108458000D01*
X92857000Y-108458000D01*
X92857000Y-108712000D01*
X92837000Y-108712000D01*
X92837000Y-109854915D01*
X93059039Y-109976904D01*
X93447423Y-109816041D01*
X93820987Y-109477639D01*
X93851843Y-109632765D01*
X93992191Y-109842809D01*
X94202235Y-109983157D01*
X94450000Y-110032440D01*
X96050000Y-110032440D01*
X96297765Y-109983157D01*
X96507809Y-109842809D01*
X96648157Y-109632765D01*
X96697440Y-109385000D01*
X96697440Y-107785000D01*
X96648157Y-107537235D01*
X96507809Y-107327191D01*
X96297765Y-107186843D01*
X96050000Y-107137560D01*
X96010000Y-107137560D01*
X96010000Y-106648430D01*
X96062862Y-106626534D01*
X96466534Y-106222862D01*
X96685000Y-105695439D01*
X96685000Y-105124561D01*
X96466534Y-104597138D01*
X96062862Y-104193466D01*
X95535439Y-103975000D01*
X94964561Y-103975000D01*
X94437138Y-104193466D01*
X94033466Y-104597138D01*
X93815000Y-105124561D01*
X93815000Y-105695439D01*
X94033466Y-106222862D01*
X94437138Y-106626534D01*
X94490001Y-106648430D01*
X94490000Y-107137560D01*
X94450000Y-107137560D01*
X94202235Y-107186843D01*
X93992191Y-107327191D01*
X93851843Y-107537235D01*
X93820987Y-107692361D01*
X93447423Y-107353959D01*
X93059039Y-107193096D01*
X92837000Y-107315085D01*
X92583000Y-107315085D01*
X92360961Y-107193096D01*
X91972577Y-107353959D01*
X91565000Y-107723172D01*
X91565000Y-102134801D01*
X95784802Y-97915000D01*
X98350153Y-97915000D01*
X98425000Y-97929888D01*
X98499847Y-97915000D01*
X98499852Y-97915000D01*
X98721537Y-97870904D01*
X98972929Y-97702929D01*
X99015331Y-97639470D01*
X99372802Y-97282000D01*
X107315000Y-97282000D01*
X107363601Y-97272333D01*
X107404803Y-97244803D01*
X107432333Y-97203601D01*
X107442000Y-97155000D01*
X107442000Y-88357802D01*
X108679802Y-87120000D01*
X111259196Y-87120000D01*
X110005530Y-88373667D01*
X109942071Y-88416069D01*
X109774096Y-88667462D01*
X109730000Y-88889147D01*
X109730000Y-88889151D01*
X109715112Y-88963998D01*
X109730000Y-89038845D01*
X109730001Y-99380197D01*
X107095198Y-102015001D01*
X103039845Y-102015001D01*
X102964998Y-102000113D01*
X102890151Y-102015001D01*
X102890147Y-102015001D01*
X102668462Y-102059097D01*
X102668460Y-102059098D01*
X102668461Y-102059098D01*
X102480525Y-102184672D01*
X102480523Y-102184674D01*
X102417070Y-102227072D01*
X102374672Y-102290525D01*
X100810520Y-103854679D01*
X100747061Y-103897081D01*
X100579086Y-104148474D01*
X100534990Y-104370159D01*
X100534990Y-104370163D01*
X100520102Y-104445010D01*
X100534990Y-104519857D01*
X100534991Y-110110138D01*
X100520102Y-110184990D01*
X100534991Y-110259842D01*
X100579087Y-110481527D01*
X100747062Y-110732919D01*
X100810518Y-110775319D01*
X108444680Y-118409482D01*
X108487080Y-118472938D01*
X108550536Y-118515338D01*
X108738471Y-118640913D01*
X108786614Y-118650489D01*
X108960157Y-118685009D01*
X108960161Y-118685009D01*
X109035009Y-118699897D01*
X109109857Y-118685009D01*
X133460144Y-118685009D01*
X133534991Y-118699897D01*
X133609838Y-118685009D01*
X133609843Y-118685009D01*
X133831528Y-118640913D01*
X134082920Y-118472938D01*
X134125322Y-118409479D01*
X134931114Y-117603688D01*
X135113667Y-117640000D01*
X135396333Y-117640000D01*
X135814909Y-117556740D01*
X136289577Y-117239577D01*
X136606740Y-116764909D01*
X136718113Y-116205000D01*
X136606740Y-115645091D01*
X136289577Y-115170423D01*
X135814909Y-114853260D01*
X135396333Y-114770000D01*
X135113667Y-114770000D01*
X134695091Y-114853260D01*
X134220423Y-115170423D01*
X133903260Y-115645091D01*
X133791887Y-116205000D01*
X133856312Y-116528886D01*
X133220190Y-117165009D01*
X131846617Y-117165009D01*
X131962389Y-117060134D01*
X132201914Y-116554041D01*
X132080629Y-116332000D01*
X130937000Y-116332000D01*
X130937000Y-116352000D01*
X130683000Y-116352000D01*
X130683000Y-116332000D01*
X130663000Y-116332000D01*
X130663000Y-116078000D01*
X130683000Y-116078000D01*
X130683000Y-114935085D01*
X130937000Y-114935085D01*
X130937000Y-116078000D01*
X132080629Y-116078000D01*
X132201914Y-115855959D01*
X131962389Y-115349866D01*
X131547423Y-114973959D01*
X131159039Y-114813096D01*
X130937000Y-114935085D01*
X130683000Y-114935085D01*
X130460961Y-114813096D01*
X130072577Y-114973959D01*
X129699013Y-115312361D01*
X129668157Y-115157235D01*
X129527809Y-114947191D01*
X129317765Y-114806843D01*
X129070000Y-114757560D01*
X127470000Y-114757560D01*
X127222235Y-114806843D01*
X127012191Y-114947191D01*
X126871843Y-115157235D01*
X126822560Y-115405000D01*
X126822560Y-115445000D01*
X124428430Y-115445000D01*
X124406534Y-115392138D01*
X124002862Y-114988466D01*
X123475439Y-114770000D01*
X122904561Y-114770000D01*
X122377138Y-114988466D01*
X121973466Y-115392138D01*
X121755000Y-115919561D01*
X121755000Y-116490439D01*
X121973466Y-117017862D01*
X122120613Y-117165009D01*
X120129793Y-117165009D01*
X120499473Y-116795329D01*
X120562929Y-116752929D01*
X120730904Y-116501537D01*
X120775000Y-116279852D01*
X120775000Y-116279848D01*
X120789888Y-116205001D01*
X120775000Y-116130154D01*
X120775000Y-110169801D01*
X121599802Y-109345000D01*
X121971957Y-109345000D01*
X122155423Y-109619577D01*
X122630091Y-109936740D01*
X123048667Y-110020000D01*
X123331333Y-110020000D01*
X123749909Y-109936740D01*
X124224577Y-109619577D01*
X124541740Y-109144909D01*
X124653113Y-108585000D01*
X124541740Y-108025091D01*
X124224577Y-107550423D01*
X123749909Y-107233260D01*
X123331333Y-107150000D01*
X123048667Y-107150000D01*
X122630091Y-107233260D01*
X122155423Y-107550423D01*
X121971957Y-107825000D01*
X121359846Y-107825000D01*
X121284999Y-107810112D01*
X121210152Y-107825000D01*
X121210148Y-107825000D01*
X120988463Y-107869096D01*
X120737071Y-108037071D01*
X120694672Y-108100526D01*
X119530528Y-109264671D01*
X119467072Y-109307071D01*
X119299097Y-109558463D01*
X119259009Y-109760001D01*
X119240112Y-109855000D01*
X119255001Y-109929852D01*
X119255000Y-115890198D01*
X118769499Y-116375700D01*
X118745629Y-116332000D01*
X117602000Y-116332000D01*
X117602000Y-116352000D01*
X117348000Y-116352000D01*
X117348000Y-116332000D01*
X117328000Y-116332000D01*
X117328000Y-116078000D01*
X117348000Y-116078000D01*
X117348000Y-114935085D01*
X117602000Y-114935085D01*
X117602000Y-116078000D01*
X118745629Y-116078000D01*
X118866914Y-115855959D01*
X118627389Y-115349866D01*
X118212423Y-114973959D01*
X117824039Y-114813096D01*
X117602000Y-114935085D01*
X117348000Y-114935085D01*
X117125961Y-114813096D01*
X116737577Y-114973959D01*
X116364013Y-115312361D01*
X116333157Y-115157235D01*
X116192809Y-114947191D01*
X115982765Y-114806843D01*
X115735000Y-114757560D01*
X114135000Y-114757560D01*
X113887235Y-114806843D01*
X113677191Y-114947191D01*
X113536843Y-115157235D01*
X113487560Y-115405000D01*
X113487560Y-115445000D01*
X111093430Y-115445000D01*
X111071534Y-115392138D01*
X110667862Y-114988466D01*
X110140439Y-114770000D01*
X109569561Y-114770000D01*
X109042138Y-114988466D01*
X108638466Y-115392138D01*
X108583833Y-115524033D01*
X102504999Y-109445200D01*
X102504999Y-106800510D01*
X102728667Y-106845000D01*
X103011333Y-106845000D01*
X103193887Y-106808688D01*
X106579672Y-110194474D01*
X106622072Y-110257930D01*
X106685528Y-110300330D01*
X106873463Y-110425905D01*
X106921606Y-110435481D01*
X107095149Y-110470001D01*
X107095153Y-110470001D01*
X107170001Y-110484889D01*
X107244849Y-110470001D01*
X110320154Y-110470001D01*
X110395001Y-110484889D01*
X110469848Y-110470001D01*
X110469853Y-110470001D01*
X110691538Y-110425905D01*
X110942930Y-110257930D01*
X110985332Y-110194471D01*
X111514474Y-109665330D01*
X111577930Y-109622930D01*
X111745905Y-109371538D01*
X111790001Y-109149853D01*
X111790001Y-109149849D01*
X111804889Y-109075001D01*
X111790001Y-109000153D01*
X111790001Y-106156746D01*
X111815582Y-106173839D01*
X112248744Y-106260000D01*
X112541256Y-106260000D01*
X112974418Y-106173839D01*
X113465625Y-105845625D01*
X113665000Y-105547239D01*
X113864375Y-105845625D01*
X114175001Y-106053178D01*
X114175000Y-107366956D01*
X113900423Y-107550423D01*
X113583260Y-108025091D01*
X113471887Y-108585000D01*
X113583260Y-109144909D01*
X113900423Y-109619577D01*
X114375091Y-109936740D01*
X114793667Y-110020000D01*
X115076333Y-110020000D01*
X115494909Y-109936740D01*
X115969577Y-109619577D01*
X116205000Y-109267242D01*
X116440423Y-109619577D01*
X116915091Y-109936740D01*
X117333667Y-110020000D01*
X117616333Y-110020000D01*
X118034909Y-109936740D01*
X118509577Y-109619577D01*
X118826740Y-109144909D01*
X118938113Y-108585000D01*
X118826740Y-108025091D01*
X118509577Y-107550423D01*
X118235000Y-107366957D01*
X118235000Y-106053178D01*
X118545625Y-105845625D01*
X118873839Y-105354418D01*
X118932252Y-105060750D01*
X121705000Y-105060750D01*
X121705000Y-105751309D01*
X121801673Y-105984698D01*
X121980301Y-106163327D01*
X122213690Y-106260000D01*
X122904250Y-106260000D01*
X123063000Y-106101250D01*
X123063000Y-104902000D01*
X121863750Y-104902000D01*
X121705000Y-105060750D01*
X118932252Y-105060750D01*
X118989092Y-104775000D01*
X118873839Y-104195582D01*
X118608645Y-103798691D01*
X121705000Y-103798691D01*
X121705000Y-104489250D01*
X121863750Y-104648000D01*
X123063000Y-104648000D01*
X123063000Y-103448750D01*
X122904250Y-103290000D01*
X122213690Y-103290000D01*
X121980301Y-103386673D01*
X121801673Y-103565302D01*
X121705000Y-103798691D01*
X118608645Y-103798691D01*
X118545625Y-103704375D01*
X118054418Y-103376161D01*
X117621256Y-103290000D01*
X117328744Y-103290000D01*
X116895582Y-103376161D01*
X116404375Y-103704375D01*
X116205000Y-104002761D01*
X116005625Y-103704375D01*
X115514418Y-103376161D01*
X115081256Y-103290000D01*
X114954801Y-103290000D01*
X116664801Y-101580001D01*
X127850197Y-101580001D01*
X126096408Y-103333791D01*
X125876256Y-103290000D01*
X125583744Y-103290000D01*
X125150582Y-103376161D01*
X124659375Y-103704375D01*
X124644904Y-103726033D01*
X124578327Y-103565302D01*
X124399699Y-103386673D01*
X124166310Y-103290000D01*
X123475750Y-103290000D01*
X123317000Y-103448750D01*
X123317000Y-104648000D01*
X123337000Y-104648000D01*
X123337000Y-104902000D01*
X123317000Y-104902000D01*
X123317000Y-106101250D01*
X123475750Y-106260000D01*
X124166310Y-106260000D01*
X124399699Y-106163327D01*
X124578327Y-105984698D01*
X124644904Y-105823967D01*
X124659375Y-105845625D01*
X125150582Y-106173839D01*
X125583744Y-106260000D01*
X125876256Y-106260000D01*
X126309418Y-106173839D01*
X126800625Y-105845625D01*
X127000000Y-105547239D01*
X127199375Y-105845625D01*
X127510000Y-106053178D01*
X127510001Y-107366956D01*
X127235423Y-107550423D01*
X126918260Y-108025091D01*
X126806887Y-108585000D01*
X126918260Y-109144909D01*
X127235423Y-109619577D01*
X127710091Y-109936740D01*
X128128667Y-110020000D01*
X128411333Y-110020000D01*
X128829909Y-109936740D01*
X129304577Y-109619577D01*
X129540000Y-109267242D01*
X129775423Y-109619577D01*
X130250091Y-109936740D01*
X130668667Y-110020000D01*
X130951333Y-110020000D01*
X131369909Y-109936740D01*
X131844577Y-109619577D01*
X132161740Y-109144909D01*
X132273113Y-108585000D01*
X132216336Y-108299561D01*
X133820000Y-108299561D01*
X133820000Y-108870439D01*
X134038466Y-109397862D01*
X134442138Y-109801534D01*
X134969561Y-110020000D01*
X135540439Y-110020000D01*
X136067862Y-109801534D01*
X136471534Y-109397862D01*
X136663655Y-108934041D01*
X138308086Y-108934041D01*
X138547611Y-109440134D01*
X138962577Y-109816041D01*
X139350961Y-109976904D01*
X139573000Y-109854915D01*
X139573000Y-108712000D01*
X138429371Y-108712000D01*
X138308086Y-108934041D01*
X136663655Y-108934041D01*
X136690000Y-108870439D01*
X136690000Y-108299561D01*
X136668103Y-108246698D01*
X136694802Y-108219999D01*
X138315640Y-108219999D01*
X138308086Y-108235959D01*
X138429371Y-108458000D01*
X139573000Y-108458000D01*
X139573000Y-108438000D01*
X139827000Y-108438000D01*
X139827000Y-108458000D01*
X139847000Y-108458000D01*
X139847000Y-108712000D01*
X139827000Y-108712000D01*
X139827000Y-109854915D01*
X140049039Y-109976904D01*
X140437423Y-109816041D01*
X140810987Y-109477639D01*
X140841843Y-109632765D01*
X140982191Y-109842809D01*
X141192235Y-109983157D01*
X141440000Y-110032440D01*
X143040000Y-110032440D01*
X143287765Y-109983157D01*
X143497809Y-109842809D01*
X143638157Y-109632765D01*
X143687440Y-109385000D01*
X143687440Y-107785000D01*
X143638157Y-107537235D01*
X143497809Y-107327191D01*
X143287765Y-107186843D01*
X143040000Y-107137560D01*
X141440000Y-107137560D01*
X141192235Y-107186843D01*
X141101964Y-107247161D01*
X140830332Y-106975529D01*
X140787930Y-106912070D01*
X140536538Y-106744095D01*
X140314853Y-106699999D01*
X140314848Y-106699999D01*
X140240001Y-106685111D01*
X140165154Y-106699999D01*
X136454847Y-106699999D01*
X136380000Y-106685111D01*
X136305153Y-106699999D01*
X136305149Y-106699999D01*
X136083464Y-106744095D01*
X135832072Y-106912070D01*
X135789670Y-106975529D01*
X135593302Y-107171897D01*
X135540439Y-107150000D01*
X134969561Y-107150000D01*
X134442138Y-107368466D01*
X134038466Y-107772138D01*
X133820000Y-108299561D01*
X132216336Y-108299561D01*
X132161740Y-108025091D01*
X131844577Y-107550423D01*
X131570000Y-107366957D01*
X131570000Y-106053178D01*
X131880625Y-105845625D01*
X132208839Y-105354418D01*
X132324092Y-104775000D01*
X132208839Y-104195582D01*
X131880625Y-103704375D01*
X131389418Y-103376161D01*
X130956256Y-103290000D01*
X130663744Y-103290000D01*
X130230582Y-103376161D01*
X129739375Y-103704375D01*
X129540000Y-104002761D01*
X129340625Y-103704375D01*
X128849418Y-103376161D01*
X128416256Y-103290000D01*
X128289801Y-103290000D01*
X129549791Y-102030011D01*
X147575142Y-102030011D01*
X147649989Y-102044899D01*
X147724836Y-102030011D01*
X147724841Y-102030011D01*
X147946526Y-101985915D01*
X148197918Y-101817940D01*
X148240320Y-101754481D01*
X148901114Y-101093688D01*
X149083667Y-101130000D01*
X149366333Y-101130000D01*
X149784909Y-101046740D01*
X150259577Y-100729577D01*
X150515947Y-100345892D01*
X150612611Y-100550134D01*
X151027577Y-100926041D01*
X151415961Y-101086904D01*
X151638000Y-100964915D01*
X151638000Y-99822000D01*
X151892000Y-99822000D01*
X151892000Y-100964915D01*
X152114039Y-101086904D01*
X152502423Y-100926041D01*
X152917389Y-100550134D01*
X153035000Y-100301633D01*
X153152611Y-100550134D01*
X153567577Y-100926041D01*
X153955961Y-101086904D01*
X154178000Y-100964915D01*
X154178000Y-99822000D01*
X151892000Y-99822000D01*
X151638000Y-99822000D01*
X151618000Y-99822000D01*
X151618000Y-99568000D01*
X151638000Y-99568000D01*
X151638000Y-98425085D01*
X151892000Y-98425085D01*
X151892000Y-99568000D01*
X154178000Y-99568000D01*
X154178000Y-98425085D01*
X153955961Y-98303096D01*
X153567577Y-98463959D01*
X153152611Y-98839866D01*
X153035000Y-99088367D01*
X152917389Y-98839866D01*
X152502423Y-98463959D01*
X152114039Y-98303096D01*
X151892000Y-98425085D01*
X151638000Y-98425085D01*
X151415961Y-98303096D01*
X151027577Y-98463959D01*
X150612611Y-98839866D01*
X150515947Y-99044108D01*
X150259577Y-98660423D01*
X149784909Y-98343260D01*
X149366333Y-98260000D01*
X149083667Y-98260000D01*
X148665091Y-98343260D01*
X148190423Y-98660423D01*
X147955000Y-99012758D01*
X147719577Y-98660423D01*
X147244909Y-98343260D01*
X146826333Y-98260000D01*
X146543667Y-98260000D01*
X146361114Y-98296312D01*
X146005331Y-97940530D01*
X145962929Y-97877071D01*
X145711537Y-97709096D01*
X145489852Y-97665000D01*
X145489847Y-97665000D01*
X145415000Y-97650112D01*
X145340153Y-97665000D01*
X141286212Y-97665000D01*
X130741211Y-87120000D01*
X133035199Y-87120000D01*
X137666312Y-91751114D01*
X137601887Y-92075000D01*
X137713260Y-92634909D01*
X138030423Y-93109577D01*
X138505091Y-93426740D01*
X138923667Y-93510000D01*
X139206333Y-93510000D01*
X139624909Y-93426740D01*
X140099577Y-93109577D01*
X140355947Y-92725892D01*
X140452611Y-92930134D01*
X140867577Y-93306041D01*
X141255961Y-93466904D01*
X141478000Y-93344915D01*
X141478000Y-92202000D01*
X141732000Y-92202000D01*
X141732000Y-93344915D01*
X141954039Y-93466904D01*
X142342423Y-93306041D01*
X142757389Y-92930134D01*
X142875000Y-92681633D01*
X142992611Y-92930134D01*
X143407577Y-93306041D01*
X143795961Y-93466904D01*
X144018000Y-93344915D01*
X144018000Y-92202000D01*
X141732000Y-92202000D01*
X141478000Y-92202000D01*
X141458000Y-92202000D01*
X141458000Y-91948000D01*
X141478000Y-91948000D01*
X141478000Y-90805085D01*
X141732000Y-90805085D01*
X141732000Y-91948000D01*
X144018000Y-91948000D01*
X144018000Y-90805085D01*
X143795961Y-90683096D01*
X143407577Y-90843959D01*
X142992611Y-91219866D01*
X142875000Y-91468367D01*
X142757389Y-91219866D01*
X142342423Y-90843959D01*
X141954039Y-90683096D01*
X141732000Y-90805085D01*
X141478000Y-90805085D01*
X141255961Y-90683096D01*
X140867577Y-90843959D01*
X140452611Y-91219866D01*
X140355947Y-91424108D01*
X140099577Y-91040423D01*
X139624909Y-90723260D01*
X139206333Y-90640000D01*
X138923667Y-90640000D01*
X138741114Y-90676312D01*
X136615552Y-88550750D01*
X142660000Y-88550750D01*
X142660000Y-89241309D01*
X142756673Y-89474698D01*
X142935301Y-89653327D01*
X143168690Y-89750000D01*
X143859250Y-89750000D01*
X144018000Y-89591250D01*
X144018000Y-88392000D01*
X142818750Y-88392000D01*
X142660000Y-88550750D01*
X136615552Y-88550750D01*
X135353493Y-87288691D01*
X142660000Y-87288691D01*
X142660000Y-87979250D01*
X142818750Y-88138000D01*
X144018000Y-88138000D01*
X144018000Y-86938750D01*
X143859250Y-86780000D01*
X143168690Y-86780000D01*
X142935301Y-86876673D01*
X142756673Y-87055302D01*
X142660000Y-87288691D01*
X135353493Y-87288691D01*
X133940331Y-85875530D01*
X133897929Y-85812071D01*
X133646537Y-85644096D01*
X133424852Y-85600000D01*
X133424847Y-85600000D01*
X133350000Y-85585112D01*
X133275153Y-85600000D01*
X108439848Y-85600000D01*
X108365000Y-85585112D01*
X108290152Y-85600000D01*
X108290148Y-85600000D01*
X108068463Y-85644096D01*
X107817071Y-85812071D01*
X107774671Y-85875527D01*
X107442000Y-86208198D01*
X107442000Y-84580000D01*
X149940201Y-84580000D01*
X152865200Y-87505000D01*
X150503178Y-87505000D01*
X150295625Y-87194375D01*
X149804418Y-86866161D01*
X149371256Y-86780000D01*
X149078744Y-86780000D01*
X148645582Y-86866161D01*
X148154375Y-87194375D01*
X147955000Y-87492761D01*
X147755625Y-87194375D01*
X147264418Y-86866161D01*
X146831256Y-86780000D01*
X146538744Y-86780000D01*
X146105582Y-86866161D01*
X145614375Y-87194375D01*
X145599904Y-87216033D01*
X145533327Y-87055302D01*
X145354699Y-86876673D01*
X145121310Y-86780000D01*
X144430750Y-86780000D01*
X144272000Y-86938750D01*
X144272000Y-88138000D01*
X144292000Y-88138000D01*
X144292000Y-88392000D01*
X144272000Y-88392000D01*
X144272000Y-89591250D01*
X144430750Y-89750000D01*
X145121310Y-89750000D01*
X145354699Y-89653327D01*
X145533327Y-89474698D01*
X145599904Y-89313967D01*
X145614375Y-89335625D01*
X145925001Y-89543178D01*
X145925000Y-90856956D01*
X145650423Y-91040423D01*
X145394053Y-91424108D01*
X145297389Y-91219866D01*
X144882423Y-90843959D01*
X144494039Y-90683096D01*
X144272000Y-90805085D01*
X144272000Y-91948000D01*
X144292000Y-91948000D01*
X144292000Y-92202000D01*
X144272000Y-92202000D01*
X144272000Y-93344915D01*
X144494039Y-93466904D01*
X144882423Y-93306041D01*
X145297389Y-92930134D01*
X145394053Y-92725892D01*
X145650423Y-93109577D01*
X146125091Y-93426740D01*
X146543667Y-93510000D01*
X146826333Y-93510000D01*
X147244909Y-93426740D01*
X147719577Y-93109577D01*
X147975947Y-92725892D01*
X148072611Y-92930134D01*
X148487577Y-93306041D01*
X148875961Y-93466904D01*
X149098000Y-93344915D01*
X149098000Y-92202000D01*
X149352000Y-92202000D01*
X149352000Y-93344915D01*
X149574039Y-93466904D01*
X149962423Y-93306041D01*
X150377389Y-92930134D01*
X150495000Y-92681633D01*
X150612611Y-92930134D01*
X151027577Y-93306041D01*
X151415961Y-93466904D01*
X151638000Y-93344915D01*
X151638000Y-92202000D01*
X151892000Y-92202000D01*
X151892000Y-93344915D01*
X152114039Y-93466904D01*
X152502423Y-93306041D01*
X152917389Y-92930134D01*
X153035000Y-92681633D01*
X153152611Y-92930134D01*
X153567577Y-93306041D01*
X153955961Y-93466904D01*
X154178000Y-93344915D01*
X154178000Y-92202000D01*
X154432000Y-92202000D01*
X154432000Y-93344915D01*
X154654039Y-93466904D01*
X155042423Y-93306041D01*
X155457389Y-92930134D01*
X155575000Y-92681633D01*
X155692611Y-92930134D01*
X156107577Y-93306041D01*
X156495961Y-93466904D01*
X156718000Y-93344915D01*
X156718000Y-92202000D01*
X154432000Y-92202000D01*
X154178000Y-92202000D01*
X151892000Y-92202000D01*
X151638000Y-92202000D01*
X149352000Y-92202000D01*
X149098000Y-92202000D01*
X149078000Y-92202000D01*
X149078000Y-91948000D01*
X149098000Y-91948000D01*
X149098000Y-90805085D01*
X149352000Y-90805085D01*
X149352000Y-91948000D01*
X151638000Y-91948000D01*
X151638000Y-90805085D01*
X151892000Y-90805085D01*
X151892000Y-91948000D01*
X154178000Y-91948000D01*
X154178000Y-90805085D01*
X153955961Y-90683096D01*
X153567577Y-90843959D01*
X153152611Y-91219866D01*
X153035000Y-91468367D01*
X152917389Y-91219866D01*
X152502423Y-90843959D01*
X152114039Y-90683096D01*
X151892000Y-90805085D01*
X151638000Y-90805085D01*
X151415961Y-90683096D01*
X151027577Y-90843959D01*
X150612611Y-91219866D01*
X150495000Y-91468367D01*
X150377389Y-91219866D01*
X149962423Y-90843959D01*
X149574039Y-90683096D01*
X149352000Y-90805085D01*
X149098000Y-90805085D01*
X148875961Y-90683096D01*
X148487577Y-90843959D01*
X148072611Y-91219866D01*
X147975947Y-91424108D01*
X147719577Y-91040423D01*
X147445000Y-90856957D01*
X147445000Y-89543178D01*
X147755625Y-89335625D01*
X147955000Y-89037239D01*
X148154375Y-89335625D01*
X148645582Y-89663839D01*
X149078744Y-89750000D01*
X149371256Y-89750000D01*
X149804418Y-89663839D01*
X150295625Y-89335625D01*
X150503178Y-89025000D01*
X154385201Y-89025000D01*
X156175872Y-90815672D01*
X156107577Y-90843959D01*
X155692611Y-91219866D01*
X155575000Y-91468367D01*
X155457389Y-91219866D01*
X155042423Y-90843959D01*
X154654039Y-90683096D01*
X154432000Y-90805085D01*
X154432000Y-91948000D01*
X156718000Y-91948000D01*
X156718000Y-91928000D01*
X156972000Y-91928000D01*
X156972000Y-91948000D01*
X156992000Y-91948000D01*
X156992000Y-92202000D01*
X156972000Y-92202000D01*
X156972000Y-93344915D01*
X157194039Y-93466904D01*
X157355001Y-93400236D01*
X157355000Y-98110198D01*
X157168886Y-98296312D01*
X156986333Y-98260000D01*
X156703667Y-98260000D01*
X156285091Y-98343260D01*
X155810423Y-98660423D01*
X155554053Y-99044108D01*
X155457389Y-98839866D01*
X155042423Y-98463959D01*
X154654039Y-98303096D01*
X154432000Y-98425085D01*
X154432000Y-99568000D01*
X154452000Y-99568000D01*
X154452000Y-99822000D01*
X154432000Y-99822000D01*
X154432000Y-100964915D01*
X154654039Y-101086904D01*
X155042423Y-100926041D01*
X155457389Y-100550134D01*
X155554053Y-100345892D01*
X155810423Y-100729577D01*
X156285091Y-101046740D01*
X156703667Y-101130000D01*
X156986333Y-101130000D01*
X157404909Y-101046740D01*
X157879577Y-100729577D01*
X158196740Y-100254909D01*
X158308113Y-99695000D01*
X158243688Y-99371114D01*
X158599473Y-99015329D01*
X158662929Y-98972929D01*
X158830904Y-98721537D01*
X158875000Y-98499852D01*
X158875000Y-98499848D01*
X158889888Y-98425001D01*
X158875000Y-98350154D01*
X158875000Y-91754844D01*
X158889888Y-91679997D01*
X158875000Y-91605150D01*
X158875000Y-91605146D01*
X158830904Y-91383461D01*
X158758433Y-91275000D01*
X158705329Y-91195524D01*
X158705327Y-91195522D01*
X158662929Y-91132069D01*
X158599476Y-91089671D01*
X155290333Y-87780530D01*
X155247931Y-87717071D01*
X155184475Y-87674671D01*
X150845333Y-83335530D01*
X150802931Y-83272071D01*
X150551539Y-83104096D01*
X150329854Y-83060000D01*
X150329849Y-83060000D01*
X150255002Y-83045112D01*
X150180155Y-83060000D01*
X107442000Y-83060000D01*
X107442000Y-82575000D01*
X161900000Y-82575000D01*
X161900001Y-133325000D01*
X81305000Y-133325000D01*
X81305000Y-127120022D01*
X82154584Y-127120022D01*
X82375353Y-127490743D01*
X83347012Y-127884119D01*
X84395247Y-127875713D01*
X85324647Y-127490743D01*
X85545416Y-127120022D01*
X83850000Y-125424605D01*
X82154584Y-127120022D01*
X81305000Y-127120022D01*
X81305000Y-125997177D01*
X81604257Y-126719647D01*
X81974978Y-126940416D01*
X83670395Y-125245000D01*
X84029605Y-125245000D01*
X85725022Y-126940416D01*
X86095743Y-126719647D01*
X86489119Y-125747988D01*
X86480713Y-124699753D01*
X86095743Y-123770353D01*
X85725022Y-123549584D01*
X84029605Y-125245000D01*
X83670395Y-125245000D01*
X81974978Y-123549584D01*
X81604257Y-123770353D01*
X81305000Y-124509533D01*
X81305000Y-123369978D01*
X82154584Y-123369978D01*
X83850000Y-125065395D01*
X85545416Y-123369978D01*
X85324647Y-122999257D01*
X84352988Y-122605881D01*
X83304753Y-122614287D01*
X82375353Y-122999257D01*
X82154584Y-123369978D01*
X81305000Y-123369978D01*
X81305000Y-82575000D01*
X82423000Y-82575000D01*
X82423000Y-90170000D01*
X82423000Y-90170000D01*
G37*
X82423000Y-90170000D02*
X82432667Y-90218601D01*
X82460197Y-90259803D01*
X82501399Y-90287333D01*
X82550000Y-90297000D01*
X90043000Y-90297000D01*
X90043000Y-97155000D01*
X90052667Y-97203601D01*
X90080197Y-97244803D01*
X90121399Y-97272333D01*
X90170000Y-97282000D01*
X94268198Y-97282000D01*
X90320528Y-101229671D01*
X90257072Y-101272071D01*
X90214672Y-101335527D01*
X90214671Y-101335528D01*
X90089097Y-101523463D01*
X90030112Y-101820000D01*
X90045001Y-101894852D01*
X90045000Y-122377560D01*
X90005000Y-122377560D01*
X89757235Y-122426843D01*
X89547191Y-122567191D01*
X89406843Y-122777235D01*
X89357560Y-123025000D01*
X89357560Y-124625000D01*
X89406843Y-124872765D01*
X89547191Y-125082809D01*
X89757235Y-125223157D01*
X90005000Y-125272440D01*
X90045000Y-125272440D01*
X90045001Y-127210138D01*
X90030112Y-127284990D01*
X90089097Y-127581527D01*
X90205368Y-127755538D01*
X90257072Y-127832919D01*
X90320528Y-127875319D01*
X91169692Y-128724484D01*
X91212092Y-128787940D01*
X91275548Y-128830340D01*
X91463483Y-128955915D01*
X91511626Y-128965491D01*
X91685169Y-129000011D01*
X91685173Y-129000011D01*
X91760021Y-129014899D01*
X91834869Y-129000011D01*
X127175142Y-129000011D01*
X127249989Y-129014899D01*
X127324836Y-129000011D01*
X127324841Y-129000011D01*
X127546526Y-128955915D01*
X127797918Y-128787940D01*
X127840320Y-128724481D01*
X131472059Y-125092744D01*
X131667235Y-125223157D01*
X131915000Y-125272440D01*
X133515000Y-125272440D01*
X133762765Y-125223157D01*
X133972809Y-125082809D01*
X134113157Y-124872765D01*
X134162440Y-124625000D01*
X134162440Y-124381893D01*
X134268466Y-124637862D01*
X134672138Y-125041534D01*
X135199561Y-125260000D01*
X135770439Y-125260000D01*
X136110000Y-125119349D01*
X136110000Y-125426570D01*
X136057138Y-125448466D01*
X135653466Y-125852138D01*
X135485000Y-126258850D01*
X135316534Y-125852138D01*
X134912862Y-125448466D01*
X134385439Y-125230000D01*
X133814561Y-125230000D01*
X133287138Y-125448466D01*
X132883466Y-125852138D01*
X132665000Y-126379561D01*
X132665000Y-126950439D01*
X132883466Y-127477862D01*
X133287138Y-127881534D01*
X133814561Y-128100000D01*
X134385439Y-128100000D01*
X134438302Y-128078104D01*
X134634672Y-128274474D01*
X134677072Y-128337930D01*
X134740528Y-128380330D01*
X134928463Y-128505905D01*
X134976606Y-128515481D01*
X135150149Y-128550001D01*
X135150153Y-128550001D01*
X135225001Y-128564889D01*
X135299849Y-128550001D01*
X138440152Y-128550001D01*
X138514999Y-128564889D01*
X138589846Y-128550001D01*
X138589851Y-128550001D01*
X138811536Y-128505905D01*
X139062928Y-128337930D01*
X139105330Y-128274471D01*
X139301698Y-128078103D01*
X139354561Y-128100000D01*
X139925439Y-128100000D01*
X140452862Y-127881534D01*
X140856534Y-127477862D01*
X141025000Y-127071150D01*
X141193466Y-127477862D01*
X141597138Y-127881534D01*
X142124561Y-128100000D01*
X142695439Y-128100000D01*
X143222862Y-127881534D01*
X143626534Y-127477862D01*
X143795000Y-127071150D01*
X143963466Y-127477862D01*
X144367138Y-127881534D01*
X144894561Y-128100000D01*
X145465439Y-128100000D01*
X145992862Y-127881534D01*
X146396534Y-127477862D01*
X146565000Y-127071150D01*
X146733466Y-127477862D01*
X147137138Y-127881534D01*
X147664561Y-128100000D01*
X148235439Y-128100000D01*
X148762862Y-127881534D01*
X149166534Y-127477862D01*
X149335000Y-127071150D01*
X149503466Y-127477862D01*
X149907138Y-127881534D01*
X150434561Y-128100000D01*
X151005439Y-128100000D01*
X151532862Y-127881534D01*
X151936534Y-127477862D01*
X152084756Y-127120022D01*
X157364584Y-127120022D01*
X157585353Y-127490743D01*
X158557012Y-127884119D01*
X159605247Y-127875713D01*
X160534647Y-127490743D01*
X160755416Y-127120022D01*
X159060000Y-125424605D01*
X157364584Y-127120022D01*
X152084756Y-127120022D01*
X152155000Y-126950439D01*
X152155000Y-126379561D01*
X151936534Y-125852138D01*
X151532862Y-125448466D01*
X151005439Y-125230000D01*
X150434561Y-125230000D01*
X149907138Y-125448466D01*
X149503466Y-125852138D01*
X149335000Y-126258850D01*
X149166534Y-125852138D01*
X148762862Y-125448466D01*
X148235439Y-125230000D01*
X147664561Y-125230000D01*
X147137138Y-125448466D01*
X146733466Y-125852138D01*
X146565000Y-126258850D01*
X146396534Y-125852138D01*
X145992862Y-125448466D01*
X145940000Y-125426570D01*
X145940000Y-125119349D01*
X146279561Y-125260000D01*
X146850439Y-125260000D01*
X147377862Y-125041534D01*
X147781534Y-124637862D01*
X147950000Y-124231150D01*
X148118466Y-124637862D01*
X148522138Y-125041534D01*
X149049561Y-125260000D01*
X149620439Y-125260000D01*
X150147862Y-125041534D01*
X150551534Y-124637862D01*
X150720000Y-124231150D01*
X150888466Y-124637862D01*
X151292138Y-125041534D01*
X151819561Y-125260000D01*
X152390439Y-125260000D01*
X152917862Y-125041534D01*
X153217384Y-124742012D01*
X156420881Y-124742012D01*
X156429287Y-125790247D01*
X156814257Y-126719647D01*
X157184978Y-126940416D01*
X158880395Y-125245000D01*
X159239605Y-125245000D01*
X160935022Y-126940416D01*
X161305743Y-126719647D01*
X161699119Y-125747988D01*
X161690713Y-124699753D01*
X161305743Y-123770353D01*
X160935022Y-123549584D01*
X159239605Y-125245000D01*
X158880395Y-125245000D01*
X157184978Y-123549584D01*
X156814257Y-123770353D01*
X156420881Y-124742012D01*
X153217384Y-124742012D01*
X153321534Y-124637862D01*
X153540000Y-124110439D01*
X153540000Y-123539561D01*
X153469757Y-123369978D01*
X157364584Y-123369978D01*
X159060000Y-125065395D01*
X160755416Y-123369978D01*
X160534647Y-122999257D01*
X159562988Y-122605881D01*
X158514753Y-122614287D01*
X157585353Y-122999257D01*
X157364584Y-123369978D01*
X153469757Y-123369978D01*
X153321534Y-123012138D01*
X152917862Y-122608466D01*
X152390439Y-122390000D01*
X151819561Y-122390000D01*
X151292138Y-122608466D01*
X150888466Y-123012138D01*
X150720000Y-123418850D01*
X150551534Y-123012138D01*
X150147862Y-122608466D01*
X149620439Y-122390000D01*
X149049561Y-122390000D01*
X148522138Y-122608466D01*
X148118466Y-123012138D01*
X147950000Y-123418850D01*
X147781534Y-123012138D01*
X147377862Y-122608466D01*
X146850439Y-122390000D01*
X146279561Y-122390000D01*
X145940000Y-122530651D01*
X145940000Y-119219847D01*
X145954888Y-119145000D01*
X145940000Y-119070153D01*
X145940000Y-119070148D01*
X145895904Y-118848463D01*
X145727929Y-118597071D01*
X145664473Y-118554671D01*
X143638688Y-116528887D01*
X143703113Y-116205000D01*
X143591740Y-115645091D01*
X143274577Y-115170423D01*
X142799909Y-114853260D01*
X142381333Y-114770000D01*
X142098667Y-114770000D01*
X141680091Y-114853260D01*
X141205423Y-115170423D01*
X140970000Y-115522758D01*
X140734577Y-115170423D01*
X140259909Y-114853260D01*
X139841333Y-114770000D01*
X139558667Y-114770000D01*
X139140091Y-114853260D01*
X138665423Y-115170423D01*
X138348260Y-115645091D01*
X138236887Y-116205000D01*
X138301312Y-116528886D01*
X136385528Y-118444671D01*
X136322072Y-118487071D01*
X136279672Y-118550527D01*
X136279671Y-118550528D01*
X136154097Y-118738463D01*
X136095112Y-119035000D01*
X136110001Y-119109852D01*
X136110001Y-122530651D01*
X135770439Y-122390000D01*
X135199561Y-122390000D01*
X134672138Y-122608466D01*
X134268466Y-123012138D01*
X134162440Y-123268107D01*
X134162440Y-123025000D01*
X134113157Y-122777235D01*
X133972809Y-122567191D01*
X133762765Y-122426843D01*
X133515000Y-122377560D01*
X131915000Y-122377560D01*
X131667235Y-122426843D01*
X131457191Y-122567191D01*
X131316843Y-122777235D01*
X131267560Y-123025000D01*
X131267560Y-123176517D01*
X131180526Y-123234671D01*
X131180524Y-123234673D01*
X131117071Y-123277071D01*
X131074673Y-123340524D01*
X128216750Y-126198448D01*
X128399119Y-125747988D01*
X128390713Y-124699753D01*
X128005743Y-123770353D01*
X127635022Y-123549584D01*
X125939605Y-125245000D01*
X125953748Y-125259142D01*
X125774142Y-125438748D01*
X125760000Y-125424605D01*
X124064584Y-127120022D01*
X124278962Y-127480011D01*
X118631038Y-127480011D01*
X118845416Y-127120022D01*
X117150000Y-125424605D01*
X115454584Y-127120022D01*
X115668962Y-127480011D01*
X110024385Y-127480011D01*
X110026534Y-127477862D01*
X110245000Y-126950439D01*
X110245000Y-126379561D01*
X110026534Y-125852138D01*
X109622862Y-125448466D01*
X109095439Y-125230000D01*
X108524561Y-125230000D01*
X107997138Y-125448466D01*
X107593466Y-125852138D01*
X107425000Y-126258850D01*
X107256534Y-125852138D01*
X106852862Y-125448466D01*
X106325439Y-125230000D01*
X105754561Y-125230000D01*
X105227138Y-125448466D01*
X104823466Y-125852138D01*
X104655000Y-126258850D01*
X104486534Y-125852138D01*
X104082862Y-125448466D01*
X103555439Y-125230000D01*
X102984561Y-125230000D01*
X102924716Y-125254789D01*
X102766538Y-125149097D01*
X102582238Y-125112437D01*
X102565967Y-125096167D01*
X102697862Y-125041534D01*
X103101534Y-124637862D01*
X103270000Y-124231150D01*
X103438466Y-124637862D01*
X103842138Y-125041534D01*
X104369561Y-125260000D01*
X104940439Y-125260000D01*
X105467862Y-125041534D01*
X105871534Y-124637862D01*
X106040000Y-124231150D01*
X106208466Y-124637862D01*
X106612138Y-125041534D01*
X107139561Y-125260000D01*
X107710439Y-125260000D01*
X108237862Y-125041534D01*
X108641534Y-124637862D01*
X108810000Y-124231150D01*
X108978466Y-124637862D01*
X109382138Y-125041534D01*
X109909561Y-125260000D01*
X110480439Y-125260000D01*
X111007862Y-125041534D01*
X111307384Y-124742012D01*
X114510881Y-124742012D01*
X114519287Y-125790247D01*
X114904257Y-126719647D01*
X115274978Y-126940416D01*
X116970395Y-125245000D01*
X117329605Y-125245000D01*
X119025022Y-126940416D01*
X119395743Y-126719647D01*
X119789119Y-125747988D01*
X119781052Y-124742012D01*
X123120881Y-124742012D01*
X123129287Y-125790247D01*
X123514257Y-126719647D01*
X123884978Y-126940416D01*
X125580395Y-125245000D01*
X123884978Y-123549584D01*
X123514257Y-123770353D01*
X123120881Y-124742012D01*
X119781052Y-124742012D01*
X119780713Y-124699753D01*
X119395743Y-123770353D01*
X119025022Y-123549584D01*
X117329605Y-125245000D01*
X116970395Y-125245000D01*
X115274978Y-123549584D01*
X114904257Y-123770353D01*
X114510881Y-124742012D01*
X111307384Y-124742012D01*
X111411534Y-124637862D01*
X111630000Y-124110439D01*
X111630000Y-123539561D01*
X111559757Y-123369978D01*
X115454584Y-123369978D01*
X117150000Y-125065395D01*
X118845416Y-123369978D01*
X124064584Y-123369978D01*
X125760000Y-125065395D01*
X127455416Y-123369978D01*
X127234647Y-122999257D01*
X126262988Y-122605881D01*
X125214753Y-122614287D01*
X124285353Y-122999257D01*
X124064584Y-123369978D01*
X118845416Y-123369978D01*
X118624647Y-122999257D01*
X117652988Y-122605881D01*
X116604753Y-122614287D01*
X115675353Y-122999257D01*
X115454584Y-123369978D01*
X111559757Y-123369978D01*
X111411534Y-123012138D01*
X111007862Y-122608466D01*
X110480439Y-122390000D01*
X109909561Y-122390000D01*
X109382138Y-122608466D01*
X108978466Y-123012138D01*
X108810000Y-123418850D01*
X108641534Y-123012138D01*
X108237862Y-122608466D01*
X107710439Y-122390000D01*
X107139561Y-122390000D01*
X106612138Y-122608466D01*
X106208466Y-123012138D01*
X106040000Y-123418850D01*
X105871534Y-123012138D01*
X105467862Y-122608466D01*
X104940439Y-122390000D01*
X104369561Y-122390000D01*
X103842138Y-122608466D01*
X103438466Y-123012138D01*
X103270000Y-123418850D01*
X103101534Y-123012138D01*
X102697862Y-122608466D01*
X102170439Y-122390000D01*
X101599561Y-122390000D01*
X101519999Y-122422956D01*
X101519999Y-121789845D01*
X101534887Y-121714998D01*
X101519999Y-121640151D01*
X101519999Y-121640147D01*
X101475903Y-121418462D01*
X101434101Y-121355901D01*
X101350328Y-121230525D01*
X101350326Y-121230523D01*
X101307928Y-121167070D01*
X101244475Y-121124672D01*
X96648688Y-116528887D01*
X96713113Y-116205000D01*
X96601740Y-115645091D01*
X96284577Y-115170423D01*
X95809909Y-114853260D01*
X95391333Y-114770000D01*
X95108667Y-114770000D01*
X94690091Y-114853260D01*
X94215423Y-115170423D01*
X93980000Y-115522758D01*
X93744577Y-115170423D01*
X93269909Y-114853260D01*
X92851333Y-114770000D01*
X92568667Y-114770000D01*
X92150091Y-114853260D01*
X91675423Y-115170423D01*
X91565000Y-115335683D01*
X91565000Y-109446828D01*
X91972577Y-109816041D01*
X92360961Y-109976904D01*
X92583000Y-109854915D01*
X92583000Y-108712000D01*
X92563000Y-108712000D01*
X92563000Y-108458000D01*
X92583000Y-108458000D01*
X92583000Y-107315085D01*
X92837000Y-107315085D01*
X92837000Y-108458000D01*
X92857000Y-108458000D01*
X92857000Y-108712000D01*
X92837000Y-108712000D01*
X92837000Y-109854915D01*
X93059039Y-109976904D01*
X93447423Y-109816041D01*
X93820987Y-109477639D01*
X93851843Y-109632765D01*
X93992191Y-109842809D01*
X94202235Y-109983157D01*
X94450000Y-110032440D01*
X96050000Y-110032440D01*
X96297765Y-109983157D01*
X96507809Y-109842809D01*
X96648157Y-109632765D01*
X96697440Y-109385000D01*
X96697440Y-107785000D01*
X96648157Y-107537235D01*
X96507809Y-107327191D01*
X96297765Y-107186843D01*
X96050000Y-107137560D01*
X96010000Y-107137560D01*
X96010000Y-106648430D01*
X96062862Y-106626534D01*
X96466534Y-106222862D01*
X96685000Y-105695439D01*
X96685000Y-105124561D01*
X96466534Y-104597138D01*
X96062862Y-104193466D01*
X95535439Y-103975000D01*
X94964561Y-103975000D01*
X94437138Y-104193466D01*
X94033466Y-104597138D01*
X93815000Y-105124561D01*
X93815000Y-105695439D01*
X94033466Y-106222862D01*
X94437138Y-106626534D01*
X94490001Y-106648430D01*
X94490000Y-107137560D01*
X94450000Y-107137560D01*
X94202235Y-107186843D01*
X93992191Y-107327191D01*
X93851843Y-107537235D01*
X93820987Y-107692361D01*
X93447423Y-107353959D01*
X93059039Y-107193096D01*
X92837000Y-107315085D01*
X92583000Y-107315085D01*
X92360961Y-107193096D01*
X91972577Y-107353959D01*
X91565000Y-107723172D01*
X91565000Y-102134801D01*
X95784802Y-97915000D01*
X98350153Y-97915000D01*
X98425000Y-97929888D01*
X98499847Y-97915000D01*
X98499852Y-97915000D01*
X98721537Y-97870904D01*
X98972929Y-97702929D01*
X99015331Y-97639470D01*
X99372802Y-97282000D01*
X107315000Y-97282000D01*
X107363601Y-97272333D01*
X107404803Y-97244803D01*
X107432333Y-97203601D01*
X107442000Y-97155000D01*
X107442000Y-88357802D01*
X108679802Y-87120000D01*
X111259196Y-87120000D01*
X110005530Y-88373667D01*
X109942071Y-88416069D01*
X109774096Y-88667462D01*
X109730000Y-88889147D01*
X109730000Y-88889151D01*
X109715112Y-88963998D01*
X109730000Y-89038845D01*
X109730001Y-99380197D01*
X107095198Y-102015001D01*
X103039845Y-102015001D01*
X102964998Y-102000113D01*
X102890151Y-102015001D01*
X102890147Y-102015001D01*
X102668462Y-102059097D01*
X102668460Y-102059098D01*
X102668461Y-102059098D01*
X102480525Y-102184672D01*
X102480523Y-102184674D01*
X102417070Y-102227072D01*
X102374672Y-102290525D01*
X100810520Y-103854679D01*
X100747061Y-103897081D01*
X100579086Y-104148474D01*
X100534990Y-104370159D01*
X100534990Y-104370163D01*
X100520102Y-104445010D01*
X100534990Y-104519857D01*
X100534991Y-110110138D01*
X100520102Y-110184990D01*
X100534991Y-110259842D01*
X100579087Y-110481527D01*
X100747062Y-110732919D01*
X100810518Y-110775319D01*
X108444680Y-118409482D01*
X108487080Y-118472938D01*
X108550536Y-118515338D01*
X108738471Y-118640913D01*
X108786614Y-118650489D01*
X108960157Y-118685009D01*
X108960161Y-118685009D01*
X109035009Y-118699897D01*
X109109857Y-118685009D01*
X133460144Y-118685009D01*
X133534991Y-118699897D01*
X133609838Y-118685009D01*
X133609843Y-118685009D01*
X133831528Y-118640913D01*
X134082920Y-118472938D01*
X134125322Y-118409479D01*
X134931114Y-117603688D01*
X135113667Y-117640000D01*
X135396333Y-117640000D01*
X135814909Y-117556740D01*
X136289577Y-117239577D01*
X136606740Y-116764909D01*
X136718113Y-116205000D01*
X136606740Y-115645091D01*
X136289577Y-115170423D01*
X135814909Y-114853260D01*
X135396333Y-114770000D01*
X135113667Y-114770000D01*
X134695091Y-114853260D01*
X134220423Y-115170423D01*
X133903260Y-115645091D01*
X133791887Y-116205000D01*
X133856312Y-116528886D01*
X133220190Y-117165009D01*
X131846617Y-117165009D01*
X131962389Y-117060134D01*
X132201914Y-116554041D01*
X132080629Y-116332000D01*
X130937000Y-116332000D01*
X130937000Y-116352000D01*
X130683000Y-116352000D01*
X130683000Y-116332000D01*
X130663000Y-116332000D01*
X130663000Y-116078000D01*
X130683000Y-116078000D01*
X130683000Y-114935085D01*
X130937000Y-114935085D01*
X130937000Y-116078000D01*
X132080629Y-116078000D01*
X132201914Y-115855959D01*
X131962389Y-115349866D01*
X131547423Y-114973959D01*
X131159039Y-114813096D01*
X130937000Y-114935085D01*
X130683000Y-114935085D01*
X130460961Y-114813096D01*
X130072577Y-114973959D01*
X129699013Y-115312361D01*
X129668157Y-115157235D01*
X129527809Y-114947191D01*
X129317765Y-114806843D01*
X129070000Y-114757560D01*
X127470000Y-114757560D01*
X127222235Y-114806843D01*
X127012191Y-114947191D01*
X126871843Y-115157235D01*
X126822560Y-115405000D01*
X126822560Y-115445000D01*
X124428430Y-115445000D01*
X124406534Y-115392138D01*
X124002862Y-114988466D01*
X123475439Y-114770000D01*
X122904561Y-114770000D01*
X122377138Y-114988466D01*
X121973466Y-115392138D01*
X121755000Y-115919561D01*
X121755000Y-116490439D01*
X121973466Y-117017862D01*
X122120613Y-117165009D01*
X120129793Y-117165009D01*
X120499473Y-116795329D01*
X120562929Y-116752929D01*
X120730904Y-116501537D01*
X120775000Y-116279852D01*
X120775000Y-116279848D01*
X120789888Y-116205001D01*
X120775000Y-116130154D01*
X120775000Y-110169801D01*
X121599802Y-109345000D01*
X121971957Y-109345000D01*
X122155423Y-109619577D01*
X122630091Y-109936740D01*
X123048667Y-110020000D01*
X123331333Y-110020000D01*
X123749909Y-109936740D01*
X124224577Y-109619577D01*
X124541740Y-109144909D01*
X124653113Y-108585000D01*
X124541740Y-108025091D01*
X124224577Y-107550423D01*
X123749909Y-107233260D01*
X123331333Y-107150000D01*
X123048667Y-107150000D01*
X122630091Y-107233260D01*
X122155423Y-107550423D01*
X121971957Y-107825000D01*
X121359846Y-107825000D01*
X121284999Y-107810112D01*
X121210152Y-107825000D01*
X121210148Y-107825000D01*
X120988463Y-107869096D01*
X120737071Y-108037071D01*
X120694672Y-108100526D01*
X119530528Y-109264671D01*
X119467072Y-109307071D01*
X119299097Y-109558463D01*
X119259009Y-109760001D01*
X119240112Y-109855000D01*
X119255001Y-109929852D01*
X119255000Y-115890198D01*
X118769499Y-116375700D01*
X118745629Y-116332000D01*
X117602000Y-116332000D01*
X117602000Y-116352000D01*
X117348000Y-116352000D01*
X117348000Y-116332000D01*
X117328000Y-116332000D01*
X117328000Y-116078000D01*
X117348000Y-116078000D01*
X117348000Y-114935085D01*
X117602000Y-114935085D01*
X117602000Y-116078000D01*
X118745629Y-116078000D01*
X118866914Y-115855959D01*
X118627389Y-115349866D01*
X118212423Y-114973959D01*
X117824039Y-114813096D01*
X117602000Y-114935085D01*
X117348000Y-114935085D01*
X117125961Y-114813096D01*
X116737577Y-114973959D01*
X116364013Y-115312361D01*
X116333157Y-115157235D01*
X116192809Y-114947191D01*
X115982765Y-114806843D01*
X115735000Y-114757560D01*
X114135000Y-114757560D01*
X113887235Y-114806843D01*
X113677191Y-114947191D01*
X113536843Y-115157235D01*
X113487560Y-115405000D01*
X113487560Y-115445000D01*
X111093430Y-115445000D01*
X111071534Y-115392138D01*
X110667862Y-114988466D01*
X110140439Y-114770000D01*
X109569561Y-114770000D01*
X109042138Y-114988466D01*
X108638466Y-115392138D01*
X108583833Y-115524033D01*
X102504999Y-109445200D01*
X102504999Y-106800510D01*
X102728667Y-106845000D01*
X103011333Y-106845000D01*
X103193887Y-106808688D01*
X106579672Y-110194474D01*
X106622072Y-110257930D01*
X106685528Y-110300330D01*
X106873463Y-110425905D01*
X106921606Y-110435481D01*
X107095149Y-110470001D01*
X107095153Y-110470001D01*
X107170001Y-110484889D01*
X107244849Y-110470001D01*
X110320154Y-110470001D01*
X110395001Y-110484889D01*
X110469848Y-110470001D01*
X110469853Y-110470001D01*
X110691538Y-110425905D01*
X110942930Y-110257930D01*
X110985332Y-110194471D01*
X111514474Y-109665330D01*
X111577930Y-109622930D01*
X111745905Y-109371538D01*
X111790001Y-109149853D01*
X111790001Y-109149849D01*
X111804889Y-109075001D01*
X111790001Y-109000153D01*
X111790001Y-106156746D01*
X111815582Y-106173839D01*
X112248744Y-106260000D01*
X112541256Y-106260000D01*
X112974418Y-106173839D01*
X113465625Y-105845625D01*
X113665000Y-105547239D01*
X113864375Y-105845625D01*
X114175001Y-106053178D01*
X114175000Y-107366956D01*
X113900423Y-107550423D01*
X113583260Y-108025091D01*
X113471887Y-108585000D01*
X113583260Y-109144909D01*
X113900423Y-109619577D01*
X114375091Y-109936740D01*
X114793667Y-110020000D01*
X115076333Y-110020000D01*
X115494909Y-109936740D01*
X115969577Y-109619577D01*
X116205000Y-109267242D01*
X116440423Y-109619577D01*
X116915091Y-109936740D01*
X117333667Y-110020000D01*
X117616333Y-110020000D01*
X118034909Y-109936740D01*
X118509577Y-109619577D01*
X118826740Y-109144909D01*
X118938113Y-108585000D01*
X118826740Y-108025091D01*
X118509577Y-107550423D01*
X118235000Y-107366957D01*
X118235000Y-106053178D01*
X118545625Y-105845625D01*
X118873839Y-105354418D01*
X118932252Y-105060750D01*
X121705000Y-105060750D01*
X121705000Y-105751309D01*
X121801673Y-105984698D01*
X121980301Y-106163327D01*
X122213690Y-106260000D01*
X122904250Y-106260000D01*
X123063000Y-106101250D01*
X123063000Y-104902000D01*
X121863750Y-104902000D01*
X121705000Y-105060750D01*
X118932252Y-105060750D01*
X118989092Y-104775000D01*
X118873839Y-104195582D01*
X118608645Y-103798691D01*
X121705000Y-103798691D01*
X121705000Y-104489250D01*
X121863750Y-104648000D01*
X123063000Y-104648000D01*
X123063000Y-103448750D01*
X122904250Y-103290000D01*
X122213690Y-103290000D01*
X121980301Y-103386673D01*
X121801673Y-103565302D01*
X121705000Y-103798691D01*
X118608645Y-103798691D01*
X118545625Y-103704375D01*
X118054418Y-103376161D01*
X117621256Y-103290000D01*
X117328744Y-103290000D01*
X116895582Y-103376161D01*
X116404375Y-103704375D01*
X116205000Y-104002761D01*
X116005625Y-103704375D01*
X115514418Y-103376161D01*
X115081256Y-103290000D01*
X114954801Y-103290000D01*
X116664801Y-101580001D01*
X127850197Y-101580001D01*
X126096408Y-103333791D01*
X125876256Y-103290000D01*
X125583744Y-103290000D01*
X125150582Y-103376161D01*
X124659375Y-103704375D01*
X124644904Y-103726033D01*
X124578327Y-103565302D01*
X124399699Y-103386673D01*
X124166310Y-103290000D01*
X123475750Y-103290000D01*
X123317000Y-103448750D01*
X123317000Y-104648000D01*
X123337000Y-104648000D01*
X123337000Y-104902000D01*
X123317000Y-104902000D01*
X123317000Y-106101250D01*
X123475750Y-106260000D01*
X124166310Y-106260000D01*
X124399699Y-106163327D01*
X124578327Y-105984698D01*
X124644904Y-105823967D01*
X124659375Y-105845625D01*
X125150582Y-106173839D01*
X125583744Y-106260000D01*
X125876256Y-106260000D01*
X126309418Y-106173839D01*
X126800625Y-105845625D01*
X127000000Y-105547239D01*
X127199375Y-105845625D01*
X127510000Y-106053178D01*
X127510001Y-107366956D01*
X127235423Y-107550423D01*
X126918260Y-108025091D01*
X126806887Y-108585000D01*
X126918260Y-109144909D01*
X127235423Y-109619577D01*
X127710091Y-109936740D01*
X128128667Y-110020000D01*
X128411333Y-110020000D01*
X128829909Y-109936740D01*
X129304577Y-109619577D01*
X129540000Y-109267242D01*
X129775423Y-109619577D01*
X130250091Y-109936740D01*
X130668667Y-110020000D01*
X130951333Y-110020000D01*
X131369909Y-109936740D01*
X131844577Y-109619577D01*
X132161740Y-109144909D01*
X132273113Y-108585000D01*
X132216336Y-108299561D01*
X133820000Y-108299561D01*
X133820000Y-108870439D01*
X134038466Y-109397862D01*
X134442138Y-109801534D01*
X134969561Y-110020000D01*
X135540439Y-110020000D01*
X136067862Y-109801534D01*
X136471534Y-109397862D01*
X136663655Y-108934041D01*
X138308086Y-108934041D01*
X138547611Y-109440134D01*
X138962577Y-109816041D01*
X139350961Y-109976904D01*
X139573000Y-109854915D01*
X139573000Y-108712000D01*
X138429371Y-108712000D01*
X138308086Y-108934041D01*
X136663655Y-108934041D01*
X136690000Y-108870439D01*
X136690000Y-108299561D01*
X136668103Y-108246698D01*
X136694802Y-108219999D01*
X138315640Y-108219999D01*
X138308086Y-108235959D01*
X138429371Y-108458000D01*
X139573000Y-108458000D01*
X139573000Y-108438000D01*
X139827000Y-108438000D01*
X139827000Y-108458000D01*
X139847000Y-108458000D01*
X139847000Y-108712000D01*
X139827000Y-108712000D01*
X139827000Y-109854915D01*
X140049039Y-109976904D01*
X140437423Y-109816041D01*
X140810987Y-109477639D01*
X140841843Y-109632765D01*
X140982191Y-109842809D01*
X141192235Y-109983157D01*
X141440000Y-110032440D01*
X143040000Y-110032440D01*
X143287765Y-109983157D01*
X143497809Y-109842809D01*
X143638157Y-109632765D01*
X143687440Y-109385000D01*
X143687440Y-107785000D01*
X143638157Y-107537235D01*
X143497809Y-107327191D01*
X143287765Y-107186843D01*
X143040000Y-107137560D01*
X141440000Y-107137560D01*
X141192235Y-107186843D01*
X141101964Y-107247161D01*
X140830332Y-106975529D01*
X140787930Y-106912070D01*
X140536538Y-106744095D01*
X140314853Y-106699999D01*
X140314848Y-106699999D01*
X140240001Y-106685111D01*
X140165154Y-106699999D01*
X136454847Y-106699999D01*
X136380000Y-106685111D01*
X136305153Y-106699999D01*
X136305149Y-106699999D01*
X136083464Y-106744095D01*
X135832072Y-106912070D01*
X135789670Y-106975529D01*
X135593302Y-107171897D01*
X135540439Y-107150000D01*
X134969561Y-107150000D01*
X134442138Y-107368466D01*
X134038466Y-107772138D01*
X133820000Y-108299561D01*
X132216336Y-108299561D01*
X132161740Y-108025091D01*
X131844577Y-107550423D01*
X131570000Y-107366957D01*
X131570000Y-106053178D01*
X131880625Y-105845625D01*
X132208839Y-105354418D01*
X132324092Y-104775000D01*
X132208839Y-104195582D01*
X131880625Y-103704375D01*
X131389418Y-103376161D01*
X130956256Y-103290000D01*
X130663744Y-103290000D01*
X130230582Y-103376161D01*
X129739375Y-103704375D01*
X129540000Y-104002761D01*
X129340625Y-103704375D01*
X128849418Y-103376161D01*
X128416256Y-103290000D01*
X128289801Y-103290000D01*
X129549791Y-102030011D01*
X147575142Y-102030011D01*
X147649989Y-102044899D01*
X147724836Y-102030011D01*
X147724841Y-102030011D01*
X147946526Y-101985915D01*
X148197918Y-101817940D01*
X148240320Y-101754481D01*
X148901114Y-101093688D01*
X149083667Y-101130000D01*
X149366333Y-101130000D01*
X149784909Y-101046740D01*
X150259577Y-100729577D01*
X150515947Y-100345892D01*
X150612611Y-100550134D01*
X151027577Y-100926041D01*
X151415961Y-101086904D01*
X151638000Y-100964915D01*
X151638000Y-99822000D01*
X151892000Y-99822000D01*
X151892000Y-100964915D01*
X152114039Y-101086904D01*
X152502423Y-100926041D01*
X152917389Y-100550134D01*
X153035000Y-100301633D01*
X153152611Y-100550134D01*
X153567577Y-100926041D01*
X153955961Y-101086904D01*
X154178000Y-100964915D01*
X154178000Y-99822000D01*
X151892000Y-99822000D01*
X151638000Y-99822000D01*
X151618000Y-99822000D01*
X151618000Y-99568000D01*
X151638000Y-99568000D01*
X151638000Y-98425085D01*
X151892000Y-98425085D01*
X151892000Y-99568000D01*
X154178000Y-99568000D01*
X154178000Y-98425085D01*
X153955961Y-98303096D01*
X153567577Y-98463959D01*
X153152611Y-98839866D01*
X153035000Y-99088367D01*
X152917389Y-98839866D01*
X152502423Y-98463959D01*
X152114039Y-98303096D01*
X151892000Y-98425085D01*
X151638000Y-98425085D01*
X151415961Y-98303096D01*
X151027577Y-98463959D01*
X150612611Y-98839866D01*
X150515947Y-99044108D01*
X150259577Y-98660423D01*
X149784909Y-98343260D01*
X149366333Y-98260000D01*
X149083667Y-98260000D01*
X148665091Y-98343260D01*
X148190423Y-98660423D01*
X147955000Y-99012758D01*
X147719577Y-98660423D01*
X147244909Y-98343260D01*
X146826333Y-98260000D01*
X146543667Y-98260000D01*
X146361114Y-98296312D01*
X146005331Y-97940530D01*
X145962929Y-97877071D01*
X145711537Y-97709096D01*
X145489852Y-97665000D01*
X145489847Y-97665000D01*
X145415000Y-97650112D01*
X145340153Y-97665000D01*
X141286212Y-97665000D01*
X130741211Y-87120000D01*
X133035199Y-87120000D01*
X137666312Y-91751114D01*
X137601887Y-92075000D01*
X137713260Y-92634909D01*
X138030423Y-93109577D01*
X138505091Y-93426740D01*
X138923667Y-93510000D01*
X139206333Y-93510000D01*
X139624909Y-93426740D01*
X140099577Y-93109577D01*
X140355947Y-92725892D01*
X140452611Y-92930134D01*
X140867577Y-93306041D01*
X141255961Y-93466904D01*
X141478000Y-93344915D01*
X141478000Y-92202000D01*
X141732000Y-92202000D01*
X141732000Y-93344915D01*
X141954039Y-93466904D01*
X142342423Y-93306041D01*
X142757389Y-92930134D01*
X142875000Y-92681633D01*
X142992611Y-92930134D01*
X143407577Y-93306041D01*
X143795961Y-93466904D01*
X144018000Y-93344915D01*
X144018000Y-92202000D01*
X141732000Y-92202000D01*
X141478000Y-92202000D01*
X141458000Y-92202000D01*
X141458000Y-91948000D01*
X141478000Y-91948000D01*
X141478000Y-90805085D01*
X141732000Y-90805085D01*
X141732000Y-91948000D01*
X144018000Y-91948000D01*
X144018000Y-90805085D01*
X143795961Y-90683096D01*
X143407577Y-90843959D01*
X142992611Y-91219866D01*
X142875000Y-91468367D01*
X142757389Y-91219866D01*
X142342423Y-90843959D01*
X141954039Y-90683096D01*
X141732000Y-90805085D01*
X141478000Y-90805085D01*
X141255961Y-90683096D01*
X140867577Y-90843959D01*
X140452611Y-91219866D01*
X140355947Y-91424108D01*
X140099577Y-91040423D01*
X139624909Y-90723260D01*
X139206333Y-90640000D01*
X138923667Y-90640000D01*
X138741114Y-90676312D01*
X136615552Y-88550750D01*
X142660000Y-88550750D01*
X142660000Y-89241309D01*
X142756673Y-89474698D01*
X142935301Y-89653327D01*
X143168690Y-89750000D01*
X143859250Y-89750000D01*
X144018000Y-89591250D01*
X144018000Y-88392000D01*
X142818750Y-88392000D01*
X142660000Y-88550750D01*
X136615552Y-88550750D01*
X135353493Y-87288691D01*
X142660000Y-87288691D01*
X142660000Y-87979250D01*
X142818750Y-88138000D01*
X144018000Y-88138000D01*
X144018000Y-86938750D01*
X143859250Y-86780000D01*
X143168690Y-86780000D01*
X142935301Y-86876673D01*
X142756673Y-87055302D01*
X142660000Y-87288691D01*
X135353493Y-87288691D01*
X133940331Y-85875530D01*
X133897929Y-85812071D01*
X133646537Y-85644096D01*
X133424852Y-85600000D01*
X133424847Y-85600000D01*
X133350000Y-85585112D01*
X133275153Y-85600000D01*
X108439848Y-85600000D01*
X108365000Y-85585112D01*
X108290152Y-85600000D01*
X108290148Y-85600000D01*
X108068463Y-85644096D01*
X107817071Y-85812071D01*
X107774671Y-85875527D01*
X107442000Y-86208198D01*
X107442000Y-84580000D01*
X149940201Y-84580000D01*
X152865200Y-87505000D01*
X150503178Y-87505000D01*
X150295625Y-87194375D01*
X149804418Y-86866161D01*
X149371256Y-86780000D01*
X149078744Y-86780000D01*
X148645582Y-86866161D01*
X148154375Y-87194375D01*
X147955000Y-87492761D01*
X147755625Y-87194375D01*
X147264418Y-86866161D01*
X146831256Y-86780000D01*
X146538744Y-86780000D01*
X146105582Y-86866161D01*
X145614375Y-87194375D01*
X145599904Y-87216033D01*
X145533327Y-87055302D01*
X145354699Y-86876673D01*
X145121310Y-86780000D01*
X144430750Y-86780000D01*
X144272000Y-86938750D01*
X144272000Y-88138000D01*
X144292000Y-88138000D01*
X144292000Y-88392000D01*
X144272000Y-88392000D01*
X144272000Y-89591250D01*
X144430750Y-89750000D01*
X145121310Y-89750000D01*
X145354699Y-89653327D01*
X145533327Y-89474698D01*
X145599904Y-89313967D01*
X145614375Y-89335625D01*
X145925001Y-89543178D01*
X145925000Y-90856956D01*
X145650423Y-91040423D01*
X145394053Y-91424108D01*
X145297389Y-91219866D01*
X144882423Y-90843959D01*
X144494039Y-90683096D01*
X144272000Y-90805085D01*
X144272000Y-91948000D01*
X144292000Y-91948000D01*
X144292000Y-92202000D01*
X144272000Y-92202000D01*
X144272000Y-93344915D01*
X144494039Y-93466904D01*
X144882423Y-93306041D01*
X145297389Y-92930134D01*
X145394053Y-92725892D01*
X145650423Y-93109577D01*
X146125091Y-93426740D01*
X146543667Y-93510000D01*
X146826333Y-93510000D01*
X147244909Y-93426740D01*
X147719577Y-93109577D01*
X147975947Y-92725892D01*
X148072611Y-92930134D01*
X148487577Y-93306041D01*
X148875961Y-93466904D01*
X149098000Y-93344915D01*
X149098000Y-92202000D01*
X149352000Y-92202000D01*
X149352000Y-93344915D01*
X149574039Y-93466904D01*
X149962423Y-93306041D01*
X150377389Y-92930134D01*
X150495000Y-92681633D01*
X150612611Y-92930134D01*
X151027577Y-93306041D01*
X151415961Y-93466904D01*
X151638000Y-93344915D01*
X151638000Y-92202000D01*
X151892000Y-92202000D01*
X151892000Y-93344915D01*
X152114039Y-93466904D01*
X152502423Y-93306041D01*
X152917389Y-92930134D01*
X153035000Y-92681633D01*
X153152611Y-92930134D01*
X153567577Y-93306041D01*
X153955961Y-93466904D01*
X154178000Y-93344915D01*
X154178000Y-92202000D01*
X154432000Y-92202000D01*
X154432000Y-93344915D01*
X154654039Y-93466904D01*
X155042423Y-93306041D01*
X155457389Y-92930134D01*
X155575000Y-92681633D01*
X155692611Y-92930134D01*
X156107577Y-93306041D01*
X156495961Y-93466904D01*
X156718000Y-93344915D01*
X156718000Y-92202000D01*
X154432000Y-92202000D01*
X154178000Y-92202000D01*
X151892000Y-92202000D01*
X151638000Y-92202000D01*
X149352000Y-92202000D01*
X149098000Y-92202000D01*
X149078000Y-92202000D01*
X149078000Y-91948000D01*
X149098000Y-91948000D01*
X149098000Y-90805085D01*
X149352000Y-90805085D01*
X149352000Y-91948000D01*
X151638000Y-91948000D01*
X151638000Y-90805085D01*
X151892000Y-90805085D01*
X151892000Y-91948000D01*
X154178000Y-91948000D01*
X154178000Y-90805085D01*
X153955961Y-90683096D01*
X153567577Y-90843959D01*
X153152611Y-91219866D01*
X153035000Y-91468367D01*
X152917389Y-91219866D01*
X152502423Y-90843959D01*
X152114039Y-90683096D01*
X151892000Y-90805085D01*
X151638000Y-90805085D01*
X151415961Y-90683096D01*
X151027577Y-90843959D01*
X150612611Y-91219866D01*
X150495000Y-91468367D01*
X150377389Y-91219866D01*
X149962423Y-90843959D01*
X149574039Y-90683096D01*
X149352000Y-90805085D01*
X149098000Y-90805085D01*
X148875961Y-90683096D01*
X148487577Y-90843959D01*
X148072611Y-91219866D01*
X147975947Y-91424108D01*
X147719577Y-91040423D01*
X147445000Y-90856957D01*
X147445000Y-89543178D01*
X147755625Y-89335625D01*
X147955000Y-89037239D01*
X148154375Y-89335625D01*
X148645582Y-89663839D01*
X149078744Y-89750000D01*
X149371256Y-89750000D01*
X149804418Y-89663839D01*
X150295625Y-89335625D01*
X150503178Y-89025000D01*
X154385201Y-89025000D01*
X156175872Y-90815672D01*
X156107577Y-90843959D01*
X155692611Y-91219866D01*
X155575000Y-91468367D01*
X155457389Y-91219866D01*
X155042423Y-90843959D01*
X154654039Y-90683096D01*
X154432000Y-90805085D01*
X154432000Y-91948000D01*
X156718000Y-91948000D01*
X156718000Y-91928000D01*
X156972000Y-91928000D01*
X156972000Y-91948000D01*
X156992000Y-91948000D01*
X156992000Y-92202000D01*
X156972000Y-92202000D01*
X156972000Y-93344915D01*
X157194039Y-93466904D01*
X157355001Y-93400236D01*
X157355000Y-98110198D01*
X157168886Y-98296312D01*
X156986333Y-98260000D01*
X156703667Y-98260000D01*
X156285091Y-98343260D01*
X155810423Y-98660423D01*
X155554053Y-99044108D01*
X155457389Y-98839866D01*
X155042423Y-98463959D01*
X154654039Y-98303096D01*
X154432000Y-98425085D01*
X154432000Y-99568000D01*
X154452000Y-99568000D01*
X154452000Y-99822000D01*
X154432000Y-99822000D01*
X154432000Y-100964915D01*
X154654039Y-101086904D01*
X155042423Y-100926041D01*
X155457389Y-100550134D01*
X155554053Y-100345892D01*
X155810423Y-100729577D01*
X156285091Y-101046740D01*
X156703667Y-101130000D01*
X156986333Y-101130000D01*
X157404909Y-101046740D01*
X157879577Y-100729577D01*
X158196740Y-100254909D01*
X158308113Y-99695000D01*
X158243688Y-99371114D01*
X158599473Y-99015329D01*
X158662929Y-98972929D01*
X158830904Y-98721537D01*
X158875000Y-98499852D01*
X158875000Y-98499848D01*
X158889888Y-98425001D01*
X158875000Y-98350154D01*
X158875000Y-91754844D01*
X158889888Y-91679997D01*
X158875000Y-91605150D01*
X158875000Y-91605146D01*
X158830904Y-91383461D01*
X158758433Y-91275000D01*
X158705329Y-91195524D01*
X158705327Y-91195522D01*
X158662929Y-91132069D01*
X158599476Y-91089671D01*
X155290333Y-87780530D01*
X155247931Y-87717071D01*
X155184475Y-87674671D01*
X150845333Y-83335530D01*
X150802931Y-83272071D01*
X150551539Y-83104096D01*
X150329854Y-83060000D01*
X150329849Y-83060000D01*
X150255002Y-83045112D01*
X150180155Y-83060000D01*
X107442000Y-83060000D01*
X107442000Y-82575000D01*
X161900000Y-82575000D01*
X161900001Y-133325000D01*
X81305000Y-133325000D01*
X81305000Y-127120022D01*
X82154584Y-127120022D01*
X82375353Y-127490743D01*
X83347012Y-127884119D01*
X84395247Y-127875713D01*
X85324647Y-127490743D01*
X85545416Y-127120022D01*
X83850000Y-125424605D01*
X82154584Y-127120022D01*
X81305000Y-127120022D01*
X81305000Y-125997177D01*
X81604257Y-126719647D01*
X81974978Y-126940416D01*
X83670395Y-125245000D01*
X84029605Y-125245000D01*
X85725022Y-126940416D01*
X86095743Y-126719647D01*
X86489119Y-125747988D01*
X86480713Y-124699753D01*
X86095743Y-123770353D01*
X85725022Y-123549584D01*
X84029605Y-125245000D01*
X83670395Y-125245000D01*
X81974978Y-123549584D01*
X81604257Y-123770353D01*
X81305000Y-124509533D01*
X81305000Y-123369978D01*
X82154584Y-123369978D01*
X83850000Y-125065395D01*
X85545416Y-123369978D01*
X85324647Y-122999257D01*
X84352988Y-122605881D01*
X83304753Y-122614287D01*
X82375353Y-122999257D01*
X82154584Y-123369978D01*
X81305000Y-123369978D01*
X81305000Y-82575000D01*
X82423000Y-82575000D01*
X82423000Y-90170000D01*
G36*
X109982000Y-104648000D02*
X110002000Y-104648000D01*
X110002000Y-104902000D01*
X109982000Y-104902000D01*
X109982000Y-106101250D01*
X110140750Y-106260000D01*
X110270001Y-106260000D01*
X110270001Y-107204436D01*
X109996333Y-107150000D01*
X109713667Y-107150000D01*
X109531113Y-107186312D01*
X109439999Y-107095198D01*
X109439999Y-106260000D01*
X109569250Y-106260000D01*
X109728000Y-106101250D01*
X109728000Y-104902000D01*
X109708000Y-104902000D01*
X109708000Y-104648000D01*
X109728000Y-104648000D01*
X109728000Y-104628000D01*
X109982000Y-104628000D01*
X109982000Y-104648000D01*
X109982000Y-104648000D01*
G37*
X109982000Y-104648000D02*
X110002000Y-104648000D01*
X110002000Y-104902000D01*
X109982000Y-104902000D01*
X109982000Y-106101250D01*
X110140750Y-106260000D01*
X110270001Y-106260000D01*
X110270001Y-107204436D01*
X109996333Y-107150000D01*
X109713667Y-107150000D01*
X109531113Y-107186312D01*
X109439999Y-107095198D01*
X109439999Y-106260000D01*
X109569250Y-106260000D01*
X109728000Y-106101250D01*
X109728000Y-104902000D01*
X109708000Y-104902000D01*
X109708000Y-104648000D01*
X109728000Y-104648000D01*
X109728000Y-104628000D01*
X109982000Y-104628000D01*
X109982000Y-104648000D01*
G36*
X127422073Y-88127468D02*
X128395000Y-89100395D01*
X129367927Y-88127468D01*
X129348528Y-88074999D01*
X129546608Y-88074999D01*
X135371609Y-93900001D01*
X128568291Y-93900001D01*
X128875000Y-93159542D01*
X128875000Y-92260458D01*
X128530935Y-91429813D01*
X127965889Y-90864767D01*
X128130461Y-90925908D01*
X128780460Y-90901856D01*
X129269264Y-90699387D01*
X129367927Y-90432532D01*
X128395000Y-89459605D01*
X127422073Y-90432532D01*
X127494355Y-90628035D01*
X127064542Y-90450000D01*
X126165458Y-90450000D01*
X125334813Y-90794065D01*
X125222440Y-90906438D01*
X125222440Y-89420000D01*
X125173157Y-89172235D01*
X125068404Y-89015461D01*
X126749092Y-89015461D01*
X126773144Y-89665460D01*
X126975613Y-90154264D01*
X127242468Y-90252927D01*
X128215395Y-89280000D01*
X128574605Y-89280000D01*
X129547532Y-90252927D01*
X129814387Y-90154264D01*
X130040908Y-89544539D01*
X130016856Y-88894540D01*
X129814387Y-88405736D01*
X129547532Y-88307073D01*
X128574605Y-89280000D01*
X128215395Y-89280000D01*
X127242468Y-88307073D01*
X126975613Y-88405736D01*
X126749092Y-89015461D01*
X125068404Y-89015461D01*
X125032809Y-88962191D01*
X124822765Y-88821843D01*
X124575000Y-88772560D01*
X124145652Y-88772560D01*
X124190000Y-88665494D01*
X124190000Y-88114506D01*
X124173636Y-88074999D01*
X127441472Y-88074999D01*
X127422073Y-88127468D01*
X127422073Y-88127468D01*
G37*
X127422073Y-88127468D02*
X128395000Y-89100395D01*
X129367927Y-88127468D01*
X129348528Y-88074999D01*
X129546608Y-88074999D01*
X135371609Y-93900001D01*
X128568291Y-93900001D01*
X128875000Y-93159542D01*
X128875000Y-92260458D01*
X128530935Y-91429813D01*
X127965889Y-90864767D01*
X128130461Y-90925908D01*
X128780460Y-90901856D01*
X129269264Y-90699387D01*
X129367927Y-90432532D01*
X128395000Y-89459605D01*
X127422073Y-90432532D01*
X127494355Y-90628035D01*
X127064542Y-90450000D01*
X126165458Y-90450000D01*
X125334813Y-90794065D01*
X125222440Y-90906438D01*
X125222440Y-89420000D01*
X125173157Y-89172235D01*
X125068404Y-89015461D01*
X126749092Y-89015461D01*
X126773144Y-89665460D01*
X126975613Y-90154264D01*
X127242468Y-90252927D01*
X128215395Y-89280000D01*
X128574605Y-89280000D01*
X129547532Y-90252927D01*
X129814387Y-90154264D01*
X130040908Y-89544539D01*
X130016856Y-88894540D01*
X129814387Y-88405736D01*
X129547532Y-88307073D01*
X128574605Y-89280000D01*
X128215395Y-89280000D01*
X127242468Y-88307073D01*
X126975613Y-88405736D01*
X126749092Y-89015461D01*
X125068404Y-89015461D01*
X125032809Y-88962191D01*
X124822765Y-88821843D01*
X124575000Y-88772560D01*
X124145652Y-88772560D01*
X124190000Y-88665494D01*
X124190000Y-88114506D01*
X124173636Y-88074999D01*
X127441472Y-88074999D01*
X127422073Y-88127468D01*
G36*
X115300000Y-88114506D02*
X115300000Y-88379999D01*
X114673847Y-88379999D01*
X114598999Y-88365111D01*
X114524151Y-88379999D01*
X114524147Y-88379999D01*
X114302462Y-88424095D01*
X114051070Y-88592070D01*
X114008670Y-88655526D01*
X113757313Y-88906883D01*
X113756856Y-88894540D01*
X113554387Y-88405736D01*
X113287532Y-88307073D01*
X112314605Y-89280000D01*
X112328748Y-89294143D01*
X112149143Y-89473748D01*
X112135000Y-89459605D01*
X112120858Y-89473748D01*
X111941253Y-89294143D01*
X111955395Y-89280000D01*
X111941253Y-89265858D01*
X112120858Y-89086253D01*
X112135000Y-89100395D01*
X113107927Y-88127468D01*
X113088528Y-88074999D01*
X115316364Y-88074999D01*
X115300000Y-88114506D01*
X115300000Y-88114506D01*
G37*
X115300000Y-88114506D02*
X115300000Y-88379999D01*
X114673847Y-88379999D01*
X114598999Y-88365111D01*
X114524151Y-88379999D01*
X114524147Y-88379999D01*
X114302462Y-88424095D01*
X114051070Y-88592070D01*
X114008670Y-88655526D01*
X113757313Y-88906883D01*
X113756856Y-88894540D01*
X113554387Y-88405736D01*
X113287532Y-88307073D01*
X112314605Y-89280000D01*
X112328748Y-89294143D01*
X112149143Y-89473748D01*
X112135000Y-89459605D01*
X112120858Y-89473748D01*
X111941253Y-89294143D01*
X111955395Y-89280000D01*
X111941253Y-89265858D01*
X112120858Y-89086253D01*
X112135000Y-89100395D01*
X113107927Y-88127468D01*
X113088528Y-88074999D01*
X115316364Y-88074999D01*
X115300000Y-88114506D01*
G36*
X86487000Y-86233000D02*
X86507000Y-86233000D01*
X86507000Y-86487000D01*
X86487000Y-86487000D01*
X86487000Y-87686250D01*
X86645750Y-87845000D01*
X87336310Y-87845000D01*
X87503000Y-87775955D01*
X87503000Y-91313000D01*
X85217000Y-91313000D01*
X85217000Y-87775955D01*
X85383690Y-87845000D01*
X86074250Y-87845000D01*
X86233000Y-87686250D01*
X86233000Y-86487000D01*
X86213000Y-86487000D01*
X86213000Y-86233000D01*
X86233000Y-86233000D01*
X86233000Y-86213000D01*
X86487000Y-86213000D01*
X86487000Y-86233000D01*
X86487000Y-86233000D01*
G37*
X86487000Y-86233000D02*
X86507000Y-86233000D01*
X86507000Y-86487000D01*
X86487000Y-86487000D01*
X86487000Y-87686250D01*
X86645750Y-87845000D01*
X87336310Y-87845000D01*
X87503000Y-87775955D01*
X87503000Y-91313000D01*
X85217000Y-91313000D01*
X85217000Y-87775955D01*
X85383690Y-87845000D01*
X86074250Y-87845000D01*
X86233000Y-87686250D01*
X86233000Y-86487000D01*
X86213000Y-86487000D01*
X86213000Y-86233000D01*
X86233000Y-86233000D01*
X86233000Y-86213000D01*
X86487000Y-86213000D01*
X86487000Y-86233000D01*
G04 #@! TO.N,+10V*
G36*
X106553000Y-85598000D02*
X102396854Y-85598000D01*
X102109523Y-85167977D01*
X101584410Y-84817109D01*
X100965000Y-84693900D01*
X100345589Y-84817109D01*
X99820477Y-85167977D01*
X99695000Y-85355767D01*
X99569523Y-85167977D01*
X99044410Y-84817109D01*
X98425000Y-84693900D01*
X97805589Y-84817109D01*
X97409556Y-85081729D01*
X97375827Y-85000301D01*
X97197198Y-84821673D01*
X96963809Y-84725000D01*
X96170750Y-84725000D01*
X96012000Y-84883750D01*
X96012000Y-86233000D01*
X96032000Y-86233000D01*
X96032000Y-86487000D01*
X96012000Y-86487000D01*
X96012000Y-87836250D01*
X96170750Y-87995000D01*
X96963809Y-87995000D01*
X97028000Y-87968411D01*
X97028000Y-96393000D01*
X95534791Y-96393000D01*
X95469999Y-96380112D01*
X95405207Y-96393000D01*
X90932000Y-96393000D01*
X90932000Y-92311036D01*
X92732193Y-92311036D01*
X92762518Y-92801413D01*
X92854505Y-93023490D01*
X92781843Y-93132235D01*
X92732560Y-93380000D01*
X92732560Y-94580000D01*
X92781843Y-94827765D01*
X92922191Y-95037809D01*
X93132235Y-95178157D01*
X93380000Y-95227440D01*
X94580000Y-95227440D01*
X94827765Y-95178157D01*
X95037809Y-95037809D01*
X95178157Y-94827765D01*
X95227440Y-94580000D01*
X95227440Y-93380000D01*
X95178157Y-93132235D01*
X95101291Y-93017198D01*
X95227807Y-92648964D01*
X95197482Y-92158587D01*
X95068164Y-91846383D01*
X94842735Y-91796870D01*
X94159605Y-92480000D01*
X94173748Y-92494143D01*
X93994143Y-92673748D01*
X93980000Y-92659605D01*
X93965858Y-92673748D01*
X93786253Y-92494143D01*
X93800395Y-92480000D01*
X93117265Y-91796870D01*
X92891836Y-91846383D01*
X92732193Y-92311036D01*
X90932000Y-92311036D01*
X90932000Y-91617265D01*
X93296870Y-91617265D01*
X93980000Y-92300395D01*
X94663130Y-91617265D01*
X94613617Y-91391836D01*
X94148964Y-91232193D01*
X93658587Y-91262518D01*
X93346383Y-91391836D01*
X93296870Y-91617265D01*
X90932000Y-91617265D01*
X90932000Y-89535000D01*
X90922333Y-89486399D01*
X90894803Y-89445197D01*
X90853601Y-89417667D01*
X90805000Y-89408000D01*
X88392000Y-89408000D01*
X88392000Y-87738888D01*
X88543110Y-87801476D01*
X88773000Y-87680155D01*
X88773000Y-86487000D01*
X89027000Y-86487000D01*
X89027000Y-87680155D01*
X89256890Y-87801476D01*
X89666924Y-87631645D01*
X90095183Y-87241358D01*
X90341486Y-86716892D01*
X90304145Y-86645750D01*
X94297500Y-86645750D01*
X94297500Y-87486310D01*
X94394173Y-87719699D01*
X94572802Y-87898327D01*
X94806191Y-87995000D01*
X95599250Y-87995000D01*
X95758000Y-87836250D01*
X95758000Y-86487000D01*
X94456250Y-86487000D01*
X94297500Y-86645750D01*
X90304145Y-86645750D01*
X90220819Y-86487000D01*
X89027000Y-86487000D01*
X88773000Y-86487000D01*
X88753000Y-86487000D01*
X88753000Y-86233000D01*
X88773000Y-86233000D01*
X88773000Y-85039845D01*
X89027000Y-85039845D01*
X89027000Y-86233000D01*
X90220819Y-86233000D01*
X90341486Y-86003108D01*
X90095183Y-85478642D01*
X89826400Y-85233690D01*
X94297500Y-85233690D01*
X94297500Y-86074250D01*
X94456250Y-86233000D01*
X95758000Y-86233000D01*
X95758000Y-84883750D01*
X95599250Y-84725000D01*
X94806191Y-84725000D01*
X94572802Y-84821673D01*
X94394173Y-85000301D01*
X94297500Y-85233690D01*
X89826400Y-85233690D01*
X89666924Y-85088355D01*
X89256890Y-84918524D01*
X89027000Y-85039845D01*
X88773000Y-85039845D01*
X88543110Y-84918524D01*
X88351404Y-84997926D01*
X88313601Y-84972667D01*
X88265000Y-84963000D01*
X87534326Y-84963000D01*
X87457765Y-84911843D01*
X87210000Y-84862560D01*
X85510000Y-84862560D01*
X85262235Y-84911843D01*
X85185674Y-84963000D01*
X84455000Y-84963000D01*
X84406399Y-84972667D01*
X84365197Y-85000197D01*
X84337667Y-85041399D01*
X84328000Y-85090000D01*
X84328000Y-89408000D01*
X83312000Y-89408000D01*
X83312000Y-82677000D01*
X106553000Y-82677000D01*
X106553000Y-85598000D01*
X106553000Y-85598000D01*
G37*
X106553000Y-85598000D02*
X102396854Y-85598000D01*
X102109523Y-85167977D01*
X101584410Y-84817109D01*
X100965000Y-84693900D01*
X100345589Y-84817109D01*
X99820477Y-85167977D01*
X99695000Y-85355767D01*
X99569523Y-85167977D01*
X99044410Y-84817109D01*
X98425000Y-84693900D01*
X97805589Y-84817109D01*
X97409556Y-85081729D01*
X97375827Y-85000301D01*
X97197198Y-84821673D01*
X96963809Y-84725000D01*
X96170750Y-84725000D01*
X96012000Y-84883750D01*
X96012000Y-86233000D01*
X96032000Y-86233000D01*
X96032000Y-86487000D01*
X96012000Y-86487000D01*
X96012000Y-87836250D01*
X96170750Y-87995000D01*
X96963809Y-87995000D01*
X97028000Y-87968411D01*
X97028000Y-96393000D01*
X95534791Y-96393000D01*
X95469999Y-96380112D01*
X95405207Y-96393000D01*
X90932000Y-96393000D01*
X90932000Y-92311036D01*
X92732193Y-92311036D01*
X92762518Y-92801413D01*
X92854505Y-93023490D01*
X92781843Y-93132235D01*
X92732560Y-93380000D01*
X92732560Y-94580000D01*
X92781843Y-94827765D01*
X92922191Y-95037809D01*
X93132235Y-95178157D01*
X93380000Y-95227440D01*
X94580000Y-95227440D01*
X94827765Y-95178157D01*
X95037809Y-95037809D01*
X95178157Y-94827765D01*
X95227440Y-94580000D01*
X95227440Y-93380000D01*
X95178157Y-93132235D01*
X95101291Y-93017198D01*
X95227807Y-92648964D01*
X95197482Y-92158587D01*
X95068164Y-91846383D01*
X94842735Y-91796870D01*
X94159605Y-92480000D01*
X94173748Y-92494143D01*
X93994143Y-92673748D01*
X93980000Y-92659605D01*
X93965858Y-92673748D01*
X93786253Y-92494143D01*
X93800395Y-92480000D01*
X93117265Y-91796870D01*
X92891836Y-91846383D01*
X92732193Y-92311036D01*
X90932000Y-92311036D01*
X90932000Y-91617265D01*
X93296870Y-91617265D01*
X93980000Y-92300395D01*
X94663130Y-91617265D01*
X94613617Y-91391836D01*
X94148964Y-91232193D01*
X93658587Y-91262518D01*
X93346383Y-91391836D01*
X93296870Y-91617265D01*
X90932000Y-91617265D01*
X90932000Y-89535000D01*
X90922333Y-89486399D01*
X90894803Y-89445197D01*
X90853601Y-89417667D01*
X90805000Y-89408000D01*
X88392000Y-89408000D01*
X88392000Y-87738888D01*
X88543110Y-87801476D01*
X88773000Y-87680155D01*
X88773000Y-86487000D01*
X89027000Y-86487000D01*
X89027000Y-87680155D01*
X89256890Y-87801476D01*
X89666924Y-87631645D01*
X90095183Y-87241358D01*
X90341486Y-86716892D01*
X90304145Y-86645750D01*
X94297500Y-86645750D01*
X94297500Y-87486310D01*
X94394173Y-87719699D01*
X94572802Y-87898327D01*
X94806191Y-87995000D01*
X95599250Y-87995000D01*
X95758000Y-87836250D01*
X95758000Y-86487000D01*
X94456250Y-86487000D01*
X94297500Y-86645750D01*
X90304145Y-86645750D01*
X90220819Y-86487000D01*
X89027000Y-86487000D01*
X88773000Y-86487000D01*
X88753000Y-86487000D01*
X88753000Y-86233000D01*
X88773000Y-86233000D01*
X88773000Y-85039845D01*
X89027000Y-85039845D01*
X89027000Y-86233000D01*
X90220819Y-86233000D01*
X90341486Y-86003108D01*
X90095183Y-85478642D01*
X89826400Y-85233690D01*
X94297500Y-85233690D01*
X94297500Y-86074250D01*
X94456250Y-86233000D01*
X95758000Y-86233000D01*
X95758000Y-84883750D01*
X95599250Y-84725000D01*
X94806191Y-84725000D01*
X94572802Y-84821673D01*
X94394173Y-85000301D01*
X94297500Y-85233690D01*
X89826400Y-85233690D01*
X89666924Y-85088355D01*
X89256890Y-84918524D01*
X89027000Y-85039845D01*
X88773000Y-85039845D01*
X88543110Y-84918524D01*
X88351404Y-84997926D01*
X88313601Y-84972667D01*
X88265000Y-84963000D01*
X87534326Y-84963000D01*
X87457765Y-84911843D01*
X87210000Y-84862560D01*
X85510000Y-84862560D01*
X85262235Y-84911843D01*
X85185674Y-84963000D01*
X84455000Y-84963000D01*
X84406399Y-84972667D01*
X84365197Y-85000197D01*
X84337667Y-85041399D01*
X84328000Y-85090000D01*
X84328000Y-89408000D01*
X83312000Y-89408000D01*
X83312000Y-82677000D01*
X106553000Y-82677000D01*
X106553000Y-85598000D01*
G04 #@! TD*
M02*
