M48
;DRILL file {KiCad (6.0.0-rc1-dev-392-gd9d005190)} date 08/06/19 21:11:36
;FORMAT={3:3/ absolute / metric / suppress leading zeros}
FMAT,2
METRIC,TZ
T1C0.600
T2C0.800
T3C0.890
T4C1.000
T5C1.100
T6C1.570
T7C3.200
T8C3.250
%
G90
G05
M71
T1
X93980Y-92480
X93980Y-93980
T2
X95250Y-105410
X102870Y-105410
X101600Y-92075
X101600Y-94575
X114935Y-108585
X114935Y-116205
X117475Y-108585
X117475Y-116205
X128270Y-108585
X128270Y-116205
X130810Y-108585
X130810Y-116205
X139065Y-92075
X139065Y-99695
X141605Y-92075
X141605Y-99695
X144145Y-92075
X144145Y-99695
X146685Y-92075
X146685Y-99695
X149225Y-92075
X149225Y-99695
X151765Y-92075
X151765Y-99695
X154305Y-92075
X154305Y-99695
X156845Y-92075
X156845Y-99695
X135255Y-108585
X135255Y-116205
X123190Y-108585
X123190Y-116205
X109855Y-108585
X109855Y-116205
X139700Y-108585
X139700Y-116205
X142240Y-108585
X142240Y-116205
X92710Y-108585
X92710Y-116205
X95250Y-108585
X95250Y-116205
T3
X116685Y-88390
X117705Y-90170
X118725Y-88390
X119745Y-90170
X120765Y-88390
X121785Y-90170
X122805Y-88390
X123825Y-90170
T4
X144145Y-88265
X146685Y-88265
X149225Y-88265
X132715Y-123825
X134100Y-126665
X135485Y-123825
X136870Y-126665
X138255Y-123825
X139640Y-126665
X141025Y-123825
X142410Y-126665
X143795Y-123825
X145180Y-126665
X146565Y-123825
X147950Y-126665
X149335Y-123825
X150720Y-126665
X152105Y-123825
X86360Y-86360
X88900Y-86360
X109855Y-104775
X112395Y-104775
X114935Y-104775
X117475Y-104775
X90805Y-123825
X92190Y-126665
X93575Y-123825
X94960Y-126665
X96345Y-123825
X97730Y-126665
X99115Y-123825
X100500Y-126665
X101885Y-123825
X103270Y-126665
X104655Y-123825
X106040Y-126665
X107425Y-123825
X108810Y-126665
X110195Y-123825
X123190Y-104775
X125730Y-104775
X128270Y-104775
X130810Y-104775
T5
X95885Y-86360
X98425Y-86360
X100965Y-86360
T6
X112135Y-89280
X128395Y-89280
T7
X125760Y-125245
X159060Y-125245
X83850Y-125245
X117150Y-125245
T8
X113915Y-92710
X126615Y-92710
T0
M30
