M48
;DRILL file {KiCad (6.0.0-rc1-dev-392-gd9d005190)} date 08/06/19 20:11:08
;FORMAT={3:3/ absolute / metric / suppress leading zeros}
FMAT,2
METRIC,TZ
T1C0.700
T2C0.800
T3C0.890
T4C1.000
T5C1.570
T6C3.200
T7C3.250
%
G90
G05
M71
T1
X152400Y-124460
X157480Y-124460
X185420Y-113030
X185420Y-118110
X172720Y-113030
X172720Y-118110
X182880Y-113030
X182880Y-118110
X165100Y-113030
X165100Y-118110
X170180Y-113030
X170180Y-118110
X175260Y-113030
X175260Y-118110
X193040Y-113030
X193040Y-118110
X167640Y-113030
X167640Y-118110
X187960Y-113030
X187960Y-118110
X180340Y-113030
X180340Y-118110
X190500Y-113030
X190500Y-118110
X177800Y-113030
X177800Y-118110
X152400Y-121920
X157480Y-121920
T2
X146050Y-124460
X146050Y-132080
X148590Y-124460
X148590Y-132080
T3
X182880Y-135890
X183900Y-137670
X184920Y-135890
X185940Y-137670
X186960Y-135890
X187980Y-137670
X189000Y-135890
X190020Y-137670
T4
X152400Y-113030
X154940Y-113030
X157480Y-113030
X152400Y-118110
X154940Y-118110
X157480Y-118110
X165100Y-121920
X167640Y-121920
X170180Y-121920
X172720Y-121920
X175260Y-121920
X177800Y-121920
X180340Y-121920
X182880Y-121920
X185420Y-121920
X187960Y-121920
X190500Y-121920
X193040Y-121920
X144905Y-139140
X146050Y-137160
X146050Y-141120
X147195Y-139140
X148340Y-137160
X148340Y-141120
X149485Y-139140
X150630Y-137160
X150630Y-141120
X151775Y-139140
X152920Y-137160
X152920Y-141120
X154065Y-139140
X155210Y-137160
X155210Y-141120
X156355Y-139140
X157500Y-137160
X157500Y-141120
X158645Y-139140
X159790Y-137160
X159790Y-141120
X160935Y-139140
X162080Y-137160
X162080Y-141120
X163225Y-139140
X164370Y-137160
X140970Y-113030
X143510Y-113030
T5
X178310Y-136780
X194570Y-136780
T6
X138025Y-139210
X171325Y-139210
T7
X180090Y-133350
X192790Y-133350
T0
M30
