G04 #@! TF.GenerationSoftware,KiCad,Pcbnew,(6.0.0-rc1-dev-392-gd9d005190)*
G04 #@! TF.CreationDate,2019-08-06T20:11:49-04:00*
G04 #@! TF.ProjectId,relay_ctrl,72656C61795F6374726C2E6B69636164,rev?*
G04 #@! TF.SameCoordinates,Original*
G04 #@! TF.FileFunction,Copper,L2,Bot,Signal*
G04 #@! TF.FilePolarity,Positive*
%FSLAX46Y46*%
G04 Gerber Fmt 4.6, Leading zero omitted, Abs format (unit mm)*
G04 Created by KiCad (PCBNEW (6.0.0-rc1-dev-392-gd9d005190)) date 08/06/19 20:11:49*
%MOMM*%
%LPD*%
G01*
G04 APERTURE LIST*
G04 #@! TA.AperFunction,ComponentPad*
%ADD10O,1.600000X1.600000*%
G04 #@! TD*
G04 #@! TA.AperFunction,ComponentPad*
%ADD11R,1.600000X1.600000*%
G04 #@! TD*
G04 #@! TA.AperFunction,ComponentPad*
%ADD12O,1.400000X1.400000*%
G04 #@! TD*
G04 #@! TA.AperFunction,ComponentPad*
%ADD13C,1.400000*%
G04 #@! TD*
G04 #@! TA.AperFunction,ComponentPad*
%ADD14O,1.700000X1.700000*%
G04 #@! TD*
G04 #@! TA.AperFunction,ComponentPad*
%ADD15R,1.700000X1.700000*%
G04 #@! TD*
G04 #@! TA.AperFunction,ComponentPad*
%ADD16C,4.000000*%
G04 #@! TD*
G04 #@! TA.AperFunction,ComponentPad*
%ADD17C,1.600000*%
G04 #@! TD*
G04 #@! TA.AperFunction,ComponentPad*
%ADD18C,2.000000*%
G04 #@! TD*
G04 #@! TA.AperFunction,ComponentPad*
%ADD19C,1.500000*%
G04 #@! TD*
G04 #@! TA.AperFunction,ComponentPad*
%ADD20R,1.500000X1.500000*%
G04 #@! TD*
G04 #@! TA.AperFunction,Conductor*
%ADD21C,0.254000*%
G04 #@! TD*
G04 APERTURE END LIST*
D10*
G04 #@! TO.P,U1,4*
G04 #@! TO.N,Turbo_remotepriority*
X148590000Y-132080000D03*
G04 #@! TO.P,U1,2*
G04 #@! TO.N,GND*
X146050000Y-124460000D03*
G04 #@! TO.P,U1,3*
G04 #@! TO.N,Turbo_Vref*
X146050000Y-132080000D03*
D11*
G04 #@! TO.P,U1,1*
G04 #@! TO.N,Net-(R10-Pad2)*
X148590000Y-124460000D03*
G04 #@! TD*
D12*
G04 #@! TO.P,R14,2*
G04 #@! TO.N,GND*
X165100000Y-113030000D03*
D13*
G04 #@! TO.P,R14,1*
G04 #@! TO.N,Convection_relay*
X165100000Y-118110000D03*
G04 #@! TD*
D12*
G04 #@! TO.P,R13,2*
G04 #@! TO.N,GND*
X167640000Y-113030000D03*
D13*
G04 #@! TO.P,R13,1*
G04 #@! TO.N,Turbo_interlock*
X167640000Y-118110000D03*
G04 #@! TD*
D12*
G04 #@! TO.P,R12,2*
G04 #@! TO.N,GND*
X170180000Y-113030000D03*
D13*
G04 #@! TO.P,R12,1*
G04 #@! TO.N,Turbo_active*
X170180000Y-118110000D03*
G04 #@! TD*
D12*
G04 #@! TO.P,R11,2*
G04 #@! TO.N,GND*
X172720000Y-113030000D03*
D13*
G04 #@! TO.P,R11,1*
G04 #@! TO.N,IG_relay*
X172720000Y-118110000D03*
G04 #@! TD*
D12*
G04 #@! TO.P,R10,2*
G04 #@! TO.N,Net-(R10-Pad2)*
X152400000Y-124460000D03*
D13*
G04 #@! TO.P,R10,1*
G04 #@! TO.N,Turbo_interlock*
X157480000Y-124460000D03*
G04 #@! TD*
D12*
G04 #@! TO.P,R9,2*
G04 #@! TO.N,GND*
X175260000Y-113030000D03*
D13*
G04 #@! TO.P,R9,1*
G04 #@! TO.N,Backing2_active*
X175260000Y-118110000D03*
G04 #@! TD*
D12*
G04 #@! TO.P,R8,2*
G04 #@! TO.N,GND*
X177800000Y-113030000D03*
D13*
G04 #@! TO.P,R8,1*
G04 #@! TO.N,Compressor2_active*
X177800000Y-118110000D03*
G04 #@! TD*
D12*
G04 #@! TO.P,R7,2*
G04 #@! TO.N,GND*
X152400000Y-121920000D03*
D13*
G04 #@! TO.P,R7,1*
G04 #@! TO.N,Turbo_interlock*
X157480000Y-121920000D03*
G04 #@! TD*
D12*
G04 #@! TO.P,R6,2*
G04 #@! TO.N,GND*
X180340000Y-113030000D03*
D13*
G04 #@! TO.P,R6,1*
G04 #@! TO.N,Compressor1_active*
X180340000Y-118110000D03*
G04 #@! TD*
D12*
G04 #@! TO.P,R5,2*
G04 #@! TO.N,GND*
X182880000Y-113030000D03*
D13*
G04 #@! TO.P,R5,1*
G04 #@! TO.N,Backing1_active*
X182880000Y-118110000D03*
G04 #@! TD*
D12*
G04 #@! TO.P,R4,2*
G04 #@! TO.N,GND*
X185420000Y-113030000D03*
D13*
G04 #@! TO.P,R4,1*
G04 #@! TO.N,Compressor1_interlock*
X185420000Y-118110000D03*
G04 #@! TD*
D12*
G04 #@! TO.P,R3,2*
G04 #@! TO.N,GND*
X187960000Y-113030000D03*
D13*
G04 #@! TO.P,R3,1*
G04 #@! TO.N,Backing1_interlock*
X187960000Y-118110000D03*
G04 #@! TD*
D12*
G04 #@! TO.P,R2,2*
G04 #@! TO.N,GND*
X190500000Y-113030000D03*
D13*
G04 #@! TO.P,R2,1*
G04 #@! TO.N,Backing2_interlock*
X190500000Y-118110000D03*
G04 #@! TD*
D12*
G04 #@! TO.P,R1,2*
G04 #@! TO.N,GND*
X193040000Y-113030000D03*
D13*
G04 #@! TO.P,R1,1*
G04 #@! TO.N,Compressor2_interlock*
X193040000Y-118110000D03*
G04 #@! TD*
D14*
G04 #@! TO.P,J5,2*
G04 #@! TO.N,+5V*
X143510000Y-113030000D03*
D15*
G04 #@! TO.P,J5,1*
G04 #@! TO.N,GND*
X140970000Y-113030000D03*
G04 #@! TD*
D14*
G04 #@! TO.P,J4,3*
G04 #@! TO.N,IG_relay*
X157480000Y-113030000D03*
G04 #@! TO.P,J4,2*
G04 #@! TO.N,GND*
X154940000Y-113030000D03*
D15*
G04 #@! TO.P,J4,1*
G04 #@! TO.N,+5V*
X152400000Y-113030000D03*
G04 #@! TD*
D14*
G04 #@! TO.P,J3,3*
G04 #@! TO.N,Convection_relay*
X157480000Y-118110000D03*
G04 #@! TO.P,J3,2*
G04 #@! TO.N,GND*
X154940000Y-118110000D03*
D15*
G04 #@! TO.P,J3,1*
G04 #@! TO.N,+5V*
X152400000Y-118110000D03*
G04 #@! TD*
D14*
G04 #@! TO.P,J6,12*
G04 #@! TO.N,Convection_relay*
X165100000Y-121920000D03*
G04 #@! TO.P,J6,11*
G04 #@! TO.N,Turbo_interlock*
X167640000Y-121920000D03*
G04 #@! TO.P,J6,10*
G04 #@! TO.N,Turbo_active*
X170180000Y-121920000D03*
G04 #@! TO.P,J6,9*
G04 #@! TO.N,IG_relay*
X172720000Y-121920000D03*
G04 #@! TO.P,J6,8*
G04 #@! TO.N,Backing2_active*
X175260000Y-121920000D03*
G04 #@! TO.P,J6,7*
G04 #@! TO.N,Compressor2_active*
X177800000Y-121920000D03*
G04 #@! TO.P,J6,6*
G04 #@! TO.N,Compressor1_active*
X180340000Y-121920000D03*
G04 #@! TO.P,J6,5*
G04 #@! TO.N,Backing1_active*
X182880000Y-121920000D03*
G04 #@! TO.P,J6,4*
G04 #@! TO.N,Compressor1_interlock*
X185420000Y-121920000D03*
G04 #@! TO.P,J6,3*
G04 #@! TO.N,Backing1_interlock*
X187960000Y-121920000D03*
G04 #@! TO.P,J6,2*
G04 #@! TO.N,Backing2_interlock*
X190500000Y-121920000D03*
D15*
G04 #@! TO.P,J6,1*
G04 #@! TO.N,Compressor2_interlock*
X193040000Y-121920000D03*
G04 #@! TD*
D16*
G04 #@! TO.P,J2,0*
G04 #@! TO.N,N/C*
X171325000Y-139210000D03*
X138025000Y-139210000D03*
D17*
G04 #@! TO.P,J2,26*
G04 #@! TO.N,Net-(J2-Pad26)*
X162080000Y-141120000D03*
G04 #@! TO.P,J2,25*
G04 #@! TO.N,Net-(J2-Pad25)*
X159790000Y-141120000D03*
G04 #@! TO.P,J2,24*
G04 #@! TO.N,Net-(J2-Pad24)*
X157500000Y-141120000D03*
G04 #@! TO.P,J2,23*
G04 #@! TO.N,Net-(J2-Pad23)*
X155210000Y-141120000D03*
G04 #@! TO.P,J2,22*
G04 #@! TO.N,Net-(J2-Pad22)*
X152920000Y-141120000D03*
G04 #@! TO.P,J2,21*
G04 #@! TO.N,Net-(J2-Pad21)*
X150630000Y-141120000D03*
G04 #@! TO.P,J2,20*
G04 #@! TO.N,Net-(J2-Pad20)*
X148340000Y-141120000D03*
G04 #@! TO.P,J2,19*
G04 #@! TO.N,Net-(J2-Pad19)*
X146050000Y-141120000D03*
G04 #@! TO.P,J2,18*
G04 #@! TO.N,Net-(J2-Pad18)*
X163225000Y-139140000D03*
G04 #@! TO.P,J2,17*
G04 #@! TO.N,Turbo_active*
X160935000Y-139140000D03*
G04 #@! TO.P,J2,16*
G04 #@! TO.N,+5V*
X158645000Y-139140000D03*
G04 #@! TO.P,J2,15*
G04 #@! TO.N,Turbo_remotepriority*
X156355000Y-139140000D03*
G04 #@! TO.P,J2,14*
G04 #@! TO.N,Net-(J2-Pad14)*
X154065000Y-139140000D03*
G04 #@! TO.P,J2,13*
G04 #@! TO.N,Net-(J2-Pad13)*
X151775000Y-139140000D03*
G04 #@! TO.P,J2,12*
G04 #@! TO.N,Net-(J2-Pad12)*
X149485000Y-139140000D03*
G04 #@! TO.P,J2,11*
G04 #@! TO.N,Net-(J2-Pad11)*
X147195000Y-139140000D03*
G04 #@! TO.P,J2,10*
G04 #@! TO.N,Net-(J2-Pad10)*
X144905000Y-139140000D03*
G04 #@! TO.P,J2,9*
G04 #@! TO.N,Net-(J2-Pad9)*
X164370000Y-137160000D03*
G04 #@! TO.P,J2,8*
G04 #@! TO.N,Net-(J2-Pad8)*
X162080000Y-137160000D03*
G04 #@! TO.P,J2,7*
G04 #@! TO.N,Net-(J2-Pad7)*
X159790000Y-137160000D03*
G04 #@! TO.P,J2,6*
G04 #@! TO.N,Net-(J2-Pad6)*
X157500000Y-137160000D03*
G04 #@! TO.P,J2,5*
G04 #@! TO.N,Net-(J2-Pad5)*
X155210000Y-137160000D03*
G04 #@! TO.P,J2,4*
G04 #@! TO.N,Net-(J2-Pad4)*
X152920000Y-137160000D03*
G04 #@! TO.P,J2,3*
G04 #@! TO.N,Net-(J2-Pad3)*
X150630000Y-137160000D03*
G04 #@! TO.P,J2,2*
G04 #@! TO.N,Net-(J2-Pad2)*
X148340000Y-137160000D03*
D11*
G04 #@! TO.P,J2,1*
G04 #@! TO.N,Turbo_Vref*
X146050000Y-137160000D03*
G04 #@! TD*
D18*
G04 #@! TO.P,J1,SH*
G04 #@! TO.N,GND*
X178310000Y-136780000D03*
X194570000Y-136780000D03*
D19*
G04 #@! TO.P,J1,8*
G04 #@! TO.N,Backing2_interlock*
X190020000Y-137670000D03*
G04 #@! TO.P,J1,6*
G04 #@! TO.N,Compressor2_interlock*
X187980000Y-137670000D03*
G04 #@! TO.P,J1,4*
G04 #@! TO.N,Backing2_active*
X185940000Y-137670000D03*
G04 #@! TO.P,J1,2*
G04 #@! TO.N,Compressor2_active*
X183900000Y-137670000D03*
G04 #@! TO.P,J1,7*
G04 #@! TO.N,Backing1_interlock*
X189000000Y-135890000D03*
G04 #@! TO.P,J1,5*
G04 #@! TO.N,Compressor1_interlock*
X186960000Y-135890000D03*
G04 #@! TO.P,J1,3*
G04 #@! TO.N,Backing1_active*
X184920000Y-135890000D03*
D20*
G04 #@! TO.P,J1,1*
G04 #@! TO.N,Compressor1_active*
X182880000Y-135890000D03*
G04 #@! TD*
D21*
G04 #@! TO.N,GND*
G36*
X139485000Y-112053691D02*
X139485000Y-112744250D01*
X139643750Y-112903000D01*
X140843000Y-112903000D01*
X140843000Y-112883000D01*
X141097000Y-112883000D01*
X141097000Y-112903000D01*
X141117000Y-112903000D01*
X141117000Y-113157000D01*
X141097000Y-113157000D01*
X141097000Y-114356250D01*
X141255750Y-114515000D01*
X141946310Y-114515000D01*
X142179699Y-114418327D01*
X142358327Y-114239698D01*
X142424904Y-114078967D01*
X142439375Y-114100625D01*
X142930582Y-114428839D01*
X143363744Y-114515000D01*
X143656256Y-114515000D01*
X144089418Y-114428839D01*
X144580625Y-114100625D01*
X144908839Y-113609418D01*
X145024092Y-113030000D01*
X144908839Y-112450582D01*
X144580625Y-111959375D01*
X144472308Y-111887000D01*
X150982068Y-111887000D01*
X150951843Y-111932235D01*
X150902560Y-112180000D01*
X150902560Y-113880000D01*
X150951843Y-114127765D01*
X151092191Y-114337809D01*
X151302235Y-114478157D01*
X151550000Y-114527440D01*
X153250000Y-114527440D01*
X153497765Y-114478157D01*
X153707809Y-114337809D01*
X153848157Y-114127765D01*
X153868739Y-114024292D01*
X154173076Y-114301645D01*
X154583110Y-114471476D01*
X154813000Y-114350155D01*
X154813000Y-113157000D01*
X154793000Y-113157000D01*
X154793000Y-112903000D01*
X154813000Y-112903000D01*
X154813000Y-112883000D01*
X155067000Y-112883000D01*
X155067000Y-112903000D01*
X155087000Y-112903000D01*
X155087000Y-113157000D01*
X155067000Y-113157000D01*
X155067000Y-114350155D01*
X155296890Y-114471476D01*
X155706924Y-114301645D01*
X156135183Y-113911358D01*
X156196157Y-113781522D01*
X156409375Y-114100625D01*
X156900582Y-114428839D01*
X157333744Y-114515000D01*
X157626256Y-114515000D01*
X158059418Y-114428839D01*
X158550625Y-114100625D01*
X158878839Y-113609418D01*
X158927788Y-113363331D01*
X163807273Y-113363331D01*
X164033236Y-113832663D01*
X164421604Y-114179797D01*
X164766671Y-114322716D01*
X164973000Y-114199374D01*
X164973000Y-113157000D01*
X165227000Y-113157000D01*
X165227000Y-114199374D01*
X165433329Y-114322716D01*
X165778396Y-114179797D01*
X166166764Y-113832663D01*
X166370000Y-113410536D01*
X166573236Y-113832663D01*
X166961604Y-114179797D01*
X167306671Y-114322716D01*
X167513000Y-114199374D01*
X167513000Y-113157000D01*
X167767000Y-113157000D01*
X167767000Y-114199374D01*
X167973329Y-114322716D01*
X168318396Y-114179797D01*
X168706764Y-113832663D01*
X168910000Y-113410536D01*
X169113236Y-113832663D01*
X169501604Y-114179797D01*
X169846671Y-114322716D01*
X170053000Y-114199374D01*
X170053000Y-113157000D01*
X170307000Y-113157000D01*
X170307000Y-114199374D01*
X170513329Y-114322716D01*
X170858396Y-114179797D01*
X171246764Y-113832663D01*
X171450000Y-113410536D01*
X171653236Y-113832663D01*
X172041604Y-114179797D01*
X172386671Y-114322716D01*
X172593000Y-114199374D01*
X172593000Y-113157000D01*
X172847000Y-113157000D01*
X172847000Y-114199374D01*
X173053329Y-114322716D01*
X173398396Y-114179797D01*
X173786764Y-113832663D01*
X173990000Y-113410536D01*
X174193236Y-113832663D01*
X174581604Y-114179797D01*
X174926671Y-114322716D01*
X175133000Y-114199374D01*
X175133000Y-113157000D01*
X175387000Y-113157000D01*
X175387000Y-114199374D01*
X175593329Y-114322716D01*
X175938396Y-114179797D01*
X176326764Y-113832663D01*
X176530000Y-113410536D01*
X176733236Y-113832663D01*
X177121604Y-114179797D01*
X177466671Y-114322716D01*
X177673000Y-114199374D01*
X177673000Y-113157000D01*
X177927000Y-113157000D01*
X177927000Y-114199374D01*
X178133329Y-114322716D01*
X178478396Y-114179797D01*
X178866764Y-113832663D01*
X179070000Y-113410536D01*
X179273236Y-113832663D01*
X179661604Y-114179797D01*
X180006671Y-114322716D01*
X180213000Y-114199374D01*
X180213000Y-113157000D01*
X180467000Y-113157000D01*
X180467000Y-114199374D01*
X180673329Y-114322716D01*
X181018396Y-114179797D01*
X181406764Y-113832663D01*
X181610000Y-113410536D01*
X181813236Y-113832663D01*
X182201604Y-114179797D01*
X182546671Y-114322716D01*
X182753000Y-114199374D01*
X182753000Y-113157000D01*
X183007000Y-113157000D01*
X183007000Y-114199374D01*
X183213329Y-114322716D01*
X183558396Y-114179797D01*
X183946764Y-113832663D01*
X184150000Y-113410536D01*
X184353236Y-113832663D01*
X184741604Y-114179797D01*
X185086671Y-114322716D01*
X185293000Y-114199374D01*
X185293000Y-113157000D01*
X185547000Y-113157000D01*
X185547000Y-114199374D01*
X185753329Y-114322716D01*
X186098396Y-114179797D01*
X186486764Y-113832663D01*
X186690000Y-113410536D01*
X186893236Y-113832663D01*
X187281604Y-114179797D01*
X187626671Y-114322716D01*
X187833000Y-114199374D01*
X187833000Y-113157000D01*
X188087000Y-113157000D01*
X188087000Y-114199374D01*
X188293329Y-114322716D01*
X188638396Y-114179797D01*
X189026764Y-113832663D01*
X189230000Y-113410536D01*
X189433236Y-113832663D01*
X189821604Y-114179797D01*
X190166671Y-114322716D01*
X190373000Y-114199374D01*
X190373000Y-113157000D01*
X190627000Y-113157000D01*
X190627000Y-114199374D01*
X190833329Y-114322716D01*
X191178396Y-114179797D01*
X191566764Y-113832663D01*
X191770000Y-113410536D01*
X191973236Y-113832663D01*
X192361604Y-114179797D01*
X192706671Y-114322716D01*
X192913000Y-114199374D01*
X192913000Y-113157000D01*
X193167000Y-113157000D01*
X193167000Y-114199374D01*
X193373329Y-114322716D01*
X193718396Y-114179797D01*
X194106764Y-113832663D01*
X194332727Y-113363331D01*
X194210206Y-113157000D01*
X193167000Y-113157000D01*
X192913000Y-113157000D01*
X191869794Y-113157000D01*
X191770000Y-113325058D01*
X191670206Y-113157000D01*
X190627000Y-113157000D01*
X190373000Y-113157000D01*
X189329794Y-113157000D01*
X189230000Y-113325058D01*
X189130206Y-113157000D01*
X188087000Y-113157000D01*
X187833000Y-113157000D01*
X186789794Y-113157000D01*
X186690000Y-113325058D01*
X186590206Y-113157000D01*
X185547000Y-113157000D01*
X185293000Y-113157000D01*
X184249794Y-113157000D01*
X184150000Y-113325058D01*
X184050206Y-113157000D01*
X183007000Y-113157000D01*
X182753000Y-113157000D01*
X181709794Y-113157000D01*
X181610000Y-113325058D01*
X181510206Y-113157000D01*
X180467000Y-113157000D01*
X180213000Y-113157000D01*
X179169794Y-113157000D01*
X179070000Y-113325058D01*
X178970206Y-113157000D01*
X177927000Y-113157000D01*
X177673000Y-113157000D01*
X176629794Y-113157000D01*
X176530000Y-113325058D01*
X176430206Y-113157000D01*
X175387000Y-113157000D01*
X175133000Y-113157000D01*
X174089794Y-113157000D01*
X173990000Y-113325058D01*
X173890206Y-113157000D01*
X172847000Y-113157000D01*
X172593000Y-113157000D01*
X171549794Y-113157000D01*
X171450000Y-113325058D01*
X171350206Y-113157000D01*
X170307000Y-113157000D01*
X170053000Y-113157000D01*
X169009794Y-113157000D01*
X168910000Y-113325058D01*
X168810206Y-113157000D01*
X167767000Y-113157000D01*
X167513000Y-113157000D01*
X166469794Y-113157000D01*
X166370000Y-113325058D01*
X166270206Y-113157000D01*
X165227000Y-113157000D01*
X164973000Y-113157000D01*
X163929794Y-113157000D01*
X163807273Y-113363331D01*
X158927788Y-113363331D01*
X158994092Y-113030000D01*
X158878839Y-112450582D01*
X158550625Y-111959375D01*
X158442308Y-111887000D01*
X164414000Y-111887000D01*
X164033236Y-112227337D01*
X163807273Y-112696669D01*
X163929794Y-112903000D01*
X164973000Y-112903000D01*
X164973000Y-112883000D01*
X165227000Y-112883000D01*
X165227000Y-112903000D01*
X166270206Y-112903000D01*
X166370000Y-112734942D01*
X166469794Y-112903000D01*
X167513000Y-112903000D01*
X167513000Y-112883000D01*
X167767000Y-112883000D01*
X167767000Y-112903000D01*
X168810206Y-112903000D01*
X168910000Y-112734942D01*
X169009794Y-112903000D01*
X170053000Y-112903000D01*
X170053000Y-112883000D01*
X170307000Y-112883000D01*
X170307000Y-112903000D01*
X171350206Y-112903000D01*
X171450000Y-112734942D01*
X171549794Y-112903000D01*
X172593000Y-112903000D01*
X172593000Y-112883000D01*
X172847000Y-112883000D01*
X172847000Y-112903000D01*
X173890206Y-112903000D01*
X173990000Y-112734942D01*
X174089794Y-112903000D01*
X175133000Y-112903000D01*
X175133000Y-112883000D01*
X175387000Y-112883000D01*
X175387000Y-112903000D01*
X176430206Y-112903000D01*
X176530000Y-112734942D01*
X176629794Y-112903000D01*
X177673000Y-112903000D01*
X177673000Y-112883000D01*
X177927000Y-112883000D01*
X177927000Y-112903000D01*
X178970206Y-112903000D01*
X179070000Y-112734942D01*
X179169794Y-112903000D01*
X180213000Y-112903000D01*
X180213000Y-112883000D01*
X180467000Y-112883000D01*
X180467000Y-112903000D01*
X181510206Y-112903000D01*
X181610000Y-112734942D01*
X181709794Y-112903000D01*
X182753000Y-112903000D01*
X182753000Y-112883000D01*
X183007000Y-112883000D01*
X183007000Y-112903000D01*
X184050206Y-112903000D01*
X184150000Y-112734942D01*
X184249794Y-112903000D01*
X185293000Y-112903000D01*
X185293000Y-112883000D01*
X185547000Y-112883000D01*
X185547000Y-112903000D01*
X186590206Y-112903000D01*
X186690000Y-112734942D01*
X186789794Y-112903000D01*
X187833000Y-112903000D01*
X187833000Y-112883000D01*
X188087000Y-112883000D01*
X188087000Y-112903000D01*
X189130206Y-112903000D01*
X189230000Y-112734942D01*
X189329794Y-112903000D01*
X190373000Y-112903000D01*
X190373000Y-112883000D01*
X190627000Y-112883000D01*
X190627000Y-112903000D01*
X191670206Y-112903000D01*
X191770000Y-112734942D01*
X191869794Y-112903000D01*
X192913000Y-112903000D01*
X192913000Y-112883000D01*
X193167000Y-112883000D01*
X193167000Y-112903000D01*
X194210206Y-112903000D01*
X194332727Y-112696669D01*
X194106764Y-112227337D01*
X193726000Y-111887000D01*
X195453000Y-111887000D01*
X195453000Y-135384241D01*
X195444264Y-135360613D01*
X194834539Y-135134092D01*
X194184540Y-135158144D01*
X194173338Y-135162784D01*
X194705935Y-134630187D01*
X195050000Y-133799542D01*
X195050000Y-132900458D01*
X194705935Y-132069813D01*
X194070187Y-131434065D01*
X193239542Y-131090000D01*
X192340458Y-131090000D01*
X191509813Y-131434065D01*
X190874065Y-132069813D01*
X190530000Y-132900458D01*
X190530000Y-133799542D01*
X190874065Y-134630187D01*
X191509813Y-135265935D01*
X192340458Y-135610000D01*
X193239542Y-135610000D01*
X193669355Y-135431965D01*
X193597073Y-135627468D01*
X194570000Y-136600395D01*
X194584143Y-136586253D01*
X194763748Y-136765858D01*
X194749605Y-136780000D01*
X194763748Y-136794143D01*
X194584143Y-136973748D01*
X194570000Y-136959605D01*
X193597073Y-137932532D01*
X193695736Y-138199387D01*
X194305461Y-138425908D01*
X194955460Y-138401856D01*
X195444264Y-138199387D01*
X195453000Y-138175759D01*
X195453000Y-142850000D01*
X136017000Y-142850000D01*
X136017000Y-140928453D01*
X136532392Y-141443845D01*
X137500866Y-141845000D01*
X138549134Y-141845000D01*
X139517608Y-141443845D01*
X140258845Y-140702608D01*
X140660000Y-139734134D01*
X140660000Y-138854561D01*
X143470000Y-138854561D01*
X143470000Y-139425439D01*
X143688466Y-139952862D01*
X144092138Y-140356534D01*
X144619561Y-140575000D01*
X144722514Y-140575000D01*
X144615000Y-140834561D01*
X144615000Y-141405439D01*
X144833466Y-141932862D01*
X145237138Y-142336534D01*
X145764561Y-142555000D01*
X146335439Y-142555000D01*
X146862862Y-142336534D01*
X147195000Y-142004396D01*
X147527138Y-142336534D01*
X148054561Y-142555000D01*
X148625439Y-142555000D01*
X149152862Y-142336534D01*
X149485000Y-142004396D01*
X149817138Y-142336534D01*
X150344561Y-142555000D01*
X150915439Y-142555000D01*
X151442862Y-142336534D01*
X151775000Y-142004396D01*
X152107138Y-142336534D01*
X152634561Y-142555000D01*
X153205439Y-142555000D01*
X153732862Y-142336534D01*
X154065000Y-142004396D01*
X154397138Y-142336534D01*
X154924561Y-142555000D01*
X155495439Y-142555000D01*
X156022862Y-142336534D01*
X156355000Y-142004396D01*
X156687138Y-142336534D01*
X157214561Y-142555000D01*
X157785439Y-142555000D01*
X158312862Y-142336534D01*
X158645000Y-142004396D01*
X158977138Y-142336534D01*
X159504561Y-142555000D01*
X160075439Y-142555000D01*
X160602862Y-142336534D01*
X160935000Y-142004396D01*
X161267138Y-142336534D01*
X161794561Y-142555000D01*
X162365439Y-142555000D01*
X162892862Y-142336534D01*
X163296534Y-141932862D01*
X163515000Y-141405439D01*
X163515000Y-140834561D01*
X163407486Y-140575000D01*
X163510439Y-140575000D01*
X164037862Y-140356534D01*
X164441534Y-139952862D01*
X164660000Y-139425439D01*
X164660000Y-138854561D01*
X164590125Y-138685866D01*
X168690000Y-138685866D01*
X168690000Y-139734134D01*
X169091155Y-140702608D01*
X169832392Y-141443845D01*
X170800866Y-141845000D01*
X171849134Y-141845000D01*
X172817608Y-141443845D01*
X173558845Y-140702608D01*
X173960000Y-139734134D01*
X173960000Y-138685866D01*
X173647959Y-137932532D01*
X177337073Y-137932532D01*
X177435736Y-138199387D01*
X178045461Y-138425908D01*
X178695460Y-138401856D01*
X179184264Y-138199387D01*
X179282927Y-137932532D01*
X178310000Y-136959605D01*
X177337073Y-137932532D01*
X173647959Y-137932532D01*
X173558845Y-137717392D01*
X172817608Y-136976155D01*
X171849134Y-136575000D01*
X170800866Y-136575000D01*
X169832392Y-136976155D01*
X169091155Y-137717392D01*
X168690000Y-138685866D01*
X164590125Y-138685866D01*
X164552486Y-138595000D01*
X164655439Y-138595000D01*
X165182862Y-138376534D01*
X165586534Y-137972862D01*
X165805000Y-137445439D01*
X165805000Y-136874561D01*
X165656256Y-136515461D01*
X176664092Y-136515461D01*
X176688144Y-137165460D01*
X176890613Y-137654264D01*
X177157468Y-137752927D01*
X178130395Y-136780000D01*
X178489605Y-136780000D01*
X179462532Y-137752927D01*
X179729387Y-137654264D01*
X179955908Y-137044539D01*
X179931856Y-136394540D01*
X179729387Y-135905736D01*
X179462532Y-135807073D01*
X178489605Y-136780000D01*
X178130395Y-136780000D01*
X177157468Y-135807073D01*
X176890613Y-135905736D01*
X176664092Y-136515461D01*
X165656256Y-136515461D01*
X165586534Y-136347138D01*
X165182862Y-135943466D01*
X164655439Y-135725000D01*
X164084561Y-135725000D01*
X163557138Y-135943466D01*
X163225000Y-136275604D01*
X162892862Y-135943466D01*
X162365439Y-135725000D01*
X161794561Y-135725000D01*
X161267138Y-135943466D01*
X160935000Y-136275604D01*
X160602862Y-135943466D01*
X160075439Y-135725000D01*
X159504561Y-135725000D01*
X158977138Y-135943466D01*
X158645000Y-136275604D01*
X158312862Y-135943466D01*
X157785439Y-135725000D01*
X157214561Y-135725000D01*
X156687138Y-135943466D01*
X156355000Y-136275604D01*
X156022862Y-135943466D01*
X155495439Y-135725000D01*
X154924561Y-135725000D01*
X154397138Y-135943466D01*
X154065000Y-136275604D01*
X153732862Y-135943466D01*
X153205439Y-135725000D01*
X152634561Y-135725000D01*
X152107138Y-135943466D01*
X151775000Y-136275604D01*
X151442862Y-135943466D01*
X150915439Y-135725000D01*
X150344561Y-135725000D01*
X149817138Y-135943466D01*
X149485000Y-136275604D01*
X149152862Y-135943466D01*
X148625439Y-135725000D01*
X148054561Y-135725000D01*
X147527138Y-135943466D01*
X147412193Y-136058411D01*
X147307809Y-135902191D01*
X147097765Y-135761843D01*
X146850000Y-135712560D01*
X145250000Y-135712560D01*
X145002235Y-135761843D01*
X144792191Y-135902191D01*
X144651843Y-136112235D01*
X144602560Y-136360000D01*
X144602560Y-137712042D01*
X144092138Y-137923466D01*
X143688466Y-138327138D01*
X143470000Y-138854561D01*
X140660000Y-138854561D01*
X140660000Y-138685866D01*
X140258845Y-137717392D01*
X139517608Y-136976155D01*
X138549134Y-136575000D01*
X137500866Y-136575000D01*
X136532392Y-136976155D01*
X136017000Y-137491547D01*
X136017000Y-135627468D01*
X177337073Y-135627468D01*
X178310000Y-136600395D01*
X179282927Y-135627468D01*
X179210645Y-135431965D01*
X179640458Y-135610000D01*
X180539542Y-135610000D01*
X181370187Y-135265935D01*
X181482560Y-135153562D01*
X181482560Y-136640000D01*
X181531843Y-136887765D01*
X181672191Y-137097809D01*
X181882235Y-137238157D01*
X182130000Y-137287440D01*
X182559348Y-137287440D01*
X182515000Y-137394506D01*
X182515000Y-137945494D01*
X182725853Y-138454540D01*
X183115460Y-138844147D01*
X183624506Y-139055000D01*
X184175494Y-139055000D01*
X184684540Y-138844147D01*
X184920000Y-138608687D01*
X185155460Y-138844147D01*
X185664506Y-139055000D01*
X186215494Y-139055000D01*
X186724540Y-138844147D01*
X186960000Y-138608687D01*
X187195460Y-138844147D01*
X187704506Y-139055000D01*
X188255494Y-139055000D01*
X188764540Y-138844147D01*
X189000000Y-138608687D01*
X189235460Y-138844147D01*
X189744506Y-139055000D01*
X190295494Y-139055000D01*
X190804540Y-138844147D01*
X191194147Y-138454540D01*
X191405000Y-137945494D01*
X191405000Y-137394506D01*
X191194147Y-136885460D01*
X190824148Y-136515461D01*
X192924092Y-136515461D01*
X192948144Y-137165460D01*
X193150613Y-137654264D01*
X193417468Y-137752927D01*
X194390395Y-136780000D01*
X193417468Y-135807073D01*
X193150613Y-135905736D01*
X192924092Y-136515461D01*
X190824148Y-136515461D01*
X190804540Y-136495853D01*
X190329641Y-136299144D01*
X190385000Y-136165494D01*
X190385000Y-135614506D01*
X190174147Y-135105460D01*
X189784540Y-134715853D01*
X189275494Y-134505000D01*
X188724506Y-134505000D01*
X188215460Y-134715853D01*
X187980000Y-134951313D01*
X187744540Y-134715853D01*
X187235494Y-134505000D01*
X186684506Y-134505000D01*
X186175460Y-134715853D01*
X185940000Y-134951313D01*
X185704540Y-134715853D01*
X185195494Y-134505000D01*
X184644506Y-134505000D01*
X184135460Y-134715853D01*
X184120379Y-134730934D01*
X184087809Y-134682191D01*
X183877765Y-134541843D01*
X183630000Y-134492560D01*
X182130000Y-134492560D01*
X182056921Y-134507096D01*
X182350000Y-133799542D01*
X182350000Y-132900458D01*
X182005935Y-132069813D01*
X181370187Y-131434065D01*
X180539542Y-131090000D01*
X179640458Y-131090000D01*
X178809813Y-131434065D01*
X178174065Y-132069813D01*
X177830000Y-132900458D01*
X177830000Y-133799542D01*
X178174065Y-134630187D01*
X178739111Y-135195233D01*
X178574539Y-135134092D01*
X177924540Y-135158144D01*
X177435736Y-135360613D01*
X177337073Y-135627468D01*
X136017000Y-135627468D01*
X136017000Y-132080000D01*
X144586887Y-132080000D01*
X144698260Y-132639909D01*
X145015423Y-133114577D01*
X145490091Y-133431740D01*
X145908667Y-133515000D01*
X146191333Y-133515000D01*
X146609909Y-133431740D01*
X147084577Y-133114577D01*
X147320000Y-132762242D01*
X147555423Y-133114577D01*
X148030091Y-133431740D01*
X148448667Y-133515000D01*
X148731333Y-133515000D01*
X149149909Y-133431740D01*
X149624577Y-133114577D01*
X149941740Y-132639909D01*
X150053113Y-132080000D01*
X149941740Y-131520091D01*
X149624577Y-131045423D01*
X149149909Y-130728260D01*
X148731333Y-130645000D01*
X148448667Y-130645000D01*
X148030091Y-130728260D01*
X147555423Y-131045423D01*
X147320000Y-131397758D01*
X147084577Y-131045423D01*
X146609909Y-130728260D01*
X146191333Y-130645000D01*
X145908667Y-130645000D01*
X145490091Y-130728260D01*
X145015423Y-131045423D01*
X144698260Y-131520091D01*
X144586887Y-132080000D01*
X136017000Y-132080000D01*
X136017000Y-124809041D01*
X144658086Y-124809041D01*
X144897611Y-125315134D01*
X145312577Y-125691041D01*
X145700961Y-125851904D01*
X145923000Y-125729915D01*
X145923000Y-124587000D01*
X144779371Y-124587000D01*
X144658086Y-124809041D01*
X136017000Y-124809041D01*
X136017000Y-124110959D01*
X144658086Y-124110959D01*
X144779371Y-124333000D01*
X145923000Y-124333000D01*
X145923000Y-123190085D01*
X146177000Y-123190085D01*
X146177000Y-124333000D01*
X146197000Y-124333000D01*
X146197000Y-124587000D01*
X146177000Y-124587000D01*
X146177000Y-125729915D01*
X146399039Y-125851904D01*
X146787423Y-125691041D01*
X147160987Y-125352639D01*
X147191843Y-125507765D01*
X147332191Y-125717809D01*
X147542235Y-125858157D01*
X147790000Y-125907440D01*
X149390000Y-125907440D01*
X149637765Y-125858157D01*
X149847809Y-125717809D01*
X149988157Y-125507765D01*
X150037440Y-125260000D01*
X150037440Y-124460000D01*
X151038846Y-124460000D01*
X151142458Y-124980891D01*
X151437519Y-125422481D01*
X151879109Y-125717542D01*
X152268515Y-125795000D01*
X152531485Y-125795000D01*
X152920891Y-125717542D01*
X153362481Y-125422481D01*
X153657542Y-124980891D01*
X153761154Y-124460000D01*
X153657542Y-123939109D01*
X153362481Y-123497519D01*
X152920891Y-123202458D01*
X152803259Y-123179060D01*
X153202663Y-122986764D01*
X153549797Y-122598396D01*
X153692716Y-122253329D01*
X153569374Y-122047000D01*
X152527000Y-122047000D01*
X152527000Y-122067000D01*
X152273000Y-122067000D01*
X152273000Y-122047000D01*
X151230626Y-122047000D01*
X151107284Y-122253329D01*
X151250203Y-122598396D01*
X151597337Y-122986764D01*
X151996741Y-123179060D01*
X151879109Y-123202458D01*
X151437519Y-123497519D01*
X151142458Y-123939109D01*
X151038846Y-124460000D01*
X150037440Y-124460000D01*
X150037440Y-123660000D01*
X149988157Y-123412235D01*
X149847809Y-123202191D01*
X149637765Y-123061843D01*
X149390000Y-123012560D01*
X147790000Y-123012560D01*
X147542235Y-123061843D01*
X147332191Y-123202191D01*
X147191843Y-123412235D01*
X147160987Y-123567361D01*
X146787423Y-123228959D01*
X146399039Y-123068096D01*
X146177000Y-123190085D01*
X145923000Y-123190085D01*
X145700961Y-123068096D01*
X145312577Y-123228959D01*
X144897611Y-123604866D01*
X144658086Y-124110959D01*
X136017000Y-124110959D01*
X136017000Y-121586671D01*
X151107284Y-121586671D01*
X151230626Y-121793000D01*
X152273000Y-121793000D01*
X152273000Y-120749794D01*
X152527000Y-120749794D01*
X152527000Y-121793000D01*
X153569374Y-121793000D01*
X153652197Y-121654452D01*
X156145000Y-121654452D01*
X156145000Y-122185548D01*
X156348242Y-122676217D01*
X156723783Y-123051758D01*
X157057528Y-123190000D01*
X156723783Y-123328242D01*
X156348242Y-123703783D01*
X156145000Y-124194452D01*
X156145000Y-124725548D01*
X156348242Y-125216217D01*
X156723783Y-125591758D01*
X157214452Y-125795000D01*
X157745548Y-125795000D01*
X158236217Y-125591758D01*
X158611758Y-125216217D01*
X158815000Y-124725548D01*
X158815000Y-124194452D01*
X158611758Y-123703783D01*
X158236217Y-123328242D01*
X157902472Y-123190000D01*
X158236217Y-123051758D01*
X158611758Y-122676217D01*
X158815000Y-122185548D01*
X158815000Y-121920000D01*
X163585908Y-121920000D01*
X163701161Y-122499418D01*
X164029375Y-122990625D01*
X164520582Y-123318839D01*
X164953744Y-123405000D01*
X165246256Y-123405000D01*
X165679418Y-123318839D01*
X166170625Y-122990625D01*
X166370000Y-122692239D01*
X166569375Y-122990625D01*
X167060582Y-123318839D01*
X167493744Y-123405000D01*
X167786256Y-123405000D01*
X168219418Y-123318839D01*
X168710625Y-122990625D01*
X168910000Y-122692239D01*
X169109375Y-122990625D01*
X169600582Y-123318839D01*
X170033744Y-123405000D01*
X170326256Y-123405000D01*
X170759418Y-123318839D01*
X171250625Y-122990625D01*
X171450000Y-122692239D01*
X171649375Y-122990625D01*
X172140582Y-123318839D01*
X172573744Y-123405000D01*
X172866256Y-123405000D01*
X173299418Y-123318839D01*
X173790625Y-122990625D01*
X173990000Y-122692239D01*
X174189375Y-122990625D01*
X174680582Y-123318839D01*
X175113744Y-123405000D01*
X175406256Y-123405000D01*
X175839418Y-123318839D01*
X176330625Y-122990625D01*
X176530000Y-122692239D01*
X176729375Y-122990625D01*
X177220582Y-123318839D01*
X177653744Y-123405000D01*
X177946256Y-123405000D01*
X178379418Y-123318839D01*
X178870625Y-122990625D01*
X179070000Y-122692239D01*
X179269375Y-122990625D01*
X179760582Y-123318839D01*
X180193744Y-123405000D01*
X180486256Y-123405000D01*
X180919418Y-123318839D01*
X181410625Y-122990625D01*
X181610000Y-122692239D01*
X181809375Y-122990625D01*
X182300582Y-123318839D01*
X182733744Y-123405000D01*
X183026256Y-123405000D01*
X183459418Y-123318839D01*
X183950625Y-122990625D01*
X184150000Y-122692239D01*
X184349375Y-122990625D01*
X184840582Y-123318839D01*
X185273744Y-123405000D01*
X185566256Y-123405000D01*
X185999418Y-123318839D01*
X186490625Y-122990625D01*
X186690000Y-122692239D01*
X186889375Y-122990625D01*
X187380582Y-123318839D01*
X187813744Y-123405000D01*
X188106256Y-123405000D01*
X188539418Y-123318839D01*
X189030625Y-122990625D01*
X189230000Y-122692239D01*
X189429375Y-122990625D01*
X189920582Y-123318839D01*
X190353744Y-123405000D01*
X190646256Y-123405000D01*
X191079418Y-123318839D01*
X191570625Y-122990625D01*
X191582816Y-122972381D01*
X191591843Y-123017765D01*
X191732191Y-123227809D01*
X191942235Y-123368157D01*
X192190000Y-123417440D01*
X193890000Y-123417440D01*
X194137765Y-123368157D01*
X194347809Y-123227809D01*
X194488157Y-123017765D01*
X194537440Y-122770000D01*
X194537440Y-121070000D01*
X194488157Y-120822235D01*
X194347809Y-120612191D01*
X194137765Y-120471843D01*
X193890000Y-120422560D01*
X192190000Y-120422560D01*
X191942235Y-120471843D01*
X191732191Y-120612191D01*
X191591843Y-120822235D01*
X191582816Y-120867619D01*
X191570625Y-120849375D01*
X191079418Y-120521161D01*
X190646256Y-120435000D01*
X190353744Y-120435000D01*
X189920582Y-120521161D01*
X189429375Y-120849375D01*
X189230000Y-121147761D01*
X189030625Y-120849375D01*
X188539418Y-120521161D01*
X188106256Y-120435000D01*
X187813744Y-120435000D01*
X187380582Y-120521161D01*
X186889375Y-120849375D01*
X186690000Y-121147761D01*
X186490625Y-120849375D01*
X185999418Y-120521161D01*
X185566256Y-120435000D01*
X185273744Y-120435000D01*
X184840582Y-120521161D01*
X184349375Y-120849375D01*
X184150000Y-121147761D01*
X183950625Y-120849375D01*
X183459418Y-120521161D01*
X183026256Y-120435000D01*
X182733744Y-120435000D01*
X182300582Y-120521161D01*
X181809375Y-120849375D01*
X181610000Y-121147761D01*
X181410625Y-120849375D01*
X180919418Y-120521161D01*
X180486256Y-120435000D01*
X180193744Y-120435000D01*
X179760582Y-120521161D01*
X179269375Y-120849375D01*
X179070000Y-121147761D01*
X178870625Y-120849375D01*
X178379418Y-120521161D01*
X177946256Y-120435000D01*
X177653744Y-120435000D01*
X177220582Y-120521161D01*
X176729375Y-120849375D01*
X176530000Y-121147761D01*
X176330625Y-120849375D01*
X175839418Y-120521161D01*
X175406256Y-120435000D01*
X175113744Y-120435000D01*
X174680582Y-120521161D01*
X174189375Y-120849375D01*
X173990000Y-121147761D01*
X173790625Y-120849375D01*
X173299418Y-120521161D01*
X172866256Y-120435000D01*
X172573744Y-120435000D01*
X172140582Y-120521161D01*
X171649375Y-120849375D01*
X171450000Y-121147761D01*
X171250625Y-120849375D01*
X170759418Y-120521161D01*
X170326256Y-120435000D01*
X170033744Y-120435000D01*
X169600582Y-120521161D01*
X169109375Y-120849375D01*
X168910000Y-121147761D01*
X168710625Y-120849375D01*
X168219418Y-120521161D01*
X167786256Y-120435000D01*
X167493744Y-120435000D01*
X167060582Y-120521161D01*
X166569375Y-120849375D01*
X166370000Y-121147761D01*
X166170625Y-120849375D01*
X165679418Y-120521161D01*
X165246256Y-120435000D01*
X164953744Y-120435000D01*
X164520582Y-120521161D01*
X164029375Y-120849375D01*
X163701161Y-121340582D01*
X163585908Y-121920000D01*
X158815000Y-121920000D01*
X158815000Y-121654452D01*
X158611758Y-121163783D01*
X158236217Y-120788242D01*
X157745548Y-120585000D01*
X157214452Y-120585000D01*
X156723783Y-120788242D01*
X156348242Y-121163783D01*
X156145000Y-121654452D01*
X153652197Y-121654452D01*
X153692716Y-121586671D01*
X153549797Y-121241604D01*
X153202663Y-120853236D01*
X152733331Y-120627273D01*
X152527000Y-120749794D01*
X152273000Y-120749794D01*
X152066669Y-120627273D01*
X151597337Y-120853236D01*
X151250203Y-121241604D01*
X151107284Y-121586671D01*
X136017000Y-121586671D01*
X136017000Y-117260000D01*
X150902560Y-117260000D01*
X150902560Y-118960000D01*
X150951843Y-119207765D01*
X151092191Y-119417809D01*
X151302235Y-119558157D01*
X151550000Y-119607440D01*
X153250000Y-119607440D01*
X153497765Y-119558157D01*
X153707809Y-119417809D01*
X153848157Y-119207765D01*
X153868739Y-119104292D01*
X154173076Y-119381645D01*
X154583110Y-119551476D01*
X154813000Y-119430155D01*
X154813000Y-118237000D01*
X154793000Y-118237000D01*
X154793000Y-117983000D01*
X154813000Y-117983000D01*
X154813000Y-116789845D01*
X155067000Y-116789845D01*
X155067000Y-117983000D01*
X155087000Y-117983000D01*
X155087000Y-118237000D01*
X155067000Y-118237000D01*
X155067000Y-119430155D01*
X155296890Y-119551476D01*
X155706924Y-119381645D01*
X156135183Y-118991358D01*
X156196157Y-118861522D01*
X156409375Y-119180625D01*
X156900582Y-119508839D01*
X157333744Y-119595000D01*
X157626256Y-119595000D01*
X158059418Y-119508839D01*
X158550625Y-119180625D01*
X158878839Y-118689418D01*
X158994092Y-118110000D01*
X158941272Y-117844452D01*
X163765000Y-117844452D01*
X163765000Y-118375548D01*
X163968242Y-118866217D01*
X164343783Y-119241758D01*
X164834452Y-119445000D01*
X165365548Y-119445000D01*
X165856217Y-119241758D01*
X166231758Y-118866217D01*
X166370000Y-118532472D01*
X166508242Y-118866217D01*
X166883783Y-119241758D01*
X167374452Y-119445000D01*
X167905548Y-119445000D01*
X168396217Y-119241758D01*
X168771758Y-118866217D01*
X168910000Y-118532472D01*
X169048242Y-118866217D01*
X169423783Y-119241758D01*
X169914452Y-119445000D01*
X170445548Y-119445000D01*
X170936217Y-119241758D01*
X171311758Y-118866217D01*
X171450000Y-118532472D01*
X171588242Y-118866217D01*
X171963783Y-119241758D01*
X172454452Y-119445000D01*
X172985548Y-119445000D01*
X173476217Y-119241758D01*
X173851758Y-118866217D01*
X173990000Y-118532472D01*
X174128242Y-118866217D01*
X174503783Y-119241758D01*
X174994452Y-119445000D01*
X175525548Y-119445000D01*
X176016217Y-119241758D01*
X176391758Y-118866217D01*
X176530000Y-118532472D01*
X176668242Y-118866217D01*
X177043783Y-119241758D01*
X177534452Y-119445000D01*
X178065548Y-119445000D01*
X178556217Y-119241758D01*
X178931758Y-118866217D01*
X179070000Y-118532472D01*
X179208242Y-118866217D01*
X179583783Y-119241758D01*
X180074452Y-119445000D01*
X180605548Y-119445000D01*
X181096217Y-119241758D01*
X181471758Y-118866217D01*
X181610000Y-118532472D01*
X181748242Y-118866217D01*
X182123783Y-119241758D01*
X182614452Y-119445000D01*
X183145548Y-119445000D01*
X183636217Y-119241758D01*
X184011758Y-118866217D01*
X184150000Y-118532472D01*
X184288242Y-118866217D01*
X184663783Y-119241758D01*
X185154452Y-119445000D01*
X185685548Y-119445000D01*
X186176217Y-119241758D01*
X186551758Y-118866217D01*
X186690000Y-118532472D01*
X186828242Y-118866217D01*
X187203783Y-119241758D01*
X187694452Y-119445000D01*
X188225548Y-119445000D01*
X188716217Y-119241758D01*
X189091758Y-118866217D01*
X189230000Y-118532472D01*
X189368242Y-118866217D01*
X189743783Y-119241758D01*
X190234452Y-119445000D01*
X190765548Y-119445000D01*
X191256217Y-119241758D01*
X191631758Y-118866217D01*
X191770000Y-118532472D01*
X191908242Y-118866217D01*
X192283783Y-119241758D01*
X192774452Y-119445000D01*
X193305548Y-119445000D01*
X193796217Y-119241758D01*
X194171758Y-118866217D01*
X194375000Y-118375548D01*
X194375000Y-117844452D01*
X194171758Y-117353783D01*
X193796217Y-116978242D01*
X193305548Y-116775000D01*
X192774452Y-116775000D01*
X192283783Y-116978242D01*
X191908242Y-117353783D01*
X191770000Y-117687528D01*
X191631758Y-117353783D01*
X191256217Y-116978242D01*
X190765548Y-116775000D01*
X190234452Y-116775000D01*
X189743783Y-116978242D01*
X189368242Y-117353783D01*
X189230000Y-117687528D01*
X189091758Y-117353783D01*
X188716217Y-116978242D01*
X188225548Y-116775000D01*
X187694452Y-116775000D01*
X187203783Y-116978242D01*
X186828242Y-117353783D01*
X186690000Y-117687528D01*
X186551758Y-117353783D01*
X186176217Y-116978242D01*
X185685548Y-116775000D01*
X185154452Y-116775000D01*
X184663783Y-116978242D01*
X184288242Y-117353783D01*
X184150000Y-117687528D01*
X184011758Y-117353783D01*
X183636217Y-116978242D01*
X183145548Y-116775000D01*
X182614452Y-116775000D01*
X182123783Y-116978242D01*
X181748242Y-117353783D01*
X181610000Y-117687528D01*
X181471758Y-117353783D01*
X181096217Y-116978242D01*
X180605548Y-116775000D01*
X180074452Y-116775000D01*
X179583783Y-116978242D01*
X179208242Y-117353783D01*
X179070000Y-117687528D01*
X178931758Y-117353783D01*
X178556217Y-116978242D01*
X178065548Y-116775000D01*
X177534452Y-116775000D01*
X177043783Y-116978242D01*
X176668242Y-117353783D01*
X176530000Y-117687528D01*
X176391758Y-117353783D01*
X176016217Y-116978242D01*
X175525548Y-116775000D01*
X174994452Y-116775000D01*
X174503783Y-116978242D01*
X174128242Y-117353783D01*
X173990000Y-117687528D01*
X173851758Y-117353783D01*
X173476217Y-116978242D01*
X172985548Y-116775000D01*
X172454452Y-116775000D01*
X171963783Y-116978242D01*
X171588242Y-117353783D01*
X171450000Y-117687528D01*
X171311758Y-117353783D01*
X170936217Y-116978242D01*
X170445548Y-116775000D01*
X169914452Y-116775000D01*
X169423783Y-116978242D01*
X169048242Y-117353783D01*
X168910000Y-117687528D01*
X168771758Y-117353783D01*
X168396217Y-116978242D01*
X167905548Y-116775000D01*
X167374452Y-116775000D01*
X166883783Y-116978242D01*
X166508242Y-117353783D01*
X166370000Y-117687528D01*
X166231758Y-117353783D01*
X165856217Y-116978242D01*
X165365548Y-116775000D01*
X164834452Y-116775000D01*
X164343783Y-116978242D01*
X163968242Y-117353783D01*
X163765000Y-117844452D01*
X158941272Y-117844452D01*
X158878839Y-117530582D01*
X158550625Y-117039375D01*
X158059418Y-116711161D01*
X157626256Y-116625000D01*
X157333744Y-116625000D01*
X156900582Y-116711161D01*
X156409375Y-117039375D01*
X156196157Y-117358478D01*
X156135183Y-117228642D01*
X155706924Y-116838355D01*
X155296890Y-116668524D01*
X155067000Y-116789845D01*
X154813000Y-116789845D01*
X154583110Y-116668524D01*
X154173076Y-116838355D01*
X153868739Y-117115708D01*
X153848157Y-117012235D01*
X153707809Y-116802191D01*
X153497765Y-116661843D01*
X153250000Y-116612560D01*
X151550000Y-116612560D01*
X151302235Y-116661843D01*
X151092191Y-116802191D01*
X150951843Y-117012235D01*
X150902560Y-117260000D01*
X136017000Y-117260000D01*
X136017000Y-113315750D01*
X139485000Y-113315750D01*
X139485000Y-114006309D01*
X139581673Y-114239698D01*
X139760301Y-114418327D01*
X139993690Y-114515000D01*
X140684250Y-114515000D01*
X140843000Y-114356250D01*
X140843000Y-113157000D01*
X139643750Y-113157000D01*
X139485000Y-113315750D01*
X136017000Y-113315750D01*
X136017000Y-111887000D01*
X139554046Y-111887000D01*
X139485000Y-112053691D01*
X139485000Y-112053691D01*
G37*
X139485000Y-112053691D02*
X139485000Y-112744250D01*
X139643750Y-112903000D01*
X140843000Y-112903000D01*
X140843000Y-112883000D01*
X141097000Y-112883000D01*
X141097000Y-112903000D01*
X141117000Y-112903000D01*
X141117000Y-113157000D01*
X141097000Y-113157000D01*
X141097000Y-114356250D01*
X141255750Y-114515000D01*
X141946310Y-114515000D01*
X142179699Y-114418327D01*
X142358327Y-114239698D01*
X142424904Y-114078967D01*
X142439375Y-114100625D01*
X142930582Y-114428839D01*
X143363744Y-114515000D01*
X143656256Y-114515000D01*
X144089418Y-114428839D01*
X144580625Y-114100625D01*
X144908839Y-113609418D01*
X145024092Y-113030000D01*
X144908839Y-112450582D01*
X144580625Y-111959375D01*
X144472308Y-111887000D01*
X150982068Y-111887000D01*
X150951843Y-111932235D01*
X150902560Y-112180000D01*
X150902560Y-113880000D01*
X150951843Y-114127765D01*
X151092191Y-114337809D01*
X151302235Y-114478157D01*
X151550000Y-114527440D01*
X153250000Y-114527440D01*
X153497765Y-114478157D01*
X153707809Y-114337809D01*
X153848157Y-114127765D01*
X153868739Y-114024292D01*
X154173076Y-114301645D01*
X154583110Y-114471476D01*
X154813000Y-114350155D01*
X154813000Y-113157000D01*
X154793000Y-113157000D01*
X154793000Y-112903000D01*
X154813000Y-112903000D01*
X154813000Y-112883000D01*
X155067000Y-112883000D01*
X155067000Y-112903000D01*
X155087000Y-112903000D01*
X155087000Y-113157000D01*
X155067000Y-113157000D01*
X155067000Y-114350155D01*
X155296890Y-114471476D01*
X155706924Y-114301645D01*
X156135183Y-113911358D01*
X156196157Y-113781522D01*
X156409375Y-114100625D01*
X156900582Y-114428839D01*
X157333744Y-114515000D01*
X157626256Y-114515000D01*
X158059418Y-114428839D01*
X158550625Y-114100625D01*
X158878839Y-113609418D01*
X158927788Y-113363331D01*
X163807273Y-113363331D01*
X164033236Y-113832663D01*
X164421604Y-114179797D01*
X164766671Y-114322716D01*
X164973000Y-114199374D01*
X164973000Y-113157000D01*
X165227000Y-113157000D01*
X165227000Y-114199374D01*
X165433329Y-114322716D01*
X165778396Y-114179797D01*
X166166764Y-113832663D01*
X166370000Y-113410536D01*
X166573236Y-113832663D01*
X166961604Y-114179797D01*
X167306671Y-114322716D01*
X167513000Y-114199374D01*
X167513000Y-113157000D01*
X167767000Y-113157000D01*
X167767000Y-114199374D01*
X167973329Y-114322716D01*
X168318396Y-114179797D01*
X168706764Y-113832663D01*
X168910000Y-113410536D01*
X169113236Y-113832663D01*
X169501604Y-114179797D01*
X169846671Y-114322716D01*
X170053000Y-114199374D01*
X170053000Y-113157000D01*
X170307000Y-113157000D01*
X170307000Y-114199374D01*
X170513329Y-114322716D01*
X170858396Y-114179797D01*
X171246764Y-113832663D01*
X171450000Y-113410536D01*
X171653236Y-113832663D01*
X172041604Y-114179797D01*
X172386671Y-114322716D01*
X172593000Y-114199374D01*
X172593000Y-113157000D01*
X172847000Y-113157000D01*
X172847000Y-114199374D01*
X173053329Y-114322716D01*
X173398396Y-114179797D01*
X173786764Y-113832663D01*
X173990000Y-113410536D01*
X174193236Y-113832663D01*
X174581604Y-114179797D01*
X174926671Y-114322716D01*
X175133000Y-114199374D01*
X175133000Y-113157000D01*
X175387000Y-113157000D01*
X175387000Y-114199374D01*
X175593329Y-114322716D01*
X175938396Y-114179797D01*
X176326764Y-113832663D01*
X176530000Y-113410536D01*
X176733236Y-113832663D01*
X177121604Y-114179797D01*
X177466671Y-114322716D01*
X177673000Y-114199374D01*
X177673000Y-113157000D01*
X177927000Y-113157000D01*
X177927000Y-114199374D01*
X178133329Y-114322716D01*
X178478396Y-114179797D01*
X178866764Y-113832663D01*
X179070000Y-113410536D01*
X179273236Y-113832663D01*
X179661604Y-114179797D01*
X180006671Y-114322716D01*
X180213000Y-114199374D01*
X180213000Y-113157000D01*
X180467000Y-113157000D01*
X180467000Y-114199374D01*
X180673329Y-114322716D01*
X181018396Y-114179797D01*
X181406764Y-113832663D01*
X181610000Y-113410536D01*
X181813236Y-113832663D01*
X182201604Y-114179797D01*
X182546671Y-114322716D01*
X182753000Y-114199374D01*
X182753000Y-113157000D01*
X183007000Y-113157000D01*
X183007000Y-114199374D01*
X183213329Y-114322716D01*
X183558396Y-114179797D01*
X183946764Y-113832663D01*
X184150000Y-113410536D01*
X184353236Y-113832663D01*
X184741604Y-114179797D01*
X185086671Y-114322716D01*
X185293000Y-114199374D01*
X185293000Y-113157000D01*
X185547000Y-113157000D01*
X185547000Y-114199374D01*
X185753329Y-114322716D01*
X186098396Y-114179797D01*
X186486764Y-113832663D01*
X186690000Y-113410536D01*
X186893236Y-113832663D01*
X187281604Y-114179797D01*
X187626671Y-114322716D01*
X187833000Y-114199374D01*
X187833000Y-113157000D01*
X188087000Y-113157000D01*
X188087000Y-114199374D01*
X188293329Y-114322716D01*
X188638396Y-114179797D01*
X189026764Y-113832663D01*
X189230000Y-113410536D01*
X189433236Y-113832663D01*
X189821604Y-114179797D01*
X190166671Y-114322716D01*
X190373000Y-114199374D01*
X190373000Y-113157000D01*
X190627000Y-113157000D01*
X190627000Y-114199374D01*
X190833329Y-114322716D01*
X191178396Y-114179797D01*
X191566764Y-113832663D01*
X191770000Y-113410536D01*
X191973236Y-113832663D01*
X192361604Y-114179797D01*
X192706671Y-114322716D01*
X192913000Y-114199374D01*
X192913000Y-113157000D01*
X193167000Y-113157000D01*
X193167000Y-114199374D01*
X193373329Y-114322716D01*
X193718396Y-114179797D01*
X194106764Y-113832663D01*
X194332727Y-113363331D01*
X194210206Y-113157000D01*
X193167000Y-113157000D01*
X192913000Y-113157000D01*
X191869794Y-113157000D01*
X191770000Y-113325058D01*
X191670206Y-113157000D01*
X190627000Y-113157000D01*
X190373000Y-113157000D01*
X189329794Y-113157000D01*
X189230000Y-113325058D01*
X189130206Y-113157000D01*
X188087000Y-113157000D01*
X187833000Y-113157000D01*
X186789794Y-113157000D01*
X186690000Y-113325058D01*
X186590206Y-113157000D01*
X185547000Y-113157000D01*
X185293000Y-113157000D01*
X184249794Y-113157000D01*
X184150000Y-113325058D01*
X184050206Y-113157000D01*
X183007000Y-113157000D01*
X182753000Y-113157000D01*
X181709794Y-113157000D01*
X181610000Y-113325058D01*
X181510206Y-113157000D01*
X180467000Y-113157000D01*
X180213000Y-113157000D01*
X179169794Y-113157000D01*
X179070000Y-113325058D01*
X178970206Y-113157000D01*
X177927000Y-113157000D01*
X177673000Y-113157000D01*
X176629794Y-113157000D01*
X176530000Y-113325058D01*
X176430206Y-113157000D01*
X175387000Y-113157000D01*
X175133000Y-113157000D01*
X174089794Y-113157000D01*
X173990000Y-113325058D01*
X173890206Y-113157000D01*
X172847000Y-113157000D01*
X172593000Y-113157000D01*
X171549794Y-113157000D01*
X171450000Y-113325058D01*
X171350206Y-113157000D01*
X170307000Y-113157000D01*
X170053000Y-113157000D01*
X169009794Y-113157000D01*
X168910000Y-113325058D01*
X168810206Y-113157000D01*
X167767000Y-113157000D01*
X167513000Y-113157000D01*
X166469794Y-113157000D01*
X166370000Y-113325058D01*
X166270206Y-113157000D01*
X165227000Y-113157000D01*
X164973000Y-113157000D01*
X163929794Y-113157000D01*
X163807273Y-113363331D01*
X158927788Y-113363331D01*
X158994092Y-113030000D01*
X158878839Y-112450582D01*
X158550625Y-111959375D01*
X158442308Y-111887000D01*
X164414000Y-111887000D01*
X164033236Y-112227337D01*
X163807273Y-112696669D01*
X163929794Y-112903000D01*
X164973000Y-112903000D01*
X164973000Y-112883000D01*
X165227000Y-112883000D01*
X165227000Y-112903000D01*
X166270206Y-112903000D01*
X166370000Y-112734942D01*
X166469794Y-112903000D01*
X167513000Y-112903000D01*
X167513000Y-112883000D01*
X167767000Y-112883000D01*
X167767000Y-112903000D01*
X168810206Y-112903000D01*
X168910000Y-112734942D01*
X169009794Y-112903000D01*
X170053000Y-112903000D01*
X170053000Y-112883000D01*
X170307000Y-112883000D01*
X170307000Y-112903000D01*
X171350206Y-112903000D01*
X171450000Y-112734942D01*
X171549794Y-112903000D01*
X172593000Y-112903000D01*
X172593000Y-112883000D01*
X172847000Y-112883000D01*
X172847000Y-112903000D01*
X173890206Y-112903000D01*
X173990000Y-112734942D01*
X174089794Y-112903000D01*
X175133000Y-112903000D01*
X175133000Y-112883000D01*
X175387000Y-112883000D01*
X175387000Y-112903000D01*
X176430206Y-112903000D01*
X176530000Y-112734942D01*
X176629794Y-112903000D01*
X177673000Y-112903000D01*
X177673000Y-112883000D01*
X177927000Y-112883000D01*
X177927000Y-112903000D01*
X178970206Y-112903000D01*
X179070000Y-112734942D01*
X179169794Y-112903000D01*
X180213000Y-112903000D01*
X180213000Y-112883000D01*
X180467000Y-112883000D01*
X180467000Y-112903000D01*
X181510206Y-112903000D01*
X181610000Y-112734942D01*
X181709794Y-112903000D01*
X182753000Y-112903000D01*
X182753000Y-112883000D01*
X183007000Y-112883000D01*
X183007000Y-112903000D01*
X184050206Y-112903000D01*
X184150000Y-112734942D01*
X184249794Y-112903000D01*
X185293000Y-112903000D01*
X185293000Y-112883000D01*
X185547000Y-112883000D01*
X185547000Y-112903000D01*
X186590206Y-112903000D01*
X186690000Y-112734942D01*
X186789794Y-112903000D01*
X187833000Y-112903000D01*
X187833000Y-112883000D01*
X188087000Y-112883000D01*
X188087000Y-112903000D01*
X189130206Y-112903000D01*
X189230000Y-112734942D01*
X189329794Y-112903000D01*
X190373000Y-112903000D01*
X190373000Y-112883000D01*
X190627000Y-112883000D01*
X190627000Y-112903000D01*
X191670206Y-112903000D01*
X191770000Y-112734942D01*
X191869794Y-112903000D01*
X192913000Y-112903000D01*
X192913000Y-112883000D01*
X193167000Y-112883000D01*
X193167000Y-112903000D01*
X194210206Y-112903000D01*
X194332727Y-112696669D01*
X194106764Y-112227337D01*
X193726000Y-111887000D01*
X195453000Y-111887000D01*
X195453000Y-135384241D01*
X195444264Y-135360613D01*
X194834539Y-135134092D01*
X194184540Y-135158144D01*
X194173338Y-135162784D01*
X194705935Y-134630187D01*
X195050000Y-133799542D01*
X195050000Y-132900458D01*
X194705935Y-132069813D01*
X194070187Y-131434065D01*
X193239542Y-131090000D01*
X192340458Y-131090000D01*
X191509813Y-131434065D01*
X190874065Y-132069813D01*
X190530000Y-132900458D01*
X190530000Y-133799542D01*
X190874065Y-134630187D01*
X191509813Y-135265935D01*
X192340458Y-135610000D01*
X193239542Y-135610000D01*
X193669355Y-135431965D01*
X193597073Y-135627468D01*
X194570000Y-136600395D01*
X194584143Y-136586253D01*
X194763748Y-136765858D01*
X194749605Y-136780000D01*
X194763748Y-136794143D01*
X194584143Y-136973748D01*
X194570000Y-136959605D01*
X193597073Y-137932532D01*
X193695736Y-138199387D01*
X194305461Y-138425908D01*
X194955460Y-138401856D01*
X195444264Y-138199387D01*
X195453000Y-138175759D01*
X195453000Y-142850000D01*
X136017000Y-142850000D01*
X136017000Y-140928453D01*
X136532392Y-141443845D01*
X137500866Y-141845000D01*
X138549134Y-141845000D01*
X139517608Y-141443845D01*
X140258845Y-140702608D01*
X140660000Y-139734134D01*
X140660000Y-138854561D01*
X143470000Y-138854561D01*
X143470000Y-139425439D01*
X143688466Y-139952862D01*
X144092138Y-140356534D01*
X144619561Y-140575000D01*
X144722514Y-140575000D01*
X144615000Y-140834561D01*
X144615000Y-141405439D01*
X144833466Y-141932862D01*
X145237138Y-142336534D01*
X145764561Y-142555000D01*
X146335439Y-142555000D01*
X146862862Y-142336534D01*
X147195000Y-142004396D01*
X147527138Y-142336534D01*
X148054561Y-142555000D01*
X148625439Y-142555000D01*
X149152862Y-142336534D01*
X149485000Y-142004396D01*
X149817138Y-142336534D01*
X150344561Y-142555000D01*
X150915439Y-142555000D01*
X151442862Y-142336534D01*
X151775000Y-142004396D01*
X152107138Y-142336534D01*
X152634561Y-142555000D01*
X153205439Y-142555000D01*
X153732862Y-142336534D01*
X154065000Y-142004396D01*
X154397138Y-142336534D01*
X154924561Y-142555000D01*
X155495439Y-142555000D01*
X156022862Y-142336534D01*
X156355000Y-142004396D01*
X156687138Y-142336534D01*
X157214561Y-142555000D01*
X157785439Y-142555000D01*
X158312862Y-142336534D01*
X158645000Y-142004396D01*
X158977138Y-142336534D01*
X159504561Y-142555000D01*
X160075439Y-142555000D01*
X160602862Y-142336534D01*
X160935000Y-142004396D01*
X161267138Y-142336534D01*
X161794561Y-142555000D01*
X162365439Y-142555000D01*
X162892862Y-142336534D01*
X163296534Y-141932862D01*
X163515000Y-141405439D01*
X163515000Y-140834561D01*
X163407486Y-140575000D01*
X163510439Y-140575000D01*
X164037862Y-140356534D01*
X164441534Y-139952862D01*
X164660000Y-139425439D01*
X164660000Y-138854561D01*
X164590125Y-138685866D01*
X168690000Y-138685866D01*
X168690000Y-139734134D01*
X169091155Y-140702608D01*
X169832392Y-141443845D01*
X170800866Y-141845000D01*
X171849134Y-141845000D01*
X172817608Y-141443845D01*
X173558845Y-140702608D01*
X173960000Y-139734134D01*
X173960000Y-138685866D01*
X173647959Y-137932532D01*
X177337073Y-137932532D01*
X177435736Y-138199387D01*
X178045461Y-138425908D01*
X178695460Y-138401856D01*
X179184264Y-138199387D01*
X179282927Y-137932532D01*
X178310000Y-136959605D01*
X177337073Y-137932532D01*
X173647959Y-137932532D01*
X173558845Y-137717392D01*
X172817608Y-136976155D01*
X171849134Y-136575000D01*
X170800866Y-136575000D01*
X169832392Y-136976155D01*
X169091155Y-137717392D01*
X168690000Y-138685866D01*
X164590125Y-138685866D01*
X164552486Y-138595000D01*
X164655439Y-138595000D01*
X165182862Y-138376534D01*
X165586534Y-137972862D01*
X165805000Y-137445439D01*
X165805000Y-136874561D01*
X165656256Y-136515461D01*
X176664092Y-136515461D01*
X176688144Y-137165460D01*
X176890613Y-137654264D01*
X177157468Y-137752927D01*
X178130395Y-136780000D01*
X178489605Y-136780000D01*
X179462532Y-137752927D01*
X179729387Y-137654264D01*
X179955908Y-137044539D01*
X179931856Y-136394540D01*
X179729387Y-135905736D01*
X179462532Y-135807073D01*
X178489605Y-136780000D01*
X178130395Y-136780000D01*
X177157468Y-135807073D01*
X176890613Y-135905736D01*
X176664092Y-136515461D01*
X165656256Y-136515461D01*
X165586534Y-136347138D01*
X165182862Y-135943466D01*
X164655439Y-135725000D01*
X164084561Y-135725000D01*
X163557138Y-135943466D01*
X163225000Y-136275604D01*
X162892862Y-135943466D01*
X162365439Y-135725000D01*
X161794561Y-135725000D01*
X161267138Y-135943466D01*
X160935000Y-136275604D01*
X160602862Y-135943466D01*
X160075439Y-135725000D01*
X159504561Y-135725000D01*
X158977138Y-135943466D01*
X158645000Y-136275604D01*
X158312862Y-135943466D01*
X157785439Y-135725000D01*
X157214561Y-135725000D01*
X156687138Y-135943466D01*
X156355000Y-136275604D01*
X156022862Y-135943466D01*
X155495439Y-135725000D01*
X154924561Y-135725000D01*
X154397138Y-135943466D01*
X154065000Y-136275604D01*
X153732862Y-135943466D01*
X153205439Y-135725000D01*
X152634561Y-135725000D01*
X152107138Y-135943466D01*
X151775000Y-136275604D01*
X151442862Y-135943466D01*
X150915439Y-135725000D01*
X150344561Y-135725000D01*
X149817138Y-135943466D01*
X149485000Y-136275604D01*
X149152862Y-135943466D01*
X148625439Y-135725000D01*
X148054561Y-135725000D01*
X147527138Y-135943466D01*
X147412193Y-136058411D01*
X147307809Y-135902191D01*
X147097765Y-135761843D01*
X146850000Y-135712560D01*
X145250000Y-135712560D01*
X145002235Y-135761843D01*
X144792191Y-135902191D01*
X144651843Y-136112235D01*
X144602560Y-136360000D01*
X144602560Y-137712042D01*
X144092138Y-137923466D01*
X143688466Y-138327138D01*
X143470000Y-138854561D01*
X140660000Y-138854561D01*
X140660000Y-138685866D01*
X140258845Y-137717392D01*
X139517608Y-136976155D01*
X138549134Y-136575000D01*
X137500866Y-136575000D01*
X136532392Y-136976155D01*
X136017000Y-137491547D01*
X136017000Y-135627468D01*
X177337073Y-135627468D01*
X178310000Y-136600395D01*
X179282927Y-135627468D01*
X179210645Y-135431965D01*
X179640458Y-135610000D01*
X180539542Y-135610000D01*
X181370187Y-135265935D01*
X181482560Y-135153562D01*
X181482560Y-136640000D01*
X181531843Y-136887765D01*
X181672191Y-137097809D01*
X181882235Y-137238157D01*
X182130000Y-137287440D01*
X182559348Y-137287440D01*
X182515000Y-137394506D01*
X182515000Y-137945494D01*
X182725853Y-138454540D01*
X183115460Y-138844147D01*
X183624506Y-139055000D01*
X184175494Y-139055000D01*
X184684540Y-138844147D01*
X184920000Y-138608687D01*
X185155460Y-138844147D01*
X185664506Y-139055000D01*
X186215494Y-139055000D01*
X186724540Y-138844147D01*
X186960000Y-138608687D01*
X187195460Y-138844147D01*
X187704506Y-139055000D01*
X188255494Y-139055000D01*
X188764540Y-138844147D01*
X189000000Y-138608687D01*
X189235460Y-138844147D01*
X189744506Y-139055000D01*
X190295494Y-139055000D01*
X190804540Y-138844147D01*
X191194147Y-138454540D01*
X191405000Y-137945494D01*
X191405000Y-137394506D01*
X191194147Y-136885460D01*
X190824148Y-136515461D01*
X192924092Y-136515461D01*
X192948144Y-137165460D01*
X193150613Y-137654264D01*
X193417468Y-137752927D01*
X194390395Y-136780000D01*
X193417468Y-135807073D01*
X193150613Y-135905736D01*
X192924092Y-136515461D01*
X190824148Y-136515461D01*
X190804540Y-136495853D01*
X190329641Y-136299144D01*
X190385000Y-136165494D01*
X190385000Y-135614506D01*
X190174147Y-135105460D01*
X189784540Y-134715853D01*
X189275494Y-134505000D01*
X188724506Y-134505000D01*
X188215460Y-134715853D01*
X187980000Y-134951313D01*
X187744540Y-134715853D01*
X187235494Y-134505000D01*
X186684506Y-134505000D01*
X186175460Y-134715853D01*
X185940000Y-134951313D01*
X185704540Y-134715853D01*
X185195494Y-134505000D01*
X184644506Y-134505000D01*
X184135460Y-134715853D01*
X184120379Y-134730934D01*
X184087809Y-134682191D01*
X183877765Y-134541843D01*
X183630000Y-134492560D01*
X182130000Y-134492560D01*
X182056921Y-134507096D01*
X182350000Y-133799542D01*
X182350000Y-132900458D01*
X182005935Y-132069813D01*
X181370187Y-131434065D01*
X180539542Y-131090000D01*
X179640458Y-131090000D01*
X178809813Y-131434065D01*
X178174065Y-132069813D01*
X177830000Y-132900458D01*
X177830000Y-133799542D01*
X178174065Y-134630187D01*
X178739111Y-135195233D01*
X178574539Y-135134092D01*
X177924540Y-135158144D01*
X177435736Y-135360613D01*
X177337073Y-135627468D01*
X136017000Y-135627468D01*
X136017000Y-132080000D01*
X144586887Y-132080000D01*
X144698260Y-132639909D01*
X145015423Y-133114577D01*
X145490091Y-133431740D01*
X145908667Y-133515000D01*
X146191333Y-133515000D01*
X146609909Y-133431740D01*
X147084577Y-133114577D01*
X147320000Y-132762242D01*
X147555423Y-133114577D01*
X148030091Y-133431740D01*
X148448667Y-133515000D01*
X148731333Y-133515000D01*
X149149909Y-133431740D01*
X149624577Y-133114577D01*
X149941740Y-132639909D01*
X150053113Y-132080000D01*
X149941740Y-131520091D01*
X149624577Y-131045423D01*
X149149909Y-130728260D01*
X148731333Y-130645000D01*
X148448667Y-130645000D01*
X148030091Y-130728260D01*
X147555423Y-131045423D01*
X147320000Y-131397758D01*
X147084577Y-131045423D01*
X146609909Y-130728260D01*
X146191333Y-130645000D01*
X145908667Y-130645000D01*
X145490091Y-130728260D01*
X145015423Y-131045423D01*
X144698260Y-131520091D01*
X144586887Y-132080000D01*
X136017000Y-132080000D01*
X136017000Y-124809041D01*
X144658086Y-124809041D01*
X144897611Y-125315134D01*
X145312577Y-125691041D01*
X145700961Y-125851904D01*
X145923000Y-125729915D01*
X145923000Y-124587000D01*
X144779371Y-124587000D01*
X144658086Y-124809041D01*
X136017000Y-124809041D01*
X136017000Y-124110959D01*
X144658086Y-124110959D01*
X144779371Y-124333000D01*
X145923000Y-124333000D01*
X145923000Y-123190085D01*
X146177000Y-123190085D01*
X146177000Y-124333000D01*
X146197000Y-124333000D01*
X146197000Y-124587000D01*
X146177000Y-124587000D01*
X146177000Y-125729915D01*
X146399039Y-125851904D01*
X146787423Y-125691041D01*
X147160987Y-125352639D01*
X147191843Y-125507765D01*
X147332191Y-125717809D01*
X147542235Y-125858157D01*
X147790000Y-125907440D01*
X149390000Y-125907440D01*
X149637765Y-125858157D01*
X149847809Y-125717809D01*
X149988157Y-125507765D01*
X150037440Y-125260000D01*
X150037440Y-124460000D01*
X151038846Y-124460000D01*
X151142458Y-124980891D01*
X151437519Y-125422481D01*
X151879109Y-125717542D01*
X152268515Y-125795000D01*
X152531485Y-125795000D01*
X152920891Y-125717542D01*
X153362481Y-125422481D01*
X153657542Y-124980891D01*
X153761154Y-124460000D01*
X153657542Y-123939109D01*
X153362481Y-123497519D01*
X152920891Y-123202458D01*
X152803259Y-123179060D01*
X153202663Y-122986764D01*
X153549797Y-122598396D01*
X153692716Y-122253329D01*
X153569374Y-122047000D01*
X152527000Y-122047000D01*
X152527000Y-122067000D01*
X152273000Y-122067000D01*
X152273000Y-122047000D01*
X151230626Y-122047000D01*
X151107284Y-122253329D01*
X151250203Y-122598396D01*
X151597337Y-122986764D01*
X151996741Y-123179060D01*
X151879109Y-123202458D01*
X151437519Y-123497519D01*
X151142458Y-123939109D01*
X151038846Y-124460000D01*
X150037440Y-124460000D01*
X150037440Y-123660000D01*
X149988157Y-123412235D01*
X149847809Y-123202191D01*
X149637765Y-123061843D01*
X149390000Y-123012560D01*
X147790000Y-123012560D01*
X147542235Y-123061843D01*
X147332191Y-123202191D01*
X147191843Y-123412235D01*
X147160987Y-123567361D01*
X146787423Y-123228959D01*
X146399039Y-123068096D01*
X146177000Y-123190085D01*
X145923000Y-123190085D01*
X145700961Y-123068096D01*
X145312577Y-123228959D01*
X144897611Y-123604866D01*
X144658086Y-124110959D01*
X136017000Y-124110959D01*
X136017000Y-121586671D01*
X151107284Y-121586671D01*
X151230626Y-121793000D01*
X152273000Y-121793000D01*
X152273000Y-120749794D01*
X152527000Y-120749794D01*
X152527000Y-121793000D01*
X153569374Y-121793000D01*
X153652197Y-121654452D01*
X156145000Y-121654452D01*
X156145000Y-122185548D01*
X156348242Y-122676217D01*
X156723783Y-123051758D01*
X157057528Y-123190000D01*
X156723783Y-123328242D01*
X156348242Y-123703783D01*
X156145000Y-124194452D01*
X156145000Y-124725548D01*
X156348242Y-125216217D01*
X156723783Y-125591758D01*
X157214452Y-125795000D01*
X157745548Y-125795000D01*
X158236217Y-125591758D01*
X158611758Y-125216217D01*
X158815000Y-124725548D01*
X158815000Y-124194452D01*
X158611758Y-123703783D01*
X158236217Y-123328242D01*
X157902472Y-123190000D01*
X158236217Y-123051758D01*
X158611758Y-122676217D01*
X158815000Y-122185548D01*
X158815000Y-121920000D01*
X163585908Y-121920000D01*
X163701161Y-122499418D01*
X164029375Y-122990625D01*
X164520582Y-123318839D01*
X164953744Y-123405000D01*
X165246256Y-123405000D01*
X165679418Y-123318839D01*
X166170625Y-122990625D01*
X166370000Y-122692239D01*
X166569375Y-122990625D01*
X167060582Y-123318839D01*
X167493744Y-123405000D01*
X167786256Y-123405000D01*
X168219418Y-123318839D01*
X168710625Y-122990625D01*
X168910000Y-122692239D01*
X169109375Y-122990625D01*
X169600582Y-123318839D01*
X170033744Y-123405000D01*
X170326256Y-123405000D01*
X170759418Y-123318839D01*
X171250625Y-122990625D01*
X171450000Y-122692239D01*
X171649375Y-122990625D01*
X172140582Y-123318839D01*
X172573744Y-123405000D01*
X172866256Y-123405000D01*
X173299418Y-123318839D01*
X173790625Y-122990625D01*
X173990000Y-122692239D01*
X174189375Y-122990625D01*
X174680582Y-123318839D01*
X175113744Y-123405000D01*
X175406256Y-123405000D01*
X175839418Y-123318839D01*
X176330625Y-122990625D01*
X176530000Y-122692239D01*
X176729375Y-122990625D01*
X177220582Y-123318839D01*
X177653744Y-123405000D01*
X177946256Y-123405000D01*
X178379418Y-123318839D01*
X178870625Y-122990625D01*
X179070000Y-122692239D01*
X179269375Y-122990625D01*
X179760582Y-123318839D01*
X180193744Y-123405000D01*
X180486256Y-123405000D01*
X180919418Y-123318839D01*
X181410625Y-122990625D01*
X181610000Y-122692239D01*
X181809375Y-122990625D01*
X182300582Y-123318839D01*
X182733744Y-123405000D01*
X183026256Y-123405000D01*
X183459418Y-123318839D01*
X183950625Y-122990625D01*
X184150000Y-122692239D01*
X184349375Y-122990625D01*
X184840582Y-123318839D01*
X185273744Y-123405000D01*
X185566256Y-123405000D01*
X185999418Y-123318839D01*
X186490625Y-122990625D01*
X186690000Y-122692239D01*
X186889375Y-122990625D01*
X187380582Y-123318839D01*
X187813744Y-123405000D01*
X188106256Y-123405000D01*
X188539418Y-123318839D01*
X189030625Y-122990625D01*
X189230000Y-122692239D01*
X189429375Y-122990625D01*
X189920582Y-123318839D01*
X190353744Y-123405000D01*
X190646256Y-123405000D01*
X191079418Y-123318839D01*
X191570625Y-122990625D01*
X191582816Y-122972381D01*
X191591843Y-123017765D01*
X191732191Y-123227809D01*
X191942235Y-123368157D01*
X192190000Y-123417440D01*
X193890000Y-123417440D01*
X194137765Y-123368157D01*
X194347809Y-123227809D01*
X194488157Y-123017765D01*
X194537440Y-122770000D01*
X194537440Y-121070000D01*
X194488157Y-120822235D01*
X194347809Y-120612191D01*
X194137765Y-120471843D01*
X193890000Y-120422560D01*
X192190000Y-120422560D01*
X191942235Y-120471843D01*
X191732191Y-120612191D01*
X191591843Y-120822235D01*
X191582816Y-120867619D01*
X191570625Y-120849375D01*
X191079418Y-120521161D01*
X190646256Y-120435000D01*
X190353744Y-120435000D01*
X189920582Y-120521161D01*
X189429375Y-120849375D01*
X189230000Y-121147761D01*
X189030625Y-120849375D01*
X188539418Y-120521161D01*
X188106256Y-120435000D01*
X187813744Y-120435000D01*
X187380582Y-120521161D01*
X186889375Y-120849375D01*
X186690000Y-121147761D01*
X186490625Y-120849375D01*
X185999418Y-120521161D01*
X185566256Y-120435000D01*
X185273744Y-120435000D01*
X184840582Y-120521161D01*
X184349375Y-120849375D01*
X184150000Y-121147761D01*
X183950625Y-120849375D01*
X183459418Y-120521161D01*
X183026256Y-120435000D01*
X182733744Y-120435000D01*
X182300582Y-120521161D01*
X181809375Y-120849375D01*
X181610000Y-121147761D01*
X181410625Y-120849375D01*
X180919418Y-120521161D01*
X180486256Y-120435000D01*
X180193744Y-120435000D01*
X179760582Y-120521161D01*
X179269375Y-120849375D01*
X179070000Y-121147761D01*
X178870625Y-120849375D01*
X178379418Y-120521161D01*
X177946256Y-120435000D01*
X177653744Y-120435000D01*
X177220582Y-120521161D01*
X176729375Y-120849375D01*
X176530000Y-121147761D01*
X176330625Y-120849375D01*
X175839418Y-120521161D01*
X175406256Y-120435000D01*
X175113744Y-120435000D01*
X174680582Y-120521161D01*
X174189375Y-120849375D01*
X173990000Y-121147761D01*
X173790625Y-120849375D01*
X173299418Y-120521161D01*
X172866256Y-120435000D01*
X172573744Y-120435000D01*
X172140582Y-120521161D01*
X171649375Y-120849375D01*
X171450000Y-121147761D01*
X171250625Y-120849375D01*
X170759418Y-120521161D01*
X170326256Y-120435000D01*
X170033744Y-120435000D01*
X169600582Y-120521161D01*
X169109375Y-120849375D01*
X168910000Y-121147761D01*
X168710625Y-120849375D01*
X168219418Y-120521161D01*
X167786256Y-120435000D01*
X167493744Y-120435000D01*
X167060582Y-120521161D01*
X166569375Y-120849375D01*
X166370000Y-121147761D01*
X166170625Y-120849375D01*
X165679418Y-120521161D01*
X165246256Y-120435000D01*
X164953744Y-120435000D01*
X164520582Y-120521161D01*
X164029375Y-120849375D01*
X163701161Y-121340582D01*
X163585908Y-121920000D01*
X158815000Y-121920000D01*
X158815000Y-121654452D01*
X158611758Y-121163783D01*
X158236217Y-120788242D01*
X157745548Y-120585000D01*
X157214452Y-120585000D01*
X156723783Y-120788242D01*
X156348242Y-121163783D01*
X156145000Y-121654452D01*
X153652197Y-121654452D01*
X153692716Y-121586671D01*
X153549797Y-121241604D01*
X153202663Y-120853236D01*
X152733331Y-120627273D01*
X152527000Y-120749794D01*
X152273000Y-120749794D01*
X152066669Y-120627273D01*
X151597337Y-120853236D01*
X151250203Y-121241604D01*
X151107284Y-121586671D01*
X136017000Y-121586671D01*
X136017000Y-117260000D01*
X150902560Y-117260000D01*
X150902560Y-118960000D01*
X150951843Y-119207765D01*
X151092191Y-119417809D01*
X151302235Y-119558157D01*
X151550000Y-119607440D01*
X153250000Y-119607440D01*
X153497765Y-119558157D01*
X153707809Y-119417809D01*
X153848157Y-119207765D01*
X153868739Y-119104292D01*
X154173076Y-119381645D01*
X154583110Y-119551476D01*
X154813000Y-119430155D01*
X154813000Y-118237000D01*
X154793000Y-118237000D01*
X154793000Y-117983000D01*
X154813000Y-117983000D01*
X154813000Y-116789845D01*
X155067000Y-116789845D01*
X155067000Y-117983000D01*
X155087000Y-117983000D01*
X155087000Y-118237000D01*
X155067000Y-118237000D01*
X155067000Y-119430155D01*
X155296890Y-119551476D01*
X155706924Y-119381645D01*
X156135183Y-118991358D01*
X156196157Y-118861522D01*
X156409375Y-119180625D01*
X156900582Y-119508839D01*
X157333744Y-119595000D01*
X157626256Y-119595000D01*
X158059418Y-119508839D01*
X158550625Y-119180625D01*
X158878839Y-118689418D01*
X158994092Y-118110000D01*
X158941272Y-117844452D01*
X163765000Y-117844452D01*
X163765000Y-118375548D01*
X163968242Y-118866217D01*
X164343783Y-119241758D01*
X164834452Y-119445000D01*
X165365548Y-119445000D01*
X165856217Y-119241758D01*
X166231758Y-118866217D01*
X166370000Y-118532472D01*
X166508242Y-118866217D01*
X166883783Y-119241758D01*
X167374452Y-119445000D01*
X167905548Y-119445000D01*
X168396217Y-119241758D01*
X168771758Y-118866217D01*
X168910000Y-118532472D01*
X169048242Y-118866217D01*
X169423783Y-119241758D01*
X169914452Y-119445000D01*
X170445548Y-119445000D01*
X170936217Y-119241758D01*
X171311758Y-118866217D01*
X171450000Y-118532472D01*
X171588242Y-118866217D01*
X171963783Y-119241758D01*
X172454452Y-119445000D01*
X172985548Y-119445000D01*
X173476217Y-119241758D01*
X173851758Y-118866217D01*
X173990000Y-118532472D01*
X174128242Y-118866217D01*
X174503783Y-119241758D01*
X174994452Y-119445000D01*
X175525548Y-119445000D01*
X176016217Y-119241758D01*
X176391758Y-118866217D01*
X176530000Y-118532472D01*
X176668242Y-118866217D01*
X177043783Y-119241758D01*
X177534452Y-119445000D01*
X178065548Y-119445000D01*
X178556217Y-119241758D01*
X178931758Y-118866217D01*
X179070000Y-118532472D01*
X179208242Y-118866217D01*
X179583783Y-119241758D01*
X180074452Y-119445000D01*
X180605548Y-119445000D01*
X181096217Y-119241758D01*
X181471758Y-118866217D01*
X181610000Y-118532472D01*
X181748242Y-118866217D01*
X182123783Y-119241758D01*
X182614452Y-119445000D01*
X183145548Y-119445000D01*
X183636217Y-119241758D01*
X184011758Y-118866217D01*
X184150000Y-118532472D01*
X184288242Y-118866217D01*
X184663783Y-119241758D01*
X185154452Y-119445000D01*
X185685548Y-119445000D01*
X186176217Y-119241758D01*
X186551758Y-118866217D01*
X186690000Y-118532472D01*
X186828242Y-118866217D01*
X187203783Y-119241758D01*
X187694452Y-119445000D01*
X188225548Y-119445000D01*
X188716217Y-119241758D01*
X189091758Y-118866217D01*
X189230000Y-118532472D01*
X189368242Y-118866217D01*
X189743783Y-119241758D01*
X190234452Y-119445000D01*
X190765548Y-119445000D01*
X191256217Y-119241758D01*
X191631758Y-118866217D01*
X191770000Y-118532472D01*
X191908242Y-118866217D01*
X192283783Y-119241758D01*
X192774452Y-119445000D01*
X193305548Y-119445000D01*
X193796217Y-119241758D01*
X194171758Y-118866217D01*
X194375000Y-118375548D01*
X194375000Y-117844452D01*
X194171758Y-117353783D01*
X193796217Y-116978242D01*
X193305548Y-116775000D01*
X192774452Y-116775000D01*
X192283783Y-116978242D01*
X191908242Y-117353783D01*
X191770000Y-117687528D01*
X191631758Y-117353783D01*
X191256217Y-116978242D01*
X190765548Y-116775000D01*
X190234452Y-116775000D01*
X189743783Y-116978242D01*
X189368242Y-117353783D01*
X189230000Y-117687528D01*
X189091758Y-117353783D01*
X188716217Y-116978242D01*
X188225548Y-116775000D01*
X187694452Y-116775000D01*
X187203783Y-116978242D01*
X186828242Y-117353783D01*
X186690000Y-117687528D01*
X186551758Y-117353783D01*
X186176217Y-116978242D01*
X185685548Y-116775000D01*
X185154452Y-116775000D01*
X184663783Y-116978242D01*
X184288242Y-117353783D01*
X184150000Y-117687528D01*
X184011758Y-117353783D01*
X183636217Y-116978242D01*
X183145548Y-116775000D01*
X182614452Y-116775000D01*
X182123783Y-116978242D01*
X181748242Y-117353783D01*
X181610000Y-117687528D01*
X181471758Y-117353783D01*
X181096217Y-116978242D01*
X180605548Y-116775000D01*
X180074452Y-116775000D01*
X179583783Y-116978242D01*
X179208242Y-117353783D01*
X179070000Y-117687528D01*
X178931758Y-117353783D01*
X178556217Y-116978242D01*
X178065548Y-116775000D01*
X177534452Y-116775000D01*
X177043783Y-116978242D01*
X176668242Y-117353783D01*
X176530000Y-117687528D01*
X176391758Y-117353783D01*
X176016217Y-116978242D01*
X175525548Y-116775000D01*
X174994452Y-116775000D01*
X174503783Y-116978242D01*
X174128242Y-117353783D01*
X173990000Y-117687528D01*
X173851758Y-117353783D01*
X173476217Y-116978242D01*
X172985548Y-116775000D01*
X172454452Y-116775000D01*
X171963783Y-116978242D01*
X171588242Y-117353783D01*
X171450000Y-117687528D01*
X171311758Y-117353783D01*
X170936217Y-116978242D01*
X170445548Y-116775000D01*
X169914452Y-116775000D01*
X169423783Y-116978242D01*
X169048242Y-117353783D01*
X168910000Y-117687528D01*
X168771758Y-117353783D01*
X168396217Y-116978242D01*
X167905548Y-116775000D01*
X167374452Y-116775000D01*
X166883783Y-116978242D01*
X166508242Y-117353783D01*
X166370000Y-117687528D01*
X166231758Y-117353783D01*
X165856217Y-116978242D01*
X165365548Y-116775000D01*
X164834452Y-116775000D01*
X164343783Y-116978242D01*
X163968242Y-117353783D01*
X163765000Y-117844452D01*
X158941272Y-117844452D01*
X158878839Y-117530582D01*
X158550625Y-117039375D01*
X158059418Y-116711161D01*
X157626256Y-116625000D01*
X157333744Y-116625000D01*
X156900582Y-116711161D01*
X156409375Y-117039375D01*
X156196157Y-117358478D01*
X156135183Y-117228642D01*
X155706924Y-116838355D01*
X155296890Y-116668524D01*
X155067000Y-116789845D01*
X154813000Y-116789845D01*
X154583110Y-116668524D01*
X154173076Y-116838355D01*
X153868739Y-117115708D01*
X153848157Y-117012235D01*
X153707809Y-116802191D01*
X153497765Y-116661843D01*
X153250000Y-116612560D01*
X151550000Y-116612560D01*
X151302235Y-116661843D01*
X151092191Y-116802191D01*
X150951843Y-117012235D01*
X150902560Y-117260000D01*
X136017000Y-117260000D01*
X136017000Y-113315750D01*
X139485000Y-113315750D01*
X139485000Y-114006309D01*
X139581673Y-114239698D01*
X139760301Y-114418327D01*
X139993690Y-114515000D01*
X140684250Y-114515000D01*
X140843000Y-114356250D01*
X140843000Y-113157000D01*
X139643750Y-113157000D01*
X139485000Y-113315750D01*
X136017000Y-113315750D01*
X136017000Y-111887000D01*
X139554046Y-111887000D01*
X139485000Y-112053691D01*
G04 #@! TD*
M02*
