G04 #@! TF.GenerationSoftware,KiCad,Pcbnew,(6.0.0-rc1-dev-392-gd9d005190)*
G04 #@! TF.CreationDate,2019-08-06T20:11:49-04:00*
G04 #@! TF.ProjectId,relay_ctrl,72656C61795F6374726C2E6B69636164,rev?*
G04 #@! TF.SameCoordinates,Original*
G04 #@! TF.FileFunction,Soldermask,Top*
G04 #@! TF.FilePolarity,Negative*
%FSLAX46Y46*%
G04 Gerber Fmt 4.6, Leading zero omitted, Abs format (unit mm)*
G04 Created by KiCad (PCBNEW (6.0.0-rc1-dev-392-gd9d005190)) date 08/06/19 20:11:49*
%MOMM*%
%LPD*%
G01*
G04 APERTURE LIST*
%ADD10O,2.000000X2.000000*%
%ADD11R,2.000000X2.000000*%
%ADD12O,1.800000X1.800000*%
%ADD13C,1.800000*%
%ADD14O,2.100000X2.100000*%
%ADD15R,2.100000X2.100000*%
%ADD16C,4.400000*%
%ADD17C,2.000000*%
%ADD18C,2.400000*%
%ADD19C,3.650000*%
%ADD20C,1.900000*%
%ADD21R,1.900000X1.900000*%
G04 APERTURE END LIST*
D10*
G04 #@! TO.C,U1*
X148590000Y-132080000D03*
X146050000Y-124460000D03*
X146050000Y-132080000D03*
D11*
X148590000Y-124460000D03*
G04 #@! TD*
D12*
G04 #@! TO.C,R14*
X165100000Y-113030000D03*
D13*
X165100000Y-118110000D03*
G04 #@! TD*
D12*
G04 #@! TO.C,R13*
X167640000Y-113030000D03*
D13*
X167640000Y-118110000D03*
G04 #@! TD*
D12*
G04 #@! TO.C,R12*
X170180000Y-113030000D03*
D13*
X170180000Y-118110000D03*
G04 #@! TD*
D12*
G04 #@! TO.C,R11*
X172720000Y-113030000D03*
D13*
X172720000Y-118110000D03*
G04 #@! TD*
D12*
G04 #@! TO.C,R10*
X152400000Y-124460000D03*
D13*
X157480000Y-124460000D03*
G04 #@! TD*
D12*
G04 #@! TO.C,R9*
X175260000Y-113030000D03*
D13*
X175260000Y-118110000D03*
G04 #@! TD*
D12*
G04 #@! TO.C,R8*
X177800000Y-113030000D03*
D13*
X177800000Y-118110000D03*
G04 #@! TD*
D12*
G04 #@! TO.C,R7*
X152400000Y-121920000D03*
D13*
X157480000Y-121920000D03*
G04 #@! TD*
D12*
G04 #@! TO.C,R6*
X180340000Y-113030000D03*
D13*
X180340000Y-118110000D03*
G04 #@! TD*
D12*
G04 #@! TO.C,R5*
X182880000Y-113030000D03*
D13*
X182880000Y-118110000D03*
G04 #@! TD*
D12*
G04 #@! TO.C,R4*
X185420000Y-113030000D03*
D13*
X185420000Y-118110000D03*
G04 #@! TD*
D12*
G04 #@! TO.C,R3*
X187960000Y-113030000D03*
D13*
X187960000Y-118110000D03*
G04 #@! TD*
D12*
G04 #@! TO.C,R2*
X190500000Y-113030000D03*
D13*
X190500000Y-118110000D03*
G04 #@! TD*
D12*
G04 #@! TO.C,R1*
X193040000Y-113030000D03*
D13*
X193040000Y-118110000D03*
G04 #@! TD*
D14*
G04 #@! TO.C,J5*
X143510000Y-113030000D03*
D15*
X140970000Y-113030000D03*
G04 #@! TD*
D14*
G04 #@! TO.C,J4*
X157480000Y-113030000D03*
X154940000Y-113030000D03*
D15*
X152400000Y-113030000D03*
G04 #@! TD*
D14*
G04 #@! TO.C,J3*
X157480000Y-118110000D03*
X154940000Y-118110000D03*
D15*
X152400000Y-118110000D03*
G04 #@! TD*
D14*
G04 #@! TO.C,J6*
X165100000Y-121920000D03*
X167640000Y-121920000D03*
X170180000Y-121920000D03*
X172720000Y-121920000D03*
X175260000Y-121920000D03*
X177800000Y-121920000D03*
X180340000Y-121920000D03*
X182880000Y-121920000D03*
X185420000Y-121920000D03*
X187960000Y-121920000D03*
X190500000Y-121920000D03*
D15*
X193040000Y-121920000D03*
G04 #@! TD*
D16*
G04 #@! TO.C,J2*
X171325000Y-139210000D03*
X138025000Y-139210000D03*
D17*
X162080000Y-141120000D03*
X159790000Y-141120000D03*
X157500000Y-141120000D03*
X155210000Y-141120000D03*
X152920000Y-141120000D03*
X150630000Y-141120000D03*
X148340000Y-141120000D03*
X146050000Y-141120000D03*
X163225000Y-139140000D03*
X160935000Y-139140000D03*
X158645000Y-139140000D03*
X156355000Y-139140000D03*
X154065000Y-139140000D03*
X151775000Y-139140000D03*
X149485000Y-139140000D03*
X147195000Y-139140000D03*
X144905000Y-139140000D03*
X164370000Y-137160000D03*
X162080000Y-137160000D03*
X159790000Y-137160000D03*
X157500000Y-137160000D03*
X155210000Y-137160000D03*
X152920000Y-137160000D03*
X150630000Y-137160000D03*
X148340000Y-137160000D03*
D11*
X146050000Y-137160000D03*
G04 #@! TD*
D18*
G04 #@! TO.C,J1*
X178310000Y-136780000D03*
X194570000Y-136780000D03*
D19*
X192790000Y-133350000D03*
X180090000Y-133350000D03*
D20*
X190020000Y-137670000D03*
X187980000Y-137670000D03*
X185940000Y-137670000D03*
X183900000Y-137670000D03*
X189000000Y-135890000D03*
X186960000Y-135890000D03*
X184920000Y-135890000D03*
D21*
X182880000Y-135890000D03*
G04 #@! TD*
M02*
