G04 #@! TF.GenerationSoftware,KiCad,Pcbnew,(5.1.4)-1*
G04 #@! TF.CreationDate,2019-08-27T16:30:30-04:00*
G04 #@! TF.ProjectId,clock_buffer,636c6f63-6b5f-4627-9566-6665722e6b69,rev?*
G04 #@! TF.SameCoordinates,Original*
G04 #@! TF.FileFunction,Legend,Top*
G04 #@! TF.FilePolarity,Positive*
%FSLAX46Y46*%
G04 Gerber Fmt 4.6, Leading zero omitted, Abs format (unit mm)*
G04 Created by KiCad (PCBNEW (5.1.4)-1) date 2019-08-27 16:30:30*
%MOMM*%
%LPD*%
G04 APERTURE LIST*
%ADD10C,0.120000*%
%ADD11C,0.127000*%
%ADD12C,0.200000*%
%ADD13C,0.150000*%
%ADD14C,0.050000*%
G04 APERTURE END LIST*
D10*
X147826000Y-111114721D02*
X147826000Y-111440279D01*
X148846000Y-111114721D02*
X148846000Y-111440279D01*
X152148000Y-111440279D02*
X152148000Y-111114721D01*
X151128000Y-111440279D02*
X151128000Y-111114721D01*
X147690000Y-100224721D02*
X147690000Y-100550279D01*
X148710000Y-100224721D02*
X148710000Y-100550279D01*
X155775922Y-114248000D02*
X156293078Y-114248000D01*
X155775922Y-112828000D02*
X156293078Y-112828000D01*
X157174000Y-102826078D02*
X157174000Y-102308922D01*
X155754000Y-102826078D02*
X155754000Y-102308922D01*
D11*
X148564000Y-108041000D02*
X148750500Y-108041000D01*
X148564000Y-103541000D02*
X148564000Y-108041000D01*
X148750500Y-103541000D02*
X148564000Y-103541000D01*
X151664000Y-108041000D02*
X151477500Y-108041000D01*
X151664000Y-103541000D02*
X151664000Y-108041000D01*
X151477500Y-103541000D02*
X151664000Y-103541000D01*
D12*
X151189000Y-101811000D02*
G75*
G03X151189000Y-101811000I-100000J0D01*
G01*
D10*
X155744500Y-106017436D02*
X155744500Y-107221564D01*
X157564500Y-106017436D02*
X157564500Y-107221564D01*
X155254000Y-94495000D02*
X144974000Y-94495000D01*
X155254000Y-112515000D02*
X155254000Y-94495000D01*
X144974000Y-112515000D02*
X155254000Y-112515000D01*
X144974000Y-94495000D02*
X144974000Y-112515000D01*
X152764000Y-94555000D02*
X151114000Y-94555000D01*
X152764000Y-112455000D02*
X152764000Y-94555000D01*
X147464000Y-112455000D02*
X152764000Y-112455000D01*
X147464000Y-94555000D02*
X147464000Y-112455000D01*
X149114000Y-94555000D02*
X147464000Y-94555000D01*
X151114000Y-94555000D02*
G75*
G02X149114000Y-94555000I-1000000J0D01*
G01*
X148568000Y-86109000D02*
X152168000Y-86109000D01*
X148568000Y-93469000D02*
X152168000Y-93469000D01*
X154048000Y-87989000D02*
X154048000Y-91589000D01*
X146688000Y-87989000D02*
X146688000Y-91589000D01*
D13*
X148169333Y-113895142D02*
X148121714Y-113942761D01*
X147978857Y-113990380D01*
X147883619Y-113990380D01*
X147740761Y-113942761D01*
X147645523Y-113847523D01*
X147597904Y-113752285D01*
X147550285Y-113561809D01*
X147550285Y-113418952D01*
X147597904Y-113228476D01*
X147645523Y-113133238D01*
X147740761Y-113038000D01*
X147883619Y-112990380D01*
X147978857Y-112990380D01*
X148121714Y-113038000D01*
X148169333Y-113085619D01*
X148502666Y-112990380D02*
X149121714Y-112990380D01*
X148788380Y-113371333D01*
X148931238Y-113371333D01*
X149026476Y-113418952D01*
X149074095Y-113466571D01*
X149121714Y-113561809D01*
X149121714Y-113799904D01*
X149074095Y-113895142D01*
X149026476Y-113942761D01*
X148931238Y-113990380D01*
X148645523Y-113990380D01*
X148550285Y-113942761D01*
X148502666Y-113895142D01*
X151471333Y-113990380D02*
X151138000Y-113514190D01*
X150899904Y-113990380D02*
X150899904Y-112990380D01*
X151280857Y-112990380D01*
X151376095Y-113038000D01*
X151423714Y-113085619D01*
X151471333Y-113180857D01*
X151471333Y-113323714D01*
X151423714Y-113418952D01*
X151376095Y-113466571D01*
X151280857Y-113514190D01*
X150899904Y-113514190D01*
X152423714Y-113990380D02*
X151852285Y-113990380D01*
X152138000Y-113990380D02*
X152138000Y-112990380D01*
X152042761Y-113133238D01*
X151947523Y-113228476D01*
X151852285Y-113276095D01*
X149987142Y-100554166D02*
X150034761Y-100601785D01*
X150082380Y-100744642D01*
X150082380Y-100839880D01*
X150034761Y-100982738D01*
X149939523Y-101077976D01*
X149844285Y-101125595D01*
X149653809Y-101173214D01*
X149510952Y-101173214D01*
X149320476Y-101125595D01*
X149225238Y-101077976D01*
X149130000Y-100982738D01*
X149082380Y-100839880D01*
X149082380Y-100744642D01*
X149130000Y-100601785D01*
X149177619Y-100554166D01*
X149415714Y-99697023D02*
X150082380Y-99697023D01*
X149034761Y-99935119D02*
X149749047Y-100173214D01*
X149749047Y-99554166D01*
X156551333Y-112371142D02*
X156503714Y-112418761D01*
X156360857Y-112466380D01*
X156265619Y-112466380D01*
X156122761Y-112418761D01*
X156027523Y-112323523D01*
X155979904Y-112228285D01*
X155932285Y-112037809D01*
X155932285Y-111894952D01*
X155979904Y-111704476D01*
X156027523Y-111609238D01*
X156122761Y-111514000D01*
X156265619Y-111466380D01*
X156360857Y-111466380D01*
X156503714Y-111514000D01*
X156551333Y-111561619D01*
X156932285Y-111561619D02*
X156979904Y-111514000D01*
X157075142Y-111466380D01*
X157313238Y-111466380D01*
X157408476Y-111514000D01*
X157456095Y-111561619D01*
X157503714Y-111656857D01*
X157503714Y-111752095D01*
X157456095Y-111894952D01*
X156884666Y-112466380D01*
X157503714Y-112466380D01*
X156297333Y-100496642D02*
X156249714Y-100544261D01*
X156106857Y-100591880D01*
X156011619Y-100591880D01*
X155868761Y-100544261D01*
X155773523Y-100449023D01*
X155725904Y-100353785D01*
X155678285Y-100163309D01*
X155678285Y-100020452D01*
X155725904Y-99829976D01*
X155773523Y-99734738D01*
X155868761Y-99639500D01*
X156011619Y-99591880D01*
X156106857Y-99591880D01*
X156249714Y-99639500D01*
X156297333Y-99687119D01*
X157249714Y-100591880D02*
X156678285Y-100591880D01*
X156964000Y-100591880D02*
X156964000Y-99591880D01*
X156868761Y-99734738D01*
X156773523Y-99829976D01*
X156678285Y-99877595D01*
D14*
X149351135Y-105242690D02*
X149351135Y-106053234D01*
X149398814Y-106148592D01*
X149446493Y-106196271D01*
X149541851Y-106243950D01*
X149732567Y-106243950D01*
X149827925Y-106196271D01*
X149875604Y-106148592D01*
X149923283Y-106053234D01*
X149923283Y-105242690D01*
X150352395Y-105338049D02*
X150400074Y-105290370D01*
X150495432Y-105242690D01*
X150733827Y-105242690D01*
X150829185Y-105290370D01*
X150876864Y-105338049D01*
X150924543Y-105433407D01*
X150924543Y-105528765D01*
X150876864Y-105671802D01*
X150304716Y-106243950D01*
X150924543Y-106243950D01*
X147599575Y-110607795D02*
X147647220Y-110655439D01*
X147694865Y-110798374D01*
X147694865Y-110893663D01*
X147647220Y-111036597D01*
X147551930Y-111131887D01*
X147456641Y-111179532D01*
X147266062Y-111227176D01*
X147123128Y-111227176D01*
X146932549Y-111179532D01*
X146837259Y-111131887D01*
X146741970Y-111036597D01*
X146694325Y-110893663D01*
X146694325Y-110798374D01*
X146741970Y-110655439D01*
X146789614Y-110607795D01*
X147694865Y-110178992D02*
X146694325Y-110178992D01*
X146694325Y-109940768D01*
X146741970Y-109797834D01*
X146837259Y-109702544D01*
X146932549Y-109654899D01*
X147123128Y-109607255D01*
X147266062Y-109607255D01*
X147456641Y-109654899D01*
X147551930Y-109702544D01*
X147647220Y-109797834D01*
X147694865Y-109940768D01*
X147694865Y-110178992D01*
X147599575Y-108606715D02*
X147647220Y-108654359D01*
X147694865Y-108797294D01*
X147694865Y-108892583D01*
X147647220Y-109035517D01*
X147551930Y-109130807D01*
X147456641Y-109178452D01*
X147266062Y-109226096D01*
X147123128Y-109226096D01*
X146932549Y-109178452D01*
X146837259Y-109130807D01*
X146741970Y-109035517D01*
X146694325Y-108892583D01*
X146694325Y-108797294D01*
X146741970Y-108654359D01*
X146789614Y-108606715D01*
X147694865Y-107701464D02*
X147694865Y-108177912D01*
X146694325Y-108177912D01*
X146694325Y-107510885D02*
X147694865Y-107177372D01*
X146694325Y-106843858D01*
X147599575Y-105938608D02*
X147647220Y-105986253D01*
X147694865Y-106129187D01*
X147694865Y-106224476D01*
X147647220Y-106367411D01*
X147551930Y-106462700D01*
X147456641Y-106510345D01*
X147266062Y-106557990D01*
X147123128Y-106557990D01*
X146932549Y-106510345D01*
X146837259Y-106462700D01*
X146741970Y-106367411D01*
X146694325Y-106224476D01*
X146694325Y-106129187D01*
X146741970Y-105986253D01*
X146789614Y-105938608D01*
X147694865Y-104985713D02*
X147694865Y-105557450D01*
X147694865Y-105271581D02*
X146694325Y-105271581D01*
X146837259Y-105366871D01*
X146932549Y-105462160D01*
X146980193Y-105557450D01*
X147694865Y-104032817D02*
X147694865Y-104604555D01*
X147694865Y-104318686D02*
X146694325Y-104318686D01*
X146837259Y-104413975D01*
X146932549Y-104509265D01*
X146980193Y-104604555D01*
X146694325Y-103413435D02*
X146694325Y-103318146D01*
X146741970Y-103222856D01*
X146789614Y-103175212D01*
X146884904Y-103127567D01*
X147075483Y-103079922D01*
X147313707Y-103079922D01*
X147504286Y-103127567D01*
X147599575Y-103175212D01*
X147647220Y-103222856D01*
X147694865Y-103318146D01*
X147694865Y-103413435D01*
X147647220Y-103508725D01*
X147599575Y-103556370D01*
X147504286Y-103604015D01*
X147313707Y-103651659D01*
X147075483Y-103651659D01*
X146884904Y-103604015D01*
X146789614Y-103556370D01*
X146741970Y-103508725D01*
X146694325Y-103413435D01*
X146789614Y-102698764D02*
X146741970Y-102651119D01*
X146694325Y-102555830D01*
X146694325Y-102317606D01*
X146741970Y-102222316D01*
X146789614Y-102174672D01*
X146884904Y-102127027D01*
X146980193Y-102127027D01*
X147123128Y-102174672D01*
X147694865Y-102746409D01*
X147694865Y-102127027D01*
X147694865Y-101698224D02*
X146694325Y-101698224D01*
X146694325Y-101317066D01*
X146741970Y-101221776D01*
X146789614Y-101174132D01*
X146884904Y-101126487D01*
X147027838Y-101126487D01*
X147123128Y-101174132D01*
X147170772Y-101221776D01*
X147218417Y-101317066D01*
X147218417Y-101698224D01*
X146694325Y-100792974D02*
X147694865Y-100554750D01*
X146980193Y-100364171D01*
X147694865Y-100173592D01*
X146694325Y-99935368D01*
X147694865Y-98982473D02*
X147218417Y-99315986D01*
X147694865Y-99554210D02*
X146694325Y-99554210D01*
X146694325Y-99173052D01*
X146741970Y-99077762D01*
X146789614Y-99030117D01*
X146884904Y-98982473D01*
X147027838Y-98982473D01*
X147123128Y-99030117D01*
X147170772Y-99077762D01*
X147218417Y-99173052D01*
X147218417Y-99554210D01*
D13*
X156551333Y-110180380D02*
X156075142Y-110180380D01*
X156075142Y-109180380D01*
X157408476Y-110180380D02*
X156837047Y-110180380D01*
X157122761Y-110180380D02*
X157122761Y-109180380D01*
X157027523Y-109323238D01*
X156932285Y-109418476D01*
X156837047Y-109466095D01*
X144954666Y-92924380D02*
X144954666Y-93638666D01*
X144907047Y-93781523D01*
X144811809Y-93876761D01*
X144668952Y-93924380D01*
X144573714Y-93924380D01*
X145383238Y-93019619D02*
X145430857Y-92972000D01*
X145526095Y-92924380D01*
X145764190Y-92924380D01*
X145859428Y-92972000D01*
X145907047Y-93019619D01*
X145954666Y-93114857D01*
X145954666Y-93210095D01*
X145907047Y-93352952D01*
X145335619Y-93924380D01*
X145954666Y-93924380D01*
X144954666Y-85812380D02*
X144954666Y-86526666D01*
X144907047Y-86669523D01*
X144811809Y-86764761D01*
X144668952Y-86812380D01*
X144573714Y-86812380D01*
X145954666Y-86812380D02*
X145383238Y-86812380D01*
X145668952Y-86812380D02*
X145668952Y-85812380D01*
X145573714Y-85955238D01*
X145478476Y-86050476D01*
X145383238Y-86098095D01*
M02*
