G04 #@! TF.GenerationSoftware,KiCad,Pcbnew,(5.1.4)-1*
G04 #@! TF.CreationDate,2019-09-17T16:39:36-04:00*
G04 #@! TF.ProjectId,led_lock_ctrl,6c65645f-6c6f-4636-9b5f-6374726c2e6b,rev?*
G04 #@! TF.SameCoordinates,Original*
G04 #@! TF.FileFunction,Soldermask,Top*
G04 #@! TF.FilePolarity,Negative*
%FSLAX46Y46*%
G04 Gerber Fmt 4.6, Leading zero omitted, Abs format (unit mm)*
G04 Created by KiCad (PCBNEW (5.1.4)-1) date 2019-09-17 16:39:36*
%MOMM*%
%LPD*%
G04 APERTURE LIST*
%ADD10C,0.100000*%
G04 APERTURE END LIST*
D10*
G36*
X172576443Y-115691519D02*
G01*
X172642627Y-115698037D01*
X172812466Y-115749557D01*
X172968991Y-115833222D01*
X173004729Y-115862552D01*
X173106186Y-115945814D01*
X173189448Y-116047271D01*
X173218778Y-116083009D01*
X173302443Y-116239534D01*
X173353963Y-116409373D01*
X173371359Y-116586000D01*
X173353963Y-116762627D01*
X173302443Y-116932466D01*
X173218778Y-117088991D01*
X173189448Y-117124729D01*
X173106186Y-117226186D01*
X173004729Y-117309448D01*
X172968991Y-117338778D01*
X172812466Y-117422443D01*
X172642627Y-117473963D01*
X172576442Y-117480482D01*
X172510260Y-117487000D01*
X172421740Y-117487000D01*
X172355558Y-117480482D01*
X172289373Y-117473963D01*
X172119534Y-117422443D01*
X171963009Y-117338778D01*
X171927271Y-117309448D01*
X171825814Y-117226186D01*
X171742552Y-117124729D01*
X171713222Y-117088991D01*
X171629557Y-116932466D01*
X171578037Y-116762627D01*
X171560641Y-116586000D01*
X171578037Y-116409373D01*
X171629557Y-116239534D01*
X171713222Y-116083009D01*
X171742552Y-116047271D01*
X171825814Y-115945814D01*
X171927271Y-115862552D01*
X171963009Y-115833222D01*
X172119534Y-115749557D01*
X172289373Y-115698037D01*
X172355557Y-115691519D01*
X172421740Y-115685000D01*
X172510260Y-115685000D01*
X172576443Y-115691519D01*
X172576443Y-115691519D01*
G37*
G36*
X175116443Y-115691519D02*
G01*
X175182627Y-115698037D01*
X175352466Y-115749557D01*
X175508991Y-115833222D01*
X175544729Y-115862552D01*
X175646186Y-115945814D01*
X175729448Y-116047271D01*
X175758778Y-116083009D01*
X175842443Y-116239534D01*
X175893963Y-116409373D01*
X175911359Y-116586000D01*
X175893963Y-116762627D01*
X175842443Y-116932466D01*
X175758778Y-117088991D01*
X175729448Y-117124729D01*
X175646186Y-117226186D01*
X175544729Y-117309448D01*
X175508991Y-117338778D01*
X175352466Y-117422443D01*
X175182627Y-117473963D01*
X175116442Y-117480482D01*
X175050260Y-117487000D01*
X174961740Y-117487000D01*
X174895558Y-117480482D01*
X174829373Y-117473963D01*
X174659534Y-117422443D01*
X174503009Y-117338778D01*
X174467271Y-117309448D01*
X174365814Y-117226186D01*
X174282552Y-117124729D01*
X174253222Y-117088991D01*
X174169557Y-116932466D01*
X174118037Y-116762627D01*
X174100641Y-116586000D01*
X174118037Y-116409373D01*
X174169557Y-116239534D01*
X174253222Y-116083009D01*
X174282552Y-116047271D01*
X174365814Y-115945814D01*
X174467271Y-115862552D01*
X174503009Y-115833222D01*
X174659534Y-115749557D01*
X174829373Y-115698037D01*
X174895557Y-115691519D01*
X174961740Y-115685000D01*
X175050260Y-115685000D01*
X175116443Y-115691519D01*
X175116443Y-115691519D01*
G37*
G36*
X177656443Y-115691519D02*
G01*
X177722627Y-115698037D01*
X177892466Y-115749557D01*
X178048991Y-115833222D01*
X178084729Y-115862552D01*
X178186186Y-115945814D01*
X178269448Y-116047271D01*
X178298778Y-116083009D01*
X178382443Y-116239534D01*
X178433963Y-116409373D01*
X178451359Y-116586000D01*
X178433963Y-116762627D01*
X178382443Y-116932466D01*
X178298778Y-117088991D01*
X178269448Y-117124729D01*
X178186186Y-117226186D01*
X178084729Y-117309448D01*
X178048991Y-117338778D01*
X177892466Y-117422443D01*
X177722627Y-117473963D01*
X177656442Y-117480482D01*
X177590260Y-117487000D01*
X177501740Y-117487000D01*
X177435558Y-117480482D01*
X177369373Y-117473963D01*
X177199534Y-117422443D01*
X177043009Y-117338778D01*
X177007271Y-117309448D01*
X176905814Y-117226186D01*
X176822552Y-117124729D01*
X176793222Y-117088991D01*
X176709557Y-116932466D01*
X176658037Y-116762627D01*
X176640641Y-116586000D01*
X176658037Y-116409373D01*
X176709557Y-116239534D01*
X176793222Y-116083009D01*
X176822552Y-116047271D01*
X176905814Y-115945814D01*
X177007271Y-115862552D01*
X177043009Y-115833222D01*
X177199534Y-115749557D01*
X177369373Y-115698037D01*
X177435557Y-115691519D01*
X177501740Y-115685000D01*
X177590260Y-115685000D01*
X177656443Y-115691519D01*
X177656443Y-115691519D01*
G37*
G36*
X180196443Y-115691519D02*
G01*
X180262627Y-115698037D01*
X180432466Y-115749557D01*
X180588991Y-115833222D01*
X180624729Y-115862552D01*
X180726186Y-115945814D01*
X180809448Y-116047271D01*
X180838778Y-116083009D01*
X180922443Y-116239534D01*
X180973963Y-116409373D01*
X180991359Y-116586000D01*
X180973963Y-116762627D01*
X180922443Y-116932466D01*
X180838778Y-117088991D01*
X180809448Y-117124729D01*
X180726186Y-117226186D01*
X180624729Y-117309448D01*
X180588991Y-117338778D01*
X180432466Y-117422443D01*
X180262627Y-117473963D01*
X180196442Y-117480482D01*
X180130260Y-117487000D01*
X180041740Y-117487000D01*
X179975558Y-117480482D01*
X179909373Y-117473963D01*
X179739534Y-117422443D01*
X179583009Y-117338778D01*
X179547271Y-117309448D01*
X179445814Y-117226186D01*
X179362552Y-117124729D01*
X179333222Y-117088991D01*
X179249557Y-116932466D01*
X179198037Y-116762627D01*
X179180641Y-116586000D01*
X179198037Y-116409373D01*
X179249557Y-116239534D01*
X179333222Y-116083009D01*
X179362552Y-116047271D01*
X179445814Y-115945814D01*
X179547271Y-115862552D01*
X179583009Y-115833222D01*
X179739534Y-115749557D01*
X179909373Y-115698037D01*
X179975557Y-115691519D01*
X180041740Y-115685000D01*
X180130260Y-115685000D01*
X180196443Y-115691519D01*
X180196443Y-115691519D01*
G37*
G36*
X182736443Y-115691519D02*
G01*
X182802627Y-115698037D01*
X182972466Y-115749557D01*
X183128991Y-115833222D01*
X183164729Y-115862552D01*
X183266186Y-115945814D01*
X183349448Y-116047271D01*
X183378778Y-116083009D01*
X183462443Y-116239534D01*
X183513963Y-116409373D01*
X183531359Y-116586000D01*
X183513963Y-116762627D01*
X183462443Y-116932466D01*
X183378778Y-117088991D01*
X183349448Y-117124729D01*
X183266186Y-117226186D01*
X183164729Y-117309448D01*
X183128991Y-117338778D01*
X182972466Y-117422443D01*
X182802627Y-117473963D01*
X182736442Y-117480482D01*
X182670260Y-117487000D01*
X182581740Y-117487000D01*
X182515558Y-117480482D01*
X182449373Y-117473963D01*
X182279534Y-117422443D01*
X182123009Y-117338778D01*
X182087271Y-117309448D01*
X181985814Y-117226186D01*
X181902552Y-117124729D01*
X181873222Y-117088991D01*
X181789557Y-116932466D01*
X181738037Y-116762627D01*
X181720641Y-116586000D01*
X181738037Y-116409373D01*
X181789557Y-116239534D01*
X181873222Y-116083009D01*
X181902552Y-116047271D01*
X181985814Y-115945814D01*
X182087271Y-115862552D01*
X182123009Y-115833222D01*
X182279534Y-115749557D01*
X182449373Y-115698037D01*
X182515557Y-115691519D01*
X182581740Y-115685000D01*
X182670260Y-115685000D01*
X182736443Y-115691519D01*
X182736443Y-115691519D01*
G37*
G36*
X185276443Y-115691519D02*
G01*
X185342627Y-115698037D01*
X185512466Y-115749557D01*
X185668991Y-115833222D01*
X185704729Y-115862552D01*
X185806186Y-115945814D01*
X185889448Y-116047271D01*
X185918778Y-116083009D01*
X186002443Y-116239534D01*
X186053963Y-116409373D01*
X186071359Y-116586000D01*
X186053963Y-116762627D01*
X186002443Y-116932466D01*
X185918778Y-117088991D01*
X185889448Y-117124729D01*
X185806186Y-117226186D01*
X185704729Y-117309448D01*
X185668991Y-117338778D01*
X185512466Y-117422443D01*
X185342627Y-117473963D01*
X185276442Y-117480482D01*
X185210260Y-117487000D01*
X185121740Y-117487000D01*
X185055558Y-117480482D01*
X184989373Y-117473963D01*
X184819534Y-117422443D01*
X184663009Y-117338778D01*
X184627271Y-117309448D01*
X184525814Y-117226186D01*
X184442552Y-117124729D01*
X184413222Y-117088991D01*
X184329557Y-116932466D01*
X184278037Y-116762627D01*
X184260641Y-116586000D01*
X184278037Y-116409373D01*
X184329557Y-116239534D01*
X184413222Y-116083009D01*
X184442552Y-116047271D01*
X184525814Y-115945814D01*
X184627271Y-115862552D01*
X184663009Y-115833222D01*
X184819534Y-115749557D01*
X184989373Y-115698037D01*
X185055557Y-115691519D01*
X185121740Y-115685000D01*
X185210260Y-115685000D01*
X185276443Y-115691519D01*
X185276443Y-115691519D01*
G37*
G36*
X187816443Y-115691519D02*
G01*
X187882627Y-115698037D01*
X188052466Y-115749557D01*
X188208991Y-115833222D01*
X188244729Y-115862552D01*
X188346186Y-115945814D01*
X188429448Y-116047271D01*
X188458778Y-116083009D01*
X188542443Y-116239534D01*
X188593963Y-116409373D01*
X188611359Y-116586000D01*
X188593963Y-116762627D01*
X188542443Y-116932466D01*
X188458778Y-117088991D01*
X188429448Y-117124729D01*
X188346186Y-117226186D01*
X188244729Y-117309448D01*
X188208991Y-117338778D01*
X188052466Y-117422443D01*
X187882627Y-117473963D01*
X187816442Y-117480482D01*
X187750260Y-117487000D01*
X187661740Y-117487000D01*
X187595558Y-117480482D01*
X187529373Y-117473963D01*
X187359534Y-117422443D01*
X187203009Y-117338778D01*
X187167271Y-117309448D01*
X187065814Y-117226186D01*
X186982552Y-117124729D01*
X186953222Y-117088991D01*
X186869557Y-116932466D01*
X186818037Y-116762627D01*
X186800641Y-116586000D01*
X186818037Y-116409373D01*
X186869557Y-116239534D01*
X186953222Y-116083009D01*
X186982552Y-116047271D01*
X187065814Y-115945814D01*
X187167271Y-115862552D01*
X187203009Y-115833222D01*
X187359534Y-115749557D01*
X187529373Y-115698037D01*
X187595557Y-115691519D01*
X187661740Y-115685000D01*
X187750260Y-115685000D01*
X187816443Y-115691519D01*
X187816443Y-115691519D01*
G37*
G36*
X193687000Y-117487000D02*
G01*
X191885000Y-117487000D01*
X191885000Y-115685000D01*
X193687000Y-115685000D01*
X193687000Y-117487000D01*
X193687000Y-117487000D01*
G37*
G36*
X190356443Y-115691519D02*
G01*
X190422627Y-115698037D01*
X190592466Y-115749557D01*
X190748991Y-115833222D01*
X190784729Y-115862552D01*
X190886186Y-115945814D01*
X190969448Y-116047271D01*
X190998778Y-116083009D01*
X191082443Y-116239534D01*
X191133963Y-116409373D01*
X191151359Y-116586000D01*
X191133963Y-116762627D01*
X191082443Y-116932466D01*
X190998778Y-117088991D01*
X190969448Y-117124729D01*
X190886186Y-117226186D01*
X190784729Y-117309448D01*
X190748991Y-117338778D01*
X190592466Y-117422443D01*
X190422627Y-117473963D01*
X190356442Y-117480482D01*
X190290260Y-117487000D01*
X190201740Y-117487000D01*
X190135558Y-117480482D01*
X190069373Y-117473963D01*
X189899534Y-117422443D01*
X189743009Y-117338778D01*
X189707271Y-117309448D01*
X189605814Y-117226186D01*
X189522552Y-117124729D01*
X189493222Y-117088991D01*
X189409557Y-116932466D01*
X189358037Y-116762627D01*
X189340641Y-116586000D01*
X189358037Y-116409373D01*
X189409557Y-116239534D01*
X189493222Y-116083009D01*
X189522552Y-116047271D01*
X189605814Y-115945814D01*
X189707271Y-115862552D01*
X189743009Y-115833222D01*
X189899534Y-115749557D01*
X190069373Y-115698037D01*
X190135557Y-115691519D01*
X190201740Y-115685000D01*
X190290260Y-115685000D01*
X190356443Y-115691519D01*
X190356443Y-115691519D01*
G37*
G36*
X167552823Y-111683313D02*
G01*
X167713242Y-111731976D01*
X167780361Y-111767852D01*
X167861078Y-111810996D01*
X167990659Y-111917341D01*
X168097004Y-112046922D01*
X168097005Y-112046924D01*
X168176024Y-112194758D01*
X168224687Y-112355177D01*
X168241117Y-112522000D01*
X168224687Y-112688823D01*
X168176024Y-112849242D01*
X168135477Y-112925100D01*
X168097004Y-112997078D01*
X167990659Y-113126659D01*
X167861078Y-113233004D01*
X167861076Y-113233005D01*
X167713242Y-113312024D01*
X167552823Y-113360687D01*
X167427804Y-113373000D01*
X167344196Y-113373000D01*
X167219177Y-113360687D01*
X167058758Y-113312024D01*
X166910924Y-113233005D01*
X166910922Y-113233004D01*
X166781341Y-113126659D01*
X166674996Y-112997078D01*
X166636523Y-112925100D01*
X166595976Y-112849242D01*
X166547313Y-112688823D01*
X166530883Y-112522000D01*
X166547313Y-112355177D01*
X166595976Y-112194758D01*
X166674995Y-112046924D01*
X166674996Y-112046922D01*
X166781341Y-111917341D01*
X166910922Y-111810996D01*
X166991639Y-111767852D01*
X167058758Y-111731976D01*
X167219177Y-111683313D01*
X167344196Y-111671000D01*
X167427804Y-111671000D01*
X167552823Y-111683313D01*
X167552823Y-111683313D01*
G37*
G36*
X175254228Y-111703703D02*
G01*
X175409100Y-111767853D01*
X175548481Y-111860985D01*
X175667015Y-111979519D01*
X175760147Y-112118900D01*
X175824297Y-112273772D01*
X175857000Y-112438184D01*
X175857000Y-112605816D01*
X175824297Y-112770228D01*
X175760147Y-112925100D01*
X175667015Y-113064481D01*
X175548481Y-113183015D01*
X175409100Y-113276147D01*
X175254228Y-113340297D01*
X175089816Y-113373000D01*
X174922184Y-113373000D01*
X174757772Y-113340297D01*
X174602900Y-113276147D01*
X174463519Y-113183015D01*
X174344985Y-113064481D01*
X174251853Y-112925100D01*
X174187703Y-112770228D01*
X174155000Y-112605816D01*
X174155000Y-112438184D01*
X174187703Y-112273772D01*
X174251853Y-112118900D01*
X174344985Y-111979519D01*
X174463519Y-111860985D01*
X174602900Y-111767853D01*
X174757772Y-111703703D01*
X174922184Y-111671000D01*
X175089816Y-111671000D01*
X175254228Y-111703703D01*
X175254228Y-111703703D01*
G37*
G36*
X187954228Y-111703703D02*
G01*
X188109100Y-111767853D01*
X188248481Y-111860985D01*
X188367015Y-111979519D01*
X188460147Y-112118900D01*
X188524297Y-112273772D01*
X188557000Y-112438184D01*
X188557000Y-112605816D01*
X188524297Y-112770228D01*
X188460147Y-112925100D01*
X188367015Y-113064481D01*
X188248481Y-113183015D01*
X188109100Y-113276147D01*
X187954228Y-113340297D01*
X187789816Y-113373000D01*
X187622184Y-113373000D01*
X187457772Y-113340297D01*
X187302900Y-113276147D01*
X187163519Y-113183015D01*
X187044985Y-113064481D01*
X186951853Y-112925100D01*
X186887703Y-112770228D01*
X186855000Y-112605816D01*
X186855000Y-112438184D01*
X186887703Y-112273772D01*
X186951853Y-112118900D01*
X187044985Y-111979519D01*
X187163519Y-111860985D01*
X187302900Y-111767853D01*
X187457772Y-111703703D01*
X187622184Y-111671000D01*
X187789816Y-111671000D01*
X187954228Y-111703703D01*
X187954228Y-111703703D01*
G37*
G36*
X195492823Y-111683313D02*
G01*
X195653242Y-111731976D01*
X195720361Y-111767852D01*
X195801078Y-111810996D01*
X195930659Y-111917341D01*
X196037004Y-112046922D01*
X196037005Y-112046924D01*
X196116024Y-112194758D01*
X196164687Y-112355177D01*
X196181117Y-112522000D01*
X196164687Y-112688823D01*
X196116024Y-112849242D01*
X196075477Y-112925100D01*
X196037004Y-112997078D01*
X195930659Y-113126659D01*
X195801078Y-113233004D01*
X195801076Y-113233005D01*
X195653242Y-113312024D01*
X195492823Y-113360687D01*
X195367804Y-113373000D01*
X195284196Y-113373000D01*
X195159177Y-113360687D01*
X194998758Y-113312024D01*
X194850924Y-113233005D01*
X194850922Y-113233004D01*
X194721341Y-113126659D01*
X194614996Y-112997078D01*
X194576523Y-112925100D01*
X194535976Y-112849242D01*
X194487313Y-112688823D01*
X194470883Y-112522000D01*
X194487313Y-112355177D01*
X194535976Y-112194758D01*
X194614995Y-112046924D01*
X194614996Y-112046922D01*
X194721341Y-111917341D01*
X194850922Y-111810996D01*
X194931639Y-111767852D01*
X194998758Y-111731976D01*
X195159177Y-111683313D01*
X195284196Y-111671000D01*
X195367804Y-111671000D01*
X195492823Y-111683313D01*
X195492823Y-111683313D01*
G37*
G36*
X185332823Y-108127313D02*
G01*
X185493242Y-108175976D01*
X185625906Y-108246886D01*
X185641078Y-108254996D01*
X185770659Y-108361341D01*
X185877004Y-108490922D01*
X185877005Y-108490924D01*
X185956024Y-108638758D01*
X186004687Y-108799177D01*
X186021117Y-108966000D01*
X186004687Y-109132823D01*
X185956024Y-109293242D01*
X185885114Y-109425906D01*
X185877004Y-109441078D01*
X185770659Y-109570659D01*
X185641078Y-109677004D01*
X185641076Y-109677005D01*
X185493242Y-109756024D01*
X185332823Y-109804687D01*
X185207804Y-109817000D01*
X185124196Y-109817000D01*
X184999177Y-109804687D01*
X184838758Y-109756024D01*
X184690924Y-109677005D01*
X184690922Y-109677004D01*
X184561341Y-109570659D01*
X184454996Y-109441078D01*
X184446886Y-109425906D01*
X184375976Y-109293242D01*
X184327313Y-109132823D01*
X184310883Y-108966000D01*
X184327313Y-108799177D01*
X184375976Y-108638758D01*
X184454995Y-108490924D01*
X184454996Y-108490922D01*
X184561341Y-108361341D01*
X184690922Y-108254996D01*
X184706094Y-108246886D01*
X184838758Y-108175976D01*
X184999177Y-108127313D01*
X185124196Y-108115000D01*
X185207804Y-108115000D01*
X185332823Y-108127313D01*
X185332823Y-108127313D01*
G37*
G36*
X172632823Y-108127313D02*
G01*
X172793242Y-108175976D01*
X172925906Y-108246886D01*
X172941078Y-108254996D01*
X173070659Y-108361341D01*
X173177004Y-108490922D01*
X173177005Y-108490924D01*
X173256024Y-108638758D01*
X173304687Y-108799177D01*
X173321117Y-108966000D01*
X173304687Y-109132823D01*
X173256024Y-109293242D01*
X173185114Y-109425906D01*
X173177004Y-109441078D01*
X173070659Y-109570659D01*
X172941078Y-109677004D01*
X172941076Y-109677005D01*
X172793242Y-109756024D01*
X172632823Y-109804687D01*
X172507804Y-109817000D01*
X172424196Y-109817000D01*
X172299177Y-109804687D01*
X172138758Y-109756024D01*
X171990924Y-109677005D01*
X171990922Y-109677004D01*
X171861341Y-109570659D01*
X171754996Y-109441078D01*
X171746886Y-109425906D01*
X171675976Y-109293242D01*
X171627313Y-109132823D01*
X171610883Y-108966000D01*
X171627313Y-108799177D01*
X171675976Y-108638758D01*
X171754995Y-108490924D01*
X171754996Y-108490922D01*
X171861341Y-108361341D01*
X171990922Y-108254996D01*
X172006094Y-108246886D01*
X172138758Y-108175976D01*
X172299177Y-108127313D01*
X172424196Y-108115000D01*
X172507804Y-108115000D01*
X172632823Y-108127313D01*
X172632823Y-108127313D01*
G37*
G36*
X175172823Y-108127313D02*
G01*
X175333242Y-108175976D01*
X175465906Y-108246886D01*
X175481078Y-108254996D01*
X175610659Y-108361341D01*
X175717004Y-108490922D01*
X175717005Y-108490924D01*
X175796024Y-108638758D01*
X175844687Y-108799177D01*
X175861117Y-108966000D01*
X175844687Y-109132823D01*
X175796024Y-109293242D01*
X175725114Y-109425906D01*
X175717004Y-109441078D01*
X175610659Y-109570659D01*
X175481078Y-109677004D01*
X175481076Y-109677005D01*
X175333242Y-109756024D01*
X175172823Y-109804687D01*
X175047804Y-109817000D01*
X174964196Y-109817000D01*
X174839177Y-109804687D01*
X174678758Y-109756024D01*
X174530924Y-109677005D01*
X174530922Y-109677004D01*
X174401341Y-109570659D01*
X174294996Y-109441078D01*
X174286886Y-109425906D01*
X174215976Y-109293242D01*
X174167313Y-109132823D01*
X174150883Y-108966000D01*
X174167313Y-108799177D01*
X174215976Y-108638758D01*
X174294995Y-108490924D01*
X174294996Y-108490922D01*
X174401341Y-108361341D01*
X174530922Y-108254996D01*
X174546094Y-108246886D01*
X174678758Y-108175976D01*
X174839177Y-108127313D01*
X174964196Y-108115000D01*
X175047804Y-108115000D01*
X175172823Y-108127313D01*
X175172823Y-108127313D01*
G37*
G36*
X177712823Y-108127313D02*
G01*
X177873242Y-108175976D01*
X178005906Y-108246886D01*
X178021078Y-108254996D01*
X178150659Y-108361341D01*
X178257004Y-108490922D01*
X178257005Y-108490924D01*
X178336024Y-108638758D01*
X178384687Y-108799177D01*
X178401117Y-108966000D01*
X178384687Y-109132823D01*
X178336024Y-109293242D01*
X178265114Y-109425906D01*
X178257004Y-109441078D01*
X178150659Y-109570659D01*
X178021078Y-109677004D01*
X178021076Y-109677005D01*
X177873242Y-109756024D01*
X177712823Y-109804687D01*
X177587804Y-109817000D01*
X177504196Y-109817000D01*
X177379177Y-109804687D01*
X177218758Y-109756024D01*
X177070924Y-109677005D01*
X177070922Y-109677004D01*
X176941341Y-109570659D01*
X176834996Y-109441078D01*
X176826886Y-109425906D01*
X176755976Y-109293242D01*
X176707313Y-109132823D01*
X176690883Y-108966000D01*
X176707313Y-108799177D01*
X176755976Y-108638758D01*
X176834995Y-108490924D01*
X176834996Y-108490922D01*
X176941341Y-108361341D01*
X177070922Y-108254996D01*
X177086094Y-108246886D01*
X177218758Y-108175976D01*
X177379177Y-108127313D01*
X177504196Y-108115000D01*
X177587804Y-108115000D01*
X177712823Y-108127313D01*
X177712823Y-108127313D01*
G37*
G36*
X180252823Y-108127313D02*
G01*
X180413242Y-108175976D01*
X180545906Y-108246886D01*
X180561078Y-108254996D01*
X180690659Y-108361341D01*
X180797004Y-108490922D01*
X180797005Y-108490924D01*
X180876024Y-108638758D01*
X180924687Y-108799177D01*
X180941117Y-108966000D01*
X180924687Y-109132823D01*
X180876024Y-109293242D01*
X180805114Y-109425906D01*
X180797004Y-109441078D01*
X180690659Y-109570659D01*
X180561078Y-109677004D01*
X180561076Y-109677005D01*
X180413242Y-109756024D01*
X180252823Y-109804687D01*
X180127804Y-109817000D01*
X180044196Y-109817000D01*
X179919177Y-109804687D01*
X179758758Y-109756024D01*
X179610924Y-109677005D01*
X179610922Y-109677004D01*
X179481341Y-109570659D01*
X179374996Y-109441078D01*
X179366886Y-109425906D01*
X179295976Y-109293242D01*
X179247313Y-109132823D01*
X179230883Y-108966000D01*
X179247313Y-108799177D01*
X179295976Y-108638758D01*
X179374995Y-108490924D01*
X179374996Y-108490922D01*
X179481341Y-108361341D01*
X179610922Y-108254996D01*
X179626094Y-108246886D01*
X179758758Y-108175976D01*
X179919177Y-108127313D01*
X180044196Y-108115000D01*
X180127804Y-108115000D01*
X180252823Y-108127313D01*
X180252823Y-108127313D01*
G37*
G36*
X170777000Y-109817000D02*
G01*
X169075000Y-109817000D01*
X169075000Y-108115000D01*
X170777000Y-108115000D01*
X170777000Y-109817000D01*
X170777000Y-109817000D01*
G37*
G36*
X166282823Y-108127313D02*
G01*
X166443242Y-108175976D01*
X166575906Y-108246886D01*
X166591078Y-108254996D01*
X166720659Y-108361341D01*
X166827004Y-108490922D01*
X166827005Y-108490924D01*
X166906024Y-108638758D01*
X166954687Y-108799177D01*
X166971117Y-108966000D01*
X166954687Y-109132823D01*
X166906024Y-109293242D01*
X166835114Y-109425906D01*
X166827004Y-109441078D01*
X166720659Y-109570659D01*
X166591078Y-109677004D01*
X166591076Y-109677005D01*
X166443242Y-109756024D01*
X166282823Y-109804687D01*
X166157804Y-109817000D01*
X166074196Y-109817000D01*
X165949177Y-109804687D01*
X165788758Y-109756024D01*
X165640924Y-109677005D01*
X165640922Y-109677004D01*
X165511341Y-109570659D01*
X165404996Y-109441078D01*
X165396886Y-109425906D01*
X165325976Y-109293242D01*
X165277313Y-109132823D01*
X165260883Y-108966000D01*
X165277313Y-108799177D01*
X165325976Y-108638758D01*
X165404995Y-108490924D01*
X165404996Y-108490922D01*
X165511341Y-108361341D01*
X165640922Y-108254996D01*
X165656094Y-108246886D01*
X165788758Y-108175976D01*
X165949177Y-108127313D01*
X166074196Y-108115000D01*
X166157804Y-108115000D01*
X166282823Y-108127313D01*
X166282823Y-108127313D01*
G37*
G36*
X196762823Y-108127313D02*
G01*
X196923242Y-108175976D01*
X197055906Y-108246886D01*
X197071078Y-108254996D01*
X197200659Y-108361341D01*
X197307004Y-108490922D01*
X197307005Y-108490924D01*
X197386024Y-108638758D01*
X197434687Y-108799177D01*
X197451117Y-108966000D01*
X197434687Y-109132823D01*
X197386024Y-109293242D01*
X197315114Y-109425906D01*
X197307004Y-109441078D01*
X197200659Y-109570659D01*
X197071078Y-109677004D01*
X197071076Y-109677005D01*
X196923242Y-109756024D01*
X196762823Y-109804687D01*
X196637804Y-109817000D01*
X196554196Y-109817000D01*
X196429177Y-109804687D01*
X196268758Y-109756024D01*
X196120924Y-109677005D01*
X196120922Y-109677004D01*
X195991341Y-109570659D01*
X195884996Y-109441078D01*
X195876886Y-109425906D01*
X195805976Y-109293242D01*
X195757313Y-109132823D01*
X195740883Y-108966000D01*
X195757313Y-108799177D01*
X195805976Y-108638758D01*
X195884995Y-108490924D01*
X195884996Y-108490922D01*
X195991341Y-108361341D01*
X196120922Y-108254996D01*
X196136094Y-108246886D01*
X196268758Y-108175976D01*
X196429177Y-108127313D01*
X196554196Y-108115000D01*
X196637804Y-108115000D01*
X196762823Y-108127313D01*
X196762823Y-108127313D01*
G37*
G36*
X190412823Y-108127313D02*
G01*
X190573242Y-108175976D01*
X190705906Y-108246886D01*
X190721078Y-108254996D01*
X190850659Y-108361341D01*
X190957004Y-108490922D01*
X190957005Y-108490924D01*
X191036024Y-108638758D01*
X191084687Y-108799177D01*
X191101117Y-108966000D01*
X191084687Y-109132823D01*
X191036024Y-109293242D01*
X190965114Y-109425906D01*
X190957004Y-109441078D01*
X190850659Y-109570659D01*
X190721078Y-109677004D01*
X190721076Y-109677005D01*
X190573242Y-109756024D01*
X190412823Y-109804687D01*
X190287804Y-109817000D01*
X190204196Y-109817000D01*
X190079177Y-109804687D01*
X189918758Y-109756024D01*
X189770924Y-109677005D01*
X189770922Y-109677004D01*
X189641341Y-109570659D01*
X189534996Y-109441078D01*
X189526886Y-109425906D01*
X189455976Y-109293242D01*
X189407313Y-109132823D01*
X189390883Y-108966000D01*
X189407313Y-108799177D01*
X189455976Y-108638758D01*
X189534995Y-108490924D01*
X189534996Y-108490922D01*
X189641341Y-108361341D01*
X189770922Y-108254996D01*
X189786094Y-108246886D01*
X189918758Y-108175976D01*
X190079177Y-108127313D01*
X190204196Y-108115000D01*
X190287804Y-108115000D01*
X190412823Y-108127313D01*
X190412823Y-108127313D01*
G37*
G36*
X187872823Y-108127313D02*
G01*
X188033242Y-108175976D01*
X188165906Y-108246886D01*
X188181078Y-108254996D01*
X188310659Y-108361341D01*
X188417004Y-108490922D01*
X188417005Y-108490924D01*
X188496024Y-108638758D01*
X188544687Y-108799177D01*
X188561117Y-108966000D01*
X188544687Y-109132823D01*
X188496024Y-109293242D01*
X188425114Y-109425906D01*
X188417004Y-109441078D01*
X188310659Y-109570659D01*
X188181078Y-109677004D01*
X188181076Y-109677005D01*
X188033242Y-109756024D01*
X187872823Y-109804687D01*
X187747804Y-109817000D01*
X187664196Y-109817000D01*
X187539177Y-109804687D01*
X187378758Y-109756024D01*
X187230924Y-109677005D01*
X187230922Y-109677004D01*
X187101341Y-109570659D01*
X186994996Y-109441078D01*
X186986886Y-109425906D01*
X186915976Y-109293242D01*
X186867313Y-109132823D01*
X186850883Y-108966000D01*
X186867313Y-108799177D01*
X186915976Y-108638758D01*
X186994995Y-108490924D01*
X186994996Y-108490922D01*
X187101341Y-108361341D01*
X187230922Y-108254996D01*
X187246094Y-108246886D01*
X187378758Y-108175976D01*
X187539177Y-108127313D01*
X187664196Y-108115000D01*
X187747804Y-108115000D01*
X187872823Y-108127313D01*
X187872823Y-108127313D01*
G37*
G36*
X182792823Y-108127313D02*
G01*
X182953242Y-108175976D01*
X183085906Y-108246886D01*
X183101078Y-108254996D01*
X183230659Y-108361341D01*
X183337004Y-108490922D01*
X183337005Y-108490924D01*
X183416024Y-108638758D01*
X183464687Y-108799177D01*
X183481117Y-108966000D01*
X183464687Y-109132823D01*
X183416024Y-109293242D01*
X183345114Y-109425906D01*
X183337004Y-109441078D01*
X183230659Y-109570659D01*
X183101078Y-109677004D01*
X183101076Y-109677005D01*
X182953242Y-109756024D01*
X182792823Y-109804687D01*
X182667804Y-109817000D01*
X182584196Y-109817000D01*
X182459177Y-109804687D01*
X182298758Y-109756024D01*
X182150924Y-109677005D01*
X182150922Y-109677004D01*
X182021341Y-109570659D01*
X181914996Y-109441078D01*
X181906886Y-109425906D01*
X181835976Y-109293242D01*
X181787313Y-109132823D01*
X181770883Y-108966000D01*
X181787313Y-108799177D01*
X181835976Y-108638758D01*
X181914995Y-108490924D01*
X181914996Y-108490922D01*
X182021341Y-108361341D01*
X182150922Y-108254996D01*
X182166094Y-108246886D01*
X182298758Y-108175976D01*
X182459177Y-108127313D01*
X182584196Y-108115000D01*
X182667804Y-108115000D01*
X182792823Y-108127313D01*
X182792823Y-108127313D01*
G37*
G36*
X192952823Y-108127313D02*
G01*
X193113242Y-108175976D01*
X193245906Y-108246886D01*
X193261078Y-108254996D01*
X193390659Y-108361341D01*
X193497004Y-108490922D01*
X193497005Y-108490924D01*
X193576024Y-108638758D01*
X193624687Y-108799177D01*
X193641117Y-108966000D01*
X193624687Y-109132823D01*
X193576024Y-109293242D01*
X193505114Y-109425906D01*
X193497004Y-109441078D01*
X193390659Y-109570659D01*
X193261078Y-109677004D01*
X193261076Y-109677005D01*
X193113242Y-109756024D01*
X192952823Y-109804687D01*
X192827804Y-109817000D01*
X192744196Y-109817000D01*
X192619177Y-109804687D01*
X192458758Y-109756024D01*
X192310924Y-109677005D01*
X192310922Y-109677004D01*
X192181341Y-109570659D01*
X192074996Y-109441078D01*
X192066886Y-109425906D01*
X191995976Y-109293242D01*
X191947313Y-109132823D01*
X191930883Y-108966000D01*
X191947313Y-108799177D01*
X191995976Y-108638758D01*
X192074995Y-108490924D01*
X192074996Y-108490922D01*
X192181341Y-108361341D01*
X192310922Y-108254996D01*
X192326094Y-108246886D01*
X192458758Y-108175976D01*
X192619177Y-108127313D01*
X192744196Y-108115000D01*
X192827804Y-108115000D01*
X192952823Y-108127313D01*
X192952823Y-108127313D01*
G37*
G36*
X182792823Y-100507313D02*
G01*
X182953242Y-100555976D01*
X183020361Y-100591852D01*
X183101078Y-100634996D01*
X183230659Y-100741341D01*
X183337004Y-100870922D01*
X183337005Y-100870924D01*
X183416024Y-101018758D01*
X183464687Y-101179177D01*
X183481117Y-101346000D01*
X183464687Y-101512823D01*
X183416024Y-101673242D01*
X183375477Y-101749100D01*
X183337004Y-101821078D01*
X183230659Y-101950659D01*
X183101078Y-102057004D01*
X183101076Y-102057005D01*
X182953242Y-102136024D01*
X182792823Y-102184687D01*
X182667804Y-102197000D01*
X182584196Y-102197000D01*
X182459177Y-102184687D01*
X182298758Y-102136024D01*
X182150924Y-102057005D01*
X182150922Y-102057004D01*
X182021341Y-101950659D01*
X181914996Y-101821078D01*
X181876523Y-101749100D01*
X181835976Y-101673242D01*
X181787313Y-101512823D01*
X181770883Y-101346000D01*
X181787313Y-101179177D01*
X181835976Y-101018758D01*
X181914995Y-100870924D01*
X181914996Y-100870922D01*
X182021341Y-100741341D01*
X182150922Y-100634996D01*
X182231639Y-100591852D01*
X182298758Y-100555976D01*
X182459177Y-100507313D01*
X182584196Y-100495000D01*
X182667804Y-100495000D01*
X182792823Y-100507313D01*
X182792823Y-100507313D01*
G37*
G36*
X166364228Y-100527703D02*
G01*
X166519100Y-100591853D01*
X166658481Y-100684985D01*
X166777015Y-100803519D01*
X166870147Y-100942900D01*
X166934297Y-101097772D01*
X166967000Y-101262184D01*
X166967000Y-101429816D01*
X166934297Y-101594228D01*
X166870147Y-101749100D01*
X166777015Y-101888481D01*
X166658481Y-102007015D01*
X166519100Y-102100147D01*
X166364228Y-102164297D01*
X166199816Y-102197000D01*
X166032184Y-102197000D01*
X165867772Y-102164297D01*
X165712900Y-102100147D01*
X165573519Y-102007015D01*
X165454985Y-101888481D01*
X165361853Y-101749100D01*
X165297703Y-101594228D01*
X165265000Y-101429816D01*
X165265000Y-101262184D01*
X165297703Y-101097772D01*
X165361853Y-100942900D01*
X165454985Y-100803519D01*
X165573519Y-100684985D01*
X165712900Y-100591853D01*
X165867772Y-100527703D01*
X166032184Y-100495000D01*
X166199816Y-100495000D01*
X166364228Y-100527703D01*
X166364228Y-100527703D01*
G37*
G36*
X170092823Y-100507313D02*
G01*
X170253242Y-100555976D01*
X170320361Y-100591852D01*
X170401078Y-100634996D01*
X170530659Y-100741341D01*
X170637004Y-100870922D01*
X170637005Y-100870924D01*
X170716024Y-101018758D01*
X170764687Y-101179177D01*
X170781117Y-101346000D01*
X170764687Y-101512823D01*
X170716024Y-101673242D01*
X170675477Y-101749100D01*
X170637004Y-101821078D01*
X170530659Y-101950659D01*
X170401078Y-102057004D01*
X170401076Y-102057005D01*
X170253242Y-102136024D01*
X170092823Y-102184687D01*
X169967804Y-102197000D01*
X169884196Y-102197000D01*
X169759177Y-102184687D01*
X169598758Y-102136024D01*
X169450924Y-102057005D01*
X169450922Y-102057004D01*
X169321341Y-101950659D01*
X169214996Y-101821078D01*
X169176523Y-101749100D01*
X169135976Y-101673242D01*
X169087313Y-101512823D01*
X169070883Y-101346000D01*
X169087313Y-101179177D01*
X169135976Y-101018758D01*
X169214995Y-100870924D01*
X169214996Y-100870922D01*
X169321341Y-100741341D01*
X169450922Y-100634996D01*
X169531639Y-100591852D01*
X169598758Y-100555976D01*
X169759177Y-100507313D01*
X169884196Y-100495000D01*
X169967804Y-100495000D01*
X170092823Y-100507313D01*
X170092823Y-100507313D01*
G37*
G36*
X172632823Y-100507313D02*
G01*
X172793242Y-100555976D01*
X172860361Y-100591852D01*
X172941078Y-100634996D01*
X173070659Y-100741341D01*
X173177004Y-100870922D01*
X173177005Y-100870924D01*
X173256024Y-101018758D01*
X173304687Y-101179177D01*
X173321117Y-101346000D01*
X173304687Y-101512823D01*
X173256024Y-101673242D01*
X173215477Y-101749100D01*
X173177004Y-101821078D01*
X173070659Y-101950659D01*
X172941078Y-102057004D01*
X172941076Y-102057005D01*
X172793242Y-102136024D01*
X172632823Y-102184687D01*
X172507804Y-102197000D01*
X172424196Y-102197000D01*
X172299177Y-102184687D01*
X172138758Y-102136024D01*
X171990924Y-102057005D01*
X171990922Y-102057004D01*
X171861341Y-101950659D01*
X171754996Y-101821078D01*
X171716523Y-101749100D01*
X171675976Y-101673242D01*
X171627313Y-101512823D01*
X171610883Y-101346000D01*
X171627313Y-101179177D01*
X171675976Y-101018758D01*
X171754995Y-100870924D01*
X171754996Y-100870922D01*
X171861341Y-100741341D01*
X171990922Y-100634996D01*
X172071639Y-100591852D01*
X172138758Y-100555976D01*
X172299177Y-100507313D01*
X172424196Y-100495000D01*
X172507804Y-100495000D01*
X172632823Y-100507313D01*
X172632823Y-100507313D01*
G37*
G36*
X175172823Y-100507313D02*
G01*
X175333242Y-100555976D01*
X175400361Y-100591852D01*
X175481078Y-100634996D01*
X175610659Y-100741341D01*
X175717004Y-100870922D01*
X175717005Y-100870924D01*
X175796024Y-101018758D01*
X175844687Y-101179177D01*
X175861117Y-101346000D01*
X175844687Y-101512823D01*
X175796024Y-101673242D01*
X175755477Y-101749100D01*
X175717004Y-101821078D01*
X175610659Y-101950659D01*
X175481078Y-102057004D01*
X175481076Y-102057005D01*
X175333242Y-102136024D01*
X175172823Y-102184687D01*
X175047804Y-102197000D01*
X174964196Y-102197000D01*
X174839177Y-102184687D01*
X174678758Y-102136024D01*
X174530924Y-102057005D01*
X174530922Y-102057004D01*
X174401341Y-101950659D01*
X174294996Y-101821078D01*
X174256523Y-101749100D01*
X174215976Y-101673242D01*
X174167313Y-101512823D01*
X174150883Y-101346000D01*
X174167313Y-101179177D01*
X174215976Y-101018758D01*
X174294995Y-100870924D01*
X174294996Y-100870922D01*
X174401341Y-100741341D01*
X174530922Y-100634996D01*
X174611639Y-100591852D01*
X174678758Y-100555976D01*
X174839177Y-100507313D01*
X174964196Y-100495000D01*
X175047804Y-100495000D01*
X175172823Y-100507313D01*
X175172823Y-100507313D01*
G37*
G36*
X192952823Y-100507313D02*
G01*
X193113242Y-100555976D01*
X193180361Y-100591852D01*
X193261078Y-100634996D01*
X193390659Y-100741341D01*
X193497004Y-100870922D01*
X193497005Y-100870924D01*
X193576024Y-101018758D01*
X193624687Y-101179177D01*
X193641117Y-101346000D01*
X193624687Y-101512823D01*
X193576024Y-101673242D01*
X193535477Y-101749100D01*
X193497004Y-101821078D01*
X193390659Y-101950659D01*
X193261078Y-102057004D01*
X193261076Y-102057005D01*
X193113242Y-102136024D01*
X192952823Y-102184687D01*
X192827804Y-102197000D01*
X192744196Y-102197000D01*
X192619177Y-102184687D01*
X192458758Y-102136024D01*
X192310924Y-102057005D01*
X192310922Y-102057004D01*
X192181341Y-101950659D01*
X192074996Y-101821078D01*
X192036523Y-101749100D01*
X191995976Y-101673242D01*
X191947313Y-101512823D01*
X191930883Y-101346000D01*
X191947313Y-101179177D01*
X191995976Y-101018758D01*
X192074995Y-100870924D01*
X192074996Y-100870922D01*
X192181341Y-100741341D01*
X192310922Y-100634996D01*
X192391639Y-100591852D01*
X192458758Y-100555976D01*
X192619177Y-100507313D01*
X192744196Y-100495000D01*
X192827804Y-100495000D01*
X192952823Y-100507313D01*
X192952823Y-100507313D01*
G37*
G36*
X187872823Y-100507313D02*
G01*
X188033242Y-100555976D01*
X188100361Y-100591852D01*
X188181078Y-100634996D01*
X188310659Y-100741341D01*
X188417004Y-100870922D01*
X188417005Y-100870924D01*
X188496024Y-101018758D01*
X188544687Y-101179177D01*
X188561117Y-101346000D01*
X188544687Y-101512823D01*
X188496024Y-101673242D01*
X188455477Y-101749100D01*
X188417004Y-101821078D01*
X188310659Y-101950659D01*
X188181078Y-102057004D01*
X188181076Y-102057005D01*
X188033242Y-102136024D01*
X187872823Y-102184687D01*
X187747804Y-102197000D01*
X187664196Y-102197000D01*
X187539177Y-102184687D01*
X187378758Y-102136024D01*
X187230924Y-102057005D01*
X187230922Y-102057004D01*
X187101341Y-101950659D01*
X186994996Y-101821078D01*
X186956523Y-101749100D01*
X186915976Y-101673242D01*
X186867313Y-101512823D01*
X186850883Y-101346000D01*
X186867313Y-101179177D01*
X186915976Y-101018758D01*
X186994995Y-100870924D01*
X186994996Y-100870922D01*
X187101341Y-100741341D01*
X187230922Y-100634996D01*
X187311639Y-100591852D01*
X187378758Y-100555976D01*
X187539177Y-100507313D01*
X187664196Y-100495000D01*
X187747804Y-100495000D01*
X187872823Y-100507313D01*
X187872823Y-100507313D01*
G37*
G36*
X185332823Y-100507313D02*
G01*
X185493242Y-100555976D01*
X185560361Y-100591852D01*
X185641078Y-100634996D01*
X185770659Y-100741341D01*
X185877004Y-100870922D01*
X185877005Y-100870924D01*
X185956024Y-101018758D01*
X186004687Y-101179177D01*
X186021117Y-101346000D01*
X186004687Y-101512823D01*
X185956024Y-101673242D01*
X185915477Y-101749100D01*
X185877004Y-101821078D01*
X185770659Y-101950659D01*
X185641078Y-102057004D01*
X185641076Y-102057005D01*
X185493242Y-102136024D01*
X185332823Y-102184687D01*
X185207804Y-102197000D01*
X185124196Y-102197000D01*
X184999177Y-102184687D01*
X184838758Y-102136024D01*
X184690924Y-102057005D01*
X184690922Y-102057004D01*
X184561341Y-101950659D01*
X184454996Y-101821078D01*
X184416523Y-101749100D01*
X184375976Y-101673242D01*
X184327313Y-101512823D01*
X184310883Y-101346000D01*
X184327313Y-101179177D01*
X184375976Y-101018758D01*
X184454995Y-100870924D01*
X184454996Y-100870922D01*
X184561341Y-100741341D01*
X184690922Y-100634996D01*
X184771639Y-100591852D01*
X184838758Y-100555976D01*
X184999177Y-100507313D01*
X185124196Y-100495000D01*
X185207804Y-100495000D01*
X185332823Y-100507313D01*
X185332823Y-100507313D01*
G37*
G36*
X180252823Y-100507313D02*
G01*
X180413242Y-100555976D01*
X180480361Y-100591852D01*
X180561078Y-100634996D01*
X180690659Y-100741341D01*
X180797004Y-100870922D01*
X180797005Y-100870924D01*
X180876024Y-101018758D01*
X180924687Y-101179177D01*
X180941117Y-101346000D01*
X180924687Y-101512823D01*
X180876024Y-101673242D01*
X180835477Y-101749100D01*
X180797004Y-101821078D01*
X180690659Y-101950659D01*
X180561078Y-102057004D01*
X180561076Y-102057005D01*
X180413242Y-102136024D01*
X180252823Y-102184687D01*
X180127804Y-102197000D01*
X180044196Y-102197000D01*
X179919177Y-102184687D01*
X179758758Y-102136024D01*
X179610924Y-102057005D01*
X179610922Y-102057004D01*
X179481341Y-101950659D01*
X179374996Y-101821078D01*
X179336523Y-101749100D01*
X179295976Y-101673242D01*
X179247313Y-101512823D01*
X179230883Y-101346000D01*
X179247313Y-101179177D01*
X179295976Y-101018758D01*
X179374995Y-100870924D01*
X179374996Y-100870922D01*
X179481341Y-100741341D01*
X179610922Y-100634996D01*
X179691639Y-100591852D01*
X179758758Y-100555976D01*
X179919177Y-100507313D01*
X180044196Y-100495000D01*
X180127804Y-100495000D01*
X180252823Y-100507313D01*
X180252823Y-100507313D01*
G37*
G36*
X196844228Y-100527703D02*
G01*
X196999100Y-100591853D01*
X197138481Y-100684985D01*
X197257015Y-100803519D01*
X197350147Y-100942900D01*
X197414297Y-101097772D01*
X197447000Y-101262184D01*
X197447000Y-101429816D01*
X197414297Y-101594228D01*
X197350147Y-101749100D01*
X197257015Y-101888481D01*
X197138481Y-102007015D01*
X196999100Y-102100147D01*
X196844228Y-102164297D01*
X196679816Y-102197000D01*
X196512184Y-102197000D01*
X196347772Y-102164297D01*
X196192900Y-102100147D01*
X196053519Y-102007015D01*
X195934985Y-101888481D01*
X195841853Y-101749100D01*
X195777703Y-101594228D01*
X195745000Y-101429816D01*
X195745000Y-101262184D01*
X195777703Y-101097772D01*
X195841853Y-100942900D01*
X195934985Y-100803519D01*
X196053519Y-100684985D01*
X196192900Y-100591853D01*
X196347772Y-100527703D01*
X196512184Y-100495000D01*
X196679816Y-100495000D01*
X196844228Y-100527703D01*
X196844228Y-100527703D01*
G37*
G36*
X177712823Y-100507313D02*
G01*
X177873242Y-100555976D01*
X177940361Y-100591852D01*
X178021078Y-100634996D01*
X178150659Y-100741341D01*
X178257004Y-100870922D01*
X178257005Y-100870924D01*
X178336024Y-101018758D01*
X178384687Y-101179177D01*
X178401117Y-101346000D01*
X178384687Y-101512823D01*
X178336024Y-101673242D01*
X178295477Y-101749100D01*
X178257004Y-101821078D01*
X178150659Y-101950659D01*
X178021078Y-102057004D01*
X178021076Y-102057005D01*
X177873242Y-102136024D01*
X177712823Y-102184687D01*
X177587804Y-102197000D01*
X177504196Y-102197000D01*
X177379177Y-102184687D01*
X177218758Y-102136024D01*
X177070924Y-102057005D01*
X177070922Y-102057004D01*
X176941341Y-101950659D01*
X176834996Y-101821078D01*
X176796523Y-101749100D01*
X176755976Y-101673242D01*
X176707313Y-101512823D01*
X176690883Y-101346000D01*
X176707313Y-101179177D01*
X176755976Y-101018758D01*
X176834995Y-100870924D01*
X176834996Y-100870922D01*
X176941341Y-100741341D01*
X177070922Y-100634996D01*
X177151639Y-100591852D01*
X177218758Y-100555976D01*
X177379177Y-100507313D01*
X177504196Y-100495000D01*
X177587804Y-100495000D01*
X177712823Y-100507313D01*
X177712823Y-100507313D01*
G37*
G36*
X190412823Y-100507313D02*
G01*
X190573242Y-100555976D01*
X190640361Y-100591852D01*
X190721078Y-100634996D01*
X190850659Y-100741341D01*
X190957004Y-100870922D01*
X190957005Y-100870924D01*
X191036024Y-101018758D01*
X191084687Y-101179177D01*
X191101117Y-101346000D01*
X191084687Y-101512823D01*
X191036024Y-101673242D01*
X190995477Y-101749100D01*
X190957004Y-101821078D01*
X190850659Y-101950659D01*
X190721078Y-102057004D01*
X190721076Y-102057005D01*
X190573242Y-102136024D01*
X190412823Y-102184687D01*
X190287804Y-102197000D01*
X190204196Y-102197000D01*
X190079177Y-102184687D01*
X189918758Y-102136024D01*
X189770924Y-102057005D01*
X189770922Y-102057004D01*
X189641341Y-101950659D01*
X189534996Y-101821078D01*
X189496523Y-101749100D01*
X189455976Y-101673242D01*
X189407313Y-101512823D01*
X189390883Y-101346000D01*
X189407313Y-101179177D01*
X189455976Y-101018758D01*
X189534995Y-100870924D01*
X189534996Y-100870922D01*
X189641341Y-100741341D01*
X189770922Y-100634996D01*
X189851639Y-100591852D01*
X189918758Y-100555976D01*
X190079177Y-100507313D01*
X190204196Y-100495000D01*
X190287804Y-100495000D01*
X190412823Y-100507313D01*
X190412823Y-100507313D01*
G37*
G36*
X189904823Y-96951313D02*
G01*
X190065242Y-96999976D01*
X190132361Y-97035852D01*
X190213078Y-97078996D01*
X190342659Y-97185341D01*
X190449004Y-97314922D01*
X190449005Y-97314924D01*
X190528024Y-97462758D01*
X190576687Y-97623177D01*
X190593117Y-97790000D01*
X190576687Y-97956823D01*
X190528024Y-98117242D01*
X190487477Y-98193100D01*
X190449004Y-98265078D01*
X190342659Y-98394659D01*
X190213078Y-98501004D01*
X190213076Y-98501005D01*
X190065242Y-98580024D01*
X189904823Y-98628687D01*
X189779804Y-98641000D01*
X189696196Y-98641000D01*
X189571177Y-98628687D01*
X189410758Y-98580024D01*
X189262924Y-98501005D01*
X189262922Y-98501004D01*
X189133341Y-98394659D01*
X189026996Y-98265078D01*
X188988523Y-98193100D01*
X188947976Y-98117242D01*
X188899313Y-97956823D01*
X188882883Y-97790000D01*
X188899313Y-97623177D01*
X188947976Y-97462758D01*
X189026995Y-97314924D01*
X189026996Y-97314922D01*
X189133341Y-97185341D01*
X189262922Y-97078996D01*
X189343639Y-97035852D01*
X189410758Y-96999976D01*
X189571177Y-96951313D01*
X189696196Y-96939000D01*
X189779804Y-96939000D01*
X189904823Y-96951313D01*
X189904823Y-96951313D01*
G37*
G36*
X185922228Y-96971703D02*
G01*
X186077100Y-97035853D01*
X186216481Y-97128985D01*
X186335015Y-97247519D01*
X186428147Y-97386900D01*
X186492297Y-97541772D01*
X186525000Y-97706184D01*
X186525000Y-97873816D01*
X186492297Y-98038228D01*
X186428147Y-98193100D01*
X186335015Y-98332481D01*
X186216481Y-98451015D01*
X186077100Y-98544147D01*
X185922228Y-98608297D01*
X185757816Y-98641000D01*
X185590184Y-98641000D01*
X185425772Y-98608297D01*
X185270900Y-98544147D01*
X185131519Y-98451015D01*
X185012985Y-98332481D01*
X184919853Y-98193100D01*
X184855703Y-98038228D01*
X184823000Y-97873816D01*
X184823000Y-97706184D01*
X184855703Y-97541772D01*
X184919853Y-97386900D01*
X185012985Y-97247519D01*
X185131519Y-97128985D01*
X185270900Y-97035853D01*
X185425772Y-96971703D01*
X185590184Y-96939000D01*
X185757816Y-96939000D01*
X185922228Y-96971703D01*
X185922228Y-96971703D01*
G37*
G36*
X197751000Y-97675000D02*
G01*
X195949000Y-97675000D01*
X195949000Y-95873000D01*
X197751000Y-95873000D01*
X197751000Y-97675000D01*
X197751000Y-97675000D01*
G37*
G36*
X181466443Y-94863519D02*
G01*
X181532627Y-94870037D01*
X181702466Y-94921557D01*
X181858991Y-95005222D01*
X181894729Y-95034552D01*
X181996186Y-95117814D01*
X182079448Y-95219271D01*
X182108778Y-95255009D01*
X182192443Y-95411534D01*
X182243963Y-95581373D01*
X182261359Y-95758000D01*
X182243963Y-95934627D01*
X182192443Y-96104466D01*
X182108778Y-96260991D01*
X182079448Y-96296729D01*
X181996186Y-96398186D01*
X181894729Y-96481448D01*
X181858991Y-96510778D01*
X181702466Y-96594443D01*
X181532627Y-96645963D01*
X181466443Y-96652481D01*
X181400260Y-96659000D01*
X181311740Y-96659000D01*
X181245558Y-96652482D01*
X181179373Y-96645963D01*
X181009534Y-96594443D01*
X180853009Y-96510778D01*
X180817271Y-96481448D01*
X180715814Y-96398186D01*
X180632552Y-96296729D01*
X180603222Y-96260991D01*
X180519557Y-96104466D01*
X180468037Y-95934627D01*
X180450641Y-95758000D01*
X180468037Y-95581373D01*
X180519557Y-95411534D01*
X180603222Y-95255009D01*
X180632552Y-95219271D01*
X180715814Y-95117814D01*
X180817271Y-95034552D01*
X180853009Y-95005222D01*
X181009534Y-94921557D01*
X181179373Y-94870037D01*
X181245558Y-94863518D01*
X181311740Y-94857000D01*
X181400260Y-94857000D01*
X181466443Y-94863519D01*
X181466443Y-94863519D01*
G37*
G36*
X196960442Y-93339518D02*
G01*
X197026627Y-93346037D01*
X197196466Y-93397557D01*
X197352991Y-93481222D01*
X197388729Y-93510552D01*
X197490186Y-93593814D01*
X197573448Y-93695271D01*
X197602778Y-93731009D01*
X197686443Y-93887534D01*
X197737963Y-94057373D01*
X197755359Y-94234000D01*
X197737963Y-94410627D01*
X197686443Y-94580466D01*
X197602778Y-94736991D01*
X197573448Y-94772729D01*
X197490186Y-94874186D01*
X197388729Y-94957448D01*
X197352991Y-94986778D01*
X197196466Y-95070443D01*
X197026627Y-95121963D01*
X196960442Y-95128482D01*
X196894260Y-95135000D01*
X196805740Y-95135000D01*
X196739558Y-95128482D01*
X196673373Y-95121963D01*
X196503534Y-95070443D01*
X196347009Y-94986778D01*
X196311271Y-94957448D01*
X196209814Y-94874186D01*
X196126552Y-94772729D01*
X196097222Y-94736991D01*
X196013557Y-94580466D01*
X195962037Y-94410627D01*
X195944641Y-94234000D01*
X195962037Y-94057373D01*
X196013557Y-93887534D01*
X196097222Y-93731009D01*
X196126552Y-93695271D01*
X196209814Y-93593814D01*
X196311271Y-93510552D01*
X196347009Y-93481222D01*
X196503534Y-93397557D01*
X196673373Y-93346037D01*
X196739558Y-93339518D01*
X196805740Y-93333000D01*
X196894260Y-93333000D01*
X196960442Y-93339518D01*
X196960442Y-93339518D01*
G37*
G36*
X181466442Y-92323518D02*
G01*
X181532627Y-92330037D01*
X181702466Y-92381557D01*
X181858991Y-92465222D01*
X181894729Y-92494552D01*
X181996186Y-92577814D01*
X182079448Y-92679271D01*
X182108778Y-92715009D01*
X182192443Y-92871534D01*
X182243963Y-93041373D01*
X182261359Y-93218000D01*
X182243963Y-93394627D01*
X182192443Y-93564466D01*
X182108778Y-93720991D01*
X182079448Y-93756729D01*
X181996186Y-93858186D01*
X181894729Y-93941448D01*
X181858991Y-93970778D01*
X181702466Y-94054443D01*
X181532627Y-94105963D01*
X181466442Y-94112482D01*
X181400260Y-94119000D01*
X181311740Y-94119000D01*
X181245558Y-94112482D01*
X181179373Y-94105963D01*
X181009534Y-94054443D01*
X180853009Y-93970778D01*
X180817271Y-93941448D01*
X180715814Y-93858186D01*
X180632552Y-93756729D01*
X180603222Y-93720991D01*
X180519557Y-93564466D01*
X180468037Y-93394627D01*
X180450641Y-93218000D01*
X180468037Y-93041373D01*
X180519557Y-92871534D01*
X180603222Y-92715009D01*
X180632552Y-92679271D01*
X180715814Y-92577814D01*
X180817271Y-92494552D01*
X180853009Y-92465222D01*
X181009534Y-92381557D01*
X181179373Y-92330037D01*
X181245558Y-92323518D01*
X181311740Y-92317000D01*
X181400260Y-92317000D01*
X181466442Y-92323518D01*
X181466442Y-92323518D01*
G37*
G36*
X170700348Y-91773820D02*
G01*
X170700350Y-91773821D01*
X170700351Y-91773821D01*
X170841574Y-91832317D01*
X170841577Y-91832319D01*
X170968669Y-91917239D01*
X171076761Y-92025331D01*
X171086875Y-92040468D01*
X171161683Y-92152426D01*
X171180141Y-92196989D01*
X171182517Y-92202725D01*
X171194068Y-92224336D01*
X171209614Y-92243278D01*
X171228556Y-92258823D01*
X171250166Y-92270374D01*
X171273615Y-92277487D01*
X171298001Y-92279889D01*
X171322387Y-92277487D01*
X171345836Y-92270374D01*
X171367447Y-92258823D01*
X171386389Y-92243277D01*
X171401934Y-92224335D01*
X171413485Y-92202725D01*
X171420598Y-92179276D01*
X171423000Y-92154890D01*
X171423000Y-91794000D01*
X174525000Y-91794000D01*
X174525000Y-92154890D01*
X174527402Y-92179276D01*
X174534515Y-92202725D01*
X174546066Y-92224336D01*
X174561611Y-92243278D01*
X174580553Y-92258823D01*
X174602164Y-92270374D01*
X174625613Y-92277487D01*
X174649999Y-92279889D01*
X174674385Y-92277487D01*
X174697834Y-92270374D01*
X174719445Y-92258823D01*
X174738387Y-92243278D01*
X174753932Y-92224336D01*
X174765483Y-92202725D01*
X174767859Y-92196989D01*
X174786317Y-92152426D01*
X174861125Y-92040468D01*
X174871239Y-92025331D01*
X174979331Y-91917239D01*
X175106423Y-91832319D01*
X175106426Y-91832317D01*
X175247649Y-91773821D01*
X175247650Y-91773821D01*
X175247652Y-91773820D01*
X175397569Y-91744000D01*
X175550431Y-91744000D01*
X175700348Y-91773820D01*
X175700350Y-91773821D01*
X175700351Y-91773821D01*
X175841574Y-91832317D01*
X175841577Y-91832319D01*
X175968669Y-91917239D01*
X176076761Y-92025331D01*
X176086875Y-92040468D01*
X176161683Y-92152426D01*
X176214479Y-92279889D01*
X176220180Y-92293652D01*
X176250000Y-92443569D01*
X176250000Y-92596431D01*
X176226414Y-92715009D01*
X176220179Y-92746351D01*
X176161683Y-92887574D01*
X176161682Y-92887575D01*
X176161681Y-92887577D01*
X176076761Y-93014669D01*
X175968669Y-93122761D01*
X175841577Y-93207681D01*
X175841574Y-93207683D01*
X175700351Y-93266179D01*
X175700350Y-93266179D01*
X175700348Y-93266180D01*
X175550431Y-93296000D01*
X175397569Y-93296000D01*
X175247652Y-93266180D01*
X175247650Y-93266179D01*
X175247649Y-93266179D01*
X175106426Y-93207683D01*
X175106423Y-93207681D01*
X174979331Y-93122761D01*
X174871239Y-93014669D01*
X174786318Y-92887575D01*
X174786317Y-92887574D01*
X174765481Y-92837272D01*
X174753932Y-92815664D01*
X174738386Y-92796722D01*
X174719444Y-92781177D01*
X174697834Y-92769626D01*
X174674385Y-92762513D01*
X174649999Y-92760111D01*
X174625613Y-92762513D01*
X174602164Y-92769626D01*
X174580553Y-92781177D01*
X174561611Y-92796723D01*
X174546066Y-92815665D01*
X174534515Y-92837275D01*
X174527402Y-92860724D01*
X174525000Y-92885110D01*
X174525000Y-93246000D01*
X171423000Y-93246000D01*
X171423000Y-92885110D01*
X171420598Y-92860724D01*
X171413485Y-92837275D01*
X171401934Y-92815664D01*
X171386389Y-92796722D01*
X171367447Y-92781177D01*
X171345836Y-92769626D01*
X171322387Y-92762513D01*
X171298001Y-92760111D01*
X171273615Y-92762513D01*
X171250166Y-92769626D01*
X171228555Y-92781177D01*
X171209613Y-92796722D01*
X171194068Y-92815664D01*
X171182519Y-92837272D01*
X171161683Y-92887574D01*
X171161682Y-92887575D01*
X171076761Y-93014669D01*
X170968669Y-93122761D01*
X170841577Y-93207681D01*
X170841574Y-93207683D01*
X170700351Y-93266179D01*
X170700350Y-93266179D01*
X170700348Y-93266180D01*
X170550431Y-93296000D01*
X170397569Y-93296000D01*
X170247652Y-93266180D01*
X170247650Y-93266179D01*
X170247649Y-93266179D01*
X170106426Y-93207683D01*
X170106423Y-93207681D01*
X169979331Y-93122761D01*
X169871239Y-93014669D01*
X169786319Y-92887577D01*
X169786318Y-92887575D01*
X169786317Y-92887574D01*
X169727821Y-92746351D01*
X169721587Y-92715009D01*
X169698000Y-92596431D01*
X169698000Y-92443569D01*
X169727820Y-92293652D01*
X169733521Y-92279889D01*
X169786317Y-92152426D01*
X169861125Y-92040468D01*
X169871239Y-92025331D01*
X169979331Y-91917239D01*
X170106423Y-91832319D01*
X170106426Y-91832317D01*
X170247649Y-91773821D01*
X170247650Y-91773821D01*
X170247652Y-91773820D01*
X170397569Y-91744000D01*
X170550431Y-91744000D01*
X170700348Y-91773820D01*
X170700348Y-91773820D01*
G37*
G36*
X196960443Y-90799519D02*
G01*
X197026627Y-90806037D01*
X197196466Y-90857557D01*
X197352991Y-90941222D01*
X197375901Y-90960024D01*
X197490186Y-91053814D01*
X197573448Y-91155271D01*
X197602778Y-91191009D01*
X197686443Y-91347534D01*
X197737963Y-91517373D01*
X197755359Y-91694000D01*
X197737963Y-91870627D01*
X197686443Y-92040466D01*
X197602778Y-92196991D01*
X197598072Y-92202725D01*
X197490186Y-92334186D01*
X197388729Y-92417448D01*
X197352991Y-92446778D01*
X197196466Y-92530443D01*
X197026627Y-92581963D01*
X196960443Y-92588481D01*
X196894260Y-92595000D01*
X196805740Y-92595000D01*
X196739557Y-92588481D01*
X196673373Y-92581963D01*
X196503534Y-92530443D01*
X196347009Y-92446778D01*
X196311271Y-92417448D01*
X196209814Y-92334186D01*
X196101928Y-92202725D01*
X196097222Y-92196991D01*
X196013557Y-92040466D01*
X195962037Y-91870627D01*
X195944641Y-91694000D01*
X195962037Y-91517373D01*
X196013557Y-91347534D01*
X196097222Y-91191009D01*
X196126552Y-91155271D01*
X196209814Y-91053814D01*
X196324099Y-90960024D01*
X196347009Y-90941222D01*
X196503534Y-90857557D01*
X196673373Y-90806037D01*
X196739557Y-90799519D01*
X196805740Y-90793000D01*
X196894260Y-90793000D01*
X196960443Y-90799519D01*
X196960443Y-90799519D01*
G37*
G36*
X182257000Y-91579000D02*
G01*
X180455000Y-91579000D01*
X180455000Y-89777000D01*
X182257000Y-89777000D01*
X182257000Y-91579000D01*
X182257000Y-91579000D01*
G37*
G36*
X189986228Y-89351703D02*
G01*
X190141100Y-89415853D01*
X190280481Y-89508985D01*
X190399015Y-89627519D01*
X190492147Y-89766900D01*
X190556297Y-89921772D01*
X190589000Y-90086184D01*
X190589000Y-90253816D01*
X190556297Y-90418228D01*
X190492147Y-90573100D01*
X190399015Y-90712481D01*
X190280481Y-90831015D01*
X190141100Y-90924147D01*
X189986228Y-90988297D01*
X189821816Y-91021000D01*
X189654184Y-91021000D01*
X189489772Y-90988297D01*
X189334900Y-90924147D01*
X189195519Y-90831015D01*
X189076985Y-90712481D01*
X188983853Y-90573100D01*
X188919703Y-90418228D01*
X188887000Y-90253816D01*
X188887000Y-90086184D01*
X188919703Y-89921772D01*
X188983853Y-89766900D01*
X189076985Y-89627519D01*
X189195519Y-89508985D01*
X189334900Y-89415853D01*
X189489772Y-89351703D01*
X189654184Y-89319000D01*
X189821816Y-89319000D01*
X189986228Y-89351703D01*
X189986228Y-89351703D01*
G37*
G36*
X185840823Y-89331313D02*
G01*
X186001242Y-89379976D01*
X186068361Y-89415852D01*
X186149078Y-89458996D01*
X186278659Y-89565341D01*
X186385004Y-89694922D01*
X186385005Y-89694924D01*
X186464024Y-89842758D01*
X186512687Y-90003177D01*
X186529117Y-90170000D01*
X186512687Y-90336823D01*
X186464024Y-90497242D01*
X186393114Y-90629906D01*
X186385004Y-90645078D01*
X186278659Y-90774659D01*
X186149078Y-90881004D01*
X186149076Y-90881005D01*
X186001242Y-90960024D01*
X185840823Y-91008687D01*
X185715804Y-91021000D01*
X185632196Y-91021000D01*
X185507177Y-91008687D01*
X185346758Y-90960024D01*
X185198924Y-90881005D01*
X185198922Y-90881004D01*
X185069341Y-90774659D01*
X184962996Y-90645078D01*
X184954886Y-90629906D01*
X184883976Y-90497242D01*
X184835313Y-90336823D01*
X184818883Y-90170000D01*
X184835313Y-90003177D01*
X184883976Y-89842758D01*
X184962995Y-89694924D01*
X184962996Y-89694922D01*
X185069341Y-89565341D01*
X185198922Y-89458996D01*
X185279639Y-89415852D01*
X185346758Y-89379976D01*
X185507177Y-89331313D01*
X185632196Y-89319000D01*
X185715804Y-89319000D01*
X185840823Y-89331313D01*
X185840823Y-89331313D01*
G37*
G36*
X169493734Y-88818399D02*
G01*
X169505973Y-88819000D01*
X170725000Y-88819000D01*
X170725000Y-90821000D01*
X169505973Y-90821000D01*
X169493733Y-90821601D01*
X169474000Y-90823545D01*
X169454266Y-90821601D01*
X169442027Y-90821000D01*
X169371139Y-90821000D01*
X169367447Y-90817970D01*
X169334287Y-90802287D01*
X169271737Y-90783313D01*
X169271733Y-90783311D01*
X169180356Y-90734469D01*
X169100262Y-90668738D01*
X169034531Y-90588644D01*
X168985688Y-90497264D01*
X168955611Y-90398113D01*
X168948000Y-90320838D01*
X168948001Y-89319161D01*
X168955612Y-89241886D01*
X168985689Y-89142735D01*
X169034532Y-89051356D01*
X169100263Y-88971262D01*
X169180357Y-88905531D01*
X169271736Y-88856688D01*
X169334297Y-88837710D01*
X169356925Y-88828338D01*
X169370900Y-88819000D01*
X169442027Y-88819000D01*
X169454267Y-88818399D01*
X169474000Y-88816455D01*
X169493734Y-88818399D01*
X169493734Y-88818399D01*
G37*
G36*
X176493734Y-88818399D02*
G01*
X176505973Y-88819000D01*
X176576861Y-88819000D01*
X176580553Y-88822030D01*
X176613713Y-88837713D01*
X176676263Y-88856687D01*
X176676265Y-88856688D01*
X176767644Y-88905531D01*
X176847738Y-88971262D01*
X176913469Y-89051356D01*
X176962312Y-89142735D01*
X176992389Y-89241886D01*
X177000000Y-89319161D01*
X177000000Y-90320839D01*
X176992389Y-90398114D01*
X176962312Y-90497265D01*
X176913469Y-90588644D01*
X176847738Y-90668738D01*
X176767644Y-90734469D01*
X176676264Y-90783312D01*
X176613703Y-90802290D01*
X176591075Y-90811662D01*
X176577100Y-90821000D01*
X176505973Y-90821000D01*
X176493733Y-90821601D01*
X176474000Y-90823545D01*
X176454266Y-90821601D01*
X176442027Y-90821000D01*
X175223000Y-90821000D01*
X175223000Y-88819000D01*
X176442027Y-88819000D01*
X176454267Y-88818399D01*
X176474000Y-88816455D01*
X176493734Y-88818399D01*
X176493734Y-88818399D01*
G37*
G36*
X172775000Y-90821000D02*
G01*
X171173000Y-90821000D01*
X171173000Y-88819000D01*
X172775000Y-88819000D01*
X172775000Y-90821000D01*
X172775000Y-90821000D01*
G37*
G36*
X174775000Y-90821000D02*
G01*
X173173000Y-90821000D01*
X173173000Y-88819000D01*
X174775000Y-88819000D01*
X174775000Y-90821000D01*
X174775000Y-90821000D01*
G37*
M02*
