G04 #@! TF.GenerationSoftware,KiCad,Pcbnew,(5.1.4)-1*
G04 #@! TF.CreationDate,2019-09-17T16:39:36-04:00*
G04 #@! TF.ProjectId,led_lock_ctrl,6c65645f-6c6f-4636-9b5f-6374726c2e6b,rev?*
G04 #@! TF.SameCoordinates,Original*
G04 #@! TF.FileFunction,Profile,NP*
%FSLAX46Y46*%
G04 Gerber Fmt 4.6, Leading zero omitted, Abs format (unit mm)*
G04 Created by KiCad (PCBNEW (5.1.4)-1) date 2019-09-17 16:39:36*
%MOMM*%
%LPD*%
G04 APERTURE LIST*
%ADD10C,0.050000*%
%ADD11C,0.000100*%
G04 APERTURE END LIST*
D10*
X162814000Y-119634000D02*
X195580000Y-119634000D01*
X162814000Y-88392000D02*
X162814000Y-119634000D01*
X198882000Y-88392000D02*
X162814000Y-88392000D01*
X198882000Y-119634000D02*
X198882000Y-88392000D01*
X195580000Y-119634000D02*
X198882000Y-119634000D01*
D11*
X169774000Y-89470000D02*
X169774000Y-90170000D01*
X169474000Y-89170000D02*
G75*
G02X169774000Y-89470000I0J-300000D01*
G01*
X169174000Y-89470000D02*
G75*
G02X169474000Y-89170000I300000J0D01*
G01*
X169174000Y-90170000D02*
X169174000Y-89470000D01*
X169474000Y-90470000D02*
G75*
G02X169174000Y-90170000I0J300000D01*
G01*
X169774000Y-90170000D02*
G75*
G02X169474000Y-90470000I-300000J0D01*
G01*
X176774000Y-89470000D02*
X176774000Y-90170000D01*
X176474000Y-89170000D02*
G75*
G02X176774000Y-89470000I0J-300000D01*
G01*
X176174000Y-89470000D02*
G75*
G02X176474000Y-89170000I300000J0D01*
G01*
X176174000Y-90170000D02*
X176174000Y-89470000D01*
X176474000Y-90470000D02*
G75*
G02X176174000Y-90170000I0J300000D01*
G01*
X176774000Y-90170000D02*
G75*
G02X176474000Y-90470000I-300000J0D01*
G01*
D10*
X164999343Y-88819380D02*
X164999343Y-87819380D01*
X165380295Y-87819380D01*
X165475533Y-87867000D01*
X165523152Y-87914619D01*
X165570771Y-88009857D01*
X165570771Y-88152714D01*
X165523152Y-88247952D01*
X165475533Y-88295571D01*
X165380295Y-88343190D01*
X164999343Y-88343190D01*
X166570771Y-88724142D02*
X166523152Y-88771761D01*
X166380295Y-88819380D01*
X166285057Y-88819380D01*
X166142200Y-88771761D01*
X166046962Y-88676523D01*
X165999343Y-88581285D01*
X165951724Y-88390809D01*
X165951724Y-88247952D01*
X165999343Y-88057476D01*
X166046962Y-87962238D01*
X166142200Y-87867000D01*
X166285057Y-87819380D01*
X166380295Y-87819380D01*
X166523152Y-87867000D01*
X166570771Y-87914619D01*
X167332676Y-88295571D02*
X167475533Y-88343190D01*
X167523152Y-88390809D01*
X167570771Y-88486047D01*
X167570771Y-88628904D01*
X167523152Y-88724142D01*
X167475533Y-88771761D01*
X167380295Y-88819380D01*
X166999343Y-88819380D01*
X166999343Y-87819380D01*
X167332676Y-87819380D01*
X167427914Y-87867000D01*
X167475533Y-87914619D01*
X167523152Y-88009857D01*
X167523152Y-88105095D01*
X167475533Y-88200333D01*
X167427914Y-88247952D01*
X167332676Y-88295571D01*
X166999343Y-88295571D01*
X167761248Y-87582000D02*
X168666010Y-87582000D01*
X167999343Y-88295571D02*
X168332676Y-88295571D01*
X168475533Y-88819380D02*
X167999343Y-88819380D01*
X167999343Y-87819380D01*
X168475533Y-87819380D01*
X168666010Y-87582000D02*
X169666010Y-87582000D01*
X168904105Y-88819380D02*
X168904105Y-87819380D01*
X169142200Y-87819380D01*
X169285057Y-87867000D01*
X169380295Y-87962238D01*
X169427914Y-88057476D01*
X169475533Y-88247952D01*
X169475533Y-88390809D01*
X169427914Y-88581285D01*
X169380295Y-88676523D01*
X169285057Y-88771761D01*
X169142200Y-88819380D01*
X168904105Y-88819380D01*
X169666010Y-87582000D02*
X170666010Y-87582000D01*
X170427914Y-87867000D02*
X170332676Y-87819380D01*
X170189819Y-87819380D01*
X170046962Y-87867000D01*
X169951724Y-87962238D01*
X169904105Y-88057476D01*
X169856486Y-88247952D01*
X169856486Y-88390809D01*
X169904105Y-88581285D01*
X169951724Y-88676523D01*
X170046962Y-88771761D01*
X170189819Y-88819380D01*
X170285057Y-88819380D01*
X170427914Y-88771761D01*
X170475533Y-88724142D01*
X170475533Y-88390809D01*
X170285057Y-88390809D01*
X170666010Y-87582000D02*
X171570771Y-87582000D01*
X170904105Y-88295571D02*
X171237438Y-88295571D01*
X171380295Y-88819380D02*
X170904105Y-88819380D01*
X170904105Y-87819380D01*
X171380295Y-87819380D01*
M02*
