G04 #@! TF.GenerationSoftware,KiCad,Pcbnew,(5.1.4)-1*
G04 #@! TF.CreationDate,2019-12-12T14:56:49-05:00*
G04 #@! TF.ProjectId,psu_board,7073755f-626f-4617-9264-2e6b69636164,rev?*
G04 #@! TF.SameCoordinates,Original*
G04 #@! TF.FileFunction,Copper,L2,Bot*
G04 #@! TF.FilePolarity,Positive*
%FSLAX46Y46*%
G04 Gerber Fmt 4.6, Leading zero omitted, Abs format (unit mm)*
G04 Created by KiCad (PCBNEW (5.1.4)-1) date 2019-12-12 14:56:49*
%MOMM*%
%LPD*%
G04 APERTURE LIST*
%ADD10C,2.500000*%
%ADD11R,2.500000X2.500000*%
%ADD12O,1.700000X1.700000*%
%ADD13R,1.700000X1.700000*%
%ADD14C,0.254000*%
G04 APERTURE END LIST*
D10*
X196008000Y-68580000D03*
D11*
X191008000Y-68580000D03*
D12*
X188976000Y-159512000D03*
X188976000Y-156972000D03*
X191516000Y-159512000D03*
X191516000Y-156972000D03*
X194056000Y-159512000D03*
X194056000Y-156972000D03*
X196596000Y-159512000D03*
D13*
X196596000Y-156972000D03*
D12*
X173228000Y-159512000D03*
X173228000Y-156972000D03*
X175768000Y-159512000D03*
X175768000Y-156972000D03*
X178308000Y-159512000D03*
X178308000Y-156972000D03*
X180848000Y-159512000D03*
D13*
X180848000Y-156972000D03*
D10*
X184324000Y-68580000D03*
D11*
X179324000Y-68580000D03*
D10*
X157814000Y-155702000D03*
D11*
X162814000Y-155702000D03*
D13*
X170180000Y-138176000D03*
D10*
X171878000Y-68580000D03*
D11*
X166878000Y-68580000D03*
D13*
X182880000Y-92456000D03*
X165100000Y-92456000D03*
X157480000Y-138176000D03*
X182880000Y-138176000D03*
D14*
G36*
X205080001Y-160630000D02*
G01*
X197574532Y-160630000D01*
X197651134Y-160567134D01*
X197836706Y-160341014D01*
X197974599Y-160083034D01*
X198059513Y-159803111D01*
X198088185Y-159512000D01*
X198059513Y-159220889D01*
X197974599Y-158940966D01*
X197836706Y-158682986D01*
X197651134Y-158456866D01*
X197621313Y-158432393D01*
X197690180Y-158411502D01*
X197800494Y-158352537D01*
X197897185Y-158273185D01*
X197976537Y-158176494D01*
X198035502Y-158066180D01*
X198071812Y-157946482D01*
X198084072Y-157822000D01*
X198081012Y-157259872D01*
X199441000Y-157259872D01*
X199441000Y-157700128D01*
X199526890Y-158131925D01*
X199695369Y-158538669D01*
X199939962Y-158904729D01*
X200251271Y-159216038D01*
X200617331Y-159460631D01*
X201024075Y-159629110D01*
X201455872Y-159715000D01*
X201896128Y-159715000D01*
X202327925Y-159629110D01*
X202734669Y-159460631D01*
X203100729Y-159216038D01*
X203412038Y-158904729D01*
X203656631Y-158538669D01*
X203825110Y-158131925D01*
X203911000Y-157700128D01*
X203911000Y-157259872D01*
X203825110Y-156828075D01*
X203656631Y-156421331D01*
X203412038Y-156055271D01*
X203100729Y-155743962D01*
X202734669Y-155499369D01*
X202327925Y-155330890D01*
X201896128Y-155245000D01*
X201455872Y-155245000D01*
X201024075Y-155330890D01*
X200617331Y-155499369D01*
X200251271Y-155743962D01*
X199939962Y-156055271D01*
X199695369Y-156421331D01*
X199526890Y-156828075D01*
X199441000Y-157259872D01*
X198081012Y-157259872D01*
X198081000Y-157257750D01*
X197922250Y-157099000D01*
X196723000Y-157099000D01*
X196723000Y-157119000D01*
X196469000Y-157119000D01*
X196469000Y-157099000D01*
X194183000Y-157099000D01*
X194183000Y-157119000D01*
X193929000Y-157119000D01*
X193929000Y-157099000D01*
X191643000Y-157099000D01*
X191643000Y-157119000D01*
X191389000Y-157119000D01*
X191389000Y-157099000D01*
X189103000Y-157099000D01*
X189103000Y-157119000D01*
X188849000Y-157119000D01*
X188849000Y-157099000D01*
X187655186Y-157099000D01*
X187534519Y-157328891D01*
X187631843Y-157603252D01*
X187780822Y-157853355D01*
X187975731Y-158069588D01*
X188204756Y-158240416D01*
X188146986Y-158271294D01*
X187920866Y-158456866D01*
X187735294Y-158682986D01*
X187597401Y-158940966D01*
X187512487Y-159220889D01*
X187483815Y-159512000D01*
X187512487Y-159803111D01*
X187597401Y-160083034D01*
X187735294Y-160341014D01*
X187920866Y-160567134D01*
X187997468Y-160630000D01*
X181826532Y-160630000D01*
X181903134Y-160567134D01*
X182088706Y-160341014D01*
X182226599Y-160083034D01*
X182311513Y-159803111D01*
X182340185Y-159512000D01*
X182311513Y-159220889D01*
X182226599Y-158940966D01*
X182088706Y-158682986D01*
X181903134Y-158456866D01*
X181873313Y-158432393D01*
X181942180Y-158411502D01*
X182052494Y-158352537D01*
X182149185Y-158273185D01*
X182228537Y-158176494D01*
X182287502Y-158066180D01*
X182323812Y-157946482D01*
X182336072Y-157822000D01*
X182333000Y-157257750D01*
X182174250Y-157099000D01*
X180975000Y-157099000D01*
X180975000Y-157119000D01*
X180721000Y-157119000D01*
X180721000Y-157099000D01*
X178435000Y-157099000D01*
X178435000Y-157119000D01*
X178181000Y-157119000D01*
X178181000Y-157099000D01*
X175895000Y-157099000D01*
X175895000Y-157119000D01*
X175641000Y-157119000D01*
X175641000Y-157099000D01*
X173355000Y-157099000D01*
X173355000Y-157119000D01*
X173101000Y-157119000D01*
X173101000Y-157099000D01*
X171907186Y-157099000D01*
X171786519Y-157328891D01*
X171883843Y-157603252D01*
X172032822Y-157853355D01*
X172227731Y-158069588D01*
X172456756Y-158240416D01*
X172398986Y-158271294D01*
X172172866Y-158456866D01*
X171987294Y-158682986D01*
X171849401Y-158940966D01*
X171764487Y-159220889D01*
X171735815Y-159512000D01*
X171764487Y-159803111D01*
X171849401Y-160083034D01*
X171987294Y-160341014D01*
X172172866Y-160567134D01*
X172249468Y-160630000D01*
X154584000Y-160630000D01*
X154584000Y-155516344D01*
X155929000Y-155516344D01*
X155929000Y-155887656D01*
X156001439Y-156251834D01*
X156143534Y-156594882D01*
X156349825Y-156903618D01*
X156612382Y-157166175D01*
X156921118Y-157372466D01*
X157264166Y-157514561D01*
X157628344Y-157587000D01*
X157999656Y-157587000D01*
X158363834Y-157514561D01*
X158706882Y-157372466D01*
X159015618Y-157166175D01*
X159229793Y-156952000D01*
X160925928Y-156952000D01*
X160938188Y-157076482D01*
X160974498Y-157196180D01*
X161033463Y-157306494D01*
X161112815Y-157403185D01*
X161209506Y-157482537D01*
X161319820Y-157541502D01*
X161439518Y-157577812D01*
X161564000Y-157590072D01*
X162528250Y-157587000D01*
X162687000Y-157428250D01*
X162687000Y-155829000D01*
X162941000Y-155829000D01*
X162941000Y-157428250D01*
X163099750Y-157587000D01*
X164064000Y-157590072D01*
X164188482Y-157577812D01*
X164308180Y-157541502D01*
X164418494Y-157482537D01*
X164515185Y-157403185D01*
X164594537Y-157306494D01*
X164653502Y-157196180D01*
X164689812Y-157076482D01*
X164702072Y-156952000D01*
X164700999Y-156615109D01*
X171786519Y-156615109D01*
X171907186Y-156845000D01*
X173101000Y-156845000D01*
X173101000Y-155651845D01*
X173355000Y-155651845D01*
X173355000Y-156845000D01*
X175641000Y-156845000D01*
X175641000Y-155651845D01*
X175895000Y-155651845D01*
X175895000Y-156845000D01*
X178181000Y-156845000D01*
X178181000Y-155651845D01*
X178435000Y-155651845D01*
X178435000Y-156845000D01*
X180721000Y-156845000D01*
X180721000Y-155645750D01*
X180975000Y-155645750D01*
X180975000Y-156845000D01*
X182174250Y-156845000D01*
X182333000Y-156686250D01*
X182333387Y-156615109D01*
X187534519Y-156615109D01*
X187655186Y-156845000D01*
X188849000Y-156845000D01*
X188849000Y-155651845D01*
X189103000Y-155651845D01*
X189103000Y-156845000D01*
X191389000Y-156845000D01*
X191389000Y-155651845D01*
X191643000Y-155651845D01*
X191643000Y-156845000D01*
X193929000Y-156845000D01*
X193929000Y-155651845D01*
X194183000Y-155651845D01*
X194183000Y-156845000D01*
X196469000Y-156845000D01*
X196469000Y-155645750D01*
X196723000Y-155645750D01*
X196723000Y-156845000D01*
X197922250Y-156845000D01*
X198081000Y-156686250D01*
X198084072Y-156122000D01*
X198071812Y-155997518D01*
X198035502Y-155877820D01*
X197976537Y-155767506D01*
X197897185Y-155670815D01*
X197800494Y-155591463D01*
X197690180Y-155532498D01*
X197570482Y-155496188D01*
X197446000Y-155483928D01*
X196881750Y-155487000D01*
X196723000Y-155645750D01*
X196469000Y-155645750D01*
X196310250Y-155487000D01*
X195746000Y-155483928D01*
X195621518Y-155496188D01*
X195501820Y-155532498D01*
X195391506Y-155591463D01*
X195294815Y-155670815D01*
X195215463Y-155767506D01*
X195156498Y-155877820D01*
X195132034Y-155958466D01*
X195056269Y-155874412D01*
X194822920Y-155700359D01*
X194560099Y-155575175D01*
X194412890Y-155530524D01*
X194183000Y-155651845D01*
X193929000Y-155651845D01*
X193699110Y-155530524D01*
X193551901Y-155575175D01*
X193289080Y-155700359D01*
X193055731Y-155874412D01*
X192860822Y-156090645D01*
X192786000Y-156216255D01*
X192711178Y-156090645D01*
X192516269Y-155874412D01*
X192282920Y-155700359D01*
X192020099Y-155575175D01*
X191872890Y-155530524D01*
X191643000Y-155651845D01*
X191389000Y-155651845D01*
X191159110Y-155530524D01*
X191011901Y-155575175D01*
X190749080Y-155700359D01*
X190515731Y-155874412D01*
X190320822Y-156090645D01*
X190246000Y-156216255D01*
X190171178Y-156090645D01*
X189976269Y-155874412D01*
X189742920Y-155700359D01*
X189480099Y-155575175D01*
X189332890Y-155530524D01*
X189103000Y-155651845D01*
X188849000Y-155651845D01*
X188619110Y-155530524D01*
X188471901Y-155575175D01*
X188209080Y-155700359D01*
X187975731Y-155874412D01*
X187780822Y-156090645D01*
X187631843Y-156340748D01*
X187534519Y-156615109D01*
X182333387Y-156615109D01*
X182336072Y-156122000D01*
X182323812Y-155997518D01*
X182287502Y-155877820D01*
X182228537Y-155767506D01*
X182149185Y-155670815D01*
X182052494Y-155591463D01*
X181942180Y-155532498D01*
X181822482Y-155496188D01*
X181698000Y-155483928D01*
X181133750Y-155487000D01*
X180975000Y-155645750D01*
X180721000Y-155645750D01*
X180562250Y-155487000D01*
X179998000Y-155483928D01*
X179873518Y-155496188D01*
X179753820Y-155532498D01*
X179643506Y-155591463D01*
X179546815Y-155670815D01*
X179467463Y-155767506D01*
X179408498Y-155877820D01*
X179384034Y-155958466D01*
X179308269Y-155874412D01*
X179074920Y-155700359D01*
X178812099Y-155575175D01*
X178664890Y-155530524D01*
X178435000Y-155651845D01*
X178181000Y-155651845D01*
X177951110Y-155530524D01*
X177803901Y-155575175D01*
X177541080Y-155700359D01*
X177307731Y-155874412D01*
X177112822Y-156090645D01*
X177038000Y-156216255D01*
X176963178Y-156090645D01*
X176768269Y-155874412D01*
X176534920Y-155700359D01*
X176272099Y-155575175D01*
X176124890Y-155530524D01*
X175895000Y-155651845D01*
X175641000Y-155651845D01*
X175411110Y-155530524D01*
X175263901Y-155575175D01*
X175001080Y-155700359D01*
X174767731Y-155874412D01*
X174572822Y-156090645D01*
X174498000Y-156216255D01*
X174423178Y-156090645D01*
X174228269Y-155874412D01*
X173994920Y-155700359D01*
X173732099Y-155575175D01*
X173584890Y-155530524D01*
X173355000Y-155651845D01*
X173101000Y-155651845D01*
X172871110Y-155530524D01*
X172723901Y-155575175D01*
X172461080Y-155700359D01*
X172227731Y-155874412D01*
X172032822Y-156090645D01*
X171883843Y-156340748D01*
X171786519Y-156615109D01*
X164700999Y-156615109D01*
X164699000Y-155987750D01*
X164540250Y-155829000D01*
X162941000Y-155829000D01*
X162687000Y-155829000D01*
X161087750Y-155829000D01*
X160929000Y-155987750D01*
X160925928Y-156952000D01*
X159229793Y-156952000D01*
X159278175Y-156903618D01*
X159484466Y-156594882D01*
X159626561Y-156251834D01*
X159699000Y-155887656D01*
X159699000Y-155516344D01*
X159626561Y-155152166D01*
X159484466Y-154809118D01*
X159278175Y-154500382D01*
X159229793Y-154452000D01*
X160925928Y-154452000D01*
X160929000Y-155416250D01*
X161087750Y-155575000D01*
X162687000Y-155575000D01*
X162687000Y-153975750D01*
X162941000Y-153975750D01*
X162941000Y-155575000D01*
X164540250Y-155575000D01*
X164699000Y-155416250D01*
X164702072Y-154452000D01*
X164689812Y-154327518D01*
X164653502Y-154207820D01*
X164594537Y-154097506D01*
X164515185Y-154000815D01*
X164418494Y-153921463D01*
X164308180Y-153862498D01*
X164188482Y-153826188D01*
X164064000Y-153813928D01*
X163099750Y-153817000D01*
X162941000Y-153975750D01*
X162687000Y-153975750D01*
X162528250Y-153817000D01*
X161564000Y-153813928D01*
X161439518Y-153826188D01*
X161319820Y-153862498D01*
X161209506Y-153921463D01*
X161112815Y-154000815D01*
X161033463Y-154097506D01*
X160974498Y-154207820D01*
X160938188Y-154327518D01*
X160925928Y-154452000D01*
X159229793Y-154452000D01*
X159015618Y-154237825D01*
X158706882Y-154031534D01*
X158363834Y-153889439D01*
X157999656Y-153817000D01*
X157628344Y-153817000D01*
X157264166Y-153889439D01*
X156921118Y-154031534D01*
X156612382Y-154237825D01*
X156349825Y-154500382D01*
X156143534Y-154809118D01*
X156001439Y-155152166D01*
X155929000Y-155516344D01*
X154584000Y-155516344D01*
X154584000Y-139026000D01*
X155991928Y-139026000D01*
X156004188Y-139150482D01*
X156040498Y-139270180D01*
X156099463Y-139380494D01*
X156178815Y-139477185D01*
X156275506Y-139556537D01*
X156385820Y-139615502D01*
X156505518Y-139651812D01*
X156630000Y-139664072D01*
X157194250Y-139661000D01*
X157353000Y-139502250D01*
X157353000Y-138303000D01*
X157607000Y-138303000D01*
X157607000Y-139502250D01*
X157765750Y-139661000D01*
X158330000Y-139664072D01*
X158454482Y-139651812D01*
X158574180Y-139615502D01*
X158684494Y-139556537D01*
X158781185Y-139477185D01*
X158860537Y-139380494D01*
X158919502Y-139270180D01*
X158955812Y-139150482D01*
X158968072Y-139026000D01*
X158965000Y-138461750D01*
X158806250Y-138303000D01*
X157607000Y-138303000D01*
X157353000Y-138303000D01*
X156153750Y-138303000D01*
X155995000Y-138461750D01*
X155991928Y-139026000D01*
X154584000Y-139026000D01*
X154584000Y-137326000D01*
X155991928Y-137326000D01*
X155995000Y-137890250D01*
X156153750Y-138049000D01*
X157353000Y-138049000D01*
X157353000Y-136849750D01*
X157607000Y-136849750D01*
X157607000Y-138049000D01*
X158806250Y-138049000D01*
X158965000Y-137890250D01*
X158968072Y-137326000D01*
X168691928Y-137326000D01*
X168691928Y-139026000D01*
X168704188Y-139150482D01*
X168740498Y-139270180D01*
X168799463Y-139380494D01*
X168878815Y-139477185D01*
X168975506Y-139556537D01*
X169085820Y-139615502D01*
X169205518Y-139651812D01*
X169330000Y-139664072D01*
X171030000Y-139664072D01*
X171154482Y-139651812D01*
X171274180Y-139615502D01*
X171384494Y-139556537D01*
X171481185Y-139477185D01*
X171560537Y-139380494D01*
X171619502Y-139270180D01*
X171655812Y-139150482D01*
X171668072Y-139026000D01*
X171668072Y-137326000D01*
X181391928Y-137326000D01*
X181391928Y-139026000D01*
X181404188Y-139150482D01*
X181440498Y-139270180D01*
X181499463Y-139380494D01*
X181578815Y-139477185D01*
X181675506Y-139556537D01*
X181785820Y-139615502D01*
X181905518Y-139651812D01*
X182030000Y-139664072D01*
X183730000Y-139664072D01*
X183854482Y-139651812D01*
X183974180Y-139615502D01*
X184084494Y-139556537D01*
X184181185Y-139477185D01*
X184260537Y-139380494D01*
X184319502Y-139270180D01*
X184355812Y-139150482D01*
X184368072Y-139026000D01*
X184368072Y-137326000D01*
X184355812Y-137201518D01*
X184319502Y-137081820D01*
X184260537Y-136971506D01*
X184181185Y-136874815D01*
X184084494Y-136795463D01*
X183974180Y-136736498D01*
X183854482Y-136700188D01*
X183730000Y-136687928D01*
X182030000Y-136687928D01*
X181905518Y-136700188D01*
X181785820Y-136736498D01*
X181675506Y-136795463D01*
X181578815Y-136874815D01*
X181499463Y-136971506D01*
X181440498Y-137081820D01*
X181404188Y-137201518D01*
X181391928Y-137326000D01*
X171668072Y-137326000D01*
X171655812Y-137201518D01*
X171619502Y-137081820D01*
X171560537Y-136971506D01*
X171481185Y-136874815D01*
X171384494Y-136795463D01*
X171274180Y-136736498D01*
X171154482Y-136700188D01*
X171030000Y-136687928D01*
X169330000Y-136687928D01*
X169205518Y-136700188D01*
X169085820Y-136736498D01*
X168975506Y-136795463D01*
X168878815Y-136874815D01*
X168799463Y-136971506D01*
X168740498Y-137081820D01*
X168704188Y-137201518D01*
X168691928Y-137326000D01*
X158968072Y-137326000D01*
X158955812Y-137201518D01*
X158919502Y-137081820D01*
X158860537Y-136971506D01*
X158781185Y-136874815D01*
X158684494Y-136795463D01*
X158574180Y-136736498D01*
X158454482Y-136700188D01*
X158330000Y-136687928D01*
X157765750Y-136691000D01*
X157607000Y-136849750D01*
X157353000Y-136849750D01*
X157194250Y-136691000D01*
X156630000Y-136687928D01*
X156505518Y-136700188D01*
X156385820Y-136736498D01*
X156275506Y-136795463D01*
X156178815Y-136874815D01*
X156099463Y-136971506D01*
X156040498Y-137081820D01*
X156004188Y-137201518D01*
X155991928Y-137326000D01*
X154584000Y-137326000D01*
X154584000Y-120175872D01*
X167945000Y-120175872D01*
X167945000Y-120616128D01*
X168030890Y-121047925D01*
X168199369Y-121454669D01*
X168443962Y-121820729D01*
X168755271Y-122132038D01*
X169121331Y-122376631D01*
X169528075Y-122545110D01*
X169959872Y-122631000D01*
X170400128Y-122631000D01*
X170831925Y-122545110D01*
X171238669Y-122376631D01*
X171604729Y-122132038D01*
X171916038Y-121820729D01*
X172160631Y-121454669D01*
X172329110Y-121047925D01*
X172415000Y-120616128D01*
X172415000Y-120175872D01*
X172329110Y-119744075D01*
X172160631Y-119337331D01*
X171916038Y-118971271D01*
X171604729Y-118659962D01*
X171238669Y-118415369D01*
X170831925Y-118246890D01*
X170400128Y-118161000D01*
X169959872Y-118161000D01*
X169528075Y-118246890D01*
X169121331Y-118415369D01*
X168755271Y-118659962D01*
X168443962Y-118971271D01*
X168199369Y-119337331D01*
X168030890Y-119744075D01*
X167945000Y-120175872D01*
X154584000Y-120175872D01*
X154584000Y-91606000D01*
X163611928Y-91606000D01*
X163611928Y-93306000D01*
X163624188Y-93430482D01*
X163660498Y-93550180D01*
X163719463Y-93660494D01*
X163798815Y-93757185D01*
X163895506Y-93836537D01*
X164005820Y-93895502D01*
X164125518Y-93931812D01*
X164250000Y-93944072D01*
X165950000Y-93944072D01*
X166074482Y-93931812D01*
X166194180Y-93895502D01*
X166304494Y-93836537D01*
X166401185Y-93757185D01*
X166480537Y-93660494D01*
X166539502Y-93550180D01*
X166575812Y-93430482D01*
X166588072Y-93306000D01*
X166588072Y-91606000D01*
X181391928Y-91606000D01*
X181391928Y-93306000D01*
X181404188Y-93430482D01*
X181440498Y-93550180D01*
X181499463Y-93660494D01*
X181578815Y-93757185D01*
X181675506Y-93836537D01*
X181785820Y-93895502D01*
X181905518Y-93931812D01*
X182030000Y-93944072D01*
X183730000Y-93944072D01*
X183854482Y-93931812D01*
X183974180Y-93895502D01*
X184084494Y-93836537D01*
X184181185Y-93757185D01*
X184260537Y-93660494D01*
X184319502Y-93550180D01*
X184355812Y-93430482D01*
X184368072Y-93306000D01*
X184368072Y-91606000D01*
X184355812Y-91481518D01*
X184319502Y-91361820D01*
X184260537Y-91251506D01*
X184181185Y-91154815D01*
X184084494Y-91075463D01*
X183974180Y-91016498D01*
X183854482Y-90980188D01*
X183730000Y-90967928D01*
X182030000Y-90967928D01*
X181905518Y-90980188D01*
X181785820Y-91016498D01*
X181675506Y-91075463D01*
X181578815Y-91154815D01*
X181499463Y-91251506D01*
X181440498Y-91361820D01*
X181404188Y-91481518D01*
X181391928Y-91606000D01*
X166588072Y-91606000D01*
X166575812Y-91481518D01*
X166539502Y-91361820D01*
X166480537Y-91251506D01*
X166401185Y-91154815D01*
X166304494Y-91075463D01*
X166194180Y-91016498D01*
X166074482Y-90980188D01*
X165950000Y-90967928D01*
X164250000Y-90967928D01*
X164125518Y-90980188D01*
X164005820Y-91016498D01*
X163895506Y-91075463D01*
X163798815Y-91154815D01*
X163719463Y-91251506D01*
X163660498Y-91361820D01*
X163624188Y-91481518D01*
X163611928Y-91606000D01*
X154584000Y-91606000D01*
X154584000Y-67597872D01*
X156769000Y-67597872D01*
X156769000Y-68038128D01*
X156854890Y-68469925D01*
X157023369Y-68876669D01*
X157267962Y-69242729D01*
X157579271Y-69554038D01*
X157945331Y-69798631D01*
X158352075Y-69967110D01*
X158783872Y-70053000D01*
X159224128Y-70053000D01*
X159655925Y-69967110D01*
X160062669Y-69798631D01*
X160428729Y-69554038D01*
X160740038Y-69242729D01*
X160984631Y-68876669D01*
X161153110Y-68469925D01*
X161239000Y-68038128D01*
X161239000Y-67597872D01*
X161185717Y-67330000D01*
X164989928Y-67330000D01*
X164989928Y-69830000D01*
X165002188Y-69954482D01*
X165038498Y-70074180D01*
X165097463Y-70184494D01*
X165176815Y-70281185D01*
X165273506Y-70360537D01*
X165383820Y-70419502D01*
X165503518Y-70455812D01*
X165628000Y-70468072D01*
X168128000Y-70468072D01*
X168252482Y-70455812D01*
X168372180Y-70419502D01*
X168482494Y-70360537D01*
X168579185Y-70281185D01*
X168658537Y-70184494D01*
X168717502Y-70074180D01*
X168753812Y-69954482D01*
X168766072Y-69830000D01*
X168766072Y-68394344D01*
X169993000Y-68394344D01*
X169993000Y-68765656D01*
X170065439Y-69129834D01*
X170207534Y-69472882D01*
X170413825Y-69781618D01*
X170676382Y-70044175D01*
X170985118Y-70250466D01*
X171328166Y-70392561D01*
X171692344Y-70465000D01*
X172063656Y-70465000D01*
X172427834Y-70392561D01*
X172770882Y-70250466D01*
X173079618Y-70044175D01*
X173293793Y-69830000D01*
X177435928Y-69830000D01*
X177448188Y-69954482D01*
X177484498Y-70074180D01*
X177543463Y-70184494D01*
X177622815Y-70281185D01*
X177719506Y-70360537D01*
X177829820Y-70419502D01*
X177949518Y-70455812D01*
X178074000Y-70468072D01*
X179038250Y-70465000D01*
X179197000Y-70306250D01*
X179197000Y-68707000D01*
X179451000Y-68707000D01*
X179451000Y-70306250D01*
X179609750Y-70465000D01*
X180574000Y-70468072D01*
X180698482Y-70455812D01*
X180818180Y-70419502D01*
X180928494Y-70360537D01*
X181025185Y-70281185D01*
X181104537Y-70184494D01*
X181163502Y-70074180D01*
X181199812Y-69954482D01*
X181212072Y-69830000D01*
X181209000Y-68865750D01*
X181050250Y-68707000D01*
X179451000Y-68707000D01*
X179197000Y-68707000D01*
X177597750Y-68707000D01*
X177439000Y-68865750D01*
X177435928Y-69830000D01*
X173293793Y-69830000D01*
X173342175Y-69781618D01*
X173548466Y-69472882D01*
X173690561Y-69129834D01*
X173763000Y-68765656D01*
X173763000Y-68394344D01*
X173690561Y-68030166D01*
X173548466Y-67687118D01*
X173342175Y-67378382D01*
X173293793Y-67330000D01*
X177435928Y-67330000D01*
X177439000Y-68294250D01*
X177597750Y-68453000D01*
X179197000Y-68453000D01*
X179197000Y-66853750D01*
X179451000Y-66853750D01*
X179451000Y-68453000D01*
X181050250Y-68453000D01*
X181108906Y-68394344D01*
X182439000Y-68394344D01*
X182439000Y-68765656D01*
X182511439Y-69129834D01*
X182653534Y-69472882D01*
X182859825Y-69781618D01*
X183122382Y-70044175D01*
X183431118Y-70250466D01*
X183774166Y-70392561D01*
X184138344Y-70465000D01*
X184509656Y-70465000D01*
X184873834Y-70392561D01*
X185216882Y-70250466D01*
X185525618Y-70044175D01*
X185739793Y-69830000D01*
X189119928Y-69830000D01*
X189132188Y-69954482D01*
X189168498Y-70074180D01*
X189227463Y-70184494D01*
X189306815Y-70281185D01*
X189403506Y-70360537D01*
X189513820Y-70419502D01*
X189633518Y-70455812D01*
X189758000Y-70468072D01*
X190722250Y-70465000D01*
X190881000Y-70306250D01*
X190881000Y-68707000D01*
X191135000Y-68707000D01*
X191135000Y-70306250D01*
X191293750Y-70465000D01*
X192258000Y-70468072D01*
X192382482Y-70455812D01*
X192502180Y-70419502D01*
X192612494Y-70360537D01*
X192709185Y-70281185D01*
X192788537Y-70184494D01*
X192847502Y-70074180D01*
X192883812Y-69954482D01*
X192896072Y-69830000D01*
X192893000Y-68865750D01*
X192734250Y-68707000D01*
X191135000Y-68707000D01*
X190881000Y-68707000D01*
X189281750Y-68707000D01*
X189123000Y-68865750D01*
X189119928Y-69830000D01*
X185739793Y-69830000D01*
X185788175Y-69781618D01*
X185994466Y-69472882D01*
X186136561Y-69129834D01*
X186209000Y-68765656D01*
X186209000Y-68394344D01*
X186136561Y-68030166D01*
X185994466Y-67687118D01*
X185788175Y-67378382D01*
X185739793Y-67330000D01*
X189119928Y-67330000D01*
X189123000Y-68294250D01*
X189281750Y-68453000D01*
X190881000Y-68453000D01*
X190881000Y-66853750D01*
X191135000Y-66853750D01*
X191135000Y-68453000D01*
X192734250Y-68453000D01*
X192792906Y-68394344D01*
X194123000Y-68394344D01*
X194123000Y-68765656D01*
X194195439Y-69129834D01*
X194337534Y-69472882D01*
X194543825Y-69781618D01*
X194806382Y-70044175D01*
X195115118Y-70250466D01*
X195458166Y-70392561D01*
X195822344Y-70465000D01*
X196193656Y-70465000D01*
X196557834Y-70392561D01*
X196900882Y-70250466D01*
X197209618Y-70044175D01*
X197472175Y-69781618D01*
X197678466Y-69472882D01*
X197820561Y-69129834D01*
X197893000Y-68765656D01*
X197893000Y-68394344D01*
X197820561Y-68030166D01*
X197678466Y-67687118D01*
X197618834Y-67597872D01*
X199441000Y-67597872D01*
X199441000Y-68038128D01*
X199526890Y-68469925D01*
X199695369Y-68876669D01*
X199939962Y-69242729D01*
X200251271Y-69554038D01*
X200617331Y-69798631D01*
X201024075Y-69967110D01*
X201455872Y-70053000D01*
X201896128Y-70053000D01*
X202327925Y-69967110D01*
X202734669Y-69798631D01*
X203100729Y-69554038D01*
X203412038Y-69242729D01*
X203656631Y-68876669D01*
X203825110Y-68469925D01*
X203911000Y-68038128D01*
X203911000Y-67597872D01*
X203825110Y-67166075D01*
X203656631Y-66759331D01*
X203412038Y-66393271D01*
X203100729Y-66081962D01*
X202734669Y-65837369D01*
X202327925Y-65668890D01*
X201896128Y-65583000D01*
X201455872Y-65583000D01*
X201024075Y-65668890D01*
X200617331Y-65837369D01*
X200251271Y-66081962D01*
X199939962Y-66393271D01*
X199695369Y-66759331D01*
X199526890Y-67166075D01*
X199441000Y-67597872D01*
X197618834Y-67597872D01*
X197472175Y-67378382D01*
X197209618Y-67115825D01*
X196900882Y-66909534D01*
X196557834Y-66767439D01*
X196193656Y-66695000D01*
X195822344Y-66695000D01*
X195458166Y-66767439D01*
X195115118Y-66909534D01*
X194806382Y-67115825D01*
X194543825Y-67378382D01*
X194337534Y-67687118D01*
X194195439Y-68030166D01*
X194123000Y-68394344D01*
X192792906Y-68394344D01*
X192893000Y-68294250D01*
X192896072Y-67330000D01*
X192883812Y-67205518D01*
X192847502Y-67085820D01*
X192788537Y-66975506D01*
X192709185Y-66878815D01*
X192612494Y-66799463D01*
X192502180Y-66740498D01*
X192382482Y-66704188D01*
X192258000Y-66691928D01*
X191293750Y-66695000D01*
X191135000Y-66853750D01*
X190881000Y-66853750D01*
X190722250Y-66695000D01*
X189758000Y-66691928D01*
X189633518Y-66704188D01*
X189513820Y-66740498D01*
X189403506Y-66799463D01*
X189306815Y-66878815D01*
X189227463Y-66975506D01*
X189168498Y-67085820D01*
X189132188Y-67205518D01*
X189119928Y-67330000D01*
X185739793Y-67330000D01*
X185525618Y-67115825D01*
X185216882Y-66909534D01*
X184873834Y-66767439D01*
X184509656Y-66695000D01*
X184138344Y-66695000D01*
X183774166Y-66767439D01*
X183431118Y-66909534D01*
X183122382Y-67115825D01*
X182859825Y-67378382D01*
X182653534Y-67687118D01*
X182511439Y-68030166D01*
X182439000Y-68394344D01*
X181108906Y-68394344D01*
X181209000Y-68294250D01*
X181212072Y-67330000D01*
X181199812Y-67205518D01*
X181163502Y-67085820D01*
X181104537Y-66975506D01*
X181025185Y-66878815D01*
X180928494Y-66799463D01*
X180818180Y-66740498D01*
X180698482Y-66704188D01*
X180574000Y-66691928D01*
X179609750Y-66695000D01*
X179451000Y-66853750D01*
X179197000Y-66853750D01*
X179038250Y-66695000D01*
X178074000Y-66691928D01*
X177949518Y-66704188D01*
X177829820Y-66740498D01*
X177719506Y-66799463D01*
X177622815Y-66878815D01*
X177543463Y-66975506D01*
X177484498Y-67085820D01*
X177448188Y-67205518D01*
X177435928Y-67330000D01*
X173293793Y-67330000D01*
X173079618Y-67115825D01*
X172770882Y-66909534D01*
X172427834Y-66767439D01*
X172063656Y-66695000D01*
X171692344Y-66695000D01*
X171328166Y-66767439D01*
X170985118Y-66909534D01*
X170676382Y-67115825D01*
X170413825Y-67378382D01*
X170207534Y-67687118D01*
X170065439Y-68030166D01*
X169993000Y-68394344D01*
X168766072Y-68394344D01*
X168766072Y-67330000D01*
X168753812Y-67205518D01*
X168717502Y-67085820D01*
X168658537Y-66975506D01*
X168579185Y-66878815D01*
X168482494Y-66799463D01*
X168372180Y-66740498D01*
X168252482Y-66704188D01*
X168128000Y-66691928D01*
X165628000Y-66691928D01*
X165503518Y-66704188D01*
X165383820Y-66740498D01*
X165273506Y-66799463D01*
X165176815Y-66878815D01*
X165097463Y-66975506D01*
X165038498Y-67085820D01*
X165002188Y-67205518D01*
X164989928Y-67330000D01*
X161185717Y-67330000D01*
X161153110Y-67166075D01*
X160984631Y-66759331D01*
X160740038Y-66393271D01*
X160428729Y-66081962D01*
X160062669Y-65837369D01*
X159655925Y-65668890D01*
X159224128Y-65583000D01*
X158783872Y-65583000D01*
X158352075Y-65668890D01*
X157945331Y-65837369D01*
X157579271Y-66081962D01*
X157267962Y-66393271D01*
X157023369Y-66759331D01*
X156854890Y-67166075D01*
X156769000Y-67597872D01*
X154584000Y-67597872D01*
X154584000Y-63652000D01*
X205080000Y-63652000D01*
X205080001Y-160630000D01*
X205080001Y-160630000D01*
G37*
X205080001Y-160630000D02*
X197574532Y-160630000D01*
X197651134Y-160567134D01*
X197836706Y-160341014D01*
X197974599Y-160083034D01*
X198059513Y-159803111D01*
X198088185Y-159512000D01*
X198059513Y-159220889D01*
X197974599Y-158940966D01*
X197836706Y-158682986D01*
X197651134Y-158456866D01*
X197621313Y-158432393D01*
X197690180Y-158411502D01*
X197800494Y-158352537D01*
X197897185Y-158273185D01*
X197976537Y-158176494D01*
X198035502Y-158066180D01*
X198071812Y-157946482D01*
X198084072Y-157822000D01*
X198081012Y-157259872D01*
X199441000Y-157259872D01*
X199441000Y-157700128D01*
X199526890Y-158131925D01*
X199695369Y-158538669D01*
X199939962Y-158904729D01*
X200251271Y-159216038D01*
X200617331Y-159460631D01*
X201024075Y-159629110D01*
X201455872Y-159715000D01*
X201896128Y-159715000D01*
X202327925Y-159629110D01*
X202734669Y-159460631D01*
X203100729Y-159216038D01*
X203412038Y-158904729D01*
X203656631Y-158538669D01*
X203825110Y-158131925D01*
X203911000Y-157700128D01*
X203911000Y-157259872D01*
X203825110Y-156828075D01*
X203656631Y-156421331D01*
X203412038Y-156055271D01*
X203100729Y-155743962D01*
X202734669Y-155499369D01*
X202327925Y-155330890D01*
X201896128Y-155245000D01*
X201455872Y-155245000D01*
X201024075Y-155330890D01*
X200617331Y-155499369D01*
X200251271Y-155743962D01*
X199939962Y-156055271D01*
X199695369Y-156421331D01*
X199526890Y-156828075D01*
X199441000Y-157259872D01*
X198081012Y-157259872D01*
X198081000Y-157257750D01*
X197922250Y-157099000D01*
X196723000Y-157099000D01*
X196723000Y-157119000D01*
X196469000Y-157119000D01*
X196469000Y-157099000D01*
X194183000Y-157099000D01*
X194183000Y-157119000D01*
X193929000Y-157119000D01*
X193929000Y-157099000D01*
X191643000Y-157099000D01*
X191643000Y-157119000D01*
X191389000Y-157119000D01*
X191389000Y-157099000D01*
X189103000Y-157099000D01*
X189103000Y-157119000D01*
X188849000Y-157119000D01*
X188849000Y-157099000D01*
X187655186Y-157099000D01*
X187534519Y-157328891D01*
X187631843Y-157603252D01*
X187780822Y-157853355D01*
X187975731Y-158069588D01*
X188204756Y-158240416D01*
X188146986Y-158271294D01*
X187920866Y-158456866D01*
X187735294Y-158682986D01*
X187597401Y-158940966D01*
X187512487Y-159220889D01*
X187483815Y-159512000D01*
X187512487Y-159803111D01*
X187597401Y-160083034D01*
X187735294Y-160341014D01*
X187920866Y-160567134D01*
X187997468Y-160630000D01*
X181826532Y-160630000D01*
X181903134Y-160567134D01*
X182088706Y-160341014D01*
X182226599Y-160083034D01*
X182311513Y-159803111D01*
X182340185Y-159512000D01*
X182311513Y-159220889D01*
X182226599Y-158940966D01*
X182088706Y-158682986D01*
X181903134Y-158456866D01*
X181873313Y-158432393D01*
X181942180Y-158411502D01*
X182052494Y-158352537D01*
X182149185Y-158273185D01*
X182228537Y-158176494D01*
X182287502Y-158066180D01*
X182323812Y-157946482D01*
X182336072Y-157822000D01*
X182333000Y-157257750D01*
X182174250Y-157099000D01*
X180975000Y-157099000D01*
X180975000Y-157119000D01*
X180721000Y-157119000D01*
X180721000Y-157099000D01*
X178435000Y-157099000D01*
X178435000Y-157119000D01*
X178181000Y-157119000D01*
X178181000Y-157099000D01*
X175895000Y-157099000D01*
X175895000Y-157119000D01*
X175641000Y-157119000D01*
X175641000Y-157099000D01*
X173355000Y-157099000D01*
X173355000Y-157119000D01*
X173101000Y-157119000D01*
X173101000Y-157099000D01*
X171907186Y-157099000D01*
X171786519Y-157328891D01*
X171883843Y-157603252D01*
X172032822Y-157853355D01*
X172227731Y-158069588D01*
X172456756Y-158240416D01*
X172398986Y-158271294D01*
X172172866Y-158456866D01*
X171987294Y-158682986D01*
X171849401Y-158940966D01*
X171764487Y-159220889D01*
X171735815Y-159512000D01*
X171764487Y-159803111D01*
X171849401Y-160083034D01*
X171987294Y-160341014D01*
X172172866Y-160567134D01*
X172249468Y-160630000D01*
X154584000Y-160630000D01*
X154584000Y-155516344D01*
X155929000Y-155516344D01*
X155929000Y-155887656D01*
X156001439Y-156251834D01*
X156143534Y-156594882D01*
X156349825Y-156903618D01*
X156612382Y-157166175D01*
X156921118Y-157372466D01*
X157264166Y-157514561D01*
X157628344Y-157587000D01*
X157999656Y-157587000D01*
X158363834Y-157514561D01*
X158706882Y-157372466D01*
X159015618Y-157166175D01*
X159229793Y-156952000D01*
X160925928Y-156952000D01*
X160938188Y-157076482D01*
X160974498Y-157196180D01*
X161033463Y-157306494D01*
X161112815Y-157403185D01*
X161209506Y-157482537D01*
X161319820Y-157541502D01*
X161439518Y-157577812D01*
X161564000Y-157590072D01*
X162528250Y-157587000D01*
X162687000Y-157428250D01*
X162687000Y-155829000D01*
X162941000Y-155829000D01*
X162941000Y-157428250D01*
X163099750Y-157587000D01*
X164064000Y-157590072D01*
X164188482Y-157577812D01*
X164308180Y-157541502D01*
X164418494Y-157482537D01*
X164515185Y-157403185D01*
X164594537Y-157306494D01*
X164653502Y-157196180D01*
X164689812Y-157076482D01*
X164702072Y-156952000D01*
X164700999Y-156615109D01*
X171786519Y-156615109D01*
X171907186Y-156845000D01*
X173101000Y-156845000D01*
X173101000Y-155651845D01*
X173355000Y-155651845D01*
X173355000Y-156845000D01*
X175641000Y-156845000D01*
X175641000Y-155651845D01*
X175895000Y-155651845D01*
X175895000Y-156845000D01*
X178181000Y-156845000D01*
X178181000Y-155651845D01*
X178435000Y-155651845D01*
X178435000Y-156845000D01*
X180721000Y-156845000D01*
X180721000Y-155645750D01*
X180975000Y-155645750D01*
X180975000Y-156845000D01*
X182174250Y-156845000D01*
X182333000Y-156686250D01*
X182333387Y-156615109D01*
X187534519Y-156615109D01*
X187655186Y-156845000D01*
X188849000Y-156845000D01*
X188849000Y-155651845D01*
X189103000Y-155651845D01*
X189103000Y-156845000D01*
X191389000Y-156845000D01*
X191389000Y-155651845D01*
X191643000Y-155651845D01*
X191643000Y-156845000D01*
X193929000Y-156845000D01*
X193929000Y-155651845D01*
X194183000Y-155651845D01*
X194183000Y-156845000D01*
X196469000Y-156845000D01*
X196469000Y-155645750D01*
X196723000Y-155645750D01*
X196723000Y-156845000D01*
X197922250Y-156845000D01*
X198081000Y-156686250D01*
X198084072Y-156122000D01*
X198071812Y-155997518D01*
X198035502Y-155877820D01*
X197976537Y-155767506D01*
X197897185Y-155670815D01*
X197800494Y-155591463D01*
X197690180Y-155532498D01*
X197570482Y-155496188D01*
X197446000Y-155483928D01*
X196881750Y-155487000D01*
X196723000Y-155645750D01*
X196469000Y-155645750D01*
X196310250Y-155487000D01*
X195746000Y-155483928D01*
X195621518Y-155496188D01*
X195501820Y-155532498D01*
X195391506Y-155591463D01*
X195294815Y-155670815D01*
X195215463Y-155767506D01*
X195156498Y-155877820D01*
X195132034Y-155958466D01*
X195056269Y-155874412D01*
X194822920Y-155700359D01*
X194560099Y-155575175D01*
X194412890Y-155530524D01*
X194183000Y-155651845D01*
X193929000Y-155651845D01*
X193699110Y-155530524D01*
X193551901Y-155575175D01*
X193289080Y-155700359D01*
X193055731Y-155874412D01*
X192860822Y-156090645D01*
X192786000Y-156216255D01*
X192711178Y-156090645D01*
X192516269Y-155874412D01*
X192282920Y-155700359D01*
X192020099Y-155575175D01*
X191872890Y-155530524D01*
X191643000Y-155651845D01*
X191389000Y-155651845D01*
X191159110Y-155530524D01*
X191011901Y-155575175D01*
X190749080Y-155700359D01*
X190515731Y-155874412D01*
X190320822Y-156090645D01*
X190246000Y-156216255D01*
X190171178Y-156090645D01*
X189976269Y-155874412D01*
X189742920Y-155700359D01*
X189480099Y-155575175D01*
X189332890Y-155530524D01*
X189103000Y-155651845D01*
X188849000Y-155651845D01*
X188619110Y-155530524D01*
X188471901Y-155575175D01*
X188209080Y-155700359D01*
X187975731Y-155874412D01*
X187780822Y-156090645D01*
X187631843Y-156340748D01*
X187534519Y-156615109D01*
X182333387Y-156615109D01*
X182336072Y-156122000D01*
X182323812Y-155997518D01*
X182287502Y-155877820D01*
X182228537Y-155767506D01*
X182149185Y-155670815D01*
X182052494Y-155591463D01*
X181942180Y-155532498D01*
X181822482Y-155496188D01*
X181698000Y-155483928D01*
X181133750Y-155487000D01*
X180975000Y-155645750D01*
X180721000Y-155645750D01*
X180562250Y-155487000D01*
X179998000Y-155483928D01*
X179873518Y-155496188D01*
X179753820Y-155532498D01*
X179643506Y-155591463D01*
X179546815Y-155670815D01*
X179467463Y-155767506D01*
X179408498Y-155877820D01*
X179384034Y-155958466D01*
X179308269Y-155874412D01*
X179074920Y-155700359D01*
X178812099Y-155575175D01*
X178664890Y-155530524D01*
X178435000Y-155651845D01*
X178181000Y-155651845D01*
X177951110Y-155530524D01*
X177803901Y-155575175D01*
X177541080Y-155700359D01*
X177307731Y-155874412D01*
X177112822Y-156090645D01*
X177038000Y-156216255D01*
X176963178Y-156090645D01*
X176768269Y-155874412D01*
X176534920Y-155700359D01*
X176272099Y-155575175D01*
X176124890Y-155530524D01*
X175895000Y-155651845D01*
X175641000Y-155651845D01*
X175411110Y-155530524D01*
X175263901Y-155575175D01*
X175001080Y-155700359D01*
X174767731Y-155874412D01*
X174572822Y-156090645D01*
X174498000Y-156216255D01*
X174423178Y-156090645D01*
X174228269Y-155874412D01*
X173994920Y-155700359D01*
X173732099Y-155575175D01*
X173584890Y-155530524D01*
X173355000Y-155651845D01*
X173101000Y-155651845D01*
X172871110Y-155530524D01*
X172723901Y-155575175D01*
X172461080Y-155700359D01*
X172227731Y-155874412D01*
X172032822Y-156090645D01*
X171883843Y-156340748D01*
X171786519Y-156615109D01*
X164700999Y-156615109D01*
X164699000Y-155987750D01*
X164540250Y-155829000D01*
X162941000Y-155829000D01*
X162687000Y-155829000D01*
X161087750Y-155829000D01*
X160929000Y-155987750D01*
X160925928Y-156952000D01*
X159229793Y-156952000D01*
X159278175Y-156903618D01*
X159484466Y-156594882D01*
X159626561Y-156251834D01*
X159699000Y-155887656D01*
X159699000Y-155516344D01*
X159626561Y-155152166D01*
X159484466Y-154809118D01*
X159278175Y-154500382D01*
X159229793Y-154452000D01*
X160925928Y-154452000D01*
X160929000Y-155416250D01*
X161087750Y-155575000D01*
X162687000Y-155575000D01*
X162687000Y-153975750D01*
X162941000Y-153975750D01*
X162941000Y-155575000D01*
X164540250Y-155575000D01*
X164699000Y-155416250D01*
X164702072Y-154452000D01*
X164689812Y-154327518D01*
X164653502Y-154207820D01*
X164594537Y-154097506D01*
X164515185Y-154000815D01*
X164418494Y-153921463D01*
X164308180Y-153862498D01*
X164188482Y-153826188D01*
X164064000Y-153813928D01*
X163099750Y-153817000D01*
X162941000Y-153975750D01*
X162687000Y-153975750D01*
X162528250Y-153817000D01*
X161564000Y-153813928D01*
X161439518Y-153826188D01*
X161319820Y-153862498D01*
X161209506Y-153921463D01*
X161112815Y-154000815D01*
X161033463Y-154097506D01*
X160974498Y-154207820D01*
X160938188Y-154327518D01*
X160925928Y-154452000D01*
X159229793Y-154452000D01*
X159015618Y-154237825D01*
X158706882Y-154031534D01*
X158363834Y-153889439D01*
X157999656Y-153817000D01*
X157628344Y-153817000D01*
X157264166Y-153889439D01*
X156921118Y-154031534D01*
X156612382Y-154237825D01*
X156349825Y-154500382D01*
X156143534Y-154809118D01*
X156001439Y-155152166D01*
X155929000Y-155516344D01*
X154584000Y-155516344D01*
X154584000Y-139026000D01*
X155991928Y-139026000D01*
X156004188Y-139150482D01*
X156040498Y-139270180D01*
X156099463Y-139380494D01*
X156178815Y-139477185D01*
X156275506Y-139556537D01*
X156385820Y-139615502D01*
X156505518Y-139651812D01*
X156630000Y-139664072D01*
X157194250Y-139661000D01*
X157353000Y-139502250D01*
X157353000Y-138303000D01*
X157607000Y-138303000D01*
X157607000Y-139502250D01*
X157765750Y-139661000D01*
X158330000Y-139664072D01*
X158454482Y-139651812D01*
X158574180Y-139615502D01*
X158684494Y-139556537D01*
X158781185Y-139477185D01*
X158860537Y-139380494D01*
X158919502Y-139270180D01*
X158955812Y-139150482D01*
X158968072Y-139026000D01*
X158965000Y-138461750D01*
X158806250Y-138303000D01*
X157607000Y-138303000D01*
X157353000Y-138303000D01*
X156153750Y-138303000D01*
X155995000Y-138461750D01*
X155991928Y-139026000D01*
X154584000Y-139026000D01*
X154584000Y-137326000D01*
X155991928Y-137326000D01*
X155995000Y-137890250D01*
X156153750Y-138049000D01*
X157353000Y-138049000D01*
X157353000Y-136849750D01*
X157607000Y-136849750D01*
X157607000Y-138049000D01*
X158806250Y-138049000D01*
X158965000Y-137890250D01*
X158968072Y-137326000D01*
X168691928Y-137326000D01*
X168691928Y-139026000D01*
X168704188Y-139150482D01*
X168740498Y-139270180D01*
X168799463Y-139380494D01*
X168878815Y-139477185D01*
X168975506Y-139556537D01*
X169085820Y-139615502D01*
X169205518Y-139651812D01*
X169330000Y-139664072D01*
X171030000Y-139664072D01*
X171154482Y-139651812D01*
X171274180Y-139615502D01*
X171384494Y-139556537D01*
X171481185Y-139477185D01*
X171560537Y-139380494D01*
X171619502Y-139270180D01*
X171655812Y-139150482D01*
X171668072Y-139026000D01*
X171668072Y-137326000D01*
X181391928Y-137326000D01*
X181391928Y-139026000D01*
X181404188Y-139150482D01*
X181440498Y-139270180D01*
X181499463Y-139380494D01*
X181578815Y-139477185D01*
X181675506Y-139556537D01*
X181785820Y-139615502D01*
X181905518Y-139651812D01*
X182030000Y-139664072D01*
X183730000Y-139664072D01*
X183854482Y-139651812D01*
X183974180Y-139615502D01*
X184084494Y-139556537D01*
X184181185Y-139477185D01*
X184260537Y-139380494D01*
X184319502Y-139270180D01*
X184355812Y-139150482D01*
X184368072Y-139026000D01*
X184368072Y-137326000D01*
X184355812Y-137201518D01*
X184319502Y-137081820D01*
X184260537Y-136971506D01*
X184181185Y-136874815D01*
X184084494Y-136795463D01*
X183974180Y-136736498D01*
X183854482Y-136700188D01*
X183730000Y-136687928D01*
X182030000Y-136687928D01*
X181905518Y-136700188D01*
X181785820Y-136736498D01*
X181675506Y-136795463D01*
X181578815Y-136874815D01*
X181499463Y-136971506D01*
X181440498Y-137081820D01*
X181404188Y-137201518D01*
X181391928Y-137326000D01*
X171668072Y-137326000D01*
X171655812Y-137201518D01*
X171619502Y-137081820D01*
X171560537Y-136971506D01*
X171481185Y-136874815D01*
X171384494Y-136795463D01*
X171274180Y-136736498D01*
X171154482Y-136700188D01*
X171030000Y-136687928D01*
X169330000Y-136687928D01*
X169205518Y-136700188D01*
X169085820Y-136736498D01*
X168975506Y-136795463D01*
X168878815Y-136874815D01*
X168799463Y-136971506D01*
X168740498Y-137081820D01*
X168704188Y-137201518D01*
X168691928Y-137326000D01*
X158968072Y-137326000D01*
X158955812Y-137201518D01*
X158919502Y-137081820D01*
X158860537Y-136971506D01*
X158781185Y-136874815D01*
X158684494Y-136795463D01*
X158574180Y-136736498D01*
X158454482Y-136700188D01*
X158330000Y-136687928D01*
X157765750Y-136691000D01*
X157607000Y-136849750D01*
X157353000Y-136849750D01*
X157194250Y-136691000D01*
X156630000Y-136687928D01*
X156505518Y-136700188D01*
X156385820Y-136736498D01*
X156275506Y-136795463D01*
X156178815Y-136874815D01*
X156099463Y-136971506D01*
X156040498Y-137081820D01*
X156004188Y-137201518D01*
X155991928Y-137326000D01*
X154584000Y-137326000D01*
X154584000Y-120175872D01*
X167945000Y-120175872D01*
X167945000Y-120616128D01*
X168030890Y-121047925D01*
X168199369Y-121454669D01*
X168443962Y-121820729D01*
X168755271Y-122132038D01*
X169121331Y-122376631D01*
X169528075Y-122545110D01*
X169959872Y-122631000D01*
X170400128Y-122631000D01*
X170831925Y-122545110D01*
X171238669Y-122376631D01*
X171604729Y-122132038D01*
X171916038Y-121820729D01*
X172160631Y-121454669D01*
X172329110Y-121047925D01*
X172415000Y-120616128D01*
X172415000Y-120175872D01*
X172329110Y-119744075D01*
X172160631Y-119337331D01*
X171916038Y-118971271D01*
X171604729Y-118659962D01*
X171238669Y-118415369D01*
X170831925Y-118246890D01*
X170400128Y-118161000D01*
X169959872Y-118161000D01*
X169528075Y-118246890D01*
X169121331Y-118415369D01*
X168755271Y-118659962D01*
X168443962Y-118971271D01*
X168199369Y-119337331D01*
X168030890Y-119744075D01*
X167945000Y-120175872D01*
X154584000Y-120175872D01*
X154584000Y-91606000D01*
X163611928Y-91606000D01*
X163611928Y-93306000D01*
X163624188Y-93430482D01*
X163660498Y-93550180D01*
X163719463Y-93660494D01*
X163798815Y-93757185D01*
X163895506Y-93836537D01*
X164005820Y-93895502D01*
X164125518Y-93931812D01*
X164250000Y-93944072D01*
X165950000Y-93944072D01*
X166074482Y-93931812D01*
X166194180Y-93895502D01*
X166304494Y-93836537D01*
X166401185Y-93757185D01*
X166480537Y-93660494D01*
X166539502Y-93550180D01*
X166575812Y-93430482D01*
X166588072Y-93306000D01*
X166588072Y-91606000D01*
X181391928Y-91606000D01*
X181391928Y-93306000D01*
X181404188Y-93430482D01*
X181440498Y-93550180D01*
X181499463Y-93660494D01*
X181578815Y-93757185D01*
X181675506Y-93836537D01*
X181785820Y-93895502D01*
X181905518Y-93931812D01*
X182030000Y-93944072D01*
X183730000Y-93944072D01*
X183854482Y-93931812D01*
X183974180Y-93895502D01*
X184084494Y-93836537D01*
X184181185Y-93757185D01*
X184260537Y-93660494D01*
X184319502Y-93550180D01*
X184355812Y-93430482D01*
X184368072Y-93306000D01*
X184368072Y-91606000D01*
X184355812Y-91481518D01*
X184319502Y-91361820D01*
X184260537Y-91251506D01*
X184181185Y-91154815D01*
X184084494Y-91075463D01*
X183974180Y-91016498D01*
X183854482Y-90980188D01*
X183730000Y-90967928D01*
X182030000Y-90967928D01*
X181905518Y-90980188D01*
X181785820Y-91016498D01*
X181675506Y-91075463D01*
X181578815Y-91154815D01*
X181499463Y-91251506D01*
X181440498Y-91361820D01*
X181404188Y-91481518D01*
X181391928Y-91606000D01*
X166588072Y-91606000D01*
X166575812Y-91481518D01*
X166539502Y-91361820D01*
X166480537Y-91251506D01*
X166401185Y-91154815D01*
X166304494Y-91075463D01*
X166194180Y-91016498D01*
X166074482Y-90980188D01*
X165950000Y-90967928D01*
X164250000Y-90967928D01*
X164125518Y-90980188D01*
X164005820Y-91016498D01*
X163895506Y-91075463D01*
X163798815Y-91154815D01*
X163719463Y-91251506D01*
X163660498Y-91361820D01*
X163624188Y-91481518D01*
X163611928Y-91606000D01*
X154584000Y-91606000D01*
X154584000Y-67597872D01*
X156769000Y-67597872D01*
X156769000Y-68038128D01*
X156854890Y-68469925D01*
X157023369Y-68876669D01*
X157267962Y-69242729D01*
X157579271Y-69554038D01*
X157945331Y-69798631D01*
X158352075Y-69967110D01*
X158783872Y-70053000D01*
X159224128Y-70053000D01*
X159655925Y-69967110D01*
X160062669Y-69798631D01*
X160428729Y-69554038D01*
X160740038Y-69242729D01*
X160984631Y-68876669D01*
X161153110Y-68469925D01*
X161239000Y-68038128D01*
X161239000Y-67597872D01*
X161185717Y-67330000D01*
X164989928Y-67330000D01*
X164989928Y-69830000D01*
X165002188Y-69954482D01*
X165038498Y-70074180D01*
X165097463Y-70184494D01*
X165176815Y-70281185D01*
X165273506Y-70360537D01*
X165383820Y-70419502D01*
X165503518Y-70455812D01*
X165628000Y-70468072D01*
X168128000Y-70468072D01*
X168252482Y-70455812D01*
X168372180Y-70419502D01*
X168482494Y-70360537D01*
X168579185Y-70281185D01*
X168658537Y-70184494D01*
X168717502Y-70074180D01*
X168753812Y-69954482D01*
X168766072Y-69830000D01*
X168766072Y-68394344D01*
X169993000Y-68394344D01*
X169993000Y-68765656D01*
X170065439Y-69129834D01*
X170207534Y-69472882D01*
X170413825Y-69781618D01*
X170676382Y-70044175D01*
X170985118Y-70250466D01*
X171328166Y-70392561D01*
X171692344Y-70465000D01*
X172063656Y-70465000D01*
X172427834Y-70392561D01*
X172770882Y-70250466D01*
X173079618Y-70044175D01*
X173293793Y-69830000D01*
X177435928Y-69830000D01*
X177448188Y-69954482D01*
X177484498Y-70074180D01*
X177543463Y-70184494D01*
X177622815Y-70281185D01*
X177719506Y-70360537D01*
X177829820Y-70419502D01*
X177949518Y-70455812D01*
X178074000Y-70468072D01*
X179038250Y-70465000D01*
X179197000Y-70306250D01*
X179197000Y-68707000D01*
X179451000Y-68707000D01*
X179451000Y-70306250D01*
X179609750Y-70465000D01*
X180574000Y-70468072D01*
X180698482Y-70455812D01*
X180818180Y-70419502D01*
X180928494Y-70360537D01*
X181025185Y-70281185D01*
X181104537Y-70184494D01*
X181163502Y-70074180D01*
X181199812Y-69954482D01*
X181212072Y-69830000D01*
X181209000Y-68865750D01*
X181050250Y-68707000D01*
X179451000Y-68707000D01*
X179197000Y-68707000D01*
X177597750Y-68707000D01*
X177439000Y-68865750D01*
X177435928Y-69830000D01*
X173293793Y-69830000D01*
X173342175Y-69781618D01*
X173548466Y-69472882D01*
X173690561Y-69129834D01*
X173763000Y-68765656D01*
X173763000Y-68394344D01*
X173690561Y-68030166D01*
X173548466Y-67687118D01*
X173342175Y-67378382D01*
X173293793Y-67330000D01*
X177435928Y-67330000D01*
X177439000Y-68294250D01*
X177597750Y-68453000D01*
X179197000Y-68453000D01*
X179197000Y-66853750D01*
X179451000Y-66853750D01*
X179451000Y-68453000D01*
X181050250Y-68453000D01*
X181108906Y-68394344D01*
X182439000Y-68394344D01*
X182439000Y-68765656D01*
X182511439Y-69129834D01*
X182653534Y-69472882D01*
X182859825Y-69781618D01*
X183122382Y-70044175D01*
X183431118Y-70250466D01*
X183774166Y-70392561D01*
X184138344Y-70465000D01*
X184509656Y-70465000D01*
X184873834Y-70392561D01*
X185216882Y-70250466D01*
X185525618Y-70044175D01*
X185739793Y-69830000D01*
X189119928Y-69830000D01*
X189132188Y-69954482D01*
X189168498Y-70074180D01*
X189227463Y-70184494D01*
X189306815Y-70281185D01*
X189403506Y-70360537D01*
X189513820Y-70419502D01*
X189633518Y-70455812D01*
X189758000Y-70468072D01*
X190722250Y-70465000D01*
X190881000Y-70306250D01*
X190881000Y-68707000D01*
X191135000Y-68707000D01*
X191135000Y-70306250D01*
X191293750Y-70465000D01*
X192258000Y-70468072D01*
X192382482Y-70455812D01*
X192502180Y-70419502D01*
X192612494Y-70360537D01*
X192709185Y-70281185D01*
X192788537Y-70184494D01*
X192847502Y-70074180D01*
X192883812Y-69954482D01*
X192896072Y-69830000D01*
X192893000Y-68865750D01*
X192734250Y-68707000D01*
X191135000Y-68707000D01*
X190881000Y-68707000D01*
X189281750Y-68707000D01*
X189123000Y-68865750D01*
X189119928Y-69830000D01*
X185739793Y-69830000D01*
X185788175Y-69781618D01*
X185994466Y-69472882D01*
X186136561Y-69129834D01*
X186209000Y-68765656D01*
X186209000Y-68394344D01*
X186136561Y-68030166D01*
X185994466Y-67687118D01*
X185788175Y-67378382D01*
X185739793Y-67330000D01*
X189119928Y-67330000D01*
X189123000Y-68294250D01*
X189281750Y-68453000D01*
X190881000Y-68453000D01*
X190881000Y-66853750D01*
X191135000Y-66853750D01*
X191135000Y-68453000D01*
X192734250Y-68453000D01*
X192792906Y-68394344D01*
X194123000Y-68394344D01*
X194123000Y-68765656D01*
X194195439Y-69129834D01*
X194337534Y-69472882D01*
X194543825Y-69781618D01*
X194806382Y-70044175D01*
X195115118Y-70250466D01*
X195458166Y-70392561D01*
X195822344Y-70465000D01*
X196193656Y-70465000D01*
X196557834Y-70392561D01*
X196900882Y-70250466D01*
X197209618Y-70044175D01*
X197472175Y-69781618D01*
X197678466Y-69472882D01*
X197820561Y-69129834D01*
X197893000Y-68765656D01*
X197893000Y-68394344D01*
X197820561Y-68030166D01*
X197678466Y-67687118D01*
X197618834Y-67597872D01*
X199441000Y-67597872D01*
X199441000Y-68038128D01*
X199526890Y-68469925D01*
X199695369Y-68876669D01*
X199939962Y-69242729D01*
X200251271Y-69554038D01*
X200617331Y-69798631D01*
X201024075Y-69967110D01*
X201455872Y-70053000D01*
X201896128Y-70053000D01*
X202327925Y-69967110D01*
X202734669Y-69798631D01*
X203100729Y-69554038D01*
X203412038Y-69242729D01*
X203656631Y-68876669D01*
X203825110Y-68469925D01*
X203911000Y-68038128D01*
X203911000Y-67597872D01*
X203825110Y-67166075D01*
X203656631Y-66759331D01*
X203412038Y-66393271D01*
X203100729Y-66081962D01*
X202734669Y-65837369D01*
X202327925Y-65668890D01*
X201896128Y-65583000D01*
X201455872Y-65583000D01*
X201024075Y-65668890D01*
X200617331Y-65837369D01*
X200251271Y-66081962D01*
X199939962Y-66393271D01*
X199695369Y-66759331D01*
X199526890Y-67166075D01*
X199441000Y-67597872D01*
X197618834Y-67597872D01*
X197472175Y-67378382D01*
X197209618Y-67115825D01*
X196900882Y-66909534D01*
X196557834Y-66767439D01*
X196193656Y-66695000D01*
X195822344Y-66695000D01*
X195458166Y-66767439D01*
X195115118Y-66909534D01*
X194806382Y-67115825D01*
X194543825Y-67378382D01*
X194337534Y-67687118D01*
X194195439Y-68030166D01*
X194123000Y-68394344D01*
X192792906Y-68394344D01*
X192893000Y-68294250D01*
X192896072Y-67330000D01*
X192883812Y-67205518D01*
X192847502Y-67085820D01*
X192788537Y-66975506D01*
X192709185Y-66878815D01*
X192612494Y-66799463D01*
X192502180Y-66740498D01*
X192382482Y-66704188D01*
X192258000Y-66691928D01*
X191293750Y-66695000D01*
X191135000Y-66853750D01*
X190881000Y-66853750D01*
X190722250Y-66695000D01*
X189758000Y-66691928D01*
X189633518Y-66704188D01*
X189513820Y-66740498D01*
X189403506Y-66799463D01*
X189306815Y-66878815D01*
X189227463Y-66975506D01*
X189168498Y-67085820D01*
X189132188Y-67205518D01*
X189119928Y-67330000D01*
X185739793Y-67330000D01*
X185525618Y-67115825D01*
X185216882Y-66909534D01*
X184873834Y-66767439D01*
X184509656Y-66695000D01*
X184138344Y-66695000D01*
X183774166Y-66767439D01*
X183431118Y-66909534D01*
X183122382Y-67115825D01*
X182859825Y-67378382D01*
X182653534Y-67687118D01*
X182511439Y-68030166D01*
X182439000Y-68394344D01*
X181108906Y-68394344D01*
X181209000Y-68294250D01*
X181212072Y-67330000D01*
X181199812Y-67205518D01*
X181163502Y-67085820D01*
X181104537Y-66975506D01*
X181025185Y-66878815D01*
X180928494Y-66799463D01*
X180818180Y-66740498D01*
X180698482Y-66704188D01*
X180574000Y-66691928D01*
X179609750Y-66695000D01*
X179451000Y-66853750D01*
X179197000Y-66853750D01*
X179038250Y-66695000D01*
X178074000Y-66691928D01*
X177949518Y-66704188D01*
X177829820Y-66740498D01*
X177719506Y-66799463D01*
X177622815Y-66878815D01*
X177543463Y-66975506D01*
X177484498Y-67085820D01*
X177448188Y-67205518D01*
X177435928Y-67330000D01*
X173293793Y-67330000D01*
X173079618Y-67115825D01*
X172770882Y-66909534D01*
X172427834Y-66767439D01*
X172063656Y-66695000D01*
X171692344Y-66695000D01*
X171328166Y-66767439D01*
X170985118Y-66909534D01*
X170676382Y-67115825D01*
X170413825Y-67378382D01*
X170207534Y-67687118D01*
X170065439Y-68030166D01*
X169993000Y-68394344D01*
X168766072Y-68394344D01*
X168766072Y-67330000D01*
X168753812Y-67205518D01*
X168717502Y-67085820D01*
X168658537Y-66975506D01*
X168579185Y-66878815D01*
X168482494Y-66799463D01*
X168372180Y-66740498D01*
X168252482Y-66704188D01*
X168128000Y-66691928D01*
X165628000Y-66691928D01*
X165503518Y-66704188D01*
X165383820Y-66740498D01*
X165273506Y-66799463D01*
X165176815Y-66878815D01*
X165097463Y-66975506D01*
X165038498Y-67085820D01*
X165002188Y-67205518D01*
X164989928Y-67330000D01*
X161185717Y-67330000D01*
X161153110Y-67166075D01*
X160984631Y-66759331D01*
X160740038Y-66393271D01*
X160428729Y-66081962D01*
X160062669Y-65837369D01*
X159655925Y-65668890D01*
X159224128Y-65583000D01*
X158783872Y-65583000D01*
X158352075Y-65668890D01*
X157945331Y-65837369D01*
X157579271Y-66081962D01*
X157267962Y-66393271D01*
X157023369Y-66759331D01*
X156854890Y-67166075D01*
X156769000Y-67597872D01*
X154584000Y-67597872D01*
X154584000Y-63652000D01*
X205080000Y-63652000D01*
X205080001Y-160630000D01*
M02*
