G04 #@! TF.GenerationSoftware,KiCad,Pcbnew,(5.1.5)-3*
G04 #@! TF.CreationDate,2020-06-18T12:09:29-04:00*
G04 #@! TF.ProjectId,psu_board,7073755f-626f-4617-9264-2e6b69636164,rev?*
G04 #@! TF.SameCoordinates,Original*
G04 #@! TF.FileFunction,Copper,L2,Bot*
G04 #@! TF.FilePolarity,Positive*
%FSLAX46Y46*%
G04 Gerber Fmt 4.6, Leading zero omitted, Abs format (unit mm)*
G04 Created by KiCad (PCBNEW (5.1.5)-3) date 2020-06-18 12:09:29*
%MOMM*%
%LPD*%
G04 APERTURE LIST*
%ADD10C,2.500000*%
%ADD11R,2.500000X2.500000*%
%ADD12O,1.700000X1.700000*%
%ADD13R,1.700000X1.700000*%
%ADD14C,0.254000*%
G04 APERTURE END LIST*
D10*
X173816000Y-152146000D03*
D11*
X178816000Y-152146000D03*
D12*
X189230000Y-155956000D03*
X189230000Y-153416000D03*
D13*
X189230000Y-150876000D03*
X229870000Y-144018000D03*
D10*
X185086000Y-68580000D03*
D11*
X180086000Y-68580000D03*
D13*
X242570000Y-75438000D03*
X224790000Y-75438000D03*
X217170000Y-144018000D03*
X242570000Y-144272000D03*
D12*
X185674000Y-150876000D03*
X185674000Y-153416000D03*
D13*
X185674000Y-155956000D03*
D14*
G36*
X249530000Y-67088418D02*
G01*
X249530001Y-67088428D01*
X249530000Y-157074000D01*
X190212107Y-157074000D01*
X190383475Y-156902632D01*
X190545990Y-156659411D01*
X190657932Y-156389158D01*
X190715000Y-156102260D01*
X190715000Y-155809740D01*
X190657932Y-155522842D01*
X190545990Y-155252589D01*
X190383475Y-155009368D01*
X190176632Y-154802525D01*
X190002240Y-154686000D01*
X190176632Y-154569475D01*
X190383475Y-154362632D01*
X190545990Y-154119411D01*
X190612901Y-153957872D01*
X244399000Y-153957872D01*
X244399000Y-154398128D01*
X244484890Y-154829925D01*
X244653369Y-155236669D01*
X244897962Y-155602729D01*
X245209271Y-155914038D01*
X245575331Y-156158631D01*
X245982075Y-156327110D01*
X246413872Y-156413000D01*
X246854128Y-156413000D01*
X247285925Y-156327110D01*
X247692669Y-156158631D01*
X248058729Y-155914038D01*
X248370038Y-155602729D01*
X248614631Y-155236669D01*
X248783110Y-154829925D01*
X248869000Y-154398128D01*
X248869000Y-153957872D01*
X248783110Y-153526075D01*
X248614631Y-153119331D01*
X248370038Y-152753271D01*
X248058729Y-152441962D01*
X247692669Y-152197369D01*
X247285925Y-152028890D01*
X246854128Y-151943000D01*
X246413872Y-151943000D01*
X245982075Y-152028890D01*
X245575331Y-152197369D01*
X245209271Y-152441962D01*
X244897962Y-152753271D01*
X244653369Y-153119331D01*
X244484890Y-153526075D01*
X244399000Y-153957872D01*
X190612901Y-153957872D01*
X190657932Y-153849158D01*
X190715000Y-153562260D01*
X190715000Y-153269740D01*
X190657932Y-152982842D01*
X190545990Y-152712589D01*
X190383475Y-152469368D01*
X190251620Y-152337513D01*
X190324180Y-152315502D01*
X190434494Y-152256537D01*
X190531185Y-152177185D01*
X190610537Y-152080494D01*
X190669502Y-151970180D01*
X190705812Y-151850482D01*
X190718072Y-151726000D01*
X190718072Y-150026000D01*
X190705812Y-149901518D01*
X190669502Y-149781820D01*
X190610537Y-149671506D01*
X190531185Y-149574815D01*
X190434494Y-149495463D01*
X190324180Y-149436498D01*
X190204482Y-149400188D01*
X190080000Y-149387928D01*
X188380000Y-149387928D01*
X188255518Y-149400188D01*
X188135820Y-149436498D01*
X188025506Y-149495463D01*
X187928815Y-149574815D01*
X187849463Y-149671506D01*
X187790498Y-149781820D01*
X187754188Y-149901518D01*
X187741928Y-150026000D01*
X187741928Y-151726000D01*
X187754188Y-151850482D01*
X187790498Y-151970180D01*
X187849463Y-152080494D01*
X187928815Y-152177185D01*
X188025506Y-152256537D01*
X188135820Y-152315502D01*
X188208380Y-152337513D01*
X188076525Y-152469368D01*
X187914010Y-152712589D01*
X187802068Y-152982842D01*
X187745000Y-153269740D01*
X187745000Y-153562260D01*
X187802068Y-153849158D01*
X187914010Y-154119411D01*
X188076525Y-154362632D01*
X188283368Y-154569475D01*
X188457760Y-154686000D01*
X188283368Y-154802525D01*
X188076525Y-155009368D01*
X187914010Y-155252589D01*
X187802068Y-155522842D01*
X187745000Y-155809740D01*
X187745000Y-156102260D01*
X187802068Y-156389158D01*
X187914010Y-156659411D01*
X188076525Y-156902632D01*
X188247893Y-157074000D01*
X187100770Y-157074000D01*
X187113502Y-157050180D01*
X187149812Y-156930482D01*
X187162072Y-156806000D01*
X187159000Y-156241750D01*
X187000250Y-156083000D01*
X185801000Y-156083000D01*
X185801000Y-156103000D01*
X185547000Y-156103000D01*
X185547000Y-156083000D01*
X184347750Y-156083000D01*
X184189000Y-156241750D01*
X184185928Y-156806000D01*
X184198188Y-156930482D01*
X184234498Y-157050180D01*
X184247230Y-157074000D01*
X163728000Y-157074000D01*
X163728000Y-153957872D01*
X164389000Y-153957872D01*
X164389000Y-154398128D01*
X164474890Y-154829925D01*
X164643369Y-155236669D01*
X164887962Y-155602729D01*
X165199271Y-155914038D01*
X165565331Y-156158631D01*
X165972075Y-156327110D01*
X166403872Y-156413000D01*
X166844128Y-156413000D01*
X167275925Y-156327110D01*
X167682669Y-156158631D01*
X168048729Y-155914038D01*
X168360038Y-155602729D01*
X168604631Y-155236669D01*
X168658755Y-155106000D01*
X184185928Y-155106000D01*
X184189000Y-155670250D01*
X184347750Y-155829000D01*
X185547000Y-155829000D01*
X185547000Y-153543000D01*
X185801000Y-153543000D01*
X185801000Y-155829000D01*
X187000250Y-155829000D01*
X187159000Y-155670250D01*
X187162072Y-155106000D01*
X187149812Y-154981518D01*
X187113502Y-154861820D01*
X187054537Y-154751506D01*
X186975185Y-154654815D01*
X186878494Y-154575463D01*
X186768180Y-154516498D01*
X186687534Y-154492034D01*
X186771588Y-154416269D01*
X186945641Y-154182920D01*
X187070825Y-153920099D01*
X187115476Y-153772890D01*
X186994155Y-153543000D01*
X185801000Y-153543000D01*
X185547000Y-153543000D01*
X184353845Y-153543000D01*
X184232524Y-153772890D01*
X184277175Y-153920099D01*
X184402359Y-154182920D01*
X184576412Y-154416269D01*
X184660466Y-154492034D01*
X184579820Y-154516498D01*
X184469506Y-154575463D01*
X184372815Y-154654815D01*
X184293463Y-154751506D01*
X184234498Y-154861820D01*
X184198188Y-154981518D01*
X184185928Y-155106000D01*
X168658755Y-155106000D01*
X168773110Y-154829925D01*
X168859000Y-154398128D01*
X168859000Y-153957872D01*
X168773110Y-153526075D01*
X168745578Y-153459605D01*
X172682000Y-153459605D01*
X172807914Y-153749577D01*
X173140126Y-153915433D01*
X173498312Y-154013290D01*
X173868706Y-154039389D01*
X174237075Y-153992725D01*
X174589262Y-153875094D01*
X174824086Y-153749577D01*
X174950000Y-153459605D01*
X173816000Y-152325605D01*
X172682000Y-153459605D01*
X168745578Y-153459605D01*
X168604631Y-153119331D01*
X168360038Y-152753271D01*
X168048729Y-152441962D01*
X167684670Y-152198706D01*
X171922611Y-152198706D01*
X171969275Y-152567075D01*
X172086906Y-152919262D01*
X172212423Y-153154086D01*
X172502395Y-153280000D01*
X173636395Y-152146000D01*
X173995605Y-152146000D01*
X175129605Y-153280000D01*
X175419577Y-153154086D01*
X175585433Y-152821874D01*
X175683290Y-152463688D01*
X175709389Y-152093294D01*
X175662725Y-151724925D01*
X175545094Y-151372738D01*
X175419577Y-151137914D01*
X175129605Y-151012000D01*
X173995605Y-152146000D01*
X173636395Y-152146000D01*
X172502395Y-151012000D01*
X172212423Y-151137914D01*
X172046567Y-151470126D01*
X171948710Y-151828312D01*
X171922611Y-152198706D01*
X167684670Y-152198706D01*
X167682669Y-152197369D01*
X167275925Y-152028890D01*
X166844128Y-151943000D01*
X166403872Y-151943000D01*
X165972075Y-152028890D01*
X165565331Y-152197369D01*
X165199271Y-152441962D01*
X164887962Y-152753271D01*
X164643369Y-153119331D01*
X164474890Y-153526075D01*
X164389000Y-153957872D01*
X163728000Y-153957872D01*
X163728000Y-150832395D01*
X172682000Y-150832395D01*
X173816000Y-151966395D01*
X174886395Y-150896000D01*
X176927928Y-150896000D01*
X176927928Y-153396000D01*
X176940188Y-153520482D01*
X176976498Y-153640180D01*
X177035463Y-153750494D01*
X177114815Y-153847185D01*
X177211506Y-153926537D01*
X177321820Y-153985502D01*
X177441518Y-154021812D01*
X177566000Y-154034072D01*
X180066000Y-154034072D01*
X180190482Y-154021812D01*
X180310180Y-153985502D01*
X180420494Y-153926537D01*
X180517185Y-153847185D01*
X180596537Y-153750494D01*
X180655502Y-153640180D01*
X180691812Y-153520482D01*
X180704072Y-153396000D01*
X180704072Y-151232890D01*
X184232524Y-151232890D01*
X184277175Y-151380099D01*
X184402359Y-151642920D01*
X184576412Y-151876269D01*
X184792645Y-152071178D01*
X184918255Y-152146000D01*
X184792645Y-152220822D01*
X184576412Y-152415731D01*
X184402359Y-152649080D01*
X184277175Y-152911901D01*
X184232524Y-153059110D01*
X184353845Y-153289000D01*
X185547000Y-153289000D01*
X185547000Y-151003000D01*
X185801000Y-151003000D01*
X185801000Y-153289000D01*
X186994155Y-153289000D01*
X187115476Y-153059110D01*
X187070825Y-152911901D01*
X186945641Y-152649080D01*
X186771588Y-152415731D01*
X186555355Y-152220822D01*
X186429745Y-152146000D01*
X186555355Y-152071178D01*
X186771588Y-151876269D01*
X186945641Y-151642920D01*
X187070825Y-151380099D01*
X187115476Y-151232890D01*
X186994155Y-151003000D01*
X185801000Y-151003000D01*
X185547000Y-151003000D01*
X184353845Y-151003000D01*
X184232524Y-151232890D01*
X180704072Y-151232890D01*
X180704072Y-150896000D01*
X180691812Y-150771518D01*
X180655502Y-150651820D01*
X180596537Y-150541506D01*
X180578158Y-150519110D01*
X184232524Y-150519110D01*
X184353845Y-150749000D01*
X185547000Y-150749000D01*
X185547000Y-149555186D01*
X185801000Y-149555186D01*
X185801000Y-150749000D01*
X186994155Y-150749000D01*
X187115476Y-150519110D01*
X187070825Y-150371901D01*
X186945641Y-150109080D01*
X186771588Y-149875731D01*
X186555355Y-149680822D01*
X186305252Y-149531843D01*
X186030891Y-149434519D01*
X185801000Y-149555186D01*
X185547000Y-149555186D01*
X185317109Y-149434519D01*
X185042748Y-149531843D01*
X184792645Y-149680822D01*
X184576412Y-149875731D01*
X184402359Y-150109080D01*
X184277175Y-150371901D01*
X184232524Y-150519110D01*
X180578158Y-150519110D01*
X180517185Y-150444815D01*
X180420494Y-150365463D01*
X180310180Y-150306498D01*
X180190482Y-150270188D01*
X180066000Y-150257928D01*
X177566000Y-150257928D01*
X177441518Y-150270188D01*
X177321820Y-150306498D01*
X177211506Y-150365463D01*
X177114815Y-150444815D01*
X177035463Y-150541506D01*
X176976498Y-150651820D01*
X176940188Y-150771518D01*
X176927928Y-150896000D01*
X174886395Y-150896000D01*
X174950000Y-150832395D01*
X174824086Y-150542423D01*
X174491874Y-150376567D01*
X174133688Y-150278710D01*
X173763294Y-150252611D01*
X173394925Y-150299275D01*
X173042738Y-150416906D01*
X172807914Y-150542423D01*
X172682000Y-150832395D01*
X163728000Y-150832395D01*
X163728000Y-144868000D01*
X215681928Y-144868000D01*
X215694188Y-144992482D01*
X215730498Y-145112180D01*
X215789463Y-145222494D01*
X215868815Y-145319185D01*
X215965506Y-145398537D01*
X216075820Y-145457502D01*
X216195518Y-145493812D01*
X216320000Y-145506072D01*
X216884250Y-145503000D01*
X217043000Y-145344250D01*
X217043000Y-144145000D01*
X217297000Y-144145000D01*
X217297000Y-145344250D01*
X217455750Y-145503000D01*
X218020000Y-145506072D01*
X218144482Y-145493812D01*
X218264180Y-145457502D01*
X218374494Y-145398537D01*
X218471185Y-145319185D01*
X218550537Y-145222494D01*
X218609502Y-145112180D01*
X218645812Y-144992482D01*
X218658072Y-144868000D01*
X218655000Y-144303750D01*
X218496250Y-144145000D01*
X217297000Y-144145000D01*
X217043000Y-144145000D01*
X215843750Y-144145000D01*
X215685000Y-144303750D01*
X215681928Y-144868000D01*
X163728000Y-144868000D01*
X163728000Y-143168000D01*
X215681928Y-143168000D01*
X215685000Y-143732250D01*
X215843750Y-143891000D01*
X217043000Y-143891000D01*
X217043000Y-142691750D01*
X217297000Y-142691750D01*
X217297000Y-143891000D01*
X218496250Y-143891000D01*
X218655000Y-143732250D01*
X218658072Y-143168000D01*
X228381928Y-143168000D01*
X228381928Y-144868000D01*
X228394188Y-144992482D01*
X228430498Y-145112180D01*
X228489463Y-145222494D01*
X228568815Y-145319185D01*
X228665506Y-145398537D01*
X228775820Y-145457502D01*
X228895518Y-145493812D01*
X229020000Y-145506072D01*
X230720000Y-145506072D01*
X230844482Y-145493812D01*
X230964180Y-145457502D01*
X231074494Y-145398537D01*
X231171185Y-145319185D01*
X231250537Y-145222494D01*
X231309502Y-145112180D01*
X231345812Y-144992482D01*
X231358072Y-144868000D01*
X231358072Y-143422000D01*
X241081928Y-143422000D01*
X241081928Y-145122000D01*
X241094188Y-145246482D01*
X241130498Y-145366180D01*
X241189463Y-145476494D01*
X241268815Y-145573185D01*
X241365506Y-145652537D01*
X241475820Y-145711502D01*
X241595518Y-145747812D01*
X241720000Y-145760072D01*
X243420000Y-145760072D01*
X243544482Y-145747812D01*
X243664180Y-145711502D01*
X243774494Y-145652537D01*
X243871185Y-145573185D01*
X243950537Y-145476494D01*
X244009502Y-145366180D01*
X244045812Y-145246482D01*
X244058072Y-145122000D01*
X244058072Y-143422000D01*
X244045812Y-143297518D01*
X244009502Y-143177820D01*
X243950537Y-143067506D01*
X243871185Y-142970815D01*
X243774494Y-142891463D01*
X243664180Y-142832498D01*
X243544482Y-142796188D01*
X243420000Y-142783928D01*
X241720000Y-142783928D01*
X241595518Y-142796188D01*
X241475820Y-142832498D01*
X241365506Y-142891463D01*
X241268815Y-142970815D01*
X241189463Y-143067506D01*
X241130498Y-143177820D01*
X241094188Y-143297518D01*
X241081928Y-143422000D01*
X231358072Y-143422000D01*
X231358072Y-143168000D01*
X231345812Y-143043518D01*
X231309502Y-142923820D01*
X231250537Y-142813506D01*
X231171185Y-142716815D01*
X231074494Y-142637463D01*
X230964180Y-142578498D01*
X230844482Y-142542188D01*
X230720000Y-142529928D01*
X229020000Y-142529928D01*
X228895518Y-142542188D01*
X228775820Y-142578498D01*
X228665506Y-142637463D01*
X228568815Y-142716815D01*
X228489463Y-142813506D01*
X228430498Y-142923820D01*
X228394188Y-143043518D01*
X228381928Y-143168000D01*
X218658072Y-143168000D01*
X218645812Y-143043518D01*
X218609502Y-142923820D01*
X218550537Y-142813506D01*
X218471185Y-142716815D01*
X218374494Y-142637463D01*
X218264180Y-142578498D01*
X218144482Y-142542188D01*
X218020000Y-142529928D01*
X217455750Y-142533000D01*
X217297000Y-142691750D01*
X217043000Y-142691750D01*
X216884250Y-142533000D01*
X216320000Y-142529928D01*
X216195518Y-142542188D01*
X216075820Y-142578498D01*
X215965506Y-142637463D01*
X215868815Y-142716815D01*
X215789463Y-142813506D01*
X215730498Y-142923820D01*
X215694188Y-143043518D01*
X215681928Y-143168000D01*
X163728000Y-143168000D01*
X163728000Y-74588000D01*
X223301928Y-74588000D01*
X223301928Y-76288000D01*
X223314188Y-76412482D01*
X223350498Y-76532180D01*
X223409463Y-76642494D01*
X223488815Y-76739185D01*
X223585506Y-76818537D01*
X223695820Y-76877502D01*
X223815518Y-76913812D01*
X223940000Y-76926072D01*
X225640000Y-76926072D01*
X225764482Y-76913812D01*
X225884180Y-76877502D01*
X225994494Y-76818537D01*
X226091185Y-76739185D01*
X226170537Y-76642494D01*
X226229502Y-76532180D01*
X226265812Y-76412482D01*
X226278072Y-76288000D01*
X226278072Y-74588000D01*
X241081928Y-74588000D01*
X241081928Y-76288000D01*
X241094188Y-76412482D01*
X241130498Y-76532180D01*
X241189463Y-76642494D01*
X241268815Y-76739185D01*
X241365506Y-76818537D01*
X241475820Y-76877502D01*
X241595518Y-76913812D01*
X241720000Y-76926072D01*
X243420000Y-76926072D01*
X243544482Y-76913812D01*
X243664180Y-76877502D01*
X243774494Y-76818537D01*
X243871185Y-76739185D01*
X243950537Y-76642494D01*
X244009502Y-76532180D01*
X244045812Y-76412482D01*
X244058072Y-76288000D01*
X244058072Y-74588000D01*
X244045812Y-74463518D01*
X244009502Y-74343820D01*
X243950537Y-74233506D01*
X243871185Y-74136815D01*
X243774494Y-74057463D01*
X243664180Y-73998498D01*
X243544482Y-73962188D01*
X243420000Y-73949928D01*
X241720000Y-73949928D01*
X241595518Y-73962188D01*
X241475820Y-73998498D01*
X241365506Y-74057463D01*
X241268815Y-74136815D01*
X241189463Y-74233506D01*
X241130498Y-74343820D01*
X241094188Y-74463518D01*
X241081928Y-74588000D01*
X226278072Y-74588000D01*
X226265812Y-74463518D01*
X226229502Y-74343820D01*
X226170537Y-74233506D01*
X226091185Y-74136815D01*
X225994494Y-74057463D01*
X225884180Y-73998498D01*
X225764482Y-73962188D01*
X225640000Y-73949928D01*
X223940000Y-73949928D01*
X223815518Y-73962188D01*
X223695820Y-73998498D01*
X223585506Y-74057463D01*
X223488815Y-74136815D01*
X223409463Y-74233506D01*
X223350498Y-74343820D01*
X223314188Y-74463518D01*
X223301928Y-74588000D01*
X163728000Y-74588000D01*
X163728000Y-66581872D01*
X164389000Y-66581872D01*
X164389000Y-67022128D01*
X164474890Y-67453925D01*
X164643369Y-67860669D01*
X164887962Y-68226729D01*
X165199271Y-68538038D01*
X165565331Y-68782631D01*
X165972075Y-68951110D01*
X166403872Y-69037000D01*
X166844128Y-69037000D01*
X167275925Y-68951110D01*
X167682669Y-68782631D01*
X168048729Y-68538038D01*
X168360038Y-68226729D01*
X168604631Y-67860669D01*
X168773110Y-67453925D01*
X168797760Y-67330000D01*
X178197928Y-67330000D01*
X178197928Y-69830000D01*
X178210188Y-69954482D01*
X178246498Y-70074180D01*
X178305463Y-70184494D01*
X178384815Y-70281185D01*
X178481506Y-70360537D01*
X178591820Y-70419502D01*
X178711518Y-70455812D01*
X178836000Y-70468072D01*
X181336000Y-70468072D01*
X181460482Y-70455812D01*
X181580180Y-70419502D01*
X181690494Y-70360537D01*
X181787185Y-70281185D01*
X181866537Y-70184494D01*
X181925502Y-70074180D01*
X181961812Y-69954482D01*
X181974072Y-69830000D01*
X181974072Y-68394344D01*
X183201000Y-68394344D01*
X183201000Y-68765656D01*
X183273439Y-69129834D01*
X183415534Y-69472882D01*
X183621825Y-69781618D01*
X183884382Y-70044175D01*
X184193118Y-70250466D01*
X184536166Y-70392561D01*
X184900344Y-70465000D01*
X185271656Y-70465000D01*
X185635834Y-70392561D01*
X185978882Y-70250466D01*
X186287618Y-70044175D01*
X186550175Y-69781618D01*
X186756466Y-69472882D01*
X186898561Y-69129834D01*
X186971000Y-68765656D01*
X186971000Y-68394344D01*
X186898561Y-68030166D01*
X186756466Y-67687118D01*
X186550175Y-67378382D01*
X186287618Y-67115825D01*
X185978882Y-66909534D01*
X185635834Y-66767439D01*
X185271656Y-66695000D01*
X184900344Y-66695000D01*
X184536166Y-66767439D01*
X184193118Y-66909534D01*
X183884382Y-67115825D01*
X183621825Y-67378382D01*
X183415534Y-67687118D01*
X183273439Y-68030166D01*
X183201000Y-68394344D01*
X181974072Y-68394344D01*
X181974072Y-67330000D01*
X181961812Y-67205518D01*
X181925502Y-67085820D01*
X181866537Y-66975506D01*
X181787185Y-66878815D01*
X181690494Y-66799463D01*
X181580180Y-66740498D01*
X181460482Y-66704188D01*
X181336000Y-66691928D01*
X178836000Y-66691928D01*
X178711518Y-66704188D01*
X178591820Y-66740498D01*
X178481506Y-66799463D01*
X178384815Y-66878815D01*
X178305463Y-66975506D01*
X178246498Y-67085820D01*
X178210188Y-67205518D01*
X178197928Y-67330000D01*
X168797760Y-67330000D01*
X168859000Y-67022128D01*
X168859000Y-66581872D01*
X168808477Y-66327872D01*
X244399000Y-66327872D01*
X244399000Y-66768128D01*
X244484890Y-67199925D01*
X244653369Y-67606669D01*
X244897962Y-67972729D01*
X245209271Y-68284038D01*
X245575331Y-68528631D01*
X245982075Y-68697110D01*
X246413872Y-68783000D01*
X246854128Y-68783000D01*
X247285925Y-68697110D01*
X247692669Y-68528631D01*
X248058729Y-68284038D01*
X248370038Y-67972729D01*
X248614631Y-67606669D01*
X248783110Y-67199925D01*
X248869000Y-66768128D01*
X248869000Y-66327872D01*
X248783110Y-65896075D01*
X248614631Y-65489331D01*
X248370038Y-65123271D01*
X248058729Y-64811962D01*
X247692669Y-64567369D01*
X247285925Y-64398890D01*
X246854128Y-64313000D01*
X246413872Y-64313000D01*
X245982075Y-64398890D01*
X245575331Y-64567369D01*
X245209271Y-64811962D01*
X244897962Y-65123271D01*
X244653369Y-65489331D01*
X244484890Y-65896075D01*
X244399000Y-66327872D01*
X168808477Y-66327872D01*
X168773110Y-66150075D01*
X168604631Y-65743331D01*
X168360038Y-65377271D01*
X168048729Y-65065962D01*
X167682669Y-64821369D01*
X167275925Y-64652890D01*
X166844128Y-64567000D01*
X166403872Y-64567000D01*
X165972075Y-64652890D01*
X165565331Y-64821369D01*
X165199271Y-65065962D01*
X164887962Y-65377271D01*
X164643369Y-65743331D01*
X164474890Y-66150075D01*
X164389000Y-66581872D01*
X163728000Y-66581872D01*
X163728000Y-63652000D01*
X249530001Y-63652000D01*
X249530000Y-67088418D01*
G37*
X249530000Y-67088418D02*
X249530001Y-67088428D01*
X249530000Y-157074000D01*
X190212107Y-157074000D01*
X190383475Y-156902632D01*
X190545990Y-156659411D01*
X190657932Y-156389158D01*
X190715000Y-156102260D01*
X190715000Y-155809740D01*
X190657932Y-155522842D01*
X190545990Y-155252589D01*
X190383475Y-155009368D01*
X190176632Y-154802525D01*
X190002240Y-154686000D01*
X190176632Y-154569475D01*
X190383475Y-154362632D01*
X190545990Y-154119411D01*
X190612901Y-153957872D01*
X244399000Y-153957872D01*
X244399000Y-154398128D01*
X244484890Y-154829925D01*
X244653369Y-155236669D01*
X244897962Y-155602729D01*
X245209271Y-155914038D01*
X245575331Y-156158631D01*
X245982075Y-156327110D01*
X246413872Y-156413000D01*
X246854128Y-156413000D01*
X247285925Y-156327110D01*
X247692669Y-156158631D01*
X248058729Y-155914038D01*
X248370038Y-155602729D01*
X248614631Y-155236669D01*
X248783110Y-154829925D01*
X248869000Y-154398128D01*
X248869000Y-153957872D01*
X248783110Y-153526075D01*
X248614631Y-153119331D01*
X248370038Y-152753271D01*
X248058729Y-152441962D01*
X247692669Y-152197369D01*
X247285925Y-152028890D01*
X246854128Y-151943000D01*
X246413872Y-151943000D01*
X245982075Y-152028890D01*
X245575331Y-152197369D01*
X245209271Y-152441962D01*
X244897962Y-152753271D01*
X244653369Y-153119331D01*
X244484890Y-153526075D01*
X244399000Y-153957872D01*
X190612901Y-153957872D01*
X190657932Y-153849158D01*
X190715000Y-153562260D01*
X190715000Y-153269740D01*
X190657932Y-152982842D01*
X190545990Y-152712589D01*
X190383475Y-152469368D01*
X190251620Y-152337513D01*
X190324180Y-152315502D01*
X190434494Y-152256537D01*
X190531185Y-152177185D01*
X190610537Y-152080494D01*
X190669502Y-151970180D01*
X190705812Y-151850482D01*
X190718072Y-151726000D01*
X190718072Y-150026000D01*
X190705812Y-149901518D01*
X190669502Y-149781820D01*
X190610537Y-149671506D01*
X190531185Y-149574815D01*
X190434494Y-149495463D01*
X190324180Y-149436498D01*
X190204482Y-149400188D01*
X190080000Y-149387928D01*
X188380000Y-149387928D01*
X188255518Y-149400188D01*
X188135820Y-149436498D01*
X188025506Y-149495463D01*
X187928815Y-149574815D01*
X187849463Y-149671506D01*
X187790498Y-149781820D01*
X187754188Y-149901518D01*
X187741928Y-150026000D01*
X187741928Y-151726000D01*
X187754188Y-151850482D01*
X187790498Y-151970180D01*
X187849463Y-152080494D01*
X187928815Y-152177185D01*
X188025506Y-152256537D01*
X188135820Y-152315502D01*
X188208380Y-152337513D01*
X188076525Y-152469368D01*
X187914010Y-152712589D01*
X187802068Y-152982842D01*
X187745000Y-153269740D01*
X187745000Y-153562260D01*
X187802068Y-153849158D01*
X187914010Y-154119411D01*
X188076525Y-154362632D01*
X188283368Y-154569475D01*
X188457760Y-154686000D01*
X188283368Y-154802525D01*
X188076525Y-155009368D01*
X187914010Y-155252589D01*
X187802068Y-155522842D01*
X187745000Y-155809740D01*
X187745000Y-156102260D01*
X187802068Y-156389158D01*
X187914010Y-156659411D01*
X188076525Y-156902632D01*
X188247893Y-157074000D01*
X187100770Y-157074000D01*
X187113502Y-157050180D01*
X187149812Y-156930482D01*
X187162072Y-156806000D01*
X187159000Y-156241750D01*
X187000250Y-156083000D01*
X185801000Y-156083000D01*
X185801000Y-156103000D01*
X185547000Y-156103000D01*
X185547000Y-156083000D01*
X184347750Y-156083000D01*
X184189000Y-156241750D01*
X184185928Y-156806000D01*
X184198188Y-156930482D01*
X184234498Y-157050180D01*
X184247230Y-157074000D01*
X163728000Y-157074000D01*
X163728000Y-153957872D01*
X164389000Y-153957872D01*
X164389000Y-154398128D01*
X164474890Y-154829925D01*
X164643369Y-155236669D01*
X164887962Y-155602729D01*
X165199271Y-155914038D01*
X165565331Y-156158631D01*
X165972075Y-156327110D01*
X166403872Y-156413000D01*
X166844128Y-156413000D01*
X167275925Y-156327110D01*
X167682669Y-156158631D01*
X168048729Y-155914038D01*
X168360038Y-155602729D01*
X168604631Y-155236669D01*
X168658755Y-155106000D01*
X184185928Y-155106000D01*
X184189000Y-155670250D01*
X184347750Y-155829000D01*
X185547000Y-155829000D01*
X185547000Y-153543000D01*
X185801000Y-153543000D01*
X185801000Y-155829000D01*
X187000250Y-155829000D01*
X187159000Y-155670250D01*
X187162072Y-155106000D01*
X187149812Y-154981518D01*
X187113502Y-154861820D01*
X187054537Y-154751506D01*
X186975185Y-154654815D01*
X186878494Y-154575463D01*
X186768180Y-154516498D01*
X186687534Y-154492034D01*
X186771588Y-154416269D01*
X186945641Y-154182920D01*
X187070825Y-153920099D01*
X187115476Y-153772890D01*
X186994155Y-153543000D01*
X185801000Y-153543000D01*
X185547000Y-153543000D01*
X184353845Y-153543000D01*
X184232524Y-153772890D01*
X184277175Y-153920099D01*
X184402359Y-154182920D01*
X184576412Y-154416269D01*
X184660466Y-154492034D01*
X184579820Y-154516498D01*
X184469506Y-154575463D01*
X184372815Y-154654815D01*
X184293463Y-154751506D01*
X184234498Y-154861820D01*
X184198188Y-154981518D01*
X184185928Y-155106000D01*
X168658755Y-155106000D01*
X168773110Y-154829925D01*
X168859000Y-154398128D01*
X168859000Y-153957872D01*
X168773110Y-153526075D01*
X168745578Y-153459605D01*
X172682000Y-153459605D01*
X172807914Y-153749577D01*
X173140126Y-153915433D01*
X173498312Y-154013290D01*
X173868706Y-154039389D01*
X174237075Y-153992725D01*
X174589262Y-153875094D01*
X174824086Y-153749577D01*
X174950000Y-153459605D01*
X173816000Y-152325605D01*
X172682000Y-153459605D01*
X168745578Y-153459605D01*
X168604631Y-153119331D01*
X168360038Y-152753271D01*
X168048729Y-152441962D01*
X167684670Y-152198706D01*
X171922611Y-152198706D01*
X171969275Y-152567075D01*
X172086906Y-152919262D01*
X172212423Y-153154086D01*
X172502395Y-153280000D01*
X173636395Y-152146000D01*
X173995605Y-152146000D01*
X175129605Y-153280000D01*
X175419577Y-153154086D01*
X175585433Y-152821874D01*
X175683290Y-152463688D01*
X175709389Y-152093294D01*
X175662725Y-151724925D01*
X175545094Y-151372738D01*
X175419577Y-151137914D01*
X175129605Y-151012000D01*
X173995605Y-152146000D01*
X173636395Y-152146000D01*
X172502395Y-151012000D01*
X172212423Y-151137914D01*
X172046567Y-151470126D01*
X171948710Y-151828312D01*
X171922611Y-152198706D01*
X167684670Y-152198706D01*
X167682669Y-152197369D01*
X167275925Y-152028890D01*
X166844128Y-151943000D01*
X166403872Y-151943000D01*
X165972075Y-152028890D01*
X165565331Y-152197369D01*
X165199271Y-152441962D01*
X164887962Y-152753271D01*
X164643369Y-153119331D01*
X164474890Y-153526075D01*
X164389000Y-153957872D01*
X163728000Y-153957872D01*
X163728000Y-150832395D01*
X172682000Y-150832395D01*
X173816000Y-151966395D01*
X174886395Y-150896000D01*
X176927928Y-150896000D01*
X176927928Y-153396000D01*
X176940188Y-153520482D01*
X176976498Y-153640180D01*
X177035463Y-153750494D01*
X177114815Y-153847185D01*
X177211506Y-153926537D01*
X177321820Y-153985502D01*
X177441518Y-154021812D01*
X177566000Y-154034072D01*
X180066000Y-154034072D01*
X180190482Y-154021812D01*
X180310180Y-153985502D01*
X180420494Y-153926537D01*
X180517185Y-153847185D01*
X180596537Y-153750494D01*
X180655502Y-153640180D01*
X180691812Y-153520482D01*
X180704072Y-153396000D01*
X180704072Y-151232890D01*
X184232524Y-151232890D01*
X184277175Y-151380099D01*
X184402359Y-151642920D01*
X184576412Y-151876269D01*
X184792645Y-152071178D01*
X184918255Y-152146000D01*
X184792645Y-152220822D01*
X184576412Y-152415731D01*
X184402359Y-152649080D01*
X184277175Y-152911901D01*
X184232524Y-153059110D01*
X184353845Y-153289000D01*
X185547000Y-153289000D01*
X185547000Y-151003000D01*
X185801000Y-151003000D01*
X185801000Y-153289000D01*
X186994155Y-153289000D01*
X187115476Y-153059110D01*
X187070825Y-152911901D01*
X186945641Y-152649080D01*
X186771588Y-152415731D01*
X186555355Y-152220822D01*
X186429745Y-152146000D01*
X186555355Y-152071178D01*
X186771588Y-151876269D01*
X186945641Y-151642920D01*
X187070825Y-151380099D01*
X187115476Y-151232890D01*
X186994155Y-151003000D01*
X185801000Y-151003000D01*
X185547000Y-151003000D01*
X184353845Y-151003000D01*
X184232524Y-151232890D01*
X180704072Y-151232890D01*
X180704072Y-150896000D01*
X180691812Y-150771518D01*
X180655502Y-150651820D01*
X180596537Y-150541506D01*
X180578158Y-150519110D01*
X184232524Y-150519110D01*
X184353845Y-150749000D01*
X185547000Y-150749000D01*
X185547000Y-149555186D01*
X185801000Y-149555186D01*
X185801000Y-150749000D01*
X186994155Y-150749000D01*
X187115476Y-150519110D01*
X187070825Y-150371901D01*
X186945641Y-150109080D01*
X186771588Y-149875731D01*
X186555355Y-149680822D01*
X186305252Y-149531843D01*
X186030891Y-149434519D01*
X185801000Y-149555186D01*
X185547000Y-149555186D01*
X185317109Y-149434519D01*
X185042748Y-149531843D01*
X184792645Y-149680822D01*
X184576412Y-149875731D01*
X184402359Y-150109080D01*
X184277175Y-150371901D01*
X184232524Y-150519110D01*
X180578158Y-150519110D01*
X180517185Y-150444815D01*
X180420494Y-150365463D01*
X180310180Y-150306498D01*
X180190482Y-150270188D01*
X180066000Y-150257928D01*
X177566000Y-150257928D01*
X177441518Y-150270188D01*
X177321820Y-150306498D01*
X177211506Y-150365463D01*
X177114815Y-150444815D01*
X177035463Y-150541506D01*
X176976498Y-150651820D01*
X176940188Y-150771518D01*
X176927928Y-150896000D01*
X174886395Y-150896000D01*
X174950000Y-150832395D01*
X174824086Y-150542423D01*
X174491874Y-150376567D01*
X174133688Y-150278710D01*
X173763294Y-150252611D01*
X173394925Y-150299275D01*
X173042738Y-150416906D01*
X172807914Y-150542423D01*
X172682000Y-150832395D01*
X163728000Y-150832395D01*
X163728000Y-144868000D01*
X215681928Y-144868000D01*
X215694188Y-144992482D01*
X215730498Y-145112180D01*
X215789463Y-145222494D01*
X215868815Y-145319185D01*
X215965506Y-145398537D01*
X216075820Y-145457502D01*
X216195518Y-145493812D01*
X216320000Y-145506072D01*
X216884250Y-145503000D01*
X217043000Y-145344250D01*
X217043000Y-144145000D01*
X217297000Y-144145000D01*
X217297000Y-145344250D01*
X217455750Y-145503000D01*
X218020000Y-145506072D01*
X218144482Y-145493812D01*
X218264180Y-145457502D01*
X218374494Y-145398537D01*
X218471185Y-145319185D01*
X218550537Y-145222494D01*
X218609502Y-145112180D01*
X218645812Y-144992482D01*
X218658072Y-144868000D01*
X218655000Y-144303750D01*
X218496250Y-144145000D01*
X217297000Y-144145000D01*
X217043000Y-144145000D01*
X215843750Y-144145000D01*
X215685000Y-144303750D01*
X215681928Y-144868000D01*
X163728000Y-144868000D01*
X163728000Y-143168000D01*
X215681928Y-143168000D01*
X215685000Y-143732250D01*
X215843750Y-143891000D01*
X217043000Y-143891000D01*
X217043000Y-142691750D01*
X217297000Y-142691750D01*
X217297000Y-143891000D01*
X218496250Y-143891000D01*
X218655000Y-143732250D01*
X218658072Y-143168000D01*
X228381928Y-143168000D01*
X228381928Y-144868000D01*
X228394188Y-144992482D01*
X228430498Y-145112180D01*
X228489463Y-145222494D01*
X228568815Y-145319185D01*
X228665506Y-145398537D01*
X228775820Y-145457502D01*
X228895518Y-145493812D01*
X229020000Y-145506072D01*
X230720000Y-145506072D01*
X230844482Y-145493812D01*
X230964180Y-145457502D01*
X231074494Y-145398537D01*
X231171185Y-145319185D01*
X231250537Y-145222494D01*
X231309502Y-145112180D01*
X231345812Y-144992482D01*
X231358072Y-144868000D01*
X231358072Y-143422000D01*
X241081928Y-143422000D01*
X241081928Y-145122000D01*
X241094188Y-145246482D01*
X241130498Y-145366180D01*
X241189463Y-145476494D01*
X241268815Y-145573185D01*
X241365506Y-145652537D01*
X241475820Y-145711502D01*
X241595518Y-145747812D01*
X241720000Y-145760072D01*
X243420000Y-145760072D01*
X243544482Y-145747812D01*
X243664180Y-145711502D01*
X243774494Y-145652537D01*
X243871185Y-145573185D01*
X243950537Y-145476494D01*
X244009502Y-145366180D01*
X244045812Y-145246482D01*
X244058072Y-145122000D01*
X244058072Y-143422000D01*
X244045812Y-143297518D01*
X244009502Y-143177820D01*
X243950537Y-143067506D01*
X243871185Y-142970815D01*
X243774494Y-142891463D01*
X243664180Y-142832498D01*
X243544482Y-142796188D01*
X243420000Y-142783928D01*
X241720000Y-142783928D01*
X241595518Y-142796188D01*
X241475820Y-142832498D01*
X241365506Y-142891463D01*
X241268815Y-142970815D01*
X241189463Y-143067506D01*
X241130498Y-143177820D01*
X241094188Y-143297518D01*
X241081928Y-143422000D01*
X231358072Y-143422000D01*
X231358072Y-143168000D01*
X231345812Y-143043518D01*
X231309502Y-142923820D01*
X231250537Y-142813506D01*
X231171185Y-142716815D01*
X231074494Y-142637463D01*
X230964180Y-142578498D01*
X230844482Y-142542188D01*
X230720000Y-142529928D01*
X229020000Y-142529928D01*
X228895518Y-142542188D01*
X228775820Y-142578498D01*
X228665506Y-142637463D01*
X228568815Y-142716815D01*
X228489463Y-142813506D01*
X228430498Y-142923820D01*
X228394188Y-143043518D01*
X228381928Y-143168000D01*
X218658072Y-143168000D01*
X218645812Y-143043518D01*
X218609502Y-142923820D01*
X218550537Y-142813506D01*
X218471185Y-142716815D01*
X218374494Y-142637463D01*
X218264180Y-142578498D01*
X218144482Y-142542188D01*
X218020000Y-142529928D01*
X217455750Y-142533000D01*
X217297000Y-142691750D01*
X217043000Y-142691750D01*
X216884250Y-142533000D01*
X216320000Y-142529928D01*
X216195518Y-142542188D01*
X216075820Y-142578498D01*
X215965506Y-142637463D01*
X215868815Y-142716815D01*
X215789463Y-142813506D01*
X215730498Y-142923820D01*
X215694188Y-143043518D01*
X215681928Y-143168000D01*
X163728000Y-143168000D01*
X163728000Y-74588000D01*
X223301928Y-74588000D01*
X223301928Y-76288000D01*
X223314188Y-76412482D01*
X223350498Y-76532180D01*
X223409463Y-76642494D01*
X223488815Y-76739185D01*
X223585506Y-76818537D01*
X223695820Y-76877502D01*
X223815518Y-76913812D01*
X223940000Y-76926072D01*
X225640000Y-76926072D01*
X225764482Y-76913812D01*
X225884180Y-76877502D01*
X225994494Y-76818537D01*
X226091185Y-76739185D01*
X226170537Y-76642494D01*
X226229502Y-76532180D01*
X226265812Y-76412482D01*
X226278072Y-76288000D01*
X226278072Y-74588000D01*
X241081928Y-74588000D01*
X241081928Y-76288000D01*
X241094188Y-76412482D01*
X241130498Y-76532180D01*
X241189463Y-76642494D01*
X241268815Y-76739185D01*
X241365506Y-76818537D01*
X241475820Y-76877502D01*
X241595518Y-76913812D01*
X241720000Y-76926072D01*
X243420000Y-76926072D01*
X243544482Y-76913812D01*
X243664180Y-76877502D01*
X243774494Y-76818537D01*
X243871185Y-76739185D01*
X243950537Y-76642494D01*
X244009502Y-76532180D01*
X244045812Y-76412482D01*
X244058072Y-76288000D01*
X244058072Y-74588000D01*
X244045812Y-74463518D01*
X244009502Y-74343820D01*
X243950537Y-74233506D01*
X243871185Y-74136815D01*
X243774494Y-74057463D01*
X243664180Y-73998498D01*
X243544482Y-73962188D01*
X243420000Y-73949928D01*
X241720000Y-73949928D01*
X241595518Y-73962188D01*
X241475820Y-73998498D01*
X241365506Y-74057463D01*
X241268815Y-74136815D01*
X241189463Y-74233506D01*
X241130498Y-74343820D01*
X241094188Y-74463518D01*
X241081928Y-74588000D01*
X226278072Y-74588000D01*
X226265812Y-74463518D01*
X226229502Y-74343820D01*
X226170537Y-74233506D01*
X226091185Y-74136815D01*
X225994494Y-74057463D01*
X225884180Y-73998498D01*
X225764482Y-73962188D01*
X225640000Y-73949928D01*
X223940000Y-73949928D01*
X223815518Y-73962188D01*
X223695820Y-73998498D01*
X223585506Y-74057463D01*
X223488815Y-74136815D01*
X223409463Y-74233506D01*
X223350498Y-74343820D01*
X223314188Y-74463518D01*
X223301928Y-74588000D01*
X163728000Y-74588000D01*
X163728000Y-66581872D01*
X164389000Y-66581872D01*
X164389000Y-67022128D01*
X164474890Y-67453925D01*
X164643369Y-67860669D01*
X164887962Y-68226729D01*
X165199271Y-68538038D01*
X165565331Y-68782631D01*
X165972075Y-68951110D01*
X166403872Y-69037000D01*
X166844128Y-69037000D01*
X167275925Y-68951110D01*
X167682669Y-68782631D01*
X168048729Y-68538038D01*
X168360038Y-68226729D01*
X168604631Y-67860669D01*
X168773110Y-67453925D01*
X168797760Y-67330000D01*
X178197928Y-67330000D01*
X178197928Y-69830000D01*
X178210188Y-69954482D01*
X178246498Y-70074180D01*
X178305463Y-70184494D01*
X178384815Y-70281185D01*
X178481506Y-70360537D01*
X178591820Y-70419502D01*
X178711518Y-70455812D01*
X178836000Y-70468072D01*
X181336000Y-70468072D01*
X181460482Y-70455812D01*
X181580180Y-70419502D01*
X181690494Y-70360537D01*
X181787185Y-70281185D01*
X181866537Y-70184494D01*
X181925502Y-70074180D01*
X181961812Y-69954482D01*
X181974072Y-69830000D01*
X181974072Y-68394344D01*
X183201000Y-68394344D01*
X183201000Y-68765656D01*
X183273439Y-69129834D01*
X183415534Y-69472882D01*
X183621825Y-69781618D01*
X183884382Y-70044175D01*
X184193118Y-70250466D01*
X184536166Y-70392561D01*
X184900344Y-70465000D01*
X185271656Y-70465000D01*
X185635834Y-70392561D01*
X185978882Y-70250466D01*
X186287618Y-70044175D01*
X186550175Y-69781618D01*
X186756466Y-69472882D01*
X186898561Y-69129834D01*
X186971000Y-68765656D01*
X186971000Y-68394344D01*
X186898561Y-68030166D01*
X186756466Y-67687118D01*
X186550175Y-67378382D01*
X186287618Y-67115825D01*
X185978882Y-66909534D01*
X185635834Y-66767439D01*
X185271656Y-66695000D01*
X184900344Y-66695000D01*
X184536166Y-66767439D01*
X184193118Y-66909534D01*
X183884382Y-67115825D01*
X183621825Y-67378382D01*
X183415534Y-67687118D01*
X183273439Y-68030166D01*
X183201000Y-68394344D01*
X181974072Y-68394344D01*
X181974072Y-67330000D01*
X181961812Y-67205518D01*
X181925502Y-67085820D01*
X181866537Y-66975506D01*
X181787185Y-66878815D01*
X181690494Y-66799463D01*
X181580180Y-66740498D01*
X181460482Y-66704188D01*
X181336000Y-66691928D01*
X178836000Y-66691928D01*
X178711518Y-66704188D01*
X178591820Y-66740498D01*
X178481506Y-66799463D01*
X178384815Y-66878815D01*
X178305463Y-66975506D01*
X178246498Y-67085820D01*
X178210188Y-67205518D01*
X178197928Y-67330000D01*
X168797760Y-67330000D01*
X168859000Y-67022128D01*
X168859000Y-66581872D01*
X168808477Y-66327872D01*
X244399000Y-66327872D01*
X244399000Y-66768128D01*
X244484890Y-67199925D01*
X244653369Y-67606669D01*
X244897962Y-67972729D01*
X245209271Y-68284038D01*
X245575331Y-68528631D01*
X245982075Y-68697110D01*
X246413872Y-68783000D01*
X246854128Y-68783000D01*
X247285925Y-68697110D01*
X247692669Y-68528631D01*
X248058729Y-68284038D01*
X248370038Y-67972729D01*
X248614631Y-67606669D01*
X248783110Y-67199925D01*
X248869000Y-66768128D01*
X248869000Y-66327872D01*
X248783110Y-65896075D01*
X248614631Y-65489331D01*
X248370038Y-65123271D01*
X248058729Y-64811962D01*
X247692669Y-64567369D01*
X247285925Y-64398890D01*
X246854128Y-64313000D01*
X246413872Y-64313000D01*
X245982075Y-64398890D01*
X245575331Y-64567369D01*
X245209271Y-64811962D01*
X244897962Y-65123271D01*
X244653369Y-65489331D01*
X244484890Y-65896075D01*
X244399000Y-66327872D01*
X168808477Y-66327872D01*
X168773110Y-66150075D01*
X168604631Y-65743331D01*
X168360038Y-65377271D01*
X168048729Y-65065962D01*
X167682669Y-64821369D01*
X167275925Y-64652890D01*
X166844128Y-64567000D01*
X166403872Y-64567000D01*
X165972075Y-64652890D01*
X165565331Y-64821369D01*
X165199271Y-65065962D01*
X164887962Y-65377271D01*
X164643369Y-65743331D01*
X164474890Y-66150075D01*
X164389000Y-66581872D01*
X163728000Y-66581872D01*
X163728000Y-63652000D01*
X249530001Y-63652000D01*
X249530000Y-67088418D01*
M02*
