G04 #@! TF.GenerationSoftware,KiCad,Pcbnew,(5.1.4)-1*
G04 #@! TF.CreationDate,2019-12-12T14:56:50-05:00*
G04 #@! TF.ProjectId,psu_board,7073755f-626f-4617-9264-2e6b69636164,rev?*
G04 #@! TF.SameCoordinates,Original*
G04 #@! TF.FileFunction,Soldermask,Bot*
G04 #@! TF.FilePolarity,Negative*
%FSLAX46Y46*%
G04 Gerber Fmt 4.6, Leading zero omitted, Abs format (unit mm)*
G04 Created by KiCad (PCBNEW (5.1.4)-1) date 2019-12-12 14:56:50*
%MOMM*%
%LPD*%
G04 APERTURE LIST*
%ADD10C,0.100000*%
G04 APERTURE END LIST*
D10*
G36*
X180958443Y-158617519D02*
G01*
X181024627Y-158624037D01*
X181194466Y-158675557D01*
X181350991Y-158759222D01*
X181386729Y-158788552D01*
X181488186Y-158871814D01*
X181546686Y-158943098D01*
X181600778Y-159009009D01*
X181684443Y-159165534D01*
X181735963Y-159335373D01*
X181753359Y-159512000D01*
X181735963Y-159688627D01*
X181684443Y-159858466D01*
X181600778Y-160014991D01*
X181571448Y-160050729D01*
X181488186Y-160152186D01*
X181386729Y-160235448D01*
X181350991Y-160264778D01*
X181194466Y-160348443D01*
X181024627Y-160399963D01*
X180958442Y-160406482D01*
X180892260Y-160413000D01*
X180803740Y-160413000D01*
X180737558Y-160406482D01*
X180671373Y-160399963D01*
X180501534Y-160348443D01*
X180345009Y-160264778D01*
X180309271Y-160235448D01*
X180207814Y-160152186D01*
X180124552Y-160050729D01*
X180095222Y-160014991D01*
X180011557Y-159858466D01*
X179960037Y-159688627D01*
X179942641Y-159512000D01*
X179960037Y-159335373D01*
X180011557Y-159165534D01*
X180095222Y-159009009D01*
X180149314Y-158943098D01*
X180207814Y-158871814D01*
X180309271Y-158788552D01*
X180345009Y-158759222D01*
X180501534Y-158675557D01*
X180671373Y-158624037D01*
X180737557Y-158617519D01*
X180803740Y-158611000D01*
X180892260Y-158611000D01*
X180958443Y-158617519D01*
X180958443Y-158617519D01*
G37*
G36*
X178418443Y-158617519D02*
G01*
X178484627Y-158624037D01*
X178654466Y-158675557D01*
X178810991Y-158759222D01*
X178846729Y-158788552D01*
X178948186Y-158871814D01*
X179006686Y-158943098D01*
X179060778Y-159009009D01*
X179144443Y-159165534D01*
X179195963Y-159335373D01*
X179213359Y-159512000D01*
X179195963Y-159688627D01*
X179144443Y-159858466D01*
X179060778Y-160014991D01*
X179031448Y-160050729D01*
X178948186Y-160152186D01*
X178846729Y-160235448D01*
X178810991Y-160264778D01*
X178654466Y-160348443D01*
X178484627Y-160399963D01*
X178418442Y-160406482D01*
X178352260Y-160413000D01*
X178263740Y-160413000D01*
X178197558Y-160406482D01*
X178131373Y-160399963D01*
X177961534Y-160348443D01*
X177805009Y-160264778D01*
X177769271Y-160235448D01*
X177667814Y-160152186D01*
X177584552Y-160050729D01*
X177555222Y-160014991D01*
X177471557Y-159858466D01*
X177420037Y-159688627D01*
X177402641Y-159512000D01*
X177420037Y-159335373D01*
X177471557Y-159165534D01*
X177555222Y-159009009D01*
X177609314Y-158943098D01*
X177667814Y-158871814D01*
X177769271Y-158788552D01*
X177805009Y-158759222D01*
X177961534Y-158675557D01*
X178131373Y-158624037D01*
X178197557Y-158617519D01*
X178263740Y-158611000D01*
X178352260Y-158611000D01*
X178418443Y-158617519D01*
X178418443Y-158617519D01*
G37*
G36*
X196706443Y-158617519D02*
G01*
X196772627Y-158624037D01*
X196942466Y-158675557D01*
X197098991Y-158759222D01*
X197134729Y-158788552D01*
X197236186Y-158871814D01*
X197294686Y-158943098D01*
X197348778Y-159009009D01*
X197432443Y-159165534D01*
X197483963Y-159335373D01*
X197501359Y-159512000D01*
X197483963Y-159688627D01*
X197432443Y-159858466D01*
X197348778Y-160014991D01*
X197319448Y-160050729D01*
X197236186Y-160152186D01*
X197134729Y-160235448D01*
X197098991Y-160264778D01*
X196942466Y-160348443D01*
X196772627Y-160399963D01*
X196706442Y-160406482D01*
X196640260Y-160413000D01*
X196551740Y-160413000D01*
X196485558Y-160406482D01*
X196419373Y-160399963D01*
X196249534Y-160348443D01*
X196093009Y-160264778D01*
X196057271Y-160235448D01*
X195955814Y-160152186D01*
X195872552Y-160050729D01*
X195843222Y-160014991D01*
X195759557Y-159858466D01*
X195708037Y-159688627D01*
X195690641Y-159512000D01*
X195708037Y-159335373D01*
X195759557Y-159165534D01*
X195843222Y-159009009D01*
X195897314Y-158943098D01*
X195955814Y-158871814D01*
X196057271Y-158788552D01*
X196093009Y-158759222D01*
X196249534Y-158675557D01*
X196419373Y-158624037D01*
X196485557Y-158617519D01*
X196551740Y-158611000D01*
X196640260Y-158611000D01*
X196706443Y-158617519D01*
X196706443Y-158617519D01*
G37*
G36*
X175878443Y-158617519D02*
G01*
X175944627Y-158624037D01*
X176114466Y-158675557D01*
X176270991Y-158759222D01*
X176306729Y-158788552D01*
X176408186Y-158871814D01*
X176466686Y-158943098D01*
X176520778Y-159009009D01*
X176604443Y-159165534D01*
X176655963Y-159335373D01*
X176673359Y-159512000D01*
X176655963Y-159688627D01*
X176604443Y-159858466D01*
X176520778Y-160014991D01*
X176491448Y-160050729D01*
X176408186Y-160152186D01*
X176306729Y-160235448D01*
X176270991Y-160264778D01*
X176114466Y-160348443D01*
X175944627Y-160399963D01*
X175878442Y-160406482D01*
X175812260Y-160413000D01*
X175723740Y-160413000D01*
X175657558Y-160406482D01*
X175591373Y-160399963D01*
X175421534Y-160348443D01*
X175265009Y-160264778D01*
X175229271Y-160235448D01*
X175127814Y-160152186D01*
X175044552Y-160050729D01*
X175015222Y-160014991D01*
X174931557Y-159858466D01*
X174880037Y-159688627D01*
X174862641Y-159512000D01*
X174880037Y-159335373D01*
X174931557Y-159165534D01*
X175015222Y-159009009D01*
X175069314Y-158943098D01*
X175127814Y-158871814D01*
X175229271Y-158788552D01*
X175265009Y-158759222D01*
X175421534Y-158675557D01*
X175591373Y-158624037D01*
X175657557Y-158617519D01*
X175723740Y-158611000D01*
X175812260Y-158611000D01*
X175878443Y-158617519D01*
X175878443Y-158617519D01*
G37*
G36*
X173338443Y-158617519D02*
G01*
X173404627Y-158624037D01*
X173574466Y-158675557D01*
X173730991Y-158759222D01*
X173766729Y-158788552D01*
X173868186Y-158871814D01*
X173926686Y-158943098D01*
X173980778Y-159009009D01*
X174064443Y-159165534D01*
X174115963Y-159335373D01*
X174133359Y-159512000D01*
X174115963Y-159688627D01*
X174064443Y-159858466D01*
X173980778Y-160014991D01*
X173951448Y-160050729D01*
X173868186Y-160152186D01*
X173766729Y-160235448D01*
X173730991Y-160264778D01*
X173574466Y-160348443D01*
X173404627Y-160399963D01*
X173338442Y-160406482D01*
X173272260Y-160413000D01*
X173183740Y-160413000D01*
X173117558Y-160406482D01*
X173051373Y-160399963D01*
X172881534Y-160348443D01*
X172725009Y-160264778D01*
X172689271Y-160235448D01*
X172587814Y-160152186D01*
X172504552Y-160050729D01*
X172475222Y-160014991D01*
X172391557Y-159858466D01*
X172340037Y-159688627D01*
X172322641Y-159512000D01*
X172340037Y-159335373D01*
X172391557Y-159165534D01*
X172475222Y-159009009D01*
X172529314Y-158943098D01*
X172587814Y-158871814D01*
X172689271Y-158788552D01*
X172725009Y-158759222D01*
X172881534Y-158675557D01*
X173051373Y-158624037D01*
X173117557Y-158617519D01*
X173183740Y-158611000D01*
X173272260Y-158611000D01*
X173338443Y-158617519D01*
X173338443Y-158617519D01*
G37*
G36*
X189086443Y-158617519D02*
G01*
X189152627Y-158624037D01*
X189322466Y-158675557D01*
X189478991Y-158759222D01*
X189514729Y-158788552D01*
X189616186Y-158871814D01*
X189674686Y-158943098D01*
X189728778Y-159009009D01*
X189812443Y-159165534D01*
X189863963Y-159335373D01*
X189881359Y-159512000D01*
X189863963Y-159688627D01*
X189812443Y-159858466D01*
X189728778Y-160014991D01*
X189699448Y-160050729D01*
X189616186Y-160152186D01*
X189514729Y-160235448D01*
X189478991Y-160264778D01*
X189322466Y-160348443D01*
X189152627Y-160399963D01*
X189086442Y-160406482D01*
X189020260Y-160413000D01*
X188931740Y-160413000D01*
X188865558Y-160406482D01*
X188799373Y-160399963D01*
X188629534Y-160348443D01*
X188473009Y-160264778D01*
X188437271Y-160235448D01*
X188335814Y-160152186D01*
X188252552Y-160050729D01*
X188223222Y-160014991D01*
X188139557Y-159858466D01*
X188088037Y-159688627D01*
X188070641Y-159512000D01*
X188088037Y-159335373D01*
X188139557Y-159165534D01*
X188223222Y-159009009D01*
X188277314Y-158943098D01*
X188335814Y-158871814D01*
X188437271Y-158788552D01*
X188473009Y-158759222D01*
X188629534Y-158675557D01*
X188799373Y-158624037D01*
X188865557Y-158617519D01*
X188931740Y-158611000D01*
X189020260Y-158611000D01*
X189086443Y-158617519D01*
X189086443Y-158617519D01*
G37*
G36*
X191626443Y-158617519D02*
G01*
X191692627Y-158624037D01*
X191862466Y-158675557D01*
X192018991Y-158759222D01*
X192054729Y-158788552D01*
X192156186Y-158871814D01*
X192214686Y-158943098D01*
X192268778Y-159009009D01*
X192352443Y-159165534D01*
X192403963Y-159335373D01*
X192421359Y-159512000D01*
X192403963Y-159688627D01*
X192352443Y-159858466D01*
X192268778Y-160014991D01*
X192239448Y-160050729D01*
X192156186Y-160152186D01*
X192054729Y-160235448D01*
X192018991Y-160264778D01*
X191862466Y-160348443D01*
X191692627Y-160399963D01*
X191626442Y-160406482D01*
X191560260Y-160413000D01*
X191471740Y-160413000D01*
X191405558Y-160406482D01*
X191339373Y-160399963D01*
X191169534Y-160348443D01*
X191013009Y-160264778D01*
X190977271Y-160235448D01*
X190875814Y-160152186D01*
X190792552Y-160050729D01*
X190763222Y-160014991D01*
X190679557Y-159858466D01*
X190628037Y-159688627D01*
X190610641Y-159512000D01*
X190628037Y-159335373D01*
X190679557Y-159165534D01*
X190763222Y-159009009D01*
X190817314Y-158943098D01*
X190875814Y-158871814D01*
X190977271Y-158788552D01*
X191013009Y-158759222D01*
X191169534Y-158675557D01*
X191339373Y-158624037D01*
X191405557Y-158617519D01*
X191471740Y-158611000D01*
X191560260Y-158611000D01*
X191626443Y-158617519D01*
X191626443Y-158617519D01*
G37*
G36*
X194166443Y-158617519D02*
G01*
X194232627Y-158624037D01*
X194402466Y-158675557D01*
X194558991Y-158759222D01*
X194594729Y-158788552D01*
X194696186Y-158871814D01*
X194754686Y-158943098D01*
X194808778Y-159009009D01*
X194892443Y-159165534D01*
X194943963Y-159335373D01*
X194961359Y-159512000D01*
X194943963Y-159688627D01*
X194892443Y-159858466D01*
X194808778Y-160014991D01*
X194779448Y-160050729D01*
X194696186Y-160152186D01*
X194594729Y-160235448D01*
X194558991Y-160264778D01*
X194402466Y-160348443D01*
X194232627Y-160399963D01*
X194166442Y-160406482D01*
X194100260Y-160413000D01*
X194011740Y-160413000D01*
X193945558Y-160406482D01*
X193879373Y-160399963D01*
X193709534Y-160348443D01*
X193553009Y-160264778D01*
X193517271Y-160235448D01*
X193415814Y-160152186D01*
X193332552Y-160050729D01*
X193303222Y-160014991D01*
X193219557Y-159858466D01*
X193168037Y-159688627D01*
X193150641Y-159512000D01*
X193168037Y-159335373D01*
X193219557Y-159165534D01*
X193303222Y-159009009D01*
X193357314Y-158943098D01*
X193415814Y-158871814D01*
X193517271Y-158788552D01*
X193553009Y-158759222D01*
X193709534Y-158675557D01*
X193879373Y-158624037D01*
X193945557Y-158617519D01*
X194011740Y-158611000D01*
X194100260Y-158611000D01*
X194166443Y-158617519D01*
X194166443Y-158617519D01*
G37*
G36*
X202051256Y-155871298D02*
G01*
X202157579Y-155892447D01*
X202458042Y-156016903D01*
X202728451Y-156197585D01*
X202958415Y-156427549D01*
X203139097Y-156697958D01*
X203139098Y-156697960D01*
X203175550Y-156785963D01*
X203244741Y-156953004D01*
X203263553Y-156998422D01*
X203327000Y-157317389D01*
X203327000Y-157642611D01*
X203294014Y-157808442D01*
X203263553Y-157961579D01*
X203139097Y-158262042D01*
X202958415Y-158532451D01*
X202728451Y-158762415D01*
X202458042Y-158943097D01*
X202157579Y-159067553D01*
X202051256Y-159088702D01*
X201838611Y-159131000D01*
X201513389Y-159131000D01*
X201300744Y-159088702D01*
X201194421Y-159067553D01*
X200893958Y-158943097D01*
X200623549Y-158762415D01*
X200393585Y-158532451D01*
X200212903Y-158262042D01*
X200088447Y-157961579D01*
X200057986Y-157808442D01*
X200025000Y-157642611D01*
X200025000Y-157317389D01*
X200088447Y-156998422D01*
X200107260Y-156953004D01*
X200176450Y-156785963D01*
X200212902Y-156697960D01*
X200212903Y-156697958D01*
X200393585Y-156427549D01*
X200623549Y-156197585D01*
X200893958Y-156016903D01*
X201194421Y-155892447D01*
X201300744Y-155871298D01*
X201513389Y-155829000D01*
X201838611Y-155829000D01*
X202051256Y-155871298D01*
X202051256Y-155871298D01*
G37*
G36*
X181749000Y-157873000D02*
G01*
X179947000Y-157873000D01*
X179947000Y-156071000D01*
X181749000Y-156071000D01*
X181749000Y-157873000D01*
X181749000Y-157873000D01*
G37*
G36*
X194166442Y-156077518D02*
G01*
X194232627Y-156084037D01*
X194402466Y-156135557D01*
X194558991Y-156219222D01*
X194594729Y-156248552D01*
X194696186Y-156331814D01*
X194774754Y-156427551D01*
X194808778Y-156469009D01*
X194892443Y-156625534D01*
X194943963Y-156795373D01*
X194961359Y-156972000D01*
X194943963Y-157148627D01*
X194892443Y-157318466D01*
X194808778Y-157474991D01*
X194779448Y-157510729D01*
X194696186Y-157612186D01*
X194594729Y-157695448D01*
X194558991Y-157724778D01*
X194402466Y-157808443D01*
X194232627Y-157859963D01*
X194166443Y-157866481D01*
X194100260Y-157873000D01*
X194011740Y-157873000D01*
X193945557Y-157866481D01*
X193879373Y-157859963D01*
X193709534Y-157808443D01*
X193553009Y-157724778D01*
X193517271Y-157695448D01*
X193415814Y-157612186D01*
X193332552Y-157510729D01*
X193303222Y-157474991D01*
X193219557Y-157318466D01*
X193168037Y-157148627D01*
X193150641Y-156972000D01*
X193168037Y-156795373D01*
X193219557Y-156625534D01*
X193303222Y-156469009D01*
X193337246Y-156427551D01*
X193415814Y-156331814D01*
X193517271Y-156248552D01*
X193553009Y-156219222D01*
X193709534Y-156135557D01*
X193879373Y-156084037D01*
X193945558Y-156077518D01*
X194011740Y-156071000D01*
X194100260Y-156071000D01*
X194166442Y-156077518D01*
X194166442Y-156077518D01*
G37*
G36*
X178418442Y-156077518D02*
G01*
X178484627Y-156084037D01*
X178654466Y-156135557D01*
X178810991Y-156219222D01*
X178846729Y-156248552D01*
X178948186Y-156331814D01*
X179026754Y-156427551D01*
X179060778Y-156469009D01*
X179144443Y-156625534D01*
X179195963Y-156795373D01*
X179213359Y-156972000D01*
X179195963Y-157148627D01*
X179144443Y-157318466D01*
X179060778Y-157474991D01*
X179031448Y-157510729D01*
X178948186Y-157612186D01*
X178846729Y-157695448D01*
X178810991Y-157724778D01*
X178654466Y-157808443D01*
X178484627Y-157859963D01*
X178418443Y-157866481D01*
X178352260Y-157873000D01*
X178263740Y-157873000D01*
X178197557Y-157866481D01*
X178131373Y-157859963D01*
X177961534Y-157808443D01*
X177805009Y-157724778D01*
X177769271Y-157695448D01*
X177667814Y-157612186D01*
X177584552Y-157510729D01*
X177555222Y-157474991D01*
X177471557Y-157318466D01*
X177420037Y-157148627D01*
X177402641Y-156972000D01*
X177420037Y-156795373D01*
X177471557Y-156625534D01*
X177555222Y-156469009D01*
X177589246Y-156427551D01*
X177667814Y-156331814D01*
X177769271Y-156248552D01*
X177805009Y-156219222D01*
X177961534Y-156135557D01*
X178131373Y-156084037D01*
X178197558Y-156077518D01*
X178263740Y-156071000D01*
X178352260Y-156071000D01*
X178418442Y-156077518D01*
X178418442Y-156077518D01*
G37*
G36*
X175878442Y-156077518D02*
G01*
X175944627Y-156084037D01*
X176114466Y-156135557D01*
X176270991Y-156219222D01*
X176306729Y-156248552D01*
X176408186Y-156331814D01*
X176486754Y-156427551D01*
X176520778Y-156469009D01*
X176604443Y-156625534D01*
X176655963Y-156795373D01*
X176673359Y-156972000D01*
X176655963Y-157148627D01*
X176604443Y-157318466D01*
X176520778Y-157474991D01*
X176491448Y-157510729D01*
X176408186Y-157612186D01*
X176306729Y-157695448D01*
X176270991Y-157724778D01*
X176114466Y-157808443D01*
X175944627Y-157859963D01*
X175878443Y-157866481D01*
X175812260Y-157873000D01*
X175723740Y-157873000D01*
X175657557Y-157866481D01*
X175591373Y-157859963D01*
X175421534Y-157808443D01*
X175265009Y-157724778D01*
X175229271Y-157695448D01*
X175127814Y-157612186D01*
X175044552Y-157510729D01*
X175015222Y-157474991D01*
X174931557Y-157318466D01*
X174880037Y-157148627D01*
X174862641Y-156972000D01*
X174880037Y-156795373D01*
X174931557Y-156625534D01*
X175015222Y-156469009D01*
X175049246Y-156427551D01*
X175127814Y-156331814D01*
X175229271Y-156248552D01*
X175265009Y-156219222D01*
X175421534Y-156135557D01*
X175591373Y-156084037D01*
X175657558Y-156077518D01*
X175723740Y-156071000D01*
X175812260Y-156071000D01*
X175878442Y-156077518D01*
X175878442Y-156077518D01*
G37*
G36*
X197497000Y-157873000D02*
G01*
X195695000Y-157873000D01*
X195695000Y-156071000D01*
X197497000Y-156071000D01*
X197497000Y-157873000D01*
X197497000Y-157873000D01*
G37*
G36*
X189086442Y-156077518D02*
G01*
X189152627Y-156084037D01*
X189322466Y-156135557D01*
X189478991Y-156219222D01*
X189514729Y-156248552D01*
X189616186Y-156331814D01*
X189694754Y-156427551D01*
X189728778Y-156469009D01*
X189812443Y-156625534D01*
X189863963Y-156795373D01*
X189881359Y-156972000D01*
X189863963Y-157148627D01*
X189812443Y-157318466D01*
X189728778Y-157474991D01*
X189699448Y-157510729D01*
X189616186Y-157612186D01*
X189514729Y-157695448D01*
X189478991Y-157724778D01*
X189322466Y-157808443D01*
X189152627Y-157859963D01*
X189086443Y-157866481D01*
X189020260Y-157873000D01*
X188931740Y-157873000D01*
X188865557Y-157866481D01*
X188799373Y-157859963D01*
X188629534Y-157808443D01*
X188473009Y-157724778D01*
X188437271Y-157695448D01*
X188335814Y-157612186D01*
X188252552Y-157510729D01*
X188223222Y-157474991D01*
X188139557Y-157318466D01*
X188088037Y-157148627D01*
X188070641Y-156972000D01*
X188088037Y-156795373D01*
X188139557Y-156625534D01*
X188223222Y-156469009D01*
X188257246Y-156427551D01*
X188335814Y-156331814D01*
X188437271Y-156248552D01*
X188473009Y-156219222D01*
X188629534Y-156135557D01*
X188799373Y-156084037D01*
X188865558Y-156077518D01*
X188931740Y-156071000D01*
X189020260Y-156071000D01*
X189086442Y-156077518D01*
X189086442Y-156077518D01*
G37*
G36*
X191626442Y-156077518D02*
G01*
X191692627Y-156084037D01*
X191862466Y-156135557D01*
X192018991Y-156219222D01*
X192054729Y-156248552D01*
X192156186Y-156331814D01*
X192234754Y-156427551D01*
X192268778Y-156469009D01*
X192352443Y-156625534D01*
X192403963Y-156795373D01*
X192421359Y-156972000D01*
X192403963Y-157148627D01*
X192352443Y-157318466D01*
X192268778Y-157474991D01*
X192239448Y-157510729D01*
X192156186Y-157612186D01*
X192054729Y-157695448D01*
X192018991Y-157724778D01*
X191862466Y-157808443D01*
X191692627Y-157859963D01*
X191626443Y-157866481D01*
X191560260Y-157873000D01*
X191471740Y-157873000D01*
X191405557Y-157866481D01*
X191339373Y-157859963D01*
X191169534Y-157808443D01*
X191013009Y-157724778D01*
X190977271Y-157695448D01*
X190875814Y-157612186D01*
X190792552Y-157510729D01*
X190763222Y-157474991D01*
X190679557Y-157318466D01*
X190628037Y-157148627D01*
X190610641Y-156972000D01*
X190628037Y-156795373D01*
X190679557Y-156625534D01*
X190763222Y-156469009D01*
X190797246Y-156427551D01*
X190875814Y-156331814D01*
X190977271Y-156248552D01*
X191013009Y-156219222D01*
X191169534Y-156135557D01*
X191339373Y-156084037D01*
X191405558Y-156077518D01*
X191471740Y-156071000D01*
X191560260Y-156071000D01*
X191626442Y-156077518D01*
X191626442Y-156077518D01*
G37*
G36*
X173338442Y-156077518D02*
G01*
X173404627Y-156084037D01*
X173574466Y-156135557D01*
X173730991Y-156219222D01*
X173766729Y-156248552D01*
X173868186Y-156331814D01*
X173946754Y-156427551D01*
X173980778Y-156469009D01*
X174064443Y-156625534D01*
X174115963Y-156795373D01*
X174133359Y-156972000D01*
X174115963Y-157148627D01*
X174064443Y-157318466D01*
X173980778Y-157474991D01*
X173951448Y-157510729D01*
X173868186Y-157612186D01*
X173766729Y-157695448D01*
X173730991Y-157724778D01*
X173574466Y-157808443D01*
X173404627Y-157859963D01*
X173338443Y-157866481D01*
X173272260Y-157873000D01*
X173183740Y-157873000D01*
X173117557Y-157866481D01*
X173051373Y-157859963D01*
X172881534Y-157808443D01*
X172725009Y-157724778D01*
X172689271Y-157695448D01*
X172587814Y-157612186D01*
X172504552Y-157510729D01*
X172475222Y-157474991D01*
X172391557Y-157318466D01*
X172340037Y-157148627D01*
X172322641Y-156972000D01*
X172340037Y-156795373D01*
X172391557Y-156625534D01*
X172475222Y-156469009D01*
X172509246Y-156427551D01*
X172587814Y-156331814D01*
X172689271Y-156248552D01*
X172725009Y-156219222D01*
X172881534Y-156135557D01*
X173051373Y-156084037D01*
X173117558Y-156077518D01*
X173183740Y-156071000D01*
X173272260Y-156071000D01*
X173338442Y-156077518D01*
X173338442Y-156077518D01*
G37*
G36*
X158193487Y-154450996D02*
G01*
X158430253Y-154549068D01*
X158430255Y-154549069D01*
X158643339Y-154691447D01*
X158824553Y-154872661D01*
X158966932Y-155085747D01*
X159065004Y-155322513D01*
X159115000Y-155573861D01*
X159115000Y-155830139D01*
X159065004Y-156081487D01*
X159007952Y-156219222D01*
X158966931Y-156318255D01*
X158824553Y-156531339D01*
X158643339Y-156712553D01*
X158430255Y-156854931D01*
X158430254Y-156854932D01*
X158430253Y-156854932D01*
X158193487Y-156953004D01*
X157942139Y-157003000D01*
X157685861Y-157003000D01*
X157434513Y-156953004D01*
X157197747Y-156854932D01*
X157197746Y-156854932D01*
X157197745Y-156854931D01*
X156984661Y-156712553D01*
X156803447Y-156531339D01*
X156661069Y-156318255D01*
X156620048Y-156219222D01*
X156562996Y-156081487D01*
X156513000Y-155830139D01*
X156513000Y-155573861D01*
X156562996Y-155322513D01*
X156661068Y-155085747D01*
X156803447Y-154872661D01*
X156984661Y-154691447D01*
X157197745Y-154549069D01*
X157197747Y-154549068D01*
X157434513Y-154450996D01*
X157685861Y-154401000D01*
X157942139Y-154401000D01*
X158193487Y-154450996D01*
X158193487Y-154450996D01*
G37*
G36*
X164115000Y-157003000D02*
G01*
X161513000Y-157003000D01*
X161513000Y-154401000D01*
X164115000Y-154401000D01*
X164115000Y-157003000D01*
X164115000Y-157003000D01*
G37*
G36*
X171081000Y-139077000D02*
G01*
X169279000Y-139077000D01*
X169279000Y-137275000D01*
X171081000Y-137275000D01*
X171081000Y-139077000D01*
X171081000Y-139077000D01*
G37*
G36*
X158381000Y-139077000D02*
G01*
X156579000Y-139077000D01*
X156579000Y-137275000D01*
X158381000Y-137275000D01*
X158381000Y-139077000D01*
X158381000Y-139077000D01*
G37*
G36*
X183781000Y-139077000D02*
G01*
X181979000Y-139077000D01*
X181979000Y-137275000D01*
X183781000Y-137275000D01*
X183781000Y-139077000D01*
X183781000Y-139077000D01*
G37*
G36*
X170555256Y-118787298D02*
G01*
X170661579Y-118808447D01*
X170962042Y-118932903D01*
X171232451Y-119113585D01*
X171462415Y-119343549D01*
X171643097Y-119613958D01*
X171767553Y-119914421D01*
X171831000Y-120233391D01*
X171831000Y-120558609D01*
X171767553Y-120877579D01*
X171643097Y-121178042D01*
X171462415Y-121448451D01*
X171232451Y-121678415D01*
X170962042Y-121859097D01*
X170661579Y-121983553D01*
X170555256Y-122004702D01*
X170342611Y-122047000D01*
X170017389Y-122047000D01*
X169804744Y-122004702D01*
X169698421Y-121983553D01*
X169397958Y-121859097D01*
X169127549Y-121678415D01*
X168897585Y-121448451D01*
X168716903Y-121178042D01*
X168592447Y-120877579D01*
X168529000Y-120558609D01*
X168529000Y-120233391D01*
X168592447Y-119914421D01*
X168716903Y-119613958D01*
X168897585Y-119343549D01*
X169127549Y-119113585D01*
X169397958Y-118932903D01*
X169698421Y-118808447D01*
X169804744Y-118787298D01*
X170017389Y-118745000D01*
X170342611Y-118745000D01*
X170555256Y-118787298D01*
X170555256Y-118787298D01*
G37*
G36*
X166001000Y-93357000D02*
G01*
X164199000Y-93357000D01*
X164199000Y-91555000D01*
X166001000Y-91555000D01*
X166001000Y-93357000D01*
X166001000Y-93357000D01*
G37*
G36*
X183781000Y-93357000D02*
G01*
X181979000Y-93357000D01*
X181979000Y-91555000D01*
X183781000Y-91555000D01*
X183781000Y-93357000D01*
X183781000Y-93357000D01*
G37*
G36*
X180625000Y-69881000D02*
G01*
X178023000Y-69881000D01*
X178023000Y-67279000D01*
X180625000Y-67279000D01*
X180625000Y-69881000D01*
X180625000Y-69881000D01*
G37*
G36*
X168179000Y-69881000D02*
G01*
X165577000Y-69881000D01*
X165577000Y-67279000D01*
X168179000Y-67279000D01*
X168179000Y-69881000D01*
X168179000Y-69881000D01*
G37*
G36*
X172257487Y-67328996D02*
G01*
X172494253Y-67427068D01*
X172494255Y-67427069D01*
X172707339Y-67569447D01*
X172888553Y-67750661D01*
X173030932Y-67963747D01*
X173129004Y-68200513D01*
X173179000Y-68451861D01*
X173179000Y-68708139D01*
X173129004Y-68959487D01*
X173070629Y-69100416D01*
X173030931Y-69196255D01*
X172888553Y-69409339D01*
X172707339Y-69590553D01*
X172494255Y-69732931D01*
X172494254Y-69732932D01*
X172494253Y-69732932D01*
X172257487Y-69831004D01*
X172006139Y-69881000D01*
X171749861Y-69881000D01*
X171498513Y-69831004D01*
X171261747Y-69732932D01*
X171261746Y-69732932D01*
X171261745Y-69732931D01*
X171048661Y-69590553D01*
X170867447Y-69409339D01*
X170725069Y-69196255D01*
X170685371Y-69100416D01*
X170626996Y-68959487D01*
X170577000Y-68708139D01*
X170577000Y-68451861D01*
X170626996Y-68200513D01*
X170725068Y-67963747D01*
X170867447Y-67750661D01*
X171048661Y-67569447D01*
X171261745Y-67427069D01*
X171261747Y-67427068D01*
X171498513Y-67328996D01*
X171749861Y-67279000D01*
X172006139Y-67279000D01*
X172257487Y-67328996D01*
X172257487Y-67328996D01*
G37*
G36*
X192309000Y-69881000D02*
G01*
X189707000Y-69881000D01*
X189707000Y-67279000D01*
X192309000Y-67279000D01*
X192309000Y-69881000D01*
X192309000Y-69881000D01*
G37*
G36*
X184703487Y-67328996D02*
G01*
X184940253Y-67427068D01*
X184940255Y-67427069D01*
X185153339Y-67569447D01*
X185334553Y-67750661D01*
X185476932Y-67963747D01*
X185575004Y-68200513D01*
X185625000Y-68451861D01*
X185625000Y-68708139D01*
X185575004Y-68959487D01*
X185516629Y-69100416D01*
X185476931Y-69196255D01*
X185334553Y-69409339D01*
X185153339Y-69590553D01*
X184940255Y-69732931D01*
X184940254Y-69732932D01*
X184940253Y-69732932D01*
X184703487Y-69831004D01*
X184452139Y-69881000D01*
X184195861Y-69881000D01*
X183944513Y-69831004D01*
X183707747Y-69732932D01*
X183707746Y-69732932D01*
X183707745Y-69732931D01*
X183494661Y-69590553D01*
X183313447Y-69409339D01*
X183171069Y-69196255D01*
X183131371Y-69100416D01*
X183072996Y-68959487D01*
X183023000Y-68708139D01*
X183023000Y-68451861D01*
X183072996Y-68200513D01*
X183171068Y-67963747D01*
X183313447Y-67750661D01*
X183494661Y-67569447D01*
X183707745Y-67427069D01*
X183707747Y-67427068D01*
X183944513Y-67328996D01*
X184195861Y-67279000D01*
X184452139Y-67279000D01*
X184703487Y-67328996D01*
X184703487Y-67328996D01*
G37*
G36*
X196387487Y-67328996D02*
G01*
X196624253Y-67427068D01*
X196624255Y-67427069D01*
X196837339Y-67569447D01*
X197018553Y-67750661D01*
X197160932Y-67963747D01*
X197259004Y-68200513D01*
X197309000Y-68451861D01*
X197309000Y-68708139D01*
X197259004Y-68959487D01*
X197200629Y-69100416D01*
X197160931Y-69196255D01*
X197018553Y-69409339D01*
X196837339Y-69590553D01*
X196624255Y-69732931D01*
X196624254Y-69732932D01*
X196624253Y-69732932D01*
X196387487Y-69831004D01*
X196136139Y-69881000D01*
X195879861Y-69881000D01*
X195628513Y-69831004D01*
X195391747Y-69732932D01*
X195391746Y-69732932D01*
X195391745Y-69732931D01*
X195178661Y-69590553D01*
X194997447Y-69409339D01*
X194855069Y-69196255D01*
X194815371Y-69100416D01*
X194756996Y-68959487D01*
X194707000Y-68708139D01*
X194707000Y-68451861D01*
X194756996Y-68200513D01*
X194855068Y-67963747D01*
X194997447Y-67750661D01*
X195178661Y-67569447D01*
X195391745Y-67427069D01*
X195391747Y-67427068D01*
X195628513Y-67328996D01*
X195879861Y-67279000D01*
X196136139Y-67279000D01*
X196387487Y-67328996D01*
X196387487Y-67328996D01*
G37*
G36*
X159379256Y-66209298D02*
G01*
X159485579Y-66230447D01*
X159786042Y-66354903D01*
X160056451Y-66535585D01*
X160286415Y-66765549D01*
X160467097Y-67035958D01*
X160591553Y-67336421D01*
X160655000Y-67655391D01*
X160655000Y-67980609D01*
X160591553Y-68299579D01*
X160467097Y-68600042D01*
X160286415Y-68870451D01*
X160056451Y-69100415D01*
X159786042Y-69281097D01*
X159485579Y-69405553D01*
X159466545Y-69409339D01*
X159166611Y-69469000D01*
X158841389Y-69469000D01*
X158541455Y-69409339D01*
X158522421Y-69405553D01*
X158221958Y-69281097D01*
X157951549Y-69100415D01*
X157721585Y-68870451D01*
X157540903Y-68600042D01*
X157416447Y-68299579D01*
X157353000Y-67980609D01*
X157353000Y-67655391D01*
X157416447Y-67336421D01*
X157540903Y-67035958D01*
X157721585Y-66765549D01*
X157951549Y-66535585D01*
X158221958Y-66354903D01*
X158522421Y-66230447D01*
X158628744Y-66209298D01*
X158841389Y-66167000D01*
X159166611Y-66167000D01*
X159379256Y-66209298D01*
X159379256Y-66209298D01*
G37*
G36*
X202051256Y-66209298D02*
G01*
X202157579Y-66230447D01*
X202458042Y-66354903D01*
X202728451Y-66535585D01*
X202958415Y-66765549D01*
X203139097Y-67035958D01*
X203263553Y-67336421D01*
X203327000Y-67655391D01*
X203327000Y-67980609D01*
X203263553Y-68299579D01*
X203139097Y-68600042D01*
X202958415Y-68870451D01*
X202728451Y-69100415D01*
X202458042Y-69281097D01*
X202157579Y-69405553D01*
X202138545Y-69409339D01*
X201838611Y-69469000D01*
X201513389Y-69469000D01*
X201213455Y-69409339D01*
X201194421Y-69405553D01*
X200893958Y-69281097D01*
X200623549Y-69100415D01*
X200393585Y-68870451D01*
X200212903Y-68600042D01*
X200088447Y-68299579D01*
X200025000Y-67980609D01*
X200025000Y-67655391D01*
X200088447Y-67336421D01*
X200212903Y-67035958D01*
X200393585Y-66765549D01*
X200623549Y-66535585D01*
X200893958Y-66354903D01*
X201194421Y-66230447D01*
X201300744Y-66209298D01*
X201513389Y-66167000D01*
X201838611Y-66167000D01*
X202051256Y-66209298D01*
X202051256Y-66209298D01*
G37*
M02*
