G04 #@! TF.GenerationSoftware,KiCad,Pcbnew,(5.1.5)-3*
G04 #@! TF.CreationDate,2020-06-18T12:09:29-04:00*
G04 #@! TF.ProjectId,psu_board,7073755f-626f-4617-9264-2e6b69636164,rev?*
G04 #@! TF.SameCoordinates,Original*
G04 #@! TF.FileFunction,Legend,Top*
G04 #@! TF.FilePolarity,Positive*
%FSLAX46Y46*%
G04 Gerber Fmt 4.6, Leading zero omitted, Abs format (unit mm)*
G04 Created by KiCad (PCBNEW (5.1.5)-3) date 2020-06-18 12:09:29*
%MOMM*%
%LPD*%
G04 APERTURE LIST*
%ADD10C,0.150000*%
%ADD11C,0.120000*%
G04 APERTURE END LIST*
D10*
X172990285Y-144788000D02*
X172895047Y-144740380D01*
X172752190Y-144740380D01*
X172609333Y-144788000D01*
X172514095Y-144883238D01*
X172466476Y-144978476D01*
X172418857Y-145168952D01*
X172418857Y-145311809D01*
X172466476Y-145502285D01*
X172514095Y-145597523D01*
X172609333Y-145692761D01*
X172752190Y-145740380D01*
X172847428Y-145740380D01*
X172990285Y-145692761D01*
X173037904Y-145645142D01*
X173037904Y-145311809D01*
X172847428Y-145311809D01*
X173466476Y-145740380D02*
X173466476Y-144740380D01*
X174037904Y-145740380D01*
X174037904Y-144740380D01*
X174514095Y-145740380D02*
X174514095Y-144740380D01*
X174752190Y-144740380D01*
X174895047Y-144788000D01*
X174990285Y-144883238D01*
X175037904Y-144978476D01*
X175085523Y-145168952D01*
X175085523Y-145311809D01*
X175037904Y-145502285D01*
X174990285Y-145597523D01*
X174895047Y-145692761D01*
X174752190Y-145740380D01*
X174514095Y-145740380D01*
X178323619Y-145740380D02*
X177752190Y-145740380D01*
X178037904Y-145740380D02*
X178037904Y-144740380D01*
X177942666Y-144883238D01*
X177847428Y-144978476D01*
X177752190Y-145026095D01*
X178704571Y-144835619D02*
X178752190Y-144788000D01*
X178847428Y-144740380D01*
X179085523Y-144740380D01*
X179180761Y-144788000D01*
X179228380Y-144835619D01*
X179276000Y-144930857D01*
X179276000Y-145026095D01*
X179228380Y-145168952D01*
X178656952Y-145740380D01*
X179276000Y-145740380D01*
X179561714Y-144740380D02*
X179895047Y-145740380D01*
X180228380Y-144740380D01*
X184928190Y-146312000D02*
X184832952Y-146264380D01*
X184690095Y-146264380D01*
X184547238Y-146312000D01*
X184452000Y-146407238D01*
X184404380Y-146502476D01*
X184356761Y-146692952D01*
X184356761Y-146835809D01*
X184404380Y-147026285D01*
X184452000Y-147121523D01*
X184547238Y-147216761D01*
X184690095Y-147264380D01*
X184785333Y-147264380D01*
X184928190Y-147216761D01*
X184975809Y-147169142D01*
X184975809Y-146835809D01*
X184785333Y-146835809D01*
X185404380Y-147264380D02*
X185404380Y-146264380D01*
X185975809Y-147264380D01*
X185975809Y-146264380D01*
X186452000Y-147264380D02*
X186452000Y-146264380D01*
X186690095Y-146264380D01*
X186832952Y-146312000D01*
X186928190Y-146407238D01*
X186975809Y-146502476D01*
X187023428Y-146692952D01*
X187023428Y-146835809D01*
X186975809Y-147026285D01*
X186928190Y-147121523D01*
X186832952Y-147216761D01*
X186690095Y-147264380D01*
X186452000Y-147264380D01*
X188737714Y-147264380D02*
X188166285Y-147264380D01*
X188452000Y-147264380D02*
X188452000Y-146264380D01*
X188356761Y-146407238D01*
X188261523Y-146502476D01*
X188166285Y-146550095D01*
X189118666Y-146359619D02*
X189166285Y-146312000D01*
X189261523Y-146264380D01*
X189499619Y-146264380D01*
X189594857Y-146312000D01*
X189642476Y-146359619D01*
X189690095Y-146454857D01*
X189690095Y-146550095D01*
X189642476Y-146692952D01*
X189071047Y-147264380D01*
X189690095Y-147264380D01*
X189975809Y-146264380D02*
X190309142Y-147264380D01*
X190642476Y-146264380D01*
D11*
X181616000Y-147846000D02*
X180116000Y-147846000D01*
X181616000Y-149586000D02*
X181616000Y-147846000D01*
X174996000Y-151170000D02*
X175090000Y-151077000D01*
X172746000Y-153421000D02*
X172805000Y-153362000D01*
X174826000Y-150930000D02*
X174885000Y-150872000D01*
X172541000Y-153215000D02*
X172635000Y-153122000D01*
X171256000Y-157206000D02*
X171256000Y-148086000D01*
X181376000Y-157206000D02*
X181376000Y-148086000D01*
X181376000Y-148086000D02*
X171256000Y-148086000D01*
X181376000Y-157206000D02*
X171256000Y-157206000D01*
X181376000Y-149646000D02*
X171256000Y-149646000D01*
X174716000Y-155146000D02*
G75*
G03X174716000Y-155146000I-900000J0D01*
G01*
X175496000Y-152146000D02*
G75*
G03X175496000Y-152146000I-1680000J0D01*
G01*
X179716000Y-155146000D02*
G75*
G03X179716000Y-155146000I-900000J0D01*
G01*
X178786617Y-150465550D02*
G75*
G02X179605000Y-150662000I29383J-1680450D01*
G01*
X180299953Y-151356912D02*
G75*
G02X180300000Y-152935000I-1483953J-789088D01*
G01*
X179605088Y-153629953D02*
G75*
G02X178027000Y-153630000I-789088J1483953D01*
G01*
X177332047Y-152935088D02*
G75*
G02X177332000Y-151357000I1483953J789088D01*
G01*
X178027288Y-150662648D02*
G75*
G02X178816000Y-150466000I788712J-1483352D01*
G01*
X187900000Y-149546000D02*
X189230000Y-149546000D01*
X187900000Y-150876000D02*
X187900000Y-149546000D01*
X187900000Y-152146000D02*
X190560000Y-152146000D01*
X190560000Y-152146000D02*
X190560000Y-157286000D01*
X187900000Y-152146000D02*
X187900000Y-157286000D01*
X187900000Y-157286000D02*
X190560000Y-157286000D01*
X228540000Y-142688000D02*
X229870000Y-142688000D01*
X228540000Y-144018000D02*
X228540000Y-142688000D01*
X228540000Y-145288000D02*
X231200000Y-145288000D01*
X231200000Y-145288000D02*
X231200000Y-145348000D01*
X228540000Y-145288000D02*
X228540000Y-145348000D01*
X228540000Y-145348000D02*
X231200000Y-145348000D01*
X177286000Y-72880000D02*
X178786000Y-72880000D01*
X177286000Y-71140000D02*
X177286000Y-72880000D01*
X183906000Y-69556000D02*
X183812000Y-69649000D01*
X186156000Y-67305000D02*
X186097000Y-67364000D01*
X184076000Y-69796000D02*
X184017000Y-69854000D01*
X186361000Y-67511000D02*
X186267000Y-67604000D01*
X187646000Y-63520000D02*
X187646000Y-72640000D01*
X177526000Y-63520000D02*
X177526000Y-72640000D01*
X177526000Y-72640000D02*
X187646000Y-72640000D01*
X177526000Y-63520000D02*
X187646000Y-63520000D01*
X177526000Y-71080000D02*
X187646000Y-71080000D01*
X185986000Y-65580000D02*
G75*
G03X185986000Y-65580000I-900000J0D01*
G01*
X186766000Y-68580000D02*
G75*
G03X186766000Y-68580000I-1680000J0D01*
G01*
X180986000Y-65580000D02*
G75*
G03X180986000Y-65580000I-900000J0D01*
G01*
X180115383Y-70260450D02*
G75*
G02X179297000Y-70064000I-29383J1680450D01*
G01*
X178602047Y-69369088D02*
G75*
G02X178602000Y-67791000I1483953J789088D01*
G01*
X179296912Y-67096047D02*
G75*
G02X180875000Y-67096000I789088J-1483953D01*
G01*
X181569953Y-67790912D02*
G75*
G02X181570000Y-69369000I-1483953J-789088D01*
G01*
X180874712Y-70063352D02*
G75*
G02X180086000Y-70260000I-788712J1483352D01*
G01*
X241240000Y-74108000D02*
X242570000Y-74108000D01*
X241240000Y-75438000D02*
X241240000Y-74108000D01*
X241240000Y-76708000D02*
X243900000Y-76708000D01*
X243900000Y-76708000D02*
X243900000Y-76768000D01*
X241240000Y-76708000D02*
X241240000Y-76768000D01*
X241240000Y-76768000D02*
X243900000Y-76768000D01*
X223460000Y-74108000D02*
X224790000Y-74108000D01*
X223460000Y-75438000D02*
X223460000Y-74108000D01*
X223460000Y-76708000D02*
X226120000Y-76708000D01*
X226120000Y-76708000D02*
X226120000Y-76768000D01*
X223460000Y-76708000D02*
X223460000Y-76768000D01*
X223460000Y-76768000D02*
X226120000Y-76768000D01*
X215840000Y-142688000D02*
X217170000Y-142688000D01*
X215840000Y-144018000D02*
X215840000Y-142688000D01*
X215840000Y-145288000D02*
X218500000Y-145288000D01*
X218500000Y-145288000D02*
X218500000Y-145348000D01*
X215840000Y-145288000D02*
X215840000Y-145348000D01*
X215840000Y-145348000D02*
X218500000Y-145348000D01*
X241240000Y-142942000D02*
X242570000Y-142942000D01*
X241240000Y-144272000D02*
X241240000Y-142942000D01*
X241240000Y-145542000D02*
X243900000Y-145542000D01*
X243900000Y-145542000D02*
X243900000Y-145602000D01*
X241240000Y-145542000D02*
X241240000Y-145602000D01*
X241240000Y-145602000D02*
X243900000Y-145602000D01*
X187004000Y-157286000D02*
X185674000Y-157286000D01*
X187004000Y-155956000D02*
X187004000Y-157286000D01*
X187004000Y-154686000D02*
X184344000Y-154686000D01*
X184344000Y-154686000D02*
X184344000Y-149546000D01*
X187004000Y-154686000D02*
X187004000Y-149546000D01*
X187004000Y-149546000D02*
X184344000Y-149546000D01*
D10*
X245872095Y-150430380D02*
X245872095Y-149430380D01*
X245872095Y-149906571D02*
X246443523Y-149906571D01*
X246443523Y-150430380D02*
X246443523Y-149430380D01*
X247348285Y-149763714D02*
X247348285Y-150430380D01*
X247110190Y-149382761D02*
X246872095Y-150097047D01*
X247491142Y-150097047D01*
X165862095Y-63054380D02*
X165862095Y-62054380D01*
X165862095Y-62530571D02*
X166433523Y-62530571D01*
X166433523Y-63054380D02*
X166433523Y-62054380D01*
X167433523Y-63054380D02*
X166862095Y-63054380D01*
X167147809Y-63054380D02*
X167147809Y-62054380D01*
X167052571Y-62197238D01*
X166957333Y-62292476D01*
X166862095Y-62340095D01*
X175466476Y-146264380D02*
X175466476Y-146978666D01*
X175418857Y-147121523D01*
X175323619Y-147216761D01*
X175180761Y-147264380D01*
X175085523Y-147264380D01*
X176466476Y-147264380D02*
X175895047Y-147264380D01*
X176180761Y-147264380D02*
X176180761Y-146264380D01*
X176085523Y-146407238D01*
X175990285Y-146502476D01*
X175895047Y-146550095D01*
X177371238Y-146264380D02*
X176895047Y-146264380D01*
X176847428Y-146740571D01*
X176895047Y-146692952D01*
X176990285Y-146645333D01*
X177228380Y-146645333D01*
X177323619Y-146692952D01*
X177371238Y-146740571D01*
X177418857Y-146835809D01*
X177418857Y-147073904D01*
X177371238Y-147169142D01*
X177323619Y-147216761D01*
X177228380Y-147264380D01*
X176990285Y-147264380D01*
X176895047Y-147216761D01*
X176847428Y-147169142D01*
X188420476Y-147998380D02*
X188420476Y-148712666D01*
X188372857Y-148855523D01*
X188277619Y-148950761D01*
X188134761Y-148998380D01*
X188039523Y-148998380D01*
X189420476Y-148998380D02*
X188849047Y-148998380D01*
X189134761Y-148998380D02*
X189134761Y-147998380D01*
X189039523Y-148141238D01*
X188944285Y-148236476D01*
X188849047Y-148284095D01*
X189753809Y-147998380D02*
X190372857Y-147998380D01*
X190039523Y-148379333D01*
X190182380Y-148379333D01*
X190277619Y-148426952D01*
X190325238Y-148474571D01*
X190372857Y-148569809D01*
X190372857Y-148807904D01*
X190325238Y-148903142D01*
X190277619Y-148950761D01*
X190182380Y-148998380D01*
X189896666Y-148998380D01*
X189801428Y-148950761D01*
X189753809Y-148903142D01*
X165862095Y-150430380D02*
X165862095Y-149430380D01*
X165862095Y-149906571D02*
X166433523Y-149906571D01*
X166433523Y-150430380D02*
X166433523Y-149430380D01*
X166814476Y-149430380D02*
X167433523Y-149430380D01*
X167100190Y-149811333D01*
X167243047Y-149811333D01*
X167338285Y-149858952D01*
X167385904Y-149906571D01*
X167433523Y-150001809D01*
X167433523Y-150239904D01*
X167385904Y-150335142D01*
X167338285Y-150382761D01*
X167243047Y-150430380D01*
X166957333Y-150430380D01*
X166862095Y-150382761D01*
X166814476Y-150335142D01*
X245872095Y-62800380D02*
X245872095Y-61800380D01*
X245872095Y-62276571D02*
X246443523Y-62276571D01*
X246443523Y-62800380D02*
X246443523Y-61800380D01*
X246872095Y-61895619D02*
X246919714Y-61848000D01*
X247014952Y-61800380D01*
X247253047Y-61800380D01*
X247348285Y-61848000D01*
X247395904Y-61895619D01*
X247443523Y-61990857D01*
X247443523Y-62086095D01*
X247395904Y-62228952D01*
X246824476Y-62800380D01*
X247443523Y-62800380D01*
X229060476Y-141140380D02*
X229060476Y-141854666D01*
X229012857Y-141997523D01*
X228917619Y-142092761D01*
X228774761Y-142140380D01*
X228679523Y-142140380D01*
X230060476Y-142140380D02*
X229489047Y-142140380D01*
X229774761Y-142140380D02*
X229774761Y-141140380D01*
X229679523Y-141283238D01*
X229584285Y-141378476D01*
X229489047Y-141426095D01*
X230441428Y-141235619D02*
X230489047Y-141188000D01*
X230584285Y-141140380D01*
X230822380Y-141140380D01*
X230917619Y-141188000D01*
X230965238Y-141235619D01*
X231012857Y-141330857D01*
X231012857Y-141426095D01*
X230965238Y-141568952D01*
X230393809Y-142140380D01*
X231012857Y-142140380D01*
X181816476Y-73620380D02*
X181816476Y-74334666D01*
X181768857Y-74477523D01*
X181673619Y-74572761D01*
X181530761Y-74620380D01*
X181435523Y-74620380D01*
X182816476Y-74620380D02*
X182245047Y-74620380D01*
X182530761Y-74620380D02*
X182530761Y-73620380D01*
X182435523Y-73763238D01*
X182340285Y-73858476D01*
X182245047Y-73906095D01*
X183435523Y-73620380D02*
X183530761Y-73620380D01*
X183626000Y-73668000D01*
X183673619Y-73715619D01*
X183721238Y-73810857D01*
X183768857Y-74001333D01*
X183768857Y-74239428D01*
X183721238Y-74429904D01*
X183673619Y-74525142D01*
X183626000Y-74572761D01*
X183530761Y-74620380D01*
X183435523Y-74620380D01*
X183340285Y-74572761D01*
X183292666Y-74525142D01*
X183245047Y-74429904D01*
X183197428Y-74239428D01*
X183197428Y-74001333D01*
X183245047Y-73810857D01*
X183292666Y-73715619D01*
X183340285Y-73668000D01*
X183435523Y-73620380D01*
X242236666Y-72560380D02*
X242236666Y-73274666D01*
X242189047Y-73417523D01*
X242093809Y-73512761D01*
X241950952Y-73560380D01*
X241855714Y-73560380D01*
X242760476Y-73560380D02*
X242950952Y-73560380D01*
X243046190Y-73512761D01*
X243093809Y-73465142D01*
X243189047Y-73322285D01*
X243236666Y-73131809D01*
X243236666Y-72750857D01*
X243189047Y-72655619D01*
X243141428Y-72608000D01*
X243046190Y-72560380D01*
X242855714Y-72560380D01*
X242760476Y-72608000D01*
X242712857Y-72655619D01*
X242665238Y-72750857D01*
X242665238Y-72988952D01*
X242712857Y-73084190D01*
X242760476Y-73131809D01*
X242855714Y-73179428D01*
X243046190Y-73179428D01*
X243141428Y-73131809D01*
X243189047Y-73084190D01*
X243236666Y-72988952D01*
X224456666Y-72560380D02*
X224456666Y-73274666D01*
X224409047Y-73417523D01*
X224313809Y-73512761D01*
X224170952Y-73560380D01*
X224075714Y-73560380D01*
X225075714Y-72988952D02*
X224980476Y-72941333D01*
X224932857Y-72893714D01*
X224885238Y-72798476D01*
X224885238Y-72750857D01*
X224932857Y-72655619D01*
X224980476Y-72608000D01*
X225075714Y-72560380D01*
X225266190Y-72560380D01*
X225361428Y-72608000D01*
X225409047Y-72655619D01*
X225456666Y-72750857D01*
X225456666Y-72798476D01*
X225409047Y-72893714D01*
X225361428Y-72941333D01*
X225266190Y-72988952D01*
X225075714Y-72988952D01*
X224980476Y-73036571D01*
X224932857Y-73084190D01*
X224885238Y-73179428D01*
X224885238Y-73369904D01*
X224932857Y-73465142D01*
X224980476Y-73512761D01*
X225075714Y-73560380D01*
X225266190Y-73560380D01*
X225361428Y-73512761D01*
X225409047Y-73465142D01*
X225456666Y-73369904D01*
X225456666Y-73179428D01*
X225409047Y-73084190D01*
X225361428Y-73036571D01*
X225266190Y-72988952D01*
X216836666Y-141140380D02*
X216836666Y-141854666D01*
X216789047Y-141997523D01*
X216693809Y-142092761D01*
X216550952Y-142140380D01*
X216455714Y-142140380D01*
X217789047Y-141140380D02*
X217312857Y-141140380D01*
X217265238Y-141616571D01*
X217312857Y-141568952D01*
X217408095Y-141521333D01*
X217646190Y-141521333D01*
X217741428Y-141568952D01*
X217789047Y-141616571D01*
X217836666Y-141711809D01*
X217836666Y-141949904D01*
X217789047Y-142045142D01*
X217741428Y-142092761D01*
X217646190Y-142140380D01*
X217408095Y-142140380D01*
X217312857Y-142092761D01*
X217265238Y-142045142D01*
X242236666Y-141394380D02*
X242236666Y-142108666D01*
X242189047Y-142251523D01*
X242093809Y-142346761D01*
X241950952Y-142394380D01*
X241855714Y-142394380D01*
X243141428Y-141727714D02*
X243141428Y-142394380D01*
X242903333Y-141346761D02*
X242665238Y-142061047D01*
X243284285Y-142061047D01*
X185340666Y-148042380D02*
X185340666Y-148756666D01*
X185293047Y-148899523D01*
X185197809Y-148994761D01*
X185054952Y-149042380D01*
X184959714Y-149042380D01*
X186340666Y-149042380D02*
X185769238Y-149042380D01*
X186054952Y-149042380D02*
X186054952Y-148042380D01*
X185959714Y-148185238D01*
X185864476Y-148280476D01*
X185769238Y-148328095D01*
M02*
