G04 #@! TF.GenerationSoftware,KiCad,Pcbnew,(5.1.5)-3*
G04 #@! TF.CreationDate,2020-06-18T12:09:29-04:00*
G04 #@! TF.ProjectId,psu_board,7073755f-626f-4617-9264-2e6b69636164,rev?*
G04 #@! TF.SameCoordinates,Original*
G04 #@! TF.FileFunction,Soldermask,Top*
G04 #@! TF.FilePolarity,Negative*
%FSLAX46Y46*%
G04 Gerber Fmt 4.6, Leading zero omitted, Abs format (unit mm)*
G04 Created by KiCad (PCBNEW (5.1.5)-3) date 2020-06-18 12:09:29*
%MOMM*%
%LPD*%
G04 APERTURE LIST*
%ADD10C,0.100000*%
G04 APERTURE END LIST*
D10*
G36*
X189343512Y-155059927D02*
G01*
X189492812Y-155089624D01*
X189656784Y-155157544D01*
X189804354Y-155256147D01*
X189929853Y-155381646D01*
X190028456Y-155529216D01*
X190096376Y-155693188D01*
X190131000Y-155867259D01*
X190131000Y-156044741D01*
X190096376Y-156218812D01*
X190028456Y-156382784D01*
X189929853Y-156530354D01*
X189804354Y-156655853D01*
X189656784Y-156754456D01*
X189492812Y-156822376D01*
X189343512Y-156852073D01*
X189318742Y-156857000D01*
X189141258Y-156857000D01*
X189116488Y-156852073D01*
X188967188Y-156822376D01*
X188803216Y-156754456D01*
X188655646Y-156655853D01*
X188530147Y-156530354D01*
X188431544Y-156382784D01*
X188363624Y-156218812D01*
X188329000Y-156044741D01*
X188329000Y-155867259D01*
X188363624Y-155693188D01*
X188431544Y-155529216D01*
X188530147Y-155381646D01*
X188655646Y-155256147D01*
X188803216Y-155157544D01*
X188967188Y-155089624D01*
X189116488Y-155059927D01*
X189141258Y-155055000D01*
X189318742Y-155055000D01*
X189343512Y-155059927D01*
G37*
G36*
X186575000Y-156857000D02*
G01*
X184773000Y-156857000D01*
X184773000Y-155055000D01*
X186575000Y-155055000D01*
X186575000Y-156857000D01*
G37*
G36*
X166999256Y-152569298D02*
G01*
X167105579Y-152590447D01*
X167406042Y-152714903D01*
X167676451Y-152895585D01*
X167906415Y-153125549D01*
X168087097Y-153395958D01*
X168211553Y-153696421D01*
X168275000Y-154015391D01*
X168275000Y-154340609D01*
X168211553Y-154659579D01*
X168087097Y-154960042D01*
X167906415Y-155230451D01*
X167676451Y-155460415D01*
X167406042Y-155641097D01*
X167105579Y-155765553D01*
X166999256Y-155786702D01*
X166786611Y-155829000D01*
X166461389Y-155829000D01*
X166248744Y-155786702D01*
X166142421Y-155765553D01*
X165841958Y-155641097D01*
X165571549Y-155460415D01*
X165341585Y-155230451D01*
X165160903Y-154960042D01*
X165036447Y-154659579D01*
X164973000Y-154340609D01*
X164973000Y-154015391D01*
X165036447Y-153696421D01*
X165160903Y-153395958D01*
X165341585Y-153125549D01*
X165571549Y-152895585D01*
X165841958Y-152714903D01*
X166142421Y-152590447D01*
X166248744Y-152569298D01*
X166461389Y-152527000D01*
X166786611Y-152527000D01*
X166999256Y-152569298D01*
G37*
G36*
X247009256Y-152569298D02*
G01*
X247115579Y-152590447D01*
X247416042Y-152714903D01*
X247686451Y-152895585D01*
X247916415Y-153125549D01*
X248097097Y-153395958D01*
X248221553Y-153696421D01*
X248285000Y-154015391D01*
X248285000Y-154340609D01*
X248221553Y-154659579D01*
X248097097Y-154960042D01*
X247916415Y-155230451D01*
X247686451Y-155460415D01*
X247416042Y-155641097D01*
X247115579Y-155765553D01*
X247009256Y-155786702D01*
X246796611Y-155829000D01*
X246471389Y-155829000D01*
X246258744Y-155786702D01*
X246152421Y-155765553D01*
X245851958Y-155641097D01*
X245581549Y-155460415D01*
X245351585Y-155230451D01*
X245170903Y-154960042D01*
X245046447Y-154659579D01*
X244983000Y-154340609D01*
X244983000Y-154015391D01*
X245046447Y-153696421D01*
X245170903Y-153395958D01*
X245351585Y-153125549D01*
X245581549Y-152895585D01*
X245851958Y-152714903D01*
X246152421Y-152590447D01*
X246258744Y-152569298D01*
X246471389Y-152527000D01*
X246796611Y-152527000D01*
X247009256Y-152569298D01*
G37*
G36*
X189343512Y-152519927D02*
G01*
X189492812Y-152549624D01*
X189656784Y-152617544D01*
X189804354Y-152716147D01*
X189929853Y-152841646D01*
X190028456Y-152989216D01*
X190096376Y-153153188D01*
X190131000Y-153327259D01*
X190131000Y-153504741D01*
X190096376Y-153678812D01*
X190028456Y-153842784D01*
X189929853Y-153990354D01*
X189804354Y-154115853D01*
X189656784Y-154214456D01*
X189492812Y-154282376D01*
X189343512Y-154312073D01*
X189318742Y-154317000D01*
X189141258Y-154317000D01*
X189116488Y-154312073D01*
X188967188Y-154282376D01*
X188803216Y-154214456D01*
X188655646Y-154115853D01*
X188530147Y-153990354D01*
X188431544Y-153842784D01*
X188363624Y-153678812D01*
X188329000Y-153504741D01*
X188329000Y-153327259D01*
X188363624Y-153153188D01*
X188431544Y-152989216D01*
X188530147Y-152841646D01*
X188655646Y-152716147D01*
X188803216Y-152617544D01*
X188967188Y-152549624D01*
X189116488Y-152519927D01*
X189141258Y-152515000D01*
X189318742Y-152515000D01*
X189343512Y-152519927D01*
G37*
G36*
X185787512Y-152519927D02*
G01*
X185936812Y-152549624D01*
X186100784Y-152617544D01*
X186248354Y-152716147D01*
X186373853Y-152841646D01*
X186472456Y-152989216D01*
X186540376Y-153153188D01*
X186575000Y-153327259D01*
X186575000Y-153504741D01*
X186540376Y-153678812D01*
X186472456Y-153842784D01*
X186373853Y-153990354D01*
X186248354Y-154115853D01*
X186100784Y-154214456D01*
X185936812Y-154282376D01*
X185787512Y-154312073D01*
X185762742Y-154317000D01*
X185585258Y-154317000D01*
X185560488Y-154312073D01*
X185411188Y-154282376D01*
X185247216Y-154214456D01*
X185099646Y-154115853D01*
X184974147Y-153990354D01*
X184875544Y-153842784D01*
X184807624Y-153678812D01*
X184773000Y-153504741D01*
X184773000Y-153327259D01*
X184807624Y-153153188D01*
X184875544Y-152989216D01*
X184974147Y-152841646D01*
X185099646Y-152716147D01*
X185247216Y-152617544D01*
X185411188Y-152549624D01*
X185560488Y-152519927D01*
X185585258Y-152515000D01*
X185762742Y-152515000D01*
X185787512Y-152519927D01*
G37*
G36*
X180117000Y-153447000D02*
G01*
X177515000Y-153447000D01*
X177515000Y-150845000D01*
X180117000Y-150845000D01*
X180117000Y-153447000D01*
G37*
G36*
X174195487Y-150894996D02*
G01*
X174363868Y-150964742D01*
X174432255Y-150993069D01*
X174645339Y-151135447D01*
X174826553Y-151316661D01*
X174915884Y-151450354D01*
X174968932Y-151529747D01*
X175067004Y-151766513D01*
X175117000Y-152017861D01*
X175117000Y-152274139D01*
X175067004Y-152525487D01*
X174988545Y-152714902D01*
X174968931Y-152762255D01*
X174826553Y-152975339D01*
X174645339Y-153156553D01*
X174432255Y-153298931D01*
X174432254Y-153298932D01*
X174432253Y-153298932D01*
X174195487Y-153397004D01*
X173944139Y-153447000D01*
X173687861Y-153447000D01*
X173436513Y-153397004D01*
X173199747Y-153298932D01*
X173199746Y-153298932D01*
X173199745Y-153298931D01*
X172986661Y-153156553D01*
X172805447Y-152975339D01*
X172663069Y-152762255D01*
X172643455Y-152714902D01*
X172564996Y-152525487D01*
X172515000Y-152274139D01*
X172515000Y-152017861D01*
X172564996Y-151766513D01*
X172663068Y-151529747D01*
X172716117Y-151450354D01*
X172805447Y-151316661D01*
X172986661Y-151135447D01*
X173199745Y-150993069D01*
X173268132Y-150964742D01*
X173436513Y-150894996D01*
X173687861Y-150845000D01*
X173944139Y-150845000D01*
X174195487Y-150894996D01*
G37*
G36*
X185787512Y-149979927D02*
G01*
X185936812Y-150009624D01*
X186100784Y-150077544D01*
X186248354Y-150176147D01*
X186373853Y-150301646D01*
X186472456Y-150449216D01*
X186540376Y-150613188D01*
X186575000Y-150787259D01*
X186575000Y-150964741D01*
X186540376Y-151138812D01*
X186472456Y-151302784D01*
X186373853Y-151450354D01*
X186248354Y-151575853D01*
X186100784Y-151674456D01*
X185936812Y-151742376D01*
X185787512Y-151772073D01*
X185762742Y-151777000D01*
X185585258Y-151777000D01*
X185560488Y-151772073D01*
X185411188Y-151742376D01*
X185247216Y-151674456D01*
X185099646Y-151575853D01*
X184974147Y-151450354D01*
X184875544Y-151302784D01*
X184807624Y-151138812D01*
X184773000Y-150964741D01*
X184773000Y-150787259D01*
X184807624Y-150613188D01*
X184875544Y-150449216D01*
X184974147Y-150301646D01*
X185099646Y-150176147D01*
X185247216Y-150077544D01*
X185411188Y-150009624D01*
X185560488Y-149979927D01*
X185585258Y-149975000D01*
X185762742Y-149975000D01*
X185787512Y-149979927D01*
G37*
G36*
X190131000Y-151777000D02*
G01*
X188329000Y-151777000D01*
X188329000Y-149975000D01*
X190131000Y-149975000D01*
X190131000Y-151777000D01*
G37*
G36*
X243471000Y-145173000D02*
G01*
X241669000Y-145173000D01*
X241669000Y-143371000D01*
X243471000Y-143371000D01*
X243471000Y-145173000D01*
G37*
G36*
X218071000Y-144919000D02*
G01*
X216269000Y-144919000D01*
X216269000Y-143117000D01*
X218071000Y-143117000D01*
X218071000Y-144919000D01*
G37*
G36*
X230771000Y-144919000D02*
G01*
X228969000Y-144919000D01*
X228969000Y-143117000D01*
X230771000Y-143117000D01*
X230771000Y-144919000D01*
G37*
G36*
X243471000Y-76339000D02*
G01*
X241669000Y-76339000D01*
X241669000Y-74537000D01*
X243471000Y-74537000D01*
X243471000Y-76339000D01*
G37*
G36*
X225691000Y-76339000D02*
G01*
X223889000Y-76339000D01*
X223889000Y-74537000D01*
X225691000Y-74537000D01*
X225691000Y-76339000D01*
G37*
G36*
X181387000Y-69881000D02*
G01*
X178785000Y-69881000D01*
X178785000Y-67279000D01*
X181387000Y-67279000D01*
X181387000Y-69881000D01*
G37*
G36*
X185465487Y-67328996D02*
G01*
X185702253Y-67427068D01*
X185702255Y-67427069D01*
X185915339Y-67569447D01*
X186096553Y-67750661D01*
X186149844Y-67830416D01*
X186238932Y-67963747D01*
X186337004Y-68200513D01*
X186387000Y-68451861D01*
X186387000Y-68708139D01*
X186337004Y-68959487D01*
X186238932Y-69196253D01*
X186238931Y-69196255D01*
X186096553Y-69409339D01*
X185915339Y-69590553D01*
X185702255Y-69732931D01*
X185702254Y-69732932D01*
X185702253Y-69732932D01*
X185465487Y-69831004D01*
X185214139Y-69881000D01*
X184957861Y-69881000D01*
X184706513Y-69831004D01*
X184469747Y-69732932D01*
X184469746Y-69732932D01*
X184469745Y-69732931D01*
X184256661Y-69590553D01*
X184075447Y-69409339D01*
X183933069Y-69196255D01*
X183933068Y-69196253D01*
X183834996Y-68959487D01*
X183785000Y-68708139D01*
X183785000Y-68451861D01*
X183834996Y-68200513D01*
X183933068Y-67963747D01*
X184022157Y-67830416D01*
X184075447Y-67750661D01*
X184256661Y-67569447D01*
X184469745Y-67427069D01*
X184469747Y-67427068D01*
X184706513Y-67328996D01*
X184957861Y-67279000D01*
X185214139Y-67279000D01*
X185465487Y-67328996D01*
G37*
G36*
X166999256Y-65193298D02*
G01*
X167105579Y-65214447D01*
X167406042Y-65338903D01*
X167676451Y-65519585D01*
X167906415Y-65749549D01*
X168087097Y-66019958D01*
X168211553Y-66320421D01*
X168275000Y-66639391D01*
X168275000Y-66964609D01*
X168211553Y-67283579D01*
X168192740Y-67328997D01*
X168093143Y-67569447D01*
X168087097Y-67584042D01*
X167906415Y-67854451D01*
X167676451Y-68084415D01*
X167406042Y-68265097D01*
X167105579Y-68389553D01*
X166999256Y-68410702D01*
X166786611Y-68453000D01*
X166461389Y-68453000D01*
X166248744Y-68410702D01*
X166142421Y-68389553D01*
X165841958Y-68265097D01*
X165571549Y-68084415D01*
X165341585Y-67854451D01*
X165160903Y-67584042D01*
X165154858Y-67569447D01*
X165055260Y-67328997D01*
X165036447Y-67283579D01*
X164973000Y-66964609D01*
X164973000Y-66639391D01*
X165036447Y-66320421D01*
X165160903Y-66019958D01*
X165341585Y-65749549D01*
X165571549Y-65519585D01*
X165841958Y-65338903D01*
X166142421Y-65214447D01*
X166248744Y-65193298D01*
X166461389Y-65151000D01*
X166786611Y-65151000D01*
X166999256Y-65193298D01*
G37*
G36*
X247009256Y-64939298D02*
G01*
X247115579Y-64960447D01*
X247416042Y-65084903D01*
X247686451Y-65265585D01*
X247916415Y-65495549D01*
X248097097Y-65765958D01*
X248221553Y-66066421D01*
X248285000Y-66385391D01*
X248285000Y-66710609D01*
X248221553Y-67029579D01*
X248097097Y-67330042D01*
X247916415Y-67600451D01*
X247686451Y-67830415D01*
X247416042Y-68011097D01*
X247115579Y-68135553D01*
X247009256Y-68156702D01*
X246796611Y-68199000D01*
X246471389Y-68199000D01*
X246258744Y-68156702D01*
X246152421Y-68135553D01*
X245851958Y-68011097D01*
X245581549Y-67830415D01*
X245351585Y-67600451D01*
X245170903Y-67330042D01*
X245046447Y-67029579D01*
X244983000Y-66710609D01*
X244983000Y-66385391D01*
X245046447Y-66066421D01*
X245170903Y-65765958D01*
X245351585Y-65495549D01*
X245581549Y-65265585D01*
X245851958Y-65084903D01*
X246152421Y-64960447D01*
X246258744Y-64939298D01*
X246471389Y-64897000D01*
X246796611Y-64897000D01*
X247009256Y-64939298D01*
G37*
M02*
