M48
; DRILL file {KiCad (5.1.4)-1} date 12-Dec-19 14:56:48
; FORMAT={3:3/ absolute / metric / suppress leading zeros}
; #@! TF.CreationDate,2019-12-12T14:56:48-05:00
; #@! TF.GenerationSoftware,Kicad,Pcbnew,(5.1.4)-1
FMAT,2
METRIC,TZ
T1C1.000
T2C1.300
T3C3.200
%
G90
G05
T1
X194056Y-156972
X196596Y-159512
X173228Y-156972
X173228Y-159512
X175768Y-156972
X175768Y-159512
X178308Y-156972
X178308Y-159512
X180848Y-156972
X180848Y-159512
X165100Y-92456
X157480Y-138176
X182880Y-92456
X182880Y-138176
X170180Y-138176
X188976Y-156972
X188976Y-159512
X191516Y-156972
X191516Y-159512
X194056Y-159512
X196596Y-156972
T2
X179324Y-68580
X184324Y-68580
X157814Y-155702
X162814Y-155702
X191008Y-68580
X196008Y-68580
X166878Y-68580
X171878Y-68580
T3
X170180Y-120396
X201676Y-67818
X201676Y-157480
X159004Y-67818
T0
M30
