M48
; DRILL file {KiCad (5.1.5)-3} date 18-Jun-20 11:51:02
; FORMAT={-:-/ absolute / inch / decimal}
; #@! TF.CreationDate,2020-06-18T11:51:02-04:00
; #@! TF.GenerationSoftware,Kicad,Pcbnew,(5.1.5)-3
; #@! TF.FileFunction,Plated,1,2,PTH
FMAT,2
INCH
T1C0.0157
T2C0.0197
T3C0.0299
T4C0.0394
T5C0.0433
T6C0.1260
%
G90
G05
T1
X1.91Y-4.64
X2.84Y-5.9
X3.83Y-4.34
X3.95Y-4.52
X3.95Y-5.9
X4.18Y-5.9
X5.14Y-1.56
X5.27Y-1.2
X5.27Y-1.29
X5.27Y-1.39
X5.41Y-2.24
X5.41Y-2.34
X5.41Y-2.44
X5.43Y-1.71
X5.43Y-1.94
X5.43Y-2.04
X5.44Y-1.84
X5.8Y-1.47
X5.8Y-2.29
X6.17Y-1.81
X6.17Y-1.91
X6.17Y-2.62
X6.17Y-2.72
X6.17Y-2.82
X6.19Y-2.07
X6.28Y-2.13
X6.44Y-2.62
X6.44Y-2.72
X6.44Y-2.82
X6.56Y-2.57
X6.56Y-2.67
X6.56Y-2.77
X6.56Y-2.87
X6.6Y-1.09
T2
X6.2355Y-1.63
X6.2632Y-1.5632
X6.2632Y-1.6968
X6.33Y-1.5355
X6.33Y-1.7245
X6.3968Y-1.5632
X6.3968Y-1.6968
X6.4245Y-1.63
X6.2355Y-5.88
X6.2632Y-5.8132
X6.2632Y-5.9468
X6.33Y-5.7855
X6.33Y-5.9745
X6.3968Y-5.8132
X6.3968Y-5.9468
X6.4245Y-5.88
X1.8055Y-5.88
X1.8332Y-5.8132
X1.8332Y-5.9468
X1.9Y-5.7855
X1.9Y-5.9745
X1.9668Y-5.8132
X1.9668Y-5.9468
X1.9945Y-5.88
X1.8055Y-1.63
X1.8332Y-1.5632
X1.8332Y-1.6968
X1.9Y-1.5355
X1.9Y-1.7245
X1.9668Y-1.5632
X1.9668Y-1.6968
X1.9945Y-1.63
T4
X3.28Y-4.7
X3.28Y-4.8
X3.28Y-4.9
X3.28Y-5.0
X3.28Y-5.1
X3.28Y-5.2
X3.28Y-5.3
X3.28Y-5.4
X1.85Y-4.7
X1.85Y-4.8
X1.85Y-4.9
X1.85Y-5.0
X1.85Y-5.1
X1.85Y-5.2
X1.85Y-5.3
X1.85Y-5.4
X3.67Y-4.7
X3.67Y-4.8
X3.67Y-4.9
X3.67Y-5.0
X3.67Y-5.1
X3.67Y-5.2
X3.67Y-5.3
X3.67Y-5.4
X6.27Y-2.57
X6.27Y-2.67
X6.27Y-2.77
X6.27Y-2.87
X6.37Y-2.57
X6.37Y-2.67
X6.37Y-2.77
X6.37Y-2.87
X3.9038Y-5.97
X3.9583Y-6.0818
X4.0128Y-5.97
X4.0674Y-6.0818
X4.1219Y-5.97
X4.1764Y-6.0818
X4.2309Y-5.97
X4.2855Y-6.0818
X4.34Y-5.97
X2.5638Y-5.97
X2.6183Y-6.0818
X2.6728Y-5.97
X2.7274Y-6.0818
X2.7819Y-5.97
X2.8364Y-6.0818
X2.8909Y-5.97
X2.9455Y-6.0818
X3.0Y-5.97
X6.35Y-1.93
X6.35Y-2.03
X6.35Y-2.13
X6.35Y-2.23
X5.9769Y-2.57
X5.9769Y-2.67
X5.9769Y-2.77
X5.9769Y-2.87
X6.0769Y-2.57
X6.0769Y-2.67
X6.0769Y-2.77
X6.0769Y-2.87
X5.6935Y-2.57
X5.6935Y-2.67
X5.6935Y-2.77
X5.6935Y-2.87
X5.7935Y-2.57
X5.7935Y-2.67
X5.7935Y-2.77
X5.7935Y-2.87
X5.09Y-1.19
X5.09Y-1.29
X5.09Y-1.39
X5.09Y-1.49
X5.19Y-1.19
X5.19Y-1.29
X5.19Y-1.39
X5.19Y-1.49
X5.1Y-4.7
X5.1Y-4.8
X5.1Y-4.9
X5.1Y-5.0
X5.1Y-5.1
X5.1Y-5.2
X5.1Y-5.3
X5.1Y-5.4
X5.22Y-2.67
X5.22Y-2.77
X5.22Y-2.87
X5.22Y-2.97
X5.32Y-2.67
X5.32Y-2.77
X5.32Y-2.87
X5.32Y-2.97
X5.32Y-2.19
X5.32Y-2.29
X5.32Y-2.39
X5.32Y-2.49
T5
X5.5Y-1.09
X5.5Y-1.19
X5.5Y-1.29
X5.5Y-1.39
X5.5Y-1.49
X5.5Y-1.59
X5.5Y-1.69
X5.5Y-1.79
X5.5Y-1.89
X5.5Y-1.99
X5.5Y-2.09
X5.5Y-2.19
X5.5Y-2.29
X5.5Y-2.39
X5.6Y-2.09
X5.6Y-2.19
X5.6Y-2.39
X5.7Y-2.09
X5.7Y-2.19
X5.7Y-2.39
X5.8Y-2.09
X5.8Y-2.19
X5.8Y-2.39
X5.9Y-2.09
X5.9Y-2.19
X5.9Y-2.39
X6.0Y-1.19
X6.0Y-2.09
X6.0Y-2.19
X6.0Y-2.39
X6.1Y-1.09
X6.1Y-1.19
X6.1Y-1.29
X6.1Y-1.39
X6.1Y-1.49
X6.1Y-1.59
X6.1Y-1.69
X6.1Y-1.79
X6.1Y-1.89
X6.1Y-1.99
X6.1Y-2.09
X6.1Y-2.19
X6.1Y-2.29
X6.1Y-2.39
T6
X6.33Y-1.63
X6.33Y-5.88
X1.9Y-5.88
X1.9Y-1.63
X3.6298Y-6.0259
X4.614Y-6.0259
X2.2898Y-6.0259
X3.274Y-6.0259
T3
G00X5.0349Y-5.9345
M15
G01X5.1251Y-5.9345
M16
G05
G00X5.0349Y-6.168
M15
G01X5.1251Y-6.168
M16
G05
G00X5.2631Y-5.9949
M15
G01X5.2631Y-6.0851
M16
G05
T0
M30
