G04 #@! TF.GenerationSoftware,KiCad,Pcbnew,(5.1.5)-3*
G04 #@! TF.CreationDate,2020-06-18T11:51:04-04:00*
G04 #@! TF.ProjectId,mtd415te,6d746434-3135-4746-952e-6b696361645f,rev?*
G04 #@! TF.SameCoordinates,Original*
G04 #@! TF.FileFunction,Paste,Top*
G04 #@! TF.FilePolarity,Positive*
%FSLAX46Y46*%
G04 Gerber Fmt 4.6, Leading zero omitted, Abs format (unit mm)*
G04 Created by KiCad (PCBNEW (5.1.5)-3) date 2020-06-18 11:51:04*
%MOMM*%
%LPD*%
G04 APERTURE LIST*
%ADD10C,0.100000*%
%ADD11R,1.676400X0.355600*%
G04 APERTURE END LIST*
D10*
G36*
X165016642Y-64579174D02*
G01*
X165040303Y-64582684D01*
X165063507Y-64588496D01*
X165086029Y-64596554D01*
X165107653Y-64606782D01*
X165128170Y-64619079D01*
X165147383Y-64633329D01*
X165165107Y-64649393D01*
X165181171Y-64667117D01*
X165195421Y-64686330D01*
X165207718Y-64706847D01*
X165217946Y-64728471D01*
X165226004Y-64750993D01*
X165231816Y-64774197D01*
X165235326Y-64797858D01*
X165236500Y-64821750D01*
X165236500Y-65734250D01*
X165235326Y-65758142D01*
X165231816Y-65781803D01*
X165226004Y-65805007D01*
X165217946Y-65827529D01*
X165207718Y-65849153D01*
X165195421Y-65869670D01*
X165181171Y-65888883D01*
X165165107Y-65906607D01*
X165147383Y-65922671D01*
X165128170Y-65936921D01*
X165107653Y-65949218D01*
X165086029Y-65959446D01*
X165063507Y-65967504D01*
X165040303Y-65973316D01*
X165016642Y-65976826D01*
X164992750Y-65978000D01*
X164505250Y-65978000D01*
X164481358Y-65976826D01*
X164457697Y-65973316D01*
X164434493Y-65967504D01*
X164411971Y-65959446D01*
X164390347Y-65949218D01*
X164369830Y-65936921D01*
X164350617Y-65922671D01*
X164332893Y-65906607D01*
X164316829Y-65888883D01*
X164302579Y-65869670D01*
X164290282Y-65849153D01*
X164280054Y-65827529D01*
X164271996Y-65805007D01*
X164266184Y-65781803D01*
X164262674Y-65758142D01*
X164261500Y-65734250D01*
X164261500Y-64821750D01*
X164262674Y-64797858D01*
X164266184Y-64774197D01*
X164271996Y-64750993D01*
X164280054Y-64728471D01*
X164290282Y-64706847D01*
X164302579Y-64686330D01*
X164316829Y-64667117D01*
X164332893Y-64649393D01*
X164350617Y-64633329D01*
X164369830Y-64619079D01*
X164390347Y-64606782D01*
X164411971Y-64596554D01*
X164434493Y-64588496D01*
X164457697Y-64582684D01*
X164481358Y-64579174D01*
X164505250Y-64578000D01*
X164992750Y-64578000D01*
X165016642Y-64579174D01*
G37*
G36*
X166891642Y-64579174D02*
G01*
X166915303Y-64582684D01*
X166938507Y-64588496D01*
X166961029Y-64596554D01*
X166982653Y-64606782D01*
X167003170Y-64619079D01*
X167022383Y-64633329D01*
X167040107Y-64649393D01*
X167056171Y-64667117D01*
X167070421Y-64686330D01*
X167082718Y-64706847D01*
X167092946Y-64728471D01*
X167101004Y-64750993D01*
X167106816Y-64774197D01*
X167110326Y-64797858D01*
X167111500Y-64821750D01*
X167111500Y-65734250D01*
X167110326Y-65758142D01*
X167106816Y-65781803D01*
X167101004Y-65805007D01*
X167092946Y-65827529D01*
X167082718Y-65849153D01*
X167070421Y-65869670D01*
X167056171Y-65888883D01*
X167040107Y-65906607D01*
X167022383Y-65922671D01*
X167003170Y-65936921D01*
X166982653Y-65949218D01*
X166961029Y-65959446D01*
X166938507Y-65967504D01*
X166915303Y-65973316D01*
X166891642Y-65976826D01*
X166867750Y-65978000D01*
X166380250Y-65978000D01*
X166356358Y-65976826D01*
X166332697Y-65973316D01*
X166309493Y-65967504D01*
X166286971Y-65959446D01*
X166265347Y-65949218D01*
X166244830Y-65936921D01*
X166225617Y-65922671D01*
X166207893Y-65906607D01*
X166191829Y-65888883D01*
X166177579Y-65869670D01*
X166165282Y-65849153D01*
X166155054Y-65827529D01*
X166146996Y-65805007D01*
X166141184Y-65781803D01*
X166137674Y-65758142D01*
X166136500Y-65734250D01*
X166136500Y-64821750D01*
X166137674Y-64797858D01*
X166141184Y-64774197D01*
X166146996Y-64750993D01*
X166155054Y-64728471D01*
X166165282Y-64706847D01*
X166177579Y-64686330D01*
X166191829Y-64667117D01*
X166207893Y-64649393D01*
X166225617Y-64633329D01*
X166244830Y-64619079D01*
X166265347Y-64606782D01*
X166286971Y-64596554D01*
X166309493Y-64588496D01*
X166332697Y-64582684D01*
X166356358Y-64579174D01*
X166380250Y-64578000D01*
X166867750Y-64578000D01*
X166891642Y-64579174D01*
G37*
G36*
X165016642Y-72199174D02*
G01*
X165040303Y-72202684D01*
X165063507Y-72208496D01*
X165086029Y-72216554D01*
X165107653Y-72226782D01*
X165128170Y-72239079D01*
X165147383Y-72253329D01*
X165165107Y-72269393D01*
X165181171Y-72287117D01*
X165195421Y-72306330D01*
X165207718Y-72326847D01*
X165217946Y-72348471D01*
X165226004Y-72370993D01*
X165231816Y-72394197D01*
X165235326Y-72417858D01*
X165236500Y-72441750D01*
X165236500Y-73354250D01*
X165235326Y-73378142D01*
X165231816Y-73401803D01*
X165226004Y-73425007D01*
X165217946Y-73447529D01*
X165207718Y-73469153D01*
X165195421Y-73489670D01*
X165181171Y-73508883D01*
X165165107Y-73526607D01*
X165147383Y-73542671D01*
X165128170Y-73556921D01*
X165107653Y-73569218D01*
X165086029Y-73579446D01*
X165063507Y-73587504D01*
X165040303Y-73593316D01*
X165016642Y-73596826D01*
X164992750Y-73598000D01*
X164505250Y-73598000D01*
X164481358Y-73596826D01*
X164457697Y-73593316D01*
X164434493Y-73587504D01*
X164411971Y-73579446D01*
X164390347Y-73569218D01*
X164369830Y-73556921D01*
X164350617Y-73542671D01*
X164332893Y-73526607D01*
X164316829Y-73508883D01*
X164302579Y-73489670D01*
X164290282Y-73469153D01*
X164280054Y-73447529D01*
X164271996Y-73425007D01*
X164266184Y-73401803D01*
X164262674Y-73378142D01*
X164261500Y-73354250D01*
X164261500Y-72441750D01*
X164262674Y-72417858D01*
X164266184Y-72394197D01*
X164271996Y-72370993D01*
X164280054Y-72348471D01*
X164290282Y-72326847D01*
X164302579Y-72306330D01*
X164316829Y-72287117D01*
X164332893Y-72269393D01*
X164350617Y-72253329D01*
X164369830Y-72239079D01*
X164390347Y-72226782D01*
X164411971Y-72216554D01*
X164434493Y-72208496D01*
X164457697Y-72202684D01*
X164481358Y-72199174D01*
X164505250Y-72198000D01*
X164992750Y-72198000D01*
X165016642Y-72199174D01*
G37*
G36*
X166891642Y-72199174D02*
G01*
X166915303Y-72202684D01*
X166938507Y-72208496D01*
X166961029Y-72216554D01*
X166982653Y-72226782D01*
X167003170Y-72239079D01*
X167022383Y-72253329D01*
X167040107Y-72269393D01*
X167056171Y-72287117D01*
X167070421Y-72306330D01*
X167082718Y-72326847D01*
X167092946Y-72348471D01*
X167101004Y-72370993D01*
X167106816Y-72394197D01*
X167110326Y-72417858D01*
X167111500Y-72441750D01*
X167111500Y-73354250D01*
X167110326Y-73378142D01*
X167106816Y-73401803D01*
X167101004Y-73425007D01*
X167092946Y-73447529D01*
X167082718Y-73469153D01*
X167070421Y-73489670D01*
X167056171Y-73508883D01*
X167040107Y-73526607D01*
X167022383Y-73542671D01*
X167003170Y-73556921D01*
X166982653Y-73569218D01*
X166961029Y-73579446D01*
X166938507Y-73587504D01*
X166915303Y-73593316D01*
X166891642Y-73596826D01*
X166867750Y-73598000D01*
X166380250Y-73598000D01*
X166356358Y-73596826D01*
X166332697Y-73593316D01*
X166309493Y-73587504D01*
X166286971Y-73579446D01*
X166265347Y-73569218D01*
X166244830Y-73556921D01*
X166225617Y-73542671D01*
X166207893Y-73526607D01*
X166191829Y-73508883D01*
X166177579Y-73489670D01*
X166165282Y-73469153D01*
X166155054Y-73447529D01*
X166146996Y-73425007D01*
X166141184Y-73401803D01*
X166137674Y-73378142D01*
X166136500Y-73354250D01*
X166136500Y-72441750D01*
X166137674Y-72417858D01*
X166141184Y-72394197D01*
X166146996Y-72370993D01*
X166155054Y-72348471D01*
X166165282Y-72326847D01*
X166177579Y-72306330D01*
X166191829Y-72287117D01*
X166207893Y-72269393D01*
X166225617Y-72253329D01*
X166244830Y-72239079D01*
X166265347Y-72226782D01*
X166286971Y-72216554D01*
X166309493Y-72208496D01*
X166332697Y-72202684D01*
X166356358Y-72199174D01*
X166380250Y-72198000D01*
X166867750Y-72198000D01*
X166891642Y-72199174D01*
G37*
G36*
X165016642Y-67119174D02*
G01*
X165040303Y-67122684D01*
X165063507Y-67128496D01*
X165086029Y-67136554D01*
X165107653Y-67146782D01*
X165128170Y-67159079D01*
X165147383Y-67173329D01*
X165165107Y-67189393D01*
X165181171Y-67207117D01*
X165195421Y-67226330D01*
X165207718Y-67246847D01*
X165217946Y-67268471D01*
X165226004Y-67290993D01*
X165231816Y-67314197D01*
X165235326Y-67337858D01*
X165236500Y-67361750D01*
X165236500Y-68274250D01*
X165235326Y-68298142D01*
X165231816Y-68321803D01*
X165226004Y-68345007D01*
X165217946Y-68367529D01*
X165207718Y-68389153D01*
X165195421Y-68409670D01*
X165181171Y-68428883D01*
X165165107Y-68446607D01*
X165147383Y-68462671D01*
X165128170Y-68476921D01*
X165107653Y-68489218D01*
X165086029Y-68499446D01*
X165063507Y-68507504D01*
X165040303Y-68513316D01*
X165016642Y-68516826D01*
X164992750Y-68518000D01*
X164505250Y-68518000D01*
X164481358Y-68516826D01*
X164457697Y-68513316D01*
X164434493Y-68507504D01*
X164411971Y-68499446D01*
X164390347Y-68489218D01*
X164369830Y-68476921D01*
X164350617Y-68462671D01*
X164332893Y-68446607D01*
X164316829Y-68428883D01*
X164302579Y-68409670D01*
X164290282Y-68389153D01*
X164280054Y-68367529D01*
X164271996Y-68345007D01*
X164266184Y-68321803D01*
X164262674Y-68298142D01*
X164261500Y-68274250D01*
X164261500Y-67361750D01*
X164262674Y-67337858D01*
X164266184Y-67314197D01*
X164271996Y-67290993D01*
X164280054Y-67268471D01*
X164290282Y-67246847D01*
X164302579Y-67226330D01*
X164316829Y-67207117D01*
X164332893Y-67189393D01*
X164350617Y-67173329D01*
X164369830Y-67159079D01*
X164390347Y-67146782D01*
X164411971Y-67136554D01*
X164434493Y-67128496D01*
X164457697Y-67122684D01*
X164481358Y-67119174D01*
X164505250Y-67118000D01*
X164992750Y-67118000D01*
X165016642Y-67119174D01*
G37*
G36*
X166891642Y-67119174D02*
G01*
X166915303Y-67122684D01*
X166938507Y-67128496D01*
X166961029Y-67136554D01*
X166982653Y-67146782D01*
X167003170Y-67159079D01*
X167022383Y-67173329D01*
X167040107Y-67189393D01*
X167056171Y-67207117D01*
X167070421Y-67226330D01*
X167082718Y-67246847D01*
X167092946Y-67268471D01*
X167101004Y-67290993D01*
X167106816Y-67314197D01*
X167110326Y-67337858D01*
X167111500Y-67361750D01*
X167111500Y-68274250D01*
X167110326Y-68298142D01*
X167106816Y-68321803D01*
X167101004Y-68345007D01*
X167092946Y-68367529D01*
X167082718Y-68389153D01*
X167070421Y-68409670D01*
X167056171Y-68428883D01*
X167040107Y-68446607D01*
X167022383Y-68462671D01*
X167003170Y-68476921D01*
X166982653Y-68489218D01*
X166961029Y-68499446D01*
X166938507Y-68507504D01*
X166915303Y-68513316D01*
X166891642Y-68516826D01*
X166867750Y-68518000D01*
X166380250Y-68518000D01*
X166356358Y-68516826D01*
X166332697Y-68513316D01*
X166309493Y-68507504D01*
X166286971Y-68499446D01*
X166265347Y-68489218D01*
X166244830Y-68476921D01*
X166225617Y-68462671D01*
X166207893Y-68446607D01*
X166191829Y-68428883D01*
X166177579Y-68409670D01*
X166165282Y-68389153D01*
X166155054Y-68367529D01*
X166146996Y-68345007D01*
X166141184Y-68321803D01*
X166137674Y-68298142D01*
X166136500Y-68274250D01*
X166136500Y-67361750D01*
X166137674Y-67337858D01*
X166141184Y-67314197D01*
X166146996Y-67290993D01*
X166155054Y-67268471D01*
X166165282Y-67246847D01*
X166177579Y-67226330D01*
X166191829Y-67207117D01*
X166207893Y-67189393D01*
X166225617Y-67173329D01*
X166244830Y-67159079D01*
X166265347Y-67146782D01*
X166286971Y-67136554D01*
X166309493Y-67128496D01*
X166332697Y-67122684D01*
X166356358Y-67119174D01*
X166380250Y-67118000D01*
X166867750Y-67118000D01*
X166891642Y-67119174D01*
G37*
G36*
X165016642Y-69659174D02*
G01*
X165040303Y-69662684D01*
X165063507Y-69668496D01*
X165086029Y-69676554D01*
X165107653Y-69686782D01*
X165128170Y-69699079D01*
X165147383Y-69713329D01*
X165165107Y-69729393D01*
X165181171Y-69747117D01*
X165195421Y-69766330D01*
X165207718Y-69786847D01*
X165217946Y-69808471D01*
X165226004Y-69830993D01*
X165231816Y-69854197D01*
X165235326Y-69877858D01*
X165236500Y-69901750D01*
X165236500Y-70814250D01*
X165235326Y-70838142D01*
X165231816Y-70861803D01*
X165226004Y-70885007D01*
X165217946Y-70907529D01*
X165207718Y-70929153D01*
X165195421Y-70949670D01*
X165181171Y-70968883D01*
X165165107Y-70986607D01*
X165147383Y-71002671D01*
X165128170Y-71016921D01*
X165107653Y-71029218D01*
X165086029Y-71039446D01*
X165063507Y-71047504D01*
X165040303Y-71053316D01*
X165016642Y-71056826D01*
X164992750Y-71058000D01*
X164505250Y-71058000D01*
X164481358Y-71056826D01*
X164457697Y-71053316D01*
X164434493Y-71047504D01*
X164411971Y-71039446D01*
X164390347Y-71029218D01*
X164369830Y-71016921D01*
X164350617Y-71002671D01*
X164332893Y-70986607D01*
X164316829Y-70968883D01*
X164302579Y-70949670D01*
X164290282Y-70929153D01*
X164280054Y-70907529D01*
X164271996Y-70885007D01*
X164266184Y-70861803D01*
X164262674Y-70838142D01*
X164261500Y-70814250D01*
X164261500Y-69901750D01*
X164262674Y-69877858D01*
X164266184Y-69854197D01*
X164271996Y-69830993D01*
X164280054Y-69808471D01*
X164290282Y-69786847D01*
X164302579Y-69766330D01*
X164316829Y-69747117D01*
X164332893Y-69729393D01*
X164350617Y-69713329D01*
X164369830Y-69699079D01*
X164390347Y-69686782D01*
X164411971Y-69676554D01*
X164434493Y-69668496D01*
X164457697Y-69662684D01*
X164481358Y-69659174D01*
X164505250Y-69658000D01*
X164992750Y-69658000D01*
X165016642Y-69659174D01*
G37*
G36*
X166891642Y-69659174D02*
G01*
X166915303Y-69662684D01*
X166938507Y-69668496D01*
X166961029Y-69676554D01*
X166982653Y-69686782D01*
X167003170Y-69699079D01*
X167022383Y-69713329D01*
X167040107Y-69729393D01*
X167056171Y-69747117D01*
X167070421Y-69766330D01*
X167082718Y-69786847D01*
X167092946Y-69808471D01*
X167101004Y-69830993D01*
X167106816Y-69854197D01*
X167110326Y-69877858D01*
X167111500Y-69901750D01*
X167111500Y-70814250D01*
X167110326Y-70838142D01*
X167106816Y-70861803D01*
X167101004Y-70885007D01*
X167092946Y-70907529D01*
X167082718Y-70929153D01*
X167070421Y-70949670D01*
X167056171Y-70968883D01*
X167040107Y-70986607D01*
X167022383Y-71002671D01*
X167003170Y-71016921D01*
X166982653Y-71029218D01*
X166961029Y-71039446D01*
X166938507Y-71047504D01*
X166915303Y-71053316D01*
X166891642Y-71056826D01*
X166867750Y-71058000D01*
X166380250Y-71058000D01*
X166356358Y-71056826D01*
X166332697Y-71053316D01*
X166309493Y-71047504D01*
X166286971Y-71039446D01*
X166265347Y-71029218D01*
X166244830Y-71016921D01*
X166225617Y-71002671D01*
X166207893Y-70986607D01*
X166191829Y-70968883D01*
X166177579Y-70949670D01*
X166165282Y-70929153D01*
X166155054Y-70907529D01*
X166146996Y-70885007D01*
X166141184Y-70861803D01*
X166137674Y-70838142D01*
X166136500Y-70814250D01*
X166136500Y-69901750D01*
X166137674Y-69877858D01*
X166141184Y-69854197D01*
X166146996Y-69830993D01*
X166155054Y-69808471D01*
X166165282Y-69786847D01*
X166177579Y-69766330D01*
X166191829Y-69747117D01*
X166207893Y-69729393D01*
X166225617Y-69713329D01*
X166244830Y-69699079D01*
X166265347Y-69686782D01*
X166286971Y-69676554D01*
X166309493Y-69668496D01*
X166332697Y-69662684D01*
X166356358Y-69659174D01*
X166380250Y-69658000D01*
X166867750Y-69658000D01*
X166891642Y-69659174D01*
G37*
G36*
X137095142Y-37147174D02*
G01*
X137118803Y-37150684D01*
X137142007Y-37156496D01*
X137164529Y-37164554D01*
X137186153Y-37174782D01*
X137206670Y-37187079D01*
X137225883Y-37201329D01*
X137243607Y-37217393D01*
X137259671Y-37235117D01*
X137273921Y-37254330D01*
X137286218Y-37274847D01*
X137296446Y-37296471D01*
X137304504Y-37318993D01*
X137310316Y-37342197D01*
X137313826Y-37365858D01*
X137315000Y-37389750D01*
X137315000Y-38302250D01*
X137313826Y-38326142D01*
X137310316Y-38349803D01*
X137304504Y-38373007D01*
X137296446Y-38395529D01*
X137286218Y-38417153D01*
X137273921Y-38437670D01*
X137259671Y-38456883D01*
X137243607Y-38474607D01*
X137225883Y-38490671D01*
X137206670Y-38504921D01*
X137186153Y-38517218D01*
X137164529Y-38527446D01*
X137142007Y-38535504D01*
X137118803Y-38541316D01*
X137095142Y-38544826D01*
X137071250Y-38546000D01*
X136583750Y-38546000D01*
X136559858Y-38544826D01*
X136536197Y-38541316D01*
X136512993Y-38535504D01*
X136490471Y-38527446D01*
X136468847Y-38517218D01*
X136448330Y-38504921D01*
X136429117Y-38490671D01*
X136411393Y-38474607D01*
X136395329Y-38456883D01*
X136381079Y-38437670D01*
X136368782Y-38417153D01*
X136358554Y-38395529D01*
X136350496Y-38373007D01*
X136344684Y-38349803D01*
X136341174Y-38326142D01*
X136340000Y-38302250D01*
X136340000Y-37389750D01*
X136341174Y-37365858D01*
X136344684Y-37342197D01*
X136350496Y-37318993D01*
X136358554Y-37296471D01*
X136368782Y-37274847D01*
X136381079Y-37254330D01*
X136395329Y-37235117D01*
X136411393Y-37217393D01*
X136429117Y-37201329D01*
X136448330Y-37187079D01*
X136468847Y-37174782D01*
X136490471Y-37164554D01*
X136512993Y-37156496D01*
X136536197Y-37150684D01*
X136559858Y-37147174D01*
X136583750Y-37146000D01*
X137071250Y-37146000D01*
X137095142Y-37147174D01*
G37*
G36*
X135220142Y-37147174D02*
G01*
X135243803Y-37150684D01*
X135267007Y-37156496D01*
X135289529Y-37164554D01*
X135311153Y-37174782D01*
X135331670Y-37187079D01*
X135350883Y-37201329D01*
X135368607Y-37217393D01*
X135384671Y-37235117D01*
X135398921Y-37254330D01*
X135411218Y-37274847D01*
X135421446Y-37296471D01*
X135429504Y-37318993D01*
X135435316Y-37342197D01*
X135438826Y-37365858D01*
X135440000Y-37389750D01*
X135440000Y-38302250D01*
X135438826Y-38326142D01*
X135435316Y-38349803D01*
X135429504Y-38373007D01*
X135421446Y-38395529D01*
X135411218Y-38417153D01*
X135398921Y-38437670D01*
X135384671Y-38456883D01*
X135368607Y-38474607D01*
X135350883Y-38490671D01*
X135331670Y-38504921D01*
X135311153Y-38517218D01*
X135289529Y-38527446D01*
X135267007Y-38535504D01*
X135243803Y-38541316D01*
X135220142Y-38544826D01*
X135196250Y-38546000D01*
X134708750Y-38546000D01*
X134684858Y-38544826D01*
X134661197Y-38541316D01*
X134637993Y-38535504D01*
X134615471Y-38527446D01*
X134593847Y-38517218D01*
X134573330Y-38504921D01*
X134554117Y-38490671D01*
X134536393Y-38474607D01*
X134520329Y-38456883D01*
X134506079Y-38437670D01*
X134493782Y-38417153D01*
X134483554Y-38395529D01*
X134475496Y-38373007D01*
X134469684Y-38349803D01*
X134466174Y-38326142D01*
X134465000Y-38302250D01*
X134465000Y-37389750D01*
X134466174Y-37365858D01*
X134469684Y-37342197D01*
X134475496Y-37318993D01*
X134483554Y-37296471D01*
X134493782Y-37274847D01*
X134506079Y-37254330D01*
X134520329Y-37235117D01*
X134536393Y-37217393D01*
X134554117Y-37201329D01*
X134573330Y-37187079D01*
X134593847Y-37174782D01*
X134615471Y-37164554D01*
X134637993Y-37156496D01*
X134661197Y-37150684D01*
X134684858Y-37147174D01*
X134708750Y-37146000D01*
X135196250Y-37146000D01*
X135220142Y-37147174D01*
G37*
G36*
X137095142Y-32067174D02*
G01*
X137118803Y-32070684D01*
X137142007Y-32076496D01*
X137164529Y-32084554D01*
X137186153Y-32094782D01*
X137206670Y-32107079D01*
X137225883Y-32121329D01*
X137243607Y-32137393D01*
X137259671Y-32155117D01*
X137273921Y-32174330D01*
X137286218Y-32194847D01*
X137296446Y-32216471D01*
X137304504Y-32238993D01*
X137310316Y-32262197D01*
X137313826Y-32285858D01*
X137315000Y-32309750D01*
X137315000Y-33222250D01*
X137313826Y-33246142D01*
X137310316Y-33269803D01*
X137304504Y-33293007D01*
X137296446Y-33315529D01*
X137286218Y-33337153D01*
X137273921Y-33357670D01*
X137259671Y-33376883D01*
X137243607Y-33394607D01*
X137225883Y-33410671D01*
X137206670Y-33424921D01*
X137186153Y-33437218D01*
X137164529Y-33447446D01*
X137142007Y-33455504D01*
X137118803Y-33461316D01*
X137095142Y-33464826D01*
X137071250Y-33466000D01*
X136583750Y-33466000D01*
X136559858Y-33464826D01*
X136536197Y-33461316D01*
X136512993Y-33455504D01*
X136490471Y-33447446D01*
X136468847Y-33437218D01*
X136448330Y-33424921D01*
X136429117Y-33410671D01*
X136411393Y-33394607D01*
X136395329Y-33376883D01*
X136381079Y-33357670D01*
X136368782Y-33337153D01*
X136358554Y-33315529D01*
X136350496Y-33293007D01*
X136344684Y-33269803D01*
X136341174Y-33246142D01*
X136340000Y-33222250D01*
X136340000Y-32309750D01*
X136341174Y-32285858D01*
X136344684Y-32262197D01*
X136350496Y-32238993D01*
X136358554Y-32216471D01*
X136368782Y-32194847D01*
X136381079Y-32174330D01*
X136395329Y-32155117D01*
X136411393Y-32137393D01*
X136429117Y-32121329D01*
X136448330Y-32107079D01*
X136468847Y-32094782D01*
X136490471Y-32084554D01*
X136512993Y-32076496D01*
X136536197Y-32070684D01*
X136559858Y-32067174D01*
X136583750Y-32066000D01*
X137071250Y-32066000D01*
X137095142Y-32067174D01*
G37*
G36*
X135220142Y-32067174D02*
G01*
X135243803Y-32070684D01*
X135267007Y-32076496D01*
X135289529Y-32084554D01*
X135311153Y-32094782D01*
X135331670Y-32107079D01*
X135350883Y-32121329D01*
X135368607Y-32137393D01*
X135384671Y-32155117D01*
X135398921Y-32174330D01*
X135411218Y-32194847D01*
X135421446Y-32216471D01*
X135429504Y-32238993D01*
X135435316Y-32262197D01*
X135438826Y-32285858D01*
X135440000Y-32309750D01*
X135440000Y-33222250D01*
X135438826Y-33246142D01*
X135435316Y-33269803D01*
X135429504Y-33293007D01*
X135421446Y-33315529D01*
X135411218Y-33337153D01*
X135398921Y-33357670D01*
X135384671Y-33376883D01*
X135368607Y-33394607D01*
X135350883Y-33410671D01*
X135331670Y-33424921D01*
X135311153Y-33437218D01*
X135289529Y-33447446D01*
X135267007Y-33455504D01*
X135243803Y-33461316D01*
X135220142Y-33464826D01*
X135196250Y-33466000D01*
X134708750Y-33466000D01*
X134684858Y-33464826D01*
X134661197Y-33461316D01*
X134637993Y-33455504D01*
X134615471Y-33447446D01*
X134593847Y-33437218D01*
X134573330Y-33424921D01*
X134554117Y-33410671D01*
X134536393Y-33394607D01*
X134520329Y-33376883D01*
X134506079Y-33357670D01*
X134493782Y-33337153D01*
X134483554Y-33315529D01*
X134475496Y-33293007D01*
X134469684Y-33269803D01*
X134466174Y-33246142D01*
X134465000Y-33222250D01*
X134465000Y-32309750D01*
X134466174Y-32285858D01*
X134469684Y-32262197D01*
X134475496Y-32238993D01*
X134483554Y-32216471D01*
X134493782Y-32194847D01*
X134506079Y-32174330D01*
X134520329Y-32155117D01*
X134536393Y-32137393D01*
X134554117Y-32121329D01*
X134573330Y-32107079D01*
X134593847Y-32094782D01*
X134615471Y-32084554D01*
X134637993Y-32076496D01*
X134661197Y-32070684D01*
X134684858Y-32067174D01*
X134708750Y-32066000D01*
X135196250Y-32066000D01*
X135220142Y-32067174D01*
G37*
G36*
X135298642Y-29527174D02*
G01*
X135322303Y-29530684D01*
X135345507Y-29536496D01*
X135368029Y-29544554D01*
X135389653Y-29554782D01*
X135410170Y-29567079D01*
X135429383Y-29581329D01*
X135447107Y-29597393D01*
X135463171Y-29615117D01*
X135477421Y-29634330D01*
X135489718Y-29654847D01*
X135499946Y-29676471D01*
X135508004Y-29698993D01*
X135513816Y-29722197D01*
X135517326Y-29745858D01*
X135518500Y-29769750D01*
X135518500Y-30682250D01*
X135517326Y-30706142D01*
X135513816Y-30729803D01*
X135508004Y-30753007D01*
X135499946Y-30775529D01*
X135489718Y-30797153D01*
X135477421Y-30817670D01*
X135463171Y-30836883D01*
X135447107Y-30854607D01*
X135429383Y-30870671D01*
X135410170Y-30884921D01*
X135389653Y-30897218D01*
X135368029Y-30907446D01*
X135345507Y-30915504D01*
X135322303Y-30921316D01*
X135298642Y-30924826D01*
X135274750Y-30926000D01*
X134787250Y-30926000D01*
X134763358Y-30924826D01*
X134739697Y-30921316D01*
X134716493Y-30915504D01*
X134693971Y-30907446D01*
X134672347Y-30897218D01*
X134651830Y-30884921D01*
X134632617Y-30870671D01*
X134614893Y-30854607D01*
X134598829Y-30836883D01*
X134584579Y-30817670D01*
X134572282Y-30797153D01*
X134562054Y-30775529D01*
X134553996Y-30753007D01*
X134548184Y-30729803D01*
X134544674Y-30706142D01*
X134543500Y-30682250D01*
X134543500Y-29769750D01*
X134544674Y-29745858D01*
X134548184Y-29722197D01*
X134553996Y-29698993D01*
X134562054Y-29676471D01*
X134572282Y-29654847D01*
X134584579Y-29634330D01*
X134598829Y-29615117D01*
X134614893Y-29597393D01*
X134632617Y-29581329D01*
X134651830Y-29567079D01*
X134672347Y-29554782D01*
X134693971Y-29544554D01*
X134716493Y-29536496D01*
X134739697Y-29530684D01*
X134763358Y-29527174D01*
X134787250Y-29526000D01*
X135274750Y-29526000D01*
X135298642Y-29527174D01*
G37*
G36*
X137173642Y-29527174D02*
G01*
X137197303Y-29530684D01*
X137220507Y-29536496D01*
X137243029Y-29544554D01*
X137264653Y-29554782D01*
X137285170Y-29567079D01*
X137304383Y-29581329D01*
X137322107Y-29597393D01*
X137338171Y-29615117D01*
X137352421Y-29634330D01*
X137364718Y-29654847D01*
X137374946Y-29676471D01*
X137383004Y-29698993D01*
X137388816Y-29722197D01*
X137392326Y-29745858D01*
X137393500Y-29769750D01*
X137393500Y-30682250D01*
X137392326Y-30706142D01*
X137388816Y-30729803D01*
X137383004Y-30753007D01*
X137374946Y-30775529D01*
X137364718Y-30797153D01*
X137352421Y-30817670D01*
X137338171Y-30836883D01*
X137322107Y-30854607D01*
X137304383Y-30870671D01*
X137285170Y-30884921D01*
X137264653Y-30897218D01*
X137243029Y-30907446D01*
X137220507Y-30915504D01*
X137197303Y-30921316D01*
X137173642Y-30924826D01*
X137149750Y-30926000D01*
X136662250Y-30926000D01*
X136638358Y-30924826D01*
X136614697Y-30921316D01*
X136591493Y-30915504D01*
X136568971Y-30907446D01*
X136547347Y-30897218D01*
X136526830Y-30884921D01*
X136507617Y-30870671D01*
X136489893Y-30854607D01*
X136473829Y-30836883D01*
X136459579Y-30817670D01*
X136447282Y-30797153D01*
X136437054Y-30775529D01*
X136428996Y-30753007D01*
X136423184Y-30729803D01*
X136419674Y-30706142D01*
X136418500Y-30682250D01*
X136418500Y-29769750D01*
X136419674Y-29745858D01*
X136423184Y-29722197D01*
X136428996Y-29698993D01*
X136437054Y-29676471D01*
X136447282Y-29654847D01*
X136459579Y-29634330D01*
X136473829Y-29615117D01*
X136489893Y-29597393D01*
X136507617Y-29581329D01*
X136526830Y-29567079D01*
X136547347Y-29554782D01*
X136568971Y-29544554D01*
X136591493Y-29536496D01*
X136614697Y-29530684D01*
X136638358Y-29527174D01*
X136662250Y-29526000D01*
X137149750Y-29526000D01*
X137173642Y-29527174D01*
G37*
G36*
X137095142Y-34607174D02*
G01*
X137118803Y-34610684D01*
X137142007Y-34616496D01*
X137164529Y-34624554D01*
X137186153Y-34634782D01*
X137206670Y-34647079D01*
X137225883Y-34661329D01*
X137243607Y-34677393D01*
X137259671Y-34695117D01*
X137273921Y-34714330D01*
X137286218Y-34734847D01*
X137296446Y-34756471D01*
X137304504Y-34778993D01*
X137310316Y-34802197D01*
X137313826Y-34825858D01*
X137315000Y-34849750D01*
X137315000Y-35762250D01*
X137313826Y-35786142D01*
X137310316Y-35809803D01*
X137304504Y-35833007D01*
X137296446Y-35855529D01*
X137286218Y-35877153D01*
X137273921Y-35897670D01*
X137259671Y-35916883D01*
X137243607Y-35934607D01*
X137225883Y-35950671D01*
X137206670Y-35964921D01*
X137186153Y-35977218D01*
X137164529Y-35987446D01*
X137142007Y-35995504D01*
X137118803Y-36001316D01*
X137095142Y-36004826D01*
X137071250Y-36006000D01*
X136583750Y-36006000D01*
X136559858Y-36004826D01*
X136536197Y-36001316D01*
X136512993Y-35995504D01*
X136490471Y-35987446D01*
X136468847Y-35977218D01*
X136448330Y-35964921D01*
X136429117Y-35950671D01*
X136411393Y-35934607D01*
X136395329Y-35916883D01*
X136381079Y-35897670D01*
X136368782Y-35877153D01*
X136358554Y-35855529D01*
X136350496Y-35833007D01*
X136344684Y-35809803D01*
X136341174Y-35786142D01*
X136340000Y-35762250D01*
X136340000Y-34849750D01*
X136341174Y-34825858D01*
X136344684Y-34802197D01*
X136350496Y-34778993D01*
X136358554Y-34756471D01*
X136368782Y-34734847D01*
X136381079Y-34714330D01*
X136395329Y-34695117D01*
X136411393Y-34677393D01*
X136429117Y-34661329D01*
X136448330Y-34647079D01*
X136468847Y-34634782D01*
X136490471Y-34624554D01*
X136512993Y-34616496D01*
X136536197Y-34610684D01*
X136559858Y-34607174D01*
X136583750Y-34606000D01*
X137071250Y-34606000D01*
X137095142Y-34607174D01*
G37*
G36*
X135220142Y-34607174D02*
G01*
X135243803Y-34610684D01*
X135267007Y-34616496D01*
X135289529Y-34624554D01*
X135311153Y-34634782D01*
X135331670Y-34647079D01*
X135350883Y-34661329D01*
X135368607Y-34677393D01*
X135384671Y-34695117D01*
X135398921Y-34714330D01*
X135411218Y-34734847D01*
X135421446Y-34756471D01*
X135429504Y-34778993D01*
X135435316Y-34802197D01*
X135438826Y-34825858D01*
X135440000Y-34849750D01*
X135440000Y-35762250D01*
X135438826Y-35786142D01*
X135435316Y-35809803D01*
X135429504Y-35833007D01*
X135421446Y-35855529D01*
X135411218Y-35877153D01*
X135398921Y-35897670D01*
X135384671Y-35916883D01*
X135368607Y-35934607D01*
X135350883Y-35950671D01*
X135331670Y-35964921D01*
X135311153Y-35977218D01*
X135289529Y-35987446D01*
X135267007Y-35995504D01*
X135243803Y-36001316D01*
X135220142Y-36004826D01*
X135196250Y-36006000D01*
X134708750Y-36006000D01*
X134684858Y-36004826D01*
X134661197Y-36001316D01*
X134637993Y-35995504D01*
X134615471Y-35987446D01*
X134593847Y-35977218D01*
X134573330Y-35964921D01*
X134554117Y-35950671D01*
X134536393Y-35934607D01*
X134520329Y-35916883D01*
X134506079Y-35897670D01*
X134493782Y-35877153D01*
X134483554Y-35855529D01*
X134475496Y-35833007D01*
X134469684Y-35809803D01*
X134466174Y-35786142D01*
X134465000Y-35762250D01*
X134465000Y-34849750D01*
X134466174Y-34825858D01*
X134469684Y-34802197D01*
X134475496Y-34778993D01*
X134483554Y-34756471D01*
X134493782Y-34734847D01*
X134506079Y-34714330D01*
X134520329Y-34695117D01*
X134536393Y-34677393D01*
X134554117Y-34661329D01*
X134573330Y-34647079D01*
X134593847Y-34634782D01*
X134615471Y-34624554D01*
X134637993Y-34616496D01*
X134661197Y-34610684D01*
X134684858Y-34607174D01*
X134708750Y-34606000D01*
X135196250Y-34606000D01*
X135220142Y-34607174D01*
G37*
D11*
X93192600Y-113160998D03*
X93192600Y-112510999D03*
X93192600Y-111860998D03*
X93192600Y-111210999D03*
X93192600Y-110560998D03*
X93192600Y-109910999D03*
X93192600Y-109260998D03*
X93192600Y-108610999D03*
X93192600Y-107960998D03*
X93192600Y-107311000D03*
X98831400Y-107311002D03*
X98831400Y-107961001D03*
X98831400Y-108611002D03*
X98831400Y-109261001D03*
X98831400Y-109911002D03*
X98831400Y-110561001D03*
X98831400Y-111210999D03*
X98831400Y-111861001D03*
X98831400Y-112510999D03*
X98831400Y-113161000D03*
D10*
G36*
X91197691Y-112048053D02*
G01*
X91218926Y-112051203D01*
X91239750Y-112056419D01*
X91259962Y-112063651D01*
X91279368Y-112072830D01*
X91297781Y-112083866D01*
X91315024Y-112096654D01*
X91330930Y-112111070D01*
X91345346Y-112126976D01*
X91358134Y-112144219D01*
X91369170Y-112162632D01*
X91378349Y-112182038D01*
X91385581Y-112202250D01*
X91390797Y-112223074D01*
X91393947Y-112244309D01*
X91395000Y-112265750D01*
X91395000Y-112778250D01*
X91393947Y-112799691D01*
X91390797Y-112820926D01*
X91385581Y-112841750D01*
X91378349Y-112861962D01*
X91369170Y-112881368D01*
X91358134Y-112899781D01*
X91345346Y-112917024D01*
X91330930Y-112932930D01*
X91315024Y-112947346D01*
X91297781Y-112960134D01*
X91279368Y-112971170D01*
X91259962Y-112980349D01*
X91239750Y-112987581D01*
X91218926Y-112992797D01*
X91197691Y-112995947D01*
X91176250Y-112997000D01*
X90738750Y-112997000D01*
X90717309Y-112995947D01*
X90696074Y-112992797D01*
X90675250Y-112987581D01*
X90655038Y-112980349D01*
X90635632Y-112971170D01*
X90617219Y-112960134D01*
X90599976Y-112947346D01*
X90584070Y-112932930D01*
X90569654Y-112917024D01*
X90556866Y-112899781D01*
X90545830Y-112881368D01*
X90536651Y-112861962D01*
X90529419Y-112841750D01*
X90524203Y-112820926D01*
X90521053Y-112799691D01*
X90520000Y-112778250D01*
X90520000Y-112265750D01*
X90521053Y-112244309D01*
X90524203Y-112223074D01*
X90529419Y-112202250D01*
X90536651Y-112182038D01*
X90545830Y-112162632D01*
X90556866Y-112144219D01*
X90569654Y-112126976D01*
X90584070Y-112111070D01*
X90599976Y-112096654D01*
X90617219Y-112083866D01*
X90635632Y-112072830D01*
X90655038Y-112063651D01*
X90675250Y-112056419D01*
X90696074Y-112051203D01*
X90717309Y-112048053D01*
X90738750Y-112047000D01*
X91176250Y-112047000D01*
X91197691Y-112048053D01*
G37*
G36*
X89622691Y-112048053D02*
G01*
X89643926Y-112051203D01*
X89664750Y-112056419D01*
X89684962Y-112063651D01*
X89704368Y-112072830D01*
X89722781Y-112083866D01*
X89740024Y-112096654D01*
X89755930Y-112111070D01*
X89770346Y-112126976D01*
X89783134Y-112144219D01*
X89794170Y-112162632D01*
X89803349Y-112182038D01*
X89810581Y-112202250D01*
X89815797Y-112223074D01*
X89818947Y-112244309D01*
X89820000Y-112265750D01*
X89820000Y-112778250D01*
X89818947Y-112799691D01*
X89815797Y-112820926D01*
X89810581Y-112841750D01*
X89803349Y-112861962D01*
X89794170Y-112881368D01*
X89783134Y-112899781D01*
X89770346Y-112917024D01*
X89755930Y-112932930D01*
X89740024Y-112947346D01*
X89722781Y-112960134D01*
X89704368Y-112971170D01*
X89684962Y-112980349D01*
X89664750Y-112987581D01*
X89643926Y-112992797D01*
X89622691Y-112995947D01*
X89601250Y-112997000D01*
X89163750Y-112997000D01*
X89142309Y-112995947D01*
X89121074Y-112992797D01*
X89100250Y-112987581D01*
X89080038Y-112980349D01*
X89060632Y-112971170D01*
X89042219Y-112960134D01*
X89024976Y-112947346D01*
X89009070Y-112932930D01*
X88994654Y-112917024D01*
X88981866Y-112899781D01*
X88970830Y-112881368D01*
X88961651Y-112861962D01*
X88954419Y-112841750D01*
X88949203Y-112820926D01*
X88946053Y-112799691D01*
X88945000Y-112778250D01*
X88945000Y-112265750D01*
X88946053Y-112244309D01*
X88949203Y-112223074D01*
X88954419Y-112202250D01*
X88961651Y-112182038D01*
X88970830Y-112162632D01*
X88981866Y-112144219D01*
X88994654Y-112126976D01*
X89009070Y-112111070D01*
X89024976Y-112096654D01*
X89042219Y-112083866D01*
X89060632Y-112072830D01*
X89080038Y-112063651D01*
X89100250Y-112056419D01*
X89121074Y-112051203D01*
X89142309Y-112048053D01*
X89163750Y-112047000D01*
X89601250Y-112047000D01*
X89622691Y-112048053D01*
G37*
G36*
X99046191Y-114334053D02*
G01*
X99067426Y-114337203D01*
X99088250Y-114342419D01*
X99108462Y-114349651D01*
X99127868Y-114358830D01*
X99146281Y-114369866D01*
X99163524Y-114382654D01*
X99179430Y-114397070D01*
X99193846Y-114412976D01*
X99206634Y-114430219D01*
X99217670Y-114448632D01*
X99226849Y-114468038D01*
X99234081Y-114488250D01*
X99239297Y-114509074D01*
X99242447Y-114530309D01*
X99243500Y-114551750D01*
X99243500Y-115064250D01*
X99242447Y-115085691D01*
X99239297Y-115106926D01*
X99234081Y-115127750D01*
X99226849Y-115147962D01*
X99217670Y-115167368D01*
X99206634Y-115185781D01*
X99193846Y-115203024D01*
X99179430Y-115218930D01*
X99163524Y-115233346D01*
X99146281Y-115246134D01*
X99127868Y-115257170D01*
X99108462Y-115266349D01*
X99088250Y-115273581D01*
X99067426Y-115278797D01*
X99046191Y-115281947D01*
X99024750Y-115283000D01*
X98587250Y-115283000D01*
X98565809Y-115281947D01*
X98544574Y-115278797D01*
X98523750Y-115273581D01*
X98503538Y-115266349D01*
X98484132Y-115257170D01*
X98465719Y-115246134D01*
X98448476Y-115233346D01*
X98432570Y-115218930D01*
X98418154Y-115203024D01*
X98405366Y-115185781D01*
X98394330Y-115167368D01*
X98385151Y-115147962D01*
X98377919Y-115127750D01*
X98372703Y-115106926D01*
X98369553Y-115085691D01*
X98368500Y-115064250D01*
X98368500Y-114551750D01*
X98369553Y-114530309D01*
X98372703Y-114509074D01*
X98377919Y-114488250D01*
X98385151Y-114468038D01*
X98394330Y-114448632D01*
X98405366Y-114430219D01*
X98418154Y-114412976D01*
X98432570Y-114397070D01*
X98448476Y-114382654D01*
X98465719Y-114369866D01*
X98484132Y-114358830D01*
X98503538Y-114349651D01*
X98523750Y-114342419D01*
X98544574Y-114337203D01*
X98565809Y-114334053D01*
X98587250Y-114333000D01*
X99024750Y-114333000D01*
X99046191Y-114334053D01*
G37*
G36*
X100621191Y-114334053D02*
G01*
X100642426Y-114337203D01*
X100663250Y-114342419D01*
X100683462Y-114349651D01*
X100702868Y-114358830D01*
X100721281Y-114369866D01*
X100738524Y-114382654D01*
X100754430Y-114397070D01*
X100768846Y-114412976D01*
X100781634Y-114430219D01*
X100792670Y-114448632D01*
X100801849Y-114468038D01*
X100809081Y-114488250D01*
X100814297Y-114509074D01*
X100817447Y-114530309D01*
X100818500Y-114551750D01*
X100818500Y-115064250D01*
X100817447Y-115085691D01*
X100814297Y-115106926D01*
X100809081Y-115127750D01*
X100801849Y-115147962D01*
X100792670Y-115167368D01*
X100781634Y-115185781D01*
X100768846Y-115203024D01*
X100754430Y-115218930D01*
X100738524Y-115233346D01*
X100721281Y-115246134D01*
X100702868Y-115257170D01*
X100683462Y-115266349D01*
X100663250Y-115273581D01*
X100642426Y-115278797D01*
X100621191Y-115281947D01*
X100599750Y-115283000D01*
X100162250Y-115283000D01*
X100140809Y-115281947D01*
X100119574Y-115278797D01*
X100098750Y-115273581D01*
X100078538Y-115266349D01*
X100059132Y-115257170D01*
X100040719Y-115246134D01*
X100023476Y-115233346D01*
X100007570Y-115218930D01*
X99993154Y-115203024D01*
X99980366Y-115185781D01*
X99969330Y-115167368D01*
X99960151Y-115147962D01*
X99952919Y-115127750D01*
X99947703Y-115106926D01*
X99944553Y-115085691D01*
X99943500Y-115064250D01*
X99943500Y-114551750D01*
X99944553Y-114530309D01*
X99947703Y-114509074D01*
X99952919Y-114488250D01*
X99960151Y-114468038D01*
X99969330Y-114448632D01*
X99980366Y-114430219D01*
X99993154Y-114412976D01*
X100007570Y-114397070D01*
X100023476Y-114382654D01*
X100040719Y-114369866D01*
X100059132Y-114358830D01*
X100078538Y-114349651D01*
X100098750Y-114342419D01*
X100119574Y-114337203D01*
X100140809Y-114334053D01*
X100162250Y-114333000D01*
X100599750Y-114333000D01*
X100621191Y-114334053D01*
G37*
M02*
