G04 #@! TF.GenerationSoftware,KiCad,Pcbnew,(5.1.4)-1*
G04 #@! TF.CreationDate,2019-10-18T17:06:04-04:00*
G04 #@! TF.ProjectId,mtd415te,6d746434-3135-4746-952e-6b696361645f,rev?*
G04 #@! TF.SameCoordinates,Original*
G04 #@! TF.FileFunction,Legend,Top*
G04 #@! TF.FilePolarity,Positive*
%FSLAX46Y46*%
G04 Gerber Fmt 4.6, Leading zero omitted, Abs format (unit mm)*
G04 Created by KiCad (PCBNEW (5.1.4)-1) date 2019-10-18 17:06:04*
%MOMM*%
%LPD*%
G04 APERTURE LIST*
%ADD10C,0.120000*%
%ADD11C,0.250000*%
%ADD12C,0.100000*%
%ADD13C,0.150000*%
%ADD14C,0.400000*%
%ADD15C,0.152400*%
%ADD16C,0.203200*%
%ADD17C,0.127000*%
%ADD18C,0.200000*%
%ADD19C,0.050000*%
G04 APERTURE END LIST*
D10*
X129298952Y-49726857D02*
X129565619Y-49726857D01*
X129679904Y-50145904D02*
X129298952Y-50145904D01*
X129298952Y-49345904D01*
X129679904Y-49345904D01*
X130022761Y-50145904D02*
X130022761Y-49345904D01*
X130479904Y-50145904D01*
X130479904Y-49345904D01*
X130822761Y-49917333D02*
X131203714Y-49917333D01*
X130746571Y-50145904D02*
X131013238Y-49345904D01*
X131279904Y-50145904D01*
X131813238Y-49726857D02*
X131927523Y-49764952D01*
X131965619Y-49803047D01*
X132003714Y-49879238D01*
X132003714Y-49993523D01*
X131965619Y-50069714D01*
X131927523Y-50107809D01*
X131851333Y-50145904D01*
X131546571Y-50145904D01*
X131546571Y-49345904D01*
X131813238Y-49345904D01*
X131889428Y-49384000D01*
X131927523Y-49422095D01*
X131965619Y-49498285D01*
X131965619Y-49574476D01*
X131927523Y-49650666D01*
X131889428Y-49688761D01*
X131813238Y-49726857D01*
X131546571Y-49726857D01*
X132727523Y-50145904D02*
X132346571Y-50145904D01*
X132346571Y-49345904D01*
X132994190Y-49726857D02*
X133260857Y-49726857D01*
X133375142Y-50145904D02*
X132994190Y-50145904D01*
X132994190Y-49345904D01*
X133375142Y-49345904D01*
X141529047Y-49853809D02*
X141643333Y-49891904D01*
X141833809Y-49891904D01*
X141910000Y-49853809D01*
X141948095Y-49815714D01*
X141986190Y-49739523D01*
X141986190Y-49663333D01*
X141948095Y-49587142D01*
X141910000Y-49549047D01*
X141833809Y-49510952D01*
X141681428Y-49472857D01*
X141605238Y-49434761D01*
X141567142Y-49396666D01*
X141529047Y-49320476D01*
X141529047Y-49244285D01*
X141567142Y-49168095D01*
X141605238Y-49130000D01*
X141681428Y-49091904D01*
X141871904Y-49091904D01*
X141986190Y-49130000D01*
X142214761Y-49091904D02*
X142671904Y-49091904D01*
X142443333Y-49891904D02*
X142443333Y-49091904D01*
X142900476Y-49663333D02*
X143281428Y-49663333D01*
X142824285Y-49891904D02*
X143090952Y-49091904D01*
X143357619Y-49891904D01*
X143510000Y-49091904D02*
X143967142Y-49091904D01*
X143738571Y-49891904D02*
X143738571Y-49091904D01*
X144233809Y-49091904D02*
X144233809Y-49739523D01*
X144271904Y-49815714D01*
X144310000Y-49853809D01*
X144386190Y-49891904D01*
X144538571Y-49891904D01*
X144614761Y-49853809D01*
X144652857Y-49815714D01*
X144690952Y-49739523D01*
X144690952Y-49091904D01*
X145033809Y-49853809D02*
X145148095Y-49891904D01*
X145338571Y-49891904D01*
X145414761Y-49853809D01*
X145452857Y-49815714D01*
X145490952Y-49739523D01*
X145490952Y-49663333D01*
X145452857Y-49587142D01*
X145414761Y-49549047D01*
X145338571Y-49510952D01*
X145186190Y-49472857D01*
X145110000Y-49434761D01*
X145071904Y-49396666D01*
X145033809Y-49320476D01*
X145033809Y-49244285D01*
X145071904Y-49168095D01*
X145110000Y-49130000D01*
X145186190Y-49091904D01*
X145376666Y-49091904D01*
X145490952Y-49130000D01*
D11*
X124523523Y-73096380D02*
X123952095Y-73096380D01*
X124237809Y-73096380D02*
X124237809Y-72096380D01*
X124142571Y-72239238D01*
X124047333Y-72334476D01*
X123952095Y-72382095D01*
X125380666Y-72096380D02*
X125190190Y-72096380D01*
X125094952Y-72144000D01*
X125047333Y-72191619D01*
X124952095Y-72334476D01*
X124904476Y-72524952D01*
X124904476Y-72905904D01*
X124952095Y-73001142D01*
X124999714Y-73048761D01*
X125094952Y-73096380D01*
X125285428Y-73096380D01*
X125380666Y-73048761D01*
X125428285Y-73001142D01*
X125475904Y-72905904D01*
X125475904Y-72667809D01*
X125428285Y-72572571D01*
X125380666Y-72524952D01*
X125285428Y-72477333D01*
X125094952Y-72477333D01*
X124999714Y-72524952D01*
X124952095Y-72572571D01*
X124904476Y-72667809D01*
X155987714Y-73096380D02*
X155416285Y-73096380D01*
X155702000Y-73096380D02*
X155702000Y-72096380D01*
X155606761Y-72239238D01*
X155511523Y-72334476D01*
X155416285Y-72382095D01*
D12*
X126201333Y-48164000D02*
X126134666Y-48130666D01*
X126034666Y-48130666D01*
X125934666Y-48164000D01*
X125868000Y-48230666D01*
X125834666Y-48297333D01*
X125801333Y-48430666D01*
X125801333Y-48530666D01*
X125834666Y-48664000D01*
X125868000Y-48730666D01*
X125934666Y-48797333D01*
X126034666Y-48830666D01*
X126101333Y-48830666D01*
X126201333Y-48797333D01*
X126234666Y-48764000D01*
X126234666Y-48530666D01*
X126101333Y-48530666D01*
X126534666Y-48830666D02*
X126534666Y-48130666D01*
X126934666Y-48830666D01*
X126934666Y-48130666D01*
X127268000Y-48830666D02*
X127268000Y-48130666D01*
X127434666Y-48130666D01*
X127534666Y-48164000D01*
X127601333Y-48230666D01*
X127634666Y-48297333D01*
X127668000Y-48430666D01*
X127668000Y-48530666D01*
X127634666Y-48664000D01*
X127601333Y-48730666D01*
X127534666Y-48797333D01*
X127434666Y-48830666D01*
X127268000Y-48830666D01*
X128834666Y-48830666D02*
X128501333Y-48830666D01*
X128501333Y-48130666D01*
X129068000Y-48464000D02*
X129301333Y-48464000D01*
X129401333Y-48830666D02*
X129068000Y-48830666D01*
X129068000Y-48130666D01*
X129401333Y-48130666D01*
X129701333Y-48830666D02*
X129701333Y-48130666D01*
X129868000Y-48130666D01*
X129968000Y-48164000D01*
X130034666Y-48230666D01*
X130068000Y-48297333D01*
X130101333Y-48430666D01*
X130101333Y-48530666D01*
X130068000Y-48664000D01*
X130034666Y-48730666D01*
X129968000Y-48797333D01*
X129868000Y-48830666D01*
X129701333Y-48830666D01*
X131168000Y-48464000D02*
X131268000Y-48497333D01*
X131301333Y-48530666D01*
X131334666Y-48597333D01*
X131334666Y-48697333D01*
X131301333Y-48764000D01*
X131268000Y-48797333D01*
X131201333Y-48830666D01*
X130934666Y-48830666D01*
X130934666Y-48130666D01*
X131168000Y-48130666D01*
X131234666Y-48164000D01*
X131268000Y-48197333D01*
X131301333Y-48264000D01*
X131301333Y-48330666D01*
X131268000Y-48397333D01*
X131234666Y-48430666D01*
X131168000Y-48464000D01*
X130934666Y-48464000D01*
X131534666Y-48130666D02*
X131934666Y-48130666D01*
X131734666Y-48830666D02*
X131734666Y-48130666D01*
X132168000Y-48830666D02*
X132168000Y-48130666D01*
X132568000Y-48830666D01*
X132568000Y-48130666D01*
X132901333Y-48564000D02*
X133434666Y-48564000D01*
X133168000Y-48830666D02*
X133168000Y-48297333D01*
X134534666Y-48464000D02*
X134634666Y-48497333D01*
X134668000Y-48530666D01*
X134701333Y-48597333D01*
X134701333Y-48697333D01*
X134668000Y-48764000D01*
X134634666Y-48797333D01*
X134568000Y-48830666D01*
X134301333Y-48830666D01*
X134301333Y-48130666D01*
X134534666Y-48130666D01*
X134601333Y-48164000D01*
X134634666Y-48197333D01*
X134668000Y-48264000D01*
X134668000Y-48330666D01*
X134634666Y-48397333D01*
X134601333Y-48430666D01*
X134534666Y-48464000D01*
X134301333Y-48464000D01*
X134901333Y-48130666D02*
X135301333Y-48130666D01*
X135101333Y-48830666D02*
X135101333Y-48130666D01*
X135534666Y-48830666D02*
X135534666Y-48130666D01*
X135934666Y-48830666D01*
X135934666Y-48130666D01*
X136268000Y-48564000D02*
X136801333Y-48564000D01*
D10*
X140214761Y-48621904D02*
X140214761Y-47821904D01*
X140671904Y-48621904D01*
X140671904Y-47821904D01*
X141510000Y-48545714D02*
X141471904Y-48583809D01*
X141357619Y-48621904D01*
X141281428Y-48621904D01*
X141167142Y-48583809D01*
X141090952Y-48507619D01*
X141052857Y-48431428D01*
X141014761Y-48279047D01*
X141014761Y-48164761D01*
X141052857Y-48012380D01*
X141090952Y-47936190D01*
X141167142Y-47860000D01*
X141281428Y-47821904D01*
X141357619Y-47821904D01*
X141471904Y-47860000D01*
X141510000Y-47898095D01*
X142881428Y-47860000D02*
X142805238Y-47821904D01*
X142690952Y-47821904D01*
X142576666Y-47860000D01*
X142500476Y-47936190D01*
X142462380Y-48012380D01*
X142424285Y-48164761D01*
X142424285Y-48279047D01*
X142462380Y-48431428D01*
X142500476Y-48507619D01*
X142576666Y-48583809D01*
X142690952Y-48621904D01*
X142767142Y-48621904D01*
X142881428Y-48583809D01*
X142919523Y-48545714D01*
X142919523Y-48279047D01*
X142767142Y-48279047D01*
X143262380Y-48621904D02*
X143262380Y-47821904D01*
X143719523Y-48621904D01*
X143719523Y-47821904D01*
X144100476Y-48621904D02*
X144100476Y-47821904D01*
X144290952Y-47821904D01*
X144405238Y-47860000D01*
X144481428Y-47936190D01*
X144519523Y-48012380D01*
X144557619Y-48164761D01*
X144557619Y-48279047D01*
X144519523Y-48431428D01*
X144481428Y-48507619D01*
X144405238Y-48583809D01*
X144290952Y-48621904D01*
X144100476Y-48621904D01*
X145510000Y-48621904D02*
X145510000Y-47821904D01*
X145967142Y-48621904D01*
X145967142Y-47821904D01*
X146500476Y-47821904D02*
X146652857Y-47821904D01*
X146729047Y-47860000D01*
X146805238Y-47936190D01*
X146843333Y-48088571D01*
X146843333Y-48355238D01*
X146805238Y-48507619D01*
X146729047Y-48583809D01*
X146652857Y-48621904D01*
X146500476Y-48621904D01*
X146424285Y-48583809D01*
X146348095Y-48507619D01*
X146310000Y-48355238D01*
X146310000Y-48088571D01*
X146348095Y-47936190D01*
X146424285Y-47860000D01*
X146500476Y-47821904D01*
D13*
X99459023Y-78526142D02*
X99411404Y-78573761D01*
X99268547Y-78621380D01*
X99173309Y-78621380D01*
X99030452Y-78573761D01*
X98935214Y-78478523D01*
X98887595Y-78383285D01*
X98839976Y-78192809D01*
X98839976Y-78049952D01*
X98887595Y-77859476D01*
X98935214Y-77764238D01*
X99030452Y-77669000D01*
X99173309Y-77621380D01*
X99268547Y-77621380D01*
X99411404Y-77669000D01*
X99459023Y-77716619D01*
X100268547Y-78573761D02*
X100173309Y-78621380D01*
X99982833Y-78621380D01*
X99887595Y-78573761D01*
X99839976Y-78478523D01*
X99839976Y-78097571D01*
X99887595Y-78002333D01*
X99982833Y-77954714D01*
X100173309Y-77954714D01*
X100268547Y-78002333D01*
X100316166Y-78097571D01*
X100316166Y-78192809D01*
X99839976Y-78288047D01*
X100744738Y-78621380D02*
X100744738Y-77621380D01*
X101316166Y-78621380D01*
X101316166Y-77621380D01*
X101649500Y-77621380D02*
X102220928Y-77621380D01*
X101935214Y-78621380D02*
X101935214Y-77621380D01*
X103125690Y-78621380D02*
X102792357Y-78145190D01*
X102554261Y-78621380D02*
X102554261Y-77621380D01*
X102935214Y-77621380D01*
X103030452Y-77669000D01*
X103078071Y-77716619D01*
X103125690Y-77811857D01*
X103125690Y-77954714D01*
X103078071Y-78049952D01*
X103030452Y-78097571D01*
X102935214Y-78145190D01*
X102554261Y-78145190D01*
X103554261Y-78097571D02*
X103887595Y-78097571D01*
X104030452Y-78621380D02*
X103554261Y-78621380D01*
X103554261Y-77621380D01*
X104030452Y-77621380D01*
X104363785Y-77621380D02*
X105030452Y-78621380D01*
X105030452Y-77621380D02*
X104363785Y-78621380D01*
X106030452Y-77621380D02*
X106601880Y-77621380D01*
X106316166Y-78621380D02*
X106316166Y-77621380D01*
X106935214Y-78097571D02*
X107268547Y-78097571D01*
X107411404Y-78621380D02*
X106935214Y-78621380D01*
X106935214Y-77621380D01*
X107411404Y-77621380D01*
X108411404Y-78526142D02*
X108363785Y-78573761D01*
X108220928Y-78621380D01*
X108125690Y-78621380D01*
X107982833Y-78573761D01*
X107887595Y-78478523D01*
X107839976Y-78383285D01*
X107792357Y-78192809D01*
X107792357Y-78049952D01*
X107839976Y-77859476D01*
X107887595Y-77764238D01*
X107982833Y-77669000D01*
X108125690Y-77621380D01*
X108220928Y-77621380D01*
X108363785Y-77669000D01*
X108411404Y-77716619D01*
X109601880Y-78621380D02*
X109601880Y-77621380D01*
X109839976Y-77621380D01*
X109982833Y-77669000D01*
X110078071Y-77764238D01*
X110125690Y-77859476D01*
X110173309Y-78049952D01*
X110173309Y-78192809D01*
X110125690Y-78383285D01*
X110078071Y-78478523D01*
X109982833Y-78573761D01*
X109839976Y-78621380D01*
X109601880Y-78621380D01*
X111173309Y-78621380D02*
X110839976Y-78145190D01*
X110601880Y-78621380D02*
X110601880Y-77621380D01*
X110982833Y-77621380D01*
X111078071Y-77669000D01*
X111125690Y-77716619D01*
X111173309Y-77811857D01*
X111173309Y-77954714D01*
X111125690Y-78049952D01*
X111078071Y-78097571D01*
X110982833Y-78145190D01*
X110601880Y-78145190D01*
X111601880Y-78621380D02*
X111601880Y-77621380D01*
X111935214Y-77621380D02*
X112268547Y-78621380D01*
X112601880Y-77621380D01*
X112935214Y-78097571D02*
X113268547Y-78097571D01*
X113411404Y-78621380D02*
X112935214Y-78621380D01*
X112935214Y-77621380D01*
X113411404Y-77621380D01*
X114411404Y-78621380D02*
X114078071Y-78145190D01*
X113839976Y-78621380D02*
X113839976Y-77621380D01*
X114220928Y-77621380D01*
X114316166Y-77669000D01*
X114363785Y-77716619D01*
X114411404Y-77811857D01*
X114411404Y-77954714D01*
X114363785Y-78049952D01*
X114316166Y-78097571D01*
X114220928Y-78145190D01*
X113839976Y-78145190D01*
X99459023Y-80271380D02*
X99125690Y-79795190D01*
X98887595Y-80271380D02*
X98887595Y-79271380D01*
X99268547Y-79271380D01*
X99363785Y-79319000D01*
X99411404Y-79366619D01*
X99459023Y-79461857D01*
X99459023Y-79604714D01*
X99411404Y-79699952D01*
X99363785Y-79747571D01*
X99268547Y-79795190D01*
X98887595Y-79795190D01*
X99887595Y-79747571D02*
X100220928Y-79747571D01*
X100363785Y-80271380D02*
X99887595Y-80271380D01*
X99887595Y-79271380D01*
X100363785Y-79271380D01*
X100649500Y-79271380D02*
X100982833Y-80271380D01*
X101316166Y-79271380D01*
X102935214Y-80271380D02*
X102363785Y-80271380D01*
X102649500Y-80271380D02*
X102649500Y-79271380D01*
X102554261Y-79414238D01*
X102459023Y-79509476D01*
X102363785Y-79557095D01*
X103363785Y-80176142D02*
X103411404Y-80223761D01*
X103363785Y-80271380D01*
X103316166Y-80223761D01*
X103363785Y-80176142D01*
X103363785Y-80271380D01*
X104030452Y-79271380D02*
X104125690Y-79271380D01*
X104220928Y-79319000D01*
X104268547Y-79366619D01*
X104316166Y-79461857D01*
X104363785Y-79652333D01*
X104363785Y-79890428D01*
X104316166Y-80080904D01*
X104268547Y-80176142D01*
X104220928Y-80223761D01*
X104125690Y-80271380D01*
X104030452Y-80271380D01*
X103935214Y-80223761D01*
X103887595Y-80176142D01*
X103839976Y-80080904D01*
X103792357Y-79890428D01*
X103792357Y-79652333D01*
X103839976Y-79461857D01*
X103887595Y-79366619D01*
X103935214Y-79319000D01*
X104030452Y-79271380D01*
D14*
X128763428Y-65111142D02*
X128763428Y-62111142D01*
X129763428Y-64254000D01*
X130763428Y-62111142D01*
X130763428Y-65111142D01*
X131763428Y-62111142D02*
X133477714Y-62111142D01*
X132620571Y-65111142D02*
X132620571Y-62111142D01*
X134477714Y-65111142D02*
X134477714Y-62111142D01*
X135192000Y-62111142D01*
X135620571Y-62254000D01*
X135906285Y-62539714D01*
X136049142Y-62825428D01*
X136192000Y-63396857D01*
X136192000Y-63825428D01*
X136049142Y-64396857D01*
X135906285Y-64682571D01*
X135620571Y-64968285D01*
X135192000Y-65111142D01*
X134477714Y-65111142D01*
X138763428Y-63111142D02*
X138763428Y-65111142D01*
X138049142Y-61968285D02*
X137334857Y-64111142D01*
X139192000Y-64111142D01*
X141906285Y-65111142D02*
X140192000Y-65111142D01*
X141049142Y-65111142D02*
X141049142Y-62111142D01*
X140763428Y-62539714D01*
X140477714Y-62825428D01*
X140192000Y-62968285D01*
X144620571Y-62111142D02*
X143192000Y-62111142D01*
X143049142Y-63539714D01*
X143192000Y-63396857D01*
X143477714Y-63254000D01*
X144192000Y-63254000D01*
X144477714Y-63396857D01*
X144620571Y-63539714D01*
X144763428Y-63825428D01*
X144763428Y-64539714D01*
X144620571Y-64825428D01*
X144477714Y-64968285D01*
X144192000Y-65111142D01*
X143477714Y-65111142D01*
X143192000Y-64968285D01*
X143049142Y-64825428D01*
X145620571Y-62111142D02*
X147334857Y-62111142D01*
X146477714Y-65111142D02*
X146477714Y-62111142D01*
X148334857Y-63539714D02*
X149334857Y-63539714D01*
X149763428Y-65111142D02*
X148334857Y-65111142D01*
X148334857Y-62111142D01*
X149763428Y-62111142D01*
D13*
X150987523Y-52332000D02*
X150892285Y-52284380D01*
X150749428Y-52284380D01*
X150606571Y-52332000D01*
X150511333Y-52427238D01*
X150463714Y-52522476D01*
X150416095Y-52712952D01*
X150416095Y-52855809D01*
X150463714Y-53046285D01*
X150511333Y-53141523D01*
X150606571Y-53236761D01*
X150749428Y-53284380D01*
X150844666Y-53284380D01*
X150987523Y-53236761D01*
X151035142Y-53189142D01*
X151035142Y-52855809D01*
X150844666Y-52855809D01*
X151463714Y-53284380D02*
X151463714Y-52284380D01*
X152035142Y-53284380D01*
X152035142Y-52284380D01*
X152511333Y-53284380D02*
X152511333Y-52284380D01*
X152749428Y-52284380D01*
X152892285Y-52332000D01*
X152987523Y-52427238D01*
X153035142Y-52522476D01*
X153082761Y-52712952D01*
X153082761Y-52855809D01*
X153035142Y-53046285D01*
X152987523Y-53141523D01*
X152892285Y-53236761D01*
X152749428Y-53284380D01*
X152511333Y-53284380D01*
X157035142Y-52284380D02*
X156558952Y-52284380D01*
X156511333Y-52760571D01*
X156558952Y-52712952D01*
X156654190Y-52665333D01*
X156892285Y-52665333D01*
X156987523Y-52712952D01*
X157035142Y-52760571D01*
X157082761Y-52855809D01*
X157082761Y-53093904D01*
X157035142Y-53189142D01*
X156987523Y-53236761D01*
X156892285Y-53284380D01*
X156654190Y-53284380D01*
X156558952Y-53236761D01*
X156511333Y-53189142D01*
X157368476Y-52284380D02*
X157701809Y-53284380D01*
X158035142Y-52284380D01*
D10*
X159572000Y-73974000D02*
X158242000Y-73974000D01*
X159572000Y-72644000D02*
X159572000Y-73974000D01*
X159572000Y-71374000D02*
X156912000Y-71374000D01*
X156912000Y-71374000D02*
X156912000Y-53534000D01*
X159572000Y-71374000D02*
X159572000Y-53534000D01*
X159572000Y-53534000D02*
X156912000Y-53534000D01*
X149098000Y-75148675D02*
X148848000Y-74715662D01*
X149348000Y-74715662D02*
X149098000Y-75148675D01*
X148848000Y-74715662D02*
X149348000Y-74715662D01*
X159063000Y-75610000D02*
X159063000Y-87950000D01*
X119743000Y-75610000D02*
X159063000Y-75610000D01*
X119743000Y-87950000D02*
X119743000Y-75610000D01*
D12*
X105519800Y-65782500D02*
X105869800Y-65782500D01*
X105519800Y-65682500D02*
X105519800Y-65782500D01*
X109169800Y-65682500D02*
X109569800Y-65682500D01*
X109069800Y-65782500D02*
X109169800Y-65682500D01*
X108669800Y-65782500D02*
X109069800Y-65782500D01*
X109719800Y-60582500D02*
X109269800Y-60582500D01*
X109719800Y-60682500D02*
X109719800Y-60582500D01*
X105519800Y-60582500D02*
X105919800Y-60582500D01*
X105519800Y-60682500D02*
X105519800Y-60582500D01*
D15*
X118160800Y-61683900D02*
X113995200Y-61683900D01*
X113995200Y-66840100D02*
X118160800Y-66840100D01*
D10*
X159518000Y-41836000D02*
X159018000Y-41836000D01*
X159518000Y-42576000D02*
X159518000Y-41836000D01*
X152945000Y-45713000D02*
X152992000Y-45667000D01*
X150648000Y-48011000D02*
X150683000Y-47975000D01*
X152752000Y-45497000D02*
X152787000Y-45462000D01*
X150443000Y-47805000D02*
X150490000Y-47759000D01*
X149158000Y-51997000D02*
X149158000Y-42076000D01*
X159278000Y-51997000D02*
X159278000Y-42076000D01*
X159278000Y-42076000D02*
X149158000Y-42076000D01*
X159278000Y-51997000D02*
X149158000Y-51997000D01*
X159278000Y-49037000D02*
X149158000Y-49037000D01*
X159278000Y-44136000D02*
X149158000Y-44136000D01*
X159278000Y-42636000D02*
X149158000Y-42636000D01*
X153398000Y-46736000D02*
G75*
G03X153398000Y-46736000I-1680000J0D01*
G01*
X156689195Y-45055747D02*
G75*
G02X157402000Y-45201000I28805J-1680253D01*
G01*
X158253426Y-46052958D02*
G75*
G02X158253000Y-47420000I-1535426J-683042D01*
G01*
X157401042Y-48271426D02*
G75*
G02X156034000Y-48271000I-683042J1535426D01*
G01*
X155182574Y-47419042D02*
G75*
G02X155183000Y-46052000I1535426J683042D01*
G01*
X156034682Y-45201244D02*
G75*
G02X156718000Y-45056000I683318J-1534756D01*
G01*
X147380000Y-44644000D02*
X147380000Y-45974000D01*
X146050000Y-44644000D02*
X147380000Y-44644000D01*
X144780000Y-44644000D02*
X144780000Y-47304000D01*
X144780000Y-47304000D02*
X139640000Y-47304000D01*
X144780000Y-44644000D02*
X139640000Y-44644000D01*
X139640000Y-44644000D02*
X139640000Y-47304000D01*
X101780078Y-55424000D02*
X101262922Y-55424000D01*
X101780078Y-56844000D02*
X101262922Y-56844000D01*
X101780078Y-52884000D02*
X101262922Y-52884000D01*
X101780078Y-54304000D02*
X101262922Y-54304000D01*
X132592578Y-51106000D02*
X132075422Y-51106000D01*
X132592578Y-52526000D02*
X132075422Y-52526000D01*
D15*
X134848599Y-51688997D02*
G75*
G02X134848600Y-51943000I-278679J-127003D01*
G01*
D10*
X144578000Y-51557422D02*
X144578000Y-52074578D01*
X145998000Y-51557422D02*
X145998000Y-52074578D01*
D12*
X143548000Y-51566000D02*
G75*
G03X143548000Y-51566000I-150000J0D01*
G01*
D16*
X143848000Y-51216000D02*
X143848000Y-52416000D01*
X141648000Y-52416000D02*
X141648000Y-51216000D01*
D10*
X126178000Y-47304000D02*
X126178000Y-45974000D01*
X127508000Y-47304000D02*
X126178000Y-47304000D01*
X128778000Y-47304000D02*
X128778000Y-44644000D01*
X128778000Y-44644000D02*
X136458000Y-44644000D01*
X128778000Y-47304000D02*
X136458000Y-47304000D01*
X136458000Y-47304000D02*
X136458000Y-44644000D01*
X101937078Y-46788000D02*
X101419922Y-46788000D01*
X101937078Y-48208000D02*
X101419922Y-48208000D01*
X99874000Y-50287422D02*
X99874000Y-50804578D01*
X101294000Y-50287422D02*
X101294000Y-50804578D01*
X110184000Y-51742078D02*
X110184000Y-51224922D01*
X108764000Y-51742078D02*
X108764000Y-51224922D01*
X107898000Y-51742078D02*
X107898000Y-51224922D01*
X106478000Y-51742078D02*
X106478000Y-51224922D01*
D17*
X111700000Y-42204000D02*
X111700000Y-43254000D01*
X104200000Y-42204000D02*
X111700000Y-42204000D01*
X104200000Y-43254000D02*
X104200000Y-42204000D01*
D18*
X109350000Y-48304000D02*
G75*
G03X109350000Y-48304000I-100000J0D01*
G01*
D17*
X104200000Y-47204000D02*
X104200000Y-45354000D01*
X111700000Y-45354000D02*
X111700000Y-47204000D01*
D10*
X120590000Y-53534000D02*
X121920000Y-53534000D01*
X120590000Y-54864000D02*
X120590000Y-53534000D01*
X120590000Y-56134000D02*
X123250000Y-56134000D01*
X123250000Y-56134000D02*
X123250000Y-73974000D01*
X120590000Y-56134000D02*
X120590000Y-73974000D01*
X120590000Y-73974000D02*
X123250000Y-73974000D01*
X112438922Y-51256000D02*
X112956078Y-51256000D01*
X112438922Y-49836000D02*
X112956078Y-49836000D01*
X104320078Y-49836000D02*
X103802922Y-49836000D01*
X104320078Y-51256000D02*
X103802922Y-51256000D01*
X110946000Y-69679078D02*
X110946000Y-69161922D01*
X109526000Y-69679078D02*
X109526000Y-69161922D01*
D13*
X155622666Y-54316380D02*
X155622666Y-55030666D01*
X155575047Y-55173523D01*
X155479809Y-55268761D01*
X155336952Y-55316380D01*
X155241714Y-55316380D01*
X156003619Y-54316380D02*
X156622666Y-54316380D01*
X156289333Y-54697333D01*
X156432190Y-54697333D01*
X156527428Y-54744952D01*
X156575047Y-54792571D01*
X156622666Y-54887809D01*
X156622666Y-55125904D01*
X156575047Y-55221142D01*
X156527428Y-55268761D01*
X156432190Y-55316380D01*
X156146476Y-55316380D01*
X156051238Y-55268761D01*
X156003619Y-55221142D01*
X139069666Y-74122380D02*
X139069666Y-74836666D01*
X139022047Y-74979523D01*
X138926809Y-75074761D01*
X138783952Y-75122380D01*
X138688714Y-75122380D01*
X140022047Y-74122380D02*
X139545857Y-74122380D01*
X139498238Y-74598571D01*
X139545857Y-74550952D01*
X139641095Y-74503333D01*
X139879190Y-74503333D01*
X139974428Y-74550952D01*
X140022047Y-74598571D01*
X140069666Y-74693809D01*
X140069666Y-74931904D01*
X140022047Y-75027142D01*
X139974428Y-75074761D01*
X139879190Y-75122380D01*
X139641095Y-75122380D01*
X139545857Y-75074761D01*
X139498238Y-75027142D01*
X106857895Y-66384880D02*
X106857895Y-67194404D01*
X106905514Y-67289642D01*
X106953133Y-67337261D01*
X107048371Y-67384880D01*
X107238847Y-67384880D01*
X107334085Y-67337261D01*
X107381704Y-67289642D01*
X107429323Y-67194404D01*
X107429323Y-66384880D01*
X107857895Y-66480119D02*
X107905514Y-66432500D01*
X108000752Y-66384880D01*
X108238847Y-66384880D01*
X108334085Y-66432500D01*
X108381704Y-66480119D01*
X108429323Y-66575357D01*
X108429323Y-66670595D01*
X108381704Y-66813452D01*
X107810276Y-67384880D01*
X108429323Y-67384880D01*
X115316095Y-60158380D02*
X115316095Y-60967904D01*
X115363714Y-61063142D01*
X115411333Y-61110761D01*
X115506571Y-61158380D01*
X115697047Y-61158380D01*
X115792285Y-61110761D01*
X115839904Y-61063142D01*
X115887523Y-60967904D01*
X115887523Y-60158380D01*
X116268476Y-60158380D02*
X116887523Y-60158380D01*
X116554190Y-60539333D01*
X116697047Y-60539333D01*
X116792285Y-60586952D01*
X116839904Y-60634571D01*
X116887523Y-60729809D01*
X116887523Y-60967904D01*
X116839904Y-61063142D01*
X116792285Y-61110761D01*
X116697047Y-61158380D01*
X116411333Y-61158380D01*
X116316095Y-61110761D01*
X116268476Y-61063142D01*
X112173238Y-64714380D02*
X112173238Y-63714380D01*
X112601809Y-64666761D02*
X112744666Y-64714380D01*
X112982761Y-64714380D01*
X113078000Y-64666761D01*
X113125619Y-64619142D01*
X113173238Y-64523904D01*
X113173238Y-64428666D01*
X113125619Y-64333428D01*
X113078000Y-64285809D01*
X112982761Y-64238190D01*
X112792285Y-64190571D01*
X112697047Y-64142952D01*
X112649428Y-64095333D01*
X112601809Y-64000095D01*
X112601809Y-63904857D01*
X112649428Y-63809619D01*
X112697047Y-63762000D01*
X112792285Y-63714380D01*
X113030380Y-63714380D01*
X113173238Y-63762000D01*
X113792285Y-63714380D02*
X113982761Y-63714380D01*
X114078000Y-63762000D01*
X114173238Y-63857238D01*
X114220857Y-64047714D01*
X114220857Y-64381047D01*
X114173238Y-64571523D01*
X114078000Y-64666761D01*
X113982761Y-64714380D01*
X113792285Y-64714380D01*
X113697047Y-64666761D01*
X113601809Y-64571523D01*
X113554190Y-64381047D01*
X113554190Y-64047714D01*
X113601809Y-63857238D01*
X113697047Y-63762000D01*
X113792285Y-63714380D01*
X114554190Y-63714380D02*
X115220857Y-63714380D01*
X114792285Y-64714380D01*
X115506571Y-63714380D02*
X116173238Y-63714380D01*
X115744666Y-64714380D01*
X116506571Y-63809619D02*
X116554190Y-63762000D01*
X116649428Y-63714380D01*
X116887523Y-63714380D01*
X116982761Y-63762000D01*
X117030380Y-63809619D01*
X117078000Y-63904857D01*
X117078000Y-64000095D01*
X117030380Y-64142952D01*
X116458952Y-64714380D01*
X117078000Y-64714380D01*
X118030380Y-64714380D02*
X117458952Y-64714380D01*
X117744666Y-64714380D02*
X117744666Y-63714380D01*
X117649428Y-63857238D01*
X117554190Y-63952476D01*
X117458952Y-64000095D01*
X118458952Y-64714380D02*
X118458952Y-63714380D01*
X118697047Y-63714380D01*
X118839904Y-63762000D01*
X118935142Y-63857238D01*
X118982761Y-63952476D01*
X119030380Y-64142952D01*
X119030380Y-64285809D01*
X118982761Y-64476285D01*
X118935142Y-64571523D01*
X118839904Y-64666761D01*
X118697047Y-64714380D01*
X118458952Y-64714380D01*
X120030380Y-64714380D02*
X119697047Y-64238190D01*
X119458952Y-64714380D02*
X119458952Y-63714380D01*
X119839904Y-63714380D01*
X119935142Y-63762000D01*
X119982761Y-63809619D01*
X120030380Y-63904857D01*
X120030380Y-64047714D01*
X119982761Y-64142952D01*
X119935142Y-64190571D01*
X119839904Y-64238190D01*
X119458952Y-64238190D01*
X113360200Y-60107580D02*
X113360200Y-60345676D01*
X113122104Y-60250438D02*
X113360200Y-60345676D01*
X113598295Y-60250438D01*
X113217342Y-60536152D02*
X113360200Y-60345676D01*
X113503057Y-60536152D01*
X158416666Y-48474380D02*
X158416666Y-49188666D01*
X158369047Y-49331523D01*
X158273809Y-49426761D01*
X158130952Y-49474380D01*
X158035714Y-49474380D01*
X159321428Y-48474380D02*
X159130952Y-48474380D01*
X159035714Y-48522000D01*
X158988095Y-48569619D01*
X158892857Y-48712476D01*
X158845238Y-48902952D01*
X158845238Y-49283904D01*
X158892857Y-49379142D01*
X158940476Y-49426761D01*
X159035714Y-49474380D01*
X159226190Y-49474380D01*
X159321428Y-49426761D01*
X159369047Y-49379142D01*
X159416666Y-49283904D01*
X159416666Y-49045809D01*
X159369047Y-48950571D01*
X159321428Y-48902952D01*
X159226190Y-48855333D01*
X159035714Y-48855333D01*
X158940476Y-48902952D01*
X158892857Y-48950571D01*
X158845238Y-49045809D01*
X137588666Y-45426380D02*
X137588666Y-46140666D01*
X137541047Y-46283523D01*
X137445809Y-46378761D01*
X137302952Y-46426380D01*
X137207714Y-46426380D01*
X137969619Y-45426380D02*
X138636285Y-45426380D01*
X138207714Y-46426380D01*
X103973333Y-56491142D02*
X103925714Y-56538761D01*
X103782857Y-56586380D01*
X103687619Y-56586380D01*
X103544761Y-56538761D01*
X103449523Y-56443523D01*
X103401904Y-56348285D01*
X103354285Y-56157809D01*
X103354285Y-56014952D01*
X103401904Y-55824476D01*
X103449523Y-55729238D01*
X103544761Y-55634000D01*
X103687619Y-55586380D01*
X103782857Y-55586380D01*
X103925714Y-55634000D01*
X103973333Y-55681619D01*
X104354285Y-55681619D02*
X104401904Y-55634000D01*
X104497142Y-55586380D01*
X104735238Y-55586380D01*
X104830476Y-55634000D01*
X104878095Y-55681619D01*
X104925714Y-55776857D01*
X104925714Y-55872095D01*
X104878095Y-56014952D01*
X104306666Y-56586380D01*
X104925714Y-56586380D01*
X103973333Y-53951142D02*
X103925714Y-53998761D01*
X103782857Y-54046380D01*
X103687619Y-54046380D01*
X103544761Y-53998761D01*
X103449523Y-53903523D01*
X103401904Y-53808285D01*
X103354285Y-53617809D01*
X103354285Y-53474952D01*
X103401904Y-53284476D01*
X103449523Y-53189238D01*
X103544761Y-53094000D01*
X103687619Y-53046380D01*
X103782857Y-53046380D01*
X103925714Y-53094000D01*
X103973333Y-53141619D01*
X104306666Y-53046380D02*
X104925714Y-53046380D01*
X104592380Y-53427333D01*
X104735238Y-53427333D01*
X104830476Y-53474952D01*
X104878095Y-53522571D01*
X104925714Y-53617809D01*
X104925714Y-53855904D01*
X104878095Y-53951142D01*
X104830476Y-53998761D01*
X104735238Y-54046380D01*
X104449523Y-54046380D01*
X104354285Y-53998761D01*
X104306666Y-53951142D01*
X129373333Y-52268380D02*
X129040000Y-51792190D01*
X128801904Y-52268380D02*
X128801904Y-51268380D01*
X129182857Y-51268380D01*
X129278095Y-51316000D01*
X129325714Y-51363619D01*
X129373333Y-51458857D01*
X129373333Y-51601714D01*
X129325714Y-51696952D01*
X129278095Y-51744571D01*
X129182857Y-51792190D01*
X128801904Y-51792190D01*
X130325714Y-52268380D02*
X129754285Y-52268380D01*
X130040000Y-52268380D02*
X130040000Y-51268380D01*
X129944761Y-51411238D01*
X129849523Y-51506476D01*
X129754285Y-51554095D01*
X137160095Y-51268380D02*
X137160095Y-52077904D01*
X137207714Y-52173142D01*
X137255333Y-52220761D01*
X137350571Y-52268380D01*
X137541047Y-52268380D01*
X137636285Y-52220761D01*
X137683904Y-52173142D01*
X137731523Y-52077904D01*
X137731523Y-51268380D01*
X138731523Y-52268380D02*
X138160095Y-52268380D01*
X138445809Y-52268380D02*
X138445809Y-51268380D01*
X138350571Y-51411238D01*
X138255333Y-51506476D01*
X138160095Y-51554095D01*
D19*
D13*
X147153333Y-52268380D02*
X146820000Y-51792190D01*
X146581904Y-52268380D02*
X146581904Y-51268380D01*
X146962857Y-51268380D01*
X147058095Y-51316000D01*
X147105714Y-51363619D01*
X147153333Y-51458857D01*
X147153333Y-51601714D01*
X147105714Y-51696952D01*
X147058095Y-51744571D01*
X146962857Y-51792190D01*
X146581904Y-51792190D01*
X148010476Y-51601714D02*
X148010476Y-52268380D01*
X147772380Y-51220761D02*
X147534285Y-51935047D01*
X148153333Y-51935047D01*
X139700095Y-51268380D02*
X139700095Y-52077904D01*
X139747714Y-52173142D01*
X139795333Y-52220761D01*
X139890571Y-52268380D01*
X140081047Y-52268380D01*
X140176285Y-52220761D01*
X140223904Y-52173142D01*
X140271523Y-52077904D01*
X140271523Y-51268380D01*
X141176285Y-51601714D02*
X141176285Y-52268380D01*
X140938190Y-51220761D02*
X140700095Y-51935047D01*
X141319142Y-51935047D01*
D19*
D13*
X124126666Y-45426380D02*
X124126666Y-46140666D01*
X124079047Y-46283523D01*
X123983809Y-46378761D01*
X123840952Y-46426380D01*
X123745714Y-46426380D01*
X125126666Y-46426380D02*
X124555238Y-46426380D01*
X124840952Y-46426380D02*
X124840952Y-45426380D01*
X124745714Y-45569238D01*
X124650476Y-45664476D01*
X124555238Y-45712095D01*
X98893333Y-47855142D02*
X98845714Y-47902761D01*
X98702857Y-47950380D01*
X98607619Y-47950380D01*
X98464761Y-47902761D01*
X98369523Y-47807523D01*
X98321904Y-47712285D01*
X98274285Y-47521809D01*
X98274285Y-47378952D01*
X98321904Y-47188476D01*
X98369523Y-47093238D01*
X98464761Y-46998000D01*
X98607619Y-46950380D01*
X98702857Y-46950380D01*
X98845714Y-46998000D01*
X98893333Y-47045619D01*
X99845714Y-47950380D02*
X99274285Y-47950380D01*
X99560000Y-47950380D02*
X99560000Y-46950380D01*
X99464761Y-47093238D01*
X99369523Y-47188476D01*
X99274285Y-47236095D01*
X98639333Y-50998380D02*
X98163142Y-50998380D01*
X98163142Y-49998380D01*
X99496476Y-50998380D02*
X98925047Y-50998380D01*
X99210761Y-50998380D02*
X99210761Y-49998380D01*
X99115523Y-50141238D01*
X99020285Y-50236476D01*
X98925047Y-50284095D01*
X109307333Y-49474380D02*
X108974000Y-48998190D01*
X108735904Y-49474380D02*
X108735904Y-48474380D01*
X109116857Y-48474380D01*
X109212095Y-48522000D01*
X109259714Y-48569619D01*
X109307333Y-48664857D01*
X109307333Y-48807714D01*
X109259714Y-48902952D01*
X109212095Y-48950571D01*
X109116857Y-48998190D01*
X108735904Y-48998190D01*
X109640666Y-48474380D02*
X110259714Y-48474380D01*
X109926380Y-48855333D01*
X110069238Y-48855333D01*
X110164476Y-48902952D01*
X110212095Y-48950571D01*
X110259714Y-49045809D01*
X110259714Y-49283904D01*
X110212095Y-49379142D01*
X110164476Y-49426761D01*
X110069238Y-49474380D01*
X109783523Y-49474380D01*
X109688285Y-49426761D01*
X109640666Y-49379142D01*
X107021333Y-49474380D02*
X106688000Y-48998190D01*
X106449904Y-49474380D02*
X106449904Y-48474380D01*
X106830857Y-48474380D01*
X106926095Y-48522000D01*
X106973714Y-48569619D01*
X107021333Y-48664857D01*
X107021333Y-48807714D01*
X106973714Y-48902952D01*
X106926095Y-48950571D01*
X106830857Y-48998190D01*
X106449904Y-48998190D01*
X107402285Y-48569619D02*
X107449904Y-48522000D01*
X107545142Y-48474380D01*
X107783238Y-48474380D01*
X107878476Y-48522000D01*
X107926095Y-48569619D01*
X107973714Y-48664857D01*
X107973714Y-48760095D01*
X107926095Y-48902952D01*
X107354666Y-49474380D01*
X107973714Y-49474380D01*
X102536646Y-43648348D02*
X102536646Y-44362676D01*
X102489024Y-44505542D01*
X102393780Y-44600786D01*
X102250915Y-44648408D01*
X102155671Y-44648408D01*
X102965243Y-43743591D02*
X103012865Y-43695970D01*
X103108109Y-43648348D01*
X103346219Y-43648348D01*
X103441462Y-43695970D01*
X103489084Y-43743591D01*
X103536706Y-43838835D01*
X103536706Y-43934079D01*
X103489084Y-44076945D01*
X102917621Y-44648408D01*
X103536706Y-44648408D01*
D19*
D13*
X118792666Y-54316380D02*
X118792666Y-55030666D01*
X118745047Y-55173523D01*
X118649809Y-55268761D01*
X118506952Y-55316380D01*
X118411714Y-55316380D01*
X119697428Y-54649714D02*
X119697428Y-55316380D01*
X119459333Y-54268761D02*
X119221238Y-54983047D01*
X119840285Y-54983047D01*
X112609333Y-49125142D02*
X112561714Y-49172761D01*
X112418857Y-49220380D01*
X112323619Y-49220380D01*
X112180761Y-49172761D01*
X112085523Y-49077523D01*
X112037904Y-48982285D01*
X111990285Y-48791809D01*
X111990285Y-48648952D01*
X112037904Y-48458476D01*
X112085523Y-48363238D01*
X112180761Y-48268000D01*
X112323619Y-48220380D01*
X112418857Y-48220380D01*
X112561714Y-48268000D01*
X112609333Y-48315619D01*
X113466476Y-48220380D02*
X113276000Y-48220380D01*
X113180761Y-48268000D01*
X113133142Y-48315619D01*
X113037904Y-48458476D01*
X112990285Y-48648952D01*
X112990285Y-49029904D01*
X113037904Y-49125142D01*
X113085523Y-49172761D01*
X113180761Y-49220380D01*
X113371238Y-49220380D01*
X113466476Y-49172761D01*
X113514095Y-49125142D01*
X113561714Y-49029904D01*
X113561714Y-48791809D01*
X113514095Y-48696571D01*
X113466476Y-48648952D01*
X113371238Y-48601333D01*
X113180761Y-48601333D01*
X113085523Y-48648952D01*
X113037904Y-48696571D01*
X112990285Y-48791809D01*
X104735333Y-49125142D02*
X104687714Y-49172761D01*
X104544857Y-49220380D01*
X104449619Y-49220380D01*
X104306761Y-49172761D01*
X104211523Y-49077523D01*
X104163904Y-48982285D01*
X104116285Y-48791809D01*
X104116285Y-48648952D01*
X104163904Y-48458476D01*
X104211523Y-48363238D01*
X104306761Y-48268000D01*
X104449619Y-48220380D01*
X104544857Y-48220380D01*
X104687714Y-48268000D01*
X104735333Y-48315619D01*
X105640095Y-48220380D02*
X105163904Y-48220380D01*
X105116285Y-48696571D01*
X105163904Y-48648952D01*
X105259142Y-48601333D01*
X105497238Y-48601333D01*
X105592476Y-48648952D01*
X105640095Y-48696571D01*
X105687714Y-48791809D01*
X105687714Y-49029904D01*
X105640095Y-49125142D01*
X105592476Y-49172761D01*
X105497238Y-49220380D01*
X105259142Y-49220380D01*
X105163904Y-49172761D01*
X105116285Y-49125142D01*
X112101333Y-69699142D02*
X112053714Y-69746761D01*
X111910857Y-69794380D01*
X111815619Y-69794380D01*
X111672761Y-69746761D01*
X111577523Y-69651523D01*
X111529904Y-69556285D01*
X111482285Y-69365809D01*
X111482285Y-69222952D01*
X111529904Y-69032476D01*
X111577523Y-68937238D01*
X111672761Y-68842000D01*
X111815619Y-68794380D01*
X111910857Y-68794380D01*
X112053714Y-68842000D01*
X112101333Y-68889619D01*
X112958476Y-69127714D02*
X112958476Y-69794380D01*
X112720380Y-68746761D02*
X112482285Y-69461047D01*
X113101333Y-69461047D01*
M02*
