M48
;DRILL file {KiCad (6.0.0-rc1-dev-392-gd9d005190)} date 09/18/18 13:24:20
;FORMAT={3:3/ absolute / metric / suppress leading zeros}
FMAT,2
METRIC,TZ
T1C1.000
T2C1.100
T3C1.300
T4C3.200
%
G90
G05
M71
T1
X94950Y-126775
X94950Y-129545
X94950Y-132315
X94950Y-135085
X94950Y-137855
X94950Y-140625
X94950Y-143395
X97790Y-125390
X97790Y-128160
X97790Y-130930
X97790Y-133700
X97790Y-136470
X97790Y-139240
X97790Y-142010
X97790Y-144780
X119380Y-146050
X119380Y-148590
X119380Y-151130
X119380Y-153670
X119380Y-156210
X119380Y-158750
X107950Y-48260
X107950Y-63260
X94950Y-81055
X94950Y-83825
X94950Y-86595
X94950Y-89365
X94950Y-92135
X94950Y-94905
X94950Y-97675
X97790Y-79670
X97790Y-82440
X97790Y-85210
X97790Y-87980
X97790Y-90750
X97790Y-93520
X97790Y-96290
X97790Y-99060
X127000Y-87300
X127000Y-90070
X127000Y-92840
X127000Y-95610
X127000Y-98380
X127000Y-101150
X127000Y-103920
X127000Y-106690
X127000Y-109460
X127000Y-112230
X127000Y-115000
X127000Y-117770
X127000Y-120540
X127000Y-123310
X127000Y-126080
X127000Y-128850
X127000Y-131620
X127000Y-134390
X127000Y-137160
X129840Y-88685
X129840Y-91455
X129840Y-94225
X129840Y-96995
X129840Y-99765
X129840Y-102535
X129840Y-105305
X129840Y-108075
X129840Y-110845
X129840Y-113615
X129840Y-116385
X129840Y-119155
X129840Y-121925
X129840Y-124695
X129840Y-127465
X129840Y-130235
X129840Y-133005
X129840Y-135775
X116840Y-48260
X116840Y-63260
X106680Y-146050
X106680Y-148590
X106680Y-151130
X106680Y-153670
X106680Y-156210
X106680Y-158750
T2
X109220Y-41910
X111760Y-41910
X114300Y-41910
T3
X92710Y-42150
X92710Y-47150
X92710Y-52150
X92710Y-57150
X132080Y-41910
X132080Y-46910
X132080Y-51910
X132080Y-56910
T4
X96370Y-118435
X96370Y-151735
X96370Y-72715
X96370Y-106015
X128420Y-80480
X128420Y-143980
T0
M30
