G04 #@! TF.GenerationSoftware,KiCad,Pcbnew,(6.0.0-rc1-dev-392-gd9d005190)*
G04 #@! TF.CreationDate,2018-09-18T13:24:25-04:00*
G04 #@! TF.ProjectId,labjack_breakout,6C61626A61636B5F627265616B6F7574,rev?*
G04 #@! TF.SameCoordinates,Original*
G04 #@! TF.FileFunction,Soldermask,Bot*
G04 #@! TF.FilePolarity,Negative*
%FSLAX46Y46*%
G04 Gerber Fmt 4.6, Leading zero omitted, Abs format (unit mm)*
G04 Created by KiCad (PCBNEW (6.0.0-rc1-dev-392-gd9d005190)) date 09/18/18 13:24:25*
%MOMM*%
%LPD*%
G01*
G04 APERTURE LIST*
%ADD10R,2.400000X2.400000*%
%ADD11O,2.400000X2.400000*%
%ADD12R,2.900000X2.900000*%
%ADD13C,2.900000*%
%ADD14R,2.100000X2.100000*%
%ADD15O,2.100000X2.100000*%
%ADD16R,2.305000X2.400000*%
%ADD17O,2.305000X2.400000*%
%ADD18R,2.000000X2.000000*%
%ADD19C,2.000000*%
%ADD20C,4.400000*%
G04 APERTURE END LIST*
D10*
G04 #@! TO.C,C1*
X116840000Y-48260000D03*
D11*
X116840000Y-63260000D03*
G04 #@! TD*
G04 #@! TO.C,C2*
X107950000Y-63260000D03*
D10*
X107950000Y-48260000D03*
G04 #@! TD*
D12*
G04 #@! TO.C,J2*
X132080000Y-41910000D03*
D13*
X132080000Y-46910000D03*
X132080000Y-51910000D03*
X132080000Y-56910000D03*
G04 #@! TD*
G04 #@! TO.C,J5*
X92710000Y-42150000D03*
X92710000Y-47150000D03*
X92710000Y-52150000D03*
D12*
X92710000Y-57150000D03*
G04 #@! TD*
D14*
G04 #@! TO.C,J6*
X119380000Y-158750000D03*
D15*
X119380000Y-156210000D03*
X119380000Y-153670000D03*
X119380000Y-151130000D03*
X119380000Y-148590000D03*
X119380000Y-146050000D03*
G04 #@! TD*
G04 #@! TO.C,J7*
X106680000Y-158750000D03*
X106680000Y-156210000D03*
X106680000Y-153670000D03*
X106680000Y-151130000D03*
X106680000Y-148590000D03*
D14*
X106680000Y-146050000D03*
G04 #@! TD*
D16*
G04 #@! TO.C,U1*
X109220000Y-41910000D03*
D17*
X111760000Y-41910000D03*
X114300000Y-41910000D03*
G04 #@! TD*
D18*
G04 #@! TO.C,J1*
X127000000Y-137160000D03*
D19*
X127000000Y-134390000D03*
X127000000Y-131620000D03*
X127000000Y-128850000D03*
X127000000Y-126080000D03*
X127000000Y-123310000D03*
X127000000Y-120540000D03*
X127000000Y-117770000D03*
X127000000Y-115000000D03*
X127000000Y-112230000D03*
X127000000Y-109460000D03*
X127000000Y-106690000D03*
X127000000Y-103920000D03*
X127000000Y-101150000D03*
X127000000Y-98380000D03*
X127000000Y-95610000D03*
X127000000Y-92840000D03*
X127000000Y-90070000D03*
X127000000Y-87300000D03*
X129840000Y-135775000D03*
X129840000Y-133005000D03*
X129840000Y-130235000D03*
X129840000Y-127465000D03*
X129840000Y-124695000D03*
X129840000Y-121925000D03*
X129840000Y-119155000D03*
X129840000Y-116385000D03*
X129840000Y-113615000D03*
X129840000Y-110845000D03*
X129840000Y-108075000D03*
X129840000Y-105305000D03*
X129840000Y-102535000D03*
X129840000Y-99765000D03*
X129840000Y-96995000D03*
X129840000Y-94225000D03*
X129840000Y-91455000D03*
X129840000Y-88685000D03*
D20*
X128420000Y-143980000D03*
X128420000Y-80480000D03*
G04 #@! TD*
G04 #@! TO.C,J3*
X96370000Y-106015000D03*
X96370000Y-72715000D03*
D19*
X94950000Y-81055000D03*
X94950000Y-83825000D03*
X94950000Y-86595000D03*
X94950000Y-89365000D03*
X94950000Y-92135000D03*
X94950000Y-94905000D03*
X94950000Y-97675000D03*
X97790000Y-79670000D03*
X97790000Y-82440000D03*
X97790000Y-85210000D03*
X97790000Y-87980000D03*
X97790000Y-90750000D03*
X97790000Y-93520000D03*
X97790000Y-96290000D03*
D18*
X97790000Y-99060000D03*
G04 #@! TD*
G04 #@! TO.C,J4*
X97790000Y-144780000D03*
D19*
X97790000Y-142010000D03*
X97790000Y-139240000D03*
X97790000Y-136470000D03*
X97790000Y-133700000D03*
X97790000Y-130930000D03*
X97790000Y-128160000D03*
X97790000Y-125390000D03*
X94950000Y-143395000D03*
X94950000Y-140625000D03*
X94950000Y-137855000D03*
X94950000Y-135085000D03*
X94950000Y-132315000D03*
X94950000Y-129545000D03*
X94950000Y-126775000D03*
D20*
X96370000Y-118435000D03*
X96370000Y-151735000D03*
G04 #@! TD*
M02*
