G04 #@! TF.GenerationSoftware,KiCad,Pcbnew,(6.0.0-rc1-dev-392-gd9d005190)*
G04 #@! TF.CreationDate,2018-09-18T13:24:25-04:00*
G04 #@! TF.ProjectId,labjack_breakout,6C61626A61636B5F627265616B6F7574,rev?*
G04 #@! TF.SameCoordinates,Original*
G04 #@! TF.FileFunction,Legend,Top*
G04 #@! TF.FilePolarity,Positive*
%FSLAX46Y46*%
G04 Gerber Fmt 4.6, Leading zero omitted, Abs format (unit mm)*
G04 Created by KiCad (PCBNEW (6.0.0-rc1-dev-392-gd9d005190)) date 09/18/18 13:24:25*
%MOMM*%
%LPD*%
G01*
G04 APERTURE LIST*
%ADD10C,0.150000*%
%ADD11C,0.120000*%
G04 APERTURE END LIST*
D10*
X109458571Y-157932380D02*
X108887142Y-157932380D01*
X109172857Y-157932380D02*
X109172857Y-156932380D01*
X109077619Y-157075238D01*
X108982380Y-157170476D01*
X108887142Y-157218095D01*
X109839523Y-157027619D02*
X109887142Y-156980000D01*
X109982380Y-156932380D01*
X110220476Y-156932380D01*
X110315714Y-156980000D01*
X110363333Y-157027619D01*
X110410952Y-157122857D01*
X110410952Y-157218095D01*
X110363333Y-157360952D01*
X109791904Y-157932380D01*
X110410952Y-157932380D01*
X110839523Y-157837142D02*
X110887142Y-157884761D01*
X110839523Y-157932380D01*
X110791904Y-157884761D01*
X110839523Y-157837142D01*
X110839523Y-157932380D01*
X111220476Y-156932380D02*
X111887142Y-156932380D01*
X111458571Y-157932380D01*
X112458571Y-156932380D02*
X112553809Y-156932380D01*
X112649047Y-156980000D01*
X112696666Y-157027619D01*
X112744285Y-157122857D01*
X112791904Y-157313333D01*
X112791904Y-157551428D01*
X112744285Y-157741904D01*
X112696666Y-157837142D01*
X112649047Y-157884761D01*
X112553809Y-157932380D01*
X112458571Y-157932380D01*
X112363333Y-157884761D01*
X112315714Y-157837142D01*
X112268095Y-157741904D01*
X112220476Y-157551428D01*
X112220476Y-157313333D01*
X112268095Y-157122857D01*
X112315714Y-157027619D01*
X112363333Y-156980000D01*
X112458571Y-156932380D01*
X113410952Y-156932380D02*
X113506190Y-156932380D01*
X113601428Y-156980000D01*
X113649047Y-157027619D01*
X113696666Y-157122857D01*
X113744285Y-157313333D01*
X113744285Y-157551428D01*
X113696666Y-157741904D01*
X113649047Y-157837142D01*
X113601428Y-157884761D01*
X113506190Y-157932380D01*
X113410952Y-157932380D01*
X113315714Y-157884761D01*
X113268095Y-157837142D01*
X113220476Y-157741904D01*
X113172857Y-157551428D01*
X113172857Y-157313333D01*
X113220476Y-157122857D01*
X113268095Y-157027619D01*
X113315714Y-156980000D01*
X113410952Y-156932380D01*
X114934761Y-157932380D02*
X114934761Y-157265714D01*
X114934761Y-157360952D02*
X114982380Y-157313333D01*
X115077619Y-157265714D01*
X115220476Y-157265714D01*
X115315714Y-157313333D01*
X115363333Y-157408571D01*
X115363333Y-157932380D01*
X115363333Y-157408571D02*
X115410952Y-157313333D01*
X115506190Y-157265714D01*
X115649047Y-157265714D01*
X115744285Y-157313333D01*
X115791904Y-157408571D01*
X115791904Y-157932380D01*
X116268095Y-157932380D02*
X116268095Y-157265714D01*
X116268095Y-157360952D02*
X116315714Y-157313333D01*
X116410952Y-157265714D01*
X116553809Y-157265714D01*
X116649047Y-157313333D01*
X116696666Y-157408571D01*
X116696666Y-157932380D01*
X116696666Y-157408571D02*
X116744285Y-157313333D01*
X116839523Y-157265714D01*
X116982380Y-157265714D01*
X117077619Y-157313333D01*
X117125238Y-157408571D01*
X117125238Y-157932380D01*
D11*
X119380000Y-158750000D02*
X106680000Y-158750000D01*
X119380000Y-158750000D02*
X119380000Y-158163579D01*
X106680000Y-158750000D02*
X106680000Y-158163579D01*
X106680000Y-158750000D02*
X107806504Y-158163579D01*
X106680000Y-158750000D02*
X107806504Y-159336421D01*
X119380000Y-158750000D02*
X118253496Y-158163579D01*
X119380000Y-158750000D02*
X118253496Y-159336421D01*
D10*
X99623809Y-41362380D02*
X99957142Y-42362380D01*
X100290476Y-41362380D01*
X100623809Y-42362380D02*
X100623809Y-41362380D01*
X100861904Y-41362380D01*
X101004761Y-41410000D01*
X101100000Y-41505238D01*
X101147619Y-41600476D01*
X101195238Y-41790952D01*
X101195238Y-41933809D01*
X101147619Y-42124285D01*
X101100000Y-42219523D01*
X101004761Y-42314761D01*
X100861904Y-42362380D01*
X100623809Y-42362380D01*
X101623809Y-42362380D02*
X101623809Y-41362380D01*
X101957142Y-41362380D02*
X102290476Y-42362380D01*
X102623809Y-41362380D01*
X102909523Y-41457619D02*
X102957142Y-41410000D01*
X103052380Y-41362380D01*
X103290476Y-41362380D01*
X103385714Y-41410000D01*
X103433333Y-41457619D01*
X103480952Y-41552857D01*
X103480952Y-41648095D01*
X103433333Y-41790952D01*
X102861904Y-42362380D01*
X103480952Y-42362380D01*
X99623809Y-51522380D02*
X99957142Y-52522380D01*
X100290476Y-51522380D01*
X100623809Y-52522380D02*
X100623809Y-51522380D01*
X100861904Y-51522380D01*
X101004761Y-51570000D01*
X101100000Y-51665238D01*
X101147619Y-51760476D01*
X101195238Y-51950952D01*
X101195238Y-52093809D01*
X101147619Y-52284285D01*
X101100000Y-52379523D01*
X101004761Y-52474761D01*
X100861904Y-52522380D01*
X100623809Y-52522380D01*
X101623809Y-52522380D02*
X101623809Y-51522380D01*
X101957142Y-51522380D02*
X102290476Y-52522380D01*
X102623809Y-51522380D01*
X103480952Y-52522380D02*
X102909523Y-52522380D01*
X103195238Y-52522380D02*
X103195238Y-51522380D01*
X103100000Y-51665238D01*
X103004761Y-51760476D01*
X102909523Y-51808095D01*
X100838095Y-46490000D02*
X100742857Y-46442380D01*
X100600000Y-46442380D01*
X100457142Y-46490000D01*
X100361904Y-46585238D01*
X100314285Y-46680476D01*
X100266666Y-46870952D01*
X100266666Y-47013809D01*
X100314285Y-47204285D01*
X100361904Y-47299523D01*
X100457142Y-47394761D01*
X100600000Y-47442380D01*
X100695238Y-47442380D01*
X100838095Y-47394761D01*
X100885714Y-47347142D01*
X100885714Y-47013809D01*
X100695238Y-47013809D01*
X101314285Y-47442380D02*
X101314285Y-46442380D01*
X101885714Y-47442380D01*
X101885714Y-46442380D01*
X102361904Y-47442380D02*
X102361904Y-46442380D01*
X102600000Y-46442380D01*
X102742857Y-46490000D01*
X102838095Y-46585238D01*
X102885714Y-46680476D01*
X102933333Y-46870952D01*
X102933333Y-47013809D01*
X102885714Y-47204285D01*
X102838095Y-47299523D01*
X102742857Y-47394761D01*
X102600000Y-47442380D01*
X102361904Y-47442380D01*
X100838095Y-56650000D02*
X100742857Y-56602380D01*
X100600000Y-56602380D01*
X100457142Y-56650000D01*
X100361904Y-56745238D01*
X100314285Y-56840476D01*
X100266666Y-57030952D01*
X100266666Y-57173809D01*
X100314285Y-57364285D01*
X100361904Y-57459523D01*
X100457142Y-57554761D01*
X100600000Y-57602380D01*
X100695238Y-57602380D01*
X100838095Y-57554761D01*
X100885714Y-57507142D01*
X100885714Y-57173809D01*
X100695238Y-57173809D01*
X101314285Y-57602380D02*
X101314285Y-56602380D01*
X101885714Y-57602380D01*
X101885714Y-56602380D01*
X102361904Y-57602380D02*
X102361904Y-56602380D01*
X102600000Y-56602380D01*
X102742857Y-56650000D01*
X102838095Y-56745238D01*
X102885714Y-56840476D01*
X102933333Y-57030952D01*
X102933333Y-57173809D01*
X102885714Y-57364285D01*
X102838095Y-57459523D01*
X102742857Y-57554761D01*
X102600000Y-57602380D01*
X102361904Y-57602380D01*
X122380476Y-56602380D02*
X122713809Y-57602380D01*
X123047142Y-56602380D01*
X123332857Y-57554761D02*
X123475714Y-57602380D01*
X123713809Y-57602380D01*
X123809047Y-57554761D01*
X123856666Y-57507142D01*
X123904285Y-57411904D01*
X123904285Y-57316666D01*
X123856666Y-57221428D01*
X123809047Y-57173809D01*
X123713809Y-57126190D01*
X123523333Y-57078571D01*
X123428095Y-57030952D01*
X123380476Y-56983333D01*
X123332857Y-56888095D01*
X123332857Y-56792857D01*
X123380476Y-56697619D01*
X123428095Y-56650000D01*
X123523333Y-56602380D01*
X123761428Y-56602380D01*
X123904285Y-56650000D01*
X122428095Y-51570000D02*
X122332857Y-51522380D01*
X122190000Y-51522380D01*
X122047142Y-51570000D01*
X121951904Y-51665238D01*
X121904285Y-51760476D01*
X121856666Y-51950952D01*
X121856666Y-52093809D01*
X121904285Y-52284285D01*
X121951904Y-52379523D01*
X122047142Y-52474761D01*
X122190000Y-52522380D01*
X122285238Y-52522380D01*
X122428095Y-52474761D01*
X122475714Y-52427142D01*
X122475714Y-52093809D01*
X122285238Y-52093809D01*
X122904285Y-52522380D02*
X122904285Y-51522380D01*
X123475714Y-52522380D01*
X123475714Y-51522380D01*
X123951904Y-52522380D02*
X123951904Y-51522380D01*
X124190000Y-51522380D01*
X124332857Y-51570000D01*
X124428095Y-51665238D01*
X124475714Y-51760476D01*
X124523333Y-51950952D01*
X124523333Y-52093809D01*
X124475714Y-52284285D01*
X124428095Y-52379523D01*
X124332857Y-52474761D01*
X124190000Y-52522380D01*
X123951904Y-52522380D01*
X121499523Y-47442380D02*
X121499523Y-46442380D01*
X121737619Y-46442380D01*
X121880476Y-46490000D01*
X121975714Y-46585238D01*
X122023333Y-46680476D01*
X122070952Y-46870952D01*
X122070952Y-47013809D01*
X122023333Y-47204285D01*
X121975714Y-47299523D01*
X121880476Y-47394761D01*
X121737619Y-47442380D01*
X121499523Y-47442380D01*
X122451904Y-47156666D02*
X122928095Y-47156666D01*
X122356666Y-47442380D02*
X122690000Y-46442380D01*
X123023333Y-47442380D01*
X123928095Y-47347142D02*
X123880476Y-47394761D01*
X123737619Y-47442380D01*
X123642380Y-47442380D01*
X123499523Y-47394761D01*
X123404285Y-47299523D01*
X123356666Y-47204285D01*
X123309047Y-47013809D01*
X123309047Y-46870952D01*
X123356666Y-46680476D01*
X123404285Y-46585238D01*
X123499523Y-46490000D01*
X123642380Y-46442380D01*
X123737619Y-46442380D01*
X123880476Y-46490000D01*
X123928095Y-46537619D01*
X124690000Y-46918571D02*
X124832857Y-46966190D01*
X124880476Y-47013809D01*
X124928095Y-47109047D01*
X124928095Y-47251904D01*
X124880476Y-47347142D01*
X124832857Y-47394761D01*
X124737619Y-47442380D01*
X124356666Y-47442380D01*
X124356666Y-46442380D01*
X124690000Y-46442380D01*
X124785238Y-46490000D01*
X124832857Y-46537619D01*
X124880476Y-46632857D01*
X124880476Y-46728095D01*
X124832857Y-46823333D01*
X124785238Y-46870952D01*
X124690000Y-46918571D01*
X124356666Y-46918571D01*
X121570952Y-42362380D02*
X121570952Y-41362380D01*
X121809047Y-41362380D01*
X121951904Y-41410000D01*
X122047142Y-41505238D01*
X122094761Y-41600476D01*
X122142380Y-41790952D01*
X122142380Y-41933809D01*
X122094761Y-42124285D01*
X122047142Y-42219523D01*
X121951904Y-42314761D01*
X121809047Y-42362380D01*
X121570952Y-42362380D01*
X122523333Y-42076666D02*
X122999523Y-42076666D01*
X122428095Y-42362380D02*
X122761428Y-41362380D01*
X123094761Y-42362380D01*
X123999523Y-42267142D02*
X123951904Y-42314761D01*
X123809047Y-42362380D01*
X123713809Y-42362380D01*
X123570952Y-42314761D01*
X123475714Y-42219523D01*
X123428095Y-42124285D01*
X123380476Y-41933809D01*
X123380476Y-41790952D01*
X123428095Y-41600476D01*
X123475714Y-41505238D01*
X123570952Y-41410000D01*
X123713809Y-41362380D01*
X123809047Y-41362380D01*
X123951904Y-41410000D01*
X123999523Y-41457619D01*
X124380476Y-42076666D02*
X124856666Y-42076666D01*
X124285238Y-42362380D02*
X124618571Y-41362380D01*
X124951904Y-42362380D01*
D11*
G04 #@! TO.C,C1*
X119040000Y-48890000D02*
X119040000Y-50390000D01*
X119790000Y-49640000D02*
X118290000Y-49640000D01*
X119210000Y-50640000D02*
X114470000Y-50640000D01*
X119210000Y-60880000D02*
X114470000Y-60880000D01*
X119210000Y-50640000D02*
X119210000Y-52140000D01*
X119210000Y-52140000D02*
X118460000Y-52890000D01*
X118460000Y-52890000D02*
X119210000Y-53640000D01*
X119210000Y-53640000D02*
X119210000Y-60880000D01*
X114470000Y-50640000D02*
X114470000Y-52140000D01*
X114470000Y-52140000D02*
X115220000Y-52890000D01*
X115220000Y-52890000D02*
X114470000Y-53640000D01*
X114470000Y-53640000D02*
X114470000Y-60880000D01*
X116840000Y-49500000D02*
X116840000Y-50640000D01*
X116840000Y-62020000D02*
X116840000Y-60880000D01*
G04 #@! TO.C,C2*
X107950000Y-62020000D02*
X107950000Y-60880000D01*
X107950000Y-49500000D02*
X107950000Y-50640000D01*
X105580000Y-53640000D02*
X105580000Y-60880000D01*
X106330000Y-52890000D02*
X105580000Y-53640000D01*
X105580000Y-52140000D02*
X106330000Y-52890000D01*
X105580000Y-50640000D02*
X105580000Y-52140000D01*
X110320000Y-53640000D02*
X110320000Y-60880000D01*
X109570000Y-52890000D02*
X110320000Y-53640000D01*
X110320000Y-52140000D02*
X109570000Y-52890000D01*
X110320000Y-50640000D02*
X110320000Y-52140000D01*
X110320000Y-60880000D02*
X105580000Y-60880000D01*
X110320000Y-50640000D02*
X105580000Y-50640000D01*
X110900000Y-49640000D02*
X109400000Y-49640000D01*
X110150000Y-48890000D02*
X110150000Y-50390000D01*
G04 #@! TO.C,J2*
X130596648Y-42698712D02*
G75*
G02X130400000Y-41910000I1483352J788712D01*
G01*
X132869088Y-43393953D02*
G75*
G02X131291000Y-43394000I-789088J1483953D01*
G01*
X133563953Y-41120912D02*
G75*
G02X133564000Y-42699000I-1483953J-789088D01*
G01*
X131290912Y-40426047D02*
G75*
G02X132869000Y-40426000I789088J-1483953D01*
G01*
X130399550Y-41939383D02*
G75*
G02X130596000Y-41121000I1680450J29383D01*
G01*
X135980000Y-41910000D02*
G75*
G03X135980000Y-41910000I-900000J0D01*
G01*
X133760000Y-46910000D02*
G75*
G03X133760000Y-46910000I-1680000J0D01*
G01*
X135980000Y-46910000D02*
G75*
G03X135980000Y-46910000I-900000J0D01*
G01*
X133760000Y-51910000D02*
G75*
G03X133760000Y-51910000I-1680000J0D01*
G01*
X135980000Y-51910000D02*
G75*
G03X135980000Y-51910000I-900000J0D01*
G01*
X133760000Y-56910000D02*
G75*
G03X133760000Y-56910000I-1680000J0D01*
G01*
X135980000Y-56910000D02*
G75*
G03X135980000Y-56910000I-900000J0D01*
G01*
X129580000Y-39350000D02*
X129580000Y-59471000D01*
X137140000Y-39350000D02*
X137140000Y-59471000D01*
X128020000Y-39350000D02*
X128020000Y-59471000D01*
X137140000Y-39350000D02*
X128020000Y-39350000D01*
X137140000Y-59471000D02*
X128020000Y-59471000D01*
X133149000Y-48185000D02*
X133056000Y-48091000D01*
X130864000Y-45900000D02*
X130806000Y-45841000D01*
X133355000Y-47980000D02*
X133296000Y-47921000D01*
X131104000Y-45730000D02*
X131011000Y-45636000D01*
X133149000Y-53185000D02*
X133056000Y-53091000D01*
X130864000Y-50900000D02*
X130806000Y-50841000D01*
X133355000Y-52980000D02*
X133296000Y-52921000D01*
X131104000Y-50730000D02*
X131011000Y-50636000D01*
X133149000Y-58185000D02*
X133056000Y-58091000D01*
X130864000Y-55900000D02*
X130806000Y-55841000D01*
X133355000Y-57980000D02*
X133296000Y-57921000D01*
X131104000Y-55730000D02*
X131011000Y-55636000D01*
X129520000Y-39110000D02*
X127780000Y-39110000D01*
X127780000Y-39110000D02*
X127780000Y-40610000D01*
G04 #@! TO.C,J5*
X97010000Y-59950000D02*
X97010000Y-58450000D01*
X95270000Y-59950000D02*
X97010000Y-59950000D01*
X93686000Y-43330000D02*
X93779000Y-43424000D01*
X91435000Y-41080000D02*
X91494000Y-41139000D01*
X93926000Y-43160000D02*
X93984000Y-43219000D01*
X91641000Y-40875000D02*
X91734000Y-40969000D01*
X93686000Y-48330000D02*
X93779000Y-48424000D01*
X91435000Y-46080000D02*
X91494000Y-46139000D01*
X93926000Y-48160000D02*
X93984000Y-48219000D01*
X91641000Y-45875000D02*
X91734000Y-45969000D01*
X93686000Y-53330000D02*
X93779000Y-53424000D01*
X91435000Y-51080000D02*
X91494000Y-51139000D01*
X93926000Y-53160000D02*
X93984000Y-53219000D01*
X91641000Y-50875000D02*
X91734000Y-50969000D01*
X87650000Y-39589000D02*
X96770000Y-39589000D01*
X87650000Y-59710000D02*
X96770000Y-59710000D01*
X96770000Y-59710000D02*
X96770000Y-39589000D01*
X87650000Y-59710000D02*
X87650000Y-39589000D01*
X95210000Y-59710000D02*
X95210000Y-39589000D01*
X90610000Y-42150000D02*
G75*
G03X90610000Y-42150000I-900000J0D01*
G01*
X94390000Y-42150000D02*
G75*
G03X94390000Y-42150000I-1680000J0D01*
G01*
X90610000Y-47150000D02*
G75*
G03X90610000Y-47150000I-900000J0D01*
G01*
X94390000Y-47150000D02*
G75*
G03X94390000Y-47150000I-1680000J0D01*
G01*
X90610000Y-52150000D02*
G75*
G03X90610000Y-52150000I-900000J0D01*
G01*
X94390000Y-52150000D02*
G75*
G03X94390000Y-52150000I-1680000J0D01*
G01*
X90610000Y-57150000D02*
G75*
G03X90610000Y-57150000I-900000J0D01*
G01*
X94390450Y-57120617D02*
G75*
G02X94194000Y-57939000I-1680450J-29383D01*
G01*
X93499088Y-58633953D02*
G75*
G02X91921000Y-58634000I-789088J1483953D01*
G01*
X91226047Y-57939088D02*
G75*
G02X91226000Y-56361000I1483953J789088D01*
G01*
X91920912Y-55666047D02*
G75*
G02X93499000Y-55666000I789088J-1483953D01*
G01*
X94193352Y-56361288D02*
G75*
G02X94390000Y-57150000I-1483352J-788712D01*
G01*
G04 #@! TO.C,J6*
X120710000Y-157480000D02*
X118050000Y-157480000D01*
X120710000Y-157480000D02*
X120710000Y-144720000D01*
X120710000Y-144720000D02*
X118050000Y-144720000D01*
X118050000Y-157480000D02*
X118050000Y-144720000D01*
X118050000Y-160080000D02*
X118050000Y-158750000D01*
X119380000Y-160080000D02*
X118050000Y-160080000D01*
G04 #@! TO.C,J7*
X106680000Y-144720000D02*
X108010000Y-144720000D01*
X108010000Y-144720000D02*
X108010000Y-146050000D01*
X108010000Y-147320000D02*
X108010000Y-160080000D01*
X105350000Y-160080000D02*
X108010000Y-160080000D01*
X105350000Y-147320000D02*
X105350000Y-160080000D01*
X105350000Y-147320000D02*
X108010000Y-147320000D01*
G04 #@! TO.C,U1*
X106640000Y-38640000D02*
X116880000Y-38640000D01*
X106640000Y-43281000D02*
X116880000Y-43281000D01*
X106640000Y-38640000D02*
X106640000Y-43281000D01*
X116880000Y-38640000D02*
X116880000Y-43281000D01*
X106640000Y-40150000D02*
X116880000Y-40150000D01*
X109910000Y-38640000D02*
X109910000Y-40150000D01*
X113611000Y-38640000D02*
X113611000Y-40150000D01*
G04 #@! TO.C,J1*
X137480000Y-146990000D02*
X125140000Y-146990000D01*
X125140000Y-146990000D02*
X125140000Y-77470000D01*
X125140000Y-77470000D02*
X137480000Y-77470000D01*
X124245662Y-137410000D02*
X124245662Y-136910000D01*
X124245662Y-136910000D02*
X124678675Y-137160000D01*
X124678675Y-137160000D02*
X124245662Y-137410000D01*
G04 #@! TO.C,J3*
X100111325Y-99060000D02*
X100544338Y-98810000D01*
X100544338Y-99310000D02*
X100111325Y-99060000D01*
X100544338Y-98810000D02*
X100544338Y-99310000D01*
X99650000Y-109025000D02*
X87310000Y-109025000D01*
X99650000Y-69705000D02*
X99650000Y-109025000D01*
X87310000Y-69705000D02*
X99650000Y-69705000D01*
G04 #@! TO.C,J4*
X87310000Y-115425000D02*
X99650000Y-115425000D01*
X99650000Y-115425000D02*
X99650000Y-154745000D01*
X99650000Y-154745000D02*
X87310000Y-154745000D01*
X100544338Y-144530000D02*
X100544338Y-145030000D01*
X100544338Y-145030000D02*
X100111325Y-144780000D01*
X100111325Y-144780000D02*
X100544338Y-144530000D01*
G04 #@! TO.C,C1*
D10*
X120567142Y-55926666D02*
X120614761Y-55974285D01*
X120662380Y-56117142D01*
X120662380Y-56212380D01*
X120614761Y-56355238D01*
X120519523Y-56450476D01*
X120424285Y-56498095D01*
X120233809Y-56545714D01*
X120090952Y-56545714D01*
X119900476Y-56498095D01*
X119805238Y-56450476D01*
X119710000Y-56355238D01*
X119662380Y-56212380D01*
X119662380Y-56117142D01*
X119710000Y-55974285D01*
X119757619Y-55926666D01*
X120662380Y-54974285D02*
X120662380Y-55545714D01*
X120662380Y-55260000D02*
X119662380Y-55260000D01*
X119805238Y-55355238D01*
X119900476Y-55450476D01*
X119948095Y-55545714D01*
G04 #@! TO.C,C2*
X111677142Y-55926666D02*
X111724761Y-55974285D01*
X111772380Y-56117142D01*
X111772380Y-56212380D01*
X111724761Y-56355238D01*
X111629523Y-56450476D01*
X111534285Y-56498095D01*
X111343809Y-56545714D01*
X111200952Y-56545714D01*
X111010476Y-56498095D01*
X110915238Y-56450476D01*
X110820000Y-56355238D01*
X110772380Y-56212380D01*
X110772380Y-56117142D01*
X110820000Y-55974285D01*
X110867619Y-55926666D01*
X110867619Y-55545714D02*
X110820000Y-55498095D01*
X110772380Y-55402857D01*
X110772380Y-55164761D01*
X110820000Y-55069523D01*
X110867619Y-55021904D01*
X110962857Y-54974285D01*
X111058095Y-54974285D01*
X111200952Y-55021904D01*
X111772380Y-55593333D01*
X111772380Y-54974285D01*
G04 #@! TO.C,J2*
X137592380Y-49743333D02*
X138306666Y-49743333D01*
X138449523Y-49790952D01*
X138544761Y-49886190D01*
X138592380Y-50029047D01*
X138592380Y-50124285D01*
X137687619Y-49314761D02*
X137640000Y-49267142D01*
X137592380Y-49171904D01*
X137592380Y-48933809D01*
X137640000Y-48838571D01*
X137687619Y-48790952D01*
X137782857Y-48743333D01*
X137878095Y-48743333D01*
X138020952Y-48790952D01*
X138592380Y-49362380D01*
X138592380Y-48743333D01*
G04 #@! TO.C,J5*
X86102380Y-49983333D02*
X86816666Y-49983333D01*
X86959523Y-50030952D01*
X87054761Y-50126190D01*
X87102380Y-50269047D01*
X87102380Y-50364285D01*
X86102380Y-49030952D02*
X86102380Y-49507142D01*
X86578571Y-49554761D01*
X86530952Y-49507142D01*
X86483333Y-49411904D01*
X86483333Y-49173809D01*
X86530952Y-49078571D01*
X86578571Y-49030952D01*
X86673809Y-48983333D01*
X86911904Y-48983333D01*
X87007142Y-49030952D01*
X87054761Y-49078571D01*
X87102380Y-49173809D01*
X87102380Y-49411904D01*
X87054761Y-49507142D01*
X87007142Y-49554761D01*
G04 #@! TO.C,J6*
X119046666Y-142962380D02*
X119046666Y-143676666D01*
X118999047Y-143819523D01*
X118903809Y-143914761D01*
X118760952Y-143962380D01*
X118665714Y-143962380D01*
X119951428Y-142962380D02*
X119760952Y-142962380D01*
X119665714Y-143010000D01*
X119618095Y-143057619D01*
X119522857Y-143200476D01*
X119475238Y-143390952D01*
X119475238Y-143771904D01*
X119522857Y-143867142D01*
X119570476Y-143914761D01*
X119665714Y-143962380D01*
X119856190Y-143962380D01*
X119951428Y-143914761D01*
X119999047Y-143867142D01*
X120046666Y-143771904D01*
X120046666Y-143533809D01*
X119999047Y-143438571D01*
X119951428Y-143390952D01*
X119856190Y-143343333D01*
X119665714Y-143343333D01*
X119570476Y-143390952D01*
X119522857Y-143438571D01*
X119475238Y-143533809D01*
G04 #@! TO.C,J7*
X106346666Y-160742380D02*
X106346666Y-161456666D01*
X106299047Y-161599523D01*
X106203809Y-161694761D01*
X106060952Y-161742380D01*
X105965714Y-161742380D01*
X106727619Y-160742380D02*
X107394285Y-160742380D01*
X106965714Y-161742380D01*
G04 #@! TO.C,U1*
X110998095Y-37092380D02*
X110998095Y-37901904D01*
X111045714Y-37997142D01*
X111093333Y-38044761D01*
X111188571Y-38092380D01*
X111379047Y-38092380D01*
X111474285Y-38044761D01*
X111521904Y-37997142D01*
X111569523Y-37901904D01*
X111569523Y-37092380D01*
X112569523Y-38092380D02*
X111998095Y-38092380D01*
X112283809Y-38092380D02*
X112283809Y-37092380D01*
X112188571Y-37235238D01*
X112093333Y-37330476D01*
X111998095Y-37378095D01*
G04 #@! TO.C,J1*
X123652380Y-112563333D02*
X124366666Y-112563333D01*
X124509523Y-112610952D01*
X124604761Y-112706190D01*
X124652380Y-112849047D01*
X124652380Y-112944285D01*
X124652380Y-111563333D02*
X124652380Y-112134761D01*
X124652380Y-111849047D02*
X123652380Y-111849047D01*
X123795238Y-111944285D01*
X123890476Y-112039523D01*
X123938095Y-112134761D01*
G04 #@! TO.C,J3*
X100042380Y-89698333D02*
X100756666Y-89698333D01*
X100899523Y-89745952D01*
X100994761Y-89841190D01*
X101042380Y-89984047D01*
X101042380Y-90079285D01*
X100042380Y-89317380D02*
X100042380Y-88698333D01*
X100423333Y-89031666D01*
X100423333Y-88888809D01*
X100470952Y-88793571D01*
X100518571Y-88745952D01*
X100613809Y-88698333D01*
X100851904Y-88698333D01*
X100947142Y-88745952D01*
X100994761Y-88793571D01*
X101042380Y-88888809D01*
X101042380Y-89174523D01*
X100994761Y-89269761D01*
X100947142Y-89317380D01*
G04 #@! TO.C,J4*
X100042380Y-135418333D02*
X100756666Y-135418333D01*
X100899523Y-135465952D01*
X100994761Y-135561190D01*
X101042380Y-135704047D01*
X101042380Y-135799285D01*
X100375714Y-134513571D02*
X101042380Y-134513571D01*
X99994761Y-134751666D02*
X100709047Y-134989761D01*
X100709047Y-134370714D01*
G04 #@! TD*
M02*
