M48
;DRILL file {KiCad (6.0.0-rc1-dev-392-gd9d005190)} date 08/31/18 18:54:59
;FORMAT={3:3/ absolute / metric / suppress leading zeros}
FMAT,2
METRIC,TZ
T1C1.000
T2C1.100
T3C1.300
T4C3.200
%
G90
G05
M71
T1
X142240Y-79680
X142240Y-82450
X142240Y-85220
X142240Y-87990
X142240Y-90760
X142240Y-93530
X142240Y-96300
X142240Y-99070
X142240Y-101840
X142240Y-104610
X142240Y-107380
X142240Y-110150
X142240Y-112920
X142240Y-115690
X142240Y-118460
X142240Y-121230
X142240Y-124000
X142240Y-126770
X142240Y-129540
X145080Y-81065
X145080Y-83835
X145080Y-86605
X145080Y-89375
X145080Y-92145
X145080Y-94915
X145080Y-97685
X145080Y-100455
X145080Y-103225
X145080Y-105995
X145080Y-108765
X145080Y-111535
X145080Y-114305
X145080Y-117075
X145080Y-119845
X145080Y-122615
X145080Y-125385
X145080Y-128155
X87330Y-122965
X87330Y-125735
X87330Y-128505
X87330Y-131275
X87330Y-134045
X87330Y-136815
X87330Y-139585
X90170Y-121580
X90170Y-124350
X90170Y-127120
X90170Y-129890
X90170Y-132660
X90170Y-135430
X90170Y-138200
X90170Y-140970
X116840Y-48260
X116840Y-63260
X107950Y-48260
X107950Y-63260
X87330Y-73435
X87330Y-76205
X87330Y-78975
X87330Y-81745
X87330Y-84515
X87330Y-87285
X87330Y-90055
X90170Y-72050
X90170Y-74820
X90170Y-77590
X90170Y-80360
X90170Y-83130
X90170Y-85900
X90170Y-88670
X90170Y-91440
X111760Y-146050
X111760Y-148590
X111760Y-151130
X111760Y-153670
X111760Y-156210
X111760Y-158750
X124460Y-146050
X124460Y-148590
X124460Y-151130
X124460Y-153670
X124460Y-156210
X124460Y-158750
T2
X109220Y-41910
X111760Y-41910
X114300Y-41910
T3
X87630Y-39610
X87630Y-44610
X87630Y-49610
X87630Y-54610
X142240Y-39370
X142240Y-44370
X142240Y-49370
X142240Y-54370
T4
X142540Y-72860
X142540Y-136360
X89870Y-114625
X89870Y-147925
X89870Y-65095
X89870Y-98395
T0
M30
