G04 #@! TF.GenerationSoftware,KiCad,Pcbnew,(5.1.4)-1*
G04 #@! TF.CreationDate,2019-10-21T16:45:54-04:00*
G04 #@! TF.ProjectId,psu_board,7073755f-626f-4617-9264-2e6b69636164,rev?*
G04 #@! TF.SameCoordinates,Original*
G04 #@! TF.FileFunction,Legend,Top*
G04 #@! TF.FilePolarity,Positive*
%FSLAX46Y46*%
G04 Gerber Fmt 4.6, Leading zero omitted, Abs format (unit mm)*
G04 Created by KiCad (PCBNEW (5.1.4)-1) date 2019-10-21 16:45:54*
%MOMM*%
%LPD*%
G04 APERTURE LIST*
%ADD10C,0.150000*%
%ADD11C,0.120000*%
G04 APERTURE END LIST*
D10*
X157371023Y-77764142D02*
X157323404Y-77811761D01*
X157180547Y-77859380D01*
X157085309Y-77859380D01*
X156942452Y-77811761D01*
X156847214Y-77716523D01*
X156799595Y-77621285D01*
X156751976Y-77430809D01*
X156751976Y-77287952D01*
X156799595Y-77097476D01*
X156847214Y-77002238D01*
X156942452Y-76907000D01*
X157085309Y-76859380D01*
X157180547Y-76859380D01*
X157323404Y-76907000D01*
X157371023Y-76954619D01*
X158180547Y-77811761D02*
X158085309Y-77859380D01*
X157894833Y-77859380D01*
X157799595Y-77811761D01*
X157751976Y-77716523D01*
X157751976Y-77335571D01*
X157799595Y-77240333D01*
X157894833Y-77192714D01*
X158085309Y-77192714D01*
X158180547Y-77240333D01*
X158228166Y-77335571D01*
X158228166Y-77430809D01*
X157751976Y-77526047D01*
X158656738Y-77859380D02*
X158656738Y-76859380D01*
X159228166Y-77859380D01*
X159228166Y-76859380D01*
X159561500Y-76859380D02*
X160132928Y-76859380D01*
X159847214Y-77859380D02*
X159847214Y-76859380D01*
X161037690Y-77859380D02*
X160704357Y-77383190D01*
X160466261Y-77859380D02*
X160466261Y-76859380D01*
X160847214Y-76859380D01*
X160942452Y-76907000D01*
X160990071Y-76954619D01*
X161037690Y-77049857D01*
X161037690Y-77192714D01*
X160990071Y-77287952D01*
X160942452Y-77335571D01*
X160847214Y-77383190D01*
X160466261Y-77383190D01*
X161466261Y-77335571D02*
X161799595Y-77335571D01*
X161942452Y-77859380D02*
X161466261Y-77859380D01*
X161466261Y-76859380D01*
X161942452Y-76859380D01*
X162275785Y-76859380D02*
X162942452Y-77859380D01*
X162942452Y-76859380D02*
X162275785Y-77859380D01*
X164561500Y-77859380D02*
X164085309Y-77859380D01*
X164085309Y-76859380D01*
X164847214Y-77573666D02*
X165323404Y-77573666D01*
X164751976Y-77859380D02*
X165085309Y-76859380D01*
X165418642Y-77859380D01*
X165704357Y-77811761D02*
X165847214Y-77859380D01*
X166085309Y-77859380D01*
X166180547Y-77811761D01*
X166228166Y-77764142D01*
X166275785Y-77668904D01*
X166275785Y-77573666D01*
X166228166Y-77478428D01*
X166180547Y-77430809D01*
X166085309Y-77383190D01*
X165894833Y-77335571D01*
X165799595Y-77287952D01*
X165751976Y-77240333D01*
X165704357Y-77145095D01*
X165704357Y-77049857D01*
X165751976Y-76954619D01*
X165799595Y-76907000D01*
X165894833Y-76859380D01*
X166132928Y-76859380D01*
X166275785Y-76907000D01*
X166704357Y-77335571D02*
X167037690Y-77335571D01*
X167180547Y-77859380D02*
X166704357Y-77859380D01*
X166704357Y-76859380D01*
X167180547Y-76859380D01*
X168180547Y-77859380D02*
X167847214Y-77383190D01*
X167609119Y-77859380D02*
X167609119Y-76859380D01*
X167990071Y-76859380D01*
X168085309Y-76907000D01*
X168132928Y-76954619D01*
X168180547Y-77049857D01*
X168180547Y-77192714D01*
X168132928Y-77287952D01*
X168085309Y-77335571D01*
X167990071Y-77383190D01*
X167609119Y-77383190D01*
X169847214Y-77859380D02*
X169371023Y-77859380D01*
X169371023Y-76859380D01*
X170371023Y-76859380D02*
X170561500Y-76859380D01*
X170656738Y-76907000D01*
X170751976Y-77002238D01*
X170799595Y-77192714D01*
X170799595Y-77526047D01*
X170751976Y-77716523D01*
X170656738Y-77811761D01*
X170561500Y-77859380D01*
X170371023Y-77859380D01*
X170275785Y-77811761D01*
X170180547Y-77716523D01*
X170132928Y-77526047D01*
X170132928Y-77192714D01*
X170180547Y-77002238D01*
X170275785Y-76907000D01*
X170371023Y-76859380D01*
X171799595Y-77764142D02*
X171751976Y-77811761D01*
X171609119Y-77859380D01*
X171513880Y-77859380D01*
X171371023Y-77811761D01*
X171275785Y-77716523D01*
X171228166Y-77621285D01*
X171180547Y-77430809D01*
X171180547Y-77287952D01*
X171228166Y-77097476D01*
X171275785Y-77002238D01*
X171371023Y-76907000D01*
X171513880Y-76859380D01*
X171609119Y-76859380D01*
X171751976Y-76907000D01*
X171799595Y-76954619D01*
X172228166Y-77859380D02*
X172228166Y-76859380D01*
X172799595Y-77859380D02*
X172371023Y-77287952D01*
X172799595Y-76859380D02*
X172228166Y-77430809D01*
X173228166Y-77859380D02*
X173228166Y-76859380D01*
X173704357Y-77859380D02*
X173704357Y-76859380D01*
X174275785Y-77859380D01*
X174275785Y-76859380D01*
X175275785Y-76907000D02*
X175180547Y-76859380D01*
X175037690Y-76859380D01*
X174894833Y-76907000D01*
X174799595Y-77002238D01*
X174751976Y-77097476D01*
X174704357Y-77287952D01*
X174704357Y-77430809D01*
X174751976Y-77621285D01*
X174799595Y-77716523D01*
X174894833Y-77811761D01*
X175037690Y-77859380D01*
X175132928Y-77859380D01*
X175275785Y-77811761D01*
X175323404Y-77764142D01*
X175323404Y-77430809D01*
X175132928Y-77430809D01*
X156799595Y-79509380D02*
X156799595Y-78509380D01*
X157180547Y-78509380D01*
X157275785Y-78557000D01*
X157323404Y-78604619D01*
X157371023Y-78699857D01*
X157371023Y-78842714D01*
X157323404Y-78937952D01*
X157275785Y-78985571D01*
X157180547Y-79033190D01*
X156799595Y-79033190D01*
X157751976Y-79461761D02*
X157894833Y-79509380D01*
X158132928Y-79509380D01*
X158228166Y-79461761D01*
X158275785Y-79414142D01*
X158323404Y-79318904D01*
X158323404Y-79223666D01*
X158275785Y-79128428D01*
X158228166Y-79080809D01*
X158132928Y-79033190D01*
X157942452Y-78985571D01*
X157847214Y-78937952D01*
X157799595Y-78890333D01*
X157751976Y-78795095D01*
X157751976Y-78699857D01*
X157799595Y-78604619D01*
X157847214Y-78557000D01*
X157942452Y-78509380D01*
X158180547Y-78509380D01*
X158323404Y-78557000D01*
X158751976Y-78509380D02*
X158751976Y-79318904D01*
X158799595Y-79414142D01*
X158847214Y-79461761D01*
X158942452Y-79509380D01*
X159132928Y-79509380D01*
X159228166Y-79461761D01*
X159275785Y-79414142D01*
X159323404Y-79318904D01*
X159323404Y-78509380D01*
X160894833Y-78985571D02*
X161037690Y-79033190D01*
X161085309Y-79080809D01*
X161132928Y-79176047D01*
X161132928Y-79318904D01*
X161085309Y-79414142D01*
X161037690Y-79461761D01*
X160942452Y-79509380D01*
X160561500Y-79509380D01*
X160561500Y-78509380D01*
X160894833Y-78509380D01*
X160990071Y-78557000D01*
X161037690Y-78604619D01*
X161085309Y-78699857D01*
X161085309Y-78795095D01*
X161037690Y-78890333D01*
X160990071Y-78937952D01*
X160894833Y-78985571D01*
X160561500Y-78985571D01*
X161751976Y-78509380D02*
X161942452Y-78509380D01*
X162037690Y-78557000D01*
X162132928Y-78652238D01*
X162180547Y-78842714D01*
X162180547Y-79176047D01*
X162132928Y-79366523D01*
X162037690Y-79461761D01*
X161942452Y-79509380D01*
X161751976Y-79509380D01*
X161656738Y-79461761D01*
X161561500Y-79366523D01*
X161513880Y-79176047D01*
X161513880Y-78842714D01*
X161561500Y-78652238D01*
X161656738Y-78557000D01*
X161751976Y-78509380D01*
X162561500Y-79223666D02*
X163037690Y-79223666D01*
X162466261Y-79509380D02*
X162799595Y-78509380D01*
X163132928Y-79509380D01*
X164037690Y-79509380D02*
X163704357Y-79033190D01*
X163466261Y-79509380D02*
X163466261Y-78509380D01*
X163847214Y-78509380D01*
X163942452Y-78557000D01*
X163990071Y-78604619D01*
X164037690Y-78699857D01*
X164037690Y-78842714D01*
X163990071Y-78937952D01*
X163942452Y-78985571D01*
X163847214Y-79033190D01*
X163466261Y-79033190D01*
X164466261Y-79509380D02*
X164466261Y-78509380D01*
X164704357Y-78509380D01*
X164847214Y-78557000D01*
X164942452Y-78652238D01*
X164990071Y-78747476D01*
X165037690Y-78937952D01*
X165037690Y-79080809D01*
X164990071Y-79271285D01*
X164942452Y-79366523D01*
X164847214Y-79461761D01*
X164704357Y-79509380D01*
X164466261Y-79509380D01*
X166799595Y-79509380D02*
X166466261Y-79033190D01*
X166228166Y-79509380D02*
X166228166Y-78509380D01*
X166609119Y-78509380D01*
X166704357Y-78557000D01*
X166751976Y-78604619D01*
X166799595Y-78699857D01*
X166799595Y-78842714D01*
X166751976Y-78937952D01*
X166704357Y-78985571D01*
X166609119Y-79033190D01*
X166228166Y-79033190D01*
X167228166Y-78985571D02*
X167561500Y-78985571D01*
X167704357Y-79509380D02*
X167228166Y-79509380D01*
X167228166Y-78509380D01*
X167704357Y-78509380D01*
X167990071Y-78509380D02*
X168323404Y-79509380D01*
X168656738Y-78509380D01*
X170275785Y-79509380D02*
X169704357Y-79509380D01*
X169990071Y-79509380D02*
X169990071Y-78509380D01*
X169894833Y-78652238D01*
X169799595Y-78747476D01*
X169704357Y-78795095D01*
X170704357Y-79414142D02*
X170751976Y-79461761D01*
X170704357Y-79509380D01*
X170656738Y-79461761D01*
X170704357Y-79414142D01*
X170704357Y-79509380D01*
X171371023Y-78509380D02*
X171466261Y-78509380D01*
X171561500Y-78557000D01*
X171609119Y-78604619D01*
X171656738Y-78699857D01*
X171704357Y-78890333D01*
X171704357Y-79128428D01*
X171656738Y-79318904D01*
X171609119Y-79414142D01*
X171561500Y-79461761D01*
X171466261Y-79509380D01*
X171371023Y-79509380D01*
X171275785Y-79461761D01*
X171228166Y-79414142D01*
X171180547Y-79318904D01*
X171132928Y-79128428D01*
X171132928Y-78890333D01*
X171180547Y-78699857D01*
X171228166Y-78604619D01*
X171275785Y-78557000D01*
X171371023Y-78509380D01*
D11*
X165756000Y-147846000D02*
X164256000Y-147846000D01*
X165756000Y-149586000D02*
X165756000Y-147846000D01*
X159136000Y-151170000D02*
X159230000Y-151077000D01*
X156886000Y-153421000D02*
X156945000Y-153362000D01*
X158966000Y-150930000D02*
X159025000Y-150872000D01*
X156681000Y-153215000D02*
X156775000Y-153122000D01*
X155396000Y-157206000D02*
X155396000Y-148086000D01*
X165516000Y-157206000D02*
X165516000Y-148086000D01*
X165516000Y-148086000D02*
X155396000Y-148086000D01*
X165516000Y-157206000D02*
X155396000Y-157206000D01*
X165516000Y-149646000D02*
X155396000Y-149646000D01*
X158856000Y-155146000D02*
G75*
G03X158856000Y-155146000I-900000J0D01*
G01*
X159636000Y-152146000D02*
G75*
G03X159636000Y-152146000I-1680000J0D01*
G01*
X163856000Y-155146000D02*
G75*
G03X163856000Y-155146000I-900000J0D01*
G01*
X162926617Y-150465550D02*
G75*
G02X163745000Y-150662000I29383J-1680450D01*
G01*
X164439953Y-151356912D02*
G75*
G02X164440000Y-152935000I-1483953J-789088D01*
G01*
X163745088Y-153629953D02*
G75*
G02X162167000Y-153630000I-789088J1483953D01*
G01*
X161472047Y-152935088D02*
G75*
G02X161472000Y-151357000I1483953J789088D01*
G01*
X162167288Y-150662648D02*
G75*
G02X162956000Y-150466000I788712J-1483352D01*
G01*
X177806000Y-147846000D02*
X176306000Y-147846000D01*
X177806000Y-149586000D02*
X177806000Y-147846000D01*
X171186000Y-151170000D02*
X171280000Y-151077000D01*
X168936000Y-153421000D02*
X168995000Y-153362000D01*
X171016000Y-150930000D02*
X171075000Y-150872000D01*
X168731000Y-153215000D02*
X168825000Y-153122000D01*
X167446000Y-157206000D02*
X167446000Y-148086000D01*
X177566000Y-157206000D02*
X177566000Y-148086000D01*
X177566000Y-148086000D02*
X167446000Y-148086000D01*
X177566000Y-157206000D02*
X167446000Y-157206000D01*
X177566000Y-149646000D02*
X167446000Y-149646000D01*
X170906000Y-155146000D02*
G75*
G03X170906000Y-155146000I-900000J0D01*
G01*
X171686000Y-152146000D02*
G75*
G03X171686000Y-152146000I-1680000J0D01*
G01*
X175906000Y-155146000D02*
G75*
G03X175906000Y-155146000I-900000J0D01*
G01*
X174976617Y-150465550D02*
G75*
G02X175795000Y-150662000I29383J-1680450D01*
G01*
X176489953Y-151356912D02*
G75*
G02X176490000Y-152935000I-1483953J-789088D01*
G01*
X175795088Y-153629953D02*
G75*
G02X174217000Y-153630000I-789088J1483953D01*
G01*
X173522047Y-152935088D02*
G75*
G02X173522000Y-151357000I1483953J789088D01*
G01*
X174217288Y-150662648D02*
G75*
G02X175006000Y-150466000I788712J-1483352D01*
G01*
X179264000Y-149546000D02*
X180594000Y-149546000D01*
X179264000Y-150876000D02*
X179264000Y-149546000D01*
X179264000Y-152146000D02*
X181924000Y-152146000D01*
X181924000Y-152146000D02*
X181924000Y-157286000D01*
X179264000Y-152146000D02*
X179264000Y-157286000D01*
X179264000Y-157286000D02*
X181924000Y-157286000D01*
X187900000Y-149546000D02*
X189230000Y-149546000D01*
X187900000Y-150876000D02*
X187900000Y-149546000D01*
X187900000Y-152146000D02*
X190560000Y-152146000D01*
X190560000Y-152146000D02*
X190560000Y-157286000D01*
X187900000Y-152146000D02*
X187900000Y-157286000D01*
X187900000Y-157286000D02*
X190560000Y-157286000D01*
X228540000Y-142688000D02*
X229870000Y-142688000D01*
X228540000Y-144018000D02*
X228540000Y-142688000D01*
X228540000Y-145288000D02*
X231200000Y-145288000D01*
X231200000Y-145288000D02*
X231200000Y-145348000D01*
X228540000Y-145288000D02*
X228540000Y-145348000D01*
X228540000Y-145348000D02*
X231200000Y-145348000D01*
X168850000Y-136846000D02*
X170180000Y-136846000D01*
X168850000Y-138176000D02*
X168850000Y-136846000D01*
X168850000Y-139446000D02*
X171510000Y-139446000D01*
X171510000Y-139446000D02*
X171510000Y-139506000D01*
X168850000Y-139446000D02*
X168850000Y-139506000D01*
X168850000Y-139506000D02*
X171510000Y-139506000D01*
X177286000Y-72880000D02*
X178786000Y-72880000D01*
X177286000Y-71140000D02*
X177286000Y-72880000D01*
X183906000Y-69556000D02*
X183812000Y-69649000D01*
X186156000Y-67305000D02*
X186097000Y-67364000D01*
X184076000Y-69796000D02*
X184017000Y-69854000D01*
X186361000Y-67511000D02*
X186267000Y-67604000D01*
X187646000Y-63520000D02*
X187646000Y-72640000D01*
X177526000Y-63520000D02*
X177526000Y-72640000D01*
X177526000Y-72640000D02*
X187646000Y-72640000D01*
X177526000Y-63520000D02*
X187646000Y-63520000D01*
X177526000Y-71080000D02*
X187646000Y-71080000D01*
X185986000Y-65580000D02*
G75*
G03X185986000Y-65580000I-900000J0D01*
G01*
X186766000Y-68580000D02*
G75*
G03X186766000Y-68580000I-1680000J0D01*
G01*
X180986000Y-65580000D02*
G75*
G03X180986000Y-65580000I-900000J0D01*
G01*
X180115383Y-70260450D02*
G75*
G02X179297000Y-70064000I-29383J1680450D01*
G01*
X178602047Y-69369088D02*
G75*
G02X178602000Y-67791000I1483953J789088D01*
G01*
X179296912Y-67096047D02*
G75*
G02X180875000Y-67096000I789088J-1483953D01*
G01*
X181569953Y-67790912D02*
G75*
G02X181570000Y-69369000I-1483953J-789088D01*
G01*
X180874712Y-70063352D02*
G75*
G02X180086000Y-70260000I-788712J1483352D01*
G01*
X241240000Y-74108000D02*
X242570000Y-74108000D01*
X241240000Y-75438000D02*
X241240000Y-74108000D01*
X241240000Y-76708000D02*
X243900000Y-76708000D01*
X243900000Y-76708000D02*
X243900000Y-76768000D01*
X241240000Y-76708000D02*
X241240000Y-76768000D01*
X241240000Y-76768000D02*
X243900000Y-76768000D01*
X223460000Y-74108000D02*
X224790000Y-74108000D01*
X223460000Y-75438000D02*
X223460000Y-74108000D01*
X223460000Y-76708000D02*
X226120000Y-76708000D01*
X226120000Y-76708000D02*
X226120000Y-76768000D01*
X223460000Y-76708000D02*
X223460000Y-76768000D01*
X223460000Y-76768000D02*
X226120000Y-76768000D01*
X181550000Y-91126000D02*
X182880000Y-91126000D01*
X181550000Y-92456000D02*
X181550000Y-91126000D01*
X181550000Y-93726000D02*
X184210000Y-93726000D01*
X184210000Y-93726000D02*
X184210000Y-93786000D01*
X181550000Y-93726000D02*
X181550000Y-93786000D01*
X181550000Y-93786000D02*
X184210000Y-93786000D01*
X163770000Y-91126000D02*
X165100000Y-91126000D01*
X163770000Y-92456000D02*
X163770000Y-91126000D01*
X163770000Y-93726000D02*
X166430000Y-93726000D01*
X166430000Y-93726000D02*
X166430000Y-93786000D01*
X163770000Y-93726000D02*
X163770000Y-93786000D01*
X163770000Y-93786000D02*
X166430000Y-93786000D01*
X215840000Y-142688000D02*
X217170000Y-142688000D01*
X215840000Y-144018000D02*
X215840000Y-142688000D01*
X215840000Y-145288000D02*
X218500000Y-145288000D01*
X218500000Y-145288000D02*
X218500000Y-145348000D01*
X215840000Y-145288000D02*
X215840000Y-145348000D01*
X215840000Y-145348000D02*
X218500000Y-145348000D01*
X241240000Y-142942000D02*
X242570000Y-142942000D01*
X241240000Y-144272000D02*
X241240000Y-142942000D01*
X241240000Y-145542000D02*
X243900000Y-145542000D01*
X243900000Y-145542000D02*
X243900000Y-145602000D01*
X241240000Y-145542000D02*
X241240000Y-145602000D01*
X241240000Y-145602000D02*
X243900000Y-145602000D01*
X156150000Y-136846000D02*
X157480000Y-136846000D01*
X156150000Y-138176000D02*
X156150000Y-136846000D01*
X156150000Y-139446000D02*
X158810000Y-139446000D01*
X158810000Y-139446000D02*
X158810000Y-139506000D01*
X156150000Y-139446000D02*
X156150000Y-139506000D01*
X156150000Y-139506000D02*
X158810000Y-139506000D01*
X181550000Y-136846000D02*
X182880000Y-136846000D01*
X181550000Y-138176000D02*
X181550000Y-136846000D01*
X181550000Y-139446000D02*
X184210000Y-139446000D01*
X184210000Y-139446000D02*
X184210000Y-139506000D01*
X181550000Y-139446000D02*
X181550000Y-139506000D01*
X181550000Y-139506000D02*
X184210000Y-139506000D01*
X186242000Y-157286000D02*
X184912000Y-157286000D01*
X186242000Y-155956000D02*
X186242000Y-157286000D01*
X186242000Y-154686000D02*
X183582000Y-154686000D01*
X183582000Y-154686000D02*
X183582000Y-149546000D01*
X186242000Y-154686000D02*
X186242000Y-149546000D01*
X186242000Y-149546000D02*
X183582000Y-149546000D01*
D10*
X158242095Y-64070380D02*
X158242095Y-63070380D01*
X158242095Y-63546571D02*
X158813523Y-63546571D01*
X158813523Y-64070380D02*
X158813523Y-63070380D01*
X159765904Y-63070380D02*
X159289714Y-63070380D01*
X159242095Y-63546571D01*
X159289714Y-63498952D01*
X159384952Y-63451333D01*
X159623047Y-63451333D01*
X159718285Y-63498952D01*
X159765904Y-63546571D01*
X159813523Y-63641809D01*
X159813523Y-63879904D01*
X159765904Y-63975142D01*
X159718285Y-64022761D01*
X159623047Y-64070380D01*
X159384952Y-64070380D01*
X159289714Y-64022761D01*
X159242095Y-63975142D01*
X245872095Y-150430380D02*
X245872095Y-149430380D01*
X245872095Y-149906571D02*
X246443523Y-149906571D01*
X246443523Y-150430380D02*
X246443523Y-149430380D01*
X247348285Y-149763714D02*
X247348285Y-150430380D01*
X247110190Y-149382761D02*
X246872095Y-150097047D01*
X247491142Y-150097047D01*
X157289904Y-146264380D02*
X156813714Y-146264380D01*
X156766095Y-146740571D01*
X156813714Y-146692952D01*
X156908952Y-146645333D01*
X157147047Y-146645333D01*
X157242285Y-146692952D01*
X157289904Y-146740571D01*
X157337523Y-146835809D01*
X157337523Y-147073904D01*
X157289904Y-147169142D01*
X157242285Y-147216761D01*
X157147047Y-147264380D01*
X156908952Y-147264380D01*
X156813714Y-147216761D01*
X156766095Y-147169142D01*
X157623238Y-146264380D02*
X157956571Y-147264380D01*
X158289904Y-146264380D01*
X162194666Y-146312000D02*
X162099428Y-146264380D01*
X161956571Y-146264380D01*
X161813714Y-146312000D01*
X161718476Y-146407238D01*
X161670857Y-146502476D01*
X161623238Y-146692952D01*
X161623238Y-146835809D01*
X161670857Y-147026285D01*
X161718476Y-147121523D01*
X161813714Y-147216761D01*
X161956571Y-147264380D01*
X162051809Y-147264380D01*
X162194666Y-147216761D01*
X162242285Y-147169142D01*
X162242285Y-146835809D01*
X162051809Y-146835809D01*
X162670857Y-147264380D02*
X162670857Y-146264380D01*
X163242285Y-147264380D01*
X163242285Y-146264380D01*
X163718476Y-147264380D02*
X163718476Y-146264380D01*
X163956571Y-146264380D01*
X164099428Y-146312000D01*
X164194666Y-146407238D01*
X164242285Y-146502476D01*
X164289904Y-146692952D01*
X164289904Y-146835809D01*
X164242285Y-147026285D01*
X164194666Y-147121523D01*
X164099428Y-147216761D01*
X163956571Y-147264380D01*
X163718476Y-147264380D01*
X169180285Y-147264380D02*
X168608857Y-147264380D01*
X168894571Y-147264380D02*
X168894571Y-146264380D01*
X168799333Y-146407238D01*
X168704095Y-146502476D01*
X168608857Y-146550095D01*
X169561238Y-146359619D02*
X169608857Y-146312000D01*
X169704095Y-146264380D01*
X169942190Y-146264380D01*
X170037428Y-146312000D01*
X170085047Y-146359619D01*
X170132666Y-146454857D01*
X170132666Y-146550095D01*
X170085047Y-146692952D01*
X169513619Y-147264380D01*
X170132666Y-147264380D01*
X170418380Y-146264380D02*
X170751714Y-147264380D01*
X171085047Y-146264380D01*
X174227904Y-146312000D02*
X174132666Y-146264380D01*
X173989809Y-146264380D01*
X173846952Y-146312000D01*
X173751714Y-146407238D01*
X173704095Y-146502476D01*
X173656476Y-146692952D01*
X173656476Y-146835809D01*
X173704095Y-147026285D01*
X173751714Y-147121523D01*
X173846952Y-147216761D01*
X173989809Y-147264380D01*
X174085047Y-147264380D01*
X174227904Y-147216761D01*
X174275523Y-147169142D01*
X174275523Y-146835809D01*
X174085047Y-146835809D01*
X174704095Y-147264380D02*
X174704095Y-146264380D01*
X175275523Y-147264380D01*
X175275523Y-146264380D01*
X175751714Y-147264380D02*
X175751714Y-146264380D01*
X175989809Y-146264380D01*
X176132666Y-146312000D01*
X176227904Y-146407238D01*
X176275523Y-146502476D01*
X176323142Y-146692952D01*
X176323142Y-146835809D01*
X176275523Y-147026285D01*
X176227904Y-147121523D01*
X176132666Y-147216761D01*
X175989809Y-147264380D01*
X175751714Y-147264380D01*
X180403523Y-147998380D02*
X179927333Y-147998380D01*
X179879714Y-148474571D01*
X179927333Y-148426952D01*
X180022571Y-148379333D01*
X180260666Y-148379333D01*
X180355904Y-148426952D01*
X180403523Y-148474571D01*
X180451142Y-148569809D01*
X180451142Y-148807904D01*
X180403523Y-148903142D01*
X180355904Y-148950761D01*
X180260666Y-148998380D01*
X180022571Y-148998380D01*
X179927333Y-148950761D01*
X179879714Y-148903142D01*
X180736857Y-147998380D02*
X181070190Y-148998380D01*
X181403523Y-147998380D01*
X188610952Y-148998380D02*
X188039523Y-148998380D01*
X188325238Y-148998380D02*
X188325238Y-147998380D01*
X188230000Y-148141238D01*
X188134761Y-148236476D01*
X188039523Y-148284095D01*
X188991904Y-148093619D02*
X189039523Y-148046000D01*
X189134761Y-147998380D01*
X189372857Y-147998380D01*
X189468095Y-148046000D01*
X189515714Y-148093619D01*
X189563333Y-148188857D01*
X189563333Y-148284095D01*
X189515714Y-148426952D01*
X188944285Y-148998380D01*
X189563333Y-148998380D01*
X189849047Y-147998380D02*
X190182380Y-148998380D01*
X190515714Y-147998380D01*
X200914095Y-144334380D02*
X200914095Y-143334380D01*
X200914095Y-143810571D02*
X201485523Y-143810571D01*
X201485523Y-144334380D02*
X201485523Y-143334380D01*
X201866476Y-143334380D02*
X202485523Y-143334380D01*
X202152190Y-143715333D01*
X202295047Y-143715333D01*
X202390285Y-143762952D01*
X202437904Y-143810571D01*
X202485523Y-143905809D01*
X202485523Y-144143904D01*
X202437904Y-144239142D01*
X202390285Y-144286761D01*
X202295047Y-144334380D01*
X202009333Y-144334380D01*
X201914095Y-144286761D01*
X201866476Y-144239142D01*
X200914095Y-63054380D02*
X200914095Y-62054380D01*
X200914095Y-62530571D02*
X201485523Y-62530571D01*
X201485523Y-63054380D02*
X201485523Y-62054380D01*
X201914095Y-62149619D02*
X201961714Y-62102000D01*
X202056952Y-62054380D01*
X202295047Y-62054380D01*
X202390285Y-62102000D01*
X202437904Y-62149619D01*
X202485523Y-62244857D01*
X202485523Y-62340095D01*
X202437904Y-62482952D01*
X201866476Y-63054380D01*
X202485523Y-63054380D01*
X169418095Y-116648380D02*
X169418095Y-115648380D01*
X169418095Y-116124571D02*
X169989523Y-116124571D01*
X169989523Y-116648380D02*
X169989523Y-115648380D01*
X170989523Y-116648380D02*
X170418095Y-116648380D01*
X170703809Y-116648380D02*
X170703809Y-115648380D01*
X170608571Y-115791238D01*
X170513333Y-115886476D01*
X170418095Y-115934095D01*
X228560476Y-141140380D02*
X229131904Y-141140380D01*
X228846190Y-142140380D02*
X228846190Y-141140380D01*
X230179523Y-141092761D02*
X229322380Y-142378476D01*
X231084285Y-142045142D02*
X231036666Y-142092761D01*
X230893809Y-142140380D01*
X230798571Y-142140380D01*
X230655714Y-142092761D01*
X230560476Y-141997523D01*
X230512857Y-141902285D01*
X230465238Y-141711809D01*
X230465238Y-141568952D01*
X230512857Y-141378476D01*
X230560476Y-141283238D01*
X230655714Y-141188000D01*
X230798571Y-141140380D01*
X230893809Y-141140380D01*
X231036666Y-141188000D01*
X231084285Y-141235619D01*
X168870476Y-135298380D02*
X169441904Y-135298380D01*
X169156190Y-136298380D02*
X169156190Y-135298380D01*
X170489523Y-135250761D02*
X169632380Y-136536476D01*
X171394285Y-136203142D02*
X171346666Y-136250761D01*
X171203809Y-136298380D01*
X171108571Y-136298380D01*
X170965714Y-136250761D01*
X170870476Y-136155523D01*
X170822857Y-136060285D01*
X170775238Y-135869809D01*
X170775238Y-135726952D01*
X170822857Y-135536476D01*
X170870476Y-135441238D01*
X170965714Y-135346000D01*
X171108571Y-135298380D01*
X171203809Y-135298380D01*
X171346666Y-135346000D01*
X171394285Y-135393619D01*
X178578380Y-74334666D02*
X179054571Y-74334666D01*
X178483142Y-74620380D02*
X178816476Y-73620380D01*
X179149809Y-74620380D01*
X180054571Y-74525142D02*
X180006952Y-74572761D01*
X179864095Y-74620380D01*
X179768857Y-74620380D01*
X179626000Y-74572761D01*
X179530761Y-74477523D01*
X179483142Y-74382285D01*
X179435523Y-74191809D01*
X179435523Y-74048952D01*
X179483142Y-73858476D01*
X179530761Y-73763238D01*
X179626000Y-73668000D01*
X179768857Y-73620380D01*
X179864095Y-73620380D01*
X180006952Y-73668000D01*
X180054571Y-73715619D01*
X180483142Y-74239428D02*
X181245047Y-74239428D01*
X183959333Y-74334666D02*
X184435523Y-74334666D01*
X183864095Y-74620380D02*
X184197428Y-73620380D01*
X184530761Y-74620380D01*
X185435523Y-74525142D02*
X185387904Y-74572761D01*
X185245047Y-74620380D01*
X185149809Y-74620380D01*
X185006952Y-74572761D01*
X184911714Y-74477523D01*
X184864095Y-74382285D01*
X184816476Y-74191809D01*
X184816476Y-74048952D01*
X184864095Y-73858476D01*
X184911714Y-73763238D01*
X185006952Y-73668000D01*
X185149809Y-73620380D01*
X185245047Y-73620380D01*
X185387904Y-73668000D01*
X185435523Y-73715619D01*
X185864095Y-74239428D02*
X186626000Y-74239428D01*
X186245047Y-74620380D02*
X186245047Y-73858476D01*
X241212857Y-73274666D02*
X241689047Y-73274666D01*
X241117619Y-73560380D02*
X241450952Y-72560380D01*
X241784285Y-73560380D01*
X242689047Y-73465142D02*
X242641428Y-73512761D01*
X242498571Y-73560380D01*
X242403333Y-73560380D01*
X242260476Y-73512761D01*
X242165238Y-73417523D01*
X242117619Y-73322285D01*
X242070000Y-73131809D01*
X242070000Y-72988952D01*
X242117619Y-72798476D01*
X242165238Y-72703238D01*
X242260476Y-72608000D01*
X242403333Y-72560380D01*
X242498571Y-72560380D01*
X242641428Y-72608000D01*
X242689047Y-72655619D01*
X243117619Y-73179428D02*
X243879523Y-73179428D01*
X243498571Y-73560380D02*
X243498571Y-72798476D01*
X223432857Y-73274666D02*
X223909047Y-73274666D01*
X223337619Y-73560380D02*
X223670952Y-72560380D01*
X224004285Y-73560380D01*
X224909047Y-73465142D02*
X224861428Y-73512761D01*
X224718571Y-73560380D01*
X224623333Y-73560380D01*
X224480476Y-73512761D01*
X224385238Y-73417523D01*
X224337619Y-73322285D01*
X224290000Y-73131809D01*
X224290000Y-72988952D01*
X224337619Y-72798476D01*
X224385238Y-72703238D01*
X224480476Y-72608000D01*
X224623333Y-72560380D01*
X224718571Y-72560380D01*
X224861428Y-72608000D01*
X224909047Y-72655619D01*
X225337619Y-73179428D02*
X226099523Y-73179428D01*
X181522857Y-90292666D02*
X181999047Y-90292666D01*
X181427619Y-90578380D02*
X181760952Y-89578380D01*
X182094285Y-90578380D01*
X182999047Y-90483142D02*
X182951428Y-90530761D01*
X182808571Y-90578380D01*
X182713333Y-90578380D01*
X182570476Y-90530761D01*
X182475238Y-90435523D01*
X182427619Y-90340285D01*
X182380000Y-90149809D01*
X182380000Y-90006952D01*
X182427619Y-89816476D01*
X182475238Y-89721238D01*
X182570476Y-89626000D01*
X182713333Y-89578380D01*
X182808571Y-89578380D01*
X182951428Y-89626000D01*
X182999047Y-89673619D01*
X183427619Y-90197428D02*
X184189523Y-90197428D01*
X183808571Y-90578380D02*
X183808571Y-89816476D01*
X163742857Y-90292666D02*
X164219047Y-90292666D01*
X163647619Y-90578380D02*
X163980952Y-89578380D01*
X164314285Y-90578380D01*
X165219047Y-90483142D02*
X165171428Y-90530761D01*
X165028571Y-90578380D01*
X164933333Y-90578380D01*
X164790476Y-90530761D01*
X164695238Y-90435523D01*
X164647619Y-90340285D01*
X164600000Y-90149809D01*
X164600000Y-90006952D01*
X164647619Y-89816476D01*
X164695238Y-89721238D01*
X164790476Y-89626000D01*
X164933333Y-89578380D01*
X165028571Y-89578380D01*
X165171428Y-89626000D01*
X165219047Y-89673619D01*
X165647619Y-90197428D02*
X166409523Y-90197428D01*
X216789047Y-141759428D02*
X217550952Y-141759428D01*
X242189047Y-142013428D02*
X242950952Y-142013428D01*
X242570000Y-142394380D02*
X242570000Y-141632476D01*
X157099047Y-135917428D02*
X157860952Y-135917428D01*
X182499047Y-135917428D02*
X183260952Y-135917428D01*
X182880000Y-136298380D02*
X182880000Y-135536476D01*
X184150095Y-148090000D02*
X184054857Y-148042380D01*
X183912000Y-148042380D01*
X183769142Y-148090000D01*
X183673904Y-148185238D01*
X183626285Y-148280476D01*
X183578666Y-148470952D01*
X183578666Y-148613809D01*
X183626285Y-148804285D01*
X183673904Y-148899523D01*
X183769142Y-148994761D01*
X183912000Y-149042380D01*
X184007238Y-149042380D01*
X184150095Y-148994761D01*
X184197714Y-148947142D01*
X184197714Y-148613809D01*
X184007238Y-148613809D01*
X184626285Y-149042380D02*
X184626285Y-148042380D01*
X185197714Y-149042380D01*
X185197714Y-148042380D01*
X185673904Y-149042380D02*
X185673904Y-148042380D01*
X185912000Y-148042380D01*
X186054857Y-148090000D01*
X186150095Y-148185238D01*
X186197714Y-148280476D01*
X186245333Y-148470952D01*
X186245333Y-148613809D01*
X186197714Y-148804285D01*
X186150095Y-148899523D01*
X186054857Y-148994761D01*
X185912000Y-149042380D01*
X185673904Y-149042380D01*
M02*
