G04 #@! TF.GenerationSoftware,KiCad,Pcbnew,(5.1.4)-1*
G04 #@! TF.CreationDate,2019-10-18T17:06:04-04:00*
G04 #@! TF.ProjectId,mtd415te,6d746434-3135-4746-952e-6b696361645f,rev?*
G04 #@! TF.SameCoordinates,Original*
G04 #@! TF.FileFunction,Copper,L2,Bot*
G04 #@! TF.FilePolarity,Positive*
%FSLAX46Y46*%
G04 Gerber Fmt 4.6, Leading zero omitted, Abs format (unit mm)*
G04 Created by KiCad (PCBNEW (5.1.4)-1) date 2019-10-18 17:06:04*
%MOMM*%
%LPD*%
G04 APERTURE LIST*
%ADD10O,1.700000X1.700000*%
%ADD11R,1.700000X1.700000*%
%ADD12C,4.000000*%
%ADD13C,1.600000*%
%ADD14R,1.600000X1.600000*%
%ADD15C,2.600000*%
%ADD16R,2.600000X2.600000*%
%ADD17O,0.950000X1.900000*%
%ADD18C,1.450000*%
%ADD19C,0.800000*%
%ADD20C,0.250000*%
%ADD21C,0.254000*%
G04 APERTURE END LIST*
D10*
X158242000Y-54864000D03*
X158242000Y-57404000D03*
X158242000Y-59944000D03*
X158242000Y-62484000D03*
X158242000Y-65024000D03*
X158242000Y-67564000D03*
X158242000Y-70104000D03*
D11*
X158242000Y-72644000D03*
D12*
X156053000Y-78890000D03*
X122753000Y-78890000D03*
D13*
X131093000Y-80310000D03*
X133863000Y-80310000D03*
X136633000Y-80310000D03*
X139403000Y-80310000D03*
X142173000Y-80310000D03*
X144943000Y-80310000D03*
X147713000Y-80310000D03*
X129708000Y-77470000D03*
X132478000Y-77470000D03*
X135248000Y-77470000D03*
X138018000Y-77470000D03*
X140788000Y-77470000D03*
X143558000Y-77470000D03*
X146328000Y-77470000D03*
D14*
X149098000Y-77470000D03*
D15*
X151718000Y-46736000D03*
D16*
X156718000Y-46736000D03*
D10*
X140970000Y-45974000D03*
X143510000Y-45974000D03*
D11*
X146050000Y-45974000D03*
D10*
X135128000Y-45974000D03*
X132588000Y-45974000D03*
X130048000Y-45974000D03*
D11*
X127508000Y-45974000D03*
D17*
X104450000Y-44354000D03*
X111450000Y-44354000D03*
D18*
X105450000Y-47054000D03*
X110450000Y-47054000D03*
D10*
X121920000Y-72644000D03*
X121920000Y-70104000D03*
X121920000Y-67564000D03*
X121920000Y-65024000D03*
X121920000Y-62484000D03*
X121920000Y-59944000D03*
X121920000Y-57404000D03*
D11*
X121920000Y-54864000D03*
D19*
X112268000Y-67564000D03*
X114554000Y-81280000D03*
X99060000Y-81280000D03*
X107696000Y-57150000D03*
X102362000Y-63754000D03*
X119126000Y-44450000D03*
X145288000Y-48768000D03*
X140970000Y-48768000D03*
X134874000Y-58166000D03*
X134366000Y-48514000D03*
X132334000Y-48514000D03*
X127270000Y-75130000D03*
D20*
X159091999Y-58253999D02*
X158242000Y-57404000D01*
X159417001Y-58579001D02*
X159091999Y-58253999D01*
X159417001Y-60508001D02*
X159417001Y-58579001D01*
X158806001Y-61119001D02*
X159417001Y-60508001D01*
X157867997Y-61119001D02*
X158806001Y-61119001D01*
X143558000Y-75428998D02*
X157867997Y-61119001D01*
X143558000Y-77470000D02*
X143558000Y-75428998D01*
X140788000Y-77398000D02*
X140788000Y-77470000D01*
X158242000Y-59944000D02*
X140788000Y-77398000D01*
D21*
G36*
X159360001Y-53885469D02*
G01*
X159297134Y-53808866D01*
X159071014Y-53623294D01*
X158813034Y-53485401D01*
X158533111Y-53400487D01*
X158314950Y-53379000D01*
X158169050Y-53379000D01*
X157950889Y-53400487D01*
X157670966Y-53485401D01*
X157412986Y-53623294D01*
X157186866Y-53808866D01*
X157001294Y-54034986D01*
X156863401Y-54292966D01*
X156778487Y-54572889D01*
X156749815Y-54864000D01*
X156778487Y-55155111D01*
X156863401Y-55435034D01*
X157001294Y-55693014D01*
X157186866Y-55919134D01*
X157412986Y-56104706D01*
X157467791Y-56134000D01*
X157412986Y-56163294D01*
X157186866Y-56348866D01*
X157001294Y-56574986D01*
X156863401Y-56832966D01*
X156778487Y-57112889D01*
X156749815Y-57404000D01*
X156778487Y-57695111D01*
X156863401Y-57975034D01*
X157001294Y-58233014D01*
X157186866Y-58459134D01*
X157412986Y-58644706D01*
X157467791Y-58674000D01*
X157412986Y-58703294D01*
X157186866Y-58888866D01*
X157001294Y-59114986D01*
X156863401Y-59372966D01*
X156778487Y-59652889D01*
X156749815Y-59944000D01*
X156778487Y-60235111D01*
X156801203Y-60309995D01*
X141051832Y-76059367D01*
X140929335Y-76035000D01*
X140646665Y-76035000D01*
X140369426Y-76090147D01*
X140108273Y-76198320D01*
X139873241Y-76355363D01*
X139673363Y-76555241D01*
X139516320Y-76790273D01*
X139408147Y-77051426D01*
X139403000Y-77077301D01*
X139397853Y-77051426D01*
X139289680Y-76790273D01*
X139132637Y-76555241D01*
X138932759Y-76355363D01*
X138697727Y-76198320D01*
X138436574Y-76090147D01*
X138159335Y-76035000D01*
X137876665Y-76035000D01*
X137599426Y-76090147D01*
X137338273Y-76198320D01*
X137103241Y-76355363D01*
X136903363Y-76555241D01*
X136746320Y-76790273D01*
X136638147Y-77051426D01*
X136633000Y-77077301D01*
X136627853Y-77051426D01*
X136519680Y-76790273D01*
X136362637Y-76555241D01*
X136162759Y-76355363D01*
X135927727Y-76198320D01*
X135666574Y-76090147D01*
X135389335Y-76035000D01*
X135106665Y-76035000D01*
X134829426Y-76090147D01*
X134568273Y-76198320D01*
X134333241Y-76355363D01*
X134133363Y-76555241D01*
X133976320Y-76790273D01*
X133868147Y-77051426D01*
X133863000Y-77077301D01*
X133857853Y-77051426D01*
X133749680Y-76790273D01*
X133592637Y-76555241D01*
X133392759Y-76355363D01*
X133157727Y-76198320D01*
X132896574Y-76090147D01*
X132619335Y-76035000D01*
X132336665Y-76035000D01*
X132059426Y-76090147D01*
X131798273Y-76198320D01*
X131563241Y-76355363D01*
X131363363Y-76555241D01*
X131206320Y-76790273D01*
X131098147Y-77051426D01*
X131093000Y-77077301D01*
X131087853Y-77051426D01*
X130979680Y-76790273D01*
X130822637Y-76555241D01*
X130622759Y-76355363D01*
X130387727Y-76198320D01*
X130126574Y-76090147D01*
X129849335Y-76035000D01*
X129566665Y-76035000D01*
X129289426Y-76090147D01*
X129028273Y-76198320D01*
X128793241Y-76355363D01*
X128593363Y-76555241D01*
X128436320Y-76790273D01*
X128328147Y-77051426D01*
X128273000Y-77328665D01*
X128273000Y-77611335D01*
X128328147Y-77888574D01*
X128436320Y-78149727D01*
X128593363Y-78384759D01*
X128793241Y-78584637D01*
X129028273Y-78741680D01*
X129289426Y-78849853D01*
X129566665Y-78905000D01*
X129849335Y-78905000D01*
X130126574Y-78849853D01*
X130387727Y-78741680D01*
X130622759Y-78584637D01*
X130822637Y-78384759D01*
X130979680Y-78149727D01*
X131087853Y-77888574D01*
X131093000Y-77862699D01*
X131098147Y-77888574D01*
X131206320Y-78149727D01*
X131363363Y-78384759D01*
X131563241Y-78584637D01*
X131798273Y-78741680D01*
X132059426Y-78849853D01*
X132336665Y-78905000D01*
X132619335Y-78905000D01*
X132896574Y-78849853D01*
X133157727Y-78741680D01*
X133392759Y-78584637D01*
X133592637Y-78384759D01*
X133749680Y-78149727D01*
X133857853Y-77888574D01*
X133863000Y-77862699D01*
X133868147Y-77888574D01*
X133976320Y-78149727D01*
X134133363Y-78384759D01*
X134333241Y-78584637D01*
X134568273Y-78741680D01*
X134829426Y-78849853D01*
X135106665Y-78905000D01*
X135389335Y-78905000D01*
X135666574Y-78849853D01*
X135927727Y-78741680D01*
X136162759Y-78584637D01*
X136362637Y-78384759D01*
X136519680Y-78149727D01*
X136627853Y-77888574D01*
X136633000Y-77862699D01*
X136638147Y-77888574D01*
X136746320Y-78149727D01*
X136903363Y-78384759D01*
X137103241Y-78584637D01*
X137338273Y-78741680D01*
X137599426Y-78849853D01*
X137876665Y-78905000D01*
X138159335Y-78905000D01*
X138436574Y-78849853D01*
X138697727Y-78741680D01*
X138932759Y-78584637D01*
X139132637Y-78384759D01*
X139289680Y-78149727D01*
X139397853Y-77888574D01*
X139403000Y-77862699D01*
X139408147Y-77888574D01*
X139516320Y-78149727D01*
X139673363Y-78384759D01*
X139873241Y-78584637D01*
X140108273Y-78741680D01*
X140369426Y-78849853D01*
X140646665Y-78905000D01*
X140929335Y-78905000D01*
X141206574Y-78849853D01*
X141467727Y-78741680D01*
X141702759Y-78584637D01*
X141902637Y-78384759D01*
X142059680Y-78149727D01*
X142167853Y-77888574D01*
X142173000Y-77862699D01*
X142178147Y-77888574D01*
X142286320Y-78149727D01*
X142443363Y-78384759D01*
X142643241Y-78584637D01*
X142878273Y-78741680D01*
X143139426Y-78849853D01*
X143416665Y-78905000D01*
X143699335Y-78905000D01*
X143976574Y-78849853D01*
X144237727Y-78741680D01*
X144472759Y-78584637D01*
X144672637Y-78384759D01*
X144829680Y-78149727D01*
X144937853Y-77888574D01*
X144943000Y-77862699D01*
X144948147Y-77888574D01*
X145056320Y-78149727D01*
X145213363Y-78384759D01*
X145413241Y-78584637D01*
X145648273Y-78741680D01*
X145909426Y-78849853D01*
X146186665Y-78905000D01*
X146469335Y-78905000D01*
X146746574Y-78849853D01*
X147007727Y-78741680D01*
X147242759Y-78584637D01*
X147442637Y-78384759D01*
X147599680Y-78149727D01*
X147659928Y-78004275D01*
X147659928Y-78270000D01*
X147672188Y-78394482D01*
X147708498Y-78514180D01*
X147767463Y-78624494D01*
X147846815Y-78721185D01*
X147943506Y-78800537D01*
X148053820Y-78859502D01*
X148173518Y-78895812D01*
X148298000Y-78908072D01*
X149898000Y-78908072D01*
X150022482Y-78895812D01*
X150142180Y-78859502D01*
X150252494Y-78800537D01*
X150349185Y-78721185D01*
X150423628Y-78630475D01*
X153418000Y-78630475D01*
X153418000Y-79149525D01*
X153519261Y-79658601D01*
X153717893Y-80138141D01*
X154006262Y-80569715D01*
X154373285Y-80936738D01*
X154804859Y-81225107D01*
X155284399Y-81423739D01*
X155793475Y-81525000D01*
X156312525Y-81525000D01*
X156821601Y-81423739D01*
X157301141Y-81225107D01*
X157732715Y-80936738D01*
X158099738Y-80569715D01*
X158388107Y-80138141D01*
X158586739Y-79658601D01*
X158688000Y-79149525D01*
X158688000Y-78630475D01*
X158586739Y-78121399D01*
X158388107Y-77641859D01*
X158099738Y-77210285D01*
X157732715Y-76843262D01*
X157301141Y-76554893D01*
X156821601Y-76356261D01*
X156312525Y-76255000D01*
X155793475Y-76255000D01*
X155284399Y-76356261D01*
X154804859Y-76554893D01*
X154373285Y-76843262D01*
X154006262Y-77210285D01*
X153717893Y-77641859D01*
X153519261Y-78121399D01*
X153418000Y-78630475D01*
X150423628Y-78630475D01*
X150428537Y-78624494D01*
X150487502Y-78514180D01*
X150523812Y-78394482D01*
X150536072Y-78270000D01*
X150536072Y-76670000D01*
X150523812Y-76545518D01*
X150487502Y-76425820D01*
X150428537Y-76315506D01*
X150349185Y-76218815D01*
X150252494Y-76139463D01*
X150142180Y-76080498D01*
X150022482Y-76044188D01*
X149898000Y-76031928D01*
X148298000Y-76031928D01*
X148173518Y-76044188D01*
X148053820Y-76080498D01*
X147943506Y-76139463D01*
X147846815Y-76218815D01*
X147767463Y-76315506D01*
X147708498Y-76425820D01*
X147672188Y-76545518D01*
X147659928Y-76670000D01*
X147659928Y-76935725D01*
X147599680Y-76790273D01*
X147442637Y-76555241D01*
X147242759Y-76355363D01*
X147007727Y-76198320D01*
X146746574Y-76090147D01*
X146469335Y-76035000D01*
X146186665Y-76035000D01*
X145909426Y-76090147D01*
X145648273Y-76198320D01*
X145413241Y-76355363D01*
X145213363Y-76555241D01*
X145056320Y-76790273D01*
X144948147Y-77051426D01*
X144943000Y-77077301D01*
X144937853Y-77051426D01*
X144829680Y-76790273D01*
X144672637Y-76555241D01*
X144472759Y-76355363D01*
X144318000Y-76251957D01*
X144318000Y-75743799D01*
X152140909Y-67920890D01*
X156800524Y-67920890D01*
X156845175Y-68068099D01*
X156970359Y-68330920D01*
X157144412Y-68564269D01*
X157360645Y-68759178D01*
X157486255Y-68834000D01*
X157360645Y-68908822D01*
X157144412Y-69103731D01*
X156970359Y-69337080D01*
X156845175Y-69599901D01*
X156800524Y-69747110D01*
X156921845Y-69977000D01*
X158115000Y-69977000D01*
X158115000Y-67691000D01*
X156921845Y-67691000D01*
X156800524Y-67920890D01*
X152140909Y-67920890D01*
X156913339Y-63148461D01*
X157001294Y-63313014D01*
X157186866Y-63539134D01*
X157412986Y-63724706D01*
X157467791Y-63754000D01*
X157412986Y-63783294D01*
X157186866Y-63968866D01*
X157001294Y-64194986D01*
X156863401Y-64452966D01*
X156778487Y-64732889D01*
X156749815Y-65024000D01*
X156778487Y-65315111D01*
X156863401Y-65595034D01*
X157001294Y-65853014D01*
X157186866Y-66079134D01*
X157412986Y-66264706D01*
X157477523Y-66299201D01*
X157360645Y-66368822D01*
X157144412Y-66563731D01*
X156970359Y-66797080D01*
X156845175Y-67059901D01*
X156800524Y-67207110D01*
X156921845Y-67437000D01*
X158115000Y-67437000D01*
X158115000Y-67417000D01*
X158369000Y-67417000D01*
X158369000Y-67437000D01*
X158389000Y-67437000D01*
X158389000Y-67691000D01*
X158369000Y-67691000D01*
X158369000Y-69977000D01*
X158389000Y-69977000D01*
X158389000Y-70231000D01*
X158369000Y-70231000D01*
X158369000Y-70251000D01*
X158115000Y-70251000D01*
X158115000Y-70231000D01*
X156921845Y-70231000D01*
X156800524Y-70460890D01*
X156845175Y-70608099D01*
X156970359Y-70870920D01*
X157144412Y-71104269D01*
X157228466Y-71180034D01*
X157147820Y-71204498D01*
X157037506Y-71263463D01*
X156940815Y-71342815D01*
X156861463Y-71439506D01*
X156802498Y-71549820D01*
X156766188Y-71669518D01*
X156753928Y-71794000D01*
X156753928Y-73494000D01*
X156766188Y-73618482D01*
X156802498Y-73738180D01*
X156861463Y-73848494D01*
X156940815Y-73945185D01*
X157037506Y-74024537D01*
X157147820Y-74083502D01*
X157267518Y-74119812D01*
X157392000Y-74132072D01*
X159092000Y-74132072D01*
X159216482Y-74119812D01*
X159336180Y-74083502D01*
X159360000Y-74070770D01*
X159360000Y-82144000D01*
X116713000Y-82144000D01*
X116713000Y-78630475D01*
X120118000Y-78630475D01*
X120118000Y-79149525D01*
X120219261Y-79658601D01*
X120417893Y-80138141D01*
X120706262Y-80569715D01*
X121073285Y-80936738D01*
X121504859Y-81225107D01*
X121984399Y-81423739D01*
X122493475Y-81525000D01*
X123012525Y-81525000D01*
X123521601Y-81423739D01*
X124001141Y-81225107D01*
X124432715Y-80936738D01*
X124799738Y-80569715D01*
X125067711Y-80168665D01*
X129658000Y-80168665D01*
X129658000Y-80451335D01*
X129713147Y-80728574D01*
X129821320Y-80989727D01*
X129978363Y-81224759D01*
X130178241Y-81424637D01*
X130413273Y-81581680D01*
X130674426Y-81689853D01*
X130951665Y-81745000D01*
X131234335Y-81745000D01*
X131511574Y-81689853D01*
X131772727Y-81581680D01*
X132007759Y-81424637D01*
X132207637Y-81224759D01*
X132364680Y-80989727D01*
X132472853Y-80728574D01*
X132478000Y-80702699D01*
X132483147Y-80728574D01*
X132591320Y-80989727D01*
X132748363Y-81224759D01*
X132948241Y-81424637D01*
X133183273Y-81581680D01*
X133444426Y-81689853D01*
X133721665Y-81745000D01*
X134004335Y-81745000D01*
X134281574Y-81689853D01*
X134542727Y-81581680D01*
X134777759Y-81424637D01*
X134977637Y-81224759D01*
X135134680Y-80989727D01*
X135242853Y-80728574D01*
X135248000Y-80702699D01*
X135253147Y-80728574D01*
X135361320Y-80989727D01*
X135518363Y-81224759D01*
X135718241Y-81424637D01*
X135953273Y-81581680D01*
X136214426Y-81689853D01*
X136491665Y-81745000D01*
X136774335Y-81745000D01*
X137051574Y-81689853D01*
X137312727Y-81581680D01*
X137547759Y-81424637D01*
X137747637Y-81224759D01*
X137904680Y-80989727D01*
X138012853Y-80728574D01*
X138018000Y-80702699D01*
X138023147Y-80728574D01*
X138131320Y-80989727D01*
X138288363Y-81224759D01*
X138488241Y-81424637D01*
X138723273Y-81581680D01*
X138984426Y-81689853D01*
X139261665Y-81745000D01*
X139544335Y-81745000D01*
X139821574Y-81689853D01*
X140082727Y-81581680D01*
X140317759Y-81424637D01*
X140517637Y-81224759D01*
X140674680Y-80989727D01*
X140782853Y-80728574D01*
X140788000Y-80702699D01*
X140793147Y-80728574D01*
X140901320Y-80989727D01*
X141058363Y-81224759D01*
X141258241Y-81424637D01*
X141493273Y-81581680D01*
X141754426Y-81689853D01*
X142031665Y-81745000D01*
X142314335Y-81745000D01*
X142591574Y-81689853D01*
X142852727Y-81581680D01*
X143087759Y-81424637D01*
X143287637Y-81224759D01*
X143444680Y-80989727D01*
X143552853Y-80728574D01*
X143558000Y-80702699D01*
X143563147Y-80728574D01*
X143671320Y-80989727D01*
X143828363Y-81224759D01*
X144028241Y-81424637D01*
X144263273Y-81581680D01*
X144524426Y-81689853D01*
X144801665Y-81745000D01*
X145084335Y-81745000D01*
X145361574Y-81689853D01*
X145622727Y-81581680D01*
X145857759Y-81424637D01*
X146057637Y-81224759D01*
X146214680Y-80989727D01*
X146322853Y-80728574D01*
X146328000Y-80702699D01*
X146333147Y-80728574D01*
X146441320Y-80989727D01*
X146598363Y-81224759D01*
X146798241Y-81424637D01*
X147033273Y-81581680D01*
X147294426Y-81689853D01*
X147571665Y-81745000D01*
X147854335Y-81745000D01*
X148131574Y-81689853D01*
X148392727Y-81581680D01*
X148627759Y-81424637D01*
X148827637Y-81224759D01*
X148984680Y-80989727D01*
X149092853Y-80728574D01*
X149148000Y-80451335D01*
X149148000Y-80168665D01*
X149092853Y-79891426D01*
X148984680Y-79630273D01*
X148827637Y-79395241D01*
X148627759Y-79195363D01*
X148392727Y-79038320D01*
X148131574Y-78930147D01*
X147854335Y-78875000D01*
X147571665Y-78875000D01*
X147294426Y-78930147D01*
X147033273Y-79038320D01*
X146798241Y-79195363D01*
X146598363Y-79395241D01*
X146441320Y-79630273D01*
X146333147Y-79891426D01*
X146328000Y-79917301D01*
X146322853Y-79891426D01*
X146214680Y-79630273D01*
X146057637Y-79395241D01*
X145857759Y-79195363D01*
X145622727Y-79038320D01*
X145361574Y-78930147D01*
X145084335Y-78875000D01*
X144801665Y-78875000D01*
X144524426Y-78930147D01*
X144263273Y-79038320D01*
X144028241Y-79195363D01*
X143828363Y-79395241D01*
X143671320Y-79630273D01*
X143563147Y-79891426D01*
X143558000Y-79917301D01*
X143552853Y-79891426D01*
X143444680Y-79630273D01*
X143287637Y-79395241D01*
X143087759Y-79195363D01*
X142852727Y-79038320D01*
X142591574Y-78930147D01*
X142314335Y-78875000D01*
X142031665Y-78875000D01*
X141754426Y-78930147D01*
X141493273Y-79038320D01*
X141258241Y-79195363D01*
X141058363Y-79395241D01*
X140901320Y-79630273D01*
X140793147Y-79891426D01*
X140788000Y-79917301D01*
X140782853Y-79891426D01*
X140674680Y-79630273D01*
X140517637Y-79395241D01*
X140317759Y-79195363D01*
X140082727Y-79038320D01*
X139821574Y-78930147D01*
X139544335Y-78875000D01*
X139261665Y-78875000D01*
X138984426Y-78930147D01*
X138723273Y-79038320D01*
X138488241Y-79195363D01*
X138288363Y-79395241D01*
X138131320Y-79630273D01*
X138023147Y-79891426D01*
X138018000Y-79917301D01*
X138012853Y-79891426D01*
X137904680Y-79630273D01*
X137747637Y-79395241D01*
X137547759Y-79195363D01*
X137312727Y-79038320D01*
X137051574Y-78930147D01*
X136774335Y-78875000D01*
X136491665Y-78875000D01*
X136214426Y-78930147D01*
X135953273Y-79038320D01*
X135718241Y-79195363D01*
X135518363Y-79395241D01*
X135361320Y-79630273D01*
X135253147Y-79891426D01*
X135248000Y-79917301D01*
X135242853Y-79891426D01*
X135134680Y-79630273D01*
X134977637Y-79395241D01*
X134777759Y-79195363D01*
X134542727Y-79038320D01*
X134281574Y-78930147D01*
X134004335Y-78875000D01*
X133721665Y-78875000D01*
X133444426Y-78930147D01*
X133183273Y-79038320D01*
X132948241Y-79195363D01*
X132748363Y-79395241D01*
X132591320Y-79630273D01*
X132483147Y-79891426D01*
X132478000Y-79917301D01*
X132472853Y-79891426D01*
X132364680Y-79630273D01*
X132207637Y-79395241D01*
X132007759Y-79195363D01*
X131772727Y-79038320D01*
X131511574Y-78930147D01*
X131234335Y-78875000D01*
X130951665Y-78875000D01*
X130674426Y-78930147D01*
X130413273Y-79038320D01*
X130178241Y-79195363D01*
X129978363Y-79395241D01*
X129821320Y-79630273D01*
X129713147Y-79891426D01*
X129658000Y-80168665D01*
X125067711Y-80168665D01*
X125088107Y-80138141D01*
X125286739Y-79658601D01*
X125388000Y-79149525D01*
X125388000Y-78630475D01*
X125286739Y-78121399D01*
X125088107Y-77641859D01*
X124799738Y-77210285D01*
X124432715Y-76843262D01*
X124001141Y-76554893D01*
X123521601Y-76356261D01*
X123012525Y-76255000D01*
X122493475Y-76255000D01*
X121984399Y-76356261D01*
X121504859Y-76554893D01*
X121073285Y-76843262D01*
X120706262Y-77210285D01*
X120417893Y-77641859D01*
X120219261Y-78121399D01*
X120118000Y-78630475D01*
X116713000Y-78630475D01*
X116713000Y-70104000D01*
X120427815Y-70104000D01*
X120456487Y-70395111D01*
X120541401Y-70675034D01*
X120679294Y-70933014D01*
X120864866Y-71159134D01*
X121090986Y-71344706D01*
X121145791Y-71374000D01*
X121090986Y-71403294D01*
X120864866Y-71588866D01*
X120679294Y-71814986D01*
X120541401Y-72072966D01*
X120456487Y-72352889D01*
X120427815Y-72644000D01*
X120456487Y-72935111D01*
X120541401Y-73215034D01*
X120679294Y-73473014D01*
X120864866Y-73699134D01*
X121090986Y-73884706D01*
X121348966Y-74022599D01*
X121628889Y-74107513D01*
X121847050Y-74129000D01*
X121992950Y-74129000D01*
X122211111Y-74107513D01*
X122491034Y-74022599D01*
X122749014Y-73884706D01*
X122975134Y-73699134D01*
X123160706Y-73473014D01*
X123298599Y-73215034D01*
X123383513Y-72935111D01*
X123412185Y-72644000D01*
X123383513Y-72352889D01*
X123298599Y-72072966D01*
X123160706Y-71814986D01*
X122975134Y-71588866D01*
X122749014Y-71403294D01*
X122694209Y-71374000D01*
X122749014Y-71344706D01*
X122975134Y-71159134D01*
X123160706Y-70933014D01*
X123298599Y-70675034D01*
X123383513Y-70395111D01*
X123412185Y-70104000D01*
X123383513Y-69812889D01*
X123298599Y-69532966D01*
X123160706Y-69274986D01*
X122975134Y-69048866D01*
X122749014Y-68863294D01*
X122684477Y-68828799D01*
X122801355Y-68759178D01*
X123017588Y-68564269D01*
X123191641Y-68330920D01*
X123316825Y-68068099D01*
X123361476Y-67920890D01*
X123240155Y-67691000D01*
X122047000Y-67691000D01*
X122047000Y-67711000D01*
X121793000Y-67711000D01*
X121793000Y-67691000D01*
X120599845Y-67691000D01*
X120478524Y-67920890D01*
X120523175Y-68068099D01*
X120648359Y-68330920D01*
X120822412Y-68564269D01*
X121038645Y-68759178D01*
X121155523Y-68828799D01*
X121090986Y-68863294D01*
X120864866Y-69048866D01*
X120679294Y-69274986D01*
X120541401Y-69532966D01*
X120456487Y-69812889D01*
X120427815Y-70104000D01*
X116713000Y-70104000D01*
X116713000Y-59055000D01*
X117602000Y-59055000D01*
X117626776Y-59052560D01*
X117650601Y-59045333D01*
X117672557Y-59033597D01*
X117691803Y-59017803D01*
X117707597Y-58998557D01*
X117719333Y-58976601D01*
X117726560Y-58952776D01*
X117729000Y-58928000D01*
X117729000Y-57404000D01*
X120427815Y-57404000D01*
X120456487Y-57695111D01*
X120541401Y-57975034D01*
X120679294Y-58233014D01*
X120864866Y-58459134D01*
X121090986Y-58644706D01*
X121145791Y-58674000D01*
X121090986Y-58703294D01*
X120864866Y-58888866D01*
X120679294Y-59114986D01*
X120541401Y-59372966D01*
X120456487Y-59652889D01*
X120427815Y-59944000D01*
X120456487Y-60235111D01*
X120541401Y-60515034D01*
X120679294Y-60773014D01*
X120864866Y-60999134D01*
X121090986Y-61184706D01*
X121145791Y-61214000D01*
X121090986Y-61243294D01*
X120864866Y-61428866D01*
X120679294Y-61654986D01*
X120541401Y-61912966D01*
X120456487Y-62192889D01*
X120427815Y-62484000D01*
X120456487Y-62775111D01*
X120541401Y-63055034D01*
X120679294Y-63313014D01*
X120864866Y-63539134D01*
X121090986Y-63724706D01*
X121145791Y-63754000D01*
X121090986Y-63783294D01*
X120864866Y-63968866D01*
X120679294Y-64194986D01*
X120541401Y-64452966D01*
X120456487Y-64732889D01*
X120427815Y-65024000D01*
X120456487Y-65315111D01*
X120541401Y-65595034D01*
X120679294Y-65853014D01*
X120864866Y-66079134D01*
X121090986Y-66264706D01*
X121155523Y-66299201D01*
X121038645Y-66368822D01*
X120822412Y-66563731D01*
X120648359Y-66797080D01*
X120523175Y-67059901D01*
X120478524Y-67207110D01*
X120599845Y-67437000D01*
X121793000Y-67437000D01*
X121793000Y-67417000D01*
X122047000Y-67417000D01*
X122047000Y-67437000D01*
X123240155Y-67437000D01*
X123361476Y-67207110D01*
X123316825Y-67059901D01*
X123191641Y-66797080D01*
X123017588Y-66563731D01*
X122801355Y-66368822D01*
X122684477Y-66299201D01*
X122749014Y-66264706D01*
X122975134Y-66079134D01*
X123160706Y-65853014D01*
X123298599Y-65595034D01*
X123383513Y-65315111D01*
X123412185Y-65024000D01*
X123383513Y-64732889D01*
X123298599Y-64452966D01*
X123160706Y-64194986D01*
X122975134Y-63968866D01*
X122749014Y-63783294D01*
X122694209Y-63754000D01*
X122749014Y-63724706D01*
X122975134Y-63539134D01*
X123160706Y-63313014D01*
X123298599Y-63055034D01*
X123383513Y-62775111D01*
X123412185Y-62484000D01*
X123383513Y-62192889D01*
X123298599Y-61912966D01*
X123160706Y-61654986D01*
X122975134Y-61428866D01*
X122749014Y-61243294D01*
X122694209Y-61214000D01*
X122749014Y-61184706D01*
X122975134Y-60999134D01*
X123160706Y-60773014D01*
X123298599Y-60515034D01*
X123383513Y-60235111D01*
X123412185Y-59944000D01*
X123383513Y-59652889D01*
X123298599Y-59372966D01*
X123160706Y-59114986D01*
X122975134Y-58888866D01*
X122749014Y-58703294D01*
X122694209Y-58674000D01*
X122749014Y-58644706D01*
X122975134Y-58459134D01*
X123160706Y-58233014D01*
X123298599Y-57975034D01*
X123383513Y-57695111D01*
X123412185Y-57404000D01*
X123383513Y-57112889D01*
X123298599Y-56832966D01*
X123160706Y-56574986D01*
X122975134Y-56348866D01*
X122945313Y-56324393D01*
X123014180Y-56303502D01*
X123124494Y-56244537D01*
X123221185Y-56165185D01*
X123300537Y-56068494D01*
X123359502Y-55958180D01*
X123395812Y-55838482D01*
X123408072Y-55714000D01*
X123405000Y-55149750D01*
X123246250Y-54991000D01*
X122047000Y-54991000D01*
X122047000Y-55011000D01*
X121793000Y-55011000D01*
X121793000Y-54991000D01*
X120593750Y-54991000D01*
X120435000Y-55149750D01*
X120431928Y-55714000D01*
X120444188Y-55838482D01*
X120480498Y-55958180D01*
X120539463Y-56068494D01*
X120618815Y-56165185D01*
X120715506Y-56244537D01*
X120825820Y-56303502D01*
X120894687Y-56324393D01*
X120864866Y-56348866D01*
X120679294Y-56574986D01*
X120541401Y-56832966D01*
X120456487Y-57112889D01*
X120427815Y-57404000D01*
X117729000Y-57404000D01*
X117729000Y-54014000D01*
X120431928Y-54014000D01*
X120435000Y-54578250D01*
X120593750Y-54737000D01*
X121793000Y-54737000D01*
X121793000Y-53537750D01*
X122047000Y-53537750D01*
X122047000Y-54737000D01*
X123246250Y-54737000D01*
X123405000Y-54578250D01*
X123408072Y-54014000D01*
X123395812Y-53889518D01*
X123359502Y-53769820D01*
X123300537Y-53659506D01*
X123221185Y-53562815D01*
X123124494Y-53483463D01*
X123014180Y-53424498D01*
X122894482Y-53388188D01*
X122770000Y-53375928D01*
X122205750Y-53379000D01*
X122047000Y-53537750D01*
X121793000Y-53537750D01*
X121634250Y-53379000D01*
X121070000Y-53375928D01*
X120945518Y-53388188D01*
X120825820Y-53424498D01*
X120715506Y-53483463D01*
X120618815Y-53562815D01*
X120539463Y-53659506D01*
X120480498Y-53769820D01*
X120444188Y-53889518D01*
X120431928Y-54014000D01*
X117729000Y-54014000D01*
X117729000Y-48085224D01*
X150548381Y-48085224D01*
X150680317Y-48380312D01*
X151021045Y-48551159D01*
X151388557Y-48652250D01*
X151768729Y-48679701D01*
X152146951Y-48632457D01*
X152508690Y-48512333D01*
X152755683Y-48380312D01*
X152887619Y-48085224D01*
X151718000Y-46915605D01*
X150548381Y-48085224D01*
X117729000Y-48085224D01*
X117729000Y-46824000D01*
X126019928Y-46824000D01*
X126032188Y-46948482D01*
X126068498Y-47068180D01*
X126127463Y-47178494D01*
X126206815Y-47275185D01*
X126303506Y-47354537D01*
X126413820Y-47413502D01*
X126533518Y-47449812D01*
X126658000Y-47462072D01*
X127222250Y-47459000D01*
X127381000Y-47300250D01*
X127381000Y-46101000D01*
X126181750Y-46101000D01*
X126023000Y-46259750D01*
X126019928Y-46824000D01*
X117729000Y-46824000D01*
X117729000Y-45124000D01*
X126019928Y-45124000D01*
X126023000Y-45688250D01*
X126181750Y-45847000D01*
X127381000Y-45847000D01*
X127381000Y-44647750D01*
X127635000Y-44647750D01*
X127635000Y-45847000D01*
X127655000Y-45847000D01*
X127655000Y-46101000D01*
X127635000Y-46101000D01*
X127635000Y-47300250D01*
X127793750Y-47459000D01*
X128358000Y-47462072D01*
X128482482Y-47449812D01*
X128602180Y-47413502D01*
X128712494Y-47354537D01*
X128809185Y-47275185D01*
X128888537Y-47178494D01*
X128947502Y-47068180D01*
X128968393Y-46999313D01*
X128992866Y-47029134D01*
X129218986Y-47214706D01*
X129476966Y-47352599D01*
X129756889Y-47437513D01*
X129975050Y-47459000D01*
X130120950Y-47459000D01*
X130339111Y-47437513D01*
X130619034Y-47352599D01*
X130877014Y-47214706D01*
X131103134Y-47029134D01*
X131288706Y-46803014D01*
X131318000Y-46748209D01*
X131347294Y-46803014D01*
X131532866Y-47029134D01*
X131758986Y-47214706D01*
X132016966Y-47352599D01*
X132296889Y-47437513D01*
X132515050Y-47459000D01*
X132660950Y-47459000D01*
X132879111Y-47437513D01*
X133159034Y-47352599D01*
X133417014Y-47214706D01*
X133643134Y-47029134D01*
X133828706Y-46803014D01*
X133858000Y-46748209D01*
X133887294Y-46803014D01*
X134072866Y-47029134D01*
X134298986Y-47214706D01*
X134556966Y-47352599D01*
X134836889Y-47437513D01*
X135055050Y-47459000D01*
X135200950Y-47459000D01*
X135419111Y-47437513D01*
X135699034Y-47352599D01*
X135957014Y-47214706D01*
X136183134Y-47029134D01*
X136368706Y-46803014D01*
X136506599Y-46545034D01*
X136591513Y-46265111D01*
X136620185Y-45974000D01*
X139477815Y-45974000D01*
X139506487Y-46265111D01*
X139591401Y-46545034D01*
X139729294Y-46803014D01*
X139914866Y-47029134D01*
X140140986Y-47214706D01*
X140398966Y-47352599D01*
X140678889Y-47437513D01*
X140897050Y-47459000D01*
X141042950Y-47459000D01*
X141261111Y-47437513D01*
X141541034Y-47352599D01*
X141799014Y-47214706D01*
X142025134Y-47029134D01*
X142210706Y-46803014D01*
X142245201Y-46738477D01*
X142314822Y-46855355D01*
X142509731Y-47071588D01*
X142743080Y-47245641D01*
X143005901Y-47370825D01*
X143153110Y-47415476D01*
X143383000Y-47294155D01*
X143383000Y-46101000D01*
X143363000Y-46101000D01*
X143363000Y-45847000D01*
X143383000Y-45847000D01*
X143383000Y-44653845D01*
X143637000Y-44653845D01*
X143637000Y-45847000D01*
X143657000Y-45847000D01*
X143657000Y-46101000D01*
X143637000Y-46101000D01*
X143637000Y-47294155D01*
X143866890Y-47415476D01*
X144014099Y-47370825D01*
X144276920Y-47245641D01*
X144510269Y-47071588D01*
X144586034Y-46987534D01*
X144610498Y-47068180D01*
X144669463Y-47178494D01*
X144748815Y-47275185D01*
X144845506Y-47354537D01*
X144955820Y-47413502D01*
X145075518Y-47449812D01*
X145200000Y-47462072D01*
X146900000Y-47462072D01*
X147024482Y-47449812D01*
X147144180Y-47413502D01*
X147254494Y-47354537D01*
X147351185Y-47275185D01*
X147430537Y-47178494D01*
X147489502Y-47068180D01*
X147525812Y-46948482D01*
X147538072Y-46824000D01*
X147538072Y-46786729D01*
X149774299Y-46786729D01*
X149821543Y-47164951D01*
X149941667Y-47526690D01*
X150073688Y-47773683D01*
X150368776Y-47905619D01*
X151538395Y-46736000D01*
X151897605Y-46736000D01*
X153067224Y-47905619D01*
X153362312Y-47773683D01*
X153533159Y-47432955D01*
X153634250Y-47065443D01*
X153661701Y-46685271D01*
X153614457Y-46307049D01*
X153494333Y-45945310D01*
X153362312Y-45698317D01*
X153067224Y-45566381D01*
X151897605Y-46736000D01*
X151538395Y-46736000D01*
X150368776Y-45566381D01*
X150073688Y-45698317D01*
X149902841Y-46039045D01*
X149801750Y-46406557D01*
X149774299Y-46786729D01*
X147538072Y-46786729D01*
X147538072Y-45386776D01*
X150548381Y-45386776D01*
X151718000Y-46556395D01*
X152838395Y-45436000D01*
X154779928Y-45436000D01*
X154779928Y-48036000D01*
X154792188Y-48160482D01*
X154828498Y-48280180D01*
X154887463Y-48390494D01*
X154966815Y-48487185D01*
X155063506Y-48566537D01*
X155173820Y-48625502D01*
X155293518Y-48661812D01*
X155418000Y-48674072D01*
X158018000Y-48674072D01*
X158142482Y-48661812D01*
X158262180Y-48625502D01*
X158372494Y-48566537D01*
X158469185Y-48487185D01*
X158548537Y-48390494D01*
X158607502Y-48280180D01*
X158643812Y-48160482D01*
X158656072Y-48036000D01*
X158656072Y-45436000D01*
X158643812Y-45311518D01*
X158607502Y-45191820D01*
X158548537Y-45081506D01*
X158469185Y-44984815D01*
X158372494Y-44905463D01*
X158262180Y-44846498D01*
X158142482Y-44810188D01*
X158018000Y-44797928D01*
X155418000Y-44797928D01*
X155293518Y-44810188D01*
X155173820Y-44846498D01*
X155063506Y-44905463D01*
X154966815Y-44984815D01*
X154887463Y-45081506D01*
X154828498Y-45191820D01*
X154792188Y-45311518D01*
X154779928Y-45436000D01*
X152838395Y-45436000D01*
X152887619Y-45386776D01*
X152755683Y-45091688D01*
X152414955Y-44920841D01*
X152047443Y-44819750D01*
X151667271Y-44792299D01*
X151289049Y-44839543D01*
X150927310Y-44959667D01*
X150680317Y-45091688D01*
X150548381Y-45386776D01*
X147538072Y-45386776D01*
X147538072Y-45124000D01*
X147525812Y-44999518D01*
X147489502Y-44879820D01*
X147430537Y-44769506D01*
X147351185Y-44672815D01*
X147254494Y-44593463D01*
X147144180Y-44534498D01*
X147024482Y-44498188D01*
X146900000Y-44485928D01*
X145200000Y-44485928D01*
X145075518Y-44498188D01*
X144955820Y-44534498D01*
X144845506Y-44593463D01*
X144748815Y-44672815D01*
X144669463Y-44769506D01*
X144610498Y-44879820D01*
X144586034Y-44960466D01*
X144510269Y-44876412D01*
X144276920Y-44702359D01*
X144014099Y-44577175D01*
X143866890Y-44532524D01*
X143637000Y-44653845D01*
X143383000Y-44653845D01*
X143153110Y-44532524D01*
X143005901Y-44577175D01*
X142743080Y-44702359D01*
X142509731Y-44876412D01*
X142314822Y-45092645D01*
X142245201Y-45209523D01*
X142210706Y-45144986D01*
X142025134Y-44918866D01*
X141799014Y-44733294D01*
X141541034Y-44595401D01*
X141261111Y-44510487D01*
X141042950Y-44489000D01*
X140897050Y-44489000D01*
X140678889Y-44510487D01*
X140398966Y-44595401D01*
X140140986Y-44733294D01*
X139914866Y-44918866D01*
X139729294Y-45144986D01*
X139591401Y-45402966D01*
X139506487Y-45682889D01*
X139477815Y-45974000D01*
X136620185Y-45974000D01*
X136591513Y-45682889D01*
X136506599Y-45402966D01*
X136368706Y-45144986D01*
X136183134Y-44918866D01*
X135957014Y-44733294D01*
X135699034Y-44595401D01*
X135419111Y-44510487D01*
X135200950Y-44489000D01*
X135055050Y-44489000D01*
X134836889Y-44510487D01*
X134556966Y-44595401D01*
X134298986Y-44733294D01*
X134072866Y-44918866D01*
X133887294Y-45144986D01*
X133858000Y-45199791D01*
X133828706Y-45144986D01*
X133643134Y-44918866D01*
X133417014Y-44733294D01*
X133159034Y-44595401D01*
X132879111Y-44510487D01*
X132660950Y-44489000D01*
X132515050Y-44489000D01*
X132296889Y-44510487D01*
X132016966Y-44595401D01*
X131758986Y-44733294D01*
X131532866Y-44918866D01*
X131347294Y-45144986D01*
X131318000Y-45199791D01*
X131288706Y-45144986D01*
X131103134Y-44918866D01*
X130877014Y-44733294D01*
X130619034Y-44595401D01*
X130339111Y-44510487D01*
X130120950Y-44489000D01*
X129975050Y-44489000D01*
X129756889Y-44510487D01*
X129476966Y-44595401D01*
X129218986Y-44733294D01*
X128992866Y-44918866D01*
X128968393Y-44948687D01*
X128947502Y-44879820D01*
X128888537Y-44769506D01*
X128809185Y-44672815D01*
X128712494Y-44593463D01*
X128602180Y-44534498D01*
X128482482Y-44498188D01*
X128358000Y-44485928D01*
X127793750Y-44489000D01*
X127635000Y-44647750D01*
X127381000Y-44647750D01*
X127222250Y-44489000D01*
X126658000Y-44485928D01*
X126533518Y-44498188D01*
X126413820Y-44534498D01*
X126303506Y-44593463D01*
X126206815Y-44672815D01*
X126127463Y-44769506D01*
X126068498Y-44879820D01*
X126032188Y-44999518D01*
X126019928Y-45124000D01*
X117729000Y-45124000D01*
X117729000Y-43586000D01*
X159360001Y-43586000D01*
X159360001Y-53885469D01*
X159360001Y-53885469D01*
G37*
X159360001Y-53885469D02*
X159297134Y-53808866D01*
X159071014Y-53623294D01*
X158813034Y-53485401D01*
X158533111Y-53400487D01*
X158314950Y-53379000D01*
X158169050Y-53379000D01*
X157950889Y-53400487D01*
X157670966Y-53485401D01*
X157412986Y-53623294D01*
X157186866Y-53808866D01*
X157001294Y-54034986D01*
X156863401Y-54292966D01*
X156778487Y-54572889D01*
X156749815Y-54864000D01*
X156778487Y-55155111D01*
X156863401Y-55435034D01*
X157001294Y-55693014D01*
X157186866Y-55919134D01*
X157412986Y-56104706D01*
X157467791Y-56134000D01*
X157412986Y-56163294D01*
X157186866Y-56348866D01*
X157001294Y-56574986D01*
X156863401Y-56832966D01*
X156778487Y-57112889D01*
X156749815Y-57404000D01*
X156778487Y-57695111D01*
X156863401Y-57975034D01*
X157001294Y-58233014D01*
X157186866Y-58459134D01*
X157412986Y-58644706D01*
X157467791Y-58674000D01*
X157412986Y-58703294D01*
X157186866Y-58888866D01*
X157001294Y-59114986D01*
X156863401Y-59372966D01*
X156778487Y-59652889D01*
X156749815Y-59944000D01*
X156778487Y-60235111D01*
X156801203Y-60309995D01*
X141051832Y-76059367D01*
X140929335Y-76035000D01*
X140646665Y-76035000D01*
X140369426Y-76090147D01*
X140108273Y-76198320D01*
X139873241Y-76355363D01*
X139673363Y-76555241D01*
X139516320Y-76790273D01*
X139408147Y-77051426D01*
X139403000Y-77077301D01*
X139397853Y-77051426D01*
X139289680Y-76790273D01*
X139132637Y-76555241D01*
X138932759Y-76355363D01*
X138697727Y-76198320D01*
X138436574Y-76090147D01*
X138159335Y-76035000D01*
X137876665Y-76035000D01*
X137599426Y-76090147D01*
X137338273Y-76198320D01*
X137103241Y-76355363D01*
X136903363Y-76555241D01*
X136746320Y-76790273D01*
X136638147Y-77051426D01*
X136633000Y-77077301D01*
X136627853Y-77051426D01*
X136519680Y-76790273D01*
X136362637Y-76555241D01*
X136162759Y-76355363D01*
X135927727Y-76198320D01*
X135666574Y-76090147D01*
X135389335Y-76035000D01*
X135106665Y-76035000D01*
X134829426Y-76090147D01*
X134568273Y-76198320D01*
X134333241Y-76355363D01*
X134133363Y-76555241D01*
X133976320Y-76790273D01*
X133868147Y-77051426D01*
X133863000Y-77077301D01*
X133857853Y-77051426D01*
X133749680Y-76790273D01*
X133592637Y-76555241D01*
X133392759Y-76355363D01*
X133157727Y-76198320D01*
X132896574Y-76090147D01*
X132619335Y-76035000D01*
X132336665Y-76035000D01*
X132059426Y-76090147D01*
X131798273Y-76198320D01*
X131563241Y-76355363D01*
X131363363Y-76555241D01*
X131206320Y-76790273D01*
X131098147Y-77051426D01*
X131093000Y-77077301D01*
X131087853Y-77051426D01*
X130979680Y-76790273D01*
X130822637Y-76555241D01*
X130622759Y-76355363D01*
X130387727Y-76198320D01*
X130126574Y-76090147D01*
X129849335Y-76035000D01*
X129566665Y-76035000D01*
X129289426Y-76090147D01*
X129028273Y-76198320D01*
X128793241Y-76355363D01*
X128593363Y-76555241D01*
X128436320Y-76790273D01*
X128328147Y-77051426D01*
X128273000Y-77328665D01*
X128273000Y-77611335D01*
X128328147Y-77888574D01*
X128436320Y-78149727D01*
X128593363Y-78384759D01*
X128793241Y-78584637D01*
X129028273Y-78741680D01*
X129289426Y-78849853D01*
X129566665Y-78905000D01*
X129849335Y-78905000D01*
X130126574Y-78849853D01*
X130387727Y-78741680D01*
X130622759Y-78584637D01*
X130822637Y-78384759D01*
X130979680Y-78149727D01*
X131087853Y-77888574D01*
X131093000Y-77862699D01*
X131098147Y-77888574D01*
X131206320Y-78149727D01*
X131363363Y-78384759D01*
X131563241Y-78584637D01*
X131798273Y-78741680D01*
X132059426Y-78849853D01*
X132336665Y-78905000D01*
X132619335Y-78905000D01*
X132896574Y-78849853D01*
X133157727Y-78741680D01*
X133392759Y-78584637D01*
X133592637Y-78384759D01*
X133749680Y-78149727D01*
X133857853Y-77888574D01*
X133863000Y-77862699D01*
X133868147Y-77888574D01*
X133976320Y-78149727D01*
X134133363Y-78384759D01*
X134333241Y-78584637D01*
X134568273Y-78741680D01*
X134829426Y-78849853D01*
X135106665Y-78905000D01*
X135389335Y-78905000D01*
X135666574Y-78849853D01*
X135927727Y-78741680D01*
X136162759Y-78584637D01*
X136362637Y-78384759D01*
X136519680Y-78149727D01*
X136627853Y-77888574D01*
X136633000Y-77862699D01*
X136638147Y-77888574D01*
X136746320Y-78149727D01*
X136903363Y-78384759D01*
X137103241Y-78584637D01*
X137338273Y-78741680D01*
X137599426Y-78849853D01*
X137876665Y-78905000D01*
X138159335Y-78905000D01*
X138436574Y-78849853D01*
X138697727Y-78741680D01*
X138932759Y-78584637D01*
X139132637Y-78384759D01*
X139289680Y-78149727D01*
X139397853Y-77888574D01*
X139403000Y-77862699D01*
X139408147Y-77888574D01*
X139516320Y-78149727D01*
X139673363Y-78384759D01*
X139873241Y-78584637D01*
X140108273Y-78741680D01*
X140369426Y-78849853D01*
X140646665Y-78905000D01*
X140929335Y-78905000D01*
X141206574Y-78849853D01*
X141467727Y-78741680D01*
X141702759Y-78584637D01*
X141902637Y-78384759D01*
X142059680Y-78149727D01*
X142167853Y-77888574D01*
X142173000Y-77862699D01*
X142178147Y-77888574D01*
X142286320Y-78149727D01*
X142443363Y-78384759D01*
X142643241Y-78584637D01*
X142878273Y-78741680D01*
X143139426Y-78849853D01*
X143416665Y-78905000D01*
X143699335Y-78905000D01*
X143976574Y-78849853D01*
X144237727Y-78741680D01*
X144472759Y-78584637D01*
X144672637Y-78384759D01*
X144829680Y-78149727D01*
X144937853Y-77888574D01*
X144943000Y-77862699D01*
X144948147Y-77888574D01*
X145056320Y-78149727D01*
X145213363Y-78384759D01*
X145413241Y-78584637D01*
X145648273Y-78741680D01*
X145909426Y-78849853D01*
X146186665Y-78905000D01*
X146469335Y-78905000D01*
X146746574Y-78849853D01*
X147007727Y-78741680D01*
X147242759Y-78584637D01*
X147442637Y-78384759D01*
X147599680Y-78149727D01*
X147659928Y-78004275D01*
X147659928Y-78270000D01*
X147672188Y-78394482D01*
X147708498Y-78514180D01*
X147767463Y-78624494D01*
X147846815Y-78721185D01*
X147943506Y-78800537D01*
X148053820Y-78859502D01*
X148173518Y-78895812D01*
X148298000Y-78908072D01*
X149898000Y-78908072D01*
X150022482Y-78895812D01*
X150142180Y-78859502D01*
X150252494Y-78800537D01*
X150349185Y-78721185D01*
X150423628Y-78630475D01*
X153418000Y-78630475D01*
X153418000Y-79149525D01*
X153519261Y-79658601D01*
X153717893Y-80138141D01*
X154006262Y-80569715D01*
X154373285Y-80936738D01*
X154804859Y-81225107D01*
X155284399Y-81423739D01*
X155793475Y-81525000D01*
X156312525Y-81525000D01*
X156821601Y-81423739D01*
X157301141Y-81225107D01*
X157732715Y-80936738D01*
X158099738Y-80569715D01*
X158388107Y-80138141D01*
X158586739Y-79658601D01*
X158688000Y-79149525D01*
X158688000Y-78630475D01*
X158586739Y-78121399D01*
X158388107Y-77641859D01*
X158099738Y-77210285D01*
X157732715Y-76843262D01*
X157301141Y-76554893D01*
X156821601Y-76356261D01*
X156312525Y-76255000D01*
X155793475Y-76255000D01*
X155284399Y-76356261D01*
X154804859Y-76554893D01*
X154373285Y-76843262D01*
X154006262Y-77210285D01*
X153717893Y-77641859D01*
X153519261Y-78121399D01*
X153418000Y-78630475D01*
X150423628Y-78630475D01*
X150428537Y-78624494D01*
X150487502Y-78514180D01*
X150523812Y-78394482D01*
X150536072Y-78270000D01*
X150536072Y-76670000D01*
X150523812Y-76545518D01*
X150487502Y-76425820D01*
X150428537Y-76315506D01*
X150349185Y-76218815D01*
X150252494Y-76139463D01*
X150142180Y-76080498D01*
X150022482Y-76044188D01*
X149898000Y-76031928D01*
X148298000Y-76031928D01*
X148173518Y-76044188D01*
X148053820Y-76080498D01*
X147943506Y-76139463D01*
X147846815Y-76218815D01*
X147767463Y-76315506D01*
X147708498Y-76425820D01*
X147672188Y-76545518D01*
X147659928Y-76670000D01*
X147659928Y-76935725D01*
X147599680Y-76790273D01*
X147442637Y-76555241D01*
X147242759Y-76355363D01*
X147007727Y-76198320D01*
X146746574Y-76090147D01*
X146469335Y-76035000D01*
X146186665Y-76035000D01*
X145909426Y-76090147D01*
X145648273Y-76198320D01*
X145413241Y-76355363D01*
X145213363Y-76555241D01*
X145056320Y-76790273D01*
X144948147Y-77051426D01*
X144943000Y-77077301D01*
X144937853Y-77051426D01*
X144829680Y-76790273D01*
X144672637Y-76555241D01*
X144472759Y-76355363D01*
X144318000Y-76251957D01*
X144318000Y-75743799D01*
X152140909Y-67920890D01*
X156800524Y-67920890D01*
X156845175Y-68068099D01*
X156970359Y-68330920D01*
X157144412Y-68564269D01*
X157360645Y-68759178D01*
X157486255Y-68834000D01*
X157360645Y-68908822D01*
X157144412Y-69103731D01*
X156970359Y-69337080D01*
X156845175Y-69599901D01*
X156800524Y-69747110D01*
X156921845Y-69977000D01*
X158115000Y-69977000D01*
X158115000Y-67691000D01*
X156921845Y-67691000D01*
X156800524Y-67920890D01*
X152140909Y-67920890D01*
X156913339Y-63148461D01*
X157001294Y-63313014D01*
X157186866Y-63539134D01*
X157412986Y-63724706D01*
X157467791Y-63754000D01*
X157412986Y-63783294D01*
X157186866Y-63968866D01*
X157001294Y-64194986D01*
X156863401Y-64452966D01*
X156778487Y-64732889D01*
X156749815Y-65024000D01*
X156778487Y-65315111D01*
X156863401Y-65595034D01*
X157001294Y-65853014D01*
X157186866Y-66079134D01*
X157412986Y-66264706D01*
X157477523Y-66299201D01*
X157360645Y-66368822D01*
X157144412Y-66563731D01*
X156970359Y-66797080D01*
X156845175Y-67059901D01*
X156800524Y-67207110D01*
X156921845Y-67437000D01*
X158115000Y-67437000D01*
X158115000Y-67417000D01*
X158369000Y-67417000D01*
X158369000Y-67437000D01*
X158389000Y-67437000D01*
X158389000Y-67691000D01*
X158369000Y-67691000D01*
X158369000Y-69977000D01*
X158389000Y-69977000D01*
X158389000Y-70231000D01*
X158369000Y-70231000D01*
X158369000Y-70251000D01*
X158115000Y-70251000D01*
X158115000Y-70231000D01*
X156921845Y-70231000D01*
X156800524Y-70460890D01*
X156845175Y-70608099D01*
X156970359Y-70870920D01*
X157144412Y-71104269D01*
X157228466Y-71180034D01*
X157147820Y-71204498D01*
X157037506Y-71263463D01*
X156940815Y-71342815D01*
X156861463Y-71439506D01*
X156802498Y-71549820D01*
X156766188Y-71669518D01*
X156753928Y-71794000D01*
X156753928Y-73494000D01*
X156766188Y-73618482D01*
X156802498Y-73738180D01*
X156861463Y-73848494D01*
X156940815Y-73945185D01*
X157037506Y-74024537D01*
X157147820Y-74083502D01*
X157267518Y-74119812D01*
X157392000Y-74132072D01*
X159092000Y-74132072D01*
X159216482Y-74119812D01*
X159336180Y-74083502D01*
X159360000Y-74070770D01*
X159360000Y-82144000D01*
X116713000Y-82144000D01*
X116713000Y-78630475D01*
X120118000Y-78630475D01*
X120118000Y-79149525D01*
X120219261Y-79658601D01*
X120417893Y-80138141D01*
X120706262Y-80569715D01*
X121073285Y-80936738D01*
X121504859Y-81225107D01*
X121984399Y-81423739D01*
X122493475Y-81525000D01*
X123012525Y-81525000D01*
X123521601Y-81423739D01*
X124001141Y-81225107D01*
X124432715Y-80936738D01*
X124799738Y-80569715D01*
X125067711Y-80168665D01*
X129658000Y-80168665D01*
X129658000Y-80451335D01*
X129713147Y-80728574D01*
X129821320Y-80989727D01*
X129978363Y-81224759D01*
X130178241Y-81424637D01*
X130413273Y-81581680D01*
X130674426Y-81689853D01*
X130951665Y-81745000D01*
X131234335Y-81745000D01*
X131511574Y-81689853D01*
X131772727Y-81581680D01*
X132007759Y-81424637D01*
X132207637Y-81224759D01*
X132364680Y-80989727D01*
X132472853Y-80728574D01*
X132478000Y-80702699D01*
X132483147Y-80728574D01*
X132591320Y-80989727D01*
X132748363Y-81224759D01*
X132948241Y-81424637D01*
X133183273Y-81581680D01*
X133444426Y-81689853D01*
X133721665Y-81745000D01*
X134004335Y-81745000D01*
X134281574Y-81689853D01*
X134542727Y-81581680D01*
X134777759Y-81424637D01*
X134977637Y-81224759D01*
X135134680Y-80989727D01*
X135242853Y-80728574D01*
X135248000Y-80702699D01*
X135253147Y-80728574D01*
X135361320Y-80989727D01*
X135518363Y-81224759D01*
X135718241Y-81424637D01*
X135953273Y-81581680D01*
X136214426Y-81689853D01*
X136491665Y-81745000D01*
X136774335Y-81745000D01*
X137051574Y-81689853D01*
X137312727Y-81581680D01*
X137547759Y-81424637D01*
X137747637Y-81224759D01*
X137904680Y-80989727D01*
X138012853Y-80728574D01*
X138018000Y-80702699D01*
X138023147Y-80728574D01*
X138131320Y-80989727D01*
X138288363Y-81224759D01*
X138488241Y-81424637D01*
X138723273Y-81581680D01*
X138984426Y-81689853D01*
X139261665Y-81745000D01*
X139544335Y-81745000D01*
X139821574Y-81689853D01*
X140082727Y-81581680D01*
X140317759Y-81424637D01*
X140517637Y-81224759D01*
X140674680Y-80989727D01*
X140782853Y-80728574D01*
X140788000Y-80702699D01*
X140793147Y-80728574D01*
X140901320Y-80989727D01*
X141058363Y-81224759D01*
X141258241Y-81424637D01*
X141493273Y-81581680D01*
X141754426Y-81689853D01*
X142031665Y-81745000D01*
X142314335Y-81745000D01*
X142591574Y-81689853D01*
X142852727Y-81581680D01*
X143087759Y-81424637D01*
X143287637Y-81224759D01*
X143444680Y-80989727D01*
X143552853Y-80728574D01*
X143558000Y-80702699D01*
X143563147Y-80728574D01*
X143671320Y-80989727D01*
X143828363Y-81224759D01*
X144028241Y-81424637D01*
X144263273Y-81581680D01*
X144524426Y-81689853D01*
X144801665Y-81745000D01*
X145084335Y-81745000D01*
X145361574Y-81689853D01*
X145622727Y-81581680D01*
X145857759Y-81424637D01*
X146057637Y-81224759D01*
X146214680Y-80989727D01*
X146322853Y-80728574D01*
X146328000Y-80702699D01*
X146333147Y-80728574D01*
X146441320Y-80989727D01*
X146598363Y-81224759D01*
X146798241Y-81424637D01*
X147033273Y-81581680D01*
X147294426Y-81689853D01*
X147571665Y-81745000D01*
X147854335Y-81745000D01*
X148131574Y-81689853D01*
X148392727Y-81581680D01*
X148627759Y-81424637D01*
X148827637Y-81224759D01*
X148984680Y-80989727D01*
X149092853Y-80728574D01*
X149148000Y-80451335D01*
X149148000Y-80168665D01*
X149092853Y-79891426D01*
X148984680Y-79630273D01*
X148827637Y-79395241D01*
X148627759Y-79195363D01*
X148392727Y-79038320D01*
X148131574Y-78930147D01*
X147854335Y-78875000D01*
X147571665Y-78875000D01*
X147294426Y-78930147D01*
X147033273Y-79038320D01*
X146798241Y-79195363D01*
X146598363Y-79395241D01*
X146441320Y-79630273D01*
X146333147Y-79891426D01*
X146328000Y-79917301D01*
X146322853Y-79891426D01*
X146214680Y-79630273D01*
X146057637Y-79395241D01*
X145857759Y-79195363D01*
X145622727Y-79038320D01*
X145361574Y-78930147D01*
X145084335Y-78875000D01*
X144801665Y-78875000D01*
X144524426Y-78930147D01*
X144263273Y-79038320D01*
X144028241Y-79195363D01*
X143828363Y-79395241D01*
X143671320Y-79630273D01*
X143563147Y-79891426D01*
X143558000Y-79917301D01*
X143552853Y-79891426D01*
X143444680Y-79630273D01*
X143287637Y-79395241D01*
X143087759Y-79195363D01*
X142852727Y-79038320D01*
X142591574Y-78930147D01*
X142314335Y-78875000D01*
X142031665Y-78875000D01*
X141754426Y-78930147D01*
X141493273Y-79038320D01*
X141258241Y-79195363D01*
X141058363Y-79395241D01*
X140901320Y-79630273D01*
X140793147Y-79891426D01*
X140788000Y-79917301D01*
X140782853Y-79891426D01*
X140674680Y-79630273D01*
X140517637Y-79395241D01*
X140317759Y-79195363D01*
X140082727Y-79038320D01*
X139821574Y-78930147D01*
X139544335Y-78875000D01*
X139261665Y-78875000D01*
X138984426Y-78930147D01*
X138723273Y-79038320D01*
X138488241Y-79195363D01*
X138288363Y-79395241D01*
X138131320Y-79630273D01*
X138023147Y-79891426D01*
X138018000Y-79917301D01*
X138012853Y-79891426D01*
X137904680Y-79630273D01*
X137747637Y-79395241D01*
X137547759Y-79195363D01*
X137312727Y-79038320D01*
X137051574Y-78930147D01*
X136774335Y-78875000D01*
X136491665Y-78875000D01*
X136214426Y-78930147D01*
X135953273Y-79038320D01*
X135718241Y-79195363D01*
X135518363Y-79395241D01*
X135361320Y-79630273D01*
X135253147Y-79891426D01*
X135248000Y-79917301D01*
X135242853Y-79891426D01*
X135134680Y-79630273D01*
X134977637Y-79395241D01*
X134777759Y-79195363D01*
X134542727Y-79038320D01*
X134281574Y-78930147D01*
X134004335Y-78875000D01*
X133721665Y-78875000D01*
X133444426Y-78930147D01*
X133183273Y-79038320D01*
X132948241Y-79195363D01*
X132748363Y-79395241D01*
X132591320Y-79630273D01*
X132483147Y-79891426D01*
X132478000Y-79917301D01*
X132472853Y-79891426D01*
X132364680Y-79630273D01*
X132207637Y-79395241D01*
X132007759Y-79195363D01*
X131772727Y-79038320D01*
X131511574Y-78930147D01*
X131234335Y-78875000D01*
X130951665Y-78875000D01*
X130674426Y-78930147D01*
X130413273Y-79038320D01*
X130178241Y-79195363D01*
X129978363Y-79395241D01*
X129821320Y-79630273D01*
X129713147Y-79891426D01*
X129658000Y-80168665D01*
X125067711Y-80168665D01*
X125088107Y-80138141D01*
X125286739Y-79658601D01*
X125388000Y-79149525D01*
X125388000Y-78630475D01*
X125286739Y-78121399D01*
X125088107Y-77641859D01*
X124799738Y-77210285D01*
X124432715Y-76843262D01*
X124001141Y-76554893D01*
X123521601Y-76356261D01*
X123012525Y-76255000D01*
X122493475Y-76255000D01*
X121984399Y-76356261D01*
X121504859Y-76554893D01*
X121073285Y-76843262D01*
X120706262Y-77210285D01*
X120417893Y-77641859D01*
X120219261Y-78121399D01*
X120118000Y-78630475D01*
X116713000Y-78630475D01*
X116713000Y-70104000D01*
X120427815Y-70104000D01*
X120456487Y-70395111D01*
X120541401Y-70675034D01*
X120679294Y-70933014D01*
X120864866Y-71159134D01*
X121090986Y-71344706D01*
X121145791Y-71374000D01*
X121090986Y-71403294D01*
X120864866Y-71588866D01*
X120679294Y-71814986D01*
X120541401Y-72072966D01*
X120456487Y-72352889D01*
X120427815Y-72644000D01*
X120456487Y-72935111D01*
X120541401Y-73215034D01*
X120679294Y-73473014D01*
X120864866Y-73699134D01*
X121090986Y-73884706D01*
X121348966Y-74022599D01*
X121628889Y-74107513D01*
X121847050Y-74129000D01*
X121992950Y-74129000D01*
X122211111Y-74107513D01*
X122491034Y-74022599D01*
X122749014Y-73884706D01*
X122975134Y-73699134D01*
X123160706Y-73473014D01*
X123298599Y-73215034D01*
X123383513Y-72935111D01*
X123412185Y-72644000D01*
X123383513Y-72352889D01*
X123298599Y-72072966D01*
X123160706Y-71814986D01*
X122975134Y-71588866D01*
X122749014Y-71403294D01*
X122694209Y-71374000D01*
X122749014Y-71344706D01*
X122975134Y-71159134D01*
X123160706Y-70933014D01*
X123298599Y-70675034D01*
X123383513Y-70395111D01*
X123412185Y-70104000D01*
X123383513Y-69812889D01*
X123298599Y-69532966D01*
X123160706Y-69274986D01*
X122975134Y-69048866D01*
X122749014Y-68863294D01*
X122684477Y-68828799D01*
X122801355Y-68759178D01*
X123017588Y-68564269D01*
X123191641Y-68330920D01*
X123316825Y-68068099D01*
X123361476Y-67920890D01*
X123240155Y-67691000D01*
X122047000Y-67691000D01*
X122047000Y-67711000D01*
X121793000Y-67711000D01*
X121793000Y-67691000D01*
X120599845Y-67691000D01*
X120478524Y-67920890D01*
X120523175Y-68068099D01*
X120648359Y-68330920D01*
X120822412Y-68564269D01*
X121038645Y-68759178D01*
X121155523Y-68828799D01*
X121090986Y-68863294D01*
X120864866Y-69048866D01*
X120679294Y-69274986D01*
X120541401Y-69532966D01*
X120456487Y-69812889D01*
X120427815Y-70104000D01*
X116713000Y-70104000D01*
X116713000Y-59055000D01*
X117602000Y-59055000D01*
X117626776Y-59052560D01*
X117650601Y-59045333D01*
X117672557Y-59033597D01*
X117691803Y-59017803D01*
X117707597Y-58998557D01*
X117719333Y-58976601D01*
X117726560Y-58952776D01*
X117729000Y-58928000D01*
X117729000Y-57404000D01*
X120427815Y-57404000D01*
X120456487Y-57695111D01*
X120541401Y-57975034D01*
X120679294Y-58233014D01*
X120864866Y-58459134D01*
X121090986Y-58644706D01*
X121145791Y-58674000D01*
X121090986Y-58703294D01*
X120864866Y-58888866D01*
X120679294Y-59114986D01*
X120541401Y-59372966D01*
X120456487Y-59652889D01*
X120427815Y-59944000D01*
X120456487Y-60235111D01*
X120541401Y-60515034D01*
X120679294Y-60773014D01*
X120864866Y-60999134D01*
X121090986Y-61184706D01*
X121145791Y-61214000D01*
X121090986Y-61243294D01*
X120864866Y-61428866D01*
X120679294Y-61654986D01*
X120541401Y-61912966D01*
X120456487Y-62192889D01*
X120427815Y-62484000D01*
X120456487Y-62775111D01*
X120541401Y-63055034D01*
X120679294Y-63313014D01*
X120864866Y-63539134D01*
X121090986Y-63724706D01*
X121145791Y-63754000D01*
X121090986Y-63783294D01*
X120864866Y-63968866D01*
X120679294Y-64194986D01*
X120541401Y-64452966D01*
X120456487Y-64732889D01*
X120427815Y-65024000D01*
X120456487Y-65315111D01*
X120541401Y-65595034D01*
X120679294Y-65853014D01*
X120864866Y-66079134D01*
X121090986Y-66264706D01*
X121155523Y-66299201D01*
X121038645Y-66368822D01*
X120822412Y-66563731D01*
X120648359Y-66797080D01*
X120523175Y-67059901D01*
X120478524Y-67207110D01*
X120599845Y-67437000D01*
X121793000Y-67437000D01*
X121793000Y-67417000D01*
X122047000Y-67417000D01*
X122047000Y-67437000D01*
X123240155Y-67437000D01*
X123361476Y-67207110D01*
X123316825Y-67059901D01*
X123191641Y-66797080D01*
X123017588Y-66563731D01*
X122801355Y-66368822D01*
X122684477Y-66299201D01*
X122749014Y-66264706D01*
X122975134Y-66079134D01*
X123160706Y-65853014D01*
X123298599Y-65595034D01*
X123383513Y-65315111D01*
X123412185Y-65024000D01*
X123383513Y-64732889D01*
X123298599Y-64452966D01*
X123160706Y-64194986D01*
X122975134Y-63968866D01*
X122749014Y-63783294D01*
X122694209Y-63754000D01*
X122749014Y-63724706D01*
X122975134Y-63539134D01*
X123160706Y-63313014D01*
X123298599Y-63055034D01*
X123383513Y-62775111D01*
X123412185Y-62484000D01*
X123383513Y-62192889D01*
X123298599Y-61912966D01*
X123160706Y-61654986D01*
X122975134Y-61428866D01*
X122749014Y-61243294D01*
X122694209Y-61214000D01*
X122749014Y-61184706D01*
X122975134Y-60999134D01*
X123160706Y-60773014D01*
X123298599Y-60515034D01*
X123383513Y-60235111D01*
X123412185Y-59944000D01*
X123383513Y-59652889D01*
X123298599Y-59372966D01*
X123160706Y-59114986D01*
X122975134Y-58888866D01*
X122749014Y-58703294D01*
X122694209Y-58674000D01*
X122749014Y-58644706D01*
X122975134Y-58459134D01*
X123160706Y-58233014D01*
X123298599Y-57975034D01*
X123383513Y-57695111D01*
X123412185Y-57404000D01*
X123383513Y-57112889D01*
X123298599Y-56832966D01*
X123160706Y-56574986D01*
X122975134Y-56348866D01*
X122945313Y-56324393D01*
X123014180Y-56303502D01*
X123124494Y-56244537D01*
X123221185Y-56165185D01*
X123300537Y-56068494D01*
X123359502Y-55958180D01*
X123395812Y-55838482D01*
X123408072Y-55714000D01*
X123405000Y-55149750D01*
X123246250Y-54991000D01*
X122047000Y-54991000D01*
X122047000Y-55011000D01*
X121793000Y-55011000D01*
X121793000Y-54991000D01*
X120593750Y-54991000D01*
X120435000Y-55149750D01*
X120431928Y-55714000D01*
X120444188Y-55838482D01*
X120480498Y-55958180D01*
X120539463Y-56068494D01*
X120618815Y-56165185D01*
X120715506Y-56244537D01*
X120825820Y-56303502D01*
X120894687Y-56324393D01*
X120864866Y-56348866D01*
X120679294Y-56574986D01*
X120541401Y-56832966D01*
X120456487Y-57112889D01*
X120427815Y-57404000D01*
X117729000Y-57404000D01*
X117729000Y-54014000D01*
X120431928Y-54014000D01*
X120435000Y-54578250D01*
X120593750Y-54737000D01*
X121793000Y-54737000D01*
X121793000Y-53537750D01*
X122047000Y-53537750D01*
X122047000Y-54737000D01*
X123246250Y-54737000D01*
X123405000Y-54578250D01*
X123408072Y-54014000D01*
X123395812Y-53889518D01*
X123359502Y-53769820D01*
X123300537Y-53659506D01*
X123221185Y-53562815D01*
X123124494Y-53483463D01*
X123014180Y-53424498D01*
X122894482Y-53388188D01*
X122770000Y-53375928D01*
X122205750Y-53379000D01*
X122047000Y-53537750D01*
X121793000Y-53537750D01*
X121634250Y-53379000D01*
X121070000Y-53375928D01*
X120945518Y-53388188D01*
X120825820Y-53424498D01*
X120715506Y-53483463D01*
X120618815Y-53562815D01*
X120539463Y-53659506D01*
X120480498Y-53769820D01*
X120444188Y-53889518D01*
X120431928Y-54014000D01*
X117729000Y-54014000D01*
X117729000Y-48085224D01*
X150548381Y-48085224D01*
X150680317Y-48380312D01*
X151021045Y-48551159D01*
X151388557Y-48652250D01*
X151768729Y-48679701D01*
X152146951Y-48632457D01*
X152508690Y-48512333D01*
X152755683Y-48380312D01*
X152887619Y-48085224D01*
X151718000Y-46915605D01*
X150548381Y-48085224D01*
X117729000Y-48085224D01*
X117729000Y-46824000D01*
X126019928Y-46824000D01*
X126032188Y-46948482D01*
X126068498Y-47068180D01*
X126127463Y-47178494D01*
X126206815Y-47275185D01*
X126303506Y-47354537D01*
X126413820Y-47413502D01*
X126533518Y-47449812D01*
X126658000Y-47462072D01*
X127222250Y-47459000D01*
X127381000Y-47300250D01*
X127381000Y-46101000D01*
X126181750Y-46101000D01*
X126023000Y-46259750D01*
X126019928Y-46824000D01*
X117729000Y-46824000D01*
X117729000Y-45124000D01*
X126019928Y-45124000D01*
X126023000Y-45688250D01*
X126181750Y-45847000D01*
X127381000Y-45847000D01*
X127381000Y-44647750D01*
X127635000Y-44647750D01*
X127635000Y-45847000D01*
X127655000Y-45847000D01*
X127655000Y-46101000D01*
X127635000Y-46101000D01*
X127635000Y-47300250D01*
X127793750Y-47459000D01*
X128358000Y-47462072D01*
X128482482Y-47449812D01*
X128602180Y-47413502D01*
X128712494Y-47354537D01*
X128809185Y-47275185D01*
X128888537Y-47178494D01*
X128947502Y-47068180D01*
X128968393Y-46999313D01*
X128992866Y-47029134D01*
X129218986Y-47214706D01*
X129476966Y-47352599D01*
X129756889Y-47437513D01*
X129975050Y-47459000D01*
X130120950Y-47459000D01*
X130339111Y-47437513D01*
X130619034Y-47352599D01*
X130877014Y-47214706D01*
X131103134Y-47029134D01*
X131288706Y-46803014D01*
X131318000Y-46748209D01*
X131347294Y-46803014D01*
X131532866Y-47029134D01*
X131758986Y-47214706D01*
X132016966Y-47352599D01*
X132296889Y-47437513D01*
X132515050Y-47459000D01*
X132660950Y-47459000D01*
X132879111Y-47437513D01*
X133159034Y-47352599D01*
X133417014Y-47214706D01*
X133643134Y-47029134D01*
X133828706Y-46803014D01*
X133858000Y-46748209D01*
X133887294Y-46803014D01*
X134072866Y-47029134D01*
X134298986Y-47214706D01*
X134556966Y-47352599D01*
X134836889Y-47437513D01*
X135055050Y-47459000D01*
X135200950Y-47459000D01*
X135419111Y-47437513D01*
X135699034Y-47352599D01*
X135957014Y-47214706D01*
X136183134Y-47029134D01*
X136368706Y-46803014D01*
X136506599Y-46545034D01*
X136591513Y-46265111D01*
X136620185Y-45974000D01*
X139477815Y-45974000D01*
X139506487Y-46265111D01*
X139591401Y-46545034D01*
X139729294Y-46803014D01*
X139914866Y-47029134D01*
X140140986Y-47214706D01*
X140398966Y-47352599D01*
X140678889Y-47437513D01*
X140897050Y-47459000D01*
X141042950Y-47459000D01*
X141261111Y-47437513D01*
X141541034Y-47352599D01*
X141799014Y-47214706D01*
X142025134Y-47029134D01*
X142210706Y-46803014D01*
X142245201Y-46738477D01*
X142314822Y-46855355D01*
X142509731Y-47071588D01*
X142743080Y-47245641D01*
X143005901Y-47370825D01*
X143153110Y-47415476D01*
X143383000Y-47294155D01*
X143383000Y-46101000D01*
X143363000Y-46101000D01*
X143363000Y-45847000D01*
X143383000Y-45847000D01*
X143383000Y-44653845D01*
X143637000Y-44653845D01*
X143637000Y-45847000D01*
X143657000Y-45847000D01*
X143657000Y-46101000D01*
X143637000Y-46101000D01*
X143637000Y-47294155D01*
X143866890Y-47415476D01*
X144014099Y-47370825D01*
X144276920Y-47245641D01*
X144510269Y-47071588D01*
X144586034Y-46987534D01*
X144610498Y-47068180D01*
X144669463Y-47178494D01*
X144748815Y-47275185D01*
X144845506Y-47354537D01*
X144955820Y-47413502D01*
X145075518Y-47449812D01*
X145200000Y-47462072D01*
X146900000Y-47462072D01*
X147024482Y-47449812D01*
X147144180Y-47413502D01*
X147254494Y-47354537D01*
X147351185Y-47275185D01*
X147430537Y-47178494D01*
X147489502Y-47068180D01*
X147525812Y-46948482D01*
X147538072Y-46824000D01*
X147538072Y-46786729D01*
X149774299Y-46786729D01*
X149821543Y-47164951D01*
X149941667Y-47526690D01*
X150073688Y-47773683D01*
X150368776Y-47905619D01*
X151538395Y-46736000D01*
X151897605Y-46736000D01*
X153067224Y-47905619D01*
X153362312Y-47773683D01*
X153533159Y-47432955D01*
X153634250Y-47065443D01*
X153661701Y-46685271D01*
X153614457Y-46307049D01*
X153494333Y-45945310D01*
X153362312Y-45698317D01*
X153067224Y-45566381D01*
X151897605Y-46736000D01*
X151538395Y-46736000D01*
X150368776Y-45566381D01*
X150073688Y-45698317D01*
X149902841Y-46039045D01*
X149801750Y-46406557D01*
X149774299Y-46786729D01*
X147538072Y-46786729D01*
X147538072Y-45386776D01*
X150548381Y-45386776D01*
X151718000Y-46556395D01*
X152838395Y-45436000D01*
X154779928Y-45436000D01*
X154779928Y-48036000D01*
X154792188Y-48160482D01*
X154828498Y-48280180D01*
X154887463Y-48390494D01*
X154966815Y-48487185D01*
X155063506Y-48566537D01*
X155173820Y-48625502D01*
X155293518Y-48661812D01*
X155418000Y-48674072D01*
X158018000Y-48674072D01*
X158142482Y-48661812D01*
X158262180Y-48625502D01*
X158372494Y-48566537D01*
X158469185Y-48487185D01*
X158548537Y-48390494D01*
X158607502Y-48280180D01*
X158643812Y-48160482D01*
X158656072Y-48036000D01*
X158656072Y-45436000D01*
X158643812Y-45311518D01*
X158607502Y-45191820D01*
X158548537Y-45081506D01*
X158469185Y-44984815D01*
X158372494Y-44905463D01*
X158262180Y-44846498D01*
X158142482Y-44810188D01*
X158018000Y-44797928D01*
X155418000Y-44797928D01*
X155293518Y-44810188D01*
X155173820Y-44846498D01*
X155063506Y-44905463D01*
X154966815Y-44984815D01*
X154887463Y-45081506D01*
X154828498Y-45191820D01*
X154792188Y-45311518D01*
X154779928Y-45436000D01*
X152838395Y-45436000D01*
X152887619Y-45386776D01*
X152755683Y-45091688D01*
X152414955Y-44920841D01*
X152047443Y-44819750D01*
X151667271Y-44792299D01*
X151289049Y-44839543D01*
X150927310Y-44959667D01*
X150680317Y-45091688D01*
X150548381Y-45386776D01*
X147538072Y-45386776D01*
X147538072Y-45124000D01*
X147525812Y-44999518D01*
X147489502Y-44879820D01*
X147430537Y-44769506D01*
X147351185Y-44672815D01*
X147254494Y-44593463D01*
X147144180Y-44534498D01*
X147024482Y-44498188D01*
X146900000Y-44485928D01*
X145200000Y-44485928D01*
X145075518Y-44498188D01*
X144955820Y-44534498D01*
X144845506Y-44593463D01*
X144748815Y-44672815D01*
X144669463Y-44769506D01*
X144610498Y-44879820D01*
X144586034Y-44960466D01*
X144510269Y-44876412D01*
X144276920Y-44702359D01*
X144014099Y-44577175D01*
X143866890Y-44532524D01*
X143637000Y-44653845D01*
X143383000Y-44653845D01*
X143153110Y-44532524D01*
X143005901Y-44577175D01*
X142743080Y-44702359D01*
X142509731Y-44876412D01*
X142314822Y-45092645D01*
X142245201Y-45209523D01*
X142210706Y-45144986D01*
X142025134Y-44918866D01*
X141799014Y-44733294D01*
X141541034Y-44595401D01*
X141261111Y-44510487D01*
X141042950Y-44489000D01*
X140897050Y-44489000D01*
X140678889Y-44510487D01*
X140398966Y-44595401D01*
X140140986Y-44733294D01*
X139914866Y-44918866D01*
X139729294Y-45144986D01*
X139591401Y-45402966D01*
X139506487Y-45682889D01*
X139477815Y-45974000D01*
X136620185Y-45974000D01*
X136591513Y-45682889D01*
X136506599Y-45402966D01*
X136368706Y-45144986D01*
X136183134Y-44918866D01*
X135957014Y-44733294D01*
X135699034Y-44595401D01*
X135419111Y-44510487D01*
X135200950Y-44489000D01*
X135055050Y-44489000D01*
X134836889Y-44510487D01*
X134556966Y-44595401D01*
X134298986Y-44733294D01*
X134072866Y-44918866D01*
X133887294Y-45144986D01*
X133858000Y-45199791D01*
X133828706Y-45144986D01*
X133643134Y-44918866D01*
X133417014Y-44733294D01*
X133159034Y-44595401D01*
X132879111Y-44510487D01*
X132660950Y-44489000D01*
X132515050Y-44489000D01*
X132296889Y-44510487D01*
X132016966Y-44595401D01*
X131758986Y-44733294D01*
X131532866Y-44918866D01*
X131347294Y-45144986D01*
X131318000Y-45199791D01*
X131288706Y-45144986D01*
X131103134Y-44918866D01*
X130877014Y-44733294D01*
X130619034Y-44595401D01*
X130339111Y-44510487D01*
X130120950Y-44489000D01*
X129975050Y-44489000D01*
X129756889Y-44510487D01*
X129476966Y-44595401D01*
X129218986Y-44733294D01*
X128992866Y-44918866D01*
X128968393Y-44948687D01*
X128947502Y-44879820D01*
X128888537Y-44769506D01*
X128809185Y-44672815D01*
X128712494Y-44593463D01*
X128602180Y-44534498D01*
X128482482Y-44498188D01*
X128358000Y-44485928D01*
X127793750Y-44489000D01*
X127635000Y-44647750D01*
X127381000Y-44647750D01*
X127222250Y-44489000D01*
X126658000Y-44485928D01*
X126533518Y-44498188D01*
X126413820Y-44534498D01*
X126303506Y-44593463D01*
X126206815Y-44672815D01*
X126127463Y-44769506D01*
X126068498Y-44879820D01*
X126032188Y-44999518D01*
X126019928Y-45124000D01*
X117729000Y-45124000D01*
X117729000Y-43586000D01*
X159360001Y-43586000D01*
X159360001Y-53885469D01*
G36*
X99077248Y-44413500D02*
G01*
X103340000Y-44413500D01*
X103340000Y-44956000D01*
X103386105Y-45170110D01*
X103473095Y-45371111D01*
X103597627Y-45551279D01*
X103754915Y-45703690D01*
X103938914Y-45822487D01*
X104152062Y-45898268D01*
X104323000Y-45771734D01*
X104323000Y-45629596D01*
X104329765Y-45630307D01*
X104388034Y-45636020D01*
X104415730Y-45636020D01*
X104443256Y-45639014D01*
X104452123Y-45639046D01*
X104454217Y-45639039D01*
X104481863Y-45636235D01*
X104509649Y-45636429D01*
X104518474Y-45635564D01*
X104576703Y-45629444D01*
X104577000Y-45629383D01*
X104577000Y-45771734D01*
X104747781Y-45898152D01*
X104690472Y-46114867D01*
X105450000Y-46874395D01*
X106209528Y-46114867D01*
X106147035Y-45878550D01*
X105904322Y-45765150D01*
X105644151Y-45701281D01*
X105376518Y-45689396D01*
X105111709Y-45729952D01*
X105095026Y-45736010D01*
X105145085Y-45703690D01*
X105302373Y-45551279D01*
X105426905Y-45371111D01*
X105513895Y-45170110D01*
X105560000Y-44956000D01*
X105560000Y-44413500D01*
X107206772Y-44413500D01*
X107206772Y-43586000D01*
X110375745Y-43586000D01*
X110340000Y-43752000D01*
X110340000Y-44227000D01*
X110514950Y-44227000D01*
X110514950Y-44481000D01*
X110340000Y-44481000D01*
X110340000Y-44956000D01*
X110386105Y-45170110D01*
X110473095Y-45371111D01*
X110597627Y-45551279D01*
X110754915Y-45703690D01*
X110816847Y-45743676D01*
X110644151Y-45701281D01*
X110376518Y-45689396D01*
X110111709Y-45729952D01*
X109859900Y-45821391D01*
X109752965Y-45878550D01*
X109690472Y-46114867D01*
X110450000Y-46874395D01*
X111209528Y-46114867D01*
X111152219Y-45898152D01*
X111323000Y-45771734D01*
X111323000Y-45629596D01*
X111329765Y-45630307D01*
X111388034Y-45636020D01*
X111415730Y-45636020D01*
X111443256Y-45639014D01*
X111452123Y-45639046D01*
X111454217Y-45639039D01*
X111481863Y-45636235D01*
X111509649Y-45636429D01*
X111518474Y-45635564D01*
X111576703Y-45629444D01*
X111577000Y-45629383D01*
X111577000Y-45771734D01*
X111747938Y-45898268D01*
X111961086Y-45822487D01*
X112145085Y-45703690D01*
X112302373Y-45551279D01*
X112426905Y-45371111D01*
X112513895Y-45170110D01*
X112560000Y-44956000D01*
X112560000Y-44481000D01*
X112385050Y-44481000D01*
X112385050Y-44227000D01*
X112560000Y-44227000D01*
X112560000Y-43752000D01*
X112524255Y-43586000D01*
X116459000Y-43586000D01*
X116459000Y-57785000D01*
X115570000Y-57785000D01*
X115545224Y-57787440D01*
X115521399Y-57794667D01*
X115499443Y-57806403D01*
X115480197Y-57822197D01*
X115464403Y-57841443D01*
X115452667Y-57863399D01*
X115445440Y-57887224D01*
X115443000Y-57912000D01*
X115443000Y-82144000D01*
X98196000Y-82144000D01*
X98196000Y-47993133D01*
X104690472Y-47993133D01*
X104752965Y-48229450D01*
X104995678Y-48342850D01*
X105255849Y-48406719D01*
X105523482Y-48418604D01*
X105788291Y-48378048D01*
X106040100Y-48286609D01*
X106147035Y-48229450D01*
X106209528Y-47993133D01*
X109690472Y-47993133D01*
X109752965Y-48229450D01*
X109995678Y-48342850D01*
X110255849Y-48406719D01*
X110523482Y-48418604D01*
X110788291Y-48378048D01*
X111040100Y-48286609D01*
X111147035Y-48229450D01*
X111209528Y-47993133D01*
X110450000Y-47233605D01*
X109690472Y-47993133D01*
X106209528Y-47993133D01*
X105450000Y-47233605D01*
X104690472Y-47993133D01*
X98196000Y-47993133D01*
X98196000Y-47127482D01*
X104085396Y-47127482D01*
X104125952Y-47392291D01*
X104217391Y-47644100D01*
X104274550Y-47751035D01*
X104510867Y-47813528D01*
X105270395Y-47054000D01*
X105629605Y-47054000D01*
X106389133Y-47813528D01*
X106625450Y-47751035D01*
X106738850Y-47508322D01*
X106802719Y-47248151D01*
X106808077Y-47127482D01*
X109085396Y-47127482D01*
X109125952Y-47392291D01*
X109217391Y-47644100D01*
X109274550Y-47751035D01*
X109510867Y-47813528D01*
X110270395Y-47054000D01*
X110629605Y-47054000D01*
X111389133Y-47813528D01*
X111625450Y-47751035D01*
X111738850Y-47508322D01*
X111802719Y-47248151D01*
X111814604Y-46980518D01*
X111774048Y-46715709D01*
X111682609Y-46463900D01*
X111625450Y-46356965D01*
X111389133Y-46294472D01*
X110629605Y-47054000D01*
X110270395Y-47054000D01*
X109510867Y-46294472D01*
X109274550Y-46356965D01*
X109161150Y-46599678D01*
X109097281Y-46859849D01*
X109085396Y-47127482D01*
X106808077Y-47127482D01*
X106814604Y-46980518D01*
X106774048Y-46715709D01*
X106682609Y-46463900D01*
X106625450Y-46356965D01*
X106389133Y-46294472D01*
X105629605Y-47054000D01*
X105270395Y-47054000D01*
X104510867Y-46294472D01*
X104274550Y-46356965D01*
X104161150Y-46599678D01*
X104097281Y-46859849D01*
X104085396Y-47127482D01*
X98196000Y-47127482D01*
X98196000Y-43586000D01*
X99077248Y-43586000D01*
X99077248Y-44413500D01*
X99077248Y-44413500D01*
G37*
X99077248Y-44413500D02*
X103340000Y-44413500D01*
X103340000Y-44956000D01*
X103386105Y-45170110D01*
X103473095Y-45371111D01*
X103597627Y-45551279D01*
X103754915Y-45703690D01*
X103938914Y-45822487D01*
X104152062Y-45898268D01*
X104323000Y-45771734D01*
X104323000Y-45629596D01*
X104329765Y-45630307D01*
X104388034Y-45636020D01*
X104415730Y-45636020D01*
X104443256Y-45639014D01*
X104452123Y-45639046D01*
X104454217Y-45639039D01*
X104481863Y-45636235D01*
X104509649Y-45636429D01*
X104518474Y-45635564D01*
X104576703Y-45629444D01*
X104577000Y-45629383D01*
X104577000Y-45771734D01*
X104747781Y-45898152D01*
X104690472Y-46114867D01*
X105450000Y-46874395D01*
X106209528Y-46114867D01*
X106147035Y-45878550D01*
X105904322Y-45765150D01*
X105644151Y-45701281D01*
X105376518Y-45689396D01*
X105111709Y-45729952D01*
X105095026Y-45736010D01*
X105145085Y-45703690D01*
X105302373Y-45551279D01*
X105426905Y-45371111D01*
X105513895Y-45170110D01*
X105560000Y-44956000D01*
X105560000Y-44413500D01*
X107206772Y-44413500D01*
X107206772Y-43586000D01*
X110375745Y-43586000D01*
X110340000Y-43752000D01*
X110340000Y-44227000D01*
X110514950Y-44227000D01*
X110514950Y-44481000D01*
X110340000Y-44481000D01*
X110340000Y-44956000D01*
X110386105Y-45170110D01*
X110473095Y-45371111D01*
X110597627Y-45551279D01*
X110754915Y-45703690D01*
X110816847Y-45743676D01*
X110644151Y-45701281D01*
X110376518Y-45689396D01*
X110111709Y-45729952D01*
X109859900Y-45821391D01*
X109752965Y-45878550D01*
X109690472Y-46114867D01*
X110450000Y-46874395D01*
X111209528Y-46114867D01*
X111152219Y-45898152D01*
X111323000Y-45771734D01*
X111323000Y-45629596D01*
X111329765Y-45630307D01*
X111388034Y-45636020D01*
X111415730Y-45636020D01*
X111443256Y-45639014D01*
X111452123Y-45639046D01*
X111454217Y-45639039D01*
X111481863Y-45636235D01*
X111509649Y-45636429D01*
X111518474Y-45635564D01*
X111576703Y-45629444D01*
X111577000Y-45629383D01*
X111577000Y-45771734D01*
X111747938Y-45898268D01*
X111961086Y-45822487D01*
X112145085Y-45703690D01*
X112302373Y-45551279D01*
X112426905Y-45371111D01*
X112513895Y-45170110D01*
X112560000Y-44956000D01*
X112560000Y-44481000D01*
X112385050Y-44481000D01*
X112385050Y-44227000D01*
X112560000Y-44227000D01*
X112560000Y-43752000D01*
X112524255Y-43586000D01*
X116459000Y-43586000D01*
X116459000Y-57785000D01*
X115570000Y-57785000D01*
X115545224Y-57787440D01*
X115521399Y-57794667D01*
X115499443Y-57806403D01*
X115480197Y-57822197D01*
X115464403Y-57841443D01*
X115452667Y-57863399D01*
X115445440Y-57887224D01*
X115443000Y-57912000D01*
X115443000Y-82144000D01*
X98196000Y-82144000D01*
X98196000Y-47993133D01*
X104690472Y-47993133D01*
X104752965Y-48229450D01*
X104995678Y-48342850D01*
X105255849Y-48406719D01*
X105523482Y-48418604D01*
X105788291Y-48378048D01*
X106040100Y-48286609D01*
X106147035Y-48229450D01*
X106209528Y-47993133D01*
X109690472Y-47993133D01*
X109752965Y-48229450D01*
X109995678Y-48342850D01*
X110255849Y-48406719D01*
X110523482Y-48418604D01*
X110788291Y-48378048D01*
X111040100Y-48286609D01*
X111147035Y-48229450D01*
X111209528Y-47993133D01*
X110450000Y-47233605D01*
X109690472Y-47993133D01*
X106209528Y-47993133D01*
X105450000Y-47233605D01*
X104690472Y-47993133D01*
X98196000Y-47993133D01*
X98196000Y-47127482D01*
X104085396Y-47127482D01*
X104125952Y-47392291D01*
X104217391Y-47644100D01*
X104274550Y-47751035D01*
X104510867Y-47813528D01*
X105270395Y-47054000D01*
X105629605Y-47054000D01*
X106389133Y-47813528D01*
X106625450Y-47751035D01*
X106738850Y-47508322D01*
X106802719Y-47248151D01*
X106808077Y-47127482D01*
X109085396Y-47127482D01*
X109125952Y-47392291D01*
X109217391Y-47644100D01*
X109274550Y-47751035D01*
X109510867Y-47813528D01*
X110270395Y-47054000D01*
X110629605Y-47054000D01*
X111389133Y-47813528D01*
X111625450Y-47751035D01*
X111738850Y-47508322D01*
X111802719Y-47248151D01*
X111814604Y-46980518D01*
X111774048Y-46715709D01*
X111682609Y-46463900D01*
X111625450Y-46356965D01*
X111389133Y-46294472D01*
X110629605Y-47054000D01*
X110270395Y-47054000D01*
X109510867Y-46294472D01*
X109274550Y-46356965D01*
X109161150Y-46599678D01*
X109097281Y-46859849D01*
X109085396Y-47127482D01*
X106808077Y-47127482D01*
X106814604Y-46980518D01*
X106774048Y-46715709D01*
X106682609Y-46463900D01*
X106625450Y-46356965D01*
X106389133Y-46294472D01*
X105629605Y-47054000D01*
X105270395Y-47054000D01*
X104510867Y-46294472D01*
X104274550Y-46356965D01*
X104161150Y-46599678D01*
X104097281Y-46859849D01*
X104085396Y-47127482D01*
X98196000Y-47127482D01*
X98196000Y-43586000D01*
X99077248Y-43586000D01*
X99077248Y-44413500D01*
M02*
