M48
; DRILL file {KiCad (5.1.4)-1} date 18-Oct-19 17:06:05
; FORMAT={3:3/ absolute / metric / suppress leading zeros}
; #@! TF.CreationDate,2019-10-18T17:06:05-04:00
; #@! TF.GenerationSoftware,Kicad,Pcbnew,(5.1.4)-1
FMAT,2
METRIC,TZ
T1C0.400
T2C0.600
T3C0.850
T4C1.000
T5C1.300
T6C3.200
%
G90
G05
T1
X99060Y-81280
X102362Y-63754
X107696Y-57150
X112268Y-67564
X114554Y-81280
X119126Y-44450
X127270Y-75130
X132334Y-48514
X134366Y-48514
X134874Y-58166
X140970Y-48768
X145288Y-48768
T2
X104450Y-44354
X111450Y-44354
T3
X105450Y-47054
X110450Y-47054
T4
X127508Y-45974
X130048Y-45974
X132588Y-45974
X135128Y-45974
X158242Y-54864
X158242Y-57404
X158242Y-59944
X158242Y-62484
X158242Y-65024
X158242Y-67564
X158242Y-70104
X158242Y-72644
X140970Y-45974
X143510Y-45974
X146050Y-45974
X121920Y-54864
X121920Y-57404
X121920Y-59944
X121920Y-62484
X121920Y-65024
X121920Y-67564
X121920Y-70104
X121920Y-72644
X129708Y-77470
X131093Y-80310
X132478Y-77470
X133863Y-80310
X135248Y-77470
X136633Y-80310
X138018Y-77470
X139403Y-80310
X140788Y-77470
X142173Y-80310
X143558Y-77470
X144943Y-80310
X146328Y-77470
X147713Y-80310
X149098Y-77470
T5
X151718Y-46736
X156718Y-46736
T6
X122753Y-78890
X156053Y-78890
T0
M30
