G04 #@! TF.GenerationSoftware,KiCad,Pcbnew,(5.1.4)-1*
G04 #@! TF.CreationDate,2019-10-18T17:06:04-04:00*
G04 #@! TF.ProjectId,mtd415te,6d746434-3135-4746-952e-6b696361645f,rev?*
G04 #@! TF.SameCoordinates,Original*
G04 #@! TF.FileFunction,Profile,NP*
%FSLAX46Y46*%
G04 Gerber Fmt 4.6, Leading zero omitted, Abs format (unit mm)*
G04 Created by KiCad (PCBNEW (5.1.4)-1) date 2019-10-18 17:06:04*
%MOMM*%
%LPD*%
G04 APERTURE LIST*
%ADD10C,0.050000*%
%ADD11C,0.000100*%
G04 APERTURE END LIST*
D10*
X97536000Y-42926000D02*
X159004000Y-42926000D01*
X97536000Y-82804000D02*
X97536000Y-42926000D01*
X160020000Y-82804000D02*
X97536000Y-82804000D01*
X160020000Y-42926000D02*
X159004000Y-42926000D01*
X160020000Y-82804000D02*
X160020000Y-42926000D01*
D11*
X104750000Y-44004000D02*
X104750000Y-44704000D01*
X104450000Y-43704000D02*
G75*
G02X104750000Y-44004000I0J-300000D01*
G01*
X104150000Y-44004000D02*
G75*
G02X104450000Y-43704000I300000J0D01*
G01*
X104150000Y-44704000D02*
X104150000Y-44004000D01*
X104450000Y-45004000D02*
G75*
G02X104150000Y-44704000I0J300000D01*
G01*
X104750000Y-44704000D02*
G75*
G02X104450000Y-45004000I-300000J0D01*
G01*
X111750000Y-44004000D02*
X111750000Y-44704000D01*
X111450000Y-43704000D02*
G75*
G02X111750000Y-44004000I0J-300000D01*
G01*
X111150000Y-44004000D02*
G75*
G02X111450000Y-43704000I300000J0D01*
G01*
X111150000Y-44704000D02*
X111150000Y-44004000D01*
X111450000Y-45004000D02*
G75*
G02X111150000Y-44704000I0J300000D01*
G01*
X111750000Y-44704000D02*
G75*
G02X111450000Y-45004000I-300000J0D01*
G01*
D10*
X99975343Y-43353380D02*
X99975343Y-42353380D01*
X100356295Y-42353380D01*
X100451533Y-42401000D01*
X100499152Y-42448619D01*
X100546771Y-42543857D01*
X100546771Y-42686714D01*
X100499152Y-42781952D01*
X100451533Y-42829571D01*
X100356295Y-42877190D01*
X99975343Y-42877190D01*
X101546771Y-43258142D02*
X101499152Y-43305761D01*
X101356295Y-43353380D01*
X101261057Y-43353380D01*
X101118200Y-43305761D01*
X101022962Y-43210523D01*
X100975343Y-43115285D01*
X100927724Y-42924809D01*
X100927724Y-42781952D01*
X100975343Y-42591476D01*
X101022962Y-42496238D01*
X101118200Y-42401000D01*
X101261057Y-42353380D01*
X101356295Y-42353380D01*
X101499152Y-42401000D01*
X101546771Y-42448619D01*
X102308676Y-42829571D02*
X102451533Y-42877190D01*
X102499152Y-42924809D01*
X102546771Y-43020047D01*
X102546771Y-43162904D01*
X102499152Y-43258142D01*
X102451533Y-43305761D01*
X102356295Y-43353380D01*
X101975343Y-43353380D01*
X101975343Y-42353380D01*
X102308676Y-42353380D01*
X102403914Y-42401000D01*
X102451533Y-42448619D01*
X102499152Y-42543857D01*
X102499152Y-42639095D01*
X102451533Y-42734333D01*
X102403914Y-42781952D01*
X102308676Y-42829571D01*
X101975343Y-42829571D01*
X102737248Y-42116000D02*
X103642010Y-42116000D01*
X102975343Y-42829571D02*
X103308676Y-42829571D01*
X103451533Y-43353380D02*
X102975343Y-43353380D01*
X102975343Y-42353380D01*
X103451533Y-42353380D01*
X103642010Y-42116000D02*
X104642010Y-42116000D01*
X103880105Y-43353380D02*
X103880105Y-42353380D01*
X104118200Y-42353380D01*
X104261057Y-42401000D01*
X104356295Y-42496238D01*
X104403914Y-42591476D01*
X104451533Y-42781952D01*
X104451533Y-42924809D01*
X104403914Y-43115285D01*
X104356295Y-43210523D01*
X104261057Y-43305761D01*
X104118200Y-43353380D01*
X103880105Y-43353380D01*
X104642010Y-42116000D02*
X105642010Y-42116000D01*
X105403914Y-42401000D02*
X105308676Y-42353380D01*
X105165819Y-42353380D01*
X105022962Y-42401000D01*
X104927724Y-42496238D01*
X104880105Y-42591476D01*
X104832486Y-42781952D01*
X104832486Y-42924809D01*
X104880105Y-43115285D01*
X104927724Y-43210523D01*
X105022962Y-43305761D01*
X105165819Y-43353380D01*
X105261057Y-43353380D01*
X105403914Y-43305761D01*
X105451533Y-43258142D01*
X105451533Y-42924809D01*
X105261057Y-42924809D01*
X105642010Y-42116000D02*
X106546771Y-42116000D01*
X105880105Y-42829571D02*
X106213438Y-42829571D01*
X106356295Y-43353380D02*
X105880105Y-43353380D01*
X105880105Y-42353380D01*
X106356295Y-42353380D01*
M02*
