G04 #@! TF.GenerationSoftware,KiCad,Pcbnew,(5.1.4)-1*
G04 #@! TF.CreationDate,2019-10-18T17:06:04-04:00*
G04 #@! TF.ProjectId,mtd415te,6d746434-3135-4746-952e-6b696361645f,rev?*
G04 #@! TF.SameCoordinates,Original*
G04 #@! TF.FileFunction,Soldermask,Top*
G04 #@! TF.FilePolarity,Negative*
%FSLAX46Y46*%
G04 Gerber Fmt 4.6, Leading zero omitted, Abs format (unit mm)*
G04 Created by KiCad (PCBNEW (5.1.4)-1) date 2019-10-18 17:06:04*
%MOMM*%
%LPD*%
G04 APERTURE LIST*
%ADD10C,0.100000*%
G04 APERTURE END LIST*
D10*
G36*
X147961228Y-79491703D02*
G01*
X148116100Y-79555853D01*
X148255481Y-79648985D01*
X148374015Y-79767519D01*
X148467147Y-79906900D01*
X148531297Y-80061772D01*
X148564000Y-80226184D01*
X148564000Y-80393816D01*
X148531297Y-80558228D01*
X148467147Y-80713100D01*
X148374015Y-80852481D01*
X148255481Y-80971015D01*
X148116100Y-81064147D01*
X147961228Y-81128297D01*
X147796816Y-81161000D01*
X147629184Y-81161000D01*
X147464772Y-81128297D01*
X147309900Y-81064147D01*
X147170519Y-80971015D01*
X147051985Y-80852481D01*
X146958853Y-80713100D01*
X146894703Y-80558228D01*
X146862000Y-80393816D01*
X146862000Y-80226184D01*
X146894703Y-80061772D01*
X146958853Y-79906900D01*
X147051985Y-79767519D01*
X147170519Y-79648985D01*
X147309900Y-79555853D01*
X147464772Y-79491703D01*
X147629184Y-79459000D01*
X147796816Y-79459000D01*
X147961228Y-79491703D01*
X147961228Y-79491703D01*
G37*
G36*
X145191228Y-79491703D02*
G01*
X145346100Y-79555853D01*
X145485481Y-79648985D01*
X145604015Y-79767519D01*
X145697147Y-79906900D01*
X145761297Y-80061772D01*
X145794000Y-80226184D01*
X145794000Y-80393816D01*
X145761297Y-80558228D01*
X145697147Y-80713100D01*
X145604015Y-80852481D01*
X145485481Y-80971015D01*
X145346100Y-81064147D01*
X145191228Y-81128297D01*
X145026816Y-81161000D01*
X144859184Y-81161000D01*
X144694772Y-81128297D01*
X144539900Y-81064147D01*
X144400519Y-80971015D01*
X144281985Y-80852481D01*
X144188853Y-80713100D01*
X144124703Y-80558228D01*
X144092000Y-80393816D01*
X144092000Y-80226184D01*
X144124703Y-80061772D01*
X144188853Y-79906900D01*
X144281985Y-79767519D01*
X144400519Y-79648985D01*
X144539900Y-79555853D01*
X144694772Y-79491703D01*
X144859184Y-79459000D01*
X145026816Y-79459000D01*
X145191228Y-79491703D01*
X145191228Y-79491703D01*
G37*
G36*
X131341228Y-79491703D02*
G01*
X131496100Y-79555853D01*
X131635481Y-79648985D01*
X131754015Y-79767519D01*
X131847147Y-79906900D01*
X131911297Y-80061772D01*
X131944000Y-80226184D01*
X131944000Y-80393816D01*
X131911297Y-80558228D01*
X131847147Y-80713100D01*
X131754015Y-80852481D01*
X131635481Y-80971015D01*
X131496100Y-81064147D01*
X131341228Y-81128297D01*
X131176816Y-81161000D01*
X131009184Y-81161000D01*
X130844772Y-81128297D01*
X130689900Y-81064147D01*
X130550519Y-80971015D01*
X130431985Y-80852481D01*
X130338853Y-80713100D01*
X130274703Y-80558228D01*
X130242000Y-80393816D01*
X130242000Y-80226184D01*
X130274703Y-80061772D01*
X130338853Y-79906900D01*
X130431985Y-79767519D01*
X130550519Y-79648985D01*
X130689900Y-79555853D01*
X130844772Y-79491703D01*
X131009184Y-79459000D01*
X131176816Y-79459000D01*
X131341228Y-79491703D01*
X131341228Y-79491703D01*
G37*
G36*
X134111228Y-79491703D02*
G01*
X134266100Y-79555853D01*
X134405481Y-79648985D01*
X134524015Y-79767519D01*
X134617147Y-79906900D01*
X134681297Y-80061772D01*
X134714000Y-80226184D01*
X134714000Y-80393816D01*
X134681297Y-80558228D01*
X134617147Y-80713100D01*
X134524015Y-80852481D01*
X134405481Y-80971015D01*
X134266100Y-81064147D01*
X134111228Y-81128297D01*
X133946816Y-81161000D01*
X133779184Y-81161000D01*
X133614772Y-81128297D01*
X133459900Y-81064147D01*
X133320519Y-80971015D01*
X133201985Y-80852481D01*
X133108853Y-80713100D01*
X133044703Y-80558228D01*
X133012000Y-80393816D01*
X133012000Y-80226184D01*
X133044703Y-80061772D01*
X133108853Y-79906900D01*
X133201985Y-79767519D01*
X133320519Y-79648985D01*
X133459900Y-79555853D01*
X133614772Y-79491703D01*
X133779184Y-79459000D01*
X133946816Y-79459000D01*
X134111228Y-79491703D01*
X134111228Y-79491703D01*
G37*
G36*
X139651228Y-79491703D02*
G01*
X139806100Y-79555853D01*
X139945481Y-79648985D01*
X140064015Y-79767519D01*
X140157147Y-79906900D01*
X140221297Y-80061772D01*
X140254000Y-80226184D01*
X140254000Y-80393816D01*
X140221297Y-80558228D01*
X140157147Y-80713100D01*
X140064015Y-80852481D01*
X139945481Y-80971015D01*
X139806100Y-81064147D01*
X139651228Y-81128297D01*
X139486816Y-81161000D01*
X139319184Y-81161000D01*
X139154772Y-81128297D01*
X138999900Y-81064147D01*
X138860519Y-80971015D01*
X138741985Y-80852481D01*
X138648853Y-80713100D01*
X138584703Y-80558228D01*
X138552000Y-80393816D01*
X138552000Y-80226184D01*
X138584703Y-80061772D01*
X138648853Y-79906900D01*
X138741985Y-79767519D01*
X138860519Y-79648985D01*
X138999900Y-79555853D01*
X139154772Y-79491703D01*
X139319184Y-79459000D01*
X139486816Y-79459000D01*
X139651228Y-79491703D01*
X139651228Y-79491703D01*
G37*
G36*
X136881228Y-79491703D02*
G01*
X137036100Y-79555853D01*
X137175481Y-79648985D01*
X137294015Y-79767519D01*
X137387147Y-79906900D01*
X137451297Y-80061772D01*
X137484000Y-80226184D01*
X137484000Y-80393816D01*
X137451297Y-80558228D01*
X137387147Y-80713100D01*
X137294015Y-80852481D01*
X137175481Y-80971015D01*
X137036100Y-81064147D01*
X136881228Y-81128297D01*
X136716816Y-81161000D01*
X136549184Y-81161000D01*
X136384772Y-81128297D01*
X136229900Y-81064147D01*
X136090519Y-80971015D01*
X135971985Y-80852481D01*
X135878853Y-80713100D01*
X135814703Y-80558228D01*
X135782000Y-80393816D01*
X135782000Y-80226184D01*
X135814703Y-80061772D01*
X135878853Y-79906900D01*
X135971985Y-79767519D01*
X136090519Y-79648985D01*
X136229900Y-79555853D01*
X136384772Y-79491703D01*
X136549184Y-79459000D01*
X136716816Y-79459000D01*
X136881228Y-79491703D01*
X136881228Y-79491703D01*
G37*
G36*
X142421228Y-79491703D02*
G01*
X142576100Y-79555853D01*
X142715481Y-79648985D01*
X142834015Y-79767519D01*
X142927147Y-79906900D01*
X142991297Y-80061772D01*
X143024000Y-80226184D01*
X143024000Y-80393816D01*
X142991297Y-80558228D01*
X142927147Y-80713100D01*
X142834015Y-80852481D01*
X142715481Y-80971015D01*
X142576100Y-81064147D01*
X142421228Y-81128297D01*
X142256816Y-81161000D01*
X142089184Y-81161000D01*
X141924772Y-81128297D01*
X141769900Y-81064147D01*
X141630519Y-80971015D01*
X141511985Y-80852481D01*
X141418853Y-80713100D01*
X141354703Y-80558228D01*
X141322000Y-80393816D01*
X141322000Y-80226184D01*
X141354703Y-80061772D01*
X141418853Y-79906900D01*
X141511985Y-79767519D01*
X141630519Y-79648985D01*
X141769900Y-79555853D01*
X141924772Y-79491703D01*
X142089184Y-79459000D01*
X142256816Y-79459000D01*
X142421228Y-79491703D01*
X142421228Y-79491703D01*
G37*
G36*
X123351254Y-76917818D02*
G01*
X123711170Y-77066900D01*
X123724513Y-77072427D01*
X124060436Y-77296884D01*
X124346116Y-77582564D01*
X124436765Y-77718229D01*
X124570574Y-77918489D01*
X124725182Y-78291746D01*
X124804000Y-78687993D01*
X124804000Y-79092007D01*
X124725182Y-79488254D01*
X124609506Y-79767520D01*
X124570573Y-79861513D01*
X124346116Y-80197436D01*
X124060436Y-80483116D01*
X123724513Y-80707573D01*
X123724512Y-80707574D01*
X123724511Y-80707574D01*
X123351254Y-80862182D01*
X122955007Y-80941000D01*
X122550993Y-80941000D01*
X122154746Y-80862182D01*
X121781489Y-80707574D01*
X121781488Y-80707574D01*
X121781487Y-80707573D01*
X121445564Y-80483116D01*
X121159884Y-80197436D01*
X120935427Y-79861513D01*
X120896494Y-79767520D01*
X120780818Y-79488254D01*
X120702000Y-79092007D01*
X120702000Y-78687993D01*
X120780818Y-78291746D01*
X120935426Y-77918489D01*
X121069236Y-77718229D01*
X121159884Y-77582564D01*
X121445564Y-77296884D01*
X121781487Y-77072427D01*
X121794830Y-77066900D01*
X122154746Y-76917818D01*
X122550993Y-76839000D01*
X122955007Y-76839000D01*
X123351254Y-76917818D01*
X123351254Y-76917818D01*
G37*
G36*
X156651254Y-76917818D02*
G01*
X157011170Y-77066900D01*
X157024513Y-77072427D01*
X157360436Y-77296884D01*
X157646116Y-77582564D01*
X157736765Y-77718229D01*
X157870574Y-77918489D01*
X158025182Y-78291746D01*
X158104000Y-78687993D01*
X158104000Y-79092007D01*
X158025182Y-79488254D01*
X157909506Y-79767520D01*
X157870573Y-79861513D01*
X157646116Y-80197436D01*
X157360436Y-80483116D01*
X157024513Y-80707573D01*
X157024512Y-80707574D01*
X157024511Y-80707574D01*
X156651254Y-80862182D01*
X156255007Y-80941000D01*
X155850993Y-80941000D01*
X155454746Y-80862182D01*
X155081489Y-80707574D01*
X155081488Y-80707574D01*
X155081487Y-80707573D01*
X154745564Y-80483116D01*
X154459884Y-80197436D01*
X154235427Y-79861513D01*
X154196494Y-79767520D01*
X154080818Y-79488254D01*
X154002000Y-79092007D01*
X154002000Y-78687993D01*
X154080818Y-78291746D01*
X154235426Y-77918489D01*
X154369236Y-77718229D01*
X154459884Y-77582564D01*
X154745564Y-77296884D01*
X155081487Y-77072427D01*
X155094830Y-77066900D01*
X155454746Y-76917818D01*
X155850993Y-76839000D01*
X156255007Y-76839000D01*
X156651254Y-76917818D01*
X156651254Y-76917818D01*
G37*
G36*
X146576228Y-76651703D02*
G01*
X146731100Y-76715853D01*
X146870481Y-76808985D01*
X146989015Y-76927519D01*
X147082147Y-77066900D01*
X147146297Y-77221772D01*
X147179000Y-77386184D01*
X147179000Y-77553816D01*
X147146297Y-77718228D01*
X147082147Y-77873100D01*
X146989015Y-78012481D01*
X146870481Y-78131015D01*
X146731100Y-78224147D01*
X146576228Y-78288297D01*
X146411816Y-78321000D01*
X146244184Y-78321000D01*
X146079772Y-78288297D01*
X145924900Y-78224147D01*
X145785519Y-78131015D01*
X145666985Y-78012481D01*
X145573853Y-77873100D01*
X145509703Y-77718228D01*
X145477000Y-77553816D01*
X145477000Y-77386184D01*
X145509703Y-77221772D01*
X145573853Y-77066900D01*
X145666985Y-76927519D01*
X145785519Y-76808985D01*
X145924900Y-76715853D01*
X146079772Y-76651703D01*
X146244184Y-76619000D01*
X146411816Y-76619000D01*
X146576228Y-76651703D01*
X146576228Y-76651703D01*
G37*
G36*
X149949000Y-78321000D02*
G01*
X148247000Y-78321000D01*
X148247000Y-76619000D01*
X149949000Y-76619000D01*
X149949000Y-78321000D01*
X149949000Y-78321000D01*
G37*
G36*
X143806228Y-76651703D02*
G01*
X143961100Y-76715853D01*
X144100481Y-76808985D01*
X144219015Y-76927519D01*
X144312147Y-77066900D01*
X144376297Y-77221772D01*
X144409000Y-77386184D01*
X144409000Y-77553816D01*
X144376297Y-77718228D01*
X144312147Y-77873100D01*
X144219015Y-78012481D01*
X144100481Y-78131015D01*
X143961100Y-78224147D01*
X143806228Y-78288297D01*
X143641816Y-78321000D01*
X143474184Y-78321000D01*
X143309772Y-78288297D01*
X143154900Y-78224147D01*
X143015519Y-78131015D01*
X142896985Y-78012481D01*
X142803853Y-77873100D01*
X142739703Y-77718228D01*
X142707000Y-77553816D01*
X142707000Y-77386184D01*
X142739703Y-77221772D01*
X142803853Y-77066900D01*
X142896985Y-76927519D01*
X143015519Y-76808985D01*
X143154900Y-76715853D01*
X143309772Y-76651703D01*
X143474184Y-76619000D01*
X143641816Y-76619000D01*
X143806228Y-76651703D01*
X143806228Y-76651703D01*
G37*
G36*
X141036228Y-76651703D02*
G01*
X141191100Y-76715853D01*
X141330481Y-76808985D01*
X141449015Y-76927519D01*
X141542147Y-77066900D01*
X141606297Y-77221772D01*
X141639000Y-77386184D01*
X141639000Y-77553816D01*
X141606297Y-77718228D01*
X141542147Y-77873100D01*
X141449015Y-78012481D01*
X141330481Y-78131015D01*
X141191100Y-78224147D01*
X141036228Y-78288297D01*
X140871816Y-78321000D01*
X140704184Y-78321000D01*
X140539772Y-78288297D01*
X140384900Y-78224147D01*
X140245519Y-78131015D01*
X140126985Y-78012481D01*
X140033853Y-77873100D01*
X139969703Y-77718228D01*
X139937000Y-77553816D01*
X139937000Y-77386184D01*
X139969703Y-77221772D01*
X140033853Y-77066900D01*
X140126985Y-76927519D01*
X140245519Y-76808985D01*
X140384900Y-76715853D01*
X140539772Y-76651703D01*
X140704184Y-76619000D01*
X140871816Y-76619000D01*
X141036228Y-76651703D01*
X141036228Y-76651703D01*
G37*
G36*
X138266228Y-76651703D02*
G01*
X138421100Y-76715853D01*
X138560481Y-76808985D01*
X138679015Y-76927519D01*
X138772147Y-77066900D01*
X138836297Y-77221772D01*
X138869000Y-77386184D01*
X138869000Y-77553816D01*
X138836297Y-77718228D01*
X138772147Y-77873100D01*
X138679015Y-78012481D01*
X138560481Y-78131015D01*
X138421100Y-78224147D01*
X138266228Y-78288297D01*
X138101816Y-78321000D01*
X137934184Y-78321000D01*
X137769772Y-78288297D01*
X137614900Y-78224147D01*
X137475519Y-78131015D01*
X137356985Y-78012481D01*
X137263853Y-77873100D01*
X137199703Y-77718228D01*
X137167000Y-77553816D01*
X137167000Y-77386184D01*
X137199703Y-77221772D01*
X137263853Y-77066900D01*
X137356985Y-76927519D01*
X137475519Y-76808985D01*
X137614900Y-76715853D01*
X137769772Y-76651703D01*
X137934184Y-76619000D01*
X138101816Y-76619000D01*
X138266228Y-76651703D01*
X138266228Y-76651703D01*
G37*
G36*
X135496228Y-76651703D02*
G01*
X135651100Y-76715853D01*
X135790481Y-76808985D01*
X135909015Y-76927519D01*
X136002147Y-77066900D01*
X136066297Y-77221772D01*
X136099000Y-77386184D01*
X136099000Y-77553816D01*
X136066297Y-77718228D01*
X136002147Y-77873100D01*
X135909015Y-78012481D01*
X135790481Y-78131015D01*
X135651100Y-78224147D01*
X135496228Y-78288297D01*
X135331816Y-78321000D01*
X135164184Y-78321000D01*
X134999772Y-78288297D01*
X134844900Y-78224147D01*
X134705519Y-78131015D01*
X134586985Y-78012481D01*
X134493853Y-77873100D01*
X134429703Y-77718228D01*
X134397000Y-77553816D01*
X134397000Y-77386184D01*
X134429703Y-77221772D01*
X134493853Y-77066900D01*
X134586985Y-76927519D01*
X134705519Y-76808985D01*
X134844900Y-76715853D01*
X134999772Y-76651703D01*
X135164184Y-76619000D01*
X135331816Y-76619000D01*
X135496228Y-76651703D01*
X135496228Y-76651703D01*
G37*
G36*
X132726228Y-76651703D02*
G01*
X132881100Y-76715853D01*
X133020481Y-76808985D01*
X133139015Y-76927519D01*
X133232147Y-77066900D01*
X133296297Y-77221772D01*
X133329000Y-77386184D01*
X133329000Y-77553816D01*
X133296297Y-77718228D01*
X133232147Y-77873100D01*
X133139015Y-78012481D01*
X133020481Y-78131015D01*
X132881100Y-78224147D01*
X132726228Y-78288297D01*
X132561816Y-78321000D01*
X132394184Y-78321000D01*
X132229772Y-78288297D01*
X132074900Y-78224147D01*
X131935519Y-78131015D01*
X131816985Y-78012481D01*
X131723853Y-77873100D01*
X131659703Y-77718228D01*
X131627000Y-77553816D01*
X131627000Y-77386184D01*
X131659703Y-77221772D01*
X131723853Y-77066900D01*
X131816985Y-76927519D01*
X131935519Y-76808985D01*
X132074900Y-76715853D01*
X132229772Y-76651703D01*
X132394184Y-76619000D01*
X132561816Y-76619000D01*
X132726228Y-76651703D01*
X132726228Y-76651703D01*
G37*
G36*
X129956228Y-76651703D02*
G01*
X130111100Y-76715853D01*
X130250481Y-76808985D01*
X130369015Y-76927519D01*
X130462147Y-77066900D01*
X130526297Y-77221772D01*
X130559000Y-77386184D01*
X130559000Y-77553816D01*
X130526297Y-77718228D01*
X130462147Y-77873100D01*
X130369015Y-78012481D01*
X130250481Y-78131015D01*
X130111100Y-78224147D01*
X129956228Y-78288297D01*
X129791816Y-78321000D01*
X129624184Y-78321000D01*
X129459772Y-78288297D01*
X129304900Y-78224147D01*
X129165519Y-78131015D01*
X129046985Y-78012481D01*
X128953853Y-77873100D01*
X128889703Y-77718228D01*
X128857000Y-77553816D01*
X128857000Y-77386184D01*
X128889703Y-77221772D01*
X128953853Y-77066900D01*
X129046985Y-76927519D01*
X129165519Y-76808985D01*
X129304900Y-76715853D01*
X129459772Y-76651703D01*
X129624184Y-76619000D01*
X129791816Y-76619000D01*
X129956228Y-76651703D01*
X129956228Y-76651703D01*
G37*
G36*
X122030442Y-71749518D02*
G01*
X122096627Y-71756037D01*
X122266466Y-71807557D01*
X122422991Y-71891222D01*
X122458729Y-71920552D01*
X122560186Y-72003814D01*
X122643448Y-72105271D01*
X122672778Y-72141009D01*
X122756443Y-72297534D01*
X122807963Y-72467373D01*
X122825359Y-72644000D01*
X122807963Y-72820627D01*
X122756443Y-72990466D01*
X122672778Y-73146991D01*
X122643448Y-73182729D01*
X122560186Y-73284186D01*
X122458729Y-73367448D01*
X122422991Y-73396778D01*
X122266466Y-73480443D01*
X122096627Y-73531963D01*
X122030442Y-73538482D01*
X121964260Y-73545000D01*
X121875740Y-73545000D01*
X121809558Y-73538482D01*
X121743373Y-73531963D01*
X121573534Y-73480443D01*
X121417009Y-73396778D01*
X121381271Y-73367448D01*
X121279814Y-73284186D01*
X121196552Y-73182729D01*
X121167222Y-73146991D01*
X121083557Y-72990466D01*
X121032037Y-72820627D01*
X121014641Y-72644000D01*
X121032037Y-72467373D01*
X121083557Y-72297534D01*
X121167222Y-72141009D01*
X121196552Y-72105271D01*
X121279814Y-72003814D01*
X121381271Y-71920552D01*
X121417009Y-71891222D01*
X121573534Y-71807557D01*
X121743373Y-71756037D01*
X121809558Y-71749518D01*
X121875740Y-71743000D01*
X121964260Y-71743000D01*
X122030442Y-71749518D01*
X122030442Y-71749518D01*
G37*
G36*
X159143000Y-73545000D02*
G01*
X157341000Y-73545000D01*
X157341000Y-71743000D01*
X159143000Y-71743000D01*
X159143000Y-73545000D01*
X159143000Y-73545000D01*
G37*
G36*
X158352443Y-69209519D02*
G01*
X158418627Y-69216037D01*
X158588466Y-69267557D01*
X158744991Y-69351222D01*
X158780729Y-69380552D01*
X158882186Y-69463814D01*
X158965448Y-69565271D01*
X158994778Y-69601009D01*
X159078443Y-69757534D01*
X159129963Y-69927373D01*
X159147359Y-70104000D01*
X159129963Y-70280627D01*
X159078443Y-70450466D01*
X158994778Y-70606991D01*
X158965448Y-70642729D01*
X158882186Y-70744186D01*
X158792682Y-70817639D01*
X158744991Y-70856778D01*
X158588466Y-70940443D01*
X158418627Y-70991963D01*
X158352443Y-70998481D01*
X158286260Y-71005000D01*
X158197740Y-71005000D01*
X158131557Y-70998481D01*
X158065373Y-70991963D01*
X157895534Y-70940443D01*
X157739009Y-70856778D01*
X157691318Y-70817639D01*
X157601814Y-70744186D01*
X157518552Y-70642729D01*
X157489222Y-70606991D01*
X157405557Y-70450466D01*
X157354037Y-70280627D01*
X157336641Y-70104000D01*
X157354037Y-69927373D01*
X157405557Y-69757534D01*
X157489222Y-69601009D01*
X157518552Y-69565271D01*
X157601814Y-69463814D01*
X157703271Y-69380552D01*
X157739009Y-69351222D01*
X157895534Y-69267557D01*
X158065373Y-69216037D01*
X158131557Y-69209519D01*
X158197740Y-69203000D01*
X158286260Y-69203000D01*
X158352443Y-69209519D01*
X158352443Y-69209519D01*
G37*
G36*
X122030443Y-69209519D02*
G01*
X122096627Y-69216037D01*
X122266466Y-69267557D01*
X122422991Y-69351222D01*
X122458729Y-69380552D01*
X122560186Y-69463814D01*
X122643448Y-69565271D01*
X122672778Y-69601009D01*
X122756443Y-69757534D01*
X122807963Y-69927373D01*
X122825359Y-70104000D01*
X122807963Y-70280627D01*
X122756443Y-70450466D01*
X122672778Y-70606991D01*
X122643448Y-70642729D01*
X122560186Y-70744186D01*
X122470682Y-70817639D01*
X122422991Y-70856778D01*
X122266466Y-70940443D01*
X122096627Y-70991963D01*
X122030443Y-70998481D01*
X121964260Y-71005000D01*
X121875740Y-71005000D01*
X121809557Y-70998481D01*
X121743373Y-70991963D01*
X121573534Y-70940443D01*
X121417009Y-70856778D01*
X121369318Y-70817639D01*
X121279814Y-70744186D01*
X121196552Y-70642729D01*
X121167222Y-70606991D01*
X121083557Y-70450466D01*
X121032037Y-70280627D01*
X121014641Y-70104000D01*
X121032037Y-69927373D01*
X121083557Y-69757534D01*
X121167222Y-69601009D01*
X121196552Y-69565271D01*
X121279814Y-69463814D01*
X121381271Y-69380552D01*
X121417009Y-69351222D01*
X121573534Y-69267557D01*
X121743373Y-69216037D01*
X121809557Y-69209519D01*
X121875740Y-69203000D01*
X121964260Y-69203000D01*
X122030443Y-69209519D01*
X122030443Y-69209519D01*
G37*
G36*
X110820468Y-69824065D02*
G01*
X110859138Y-69835796D01*
X110894777Y-69854846D01*
X110926017Y-69880483D01*
X110951654Y-69911723D01*
X110970704Y-69947362D01*
X110982435Y-69986032D01*
X110987000Y-70032388D01*
X110987000Y-70683612D01*
X110982435Y-70729968D01*
X110970704Y-70768638D01*
X110951654Y-70804277D01*
X110926017Y-70835517D01*
X110894777Y-70861154D01*
X110859138Y-70880204D01*
X110820468Y-70891935D01*
X110774112Y-70896500D01*
X109697888Y-70896500D01*
X109651532Y-70891935D01*
X109612862Y-70880204D01*
X109577223Y-70861154D01*
X109545983Y-70835517D01*
X109520346Y-70804277D01*
X109501296Y-70768638D01*
X109489565Y-70729968D01*
X109485000Y-70683612D01*
X109485000Y-70032388D01*
X109489565Y-69986032D01*
X109501296Y-69947362D01*
X109520346Y-69911723D01*
X109545983Y-69880483D01*
X109577223Y-69854846D01*
X109612862Y-69835796D01*
X109651532Y-69824065D01*
X109697888Y-69819500D01*
X110774112Y-69819500D01*
X110820468Y-69824065D01*
X110820468Y-69824065D01*
G37*
G36*
X110820468Y-67949065D02*
G01*
X110859138Y-67960796D01*
X110894777Y-67979846D01*
X110926017Y-68005483D01*
X110951654Y-68036723D01*
X110970704Y-68072362D01*
X110982435Y-68111032D01*
X110987000Y-68157388D01*
X110987000Y-68808612D01*
X110982435Y-68854968D01*
X110970704Y-68893638D01*
X110951654Y-68929277D01*
X110926017Y-68960517D01*
X110894777Y-68986154D01*
X110859138Y-69005204D01*
X110820468Y-69016935D01*
X110774112Y-69021500D01*
X109697888Y-69021500D01*
X109651532Y-69016935D01*
X109612862Y-69005204D01*
X109577223Y-68986154D01*
X109545983Y-68960517D01*
X109520346Y-68929277D01*
X109501296Y-68893638D01*
X109489565Y-68854968D01*
X109485000Y-68808612D01*
X109485000Y-68157388D01*
X109489565Y-68111032D01*
X109501296Y-68072362D01*
X109520346Y-68036723D01*
X109545983Y-68005483D01*
X109577223Y-67979846D01*
X109612862Y-67960796D01*
X109651532Y-67949065D01*
X109697888Y-67944500D01*
X110774112Y-67944500D01*
X110820468Y-67949065D01*
X110820468Y-67949065D01*
G37*
G36*
X158352443Y-66669519D02*
G01*
X158418627Y-66676037D01*
X158588466Y-66727557D01*
X158744991Y-66811222D01*
X158780729Y-66840552D01*
X158882186Y-66923814D01*
X158965448Y-67025271D01*
X158994778Y-67061009D01*
X159078443Y-67217534D01*
X159129963Y-67387373D01*
X159147359Y-67564000D01*
X159129963Y-67740627D01*
X159078443Y-67910466D01*
X158994778Y-68066991D01*
X158990370Y-68072362D01*
X158882186Y-68204186D01*
X158780729Y-68287448D01*
X158744991Y-68316778D01*
X158588466Y-68400443D01*
X158418627Y-68451963D01*
X158352442Y-68458482D01*
X158286260Y-68465000D01*
X158197740Y-68465000D01*
X158131558Y-68458482D01*
X158065373Y-68451963D01*
X157895534Y-68400443D01*
X157739009Y-68316778D01*
X157703271Y-68287448D01*
X157601814Y-68204186D01*
X157493630Y-68072362D01*
X157489222Y-68066991D01*
X157405557Y-67910466D01*
X157354037Y-67740627D01*
X157336641Y-67564000D01*
X157354037Y-67387373D01*
X157405557Y-67217534D01*
X157489222Y-67061009D01*
X157518552Y-67025271D01*
X157601814Y-66923814D01*
X157703271Y-66840552D01*
X157739009Y-66811222D01*
X157895534Y-66727557D01*
X158065373Y-66676037D01*
X158131557Y-66669519D01*
X158197740Y-66663000D01*
X158286260Y-66663000D01*
X158352443Y-66669519D01*
X158352443Y-66669519D01*
G37*
G36*
X122030443Y-66669519D02*
G01*
X122096627Y-66676037D01*
X122266466Y-66727557D01*
X122422991Y-66811222D01*
X122458729Y-66840552D01*
X122560186Y-66923814D01*
X122643448Y-67025271D01*
X122672778Y-67061009D01*
X122756443Y-67217534D01*
X122807963Y-67387373D01*
X122825359Y-67564000D01*
X122807963Y-67740627D01*
X122756443Y-67910466D01*
X122672778Y-68066991D01*
X122668370Y-68072362D01*
X122560186Y-68204186D01*
X122458729Y-68287448D01*
X122422991Y-68316778D01*
X122266466Y-68400443D01*
X122096627Y-68451963D01*
X122030442Y-68458482D01*
X121964260Y-68465000D01*
X121875740Y-68465000D01*
X121809558Y-68458482D01*
X121743373Y-68451963D01*
X121573534Y-68400443D01*
X121417009Y-68316778D01*
X121381271Y-68287448D01*
X121279814Y-68204186D01*
X121171630Y-68072362D01*
X121167222Y-68066991D01*
X121083557Y-67910466D01*
X121032037Y-67740627D01*
X121014641Y-67564000D01*
X121032037Y-67387373D01*
X121083557Y-67217534D01*
X121167222Y-67061009D01*
X121196552Y-67025271D01*
X121279814Y-66923814D01*
X121381271Y-66840552D01*
X121417009Y-66811222D01*
X121573534Y-66727557D01*
X121743373Y-66676037D01*
X121809557Y-66669519D01*
X121875740Y-66663000D01*
X121964260Y-66663000D01*
X122030443Y-66669519D01*
X122030443Y-66669519D01*
G37*
G36*
X119583400Y-66497400D02*
G01*
X117500200Y-66497400D01*
X117500200Y-65836600D01*
X119583400Y-65836600D01*
X119583400Y-66497400D01*
X119583400Y-66497400D01*
G37*
G36*
X114655800Y-66497400D02*
G01*
X112572600Y-66497400D01*
X112572600Y-65836600D01*
X114655800Y-65836600D01*
X114655800Y-66497400D01*
X114655800Y-66497400D01*
G37*
G36*
X122030443Y-64129519D02*
G01*
X122096627Y-64136037D01*
X122266466Y-64187557D01*
X122422991Y-64271222D01*
X122458729Y-64300552D01*
X122560186Y-64383814D01*
X122643448Y-64485271D01*
X122672778Y-64521009D01*
X122756443Y-64677534D01*
X122807963Y-64847373D01*
X122825359Y-65024000D01*
X122807963Y-65200627D01*
X122756443Y-65370466D01*
X122672778Y-65526991D01*
X122643448Y-65562729D01*
X122560186Y-65664186D01*
X122458729Y-65747448D01*
X122422991Y-65776778D01*
X122266466Y-65860443D01*
X122096627Y-65911963D01*
X122030443Y-65918481D01*
X121964260Y-65925000D01*
X121875740Y-65925000D01*
X121809557Y-65918481D01*
X121743373Y-65911963D01*
X121573534Y-65860443D01*
X121417009Y-65776778D01*
X121381271Y-65747448D01*
X121279814Y-65664186D01*
X121196552Y-65562729D01*
X121167222Y-65526991D01*
X121083557Y-65370466D01*
X121032037Y-65200627D01*
X121014641Y-65024000D01*
X121032037Y-64847373D01*
X121083557Y-64677534D01*
X121167222Y-64521009D01*
X121196552Y-64485271D01*
X121279814Y-64383814D01*
X121381271Y-64300552D01*
X121417009Y-64271222D01*
X121573534Y-64187557D01*
X121743373Y-64136037D01*
X121809557Y-64129519D01*
X121875740Y-64123000D01*
X121964260Y-64123000D01*
X122030443Y-64129519D01*
X122030443Y-64129519D01*
G37*
G36*
X158352443Y-64129519D02*
G01*
X158418627Y-64136037D01*
X158588466Y-64187557D01*
X158744991Y-64271222D01*
X158780729Y-64300552D01*
X158882186Y-64383814D01*
X158965448Y-64485271D01*
X158994778Y-64521009D01*
X159078443Y-64677534D01*
X159129963Y-64847373D01*
X159147359Y-65024000D01*
X159129963Y-65200627D01*
X159078443Y-65370466D01*
X158994778Y-65526991D01*
X158965448Y-65562729D01*
X158882186Y-65664186D01*
X158780729Y-65747448D01*
X158744991Y-65776778D01*
X158588466Y-65860443D01*
X158418627Y-65911963D01*
X158352443Y-65918481D01*
X158286260Y-65925000D01*
X158197740Y-65925000D01*
X158131557Y-65918481D01*
X158065373Y-65911963D01*
X157895534Y-65860443D01*
X157739009Y-65776778D01*
X157703271Y-65747448D01*
X157601814Y-65664186D01*
X157518552Y-65562729D01*
X157489222Y-65526991D01*
X157405557Y-65370466D01*
X157354037Y-65200627D01*
X157336641Y-65024000D01*
X157354037Y-64847373D01*
X157405557Y-64677534D01*
X157489222Y-64521009D01*
X157518552Y-64485271D01*
X157601814Y-64383814D01*
X157703271Y-64300552D01*
X157739009Y-64271222D01*
X157895534Y-64187557D01*
X158065373Y-64136037D01*
X158131557Y-64129519D01*
X158197740Y-64123000D01*
X158286260Y-64123000D01*
X158352443Y-64129519D01*
X158352443Y-64129519D01*
G37*
G36*
X111404600Y-65684600D02*
G01*
X108762600Y-65684600D01*
X108762600Y-60680400D01*
X111404600Y-60680400D01*
X111404600Y-65684600D01*
X111404600Y-65684600D01*
G37*
G36*
X106477000Y-65684600D02*
G01*
X103835000Y-65684600D01*
X103835000Y-60680400D01*
X106477000Y-60680400D01*
X106477000Y-65684600D01*
X106477000Y-65684600D01*
G37*
G36*
X119583400Y-65227400D02*
G01*
X117500200Y-65227400D01*
X117500200Y-64566600D01*
X119583400Y-64566600D01*
X119583400Y-65227400D01*
X119583400Y-65227400D01*
G37*
G36*
X114655800Y-65227400D02*
G01*
X112572600Y-65227400D01*
X112572600Y-64566600D01*
X114655800Y-64566600D01*
X114655800Y-65227400D01*
X114655800Y-65227400D01*
G37*
G36*
X114655800Y-63957400D02*
G01*
X112572600Y-63957400D01*
X112572600Y-63296600D01*
X114655800Y-63296600D01*
X114655800Y-63957400D01*
X114655800Y-63957400D01*
G37*
G36*
X119583400Y-63957400D02*
G01*
X117500200Y-63957400D01*
X117500200Y-63296600D01*
X119583400Y-63296600D01*
X119583400Y-63957400D01*
X119583400Y-63957400D01*
G37*
G36*
X158352442Y-61589518D02*
G01*
X158418627Y-61596037D01*
X158588466Y-61647557D01*
X158744991Y-61731222D01*
X158780729Y-61760552D01*
X158882186Y-61843814D01*
X158965448Y-61945271D01*
X158994778Y-61981009D01*
X159078443Y-62137534D01*
X159129963Y-62307373D01*
X159147359Y-62484000D01*
X159129963Y-62660627D01*
X159078443Y-62830466D01*
X158994778Y-62986991D01*
X158965448Y-63022729D01*
X158882186Y-63124186D01*
X158780729Y-63207448D01*
X158744991Y-63236778D01*
X158588466Y-63320443D01*
X158418627Y-63371963D01*
X158352442Y-63378482D01*
X158286260Y-63385000D01*
X158197740Y-63385000D01*
X158131558Y-63378482D01*
X158065373Y-63371963D01*
X157895534Y-63320443D01*
X157739009Y-63236778D01*
X157703271Y-63207448D01*
X157601814Y-63124186D01*
X157518552Y-63022729D01*
X157489222Y-62986991D01*
X157405557Y-62830466D01*
X157354037Y-62660627D01*
X157336641Y-62484000D01*
X157354037Y-62307373D01*
X157405557Y-62137534D01*
X157489222Y-61981009D01*
X157518552Y-61945271D01*
X157601814Y-61843814D01*
X157703271Y-61760552D01*
X157739009Y-61731222D01*
X157895534Y-61647557D01*
X158065373Y-61596037D01*
X158131558Y-61589518D01*
X158197740Y-61583000D01*
X158286260Y-61583000D01*
X158352442Y-61589518D01*
X158352442Y-61589518D01*
G37*
G36*
X122030442Y-61589518D02*
G01*
X122096627Y-61596037D01*
X122266466Y-61647557D01*
X122422991Y-61731222D01*
X122458729Y-61760552D01*
X122560186Y-61843814D01*
X122643448Y-61945271D01*
X122672778Y-61981009D01*
X122756443Y-62137534D01*
X122807963Y-62307373D01*
X122825359Y-62484000D01*
X122807963Y-62660627D01*
X122756443Y-62830466D01*
X122672778Y-62986991D01*
X122643448Y-63022729D01*
X122560186Y-63124186D01*
X122458729Y-63207448D01*
X122422991Y-63236778D01*
X122266466Y-63320443D01*
X122096627Y-63371963D01*
X122030442Y-63378482D01*
X121964260Y-63385000D01*
X121875740Y-63385000D01*
X121809558Y-63378482D01*
X121743373Y-63371963D01*
X121573534Y-63320443D01*
X121417009Y-63236778D01*
X121381271Y-63207448D01*
X121279814Y-63124186D01*
X121196552Y-63022729D01*
X121167222Y-62986991D01*
X121083557Y-62830466D01*
X121032037Y-62660627D01*
X121014641Y-62484000D01*
X121032037Y-62307373D01*
X121083557Y-62137534D01*
X121167222Y-61981009D01*
X121196552Y-61945271D01*
X121279814Y-61843814D01*
X121381271Y-61760552D01*
X121417009Y-61731222D01*
X121573534Y-61647557D01*
X121743373Y-61596037D01*
X121809558Y-61589518D01*
X121875740Y-61583000D01*
X121964260Y-61583000D01*
X122030442Y-61589518D01*
X122030442Y-61589518D01*
G37*
G36*
X114655800Y-62687400D02*
G01*
X112572600Y-62687400D01*
X112572600Y-62026600D01*
X114655800Y-62026600D01*
X114655800Y-62687400D01*
X114655800Y-62687400D01*
G37*
G36*
X119583400Y-62687400D02*
G01*
X117500200Y-62687400D01*
X117500200Y-62026600D01*
X119583400Y-62026600D01*
X119583400Y-62687400D01*
X119583400Y-62687400D01*
G37*
G36*
X158352443Y-59049519D02*
G01*
X158418627Y-59056037D01*
X158588466Y-59107557D01*
X158744991Y-59191222D01*
X158780729Y-59220552D01*
X158882186Y-59303814D01*
X158965448Y-59405271D01*
X158994778Y-59441009D01*
X159078443Y-59597534D01*
X159129963Y-59767373D01*
X159147359Y-59944000D01*
X159129963Y-60120627D01*
X159078443Y-60290466D01*
X158994778Y-60446991D01*
X158965448Y-60482729D01*
X158882186Y-60584186D01*
X158780729Y-60667448D01*
X158744991Y-60696778D01*
X158588466Y-60780443D01*
X158418627Y-60831963D01*
X158352443Y-60838481D01*
X158286260Y-60845000D01*
X158197740Y-60845000D01*
X158131557Y-60838481D01*
X158065373Y-60831963D01*
X157895534Y-60780443D01*
X157739009Y-60696778D01*
X157703271Y-60667448D01*
X157601814Y-60584186D01*
X157518552Y-60482729D01*
X157489222Y-60446991D01*
X157405557Y-60290466D01*
X157354037Y-60120627D01*
X157336641Y-59944000D01*
X157354037Y-59767373D01*
X157405557Y-59597534D01*
X157489222Y-59441009D01*
X157518552Y-59405271D01*
X157601814Y-59303814D01*
X157703271Y-59220552D01*
X157739009Y-59191222D01*
X157895534Y-59107557D01*
X158065373Y-59056037D01*
X158131557Y-59049519D01*
X158197740Y-59043000D01*
X158286260Y-59043000D01*
X158352443Y-59049519D01*
X158352443Y-59049519D01*
G37*
G36*
X122030443Y-59049519D02*
G01*
X122096627Y-59056037D01*
X122266466Y-59107557D01*
X122422991Y-59191222D01*
X122458729Y-59220552D01*
X122560186Y-59303814D01*
X122643448Y-59405271D01*
X122672778Y-59441009D01*
X122756443Y-59597534D01*
X122807963Y-59767373D01*
X122825359Y-59944000D01*
X122807963Y-60120627D01*
X122756443Y-60290466D01*
X122672778Y-60446991D01*
X122643448Y-60482729D01*
X122560186Y-60584186D01*
X122458729Y-60667448D01*
X122422991Y-60696778D01*
X122266466Y-60780443D01*
X122096627Y-60831963D01*
X122030443Y-60838481D01*
X121964260Y-60845000D01*
X121875740Y-60845000D01*
X121809557Y-60838481D01*
X121743373Y-60831963D01*
X121573534Y-60780443D01*
X121417009Y-60696778D01*
X121381271Y-60667448D01*
X121279814Y-60584186D01*
X121196552Y-60482729D01*
X121167222Y-60446991D01*
X121083557Y-60290466D01*
X121032037Y-60120627D01*
X121014641Y-59944000D01*
X121032037Y-59767373D01*
X121083557Y-59597534D01*
X121167222Y-59441009D01*
X121196552Y-59405271D01*
X121279814Y-59303814D01*
X121381271Y-59220552D01*
X121417009Y-59191222D01*
X121573534Y-59107557D01*
X121743373Y-59056037D01*
X121809557Y-59049519D01*
X121875740Y-59043000D01*
X121964260Y-59043000D01*
X122030443Y-59049519D01*
X122030443Y-59049519D01*
G37*
G36*
X122030442Y-56509518D02*
G01*
X122096627Y-56516037D01*
X122266466Y-56567557D01*
X122422991Y-56651222D01*
X122448445Y-56672112D01*
X122560186Y-56763814D01*
X122630632Y-56849654D01*
X122672778Y-56901009D01*
X122756443Y-57057534D01*
X122807963Y-57227373D01*
X122825359Y-57404000D01*
X122807963Y-57580627D01*
X122756443Y-57750466D01*
X122672778Y-57906991D01*
X122643448Y-57942729D01*
X122560186Y-58044186D01*
X122458729Y-58127448D01*
X122422991Y-58156778D01*
X122266466Y-58240443D01*
X122096627Y-58291963D01*
X122030443Y-58298481D01*
X121964260Y-58305000D01*
X121875740Y-58305000D01*
X121809557Y-58298481D01*
X121743373Y-58291963D01*
X121573534Y-58240443D01*
X121417009Y-58156778D01*
X121381271Y-58127448D01*
X121279814Y-58044186D01*
X121196552Y-57942729D01*
X121167222Y-57906991D01*
X121083557Y-57750466D01*
X121032037Y-57580627D01*
X121014641Y-57404000D01*
X121032037Y-57227373D01*
X121083557Y-57057534D01*
X121167222Y-56901009D01*
X121209368Y-56849654D01*
X121279814Y-56763814D01*
X121391555Y-56672112D01*
X121417009Y-56651222D01*
X121573534Y-56567557D01*
X121743373Y-56516037D01*
X121809558Y-56509518D01*
X121875740Y-56503000D01*
X121964260Y-56503000D01*
X122030442Y-56509518D01*
X122030442Y-56509518D01*
G37*
G36*
X158352442Y-56509518D02*
G01*
X158418627Y-56516037D01*
X158588466Y-56567557D01*
X158744991Y-56651222D01*
X158770445Y-56672112D01*
X158882186Y-56763814D01*
X158952632Y-56849654D01*
X158994778Y-56901009D01*
X159078443Y-57057534D01*
X159129963Y-57227373D01*
X159147359Y-57404000D01*
X159129963Y-57580627D01*
X159078443Y-57750466D01*
X158994778Y-57906991D01*
X158965448Y-57942729D01*
X158882186Y-58044186D01*
X158780729Y-58127448D01*
X158744991Y-58156778D01*
X158588466Y-58240443D01*
X158418627Y-58291963D01*
X158352443Y-58298481D01*
X158286260Y-58305000D01*
X158197740Y-58305000D01*
X158131557Y-58298481D01*
X158065373Y-58291963D01*
X157895534Y-58240443D01*
X157739009Y-58156778D01*
X157703271Y-58127448D01*
X157601814Y-58044186D01*
X157518552Y-57942729D01*
X157489222Y-57906991D01*
X157405557Y-57750466D01*
X157354037Y-57580627D01*
X157336641Y-57404000D01*
X157354037Y-57227373D01*
X157405557Y-57057534D01*
X157489222Y-56901009D01*
X157531368Y-56849654D01*
X157601814Y-56763814D01*
X157713555Y-56672112D01*
X157739009Y-56651222D01*
X157895534Y-56567557D01*
X158065373Y-56516037D01*
X158131558Y-56509518D01*
X158197740Y-56503000D01*
X158286260Y-56503000D01*
X158352442Y-56509518D01*
X158352442Y-56509518D01*
G37*
G36*
X102830968Y-55387565D02*
G01*
X102869638Y-55399296D01*
X102905277Y-55418346D01*
X102936517Y-55443983D01*
X102962154Y-55475223D01*
X102981204Y-55510862D01*
X102992935Y-55549532D01*
X102997500Y-55595888D01*
X102997500Y-56672112D01*
X102992935Y-56718468D01*
X102981204Y-56757138D01*
X102962154Y-56792777D01*
X102936517Y-56824017D01*
X102905277Y-56849654D01*
X102869638Y-56868704D01*
X102830968Y-56880435D01*
X102784612Y-56885000D01*
X102133388Y-56885000D01*
X102087032Y-56880435D01*
X102048362Y-56868704D01*
X102012723Y-56849654D01*
X101981483Y-56824017D01*
X101955846Y-56792777D01*
X101936796Y-56757138D01*
X101925065Y-56718468D01*
X101920500Y-56672112D01*
X101920500Y-55595888D01*
X101925065Y-55549532D01*
X101936796Y-55510862D01*
X101955846Y-55475223D01*
X101981483Y-55443983D01*
X102012723Y-55418346D01*
X102048362Y-55399296D01*
X102087032Y-55387565D01*
X102133388Y-55383000D01*
X102784612Y-55383000D01*
X102830968Y-55387565D01*
X102830968Y-55387565D01*
G37*
G36*
X100955968Y-55387565D02*
G01*
X100994638Y-55399296D01*
X101030277Y-55418346D01*
X101061517Y-55443983D01*
X101087154Y-55475223D01*
X101106204Y-55510862D01*
X101117935Y-55549532D01*
X101122500Y-55595888D01*
X101122500Y-56672112D01*
X101117935Y-56718468D01*
X101106204Y-56757138D01*
X101087154Y-56792777D01*
X101061517Y-56824017D01*
X101030277Y-56849654D01*
X100994638Y-56868704D01*
X100955968Y-56880435D01*
X100909612Y-56885000D01*
X100258388Y-56885000D01*
X100212032Y-56880435D01*
X100173362Y-56868704D01*
X100137723Y-56849654D01*
X100106483Y-56824017D01*
X100080846Y-56792777D01*
X100061796Y-56757138D01*
X100050065Y-56718468D01*
X100045500Y-56672112D01*
X100045500Y-55595888D01*
X100050065Y-55549532D01*
X100061796Y-55510862D01*
X100080846Y-55475223D01*
X100106483Y-55443983D01*
X100137723Y-55418346D01*
X100173362Y-55399296D01*
X100212032Y-55387565D01*
X100258388Y-55383000D01*
X100909612Y-55383000D01*
X100955968Y-55387565D01*
X100955968Y-55387565D01*
G37*
G36*
X158352443Y-53969519D02*
G01*
X158418627Y-53976037D01*
X158588466Y-54027557D01*
X158744991Y-54111222D01*
X158770445Y-54132112D01*
X158882186Y-54223814D01*
X158952632Y-54309654D01*
X158994778Y-54361009D01*
X159078443Y-54517534D01*
X159129963Y-54687373D01*
X159147359Y-54864000D01*
X159129963Y-55040627D01*
X159078443Y-55210466D01*
X158994778Y-55366991D01*
X158977893Y-55387565D01*
X158882186Y-55504186D01*
X158780729Y-55587448D01*
X158744991Y-55616778D01*
X158588466Y-55700443D01*
X158418627Y-55751963D01*
X158352443Y-55758481D01*
X158286260Y-55765000D01*
X158197740Y-55765000D01*
X158131557Y-55758481D01*
X158065373Y-55751963D01*
X157895534Y-55700443D01*
X157739009Y-55616778D01*
X157703271Y-55587448D01*
X157601814Y-55504186D01*
X157506107Y-55387565D01*
X157489222Y-55366991D01*
X157405557Y-55210466D01*
X157354037Y-55040627D01*
X157336641Y-54864000D01*
X157354037Y-54687373D01*
X157405557Y-54517534D01*
X157489222Y-54361009D01*
X157531368Y-54309654D01*
X157601814Y-54223814D01*
X157713555Y-54132112D01*
X157739009Y-54111222D01*
X157895534Y-54027557D01*
X158065373Y-53976037D01*
X158131557Y-53969519D01*
X158197740Y-53963000D01*
X158286260Y-53963000D01*
X158352443Y-53969519D01*
X158352443Y-53969519D01*
G37*
G36*
X122821000Y-55765000D02*
G01*
X121019000Y-55765000D01*
X121019000Y-53963000D01*
X122821000Y-53963000D01*
X122821000Y-55765000D01*
X122821000Y-55765000D01*
G37*
G36*
X102830968Y-52847565D02*
G01*
X102869638Y-52859296D01*
X102905277Y-52878346D01*
X102936517Y-52903983D01*
X102962154Y-52935223D01*
X102981204Y-52970862D01*
X102992935Y-53009532D01*
X102997500Y-53055888D01*
X102997500Y-54132112D01*
X102992935Y-54178468D01*
X102981204Y-54217138D01*
X102962154Y-54252777D01*
X102936517Y-54284017D01*
X102905277Y-54309654D01*
X102869638Y-54328704D01*
X102830968Y-54340435D01*
X102784612Y-54345000D01*
X102133388Y-54345000D01*
X102087032Y-54340435D01*
X102048362Y-54328704D01*
X102012723Y-54309654D01*
X101981483Y-54284017D01*
X101955846Y-54252777D01*
X101936796Y-54217138D01*
X101925065Y-54178468D01*
X101920500Y-54132112D01*
X101920500Y-53055888D01*
X101925065Y-53009532D01*
X101936796Y-52970862D01*
X101955846Y-52935223D01*
X101981483Y-52903983D01*
X102012723Y-52878346D01*
X102048362Y-52859296D01*
X102087032Y-52847565D01*
X102133388Y-52843000D01*
X102784612Y-52843000D01*
X102830968Y-52847565D01*
X102830968Y-52847565D01*
G37*
G36*
X100955968Y-52847565D02*
G01*
X100994638Y-52859296D01*
X101030277Y-52878346D01*
X101061517Y-52903983D01*
X101087154Y-52935223D01*
X101106204Y-52970862D01*
X101117935Y-53009532D01*
X101122500Y-53055888D01*
X101122500Y-54132112D01*
X101117935Y-54178468D01*
X101106204Y-54217138D01*
X101087154Y-54252777D01*
X101061517Y-54284017D01*
X101030277Y-54309654D01*
X100994638Y-54328704D01*
X100955968Y-54340435D01*
X100909612Y-54345000D01*
X100258388Y-54345000D01*
X100212032Y-54340435D01*
X100173362Y-54328704D01*
X100137723Y-54309654D01*
X100106483Y-54284017D01*
X100080846Y-54252777D01*
X100061796Y-54217138D01*
X100050065Y-54178468D01*
X100045500Y-54132112D01*
X100045500Y-53055888D01*
X100050065Y-53009532D01*
X100061796Y-52970862D01*
X100080846Y-52935223D01*
X100106483Y-52903983D01*
X100137723Y-52878346D01*
X100173362Y-52859296D01*
X100212032Y-52847565D01*
X100258388Y-52843000D01*
X100909612Y-52843000D01*
X100955968Y-52847565D01*
X100955968Y-52847565D01*
G37*
G36*
X136525200Y-53492600D02*
G01*
X134746800Y-53492600D01*
X134746800Y-52222200D01*
X136525200Y-52222200D01*
X136525200Y-53492600D01*
X136525200Y-53492600D01*
G37*
G36*
X145872468Y-52219565D02*
G01*
X145911138Y-52231296D01*
X145946777Y-52250346D01*
X145978017Y-52275983D01*
X146003654Y-52307223D01*
X146022704Y-52342862D01*
X146034435Y-52381532D01*
X146039000Y-52427888D01*
X146039000Y-53079112D01*
X146034435Y-53125468D01*
X146022704Y-53164138D01*
X146003654Y-53199777D01*
X145978017Y-53231017D01*
X145946777Y-53256654D01*
X145911138Y-53275704D01*
X145872468Y-53287435D01*
X145826112Y-53292000D01*
X144749888Y-53292000D01*
X144703532Y-53287435D01*
X144664862Y-53275704D01*
X144629223Y-53256654D01*
X144597983Y-53231017D01*
X144572346Y-53199777D01*
X144553296Y-53164138D01*
X144541565Y-53125468D01*
X144537000Y-53079112D01*
X144537000Y-52427888D01*
X144541565Y-52381532D01*
X144553296Y-52342862D01*
X144572346Y-52307223D01*
X144597983Y-52275983D01*
X144629223Y-52250346D01*
X144664862Y-52231296D01*
X144703532Y-52219565D01*
X144749888Y-52215000D01*
X145826112Y-52215000D01*
X145872468Y-52219565D01*
X145872468Y-52219565D01*
G37*
G36*
X143649000Y-53117000D02*
G01*
X141847000Y-53117000D01*
X141847000Y-52415000D01*
X143649000Y-52415000D01*
X143649000Y-53117000D01*
X143649000Y-53117000D01*
G37*
G36*
X107772468Y-51887065D02*
G01*
X107811138Y-51898796D01*
X107846777Y-51917846D01*
X107878017Y-51943483D01*
X107903654Y-51974723D01*
X107922704Y-52010362D01*
X107934435Y-52049032D01*
X107939000Y-52095388D01*
X107939000Y-52746612D01*
X107934435Y-52792968D01*
X107922704Y-52831638D01*
X107903654Y-52867277D01*
X107878017Y-52898517D01*
X107846777Y-52924154D01*
X107811138Y-52943204D01*
X107772468Y-52954935D01*
X107726112Y-52959500D01*
X106649888Y-52959500D01*
X106603532Y-52954935D01*
X106564862Y-52943204D01*
X106529223Y-52924154D01*
X106497983Y-52898517D01*
X106472346Y-52867277D01*
X106453296Y-52831638D01*
X106441565Y-52792968D01*
X106437000Y-52746612D01*
X106437000Y-52095388D01*
X106441565Y-52049032D01*
X106453296Y-52010362D01*
X106472346Y-51974723D01*
X106497983Y-51943483D01*
X106529223Y-51917846D01*
X106564862Y-51898796D01*
X106603532Y-51887065D01*
X106649888Y-51882500D01*
X107726112Y-51882500D01*
X107772468Y-51887065D01*
X107772468Y-51887065D01*
G37*
G36*
X110058468Y-51887065D02*
G01*
X110097138Y-51898796D01*
X110132777Y-51917846D01*
X110164017Y-51943483D01*
X110189654Y-51974723D01*
X110208704Y-52010362D01*
X110220435Y-52049032D01*
X110225000Y-52095388D01*
X110225000Y-52746612D01*
X110220435Y-52792968D01*
X110208704Y-52831638D01*
X110189654Y-52867277D01*
X110164017Y-52898517D01*
X110132777Y-52924154D01*
X110097138Y-52943204D01*
X110058468Y-52954935D01*
X110012112Y-52959500D01*
X108935888Y-52959500D01*
X108889532Y-52954935D01*
X108850862Y-52943204D01*
X108815223Y-52924154D01*
X108783983Y-52898517D01*
X108758346Y-52867277D01*
X108739296Y-52831638D01*
X108727565Y-52792968D01*
X108723000Y-52746612D01*
X108723000Y-52095388D01*
X108727565Y-52049032D01*
X108739296Y-52010362D01*
X108758346Y-51974723D01*
X108783983Y-51943483D01*
X108815223Y-51917846D01*
X108850862Y-51898796D01*
X108889532Y-51887065D01*
X108935888Y-51882500D01*
X110012112Y-51882500D01*
X110058468Y-51887065D01*
X110058468Y-51887065D01*
G37*
G36*
X133643468Y-51069565D02*
G01*
X133682138Y-51081296D01*
X133717777Y-51100346D01*
X133749017Y-51125983D01*
X133774654Y-51157223D01*
X133793704Y-51192862D01*
X133805435Y-51231532D01*
X133810000Y-51277888D01*
X133810000Y-52354112D01*
X133805435Y-52400468D01*
X133793704Y-52439138D01*
X133774654Y-52474777D01*
X133749017Y-52506017D01*
X133717777Y-52531654D01*
X133682138Y-52550704D01*
X133643468Y-52562435D01*
X133597112Y-52567000D01*
X132945888Y-52567000D01*
X132899532Y-52562435D01*
X132860862Y-52550704D01*
X132825223Y-52531654D01*
X132793983Y-52506017D01*
X132768346Y-52474777D01*
X132749296Y-52439138D01*
X132737565Y-52400468D01*
X132733000Y-52354112D01*
X132733000Y-51277888D01*
X132737565Y-51231532D01*
X132749296Y-51192862D01*
X132768346Y-51157223D01*
X132793983Y-51125983D01*
X132825223Y-51100346D01*
X132860862Y-51081296D01*
X132899532Y-51069565D01*
X132945888Y-51065000D01*
X133597112Y-51065000D01*
X133643468Y-51069565D01*
X133643468Y-51069565D01*
G37*
G36*
X131768468Y-51069565D02*
G01*
X131807138Y-51081296D01*
X131842777Y-51100346D01*
X131874017Y-51125983D01*
X131899654Y-51157223D01*
X131918704Y-51192862D01*
X131930435Y-51231532D01*
X131935000Y-51277888D01*
X131935000Y-52354112D01*
X131930435Y-52400468D01*
X131918704Y-52439138D01*
X131899654Y-52474777D01*
X131874017Y-52506017D01*
X131842777Y-52531654D01*
X131807138Y-52550704D01*
X131768468Y-52562435D01*
X131722112Y-52567000D01*
X131070888Y-52567000D01*
X131024532Y-52562435D01*
X130985862Y-52550704D01*
X130950223Y-52531654D01*
X130918983Y-52506017D01*
X130893346Y-52474777D01*
X130874296Y-52439138D01*
X130862565Y-52400468D01*
X130858000Y-52354112D01*
X130858000Y-51277888D01*
X130862565Y-51231532D01*
X130874296Y-51192862D01*
X130893346Y-51157223D01*
X130918983Y-51125983D01*
X130950223Y-51100346D01*
X130985862Y-51081296D01*
X131024532Y-51069565D01*
X131070888Y-51065000D01*
X131722112Y-51065000D01*
X131768468Y-51069565D01*
X131768468Y-51069565D01*
G37*
G36*
X101168468Y-50949565D02*
G01*
X101207138Y-50961296D01*
X101242777Y-50980346D01*
X101274017Y-51005983D01*
X101299654Y-51037223D01*
X101318704Y-51072862D01*
X101330435Y-51111532D01*
X101335000Y-51157888D01*
X101335000Y-51809112D01*
X101330435Y-51855468D01*
X101318704Y-51894138D01*
X101299654Y-51929777D01*
X101274017Y-51961017D01*
X101242777Y-51986654D01*
X101207138Y-52005704D01*
X101168468Y-52017435D01*
X101122112Y-52022000D01*
X100045888Y-52022000D01*
X99999532Y-52017435D01*
X99960862Y-52005704D01*
X99925223Y-51986654D01*
X99893983Y-51961017D01*
X99868346Y-51929777D01*
X99849296Y-51894138D01*
X99837565Y-51855468D01*
X99833000Y-51809112D01*
X99833000Y-51157888D01*
X99837565Y-51111532D01*
X99849296Y-51072862D01*
X99868346Y-51037223D01*
X99893983Y-51005983D01*
X99925223Y-50980346D01*
X99960862Y-50961296D01*
X99999532Y-50949565D01*
X100045888Y-50945000D01*
X101122112Y-50945000D01*
X101168468Y-50949565D01*
X101168468Y-50949565D01*
G37*
G36*
X145872468Y-50344565D02*
G01*
X145911138Y-50356296D01*
X145946777Y-50375346D01*
X145978017Y-50400983D01*
X146003654Y-50432223D01*
X146022704Y-50467862D01*
X146034435Y-50506532D01*
X146039000Y-50552888D01*
X146039000Y-51204112D01*
X146034435Y-51250468D01*
X146022704Y-51289138D01*
X146003654Y-51324777D01*
X145978017Y-51356017D01*
X145946777Y-51381654D01*
X145911138Y-51400704D01*
X145872468Y-51412435D01*
X145826112Y-51417000D01*
X144749888Y-51417000D01*
X144703532Y-51412435D01*
X144664862Y-51400704D01*
X144629223Y-51381654D01*
X144597983Y-51356017D01*
X144572346Y-51324777D01*
X144553296Y-51289138D01*
X144541565Y-51250468D01*
X144537000Y-51204112D01*
X144537000Y-50552888D01*
X144541565Y-50506532D01*
X144553296Y-50467862D01*
X144572346Y-50432223D01*
X144597983Y-50400983D01*
X144629223Y-50375346D01*
X144664862Y-50356296D01*
X144703532Y-50344565D01*
X144749888Y-50340000D01*
X145826112Y-50340000D01*
X145872468Y-50344565D01*
X145872468Y-50344565D01*
G37*
G36*
X136525200Y-51409800D02*
G01*
X136067600Y-51409800D01*
X136067600Y-50139400D01*
X136525200Y-50139400D01*
X136525200Y-51409800D01*
X136525200Y-51409800D01*
G37*
G36*
X135204400Y-51409800D02*
G01*
X134746800Y-51409800D01*
X134746800Y-50139400D01*
X135204400Y-50139400D01*
X135204400Y-51409800D01*
X135204400Y-51409800D01*
G37*
G36*
X114006968Y-49799565D02*
G01*
X114045638Y-49811296D01*
X114081277Y-49830346D01*
X114112517Y-49855983D01*
X114138154Y-49887223D01*
X114157204Y-49922862D01*
X114168935Y-49961532D01*
X114173500Y-50007888D01*
X114173500Y-51084112D01*
X114168935Y-51130468D01*
X114157204Y-51169138D01*
X114138154Y-51204777D01*
X114112517Y-51236017D01*
X114081277Y-51261654D01*
X114045638Y-51280704D01*
X114006968Y-51292435D01*
X113960612Y-51297000D01*
X113309388Y-51297000D01*
X113263032Y-51292435D01*
X113224362Y-51280704D01*
X113188723Y-51261654D01*
X113157483Y-51236017D01*
X113131846Y-51204777D01*
X113112796Y-51169138D01*
X113101065Y-51130468D01*
X113096500Y-51084112D01*
X113096500Y-50007888D01*
X113101065Y-49961532D01*
X113112796Y-49922862D01*
X113131846Y-49887223D01*
X113157483Y-49855983D01*
X113188723Y-49830346D01*
X113224362Y-49811296D01*
X113263032Y-49799565D01*
X113309388Y-49795000D01*
X113960612Y-49795000D01*
X114006968Y-49799565D01*
X114006968Y-49799565D01*
G37*
G36*
X112131968Y-49799565D02*
G01*
X112170638Y-49811296D01*
X112206277Y-49830346D01*
X112237517Y-49855983D01*
X112263154Y-49887223D01*
X112282204Y-49922862D01*
X112293935Y-49961532D01*
X112298500Y-50007888D01*
X112298500Y-51084112D01*
X112293935Y-51130468D01*
X112282204Y-51169138D01*
X112263154Y-51204777D01*
X112237517Y-51236017D01*
X112206277Y-51261654D01*
X112170638Y-51280704D01*
X112131968Y-51292435D01*
X112085612Y-51297000D01*
X111434388Y-51297000D01*
X111388032Y-51292435D01*
X111349362Y-51280704D01*
X111313723Y-51261654D01*
X111282483Y-51236017D01*
X111256846Y-51204777D01*
X111237796Y-51169138D01*
X111226065Y-51130468D01*
X111221500Y-51084112D01*
X111221500Y-50007888D01*
X111226065Y-49961532D01*
X111237796Y-49922862D01*
X111256846Y-49887223D01*
X111282483Y-49855983D01*
X111313723Y-49830346D01*
X111349362Y-49811296D01*
X111388032Y-49799565D01*
X111434388Y-49795000D01*
X112085612Y-49795000D01*
X112131968Y-49799565D01*
X112131968Y-49799565D01*
G37*
G36*
X103495968Y-49799565D02*
G01*
X103534638Y-49811296D01*
X103570277Y-49830346D01*
X103601517Y-49855983D01*
X103627154Y-49887223D01*
X103646204Y-49922862D01*
X103657935Y-49961532D01*
X103662500Y-50007888D01*
X103662500Y-51084112D01*
X103657935Y-51130468D01*
X103646204Y-51169138D01*
X103627154Y-51204777D01*
X103601517Y-51236017D01*
X103570277Y-51261654D01*
X103534638Y-51280704D01*
X103495968Y-51292435D01*
X103449612Y-51297000D01*
X102798388Y-51297000D01*
X102752032Y-51292435D01*
X102713362Y-51280704D01*
X102677723Y-51261654D01*
X102646483Y-51236017D01*
X102620846Y-51204777D01*
X102601796Y-51169138D01*
X102590065Y-51130468D01*
X102585500Y-51084112D01*
X102585500Y-50007888D01*
X102590065Y-49961532D01*
X102601796Y-49922862D01*
X102620846Y-49887223D01*
X102646483Y-49855983D01*
X102677723Y-49830346D01*
X102713362Y-49811296D01*
X102752032Y-49799565D01*
X102798388Y-49795000D01*
X103449612Y-49795000D01*
X103495968Y-49799565D01*
X103495968Y-49799565D01*
G37*
G36*
X105370968Y-49799565D02*
G01*
X105409638Y-49811296D01*
X105445277Y-49830346D01*
X105476517Y-49855983D01*
X105502154Y-49887223D01*
X105521204Y-49922862D01*
X105532935Y-49961532D01*
X105537500Y-50007888D01*
X105537500Y-51084112D01*
X105532935Y-51130468D01*
X105521204Y-51169138D01*
X105502154Y-51204777D01*
X105476517Y-51236017D01*
X105445277Y-51261654D01*
X105409638Y-51280704D01*
X105370968Y-51292435D01*
X105324612Y-51297000D01*
X104673388Y-51297000D01*
X104627032Y-51292435D01*
X104588362Y-51280704D01*
X104552723Y-51261654D01*
X104521483Y-51236017D01*
X104495846Y-51204777D01*
X104476796Y-51169138D01*
X104465065Y-51130468D01*
X104460500Y-51084112D01*
X104460500Y-50007888D01*
X104465065Y-49961532D01*
X104476796Y-49922862D01*
X104495846Y-49887223D01*
X104521483Y-49855983D01*
X104552723Y-49830346D01*
X104588362Y-49811296D01*
X104627032Y-49799565D01*
X104673388Y-49795000D01*
X105324612Y-49795000D01*
X105370968Y-49799565D01*
X105370968Y-49799565D01*
G37*
G36*
X143649000Y-51217000D02*
G01*
X141847000Y-51217000D01*
X141847000Y-50515000D01*
X143649000Y-50515000D01*
X143649000Y-51217000D01*
X143649000Y-51217000D01*
G37*
G36*
X110058468Y-50012065D02*
G01*
X110097138Y-50023796D01*
X110132777Y-50042846D01*
X110164017Y-50068483D01*
X110189654Y-50099723D01*
X110208704Y-50135362D01*
X110220435Y-50174032D01*
X110225000Y-50220388D01*
X110225000Y-50871612D01*
X110220435Y-50917968D01*
X110208704Y-50956638D01*
X110189654Y-50992277D01*
X110164017Y-51023517D01*
X110132777Y-51049154D01*
X110097138Y-51068204D01*
X110058468Y-51079935D01*
X110012112Y-51084500D01*
X108935888Y-51084500D01*
X108889532Y-51079935D01*
X108850862Y-51068204D01*
X108815223Y-51049154D01*
X108783983Y-51023517D01*
X108758346Y-50992277D01*
X108739296Y-50956638D01*
X108727565Y-50917968D01*
X108723000Y-50871612D01*
X108723000Y-50220388D01*
X108727565Y-50174032D01*
X108739296Y-50135362D01*
X108758346Y-50099723D01*
X108783983Y-50068483D01*
X108815223Y-50042846D01*
X108850862Y-50023796D01*
X108889532Y-50012065D01*
X108935888Y-50007500D01*
X110012112Y-50007500D01*
X110058468Y-50012065D01*
X110058468Y-50012065D01*
G37*
G36*
X107772468Y-50012065D02*
G01*
X107811138Y-50023796D01*
X107846777Y-50042846D01*
X107878017Y-50068483D01*
X107903654Y-50099723D01*
X107922704Y-50135362D01*
X107934435Y-50174032D01*
X107939000Y-50220388D01*
X107939000Y-50871612D01*
X107934435Y-50917968D01*
X107922704Y-50956638D01*
X107903654Y-50992277D01*
X107878017Y-51023517D01*
X107846777Y-51049154D01*
X107811138Y-51068204D01*
X107772468Y-51079935D01*
X107726112Y-51084500D01*
X106649888Y-51084500D01*
X106603532Y-51079935D01*
X106564862Y-51068204D01*
X106529223Y-51049154D01*
X106497983Y-51023517D01*
X106472346Y-50992277D01*
X106453296Y-50956638D01*
X106441565Y-50917968D01*
X106437000Y-50871612D01*
X106437000Y-50220388D01*
X106441565Y-50174032D01*
X106453296Y-50135362D01*
X106472346Y-50099723D01*
X106497983Y-50068483D01*
X106529223Y-50042846D01*
X106564862Y-50023796D01*
X106603532Y-50012065D01*
X106649888Y-50007500D01*
X107726112Y-50007500D01*
X107772468Y-50012065D01*
X107772468Y-50012065D01*
G37*
G36*
X101168468Y-49074565D02*
G01*
X101207138Y-49086296D01*
X101242777Y-49105346D01*
X101274017Y-49130983D01*
X101299654Y-49162223D01*
X101318704Y-49197862D01*
X101330435Y-49236532D01*
X101335000Y-49282888D01*
X101335000Y-49934112D01*
X101330435Y-49980468D01*
X101318704Y-50019138D01*
X101299654Y-50054777D01*
X101274017Y-50086017D01*
X101242777Y-50111654D01*
X101207138Y-50130704D01*
X101168468Y-50142435D01*
X101122112Y-50147000D01*
X100045888Y-50147000D01*
X99999532Y-50142435D01*
X99960862Y-50130704D01*
X99925223Y-50111654D01*
X99893983Y-50086017D01*
X99868346Y-50054777D01*
X99849296Y-50019138D01*
X99837565Y-49980468D01*
X99833000Y-49934112D01*
X99833000Y-49282888D01*
X99837565Y-49236532D01*
X99849296Y-49197862D01*
X99868346Y-49162223D01*
X99893983Y-49130983D01*
X99925223Y-49105346D01*
X99960862Y-49086296D01*
X99999532Y-49074565D01*
X100045888Y-49070000D01*
X101122112Y-49070000D01*
X101168468Y-49074565D01*
X101168468Y-49074565D01*
G37*
G36*
X101112968Y-46751565D02*
G01*
X101151638Y-46763296D01*
X101187277Y-46782346D01*
X101218517Y-46807983D01*
X101244154Y-46839223D01*
X101263204Y-46874862D01*
X101274935Y-46913532D01*
X101279500Y-46959888D01*
X101279500Y-48036112D01*
X101274935Y-48082468D01*
X101263204Y-48121138D01*
X101244154Y-48156777D01*
X101218517Y-48188017D01*
X101187277Y-48213654D01*
X101151638Y-48232704D01*
X101112968Y-48244435D01*
X101066612Y-48249000D01*
X100415388Y-48249000D01*
X100369032Y-48244435D01*
X100330362Y-48232704D01*
X100294723Y-48213654D01*
X100263483Y-48188017D01*
X100237846Y-48156777D01*
X100218796Y-48121138D01*
X100207065Y-48082468D01*
X100202500Y-48036112D01*
X100202500Y-46959888D01*
X100207065Y-46913532D01*
X100218796Y-46874862D01*
X100237846Y-46839223D01*
X100263483Y-46807983D01*
X100294723Y-46782346D01*
X100330362Y-46763296D01*
X100369032Y-46751565D01*
X100415388Y-46747000D01*
X101066612Y-46747000D01*
X101112968Y-46751565D01*
X101112968Y-46751565D01*
G37*
G36*
X102987968Y-46751565D02*
G01*
X103026638Y-46763296D01*
X103062277Y-46782346D01*
X103093517Y-46807983D01*
X103119154Y-46839223D01*
X103138204Y-46874862D01*
X103149935Y-46913532D01*
X103154500Y-46959888D01*
X103154500Y-48036112D01*
X103149935Y-48082468D01*
X103138204Y-48121138D01*
X103119154Y-48156777D01*
X103093517Y-48188017D01*
X103062277Y-48213654D01*
X103026638Y-48232704D01*
X102987968Y-48244435D01*
X102941612Y-48249000D01*
X102290388Y-48249000D01*
X102244032Y-48244435D01*
X102205362Y-48232704D01*
X102169723Y-48213654D01*
X102138483Y-48188017D01*
X102112846Y-48156777D01*
X102093796Y-48121138D01*
X102082065Y-48082468D01*
X102077500Y-48036112D01*
X102077500Y-46959888D01*
X102082065Y-46913532D01*
X102093796Y-46874862D01*
X102112846Y-46839223D01*
X102138483Y-46807983D01*
X102169723Y-46782346D01*
X102205362Y-46763296D01*
X102244032Y-46751565D01*
X102290388Y-46747000D01*
X102941612Y-46747000D01*
X102987968Y-46751565D01*
X102987968Y-46751565D01*
G37*
G36*
X152112072Y-45436918D02*
G01*
X152357939Y-45538759D01*
X152469328Y-45613187D01*
X152579211Y-45686609D01*
X152767391Y-45874789D01*
X152915242Y-46096063D01*
X153017082Y-46341928D01*
X153069000Y-46602937D01*
X153069000Y-46869063D01*
X153017082Y-47130072D01*
X152915242Y-47375937D01*
X152767391Y-47597211D01*
X152579211Y-47785391D01*
X152512449Y-47830000D01*
X152357939Y-47933241D01*
X152357938Y-47933242D01*
X152357937Y-47933242D01*
X152112072Y-48035082D01*
X151851063Y-48087000D01*
X151584937Y-48087000D01*
X151323928Y-48035082D01*
X151078063Y-47933242D01*
X151078062Y-47933242D01*
X151078061Y-47933241D01*
X150923551Y-47830000D01*
X150856789Y-47785391D01*
X150668609Y-47597211D01*
X150520758Y-47375937D01*
X150418918Y-47130072D01*
X150367000Y-46869063D01*
X150367000Y-46602937D01*
X150418918Y-46341928D01*
X150520758Y-46096063D01*
X150668609Y-45874789D01*
X150856789Y-45686609D01*
X150966672Y-45613187D01*
X151078061Y-45538759D01*
X151323928Y-45436918D01*
X151584937Y-45385000D01*
X151851063Y-45385000D01*
X152112072Y-45436918D01*
X152112072Y-45436918D01*
G37*
G36*
X158069000Y-48087000D02*
G01*
X155367000Y-48087000D01*
X155367000Y-45385000D01*
X158069000Y-45385000D01*
X158069000Y-48087000D01*
X158069000Y-48087000D01*
G37*
G36*
X105676348Y-46307820D02*
G01*
X105676350Y-46307821D01*
X105676351Y-46307821D01*
X105817574Y-46366317D01*
X105817577Y-46366319D01*
X105944669Y-46451239D01*
X106052761Y-46559331D01*
X106109375Y-46644060D01*
X106137683Y-46686426D01*
X106158517Y-46736725D01*
X106170068Y-46758336D01*
X106185614Y-46777278D01*
X106204556Y-46792823D01*
X106226166Y-46804374D01*
X106249615Y-46811487D01*
X106274001Y-46813889D01*
X106298387Y-46811487D01*
X106321836Y-46804374D01*
X106343447Y-46792823D01*
X106362389Y-46777277D01*
X106377934Y-46758335D01*
X106389485Y-46736725D01*
X106396598Y-46713276D01*
X106399000Y-46688890D01*
X106399000Y-46328000D01*
X109501000Y-46328000D01*
X109501000Y-46688890D01*
X109503402Y-46713276D01*
X109510515Y-46736725D01*
X109522066Y-46758336D01*
X109537611Y-46777278D01*
X109556553Y-46792823D01*
X109578164Y-46804374D01*
X109601613Y-46811487D01*
X109625999Y-46813889D01*
X109650385Y-46811487D01*
X109673834Y-46804374D01*
X109695445Y-46792823D01*
X109714387Y-46777278D01*
X109729932Y-46758336D01*
X109741483Y-46736725D01*
X109762317Y-46686426D01*
X109790625Y-46644060D01*
X109847239Y-46559331D01*
X109955331Y-46451239D01*
X110082423Y-46366319D01*
X110082426Y-46366317D01*
X110223649Y-46307821D01*
X110223650Y-46307821D01*
X110223652Y-46307820D01*
X110373569Y-46278000D01*
X110526431Y-46278000D01*
X110676348Y-46307820D01*
X110676350Y-46307821D01*
X110676351Y-46307821D01*
X110817574Y-46366317D01*
X110817577Y-46366319D01*
X110944669Y-46451239D01*
X111052761Y-46559331D01*
X111137681Y-46686423D01*
X111137683Y-46686426D01*
X111190479Y-46813889D01*
X111196180Y-46827652D01*
X111226000Y-46977569D01*
X111226000Y-47130429D01*
X111196179Y-47280351D01*
X111137683Y-47421574D01*
X111137682Y-47421575D01*
X111137681Y-47421577D01*
X111052761Y-47548669D01*
X110944669Y-47656761D01*
X110817577Y-47741681D01*
X110817574Y-47741683D01*
X110676351Y-47800179D01*
X110676350Y-47800179D01*
X110676348Y-47800180D01*
X110526431Y-47830000D01*
X110373569Y-47830000D01*
X110223652Y-47800180D01*
X110223650Y-47800179D01*
X110223649Y-47800179D01*
X110082426Y-47741683D01*
X110082423Y-47741681D01*
X109955331Y-47656761D01*
X109847239Y-47548669D01*
X109762318Y-47421575D01*
X109762317Y-47421574D01*
X109741481Y-47371272D01*
X109729932Y-47349664D01*
X109714386Y-47330722D01*
X109695444Y-47315177D01*
X109673834Y-47303626D01*
X109650385Y-47296513D01*
X109625999Y-47294111D01*
X109601613Y-47296513D01*
X109578164Y-47303626D01*
X109556553Y-47315177D01*
X109537611Y-47330723D01*
X109522066Y-47349665D01*
X109510515Y-47371275D01*
X109503402Y-47394724D01*
X109501000Y-47419110D01*
X109501000Y-47780000D01*
X106399000Y-47780000D01*
X106399000Y-47419110D01*
X106396598Y-47394724D01*
X106389485Y-47371275D01*
X106377934Y-47349664D01*
X106362389Y-47330722D01*
X106343447Y-47315177D01*
X106321836Y-47303626D01*
X106298387Y-47296513D01*
X106274001Y-47294111D01*
X106249615Y-47296513D01*
X106226166Y-47303626D01*
X106204555Y-47315177D01*
X106185613Y-47330722D01*
X106170068Y-47349664D01*
X106158519Y-47371272D01*
X106137683Y-47421574D01*
X106137682Y-47421575D01*
X106052761Y-47548669D01*
X105944669Y-47656761D01*
X105817577Y-47741681D01*
X105817574Y-47741683D01*
X105676351Y-47800179D01*
X105676350Y-47800179D01*
X105676348Y-47800180D01*
X105526431Y-47830000D01*
X105373569Y-47830000D01*
X105223652Y-47800180D01*
X105223650Y-47800179D01*
X105223649Y-47800179D01*
X105082426Y-47741683D01*
X105082423Y-47741681D01*
X104955331Y-47656761D01*
X104847239Y-47548669D01*
X104762319Y-47421577D01*
X104762318Y-47421575D01*
X104762317Y-47421574D01*
X104703821Y-47280351D01*
X104674000Y-47130429D01*
X104674000Y-46977569D01*
X104703820Y-46827652D01*
X104709521Y-46813889D01*
X104762317Y-46686426D01*
X104762319Y-46686423D01*
X104847239Y-46559331D01*
X104955331Y-46451239D01*
X105082423Y-46366319D01*
X105082426Y-46366317D01*
X105223649Y-46307821D01*
X105223650Y-46307821D01*
X105223652Y-46307820D01*
X105373569Y-46278000D01*
X105526431Y-46278000D01*
X105676348Y-46307820D01*
X105676348Y-46307820D01*
G37*
G36*
X130158443Y-45079519D02*
G01*
X130224627Y-45086037D01*
X130394466Y-45137557D01*
X130550991Y-45221222D01*
X130586729Y-45250552D01*
X130688186Y-45333814D01*
X130771448Y-45435271D01*
X130800778Y-45471009D01*
X130884443Y-45627534D01*
X130935963Y-45797373D01*
X130953359Y-45974000D01*
X130935963Y-46150627D01*
X130884443Y-46320466D01*
X130800778Y-46476991D01*
X130771448Y-46512729D01*
X130688186Y-46614186D01*
X130586729Y-46697448D01*
X130550991Y-46726778D01*
X130550989Y-46726779D01*
X130427431Y-46792823D01*
X130394466Y-46810443D01*
X130224627Y-46861963D01*
X130176906Y-46866663D01*
X130092260Y-46875000D01*
X130003740Y-46875000D01*
X129919094Y-46866663D01*
X129871373Y-46861963D01*
X129701534Y-46810443D01*
X129668570Y-46792823D01*
X129545011Y-46726779D01*
X129545009Y-46726778D01*
X129509271Y-46697448D01*
X129407814Y-46614186D01*
X129324552Y-46512729D01*
X129295222Y-46476991D01*
X129211557Y-46320466D01*
X129160037Y-46150627D01*
X129142641Y-45974000D01*
X129160037Y-45797373D01*
X129211557Y-45627534D01*
X129295222Y-45471009D01*
X129324552Y-45435271D01*
X129407814Y-45333814D01*
X129509271Y-45250552D01*
X129545009Y-45221222D01*
X129701534Y-45137557D01*
X129871373Y-45086037D01*
X129937557Y-45079519D01*
X130003740Y-45073000D01*
X130092260Y-45073000D01*
X130158443Y-45079519D01*
X130158443Y-45079519D01*
G37*
G36*
X128409000Y-46875000D02*
G01*
X126607000Y-46875000D01*
X126607000Y-45073000D01*
X128409000Y-45073000D01*
X128409000Y-46875000D01*
X128409000Y-46875000D01*
G37*
G36*
X146951000Y-46875000D02*
G01*
X145149000Y-46875000D01*
X145149000Y-45073000D01*
X146951000Y-45073000D01*
X146951000Y-46875000D01*
X146951000Y-46875000D01*
G37*
G36*
X143620443Y-45079519D02*
G01*
X143686627Y-45086037D01*
X143856466Y-45137557D01*
X144012991Y-45221222D01*
X144048729Y-45250552D01*
X144150186Y-45333814D01*
X144233448Y-45435271D01*
X144262778Y-45471009D01*
X144346443Y-45627534D01*
X144397963Y-45797373D01*
X144415359Y-45974000D01*
X144397963Y-46150627D01*
X144346443Y-46320466D01*
X144262778Y-46476991D01*
X144233448Y-46512729D01*
X144150186Y-46614186D01*
X144048729Y-46697448D01*
X144012991Y-46726778D01*
X144012989Y-46726779D01*
X143889431Y-46792823D01*
X143856466Y-46810443D01*
X143686627Y-46861963D01*
X143638906Y-46866663D01*
X143554260Y-46875000D01*
X143465740Y-46875000D01*
X143381094Y-46866663D01*
X143333373Y-46861963D01*
X143163534Y-46810443D01*
X143130570Y-46792823D01*
X143007011Y-46726779D01*
X143007009Y-46726778D01*
X142971271Y-46697448D01*
X142869814Y-46614186D01*
X142786552Y-46512729D01*
X142757222Y-46476991D01*
X142673557Y-46320466D01*
X142622037Y-46150627D01*
X142604641Y-45974000D01*
X142622037Y-45797373D01*
X142673557Y-45627534D01*
X142757222Y-45471009D01*
X142786552Y-45435271D01*
X142869814Y-45333814D01*
X142971271Y-45250552D01*
X143007009Y-45221222D01*
X143163534Y-45137557D01*
X143333373Y-45086037D01*
X143399557Y-45079519D01*
X143465740Y-45073000D01*
X143554260Y-45073000D01*
X143620443Y-45079519D01*
X143620443Y-45079519D01*
G37*
G36*
X141080443Y-45079519D02*
G01*
X141146627Y-45086037D01*
X141316466Y-45137557D01*
X141472991Y-45221222D01*
X141508729Y-45250552D01*
X141610186Y-45333814D01*
X141693448Y-45435271D01*
X141722778Y-45471009D01*
X141806443Y-45627534D01*
X141857963Y-45797373D01*
X141875359Y-45974000D01*
X141857963Y-46150627D01*
X141806443Y-46320466D01*
X141722778Y-46476991D01*
X141693448Y-46512729D01*
X141610186Y-46614186D01*
X141508729Y-46697448D01*
X141472991Y-46726778D01*
X141472989Y-46726779D01*
X141349431Y-46792823D01*
X141316466Y-46810443D01*
X141146627Y-46861963D01*
X141098906Y-46866663D01*
X141014260Y-46875000D01*
X140925740Y-46875000D01*
X140841094Y-46866663D01*
X140793373Y-46861963D01*
X140623534Y-46810443D01*
X140590570Y-46792823D01*
X140467011Y-46726779D01*
X140467009Y-46726778D01*
X140431271Y-46697448D01*
X140329814Y-46614186D01*
X140246552Y-46512729D01*
X140217222Y-46476991D01*
X140133557Y-46320466D01*
X140082037Y-46150627D01*
X140064641Y-45974000D01*
X140082037Y-45797373D01*
X140133557Y-45627534D01*
X140217222Y-45471009D01*
X140246552Y-45435271D01*
X140329814Y-45333814D01*
X140431271Y-45250552D01*
X140467009Y-45221222D01*
X140623534Y-45137557D01*
X140793373Y-45086037D01*
X140859557Y-45079519D01*
X140925740Y-45073000D01*
X141014260Y-45073000D01*
X141080443Y-45079519D01*
X141080443Y-45079519D01*
G37*
G36*
X135238443Y-45079519D02*
G01*
X135304627Y-45086037D01*
X135474466Y-45137557D01*
X135630991Y-45221222D01*
X135666729Y-45250552D01*
X135768186Y-45333814D01*
X135851448Y-45435271D01*
X135880778Y-45471009D01*
X135964443Y-45627534D01*
X136015963Y-45797373D01*
X136033359Y-45974000D01*
X136015963Y-46150627D01*
X135964443Y-46320466D01*
X135880778Y-46476991D01*
X135851448Y-46512729D01*
X135768186Y-46614186D01*
X135666729Y-46697448D01*
X135630991Y-46726778D01*
X135630989Y-46726779D01*
X135507431Y-46792823D01*
X135474466Y-46810443D01*
X135304627Y-46861963D01*
X135256906Y-46866663D01*
X135172260Y-46875000D01*
X135083740Y-46875000D01*
X134999094Y-46866663D01*
X134951373Y-46861963D01*
X134781534Y-46810443D01*
X134748570Y-46792823D01*
X134625011Y-46726779D01*
X134625009Y-46726778D01*
X134589271Y-46697448D01*
X134487814Y-46614186D01*
X134404552Y-46512729D01*
X134375222Y-46476991D01*
X134291557Y-46320466D01*
X134240037Y-46150627D01*
X134222641Y-45974000D01*
X134240037Y-45797373D01*
X134291557Y-45627534D01*
X134375222Y-45471009D01*
X134404552Y-45435271D01*
X134487814Y-45333814D01*
X134589271Y-45250552D01*
X134625009Y-45221222D01*
X134781534Y-45137557D01*
X134951373Y-45086037D01*
X135017557Y-45079519D01*
X135083740Y-45073000D01*
X135172260Y-45073000D01*
X135238443Y-45079519D01*
X135238443Y-45079519D01*
G37*
G36*
X132698443Y-45079519D02*
G01*
X132764627Y-45086037D01*
X132934466Y-45137557D01*
X133090991Y-45221222D01*
X133126729Y-45250552D01*
X133228186Y-45333814D01*
X133311448Y-45435271D01*
X133340778Y-45471009D01*
X133424443Y-45627534D01*
X133475963Y-45797373D01*
X133493359Y-45974000D01*
X133475963Y-46150627D01*
X133424443Y-46320466D01*
X133340778Y-46476991D01*
X133311448Y-46512729D01*
X133228186Y-46614186D01*
X133126729Y-46697448D01*
X133090991Y-46726778D01*
X133090989Y-46726779D01*
X132967431Y-46792823D01*
X132934466Y-46810443D01*
X132764627Y-46861963D01*
X132716906Y-46866663D01*
X132632260Y-46875000D01*
X132543740Y-46875000D01*
X132459094Y-46866663D01*
X132411373Y-46861963D01*
X132241534Y-46810443D01*
X132208570Y-46792823D01*
X132085011Y-46726779D01*
X132085009Y-46726778D01*
X132049271Y-46697448D01*
X131947814Y-46614186D01*
X131864552Y-46512729D01*
X131835222Y-46476991D01*
X131751557Y-46320466D01*
X131700037Y-46150627D01*
X131682641Y-45974000D01*
X131700037Y-45797373D01*
X131751557Y-45627534D01*
X131835222Y-45471009D01*
X131864552Y-45435271D01*
X131947814Y-45333814D01*
X132049271Y-45250552D01*
X132085009Y-45221222D01*
X132241534Y-45137557D01*
X132411373Y-45086037D01*
X132477557Y-45079519D01*
X132543740Y-45073000D01*
X132632260Y-45073000D01*
X132698443Y-45079519D01*
X132698443Y-45079519D01*
G37*
G36*
X104469734Y-43352399D02*
G01*
X104481973Y-43353000D01*
X105701000Y-43353000D01*
X105701000Y-45355000D01*
X104481973Y-45355000D01*
X104469733Y-45355601D01*
X104450000Y-45357545D01*
X104430266Y-45355601D01*
X104418027Y-45355000D01*
X104347139Y-45355000D01*
X104343447Y-45351970D01*
X104310287Y-45336287D01*
X104247737Y-45317313D01*
X104247733Y-45317311D01*
X104156356Y-45268469D01*
X104076262Y-45202738D01*
X104010531Y-45122644D01*
X103961688Y-45031264D01*
X103931611Y-44932113D01*
X103924000Y-44854838D01*
X103924001Y-43853161D01*
X103931612Y-43775886D01*
X103961689Y-43676735D01*
X104010532Y-43585356D01*
X104076263Y-43505262D01*
X104156357Y-43439531D01*
X104247736Y-43390688D01*
X104310297Y-43371710D01*
X104332925Y-43362338D01*
X104346900Y-43353000D01*
X104418027Y-43353000D01*
X104430267Y-43352399D01*
X104450000Y-43350455D01*
X104469734Y-43352399D01*
X104469734Y-43352399D01*
G37*
G36*
X111469734Y-43352399D02*
G01*
X111481973Y-43353000D01*
X111552861Y-43353000D01*
X111556553Y-43356030D01*
X111589713Y-43371713D01*
X111652263Y-43390687D01*
X111652265Y-43390688D01*
X111743644Y-43439531D01*
X111823738Y-43505262D01*
X111889469Y-43585356D01*
X111938312Y-43676735D01*
X111968389Y-43775886D01*
X111976000Y-43853161D01*
X111976000Y-44854839D01*
X111968389Y-44932114D01*
X111938312Y-45031265D01*
X111889469Y-45122644D01*
X111823738Y-45202738D01*
X111743644Y-45268469D01*
X111652264Y-45317312D01*
X111589703Y-45336290D01*
X111567075Y-45345662D01*
X111553100Y-45355000D01*
X111481973Y-45355000D01*
X111469733Y-45355601D01*
X111450000Y-45357545D01*
X111430266Y-45355601D01*
X111418027Y-45355000D01*
X110199000Y-45355000D01*
X110199000Y-43353000D01*
X111418027Y-43353000D01*
X111430267Y-43352399D01*
X111450000Y-43350455D01*
X111469734Y-43352399D01*
X111469734Y-43352399D01*
G37*
G36*
X109751000Y-45355000D02*
G01*
X108149000Y-45355000D01*
X108149000Y-43353000D01*
X109751000Y-43353000D01*
X109751000Y-45355000D01*
X109751000Y-45355000D01*
G37*
G36*
X107751000Y-45355000D02*
G01*
X106149000Y-45355000D01*
X106149000Y-43353000D01*
X107751000Y-43353000D01*
X107751000Y-45355000D01*
X107751000Y-45355000D01*
G37*
M02*
