G04 #@! TF.GenerationSoftware,KiCad,Pcbnew,(5.1.4)-1*
G04 #@! TF.CreationDate,2019-10-18T17:06:04-04:00*
G04 #@! TF.ProjectId,mtd415te,6d746434-3135-4746-952e-6b696361645f,rev?*
G04 #@! TF.SameCoordinates,Original*
G04 #@! TF.FileFunction,Soldermask,Bot*
G04 #@! TF.FilePolarity,Negative*
%FSLAX46Y46*%
G04 Gerber Fmt 4.6, Leading zero omitted, Abs format (unit mm)*
G04 Created by KiCad (PCBNEW (5.1.4)-1) date 2019-10-18 17:06:04*
%MOMM*%
%LPD*%
G04 APERTURE LIST*
%ADD10C,0.100000*%
G04 APERTURE END LIST*
D10*
G36*
X145191228Y-79491703D02*
G01*
X145346100Y-79555853D01*
X145485481Y-79648985D01*
X145604015Y-79767519D01*
X145697147Y-79906900D01*
X145761297Y-80061772D01*
X145794000Y-80226184D01*
X145794000Y-80393816D01*
X145761297Y-80558228D01*
X145697147Y-80713100D01*
X145604015Y-80852481D01*
X145485481Y-80971015D01*
X145346100Y-81064147D01*
X145191228Y-81128297D01*
X145026816Y-81161000D01*
X144859184Y-81161000D01*
X144694772Y-81128297D01*
X144539900Y-81064147D01*
X144400519Y-80971015D01*
X144281985Y-80852481D01*
X144188853Y-80713100D01*
X144124703Y-80558228D01*
X144092000Y-80393816D01*
X144092000Y-80226184D01*
X144124703Y-80061772D01*
X144188853Y-79906900D01*
X144281985Y-79767519D01*
X144400519Y-79648985D01*
X144539900Y-79555853D01*
X144694772Y-79491703D01*
X144859184Y-79459000D01*
X145026816Y-79459000D01*
X145191228Y-79491703D01*
X145191228Y-79491703D01*
G37*
G36*
X147961228Y-79491703D02*
G01*
X148116100Y-79555853D01*
X148255481Y-79648985D01*
X148374015Y-79767519D01*
X148467147Y-79906900D01*
X148531297Y-80061772D01*
X148564000Y-80226184D01*
X148564000Y-80393816D01*
X148531297Y-80558228D01*
X148467147Y-80713100D01*
X148374015Y-80852481D01*
X148255481Y-80971015D01*
X148116100Y-81064147D01*
X147961228Y-81128297D01*
X147796816Y-81161000D01*
X147629184Y-81161000D01*
X147464772Y-81128297D01*
X147309900Y-81064147D01*
X147170519Y-80971015D01*
X147051985Y-80852481D01*
X146958853Y-80713100D01*
X146894703Y-80558228D01*
X146862000Y-80393816D01*
X146862000Y-80226184D01*
X146894703Y-80061772D01*
X146958853Y-79906900D01*
X147051985Y-79767519D01*
X147170519Y-79648985D01*
X147309900Y-79555853D01*
X147464772Y-79491703D01*
X147629184Y-79459000D01*
X147796816Y-79459000D01*
X147961228Y-79491703D01*
X147961228Y-79491703D01*
G37*
G36*
X131341228Y-79491703D02*
G01*
X131496100Y-79555853D01*
X131635481Y-79648985D01*
X131754015Y-79767519D01*
X131847147Y-79906900D01*
X131911297Y-80061772D01*
X131944000Y-80226184D01*
X131944000Y-80393816D01*
X131911297Y-80558228D01*
X131847147Y-80713100D01*
X131754015Y-80852481D01*
X131635481Y-80971015D01*
X131496100Y-81064147D01*
X131341228Y-81128297D01*
X131176816Y-81161000D01*
X131009184Y-81161000D01*
X130844772Y-81128297D01*
X130689900Y-81064147D01*
X130550519Y-80971015D01*
X130431985Y-80852481D01*
X130338853Y-80713100D01*
X130274703Y-80558228D01*
X130242000Y-80393816D01*
X130242000Y-80226184D01*
X130274703Y-80061772D01*
X130338853Y-79906900D01*
X130431985Y-79767519D01*
X130550519Y-79648985D01*
X130689900Y-79555853D01*
X130844772Y-79491703D01*
X131009184Y-79459000D01*
X131176816Y-79459000D01*
X131341228Y-79491703D01*
X131341228Y-79491703D01*
G37*
G36*
X134111228Y-79491703D02*
G01*
X134266100Y-79555853D01*
X134405481Y-79648985D01*
X134524015Y-79767519D01*
X134617147Y-79906900D01*
X134681297Y-80061772D01*
X134714000Y-80226184D01*
X134714000Y-80393816D01*
X134681297Y-80558228D01*
X134617147Y-80713100D01*
X134524015Y-80852481D01*
X134405481Y-80971015D01*
X134266100Y-81064147D01*
X134111228Y-81128297D01*
X133946816Y-81161000D01*
X133779184Y-81161000D01*
X133614772Y-81128297D01*
X133459900Y-81064147D01*
X133320519Y-80971015D01*
X133201985Y-80852481D01*
X133108853Y-80713100D01*
X133044703Y-80558228D01*
X133012000Y-80393816D01*
X133012000Y-80226184D01*
X133044703Y-80061772D01*
X133108853Y-79906900D01*
X133201985Y-79767519D01*
X133320519Y-79648985D01*
X133459900Y-79555853D01*
X133614772Y-79491703D01*
X133779184Y-79459000D01*
X133946816Y-79459000D01*
X134111228Y-79491703D01*
X134111228Y-79491703D01*
G37*
G36*
X139651228Y-79491703D02*
G01*
X139806100Y-79555853D01*
X139945481Y-79648985D01*
X140064015Y-79767519D01*
X140157147Y-79906900D01*
X140221297Y-80061772D01*
X140254000Y-80226184D01*
X140254000Y-80393816D01*
X140221297Y-80558228D01*
X140157147Y-80713100D01*
X140064015Y-80852481D01*
X139945481Y-80971015D01*
X139806100Y-81064147D01*
X139651228Y-81128297D01*
X139486816Y-81161000D01*
X139319184Y-81161000D01*
X139154772Y-81128297D01*
X138999900Y-81064147D01*
X138860519Y-80971015D01*
X138741985Y-80852481D01*
X138648853Y-80713100D01*
X138584703Y-80558228D01*
X138552000Y-80393816D01*
X138552000Y-80226184D01*
X138584703Y-80061772D01*
X138648853Y-79906900D01*
X138741985Y-79767519D01*
X138860519Y-79648985D01*
X138999900Y-79555853D01*
X139154772Y-79491703D01*
X139319184Y-79459000D01*
X139486816Y-79459000D01*
X139651228Y-79491703D01*
X139651228Y-79491703D01*
G37*
G36*
X142421228Y-79491703D02*
G01*
X142576100Y-79555853D01*
X142715481Y-79648985D01*
X142834015Y-79767519D01*
X142927147Y-79906900D01*
X142991297Y-80061772D01*
X143024000Y-80226184D01*
X143024000Y-80393816D01*
X142991297Y-80558228D01*
X142927147Y-80713100D01*
X142834015Y-80852481D01*
X142715481Y-80971015D01*
X142576100Y-81064147D01*
X142421228Y-81128297D01*
X142256816Y-81161000D01*
X142089184Y-81161000D01*
X141924772Y-81128297D01*
X141769900Y-81064147D01*
X141630519Y-80971015D01*
X141511985Y-80852481D01*
X141418853Y-80713100D01*
X141354703Y-80558228D01*
X141322000Y-80393816D01*
X141322000Y-80226184D01*
X141354703Y-80061772D01*
X141418853Y-79906900D01*
X141511985Y-79767519D01*
X141630519Y-79648985D01*
X141769900Y-79555853D01*
X141924772Y-79491703D01*
X142089184Y-79459000D01*
X142256816Y-79459000D01*
X142421228Y-79491703D01*
X142421228Y-79491703D01*
G37*
G36*
X136881228Y-79491703D02*
G01*
X137036100Y-79555853D01*
X137175481Y-79648985D01*
X137294015Y-79767519D01*
X137387147Y-79906900D01*
X137451297Y-80061772D01*
X137484000Y-80226184D01*
X137484000Y-80393816D01*
X137451297Y-80558228D01*
X137387147Y-80713100D01*
X137294015Y-80852481D01*
X137175481Y-80971015D01*
X137036100Y-81064147D01*
X136881228Y-81128297D01*
X136716816Y-81161000D01*
X136549184Y-81161000D01*
X136384772Y-81128297D01*
X136229900Y-81064147D01*
X136090519Y-80971015D01*
X135971985Y-80852481D01*
X135878853Y-80713100D01*
X135814703Y-80558228D01*
X135782000Y-80393816D01*
X135782000Y-80226184D01*
X135814703Y-80061772D01*
X135878853Y-79906900D01*
X135971985Y-79767519D01*
X136090519Y-79648985D01*
X136229900Y-79555853D01*
X136384772Y-79491703D01*
X136549184Y-79459000D01*
X136716816Y-79459000D01*
X136881228Y-79491703D01*
X136881228Y-79491703D01*
G37*
G36*
X123351254Y-76917818D02*
G01*
X123711170Y-77066900D01*
X123724513Y-77072427D01*
X124060436Y-77296884D01*
X124346116Y-77582564D01*
X124436765Y-77718229D01*
X124570574Y-77918489D01*
X124725182Y-78291746D01*
X124804000Y-78687993D01*
X124804000Y-79092007D01*
X124725182Y-79488254D01*
X124609506Y-79767520D01*
X124570573Y-79861513D01*
X124346116Y-80197436D01*
X124060436Y-80483116D01*
X123724513Y-80707573D01*
X123724512Y-80707574D01*
X123724511Y-80707574D01*
X123351254Y-80862182D01*
X122955007Y-80941000D01*
X122550993Y-80941000D01*
X122154746Y-80862182D01*
X121781489Y-80707574D01*
X121781488Y-80707574D01*
X121781487Y-80707573D01*
X121445564Y-80483116D01*
X121159884Y-80197436D01*
X120935427Y-79861513D01*
X120896494Y-79767520D01*
X120780818Y-79488254D01*
X120702000Y-79092007D01*
X120702000Y-78687993D01*
X120780818Y-78291746D01*
X120935426Y-77918489D01*
X121069236Y-77718229D01*
X121159884Y-77582564D01*
X121445564Y-77296884D01*
X121781487Y-77072427D01*
X121794830Y-77066900D01*
X122154746Y-76917818D01*
X122550993Y-76839000D01*
X122955007Y-76839000D01*
X123351254Y-76917818D01*
X123351254Y-76917818D01*
G37*
G36*
X156651254Y-76917818D02*
G01*
X157011170Y-77066900D01*
X157024513Y-77072427D01*
X157360436Y-77296884D01*
X157646116Y-77582564D01*
X157736765Y-77718229D01*
X157870574Y-77918489D01*
X158025182Y-78291746D01*
X158104000Y-78687993D01*
X158104000Y-79092007D01*
X158025182Y-79488254D01*
X157909506Y-79767520D01*
X157870573Y-79861513D01*
X157646116Y-80197436D01*
X157360436Y-80483116D01*
X157024513Y-80707573D01*
X157024512Y-80707574D01*
X157024511Y-80707574D01*
X156651254Y-80862182D01*
X156255007Y-80941000D01*
X155850993Y-80941000D01*
X155454746Y-80862182D01*
X155081489Y-80707574D01*
X155081488Y-80707574D01*
X155081487Y-80707573D01*
X154745564Y-80483116D01*
X154459884Y-80197436D01*
X154235427Y-79861513D01*
X154196494Y-79767520D01*
X154080818Y-79488254D01*
X154002000Y-79092007D01*
X154002000Y-78687993D01*
X154080818Y-78291746D01*
X154235426Y-77918489D01*
X154369236Y-77718229D01*
X154459884Y-77582564D01*
X154745564Y-77296884D01*
X155081487Y-77072427D01*
X155094830Y-77066900D01*
X155454746Y-76917818D01*
X155850993Y-76839000D01*
X156255007Y-76839000D01*
X156651254Y-76917818D01*
X156651254Y-76917818D01*
G37*
G36*
X141036228Y-76651703D02*
G01*
X141191100Y-76715853D01*
X141330481Y-76808985D01*
X141449015Y-76927519D01*
X141542147Y-77066900D01*
X141606297Y-77221772D01*
X141639000Y-77386184D01*
X141639000Y-77553816D01*
X141606297Y-77718228D01*
X141542147Y-77873100D01*
X141449015Y-78012481D01*
X141330481Y-78131015D01*
X141191100Y-78224147D01*
X141036228Y-78288297D01*
X140871816Y-78321000D01*
X140704184Y-78321000D01*
X140539772Y-78288297D01*
X140384900Y-78224147D01*
X140245519Y-78131015D01*
X140126985Y-78012481D01*
X140033853Y-77873100D01*
X139969703Y-77718228D01*
X139937000Y-77553816D01*
X139937000Y-77386184D01*
X139969703Y-77221772D01*
X140033853Y-77066900D01*
X140126985Y-76927519D01*
X140245519Y-76808985D01*
X140384900Y-76715853D01*
X140539772Y-76651703D01*
X140704184Y-76619000D01*
X140871816Y-76619000D01*
X141036228Y-76651703D01*
X141036228Y-76651703D01*
G37*
G36*
X146576228Y-76651703D02*
G01*
X146731100Y-76715853D01*
X146870481Y-76808985D01*
X146989015Y-76927519D01*
X147082147Y-77066900D01*
X147146297Y-77221772D01*
X147179000Y-77386184D01*
X147179000Y-77553816D01*
X147146297Y-77718228D01*
X147082147Y-77873100D01*
X146989015Y-78012481D01*
X146870481Y-78131015D01*
X146731100Y-78224147D01*
X146576228Y-78288297D01*
X146411816Y-78321000D01*
X146244184Y-78321000D01*
X146079772Y-78288297D01*
X145924900Y-78224147D01*
X145785519Y-78131015D01*
X145666985Y-78012481D01*
X145573853Y-77873100D01*
X145509703Y-77718228D01*
X145477000Y-77553816D01*
X145477000Y-77386184D01*
X145509703Y-77221772D01*
X145573853Y-77066900D01*
X145666985Y-76927519D01*
X145785519Y-76808985D01*
X145924900Y-76715853D01*
X146079772Y-76651703D01*
X146244184Y-76619000D01*
X146411816Y-76619000D01*
X146576228Y-76651703D01*
X146576228Y-76651703D01*
G37*
G36*
X143806228Y-76651703D02*
G01*
X143961100Y-76715853D01*
X144100481Y-76808985D01*
X144219015Y-76927519D01*
X144312147Y-77066900D01*
X144376297Y-77221772D01*
X144409000Y-77386184D01*
X144409000Y-77553816D01*
X144376297Y-77718228D01*
X144312147Y-77873100D01*
X144219015Y-78012481D01*
X144100481Y-78131015D01*
X143961100Y-78224147D01*
X143806228Y-78288297D01*
X143641816Y-78321000D01*
X143474184Y-78321000D01*
X143309772Y-78288297D01*
X143154900Y-78224147D01*
X143015519Y-78131015D01*
X142896985Y-78012481D01*
X142803853Y-77873100D01*
X142739703Y-77718228D01*
X142707000Y-77553816D01*
X142707000Y-77386184D01*
X142739703Y-77221772D01*
X142803853Y-77066900D01*
X142896985Y-76927519D01*
X143015519Y-76808985D01*
X143154900Y-76715853D01*
X143309772Y-76651703D01*
X143474184Y-76619000D01*
X143641816Y-76619000D01*
X143806228Y-76651703D01*
X143806228Y-76651703D01*
G37*
G36*
X138266228Y-76651703D02*
G01*
X138421100Y-76715853D01*
X138560481Y-76808985D01*
X138679015Y-76927519D01*
X138772147Y-77066900D01*
X138836297Y-77221772D01*
X138869000Y-77386184D01*
X138869000Y-77553816D01*
X138836297Y-77718228D01*
X138772147Y-77873100D01*
X138679015Y-78012481D01*
X138560481Y-78131015D01*
X138421100Y-78224147D01*
X138266228Y-78288297D01*
X138101816Y-78321000D01*
X137934184Y-78321000D01*
X137769772Y-78288297D01*
X137614900Y-78224147D01*
X137475519Y-78131015D01*
X137356985Y-78012481D01*
X137263853Y-77873100D01*
X137199703Y-77718228D01*
X137167000Y-77553816D01*
X137167000Y-77386184D01*
X137199703Y-77221772D01*
X137263853Y-77066900D01*
X137356985Y-76927519D01*
X137475519Y-76808985D01*
X137614900Y-76715853D01*
X137769772Y-76651703D01*
X137934184Y-76619000D01*
X138101816Y-76619000D01*
X138266228Y-76651703D01*
X138266228Y-76651703D01*
G37*
G36*
X135496228Y-76651703D02*
G01*
X135651100Y-76715853D01*
X135790481Y-76808985D01*
X135909015Y-76927519D01*
X136002147Y-77066900D01*
X136066297Y-77221772D01*
X136099000Y-77386184D01*
X136099000Y-77553816D01*
X136066297Y-77718228D01*
X136002147Y-77873100D01*
X135909015Y-78012481D01*
X135790481Y-78131015D01*
X135651100Y-78224147D01*
X135496228Y-78288297D01*
X135331816Y-78321000D01*
X135164184Y-78321000D01*
X134999772Y-78288297D01*
X134844900Y-78224147D01*
X134705519Y-78131015D01*
X134586985Y-78012481D01*
X134493853Y-77873100D01*
X134429703Y-77718228D01*
X134397000Y-77553816D01*
X134397000Y-77386184D01*
X134429703Y-77221772D01*
X134493853Y-77066900D01*
X134586985Y-76927519D01*
X134705519Y-76808985D01*
X134844900Y-76715853D01*
X134999772Y-76651703D01*
X135164184Y-76619000D01*
X135331816Y-76619000D01*
X135496228Y-76651703D01*
X135496228Y-76651703D01*
G37*
G36*
X132726228Y-76651703D02*
G01*
X132881100Y-76715853D01*
X133020481Y-76808985D01*
X133139015Y-76927519D01*
X133232147Y-77066900D01*
X133296297Y-77221772D01*
X133329000Y-77386184D01*
X133329000Y-77553816D01*
X133296297Y-77718228D01*
X133232147Y-77873100D01*
X133139015Y-78012481D01*
X133020481Y-78131015D01*
X132881100Y-78224147D01*
X132726228Y-78288297D01*
X132561816Y-78321000D01*
X132394184Y-78321000D01*
X132229772Y-78288297D01*
X132074900Y-78224147D01*
X131935519Y-78131015D01*
X131816985Y-78012481D01*
X131723853Y-77873100D01*
X131659703Y-77718228D01*
X131627000Y-77553816D01*
X131627000Y-77386184D01*
X131659703Y-77221772D01*
X131723853Y-77066900D01*
X131816985Y-76927519D01*
X131935519Y-76808985D01*
X132074900Y-76715853D01*
X132229772Y-76651703D01*
X132394184Y-76619000D01*
X132561816Y-76619000D01*
X132726228Y-76651703D01*
X132726228Y-76651703D01*
G37*
G36*
X129956228Y-76651703D02*
G01*
X130111100Y-76715853D01*
X130250481Y-76808985D01*
X130369015Y-76927519D01*
X130462147Y-77066900D01*
X130526297Y-77221772D01*
X130559000Y-77386184D01*
X130559000Y-77553816D01*
X130526297Y-77718228D01*
X130462147Y-77873100D01*
X130369015Y-78012481D01*
X130250481Y-78131015D01*
X130111100Y-78224147D01*
X129956228Y-78288297D01*
X129791816Y-78321000D01*
X129624184Y-78321000D01*
X129459772Y-78288297D01*
X129304900Y-78224147D01*
X129165519Y-78131015D01*
X129046985Y-78012481D01*
X128953853Y-77873100D01*
X128889703Y-77718228D01*
X128857000Y-77553816D01*
X128857000Y-77386184D01*
X128889703Y-77221772D01*
X128953853Y-77066900D01*
X129046985Y-76927519D01*
X129165519Y-76808985D01*
X129304900Y-76715853D01*
X129459772Y-76651703D01*
X129624184Y-76619000D01*
X129791816Y-76619000D01*
X129956228Y-76651703D01*
X129956228Y-76651703D01*
G37*
G36*
X149949000Y-78321000D02*
G01*
X148247000Y-78321000D01*
X148247000Y-76619000D01*
X149949000Y-76619000D01*
X149949000Y-78321000D01*
X149949000Y-78321000D01*
G37*
G36*
X159143000Y-73545000D02*
G01*
X157341000Y-73545000D01*
X157341000Y-71743000D01*
X159143000Y-71743000D01*
X159143000Y-73545000D01*
X159143000Y-73545000D01*
G37*
G36*
X122030442Y-71749518D02*
G01*
X122096627Y-71756037D01*
X122266466Y-71807557D01*
X122422991Y-71891222D01*
X122458729Y-71920552D01*
X122560186Y-72003814D01*
X122643448Y-72105271D01*
X122672778Y-72141009D01*
X122756443Y-72297534D01*
X122807963Y-72467373D01*
X122825359Y-72644000D01*
X122807963Y-72820627D01*
X122756443Y-72990466D01*
X122672778Y-73146991D01*
X122643448Y-73182729D01*
X122560186Y-73284186D01*
X122458729Y-73367448D01*
X122422991Y-73396778D01*
X122266466Y-73480443D01*
X122096627Y-73531963D01*
X122030442Y-73538482D01*
X121964260Y-73545000D01*
X121875740Y-73545000D01*
X121809558Y-73538482D01*
X121743373Y-73531963D01*
X121573534Y-73480443D01*
X121417009Y-73396778D01*
X121381271Y-73367448D01*
X121279814Y-73284186D01*
X121196552Y-73182729D01*
X121167222Y-73146991D01*
X121083557Y-72990466D01*
X121032037Y-72820627D01*
X121014641Y-72644000D01*
X121032037Y-72467373D01*
X121083557Y-72297534D01*
X121167222Y-72141009D01*
X121196552Y-72105271D01*
X121279814Y-72003814D01*
X121381271Y-71920552D01*
X121417009Y-71891222D01*
X121573534Y-71807557D01*
X121743373Y-71756037D01*
X121809558Y-71749518D01*
X121875740Y-71743000D01*
X121964260Y-71743000D01*
X122030442Y-71749518D01*
X122030442Y-71749518D01*
G37*
G36*
X122030443Y-69209519D02*
G01*
X122096627Y-69216037D01*
X122266466Y-69267557D01*
X122422991Y-69351222D01*
X122458729Y-69380552D01*
X122560186Y-69463814D01*
X122643448Y-69565271D01*
X122672778Y-69601009D01*
X122756443Y-69757534D01*
X122807963Y-69927373D01*
X122825359Y-70104000D01*
X122807963Y-70280627D01*
X122756443Y-70450466D01*
X122672778Y-70606991D01*
X122643448Y-70642729D01*
X122560186Y-70744186D01*
X122458729Y-70827448D01*
X122422991Y-70856778D01*
X122266466Y-70940443D01*
X122096627Y-70991963D01*
X122030443Y-70998481D01*
X121964260Y-71005000D01*
X121875740Y-71005000D01*
X121809557Y-70998481D01*
X121743373Y-70991963D01*
X121573534Y-70940443D01*
X121417009Y-70856778D01*
X121381271Y-70827448D01*
X121279814Y-70744186D01*
X121196552Y-70642729D01*
X121167222Y-70606991D01*
X121083557Y-70450466D01*
X121032037Y-70280627D01*
X121014641Y-70104000D01*
X121032037Y-69927373D01*
X121083557Y-69757534D01*
X121167222Y-69601009D01*
X121196552Y-69565271D01*
X121279814Y-69463814D01*
X121381271Y-69380552D01*
X121417009Y-69351222D01*
X121573534Y-69267557D01*
X121743373Y-69216037D01*
X121809557Y-69209519D01*
X121875740Y-69203000D01*
X121964260Y-69203000D01*
X122030443Y-69209519D01*
X122030443Y-69209519D01*
G37*
G36*
X158352443Y-69209519D02*
G01*
X158418627Y-69216037D01*
X158588466Y-69267557D01*
X158744991Y-69351222D01*
X158780729Y-69380552D01*
X158882186Y-69463814D01*
X158965448Y-69565271D01*
X158994778Y-69601009D01*
X159078443Y-69757534D01*
X159129963Y-69927373D01*
X159147359Y-70104000D01*
X159129963Y-70280627D01*
X159078443Y-70450466D01*
X158994778Y-70606991D01*
X158965448Y-70642729D01*
X158882186Y-70744186D01*
X158780729Y-70827448D01*
X158744991Y-70856778D01*
X158588466Y-70940443D01*
X158418627Y-70991963D01*
X158352443Y-70998481D01*
X158286260Y-71005000D01*
X158197740Y-71005000D01*
X158131557Y-70998481D01*
X158065373Y-70991963D01*
X157895534Y-70940443D01*
X157739009Y-70856778D01*
X157703271Y-70827448D01*
X157601814Y-70744186D01*
X157518552Y-70642729D01*
X157489222Y-70606991D01*
X157405557Y-70450466D01*
X157354037Y-70280627D01*
X157336641Y-70104000D01*
X157354037Y-69927373D01*
X157405557Y-69757534D01*
X157489222Y-69601009D01*
X157518552Y-69565271D01*
X157601814Y-69463814D01*
X157703271Y-69380552D01*
X157739009Y-69351222D01*
X157895534Y-69267557D01*
X158065373Y-69216037D01*
X158131557Y-69209519D01*
X158197740Y-69203000D01*
X158286260Y-69203000D01*
X158352443Y-69209519D01*
X158352443Y-69209519D01*
G37*
G36*
X122030443Y-66669519D02*
G01*
X122096627Y-66676037D01*
X122266466Y-66727557D01*
X122422991Y-66811222D01*
X122458729Y-66840552D01*
X122560186Y-66923814D01*
X122643448Y-67025271D01*
X122672778Y-67061009D01*
X122756443Y-67217534D01*
X122807963Y-67387373D01*
X122825359Y-67564000D01*
X122807963Y-67740627D01*
X122756443Y-67910466D01*
X122672778Y-68066991D01*
X122643448Y-68102729D01*
X122560186Y-68204186D01*
X122458729Y-68287448D01*
X122422991Y-68316778D01*
X122266466Y-68400443D01*
X122096627Y-68451963D01*
X122030442Y-68458482D01*
X121964260Y-68465000D01*
X121875740Y-68465000D01*
X121809558Y-68458482D01*
X121743373Y-68451963D01*
X121573534Y-68400443D01*
X121417009Y-68316778D01*
X121381271Y-68287448D01*
X121279814Y-68204186D01*
X121196552Y-68102729D01*
X121167222Y-68066991D01*
X121083557Y-67910466D01*
X121032037Y-67740627D01*
X121014641Y-67564000D01*
X121032037Y-67387373D01*
X121083557Y-67217534D01*
X121167222Y-67061009D01*
X121196552Y-67025271D01*
X121279814Y-66923814D01*
X121381271Y-66840552D01*
X121417009Y-66811222D01*
X121573534Y-66727557D01*
X121743373Y-66676037D01*
X121809557Y-66669519D01*
X121875740Y-66663000D01*
X121964260Y-66663000D01*
X122030443Y-66669519D01*
X122030443Y-66669519D01*
G37*
G36*
X158352443Y-66669519D02*
G01*
X158418627Y-66676037D01*
X158588466Y-66727557D01*
X158744991Y-66811222D01*
X158780729Y-66840552D01*
X158882186Y-66923814D01*
X158965448Y-67025271D01*
X158994778Y-67061009D01*
X159078443Y-67217534D01*
X159129963Y-67387373D01*
X159147359Y-67564000D01*
X159129963Y-67740627D01*
X159078443Y-67910466D01*
X158994778Y-68066991D01*
X158965448Y-68102729D01*
X158882186Y-68204186D01*
X158780729Y-68287448D01*
X158744991Y-68316778D01*
X158588466Y-68400443D01*
X158418627Y-68451963D01*
X158352442Y-68458482D01*
X158286260Y-68465000D01*
X158197740Y-68465000D01*
X158131558Y-68458482D01*
X158065373Y-68451963D01*
X157895534Y-68400443D01*
X157739009Y-68316778D01*
X157703271Y-68287448D01*
X157601814Y-68204186D01*
X157518552Y-68102729D01*
X157489222Y-68066991D01*
X157405557Y-67910466D01*
X157354037Y-67740627D01*
X157336641Y-67564000D01*
X157354037Y-67387373D01*
X157405557Y-67217534D01*
X157489222Y-67061009D01*
X157518552Y-67025271D01*
X157601814Y-66923814D01*
X157703271Y-66840552D01*
X157739009Y-66811222D01*
X157895534Y-66727557D01*
X158065373Y-66676037D01*
X158131557Y-66669519D01*
X158197740Y-66663000D01*
X158286260Y-66663000D01*
X158352443Y-66669519D01*
X158352443Y-66669519D01*
G37*
G36*
X158352443Y-64129519D02*
G01*
X158418627Y-64136037D01*
X158588466Y-64187557D01*
X158744991Y-64271222D01*
X158780729Y-64300552D01*
X158882186Y-64383814D01*
X158965448Y-64485271D01*
X158994778Y-64521009D01*
X159078443Y-64677534D01*
X159129963Y-64847373D01*
X159147359Y-65024000D01*
X159129963Y-65200627D01*
X159078443Y-65370466D01*
X158994778Y-65526991D01*
X158965448Y-65562729D01*
X158882186Y-65664186D01*
X158780729Y-65747448D01*
X158744991Y-65776778D01*
X158588466Y-65860443D01*
X158418627Y-65911963D01*
X158352443Y-65918481D01*
X158286260Y-65925000D01*
X158197740Y-65925000D01*
X158131557Y-65918481D01*
X158065373Y-65911963D01*
X157895534Y-65860443D01*
X157739009Y-65776778D01*
X157703271Y-65747448D01*
X157601814Y-65664186D01*
X157518552Y-65562729D01*
X157489222Y-65526991D01*
X157405557Y-65370466D01*
X157354037Y-65200627D01*
X157336641Y-65024000D01*
X157354037Y-64847373D01*
X157405557Y-64677534D01*
X157489222Y-64521009D01*
X157518552Y-64485271D01*
X157601814Y-64383814D01*
X157703271Y-64300552D01*
X157739009Y-64271222D01*
X157895534Y-64187557D01*
X158065373Y-64136037D01*
X158131557Y-64129519D01*
X158197740Y-64123000D01*
X158286260Y-64123000D01*
X158352443Y-64129519D01*
X158352443Y-64129519D01*
G37*
G36*
X122030443Y-64129519D02*
G01*
X122096627Y-64136037D01*
X122266466Y-64187557D01*
X122422991Y-64271222D01*
X122458729Y-64300552D01*
X122560186Y-64383814D01*
X122643448Y-64485271D01*
X122672778Y-64521009D01*
X122756443Y-64677534D01*
X122807963Y-64847373D01*
X122825359Y-65024000D01*
X122807963Y-65200627D01*
X122756443Y-65370466D01*
X122672778Y-65526991D01*
X122643448Y-65562729D01*
X122560186Y-65664186D01*
X122458729Y-65747448D01*
X122422991Y-65776778D01*
X122266466Y-65860443D01*
X122096627Y-65911963D01*
X122030443Y-65918481D01*
X121964260Y-65925000D01*
X121875740Y-65925000D01*
X121809557Y-65918481D01*
X121743373Y-65911963D01*
X121573534Y-65860443D01*
X121417009Y-65776778D01*
X121381271Y-65747448D01*
X121279814Y-65664186D01*
X121196552Y-65562729D01*
X121167222Y-65526991D01*
X121083557Y-65370466D01*
X121032037Y-65200627D01*
X121014641Y-65024000D01*
X121032037Y-64847373D01*
X121083557Y-64677534D01*
X121167222Y-64521009D01*
X121196552Y-64485271D01*
X121279814Y-64383814D01*
X121381271Y-64300552D01*
X121417009Y-64271222D01*
X121573534Y-64187557D01*
X121743373Y-64136037D01*
X121809557Y-64129519D01*
X121875740Y-64123000D01*
X121964260Y-64123000D01*
X122030443Y-64129519D01*
X122030443Y-64129519D01*
G37*
G36*
X122030442Y-61589518D02*
G01*
X122096627Y-61596037D01*
X122266466Y-61647557D01*
X122422991Y-61731222D01*
X122458729Y-61760552D01*
X122560186Y-61843814D01*
X122643448Y-61945271D01*
X122672778Y-61981009D01*
X122756443Y-62137534D01*
X122807963Y-62307373D01*
X122825359Y-62484000D01*
X122807963Y-62660627D01*
X122756443Y-62830466D01*
X122672778Y-62986991D01*
X122643448Y-63022729D01*
X122560186Y-63124186D01*
X122458729Y-63207448D01*
X122422991Y-63236778D01*
X122266466Y-63320443D01*
X122096627Y-63371963D01*
X122030442Y-63378482D01*
X121964260Y-63385000D01*
X121875740Y-63385000D01*
X121809558Y-63378482D01*
X121743373Y-63371963D01*
X121573534Y-63320443D01*
X121417009Y-63236778D01*
X121381271Y-63207448D01*
X121279814Y-63124186D01*
X121196552Y-63022729D01*
X121167222Y-62986991D01*
X121083557Y-62830466D01*
X121032037Y-62660627D01*
X121014641Y-62484000D01*
X121032037Y-62307373D01*
X121083557Y-62137534D01*
X121167222Y-61981009D01*
X121196552Y-61945271D01*
X121279814Y-61843814D01*
X121381271Y-61760552D01*
X121417009Y-61731222D01*
X121573534Y-61647557D01*
X121743373Y-61596037D01*
X121809558Y-61589518D01*
X121875740Y-61583000D01*
X121964260Y-61583000D01*
X122030442Y-61589518D01*
X122030442Y-61589518D01*
G37*
G36*
X158352442Y-61589518D02*
G01*
X158418627Y-61596037D01*
X158588466Y-61647557D01*
X158744991Y-61731222D01*
X158780729Y-61760552D01*
X158882186Y-61843814D01*
X158965448Y-61945271D01*
X158994778Y-61981009D01*
X159078443Y-62137534D01*
X159129963Y-62307373D01*
X159147359Y-62484000D01*
X159129963Y-62660627D01*
X159078443Y-62830466D01*
X158994778Y-62986991D01*
X158965448Y-63022729D01*
X158882186Y-63124186D01*
X158780729Y-63207448D01*
X158744991Y-63236778D01*
X158588466Y-63320443D01*
X158418627Y-63371963D01*
X158352442Y-63378482D01*
X158286260Y-63385000D01*
X158197740Y-63385000D01*
X158131558Y-63378482D01*
X158065373Y-63371963D01*
X157895534Y-63320443D01*
X157739009Y-63236778D01*
X157703271Y-63207448D01*
X157601814Y-63124186D01*
X157518552Y-63022729D01*
X157489222Y-62986991D01*
X157405557Y-62830466D01*
X157354037Y-62660627D01*
X157336641Y-62484000D01*
X157354037Y-62307373D01*
X157405557Y-62137534D01*
X157489222Y-61981009D01*
X157518552Y-61945271D01*
X157601814Y-61843814D01*
X157703271Y-61760552D01*
X157739009Y-61731222D01*
X157895534Y-61647557D01*
X158065373Y-61596037D01*
X158131558Y-61589518D01*
X158197740Y-61583000D01*
X158286260Y-61583000D01*
X158352442Y-61589518D01*
X158352442Y-61589518D01*
G37*
G36*
X158352443Y-59049519D02*
G01*
X158418627Y-59056037D01*
X158588466Y-59107557D01*
X158744991Y-59191222D01*
X158780729Y-59220552D01*
X158882186Y-59303814D01*
X158965448Y-59405271D01*
X158994778Y-59441009D01*
X159078443Y-59597534D01*
X159129963Y-59767373D01*
X159147359Y-59944000D01*
X159129963Y-60120627D01*
X159078443Y-60290466D01*
X158994778Y-60446991D01*
X158965448Y-60482729D01*
X158882186Y-60584186D01*
X158780729Y-60667448D01*
X158744991Y-60696778D01*
X158588466Y-60780443D01*
X158418627Y-60831963D01*
X158352443Y-60838481D01*
X158286260Y-60845000D01*
X158197740Y-60845000D01*
X158131557Y-60838481D01*
X158065373Y-60831963D01*
X157895534Y-60780443D01*
X157739009Y-60696778D01*
X157703271Y-60667448D01*
X157601814Y-60584186D01*
X157518552Y-60482729D01*
X157489222Y-60446991D01*
X157405557Y-60290466D01*
X157354037Y-60120627D01*
X157336641Y-59944000D01*
X157354037Y-59767373D01*
X157405557Y-59597534D01*
X157489222Y-59441009D01*
X157518552Y-59405271D01*
X157601814Y-59303814D01*
X157703271Y-59220552D01*
X157739009Y-59191222D01*
X157895534Y-59107557D01*
X158065373Y-59056037D01*
X158131557Y-59049519D01*
X158197740Y-59043000D01*
X158286260Y-59043000D01*
X158352443Y-59049519D01*
X158352443Y-59049519D01*
G37*
G36*
X122030443Y-59049519D02*
G01*
X122096627Y-59056037D01*
X122266466Y-59107557D01*
X122422991Y-59191222D01*
X122458729Y-59220552D01*
X122560186Y-59303814D01*
X122643448Y-59405271D01*
X122672778Y-59441009D01*
X122756443Y-59597534D01*
X122807963Y-59767373D01*
X122825359Y-59944000D01*
X122807963Y-60120627D01*
X122756443Y-60290466D01*
X122672778Y-60446991D01*
X122643448Y-60482729D01*
X122560186Y-60584186D01*
X122458729Y-60667448D01*
X122422991Y-60696778D01*
X122266466Y-60780443D01*
X122096627Y-60831963D01*
X122030443Y-60838481D01*
X121964260Y-60845000D01*
X121875740Y-60845000D01*
X121809557Y-60838481D01*
X121743373Y-60831963D01*
X121573534Y-60780443D01*
X121417009Y-60696778D01*
X121381271Y-60667448D01*
X121279814Y-60584186D01*
X121196552Y-60482729D01*
X121167222Y-60446991D01*
X121083557Y-60290466D01*
X121032037Y-60120627D01*
X121014641Y-59944000D01*
X121032037Y-59767373D01*
X121083557Y-59597534D01*
X121167222Y-59441009D01*
X121196552Y-59405271D01*
X121279814Y-59303814D01*
X121381271Y-59220552D01*
X121417009Y-59191222D01*
X121573534Y-59107557D01*
X121743373Y-59056037D01*
X121809557Y-59049519D01*
X121875740Y-59043000D01*
X121964260Y-59043000D01*
X122030443Y-59049519D01*
X122030443Y-59049519D01*
G37*
G36*
X158352442Y-56509518D02*
G01*
X158418627Y-56516037D01*
X158588466Y-56567557D01*
X158744991Y-56651222D01*
X158780729Y-56680552D01*
X158882186Y-56763814D01*
X158965448Y-56865271D01*
X158994778Y-56901009D01*
X159078443Y-57057534D01*
X159129963Y-57227373D01*
X159147359Y-57404000D01*
X159129963Y-57580627D01*
X159078443Y-57750466D01*
X158994778Y-57906991D01*
X158965448Y-57942729D01*
X158882186Y-58044186D01*
X158780729Y-58127448D01*
X158744991Y-58156778D01*
X158588466Y-58240443D01*
X158418627Y-58291963D01*
X158352443Y-58298481D01*
X158286260Y-58305000D01*
X158197740Y-58305000D01*
X158131557Y-58298481D01*
X158065373Y-58291963D01*
X157895534Y-58240443D01*
X157739009Y-58156778D01*
X157703271Y-58127448D01*
X157601814Y-58044186D01*
X157518552Y-57942729D01*
X157489222Y-57906991D01*
X157405557Y-57750466D01*
X157354037Y-57580627D01*
X157336641Y-57404000D01*
X157354037Y-57227373D01*
X157405557Y-57057534D01*
X157489222Y-56901009D01*
X157518552Y-56865271D01*
X157601814Y-56763814D01*
X157703271Y-56680552D01*
X157739009Y-56651222D01*
X157895534Y-56567557D01*
X158065373Y-56516037D01*
X158131558Y-56509518D01*
X158197740Y-56503000D01*
X158286260Y-56503000D01*
X158352442Y-56509518D01*
X158352442Y-56509518D01*
G37*
G36*
X122030442Y-56509518D02*
G01*
X122096627Y-56516037D01*
X122266466Y-56567557D01*
X122422991Y-56651222D01*
X122458729Y-56680552D01*
X122560186Y-56763814D01*
X122643448Y-56865271D01*
X122672778Y-56901009D01*
X122756443Y-57057534D01*
X122807963Y-57227373D01*
X122825359Y-57404000D01*
X122807963Y-57580627D01*
X122756443Y-57750466D01*
X122672778Y-57906991D01*
X122643448Y-57942729D01*
X122560186Y-58044186D01*
X122458729Y-58127448D01*
X122422991Y-58156778D01*
X122266466Y-58240443D01*
X122096627Y-58291963D01*
X122030443Y-58298481D01*
X121964260Y-58305000D01*
X121875740Y-58305000D01*
X121809557Y-58298481D01*
X121743373Y-58291963D01*
X121573534Y-58240443D01*
X121417009Y-58156778D01*
X121381271Y-58127448D01*
X121279814Y-58044186D01*
X121196552Y-57942729D01*
X121167222Y-57906991D01*
X121083557Y-57750466D01*
X121032037Y-57580627D01*
X121014641Y-57404000D01*
X121032037Y-57227373D01*
X121083557Y-57057534D01*
X121167222Y-56901009D01*
X121196552Y-56865271D01*
X121279814Y-56763814D01*
X121381271Y-56680552D01*
X121417009Y-56651222D01*
X121573534Y-56567557D01*
X121743373Y-56516037D01*
X121809558Y-56509518D01*
X121875740Y-56503000D01*
X121964260Y-56503000D01*
X122030442Y-56509518D01*
X122030442Y-56509518D01*
G37*
G36*
X122821000Y-55765000D02*
G01*
X121019000Y-55765000D01*
X121019000Y-53963000D01*
X122821000Y-53963000D01*
X122821000Y-55765000D01*
X122821000Y-55765000D01*
G37*
G36*
X158352443Y-53969519D02*
G01*
X158418627Y-53976037D01*
X158588466Y-54027557D01*
X158744991Y-54111222D01*
X158780729Y-54140552D01*
X158882186Y-54223814D01*
X158965448Y-54325271D01*
X158994778Y-54361009D01*
X159078443Y-54517534D01*
X159129963Y-54687373D01*
X159147359Y-54864000D01*
X159129963Y-55040627D01*
X159078443Y-55210466D01*
X158994778Y-55366991D01*
X158965448Y-55402729D01*
X158882186Y-55504186D01*
X158780729Y-55587448D01*
X158744991Y-55616778D01*
X158588466Y-55700443D01*
X158418627Y-55751963D01*
X158352443Y-55758481D01*
X158286260Y-55765000D01*
X158197740Y-55765000D01*
X158131557Y-55758481D01*
X158065373Y-55751963D01*
X157895534Y-55700443D01*
X157739009Y-55616778D01*
X157703271Y-55587448D01*
X157601814Y-55504186D01*
X157518552Y-55402729D01*
X157489222Y-55366991D01*
X157405557Y-55210466D01*
X157354037Y-55040627D01*
X157336641Y-54864000D01*
X157354037Y-54687373D01*
X157405557Y-54517534D01*
X157489222Y-54361009D01*
X157518552Y-54325271D01*
X157601814Y-54223814D01*
X157703271Y-54140552D01*
X157739009Y-54111222D01*
X157895534Y-54027557D01*
X158065373Y-53976037D01*
X158131557Y-53969519D01*
X158197740Y-53963000D01*
X158286260Y-53963000D01*
X158352443Y-53969519D01*
X158352443Y-53969519D01*
G37*
G36*
X158069000Y-48087000D02*
G01*
X155367000Y-48087000D01*
X155367000Y-45385000D01*
X158069000Y-45385000D01*
X158069000Y-48087000D01*
X158069000Y-48087000D01*
G37*
G36*
X152112072Y-45436918D02*
G01*
X152357939Y-45538759D01*
X152469328Y-45613187D01*
X152579211Y-45686609D01*
X152767391Y-45874789D01*
X152915242Y-46096063D01*
X153017082Y-46341928D01*
X153069000Y-46602937D01*
X153069000Y-46869063D01*
X153017082Y-47130072D01*
X152915242Y-47375937D01*
X152767391Y-47597211D01*
X152579211Y-47785391D01*
X152512449Y-47830000D01*
X152357939Y-47933241D01*
X152357938Y-47933242D01*
X152357937Y-47933242D01*
X152112072Y-48035082D01*
X151851063Y-48087000D01*
X151584937Y-48087000D01*
X151323928Y-48035082D01*
X151078063Y-47933242D01*
X151078062Y-47933242D01*
X151078061Y-47933241D01*
X150923551Y-47830000D01*
X150856789Y-47785391D01*
X150668609Y-47597211D01*
X150520758Y-47375937D01*
X150418918Y-47130072D01*
X150367000Y-46869063D01*
X150367000Y-46602937D01*
X150418918Y-46341928D01*
X150520758Y-46096063D01*
X150668609Y-45874789D01*
X150856789Y-45686609D01*
X150966672Y-45613187D01*
X151078061Y-45538759D01*
X151323928Y-45436918D01*
X151584937Y-45385000D01*
X151851063Y-45385000D01*
X152112072Y-45436918D01*
X152112072Y-45436918D01*
G37*
G36*
X110676348Y-46307820D02*
G01*
X110676350Y-46307821D01*
X110676351Y-46307821D01*
X110817574Y-46366317D01*
X110817577Y-46366319D01*
X110944669Y-46451239D01*
X111052761Y-46559331D01*
X111137681Y-46686423D01*
X111137683Y-46686426D01*
X111189052Y-46810443D01*
X111196180Y-46827652D01*
X111204417Y-46869063D01*
X111226000Y-46977571D01*
X111226000Y-47130429D01*
X111196179Y-47280351D01*
X111137683Y-47421574D01*
X111137681Y-47421577D01*
X111052761Y-47548669D01*
X110944669Y-47656761D01*
X110817577Y-47741681D01*
X110817574Y-47741683D01*
X110676351Y-47800179D01*
X110676350Y-47800179D01*
X110676348Y-47800180D01*
X110526431Y-47830000D01*
X110373569Y-47830000D01*
X110223652Y-47800180D01*
X110223650Y-47800179D01*
X110223649Y-47800179D01*
X110082426Y-47741683D01*
X110082423Y-47741681D01*
X109955331Y-47656761D01*
X109847239Y-47548669D01*
X109762319Y-47421577D01*
X109762317Y-47421574D01*
X109703821Y-47280351D01*
X109674000Y-47130429D01*
X109674000Y-46977571D01*
X109695583Y-46869063D01*
X109703820Y-46827652D01*
X109710948Y-46810443D01*
X109762317Y-46686426D01*
X109762319Y-46686423D01*
X109847239Y-46559331D01*
X109955331Y-46451239D01*
X110082423Y-46366319D01*
X110082426Y-46366317D01*
X110223649Y-46307821D01*
X110223650Y-46307821D01*
X110223652Y-46307820D01*
X110373569Y-46278000D01*
X110526431Y-46278000D01*
X110676348Y-46307820D01*
X110676348Y-46307820D01*
G37*
G36*
X105676348Y-46307820D02*
G01*
X105676350Y-46307821D01*
X105676351Y-46307821D01*
X105817574Y-46366317D01*
X105817577Y-46366319D01*
X105944669Y-46451239D01*
X106052761Y-46559331D01*
X106137681Y-46686423D01*
X106137683Y-46686426D01*
X106189052Y-46810443D01*
X106196180Y-46827652D01*
X106204417Y-46869063D01*
X106226000Y-46977571D01*
X106226000Y-47130429D01*
X106196179Y-47280351D01*
X106137683Y-47421574D01*
X106137681Y-47421577D01*
X106052761Y-47548669D01*
X105944669Y-47656761D01*
X105817577Y-47741681D01*
X105817574Y-47741683D01*
X105676351Y-47800179D01*
X105676350Y-47800179D01*
X105676348Y-47800180D01*
X105526431Y-47830000D01*
X105373569Y-47830000D01*
X105223652Y-47800180D01*
X105223650Y-47800179D01*
X105223649Y-47800179D01*
X105082426Y-47741683D01*
X105082423Y-47741681D01*
X104955331Y-47656761D01*
X104847239Y-47548669D01*
X104762319Y-47421577D01*
X104762317Y-47421574D01*
X104703821Y-47280351D01*
X104674000Y-47130429D01*
X104674000Y-46977571D01*
X104695583Y-46869063D01*
X104703820Y-46827652D01*
X104710948Y-46810443D01*
X104762317Y-46686426D01*
X104762319Y-46686423D01*
X104847239Y-46559331D01*
X104955331Y-46451239D01*
X105082423Y-46366319D01*
X105082426Y-46366317D01*
X105223649Y-46307821D01*
X105223650Y-46307821D01*
X105223652Y-46307820D01*
X105373569Y-46278000D01*
X105526431Y-46278000D01*
X105676348Y-46307820D01*
X105676348Y-46307820D01*
G37*
G36*
X132698443Y-45079519D02*
G01*
X132764627Y-45086037D01*
X132934466Y-45137557D01*
X133090991Y-45221222D01*
X133126729Y-45250552D01*
X133228186Y-45333814D01*
X133311448Y-45435271D01*
X133340778Y-45471009D01*
X133424443Y-45627534D01*
X133475963Y-45797373D01*
X133493359Y-45974000D01*
X133475963Y-46150627D01*
X133424443Y-46320466D01*
X133340778Y-46476991D01*
X133311448Y-46512729D01*
X133228186Y-46614186D01*
X133140160Y-46686426D01*
X133090991Y-46726778D01*
X132934466Y-46810443D01*
X132764627Y-46861963D01*
X132698442Y-46868482D01*
X132632260Y-46875000D01*
X132543740Y-46875000D01*
X132477558Y-46868482D01*
X132411373Y-46861963D01*
X132241534Y-46810443D01*
X132085009Y-46726778D01*
X132035840Y-46686426D01*
X131947814Y-46614186D01*
X131864552Y-46512729D01*
X131835222Y-46476991D01*
X131751557Y-46320466D01*
X131700037Y-46150627D01*
X131682641Y-45974000D01*
X131700037Y-45797373D01*
X131751557Y-45627534D01*
X131835222Y-45471009D01*
X131864552Y-45435271D01*
X131947814Y-45333814D01*
X132049271Y-45250552D01*
X132085009Y-45221222D01*
X132241534Y-45137557D01*
X132411373Y-45086037D01*
X132477557Y-45079519D01*
X132543740Y-45073000D01*
X132632260Y-45073000D01*
X132698443Y-45079519D01*
X132698443Y-45079519D01*
G37*
G36*
X146951000Y-46875000D02*
G01*
X145149000Y-46875000D01*
X145149000Y-45073000D01*
X146951000Y-45073000D01*
X146951000Y-46875000D01*
X146951000Y-46875000D01*
G37*
G36*
X143620443Y-45079519D02*
G01*
X143686627Y-45086037D01*
X143856466Y-45137557D01*
X144012991Y-45221222D01*
X144048729Y-45250552D01*
X144150186Y-45333814D01*
X144233448Y-45435271D01*
X144262778Y-45471009D01*
X144346443Y-45627534D01*
X144397963Y-45797373D01*
X144415359Y-45974000D01*
X144397963Y-46150627D01*
X144346443Y-46320466D01*
X144262778Y-46476991D01*
X144233448Y-46512729D01*
X144150186Y-46614186D01*
X144062160Y-46686426D01*
X144012991Y-46726778D01*
X143856466Y-46810443D01*
X143686627Y-46861963D01*
X143620442Y-46868482D01*
X143554260Y-46875000D01*
X143465740Y-46875000D01*
X143399558Y-46868482D01*
X143333373Y-46861963D01*
X143163534Y-46810443D01*
X143007009Y-46726778D01*
X142957840Y-46686426D01*
X142869814Y-46614186D01*
X142786552Y-46512729D01*
X142757222Y-46476991D01*
X142673557Y-46320466D01*
X142622037Y-46150627D01*
X142604641Y-45974000D01*
X142622037Y-45797373D01*
X142673557Y-45627534D01*
X142757222Y-45471009D01*
X142786552Y-45435271D01*
X142869814Y-45333814D01*
X142971271Y-45250552D01*
X143007009Y-45221222D01*
X143163534Y-45137557D01*
X143333373Y-45086037D01*
X143399557Y-45079519D01*
X143465740Y-45073000D01*
X143554260Y-45073000D01*
X143620443Y-45079519D01*
X143620443Y-45079519D01*
G37*
G36*
X128409000Y-46875000D02*
G01*
X126607000Y-46875000D01*
X126607000Y-45073000D01*
X128409000Y-45073000D01*
X128409000Y-46875000D01*
X128409000Y-46875000D01*
G37*
G36*
X130158443Y-45079519D02*
G01*
X130224627Y-45086037D01*
X130394466Y-45137557D01*
X130550991Y-45221222D01*
X130586729Y-45250552D01*
X130688186Y-45333814D01*
X130771448Y-45435271D01*
X130800778Y-45471009D01*
X130884443Y-45627534D01*
X130935963Y-45797373D01*
X130953359Y-45974000D01*
X130935963Y-46150627D01*
X130884443Y-46320466D01*
X130800778Y-46476991D01*
X130771448Y-46512729D01*
X130688186Y-46614186D01*
X130600160Y-46686426D01*
X130550991Y-46726778D01*
X130394466Y-46810443D01*
X130224627Y-46861963D01*
X130158442Y-46868482D01*
X130092260Y-46875000D01*
X130003740Y-46875000D01*
X129937558Y-46868482D01*
X129871373Y-46861963D01*
X129701534Y-46810443D01*
X129545009Y-46726778D01*
X129495840Y-46686426D01*
X129407814Y-46614186D01*
X129324552Y-46512729D01*
X129295222Y-46476991D01*
X129211557Y-46320466D01*
X129160037Y-46150627D01*
X129142641Y-45974000D01*
X129160037Y-45797373D01*
X129211557Y-45627534D01*
X129295222Y-45471009D01*
X129324552Y-45435271D01*
X129407814Y-45333814D01*
X129509271Y-45250552D01*
X129545009Y-45221222D01*
X129701534Y-45137557D01*
X129871373Y-45086037D01*
X129937557Y-45079519D01*
X130003740Y-45073000D01*
X130092260Y-45073000D01*
X130158443Y-45079519D01*
X130158443Y-45079519D01*
G37*
G36*
X135238443Y-45079519D02*
G01*
X135304627Y-45086037D01*
X135474466Y-45137557D01*
X135630991Y-45221222D01*
X135666729Y-45250552D01*
X135768186Y-45333814D01*
X135851448Y-45435271D01*
X135880778Y-45471009D01*
X135964443Y-45627534D01*
X136015963Y-45797373D01*
X136033359Y-45974000D01*
X136015963Y-46150627D01*
X135964443Y-46320466D01*
X135880778Y-46476991D01*
X135851448Y-46512729D01*
X135768186Y-46614186D01*
X135680160Y-46686426D01*
X135630991Y-46726778D01*
X135474466Y-46810443D01*
X135304627Y-46861963D01*
X135238442Y-46868482D01*
X135172260Y-46875000D01*
X135083740Y-46875000D01*
X135017558Y-46868482D01*
X134951373Y-46861963D01*
X134781534Y-46810443D01*
X134625009Y-46726778D01*
X134575840Y-46686426D01*
X134487814Y-46614186D01*
X134404552Y-46512729D01*
X134375222Y-46476991D01*
X134291557Y-46320466D01*
X134240037Y-46150627D01*
X134222641Y-45974000D01*
X134240037Y-45797373D01*
X134291557Y-45627534D01*
X134375222Y-45471009D01*
X134404552Y-45435271D01*
X134487814Y-45333814D01*
X134589271Y-45250552D01*
X134625009Y-45221222D01*
X134781534Y-45137557D01*
X134951373Y-45086037D01*
X135017557Y-45079519D01*
X135083740Y-45073000D01*
X135172260Y-45073000D01*
X135238443Y-45079519D01*
X135238443Y-45079519D01*
G37*
G36*
X141080443Y-45079519D02*
G01*
X141146627Y-45086037D01*
X141316466Y-45137557D01*
X141472991Y-45221222D01*
X141508729Y-45250552D01*
X141610186Y-45333814D01*
X141693448Y-45435271D01*
X141722778Y-45471009D01*
X141806443Y-45627534D01*
X141857963Y-45797373D01*
X141875359Y-45974000D01*
X141857963Y-46150627D01*
X141806443Y-46320466D01*
X141722778Y-46476991D01*
X141693448Y-46512729D01*
X141610186Y-46614186D01*
X141522160Y-46686426D01*
X141472991Y-46726778D01*
X141316466Y-46810443D01*
X141146627Y-46861963D01*
X141080442Y-46868482D01*
X141014260Y-46875000D01*
X140925740Y-46875000D01*
X140859558Y-46868482D01*
X140793373Y-46861963D01*
X140623534Y-46810443D01*
X140467009Y-46726778D01*
X140417840Y-46686426D01*
X140329814Y-46614186D01*
X140246552Y-46512729D01*
X140217222Y-46476991D01*
X140133557Y-46320466D01*
X140082037Y-46150627D01*
X140064641Y-45974000D01*
X140082037Y-45797373D01*
X140133557Y-45627534D01*
X140217222Y-45471009D01*
X140246552Y-45435271D01*
X140329814Y-45333814D01*
X140431271Y-45250552D01*
X140467009Y-45221222D01*
X140623534Y-45137557D01*
X140793373Y-45086037D01*
X140859557Y-45079519D01*
X140925740Y-45073000D01*
X141014260Y-45073000D01*
X141080443Y-45079519D01*
X141080443Y-45079519D01*
G37*
G36*
X104553114Y-43360611D02*
G01*
X104652265Y-43390688D01*
X104743644Y-43439531D01*
X104823738Y-43505262D01*
X104889469Y-43585356D01*
X104938312Y-43676735D01*
X104968389Y-43775886D01*
X104976000Y-43853161D01*
X104976000Y-44854839D01*
X104968389Y-44932114D01*
X104938312Y-45031265D01*
X104889469Y-45122644D01*
X104823738Y-45202738D01*
X104743644Y-45268469D01*
X104652264Y-45317312D01*
X104553113Y-45347389D01*
X104450000Y-45357545D01*
X104346886Y-45347389D01*
X104247735Y-45317312D01*
X104156356Y-45268469D01*
X104076262Y-45202738D01*
X104010531Y-45122644D01*
X103961688Y-45031264D01*
X103931611Y-44932113D01*
X103924000Y-44854838D01*
X103924001Y-43853161D01*
X103931612Y-43775886D01*
X103961689Y-43676735D01*
X104010532Y-43585356D01*
X104076263Y-43505262D01*
X104156357Y-43439531D01*
X104247736Y-43390688D01*
X104346887Y-43360611D01*
X104450000Y-43350455D01*
X104553114Y-43360611D01*
X104553114Y-43360611D01*
G37*
G36*
X111553114Y-43360611D02*
G01*
X111652265Y-43390688D01*
X111743644Y-43439531D01*
X111823738Y-43505262D01*
X111889469Y-43585356D01*
X111938312Y-43676735D01*
X111968389Y-43775886D01*
X111976000Y-43853161D01*
X111976000Y-44854839D01*
X111968389Y-44932114D01*
X111938312Y-45031265D01*
X111889469Y-45122644D01*
X111823738Y-45202738D01*
X111743644Y-45268469D01*
X111652264Y-45317312D01*
X111553113Y-45347389D01*
X111450000Y-45357545D01*
X111346886Y-45347389D01*
X111247735Y-45317312D01*
X111156356Y-45268469D01*
X111076262Y-45202738D01*
X111010531Y-45122644D01*
X110961688Y-45031264D01*
X110931611Y-44932113D01*
X110924000Y-44854838D01*
X110924001Y-43853161D01*
X110931612Y-43775886D01*
X110961689Y-43676735D01*
X111010532Y-43585356D01*
X111076263Y-43505262D01*
X111156357Y-43439531D01*
X111247736Y-43390688D01*
X111346887Y-43360611D01*
X111450000Y-43350455D01*
X111553114Y-43360611D01*
X111553114Y-43360611D01*
G37*
M02*
