G04 #@! TF.GenerationSoftware,KiCad,Pcbnew,(5.1.4)-1*
G04 #@! TF.CreationDate,2019-10-21T16:45:53-04:00*
G04 #@! TF.ProjectId,psu_board,7073755f-626f-4617-9264-2e6b69636164,rev?*
G04 #@! TF.SameCoordinates,Original*
G04 #@! TF.FileFunction,Copper,L1,Top*
G04 #@! TF.FilePolarity,Positive*
%FSLAX46Y46*%
G04 Gerber Fmt 4.6, Leading zero omitted, Abs format (unit mm)*
G04 Created by KiCad (PCBNEW (5.1.4)-1) date 2019-10-21 16:45:53*
%MOMM*%
%LPD*%
G04 APERTURE LIST*
%ADD10C,2.500000*%
%ADD11R,2.500000X2.500000*%
%ADD12O,1.700000X1.700000*%
%ADD13R,1.700000X1.700000*%
%ADD14C,2.500000*%
%ADD15C,0.254000*%
G04 APERTURE END LIST*
D10*
X157956000Y-152146000D03*
D11*
X162956000Y-152146000D03*
D10*
X170006000Y-152146000D03*
D11*
X175006000Y-152146000D03*
D12*
X180594000Y-155956000D03*
X180594000Y-153416000D03*
D13*
X180594000Y-150876000D03*
D12*
X189230000Y-155956000D03*
X189230000Y-153416000D03*
D13*
X189230000Y-150876000D03*
X229870000Y-144018000D03*
X170180000Y-138176000D03*
D10*
X185086000Y-68580000D03*
D11*
X180086000Y-68580000D03*
D13*
X242570000Y-75438000D03*
X224790000Y-75438000D03*
X182880000Y-92456000D03*
X165100000Y-92456000D03*
X217170000Y-144018000D03*
X242570000Y-144272000D03*
X157480000Y-138176000D03*
X182880000Y-138176000D03*
D12*
X184912000Y-150876000D03*
X184912000Y-153416000D03*
D13*
X184912000Y-155956000D03*
D14*
X180594000Y-140462000D02*
X182880000Y-138176000D01*
X180594000Y-155956000D02*
X180594000Y-140462000D01*
X157956000Y-146336000D02*
X157956000Y-152146000D01*
X160782000Y-143510000D02*
X157956000Y-146336000D01*
X174196000Y-143510000D02*
X160782000Y-143510000D01*
X182880000Y-138176000D02*
X179530000Y-138176000D01*
X179530000Y-138176000D02*
X174196000Y-143510000D01*
X190432081Y-155956000D02*
X189230000Y-155956000D01*
X234236000Y-155956000D02*
X190432081Y-155956000D01*
X242570000Y-147622000D02*
X234236000Y-155956000D01*
X242570000Y-144272000D02*
X242570000Y-147622000D01*
X189230000Y-155956000D02*
X189230000Y-150876000D01*
X168450000Y-92456000D02*
X165100000Y-92456000D01*
X180086000Y-80820000D02*
X168450000Y-92456000D01*
X180086000Y-68580000D02*
X180086000Y-80820000D01*
X224790000Y-75438000D02*
X201422000Y-75438000D01*
X201422000Y-75438000D02*
X191008000Y-65024000D01*
X191008000Y-65024000D02*
X181356000Y-65024000D01*
X181356000Y-65024000D02*
X180086000Y-66294000D01*
X180086000Y-66294000D02*
X180086000Y-68580000D01*
X185086000Y-68580000D02*
X198802000Y-82296000D01*
X239220000Y-75438000D02*
X242570000Y-75438000D01*
X232362000Y-82296000D02*
X239220000Y-75438000D01*
X198802000Y-82296000D02*
X232362000Y-82296000D01*
X185086000Y-90250000D02*
X182880000Y-92456000D01*
X185086000Y-68580000D02*
X185086000Y-90250000D01*
D15*
G36*
X180016655Y-63684655D02*
G01*
X179957630Y-63756577D01*
X178818582Y-64895626D01*
X178746655Y-64954655D01*
X178511097Y-65241683D01*
X178336061Y-65569153D01*
X178228275Y-65924477D01*
X178201000Y-66201404D01*
X178201000Y-66201411D01*
X178191881Y-66294000D01*
X178201000Y-66386590D01*
X178201000Y-67298804D01*
X178197928Y-67330000D01*
X178197928Y-69830000D01*
X178201000Y-69861193D01*
X178201001Y-80039206D01*
X167669208Y-90571000D01*
X165007403Y-90571000D01*
X164730476Y-90598275D01*
X164375152Y-90706061D01*
X164047683Y-90881097D01*
X163760655Y-91116655D01*
X163525097Y-91403683D01*
X163350061Y-91731152D01*
X163242275Y-92086476D01*
X163205880Y-92456000D01*
X163242275Y-92825524D01*
X163350061Y-93180848D01*
X163525097Y-93508317D01*
X163760655Y-93795345D01*
X164047683Y-94030903D01*
X164375152Y-94205939D01*
X164730476Y-94313725D01*
X165007403Y-94341000D01*
X168357411Y-94341000D01*
X168450000Y-94350119D01*
X168542589Y-94341000D01*
X168542597Y-94341000D01*
X168819524Y-94313725D01*
X169174848Y-94205939D01*
X169502317Y-94030903D01*
X169789345Y-93795345D01*
X169848374Y-93723418D01*
X181353423Y-82218370D01*
X181425345Y-82159345D01*
X181660903Y-81872317D01*
X181835939Y-81544848D01*
X181927296Y-81243683D01*
X181943725Y-81189525D01*
X181947197Y-81154268D01*
X181971000Y-80912597D01*
X181971000Y-80912590D01*
X181980119Y-80820001D01*
X181971000Y-80727412D01*
X181971000Y-69861192D01*
X181974072Y-69830000D01*
X181974072Y-67330000D01*
X181971000Y-67298808D01*
X181971000Y-67074792D01*
X182136793Y-66909000D01*
X184194407Y-66909000D01*
X184193118Y-66909534D01*
X184115739Y-66961237D01*
X184033683Y-67005097D01*
X183961761Y-67064122D01*
X183884382Y-67115825D01*
X183818577Y-67181630D01*
X183746655Y-67240655D01*
X183687630Y-67312577D01*
X183621825Y-67378382D01*
X183570122Y-67455761D01*
X183511097Y-67527683D01*
X183467238Y-67609738D01*
X183415534Y-67687118D01*
X183379919Y-67773100D01*
X183336061Y-67855153D01*
X183309054Y-67944184D01*
X183273439Y-68030166D01*
X183255283Y-68121444D01*
X183228275Y-68210477D01*
X183219155Y-68303070D01*
X183201000Y-68394344D01*
X183201000Y-68487411D01*
X183191881Y-68580000D01*
X183201000Y-68672589D01*
X183201001Y-89469206D01*
X181481628Y-91188580D01*
X181305098Y-91403683D01*
X181130062Y-91731152D01*
X181022275Y-92086476D01*
X180985881Y-92456000D01*
X181022275Y-92825524D01*
X181130062Y-93180848D01*
X181305098Y-93508317D01*
X181540655Y-93795345D01*
X181827683Y-94030902D01*
X182155152Y-94205938D01*
X182510476Y-94313725D01*
X182880000Y-94350119D01*
X183249524Y-94313725D01*
X183604848Y-94205938D01*
X183932317Y-94030902D01*
X184147420Y-93854372D01*
X186353423Y-91648370D01*
X186425345Y-91589345D01*
X186513837Y-91481518D01*
X186660902Y-91302318D01*
X186688062Y-91251506D01*
X186835939Y-90974848D01*
X186943725Y-90619524D01*
X186971000Y-90342597D01*
X186971000Y-90342588D01*
X186980119Y-90250001D01*
X186971000Y-90157414D01*
X186971000Y-73130792D01*
X197403630Y-83563423D01*
X197462655Y-83635345D01*
X197534577Y-83694370D01*
X197534579Y-83694372D01*
X197688049Y-83820321D01*
X197749683Y-83870903D01*
X198077152Y-84045939D01*
X198432476Y-84153725D01*
X198709403Y-84181000D01*
X198709412Y-84181000D01*
X198801999Y-84190119D01*
X198894586Y-84181000D01*
X232269411Y-84181000D01*
X232362000Y-84190119D01*
X232454589Y-84181000D01*
X232454597Y-84181000D01*
X232731524Y-84153725D01*
X233086848Y-84045939D01*
X233414317Y-83870903D01*
X233701345Y-83635345D01*
X233760374Y-83563418D01*
X240000793Y-77323000D01*
X242662597Y-77323000D01*
X242939524Y-77295725D01*
X243294848Y-77187939D01*
X243622317Y-77012903D01*
X243909345Y-76777345D01*
X244144903Y-76490317D01*
X244319939Y-76162848D01*
X244427725Y-75807524D01*
X244464120Y-75438000D01*
X244427725Y-75068476D01*
X244319939Y-74713152D01*
X244144903Y-74385683D01*
X243909345Y-74098655D01*
X243622317Y-73863097D01*
X243294848Y-73688061D01*
X242939524Y-73580275D01*
X242662597Y-73553000D01*
X239312597Y-73553000D01*
X239220000Y-73543880D01*
X239127403Y-73553000D01*
X238850476Y-73580275D01*
X238495152Y-73688061D01*
X238167683Y-73863097D01*
X237952579Y-74039628D01*
X237952577Y-74039630D01*
X237880655Y-74098655D01*
X237821630Y-74170577D01*
X231581208Y-80411000D01*
X199582793Y-80411000D01*
X186550177Y-67378385D01*
X186550175Y-67378382D01*
X186484370Y-67312577D01*
X186425345Y-67240655D01*
X186353423Y-67181630D01*
X186287618Y-67115825D01*
X186210239Y-67064122D01*
X186138317Y-67005097D01*
X186056262Y-66961238D01*
X185978882Y-66909534D01*
X185977593Y-66909000D01*
X190227208Y-66909000D01*
X200023628Y-76705421D01*
X200082655Y-76777345D01*
X200154577Y-76836370D01*
X200154579Y-76836372D01*
X200248940Y-76913812D01*
X200369683Y-77012903D01*
X200697152Y-77187939D01*
X200944689Y-77263028D01*
X201052475Y-77295725D01*
X201087732Y-77299197D01*
X201329403Y-77323000D01*
X201329410Y-77323000D01*
X201421999Y-77332119D01*
X201514588Y-77323000D01*
X224882597Y-77323000D01*
X225159524Y-77295725D01*
X225514848Y-77187939D01*
X225842317Y-77012903D01*
X226129345Y-76777345D01*
X226364903Y-76490317D01*
X226539939Y-76162848D01*
X226647725Y-75807524D01*
X226684120Y-75438000D01*
X226647725Y-75068476D01*
X226539939Y-74713152D01*
X226364903Y-74385683D01*
X226129345Y-74098655D01*
X225842317Y-73863097D01*
X225514848Y-73688061D01*
X225159524Y-73580275D01*
X224882597Y-73553000D01*
X202202793Y-73553000D01*
X195231665Y-66581872D01*
X199441000Y-66581872D01*
X199441000Y-67022128D01*
X199526890Y-67453925D01*
X199695369Y-67860669D01*
X199939962Y-68226729D01*
X200251271Y-68538038D01*
X200617331Y-68782631D01*
X201024075Y-68951110D01*
X201455872Y-69037000D01*
X201896128Y-69037000D01*
X202327925Y-68951110D01*
X202734669Y-68782631D01*
X203100729Y-68538038D01*
X203412038Y-68226729D01*
X203656631Y-67860669D01*
X203825110Y-67453925D01*
X203911000Y-67022128D01*
X203911000Y-66581872D01*
X203825110Y-66150075D01*
X203656631Y-65743331D01*
X203412038Y-65377271D01*
X203100729Y-65065962D01*
X202734669Y-64821369D01*
X202327925Y-64652890D01*
X201896128Y-64567000D01*
X201455872Y-64567000D01*
X201024075Y-64652890D01*
X200617331Y-64821369D01*
X200251271Y-65065962D01*
X199939962Y-65377271D01*
X199695369Y-65743331D01*
X199526890Y-66150075D01*
X199441000Y-66581872D01*
X195231665Y-66581872D01*
X192406374Y-63756582D01*
X192347345Y-63684655D01*
X192307555Y-63652000D01*
X249530001Y-63652000D01*
X249530000Y-67088418D01*
X249530001Y-67088428D01*
X249530000Y-157074000D01*
X235783792Y-157074000D01*
X238899920Y-153957872D01*
X244399000Y-153957872D01*
X244399000Y-154398128D01*
X244484890Y-154829925D01*
X244653369Y-155236669D01*
X244897962Y-155602729D01*
X245209271Y-155914038D01*
X245575331Y-156158631D01*
X245982075Y-156327110D01*
X246413872Y-156413000D01*
X246854128Y-156413000D01*
X247285925Y-156327110D01*
X247692669Y-156158631D01*
X248058729Y-155914038D01*
X248370038Y-155602729D01*
X248614631Y-155236669D01*
X248783110Y-154829925D01*
X248869000Y-154398128D01*
X248869000Y-153957872D01*
X248783110Y-153526075D01*
X248614631Y-153119331D01*
X248370038Y-152753271D01*
X248058729Y-152441962D01*
X247692669Y-152197369D01*
X247285925Y-152028890D01*
X246854128Y-151943000D01*
X246413872Y-151943000D01*
X245982075Y-152028890D01*
X245575331Y-152197369D01*
X245209271Y-152441962D01*
X244897962Y-152753271D01*
X244653369Y-153119331D01*
X244484890Y-153526075D01*
X244399000Y-153957872D01*
X238899920Y-153957872D01*
X243837423Y-149020370D01*
X243909345Y-148961345D01*
X244144903Y-148674317D01*
X244319939Y-148346848D01*
X244427725Y-147991524D01*
X244455000Y-147714597D01*
X244455000Y-147714589D01*
X244464119Y-147622000D01*
X244455000Y-147529411D01*
X244455000Y-144179403D01*
X244427725Y-143902476D01*
X244319939Y-143547152D01*
X244144903Y-143219683D01*
X243909345Y-142932655D01*
X243622317Y-142697097D01*
X243294847Y-142522061D01*
X242939523Y-142414275D01*
X242570000Y-142377880D01*
X242200476Y-142414275D01*
X241845152Y-142522061D01*
X241517683Y-142697097D01*
X241230655Y-142932655D01*
X240995097Y-143219683D01*
X240820061Y-143547153D01*
X240712275Y-143902477D01*
X240685000Y-144179404D01*
X240685001Y-146841206D01*
X233455208Y-154071000D01*
X191115000Y-154071000D01*
X191115000Y-150783403D01*
X191087725Y-150506476D01*
X190979939Y-150151152D01*
X190804903Y-149823683D01*
X190569345Y-149536655D01*
X190282317Y-149301097D01*
X189954848Y-149126061D01*
X189599524Y-149018275D01*
X189230000Y-148981880D01*
X188860477Y-149018275D01*
X188505153Y-149126061D01*
X188177684Y-149301097D01*
X187890656Y-149536655D01*
X187655098Y-149823683D01*
X187480062Y-150151152D01*
X187372276Y-150506476D01*
X187345001Y-150783403D01*
X187345000Y-155863403D01*
X187335880Y-155956000D01*
X187372275Y-156325524D01*
X187480061Y-156680848D01*
X187613493Y-156930482D01*
X187655097Y-157008317D01*
X187709002Y-157074000D01*
X186338770Y-157074000D01*
X186351502Y-157050180D01*
X186387812Y-156930482D01*
X186400072Y-156806000D01*
X186397000Y-156241750D01*
X186238250Y-156083000D01*
X185039000Y-156083000D01*
X185039000Y-156103000D01*
X184785000Y-156103000D01*
X184785000Y-156083000D01*
X183585750Y-156083000D01*
X183427000Y-156241750D01*
X183423928Y-156806000D01*
X183436188Y-156930482D01*
X183472498Y-157050180D01*
X183485230Y-157074000D01*
X182114998Y-157074000D01*
X182168903Y-157008317D01*
X182343939Y-156680848D01*
X182451725Y-156325524D01*
X182479000Y-156048597D01*
X182479000Y-155106000D01*
X183423928Y-155106000D01*
X183427000Y-155670250D01*
X183585750Y-155829000D01*
X184785000Y-155829000D01*
X184785000Y-153543000D01*
X185039000Y-153543000D01*
X185039000Y-155829000D01*
X186238250Y-155829000D01*
X186397000Y-155670250D01*
X186400072Y-155106000D01*
X186387812Y-154981518D01*
X186351502Y-154861820D01*
X186292537Y-154751506D01*
X186213185Y-154654815D01*
X186116494Y-154575463D01*
X186006180Y-154516498D01*
X185925534Y-154492034D01*
X186009588Y-154416269D01*
X186183641Y-154182920D01*
X186308825Y-153920099D01*
X186353476Y-153772890D01*
X186232155Y-153543000D01*
X185039000Y-153543000D01*
X184785000Y-153543000D01*
X183591845Y-153543000D01*
X183470524Y-153772890D01*
X183515175Y-153920099D01*
X183640359Y-154182920D01*
X183814412Y-154416269D01*
X183898466Y-154492034D01*
X183817820Y-154516498D01*
X183707506Y-154575463D01*
X183610815Y-154654815D01*
X183531463Y-154751506D01*
X183472498Y-154861820D01*
X183436188Y-154981518D01*
X183423928Y-155106000D01*
X182479000Y-155106000D01*
X182479000Y-151232890D01*
X183470524Y-151232890D01*
X183515175Y-151380099D01*
X183640359Y-151642920D01*
X183814412Y-151876269D01*
X184030645Y-152071178D01*
X184156255Y-152146000D01*
X184030645Y-152220822D01*
X183814412Y-152415731D01*
X183640359Y-152649080D01*
X183515175Y-152911901D01*
X183470524Y-153059110D01*
X183591845Y-153289000D01*
X184785000Y-153289000D01*
X184785000Y-151003000D01*
X185039000Y-151003000D01*
X185039000Y-153289000D01*
X186232155Y-153289000D01*
X186353476Y-153059110D01*
X186308825Y-152911901D01*
X186183641Y-152649080D01*
X186009588Y-152415731D01*
X185793355Y-152220822D01*
X185667745Y-152146000D01*
X185793355Y-152071178D01*
X186009588Y-151876269D01*
X186183641Y-151642920D01*
X186308825Y-151380099D01*
X186353476Y-151232890D01*
X186232155Y-151003000D01*
X185039000Y-151003000D01*
X184785000Y-151003000D01*
X183591845Y-151003000D01*
X183470524Y-151232890D01*
X182479000Y-151232890D01*
X182479000Y-150519110D01*
X183470524Y-150519110D01*
X183591845Y-150749000D01*
X184785000Y-150749000D01*
X184785000Y-149555186D01*
X185039000Y-149555186D01*
X185039000Y-150749000D01*
X186232155Y-150749000D01*
X186353476Y-150519110D01*
X186308825Y-150371901D01*
X186183641Y-150109080D01*
X186009588Y-149875731D01*
X185793355Y-149680822D01*
X185543252Y-149531843D01*
X185268891Y-149434519D01*
X185039000Y-149555186D01*
X184785000Y-149555186D01*
X184555109Y-149434519D01*
X184280748Y-149531843D01*
X184030645Y-149680822D01*
X183814412Y-149875731D01*
X183640359Y-150109080D01*
X183515175Y-150371901D01*
X183470524Y-150519110D01*
X182479000Y-150519110D01*
X182479000Y-147861872D01*
X199441000Y-147861872D01*
X199441000Y-148302128D01*
X199526890Y-148733925D01*
X199695369Y-149140669D01*
X199939962Y-149506729D01*
X200251271Y-149818038D01*
X200617331Y-150062631D01*
X201024075Y-150231110D01*
X201455872Y-150317000D01*
X201896128Y-150317000D01*
X202327925Y-150231110D01*
X202734669Y-150062631D01*
X203100729Y-149818038D01*
X203412038Y-149506729D01*
X203656631Y-149140669D01*
X203825110Y-148733925D01*
X203911000Y-148302128D01*
X203911000Y-147861872D01*
X203825110Y-147430075D01*
X203656631Y-147023331D01*
X203412038Y-146657271D01*
X203100729Y-146345962D01*
X202734669Y-146101369D01*
X202327925Y-145932890D01*
X201896128Y-145847000D01*
X201455872Y-145847000D01*
X201024075Y-145932890D01*
X200617331Y-146101369D01*
X200251271Y-146345962D01*
X199939962Y-146657271D01*
X199695369Y-147023331D01*
X199526890Y-147430075D01*
X199441000Y-147861872D01*
X182479000Y-147861872D01*
X182479000Y-144868000D01*
X215681928Y-144868000D01*
X215694188Y-144992482D01*
X215730498Y-145112180D01*
X215789463Y-145222494D01*
X215868815Y-145319185D01*
X215965506Y-145398537D01*
X216075820Y-145457502D01*
X216195518Y-145493812D01*
X216320000Y-145506072D01*
X216884250Y-145503000D01*
X217043000Y-145344250D01*
X217043000Y-144145000D01*
X217297000Y-144145000D01*
X217297000Y-145344250D01*
X217455750Y-145503000D01*
X218020000Y-145506072D01*
X218144482Y-145493812D01*
X218264180Y-145457502D01*
X218374494Y-145398537D01*
X218471185Y-145319185D01*
X218550537Y-145222494D01*
X218609502Y-145112180D01*
X218645812Y-144992482D01*
X218658072Y-144868000D01*
X218655000Y-144303750D01*
X218496250Y-144145000D01*
X217297000Y-144145000D01*
X217043000Y-144145000D01*
X215843750Y-144145000D01*
X215685000Y-144303750D01*
X215681928Y-144868000D01*
X182479000Y-144868000D01*
X182479000Y-143168000D01*
X215681928Y-143168000D01*
X215685000Y-143732250D01*
X215843750Y-143891000D01*
X217043000Y-143891000D01*
X217043000Y-142691750D01*
X217297000Y-142691750D01*
X217297000Y-143891000D01*
X218496250Y-143891000D01*
X218655000Y-143732250D01*
X218658072Y-143168000D01*
X228381928Y-143168000D01*
X228381928Y-144868000D01*
X228394188Y-144992482D01*
X228430498Y-145112180D01*
X228489463Y-145222494D01*
X228568815Y-145319185D01*
X228665506Y-145398537D01*
X228775820Y-145457502D01*
X228895518Y-145493812D01*
X229020000Y-145506072D01*
X230720000Y-145506072D01*
X230844482Y-145493812D01*
X230964180Y-145457502D01*
X231074494Y-145398537D01*
X231171185Y-145319185D01*
X231250537Y-145222494D01*
X231309502Y-145112180D01*
X231345812Y-144992482D01*
X231358072Y-144868000D01*
X231358072Y-143168000D01*
X231345812Y-143043518D01*
X231309502Y-142923820D01*
X231250537Y-142813506D01*
X231171185Y-142716815D01*
X231074494Y-142637463D01*
X230964180Y-142578498D01*
X230844482Y-142542188D01*
X230720000Y-142529928D01*
X229020000Y-142529928D01*
X228895518Y-142542188D01*
X228775820Y-142578498D01*
X228665506Y-142637463D01*
X228568815Y-142716815D01*
X228489463Y-142813506D01*
X228430498Y-142923820D01*
X228394188Y-143043518D01*
X228381928Y-143168000D01*
X218658072Y-143168000D01*
X218645812Y-143043518D01*
X218609502Y-142923820D01*
X218550537Y-142813506D01*
X218471185Y-142716815D01*
X218374494Y-142637463D01*
X218264180Y-142578498D01*
X218144482Y-142542188D01*
X218020000Y-142529928D01*
X217455750Y-142533000D01*
X217297000Y-142691750D01*
X217043000Y-142691750D01*
X216884250Y-142533000D01*
X216320000Y-142529928D01*
X216195518Y-142542188D01*
X216075820Y-142578498D01*
X215965506Y-142637463D01*
X215868815Y-142716815D01*
X215789463Y-142813506D01*
X215730498Y-142923820D01*
X215694188Y-143043518D01*
X215681928Y-143168000D01*
X182479000Y-143168000D01*
X182479000Y-141242792D01*
X184147423Y-139574370D01*
X184219345Y-139515345D01*
X184330015Y-139380494D01*
X184454902Y-139228318D01*
X184454903Y-139228317D01*
X184629939Y-138900848D01*
X184737725Y-138545524D01*
X184774120Y-138176000D01*
X184737725Y-137806476D01*
X184629939Y-137451152D01*
X184454903Y-137123683D01*
X184219345Y-136836655D01*
X183932317Y-136601097D01*
X183604848Y-136426061D01*
X183249524Y-136318275D01*
X182972597Y-136291000D01*
X182972586Y-136291000D01*
X182879999Y-136281881D01*
X182787412Y-136291000D01*
X179622586Y-136291000D01*
X179529999Y-136281881D01*
X179437412Y-136291000D01*
X179437403Y-136291000D01*
X179160476Y-136318275D01*
X178805152Y-136426061D01*
X178477683Y-136601097D01*
X178477681Y-136601098D01*
X178477682Y-136601098D01*
X178262579Y-136777628D01*
X178262577Y-136777630D01*
X178190655Y-136836655D01*
X178131630Y-136908577D01*
X173415208Y-141625000D01*
X160874597Y-141625000D01*
X160782000Y-141615880D01*
X160412476Y-141652275D01*
X160057151Y-141760061D01*
X159729683Y-141935097D01*
X159442655Y-142170655D01*
X159383628Y-142242580D01*
X156688582Y-144937626D01*
X156616655Y-144996655D01*
X156381097Y-145283683D01*
X156206061Y-145611153D01*
X156098275Y-145966477D01*
X156071000Y-146243404D01*
X156071000Y-146243411D01*
X156061881Y-146336000D01*
X156071000Y-146428589D01*
X156071001Y-151960339D01*
X156071000Y-151960344D01*
X156071000Y-152331656D01*
X156089157Y-152422939D01*
X156098276Y-152515524D01*
X156125282Y-152604550D01*
X156143439Y-152695834D01*
X156179056Y-152781822D01*
X156206062Y-152870848D01*
X156249917Y-152952895D01*
X156285534Y-153038882D01*
X156337242Y-153116269D01*
X156381098Y-153198317D01*
X156440118Y-153270233D01*
X156491825Y-153347618D01*
X156557636Y-153413429D01*
X156616656Y-153485345D01*
X156688572Y-153544365D01*
X156754382Y-153610175D01*
X156831766Y-153661881D01*
X156903684Y-153720903D01*
X156985735Y-153764760D01*
X157063118Y-153816466D01*
X157149101Y-153852081D01*
X157231153Y-153895939D01*
X157320184Y-153922946D01*
X157406166Y-153958561D01*
X157497444Y-153976717D01*
X157586477Y-154003725D01*
X157679071Y-154012845D01*
X157770344Y-154031000D01*
X157863403Y-154031000D01*
X157956000Y-154040120D01*
X158048597Y-154031000D01*
X158141656Y-154031000D01*
X158232929Y-154012845D01*
X158325524Y-154003725D01*
X158414559Y-153976717D01*
X158505834Y-153958561D01*
X158591813Y-153922947D01*
X158680848Y-153895939D01*
X158762903Y-153852080D01*
X158848882Y-153816466D01*
X158926261Y-153764763D01*
X159008317Y-153720903D01*
X159080239Y-153661878D01*
X159157618Y-153610175D01*
X159223423Y-153544370D01*
X159295345Y-153485345D01*
X159354370Y-153413423D01*
X159371793Y-153396000D01*
X161067928Y-153396000D01*
X161080188Y-153520482D01*
X161116498Y-153640180D01*
X161175463Y-153750494D01*
X161254815Y-153847185D01*
X161351506Y-153926537D01*
X161461820Y-153985502D01*
X161581518Y-154021812D01*
X161706000Y-154034072D01*
X162670250Y-154031000D01*
X162829000Y-153872250D01*
X162829000Y-152273000D01*
X163083000Y-152273000D01*
X163083000Y-153872250D01*
X163241750Y-154031000D01*
X164206000Y-154034072D01*
X164330482Y-154021812D01*
X164450180Y-153985502D01*
X164560494Y-153926537D01*
X164657185Y-153847185D01*
X164736537Y-153750494D01*
X164795502Y-153640180D01*
X164831812Y-153520482D01*
X164844072Y-153396000D01*
X164841000Y-152431750D01*
X164682250Y-152273000D01*
X163083000Y-152273000D01*
X162829000Y-152273000D01*
X161229750Y-152273000D01*
X161071000Y-152431750D01*
X161067928Y-153396000D01*
X159371793Y-153396000D01*
X159420175Y-153347618D01*
X159471878Y-153270239D01*
X159530903Y-153198317D01*
X159574763Y-153116261D01*
X159626466Y-153038882D01*
X159662080Y-152952903D01*
X159705939Y-152870848D01*
X159732947Y-152781813D01*
X159768561Y-152695834D01*
X159786717Y-152604559D01*
X159813725Y-152515524D01*
X159822845Y-152422929D01*
X159841000Y-152331656D01*
X159841000Y-150896000D01*
X161067928Y-150896000D01*
X161071000Y-151860250D01*
X161229750Y-152019000D01*
X162829000Y-152019000D01*
X162829000Y-150419750D01*
X163083000Y-150419750D01*
X163083000Y-152019000D01*
X164682250Y-152019000D01*
X164740906Y-151960344D01*
X168121000Y-151960344D01*
X168121000Y-152331656D01*
X168193439Y-152695834D01*
X168335534Y-153038882D01*
X168541825Y-153347618D01*
X168804382Y-153610175D01*
X169113118Y-153816466D01*
X169456166Y-153958561D01*
X169820344Y-154031000D01*
X170191656Y-154031000D01*
X170555834Y-153958561D01*
X170898882Y-153816466D01*
X171207618Y-153610175D01*
X171421793Y-153396000D01*
X173117928Y-153396000D01*
X173130188Y-153520482D01*
X173166498Y-153640180D01*
X173225463Y-153750494D01*
X173304815Y-153847185D01*
X173401506Y-153926537D01*
X173511820Y-153985502D01*
X173631518Y-154021812D01*
X173756000Y-154034072D01*
X174720250Y-154031000D01*
X174879000Y-153872250D01*
X174879000Y-152273000D01*
X175133000Y-152273000D01*
X175133000Y-153872250D01*
X175291750Y-154031000D01*
X176256000Y-154034072D01*
X176380482Y-154021812D01*
X176500180Y-153985502D01*
X176610494Y-153926537D01*
X176707185Y-153847185D01*
X176786537Y-153750494D01*
X176845502Y-153640180D01*
X176881812Y-153520482D01*
X176894072Y-153396000D01*
X176891000Y-152431750D01*
X176732250Y-152273000D01*
X175133000Y-152273000D01*
X174879000Y-152273000D01*
X173279750Y-152273000D01*
X173121000Y-152431750D01*
X173117928Y-153396000D01*
X171421793Y-153396000D01*
X171470175Y-153347618D01*
X171676466Y-153038882D01*
X171818561Y-152695834D01*
X171891000Y-152331656D01*
X171891000Y-151960344D01*
X171818561Y-151596166D01*
X171676466Y-151253118D01*
X171470175Y-150944382D01*
X171421793Y-150896000D01*
X173117928Y-150896000D01*
X173121000Y-151860250D01*
X173279750Y-152019000D01*
X174879000Y-152019000D01*
X174879000Y-150419750D01*
X175133000Y-150419750D01*
X175133000Y-152019000D01*
X176732250Y-152019000D01*
X176891000Y-151860250D01*
X176894072Y-150896000D01*
X176881812Y-150771518D01*
X176845502Y-150651820D01*
X176786537Y-150541506D01*
X176707185Y-150444815D01*
X176610494Y-150365463D01*
X176500180Y-150306498D01*
X176380482Y-150270188D01*
X176256000Y-150257928D01*
X175291750Y-150261000D01*
X175133000Y-150419750D01*
X174879000Y-150419750D01*
X174720250Y-150261000D01*
X173756000Y-150257928D01*
X173631518Y-150270188D01*
X173511820Y-150306498D01*
X173401506Y-150365463D01*
X173304815Y-150444815D01*
X173225463Y-150541506D01*
X173166498Y-150651820D01*
X173130188Y-150771518D01*
X173117928Y-150896000D01*
X171421793Y-150896000D01*
X171207618Y-150681825D01*
X170898882Y-150475534D01*
X170555834Y-150333439D01*
X170191656Y-150261000D01*
X169820344Y-150261000D01*
X169456166Y-150333439D01*
X169113118Y-150475534D01*
X168804382Y-150681825D01*
X168541825Y-150944382D01*
X168335534Y-151253118D01*
X168193439Y-151596166D01*
X168121000Y-151960344D01*
X164740906Y-151960344D01*
X164841000Y-151860250D01*
X164844072Y-150896000D01*
X164831812Y-150771518D01*
X164795502Y-150651820D01*
X164736537Y-150541506D01*
X164657185Y-150444815D01*
X164560494Y-150365463D01*
X164450180Y-150306498D01*
X164330482Y-150270188D01*
X164206000Y-150257928D01*
X163241750Y-150261000D01*
X163083000Y-150419750D01*
X162829000Y-150419750D01*
X162670250Y-150261000D01*
X161706000Y-150257928D01*
X161581518Y-150270188D01*
X161461820Y-150306498D01*
X161351506Y-150365463D01*
X161254815Y-150444815D01*
X161175463Y-150541506D01*
X161116498Y-150651820D01*
X161080188Y-150771518D01*
X161067928Y-150896000D01*
X159841000Y-150896000D01*
X159841000Y-147116792D01*
X161562792Y-145395000D01*
X174103411Y-145395000D01*
X174196000Y-145404119D01*
X174288589Y-145395000D01*
X174288597Y-145395000D01*
X174565524Y-145367725D01*
X174920848Y-145259939D01*
X175248317Y-145084903D01*
X175535345Y-144849345D01*
X175594374Y-144777418D01*
X178709001Y-141662792D01*
X178709000Y-156048596D01*
X178736275Y-156325523D01*
X178844061Y-156680847D01*
X179019097Y-157008317D01*
X179073002Y-157074000D01*
X154584000Y-157074000D01*
X154584000Y-139026000D01*
X155991928Y-139026000D01*
X156004188Y-139150482D01*
X156040498Y-139270180D01*
X156099463Y-139380494D01*
X156178815Y-139477185D01*
X156275506Y-139556537D01*
X156385820Y-139615502D01*
X156505518Y-139651812D01*
X156630000Y-139664072D01*
X157194250Y-139661000D01*
X157353000Y-139502250D01*
X157353000Y-138303000D01*
X157607000Y-138303000D01*
X157607000Y-139502250D01*
X157765750Y-139661000D01*
X158330000Y-139664072D01*
X158454482Y-139651812D01*
X158574180Y-139615502D01*
X158684494Y-139556537D01*
X158781185Y-139477185D01*
X158860537Y-139380494D01*
X158919502Y-139270180D01*
X158955812Y-139150482D01*
X158968072Y-139026000D01*
X158965000Y-138461750D01*
X158806250Y-138303000D01*
X157607000Y-138303000D01*
X157353000Y-138303000D01*
X156153750Y-138303000D01*
X155995000Y-138461750D01*
X155991928Y-139026000D01*
X154584000Y-139026000D01*
X154584000Y-137326000D01*
X155991928Y-137326000D01*
X155995000Y-137890250D01*
X156153750Y-138049000D01*
X157353000Y-138049000D01*
X157353000Y-136849750D01*
X157607000Y-136849750D01*
X157607000Y-138049000D01*
X158806250Y-138049000D01*
X158965000Y-137890250D01*
X158968072Y-137326000D01*
X168691928Y-137326000D01*
X168691928Y-139026000D01*
X168704188Y-139150482D01*
X168740498Y-139270180D01*
X168799463Y-139380494D01*
X168878815Y-139477185D01*
X168975506Y-139556537D01*
X169085820Y-139615502D01*
X169205518Y-139651812D01*
X169330000Y-139664072D01*
X171030000Y-139664072D01*
X171154482Y-139651812D01*
X171274180Y-139615502D01*
X171384494Y-139556537D01*
X171481185Y-139477185D01*
X171560537Y-139380494D01*
X171619502Y-139270180D01*
X171655812Y-139150482D01*
X171668072Y-139026000D01*
X171668072Y-137326000D01*
X171655812Y-137201518D01*
X171619502Y-137081820D01*
X171560537Y-136971506D01*
X171481185Y-136874815D01*
X171384494Y-136795463D01*
X171274180Y-136736498D01*
X171154482Y-136700188D01*
X171030000Y-136687928D01*
X169330000Y-136687928D01*
X169205518Y-136700188D01*
X169085820Y-136736498D01*
X168975506Y-136795463D01*
X168878815Y-136874815D01*
X168799463Y-136971506D01*
X168740498Y-137081820D01*
X168704188Y-137201518D01*
X168691928Y-137326000D01*
X158968072Y-137326000D01*
X158955812Y-137201518D01*
X158919502Y-137081820D01*
X158860537Y-136971506D01*
X158781185Y-136874815D01*
X158684494Y-136795463D01*
X158574180Y-136736498D01*
X158454482Y-136700188D01*
X158330000Y-136687928D01*
X157765750Y-136691000D01*
X157607000Y-136849750D01*
X157353000Y-136849750D01*
X157194250Y-136691000D01*
X156630000Y-136687928D01*
X156505518Y-136700188D01*
X156385820Y-136736498D01*
X156275506Y-136795463D01*
X156178815Y-136874815D01*
X156099463Y-136971506D01*
X156040498Y-137081820D01*
X156004188Y-137201518D01*
X155991928Y-137326000D01*
X154584000Y-137326000D01*
X154584000Y-120175872D01*
X167945000Y-120175872D01*
X167945000Y-120616128D01*
X168030890Y-121047925D01*
X168199369Y-121454669D01*
X168443962Y-121820729D01*
X168755271Y-122132038D01*
X169121331Y-122376631D01*
X169528075Y-122545110D01*
X169959872Y-122631000D01*
X170400128Y-122631000D01*
X170831925Y-122545110D01*
X171238669Y-122376631D01*
X171604729Y-122132038D01*
X171916038Y-121820729D01*
X172160631Y-121454669D01*
X172329110Y-121047925D01*
X172415000Y-120616128D01*
X172415000Y-120175872D01*
X172329110Y-119744075D01*
X172160631Y-119337331D01*
X171916038Y-118971271D01*
X171604729Y-118659962D01*
X171238669Y-118415369D01*
X170831925Y-118246890D01*
X170400128Y-118161000D01*
X169959872Y-118161000D01*
X169528075Y-118246890D01*
X169121331Y-118415369D01*
X168755271Y-118659962D01*
X168443962Y-118971271D01*
X168199369Y-119337331D01*
X168030890Y-119744075D01*
X167945000Y-120175872D01*
X154584000Y-120175872D01*
X154584000Y-67597872D01*
X156769000Y-67597872D01*
X156769000Y-68038128D01*
X156854890Y-68469925D01*
X157023369Y-68876669D01*
X157267962Y-69242729D01*
X157579271Y-69554038D01*
X157945331Y-69798631D01*
X158352075Y-69967110D01*
X158783872Y-70053000D01*
X159224128Y-70053000D01*
X159655925Y-69967110D01*
X160062669Y-69798631D01*
X160428729Y-69554038D01*
X160740038Y-69242729D01*
X160984631Y-68876669D01*
X161153110Y-68469925D01*
X161239000Y-68038128D01*
X161239000Y-67597872D01*
X161153110Y-67166075D01*
X160984631Y-66759331D01*
X160740038Y-66393271D01*
X160428729Y-66081962D01*
X160062669Y-65837369D01*
X159655925Y-65668890D01*
X159224128Y-65583000D01*
X158783872Y-65583000D01*
X158352075Y-65668890D01*
X157945331Y-65837369D01*
X157579271Y-66081962D01*
X157267962Y-66393271D01*
X157023369Y-66759331D01*
X156854890Y-67166075D01*
X156769000Y-67597872D01*
X154584000Y-67597872D01*
X154584000Y-63652000D01*
X180056445Y-63652000D01*
X180016655Y-63684655D01*
X180016655Y-63684655D01*
G37*
X180016655Y-63684655D02*
X179957630Y-63756577D01*
X178818582Y-64895626D01*
X178746655Y-64954655D01*
X178511097Y-65241683D01*
X178336061Y-65569153D01*
X178228275Y-65924477D01*
X178201000Y-66201404D01*
X178201000Y-66201411D01*
X178191881Y-66294000D01*
X178201000Y-66386590D01*
X178201000Y-67298804D01*
X178197928Y-67330000D01*
X178197928Y-69830000D01*
X178201000Y-69861193D01*
X178201001Y-80039206D01*
X167669208Y-90571000D01*
X165007403Y-90571000D01*
X164730476Y-90598275D01*
X164375152Y-90706061D01*
X164047683Y-90881097D01*
X163760655Y-91116655D01*
X163525097Y-91403683D01*
X163350061Y-91731152D01*
X163242275Y-92086476D01*
X163205880Y-92456000D01*
X163242275Y-92825524D01*
X163350061Y-93180848D01*
X163525097Y-93508317D01*
X163760655Y-93795345D01*
X164047683Y-94030903D01*
X164375152Y-94205939D01*
X164730476Y-94313725D01*
X165007403Y-94341000D01*
X168357411Y-94341000D01*
X168450000Y-94350119D01*
X168542589Y-94341000D01*
X168542597Y-94341000D01*
X168819524Y-94313725D01*
X169174848Y-94205939D01*
X169502317Y-94030903D01*
X169789345Y-93795345D01*
X169848374Y-93723418D01*
X181353423Y-82218370D01*
X181425345Y-82159345D01*
X181660903Y-81872317D01*
X181835939Y-81544848D01*
X181927296Y-81243683D01*
X181943725Y-81189525D01*
X181947197Y-81154268D01*
X181971000Y-80912597D01*
X181971000Y-80912590D01*
X181980119Y-80820001D01*
X181971000Y-80727412D01*
X181971000Y-69861192D01*
X181974072Y-69830000D01*
X181974072Y-67330000D01*
X181971000Y-67298808D01*
X181971000Y-67074792D01*
X182136793Y-66909000D01*
X184194407Y-66909000D01*
X184193118Y-66909534D01*
X184115739Y-66961237D01*
X184033683Y-67005097D01*
X183961761Y-67064122D01*
X183884382Y-67115825D01*
X183818577Y-67181630D01*
X183746655Y-67240655D01*
X183687630Y-67312577D01*
X183621825Y-67378382D01*
X183570122Y-67455761D01*
X183511097Y-67527683D01*
X183467238Y-67609738D01*
X183415534Y-67687118D01*
X183379919Y-67773100D01*
X183336061Y-67855153D01*
X183309054Y-67944184D01*
X183273439Y-68030166D01*
X183255283Y-68121444D01*
X183228275Y-68210477D01*
X183219155Y-68303070D01*
X183201000Y-68394344D01*
X183201000Y-68487411D01*
X183191881Y-68580000D01*
X183201000Y-68672589D01*
X183201001Y-89469206D01*
X181481628Y-91188580D01*
X181305098Y-91403683D01*
X181130062Y-91731152D01*
X181022275Y-92086476D01*
X180985881Y-92456000D01*
X181022275Y-92825524D01*
X181130062Y-93180848D01*
X181305098Y-93508317D01*
X181540655Y-93795345D01*
X181827683Y-94030902D01*
X182155152Y-94205938D01*
X182510476Y-94313725D01*
X182880000Y-94350119D01*
X183249524Y-94313725D01*
X183604848Y-94205938D01*
X183932317Y-94030902D01*
X184147420Y-93854372D01*
X186353423Y-91648370D01*
X186425345Y-91589345D01*
X186513837Y-91481518D01*
X186660902Y-91302318D01*
X186688062Y-91251506D01*
X186835939Y-90974848D01*
X186943725Y-90619524D01*
X186971000Y-90342597D01*
X186971000Y-90342588D01*
X186980119Y-90250001D01*
X186971000Y-90157414D01*
X186971000Y-73130792D01*
X197403630Y-83563423D01*
X197462655Y-83635345D01*
X197534577Y-83694370D01*
X197534579Y-83694372D01*
X197688049Y-83820321D01*
X197749683Y-83870903D01*
X198077152Y-84045939D01*
X198432476Y-84153725D01*
X198709403Y-84181000D01*
X198709412Y-84181000D01*
X198801999Y-84190119D01*
X198894586Y-84181000D01*
X232269411Y-84181000D01*
X232362000Y-84190119D01*
X232454589Y-84181000D01*
X232454597Y-84181000D01*
X232731524Y-84153725D01*
X233086848Y-84045939D01*
X233414317Y-83870903D01*
X233701345Y-83635345D01*
X233760374Y-83563418D01*
X240000793Y-77323000D01*
X242662597Y-77323000D01*
X242939524Y-77295725D01*
X243294848Y-77187939D01*
X243622317Y-77012903D01*
X243909345Y-76777345D01*
X244144903Y-76490317D01*
X244319939Y-76162848D01*
X244427725Y-75807524D01*
X244464120Y-75438000D01*
X244427725Y-75068476D01*
X244319939Y-74713152D01*
X244144903Y-74385683D01*
X243909345Y-74098655D01*
X243622317Y-73863097D01*
X243294848Y-73688061D01*
X242939524Y-73580275D01*
X242662597Y-73553000D01*
X239312597Y-73553000D01*
X239220000Y-73543880D01*
X239127403Y-73553000D01*
X238850476Y-73580275D01*
X238495152Y-73688061D01*
X238167683Y-73863097D01*
X237952579Y-74039628D01*
X237952577Y-74039630D01*
X237880655Y-74098655D01*
X237821630Y-74170577D01*
X231581208Y-80411000D01*
X199582793Y-80411000D01*
X186550177Y-67378385D01*
X186550175Y-67378382D01*
X186484370Y-67312577D01*
X186425345Y-67240655D01*
X186353423Y-67181630D01*
X186287618Y-67115825D01*
X186210239Y-67064122D01*
X186138317Y-67005097D01*
X186056262Y-66961238D01*
X185978882Y-66909534D01*
X185977593Y-66909000D01*
X190227208Y-66909000D01*
X200023628Y-76705421D01*
X200082655Y-76777345D01*
X200154577Y-76836370D01*
X200154579Y-76836372D01*
X200248940Y-76913812D01*
X200369683Y-77012903D01*
X200697152Y-77187939D01*
X200944689Y-77263028D01*
X201052475Y-77295725D01*
X201087732Y-77299197D01*
X201329403Y-77323000D01*
X201329410Y-77323000D01*
X201421999Y-77332119D01*
X201514588Y-77323000D01*
X224882597Y-77323000D01*
X225159524Y-77295725D01*
X225514848Y-77187939D01*
X225842317Y-77012903D01*
X226129345Y-76777345D01*
X226364903Y-76490317D01*
X226539939Y-76162848D01*
X226647725Y-75807524D01*
X226684120Y-75438000D01*
X226647725Y-75068476D01*
X226539939Y-74713152D01*
X226364903Y-74385683D01*
X226129345Y-74098655D01*
X225842317Y-73863097D01*
X225514848Y-73688061D01*
X225159524Y-73580275D01*
X224882597Y-73553000D01*
X202202793Y-73553000D01*
X195231665Y-66581872D01*
X199441000Y-66581872D01*
X199441000Y-67022128D01*
X199526890Y-67453925D01*
X199695369Y-67860669D01*
X199939962Y-68226729D01*
X200251271Y-68538038D01*
X200617331Y-68782631D01*
X201024075Y-68951110D01*
X201455872Y-69037000D01*
X201896128Y-69037000D01*
X202327925Y-68951110D01*
X202734669Y-68782631D01*
X203100729Y-68538038D01*
X203412038Y-68226729D01*
X203656631Y-67860669D01*
X203825110Y-67453925D01*
X203911000Y-67022128D01*
X203911000Y-66581872D01*
X203825110Y-66150075D01*
X203656631Y-65743331D01*
X203412038Y-65377271D01*
X203100729Y-65065962D01*
X202734669Y-64821369D01*
X202327925Y-64652890D01*
X201896128Y-64567000D01*
X201455872Y-64567000D01*
X201024075Y-64652890D01*
X200617331Y-64821369D01*
X200251271Y-65065962D01*
X199939962Y-65377271D01*
X199695369Y-65743331D01*
X199526890Y-66150075D01*
X199441000Y-66581872D01*
X195231665Y-66581872D01*
X192406374Y-63756582D01*
X192347345Y-63684655D01*
X192307555Y-63652000D01*
X249530001Y-63652000D01*
X249530000Y-67088418D01*
X249530001Y-67088428D01*
X249530000Y-157074000D01*
X235783792Y-157074000D01*
X238899920Y-153957872D01*
X244399000Y-153957872D01*
X244399000Y-154398128D01*
X244484890Y-154829925D01*
X244653369Y-155236669D01*
X244897962Y-155602729D01*
X245209271Y-155914038D01*
X245575331Y-156158631D01*
X245982075Y-156327110D01*
X246413872Y-156413000D01*
X246854128Y-156413000D01*
X247285925Y-156327110D01*
X247692669Y-156158631D01*
X248058729Y-155914038D01*
X248370038Y-155602729D01*
X248614631Y-155236669D01*
X248783110Y-154829925D01*
X248869000Y-154398128D01*
X248869000Y-153957872D01*
X248783110Y-153526075D01*
X248614631Y-153119331D01*
X248370038Y-152753271D01*
X248058729Y-152441962D01*
X247692669Y-152197369D01*
X247285925Y-152028890D01*
X246854128Y-151943000D01*
X246413872Y-151943000D01*
X245982075Y-152028890D01*
X245575331Y-152197369D01*
X245209271Y-152441962D01*
X244897962Y-152753271D01*
X244653369Y-153119331D01*
X244484890Y-153526075D01*
X244399000Y-153957872D01*
X238899920Y-153957872D01*
X243837423Y-149020370D01*
X243909345Y-148961345D01*
X244144903Y-148674317D01*
X244319939Y-148346848D01*
X244427725Y-147991524D01*
X244455000Y-147714597D01*
X244455000Y-147714589D01*
X244464119Y-147622000D01*
X244455000Y-147529411D01*
X244455000Y-144179403D01*
X244427725Y-143902476D01*
X244319939Y-143547152D01*
X244144903Y-143219683D01*
X243909345Y-142932655D01*
X243622317Y-142697097D01*
X243294847Y-142522061D01*
X242939523Y-142414275D01*
X242570000Y-142377880D01*
X242200476Y-142414275D01*
X241845152Y-142522061D01*
X241517683Y-142697097D01*
X241230655Y-142932655D01*
X240995097Y-143219683D01*
X240820061Y-143547153D01*
X240712275Y-143902477D01*
X240685000Y-144179404D01*
X240685001Y-146841206D01*
X233455208Y-154071000D01*
X191115000Y-154071000D01*
X191115000Y-150783403D01*
X191087725Y-150506476D01*
X190979939Y-150151152D01*
X190804903Y-149823683D01*
X190569345Y-149536655D01*
X190282317Y-149301097D01*
X189954848Y-149126061D01*
X189599524Y-149018275D01*
X189230000Y-148981880D01*
X188860477Y-149018275D01*
X188505153Y-149126061D01*
X188177684Y-149301097D01*
X187890656Y-149536655D01*
X187655098Y-149823683D01*
X187480062Y-150151152D01*
X187372276Y-150506476D01*
X187345001Y-150783403D01*
X187345000Y-155863403D01*
X187335880Y-155956000D01*
X187372275Y-156325524D01*
X187480061Y-156680848D01*
X187613493Y-156930482D01*
X187655097Y-157008317D01*
X187709002Y-157074000D01*
X186338770Y-157074000D01*
X186351502Y-157050180D01*
X186387812Y-156930482D01*
X186400072Y-156806000D01*
X186397000Y-156241750D01*
X186238250Y-156083000D01*
X185039000Y-156083000D01*
X185039000Y-156103000D01*
X184785000Y-156103000D01*
X184785000Y-156083000D01*
X183585750Y-156083000D01*
X183427000Y-156241750D01*
X183423928Y-156806000D01*
X183436188Y-156930482D01*
X183472498Y-157050180D01*
X183485230Y-157074000D01*
X182114998Y-157074000D01*
X182168903Y-157008317D01*
X182343939Y-156680848D01*
X182451725Y-156325524D01*
X182479000Y-156048597D01*
X182479000Y-155106000D01*
X183423928Y-155106000D01*
X183427000Y-155670250D01*
X183585750Y-155829000D01*
X184785000Y-155829000D01*
X184785000Y-153543000D01*
X185039000Y-153543000D01*
X185039000Y-155829000D01*
X186238250Y-155829000D01*
X186397000Y-155670250D01*
X186400072Y-155106000D01*
X186387812Y-154981518D01*
X186351502Y-154861820D01*
X186292537Y-154751506D01*
X186213185Y-154654815D01*
X186116494Y-154575463D01*
X186006180Y-154516498D01*
X185925534Y-154492034D01*
X186009588Y-154416269D01*
X186183641Y-154182920D01*
X186308825Y-153920099D01*
X186353476Y-153772890D01*
X186232155Y-153543000D01*
X185039000Y-153543000D01*
X184785000Y-153543000D01*
X183591845Y-153543000D01*
X183470524Y-153772890D01*
X183515175Y-153920099D01*
X183640359Y-154182920D01*
X183814412Y-154416269D01*
X183898466Y-154492034D01*
X183817820Y-154516498D01*
X183707506Y-154575463D01*
X183610815Y-154654815D01*
X183531463Y-154751506D01*
X183472498Y-154861820D01*
X183436188Y-154981518D01*
X183423928Y-155106000D01*
X182479000Y-155106000D01*
X182479000Y-151232890D01*
X183470524Y-151232890D01*
X183515175Y-151380099D01*
X183640359Y-151642920D01*
X183814412Y-151876269D01*
X184030645Y-152071178D01*
X184156255Y-152146000D01*
X184030645Y-152220822D01*
X183814412Y-152415731D01*
X183640359Y-152649080D01*
X183515175Y-152911901D01*
X183470524Y-153059110D01*
X183591845Y-153289000D01*
X184785000Y-153289000D01*
X184785000Y-151003000D01*
X185039000Y-151003000D01*
X185039000Y-153289000D01*
X186232155Y-153289000D01*
X186353476Y-153059110D01*
X186308825Y-152911901D01*
X186183641Y-152649080D01*
X186009588Y-152415731D01*
X185793355Y-152220822D01*
X185667745Y-152146000D01*
X185793355Y-152071178D01*
X186009588Y-151876269D01*
X186183641Y-151642920D01*
X186308825Y-151380099D01*
X186353476Y-151232890D01*
X186232155Y-151003000D01*
X185039000Y-151003000D01*
X184785000Y-151003000D01*
X183591845Y-151003000D01*
X183470524Y-151232890D01*
X182479000Y-151232890D01*
X182479000Y-150519110D01*
X183470524Y-150519110D01*
X183591845Y-150749000D01*
X184785000Y-150749000D01*
X184785000Y-149555186D01*
X185039000Y-149555186D01*
X185039000Y-150749000D01*
X186232155Y-150749000D01*
X186353476Y-150519110D01*
X186308825Y-150371901D01*
X186183641Y-150109080D01*
X186009588Y-149875731D01*
X185793355Y-149680822D01*
X185543252Y-149531843D01*
X185268891Y-149434519D01*
X185039000Y-149555186D01*
X184785000Y-149555186D01*
X184555109Y-149434519D01*
X184280748Y-149531843D01*
X184030645Y-149680822D01*
X183814412Y-149875731D01*
X183640359Y-150109080D01*
X183515175Y-150371901D01*
X183470524Y-150519110D01*
X182479000Y-150519110D01*
X182479000Y-147861872D01*
X199441000Y-147861872D01*
X199441000Y-148302128D01*
X199526890Y-148733925D01*
X199695369Y-149140669D01*
X199939962Y-149506729D01*
X200251271Y-149818038D01*
X200617331Y-150062631D01*
X201024075Y-150231110D01*
X201455872Y-150317000D01*
X201896128Y-150317000D01*
X202327925Y-150231110D01*
X202734669Y-150062631D01*
X203100729Y-149818038D01*
X203412038Y-149506729D01*
X203656631Y-149140669D01*
X203825110Y-148733925D01*
X203911000Y-148302128D01*
X203911000Y-147861872D01*
X203825110Y-147430075D01*
X203656631Y-147023331D01*
X203412038Y-146657271D01*
X203100729Y-146345962D01*
X202734669Y-146101369D01*
X202327925Y-145932890D01*
X201896128Y-145847000D01*
X201455872Y-145847000D01*
X201024075Y-145932890D01*
X200617331Y-146101369D01*
X200251271Y-146345962D01*
X199939962Y-146657271D01*
X199695369Y-147023331D01*
X199526890Y-147430075D01*
X199441000Y-147861872D01*
X182479000Y-147861872D01*
X182479000Y-144868000D01*
X215681928Y-144868000D01*
X215694188Y-144992482D01*
X215730498Y-145112180D01*
X215789463Y-145222494D01*
X215868815Y-145319185D01*
X215965506Y-145398537D01*
X216075820Y-145457502D01*
X216195518Y-145493812D01*
X216320000Y-145506072D01*
X216884250Y-145503000D01*
X217043000Y-145344250D01*
X217043000Y-144145000D01*
X217297000Y-144145000D01*
X217297000Y-145344250D01*
X217455750Y-145503000D01*
X218020000Y-145506072D01*
X218144482Y-145493812D01*
X218264180Y-145457502D01*
X218374494Y-145398537D01*
X218471185Y-145319185D01*
X218550537Y-145222494D01*
X218609502Y-145112180D01*
X218645812Y-144992482D01*
X218658072Y-144868000D01*
X218655000Y-144303750D01*
X218496250Y-144145000D01*
X217297000Y-144145000D01*
X217043000Y-144145000D01*
X215843750Y-144145000D01*
X215685000Y-144303750D01*
X215681928Y-144868000D01*
X182479000Y-144868000D01*
X182479000Y-143168000D01*
X215681928Y-143168000D01*
X215685000Y-143732250D01*
X215843750Y-143891000D01*
X217043000Y-143891000D01*
X217043000Y-142691750D01*
X217297000Y-142691750D01*
X217297000Y-143891000D01*
X218496250Y-143891000D01*
X218655000Y-143732250D01*
X218658072Y-143168000D01*
X228381928Y-143168000D01*
X228381928Y-144868000D01*
X228394188Y-144992482D01*
X228430498Y-145112180D01*
X228489463Y-145222494D01*
X228568815Y-145319185D01*
X228665506Y-145398537D01*
X228775820Y-145457502D01*
X228895518Y-145493812D01*
X229020000Y-145506072D01*
X230720000Y-145506072D01*
X230844482Y-145493812D01*
X230964180Y-145457502D01*
X231074494Y-145398537D01*
X231171185Y-145319185D01*
X231250537Y-145222494D01*
X231309502Y-145112180D01*
X231345812Y-144992482D01*
X231358072Y-144868000D01*
X231358072Y-143168000D01*
X231345812Y-143043518D01*
X231309502Y-142923820D01*
X231250537Y-142813506D01*
X231171185Y-142716815D01*
X231074494Y-142637463D01*
X230964180Y-142578498D01*
X230844482Y-142542188D01*
X230720000Y-142529928D01*
X229020000Y-142529928D01*
X228895518Y-142542188D01*
X228775820Y-142578498D01*
X228665506Y-142637463D01*
X228568815Y-142716815D01*
X228489463Y-142813506D01*
X228430498Y-142923820D01*
X228394188Y-143043518D01*
X228381928Y-143168000D01*
X218658072Y-143168000D01*
X218645812Y-143043518D01*
X218609502Y-142923820D01*
X218550537Y-142813506D01*
X218471185Y-142716815D01*
X218374494Y-142637463D01*
X218264180Y-142578498D01*
X218144482Y-142542188D01*
X218020000Y-142529928D01*
X217455750Y-142533000D01*
X217297000Y-142691750D01*
X217043000Y-142691750D01*
X216884250Y-142533000D01*
X216320000Y-142529928D01*
X216195518Y-142542188D01*
X216075820Y-142578498D01*
X215965506Y-142637463D01*
X215868815Y-142716815D01*
X215789463Y-142813506D01*
X215730498Y-142923820D01*
X215694188Y-143043518D01*
X215681928Y-143168000D01*
X182479000Y-143168000D01*
X182479000Y-141242792D01*
X184147423Y-139574370D01*
X184219345Y-139515345D01*
X184330015Y-139380494D01*
X184454902Y-139228318D01*
X184454903Y-139228317D01*
X184629939Y-138900848D01*
X184737725Y-138545524D01*
X184774120Y-138176000D01*
X184737725Y-137806476D01*
X184629939Y-137451152D01*
X184454903Y-137123683D01*
X184219345Y-136836655D01*
X183932317Y-136601097D01*
X183604848Y-136426061D01*
X183249524Y-136318275D01*
X182972597Y-136291000D01*
X182972586Y-136291000D01*
X182879999Y-136281881D01*
X182787412Y-136291000D01*
X179622586Y-136291000D01*
X179529999Y-136281881D01*
X179437412Y-136291000D01*
X179437403Y-136291000D01*
X179160476Y-136318275D01*
X178805152Y-136426061D01*
X178477683Y-136601097D01*
X178477681Y-136601098D01*
X178477682Y-136601098D01*
X178262579Y-136777628D01*
X178262577Y-136777630D01*
X178190655Y-136836655D01*
X178131630Y-136908577D01*
X173415208Y-141625000D01*
X160874597Y-141625000D01*
X160782000Y-141615880D01*
X160412476Y-141652275D01*
X160057151Y-141760061D01*
X159729683Y-141935097D01*
X159442655Y-142170655D01*
X159383628Y-142242580D01*
X156688582Y-144937626D01*
X156616655Y-144996655D01*
X156381097Y-145283683D01*
X156206061Y-145611153D01*
X156098275Y-145966477D01*
X156071000Y-146243404D01*
X156071000Y-146243411D01*
X156061881Y-146336000D01*
X156071000Y-146428589D01*
X156071001Y-151960339D01*
X156071000Y-151960344D01*
X156071000Y-152331656D01*
X156089157Y-152422939D01*
X156098276Y-152515524D01*
X156125282Y-152604550D01*
X156143439Y-152695834D01*
X156179056Y-152781822D01*
X156206062Y-152870848D01*
X156249917Y-152952895D01*
X156285534Y-153038882D01*
X156337242Y-153116269D01*
X156381098Y-153198317D01*
X156440118Y-153270233D01*
X156491825Y-153347618D01*
X156557636Y-153413429D01*
X156616656Y-153485345D01*
X156688572Y-153544365D01*
X156754382Y-153610175D01*
X156831766Y-153661881D01*
X156903684Y-153720903D01*
X156985735Y-153764760D01*
X157063118Y-153816466D01*
X157149101Y-153852081D01*
X157231153Y-153895939D01*
X157320184Y-153922946D01*
X157406166Y-153958561D01*
X157497444Y-153976717D01*
X157586477Y-154003725D01*
X157679071Y-154012845D01*
X157770344Y-154031000D01*
X157863403Y-154031000D01*
X157956000Y-154040120D01*
X158048597Y-154031000D01*
X158141656Y-154031000D01*
X158232929Y-154012845D01*
X158325524Y-154003725D01*
X158414559Y-153976717D01*
X158505834Y-153958561D01*
X158591813Y-153922947D01*
X158680848Y-153895939D01*
X158762903Y-153852080D01*
X158848882Y-153816466D01*
X158926261Y-153764763D01*
X159008317Y-153720903D01*
X159080239Y-153661878D01*
X159157618Y-153610175D01*
X159223423Y-153544370D01*
X159295345Y-153485345D01*
X159354370Y-153413423D01*
X159371793Y-153396000D01*
X161067928Y-153396000D01*
X161080188Y-153520482D01*
X161116498Y-153640180D01*
X161175463Y-153750494D01*
X161254815Y-153847185D01*
X161351506Y-153926537D01*
X161461820Y-153985502D01*
X161581518Y-154021812D01*
X161706000Y-154034072D01*
X162670250Y-154031000D01*
X162829000Y-153872250D01*
X162829000Y-152273000D01*
X163083000Y-152273000D01*
X163083000Y-153872250D01*
X163241750Y-154031000D01*
X164206000Y-154034072D01*
X164330482Y-154021812D01*
X164450180Y-153985502D01*
X164560494Y-153926537D01*
X164657185Y-153847185D01*
X164736537Y-153750494D01*
X164795502Y-153640180D01*
X164831812Y-153520482D01*
X164844072Y-153396000D01*
X164841000Y-152431750D01*
X164682250Y-152273000D01*
X163083000Y-152273000D01*
X162829000Y-152273000D01*
X161229750Y-152273000D01*
X161071000Y-152431750D01*
X161067928Y-153396000D01*
X159371793Y-153396000D01*
X159420175Y-153347618D01*
X159471878Y-153270239D01*
X159530903Y-153198317D01*
X159574763Y-153116261D01*
X159626466Y-153038882D01*
X159662080Y-152952903D01*
X159705939Y-152870848D01*
X159732947Y-152781813D01*
X159768561Y-152695834D01*
X159786717Y-152604559D01*
X159813725Y-152515524D01*
X159822845Y-152422929D01*
X159841000Y-152331656D01*
X159841000Y-150896000D01*
X161067928Y-150896000D01*
X161071000Y-151860250D01*
X161229750Y-152019000D01*
X162829000Y-152019000D01*
X162829000Y-150419750D01*
X163083000Y-150419750D01*
X163083000Y-152019000D01*
X164682250Y-152019000D01*
X164740906Y-151960344D01*
X168121000Y-151960344D01*
X168121000Y-152331656D01*
X168193439Y-152695834D01*
X168335534Y-153038882D01*
X168541825Y-153347618D01*
X168804382Y-153610175D01*
X169113118Y-153816466D01*
X169456166Y-153958561D01*
X169820344Y-154031000D01*
X170191656Y-154031000D01*
X170555834Y-153958561D01*
X170898882Y-153816466D01*
X171207618Y-153610175D01*
X171421793Y-153396000D01*
X173117928Y-153396000D01*
X173130188Y-153520482D01*
X173166498Y-153640180D01*
X173225463Y-153750494D01*
X173304815Y-153847185D01*
X173401506Y-153926537D01*
X173511820Y-153985502D01*
X173631518Y-154021812D01*
X173756000Y-154034072D01*
X174720250Y-154031000D01*
X174879000Y-153872250D01*
X174879000Y-152273000D01*
X175133000Y-152273000D01*
X175133000Y-153872250D01*
X175291750Y-154031000D01*
X176256000Y-154034072D01*
X176380482Y-154021812D01*
X176500180Y-153985502D01*
X176610494Y-153926537D01*
X176707185Y-153847185D01*
X176786537Y-153750494D01*
X176845502Y-153640180D01*
X176881812Y-153520482D01*
X176894072Y-153396000D01*
X176891000Y-152431750D01*
X176732250Y-152273000D01*
X175133000Y-152273000D01*
X174879000Y-152273000D01*
X173279750Y-152273000D01*
X173121000Y-152431750D01*
X173117928Y-153396000D01*
X171421793Y-153396000D01*
X171470175Y-153347618D01*
X171676466Y-153038882D01*
X171818561Y-152695834D01*
X171891000Y-152331656D01*
X171891000Y-151960344D01*
X171818561Y-151596166D01*
X171676466Y-151253118D01*
X171470175Y-150944382D01*
X171421793Y-150896000D01*
X173117928Y-150896000D01*
X173121000Y-151860250D01*
X173279750Y-152019000D01*
X174879000Y-152019000D01*
X174879000Y-150419750D01*
X175133000Y-150419750D01*
X175133000Y-152019000D01*
X176732250Y-152019000D01*
X176891000Y-151860250D01*
X176894072Y-150896000D01*
X176881812Y-150771518D01*
X176845502Y-150651820D01*
X176786537Y-150541506D01*
X176707185Y-150444815D01*
X176610494Y-150365463D01*
X176500180Y-150306498D01*
X176380482Y-150270188D01*
X176256000Y-150257928D01*
X175291750Y-150261000D01*
X175133000Y-150419750D01*
X174879000Y-150419750D01*
X174720250Y-150261000D01*
X173756000Y-150257928D01*
X173631518Y-150270188D01*
X173511820Y-150306498D01*
X173401506Y-150365463D01*
X173304815Y-150444815D01*
X173225463Y-150541506D01*
X173166498Y-150651820D01*
X173130188Y-150771518D01*
X173117928Y-150896000D01*
X171421793Y-150896000D01*
X171207618Y-150681825D01*
X170898882Y-150475534D01*
X170555834Y-150333439D01*
X170191656Y-150261000D01*
X169820344Y-150261000D01*
X169456166Y-150333439D01*
X169113118Y-150475534D01*
X168804382Y-150681825D01*
X168541825Y-150944382D01*
X168335534Y-151253118D01*
X168193439Y-151596166D01*
X168121000Y-151960344D01*
X164740906Y-151960344D01*
X164841000Y-151860250D01*
X164844072Y-150896000D01*
X164831812Y-150771518D01*
X164795502Y-150651820D01*
X164736537Y-150541506D01*
X164657185Y-150444815D01*
X164560494Y-150365463D01*
X164450180Y-150306498D01*
X164330482Y-150270188D01*
X164206000Y-150257928D01*
X163241750Y-150261000D01*
X163083000Y-150419750D01*
X162829000Y-150419750D01*
X162670250Y-150261000D01*
X161706000Y-150257928D01*
X161581518Y-150270188D01*
X161461820Y-150306498D01*
X161351506Y-150365463D01*
X161254815Y-150444815D01*
X161175463Y-150541506D01*
X161116498Y-150651820D01*
X161080188Y-150771518D01*
X161067928Y-150896000D01*
X159841000Y-150896000D01*
X159841000Y-147116792D01*
X161562792Y-145395000D01*
X174103411Y-145395000D01*
X174196000Y-145404119D01*
X174288589Y-145395000D01*
X174288597Y-145395000D01*
X174565524Y-145367725D01*
X174920848Y-145259939D01*
X175248317Y-145084903D01*
X175535345Y-144849345D01*
X175594374Y-144777418D01*
X178709001Y-141662792D01*
X178709000Y-156048596D01*
X178736275Y-156325523D01*
X178844061Y-156680847D01*
X179019097Y-157008317D01*
X179073002Y-157074000D01*
X154584000Y-157074000D01*
X154584000Y-139026000D01*
X155991928Y-139026000D01*
X156004188Y-139150482D01*
X156040498Y-139270180D01*
X156099463Y-139380494D01*
X156178815Y-139477185D01*
X156275506Y-139556537D01*
X156385820Y-139615502D01*
X156505518Y-139651812D01*
X156630000Y-139664072D01*
X157194250Y-139661000D01*
X157353000Y-139502250D01*
X157353000Y-138303000D01*
X157607000Y-138303000D01*
X157607000Y-139502250D01*
X157765750Y-139661000D01*
X158330000Y-139664072D01*
X158454482Y-139651812D01*
X158574180Y-139615502D01*
X158684494Y-139556537D01*
X158781185Y-139477185D01*
X158860537Y-139380494D01*
X158919502Y-139270180D01*
X158955812Y-139150482D01*
X158968072Y-139026000D01*
X158965000Y-138461750D01*
X158806250Y-138303000D01*
X157607000Y-138303000D01*
X157353000Y-138303000D01*
X156153750Y-138303000D01*
X155995000Y-138461750D01*
X155991928Y-139026000D01*
X154584000Y-139026000D01*
X154584000Y-137326000D01*
X155991928Y-137326000D01*
X155995000Y-137890250D01*
X156153750Y-138049000D01*
X157353000Y-138049000D01*
X157353000Y-136849750D01*
X157607000Y-136849750D01*
X157607000Y-138049000D01*
X158806250Y-138049000D01*
X158965000Y-137890250D01*
X158968072Y-137326000D01*
X168691928Y-137326000D01*
X168691928Y-139026000D01*
X168704188Y-139150482D01*
X168740498Y-139270180D01*
X168799463Y-139380494D01*
X168878815Y-139477185D01*
X168975506Y-139556537D01*
X169085820Y-139615502D01*
X169205518Y-139651812D01*
X169330000Y-139664072D01*
X171030000Y-139664072D01*
X171154482Y-139651812D01*
X171274180Y-139615502D01*
X171384494Y-139556537D01*
X171481185Y-139477185D01*
X171560537Y-139380494D01*
X171619502Y-139270180D01*
X171655812Y-139150482D01*
X171668072Y-139026000D01*
X171668072Y-137326000D01*
X171655812Y-137201518D01*
X171619502Y-137081820D01*
X171560537Y-136971506D01*
X171481185Y-136874815D01*
X171384494Y-136795463D01*
X171274180Y-136736498D01*
X171154482Y-136700188D01*
X171030000Y-136687928D01*
X169330000Y-136687928D01*
X169205518Y-136700188D01*
X169085820Y-136736498D01*
X168975506Y-136795463D01*
X168878815Y-136874815D01*
X168799463Y-136971506D01*
X168740498Y-137081820D01*
X168704188Y-137201518D01*
X168691928Y-137326000D01*
X158968072Y-137326000D01*
X158955812Y-137201518D01*
X158919502Y-137081820D01*
X158860537Y-136971506D01*
X158781185Y-136874815D01*
X158684494Y-136795463D01*
X158574180Y-136736498D01*
X158454482Y-136700188D01*
X158330000Y-136687928D01*
X157765750Y-136691000D01*
X157607000Y-136849750D01*
X157353000Y-136849750D01*
X157194250Y-136691000D01*
X156630000Y-136687928D01*
X156505518Y-136700188D01*
X156385820Y-136736498D01*
X156275506Y-136795463D01*
X156178815Y-136874815D01*
X156099463Y-136971506D01*
X156040498Y-137081820D01*
X156004188Y-137201518D01*
X155991928Y-137326000D01*
X154584000Y-137326000D01*
X154584000Y-120175872D01*
X167945000Y-120175872D01*
X167945000Y-120616128D01*
X168030890Y-121047925D01*
X168199369Y-121454669D01*
X168443962Y-121820729D01*
X168755271Y-122132038D01*
X169121331Y-122376631D01*
X169528075Y-122545110D01*
X169959872Y-122631000D01*
X170400128Y-122631000D01*
X170831925Y-122545110D01*
X171238669Y-122376631D01*
X171604729Y-122132038D01*
X171916038Y-121820729D01*
X172160631Y-121454669D01*
X172329110Y-121047925D01*
X172415000Y-120616128D01*
X172415000Y-120175872D01*
X172329110Y-119744075D01*
X172160631Y-119337331D01*
X171916038Y-118971271D01*
X171604729Y-118659962D01*
X171238669Y-118415369D01*
X170831925Y-118246890D01*
X170400128Y-118161000D01*
X169959872Y-118161000D01*
X169528075Y-118246890D01*
X169121331Y-118415369D01*
X168755271Y-118659962D01*
X168443962Y-118971271D01*
X168199369Y-119337331D01*
X168030890Y-119744075D01*
X167945000Y-120175872D01*
X154584000Y-120175872D01*
X154584000Y-67597872D01*
X156769000Y-67597872D01*
X156769000Y-68038128D01*
X156854890Y-68469925D01*
X157023369Y-68876669D01*
X157267962Y-69242729D01*
X157579271Y-69554038D01*
X157945331Y-69798631D01*
X158352075Y-69967110D01*
X158783872Y-70053000D01*
X159224128Y-70053000D01*
X159655925Y-69967110D01*
X160062669Y-69798631D01*
X160428729Y-69554038D01*
X160740038Y-69242729D01*
X160984631Y-68876669D01*
X161153110Y-68469925D01*
X161239000Y-68038128D01*
X161239000Y-67597872D01*
X161153110Y-67166075D01*
X160984631Y-66759331D01*
X160740038Y-66393271D01*
X160428729Y-66081962D01*
X160062669Y-65837369D01*
X159655925Y-65668890D01*
X159224128Y-65583000D01*
X158783872Y-65583000D01*
X158352075Y-65668890D01*
X157945331Y-65837369D01*
X157579271Y-66081962D01*
X157267962Y-66393271D01*
X157023369Y-66759331D01*
X156854890Y-67166075D01*
X156769000Y-67597872D01*
X154584000Y-67597872D01*
X154584000Y-63652000D01*
X180056445Y-63652000D01*
X180016655Y-63684655D01*
M02*
