M48
; DRILL file {KiCad (5.1.4)-1} date 21-Oct-19 16:45:56
; FORMAT={3:3/ absolute / metric / suppress leading zeros}
; #@! TF.CreationDate,2019-10-21T16:45:56-04:00
; #@! TF.GenerationSoftware,Kicad,Pcbnew,(5.1.4)-1
FMAT,2
METRIC,TZ
T1C1.000
T2C1.300
T3C3.200
%
G90
G05
T1
X224790Y-75438
X217170Y-144018
X182880Y-138176
X184912Y-150876
X184912Y-153416
X184912Y-155956
X165100Y-92456
X189230Y-150876
X189230Y-153416
X189230Y-155956
X182880Y-92456
X180594Y-150876
X180594Y-153416
X180594Y-155956
X229870Y-144018
X157480Y-138176
X242570Y-75438
X170180Y-138176
X242570Y-144272
T2
X180086Y-68580
X185086Y-68580
X170006Y-152146
X175006Y-152146
X157956Y-152146
X162956Y-152146
T3
X201676Y-148082
X201676Y-66802
X246634Y-154178
X170180Y-120396
X159004Y-67818
T0
M30
