G04 #@! TF.GenerationSoftware,KiCad,Pcbnew,(5.1.4)-1*
G04 #@! TF.CreationDate,2019-10-21T16:45:54-04:00*
G04 #@! TF.ProjectId,psu_board,7073755f-626f-4617-9264-2e6b69636164,rev?*
G04 #@! TF.SameCoordinates,Original*
G04 #@! TF.FileFunction,Soldermask,Bot*
G04 #@! TF.FilePolarity,Negative*
%FSLAX46Y46*%
G04 Gerber Fmt 4.6, Leading zero omitted, Abs format (unit mm)*
G04 Created by KiCad (PCBNEW (5.1.4)-1) date 2019-10-21 16:45:54*
%MOMM*%
%LPD*%
G04 APERTURE LIST*
%ADD10C,0.100000*%
G04 APERTURE END LIST*
D10*
G36*
X189340442Y-155061518D02*
G01*
X189406627Y-155068037D01*
X189576466Y-155119557D01*
X189732991Y-155203222D01*
X189766167Y-155230449D01*
X189870186Y-155315814D01*
X189953448Y-155417271D01*
X189982778Y-155453009D01*
X190066443Y-155609534D01*
X190117963Y-155779373D01*
X190135359Y-155956000D01*
X190117963Y-156132627D01*
X190066443Y-156302466D01*
X189982778Y-156458991D01*
X189953448Y-156494729D01*
X189870186Y-156596186D01*
X189768729Y-156679448D01*
X189732991Y-156708778D01*
X189576466Y-156792443D01*
X189406627Y-156843963D01*
X189340443Y-156850481D01*
X189274260Y-156857000D01*
X189185740Y-156857000D01*
X189119557Y-156850481D01*
X189053373Y-156843963D01*
X188883534Y-156792443D01*
X188727009Y-156708778D01*
X188691271Y-156679448D01*
X188589814Y-156596186D01*
X188506552Y-156494729D01*
X188477222Y-156458991D01*
X188393557Y-156302466D01*
X188342037Y-156132627D01*
X188324641Y-155956000D01*
X188342037Y-155779373D01*
X188393557Y-155609534D01*
X188477222Y-155453009D01*
X188506552Y-155417271D01*
X188589814Y-155315814D01*
X188693833Y-155230449D01*
X188727009Y-155203222D01*
X188883534Y-155119557D01*
X189053373Y-155068037D01*
X189119558Y-155061518D01*
X189185740Y-155055000D01*
X189274260Y-155055000D01*
X189340442Y-155061518D01*
X189340442Y-155061518D01*
G37*
G36*
X180704442Y-155061518D02*
G01*
X180770627Y-155068037D01*
X180940466Y-155119557D01*
X181096991Y-155203222D01*
X181130167Y-155230449D01*
X181234186Y-155315814D01*
X181317448Y-155417271D01*
X181346778Y-155453009D01*
X181430443Y-155609534D01*
X181481963Y-155779373D01*
X181499359Y-155956000D01*
X181481963Y-156132627D01*
X181430443Y-156302466D01*
X181346778Y-156458991D01*
X181317448Y-156494729D01*
X181234186Y-156596186D01*
X181132729Y-156679448D01*
X181096991Y-156708778D01*
X180940466Y-156792443D01*
X180770627Y-156843963D01*
X180704443Y-156850481D01*
X180638260Y-156857000D01*
X180549740Y-156857000D01*
X180483557Y-156850481D01*
X180417373Y-156843963D01*
X180247534Y-156792443D01*
X180091009Y-156708778D01*
X180055271Y-156679448D01*
X179953814Y-156596186D01*
X179870552Y-156494729D01*
X179841222Y-156458991D01*
X179757557Y-156302466D01*
X179706037Y-156132627D01*
X179688641Y-155956000D01*
X179706037Y-155779373D01*
X179757557Y-155609534D01*
X179841222Y-155453009D01*
X179870552Y-155417271D01*
X179953814Y-155315814D01*
X180057833Y-155230449D01*
X180091009Y-155203222D01*
X180247534Y-155119557D01*
X180417373Y-155068037D01*
X180483558Y-155061518D01*
X180549740Y-155055000D01*
X180638260Y-155055000D01*
X180704442Y-155061518D01*
X180704442Y-155061518D01*
G37*
G36*
X185813000Y-156857000D02*
G01*
X184011000Y-156857000D01*
X184011000Y-155055000D01*
X185813000Y-155055000D01*
X185813000Y-156857000D01*
X185813000Y-156857000D01*
G37*
G36*
X247009256Y-152569298D02*
G01*
X247115579Y-152590447D01*
X247416042Y-152714903D01*
X247686451Y-152895585D01*
X247916415Y-153125549D01*
X248097097Y-153395958D01*
X248221553Y-153696421D01*
X248242702Y-153802744D01*
X248265825Y-153918989D01*
X248285000Y-154015391D01*
X248285000Y-154340609D01*
X248221553Y-154659579D01*
X248097097Y-154960042D01*
X247916415Y-155230451D01*
X247686451Y-155460415D01*
X247416042Y-155641097D01*
X247115579Y-155765553D01*
X247046101Y-155779373D01*
X246796611Y-155829000D01*
X246471389Y-155829000D01*
X246221899Y-155779373D01*
X246152421Y-155765553D01*
X245851958Y-155641097D01*
X245581549Y-155460415D01*
X245351585Y-155230451D01*
X245170903Y-154960042D01*
X245046447Y-154659579D01*
X244983000Y-154340609D01*
X244983000Y-154015391D01*
X245002176Y-153918989D01*
X245025298Y-153802744D01*
X245046447Y-153696421D01*
X245170903Y-153395958D01*
X245351585Y-153125549D01*
X245581549Y-152895585D01*
X245851958Y-152714903D01*
X246152421Y-152590447D01*
X246258744Y-152569298D01*
X246471389Y-152527000D01*
X246796611Y-152527000D01*
X247009256Y-152569298D01*
X247009256Y-152569298D01*
G37*
G36*
X185022442Y-152521518D02*
G01*
X185088627Y-152528037D01*
X185258466Y-152579557D01*
X185414991Y-152663222D01*
X185450729Y-152692552D01*
X185552186Y-152775814D01*
X185635448Y-152877271D01*
X185664778Y-152913009D01*
X185748443Y-153069534D01*
X185799963Y-153239373D01*
X185817359Y-153416000D01*
X185799963Y-153592627D01*
X185748443Y-153762466D01*
X185664778Y-153918991D01*
X185635448Y-153954729D01*
X185552186Y-154056186D01*
X185450729Y-154139448D01*
X185414991Y-154168778D01*
X185258466Y-154252443D01*
X185088627Y-154303963D01*
X185022442Y-154310482D01*
X184956260Y-154317000D01*
X184867740Y-154317000D01*
X184801558Y-154310482D01*
X184735373Y-154303963D01*
X184565534Y-154252443D01*
X184409009Y-154168778D01*
X184373271Y-154139448D01*
X184271814Y-154056186D01*
X184188552Y-153954729D01*
X184159222Y-153918991D01*
X184075557Y-153762466D01*
X184024037Y-153592627D01*
X184006641Y-153416000D01*
X184024037Y-153239373D01*
X184075557Y-153069534D01*
X184159222Y-152913009D01*
X184188552Y-152877271D01*
X184271814Y-152775814D01*
X184373271Y-152692552D01*
X184409009Y-152663222D01*
X184565534Y-152579557D01*
X184735373Y-152528037D01*
X184801558Y-152521518D01*
X184867740Y-152515000D01*
X184956260Y-152515000D01*
X185022442Y-152521518D01*
X185022442Y-152521518D01*
G37*
G36*
X189340442Y-152521518D02*
G01*
X189406627Y-152528037D01*
X189576466Y-152579557D01*
X189732991Y-152663222D01*
X189768729Y-152692552D01*
X189870186Y-152775814D01*
X189953448Y-152877271D01*
X189982778Y-152913009D01*
X190066443Y-153069534D01*
X190117963Y-153239373D01*
X190135359Y-153416000D01*
X190117963Y-153592627D01*
X190066443Y-153762466D01*
X189982778Y-153918991D01*
X189953448Y-153954729D01*
X189870186Y-154056186D01*
X189768729Y-154139448D01*
X189732991Y-154168778D01*
X189576466Y-154252443D01*
X189406627Y-154303963D01*
X189340442Y-154310482D01*
X189274260Y-154317000D01*
X189185740Y-154317000D01*
X189119558Y-154310482D01*
X189053373Y-154303963D01*
X188883534Y-154252443D01*
X188727009Y-154168778D01*
X188691271Y-154139448D01*
X188589814Y-154056186D01*
X188506552Y-153954729D01*
X188477222Y-153918991D01*
X188393557Y-153762466D01*
X188342037Y-153592627D01*
X188324641Y-153416000D01*
X188342037Y-153239373D01*
X188393557Y-153069534D01*
X188477222Y-152913009D01*
X188506552Y-152877271D01*
X188589814Y-152775814D01*
X188691271Y-152692552D01*
X188727009Y-152663222D01*
X188883534Y-152579557D01*
X189053373Y-152528037D01*
X189119558Y-152521518D01*
X189185740Y-152515000D01*
X189274260Y-152515000D01*
X189340442Y-152521518D01*
X189340442Y-152521518D01*
G37*
G36*
X180704442Y-152521518D02*
G01*
X180770627Y-152528037D01*
X180940466Y-152579557D01*
X181096991Y-152663222D01*
X181132729Y-152692552D01*
X181234186Y-152775814D01*
X181317448Y-152877271D01*
X181346778Y-152913009D01*
X181430443Y-153069534D01*
X181481963Y-153239373D01*
X181499359Y-153416000D01*
X181481963Y-153592627D01*
X181430443Y-153762466D01*
X181346778Y-153918991D01*
X181317448Y-153954729D01*
X181234186Y-154056186D01*
X181132729Y-154139448D01*
X181096991Y-154168778D01*
X180940466Y-154252443D01*
X180770627Y-154303963D01*
X180704442Y-154310482D01*
X180638260Y-154317000D01*
X180549740Y-154317000D01*
X180483558Y-154310482D01*
X180417373Y-154303963D01*
X180247534Y-154252443D01*
X180091009Y-154168778D01*
X180055271Y-154139448D01*
X179953814Y-154056186D01*
X179870552Y-153954729D01*
X179841222Y-153918991D01*
X179757557Y-153762466D01*
X179706037Y-153592627D01*
X179688641Y-153416000D01*
X179706037Y-153239373D01*
X179757557Y-153069534D01*
X179841222Y-152913009D01*
X179870552Y-152877271D01*
X179953814Y-152775814D01*
X180055271Y-152692552D01*
X180091009Y-152663222D01*
X180247534Y-152579557D01*
X180417373Y-152528037D01*
X180483558Y-152521518D01*
X180549740Y-152515000D01*
X180638260Y-152515000D01*
X180704442Y-152521518D01*
X180704442Y-152521518D01*
G37*
G36*
X158335487Y-150894996D02*
G01*
X158572253Y-150993068D01*
X158572255Y-150993069D01*
X158785339Y-151135447D01*
X158966553Y-151316661D01*
X159099871Y-151516185D01*
X159108932Y-151529747D01*
X159207004Y-151766513D01*
X159257000Y-152017861D01*
X159257000Y-152274139D01*
X159207004Y-152525487D01*
X159149952Y-152663222D01*
X159108931Y-152762255D01*
X158966553Y-152975339D01*
X158785339Y-153156553D01*
X158572255Y-153298931D01*
X158572254Y-153298932D01*
X158572253Y-153298932D01*
X158335487Y-153397004D01*
X158084139Y-153447000D01*
X157827861Y-153447000D01*
X157576513Y-153397004D01*
X157339747Y-153298932D01*
X157339746Y-153298932D01*
X157339745Y-153298931D01*
X157126661Y-153156553D01*
X156945447Y-152975339D01*
X156803069Y-152762255D01*
X156762048Y-152663222D01*
X156704996Y-152525487D01*
X156655000Y-152274139D01*
X156655000Y-152017861D01*
X156704996Y-151766513D01*
X156803068Y-151529747D01*
X156812130Y-151516185D01*
X156945447Y-151316661D01*
X157126661Y-151135447D01*
X157339745Y-150993069D01*
X157339747Y-150993068D01*
X157576513Y-150894996D01*
X157827861Y-150845000D01*
X158084139Y-150845000D01*
X158335487Y-150894996D01*
X158335487Y-150894996D01*
G37*
G36*
X176307000Y-153447000D02*
G01*
X173705000Y-153447000D01*
X173705000Y-150845000D01*
X176307000Y-150845000D01*
X176307000Y-153447000D01*
X176307000Y-153447000D01*
G37*
G36*
X170385487Y-150894996D02*
G01*
X170622253Y-150993068D01*
X170622255Y-150993069D01*
X170835339Y-151135447D01*
X171016553Y-151316661D01*
X171149871Y-151516185D01*
X171158932Y-151529747D01*
X171257004Y-151766513D01*
X171307000Y-152017861D01*
X171307000Y-152274139D01*
X171257004Y-152525487D01*
X171199952Y-152663222D01*
X171158931Y-152762255D01*
X171016553Y-152975339D01*
X170835339Y-153156553D01*
X170622255Y-153298931D01*
X170622254Y-153298932D01*
X170622253Y-153298932D01*
X170385487Y-153397004D01*
X170134139Y-153447000D01*
X169877861Y-153447000D01*
X169626513Y-153397004D01*
X169389747Y-153298932D01*
X169389746Y-153298932D01*
X169389745Y-153298931D01*
X169176661Y-153156553D01*
X168995447Y-152975339D01*
X168853069Y-152762255D01*
X168812048Y-152663222D01*
X168754996Y-152525487D01*
X168705000Y-152274139D01*
X168705000Y-152017861D01*
X168754996Y-151766513D01*
X168853068Y-151529747D01*
X168862130Y-151516185D01*
X168995447Y-151316661D01*
X169176661Y-151135447D01*
X169389745Y-150993069D01*
X169389747Y-150993068D01*
X169626513Y-150894996D01*
X169877861Y-150845000D01*
X170134139Y-150845000D01*
X170385487Y-150894996D01*
X170385487Y-150894996D01*
G37*
G36*
X164257000Y-153447000D02*
G01*
X161655000Y-153447000D01*
X161655000Y-150845000D01*
X164257000Y-150845000D01*
X164257000Y-153447000D01*
X164257000Y-153447000D01*
G37*
G36*
X190131000Y-151777000D02*
G01*
X188329000Y-151777000D01*
X188329000Y-149975000D01*
X190131000Y-149975000D01*
X190131000Y-151777000D01*
X190131000Y-151777000D01*
G37*
G36*
X181495000Y-151777000D02*
G01*
X179693000Y-151777000D01*
X179693000Y-149975000D01*
X181495000Y-149975000D01*
X181495000Y-151777000D01*
X181495000Y-151777000D01*
G37*
G36*
X185022443Y-149981519D02*
G01*
X185088627Y-149988037D01*
X185258466Y-150039557D01*
X185414991Y-150123222D01*
X185450729Y-150152552D01*
X185552186Y-150235814D01*
X185635448Y-150337271D01*
X185664778Y-150373009D01*
X185748443Y-150529534D01*
X185799963Y-150699373D01*
X185817359Y-150876000D01*
X185799963Y-151052627D01*
X185748443Y-151222466D01*
X185664778Y-151378991D01*
X185635448Y-151414729D01*
X185552186Y-151516186D01*
X185450729Y-151599448D01*
X185414991Y-151628778D01*
X185258466Y-151712443D01*
X185088627Y-151763963D01*
X185022442Y-151770482D01*
X184956260Y-151777000D01*
X184867740Y-151777000D01*
X184801558Y-151770482D01*
X184735373Y-151763963D01*
X184565534Y-151712443D01*
X184409009Y-151628778D01*
X184373271Y-151599448D01*
X184271814Y-151516186D01*
X184188552Y-151414729D01*
X184159222Y-151378991D01*
X184075557Y-151222466D01*
X184024037Y-151052627D01*
X184006641Y-150876000D01*
X184024037Y-150699373D01*
X184075557Y-150529534D01*
X184159222Y-150373009D01*
X184188552Y-150337271D01*
X184271814Y-150235814D01*
X184373271Y-150152552D01*
X184409009Y-150123222D01*
X184565534Y-150039557D01*
X184735373Y-149988037D01*
X184801557Y-149981519D01*
X184867740Y-149975000D01*
X184956260Y-149975000D01*
X185022443Y-149981519D01*
X185022443Y-149981519D01*
G37*
G36*
X202051256Y-146473298D02*
G01*
X202157579Y-146494447D01*
X202458042Y-146618903D01*
X202728451Y-146799585D01*
X202958415Y-147029549D01*
X203139097Y-147299958D01*
X203263553Y-147600421D01*
X203327000Y-147919391D01*
X203327000Y-148244609D01*
X203263553Y-148563579D01*
X203139097Y-148864042D01*
X202958415Y-149134451D01*
X202728451Y-149364415D01*
X202458042Y-149545097D01*
X202157579Y-149669553D01*
X202051256Y-149690702D01*
X201838611Y-149733000D01*
X201513389Y-149733000D01*
X201300744Y-149690702D01*
X201194421Y-149669553D01*
X200893958Y-149545097D01*
X200623549Y-149364415D01*
X200393585Y-149134451D01*
X200212903Y-148864042D01*
X200088447Y-148563579D01*
X200025000Y-148244609D01*
X200025000Y-147919391D01*
X200088447Y-147600421D01*
X200212903Y-147299958D01*
X200393585Y-147029549D01*
X200623549Y-146799585D01*
X200893958Y-146618903D01*
X201194421Y-146494447D01*
X201300744Y-146473298D01*
X201513389Y-146431000D01*
X201838611Y-146431000D01*
X202051256Y-146473298D01*
X202051256Y-146473298D01*
G37*
G36*
X243471000Y-145173000D02*
G01*
X241669000Y-145173000D01*
X241669000Y-143371000D01*
X243471000Y-143371000D01*
X243471000Y-145173000D01*
X243471000Y-145173000D01*
G37*
G36*
X218071000Y-144919000D02*
G01*
X216269000Y-144919000D01*
X216269000Y-143117000D01*
X218071000Y-143117000D01*
X218071000Y-144919000D01*
X218071000Y-144919000D01*
G37*
G36*
X230771000Y-144919000D02*
G01*
X228969000Y-144919000D01*
X228969000Y-143117000D01*
X230771000Y-143117000D01*
X230771000Y-144919000D01*
X230771000Y-144919000D01*
G37*
G36*
X183781000Y-139077000D02*
G01*
X181979000Y-139077000D01*
X181979000Y-137275000D01*
X183781000Y-137275000D01*
X183781000Y-139077000D01*
X183781000Y-139077000D01*
G37*
G36*
X171081000Y-139077000D02*
G01*
X169279000Y-139077000D01*
X169279000Y-137275000D01*
X171081000Y-137275000D01*
X171081000Y-139077000D01*
X171081000Y-139077000D01*
G37*
G36*
X158381000Y-139077000D02*
G01*
X156579000Y-139077000D01*
X156579000Y-137275000D01*
X158381000Y-137275000D01*
X158381000Y-139077000D01*
X158381000Y-139077000D01*
G37*
G36*
X170555256Y-118787298D02*
G01*
X170661579Y-118808447D01*
X170962042Y-118932903D01*
X171232451Y-119113585D01*
X171462415Y-119343549D01*
X171643097Y-119613958D01*
X171767553Y-119914421D01*
X171831000Y-120233391D01*
X171831000Y-120558609D01*
X171767553Y-120877579D01*
X171643097Y-121178042D01*
X171462415Y-121448451D01*
X171232451Y-121678415D01*
X170962042Y-121859097D01*
X170661579Y-121983553D01*
X170555256Y-122004702D01*
X170342611Y-122047000D01*
X170017389Y-122047000D01*
X169804744Y-122004702D01*
X169698421Y-121983553D01*
X169397958Y-121859097D01*
X169127549Y-121678415D01*
X168897585Y-121448451D01*
X168716903Y-121178042D01*
X168592447Y-120877579D01*
X168529000Y-120558609D01*
X168529000Y-120233391D01*
X168592447Y-119914421D01*
X168716903Y-119613958D01*
X168897585Y-119343549D01*
X169127549Y-119113585D01*
X169397958Y-118932903D01*
X169698421Y-118808447D01*
X169804744Y-118787298D01*
X170017389Y-118745000D01*
X170342611Y-118745000D01*
X170555256Y-118787298D01*
X170555256Y-118787298D01*
G37*
G36*
X166001000Y-93357000D02*
G01*
X164199000Y-93357000D01*
X164199000Y-91555000D01*
X166001000Y-91555000D01*
X166001000Y-93357000D01*
X166001000Y-93357000D01*
G37*
G36*
X183781000Y-93357000D02*
G01*
X181979000Y-93357000D01*
X181979000Y-91555000D01*
X183781000Y-91555000D01*
X183781000Y-93357000D01*
X183781000Y-93357000D01*
G37*
G36*
X243471000Y-76339000D02*
G01*
X241669000Y-76339000D01*
X241669000Y-74537000D01*
X243471000Y-74537000D01*
X243471000Y-76339000D01*
X243471000Y-76339000D01*
G37*
G36*
X225691000Y-76339000D02*
G01*
X223889000Y-76339000D01*
X223889000Y-74537000D01*
X225691000Y-74537000D01*
X225691000Y-76339000D01*
X225691000Y-76339000D01*
G37*
G36*
X185465487Y-67328996D02*
G01*
X185702253Y-67427068D01*
X185702255Y-67427069D01*
X185915339Y-67569447D01*
X186096553Y-67750661D01*
X186238932Y-67963747D01*
X186337004Y-68200513D01*
X186387000Y-68451861D01*
X186387000Y-68708139D01*
X186337004Y-68959487D01*
X186278629Y-69100416D01*
X186238931Y-69196255D01*
X186096553Y-69409339D01*
X185915339Y-69590553D01*
X185702255Y-69732931D01*
X185702254Y-69732932D01*
X185702253Y-69732932D01*
X185465487Y-69831004D01*
X185214139Y-69881000D01*
X184957861Y-69881000D01*
X184706513Y-69831004D01*
X184469747Y-69732932D01*
X184469746Y-69732932D01*
X184469745Y-69732931D01*
X184256661Y-69590553D01*
X184075447Y-69409339D01*
X183933069Y-69196255D01*
X183893371Y-69100416D01*
X183834996Y-68959487D01*
X183785000Y-68708139D01*
X183785000Y-68451861D01*
X183834996Y-68200513D01*
X183933068Y-67963747D01*
X184075447Y-67750661D01*
X184256661Y-67569447D01*
X184469745Y-67427069D01*
X184469747Y-67427068D01*
X184706513Y-67328996D01*
X184957861Y-67279000D01*
X185214139Y-67279000D01*
X185465487Y-67328996D01*
X185465487Y-67328996D01*
G37*
G36*
X181387000Y-69881000D02*
G01*
X178785000Y-69881000D01*
X178785000Y-67279000D01*
X181387000Y-67279000D01*
X181387000Y-69881000D01*
X181387000Y-69881000D01*
G37*
G36*
X159379256Y-66209298D02*
G01*
X159485579Y-66230447D01*
X159786042Y-66354903D01*
X160056451Y-66535585D01*
X160286415Y-66765549D01*
X160467097Y-67035958D01*
X160588478Y-67328997D01*
X160591553Y-67336422D01*
X160640808Y-67584040D01*
X160655000Y-67655391D01*
X160655000Y-67980609D01*
X160591553Y-68299579D01*
X160467097Y-68600042D01*
X160286415Y-68870451D01*
X160056451Y-69100415D01*
X159786042Y-69281097D01*
X159485579Y-69405553D01*
X159466545Y-69409339D01*
X159166611Y-69469000D01*
X158841389Y-69469000D01*
X158541455Y-69409339D01*
X158522421Y-69405553D01*
X158221958Y-69281097D01*
X157951549Y-69100415D01*
X157721585Y-68870451D01*
X157540903Y-68600042D01*
X157416447Y-68299579D01*
X157353000Y-67980609D01*
X157353000Y-67655391D01*
X157367193Y-67584040D01*
X157416447Y-67336422D01*
X157419523Y-67328997D01*
X157540903Y-67035958D01*
X157721585Y-66765549D01*
X157951549Y-66535585D01*
X158221958Y-66354903D01*
X158522421Y-66230447D01*
X158628744Y-66209298D01*
X158841389Y-66167000D01*
X159166611Y-66167000D01*
X159379256Y-66209298D01*
X159379256Y-66209298D01*
G37*
G36*
X202051256Y-65193298D02*
G01*
X202157579Y-65214447D01*
X202458042Y-65338903D01*
X202728451Y-65519585D01*
X202958415Y-65749549D01*
X203139097Y-66019958D01*
X203226285Y-66230447D01*
X203263553Y-66320422D01*
X203327000Y-66639389D01*
X203327000Y-66964611D01*
X203284702Y-67177256D01*
X203263553Y-67283579D01*
X203204118Y-67427068D01*
X203145143Y-67569447D01*
X203139097Y-67584042D01*
X202958415Y-67854451D01*
X202728451Y-68084415D01*
X202458042Y-68265097D01*
X202157579Y-68389553D01*
X202051256Y-68410702D01*
X201838611Y-68453000D01*
X201513389Y-68453000D01*
X201300744Y-68410702D01*
X201194421Y-68389553D01*
X200893958Y-68265097D01*
X200623549Y-68084415D01*
X200393585Y-67854451D01*
X200212903Y-67584042D01*
X200206858Y-67569447D01*
X200147882Y-67427068D01*
X200088447Y-67283579D01*
X200067298Y-67177256D01*
X200025000Y-66964611D01*
X200025000Y-66639389D01*
X200088447Y-66320422D01*
X200125716Y-66230447D01*
X200212903Y-66019958D01*
X200393585Y-65749549D01*
X200623549Y-65519585D01*
X200893958Y-65338903D01*
X201194421Y-65214447D01*
X201300744Y-65193298D01*
X201513389Y-65151000D01*
X201838611Y-65151000D01*
X202051256Y-65193298D01*
X202051256Y-65193298D01*
G37*
M02*
