G04 #@! TF.GenerationSoftware,KiCad,Pcbnew,(5.1.4)-1*
G04 #@! TF.CreationDate,2019-09-17T16:36:48-04:00*
G04 #@! TF.ProjectId,amplifier,616d706c-6966-4696-9572-2e6b69636164,rev?*
G04 #@! TF.SameCoordinates,Original*
G04 #@! TF.FileFunction,Soldermask,Top*
G04 #@! TF.FilePolarity,Negative*
%FSLAX46Y46*%
G04 Gerber Fmt 4.6, Leading zero omitted, Abs format (unit mm)*
G04 Created by KiCad (PCBNEW (5.1.4)-1) date 2019-09-17 16:36:48*
%MOMM*%
%LPD*%
G04 APERTURE LIST*
%ADD10C,0.100000*%
G04 APERTURE END LIST*
D10*
G36*
X126091000Y-87427000D02*
G01*
X124489000Y-87427000D01*
X124489000Y-82245000D01*
X126091000Y-82245000D01*
X126091000Y-87427000D01*
X126091000Y-87427000D01*
G37*
G36*
X134591000Y-87427000D02*
G01*
X132989000Y-87427000D01*
X132989000Y-82245000D01*
X134591000Y-82245000D01*
X134591000Y-87427000D01*
X134591000Y-87427000D01*
G37*
G36*
X130341000Y-87427000D02*
G01*
X128739000Y-87427000D01*
X128739000Y-82245000D01*
X130341000Y-82245000D01*
X130341000Y-87427000D01*
X130341000Y-87427000D01*
G37*
G36*
X145593000Y-84045000D02*
G01*
X140411000Y-84045000D01*
X140411000Y-82443000D01*
X145593000Y-82443000D01*
X145593000Y-84045000D01*
X145593000Y-84045000D01*
G37*
G36*
X118832968Y-78755565D02*
G01*
X118871638Y-78767296D01*
X118907277Y-78786346D01*
X118938517Y-78811983D01*
X118964154Y-78843223D01*
X118983204Y-78878862D01*
X118994935Y-78917532D01*
X118999500Y-78963888D01*
X118999500Y-80040112D01*
X118994935Y-80086468D01*
X118983204Y-80125138D01*
X118964154Y-80160777D01*
X118938517Y-80192017D01*
X118907277Y-80217654D01*
X118871638Y-80236704D01*
X118832968Y-80248435D01*
X118786612Y-80253000D01*
X118135388Y-80253000D01*
X118089032Y-80248435D01*
X118050362Y-80236704D01*
X118014723Y-80217654D01*
X117983483Y-80192017D01*
X117957846Y-80160777D01*
X117938796Y-80125138D01*
X117927065Y-80086468D01*
X117922500Y-80040112D01*
X117922500Y-78963888D01*
X117927065Y-78917532D01*
X117938796Y-78878862D01*
X117957846Y-78843223D01*
X117983483Y-78811983D01*
X118014723Y-78786346D01*
X118050362Y-78767296D01*
X118089032Y-78755565D01*
X118135388Y-78751000D01*
X118786612Y-78751000D01*
X118832968Y-78755565D01*
X118832968Y-78755565D01*
G37*
G36*
X116957968Y-78755565D02*
G01*
X116996638Y-78767296D01*
X117032277Y-78786346D01*
X117063517Y-78811983D01*
X117089154Y-78843223D01*
X117108204Y-78878862D01*
X117119935Y-78917532D01*
X117124500Y-78963888D01*
X117124500Y-80040112D01*
X117119935Y-80086468D01*
X117108204Y-80125138D01*
X117089154Y-80160777D01*
X117063517Y-80192017D01*
X117032277Y-80217654D01*
X116996638Y-80236704D01*
X116957968Y-80248435D01*
X116911612Y-80253000D01*
X116260388Y-80253000D01*
X116214032Y-80248435D01*
X116175362Y-80236704D01*
X116139723Y-80217654D01*
X116108483Y-80192017D01*
X116082846Y-80160777D01*
X116063796Y-80125138D01*
X116052065Y-80086468D01*
X116047500Y-80040112D01*
X116047500Y-78963888D01*
X116052065Y-78917532D01*
X116063796Y-78878862D01*
X116082846Y-78843223D01*
X116108483Y-78811983D01*
X116139723Y-78786346D01*
X116175362Y-78767296D01*
X116214032Y-78755565D01*
X116260388Y-78751000D01*
X116911612Y-78751000D01*
X116957968Y-78755565D01*
X116957968Y-78755565D01*
G37*
G36*
X145593000Y-79795000D02*
G01*
X140411000Y-79795000D01*
X140411000Y-78193000D01*
X145593000Y-78193000D01*
X145593000Y-79795000D01*
X145593000Y-79795000D01*
G37*
G36*
X138977468Y-78247565D02*
G01*
X139016138Y-78259296D01*
X139051777Y-78278346D01*
X139083017Y-78303983D01*
X139108654Y-78335223D01*
X139127704Y-78370862D01*
X139139435Y-78409532D01*
X139144000Y-78455888D01*
X139144000Y-79532112D01*
X139139435Y-79578468D01*
X139127704Y-79617138D01*
X139108654Y-79652777D01*
X139083017Y-79684017D01*
X139051777Y-79709654D01*
X139016138Y-79728704D01*
X138977468Y-79740435D01*
X138931112Y-79745000D01*
X138279888Y-79745000D01*
X138233532Y-79740435D01*
X138194862Y-79728704D01*
X138159223Y-79709654D01*
X138127983Y-79684017D01*
X138102346Y-79652777D01*
X138083296Y-79617138D01*
X138071565Y-79578468D01*
X138067000Y-79532112D01*
X138067000Y-78455888D01*
X138071565Y-78409532D01*
X138083296Y-78370862D01*
X138102346Y-78335223D01*
X138127983Y-78303983D01*
X138159223Y-78278346D01*
X138194862Y-78259296D01*
X138233532Y-78247565D01*
X138279888Y-78243000D01*
X138931112Y-78243000D01*
X138977468Y-78247565D01*
X138977468Y-78247565D01*
G37*
G36*
X137102468Y-78247565D02*
G01*
X137141138Y-78259296D01*
X137176777Y-78278346D01*
X137208017Y-78303983D01*
X137233654Y-78335223D01*
X137252704Y-78370862D01*
X137264435Y-78409532D01*
X137269000Y-78455888D01*
X137269000Y-79532112D01*
X137264435Y-79578468D01*
X137252704Y-79617138D01*
X137233654Y-79652777D01*
X137208017Y-79684017D01*
X137176777Y-79709654D01*
X137141138Y-79728704D01*
X137102468Y-79740435D01*
X137056112Y-79745000D01*
X136404888Y-79745000D01*
X136358532Y-79740435D01*
X136319862Y-79728704D01*
X136284223Y-79709654D01*
X136252983Y-79684017D01*
X136227346Y-79652777D01*
X136208296Y-79617138D01*
X136196565Y-79578468D01*
X136192000Y-79532112D01*
X136192000Y-78455888D01*
X136196565Y-78409532D01*
X136208296Y-78370862D01*
X136227346Y-78335223D01*
X136252983Y-78303983D01*
X136284223Y-78278346D01*
X136319862Y-78259296D01*
X136358532Y-78247565D01*
X136404888Y-78243000D01*
X137056112Y-78243000D01*
X137102468Y-78247565D01*
X137102468Y-78247565D01*
G37*
G36*
X131822401Y-79630600D02*
G01*
X131189601Y-79630600D01*
X131189601Y-78017400D01*
X131822401Y-78017400D01*
X131822401Y-79630600D01*
X131822401Y-79630600D01*
G37*
G36*
X130872400Y-79630600D02*
G01*
X130239600Y-79630600D01*
X130239600Y-78017400D01*
X130872400Y-78017400D01*
X130872400Y-79630600D01*
X130872400Y-79630600D01*
G37*
G36*
X129922399Y-79630600D02*
G01*
X129289599Y-79630600D01*
X129289599Y-78017400D01*
X129922399Y-78017400D01*
X129922399Y-79630600D01*
X129922399Y-79630600D01*
G37*
G36*
X134950468Y-78381565D02*
G01*
X134989138Y-78393296D01*
X135024777Y-78412346D01*
X135056017Y-78437983D01*
X135081654Y-78469223D01*
X135100704Y-78504862D01*
X135112435Y-78543532D01*
X135117000Y-78589888D01*
X135117000Y-79241112D01*
X135112435Y-79287468D01*
X135100704Y-79326138D01*
X135081654Y-79361777D01*
X135056017Y-79393017D01*
X135024777Y-79418654D01*
X134989138Y-79437704D01*
X134950468Y-79449435D01*
X134904112Y-79454000D01*
X133827888Y-79454000D01*
X133781532Y-79449435D01*
X133742862Y-79437704D01*
X133707223Y-79418654D01*
X133675983Y-79393017D01*
X133650346Y-79361777D01*
X133631296Y-79326138D01*
X133619565Y-79287468D01*
X133615000Y-79241112D01*
X133615000Y-78589888D01*
X133619565Y-78543532D01*
X133631296Y-78504862D01*
X133650346Y-78469223D01*
X133675983Y-78437983D01*
X133707223Y-78412346D01*
X133742862Y-78393296D01*
X133781532Y-78381565D01*
X133827888Y-78377000D01*
X134904112Y-78377000D01*
X134950468Y-78381565D01*
X134950468Y-78381565D01*
G37*
G36*
X134950468Y-76506565D02*
G01*
X134989138Y-76518296D01*
X135024777Y-76537346D01*
X135056017Y-76562983D01*
X135081654Y-76594223D01*
X135100704Y-76629862D01*
X135112435Y-76668532D01*
X135117000Y-76714888D01*
X135117000Y-77366112D01*
X135112435Y-77412468D01*
X135100704Y-77451138D01*
X135081654Y-77486777D01*
X135056017Y-77518017D01*
X135024777Y-77543654D01*
X134989138Y-77562704D01*
X134950468Y-77574435D01*
X134904112Y-77579000D01*
X133827888Y-77579000D01*
X133781532Y-77574435D01*
X133742862Y-77562704D01*
X133707223Y-77543654D01*
X133675983Y-77518017D01*
X133650346Y-77486777D01*
X133631296Y-77451138D01*
X133619565Y-77412468D01*
X133615000Y-77366112D01*
X133615000Y-76714888D01*
X133619565Y-76668532D01*
X133631296Y-76629862D01*
X133650346Y-76594223D01*
X133675983Y-76562983D01*
X133707223Y-76537346D01*
X133742862Y-76518296D01*
X133781532Y-76506565D01*
X133827888Y-76502000D01*
X134904112Y-76502000D01*
X134950468Y-76506565D01*
X134950468Y-76506565D01*
G37*
G36*
X116879468Y-75961565D02*
G01*
X116918138Y-75973296D01*
X116953777Y-75992346D01*
X116985017Y-76017983D01*
X117010654Y-76049223D01*
X117029704Y-76084862D01*
X117041435Y-76123532D01*
X117046000Y-76169888D01*
X117046000Y-77246112D01*
X117041435Y-77292468D01*
X117029704Y-77331138D01*
X117010654Y-77366777D01*
X116985017Y-77398017D01*
X116953777Y-77423654D01*
X116918138Y-77442704D01*
X116879468Y-77454435D01*
X116833112Y-77459000D01*
X116181888Y-77459000D01*
X116135532Y-77454435D01*
X116096862Y-77442704D01*
X116061223Y-77423654D01*
X116029983Y-77398017D01*
X116004346Y-77366777D01*
X115985296Y-77331138D01*
X115973565Y-77292468D01*
X115969000Y-77246112D01*
X115969000Y-76169888D01*
X115973565Y-76123532D01*
X115985296Y-76084862D01*
X116004346Y-76049223D01*
X116029983Y-76017983D01*
X116061223Y-75992346D01*
X116096862Y-75973296D01*
X116135532Y-75961565D01*
X116181888Y-75957000D01*
X116833112Y-75957000D01*
X116879468Y-75961565D01*
X116879468Y-75961565D01*
G37*
G36*
X115004468Y-75961565D02*
G01*
X115043138Y-75973296D01*
X115078777Y-75992346D01*
X115110017Y-76017983D01*
X115135654Y-76049223D01*
X115154704Y-76084862D01*
X115166435Y-76123532D01*
X115171000Y-76169888D01*
X115171000Y-77246112D01*
X115166435Y-77292468D01*
X115154704Y-77331138D01*
X115135654Y-77366777D01*
X115110017Y-77398017D01*
X115078777Y-77423654D01*
X115043138Y-77442704D01*
X115004468Y-77454435D01*
X114958112Y-77459000D01*
X114306888Y-77459000D01*
X114260532Y-77454435D01*
X114221862Y-77442704D01*
X114186223Y-77423654D01*
X114154983Y-77398017D01*
X114129346Y-77366777D01*
X114110296Y-77331138D01*
X114098565Y-77292468D01*
X114094000Y-77246112D01*
X114094000Y-76169888D01*
X114098565Y-76123532D01*
X114110296Y-76084862D01*
X114129346Y-76049223D01*
X114154983Y-76017983D01*
X114186223Y-75992346D01*
X114221862Y-75973296D01*
X114260532Y-75961565D01*
X114306888Y-75957000D01*
X114958112Y-75957000D01*
X115004468Y-75961565D01*
X115004468Y-75961565D01*
G37*
G36*
X129922399Y-77430600D02*
G01*
X129289599Y-77430600D01*
X129289599Y-75817400D01*
X129922399Y-75817400D01*
X129922399Y-77430600D01*
X129922399Y-77430600D01*
G37*
G36*
X131822401Y-77430600D02*
G01*
X131189601Y-77430600D01*
X131189601Y-75817400D01*
X131822401Y-75817400D01*
X131822401Y-77430600D01*
X131822401Y-77430600D01*
G37*
G36*
X130872400Y-77430600D02*
G01*
X130239600Y-77430600D01*
X130239600Y-75817400D01*
X130872400Y-75817400D01*
X130872400Y-77430600D01*
X130872400Y-77430600D01*
G37*
G36*
X119386604Y-75912347D02*
G01*
X119423144Y-75923432D01*
X119456821Y-75941433D01*
X119486341Y-75965659D01*
X119510567Y-75995179D01*
X119528568Y-76028856D01*
X119539653Y-76065396D01*
X119544000Y-76109538D01*
X119544000Y-77058462D01*
X119539653Y-77102604D01*
X119528568Y-77139144D01*
X119510567Y-77172821D01*
X119486341Y-77202341D01*
X119456821Y-77226567D01*
X119423144Y-77244568D01*
X119386604Y-77255653D01*
X119342462Y-77260000D01*
X117893538Y-77260000D01*
X117849396Y-77255653D01*
X117812856Y-77244568D01*
X117779179Y-77226567D01*
X117749659Y-77202341D01*
X117725433Y-77172821D01*
X117707432Y-77139144D01*
X117696347Y-77102604D01*
X117692000Y-77058462D01*
X117692000Y-76109538D01*
X117696347Y-76065396D01*
X117707432Y-76028856D01*
X117725433Y-75995179D01*
X117749659Y-75965659D01*
X117779179Y-75941433D01*
X117812856Y-75923432D01*
X117849396Y-75912347D01*
X117893538Y-75908000D01*
X119342462Y-75908000D01*
X119386604Y-75912347D01*
X119386604Y-75912347D01*
G37*
G36*
X145593000Y-75545000D02*
G01*
X140411000Y-75545000D01*
X140411000Y-73943000D01*
X145593000Y-73943000D01*
X145593000Y-75545000D01*
X145593000Y-75545000D01*
G37*
G36*
X119386604Y-73112347D02*
G01*
X119423144Y-73123432D01*
X119456821Y-73141433D01*
X119486341Y-73165659D01*
X119510567Y-73195179D01*
X119528568Y-73228856D01*
X119539653Y-73265396D01*
X119544000Y-73309538D01*
X119544000Y-74258462D01*
X119539653Y-74302604D01*
X119528568Y-74339144D01*
X119510567Y-74372821D01*
X119486341Y-74402341D01*
X119456821Y-74426567D01*
X119423144Y-74444568D01*
X119386604Y-74455653D01*
X119342462Y-74460000D01*
X117893538Y-74460000D01*
X117849396Y-74455653D01*
X117812856Y-74444568D01*
X117779179Y-74426567D01*
X117749659Y-74402341D01*
X117725433Y-74372821D01*
X117707432Y-74339144D01*
X117696347Y-74302604D01*
X117692000Y-74258462D01*
X117692000Y-73309538D01*
X117696347Y-73265396D01*
X117707432Y-73228856D01*
X117725433Y-73195179D01*
X117749659Y-73165659D01*
X117779179Y-73141433D01*
X117812856Y-73123432D01*
X117849396Y-73112347D01*
X117893538Y-73108000D01*
X119342462Y-73108000D01*
X119386604Y-73112347D01*
X119386604Y-73112347D01*
G37*
G36*
X116800968Y-72913565D02*
G01*
X116839638Y-72925296D01*
X116875277Y-72944346D01*
X116906517Y-72969983D01*
X116932154Y-73001223D01*
X116951204Y-73036862D01*
X116962935Y-73075532D01*
X116967500Y-73121888D01*
X116967500Y-74198112D01*
X116962935Y-74244468D01*
X116951204Y-74283138D01*
X116932154Y-74318777D01*
X116906517Y-74350017D01*
X116875277Y-74375654D01*
X116839638Y-74394704D01*
X116800968Y-74406435D01*
X116754612Y-74411000D01*
X116103388Y-74411000D01*
X116057032Y-74406435D01*
X116018362Y-74394704D01*
X115982723Y-74375654D01*
X115951483Y-74350017D01*
X115925846Y-74318777D01*
X115906796Y-74283138D01*
X115895065Y-74244468D01*
X115890500Y-74198112D01*
X115890500Y-73121888D01*
X115895065Y-73075532D01*
X115906796Y-73036862D01*
X115925846Y-73001223D01*
X115951483Y-72969983D01*
X115982723Y-72944346D01*
X116018362Y-72925296D01*
X116057032Y-72913565D01*
X116103388Y-72909000D01*
X116754612Y-72909000D01*
X116800968Y-72913565D01*
X116800968Y-72913565D01*
G37*
G36*
X114925968Y-72913565D02*
G01*
X114964638Y-72925296D01*
X115000277Y-72944346D01*
X115031517Y-72969983D01*
X115057154Y-73001223D01*
X115076204Y-73036862D01*
X115087935Y-73075532D01*
X115092500Y-73121888D01*
X115092500Y-74198112D01*
X115087935Y-74244468D01*
X115076204Y-74283138D01*
X115057154Y-74318777D01*
X115031517Y-74350017D01*
X115000277Y-74375654D01*
X114964638Y-74394704D01*
X114925968Y-74406435D01*
X114879612Y-74411000D01*
X114228388Y-74411000D01*
X114182032Y-74406435D01*
X114143362Y-74394704D01*
X114107723Y-74375654D01*
X114076483Y-74350017D01*
X114050846Y-74318777D01*
X114031796Y-74283138D01*
X114020065Y-74244468D01*
X114015500Y-74198112D01*
X114015500Y-73121888D01*
X114020065Y-73075532D01*
X114031796Y-73036862D01*
X114050846Y-73001223D01*
X114076483Y-72969983D01*
X114107723Y-72944346D01*
X114143362Y-72925296D01*
X114182032Y-72913565D01*
X114228388Y-72909000D01*
X114879612Y-72909000D01*
X114925968Y-72913565D01*
X114925968Y-72913565D01*
G37*
G36*
X129990468Y-72151565D02*
G01*
X130029138Y-72163296D01*
X130064777Y-72182346D01*
X130096017Y-72207983D01*
X130121654Y-72239223D01*
X130140704Y-72274862D01*
X130152435Y-72313532D01*
X130157000Y-72359888D01*
X130157000Y-73436112D01*
X130152435Y-73482468D01*
X130140704Y-73521138D01*
X130121654Y-73556777D01*
X130096017Y-73588017D01*
X130064777Y-73613654D01*
X130029138Y-73632704D01*
X129990468Y-73644435D01*
X129944112Y-73649000D01*
X129292888Y-73649000D01*
X129246532Y-73644435D01*
X129207862Y-73632704D01*
X129172223Y-73613654D01*
X129140983Y-73588017D01*
X129115346Y-73556777D01*
X129096296Y-73521138D01*
X129084565Y-73482468D01*
X129080000Y-73436112D01*
X129080000Y-72359888D01*
X129084565Y-72313532D01*
X129096296Y-72274862D01*
X129115346Y-72239223D01*
X129140983Y-72207983D01*
X129172223Y-72182346D01*
X129207862Y-72163296D01*
X129246532Y-72151565D01*
X129292888Y-72147000D01*
X129944112Y-72147000D01*
X129990468Y-72151565D01*
X129990468Y-72151565D01*
G37*
G36*
X135850968Y-72151565D02*
G01*
X135889638Y-72163296D01*
X135925277Y-72182346D01*
X135956517Y-72207983D01*
X135982154Y-72239223D01*
X136001204Y-72274862D01*
X136012935Y-72313532D01*
X136017500Y-72359888D01*
X136017500Y-73436112D01*
X136012935Y-73482468D01*
X136001204Y-73521138D01*
X135982154Y-73556777D01*
X135956517Y-73588017D01*
X135925277Y-73613654D01*
X135889638Y-73632704D01*
X135850968Y-73644435D01*
X135804612Y-73649000D01*
X135153388Y-73649000D01*
X135107032Y-73644435D01*
X135068362Y-73632704D01*
X135032723Y-73613654D01*
X135001483Y-73588017D01*
X134975846Y-73556777D01*
X134956796Y-73521138D01*
X134945065Y-73482468D01*
X134940500Y-73436112D01*
X134940500Y-72359888D01*
X134945065Y-72313532D01*
X134956796Y-72274862D01*
X134975846Y-72239223D01*
X135001483Y-72207983D01*
X135032723Y-72182346D01*
X135068362Y-72163296D01*
X135107032Y-72151565D01*
X135153388Y-72147000D01*
X135804612Y-72147000D01*
X135850968Y-72151565D01*
X135850968Y-72151565D01*
G37*
G36*
X131865468Y-72151565D02*
G01*
X131904138Y-72163296D01*
X131939777Y-72182346D01*
X131971017Y-72207983D01*
X131996654Y-72239223D01*
X132015704Y-72274862D01*
X132027435Y-72313532D01*
X132032000Y-72359888D01*
X132032000Y-73436112D01*
X132027435Y-73482468D01*
X132015704Y-73521138D01*
X131996654Y-73556777D01*
X131971017Y-73588017D01*
X131939777Y-73613654D01*
X131904138Y-73632704D01*
X131865468Y-73644435D01*
X131819112Y-73649000D01*
X131167888Y-73649000D01*
X131121532Y-73644435D01*
X131082862Y-73632704D01*
X131047223Y-73613654D01*
X131015983Y-73588017D01*
X130990346Y-73556777D01*
X130971296Y-73521138D01*
X130959565Y-73482468D01*
X130955000Y-73436112D01*
X130955000Y-72359888D01*
X130959565Y-72313532D01*
X130971296Y-72274862D01*
X130990346Y-72239223D01*
X131015983Y-72207983D01*
X131047223Y-72182346D01*
X131082862Y-72163296D01*
X131121532Y-72151565D01*
X131167888Y-72147000D01*
X131819112Y-72147000D01*
X131865468Y-72151565D01*
X131865468Y-72151565D01*
G37*
G36*
X133975968Y-72151565D02*
G01*
X134014638Y-72163296D01*
X134050277Y-72182346D01*
X134081517Y-72207983D01*
X134107154Y-72239223D01*
X134126204Y-72274862D01*
X134137935Y-72313532D01*
X134142500Y-72359888D01*
X134142500Y-73436112D01*
X134137935Y-73482468D01*
X134126204Y-73521138D01*
X134107154Y-73556777D01*
X134081517Y-73588017D01*
X134050277Y-73613654D01*
X134014638Y-73632704D01*
X133975968Y-73644435D01*
X133929612Y-73649000D01*
X133278388Y-73649000D01*
X133232032Y-73644435D01*
X133193362Y-73632704D01*
X133157723Y-73613654D01*
X133126483Y-73588017D01*
X133100846Y-73556777D01*
X133081796Y-73521138D01*
X133070065Y-73482468D01*
X133065500Y-73436112D01*
X133065500Y-72359888D01*
X133070065Y-72313532D01*
X133081796Y-72274862D01*
X133100846Y-72239223D01*
X133126483Y-72207983D01*
X133157723Y-72182346D01*
X133193362Y-72163296D01*
X133232032Y-72151565D01*
X133278388Y-72147000D01*
X133929612Y-72147000D01*
X133975968Y-72151565D01*
X133975968Y-72151565D01*
G37*
G36*
X115004468Y-69611565D02*
G01*
X115043138Y-69623296D01*
X115078777Y-69642346D01*
X115110017Y-69667983D01*
X115135654Y-69699223D01*
X115154704Y-69734862D01*
X115166435Y-69773532D01*
X115171000Y-69819888D01*
X115171000Y-70896112D01*
X115166435Y-70942468D01*
X115154704Y-70981138D01*
X115135654Y-71016777D01*
X115110017Y-71048017D01*
X115078777Y-71073654D01*
X115043138Y-71092704D01*
X115004468Y-71104435D01*
X114958112Y-71109000D01*
X114306888Y-71109000D01*
X114260532Y-71104435D01*
X114221862Y-71092704D01*
X114186223Y-71073654D01*
X114154983Y-71048017D01*
X114129346Y-71016777D01*
X114110296Y-70981138D01*
X114098565Y-70942468D01*
X114094000Y-70896112D01*
X114094000Y-69819888D01*
X114098565Y-69773532D01*
X114110296Y-69734862D01*
X114129346Y-69699223D01*
X114154983Y-69667983D01*
X114186223Y-69642346D01*
X114221862Y-69623296D01*
X114260532Y-69611565D01*
X114306888Y-69607000D01*
X114958112Y-69607000D01*
X115004468Y-69611565D01*
X115004468Y-69611565D01*
G37*
G36*
X120864968Y-69611565D02*
G01*
X120903638Y-69623296D01*
X120939277Y-69642346D01*
X120970517Y-69667983D01*
X120996154Y-69699223D01*
X121015204Y-69734862D01*
X121026935Y-69773532D01*
X121031500Y-69819888D01*
X121031500Y-70896112D01*
X121026935Y-70942468D01*
X121015204Y-70981138D01*
X120996154Y-71016777D01*
X120970517Y-71048017D01*
X120939277Y-71073654D01*
X120903638Y-71092704D01*
X120864968Y-71104435D01*
X120818612Y-71109000D01*
X120167388Y-71109000D01*
X120121032Y-71104435D01*
X120082362Y-71092704D01*
X120046723Y-71073654D01*
X120015483Y-71048017D01*
X119989846Y-71016777D01*
X119970796Y-70981138D01*
X119959065Y-70942468D01*
X119954500Y-70896112D01*
X119954500Y-69819888D01*
X119959065Y-69773532D01*
X119970796Y-69734862D01*
X119989846Y-69699223D01*
X120015483Y-69667983D01*
X120046723Y-69642346D01*
X120082362Y-69623296D01*
X120121032Y-69611565D01*
X120167388Y-69607000D01*
X120818612Y-69607000D01*
X120864968Y-69611565D01*
X120864968Y-69611565D01*
G37*
G36*
X116879468Y-69611565D02*
G01*
X116918138Y-69623296D01*
X116953777Y-69642346D01*
X116985017Y-69667983D01*
X117010654Y-69699223D01*
X117029704Y-69734862D01*
X117041435Y-69773532D01*
X117046000Y-69819888D01*
X117046000Y-70896112D01*
X117041435Y-70942468D01*
X117029704Y-70981138D01*
X117010654Y-71016777D01*
X116985017Y-71048017D01*
X116953777Y-71073654D01*
X116918138Y-71092704D01*
X116879468Y-71104435D01*
X116833112Y-71109000D01*
X116181888Y-71109000D01*
X116135532Y-71104435D01*
X116096862Y-71092704D01*
X116061223Y-71073654D01*
X116029983Y-71048017D01*
X116004346Y-71016777D01*
X115985296Y-70981138D01*
X115973565Y-70942468D01*
X115969000Y-70896112D01*
X115969000Y-69819888D01*
X115973565Y-69773532D01*
X115985296Y-69734862D01*
X116004346Y-69699223D01*
X116029983Y-69667983D01*
X116061223Y-69642346D01*
X116096862Y-69623296D01*
X116135532Y-69611565D01*
X116181888Y-69607000D01*
X116833112Y-69607000D01*
X116879468Y-69611565D01*
X116879468Y-69611565D01*
G37*
G36*
X118989968Y-69611565D02*
G01*
X119028638Y-69623296D01*
X119064277Y-69642346D01*
X119095517Y-69667983D01*
X119121154Y-69699223D01*
X119140204Y-69734862D01*
X119151935Y-69773532D01*
X119156500Y-69819888D01*
X119156500Y-70896112D01*
X119151935Y-70942468D01*
X119140204Y-70981138D01*
X119121154Y-71016777D01*
X119095517Y-71048017D01*
X119064277Y-71073654D01*
X119028638Y-71092704D01*
X118989968Y-71104435D01*
X118943612Y-71109000D01*
X118292388Y-71109000D01*
X118246032Y-71104435D01*
X118207362Y-71092704D01*
X118171723Y-71073654D01*
X118140483Y-71048017D01*
X118114846Y-71016777D01*
X118095796Y-70981138D01*
X118084065Y-70942468D01*
X118079500Y-70896112D01*
X118079500Y-69819888D01*
X118084065Y-69773532D01*
X118095796Y-69734862D01*
X118114846Y-69699223D01*
X118140483Y-69667983D01*
X118171723Y-69642346D01*
X118207362Y-69623296D01*
X118246032Y-69611565D01*
X118292388Y-69607000D01*
X118943612Y-69607000D01*
X118989968Y-69611565D01*
X118989968Y-69611565D01*
G37*
G36*
X134950468Y-68397065D02*
G01*
X134989138Y-68408796D01*
X135024777Y-68427846D01*
X135056017Y-68453483D01*
X135081654Y-68484723D01*
X135100704Y-68520362D01*
X135112435Y-68559032D01*
X135117000Y-68605388D01*
X135117000Y-69256612D01*
X135112435Y-69302968D01*
X135100704Y-69341638D01*
X135081654Y-69377277D01*
X135056017Y-69408517D01*
X135024777Y-69434154D01*
X134989138Y-69453204D01*
X134950468Y-69464935D01*
X134904112Y-69469500D01*
X133827888Y-69469500D01*
X133781532Y-69464935D01*
X133742862Y-69453204D01*
X133707223Y-69434154D01*
X133675983Y-69408517D01*
X133650346Y-69377277D01*
X133631296Y-69341638D01*
X133619565Y-69302968D01*
X133615000Y-69256612D01*
X133615000Y-68605388D01*
X133619565Y-68559032D01*
X133631296Y-68520362D01*
X133650346Y-68484723D01*
X133675983Y-68453483D01*
X133707223Y-68427846D01*
X133742862Y-68408796D01*
X133781532Y-68397065D01*
X133827888Y-68392500D01*
X134904112Y-68392500D01*
X134950468Y-68397065D01*
X134950468Y-68397065D01*
G37*
G36*
X132092900Y-69469200D02*
G01*
X131432100Y-69469200D01*
X131432100Y-68097200D01*
X132092900Y-68097200D01*
X132092900Y-69469200D01*
X132092900Y-69469200D01*
G37*
G36*
X130187900Y-69469200D02*
G01*
X129527100Y-69469200D01*
X129527100Y-68097200D01*
X130187900Y-68097200D01*
X130187900Y-69469200D01*
X130187900Y-69469200D01*
G37*
G36*
X118928000Y-68737000D02*
G01*
X118176000Y-68737000D01*
X118176000Y-67575000D01*
X118928000Y-67575000D01*
X118928000Y-68737000D01*
X118928000Y-68737000D01*
G37*
G36*
X117028000Y-68737000D02*
G01*
X116276000Y-68737000D01*
X116276000Y-67575000D01*
X117028000Y-67575000D01*
X117028000Y-68737000D01*
X117028000Y-68737000D01*
G37*
G36*
X127838468Y-67635065D02*
G01*
X127877138Y-67646796D01*
X127912777Y-67665846D01*
X127944017Y-67691483D01*
X127969654Y-67722723D01*
X127988704Y-67758362D01*
X128000435Y-67797032D01*
X128005000Y-67843388D01*
X128005000Y-68494612D01*
X128000435Y-68540968D01*
X127988704Y-68579638D01*
X127969654Y-68615277D01*
X127944017Y-68646517D01*
X127912777Y-68672154D01*
X127877138Y-68691204D01*
X127838468Y-68702935D01*
X127792112Y-68707500D01*
X126715888Y-68707500D01*
X126669532Y-68702935D01*
X126630862Y-68691204D01*
X126595223Y-68672154D01*
X126563983Y-68646517D01*
X126538346Y-68615277D01*
X126519296Y-68579638D01*
X126507565Y-68540968D01*
X126503000Y-68494612D01*
X126503000Y-67843388D01*
X126507565Y-67797032D01*
X126519296Y-67758362D01*
X126538346Y-67722723D01*
X126563983Y-67691483D01*
X126595223Y-67665846D01*
X126630862Y-67646796D01*
X126669532Y-67635065D01*
X126715888Y-67630500D01*
X127792112Y-67630500D01*
X127838468Y-67635065D01*
X127838468Y-67635065D01*
G37*
G36*
X134950468Y-66522065D02*
G01*
X134989138Y-66533796D01*
X135024777Y-66552846D01*
X135056017Y-66578483D01*
X135081654Y-66609723D01*
X135100704Y-66645362D01*
X135112435Y-66684032D01*
X135117000Y-66730388D01*
X135117000Y-67381612D01*
X135112435Y-67427968D01*
X135100704Y-67466638D01*
X135081654Y-67502277D01*
X135056017Y-67533517D01*
X135024777Y-67559154D01*
X134989138Y-67578204D01*
X134950468Y-67589935D01*
X134904112Y-67594500D01*
X133827888Y-67594500D01*
X133781532Y-67589935D01*
X133742862Y-67578204D01*
X133707223Y-67559154D01*
X133675983Y-67533517D01*
X133650346Y-67502277D01*
X133631296Y-67466638D01*
X133619565Y-67427968D01*
X133615000Y-67381612D01*
X133615000Y-66730388D01*
X133619565Y-66684032D01*
X133631296Y-66645362D01*
X133650346Y-66609723D01*
X133675983Y-66578483D01*
X133707223Y-66552846D01*
X133742862Y-66533796D01*
X133781532Y-66522065D01*
X133827888Y-66517500D01*
X134904112Y-66517500D01*
X134950468Y-66522065D01*
X134950468Y-66522065D01*
G37*
G36*
X132092900Y-67030800D02*
G01*
X131432100Y-67030800D01*
X131432100Y-65658800D01*
X132092900Y-65658800D01*
X132092900Y-67030800D01*
X132092900Y-67030800D01*
G37*
G36*
X130187900Y-67030800D02*
G01*
X129527100Y-67030800D01*
X129527100Y-65658800D01*
X130187900Y-65658800D01*
X130187900Y-67030800D01*
X130187900Y-67030800D01*
G37*
G36*
X131140400Y-67030800D02*
G01*
X130479600Y-67030800D01*
X130479600Y-65658800D01*
X131140400Y-65658800D01*
X131140400Y-67030800D01*
X131140400Y-67030800D01*
G37*
G36*
X127838468Y-65760065D02*
G01*
X127877138Y-65771796D01*
X127912777Y-65790846D01*
X127944017Y-65816483D01*
X127969654Y-65847723D01*
X127988704Y-65883362D01*
X128000435Y-65922032D01*
X128005000Y-65968388D01*
X128005000Y-66619612D01*
X128000435Y-66665968D01*
X127988704Y-66704638D01*
X127969654Y-66740277D01*
X127944017Y-66771517D01*
X127912777Y-66797154D01*
X127877138Y-66816204D01*
X127838468Y-66827935D01*
X127792112Y-66832500D01*
X126715888Y-66832500D01*
X126669532Y-66827935D01*
X126630862Y-66816204D01*
X126595223Y-66797154D01*
X126563983Y-66771517D01*
X126538346Y-66740277D01*
X126519296Y-66704638D01*
X126507565Y-66665968D01*
X126503000Y-66619612D01*
X126503000Y-65968388D01*
X126507565Y-65922032D01*
X126519296Y-65883362D01*
X126538346Y-65847723D01*
X126563983Y-65816483D01*
X126595223Y-65790846D01*
X126630862Y-65771796D01*
X126669532Y-65760065D01*
X126715888Y-65755500D01*
X127792112Y-65755500D01*
X127838468Y-65760065D01*
X127838468Y-65760065D01*
G37*
G36*
X118928000Y-66537000D02*
G01*
X116276000Y-66537000D01*
X116276000Y-65375000D01*
X118928000Y-65375000D01*
X118928000Y-66537000D01*
X118928000Y-66537000D01*
G37*
G36*
X118911468Y-61991565D02*
G01*
X118950138Y-62003296D01*
X118985777Y-62022346D01*
X119017017Y-62047983D01*
X119042654Y-62079223D01*
X119061704Y-62114862D01*
X119073435Y-62153532D01*
X119078000Y-62199888D01*
X119078000Y-63276112D01*
X119073435Y-63322468D01*
X119061704Y-63361138D01*
X119042654Y-63396777D01*
X119017017Y-63428017D01*
X118985777Y-63453654D01*
X118950138Y-63472704D01*
X118911468Y-63484435D01*
X118865112Y-63489000D01*
X118213888Y-63489000D01*
X118167532Y-63484435D01*
X118128862Y-63472704D01*
X118093223Y-63453654D01*
X118061983Y-63428017D01*
X118036346Y-63396777D01*
X118017296Y-63361138D01*
X118005565Y-63322468D01*
X118001000Y-63276112D01*
X118001000Y-62199888D01*
X118005565Y-62153532D01*
X118017296Y-62114862D01*
X118036346Y-62079223D01*
X118061983Y-62047983D01*
X118093223Y-62022346D01*
X118128862Y-62003296D01*
X118167532Y-61991565D01*
X118213888Y-61987000D01*
X118865112Y-61987000D01*
X118911468Y-61991565D01*
X118911468Y-61991565D01*
G37*
G36*
X117036468Y-61991565D02*
G01*
X117075138Y-62003296D01*
X117110777Y-62022346D01*
X117142017Y-62047983D01*
X117167654Y-62079223D01*
X117186704Y-62114862D01*
X117198435Y-62153532D01*
X117203000Y-62199888D01*
X117203000Y-63276112D01*
X117198435Y-63322468D01*
X117186704Y-63361138D01*
X117167654Y-63396777D01*
X117142017Y-63428017D01*
X117110777Y-63453654D01*
X117075138Y-63472704D01*
X117036468Y-63484435D01*
X116990112Y-63489000D01*
X116338888Y-63489000D01*
X116292532Y-63484435D01*
X116253862Y-63472704D01*
X116218223Y-63453654D01*
X116186983Y-63428017D01*
X116161346Y-63396777D01*
X116142296Y-63361138D01*
X116130565Y-63322468D01*
X116126000Y-63276112D01*
X116126000Y-62199888D01*
X116130565Y-62153532D01*
X116142296Y-62114862D01*
X116161346Y-62079223D01*
X116186983Y-62047983D01*
X116218223Y-62022346D01*
X116253862Y-62003296D01*
X116292532Y-61991565D01*
X116338888Y-61987000D01*
X116990112Y-61987000D01*
X117036468Y-61991565D01*
X117036468Y-61991565D01*
G37*
G36*
X125361000Y-63131000D02*
G01*
X123559000Y-63131000D01*
X123559000Y-61329000D01*
X125361000Y-61329000D01*
X125361000Y-63131000D01*
X125361000Y-63131000D01*
G37*
G36*
X127110443Y-61335519D02*
G01*
X127176627Y-61342037D01*
X127346466Y-61393557D01*
X127502991Y-61477222D01*
X127538729Y-61506552D01*
X127640186Y-61589814D01*
X127723448Y-61691271D01*
X127752778Y-61727009D01*
X127836443Y-61883534D01*
X127887963Y-62053373D01*
X127905359Y-62230000D01*
X127887963Y-62406627D01*
X127836443Y-62576466D01*
X127752778Y-62732991D01*
X127723448Y-62768729D01*
X127640186Y-62870186D01*
X127538729Y-62953448D01*
X127502991Y-62982778D01*
X127346466Y-63066443D01*
X127176627Y-63117963D01*
X127110443Y-63124481D01*
X127044260Y-63131000D01*
X126955740Y-63131000D01*
X126889557Y-63124481D01*
X126823373Y-63117963D01*
X126653534Y-63066443D01*
X126497009Y-62982778D01*
X126461271Y-62953448D01*
X126359814Y-62870186D01*
X126276552Y-62768729D01*
X126247222Y-62732991D01*
X126163557Y-62576466D01*
X126112037Y-62406627D01*
X126094641Y-62230000D01*
X126112037Y-62053373D01*
X126163557Y-61883534D01*
X126247222Y-61727009D01*
X126276552Y-61691271D01*
X126359814Y-61589814D01*
X126461271Y-61506552D01*
X126497009Y-61477222D01*
X126653534Y-61393557D01*
X126823373Y-61342037D01*
X126889557Y-61335519D01*
X126955740Y-61329000D01*
X127044260Y-61329000D01*
X127110443Y-61335519D01*
X127110443Y-61335519D01*
G37*
M02*
