G04 #@! TF.GenerationSoftware,KiCad,Pcbnew,(5.1.4)-1*
G04 #@! TF.CreationDate,2019-09-17T16:36:48-04:00*
G04 #@! TF.ProjectId,amplifier,616d706c-6966-4696-9572-2e6b69636164,rev?*
G04 #@! TF.SameCoordinates,Original*
G04 #@! TF.FileFunction,Legend,Top*
G04 #@! TF.FilePolarity,Positive*
%FSLAX46Y46*%
G04 Gerber Fmt 4.6, Leading zero omitted, Abs format (unit mm)*
G04 Created by KiCad (PCBNEW (5.1.4)-1) date 2019-09-17 16:36:48*
%MOMM*%
%LPD*%
G04 APERTURE LIST*
%ADD10C,0.135000*%
%ADD11C,0.150000*%
%ADD12C,0.120000*%
%ADD13C,0.152400*%
G04 APERTURE END LIST*
D10*
X130610321Y-61554928D02*
X130567464Y-61597785D01*
X130438892Y-61640642D01*
X130353178Y-61640642D01*
X130224607Y-61597785D01*
X130138892Y-61512071D01*
X130096035Y-61426357D01*
X130053178Y-61254928D01*
X130053178Y-61126357D01*
X130096035Y-60954928D01*
X130138892Y-60869214D01*
X130224607Y-60783500D01*
X130353178Y-60740642D01*
X130438892Y-60740642D01*
X130567464Y-60783500D01*
X130610321Y-60826357D01*
X130996035Y-61169214D02*
X131296035Y-61169214D01*
X131424607Y-61640642D02*
X130996035Y-61640642D01*
X130996035Y-60740642D01*
X131424607Y-60740642D01*
X131810321Y-61640642D02*
X131810321Y-60740642D01*
X132324607Y-61640642D01*
X132324607Y-60740642D01*
X132624607Y-60740642D02*
X133138892Y-60740642D01*
X132881750Y-61640642D02*
X132881750Y-60740642D01*
X133953178Y-61640642D02*
X133653178Y-61212071D01*
X133438892Y-61640642D02*
X133438892Y-60740642D01*
X133781750Y-60740642D01*
X133867464Y-60783500D01*
X133910321Y-60826357D01*
X133953178Y-60912071D01*
X133953178Y-61040642D01*
X133910321Y-61126357D01*
X133867464Y-61169214D01*
X133781750Y-61212071D01*
X133438892Y-61212071D01*
X134338892Y-61169214D02*
X134638892Y-61169214D01*
X134767464Y-61640642D02*
X134338892Y-61640642D01*
X134338892Y-60740642D01*
X134767464Y-60740642D01*
X135067464Y-60740642D02*
X135667464Y-61640642D01*
X135667464Y-60740642D02*
X135067464Y-61640642D01*
X137210321Y-61554928D02*
X137167464Y-61597785D01*
X137038892Y-61640642D01*
X136953178Y-61640642D01*
X136824607Y-61597785D01*
X136738892Y-61512071D01*
X136696035Y-61426357D01*
X136653178Y-61254928D01*
X136653178Y-61126357D01*
X136696035Y-60954928D01*
X136738892Y-60869214D01*
X136824607Y-60783500D01*
X136953178Y-60740642D01*
X137038892Y-60740642D01*
X137167464Y-60783500D01*
X137210321Y-60826357D01*
X137553178Y-61383500D02*
X137981750Y-61383500D01*
X137467464Y-61640642D02*
X137767464Y-60740642D01*
X138067464Y-61640642D01*
X138238892Y-60740642D02*
X138538892Y-61640642D01*
X138838892Y-60740642D01*
X140253178Y-61640642D02*
X139824607Y-61640642D01*
X139824607Y-60740642D01*
X141067464Y-61554928D02*
X141024607Y-61597785D01*
X140896035Y-61640642D01*
X140810321Y-61640642D01*
X140681750Y-61597785D01*
X140596035Y-61512071D01*
X140553178Y-61426357D01*
X140510321Y-61254928D01*
X140510321Y-61126357D01*
X140553178Y-60954928D01*
X140596035Y-60869214D01*
X140681750Y-60783500D01*
X140810321Y-60740642D01*
X140896035Y-60740642D01*
X141024607Y-60783500D01*
X141067464Y-60826357D01*
X141453178Y-61640642D02*
X141453178Y-60740642D01*
X141967464Y-61640642D02*
X141581750Y-61126357D01*
X141967464Y-60740642D02*
X141453178Y-61254928D01*
X142996035Y-61383500D02*
X143424607Y-61383500D01*
X142910321Y-61640642D02*
X143210321Y-60740642D01*
X143510321Y-61640642D01*
X143810321Y-61640642D02*
X143810321Y-60740642D01*
X144110321Y-61383500D01*
X144410321Y-60740642D01*
X144410321Y-61640642D01*
X144838892Y-61640642D02*
X144838892Y-60740642D01*
X145181750Y-60740642D01*
X145267464Y-60783500D01*
X145310321Y-60826357D01*
X145353178Y-60912071D01*
X145353178Y-61040642D01*
X145310321Y-61126357D01*
X145267464Y-61169214D01*
X145181750Y-61212071D01*
X144838892Y-61212071D01*
X130610321Y-63125642D02*
X130310321Y-62697071D01*
X130096035Y-63125642D02*
X130096035Y-62225642D01*
X130438892Y-62225642D01*
X130524607Y-62268500D01*
X130567464Y-62311357D01*
X130610321Y-62397071D01*
X130610321Y-62525642D01*
X130567464Y-62611357D01*
X130524607Y-62654214D01*
X130438892Y-62697071D01*
X130096035Y-62697071D01*
X130996035Y-62654214D02*
X131296035Y-62654214D01*
X131424607Y-63125642D02*
X130996035Y-63125642D01*
X130996035Y-62225642D01*
X131424607Y-62225642D01*
X131681750Y-62225642D02*
X131981750Y-63125642D01*
X132281750Y-62225642D01*
X133738892Y-63125642D02*
X133224607Y-63125642D01*
X133481750Y-63125642D02*
X133481750Y-62225642D01*
X133396035Y-62354214D01*
X133310321Y-62439928D01*
X133224607Y-62482785D01*
X134124607Y-63039928D02*
X134167464Y-63082785D01*
X134124607Y-63125642D01*
X134081750Y-63082785D01*
X134124607Y-63039928D01*
X134124607Y-63125642D01*
X134724607Y-62225642D02*
X134810321Y-62225642D01*
X134896035Y-62268500D01*
X134938892Y-62311357D01*
X134981750Y-62397071D01*
X135024607Y-62568500D01*
X135024607Y-62782785D01*
X134981750Y-62954214D01*
X134938892Y-63039928D01*
X134896035Y-63082785D01*
X134810321Y-63125642D01*
X134724607Y-63125642D01*
X134638892Y-63082785D01*
X134596035Y-63039928D01*
X134553178Y-62954214D01*
X134510321Y-62782785D01*
X134510321Y-62568500D01*
X134553178Y-62397071D01*
X134596035Y-62311357D01*
X134638892Y-62268500D01*
X134724607Y-62225642D01*
D11*
X120142190Y-84288380D02*
X120475523Y-85288380D01*
X120808857Y-84288380D01*
X121285047Y-85288380D02*
X121189809Y-85240761D01*
X121142190Y-85193142D01*
X121094571Y-85097904D01*
X121094571Y-84812190D01*
X121142190Y-84716952D01*
X121189809Y-84669333D01*
X121285047Y-84621714D01*
X121427904Y-84621714D01*
X121523142Y-84669333D01*
X121570761Y-84716952D01*
X121618380Y-84812190D01*
X121618380Y-85097904D01*
X121570761Y-85193142D01*
X121523142Y-85240761D01*
X121427904Y-85288380D01*
X121285047Y-85288380D01*
X122475523Y-84621714D02*
X122475523Y-85288380D01*
X122046952Y-84621714D02*
X122046952Y-85145523D01*
X122094571Y-85240761D01*
X122189809Y-85288380D01*
X122332666Y-85288380D01*
X122427904Y-85240761D01*
X122475523Y-85193142D01*
X122808857Y-84621714D02*
X123189809Y-84621714D01*
X122951714Y-84288380D02*
X122951714Y-85145523D01*
X122999333Y-85240761D01*
X123094571Y-85288380D01*
X123189809Y-85288380D01*
X141978190Y-85304380D02*
X142311523Y-86304380D01*
X142644857Y-85304380D01*
X142978190Y-86304380D02*
X142978190Y-85637714D01*
X142978190Y-85304380D02*
X142930571Y-85352000D01*
X142978190Y-85399619D01*
X143025809Y-85352000D01*
X142978190Y-85304380D01*
X142978190Y-85399619D01*
X143454380Y-85637714D02*
X143454380Y-86304380D01*
X143454380Y-85732952D02*
X143502000Y-85685333D01*
X143597238Y-85637714D01*
X143740095Y-85637714D01*
X143835333Y-85685333D01*
X143882952Y-85780571D01*
X143882952Y-86304380D01*
X123458571Y-65177142D02*
X122944285Y-65177142D01*
X123201428Y-65177142D02*
X123201428Y-64277142D01*
X123115714Y-64405714D01*
X123030000Y-64491428D01*
X122944285Y-64534285D01*
X123801428Y-64362857D02*
X123844285Y-64320000D01*
X123930000Y-64277142D01*
X124144285Y-64277142D01*
X124230000Y-64320000D01*
X124272857Y-64362857D01*
X124315714Y-64448571D01*
X124315714Y-64534285D01*
X124272857Y-64662857D01*
X123758571Y-65177142D01*
X124315714Y-65177142D01*
X124572857Y-64277142D02*
X124872857Y-65177142D01*
X125172857Y-64277142D01*
X126630000Y-64320000D02*
X126544285Y-64277142D01*
X126415714Y-64277142D01*
X126287142Y-64320000D01*
X126201428Y-64405714D01*
X126158571Y-64491428D01*
X126115714Y-64662857D01*
X126115714Y-64791428D01*
X126158571Y-64962857D01*
X126201428Y-65048571D01*
X126287142Y-65134285D01*
X126415714Y-65177142D01*
X126501428Y-65177142D01*
X126630000Y-65134285D01*
X126672857Y-65091428D01*
X126672857Y-64791428D01*
X126501428Y-64791428D01*
X127058571Y-65177142D02*
X127058571Y-64277142D01*
X127572857Y-65177142D01*
X127572857Y-64277142D01*
X128001428Y-65177142D02*
X128001428Y-64277142D01*
X128215714Y-64277142D01*
X128344285Y-64320000D01*
X128430000Y-64405714D01*
X128472857Y-64491428D01*
X128515714Y-64662857D01*
X128515714Y-64791428D01*
X128472857Y-64962857D01*
X128430000Y-65048571D01*
X128344285Y-65134285D01*
X128215714Y-65177142D01*
X128001428Y-65177142D01*
D12*
X119212000Y-67956000D02*
X119212000Y-65506000D01*
X115992000Y-66156000D02*
X115992000Y-67956000D01*
D13*
X132435600Y-68529200D02*
X132435600Y-66598800D01*
X130469640Y-68529200D02*
X131150360Y-68529200D01*
X129184400Y-66598800D02*
X129184400Y-68529200D01*
D12*
X134282922Y-73608000D02*
X134800078Y-73608000D01*
X134282922Y-72188000D02*
X134800078Y-72188000D01*
X130814578Y-72188000D02*
X130297422Y-72188000D01*
X130814578Y-73608000D02*
X130297422Y-73608000D01*
X135076000Y-78236578D02*
X135076000Y-77719422D01*
X133656000Y-78236578D02*
X133656000Y-77719422D01*
X137409422Y-79704000D02*
X137926578Y-79704000D01*
X137409422Y-78284000D02*
X137926578Y-78284000D01*
X117708000Y-74581936D02*
X117708000Y-75786064D01*
X119528000Y-74581936D02*
X119528000Y-75786064D01*
X123130000Y-63560000D02*
X123130000Y-62230000D01*
X124460000Y-63560000D02*
X123130000Y-63560000D01*
X125730000Y-63560000D02*
X125730000Y-60900000D01*
X125730000Y-60900000D02*
X128330000Y-60900000D01*
X125730000Y-63560000D02*
X128330000Y-63560000D01*
X128330000Y-63560000D02*
X128330000Y-60900000D01*
X129540000Y-81626000D02*
X129790000Y-81126000D01*
X129790000Y-81126000D02*
X129290000Y-81126000D01*
X129290000Y-81126000D02*
X129540000Y-81626000D01*
X139792000Y-78994000D02*
X139292000Y-78744000D01*
X139292000Y-78744000D02*
X139292000Y-79244000D01*
X139292000Y-79244000D02*
X139792000Y-78994000D01*
X117782078Y-78792000D02*
X117264922Y-78792000D01*
X117782078Y-80212000D02*
X117264922Y-80212000D01*
X115828578Y-75998000D02*
X115311422Y-75998000D01*
X115828578Y-77418000D02*
X115311422Y-77418000D01*
X115750078Y-72950000D02*
X115232922Y-72950000D01*
X115750078Y-74370000D02*
X115232922Y-74370000D01*
X119296922Y-71068000D02*
X119814078Y-71068000D01*
X119296922Y-69648000D02*
X119814078Y-69648000D01*
X115828578Y-69648000D02*
X115311422Y-69648000D01*
X115828578Y-71068000D02*
X115311422Y-71068000D01*
X117860578Y-62028000D02*
X117343422Y-62028000D01*
X117860578Y-63448000D02*
X117343422Y-63448000D01*
X126544000Y-66972922D02*
X126544000Y-67490078D01*
X127964000Y-66972922D02*
X127964000Y-67490078D01*
X133656000Y-67734922D02*
X133656000Y-68252078D01*
X135076000Y-67734922D02*
X135076000Y-68252078D01*
D13*
X128979000Y-76797000D02*
X128979000Y-78651000D01*
X132133000Y-78651000D02*
X132133000Y-76797000D01*
D11*
X119740095Y-66508380D02*
X119740095Y-67317904D01*
X119787714Y-67413142D01*
X119835333Y-67460761D01*
X119930571Y-67508380D01*
X120121047Y-67508380D01*
X120216285Y-67460761D01*
X120263904Y-67413142D01*
X120311523Y-67317904D01*
X120311523Y-66508380D01*
X120692476Y-66508380D02*
X121311523Y-66508380D01*
X120978190Y-66889333D01*
X121121047Y-66889333D01*
X121216285Y-66936952D01*
X121263904Y-66984571D01*
X121311523Y-67079809D01*
X121311523Y-67317904D01*
X121263904Y-67413142D01*
X121216285Y-67460761D01*
X121121047Y-67508380D01*
X120835333Y-67508380D01*
X120740095Y-67460761D01*
X120692476Y-67413142D01*
X130048095Y-63968380D02*
X130048095Y-64777904D01*
X130095714Y-64873142D01*
X130143333Y-64920761D01*
X130238571Y-64968380D01*
X130429047Y-64968380D01*
X130524285Y-64920761D01*
X130571904Y-64873142D01*
X130619523Y-64777904D01*
X130619523Y-63968380D01*
X131048095Y-64063619D02*
X131095714Y-64016000D01*
X131190952Y-63968380D01*
X131429047Y-63968380D01*
X131524285Y-64016000D01*
X131571904Y-64063619D01*
X131619523Y-64158857D01*
X131619523Y-64254095D01*
X131571904Y-64396952D01*
X131000476Y-64968380D01*
X131619523Y-64968380D01*
X132510280Y-66090800D02*
X132748376Y-66090800D01*
X132653138Y-66328895D02*
X132748376Y-66090800D01*
X132653138Y-65852704D01*
X132938852Y-66233657D02*
X132748376Y-66090800D01*
X132938852Y-65947942D01*
X133922452Y-71700380D02*
X133589119Y-71224190D01*
X133351023Y-71700380D02*
X133351023Y-70700380D01*
X133731976Y-70700380D01*
X133827214Y-70748000D01*
X133874833Y-70795619D01*
X133922452Y-70890857D01*
X133922452Y-71033714D01*
X133874833Y-71128952D01*
X133827214Y-71176571D01*
X133731976Y-71224190D01*
X133351023Y-71224190D01*
X134779595Y-71033714D02*
X134779595Y-71843238D01*
X134731976Y-71938476D01*
X134684357Y-71986095D01*
X134589119Y-72033714D01*
X134446261Y-72033714D01*
X134351023Y-71986095D01*
X134779595Y-71652761D02*
X134684357Y-71700380D01*
X134493880Y-71700380D01*
X134398642Y-71652761D01*
X134351023Y-71605142D01*
X134303404Y-71509904D01*
X134303404Y-71224190D01*
X134351023Y-71128952D01*
X134398642Y-71081333D01*
X134493880Y-71033714D01*
X134684357Y-71033714D01*
X134779595Y-71081333D01*
X135779595Y-71700380D02*
X135208166Y-71700380D01*
X135493880Y-71700380D02*
X135493880Y-70700380D01*
X135398642Y-70843238D01*
X135303404Y-70938476D01*
X135208166Y-70986095D01*
X130103619Y-71826380D02*
X129770285Y-71350190D01*
X129532190Y-71826380D02*
X129532190Y-70826380D01*
X129913142Y-70826380D01*
X130008380Y-70874000D01*
X130056000Y-70921619D01*
X130103619Y-71016857D01*
X130103619Y-71159714D01*
X130056000Y-71254952D01*
X130008380Y-71302571D01*
X129913142Y-71350190D01*
X129532190Y-71350190D01*
X130389333Y-71159714D02*
X130770285Y-71159714D01*
X130532190Y-71826380D02*
X130532190Y-70969238D01*
X130579809Y-70874000D01*
X130675047Y-70826380D01*
X130770285Y-70826380D01*
X131627428Y-71826380D02*
X131056000Y-71826380D01*
X131341714Y-71826380D02*
X131341714Y-70826380D01*
X131246476Y-70969238D01*
X131151238Y-71064476D01*
X131056000Y-71112095D01*
X134199333Y-80970380D02*
X133866000Y-80494190D01*
X133627904Y-80970380D02*
X133627904Y-79970380D01*
X134008857Y-79970380D01*
X134104095Y-80018000D01*
X134151714Y-80065619D01*
X134199333Y-80160857D01*
X134199333Y-80303714D01*
X134151714Y-80398952D01*
X134104095Y-80446571D01*
X134008857Y-80494190D01*
X133627904Y-80494190D01*
X134580285Y-80065619D02*
X134627904Y-80018000D01*
X134723142Y-79970380D01*
X134961238Y-79970380D01*
X135056476Y-80018000D01*
X135104095Y-80065619D01*
X135151714Y-80160857D01*
X135151714Y-80256095D01*
X135104095Y-80398952D01*
X134532666Y-80970380D01*
X135151714Y-80970380D01*
X137501333Y-77796380D02*
X137168000Y-77320190D01*
X136929904Y-77796380D02*
X136929904Y-76796380D01*
X137310857Y-76796380D01*
X137406095Y-76844000D01*
X137453714Y-76891619D01*
X137501333Y-76986857D01*
X137501333Y-77129714D01*
X137453714Y-77224952D01*
X137406095Y-77272571D01*
X137310857Y-77320190D01*
X136929904Y-77320190D01*
X138453714Y-77796380D02*
X137882285Y-77796380D01*
X138168000Y-77796380D02*
X138168000Y-76796380D01*
X138072761Y-76939238D01*
X137977523Y-77034476D01*
X137882285Y-77082095D01*
X120483333Y-75636380D02*
X120007142Y-75636380D01*
X120007142Y-74636380D01*
X121340476Y-75636380D02*
X120769047Y-75636380D01*
X121054761Y-75636380D02*
X121054761Y-74636380D01*
X120959523Y-74779238D01*
X120864285Y-74874476D01*
X120769047Y-74922095D01*
X121332666Y-61682380D02*
X121332666Y-62396666D01*
X121285047Y-62539523D01*
X121189809Y-62634761D01*
X121046952Y-62682380D01*
X120951714Y-62682380D01*
X122237428Y-62015714D02*
X122237428Y-62682380D01*
X121999333Y-61634761D02*
X121761238Y-62349047D01*
X122380285Y-62349047D01*
X135810666Y-84288380D02*
X135810666Y-85002666D01*
X135763047Y-85145523D01*
X135667809Y-85240761D01*
X135524952Y-85288380D01*
X135429714Y-85288380D01*
X136239238Y-84383619D02*
X136286857Y-84336000D01*
X136382095Y-84288380D01*
X136620190Y-84288380D01*
X136715428Y-84336000D01*
X136763047Y-84383619D01*
X136810666Y-84478857D01*
X136810666Y-84574095D01*
X136763047Y-84716952D01*
X136191619Y-85288380D01*
X136810666Y-85288380D01*
X142668666Y-71842380D02*
X142668666Y-72556666D01*
X142621047Y-72699523D01*
X142525809Y-72794761D01*
X142382952Y-72842380D01*
X142287714Y-72842380D01*
X143668666Y-72842380D02*
X143097238Y-72842380D01*
X143382952Y-72842380D02*
X143382952Y-71842380D01*
X143287714Y-71985238D01*
X143192476Y-72080476D01*
X143097238Y-72128095D01*
X120229333Y-80113142D02*
X120181714Y-80160761D01*
X120038857Y-80208380D01*
X119943619Y-80208380D01*
X119800761Y-80160761D01*
X119705523Y-80065523D01*
X119657904Y-79970285D01*
X119610285Y-79779809D01*
X119610285Y-79636952D01*
X119657904Y-79446476D01*
X119705523Y-79351238D01*
X119800761Y-79256000D01*
X119943619Y-79208380D01*
X120038857Y-79208380D01*
X120181714Y-79256000D01*
X120229333Y-79303619D01*
X120800761Y-79636952D02*
X120705523Y-79589333D01*
X120657904Y-79541714D01*
X120610285Y-79446476D01*
X120610285Y-79398857D01*
X120657904Y-79303619D01*
X120705523Y-79256000D01*
X120800761Y-79208380D01*
X120991238Y-79208380D01*
X121086476Y-79256000D01*
X121134095Y-79303619D01*
X121181714Y-79398857D01*
X121181714Y-79446476D01*
X121134095Y-79541714D01*
X121086476Y-79589333D01*
X120991238Y-79636952D01*
X120800761Y-79636952D01*
X120705523Y-79684571D01*
X120657904Y-79732190D01*
X120610285Y-79827428D01*
X120610285Y-80017904D01*
X120657904Y-80113142D01*
X120705523Y-80160761D01*
X120800761Y-80208380D01*
X120991238Y-80208380D01*
X121086476Y-80160761D01*
X121134095Y-80113142D01*
X121181714Y-80017904D01*
X121181714Y-79827428D01*
X121134095Y-79732190D01*
X121086476Y-79684571D01*
X120991238Y-79636952D01*
X114133333Y-78843142D02*
X114085714Y-78890761D01*
X113942857Y-78938380D01*
X113847619Y-78938380D01*
X113704761Y-78890761D01*
X113609523Y-78795523D01*
X113561904Y-78700285D01*
X113514285Y-78509809D01*
X113514285Y-78366952D01*
X113561904Y-78176476D01*
X113609523Y-78081238D01*
X113704761Y-77986000D01*
X113847619Y-77938380D01*
X113942857Y-77938380D01*
X114085714Y-77986000D01*
X114133333Y-78033619D01*
X114466666Y-77938380D02*
X115133333Y-77938380D01*
X114704761Y-78938380D01*
X115324833Y-75667142D02*
X115277214Y-75714761D01*
X115134357Y-75762380D01*
X115039119Y-75762380D01*
X114896261Y-75714761D01*
X114801023Y-75619523D01*
X114753404Y-75524285D01*
X114705785Y-75333809D01*
X114705785Y-75190952D01*
X114753404Y-75000476D01*
X114801023Y-74905238D01*
X114896261Y-74810000D01*
X115039119Y-74762380D01*
X115134357Y-74762380D01*
X115277214Y-74810000D01*
X115324833Y-74857619D01*
X116181976Y-74762380D02*
X115991500Y-74762380D01*
X115896261Y-74810000D01*
X115848642Y-74857619D01*
X115753404Y-75000476D01*
X115705785Y-75190952D01*
X115705785Y-75571904D01*
X115753404Y-75667142D01*
X115801023Y-75714761D01*
X115896261Y-75762380D01*
X116086738Y-75762380D01*
X116181976Y-75714761D01*
X116229595Y-75667142D01*
X116277214Y-75571904D01*
X116277214Y-75333809D01*
X116229595Y-75238571D01*
X116181976Y-75190952D01*
X116086738Y-75143333D01*
X115896261Y-75143333D01*
X115801023Y-75190952D01*
X115753404Y-75238571D01*
X115705785Y-75333809D01*
X119388833Y-72493142D02*
X119341214Y-72540761D01*
X119198357Y-72588380D01*
X119103119Y-72588380D01*
X118960261Y-72540761D01*
X118865023Y-72445523D01*
X118817404Y-72350285D01*
X118769785Y-72159809D01*
X118769785Y-72016952D01*
X118817404Y-71826476D01*
X118865023Y-71731238D01*
X118960261Y-71636000D01*
X119103119Y-71588380D01*
X119198357Y-71588380D01*
X119341214Y-71636000D01*
X119388833Y-71683619D01*
X120293595Y-71588380D02*
X119817404Y-71588380D01*
X119769785Y-72064571D01*
X119817404Y-72016952D01*
X119912642Y-71969333D01*
X120150738Y-71969333D01*
X120245976Y-72016952D01*
X120293595Y-72064571D01*
X120341214Y-72159809D01*
X120341214Y-72397904D01*
X120293595Y-72493142D01*
X120245976Y-72540761D01*
X120150738Y-72588380D01*
X119912642Y-72588380D01*
X119817404Y-72540761D01*
X119769785Y-72493142D01*
X115403333Y-72365142D02*
X115355714Y-72412761D01*
X115212857Y-72460380D01*
X115117619Y-72460380D01*
X114974761Y-72412761D01*
X114879523Y-72317523D01*
X114831904Y-72222285D01*
X114784285Y-72031809D01*
X114784285Y-71888952D01*
X114831904Y-71698476D01*
X114879523Y-71603238D01*
X114974761Y-71508000D01*
X115117619Y-71460380D01*
X115212857Y-71460380D01*
X115355714Y-71508000D01*
X115403333Y-71555619D01*
X116260476Y-71793714D02*
X116260476Y-72460380D01*
X116022380Y-71412761D02*
X115784285Y-72127047D01*
X116403333Y-72127047D01*
X117435333Y-64745142D02*
X117387714Y-64792761D01*
X117244857Y-64840380D01*
X117149619Y-64840380D01*
X117006761Y-64792761D01*
X116911523Y-64697523D01*
X116863904Y-64602285D01*
X116816285Y-64411809D01*
X116816285Y-64268952D01*
X116863904Y-64078476D01*
X116911523Y-63983238D01*
X117006761Y-63888000D01*
X117149619Y-63840380D01*
X117244857Y-63840380D01*
X117387714Y-63888000D01*
X117435333Y-63935619D01*
X117768666Y-63840380D02*
X118387714Y-63840380D01*
X118054380Y-64221333D01*
X118197238Y-64221333D01*
X118292476Y-64268952D01*
X118340095Y-64316571D01*
X118387714Y-64411809D01*
X118387714Y-64649904D01*
X118340095Y-64745142D01*
X118292476Y-64792761D01*
X118197238Y-64840380D01*
X117911523Y-64840380D01*
X117816285Y-64792761D01*
X117768666Y-64745142D01*
X125055333Y-67667142D02*
X125007714Y-67714761D01*
X124864857Y-67762380D01*
X124769619Y-67762380D01*
X124626761Y-67714761D01*
X124531523Y-67619523D01*
X124483904Y-67524285D01*
X124436285Y-67333809D01*
X124436285Y-67190952D01*
X124483904Y-67000476D01*
X124531523Y-66905238D01*
X124626761Y-66810000D01*
X124769619Y-66762380D01*
X124864857Y-66762380D01*
X125007714Y-66810000D01*
X125055333Y-66857619D01*
X125436285Y-66857619D02*
X125483904Y-66810000D01*
X125579142Y-66762380D01*
X125817238Y-66762380D01*
X125912476Y-66810000D01*
X125960095Y-66857619D01*
X126007714Y-66952857D01*
X126007714Y-67048095D01*
X125960095Y-67190952D01*
X125388666Y-67762380D01*
X126007714Y-67762380D01*
X136231333Y-68429142D02*
X136183714Y-68476761D01*
X136040857Y-68524380D01*
X135945619Y-68524380D01*
X135802761Y-68476761D01*
X135707523Y-68381523D01*
X135659904Y-68286285D01*
X135612285Y-68095809D01*
X135612285Y-67952952D01*
X135659904Y-67762476D01*
X135707523Y-67667238D01*
X135802761Y-67572000D01*
X135945619Y-67524380D01*
X136040857Y-67524380D01*
X136183714Y-67572000D01*
X136231333Y-67619619D01*
X137183714Y-68524380D02*
X136612285Y-68524380D01*
X136898000Y-68524380D02*
X136898000Y-67524380D01*
X136802761Y-67667238D01*
X136707523Y-67762476D01*
X136612285Y-67810095D01*
X126746095Y-77176380D02*
X126746095Y-77985904D01*
X126793714Y-78081142D01*
X126841333Y-78128761D01*
X126936571Y-78176380D01*
X127127047Y-78176380D01*
X127222285Y-78128761D01*
X127269904Y-78081142D01*
X127317523Y-77985904D01*
X127317523Y-77176380D01*
X128317523Y-78176380D02*
X127746095Y-78176380D01*
X128031809Y-78176380D02*
X128031809Y-77176380D01*
X127936571Y-77319238D01*
X127841333Y-77414476D01*
X127746095Y-77462095D01*
M02*
