G04 #@! TF.GenerationSoftware,KiCad,Pcbnew,(5.1.4)-1*
G04 #@! TF.CreationDate,2019-09-17T16:36:48-04:00*
G04 #@! TF.ProjectId,amplifier,616d706c-6966-4696-9572-2e6b69636164,rev?*
G04 #@! TF.SameCoordinates,Original*
G04 #@! TF.FileFunction,Soldermask,Bot*
G04 #@! TF.FilePolarity,Negative*
%FSLAX46Y46*%
G04 Gerber Fmt 4.6, Leading zero omitted, Abs format (unit mm)*
G04 Created by KiCad (PCBNEW (5.1.4)-1) date 2019-09-17 16:36:48*
%MOMM*%
%LPD*%
G04 APERTURE LIST*
%ADD10C,0.100000*%
G04 APERTURE END LIST*
D10*
G36*
X134591000Y-87427000D02*
G01*
X132989000Y-87427000D01*
X132989000Y-82245000D01*
X134591000Y-82245000D01*
X134591000Y-87427000D01*
X134591000Y-87427000D01*
G37*
G36*
X126091000Y-87427000D02*
G01*
X124489000Y-87427000D01*
X124489000Y-82245000D01*
X126091000Y-82245000D01*
X126091000Y-87427000D01*
X126091000Y-87427000D01*
G37*
G36*
X145593000Y-84045000D02*
G01*
X140411000Y-84045000D01*
X140411000Y-82443000D01*
X145593000Y-82443000D01*
X145593000Y-84045000D01*
X145593000Y-84045000D01*
G37*
G36*
X145593000Y-75545000D02*
G01*
X140411000Y-75545000D01*
X140411000Y-73943000D01*
X145593000Y-73943000D01*
X145593000Y-75545000D01*
X145593000Y-75545000D01*
G37*
G36*
X127110443Y-61335519D02*
G01*
X127176627Y-61342037D01*
X127346466Y-61393557D01*
X127502991Y-61477222D01*
X127538729Y-61506552D01*
X127640186Y-61589814D01*
X127723448Y-61691271D01*
X127752778Y-61727009D01*
X127836443Y-61883534D01*
X127887963Y-62053373D01*
X127905359Y-62230000D01*
X127887963Y-62406627D01*
X127836443Y-62576466D01*
X127752778Y-62732991D01*
X127723448Y-62768729D01*
X127640186Y-62870186D01*
X127538729Y-62953448D01*
X127502991Y-62982778D01*
X127346466Y-63066443D01*
X127176627Y-63117963D01*
X127110443Y-63124481D01*
X127044260Y-63131000D01*
X126955740Y-63131000D01*
X126889557Y-63124481D01*
X126823373Y-63117963D01*
X126653534Y-63066443D01*
X126497009Y-62982778D01*
X126461271Y-62953448D01*
X126359814Y-62870186D01*
X126276552Y-62768729D01*
X126247222Y-62732991D01*
X126163557Y-62576466D01*
X126112037Y-62406627D01*
X126094641Y-62230000D01*
X126112037Y-62053373D01*
X126163557Y-61883534D01*
X126247222Y-61727009D01*
X126276552Y-61691271D01*
X126359814Y-61589814D01*
X126461271Y-61506552D01*
X126497009Y-61477222D01*
X126653534Y-61393557D01*
X126823373Y-61342037D01*
X126889557Y-61335519D01*
X126955740Y-61329000D01*
X127044260Y-61329000D01*
X127110443Y-61335519D01*
X127110443Y-61335519D01*
G37*
G36*
X125361000Y-63131000D02*
G01*
X123559000Y-63131000D01*
X123559000Y-61329000D01*
X125361000Y-61329000D01*
X125361000Y-63131000D01*
X125361000Y-63131000D01*
G37*
M02*
