G04 #@! TF.GenerationSoftware,KiCad,Pcbnew,(5.1.4)-1*
G04 #@! TF.CreationDate,2019-08-27T15:23:33-04:00*
G04 #@! TF.ProjectId,clock_buffer,636c6f63-6b5f-4627-9566-6665722e6b69,rev?*
G04 #@! TF.SameCoordinates,Original*
G04 #@! TF.FileFunction,Paste,Top*
G04 #@! TF.FilePolarity,Positive*
%FSLAX46Y46*%
G04 Gerber Fmt 4.6, Leading zero omitted, Abs format (unit mm)*
G04 Created by KiCad (PCBNEW (5.1.4)-1) date 2019-08-27 15:23:33*
%MOMM*%
%LPD*%
G04 APERTURE LIST*
%ADD10C,0.100000*%
%ADD11C,0.875000*%
%ADD12C,0.975000*%
%ADD13R,0.410000X1.570000*%
%ADD14C,1.250000*%
G04 APERTURE END LIST*
D10*
G36*
X148477691Y-100738553D02*
G01*
X148498926Y-100741703D01*
X148519750Y-100746919D01*
X148539962Y-100754151D01*
X148559368Y-100763330D01*
X148577781Y-100774366D01*
X148595024Y-100787154D01*
X148610930Y-100801570D01*
X148625346Y-100817476D01*
X148638134Y-100834719D01*
X148649170Y-100853132D01*
X148658349Y-100872538D01*
X148665581Y-100892750D01*
X148670797Y-100913574D01*
X148673947Y-100934809D01*
X148675000Y-100956250D01*
X148675000Y-101393750D01*
X148673947Y-101415191D01*
X148670797Y-101436426D01*
X148665581Y-101457250D01*
X148658349Y-101477462D01*
X148649170Y-101496868D01*
X148638134Y-101515281D01*
X148625346Y-101532524D01*
X148610930Y-101548430D01*
X148595024Y-101562846D01*
X148577781Y-101575634D01*
X148559368Y-101586670D01*
X148539962Y-101595849D01*
X148519750Y-101603081D01*
X148498926Y-101608297D01*
X148477691Y-101611447D01*
X148456250Y-101612500D01*
X147943750Y-101612500D01*
X147922309Y-101611447D01*
X147901074Y-101608297D01*
X147880250Y-101603081D01*
X147860038Y-101595849D01*
X147840632Y-101586670D01*
X147822219Y-101575634D01*
X147804976Y-101562846D01*
X147789070Y-101548430D01*
X147774654Y-101532524D01*
X147761866Y-101515281D01*
X147750830Y-101496868D01*
X147741651Y-101477462D01*
X147734419Y-101457250D01*
X147729203Y-101436426D01*
X147726053Y-101415191D01*
X147725000Y-101393750D01*
X147725000Y-100956250D01*
X147726053Y-100934809D01*
X147729203Y-100913574D01*
X147734419Y-100892750D01*
X147741651Y-100872538D01*
X147750830Y-100853132D01*
X147761866Y-100834719D01*
X147774654Y-100817476D01*
X147789070Y-100801570D01*
X147804976Y-100787154D01*
X147822219Y-100774366D01*
X147840632Y-100763330D01*
X147860038Y-100754151D01*
X147880250Y-100746919D01*
X147901074Y-100741703D01*
X147922309Y-100738553D01*
X147943750Y-100737500D01*
X148456250Y-100737500D01*
X148477691Y-100738553D01*
X148477691Y-100738553D01*
G37*
D11*
X148200000Y-101175000D03*
D10*
G36*
X148477691Y-99163553D02*
G01*
X148498926Y-99166703D01*
X148519750Y-99171919D01*
X148539962Y-99179151D01*
X148559368Y-99188330D01*
X148577781Y-99199366D01*
X148595024Y-99212154D01*
X148610930Y-99226570D01*
X148625346Y-99242476D01*
X148638134Y-99259719D01*
X148649170Y-99278132D01*
X148658349Y-99297538D01*
X148665581Y-99317750D01*
X148670797Y-99338574D01*
X148673947Y-99359809D01*
X148675000Y-99381250D01*
X148675000Y-99818750D01*
X148673947Y-99840191D01*
X148670797Y-99861426D01*
X148665581Y-99882250D01*
X148658349Y-99902462D01*
X148649170Y-99921868D01*
X148638134Y-99940281D01*
X148625346Y-99957524D01*
X148610930Y-99973430D01*
X148595024Y-99987846D01*
X148577781Y-100000634D01*
X148559368Y-100011670D01*
X148539962Y-100020849D01*
X148519750Y-100028081D01*
X148498926Y-100033297D01*
X148477691Y-100036447D01*
X148456250Y-100037500D01*
X147943750Y-100037500D01*
X147922309Y-100036447D01*
X147901074Y-100033297D01*
X147880250Y-100028081D01*
X147860038Y-100020849D01*
X147840632Y-100011670D01*
X147822219Y-100000634D01*
X147804976Y-99987846D01*
X147789070Y-99973430D01*
X147774654Y-99957524D01*
X147761866Y-99940281D01*
X147750830Y-99921868D01*
X147741651Y-99902462D01*
X147734419Y-99882250D01*
X147729203Y-99861426D01*
X147726053Y-99840191D01*
X147725000Y-99818750D01*
X147725000Y-99381250D01*
X147726053Y-99359809D01*
X147729203Y-99338574D01*
X147734419Y-99317750D01*
X147741651Y-99297538D01*
X147750830Y-99278132D01*
X147761866Y-99259719D01*
X147774654Y-99242476D01*
X147789070Y-99226570D01*
X147804976Y-99212154D01*
X147822219Y-99199366D01*
X147840632Y-99188330D01*
X147860038Y-99179151D01*
X147880250Y-99171919D01*
X147901074Y-99166703D01*
X147922309Y-99163553D01*
X147943750Y-99162500D01*
X148456250Y-99162500D01*
X148477691Y-99163553D01*
X148477691Y-99163553D01*
G37*
D11*
X148200000Y-99600000D03*
D10*
G36*
X148603642Y-110680174D02*
G01*
X148627303Y-110683684D01*
X148650507Y-110689496D01*
X148673029Y-110697554D01*
X148694653Y-110707782D01*
X148715170Y-110720079D01*
X148734383Y-110734329D01*
X148752107Y-110750393D01*
X148768171Y-110768117D01*
X148782421Y-110787330D01*
X148794718Y-110807847D01*
X148804946Y-110829471D01*
X148813004Y-110851993D01*
X148818816Y-110875197D01*
X148822326Y-110898858D01*
X148823500Y-110922750D01*
X148823500Y-111835250D01*
X148822326Y-111859142D01*
X148818816Y-111882803D01*
X148813004Y-111906007D01*
X148804946Y-111928529D01*
X148794718Y-111950153D01*
X148782421Y-111970670D01*
X148768171Y-111989883D01*
X148752107Y-112007607D01*
X148734383Y-112023671D01*
X148715170Y-112037921D01*
X148694653Y-112050218D01*
X148673029Y-112060446D01*
X148650507Y-112068504D01*
X148627303Y-112074316D01*
X148603642Y-112077826D01*
X148579750Y-112079000D01*
X148092250Y-112079000D01*
X148068358Y-112077826D01*
X148044697Y-112074316D01*
X148021493Y-112068504D01*
X147998971Y-112060446D01*
X147977347Y-112050218D01*
X147956830Y-112037921D01*
X147937617Y-112023671D01*
X147919893Y-112007607D01*
X147903829Y-111989883D01*
X147889579Y-111970670D01*
X147877282Y-111950153D01*
X147867054Y-111928529D01*
X147858996Y-111906007D01*
X147853184Y-111882803D01*
X147849674Y-111859142D01*
X147848500Y-111835250D01*
X147848500Y-110922750D01*
X147849674Y-110898858D01*
X147853184Y-110875197D01*
X147858996Y-110851993D01*
X147867054Y-110829471D01*
X147877282Y-110807847D01*
X147889579Y-110787330D01*
X147903829Y-110768117D01*
X147919893Y-110750393D01*
X147937617Y-110734329D01*
X147956830Y-110720079D01*
X147977347Y-110707782D01*
X147998971Y-110697554D01*
X148021493Y-110689496D01*
X148044697Y-110683684D01*
X148068358Y-110680174D01*
X148092250Y-110679000D01*
X148579750Y-110679000D01*
X148603642Y-110680174D01*
X148603642Y-110680174D01*
G37*
D12*
X148336000Y-111379000D03*
D10*
G36*
X150478642Y-110680174D02*
G01*
X150502303Y-110683684D01*
X150525507Y-110689496D01*
X150548029Y-110697554D01*
X150569653Y-110707782D01*
X150590170Y-110720079D01*
X150609383Y-110734329D01*
X150627107Y-110750393D01*
X150643171Y-110768117D01*
X150657421Y-110787330D01*
X150669718Y-110807847D01*
X150679946Y-110829471D01*
X150688004Y-110851993D01*
X150693816Y-110875197D01*
X150697326Y-110898858D01*
X150698500Y-110922750D01*
X150698500Y-111835250D01*
X150697326Y-111859142D01*
X150693816Y-111882803D01*
X150688004Y-111906007D01*
X150679946Y-111928529D01*
X150669718Y-111950153D01*
X150657421Y-111970670D01*
X150643171Y-111989883D01*
X150627107Y-112007607D01*
X150609383Y-112023671D01*
X150590170Y-112037921D01*
X150569653Y-112050218D01*
X150548029Y-112060446D01*
X150525507Y-112068504D01*
X150502303Y-112074316D01*
X150478642Y-112077826D01*
X150454750Y-112079000D01*
X149967250Y-112079000D01*
X149943358Y-112077826D01*
X149919697Y-112074316D01*
X149896493Y-112068504D01*
X149873971Y-112060446D01*
X149852347Y-112050218D01*
X149831830Y-112037921D01*
X149812617Y-112023671D01*
X149794893Y-112007607D01*
X149778829Y-111989883D01*
X149764579Y-111970670D01*
X149752282Y-111950153D01*
X149742054Y-111928529D01*
X149733996Y-111906007D01*
X149728184Y-111882803D01*
X149724674Y-111859142D01*
X149723500Y-111835250D01*
X149723500Y-110922750D01*
X149724674Y-110898858D01*
X149728184Y-110875197D01*
X149733996Y-110851993D01*
X149742054Y-110829471D01*
X149752282Y-110807847D01*
X149764579Y-110787330D01*
X149778829Y-110768117D01*
X149794893Y-110750393D01*
X149812617Y-110734329D01*
X149831830Y-110720079D01*
X149852347Y-110707782D01*
X149873971Y-110697554D01*
X149896493Y-110689496D01*
X149919697Y-110683684D01*
X149943358Y-110680174D01*
X149967250Y-110679000D01*
X150454750Y-110679000D01*
X150478642Y-110680174D01*
X150478642Y-110680174D01*
G37*
D12*
X150211000Y-111379000D03*
D10*
G36*
X148603642Y-112648674D02*
G01*
X148627303Y-112652184D01*
X148650507Y-112657996D01*
X148673029Y-112666054D01*
X148694653Y-112676282D01*
X148715170Y-112688579D01*
X148734383Y-112702829D01*
X148752107Y-112718893D01*
X148768171Y-112736617D01*
X148782421Y-112755830D01*
X148794718Y-112776347D01*
X148804946Y-112797971D01*
X148813004Y-112820493D01*
X148818816Y-112843697D01*
X148822326Y-112867358D01*
X148823500Y-112891250D01*
X148823500Y-113803750D01*
X148822326Y-113827642D01*
X148818816Y-113851303D01*
X148813004Y-113874507D01*
X148804946Y-113897029D01*
X148794718Y-113918653D01*
X148782421Y-113939170D01*
X148768171Y-113958383D01*
X148752107Y-113976107D01*
X148734383Y-113992171D01*
X148715170Y-114006421D01*
X148694653Y-114018718D01*
X148673029Y-114028946D01*
X148650507Y-114037004D01*
X148627303Y-114042816D01*
X148603642Y-114046326D01*
X148579750Y-114047500D01*
X148092250Y-114047500D01*
X148068358Y-114046326D01*
X148044697Y-114042816D01*
X148021493Y-114037004D01*
X147998971Y-114028946D01*
X147977347Y-114018718D01*
X147956830Y-114006421D01*
X147937617Y-113992171D01*
X147919893Y-113976107D01*
X147903829Y-113958383D01*
X147889579Y-113939170D01*
X147877282Y-113918653D01*
X147867054Y-113897029D01*
X147858996Y-113874507D01*
X147853184Y-113851303D01*
X147849674Y-113827642D01*
X147848500Y-113803750D01*
X147848500Y-112891250D01*
X147849674Y-112867358D01*
X147853184Y-112843697D01*
X147858996Y-112820493D01*
X147867054Y-112797971D01*
X147877282Y-112776347D01*
X147889579Y-112755830D01*
X147903829Y-112736617D01*
X147919893Y-112718893D01*
X147937617Y-112702829D01*
X147956830Y-112688579D01*
X147977347Y-112676282D01*
X147998971Y-112666054D01*
X148021493Y-112657996D01*
X148044697Y-112652184D01*
X148068358Y-112648674D01*
X148092250Y-112647500D01*
X148579750Y-112647500D01*
X148603642Y-112648674D01*
X148603642Y-112648674D01*
G37*
D12*
X148336000Y-113347500D03*
D10*
G36*
X150478642Y-112648674D02*
G01*
X150502303Y-112652184D01*
X150525507Y-112657996D01*
X150548029Y-112666054D01*
X150569653Y-112676282D01*
X150590170Y-112688579D01*
X150609383Y-112702829D01*
X150627107Y-112718893D01*
X150643171Y-112736617D01*
X150657421Y-112755830D01*
X150669718Y-112776347D01*
X150679946Y-112797971D01*
X150688004Y-112820493D01*
X150693816Y-112843697D01*
X150697326Y-112867358D01*
X150698500Y-112891250D01*
X150698500Y-113803750D01*
X150697326Y-113827642D01*
X150693816Y-113851303D01*
X150688004Y-113874507D01*
X150679946Y-113897029D01*
X150669718Y-113918653D01*
X150657421Y-113939170D01*
X150643171Y-113958383D01*
X150627107Y-113976107D01*
X150609383Y-113992171D01*
X150590170Y-114006421D01*
X150569653Y-114018718D01*
X150548029Y-114028946D01*
X150525507Y-114037004D01*
X150502303Y-114042816D01*
X150478642Y-114046326D01*
X150454750Y-114047500D01*
X149967250Y-114047500D01*
X149943358Y-114046326D01*
X149919697Y-114042816D01*
X149896493Y-114037004D01*
X149873971Y-114028946D01*
X149852347Y-114018718D01*
X149831830Y-114006421D01*
X149812617Y-113992171D01*
X149794893Y-113976107D01*
X149778829Y-113958383D01*
X149764579Y-113939170D01*
X149752282Y-113918653D01*
X149742054Y-113897029D01*
X149733996Y-113874507D01*
X149728184Y-113851303D01*
X149724674Y-113827642D01*
X149723500Y-113803750D01*
X149723500Y-112891250D01*
X149724674Y-112867358D01*
X149728184Y-112843697D01*
X149733996Y-112820493D01*
X149742054Y-112797971D01*
X149752282Y-112776347D01*
X149764579Y-112755830D01*
X149778829Y-112736617D01*
X149794893Y-112718893D01*
X149812617Y-112702829D01*
X149831830Y-112688579D01*
X149852347Y-112676282D01*
X149873971Y-112666054D01*
X149896493Y-112657996D01*
X149919697Y-112652184D01*
X149943358Y-112648674D01*
X149967250Y-112647500D01*
X150454750Y-112647500D01*
X150478642Y-112648674D01*
X150478642Y-112648674D01*
G37*
D12*
X150211000Y-113347500D03*
D10*
G36*
X156944142Y-101143674D02*
G01*
X156967803Y-101147184D01*
X156991007Y-101152996D01*
X157013529Y-101161054D01*
X157035153Y-101171282D01*
X157055670Y-101183579D01*
X157074883Y-101197829D01*
X157092607Y-101213893D01*
X157108671Y-101231617D01*
X157122921Y-101250830D01*
X157135218Y-101271347D01*
X157145446Y-101292971D01*
X157153504Y-101315493D01*
X157159316Y-101338697D01*
X157162826Y-101362358D01*
X157164000Y-101386250D01*
X157164000Y-101873750D01*
X157162826Y-101897642D01*
X157159316Y-101921303D01*
X157153504Y-101944507D01*
X157145446Y-101967029D01*
X157135218Y-101988653D01*
X157122921Y-102009170D01*
X157108671Y-102028383D01*
X157092607Y-102046107D01*
X157074883Y-102062171D01*
X157055670Y-102076421D01*
X157035153Y-102088718D01*
X157013529Y-102098946D01*
X156991007Y-102107004D01*
X156967803Y-102112816D01*
X156944142Y-102116326D01*
X156920250Y-102117500D01*
X156007750Y-102117500D01*
X155983858Y-102116326D01*
X155960197Y-102112816D01*
X155936993Y-102107004D01*
X155914471Y-102098946D01*
X155892847Y-102088718D01*
X155872330Y-102076421D01*
X155853117Y-102062171D01*
X155835393Y-102046107D01*
X155819329Y-102028383D01*
X155805079Y-102009170D01*
X155792782Y-101988653D01*
X155782554Y-101967029D01*
X155774496Y-101944507D01*
X155768684Y-101921303D01*
X155765174Y-101897642D01*
X155764000Y-101873750D01*
X155764000Y-101386250D01*
X155765174Y-101362358D01*
X155768684Y-101338697D01*
X155774496Y-101315493D01*
X155782554Y-101292971D01*
X155792782Y-101271347D01*
X155805079Y-101250830D01*
X155819329Y-101231617D01*
X155835393Y-101213893D01*
X155853117Y-101197829D01*
X155872330Y-101183579D01*
X155892847Y-101171282D01*
X155914471Y-101161054D01*
X155936993Y-101152996D01*
X155960197Y-101147184D01*
X155983858Y-101143674D01*
X156007750Y-101142500D01*
X156920250Y-101142500D01*
X156944142Y-101143674D01*
X156944142Y-101143674D01*
G37*
D12*
X156464000Y-101630000D03*
D10*
G36*
X156944142Y-103018674D02*
G01*
X156967803Y-103022184D01*
X156991007Y-103027996D01*
X157013529Y-103036054D01*
X157035153Y-103046282D01*
X157055670Y-103058579D01*
X157074883Y-103072829D01*
X157092607Y-103088893D01*
X157108671Y-103106617D01*
X157122921Y-103125830D01*
X157135218Y-103146347D01*
X157145446Y-103167971D01*
X157153504Y-103190493D01*
X157159316Y-103213697D01*
X157162826Y-103237358D01*
X157164000Y-103261250D01*
X157164000Y-103748750D01*
X157162826Y-103772642D01*
X157159316Y-103796303D01*
X157153504Y-103819507D01*
X157145446Y-103842029D01*
X157135218Y-103863653D01*
X157122921Y-103884170D01*
X157108671Y-103903383D01*
X157092607Y-103921107D01*
X157074883Y-103937171D01*
X157055670Y-103951421D01*
X157035153Y-103963718D01*
X157013529Y-103973946D01*
X156991007Y-103982004D01*
X156967803Y-103987816D01*
X156944142Y-103991326D01*
X156920250Y-103992500D01*
X156007750Y-103992500D01*
X155983858Y-103991326D01*
X155960197Y-103987816D01*
X155936993Y-103982004D01*
X155914471Y-103973946D01*
X155892847Y-103963718D01*
X155872330Y-103951421D01*
X155853117Y-103937171D01*
X155835393Y-103921107D01*
X155819329Y-103903383D01*
X155805079Y-103884170D01*
X155792782Y-103863653D01*
X155782554Y-103842029D01*
X155774496Y-103819507D01*
X155768684Y-103796303D01*
X155765174Y-103772642D01*
X155764000Y-103748750D01*
X155764000Y-103261250D01*
X155765174Y-103237358D01*
X155768684Y-103213697D01*
X155774496Y-103190493D01*
X155782554Y-103167971D01*
X155792782Y-103146347D01*
X155805079Y-103125830D01*
X155819329Y-103106617D01*
X155835393Y-103088893D01*
X155853117Y-103072829D01*
X155872330Y-103058579D01*
X155892847Y-103046282D01*
X155914471Y-103036054D01*
X155936993Y-103027996D01*
X155960197Y-103022184D01*
X155983858Y-103018674D01*
X156007750Y-103017500D01*
X156920250Y-103017500D01*
X156944142Y-103018674D01*
X156944142Y-103018674D01*
G37*
D12*
X156464000Y-103505000D03*
D13*
X151089000Y-108661000D03*
X150439000Y-108661000D03*
X149789000Y-108661000D03*
X149139000Y-108661000D03*
X149139000Y-102921000D03*
X149789000Y-102921000D03*
X150439000Y-102921000D03*
X151089000Y-102921000D03*
D10*
G36*
X157304004Y-107395704D02*
G01*
X157328273Y-107399304D01*
X157352071Y-107405265D01*
X157375171Y-107413530D01*
X157397349Y-107424020D01*
X157418393Y-107436633D01*
X157438098Y-107451247D01*
X157456277Y-107467723D01*
X157472753Y-107485902D01*
X157487367Y-107505607D01*
X157499980Y-107526651D01*
X157510470Y-107548829D01*
X157518735Y-107571929D01*
X157524696Y-107595727D01*
X157528296Y-107619996D01*
X157529500Y-107644500D01*
X157529500Y-108394500D01*
X157528296Y-108419004D01*
X157524696Y-108443273D01*
X157518735Y-108467071D01*
X157510470Y-108490171D01*
X157499980Y-108512349D01*
X157487367Y-108533393D01*
X157472753Y-108553098D01*
X157456277Y-108571277D01*
X157438098Y-108587753D01*
X157418393Y-108602367D01*
X157397349Y-108614980D01*
X157375171Y-108625470D01*
X157352071Y-108633735D01*
X157328273Y-108639696D01*
X157304004Y-108643296D01*
X157279500Y-108644500D01*
X156029500Y-108644500D01*
X156004996Y-108643296D01*
X155980727Y-108639696D01*
X155956929Y-108633735D01*
X155933829Y-108625470D01*
X155911651Y-108614980D01*
X155890607Y-108602367D01*
X155870902Y-108587753D01*
X155852723Y-108571277D01*
X155836247Y-108553098D01*
X155821633Y-108533393D01*
X155809020Y-108512349D01*
X155798530Y-108490171D01*
X155790265Y-108467071D01*
X155784304Y-108443273D01*
X155780704Y-108419004D01*
X155779500Y-108394500D01*
X155779500Y-107644500D01*
X155780704Y-107619996D01*
X155784304Y-107595727D01*
X155790265Y-107571929D01*
X155798530Y-107548829D01*
X155809020Y-107526651D01*
X155821633Y-107505607D01*
X155836247Y-107485902D01*
X155852723Y-107467723D01*
X155870902Y-107451247D01*
X155890607Y-107436633D01*
X155911651Y-107424020D01*
X155933829Y-107413530D01*
X155956929Y-107405265D01*
X155980727Y-107399304D01*
X156004996Y-107395704D01*
X156029500Y-107394500D01*
X157279500Y-107394500D01*
X157304004Y-107395704D01*
X157304004Y-107395704D01*
G37*
D14*
X156654500Y-108019500D03*
D10*
G36*
X157304004Y-104595704D02*
G01*
X157328273Y-104599304D01*
X157352071Y-104605265D01*
X157375171Y-104613530D01*
X157397349Y-104624020D01*
X157418393Y-104636633D01*
X157438098Y-104651247D01*
X157456277Y-104667723D01*
X157472753Y-104685902D01*
X157487367Y-104705607D01*
X157499980Y-104726651D01*
X157510470Y-104748829D01*
X157518735Y-104771929D01*
X157524696Y-104795727D01*
X157528296Y-104819996D01*
X157529500Y-104844500D01*
X157529500Y-105594500D01*
X157528296Y-105619004D01*
X157524696Y-105643273D01*
X157518735Y-105667071D01*
X157510470Y-105690171D01*
X157499980Y-105712349D01*
X157487367Y-105733393D01*
X157472753Y-105753098D01*
X157456277Y-105771277D01*
X157438098Y-105787753D01*
X157418393Y-105802367D01*
X157397349Y-105814980D01*
X157375171Y-105825470D01*
X157352071Y-105833735D01*
X157328273Y-105839696D01*
X157304004Y-105843296D01*
X157279500Y-105844500D01*
X156029500Y-105844500D01*
X156004996Y-105843296D01*
X155980727Y-105839696D01*
X155956929Y-105833735D01*
X155933829Y-105825470D01*
X155911651Y-105814980D01*
X155890607Y-105802367D01*
X155870902Y-105787753D01*
X155852723Y-105771277D01*
X155836247Y-105753098D01*
X155821633Y-105733393D01*
X155809020Y-105712349D01*
X155798530Y-105690171D01*
X155790265Y-105667071D01*
X155784304Y-105643273D01*
X155780704Y-105619004D01*
X155779500Y-105594500D01*
X155779500Y-104844500D01*
X155780704Y-104819996D01*
X155784304Y-104795727D01*
X155790265Y-104771929D01*
X155798530Y-104748829D01*
X155809020Y-104726651D01*
X155821633Y-104705607D01*
X155836247Y-104685902D01*
X155852723Y-104667723D01*
X155870902Y-104651247D01*
X155890607Y-104636633D01*
X155911651Y-104624020D01*
X155933829Y-104613530D01*
X155956929Y-104605265D01*
X155980727Y-104599304D01*
X156004996Y-104595704D01*
X156029500Y-104594500D01*
X157279500Y-104594500D01*
X157304004Y-104595704D01*
X157304004Y-104595704D01*
G37*
D14*
X156654500Y-105219500D03*
M02*
