G04 #@! TF.GenerationSoftware,KiCad,Pcbnew,(5.1.4)-1*
G04 #@! TF.CreationDate,2019-08-27T15:23:33-04:00*
G04 #@! TF.ProjectId,clock_buffer,636c6f63-6b5f-4627-9566-6665722e6b69,rev?*
G04 #@! TF.SameCoordinates,Original*
G04 #@! TF.FileFunction,Legend,Top*
G04 #@! TF.FilePolarity,Positive*
%FSLAX46Y46*%
G04 Gerber Fmt 4.6, Leading zero omitted, Abs format (unit mm)*
G04 Created by KiCad (PCBNEW (5.1.4)-1) date 2019-08-27 15:23:33*
%MOMM*%
%LPD*%
G04 APERTURE LIST*
%ADD10C,0.120000*%
%ADD11C,0.127000*%
%ADD12C,0.200000*%
%ADD13C,0.150000*%
%ADD14C,0.050000*%
G04 APERTURE END LIST*
D10*
X147690000Y-100224721D02*
X147690000Y-100550279D01*
X148710000Y-100224721D02*
X148710000Y-100550279D01*
X149532078Y-110669000D02*
X149014922Y-110669000D01*
X149532078Y-112089000D02*
X149014922Y-112089000D01*
X149532078Y-112637500D02*
X149014922Y-112637500D01*
X149532078Y-114057500D02*
X149014922Y-114057500D01*
X157174000Y-102826078D02*
X157174000Y-102308922D01*
X155754000Y-102826078D02*
X155754000Y-102308922D01*
D11*
X148564000Y-108041000D02*
X148750500Y-108041000D01*
X148564000Y-103541000D02*
X148564000Y-108041000D01*
X148750500Y-103541000D02*
X148564000Y-103541000D01*
X151664000Y-108041000D02*
X151477500Y-108041000D01*
X151664000Y-103541000D02*
X151664000Y-108041000D01*
X151477500Y-103541000D02*
X151664000Y-103541000D01*
D12*
X151189000Y-101811000D02*
G75*
G03X151189000Y-101811000I-100000J0D01*
G01*
D10*
X155744500Y-106017436D02*
X155744500Y-107221564D01*
X157564500Y-106017436D02*
X157564500Y-107221564D01*
X155254000Y-94495000D02*
X144974000Y-94495000D01*
X155254000Y-112515000D02*
X155254000Y-94495000D01*
X144974000Y-112515000D02*
X155254000Y-112515000D01*
X144974000Y-94495000D02*
X144974000Y-112515000D01*
X152764000Y-94555000D02*
X151114000Y-94555000D01*
X152764000Y-112455000D02*
X152764000Y-94555000D01*
X147464000Y-112455000D02*
X152764000Y-112455000D01*
X147464000Y-94555000D02*
X147464000Y-112455000D01*
X149114000Y-94555000D02*
X147464000Y-94555000D01*
X151114000Y-94555000D02*
G75*
G02X149114000Y-94555000I-1000000J0D01*
G01*
X148568000Y-86109000D02*
X152168000Y-86109000D01*
X148568000Y-93469000D02*
X152168000Y-93469000D01*
X154048000Y-87989000D02*
X154048000Y-91589000D01*
X146688000Y-87989000D02*
X146688000Y-91589000D01*
D13*
X149987142Y-100554166D02*
X150034761Y-100601785D01*
X150082380Y-100744642D01*
X150082380Y-100839880D01*
X150034761Y-100982738D01*
X149939523Y-101077976D01*
X149844285Y-101125595D01*
X149653809Y-101173214D01*
X149510952Y-101173214D01*
X149320476Y-101125595D01*
X149225238Y-101077976D01*
X149130000Y-100982738D01*
X149082380Y-100839880D01*
X149082380Y-100744642D01*
X149130000Y-100601785D01*
X149177619Y-100554166D01*
X149415714Y-99697023D02*
X150082380Y-99697023D01*
X149034761Y-99935119D02*
X149749047Y-100173214D01*
X149749047Y-99554166D01*
X151661833Y-111863142D02*
X151614214Y-111910761D01*
X151471357Y-111958380D01*
X151376119Y-111958380D01*
X151233261Y-111910761D01*
X151138023Y-111815523D01*
X151090404Y-111720285D01*
X151042785Y-111529809D01*
X151042785Y-111386952D01*
X151090404Y-111196476D01*
X151138023Y-111101238D01*
X151233261Y-111006000D01*
X151376119Y-110958380D01*
X151471357Y-110958380D01*
X151614214Y-111006000D01*
X151661833Y-111053619D01*
X151995166Y-110958380D02*
X152614214Y-110958380D01*
X152280880Y-111339333D01*
X152423738Y-111339333D01*
X152518976Y-111386952D01*
X152566595Y-111434571D01*
X152614214Y-111529809D01*
X152614214Y-111767904D01*
X152566595Y-111863142D01*
X152518976Y-111910761D01*
X152423738Y-111958380D01*
X152138023Y-111958380D01*
X152042785Y-111910761D01*
X151995166Y-111863142D01*
X151598333Y-113704642D02*
X151550714Y-113752261D01*
X151407857Y-113799880D01*
X151312619Y-113799880D01*
X151169761Y-113752261D01*
X151074523Y-113657023D01*
X151026904Y-113561785D01*
X150979285Y-113371309D01*
X150979285Y-113228452D01*
X151026904Y-113037976D01*
X151074523Y-112942738D01*
X151169761Y-112847500D01*
X151312619Y-112799880D01*
X151407857Y-112799880D01*
X151550714Y-112847500D01*
X151598333Y-112895119D01*
X151979285Y-112895119D02*
X152026904Y-112847500D01*
X152122142Y-112799880D01*
X152360238Y-112799880D01*
X152455476Y-112847500D01*
X152503095Y-112895119D01*
X152550714Y-112990357D01*
X152550714Y-113085595D01*
X152503095Y-113228452D01*
X151931666Y-113799880D01*
X152550714Y-113799880D01*
X156297333Y-100496642D02*
X156249714Y-100544261D01*
X156106857Y-100591880D01*
X156011619Y-100591880D01*
X155868761Y-100544261D01*
X155773523Y-100449023D01*
X155725904Y-100353785D01*
X155678285Y-100163309D01*
X155678285Y-100020452D01*
X155725904Y-99829976D01*
X155773523Y-99734738D01*
X155868761Y-99639500D01*
X156011619Y-99591880D01*
X156106857Y-99591880D01*
X156249714Y-99639500D01*
X156297333Y-99687119D01*
X157249714Y-100591880D02*
X156678285Y-100591880D01*
X156964000Y-100591880D02*
X156964000Y-99591880D01*
X156868761Y-99734738D01*
X156773523Y-99829976D01*
X156678285Y-99877595D01*
D14*
X149351135Y-105242690D02*
X149351135Y-106053234D01*
X149398814Y-106148592D01*
X149446493Y-106196271D01*
X149541851Y-106243950D01*
X149732567Y-106243950D01*
X149827925Y-106196271D01*
X149875604Y-106148592D01*
X149923283Y-106053234D01*
X149923283Y-105242690D01*
X150352395Y-105338049D02*
X150400074Y-105290370D01*
X150495432Y-105242690D01*
X150733827Y-105242690D01*
X150829185Y-105290370D01*
X150876864Y-105338049D01*
X150924543Y-105433407D01*
X150924543Y-105528765D01*
X150876864Y-105671802D01*
X150304716Y-106243950D01*
X150924543Y-106243950D01*
D13*
X156551333Y-110180380D02*
X156075142Y-110180380D01*
X156075142Y-109180380D01*
X157408476Y-110180380D02*
X156837047Y-110180380D01*
X157122761Y-110180380D02*
X157122761Y-109180380D01*
X157027523Y-109323238D01*
X156932285Y-109418476D01*
X156837047Y-109466095D01*
X145843666Y-112863380D02*
X145843666Y-113577666D01*
X145796047Y-113720523D01*
X145700809Y-113815761D01*
X145557952Y-113863380D01*
X145462714Y-113863380D01*
X146272238Y-112958619D02*
X146319857Y-112911000D01*
X146415095Y-112863380D01*
X146653190Y-112863380D01*
X146748428Y-112911000D01*
X146796047Y-112958619D01*
X146843666Y-113053857D01*
X146843666Y-113149095D01*
X146796047Y-113291952D01*
X146224619Y-113863380D01*
X146843666Y-113863380D01*
X144866666Y-89052380D02*
X144866666Y-89766666D01*
X144819047Y-89909523D01*
X144723809Y-90004761D01*
X144580952Y-90052380D01*
X144485714Y-90052380D01*
X145866666Y-90052380D02*
X145295238Y-90052380D01*
X145580952Y-90052380D02*
X145580952Y-89052380D01*
X145485714Y-89195238D01*
X145390476Y-89290476D01*
X145295238Y-89338095D01*
M02*
