G04 #@! TF.GenerationSoftware,KiCad,Pcbnew,(5.1.4)-1*
G04 #@! TF.CreationDate,2019-08-27T15:23:33-04:00*
G04 #@! TF.ProjectId,clock_buffer,636c6f63-6b5f-4627-9566-6665722e6b69,rev?*
G04 #@! TF.SameCoordinates,Original*
G04 #@! TF.FileFunction,Legend,Bot*
G04 #@! TF.FilePolarity,Positive*
%FSLAX46Y46*%
G04 Gerber Fmt 4.6, Leading zero omitted, Abs format (unit mm)*
G04 Created by KiCad (PCBNEW (5.1.4)-1) date 2019-08-27 15:23:33*
%MOMM*%
%LPD*%
G04 APERTURE LIST*
%ADD10C,0.150000*%
G04 APERTURE END LIST*
D10*
X148948142Y-95331523D02*
X148995761Y-95283904D01*
X149043380Y-95141047D01*
X149043380Y-95045809D01*
X148995761Y-94902952D01*
X148900523Y-94807714D01*
X148805285Y-94760095D01*
X148614809Y-94712476D01*
X148471952Y-94712476D01*
X148281476Y-94760095D01*
X148186238Y-94807714D01*
X148091000Y-94902952D01*
X148043380Y-95045809D01*
X148043380Y-95141047D01*
X148091000Y-95283904D01*
X148138619Y-95331523D01*
X148995761Y-96141047D02*
X149043380Y-96045809D01*
X149043380Y-95855333D01*
X148995761Y-95760095D01*
X148900523Y-95712476D01*
X148519571Y-95712476D01*
X148424333Y-95760095D01*
X148376714Y-95855333D01*
X148376714Y-96045809D01*
X148424333Y-96141047D01*
X148519571Y-96188666D01*
X148614809Y-96188666D01*
X148710047Y-95712476D01*
X149043380Y-96617238D02*
X148043380Y-96617238D01*
X149043380Y-97188666D01*
X148043380Y-97188666D01*
X148043380Y-97522000D02*
X148043380Y-98093428D01*
X149043380Y-97807714D02*
X148043380Y-97807714D01*
X149043380Y-98998190D02*
X148567190Y-98664857D01*
X149043380Y-98426761D02*
X148043380Y-98426761D01*
X148043380Y-98807714D01*
X148091000Y-98902952D01*
X148138619Y-98950571D01*
X148233857Y-98998190D01*
X148376714Y-98998190D01*
X148471952Y-98950571D01*
X148519571Y-98902952D01*
X148567190Y-98807714D01*
X148567190Y-98426761D01*
X148519571Y-99426761D02*
X148519571Y-99760095D01*
X149043380Y-99902952D02*
X149043380Y-99426761D01*
X148043380Y-99426761D01*
X148043380Y-99902952D01*
X148043380Y-100236285D02*
X149043380Y-100902952D01*
X148043380Y-100902952D02*
X149043380Y-100236285D01*
X150693380Y-94760095D02*
X149693380Y-94760095D01*
X149693380Y-95141047D01*
X149741000Y-95236285D01*
X149788619Y-95283904D01*
X149883857Y-95331523D01*
X150026714Y-95331523D01*
X150121952Y-95283904D01*
X150169571Y-95236285D01*
X150217190Y-95141047D01*
X150217190Y-94760095D01*
X150026714Y-96188666D02*
X150693380Y-96188666D01*
X150026714Y-95760095D02*
X150550523Y-95760095D01*
X150645761Y-95807714D01*
X150693380Y-95902952D01*
X150693380Y-96045809D01*
X150645761Y-96141047D01*
X150598142Y-96188666D01*
X150693380Y-96807714D02*
X150645761Y-96712476D01*
X150550523Y-96664857D01*
X149693380Y-96664857D01*
X150645761Y-97141047D02*
X150693380Y-97236285D01*
X150693380Y-97426761D01*
X150645761Y-97522000D01*
X150550523Y-97569619D01*
X150502904Y-97569619D01*
X150407666Y-97522000D01*
X150360047Y-97426761D01*
X150360047Y-97283904D01*
X150312428Y-97188666D01*
X150217190Y-97141047D01*
X150169571Y-97141047D01*
X150074333Y-97188666D01*
X150026714Y-97283904D01*
X150026714Y-97426761D01*
X150074333Y-97522000D01*
X150645761Y-98379142D02*
X150693380Y-98283904D01*
X150693380Y-98093428D01*
X150645761Y-97998190D01*
X150550523Y-97950571D01*
X150169571Y-97950571D01*
X150074333Y-97998190D01*
X150026714Y-98093428D01*
X150026714Y-98283904D01*
X150074333Y-98379142D01*
X150169571Y-98426761D01*
X150264809Y-98426761D01*
X150360047Y-97950571D01*
X150169571Y-99188666D02*
X150217190Y-99331523D01*
X150264809Y-99379142D01*
X150360047Y-99426761D01*
X150502904Y-99426761D01*
X150598142Y-99379142D01*
X150645761Y-99331523D01*
X150693380Y-99236285D01*
X150693380Y-98855333D01*
X149693380Y-98855333D01*
X149693380Y-99188666D01*
X149741000Y-99283904D01*
X149788619Y-99331523D01*
X149883857Y-99379142D01*
X149979095Y-99379142D01*
X150074333Y-99331523D01*
X150121952Y-99283904D01*
X150169571Y-99188666D01*
X150169571Y-98855333D01*
X150693380Y-99998190D02*
X150645761Y-99902952D01*
X150550523Y-99855333D01*
X149693380Y-99855333D01*
X150693380Y-100807714D02*
X150169571Y-100807714D01*
X150074333Y-100760095D01*
X150026714Y-100664857D01*
X150026714Y-100474380D01*
X150074333Y-100379142D01*
X150645761Y-100807714D02*
X150693380Y-100712476D01*
X150693380Y-100474380D01*
X150645761Y-100379142D01*
X150550523Y-100331523D01*
X150455285Y-100331523D01*
X150360047Y-100379142D01*
X150312428Y-100474380D01*
X150312428Y-100712476D01*
X150264809Y-100807714D01*
X150645761Y-101236285D02*
X150693380Y-101331523D01*
X150693380Y-101522000D01*
X150645761Y-101617238D01*
X150550523Y-101664857D01*
X150502904Y-101664857D01*
X150407666Y-101617238D01*
X150360047Y-101522000D01*
X150360047Y-101379142D01*
X150312428Y-101283904D01*
X150217190Y-101236285D01*
X150169571Y-101236285D01*
X150074333Y-101283904D01*
X150026714Y-101379142D01*
X150026714Y-101522000D01*
X150074333Y-101617238D01*
X150026714Y-101950571D02*
X150026714Y-102331523D01*
X149693380Y-102093428D02*
X150550523Y-102093428D01*
X150645761Y-102141047D01*
X150693380Y-102236285D01*
X150693380Y-102331523D01*
X150645761Y-103045809D02*
X150693380Y-102950571D01*
X150693380Y-102760095D01*
X150645761Y-102664857D01*
X150550523Y-102617238D01*
X150169571Y-102617238D01*
X150074333Y-102664857D01*
X150026714Y-102760095D01*
X150026714Y-102950571D01*
X150074333Y-103045809D01*
X150169571Y-103093428D01*
X150264809Y-103093428D01*
X150360047Y-102617238D01*
X150693380Y-103522000D02*
X150026714Y-103522000D01*
X150217190Y-103522000D02*
X150121952Y-103569619D01*
X150074333Y-103617238D01*
X150026714Y-103712476D01*
X150026714Y-103807714D01*
X150598142Y-105474380D02*
X150645761Y-105426761D01*
X150693380Y-105283904D01*
X150693380Y-105188666D01*
X150645761Y-105045809D01*
X150550523Y-104950571D01*
X150455285Y-104902952D01*
X150264809Y-104855333D01*
X150121952Y-104855333D01*
X149931476Y-104902952D01*
X149836238Y-104950571D01*
X149741000Y-105045809D01*
X149693380Y-105188666D01*
X149693380Y-105283904D01*
X149741000Y-105426761D01*
X149788619Y-105474380D01*
X150693380Y-106045809D02*
X150645761Y-105950571D01*
X150550523Y-105902952D01*
X149693380Y-105902952D01*
X150693380Y-106569619D02*
X150645761Y-106474380D01*
X150598142Y-106426761D01*
X150502904Y-106379142D01*
X150217190Y-106379142D01*
X150121952Y-106426761D01*
X150074333Y-106474380D01*
X150026714Y-106569619D01*
X150026714Y-106712476D01*
X150074333Y-106807714D01*
X150121952Y-106855333D01*
X150217190Y-106902952D01*
X150502904Y-106902952D01*
X150598142Y-106855333D01*
X150645761Y-106807714D01*
X150693380Y-106712476D01*
X150693380Y-106569619D01*
X150645761Y-107760095D02*
X150693380Y-107664857D01*
X150693380Y-107474380D01*
X150645761Y-107379142D01*
X150598142Y-107331523D01*
X150502904Y-107283904D01*
X150217190Y-107283904D01*
X150121952Y-107331523D01*
X150074333Y-107379142D01*
X150026714Y-107474380D01*
X150026714Y-107664857D01*
X150074333Y-107760095D01*
X150693380Y-108188666D02*
X149693380Y-108188666D01*
X150312428Y-108283904D02*
X150693380Y-108569619D01*
X150026714Y-108569619D02*
X150407666Y-108188666D01*
X150169571Y-110093428D02*
X150217190Y-110236285D01*
X150264809Y-110283904D01*
X150360047Y-110331523D01*
X150502904Y-110331523D01*
X150598142Y-110283904D01*
X150645761Y-110236285D01*
X150693380Y-110141047D01*
X150693380Y-109760095D01*
X149693380Y-109760095D01*
X149693380Y-110093428D01*
X149741000Y-110188666D01*
X149788619Y-110236285D01*
X149883857Y-110283904D01*
X149979095Y-110283904D01*
X150074333Y-110236285D01*
X150121952Y-110188666D01*
X150169571Y-110093428D01*
X150169571Y-109760095D01*
X150026714Y-111188666D02*
X150693380Y-111188666D01*
X150026714Y-110760095D02*
X150550523Y-110760095D01*
X150645761Y-110807714D01*
X150693380Y-110902952D01*
X150693380Y-111045809D01*
X150645761Y-111141047D01*
X150598142Y-111188666D01*
X150026714Y-111521999D02*
X150026714Y-111902952D01*
X150693380Y-111664857D02*
X149836238Y-111664857D01*
X149741000Y-111712476D01*
X149693380Y-111807714D01*
X149693380Y-111902952D01*
X150026714Y-112093428D02*
X150026714Y-112474380D01*
X150693380Y-112236285D02*
X149836238Y-112236285D01*
X149741000Y-112283904D01*
X149693380Y-112379142D01*
X149693380Y-112474380D01*
X150645761Y-113188666D02*
X150693380Y-113093428D01*
X150693380Y-112902952D01*
X150645761Y-112807714D01*
X150550523Y-112760095D01*
X150169571Y-112760095D01*
X150074333Y-112807714D01*
X150026714Y-112902952D01*
X150026714Y-113093428D01*
X150074333Y-113188666D01*
X150169571Y-113236285D01*
X150264809Y-113236285D01*
X150360047Y-112760095D01*
X150693380Y-113664857D02*
X150026714Y-113664857D01*
X150217190Y-113664857D02*
X150121952Y-113712476D01*
X150074333Y-113760095D01*
X150026714Y-113855333D01*
X150026714Y-113950571D01*
X152343380Y-95331523D02*
X151867190Y-94998190D01*
X152343380Y-94760095D02*
X151343380Y-94760095D01*
X151343380Y-95141047D01*
X151391000Y-95236285D01*
X151438619Y-95283904D01*
X151533857Y-95331523D01*
X151676714Y-95331523D01*
X151771952Y-95283904D01*
X151819571Y-95236285D01*
X151867190Y-95141047D01*
X151867190Y-94760095D01*
X152295761Y-96141047D02*
X152343380Y-96045809D01*
X152343380Y-95855333D01*
X152295761Y-95760095D01*
X152200523Y-95712476D01*
X151819571Y-95712476D01*
X151724333Y-95760095D01*
X151676714Y-95855333D01*
X151676714Y-96045809D01*
X151724333Y-96141047D01*
X151819571Y-96188666D01*
X151914809Y-96188666D01*
X152010047Y-95712476D01*
X151676714Y-96522000D02*
X152343380Y-96760095D01*
X151676714Y-96998190D01*
X152248142Y-97379142D02*
X152295761Y-97426761D01*
X152343380Y-97379142D01*
X152295761Y-97331523D01*
X152248142Y-97379142D01*
X152343380Y-97379142D01*
X151438619Y-98569619D02*
X151391000Y-98617238D01*
X151343380Y-98712476D01*
X151343380Y-98950571D01*
X151391000Y-99045809D01*
X151438619Y-99093428D01*
X151533857Y-99141047D01*
X151629095Y-99141047D01*
X151771952Y-99093428D01*
X152343380Y-98522000D01*
X152343380Y-99141047D01*
X152248142Y-99569619D02*
X152295761Y-99617238D01*
X152343380Y-99569619D01*
X152295761Y-99522000D01*
X152248142Y-99569619D01*
X152343380Y-99569619D01*
X151343380Y-100236285D02*
X151343380Y-100331523D01*
X151391000Y-100426761D01*
X151438619Y-100474380D01*
X151533857Y-100522000D01*
X151724333Y-100569619D01*
X151962428Y-100569619D01*
X152152904Y-100522000D01*
X152248142Y-100474380D01*
X152295761Y-100426761D01*
X152343380Y-100331523D01*
X152343380Y-100236285D01*
X152295761Y-100141047D01*
X152248142Y-100093428D01*
X152152904Y-100045809D01*
X151962428Y-99998190D01*
X151724333Y-99998190D01*
X151533857Y-100045809D01*
X151438619Y-100093428D01*
X151391000Y-100141047D01*
X151343380Y-100236285D01*
M02*
