M48
; DRILL file {KiCad (5.1.4)-1} date 19-Aug-19 16:21:44
; FORMAT={3:3/ absolute / metric / suppress leading zeros}
; #@! TF.CreationDate,2019-08-19T16:21:44-04:00
; #@! TF.GenerationSoftware,Kicad,Pcbnew,(5.1.4)-1
FMAT,2
METRIC,TZ
T1C0.400
T2C0.800
T3C1.500
T4C1.700
%
G90
G05
T1
X152400Y-109728
T2
X146304Y-95885
X146304Y-98425
X146304Y-100965
X146304Y-103505
X146304Y-106045
X146304Y-108585
X146304Y-111125
X153924Y-95885
X153924Y-98425
X153924Y-100965
X153924Y-103505
X153924Y-106045
X153924Y-108585
X153924Y-111125
T3
X150114Y-118110
T4
X147574Y-115570
X147574Y-120650
X152654Y-115570
X152654Y-120650
T0
M30
