G04 #@! TF.GenerationSoftware,KiCad,Pcbnew,(5.1.4)-1*
G04 #@! TF.CreationDate,2019-08-19T16:22:37-04:00*
G04 #@! TF.ProjectId,clock_buffer,636c6f63-6b5f-4627-9566-6665722e6b69,rev?*
G04 #@! TF.SameCoordinates,Original*
G04 #@! TF.FileFunction,Copper,L1,Top*
G04 #@! TF.FilePolarity,Positive*
%FSLAX46Y46*%
G04 Gerber Fmt 4.6, Leading zero omitted, Abs format (unit mm)*
G04 Created by KiCad (PCBNEW (5.1.4)-1) date 2019-08-19 16:22:37*
%MOMM*%
%LPD*%
G04 APERTURE LIST*
%ADD10R,0.410000X1.570000*%
%ADD11C,0.100000*%
%ADD12C,1.250000*%
%ADD13O,1.600000X1.600000*%
%ADD14R,1.600000X1.600000*%
%ADD15C,2.250000*%
%ADD16C,2.050000*%
%ADD17C,0.800000*%
%ADD18C,1.400000*%
%ADD19C,0.400000*%
%ADD20C,1.500000*%
%ADD21C,0.254000*%
G04 APERTURE END LIST*
D10*
X149139000Y-103556000D03*
X149789000Y-103556000D03*
X150439000Y-103556000D03*
X151089000Y-103556000D03*
X151089000Y-109296000D03*
X150439000Y-109296000D03*
X149789000Y-109296000D03*
X149139000Y-109296000D03*
D11*
G36*
X152160504Y-95648204D02*
G01*
X152184773Y-95651804D01*
X152208571Y-95657765D01*
X152231671Y-95666030D01*
X152253849Y-95676520D01*
X152274893Y-95689133D01*
X152294598Y-95703747D01*
X152312777Y-95720223D01*
X152329253Y-95738402D01*
X152343867Y-95758107D01*
X152356480Y-95779151D01*
X152366970Y-95801329D01*
X152375235Y-95824429D01*
X152381196Y-95848227D01*
X152384796Y-95872496D01*
X152386000Y-95897000D01*
X152386000Y-96647000D01*
X152384796Y-96671504D01*
X152381196Y-96695773D01*
X152375235Y-96719571D01*
X152366970Y-96742671D01*
X152356480Y-96764849D01*
X152343867Y-96785893D01*
X152329253Y-96805598D01*
X152312777Y-96823777D01*
X152294598Y-96840253D01*
X152274893Y-96854867D01*
X152253849Y-96867480D01*
X152231671Y-96877970D01*
X152208571Y-96886235D01*
X152184773Y-96892196D01*
X152160504Y-96895796D01*
X152136000Y-96897000D01*
X150886000Y-96897000D01*
X150861496Y-96895796D01*
X150837227Y-96892196D01*
X150813429Y-96886235D01*
X150790329Y-96877970D01*
X150768151Y-96867480D01*
X150747107Y-96854867D01*
X150727402Y-96840253D01*
X150709223Y-96823777D01*
X150692747Y-96805598D01*
X150678133Y-96785893D01*
X150665520Y-96764849D01*
X150655030Y-96742671D01*
X150646765Y-96719571D01*
X150640804Y-96695773D01*
X150637204Y-96671504D01*
X150636000Y-96647000D01*
X150636000Y-95897000D01*
X150637204Y-95872496D01*
X150640804Y-95848227D01*
X150646765Y-95824429D01*
X150655030Y-95801329D01*
X150665520Y-95779151D01*
X150678133Y-95758107D01*
X150692747Y-95738402D01*
X150709223Y-95720223D01*
X150727402Y-95703747D01*
X150747107Y-95689133D01*
X150768151Y-95676520D01*
X150790329Y-95666030D01*
X150813429Y-95657765D01*
X150837227Y-95651804D01*
X150861496Y-95648204D01*
X150886000Y-95647000D01*
X152136000Y-95647000D01*
X152160504Y-95648204D01*
X152160504Y-95648204D01*
G37*
D12*
X151511000Y-96272000D03*
D11*
G36*
X152160504Y-92848204D02*
G01*
X152184773Y-92851804D01*
X152208571Y-92857765D01*
X152231671Y-92866030D01*
X152253849Y-92876520D01*
X152274893Y-92889133D01*
X152294598Y-92903747D01*
X152312777Y-92920223D01*
X152329253Y-92938402D01*
X152343867Y-92958107D01*
X152356480Y-92979151D01*
X152366970Y-93001329D01*
X152375235Y-93024429D01*
X152381196Y-93048227D01*
X152384796Y-93072496D01*
X152386000Y-93097000D01*
X152386000Y-93847000D01*
X152384796Y-93871504D01*
X152381196Y-93895773D01*
X152375235Y-93919571D01*
X152366970Y-93942671D01*
X152356480Y-93964849D01*
X152343867Y-93985893D01*
X152329253Y-94005598D01*
X152312777Y-94023777D01*
X152294598Y-94040253D01*
X152274893Y-94054867D01*
X152253849Y-94067480D01*
X152231671Y-94077970D01*
X152208571Y-94086235D01*
X152184773Y-94092196D01*
X152160504Y-94095796D01*
X152136000Y-94097000D01*
X150886000Y-94097000D01*
X150861496Y-94095796D01*
X150837227Y-94092196D01*
X150813429Y-94086235D01*
X150790329Y-94077970D01*
X150768151Y-94067480D01*
X150747107Y-94054867D01*
X150727402Y-94040253D01*
X150709223Y-94023777D01*
X150692747Y-94005598D01*
X150678133Y-93985893D01*
X150665520Y-93964849D01*
X150655030Y-93942671D01*
X150646765Y-93919571D01*
X150640804Y-93895773D01*
X150637204Y-93871504D01*
X150636000Y-93847000D01*
X150636000Y-93097000D01*
X150637204Y-93072496D01*
X150640804Y-93048227D01*
X150646765Y-93024429D01*
X150655030Y-93001329D01*
X150665520Y-92979151D01*
X150678133Y-92958107D01*
X150692747Y-92938402D01*
X150709223Y-92920223D01*
X150727402Y-92903747D01*
X150747107Y-92889133D01*
X150768151Y-92876520D01*
X150790329Y-92866030D01*
X150813429Y-92857765D01*
X150837227Y-92851804D01*
X150861496Y-92848204D01*
X150886000Y-92847000D01*
X152136000Y-92847000D01*
X152160504Y-92848204D01*
X152160504Y-92848204D01*
G37*
D12*
X151511000Y-93472000D03*
D13*
X153924000Y-95885000D03*
X146304000Y-111125000D03*
X153924000Y-98425000D03*
X146304000Y-108585000D03*
X153924000Y-100965000D03*
X146304000Y-106045000D03*
X153924000Y-103505000D03*
X146304000Y-103505000D03*
X153924000Y-106045000D03*
X146304000Y-100965000D03*
X153924000Y-108585000D03*
X146304000Y-98425000D03*
X153924000Y-111125000D03*
D14*
X146304000Y-95885000D03*
D15*
X147574000Y-120650000D03*
X147574000Y-115570000D03*
X152654000Y-115570000D03*
X152654000Y-120650000D03*
D16*
X150114000Y-118110000D03*
D11*
G36*
X149110504Y-100091204D02*
G01*
X149134773Y-100094804D01*
X149158571Y-100100765D01*
X149181671Y-100109030D01*
X149203849Y-100119520D01*
X149224893Y-100132133D01*
X149244598Y-100146747D01*
X149262777Y-100163223D01*
X149279253Y-100181402D01*
X149293867Y-100201107D01*
X149306480Y-100222151D01*
X149316970Y-100244329D01*
X149325235Y-100267429D01*
X149331196Y-100291227D01*
X149334796Y-100315496D01*
X149336000Y-100340000D01*
X149336000Y-101590000D01*
X149334796Y-101614504D01*
X149331196Y-101638773D01*
X149325235Y-101662571D01*
X149316970Y-101685671D01*
X149306480Y-101707849D01*
X149293867Y-101728893D01*
X149279253Y-101748598D01*
X149262777Y-101766777D01*
X149244598Y-101783253D01*
X149224893Y-101797867D01*
X149203849Y-101810480D01*
X149181671Y-101820970D01*
X149158571Y-101829235D01*
X149134773Y-101835196D01*
X149110504Y-101838796D01*
X149086000Y-101840000D01*
X148336000Y-101840000D01*
X148311496Y-101838796D01*
X148287227Y-101835196D01*
X148263429Y-101829235D01*
X148240329Y-101820970D01*
X148218151Y-101810480D01*
X148197107Y-101797867D01*
X148177402Y-101783253D01*
X148159223Y-101766777D01*
X148142747Y-101748598D01*
X148128133Y-101728893D01*
X148115520Y-101707849D01*
X148105030Y-101685671D01*
X148096765Y-101662571D01*
X148090804Y-101638773D01*
X148087204Y-101614504D01*
X148086000Y-101590000D01*
X148086000Y-100340000D01*
X148087204Y-100315496D01*
X148090804Y-100291227D01*
X148096765Y-100267429D01*
X148105030Y-100244329D01*
X148115520Y-100222151D01*
X148128133Y-100201107D01*
X148142747Y-100181402D01*
X148159223Y-100163223D01*
X148177402Y-100146747D01*
X148197107Y-100132133D01*
X148218151Y-100119520D01*
X148240329Y-100109030D01*
X148263429Y-100100765D01*
X148287227Y-100094804D01*
X148311496Y-100091204D01*
X148336000Y-100090000D01*
X149086000Y-100090000D01*
X149110504Y-100091204D01*
X149110504Y-100091204D01*
G37*
D12*
X148711000Y-100965000D03*
D11*
G36*
X151910504Y-100091204D02*
G01*
X151934773Y-100094804D01*
X151958571Y-100100765D01*
X151981671Y-100109030D01*
X152003849Y-100119520D01*
X152024893Y-100132133D01*
X152044598Y-100146747D01*
X152062777Y-100163223D01*
X152079253Y-100181402D01*
X152093867Y-100201107D01*
X152106480Y-100222151D01*
X152116970Y-100244329D01*
X152125235Y-100267429D01*
X152131196Y-100291227D01*
X152134796Y-100315496D01*
X152136000Y-100340000D01*
X152136000Y-101590000D01*
X152134796Y-101614504D01*
X152131196Y-101638773D01*
X152125235Y-101662571D01*
X152116970Y-101685671D01*
X152106480Y-101707849D01*
X152093867Y-101728893D01*
X152079253Y-101748598D01*
X152062777Y-101766777D01*
X152044598Y-101783253D01*
X152024893Y-101797867D01*
X152003849Y-101810480D01*
X151981671Y-101820970D01*
X151958571Y-101829235D01*
X151934773Y-101835196D01*
X151910504Y-101838796D01*
X151886000Y-101840000D01*
X151136000Y-101840000D01*
X151111496Y-101838796D01*
X151087227Y-101835196D01*
X151063429Y-101829235D01*
X151040329Y-101820970D01*
X151018151Y-101810480D01*
X150997107Y-101797867D01*
X150977402Y-101783253D01*
X150959223Y-101766777D01*
X150942747Y-101748598D01*
X150928133Y-101728893D01*
X150915520Y-101707849D01*
X150905030Y-101685671D01*
X150896765Y-101662571D01*
X150890804Y-101638773D01*
X150887204Y-101614504D01*
X150886000Y-101590000D01*
X150886000Y-100340000D01*
X150887204Y-100315496D01*
X150890804Y-100291227D01*
X150896765Y-100267429D01*
X150905030Y-100244329D01*
X150915520Y-100222151D01*
X150928133Y-100201107D01*
X150942747Y-100181402D01*
X150959223Y-100163223D01*
X150977402Y-100146747D01*
X150997107Y-100132133D01*
X151018151Y-100119520D01*
X151040329Y-100109030D01*
X151063429Y-100100765D01*
X151087227Y-100094804D01*
X151111496Y-100091204D01*
X151136000Y-100090000D01*
X151886000Y-100090000D01*
X151910504Y-100091204D01*
X151910504Y-100091204D01*
G37*
D12*
X151511000Y-100965000D03*
D11*
G36*
X149116504Y-97551204D02*
G01*
X149140773Y-97554804D01*
X149164571Y-97560765D01*
X149187671Y-97569030D01*
X149209849Y-97579520D01*
X149230893Y-97592133D01*
X149250598Y-97606747D01*
X149268777Y-97623223D01*
X149285253Y-97641402D01*
X149299867Y-97661107D01*
X149312480Y-97682151D01*
X149322970Y-97704329D01*
X149331235Y-97727429D01*
X149337196Y-97751227D01*
X149340796Y-97775496D01*
X149342000Y-97800000D01*
X149342000Y-99050000D01*
X149340796Y-99074504D01*
X149337196Y-99098773D01*
X149331235Y-99122571D01*
X149322970Y-99145671D01*
X149312480Y-99167849D01*
X149299867Y-99188893D01*
X149285253Y-99208598D01*
X149268777Y-99226777D01*
X149250598Y-99243253D01*
X149230893Y-99257867D01*
X149209849Y-99270480D01*
X149187671Y-99280970D01*
X149164571Y-99289235D01*
X149140773Y-99295196D01*
X149116504Y-99298796D01*
X149092000Y-99300000D01*
X148342000Y-99300000D01*
X148317496Y-99298796D01*
X148293227Y-99295196D01*
X148269429Y-99289235D01*
X148246329Y-99280970D01*
X148224151Y-99270480D01*
X148203107Y-99257867D01*
X148183402Y-99243253D01*
X148165223Y-99226777D01*
X148148747Y-99208598D01*
X148134133Y-99188893D01*
X148121520Y-99167849D01*
X148111030Y-99145671D01*
X148102765Y-99122571D01*
X148096804Y-99098773D01*
X148093204Y-99074504D01*
X148092000Y-99050000D01*
X148092000Y-97800000D01*
X148093204Y-97775496D01*
X148096804Y-97751227D01*
X148102765Y-97727429D01*
X148111030Y-97704329D01*
X148121520Y-97682151D01*
X148134133Y-97661107D01*
X148148747Y-97641402D01*
X148165223Y-97623223D01*
X148183402Y-97606747D01*
X148203107Y-97592133D01*
X148224151Y-97579520D01*
X148246329Y-97569030D01*
X148269429Y-97560765D01*
X148293227Y-97554804D01*
X148317496Y-97551204D01*
X148342000Y-97550000D01*
X149092000Y-97550000D01*
X149116504Y-97551204D01*
X149116504Y-97551204D01*
G37*
D12*
X148717000Y-98425000D03*
D11*
G36*
X151916504Y-97551204D02*
G01*
X151940773Y-97554804D01*
X151964571Y-97560765D01*
X151987671Y-97569030D01*
X152009849Y-97579520D01*
X152030893Y-97592133D01*
X152050598Y-97606747D01*
X152068777Y-97623223D01*
X152085253Y-97641402D01*
X152099867Y-97661107D01*
X152112480Y-97682151D01*
X152122970Y-97704329D01*
X152131235Y-97727429D01*
X152137196Y-97751227D01*
X152140796Y-97775496D01*
X152142000Y-97800000D01*
X152142000Y-99050000D01*
X152140796Y-99074504D01*
X152137196Y-99098773D01*
X152131235Y-99122571D01*
X152122970Y-99145671D01*
X152112480Y-99167849D01*
X152099867Y-99188893D01*
X152085253Y-99208598D01*
X152068777Y-99226777D01*
X152050598Y-99243253D01*
X152030893Y-99257867D01*
X152009849Y-99270480D01*
X151987671Y-99280970D01*
X151964571Y-99289235D01*
X151940773Y-99295196D01*
X151916504Y-99298796D01*
X151892000Y-99300000D01*
X151142000Y-99300000D01*
X151117496Y-99298796D01*
X151093227Y-99295196D01*
X151069429Y-99289235D01*
X151046329Y-99280970D01*
X151024151Y-99270480D01*
X151003107Y-99257867D01*
X150983402Y-99243253D01*
X150965223Y-99226777D01*
X150948747Y-99208598D01*
X150934133Y-99188893D01*
X150921520Y-99167849D01*
X150911030Y-99145671D01*
X150902765Y-99122571D01*
X150896804Y-99098773D01*
X150893204Y-99074504D01*
X150892000Y-99050000D01*
X150892000Y-97800000D01*
X150893204Y-97775496D01*
X150896804Y-97751227D01*
X150902765Y-97727429D01*
X150911030Y-97704329D01*
X150921520Y-97682151D01*
X150934133Y-97661107D01*
X150948747Y-97641402D01*
X150965223Y-97623223D01*
X150983402Y-97606747D01*
X151003107Y-97592133D01*
X151024151Y-97579520D01*
X151046329Y-97569030D01*
X151069429Y-97560765D01*
X151093227Y-97554804D01*
X151117496Y-97551204D01*
X151142000Y-97550000D01*
X151892000Y-97550000D01*
X151916504Y-97551204D01*
X151916504Y-97551204D01*
G37*
D12*
X151517000Y-98425000D03*
D11*
G36*
X146703504Y-92090204D02*
G01*
X146727773Y-92093804D01*
X146751571Y-92099765D01*
X146774671Y-92108030D01*
X146796849Y-92118520D01*
X146817893Y-92131133D01*
X146837598Y-92145747D01*
X146855777Y-92162223D01*
X146872253Y-92180402D01*
X146886867Y-92200107D01*
X146899480Y-92221151D01*
X146909970Y-92243329D01*
X146918235Y-92266429D01*
X146924196Y-92290227D01*
X146927796Y-92314496D01*
X146929000Y-92339000D01*
X146929000Y-93589000D01*
X146927796Y-93613504D01*
X146924196Y-93637773D01*
X146918235Y-93661571D01*
X146909970Y-93684671D01*
X146899480Y-93706849D01*
X146886867Y-93727893D01*
X146872253Y-93747598D01*
X146855777Y-93765777D01*
X146837598Y-93782253D01*
X146817893Y-93796867D01*
X146796849Y-93809480D01*
X146774671Y-93819970D01*
X146751571Y-93828235D01*
X146727773Y-93834196D01*
X146703504Y-93837796D01*
X146679000Y-93839000D01*
X145929000Y-93839000D01*
X145904496Y-93837796D01*
X145880227Y-93834196D01*
X145856429Y-93828235D01*
X145833329Y-93819970D01*
X145811151Y-93809480D01*
X145790107Y-93796867D01*
X145770402Y-93782253D01*
X145752223Y-93765777D01*
X145735747Y-93747598D01*
X145721133Y-93727893D01*
X145708520Y-93706849D01*
X145698030Y-93684671D01*
X145689765Y-93661571D01*
X145683804Y-93637773D01*
X145680204Y-93613504D01*
X145679000Y-93589000D01*
X145679000Y-92339000D01*
X145680204Y-92314496D01*
X145683804Y-92290227D01*
X145689765Y-92266429D01*
X145698030Y-92243329D01*
X145708520Y-92221151D01*
X145721133Y-92200107D01*
X145735747Y-92180402D01*
X145752223Y-92162223D01*
X145770402Y-92145747D01*
X145790107Y-92131133D01*
X145811151Y-92118520D01*
X145833329Y-92108030D01*
X145856429Y-92099765D01*
X145880227Y-92093804D01*
X145904496Y-92090204D01*
X145929000Y-92089000D01*
X146679000Y-92089000D01*
X146703504Y-92090204D01*
X146703504Y-92090204D01*
G37*
D12*
X146304000Y-92964000D03*
D11*
G36*
X149503504Y-92090204D02*
G01*
X149527773Y-92093804D01*
X149551571Y-92099765D01*
X149574671Y-92108030D01*
X149596849Y-92118520D01*
X149617893Y-92131133D01*
X149637598Y-92145747D01*
X149655777Y-92162223D01*
X149672253Y-92180402D01*
X149686867Y-92200107D01*
X149699480Y-92221151D01*
X149709970Y-92243329D01*
X149718235Y-92266429D01*
X149724196Y-92290227D01*
X149727796Y-92314496D01*
X149729000Y-92339000D01*
X149729000Y-93589000D01*
X149727796Y-93613504D01*
X149724196Y-93637773D01*
X149718235Y-93661571D01*
X149709970Y-93684671D01*
X149699480Y-93706849D01*
X149686867Y-93727893D01*
X149672253Y-93747598D01*
X149655777Y-93765777D01*
X149637598Y-93782253D01*
X149617893Y-93796867D01*
X149596849Y-93809480D01*
X149574671Y-93819970D01*
X149551571Y-93828235D01*
X149527773Y-93834196D01*
X149503504Y-93837796D01*
X149479000Y-93839000D01*
X148729000Y-93839000D01*
X148704496Y-93837796D01*
X148680227Y-93834196D01*
X148656429Y-93828235D01*
X148633329Y-93819970D01*
X148611151Y-93809480D01*
X148590107Y-93796867D01*
X148570402Y-93782253D01*
X148552223Y-93765777D01*
X148535747Y-93747598D01*
X148521133Y-93727893D01*
X148508520Y-93706849D01*
X148498030Y-93684671D01*
X148489765Y-93661571D01*
X148483804Y-93637773D01*
X148480204Y-93613504D01*
X148479000Y-93589000D01*
X148479000Y-92339000D01*
X148480204Y-92314496D01*
X148483804Y-92290227D01*
X148489765Y-92266429D01*
X148498030Y-92243329D01*
X148508520Y-92221151D01*
X148521133Y-92200107D01*
X148535747Y-92180402D01*
X148552223Y-92162223D01*
X148570402Y-92145747D01*
X148590107Y-92131133D01*
X148611151Y-92118520D01*
X148633329Y-92108030D01*
X148656429Y-92099765D01*
X148680227Y-92093804D01*
X148704496Y-92090204D01*
X148729000Y-92089000D01*
X149479000Y-92089000D01*
X149503504Y-92090204D01*
X149503504Y-92090204D01*
G37*
D12*
X149104000Y-92964000D03*
D17*
X152400000Y-109728000D03*
D18*
X149612000Y-93472000D02*
X149104000Y-92964000D01*
X151511000Y-93472000D02*
X149612000Y-93472000D01*
X151511000Y-93472000D02*
X153289000Y-93472000D01*
X153924000Y-94107000D02*
X153924000Y-95885000D01*
X153289000Y-93472000D02*
X153924000Y-94107000D01*
D19*
X150439000Y-102037000D02*
X151511000Y-100965000D01*
X150439000Y-103556000D02*
X150439000Y-102037000D01*
D20*
X151511000Y-98431000D02*
X151517000Y-98425000D01*
X151511000Y-100965000D02*
X151511000Y-98431000D01*
D18*
X151517000Y-96278000D02*
X151511000Y-96272000D01*
X151517000Y-98425000D02*
X151517000Y-96278000D01*
D19*
X152206710Y-101660710D02*
X151511000Y-100965000D01*
X152711001Y-102165001D02*
X152206710Y-101660710D01*
X154500001Y-102165001D02*
X152711001Y-102165001D01*
X155124001Y-102789001D02*
X154500001Y-102165001D01*
X155124001Y-111701001D02*
X155124001Y-102789001D01*
X154500001Y-112325001D02*
X155124001Y-111701001D01*
X151434459Y-112325001D02*
X154500001Y-112325001D01*
X149789000Y-110679542D02*
X151434459Y-112325001D01*
X149789000Y-109296000D02*
X149789000Y-110679542D01*
X149139000Y-117135000D02*
X150114000Y-118110000D01*
X149139000Y-109296000D02*
X149139000Y-117135000D01*
X152792630Y-111125000D02*
X153924000Y-111125000D01*
X151083000Y-111125000D02*
X152792630Y-111125000D01*
X150439000Y-110481000D02*
X151083000Y-111125000D01*
X150439000Y-109296000D02*
X150439000Y-110481000D01*
D21*
G36*
X155515000Y-101999133D02*
G01*
X155178329Y-101662461D01*
X155256182Y-101516808D01*
X155338236Y-101246309D01*
X155365943Y-100965000D01*
X155338236Y-100683691D01*
X155256182Y-100413192D01*
X155122932Y-100163899D01*
X154943608Y-99945392D01*
X154725101Y-99766068D01*
X154592142Y-99695000D01*
X154725101Y-99623932D01*
X154943608Y-99444608D01*
X155122932Y-99226101D01*
X155256182Y-98976808D01*
X155338236Y-98706309D01*
X155365943Y-98425000D01*
X155338236Y-98143691D01*
X155256182Y-97873192D01*
X155122932Y-97623899D01*
X154943608Y-97405392D01*
X154725101Y-97226068D01*
X154592142Y-97155000D01*
X154725101Y-97083932D01*
X154943608Y-96904608D01*
X155122932Y-96686101D01*
X155256182Y-96436808D01*
X155338236Y-96166309D01*
X155365943Y-95885000D01*
X155338236Y-95603691D01*
X155259000Y-95342482D01*
X155259000Y-94172579D01*
X155265459Y-94107000D01*
X155247913Y-93928850D01*
X155239683Y-93845294D01*
X155198422Y-93709274D01*
X155163347Y-93593645D01*
X155101187Y-93477354D01*
X155039382Y-93361725D01*
X154872555Y-93158445D01*
X154821609Y-93116635D01*
X154279366Y-92574392D01*
X154237555Y-92523445D01*
X154034275Y-92356618D01*
X153802354Y-92232653D01*
X153550706Y-92156317D01*
X153354579Y-92137000D01*
X153289000Y-92130541D01*
X153223421Y-92137000D01*
X150341288Y-92137000D01*
X150299472Y-91999150D01*
X150217405Y-91845614D01*
X150106962Y-91711038D01*
X149972386Y-91600595D01*
X149818850Y-91518528D01*
X149652254Y-91467992D01*
X149479000Y-91450928D01*
X148729000Y-91450928D01*
X148555746Y-91467992D01*
X148389150Y-91518528D01*
X148235614Y-91600595D01*
X148101038Y-91711038D01*
X147990595Y-91845614D01*
X147908528Y-91999150D01*
X147857992Y-92165746D01*
X147840928Y-92339000D01*
X147840928Y-92528860D01*
X147788317Y-92702295D01*
X147762541Y-92964000D01*
X147788317Y-93225705D01*
X147840928Y-93399140D01*
X147840928Y-93589000D01*
X147857992Y-93762254D01*
X147908528Y-93928850D01*
X147990595Y-94082386D01*
X148101038Y-94216962D01*
X148235614Y-94327405D01*
X148389150Y-94409472D01*
X148555746Y-94460008D01*
X148729000Y-94477072D01*
X148732311Y-94477072D01*
X148866725Y-94587382D01*
X149098646Y-94711347D01*
X149350294Y-94787683D01*
X149546421Y-94807000D01*
X149546431Y-94807000D01*
X149611999Y-94813458D01*
X149677567Y-94807000D01*
X152589000Y-94807000D01*
X152589000Y-95137008D01*
X152475850Y-95076528D01*
X152309254Y-95025992D01*
X152136000Y-95008928D01*
X151946140Y-95008928D01*
X151772705Y-94956317D01*
X151511000Y-94930541D01*
X151249295Y-94956317D01*
X151075860Y-95008928D01*
X150886000Y-95008928D01*
X150712746Y-95025992D01*
X150546150Y-95076528D01*
X150392614Y-95158595D01*
X150258038Y-95269038D01*
X150147595Y-95403614D01*
X150065528Y-95557150D01*
X150014992Y-95723746D01*
X149997928Y-95897000D01*
X149997928Y-96647000D01*
X150014992Y-96820254D01*
X150065528Y-96986850D01*
X150147595Y-97140386D01*
X150182001Y-97182310D01*
X150182000Y-98040949D01*
X150146040Y-98159493D01*
X150119300Y-98431000D01*
X150126001Y-98499039D01*
X150126000Y-101033036D01*
X150138202Y-101156930D01*
X149971381Y-101323752D01*
X149971000Y-101250750D01*
X149812250Y-101092000D01*
X148838000Y-101092000D01*
X148838000Y-101112000D01*
X148584000Y-101112000D01*
X148584000Y-101092000D01*
X148564000Y-101092000D01*
X148564000Y-100838000D01*
X148584000Y-100838000D01*
X148584000Y-99782250D01*
X148590000Y-99776250D01*
X148590000Y-99613750D01*
X148838000Y-99613750D01*
X148838000Y-100838000D01*
X149812250Y-100838000D01*
X149971000Y-100679250D01*
X149974072Y-100090000D01*
X149961812Y-99965518D01*
X149925502Y-99845820D01*
X149866537Y-99735506D01*
X149836295Y-99698656D01*
X149872537Y-99654494D01*
X149931502Y-99544180D01*
X149967812Y-99424482D01*
X149980072Y-99300000D01*
X149977000Y-98710750D01*
X149818250Y-98552000D01*
X148844000Y-98552000D01*
X148844000Y-99607750D01*
X148838000Y-99613750D01*
X148590000Y-99613750D01*
X148590000Y-98552000D01*
X148570000Y-98552000D01*
X148570000Y-98298000D01*
X148590000Y-98298000D01*
X148590000Y-97073750D01*
X148844000Y-97073750D01*
X148844000Y-98298000D01*
X149818250Y-98298000D01*
X149977000Y-98139250D01*
X149980072Y-97550000D01*
X149967812Y-97425518D01*
X149931502Y-97305820D01*
X149872537Y-97195506D01*
X149793185Y-97098815D01*
X149696494Y-97019463D01*
X149586180Y-96960498D01*
X149466482Y-96924188D01*
X149342000Y-96911928D01*
X149002750Y-96915000D01*
X148844000Y-97073750D01*
X148590000Y-97073750D01*
X148431250Y-96915000D01*
X148092000Y-96911928D01*
X147967518Y-96924188D01*
X147847820Y-96960498D01*
X147737506Y-97019463D01*
X147640815Y-97098815D01*
X147561463Y-97195506D01*
X147502498Y-97305820D01*
X147466188Y-97425518D01*
X147453928Y-97550000D01*
X147454002Y-97564278D01*
X147323608Y-97405392D01*
X147210518Y-97312581D01*
X147228482Y-97310812D01*
X147348180Y-97274502D01*
X147458494Y-97215537D01*
X147555185Y-97136185D01*
X147634537Y-97039494D01*
X147693502Y-96929180D01*
X147729812Y-96809482D01*
X147742072Y-96685000D01*
X147742072Y-95085000D01*
X147729812Y-94960518D01*
X147693502Y-94840820D01*
X147634537Y-94730506D01*
X147555185Y-94633815D01*
X147458494Y-94554463D01*
X147348180Y-94495498D01*
X147228482Y-94459188D01*
X147110370Y-94447555D01*
X147173180Y-94428502D01*
X147283494Y-94369537D01*
X147380185Y-94290185D01*
X147459537Y-94193494D01*
X147518502Y-94083180D01*
X147554812Y-93963482D01*
X147567072Y-93839000D01*
X147564000Y-93249750D01*
X147405250Y-93091000D01*
X146431000Y-93091000D01*
X146431000Y-93111000D01*
X146177000Y-93111000D01*
X146177000Y-93091000D01*
X145202750Y-93091000D01*
X145044000Y-93249750D01*
X145040928Y-93839000D01*
X145053188Y-93963482D01*
X145089498Y-94083180D01*
X145148463Y-94193494D01*
X145227815Y-94290185D01*
X145324506Y-94369537D01*
X145434820Y-94428502D01*
X145497630Y-94447555D01*
X145379518Y-94459188D01*
X145259820Y-94495498D01*
X145149506Y-94554463D01*
X145052815Y-94633815D01*
X144973463Y-94730506D01*
X144914498Y-94840820D01*
X144878188Y-94960518D01*
X144865928Y-95085000D01*
X144865928Y-96685000D01*
X144878188Y-96809482D01*
X144914498Y-96929180D01*
X144973463Y-97039494D01*
X145052815Y-97136185D01*
X145149506Y-97215537D01*
X145259820Y-97274502D01*
X145379518Y-97310812D01*
X145397482Y-97312581D01*
X145284392Y-97405392D01*
X145105068Y-97623899D01*
X144971818Y-97873192D01*
X144889764Y-98143691D01*
X144862057Y-98425000D01*
X144889764Y-98706309D01*
X144971818Y-98976808D01*
X145105068Y-99226101D01*
X145284392Y-99444608D01*
X145502899Y-99623932D01*
X145635858Y-99695000D01*
X145502899Y-99766068D01*
X145284392Y-99945392D01*
X145105068Y-100163899D01*
X144971818Y-100413192D01*
X144889764Y-100683691D01*
X144862057Y-100965000D01*
X144889764Y-101246309D01*
X144971818Y-101516808D01*
X145105068Y-101766101D01*
X145284392Y-101984608D01*
X145502899Y-102163932D01*
X145635858Y-102235000D01*
X145502899Y-102306068D01*
X145284392Y-102485392D01*
X145105068Y-102703899D01*
X144971818Y-102953192D01*
X144889764Y-103223691D01*
X144862057Y-103505000D01*
X144889764Y-103786309D01*
X144971818Y-104056808D01*
X145105068Y-104306101D01*
X145284392Y-104524608D01*
X145502899Y-104703932D01*
X145635858Y-104775000D01*
X145502899Y-104846068D01*
X145284392Y-105025392D01*
X145105068Y-105243899D01*
X144971818Y-105493192D01*
X144889764Y-105763691D01*
X144862057Y-106045000D01*
X144889764Y-106326309D01*
X144971818Y-106596808D01*
X145105068Y-106846101D01*
X145284392Y-107064608D01*
X145502899Y-107243932D01*
X145635858Y-107315000D01*
X145502899Y-107386068D01*
X145284392Y-107565392D01*
X145105068Y-107783899D01*
X144971818Y-108033192D01*
X144889764Y-108303691D01*
X144862057Y-108585000D01*
X144889764Y-108866309D01*
X144971818Y-109136808D01*
X145105068Y-109386101D01*
X145284392Y-109604608D01*
X145502899Y-109783932D01*
X145640682Y-109857579D01*
X145448869Y-109972615D01*
X145240481Y-110161586D01*
X145072963Y-110387580D01*
X144952754Y-110641913D01*
X144912096Y-110775961D01*
X145034085Y-110998000D01*
X146177000Y-110998000D01*
X146177000Y-110978000D01*
X146431000Y-110978000D01*
X146431000Y-110998000D01*
X147573915Y-110998000D01*
X147695904Y-110775961D01*
X147655246Y-110641913D01*
X147535037Y-110387580D01*
X147367519Y-110161586D01*
X147159131Y-109972615D01*
X146967318Y-109857579D01*
X147105101Y-109783932D01*
X147323608Y-109604608D01*
X147502932Y-109386101D01*
X147636182Y-109136808D01*
X147649471Y-109093000D01*
X148295928Y-109093000D01*
X148295928Y-110081000D01*
X148304000Y-110162960D01*
X148304001Y-113967615D01*
X148197160Y-113914911D01*
X147862295Y-113825140D01*
X147516350Y-113802424D01*
X147172620Y-113847634D01*
X146844315Y-113959034D01*
X146639921Y-114068286D01*
X146529074Y-114345469D01*
X147574000Y-115390395D01*
X147588143Y-115376253D01*
X147767748Y-115555858D01*
X147753605Y-115570000D01*
X147767748Y-115584143D01*
X147588143Y-115763748D01*
X147574000Y-115749605D01*
X146529074Y-116794531D01*
X146639921Y-117071714D01*
X146950840Y-117225089D01*
X147285705Y-117314860D01*
X147631650Y-117337576D01*
X147975380Y-117292366D01*
X148303685Y-117180966D01*
X148304447Y-117180559D01*
X148316082Y-117298688D01*
X148363828Y-117456086D01*
X148363829Y-117456087D01*
X148441365Y-117601146D01*
X148506829Y-117680915D01*
X148454000Y-117946504D01*
X148454000Y-118273496D01*
X148517793Y-118594204D01*
X148642927Y-118896305D01*
X148824594Y-119168188D01*
X149055812Y-119399406D01*
X149327695Y-119581073D01*
X149629796Y-119706207D01*
X149950504Y-119770000D01*
X150277496Y-119770000D01*
X150598204Y-119706207D01*
X150900305Y-119581073D01*
X151133182Y-119425469D01*
X151609074Y-119425469D01*
X152654000Y-120470395D01*
X153698926Y-119425469D01*
X153588079Y-119148286D01*
X153277160Y-118994911D01*
X152942295Y-118905140D01*
X152596350Y-118882424D01*
X152252620Y-118927634D01*
X151924315Y-119039034D01*
X151719921Y-119148286D01*
X151609074Y-119425469D01*
X151133182Y-119425469D01*
X151172188Y-119399406D01*
X151403406Y-119168188D01*
X151585073Y-118896305D01*
X151710207Y-118594204D01*
X151774000Y-118273496D01*
X151774000Y-117946504D01*
X151710207Y-117625796D01*
X151585073Y-117323695D01*
X151403406Y-117051812D01*
X151172188Y-116820594D01*
X151133183Y-116794531D01*
X151609074Y-116794531D01*
X151719921Y-117071714D01*
X152030840Y-117225089D01*
X152365705Y-117314860D01*
X152711650Y-117337576D01*
X153055380Y-117292366D01*
X153383685Y-117180966D01*
X153588079Y-117071714D01*
X153698926Y-116794531D01*
X152654000Y-115749605D01*
X151609074Y-116794531D01*
X151133183Y-116794531D01*
X150900305Y-116638927D01*
X150598204Y-116513793D01*
X150277496Y-116450000D01*
X149974000Y-116450000D01*
X149974000Y-115627650D01*
X150886424Y-115627650D01*
X150931634Y-115971380D01*
X151043034Y-116299685D01*
X151152286Y-116504079D01*
X151429469Y-116614926D01*
X152474395Y-115570000D01*
X152833605Y-115570000D01*
X153878531Y-116614926D01*
X154155714Y-116504079D01*
X154309089Y-116193160D01*
X154398860Y-115858295D01*
X154421576Y-115512350D01*
X154376366Y-115168620D01*
X154264966Y-114840315D01*
X154155714Y-114635921D01*
X153878531Y-114525074D01*
X152833605Y-115570000D01*
X152474395Y-115570000D01*
X151429469Y-114525074D01*
X151152286Y-114635921D01*
X150998911Y-114946840D01*
X150909140Y-115281705D01*
X150886424Y-115627650D01*
X149974000Y-115627650D01*
X149974000Y-114345469D01*
X151609074Y-114345469D01*
X152654000Y-115390395D01*
X153698926Y-114345469D01*
X153588079Y-114068286D01*
X153277160Y-113914911D01*
X152942295Y-113825140D01*
X152596350Y-113802424D01*
X152252620Y-113847634D01*
X151924315Y-113959034D01*
X151719921Y-114068286D01*
X151609074Y-114345469D01*
X149974000Y-114345469D01*
X149974000Y-112045409D01*
X150815018Y-112886427D01*
X150841168Y-112918292D01*
X150968313Y-113022637D01*
X151113372Y-113100173D01*
X151270770Y-113147919D01*
X151393440Y-113160001D01*
X151393450Y-113160001D01*
X151434458Y-113164040D01*
X151475466Y-113160001D01*
X154458983Y-113160001D01*
X154500001Y-113164041D01*
X154541019Y-113160001D01*
X154541020Y-113160001D01*
X154663690Y-113147919D01*
X154821088Y-113100173D01*
X154966147Y-113022637D01*
X155093292Y-112918292D01*
X155119447Y-112886423D01*
X155515001Y-112490869D01*
X155515001Y-122114000D01*
X153603161Y-122114000D01*
X153698926Y-121874531D01*
X152654000Y-120829605D01*
X151609074Y-121874531D01*
X151704839Y-122114000D01*
X148523161Y-122114000D01*
X148618926Y-121874531D01*
X147574000Y-120829605D01*
X146529074Y-121874531D01*
X146624839Y-122114000D01*
X144713000Y-122114000D01*
X144713000Y-120707650D01*
X145806424Y-120707650D01*
X145851634Y-121051380D01*
X145963034Y-121379685D01*
X146072286Y-121584079D01*
X146349469Y-121694926D01*
X147394395Y-120650000D01*
X147753605Y-120650000D01*
X148798531Y-121694926D01*
X149075714Y-121584079D01*
X149229089Y-121273160D01*
X149318860Y-120938295D01*
X149334004Y-120707650D01*
X150886424Y-120707650D01*
X150931634Y-121051380D01*
X151043034Y-121379685D01*
X151152286Y-121584079D01*
X151429469Y-121694926D01*
X152474395Y-120650000D01*
X152833605Y-120650000D01*
X153878531Y-121694926D01*
X154155714Y-121584079D01*
X154309089Y-121273160D01*
X154398860Y-120938295D01*
X154421576Y-120592350D01*
X154376366Y-120248620D01*
X154264966Y-119920315D01*
X154155714Y-119715921D01*
X153878531Y-119605074D01*
X152833605Y-120650000D01*
X152474395Y-120650000D01*
X151429469Y-119605074D01*
X151152286Y-119715921D01*
X150998911Y-120026840D01*
X150909140Y-120361705D01*
X150886424Y-120707650D01*
X149334004Y-120707650D01*
X149341576Y-120592350D01*
X149296366Y-120248620D01*
X149184966Y-119920315D01*
X149075714Y-119715921D01*
X148798531Y-119605074D01*
X147753605Y-120650000D01*
X147394395Y-120650000D01*
X146349469Y-119605074D01*
X146072286Y-119715921D01*
X145918911Y-120026840D01*
X145829140Y-120361705D01*
X145806424Y-120707650D01*
X144713000Y-120707650D01*
X144713000Y-119425469D01*
X146529074Y-119425469D01*
X147574000Y-120470395D01*
X148618926Y-119425469D01*
X148508079Y-119148286D01*
X148197160Y-118994911D01*
X147862295Y-118905140D01*
X147516350Y-118882424D01*
X147172620Y-118927634D01*
X146844315Y-119039034D01*
X146639921Y-119148286D01*
X146529074Y-119425469D01*
X144713000Y-119425469D01*
X144713000Y-115627650D01*
X145806424Y-115627650D01*
X145851634Y-115971380D01*
X145963034Y-116299685D01*
X146072286Y-116504079D01*
X146349469Y-116614926D01*
X147394395Y-115570000D01*
X146349469Y-114525074D01*
X146072286Y-114635921D01*
X145918911Y-114946840D01*
X145829140Y-115281705D01*
X145806424Y-115627650D01*
X144713000Y-115627650D01*
X144713000Y-111474039D01*
X144912096Y-111474039D01*
X144952754Y-111608087D01*
X145072963Y-111862420D01*
X145240481Y-112088414D01*
X145448869Y-112277385D01*
X145690119Y-112422070D01*
X145954960Y-112516909D01*
X146177000Y-112395624D01*
X146177000Y-111252000D01*
X146431000Y-111252000D01*
X146431000Y-112395624D01*
X146653040Y-112516909D01*
X146917881Y-112422070D01*
X147159131Y-112277385D01*
X147367519Y-112088414D01*
X147535037Y-111862420D01*
X147655246Y-111608087D01*
X147695904Y-111474039D01*
X147573915Y-111252000D01*
X146431000Y-111252000D01*
X146177000Y-111252000D01*
X145034085Y-111252000D01*
X144912096Y-111474039D01*
X144713000Y-111474039D01*
X144713000Y-92089000D01*
X145040928Y-92089000D01*
X145044000Y-92678250D01*
X145202750Y-92837000D01*
X146177000Y-92837000D01*
X146177000Y-91612750D01*
X146431000Y-91612750D01*
X146431000Y-92837000D01*
X147405250Y-92837000D01*
X147564000Y-92678250D01*
X147567072Y-92089000D01*
X147554812Y-91964518D01*
X147518502Y-91844820D01*
X147459537Y-91734506D01*
X147380185Y-91637815D01*
X147283494Y-91558463D01*
X147173180Y-91499498D01*
X147053482Y-91463188D01*
X146929000Y-91450928D01*
X146589750Y-91454000D01*
X146431000Y-91612750D01*
X146177000Y-91612750D01*
X146018250Y-91454000D01*
X145679000Y-91450928D01*
X145554518Y-91463188D01*
X145434820Y-91499498D01*
X145324506Y-91558463D01*
X145227815Y-91637815D01*
X145148463Y-91734506D01*
X145089498Y-91844820D01*
X145053188Y-91964518D01*
X145040928Y-92089000D01*
X144713000Y-92089000D01*
X144713000Y-90865000D01*
X155515000Y-90865000D01*
X155515000Y-101999133D01*
X155515000Y-101999133D01*
G37*
X155515000Y-101999133D02*
X155178329Y-101662461D01*
X155256182Y-101516808D01*
X155338236Y-101246309D01*
X155365943Y-100965000D01*
X155338236Y-100683691D01*
X155256182Y-100413192D01*
X155122932Y-100163899D01*
X154943608Y-99945392D01*
X154725101Y-99766068D01*
X154592142Y-99695000D01*
X154725101Y-99623932D01*
X154943608Y-99444608D01*
X155122932Y-99226101D01*
X155256182Y-98976808D01*
X155338236Y-98706309D01*
X155365943Y-98425000D01*
X155338236Y-98143691D01*
X155256182Y-97873192D01*
X155122932Y-97623899D01*
X154943608Y-97405392D01*
X154725101Y-97226068D01*
X154592142Y-97155000D01*
X154725101Y-97083932D01*
X154943608Y-96904608D01*
X155122932Y-96686101D01*
X155256182Y-96436808D01*
X155338236Y-96166309D01*
X155365943Y-95885000D01*
X155338236Y-95603691D01*
X155259000Y-95342482D01*
X155259000Y-94172579D01*
X155265459Y-94107000D01*
X155247913Y-93928850D01*
X155239683Y-93845294D01*
X155198422Y-93709274D01*
X155163347Y-93593645D01*
X155101187Y-93477354D01*
X155039382Y-93361725D01*
X154872555Y-93158445D01*
X154821609Y-93116635D01*
X154279366Y-92574392D01*
X154237555Y-92523445D01*
X154034275Y-92356618D01*
X153802354Y-92232653D01*
X153550706Y-92156317D01*
X153354579Y-92137000D01*
X153289000Y-92130541D01*
X153223421Y-92137000D01*
X150341288Y-92137000D01*
X150299472Y-91999150D01*
X150217405Y-91845614D01*
X150106962Y-91711038D01*
X149972386Y-91600595D01*
X149818850Y-91518528D01*
X149652254Y-91467992D01*
X149479000Y-91450928D01*
X148729000Y-91450928D01*
X148555746Y-91467992D01*
X148389150Y-91518528D01*
X148235614Y-91600595D01*
X148101038Y-91711038D01*
X147990595Y-91845614D01*
X147908528Y-91999150D01*
X147857992Y-92165746D01*
X147840928Y-92339000D01*
X147840928Y-92528860D01*
X147788317Y-92702295D01*
X147762541Y-92964000D01*
X147788317Y-93225705D01*
X147840928Y-93399140D01*
X147840928Y-93589000D01*
X147857992Y-93762254D01*
X147908528Y-93928850D01*
X147990595Y-94082386D01*
X148101038Y-94216962D01*
X148235614Y-94327405D01*
X148389150Y-94409472D01*
X148555746Y-94460008D01*
X148729000Y-94477072D01*
X148732311Y-94477072D01*
X148866725Y-94587382D01*
X149098646Y-94711347D01*
X149350294Y-94787683D01*
X149546421Y-94807000D01*
X149546431Y-94807000D01*
X149611999Y-94813458D01*
X149677567Y-94807000D01*
X152589000Y-94807000D01*
X152589000Y-95137008D01*
X152475850Y-95076528D01*
X152309254Y-95025992D01*
X152136000Y-95008928D01*
X151946140Y-95008928D01*
X151772705Y-94956317D01*
X151511000Y-94930541D01*
X151249295Y-94956317D01*
X151075860Y-95008928D01*
X150886000Y-95008928D01*
X150712746Y-95025992D01*
X150546150Y-95076528D01*
X150392614Y-95158595D01*
X150258038Y-95269038D01*
X150147595Y-95403614D01*
X150065528Y-95557150D01*
X150014992Y-95723746D01*
X149997928Y-95897000D01*
X149997928Y-96647000D01*
X150014992Y-96820254D01*
X150065528Y-96986850D01*
X150147595Y-97140386D01*
X150182001Y-97182310D01*
X150182000Y-98040949D01*
X150146040Y-98159493D01*
X150119300Y-98431000D01*
X150126001Y-98499039D01*
X150126000Y-101033036D01*
X150138202Y-101156930D01*
X149971381Y-101323752D01*
X149971000Y-101250750D01*
X149812250Y-101092000D01*
X148838000Y-101092000D01*
X148838000Y-101112000D01*
X148584000Y-101112000D01*
X148584000Y-101092000D01*
X148564000Y-101092000D01*
X148564000Y-100838000D01*
X148584000Y-100838000D01*
X148584000Y-99782250D01*
X148590000Y-99776250D01*
X148590000Y-99613750D01*
X148838000Y-99613750D01*
X148838000Y-100838000D01*
X149812250Y-100838000D01*
X149971000Y-100679250D01*
X149974072Y-100090000D01*
X149961812Y-99965518D01*
X149925502Y-99845820D01*
X149866537Y-99735506D01*
X149836295Y-99698656D01*
X149872537Y-99654494D01*
X149931502Y-99544180D01*
X149967812Y-99424482D01*
X149980072Y-99300000D01*
X149977000Y-98710750D01*
X149818250Y-98552000D01*
X148844000Y-98552000D01*
X148844000Y-99607750D01*
X148838000Y-99613750D01*
X148590000Y-99613750D01*
X148590000Y-98552000D01*
X148570000Y-98552000D01*
X148570000Y-98298000D01*
X148590000Y-98298000D01*
X148590000Y-97073750D01*
X148844000Y-97073750D01*
X148844000Y-98298000D01*
X149818250Y-98298000D01*
X149977000Y-98139250D01*
X149980072Y-97550000D01*
X149967812Y-97425518D01*
X149931502Y-97305820D01*
X149872537Y-97195506D01*
X149793185Y-97098815D01*
X149696494Y-97019463D01*
X149586180Y-96960498D01*
X149466482Y-96924188D01*
X149342000Y-96911928D01*
X149002750Y-96915000D01*
X148844000Y-97073750D01*
X148590000Y-97073750D01*
X148431250Y-96915000D01*
X148092000Y-96911928D01*
X147967518Y-96924188D01*
X147847820Y-96960498D01*
X147737506Y-97019463D01*
X147640815Y-97098815D01*
X147561463Y-97195506D01*
X147502498Y-97305820D01*
X147466188Y-97425518D01*
X147453928Y-97550000D01*
X147454002Y-97564278D01*
X147323608Y-97405392D01*
X147210518Y-97312581D01*
X147228482Y-97310812D01*
X147348180Y-97274502D01*
X147458494Y-97215537D01*
X147555185Y-97136185D01*
X147634537Y-97039494D01*
X147693502Y-96929180D01*
X147729812Y-96809482D01*
X147742072Y-96685000D01*
X147742072Y-95085000D01*
X147729812Y-94960518D01*
X147693502Y-94840820D01*
X147634537Y-94730506D01*
X147555185Y-94633815D01*
X147458494Y-94554463D01*
X147348180Y-94495498D01*
X147228482Y-94459188D01*
X147110370Y-94447555D01*
X147173180Y-94428502D01*
X147283494Y-94369537D01*
X147380185Y-94290185D01*
X147459537Y-94193494D01*
X147518502Y-94083180D01*
X147554812Y-93963482D01*
X147567072Y-93839000D01*
X147564000Y-93249750D01*
X147405250Y-93091000D01*
X146431000Y-93091000D01*
X146431000Y-93111000D01*
X146177000Y-93111000D01*
X146177000Y-93091000D01*
X145202750Y-93091000D01*
X145044000Y-93249750D01*
X145040928Y-93839000D01*
X145053188Y-93963482D01*
X145089498Y-94083180D01*
X145148463Y-94193494D01*
X145227815Y-94290185D01*
X145324506Y-94369537D01*
X145434820Y-94428502D01*
X145497630Y-94447555D01*
X145379518Y-94459188D01*
X145259820Y-94495498D01*
X145149506Y-94554463D01*
X145052815Y-94633815D01*
X144973463Y-94730506D01*
X144914498Y-94840820D01*
X144878188Y-94960518D01*
X144865928Y-95085000D01*
X144865928Y-96685000D01*
X144878188Y-96809482D01*
X144914498Y-96929180D01*
X144973463Y-97039494D01*
X145052815Y-97136185D01*
X145149506Y-97215537D01*
X145259820Y-97274502D01*
X145379518Y-97310812D01*
X145397482Y-97312581D01*
X145284392Y-97405392D01*
X145105068Y-97623899D01*
X144971818Y-97873192D01*
X144889764Y-98143691D01*
X144862057Y-98425000D01*
X144889764Y-98706309D01*
X144971818Y-98976808D01*
X145105068Y-99226101D01*
X145284392Y-99444608D01*
X145502899Y-99623932D01*
X145635858Y-99695000D01*
X145502899Y-99766068D01*
X145284392Y-99945392D01*
X145105068Y-100163899D01*
X144971818Y-100413192D01*
X144889764Y-100683691D01*
X144862057Y-100965000D01*
X144889764Y-101246309D01*
X144971818Y-101516808D01*
X145105068Y-101766101D01*
X145284392Y-101984608D01*
X145502899Y-102163932D01*
X145635858Y-102235000D01*
X145502899Y-102306068D01*
X145284392Y-102485392D01*
X145105068Y-102703899D01*
X144971818Y-102953192D01*
X144889764Y-103223691D01*
X144862057Y-103505000D01*
X144889764Y-103786309D01*
X144971818Y-104056808D01*
X145105068Y-104306101D01*
X145284392Y-104524608D01*
X145502899Y-104703932D01*
X145635858Y-104775000D01*
X145502899Y-104846068D01*
X145284392Y-105025392D01*
X145105068Y-105243899D01*
X144971818Y-105493192D01*
X144889764Y-105763691D01*
X144862057Y-106045000D01*
X144889764Y-106326309D01*
X144971818Y-106596808D01*
X145105068Y-106846101D01*
X145284392Y-107064608D01*
X145502899Y-107243932D01*
X145635858Y-107315000D01*
X145502899Y-107386068D01*
X145284392Y-107565392D01*
X145105068Y-107783899D01*
X144971818Y-108033192D01*
X144889764Y-108303691D01*
X144862057Y-108585000D01*
X144889764Y-108866309D01*
X144971818Y-109136808D01*
X145105068Y-109386101D01*
X145284392Y-109604608D01*
X145502899Y-109783932D01*
X145640682Y-109857579D01*
X145448869Y-109972615D01*
X145240481Y-110161586D01*
X145072963Y-110387580D01*
X144952754Y-110641913D01*
X144912096Y-110775961D01*
X145034085Y-110998000D01*
X146177000Y-110998000D01*
X146177000Y-110978000D01*
X146431000Y-110978000D01*
X146431000Y-110998000D01*
X147573915Y-110998000D01*
X147695904Y-110775961D01*
X147655246Y-110641913D01*
X147535037Y-110387580D01*
X147367519Y-110161586D01*
X147159131Y-109972615D01*
X146967318Y-109857579D01*
X147105101Y-109783932D01*
X147323608Y-109604608D01*
X147502932Y-109386101D01*
X147636182Y-109136808D01*
X147649471Y-109093000D01*
X148295928Y-109093000D01*
X148295928Y-110081000D01*
X148304000Y-110162960D01*
X148304001Y-113967615D01*
X148197160Y-113914911D01*
X147862295Y-113825140D01*
X147516350Y-113802424D01*
X147172620Y-113847634D01*
X146844315Y-113959034D01*
X146639921Y-114068286D01*
X146529074Y-114345469D01*
X147574000Y-115390395D01*
X147588143Y-115376253D01*
X147767748Y-115555858D01*
X147753605Y-115570000D01*
X147767748Y-115584143D01*
X147588143Y-115763748D01*
X147574000Y-115749605D01*
X146529074Y-116794531D01*
X146639921Y-117071714D01*
X146950840Y-117225089D01*
X147285705Y-117314860D01*
X147631650Y-117337576D01*
X147975380Y-117292366D01*
X148303685Y-117180966D01*
X148304447Y-117180559D01*
X148316082Y-117298688D01*
X148363828Y-117456086D01*
X148363829Y-117456087D01*
X148441365Y-117601146D01*
X148506829Y-117680915D01*
X148454000Y-117946504D01*
X148454000Y-118273496D01*
X148517793Y-118594204D01*
X148642927Y-118896305D01*
X148824594Y-119168188D01*
X149055812Y-119399406D01*
X149327695Y-119581073D01*
X149629796Y-119706207D01*
X149950504Y-119770000D01*
X150277496Y-119770000D01*
X150598204Y-119706207D01*
X150900305Y-119581073D01*
X151133182Y-119425469D01*
X151609074Y-119425469D01*
X152654000Y-120470395D01*
X153698926Y-119425469D01*
X153588079Y-119148286D01*
X153277160Y-118994911D01*
X152942295Y-118905140D01*
X152596350Y-118882424D01*
X152252620Y-118927634D01*
X151924315Y-119039034D01*
X151719921Y-119148286D01*
X151609074Y-119425469D01*
X151133182Y-119425469D01*
X151172188Y-119399406D01*
X151403406Y-119168188D01*
X151585073Y-118896305D01*
X151710207Y-118594204D01*
X151774000Y-118273496D01*
X151774000Y-117946504D01*
X151710207Y-117625796D01*
X151585073Y-117323695D01*
X151403406Y-117051812D01*
X151172188Y-116820594D01*
X151133183Y-116794531D01*
X151609074Y-116794531D01*
X151719921Y-117071714D01*
X152030840Y-117225089D01*
X152365705Y-117314860D01*
X152711650Y-117337576D01*
X153055380Y-117292366D01*
X153383685Y-117180966D01*
X153588079Y-117071714D01*
X153698926Y-116794531D01*
X152654000Y-115749605D01*
X151609074Y-116794531D01*
X151133183Y-116794531D01*
X150900305Y-116638927D01*
X150598204Y-116513793D01*
X150277496Y-116450000D01*
X149974000Y-116450000D01*
X149974000Y-115627650D01*
X150886424Y-115627650D01*
X150931634Y-115971380D01*
X151043034Y-116299685D01*
X151152286Y-116504079D01*
X151429469Y-116614926D01*
X152474395Y-115570000D01*
X152833605Y-115570000D01*
X153878531Y-116614926D01*
X154155714Y-116504079D01*
X154309089Y-116193160D01*
X154398860Y-115858295D01*
X154421576Y-115512350D01*
X154376366Y-115168620D01*
X154264966Y-114840315D01*
X154155714Y-114635921D01*
X153878531Y-114525074D01*
X152833605Y-115570000D01*
X152474395Y-115570000D01*
X151429469Y-114525074D01*
X151152286Y-114635921D01*
X150998911Y-114946840D01*
X150909140Y-115281705D01*
X150886424Y-115627650D01*
X149974000Y-115627650D01*
X149974000Y-114345469D01*
X151609074Y-114345469D01*
X152654000Y-115390395D01*
X153698926Y-114345469D01*
X153588079Y-114068286D01*
X153277160Y-113914911D01*
X152942295Y-113825140D01*
X152596350Y-113802424D01*
X152252620Y-113847634D01*
X151924315Y-113959034D01*
X151719921Y-114068286D01*
X151609074Y-114345469D01*
X149974000Y-114345469D01*
X149974000Y-112045409D01*
X150815018Y-112886427D01*
X150841168Y-112918292D01*
X150968313Y-113022637D01*
X151113372Y-113100173D01*
X151270770Y-113147919D01*
X151393440Y-113160001D01*
X151393450Y-113160001D01*
X151434458Y-113164040D01*
X151475466Y-113160001D01*
X154458983Y-113160001D01*
X154500001Y-113164041D01*
X154541019Y-113160001D01*
X154541020Y-113160001D01*
X154663690Y-113147919D01*
X154821088Y-113100173D01*
X154966147Y-113022637D01*
X155093292Y-112918292D01*
X155119447Y-112886423D01*
X155515001Y-112490869D01*
X155515001Y-122114000D01*
X153603161Y-122114000D01*
X153698926Y-121874531D01*
X152654000Y-120829605D01*
X151609074Y-121874531D01*
X151704839Y-122114000D01*
X148523161Y-122114000D01*
X148618926Y-121874531D01*
X147574000Y-120829605D01*
X146529074Y-121874531D01*
X146624839Y-122114000D01*
X144713000Y-122114000D01*
X144713000Y-120707650D01*
X145806424Y-120707650D01*
X145851634Y-121051380D01*
X145963034Y-121379685D01*
X146072286Y-121584079D01*
X146349469Y-121694926D01*
X147394395Y-120650000D01*
X147753605Y-120650000D01*
X148798531Y-121694926D01*
X149075714Y-121584079D01*
X149229089Y-121273160D01*
X149318860Y-120938295D01*
X149334004Y-120707650D01*
X150886424Y-120707650D01*
X150931634Y-121051380D01*
X151043034Y-121379685D01*
X151152286Y-121584079D01*
X151429469Y-121694926D01*
X152474395Y-120650000D01*
X152833605Y-120650000D01*
X153878531Y-121694926D01*
X154155714Y-121584079D01*
X154309089Y-121273160D01*
X154398860Y-120938295D01*
X154421576Y-120592350D01*
X154376366Y-120248620D01*
X154264966Y-119920315D01*
X154155714Y-119715921D01*
X153878531Y-119605074D01*
X152833605Y-120650000D01*
X152474395Y-120650000D01*
X151429469Y-119605074D01*
X151152286Y-119715921D01*
X150998911Y-120026840D01*
X150909140Y-120361705D01*
X150886424Y-120707650D01*
X149334004Y-120707650D01*
X149341576Y-120592350D01*
X149296366Y-120248620D01*
X149184966Y-119920315D01*
X149075714Y-119715921D01*
X148798531Y-119605074D01*
X147753605Y-120650000D01*
X147394395Y-120650000D01*
X146349469Y-119605074D01*
X146072286Y-119715921D01*
X145918911Y-120026840D01*
X145829140Y-120361705D01*
X145806424Y-120707650D01*
X144713000Y-120707650D01*
X144713000Y-119425469D01*
X146529074Y-119425469D01*
X147574000Y-120470395D01*
X148618926Y-119425469D01*
X148508079Y-119148286D01*
X148197160Y-118994911D01*
X147862295Y-118905140D01*
X147516350Y-118882424D01*
X147172620Y-118927634D01*
X146844315Y-119039034D01*
X146639921Y-119148286D01*
X146529074Y-119425469D01*
X144713000Y-119425469D01*
X144713000Y-115627650D01*
X145806424Y-115627650D01*
X145851634Y-115971380D01*
X145963034Y-116299685D01*
X146072286Y-116504079D01*
X146349469Y-116614926D01*
X147394395Y-115570000D01*
X146349469Y-114525074D01*
X146072286Y-114635921D01*
X145918911Y-114946840D01*
X145829140Y-115281705D01*
X145806424Y-115627650D01*
X144713000Y-115627650D01*
X144713000Y-111474039D01*
X144912096Y-111474039D01*
X144952754Y-111608087D01*
X145072963Y-111862420D01*
X145240481Y-112088414D01*
X145448869Y-112277385D01*
X145690119Y-112422070D01*
X145954960Y-112516909D01*
X146177000Y-112395624D01*
X146177000Y-111252000D01*
X146431000Y-111252000D01*
X146431000Y-112395624D01*
X146653040Y-112516909D01*
X146917881Y-112422070D01*
X147159131Y-112277385D01*
X147367519Y-112088414D01*
X147535037Y-111862420D01*
X147655246Y-111608087D01*
X147695904Y-111474039D01*
X147573915Y-111252000D01*
X146431000Y-111252000D01*
X146177000Y-111252000D01*
X145034085Y-111252000D01*
X144912096Y-111474039D01*
X144713000Y-111474039D01*
X144713000Y-92089000D01*
X145040928Y-92089000D01*
X145044000Y-92678250D01*
X145202750Y-92837000D01*
X146177000Y-92837000D01*
X146177000Y-91612750D01*
X146431000Y-91612750D01*
X146431000Y-92837000D01*
X147405250Y-92837000D01*
X147564000Y-92678250D01*
X147567072Y-92089000D01*
X147554812Y-91964518D01*
X147518502Y-91844820D01*
X147459537Y-91734506D01*
X147380185Y-91637815D01*
X147283494Y-91558463D01*
X147173180Y-91499498D01*
X147053482Y-91463188D01*
X146929000Y-91450928D01*
X146589750Y-91454000D01*
X146431000Y-91612750D01*
X146177000Y-91612750D01*
X146018250Y-91454000D01*
X145679000Y-91450928D01*
X145554518Y-91463188D01*
X145434820Y-91499498D01*
X145324506Y-91558463D01*
X145227815Y-91637815D01*
X145148463Y-91734506D01*
X145089498Y-91844820D01*
X145053188Y-91964518D01*
X145040928Y-92089000D01*
X144713000Y-92089000D01*
X144713000Y-90865000D01*
X155515000Y-90865000D01*
X155515000Y-101999133D01*
G36*
X152591818Y-109136808D02*
G01*
X152725068Y-109386101D01*
X152904392Y-109604608D01*
X153122899Y-109783932D01*
X153255858Y-109855000D01*
X153122899Y-109926068D01*
X152904392Y-110105392D01*
X152752888Y-110290000D01*
X151894628Y-110290000D01*
X151921539Y-110196459D01*
X151932006Y-110071813D01*
X151929000Y-109581750D01*
X151770250Y-109423000D01*
X151282072Y-109423000D01*
X151282072Y-109169000D01*
X151770250Y-109169000D01*
X151846250Y-109093000D01*
X152578529Y-109093000D01*
X152591818Y-109136808D01*
X152591818Y-109136808D01*
G37*
X152591818Y-109136808D02*
X152725068Y-109386101D01*
X152904392Y-109604608D01*
X153122899Y-109783932D01*
X153255858Y-109855000D01*
X153122899Y-109926068D01*
X152904392Y-110105392D01*
X152752888Y-110290000D01*
X151894628Y-110290000D01*
X151921539Y-110196459D01*
X151932006Y-110071813D01*
X151929000Y-109581750D01*
X151770250Y-109423000D01*
X151282072Y-109423000D01*
X151282072Y-109169000D01*
X151770250Y-109169000D01*
X151846250Y-109093000D01*
X152578529Y-109093000D01*
X152591818Y-109136808D01*
M02*
