G04 #@! TF.GenerationSoftware,KiCad,Pcbnew,(5.1.4)-1*
G04 #@! TF.CreationDate,2019-08-27T16:30:30-04:00*
G04 #@! TF.ProjectId,clock_buffer,636c6f63-6b5f-4627-9566-6665722e6b69,rev?*
G04 #@! TF.SameCoordinates,Original*
G04 #@! TF.FileFunction,Copper,L1,Top*
G04 #@! TF.FilePolarity,Positive*
%FSLAX46Y46*%
G04 Gerber Fmt 4.6, Leading zero omitted, Abs format (unit mm)*
G04 Created by KiCad (PCBNEW (5.1.4)-1) date 2019-08-27 16:30:30*
%MOMM*%
%LPD*%
G04 APERTURE LIST*
%ADD10C,0.100000*%
%ADD11C,0.875000*%
%ADD12C,0.975000*%
%ADD13R,0.410000X1.570000*%
%ADD14C,1.250000*%
%ADD15O,1.600000X1.600000*%
%ADD16R,1.600000X1.600000*%
%ADD17C,2.250000*%
%ADD18C,2.050000*%
%ADD19C,0.800000*%
%ADD20C,0.900000*%
%ADD21C,1.000000*%
%ADD22C,0.400000*%
%ADD23C,1.500000*%
%ADD24C,0.254000*%
G04 APERTURE END LIST*
D10*
G36*
X148613691Y-111628553D02*
G01*
X148634926Y-111631703D01*
X148655750Y-111636919D01*
X148675962Y-111644151D01*
X148695368Y-111653330D01*
X148713781Y-111664366D01*
X148731024Y-111677154D01*
X148746930Y-111691570D01*
X148761346Y-111707476D01*
X148774134Y-111724719D01*
X148785170Y-111743132D01*
X148794349Y-111762538D01*
X148801581Y-111782750D01*
X148806797Y-111803574D01*
X148809947Y-111824809D01*
X148811000Y-111846250D01*
X148811000Y-112283750D01*
X148809947Y-112305191D01*
X148806797Y-112326426D01*
X148801581Y-112347250D01*
X148794349Y-112367462D01*
X148785170Y-112386868D01*
X148774134Y-112405281D01*
X148761346Y-112422524D01*
X148746930Y-112438430D01*
X148731024Y-112452846D01*
X148713781Y-112465634D01*
X148695368Y-112476670D01*
X148675962Y-112485849D01*
X148655750Y-112493081D01*
X148634926Y-112498297D01*
X148613691Y-112501447D01*
X148592250Y-112502500D01*
X148079750Y-112502500D01*
X148058309Y-112501447D01*
X148037074Y-112498297D01*
X148016250Y-112493081D01*
X147996038Y-112485849D01*
X147976632Y-112476670D01*
X147958219Y-112465634D01*
X147940976Y-112452846D01*
X147925070Y-112438430D01*
X147910654Y-112422524D01*
X147897866Y-112405281D01*
X147886830Y-112386868D01*
X147877651Y-112367462D01*
X147870419Y-112347250D01*
X147865203Y-112326426D01*
X147862053Y-112305191D01*
X147861000Y-112283750D01*
X147861000Y-111846250D01*
X147862053Y-111824809D01*
X147865203Y-111803574D01*
X147870419Y-111782750D01*
X147877651Y-111762538D01*
X147886830Y-111743132D01*
X147897866Y-111724719D01*
X147910654Y-111707476D01*
X147925070Y-111691570D01*
X147940976Y-111677154D01*
X147958219Y-111664366D01*
X147976632Y-111653330D01*
X147996038Y-111644151D01*
X148016250Y-111636919D01*
X148037074Y-111631703D01*
X148058309Y-111628553D01*
X148079750Y-111627500D01*
X148592250Y-111627500D01*
X148613691Y-111628553D01*
X148613691Y-111628553D01*
G37*
D11*
X148336000Y-112065000D03*
D10*
G36*
X148613691Y-110053553D02*
G01*
X148634926Y-110056703D01*
X148655750Y-110061919D01*
X148675962Y-110069151D01*
X148695368Y-110078330D01*
X148713781Y-110089366D01*
X148731024Y-110102154D01*
X148746930Y-110116570D01*
X148761346Y-110132476D01*
X148774134Y-110149719D01*
X148785170Y-110168132D01*
X148794349Y-110187538D01*
X148801581Y-110207750D01*
X148806797Y-110228574D01*
X148809947Y-110249809D01*
X148811000Y-110271250D01*
X148811000Y-110708750D01*
X148809947Y-110730191D01*
X148806797Y-110751426D01*
X148801581Y-110772250D01*
X148794349Y-110792462D01*
X148785170Y-110811868D01*
X148774134Y-110830281D01*
X148761346Y-110847524D01*
X148746930Y-110863430D01*
X148731024Y-110877846D01*
X148713781Y-110890634D01*
X148695368Y-110901670D01*
X148675962Y-110910849D01*
X148655750Y-110918081D01*
X148634926Y-110923297D01*
X148613691Y-110926447D01*
X148592250Y-110927500D01*
X148079750Y-110927500D01*
X148058309Y-110926447D01*
X148037074Y-110923297D01*
X148016250Y-110918081D01*
X147996038Y-110910849D01*
X147976632Y-110901670D01*
X147958219Y-110890634D01*
X147940976Y-110877846D01*
X147925070Y-110863430D01*
X147910654Y-110847524D01*
X147897866Y-110830281D01*
X147886830Y-110811868D01*
X147877651Y-110792462D01*
X147870419Y-110772250D01*
X147865203Y-110751426D01*
X147862053Y-110730191D01*
X147861000Y-110708750D01*
X147861000Y-110271250D01*
X147862053Y-110249809D01*
X147865203Y-110228574D01*
X147870419Y-110207750D01*
X147877651Y-110187538D01*
X147886830Y-110168132D01*
X147897866Y-110149719D01*
X147910654Y-110132476D01*
X147925070Y-110116570D01*
X147940976Y-110102154D01*
X147958219Y-110089366D01*
X147976632Y-110078330D01*
X147996038Y-110069151D01*
X148016250Y-110061919D01*
X148037074Y-110056703D01*
X148058309Y-110053553D01*
X148079750Y-110052500D01*
X148592250Y-110052500D01*
X148613691Y-110053553D01*
X148613691Y-110053553D01*
G37*
D11*
X148336000Y-110490000D03*
D10*
G36*
X151915691Y-110053553D02*
G01*
X151936926Y-110056703D01*
X151957750Y-110061919D01*
X151977962Y-110069151D01*
X151997368Y-110078330D01*
X152015781Y-110089366D01*
X152033024Y-110102154D01*
X152048930Y-110116570D01*
X152063346Y-110132476D01*
X152076134Y-110149719D01*
X152087170Y-110168132D01*
X152096349Y-110187538D01*
X152103581Y-110207750D01*
X152108797Y-110228574D01*
X152111947Y-110249809D01*
X152113000Y-110271250D01*
X152113000Y-110708750D01*
X152111947Y-110730191D01*
X152108797Y-110751426D01*
X152103581Y-110772250D01*
X152096349Y-110792462D01*
X152087170Y-110811868D01*
X152076134Y-110830281D01*
X152063346Y-110847524D01*
X152048930Y-110863430D01*
X152033024Y-110877846D01*
X152015781Y-110890634D01*
X151997368Y-110901670D01*
X151977962Y-110910849D01*
X151957750Y-110918081D01*
X151936926Y-110923297D01*
X151915691Y-110926447D01*
X151894250Y-110927500D01*
X151381750Y-110927500D01*
X151360309Y-110926447D01*
X151339074Y-110923297D01*
X151318250Y-110918081D01*
X151298038Y-110910849D01*
X151278632Y-110901670D01*
X151260219Y-110890634D01*
X151242976Y-110877846D01*
X151227070Y-110863430D01*
X151212654Y-110847524D01*
X151199866Y-110830281D01*
X151188830Y-110811868D01*
X151179651Y-110792462D01*
X151172419Y-110772250D01*
X151167203Y-110751426D01*
X151164053Y-110730191D01*
X151163000Y-110708750D01*
X151163000Y-110271250D01*
X151164053Y-110249809D01*
X151167203Y-110228574D01*
X151172419Y-110207750D01*
X151179651Y-110187538D01*
X151188830Y-110168132D01*
X151199866Y-110149719D01*
X151212654Y-110132476D01*
X151227070Y-110116570D01*
X151242976Y-110102154D01*
X151260219Y-110089366D01*
X151278632Y-110078330D01*
X151298038Y-110069151D01*
X151318250Y-110061919D01*
X151339074Y-110056703D01*
X151360309Y-110053553D01*
X151381750Y-110052500D01*
X151894250Y-110052500D01*
X151915691Y-110053553D01*
X151915691Y-110053553D01*
G37*
D11*
X151638000Y-110490000D03*
D10*
G36*
X151915691Y-111628553D02*
G01*
X151936926Y-111631703D01*
X151957750Y-111636919D01*
X151977962Y-111644151D01*
X151997368Y-111653330D01*
X152015781Y-111664366D01*
X152033024Y-111677154D01*
X152048930Y-111691570D01*
X152063346Y-111707476D01*
X152076134Y-111724719D01*
X152087170Y-111743132D01*
X152096349Y-111762538D01*
X152103581Y-111782750D01*
X152108797Y-111803574D01*
X152111947Y-111824809D01*
X152113000Y-111846250D01*
X152113000Y-112283750D01*
X152111947Y-112305191D01*
X152108797Y-112326426D01*
X152103581Y-112347250D01*
X152096349Y-112367462D01*
X152087170Y-112386868D01*
X152076134Y-112405281D01*
X152063346Y-112422524D01*
X152048930Y-112438430D01*
X152033024Y-112452846D01*
X152015781Y-112465634D01*
X151997368Y-112476670D01*
X151977962Y-112485849D01*
X151957750Y-112493081D01*
X151936926Y-112498297D01*
X151915691Y-112501447D01*
X151894250Y-112502500D01*
X151381750Y-112502500D01*
X151360309Y-112501447D01*
X151339074Y-112498297D01*
X151318250Y-112493081D01*
X151298038Y-112485849D01*
X151278632Y-112476670D01*
X151260219Y-112465634D01*
X151242976Y-112452846D01*
X151227070Y-112438430D01*
X151212654Y-112422524D01*
X151199866Y-112405281D01*
X151188830Y-112386868D01*
X151179651Y-112367462D01*
X151172419Y-112347250D01*
X151167203Y-112326426D01*
X151164053Y-112305191D01*
X151163000Y-112283750D01*
X151163000Y-111846250D01*
X151164053Y-111824809D01*
X151167203Y-111803574D01*
X151172419Y-111782750D01*
X151179651Y-111762538D01*
X151188830Y-111743132D01*
X151199866Y-111724719D01*
X151212654Y-111707476D01*
X151227070Y-111691570D01*
X151242976Y-111677154D01*
X151260219Y-111664366D01*
X151278632Y-111653330D01*
X151298038Y-111644151D01*
X151318250Y-111636919D01*
X151339074Y-111631703D01*
X151360309Y-111628553D01*
X151381750Y-111627500D01*
X151894250Y-111627500D01*
X151915691Y-111628553D01*
X151915691Y-111628553D01*
G37*
D11*
X151638000Y-112065000D03*
D10*
G36*
X148477691Y-100738553D02*
G01*
X148498926Y-100741703D01*
X148519750Y-100746919D01*
X148539962Y-100754151D01*
X148559368Y-100763330D01*
X148577781Y-100774366D01*
X148595024Y-100787154D01*
X148610930Y-100801570D01*
X148625346Y-100817476D01*
X148638134Y-100834719D01*
X148649170Y-100853132D01*
X148658349Y-100872538D01*
X148665581Y-100892750D01*
X148670797Y-100913574D01*
X148673947Y-100934809D01*
X148675000Y-100956250D01*
X148675000Y-101393750D01*
X148673947Y-101415191D01*
X148670797Y-101436426D01*
X148665581Y-101457250D01*
X148658349Y-101477462D01*
X148649170Y-101496868D01*
X148638134Y-101515281D01*
X148625346Y-101532524D01*
X148610930Y-101548430D01*
X148595024Y-101562846D01*
X148577781Y-101575634D01*
X148559368Y-101586670D01*
X148539962Y-101595849D01*
X148519750Y-101603081D01*
X148498926Y-101608297D01*
X148477691Y-101611447D01*
X148456250Y-101612500D01*
X147943750Y-101612500D01*
X147922309Y-101611447D01*
X147901074Y-101608297D01*
X147880250Y-101603081D01*
X147860038Y-101595849D01*
X147840632Y-101586670D01*
X147822219Y-101575634D01*
X147804976Y-101562846D01*
X147789070Y-101548430D01*
X147774654Y-101532524D01*
X147761866Y-101515281D01*
X147750830Y-101496868D01*
X147741651Y-101477462D01*
X147734419Y-101457250D01*
X147729203Y-101436426D01*
X147726053Y-101415191D01*
X147725000Y-101393750D01*
X147725000Y-100956250D01*
X147726053Y-100934809D01*
X147729203Y-100913574D01*
X147734419Y-100892750D01*
X147741651Y-100872538D01*
X147750830Y-100853132D01*
X147761866Y-100834719D01*
X147774654Y-100817476D01*
X147789070Y-100801570D01*
X147804976Y-100787154D01*
X147822219Y-100774366D01*
X147840632Y-100763330D01*
X147860038Y-100754151D01*
X147880250Y-100746919D01*
X147901074Y-100741703D01*
X147922309Y-100738553D01*
X147943750Y-100737500D01*
X148456250Y-100737500D01*
X148477691Y-100738553D01*
X148477691Y-100738553D01*
G37*
D11*
X148200000Y-101175000D03*
D10*
G36*
X148477691Y-99163553D02*
G01*
X148498926Y-99166703D01*
X148519750Y-99171919D01*
X148539962Y-99179151D01*
X148559368Y-99188330D01*
X148577781Y-99199366D01*
X148595024Y-99212154D01*
X148610930Y-99226570D01*
X148625346Y-99242476D01*
X148638134Y-99259719D01*
X148649170Y-99278132D01*
X148658349Y-99297538D01*
X148665581Y-99317750D01*
X148670797Y-99338574D01*
X148673947Y-99359809D01*
X148675000Y-99381250D01*
X148675000Y-99818750D01*
X148673947Y-99840191D01*
X148670797Y-99861426D01*
X148665581Y-99882250D01*
X148658349Y-99902462D01*
X148649170Y-99921868D01*
X148638134Y-99940281D01*
X148625346Y-99957524D01*
X148610930Y-99973430D01*
X148595024Y-99987846D01*
X148577781Y-100000634D01*
X148559368Y-100011670D01*
X148539962Y-100020849D01*
X148519750Y-100028081D01*
X148498926Y-100033297D01*
X148477691Y-100036447D01*
X148456250Y-100037500D01*
X147943750Y-100037500D01*
X147922309Y-100036447D01*
X147901074Y-100033297D01*
X147880250Y-100028081D01*
X147860038Y-100020849D01*
X147840632Y-100011670D01*
X147822219Y-100000634D01*
X147804976Y-99987846D01*
X147789070Y-99973430D01*
X147774654Y-99957524D01*
X147761866Y-99940281D01*
X147750830Y-99921868D01*
X147741651Y-99902462D01*
X147734419Y-99882250D01*
X147729203Y-99861426D01*
X147726053Y-99840191D01*
X147725000Y-99818750D01*
X147725000Y-99381250D01*
X147726053Y-99359809D01*
X147729203Y-99338574D01*
X147734419Y-99317750D01*
X147741651Y-99297538D01*
X147750830Y-99278132D01*
X147761866Y-99259719D01*
X147774654Y-99242476D01*
X147789070Y-99226570D01*
X147804976Y-99212154D01*
X147822219Y-99199366D01*
X147840632Y-99188330D01*
X147860038Y-99179151D01*
X147880250Y-99171919D01*
X147901074Y-99166703D01*
X147922309Y-99163553D01*
X147943750Y-99162500D01*
X148456250Y-99162500D01*
X148477691Y-99163553D01*
X148477691Y-99163553D01*
G37*
D11*
X148200000Y-99600000D03*
D10*
G36*
X157239642Y-112839174D02*
G01*
X157263303Y-112842684D01*
X157286507Y-112848496D01*
X157309029Y-112856554D01*
X157330653Y-112866782D01*
X157351170Y-112879079D01*
X157370383Y-112893329D01*
X157388107Y-112909393D01*
X157404171Y-112927117D01*
X157418421Y-112946330D01*
X157430718Y-112966847D01*
X157440946Y-112988471D01*
X157449004Y-113010993D01*
X157454816Y-113034197D01*
X157458326Y-113057858D01*
X157459500Y-113081750D01*
X157459500Y-113994250D01*
X157458326Y-114018142D01*
X157454816Y-114041803D01*
X157449004Y-114065007D01*
X157440946Y-114087529D01*
X157430718Y-114109153D01*
X157418421Y-114129670D01*
X157404171Y-114148883D01*
X157388107Y-114166607D01*
X157370383Y-114182671D01*
X157351170Y-114196921D01*
X157330653Y-114209218D01*
X157309029Y-114219446D01*
X157286507Y-114227504D01*
X157263303Y-114233316D01*
X157239642Y-114236826D01*
X157215750Y-114238000D01*
X156728250Y-114238000D01*
X156704358Y-114236826D01*
X156680697Y-114233316D01*
X156657493Y-114227504D01*
X156634971Y-114219446D01*
X156613347Y-114209218D01*
X156592830Y-114196921D01*
X156573617Y-114182671D01*
X156555893Y-114166607D01*
X156539829Y-114148883D01*
X156525579Y-114129670D01*
X156513282Y-114109153D01*
X156503054Y-114087529D01*
X156494996Y-114065007D01*
X156489184Y-114041803D01*
X156485674Y-114018142D01*
X156484500Y-113994250D01*
X156484500Y-113081750D01*
X156485674Y-113057858D01*
X156489184Y-113034197D01*
X156494996Y-113010993D01*
X156503054Y-112988471D01*
X156513282Y-112966847D01*
X156525579Y-112946330D01*
X156539829Y-112927117D01*
X156555893Y-112909393D01*
X156573617Y-112893329D01*
X156592830Y-112879079D01*
X156613347Y-112866782D01*
X156634971Y-112856554D01*
X156657493Y-112848496D01*
X156680697Y-112842684D01*
X156704358Y-112839174D01*
X156728250Y-112838000D01*
X157215750Y-112838000D01*
X157239642Y-112839174D01*
X157239642Y-112839174D01*
G37*
D12*
X156972000Y-113538000D03*
D10*
G36*
X155364642Y-112839174D02*
G01*
X155388303Y-112842684D01*
X155411507Y-112848496D01*
X155434029Y-112856554D01*
X155455653Y-112866782D01*
X155476170Y-112879079D01*
X155495383Y-112893329D01*
X155513107Y-112909393D01*
X155529171Y-112927117D01*
X155543421Y-112946330D01*
X155555718Y-112966847D01*
X155565946Y-112988471D01*
X155574004Y-113010993D01*
X155579816Y-113034197D01*
X155583326Y-113057858D01*
X155584500Y-113081750D01*
X155584500Y-113994250D01*
X155583326Y-114018142D01*
X155579816Y-114041803D01*
X155574004Y-114065007D01*
X155565946Y-114087529D01*
X155555718Y-114109153D01*
X155543421Y-114129670D01*
X155529171Y-114148883D01*
X155513107Y-114166607D01*
X155495383Y-114182671D01*
X155476170Y-114196921D01*
X155455653Y-114209218D01*
X155434029Y-114219446D01*
X155411507Y-114227504D01*
X155388303Y-114233316D01*
X155364642Y-114236826D01*
X155340750Y-114238000D01*
X154853250Y-114238000D01*
X154829358Y-114236826D01*
X154805697Y-114233316D01*
X154782493Y-114227504D01*
X154759971Y-114219446D01*
X154738347Y-114209218D01*
X154717830Y-114196921D01*
X154698617Y-114182671D01*
X154680893Y-114166607D01*
X154664829Y-114148883D01*
X154650579Y-114129670D01*
X154638282Y-114109153D01*
X154628054Y-114087529D01*
X154619996Y-114065007D01*
X154614184Y-114041803D01*
X154610674Y-114018142D01*
X154609500Y-113994250D01*
X154609500Y-113081750D01*
X154610674Y-113057858D01*
X154614184Y-113034197D01*
X154619996Y-113010993D01*
X154628054Y-112988471D01*
X154638282Y-112966847D01*
X154650579Y-112946330D01*
X154664829Y-112927117D01*
X154680893Y-112909393D01*
X154698617Y-112893329D01*
X154717830Y-112879079D01*
X154738347Y-112866782D01*
X154759971Y-112856554D01*
X154782493Y-112848496D01*
X154805697Y-112842684D01*
X154829358Y-112839174D01*
X154853250Y-112838000D01*
X155340750Y-112838000D01*
X155364642Y-112839174D01*
X155364642Y-112839174D01*
G37*
D12*
X155097000Y-113538000D03*
D10*
G36*
X156944142Y-101143674D02*
G01*
X156967803Y-101147184D01*
X156991007Y-101152996D01*
X157013529Y-101161054D01*
X157035153Y-101171282D01*
X157055670Y-101183579D01*
X157074883Y-101197829D01*
X157092607Y-101213893D01*
X157108671Y-101231617D01*
X157122921Y-101250830D01*
X157135218Y-101271347D01*
X157145446Y-101292971D01*
X157153504Y-101315493D01*
X157159316Y-101338697D01*
X157162826Y-101362358D01*
X157164000Y-101386250D01*
X157164000Y-101873750D01*
X157162826Y-101897642D01*
X157159316Y-101921303D01*
X157153504Y-101944507D01*
X157145446Y-101967029D01*
X157135218Y-101988653D01*
X157122921Y-102009170D01*
X157108671Y-102028383D01*
X157092607Y-102046107D01*
X157074883Y-102062171D01*
X157055670Y-102076421D01*
X157035153Y-102088718D01*
X157013529Y-102098946D01*
X156991007Y-102107004D01*
X156967803Y-102112816D01*
X156944142Y-102116326D01*
X156920250Y-102117500D01*
X156007750Y-102117500D01*
X155983858Y-102116326D01*
X155960197Y-102112816D01*
X155936993Y-102107004D01*
X155914471Y-102098946D01*
X155892847Y-102088718D01*
X155872330Y-102076421D01*
X155853117Y-102062171D01*
X155835393Y-102046107D01*
X155819329Y-102028383D01*
X155805079Y-102009170D01*
X155792782Y-101988653D01*
X155782554Y-101967029D01*
X155774496Y-101944507D01*
X155768684Y-101921303D01*
X155765174Y-101897642D01*
X155764000Y-101873750D01*
X155764000Y-101386250D01*
X155765174Y-101362358D01*
X155768684Y-101338697D01*
X155774496Y-101315493D01*
X155782554Y-101292971D01*
X155792782Y-101271347D01*
X155805079Y-101250830D01*
X155819329Y-101231617D01*
X155835393Y-101213893D01*
X155853117Y-101197829D01*
X155872330Y-101183579D01*
X155892847Y-101171282D01*
X155914471Y-101161054D01*
X155936993Y-101152996D01*
X155960197Y-101147184D01*
X155983858Y-101143674D01*
X156007750Y-101142500D01*
X156920250Y-101142500D01*
X156944142Y-101143674D01*
X156944142Y-101143674D01*
G37*
D12*
X156464000Y-101630000D03*
D10*
G36*
X156944142Y-103018674D02*
G01*
X156967803Y-103022184D01*
X156991007Y-103027996D01*
X157013529Y-103036054D01*
X157035153Y-103046282D01*
X157055670Y-103058579D01*
X157074883Y-103072829D01*
X157092607Y-103088893D01*
X157108671Y-103106617D01*
X157122921Y-103125830D01*
X157135218Y-103146347D01*
X157145446Y-103167971D01*
X157153504Y-103190493D01*
X157159316Y-103213697D01*
X157162826Y-103237358D01*
X157164000Y-103261250D01*
X157164000Y-103748750D01*
X157162826Y-103772642D01*
X157159316Y-103796303D01*
X157153504Y-103819507D01*
X157145446Y-103842029D01*
X157135218Y-103863653D01*
X157122921Y-103884170D01*
X157108671Y-103903383D01*
X157092607Y-103921107D01*
X157074883Y-103937171D01*
X157055670Y-103951421D01*
X157035153Y-103963718D01*
X157013529Y-103973946D01*
X156991007Y-103982004D01*
X156967803Y-103987816D01*
X156944142Y-103991326D01*
X156920250Y-103992500D01*
X156007750Y-103992500D01*
X155983858Y-103991326D01*
X155960197Y-103987816D01*
X155936993Y-103982004D01*
X155914471Y-103973946D01*
X155892847Y-103963718D01*
X155872330Y-103951421D01*
X155853117Y-103937171D01*
X155835393Y-103921107D01*
X155819329Y-103903383D01*
X155805079Y-103884170D01*
X155792782Y-103863653D01*
X155782554Y-103842029D01*
X155774496Y-103819507D01*
X155768684Y-103796303D01*
X155765174Y-103772642D01*
X155764000Y-103748750D01*
X155764000Y-103261250D01*
X155765174Y-103237358D01*
X155768684Y-103213697D01*
X155774496Y-103190493D01*
X155782554Y-103167971D01*
X155792782Y-103146347D01*
X155805079Y-103125830D01*
X155819329Y-103106617D01*
X155835393Y-103088893D01*
X155853117Y-103072829D01*
X155872330Y-103058579D01*
X155892847Y-103046282D01*
X155914471Y-103036054D01*
X155936993Y-103027996D01*
X155960197Y-103022184D01*
X155983858Y-103018674D01*
X156007750Y-103017500D01*
X156920250Y-103017500D01*
X156944142Y-103018674D01*
X156944142Y-103018674D01*
G37*
D12*
X156464000Y-103505000D03*
D13*
X151089000Y-108661000D03*
X150439000Y-108661000D03*
X149789000Y-108661000D03*
X149139000Y-108661000D03*
X149139000Y-102921000D03*
X149789000Y-102921000D03*
X150439000Y-102921000D03*
X151089000Y-102921000D03*
D10*
G36*
X157304004Y-107395704D02*
G01*
X157328273Y-107399304D01*
X157352071Y-107405265D01*
X157375171Y-107413530D01*
X157397349Y-107424020D01*
X157418393Y-107436633D01*
X157438098Y-107451247D01*
X157456277Y-107467723D01*
X157472753Y-107485902D01*
X157487367Y-107505607D01*
X157499980Y-107526651D01*
X157510470Y-107548829D01*
X157518735Y-107571929D01*
X157524696Y-107595727D01*
X157528296Y-107619996D01*
X157529500Y-107644500D01*
X157529500Y-108394500D01*
X157528296Y-108419004D01*
X157524696Y-108443273D01*
X157518735Y-108467071D01*
X157510470Y-108490171D01*
X157499980Y-108512349D01*
X157487367Y-108533393D01*
X157472753Y-108553098D01*
X157456277Y-108571277D01*
X157438098Y-108587753D01*
X157418393Y-108602367D01*
X157397349Y-108614980D01*
X157375171Y-108625470D01*
X157352071Y-108633735D01*
X157328273Y-108639696D01*
X157304004Y-108643296D01*
X157279500Y-108644500D01*
X156029500Y-108644500D01*
X156004996Y-108643296D01*
X155980727Y-108639696D01*
X155956929Y-108633735D01*
X155933829Y-108625470D01*
X155911651Y-108614980D01*
X155890607Y-108602367D01*
X155870902Y-108587753D01*
X155852723Y-108571277D01*
X155836247Y-108553098D01*
X155821633Y-108533393D01*
X155809020Y-108512349D01*
X155798530Y-108490171D01*
X155790265Y-108467071D01*
X155784304Y-108443273D01*
X155780704Y-108419004D01*
X155779500Y-108394500D01*
X155779500Y-107644500D01*
X155780704Y-107619996D01*
X155784304Y-107595727D01*
X155790265Y-107571929D01*
X155798530Y-107548829D01*
X155809020Y-107526651D01*
X155821633Y-107505607D01*
X155836247Y-107485902D01*
X155852723Y-107467723D01*
X155870902Y-107451247D01*
X155890607Y-107436633D01*
X155911651Y-107424020D01*
X155933829Y-107413530D01*
X155956929Y-107405265D01*
X155980727Y-107399304D01*
X156004996Y-107395704D01*
X156029500Y-107394500D01*
X157279500Y-107394500D01*
X157304004Y-107395704D01*
X157304004Y-107395704D01*
G37*
D14*
X156654500Y-108019500D03*
D10*
G36*
X157304004Y-104595704D02*
G01*
X157328273Y-104599304D01*
X157352071Y-104605265D01*
X157375171Y-104613530D01*
X157397349Y-104624020D01*
X157418393Y-104636633D01*
X157438098Y-104651247D01*
X157456277Y-104667723D01*
X157472753Y-104685902D01*
X157487367Y-104705607D01*
X157499980Y-104726651D01*
X157510470Y-104748829D01*
X157518735Y-104771929D01*
X157524696Y-104795727D01*
X157528296Y-104819996D01*
X157529500Y-104844500D01*
X157529500Y-105594500D01*
X157528296Y-105619004D01*
X157524696Y-105643273D01*
X157518735Y-105667071D01*
X157510470Y-105690171D01*
X157499980Y-105712349D01*
X157487367Y-105733393D01*
X157472753Y-105753098D01*
X157456277Y-105771277D01*
X157438098Y-105787753D01*
X157418393Y-105802367D01*
X157397349Y-105814980D01*
X157375171Y-105825470D01*
X157352071Y-105833735D01*
X157328273Y-105839696D01*
X157304004Y-105843296D01*
X157279500Y-105844500D01*
X156029500Y-105844500D01*
X156004996Y-105843296D01*
X155980727Y-105839696D01*
X155956929Y-105833735D01*
X155933829Y-105825470D01*
X155911651Y-105814980D01*
X155890607Y-105802367D01*
X155870902Y-105787753D01*
X155852723Y-105771277D01*
X155836247Y-105753098D01*
X155821633Y-105733393D01*
X155809020Y-105712349D01*
X155798530Y-105690171D01*
X155790265Y-105667071D01*
X155784304Y-105643273D01*
X155780704Y-105619004D01*
X155779500Y-105594500D01*
X155779500Y-104844500D01*
X155780704Y-104819996D01*
X155784304Y-104795727D01*
X155790265Y-104771929D01*
X155798530Y-104748829D01*
X155809020Y-104726651D01*
X155821633Y-104705607D01*
X155836247Y-104685902D01*
X155852723Y-104667723D01*
X155870902Y-104651247D01*
X155890607Y-104636633D01*
X155911651Y-104624020D01*
X155933829Y-104613530D01*
X155956929Y-104605265D01*
X155980727Y-104599304D01*
X156004996Y-104595704D01*
X156029500Y-104594500D01*
X157279500Y-104594500D01*
X157304004Y-104595704D01*
X157304004Y-104595704D01*
G37*
D14*
X156654500Y-105219500D03*
D15*
X153924000Y-95885000D03*
X146304000Y-111125000D03*
X153924000Y-98425000D03*
X146304000Y-108585000D03*
X153924000Y-100965000D03*
X146304000Y-106045000D03*
X153924000Y-103505000D03*
X146304000Y-103505000D03*
X153924000Y-106045000D03*
X146304000Y-100965000D03*
X153924000Y-108585000D03*
X146304000Y-98425000D03*
X153924000Y-111125000D03*
D16*
X146304000Y-95885000D03*
D17*
X147828000Y-92329000D03*
X147828000Y-87249000D03*
X152908000Y-87249000D03*
X152908000Y-92329000D03*
D18*
X150368000Y-89789000D03*
D19*
X156972000Y-113538000D03*
X147800000Y-104800000D03*
X150114000Y-112014000D03*
X155702000Y-109982000D03*
D20*
X147244000Y-112065000D02*
X148336000Y-112065000D01*
X146304000Y-111125000D02*
X147244000Y-112065000D01*
X148336000Y-112065000D02*
X151638000Y-112065000D01*
D21*
X153924000Y-103505000D02*
X156464000Y-103505000D01*
X156464000Y-105029000D02*
X156654500Y-105219500D01*
X156464000Y-103505000D02*
X156464000Y-105029000D01*
D22*
X148775000Y-101175000D02*
X148200000Y-101175000D01*
X149753002Y-101175000D02*
X148775000Y-101175000D01*
X150439000Y-101860998D02*
X149753002Y-101175000D01*
X150439000Y-102921000D02*
X150439000Y-101860998D01*
X148911000Y-110490000D02*
X148336000Y-110490000D01*
X149020002Y-110490000D02*
X148911000Y-110490000D01*
X149789000Y-109721002D02*
X149020002Y-110490000D01*
X149789000Y-108661000D02*
X149789000Y-109721002D01*
X145103999Y-102800001D02*
X145738999Y-102165001D01*
X147209999Y-102165001D02*
X147738388Y-101636612D01*
X145738999Y-102165001D02*
X147209999Y-102165001D01*
X145727999Y-109785001D02*
X145103999Y-109161001D01*
X147631001Y-109785001D02*
X145727999Y-109785001D01*
X147738388Y-101636612D02*
X148200000Y-101175000D01*
X148336000Y-110490000D02*
X147631001Y-109785001D01*
X145103999Y-112845999D02*
X145103999Y-108134001D01*
X145796000Y-113538000D02*
X145103999Y-112845999D01*
X155097000Y-113538000D02*
X145796000Y-113538000D01*
X145103999Y-109161001D02*
X145103999Y-108134001D01*
X145103999Y-108134001D02*
X145103999Y-102800001D01*
X156654500Y-111980500D02*
X156654500Y-108019500D01*
X155097000Y-113538000D02*
X156654500Y-111980500D01*
D23*
X150368000Y-89789000D02*
X150368000Y-99822000D01*
D22*
X151089000Y-100543000D02*
X150368000Y-99822000D01*
X151089000Y-102921000D02*
X151089000Y-100543000D01*
X151089000Y-109941000D02*
X151638000Y-110490000D01*
X151089000Y-108661000D02*
X151089000Y-109941000D01*
D20*
X153289000Y-110490000D02*
X153924000Y-111125000D01*
X151638000Y-110490000D02*
X153289000Y-110490000D01*
D24*
G36*
X157513001Y-114113000D02*
G01*
X156202838Y-114113000D01*
X156214533Y-113994250D01*
X156214533Y-113590021D01*
X157210559Y-112593995D01*
X157242106Y-112568106D01*
X157267996Y-112536559D01*
X157268003Y-112536552D01*
X157345452Y-112442180D01*
X157386498Y-112365387D01*
X157422245Y-112298510D01*
X157469534Y-112142620D01*
X157481500Y-112021124D01*
X157481500Y-112021114D01*
X157485500Y-111980500D01*
X157481500Y-111939886D01*
X157481500Y-109248427D01*
X157513000Y-109238872D01*
X157513001Y-114113000D01*
X157513001Y-114113000D01*
G37*
X157513001Y-114113000D02*
X156202838Y-114113000D01*
X156214533Y-113994250D01*
X156214533Y-113590021D01*
X157210559Y-112593995D01*
X157242106Y-112568106D01*
X157267996Y-112536559D01*
X157268003Y-112536552D01*
X157345452Y-112442180D01*
X157386498Y-112365387D01*
X157422245Y-112298510D01*
X157469534Y-112142620D01*
X157481500Y-112021124D01*
X157481500Y-112021114D01*
X157485500Y-111980500D01*
X157481500Y-111939886D01*
X157481500Y-109248427D01*
X157513000Y-109238872D01*
X157513001Y-114113000D01*
G36*
X150398048Y-110402679D02*
G01*
X150475498Y-110497051D01*
X150501395Y-110528606D01*
X150532948Y-110554501D01*
X150532967Y-110554520D01*
X150532967Y-110708750D01*
X150549276Y-110874339D01*
X150597577Y-111033565D01*
X150676013Y-111180309D01*
X150781570Y-111308930D01*
X150910191Y-111414487D01*
X151056935Y-111492923D01*
X151216161Y-111541224D01*
X151381750Y-111557533D01*
X151488969Y-111557533D01*
X151585091Y-111567000D01*
X152566869Y-111567000D01*
X152599245Y-111673731D01*
X152731752Y-111921634D01*
X152910077Y-112138923D01*
X153127366Y-112317248D01*
X153375269Y-112449755D01*
X153644259Y-112531352D01*
X153853902Y-112552000D01*
X153994098Y-112552000D01*
X154177944Y-112533893D01*
X154126726Y-112596302D01*
X154065419Y-112711000D01*
X146138554Y-112711000D01*
X145930999Y-112503446D01*
X145930999Y-110612001D01*
X147230967Y-110612001D01*
X147230967Y-110708750D01*
X147247276Y-110874339D01*
X147295577Y-111033565D01*
X147374013Y-111180309D01*
X147479570Y-111308930D01*
X147608191Y-111414487D01*
X147754935Y-111492923D01*
X147914161Y-111541224D01*
X148079750Y-111557533D01*
X148592250Y-111557533D01*
X148757839Y-111541224D01*
X148917065Y-111492923D01*
X149063809Y-111414487D01*
X149192430Y-111308930D01*
X149200104Y-111299579D01*
X149338012Y-111257745D01*
X149481681Y-111180952D01*
X149607608Y-111077606D01*
X149633507Y-111046048D01*
X150345058Y-110334499D01*
X150356560Y-110325059D01*
X150398048Y-110402679D01*
X150398048Y-110402679D01*
G37*
X150398048Y-110402679D02*
X150475498Y-110497051D01*
X150501395Y-110528606D01*
X150532948Y-110554501D01*
X150532967Y-110554520D01*
X150532967Y-110708750D01*
X150549276Y-110874339D01*
X150597577Y-111033565D01*
X150676013Y-111180309D01*
X150781570Y-111308930D01*
X150910191Y-111414487D01*
X151056935Y-111492923D01*
X151216161Y-111541224D01*
X151381750Y-111557533D01*
X151488969Y-111557533D01*
X151585091Y-111567000D01*
X152566869Y-111567000D01*
X152599245Y-111673731D01*
X152731752Y-111921634D01*
X152910077Y-112138923D01*
X153127366Y-112317248D01*
X153375269Y-112449755D01*
X153644259Y-112531352D01*
X153853902Y-112552000D01*
X153994098Y-112552000D01*
X154177944Y-112533893D01*
X154126726Y-112596302D01*
X154065419Y-112711000D01*
X146138554Y-112711000D01*
X145930999Y-112503446D01*
X145930999Y-110612001D01*
X147230967Y-110612001D01*
X147230967Y-110708750D01*
X147247276Y-110874339D01*
X147295577Y-111033565D01*
X147374013Y-111180309D01*
X147479570Y-111308930D01*
X147608191Y-111414487D01*
X147754935Y-111492923D01*
X147914161Y-111541224D01*
X148079750Y-111557533D01*
X148592250Y-111557533D01*
X148757839Y-111541224D01*
X148917065Y-111492923D01*
X149063809Y-111414487D01*
X149192430Y-111308930D01*
X149200104Y-111299579D01*
X149338012Y-111257745D01*
X149481681Y-111180952D01*
X149607608Y-111077606D01*
X149633507Y-111046048D01*
X150345058Y-110334499D01*
X150356560Y-110325059D01*
X150398048Y-110402679D01*
G36*
X155407223Y-109016777D02*
G01*
X155540580Y-109126221D01*
X155692726Y-109207544D01*
X155827501Y-109248428D01*
X155827500Y-111637945D01*
X155257479Y-112207967D01*
X154853793Y-112207967D01*
X154937923Y-112138923D01*
X155116248Y-111921634D01*
X155248755Y-111673731D01*
X155330352Y-111404741D01*
X155357904Y-111125000D01*
X155330352Y-110845259D01*
X155248755Y-110576269D01*
X155116248Y-110328366D01*
X154937923Y-110111077D01*
X154720634Y-109932752D01*
X154575170Y-109855000D01*
X154720634Y-109777248D01*
X154937923Y-109598923D01*
X155116248Y-109381634D01*
X155248755Y-109133731D01*
X155317424Y-108907358D01*
X155407223Y-109016777D01*
X155407223Y-109016777D01*
G37*
X155407223Y-109016777D02*
X155540580Y-109126221D01*
X155692726Y-109207544D01*
X155827501Y-109248428D01*
X155827500Y-111637945D01*
X155257479Y-112207967D01*
X154853793Y-112207967D01*
X154937923Y-112138923D01*
X155116248Y-111921634D01*
X155248755Y-111673731D01*
X155330352Y-111404741D01*
X155357904Y-111125000D01*
X155330352Y-110845259D01*
X155248755Y-110576269D01*
X155116248Y-110328366D01*
X154937923Y-110111077D01*
X154720634Y-109932752D01*
X154575170Y-109855000D01*
X154720634Y-109777248D01*
X154937923Y-109598923D01*
X155116248Y-109381634D01*
X155248755Y-109133731D01*
X155317424Y-108907358D01*
X155407223Y-109016777D01*
G36*
X157513001Y-102622787D02*
G01*
X157405698Y-102534726D01*
X157254632Y-102453980D01*
X157090717Y-102404256D01*
X156920250Y-102387467D01*
X156615484Y-102387467D01*
X156519365Y-102378000D01*
X156519364Y-102378000D01*
X156464000Y-102372547D01*
X156408635Y-102378000D01*
X154800139Y-102378000D01*
X154720634Y-102312752D01*
X154575170Y-102235000D01*
X154720634Y-102157248D01*
X154937923Y-101978923D01*
X155116248Y-101761634D01*
X155248755Y-101513731D01*
X155330352Y-101244741D01*
X155357904Y-100965000D01*
X155330352Y-100685259D01*
X155248755Y-100416269D01*
X155116248Y-100168366D01*
X154937923Y-99951077D01*
X154720634Y-99772752D01*
X154575170Y-99695000D01*
X154720634Y-99617248D01*
X154937923Y-99438923D01*
X155116248Y-99221634D01*
X155248755Y-98973731D01*
X155330352Y-98704741D01*
X155357904Y-98425000D01*
X155330352Y-98145259D01*
X155248755Y-97876269D01*
X155116248Y-97628366D01*
X154937923Y-97411077D01*
X154720634Y-97232752D01*
X154575170Y-97155000D01*
X154720634Y-97077248D01*
X154937923Y-96898923D01*
X155116248Y-96681634D01*
X155248755Y-96433731D01*
X155330352Y-96164741D01*
X155357904Y-95885000D01*
X155330352Y-95605259D01*
X155248755Y-95336269D01*
X155116248Y-95088366D01*
X154937923Y-94871077D01*
X154720634Y-94692752D01*
X154472731Y-94560245D01*
X154203741Y-94478648D01*
X153994098Y-94458000D01*
X153853902Y-94458000D01*
X153644259Y-94478648D01*
X153375269Y-94560245D01*
X153127366Y-94692752D01*
X152910077Y-94871077D01*
X152731752Y-95088366D01*
X152599245Y-95336269D01*
X152517648Y-95605259D01*
X152490096Y-95885000D01*
X152517648Y-96164741D01*
X152599245Y-96433731D01*
X152731752Y-96681634D01*
X152910077Y-96898923D01*
X153127366Y-97077248D01*
X153272830Y-97155000D01*
X153127366Y-97232752D01*
X152910077Y-97411077D01*
X152731752Y-97628366D01*
X152599245Y-97876269D01*
X152517648Y-98145259D01*
X152490096Y-98425000D01*
X152517648Y-98704741D01*
X152599245Y-98973731D01*
X152731752Y-99221634D01*
X152910077Y-99438923D01*
X153127366Y-99617248D01*
X153272830Y-99695000D01*
X153127366Y-99772752D01*
X152910077Y-99951077D01*
X152731752Y-100168366D01*
X152599245Y-100416269D01*
X152517648Y-100685259D01*
X152490096Y-100965000D01*
X152517648Y-101244741D01*
X152599245Y-101513731D01*
X152731752Y-101761634D01*
X152910077Y-101978923D01*
X153127366Y-102157248D01*
X153272830Y-102235000D01*
X153127366Y-102312752D01*
X152910077Y-102491077D01*
X152731752Y-102708366D01*
X152599245Y-102956269D01*
X152517648Y-103225259D01*
X152490096Y-103505000D01*
X152517648Y-103784741D01*
X152599245Y-104053731D01*
X152731752Y-104301634D01*
X152910077Y-104518923D01*
X153127366Y-104697248D01*
X153272830Y-104775000D01*
X153127366Y-104852752D01*
X152910077Y-105031077D01*
X152731752Y-105248366D01*
X152599245Y-105496269D01*
X152517648Y-105765259D01*
X152490096Y-106045000D01*
X152517648Y-106324741D01*
X152599245Y-106593731D01*
X152731752Y-106841634D01*
X152910077Y-107058923D01*
X153127366Y-107237248D01*
X153272830Y-107315000D01*
X153127366Y-107392752D01*
X152910077Y-107571077D01*
X152731752Y-107788366D01*
X152599245Y-108036269D01*
X152517648Y-108305259D01*
X152490096Y-108585000D01*
X152517648Y-108864741D01*
X152599245Y-109133731D01*
X152731752Y-109381634D01*
X152757493Y-109413000D01*
X151924033Y-109413000D01*
X151924033Y-107876000D01*
X151911927Y-107753087D01*
X151876075Y-107634897D01*
X151817853Y-107525972D01*
X151739501Y-107430499D01*
X151727000Y-107420240D01*
X151727000Y-104161760D01*
X151739501Y-104151501D01*
X151817853Y-104056028D01*
X151876075Y-103947103D01*
X151911927Y-103828913D01*
X151924033Y-103706000D01*
X151924033Y-102136000D01*
X151916000Y-102054440D01*
X151916000Y-100583614D01*
X151920000Y-100543000D01*
X151916000Y-100502386D01*
X151916000Y-100502376D01*
X151904034Y-100380880D01*
X151856745Y-100224990D01*
X151802645Y-100123776D01*
X151779952Y-100081320D01*
X151731889Y-100022756D01*
X151745000Y-99889640D01*
X151745000Y-90701694D01*
X151831983Y-90571515D01*
X151956514Y-90270871D01*
X152020000Y-89951708D01*
X152020000Y-89626292D01*
X151956514Y-89307129D01*
X151831983Y-89006485D01*
X151651192Y-88735912D01*
X151421088Y-88505808D01*
X151150515Y-88325017D01*
X150849871Y-88200486D01*
X150530708Y-88137000D01*
X150205292Y-88137000D01*
X149886129Y-88200486D01*
X149585485Y-88325017D01*
X149314912Y-88505808D01*
X149084808Y-88735912D01*
X148904017Y-89006485D01*
X148779486Y-89307129D01*
X148716000Y-89626292D01*
X148716000Y-89951708D01*
X148779486Y-90270871D01*
X148904017Y-90571515D01*
X148991000Y-90701694D01*
X148991001Y-99889640D01*
X149010926Y-100091939D01*
X149088601Y-100348000D01*
X149046597Y-100348000D01*
X148927809Y-100250513D01*
X148781065Y-100172077D01*
X148621839Y-100123776D01*
X148456250Y-100107467D01*
X147943750Y-100107467D01*
X147778161Y-100123776D01*
X147618935Y-100172077D01*
X147525054Y-100222257D01*
X147496248Y-100168366D01*
X147317923Y-99951077D01*
X147100634Y-99772752D01*
X146955170Y-99695000D01*
X147100634Y-99617248D01*
X147317923Y-99438923D01*
X147496248Y-99221634D01*
X147628755Y-98973731D01*
X147710352Y-98704741D01*
X147737904Y-98425000D01*
X147710352Y-98145259D01*
X147628755Y-97876269D01*
X147496248Y-97628366D01*
X147317923Y-97411077D01*
X147190511Y-97306512D01*
X147226913Y-97302927D01*
X147345103Y-97267075D01*
X147454028Y-97208853D01*
X147549501Y-97130501D01*
X147627853Y-97035028D01*
X147686075Y-96926103D01*
X147721927Y-96807913D01*
X147734033Y-96685000D01*
X147734033Y-95085000D01*
X147721927Y-94962087D01*
X147686075Y-94843897D01*
X147627853Y-94734972D01*
X147549501Y-94639499D01*
X147454028Y-94561147D01*
X147345103Y-94502925D01*
X147226913Y-94467073D01*
X147104000Y-94454967D01*
X145504000Y-94454967D01*
X145381087Y-94467073D01*
X145262897Y-94502925D01*
X145153972Y-94561147D01*
X145058499Y-94639499D01*
X144980147Y-94734972D01*
X144921925Y-94843897D01*
X144886073Y-94962087D01*
X144873967Y-95085000D01*
X144873967Y-96685000D01*
X144886073Y-96807913D01*
X144921925Y-96926103D01*
X144980147Y-97035028D01*
X145058499Y-97130501D01*
X145153972Y-97208853D01*
X145262897Y-97267075D01*
X145381087Y-97302927D01*
X145417489Y-97306512D01*
X145290077Y-97411077D01*
X145111752Y-97628366D01*
X144979245Y-97876269D01*
X144897648Y-98145259D01*
X144870096Y-98425000D01*
X144897648Y-98704741D01*
X144979245Y-98973731D01*
X145111752Y-99221634D01*
X145290077Y-99438923D01*
X145507366Y-99617248D01*
X145652830Y-99695000D01*
X145507366Y-99772752D01*
X145290077Y-99951077D01*
X145111752Y-100168366D01*
X144979245Y-100416269D01*
X144897648Y-100685259D01*
X144870096Y-100965000D01*
X144897648Y-101244741D01*
X144979245Y-101513731D01*
X145063355Y-101671090D01*
X144687000Y-102047446D01*
X144687000Y-85887000D01*
X157513000Y-85887000D01*
X157513001Y-102622787D01*
X157513001Y-102622787D01*
G37*
X157513001Y-102622787D02*
X157405698Y-102534726D01*
X157254632Y-102453980D01*
X157090717Y-102404256D01*
X156920250Y-102387467D01*
X156615484Y-102387467D01*
X156519365Y-102378000D01*
X156519364Y-102378000D01*
X156464000Y-102372547D01*
X156408635Y-102378000D01*
X154800139Y-102378000D01*
X154720634Y-102312752D01*
X154575170Y-102235000D01*
X154720634Y-102157248D01*
X154937923Y-101978923D01*
X155116248Y-101761634D01*
X155248755Y-101513731D01*
X155330352Y-101244741D01*
X155357904Y-100965000D01*
X155330352Y-100685259D01*
X155248755Y-100416269D01*
X155116248Y-100168366D01*
X154937923Y-99951077D01*
X154720634Y-99772752D01*
X154575170Y-99695000D01*
X154720634Y-99617248D01*
X154937923Y-99438923D01*
X155116248Y-99221634D01*
X155248755Y-98973731D01*
X155330352Y-98704741D01*
X155357904Y-98425000D01*
X155330352Y-98145259D01*
X155248755Y-97876269D01*
X155116248Y-97628366D01*
X154937923Y-97411077D01*
X154720634Y-97232752D01*
X154575170Y-97155000D01*
X154720634Y-97077248D01*
X154937923Y-96898923D01*
X155116248Y-96681634D01*
X155248755Y-96433731D01*
X155330352Y-96164741D01*
X155357904Y-95885000D01*
X155330352Y-95605259D01*
X155248755Y-95336269D01*
X155116248Y-95088366D01*
X154937923Y-94871077D01*
X154720634Y-94692752D01*
X154472731Y-94560245D01*
X154203741Y-94478648D01*
X153994098Y-94458000D01*
X153853902Y-94458000D01*
X153644259Y-94478648D01*
X153375269Y-94560245D01*
X153127366Y-94692752D01*
X152910077Y-94871077D01*
X152731752Y-95088366D01*
X152599245Y-95336269D01*
X152517648Y-95605259D01*
X152490096Y-95885000D01*
X152517648Y-96164741D01*
X152599245Y-96433731D01*
X152731752Y-96681634D01*
X152910077Y-96898923D01*
X153127366Y-97077248D01*
X153272830Y-97155000D01*
X153127366Y-97232752D01*
X152910077Y-97411077D01*
X152731752Y-97628366D01*
X152599245Y-97876269D01*
X152517648Y-98145259D01*
X152490096Y-98425000D01*
X152517648Y-98704741D01*
X152599245Y-98973731D01*
X152731752Y-99221634D01*
X152910077Y-99438923D01*
X153127366Y-99617248D01*
X153272830Y-99695000D01*
X153127366Y-99772752D01*
X152910077Y-99951077D01*
X152731752Y-100168366D01*
X152599245Y-100416269D01*
X152517648Y-100685259D01*
X152490096Y-100965000D01*
X152517648Y-101244741D01*
X152599245Y-101513731D01*
X152731752Y-101761634D01*
X152910077Y-101978923D01*
X153127366Y-102157248D01*
X153272830Y-102235000D01*
X153127366Y-102312752D01*
X152910077Y-102491077D01*
X152731752Y-102708366D01*
X152599245Y-102956269D01*
X152517648Y-103225259D01*
X152490096Y-103505000D01*
X152517648Y-103784741D01*
X152599245Y-104053731D01*
X152731752Y-104301634D01*
X152910077Y-104518923D01*
X153127366Y-104697248D01*
X153272830Y-104775000D01*
X153127366Y-104852752D01*
X152910077Y-105031077D01*
X152731752Y-105248366D01*
X152599245Y-105496269D01*
X152517648Y-105765259D01*
X152490096Y-106045000D01*
X152517648Y-106324741D01*
X152599245Y-106593731D01*
X152731752Y-106841634D01*
X152910077Y-107058923D01*
X153127366Y-107237248D01*
X153272830Y-107315000D01*
X153127366Y-107392752D01*
X152910077Y-107571077D01*
X152731752Y-107788366D01*
X152599245Y-108036269D01*
X152517648Y-108305259D01*
X152490096Y-108585000D01*
X152517648Y-108864741D01*
X152599245Y-109133731D01*
X152731752Y-109381634D01*
X152757493Y-109413000D01*
X151924033Y-109413000D01*
X151924033Y-107876000D01*
X151911927Y-107753087D01*
X151876075Y-107634897D01*
X151817853Y-107525972D01*
X151739501Y-107430499D01*
X151727000Y-107420240D01*
X151727000Y-104161760D01*
X151739501Y-104151501D01*
X151817853Y-104056028D01*
X151876075Y-103947103D01*
X151911927Y-103828913D01*
X151924033Y-103706000D01*
X151924033Y-102136000D01*
X151916000Y-102054440D01*
X151916000Y-100583614D01*
X151920000Y-100543000D01*
X151916000Y-100502386D01*
X151916000Y-100502376D01*
X151904034Y-100380880D01*
X151856745Y-100224990D01*
X151802645Y-100123776D01*
X151779952Y-100081320D01*
X151731889Y-100022756D01*
X151745000Y-99889640D01*
X151745000Y-90701694D01*
X151831983Y-90571515D01*
X151956514Y-90270871D01*
X152020000Y-89951708D01*
X152020000Y-89626292D01*
X151956514Y-89307129D01*
X151831983Y-89006485D01*
X151651192Y-88735912D01*
X151421088Y-88505808D01*
X151150515Y-88325017D01*
X150849871Y-88200486D01*
X150530708Y-88137000D01*
X150205292Y-88137000D01*
X149886129Y-88200486D01*
X149585485Y-88325017D01*
X149314912Y-88505808D01*
X149084808Y-88735912D01*
X148904017Y-89006485D01*
X148779486Y-89307129D01*
X148716000Y-89626292D01*
X148716000Y-89951708D01*
X148779486Y-90270871D01*
X148904017Y-90571515D01*
X148991000Y-90701694D01*
X148991001Y-99889640D01*
X149010926Y-100091939D01*
X149088601Y-100348000D01*
X149046597Y-100348000D01*
X148927809Y-100250513D01*
X148781065Y-100172077D01*
X148621839Y-100123776D01*
X148456250Y-100107467D01*
X147943750Y-100107467D01*
X147778161Y-100123776D01*
X147618935Y-100172077D01*
X147525054Y-100222257D01*
X147496248Y-100168366D01*
X147317923Y-99951077D01*
X147100634Y-99772752D01*
X146955170Y-99695000D01*
X147100634Y-99617248D01*
X147317923Y-99438923D01*
X147496248Y-99221634D01*
X147628755Y-98973731D01*
X147710352Y-98704741D01*
X147737904Y-98425000D01*
X147710352Y-98145259D01*
X147628755Y-97876269D01*
X147496248Y-97628366D01*
X147317923Y-97411077D01*
X147190511Y-97306512D01*
X147226913Y-97302927D01*
X147345103Y-97267075D01*
X147454028Y-97208853D01*
X147549501Y-97130501D01*
X147627853Y-97035028D01*
X147686075Y-96926103D01*
X147721927Y-96807913D01*
X147734033Y-96685000D01*
X147734033Y-95085000D01*
X147721927Y-94962087D01*
X147686075Y-94843897D01*
X147627853Y-94734972D01*
X147549501Y-94639499D01*
X147454028Y-94561147D01*
X147345103Y-94502925D01*
X147226913Y-94467073D01*
X147104000Y-94454967D01*
X145504000Y-94454967D01*
X145381087Y-94467073D01*
X145262897Y-94502925D01*
X145153972Y-94561147D01*
X145058499Y-94639499D01*
X144980147Y-94734972D01*
X144921925Y-94843897D01*
X144886073Y-94962087D01*
X144873967Y-95085000D01*
X144873967Y-96685000D01*
X144886073Y-96807913D01*
X144921925Y-96926103D01*
X144980147Y-97035028D01*
X145058499Y-97130501D01*
X145153972Y-97208853D01*
X145262897Y-97267075D01*
X145381087Y-97302927D01*
X145417489Y-97306512D01*
X145290077Y-97411077D01*
X145111752Y-97628366D01*
X144979245Y-97876269D01*
X144897648Y-98145259D01*
X144870096Y-98425000D01*
X144897648Y-98704741D01*
X144979245Y-98973731D01*
X145111752Y-99221634D01*
X145290077Y-99438923D01*
X145507366Y-99617248D01*
X145652830Y-99695000D01*
X145507366Y-99772752D01*
X145290077Y-99951077D01*
X145111752Y-100168366D01*
X144979245Y-100416269D01*
X144897648Y-100685259D01*
X144870096Y-100965000D01*
X144897648Y-101244741D01*
X144979245Y-101513731D01*
X145063355Y-101671090D01*
X144687000Y-102047446D01*
X144687000Y-85887000D01*
X157513000Y-85887000D01*
X157513001Y-102622787D01*
G36*
X148953967Y-102136000D02*
G01*
X148953967Y-103473000D01*
X148600000Y-103473000D01*
X148575224Y-103475440D01*
X148551399Y-103482667D01*
X148529443Y-103494403D01*
X148510197Y-103510197D01*
X148494403Y-103529443D01*
X148482667Y-103551399D01*
X148475440Y-103575224D01*
X148473000Y-103600000D01*
X148473000Y-107449385D01*
X148410147Y-107525972D01*
X148351925Y-107634897D01*
X148316073Y-107753087D01*
X148303967Y-107876000D01*
X148303967Y-109288414D01*
X148244506Y-109228953D01*
X148218607Y-109197395D01*
X148092680Y-109094049D01*
X147949011Y-109017256D01*
X147793121Y-108969967D01*
X147681759Y-108958999D01*
X147710352Y-108864741D01*
X147737904Y-108585000D01*
X147710352Y-108305259D01*
X147628755Y-108036269D01*
X147496248Y-107788366D01*
X147317923Y-107571077D01*
X147100634Y-107392752D01*
X146955170Y-107315000D01*
X147100634Y-107237248D01*
X147317923Y-107058923D01*
X147496248Y-106841634D01*
X147628755Y-106593731D01*
X147710352Y-106324741D01*
X147737904Y-106045000D01*
X147710352Y-105765259D01*
X147628755Y-105496269D01*
X147496248Y-105248366D01*
X147317923Y-105031077D01*
X147100634Y-104852752D01*
X146955170Y-104775000D01*
X147100634Y-104697248D01*
X147317923Y-104518923D01*
X147496248Y-104301634D01*
X147628755Y-104053731D01*
X147710352Y-103784741D01*
X147737904Y-103505000D01*
X147710352Y-103225259D01*
X147628755Y-102956269D01*
X147596588Y-102896089D01*
X147671678Y-102855953D01*
X147797605Y-102752607D01*
X147823504Y-102721049D01*
X148302020Y-102242533D01*
X148456250Y-102242533D01*
X148621839Y-102226224D01*
X148781065Y-102177923D01*
X148927809Y-102099487D01*
X148960180Y-102072921D01*
X148953967Y-102136000D01*
X148953967Y-102136000D01*
G37*
X148953967Y-102136000D02*
X148953967Y-103473000D01*
X148600000Y-103473000D01*
X148575224Y-103475440D01*
X148551399Y-103482667D01*
X148529443Y-103494403D01*
X148510197Y-103510197D01*
X148494403Y-103529443D01*
X148482667Y-103551399D01*
X148475440Y-103575224D01*
X148473000Y-103600000D01*
X148473000Y-107449385D01*
X148410147Y-107525972D01*
X148351925Y-107634897D01*
X148316073Y-107753087D01*
X148303967Y-107876000D01*
X148303967Y-109288414D01*
X148244506Y-109228953D01*
X148218607Y-109197395D01*
X148092680Y-109094049D01*
X147949011Y-109017256D01*
X147793121Y-108969967D01*
X147681759Y-108958999D01*
X147710352Y-108864741D01*
X147737904Y-108585000D01*
X147710352Y-108305259D01*
X147628755Y-108036269D01*
X147496248Y-107788366D01*
X147317923Y-107571077D01*
X147100634Y-107392752D01*
X146955170Y-107315000D01*
X147100634Y-107237248D01*
X147317923Y-107058923D01*
X147496248Y-106841634D01*
X147628755Y-106593731D01*
X147710352Y-106324741D01*
X147737904Y-106045000D01*
X147710352Y-105765259D01*
X147628755Y-105496269D01*
X147496248Y-105248366D01*
X147317923Y-105031077D01*
X147100634Y-104852752D01*
X146955170Y-104775000D01*
X147100634Y-104697248D01*
X147317923Y-104518923D01*
X147496248Y-104301634D01*
X147628755Y-104053731D01*
X147710352Y-103784741D01*
X147737904Y-103505000D01*
X147710352Y-103225259D01*
X147628755Y-102956269D01*
X147596588Y-102896089D01*
X147671678Y-102855953D01*
X147797605Y-102752607D01*
X147823504Y-102721049D01*
X148302020Y-102242533D01*
X148456250Y-102242533D01*
X148621839Y-102226224D01*
X148781065Y-102177923D01*
X148927809Y-102099487D01*
X148960180Y-102072921D01*
X148953967Y-102136000D01*
M02*
