G04 #@! TF.GenerationSoftware,KiCad,Pcbnew,(5.1.4)-1*
G04 #@! TF.CreationDate,2019-08-19T16:22:37-04:00*
G04 #@! TF.ProjectId,clock_buffer,636c6f63-6b5f-4627-9566-6665722e6b69,rev?*
G04 #@! TF.SameCoordinates,Original*
G04 #@! TF.FileFunction,Soldermask,Top*
G04 #@! TF.FilePolarity,Negative*
%FSLAX46Y46*%
G04 Gerber Fmt 4.6, Leading zero omitted, Abs format (unit mm)*
G04 Created by KiCad (PCBNEW (5.1.4)-1) date 2019-08-19 16:22:37*
%MOMM*%
%LPD*%
G04 APERTURE LIST*
%ADD10R,0.810000X1.970000*%
%ADD11C,0.100000*%
%ADD12C,1.650000*%
%ADD13O,2.000000X2.000000*%
%ADD14R,2.000000X2.000000*%
%ADD15C,2.650000*%
%ADD16C,2.450000*%
G04 APERTURE END LIST*
D10*
X149139000Y-103556000D03*
X149789000Y-103556000D03*
X150439000Y-103556000D03*
X151089000Y-103556000D03*
X151089000Y-109296000D03*
X150439000Y-109296000D03*
X149789000Y-109296000D03*
X149139000Y-109296000D03*
D11*
G36*
X152288346Y-95448589D02*
G01*
X152320380Y-95453341D01*
X152351794Y-95461210D01*
X152382286Y-95472120D01*
X152411561Y-95485966D01*
X152439338Y-95502615D01*
X152465350Y-95521907D01*
X152489345Y-95543655D01*
X152511093Y-95567650D01*
X152530385Y-95593662D01*
X152547034Y-95621439D01*
X152560880Y-95650714D01*
X152571790Y-95681206D01*
X152579659Y-95712620D01*
X152584411Y-95744654D01*
X152586000Y-95777000D01*
X152586000Y-96767000D01*
X152584411Y-96799346D01*
X152579659Y-96831380D01*
X152571790Y-96862794D01*
X152560880Y-96893286D01*
X152547034Y-96922561D01*
X152530385Y-96950338D01*
X152511093Y-96976350D01*
X152489345Y-97000345D01*
X152465350Y-97022093D01*
X152439338Y-97041385D01*
X152411561Y-97058034D01*
X152382286Y-97071880D01*
X152351794Y-97082790D01*
X152320380Y-97090659D01*
X152288346Y-97095411D01*
X152256000Y-97097000D01*
X150766000Y-97097000D01*
X150733654Y-97095411D01*
X150701620Y-97090659D01*
X150670206Y-97082790D01*
X150639714Y-97071880D01*
X150610439Y-97058034D01*
X150582662Y-97041385D01*
X150556650Y-97022093D01*
X150532655Y-97000345D01*
X150510907Y-96976350D01*
X150491615Y-96950338D01*
X150474966Y-96922561D01*
X150461120Y-96893286D01*
X150450210Y-96862794D01*
X150442341Y-96831380D01*
X150437589Y-96799346D01*
X150436000Y-96767000D01*
X150436000Y-95777000D01*
X150437589Y-95744654D01*
X150442341Y-95712620D01*
X150450210Y-95681206D01*
X150461120Y-95650714D01*
X150474966Y-95621439D01*
X150491615Y-95593662D01*
X150510907Y-95567650D01*
X150532655Y-95543655D01*
X150556650Y-95521907D01*
X150582662Y-95502615D01*
X150610439Y-95485966D01*
X150639714Y-95472120D01*
X150670206Y-95461210D01*
X150701620Y-95453341D01*
X150733654Y-95448589D01*
X150766000Y-95447000D01*
X152256000Y-95447000D01*
X152288346Y-95448589D01*
X152288346Y-95448589D01*
G37*
D12*
X151511000Y-96272000D03*
D11*
G36*
X152288346Y-92648589D02*
G01*
X152320380Y-92653341D01*
X152351794Y-92661210D01*
X152382286Y-92672120D01*
X152411561Y-92685966D01*
X152439338Y-92702615D01*
X152465350Y-92721907D01*
X152489345Y-92743655D01*
X152511093Y-92767650D01*
X152530385Y-92793662D01*
X152547034Y-92821439D01*
X152560880Y-92850714D01*
X152571790Y-92881206D01*
X152579659Y-92912620D01*
X152584411Y-92944654D01*
X152586000Y-92977000D01*
X152586000Y-93967000D01*
X152584411Y-93999346D01*
X152579659Y-94031380D01*
X152571790Y-94062794D01*
X152560880Y-94093286D01*
X152547034Y-94122561D01*
X152530385Y-94150338D01*
X152511093Y-94176350D01*
X152489345Y-94200345D01*
X152465350Y-94222093D01*
X152439338Y-94241385D01*
X152411561Y-94258034D01*
X152382286Y-94271880D01*
X152351794Y-94282790D01*
X152320380Y-94290659D01*
X152288346Y-94295411D01*
X152256000Y-94297000D01*
X150766000Y-94297000D01*
X150733654Y-94295411D01*
X150701620Y-94290659D01*
X150670206Y-94282790D01*
X150639714Y-94271880D01*
X150610439Y-94258034D01*
X150582662Y-94241385D01*
X150556650Y-94222093D01*
X150532655Y-94200345D01*
X150510907Y-94176350D01*
X150491615Y-94150338D01*
X150474966Y-94122561D01*
X150461120Y-94093286D01*
X150450210Y-94062794D01*
X150442341Y-94031380D01*
X150437589Y-93999346D01*
X150436000Y-93967000D01*
X150436000Y-92977000D01*
X150437589Y-92944654D01*
X150442341Y-92912620D01*
X150450210Y-92881206D01*
X150461120Y-92850714D01*
X150474966Y-92821439D01*
X150491615Y-92793662D01*
X150510907Y-92767650D01*
X150532655Y-92743655D01*
X150556650Y-92721907D01*
X150582662Y-92702615D01*
X150610439Y-92685966D01*
X150639714Y-92672120D01*
X150670206Y-92661210D01*
X150701620Y-92653341D01*
X150733654Y-92648589D01*
X150766000Y-92647000D01*
X152256000Y-92647000D01*
X152288346Y-92648589D01*
X152288346Y-92648589D01*
G37*
D12*
X151511000Y-93472000D03*
D13*
X153924000Y-95885000D03*
X146304000Y-111125000D03*
X153924000Y-98425000D03*
X146304000Y-108585000D03*
X153924000Y-100965000D03*
X146304000Y-106045000D03*
X153924000Y-103505000D03*
X146304000Y-103505000D03*
X153924000Y-106045000D03*
X146304000Y-100965000D03*
X153924000Y-108585000D03*
X146304000Y-98425000D03*
X153924000Y-111125000D03*
D14*
X146304000Y-95885000D03*
D15*
X147574000Y-120650000D03*
X147574000Y-115570000D03*
X152654000Y-115570000D03*
X152654000Y-120650000D03*
D16*
X150114000Y-118110000D03*
D11*
G36*
X149238346Y-99891589D02*
G01*
X149270380Y-99896341D01*
X149301794Y-99904210D01*
X149332286Y-99915120D01*
X149361561Y-99928966D01*
X149389338Y-99945615D01*
X149415350Y-99964907D01*
X149439345Y-99986655D01*
X149461093Y-100010650D01*
X149480385Y-100036662D01*
X149497034Y-100064439D01*
X149510880Y-100093714D01*
X149521790Y-100124206D01*
X149529659Y-100155620D01*
X149534411Y-100187654D01*
X149536000Y-100220000D01*
X149536000Y-101710000D01*
X149534411Y-101742346D01*
X149529659Y-101774380D01*
X149521790Y-101805794D01*
X149510880Y-101836286D01*
X149497034Y-101865561D01*
X149480385Y-101893338D01*
X149461093Y-101919350D01*
X149439345Y-101943345D01*
X149415350Y-101965093D01*
X149389338Y-101984385D01*
X149361561Y-102001034D01*
X149332286Y-102014880D01*
X149301794Y-102025790D01*
X149270380Y-102033659D01*
X149238346Y-102038411D01*
X149206000Y-102040000D01*
X148216000Y-102040000D01*
X148183654Y-102038411D01*
X148151620Y-102033659D01*
X148120206Y-102025790D01*
X148089714Y-102014880D01*
X148060439Y-102001034D01*
X148032662Y-101984385D01*
X148006650Y-101965093D01*
X147982655Y-101943345D01*
X147960907Y-101919350D01*
X147941615Y-101893338D01*
X147924966Y-101865561D01*
X147911120Y-101836286D01*
X147900210Y-101805794D01*
X147892341Y-101774380D01*
X147887589Y-101742346D01*
X147886000Y-101710000D01*
X147886000Y-100220000D01*
X147887589Y-100187654D01*
X147892341Y-100155620D01*
X147900210Y-100124206D01*
X147911120Y-100093714D01*
X147924966Y-100064439D01*
X147941615Y-100036662D01*
X147960907Y-100010650D01*
X147982655Y-99986655D01*
X148006650Y-99964907D01*
X148032662Y-99945615D01*
X148060439Y-99928966D01*
X148089714Y-99915120D01*
X148120206Y-99904210D01*
X148151620Y-99896341D01*
X148183654Y-99891589D01*
X148216000Y-99890000D01*
X149206000Y-99890000D01*
X149238346Y-99891589D01*
X149238346Y-99891589D01*
G37*
D12*
X148711000Y-100965000D03*
D11*
G36*
X152038346Y-99891589D02*
G01*
X152070380Y-99896341D01*
X152101794Y-99904210D01*
X152132286Y-99915120D01*
X152161561Y-99928966D01*
X152189338Y-99945615D01*
X152215350Y-99964907D01*
X152239345Y-99986655D01*
X152261093Y-100010650D01*
X152280385Y-100036662D01*
X152297034Y-100064439D01*
X152310880Y-100093714D01*
X152321790Y-100124206D01*
X152329659Y-100155620D01*
X152334411Y-100187654D01*
X152336000Y-100220000D01*
X152336000Y-101710000D01*
X152334411Y-101742346D01*
X152329659Y-101774380D01*
X152321790Y-101805794D01*
X152310880Y-101836286D01*
X152297034Y-101865561D01*
X152280385Y-101893338D01*
X152261093Y-101919350D01*
X152239345Y-101943345D01*
X152215350Y-101965093D01*
X152189338Y-101984385D01*
X152161561Y-102001034D01*
X152132286Y-102014880D01*
X152101794Y-102025790D01*
X152070380Y-102033659D01*
X152038346Y-102038411D01*
X152006000Y-102040000D01*
X151016000Y-102040000D01*
X150983654Y-102038411D01*
X150951620Y-102033659D01*
X150920206Y-102025790D01*
X150889714Y-102014880D01*
X150860439Y-102001034D01*
X150832662Y-101984385D01*
X150806650Y-101965093D01*
X150782655Y-101943345D01*
X150760907Y-101919350D01*
X150741615Y-101893338D01*
X150724966Y-101865561D01*
X150711120Y-101836286D01*
X150700210Y-101805794D01*
X150692341Y-101774380D01*
X150687589Y-101742346D01*
X150686000Y-101710000D01*
X150686000Y-100220000D01*
X150687589Y-100187654D01*
X150692341Y-100155620D01*
X150700210Y-100124206D01*
X150711120Y-100093714D01*
X150724966Y-100064439D01*
X150741615Y-100036662D01*
X150760907Y-100010650D01*
X150782655Y-99986655D01*
X150806650Y-99964907D01*
X150832662Y-99945615D01*
X150860439Y-99928966D01*
X150889714Y-99915120D01*
X150920206Y-99904210D01*
X150951620Y-99896341D01*
X150983654Y-99891589D01*
X151016000Y-99890000D01*
X152006000Y-99890000D01*
X152038346Y-99891589D01*
X152038346Y-99891589D01*
G37*
D12*
X151511000Y-100965000D03*
D11*
G36*
X149244346Y-97351589D02*
G01*
X149276380Y-97356341D01*
X149307794Y-97364210D01*
X149338286Y-97375120D01*
X149367561Y-97388966D01*
X149395338Y-97405615D01*
X149421350Y-97424907D01*
X149445345Y-97446655D01*
X149467093Y-97470650D01*
X149486385Y-97496662D01*
X149503034Y-97524439D01*
X149516880Y-97553714D01*
X149527790Y-97584206D01*
X149535659Y-97615620D01*
X149540411Y-97647654D01*
X149542000Y-97680000D01*
X149542000Y-99170000D01*
X149540411Y-99202346D01*
X149535659Y-99234380D01*
X149527790Y-99265794D01*
X149516880Y-99296286D01*
X149503034Y-99325561D01*
X149486385Y-99353338D01*
X149467093Y-99379350D01*
X149445345Y-99403345D01*
X149421350Y-99425093D01*
X149395338Y-99444385D01*
X149367561Y-99461034D01*
X149338286Y-99474880D01*
X149307794Y-99485790D01*
X149276380Y-99493659D01*
X149244346Y-99498411D01*
X149212000Y-99500000D01*
X148222000Y-99500000D01*
X148189654Y-99498411D01*
X148157620Y-99493659D01*
X148126206Y-99485790D01*
X148095714Y-99474880D01*
X148066439Y-99461034D01*
X148038662Y-99444385D01*
X148012650Y-99425093D01*
X147988655Y-99403345D01*
X147966907Y-99379350D01*
X147947615Y-99353338D01*
X147930966Y-99325561D01*
X147917120Y-99296286D01*
X147906210Y-99265794D01*
X147898341Y-99234380D01*
X147893589Y-99202346D01*
X147892000Y-99170000D01*
X147892000Y-97680000D01*
X147893589Y-97647654D01*
X147898341Y-97615620D01*
X147906210Y-97584206D01*
X147917120Y-97553714D01*
X147930966Y-97524439D01*
X147947615Y-97496662D01*
X147966907Y-97470650D01*
X147988655Y-97446655D01*
X148012650Y-97424907D01*
X148038662Y-97405615D01*
X148066439Y-97388966D01*
X148095714Y-97375120D01*
X148126206Y-97364210D01*
X148157620Y-97356341D01*
X148189654Y-97351589D01*
X148222000Y-97350000D01*
X149212000Y-97350000D01*
X149244346Y-97351589D01*
X149244346Y-97351589D01*
G37*
D12*
X148717000Y-98425000D03*
D11*
G36*
X152044346Y-97351589D02*
G01*
X152076380Y-97356341D01*
X152107794Y-97364210D01*
X152138286Y-97375120D01*
X152167561Y-97388966D01*
X152195338Y-97405615D01*
X152221350Y-97424907D01*
X152245345Y-97446655D01*
X152267093Y-97470650D01*
X152286385Y-97496662D01*
X152303034Y-97524439D01*
X152316880Y-97553714D01*
X152327790Y-97584206D01*
X152335659Y-97615620D01*
X152340411Y-97647654D01*
X152342000Y-97680000D01*
X152342000Y-99170000D01*
X152340411Y-99202346D01*
X152335659Y-99234380D01*
X152327790Y-99265794D01*
X152316880Y-99296286D01*
X152303034Y-99325561D01*
X152286385Y-99353338D01*
X152267093Y-99379350D01*
X152245345Y-99403345D01*
X152221350Y-99425093D01*
X152195338Y-99444385D01*
X152167561Y-99461034D01*
X152138286Y-99474880D01*
X152107794Y-99485790D01*
X152076380Y-99493659D01*
X152044346Y-99498411D01*
X152012000Y-99500000D01*
X151022000Y-99500000D01*
X150989654Y-99498411D01*
X150957620Y-99493659D01*
X150926206Y-99485790D01*
X150895714Y-99474880D01*
X150866439Y-99461034D01*
X150838662Y-99444385D01*
X150812650Y-99425093D01*
X150788655Y-99403345D01*
X150766907Y-99379350D01*
X150747615Y-99353338D01*
X150730966Y-99325561D01*
X150717120Y-99296286D01*
X150706210Y-99265794D01*
X150698341Y-99234380D01*
X150693589Y-99202346D01*
X150692000Y-99170000D01*
X150692000Y-97680000D01*
X150693589Y-97647654D01*
X150698341Y-97615620D01*
X150706210Y-97584206D01*
X150717120Y-97553714D01*
X150730966Y-97524439D01*
X150747615Y-97496662D01*
X150766907Y-97470650D01*
X150788655Y-97446655D01*
X150812650Y-97424907D01*
X150838662Y-97405615D01*
X150866439Y-97388966D01*
X150895714Y-97375120D01*
X150926206Y-97364210D01*
X150957620Y-97356341D01*
X150989654Y-97351589D01*
X151022000Y-97350000D01*
X152012000Y-97350000D01*
X152044346Y-97351589D01*
X152044346Y-97351589D01*
G37*
D12*
X151517000Y-98425000D03*
D11*
G36*
X146831346Y-91890589D02*
G01*
X146863380Y-91895341D01*
X146894794Y-91903210D01*
X146925286Y-91914120D01*
X146954561Y-91927966D01*
X146982338Y-91944615D01*
X147008350Y-91963907D01*
X147032345Y-91985655D01*
X147054093Y-92009650D01*
X147073385Y-92035662D01*
X147090034Y-92063439D01*
X147103880Y-92092714D01*
X147114790Y-92123206D01*
X147122659Y-92154620D01*
X147127411Y-92186654D01*
X147129000Y-92219000D01*
X147129000Y-93709000D01*
X147127411Y-93741346D01*
X147122659Y-93773380D01*
X147114790Y-93804794D01*
X147103880Y-93835286D01*
X147090034Y-93864561D01*
X147073385Y-93892338D01*
X147054093Y-93918350D01*
X147032345Y-93942345D01*
X147008350Y-93964093D01*
X146982338Y-93983385D01*
X146954561Y-94000034D01*
X146925286Y-94013880D01*
X146894794Y-94024790D01*
X146863380Y-94032659D01*
X146831346Y-94037411D01*
X146799000Y-94039000D01*
X145809000Y-94039000D01*
X145776654Y-94037411D01*
X145744620Y-94032659D01*
X145713206Y-94024790D01*
X145682714Y-94013880D01*
X145653439Y-94000034D01*
X145625662Y-93983385D01*
X145599650Y-93964093D01*
X145575655Y-93942345D01*
X145553907Y-93918350D01*
X145534615Y-93892338D01*
X145517966Y-93864561D01*
X145504120Y-93835286D01*
X145493210Y-93804794D01*
X145485341Y-93773380D01*
X145480589Y-93741346D01*
X145479000Y-93709000D01*
X145479000Y-92219000D01*
X145480589Y-92186654D01*
X145485341Y-92154620D01*
X145493210Y-92123206D01*
X145504120Y-92092714D01*
X145517966Y-92063439D01*
X145534615Y-92035662D01*
X145553907Y-92009650D01*
X145575655Y-91985655D01*
X145599650Y-91963907D01*
X145625662Y-91944615D01*
X145653439Y-91927966D01*
X145682714Y-91914120D01*
X145713206Y-91903210D01*
X145744620Y-91895341D01*
X145776654Y-91890589D01*
X145809000Y-91889000D01*
X146799000Y-91889000D01*
X146831346Y-91890589D01*
X146831346Y-91890589D01*
G37*
D12*
X146304000Y-92964000D03*
D11*
G36*
X149631346Y-91890589D02*
G01*
X149663380Y-91895341D01*
X149694794Y-91903210D01*
X149725286Y-91914120D01*
X149754561Y-91927966D01*
X149782338Y-91944615D01*
X149808350Y-91963907D01*
X149832345Y-91985655D01*
X149854093Y-92009650D01*
X149873385Y-92035662D01*
X149890034Y-92063439D01*
X149903880Y-92092714D01*
X149914790Y-92123206D01*
X149922659Y-92154620D01*
X149927411Y-92186654D01*
X149929000Y-92219000D01*
X149929000Y-93709000D01*
X149927411Y-93741346D01*
X149922659Y-93773380D01*
X149914790Y-93804794D01*
X149903880Y-93835286D01*
X149890034Y-93864561D01*
X149873385Y-93892338D01*
X149854093Y-93918350D01*
X149832345Y-93942345D01*
X149808350Y-93964093D01*
X149782338Y-93983385D01*
X149754561Y-94000034D01*
X149725286Y-94013880D01*
X149694794Y-94024790D01*
X149663380Y-94032659D01*
X149631346Y-94037411D01*
X149599000Y-94039000D01*
X148609000Y-94039000D01*
X148576654Y-94037411D01*
X148544620Y-94032659D01*
X148513206Y-94024790D01*
X148482714Y-94013880D01*
X148453439Y-94000034D01*
X148425662Y-93983385D01*
X148399650Y-93964093D01*
X148375655Y-93942345D01*
X148353907Y-93918350D01*
X148334615Y-93892338D01*
X148317966Y-93864561D01*
X148304120Y-93835286D01*
X148293210Y-93804794D01*
X148285341Y-93773380D01*
X148280589Y-93741346D01*
X148279000Y-93709000D01*
X148279000Y-92219000D01*
X148280589Y-92186654D01*
X148285341Y-92154620D01*
X148293210Y-92123206D01*
X148304120Y-92092714D01*
X148317966Y-92063439D01*
X148334615Y-92035662D01*
X148353907Y-92009650D01*
X148375655Y-91985655D01*
X148399650Y-91963907D01*
X148425662Y-91944615D01*
X148453439Y-91927966D01*
X148482714Y-91914120D01*
X148513206Y-91903210D01*
X148544620Y-91895341D01*
X148576654Y-91890589D01*
X148609000Y-91889000D01*
X149599000Y-91889000D01*
X149631346Y-91890589D01*
X149631346Y-91890589D01*
G37*
D12*
X149104000Y-92964000D03*
M02*
