G04 #@! TF.GenerationSoftware,KiCad,Pcbnew,(5.1.4)-1*
G04 #@! TF.CreationDate,2019-08-27T16:30:30-04:00*
G04 #@! TF.ProjectId,clock_buffer,636c6f63-6b5f-4627-9566-6665722e6b69,rev?*
G04 #@! TF.SameCoordinates,Original*
G04 #@! TF.FileFunction,Soldermask,Top*
G04 #@! TF.FilePolarity,Negative*
%FSLAX46Y46*%
G04 Gerber Fmt 4.6, Leading zero omitted, Abs format (unit mm)*
G04 Created by KiCad (PCBNEW (5.1.4)-1) date 2019-08-27 16:30:30*
%MOMM*%
%LPD*%
G04 APERTURE LIST*
%ADD10C,0.100000*%
%ADD11C,1.275000*%
%ADD12C,1.375000*%
%ADD13R,0.810000X1.970000*%
%ADD14C,1.650000*%
%ADD15O,2.000000X2.000000*%
%ADD16R,2.000000X2.000000*%
%ADD17C,2.650000*%
%ADD18C,2.450000*%
G04 APERTURE END LIST*
D10*
G36*
X148723493Y-111429035D02*
G01*
X148754435Y-111433625D01*
X148784778Y-111441225D01*
X148814230Y-111451763D01*
X148842508Y-111465138D01*
X148869338Y-111481219D01*
X148894463Y-111499853D01*
X148917640Y-111520860D01*
X148938647Y-111544037D01*
X148957281Y-111569162D01*
X148973362Y-111595992D01*
X148986737Y-111624270D01*
X148997275Y-111653722D01*
X149004875Y-111684065D01*
X149009465Y-111715007D01*
X149011000Y-111746250D01*
X149011000Y-112383750D01*
X149009465Y-112414993D01*
X149004875Y-112445935D01*
X148997275Y-112476278D01*
X148986737Y-112505730D01*
X148973362Y-112534008D01*
X148957281Y-112560838D01*
X148938647Y-112585963D01*
X148917640Y-112609140D01*
X148894463Y-112630147D01*
X148869338Y-112648781D01*
X148842508Y-112664862D01*
X148814230Y-112678237D01*
X148784778Y-112688775D01*
X148754435Y-112696375D01*
X148723493Y-112700965D01*
X148692250Y-112702500D01*
X147979750Y-112702500D01*
X147948507Y-112700965D01*
X147917565Y-112696375D01*
X147887222Y-112688775D01*
X147857770Y-112678237D01*
X147829492Y-112664862D01*
X147802662Y-112648781D01*
X147777537Y-112630147D01*
X147754360Y-112609140D01*
X147733353Y-112585963D01*
X147714719Y-112560838D01*
X147698638Y-112534008D01*
X147685263Y-112505730D01*
X147674725Y-112476278D01*
X147667125Y-112445935D01*
X147662535Y-112414993D01*
X147661000Y-112383750D01*
X147661000Y-111746250D01*
X147662535Y-111715007D01*
X147667125Y-111684065D01*
X147674725Y-111653722D01*
X147685263Y-111624270D01*
X147698638Y-111595992D01*
X147714719Y-111569162D01*
X147733353Y-111544037D01*
X147754360Y-111520860D01*
X147777537Y-111499853D01*
X147802662Y-111481219D01*
X147829492Y-111465138D01*
X147857770Y-111451763D01*
X147887222Y-111441225D01*
X147917565Y-111433625D01*
X147948507Y-111429035D01*
X147979750Y-111427500D01*
X148692250Y-111427500D01*
X148723493Y-111429035D01*
X148723493Y-111429035D01*
G37*
D11*
X148336000Y-112065000D03*
D10*
G36*
X148723493Y-109854035D02*
G01*
X148754435Y-109858625D01*
X148784778Y-109866225D01*
X148814230Y-109876763D01*
X148842508Y-109890138D01*
X148869338Y-109906219D01*
X148894463Y-109924853D01*
X148917640Y-109945860D01*
X148938647Y-109969037D01*
X148957281Y-109994162D01*
X148973362Y-110020992D01*
X148986737Y-110049270D01*
X148997275Y-110078722D01*
X149004875Y-110109065D01*
X149009465Y-110140007D01*
X149011000Y-110171250D01*
X149011000Y-110808750D01*
X149009465Y-110839993D01*
X149004875Y-110870935D01*
X148997275Y-110901278D01*
X148986737Y-110930730D01*
X148973362Y-110959008D01*
X148957281Y-110985838D01*
X148938647Y-111010963D01*
X148917640Y-111034140D01*
X148894463Y-111055147D01*
X148869338Y-111073781D01*
X148842508Y-111089862D01*
X148814230Y-111103237D01*
X148784778Y-111113775D01*
X148754435Y-111121375D01*
X148723493Y-111125965D01*
X148692250Y-111127500D01*
X147979750Y-111127500D01*
X147948507Y-111125965D01*
X147917565Y-111121375D01*
X147887222Y-111113775D01*
X147857770Y-111103237D01*
X147829492Y-111089862D01*
X147802662Y-111073781D01*
X147777537Y-111055147D01*
X147754360Y-111034140D01*
X147733353Y-111010963D01*
X147714719Y-110985838D01*
X147698638Y-110959008D01*
X147685263Y-110930730D01*
X147674725Y-110901278D01*
X147667125Y-110870935D01*
X147662535Y-110839993D01*
X147661000Y-110808750D01*
X147661000Y-110171250D01*
X147662535Y-110140007D01*
X147667125Y-110109065D01*
X147674725Y-110078722D01*
X147685263Y-110049270D01*
X147698638Y-110020992D01*
X147714719Y-109994162D01*
X147733353Y-109969037D01*
X147754360Y-109945860D01*
X147777537Y-109924853D01*
X147802662Y-109906219D01*
X147829492Y-109890138D01*
X147857770Y-109876763D01*
X147887222Y-109866225D01*
X147917565Y-109858625D01*
X147948507Y-109854035D01*
X147979750Y-109852500D01*
X148692250Y-109852500D01*
X148723493Y-109854035D01*
X148723493Y-109854035D01*
G37*
D11*
X148336000Y-110490000D03*
D10*
G36*
X152025493Y-109854035D02*
G01*
X152056435Y-109858625D01*
X152086778Y-109866225D01*
X152116230Y-109876763D01*
X152144508Y-109890138D01*
X152171338Y-109906219D01*
X152196463Y-109924853D01*
X152219640Y-109945860D01*
X152240647Y-109969037D01*
X152259281Y-109994162D01*
X152275362Y-110020992D01*
X152288737Y-110049270D01*
X152299275Y-110078722D01*
X152306875Y-110109065D01*
X152311465Y-110140007D01*
X152313000Y-110171250D01*
X152313000Y-110808750D01*
X152311465Y-110839993D01*
X152306875Y-110870935D01*
X152299275Y-110901278D01*
X152288737Y-110930730D01*
X152275362Y-110959008D01*
X152259281Y-110985838D01*
X152240647Y-111010963D01*
X152219640Y-111034140D01*
X152196463Y-111055147D01*
X152171338Y-111073781D01*
X152144508Y-111089862D01*
X152116230Y-111103237D01*
X152086778Y-111113775D01*
X152056435Y-111121375D01*
X152025493Y-111125965D01*
X151994250Y-111127500D01*
X151281750Y-111127500D01*
X151250507Y-111125965D01*
X151219565Y-111121375D01*
X151189222Y-111113775D01*
X151159770Y-111103237D01*
X151131492Y-111089862D01*
X151104662Y-111073781D01*
X151079537Y-111055147D01*
X151056360Y-111034140D01*
X151035353Y-111010963D01*
X151016719Y-110985838D01*
X151000638Y-110959008D01*
X150987263Y-110930730D01*
X150976725Y-110901278D01*
X150969125Y-110870935D01*
X150964535Y-110839993D01*
X150963000Y-110808750D01*
X150963000Y-110171250D01*
X150964535Y-110140007D01*
X150969125Y-110109065D01*
X150976725Y-110078722D01*
X150987263Y-110049270D01*
X151000638Y-110020992D01*
X151016719Y-109994162D01*
X151035353Y-109969037D01*
X151056360Y-109945860D01*
X151079537Y-109924853D01*
X151104662Y-109906219D01*
X151131492Y-109890138D01*
X151159770Y-109876763D01*
X151189222Y-109866225D01*
X151219565Y-109858625D01*
X151250507Y-109854035D01*
X151281750Y-109852500D01*
X151994250Y-109852500D01*
X152025493Y-109854035D01*
X152025493Y-109854035D01*
G37*
D11*
X151638000Y-110490000D03*
D10*
G36*
X152025493Y-111429035D02*
G01*
X152056435Y-111433625D01*
X152086778Y-111441225D01*
X152116230Y-111451763D01*
X152144508Y-111465138D01*
X152171338Y-111481219D01*
X152196463Y-111499853D01*
X152219640Y-111520860D01*
X152240647Y-111544037D01*
X152259281Y-111569162D01*
X152275362Y-111595992D01*
X152288737Y-111624270D01*
X152299275Y-111653722D01*
X152306875Y-111684065D01*
X152311465Y-111715007D01*
X152313000Y-111746250D01*
X152313000Y-112383750D01*
X152311465Y-112414993D01*
X152306875Y-112445935D01*
X152299275Y-112476278D01*
X152288737Y-112505730D01*
X152275362Y-112534008D01*
X152259281Y-112560838D01*
X152240647Y-112585963D01*
X152219640Y-112609140D01*
X152196463Y-112630147D01*
X152171338Y-112648781D01*
X152144508Y-112664862D01*
X152116230Y-112678237D01*
X152086778Y-112688775D01*
X152056435Y-112696375D01*
X152025493Y-112700965D01*
X151994250Y-112702500D01*
X151281750Y-112702500D01*
X151250507Y-112700965D01*
X151219565Y-112696375D01*
X151189222Y-112688775D01*
X151159770Y-112678237D01*
X151131492Y-112664862D01*
X151104662Y-112648781D01*
X151079537Y-112630147D01*
X151056360Y-112609140D01*
X151035353Y-112585963D01*
X151016719Y-112560838D01*
X151000638Y-112534008D01*
X150987263Y-112505730D01*
X150976725Y-112476278D01*
X150969125Y-112445935D01*
X150964535Y-112414993D01*
X150963000Y-112383750D01*
X150963000Y-111746250D01*
X150964535Y-111715007D01*
X150969125Y-111684065D01*
X150976725Y-111653722D01*
X150987263Y-111624270D01*
X151000638Y-111595992D01*
X151016719Y-111569162D01*
X151035353Y-111544037D01*
X151056360Y-111520860D01*
X151079537Y-111499853D01*
X151104662Y-111481219D01*
X151131492Y-111465138D01*
X151159770Y-111451763D01*
X151189222Y-111441225D01*
X151219565Y-111433625D01*
X151250507Y-111429035D01*
X151281750Y-111427500D01*
X151994250Y-111427500D01*
X152025493Y-111429035D01*
X152025493Y-111429035D01*
G37*
D11*
X151638000Y-112065000D03*
D10*
G36*
X148587493Y-100539035D02*
G01*
X148618435Y-100543625D01*
X148648778Y-100551225D01*
X148678230Y-100561763D01*
X148706508Y-100575138D01*
X148733338Y-100591219D01*
X148758463Y-100609853D01*
X148781640Y-100630860D01*
X148802647Y-100654037D01*
X148821281Y-100679162D01*
X148837362Y-100705992D01*
X148850737Y-100734270D01*
X148861275Y-100763722D01*
X148868875Y-100794065D01*
X148873465Y-100825007D01*
X148875000Y-100856250D01*
X148875000Y-101493750D01*
X148873465Y-101524993D01*
X148868875Y-101555935D01*
X148861275Y-101586278D01*
X148850737Y-101615730D01*
X148837362Y-101644008D01*
X148821281Y-101670838D01*
X148802647Y-101695963D01*
X148781640Y-101719140D01*
X148758463Y-101740147D01*
X148733338Y-101758781D01*
X148706508Y-101774862D01*
X148678230Y-101788237D01*
X148648778Y-101798775D01*
X148618435Y-101806375D01*
X148587493Y-101810965D01*
X148556250Y-101812500D01*
X147843750Y-101812500D01*
X147812507Y-101810965D01*
X147781565Y-101806375D01*
X147751222Y-101798775D01*
X147721770Y-101788237D01*
X147693492Y-101774862D01*
X147666662Y-101758781D01*
X147641537Y-101740147D01*
X147618360Y-101719140D01*
X147597353Y-101695963D01*
X147578719Y-101670838D01*
X147562638Y-101644008D01*
X147549263Y-101615730D01*
X147538725Y-101586278D01*
X147531125Y-101555935D01*
X147526535Y-101524993D01*
X147525000Y-101493750D01*
X147525000Y-100856250D01*
X147526535Y-100825007D01*
X147531125Y-100794065D01*
X147538725Y-100763722D01*
X147549263Y-100734270D01*
X147562638Y-100705992D01*
X147578719Y-100679162D01*
X147597353Y-100654037D01*
X147618360Y-100630860D01*
X147641537Y-100609853D01*
X147666662Y-100591219D01*
X147693492Y-100575138D01*
X147721770Y-100561763D01*
X147751222Y-100551225D01*
X147781565Y-100543625D01*
X147812507Y-100539035D01*
X147843750Y-100537500D01*
X148556250Y-100537500D01*
X148587493Y-100539035D01*
X148587493Y-100539035D01*
G37*
D11*
X148200000Y-101175000D03*
D10*
G36*
X148587493Y-98964035D02*
G01*
X148618435Y-98968625D01*
X148648778Y-98976225D01*
X148678230Y-98986763D01*
X148706508Y-99000138D01*
X148733338Y-99016219D01*
X148758463Y-99034853D01*
X148781640Y-99055860D01*
X148802647Y-99079037D01*
X148821281Y-99104162D01*
X148837362Y-99130992D01*
X148850737Y-99159270D01*
X148861275Y-99188722D01*
X148868875Y-99219065D01*
X148873465Y-99250007D01*
X148875000Y-99281250D01*
X148875000Y-99918750D01*
X148873465Y-99949993D01*
X148868875Y-99980935D01*
X148861275Y-100011278D01*
X148850737Y-100040730D01*
X148837362Y-100069008D01*
X148821281Y-100095838D01*
X148802647Y-100120963D01*
X148781640Y-100144140D01*
X148758463Y-100165147D01*
X148733338Y-100183781D01*
X148706508Y-100199862D01*
X148678230Y-100213237D01*
X148648778Y-100223775D01*
X148618435Y-100231375D01*
X148587493Y-100235965D01*
X148556250Y-100237500D01*
X147843750Y-100237500D01*
X147812507Y-100235965D01*
X147781565Y-100231375D01*
X147751222Y-100223775D01*
X147721770Y-100213237D01*
X147693492Y-100199862D01*
X147666662Y-100183781D01*
X147641537Y-100165147D01*
X147618360Y-100144140D01*
X147597353Y-100120963D01*
X147578719Y-100095838D01*
X147562638Y-100069008D01*
X147549263Y-100040730D01*
X147538725Y-100011278D01*
X147531125Y-99980935D01*
X147526535Y-99949993D01*
X147525000Y-99918750D01*
X147525000Y-99281250D01*
X147526535Y-99250007D01*
X147531125Y-99219065D01*
X147538725Y-99188722D01*
X147549263Y-99159270D01*
X147562638Y-99130992D01*
X147578719Y-99104162D01*
X147597353Y-99079037D01*
X147618360Y-99055860D01*
X147641537Y-99034853D01*
X147666662Y-99016219D01*
X147693492Y-99000138D01*
X147721770Y-98986763D01*
X147751222Y-98976225D01*
X147781565Y-98968625D01*
X147812507Y-98964035D01*
X147843750Y-98962500D01*
X148556250Y-98962500D01*
X148587493Y-98964035D01*
X148587493Y-98964035D01*
G37*
D11*
X148200000Y-99600000D03*
D10*
G36*
X157349443Y-112639655D02*
G01*
X157382812Y-112644605D01*
X157415535Y-112652802D01*
X157447297Y-112664166D01*
X157477793Y-112678590D01*
X157506727Y-112695932D01*
X157533823Y-112716028D01*
X157558818Y-112738682D01*
X157581472Y-112763677D01*
X157601568Y-112790773D01*
X157618910Y-112819707D01*
X157633334Y-112850203D01*
X157644698Y-112881965D01*
X157652895Y-112914688D01*
X157657845Y-112948057D01*
X157659500Y-112981750D01*
X157659500Y-114094250D01*
X157657845Y-114127943D01*
X157652895Y-114161312D01*
X157644698Y-114194035D01*
X157633334Y-114225797D01*
X157618910Y-114256293D01*
X157601568Y-114285227D01*
X157581472Y-114312323D01*
X157558818Y-114337318D01*
X157533823Y-114359972D01*
X157506727Y-114380068D01*
X157477793Y-114397410D01*
X157447297Y-114411834D01*
X157415535Y-114423198D01*
X157382812Y-114431395D01*
X157349443Y-114436345D01*
X157315750Y-114438000D01*
X156628250Y-114438000D01*
X156594557Y-114436345D01*
X156561188Y-114431395D01*
X156528465Y-114423198D01*
X156496703Y-114411834D01*
X156466207Y-114397410D01*
X156437273Y-114380068D01*
X156410177Y-114359972D01*
X156385182Y-114337318D01*
X156362528Y-114312323D01*
X156342432Y-114285227D01*
X156325090Y-114256293D01*
X156310666Y-114225797D01*
X156299302Y-114194035D01*
X156291105Y-114161312D01*
X156286155Y-114127943D01*
X156284500Y-114094250D01*
X156284500Y-112981750D01*
X156286155Y-112948057D01*
X156291105Y-112914688D01*
X156299302Y-112881965D01*
X156310666Y-112850203D01*
X156325090Y-112819707D01*
X156342432Y-112790773D01*
X156362528Y-112763677D01*
X156385182Y-112738682D01*
X156410177Y-112716028D01*
X156437273Y-112695932D01*
X156466207Y-112678590D01*
X156496703Y-112664166D01*
X156528465Y-112652802D01*
X156561188Y-112644605D01*
X156594557Y-112639655D01*
X156628250Y-112638000D01*
X157315750Y-112638000D01*
X157349443Y-112639655D01*
X157349443Y-112639655D01*
G37*
D12*
X156972000Y-113538000D03*
D10*
G36*
X155474443Y-112639655D02*
G01*
X155507812Y-112644605D01*
X155540535Y-112652802D01*
X155572297Y-112664166D01*
X155602793Y-112678590D01*
X155631727Y-112695932D01*
X155658823Y-112716028D01*
X155683818Y-112738682D01*
X155706472Y-112763677D01*
X155726568Y-112790773D01*
X155743910Y-112819707D01*
X155758334Y-112850203D01*
X155769698Y-112881965D01*
X155777895Y-112914688D01*
X155782845Y-112948057D01*
X155784500Y-112981750D01*
X155784500Y-114094250D01*
X155782845Y-114127943D01*
X155777895Y-114161312D01*
X155769698Y-114194035D01*
X155758334Y-114225797D01*
X155743910Y-114256293D01*
X155726568Y-114285227D01*
X155706472Y-114312323D01*
X155683818Y-114337318D01*
X155658823Y-114359972D01*
X155631727Y-114380068D01*
X155602793Y-114397410D01*
X155572297Y-114411834D01*
X155540535Y-114423198D01*
X155507812Y-114431395D01*
X155474443Y-114436345D01*
X155440750Y-114438000D01*
X154753250Y-114438000D01*
X154719557Y-114436345D01*
X154686188Y-114431395D01*
X154653465Y-114423198D01*
X154621703Y-114411834D01*
X154591207Y-114397410D01*
X154562273Y-114380068D01*
X154535177Y-114359972D01*
X154510182Y-114337318D01*
X154487528Y-114312323D01*
X154467432Y-114285227D01*
X154450090Y-114256293D01*
X154435666Y-114225797D01*
X154424302Y-114194035D01*
X154416105Y-114161312D01*
X154411155Y-114127943D01*
X154409500Y-114094250D01*
X154409500Y-112981750D01*
X154411155Y-112948057D01*
X154416105Y-112914688D01*
X154424302Y-112881965D01*
X154435666Y-112850203D01*
X154450090Y-112819707D01*
X154467432Y-112790773D01*
X154487528Y-112763677D01*
X154510182Y-112738682D01*
X154535177Y-112716028D01*
X154562273Y-112695932D01*
X154591207Y-112678590D01*
X154621703Y-112664166D01*
X154653465Y-112652802D01*
X154686188Y-112644605D01*
X154719557Y-112639655D01*
X154753250Y-112638000D01*
X155440750Y-112638000D01*
X155474443Y-112639655D01*
X155474443Y-112639655D01*
G37*
D12*
X155097000Y-113538000D03*
D10*
G36*
X157053943Y-100944155D02*
G01*
X157087312Y-100949105D01*
X157120035Y-100957302D01*
X157151797Y-100968666D01*
X157182293Y-100983090D01*
X157211227Y-101000432D01*
X157238323Y-101020528D01*
X157263318Y-101043182D01*
X157285972Y-101068177D01*
X157306068Y-101095273D01*
X157323410Y-101124207D01*
X157337834Y-101154703D01*
X157349198Y-101186465D01*
X157357395Y-101219188D01*
X157362345Y-101252557D01*
X157364000Y-101286250D01*
X157364000Y-101973750D01*
X157362345Y-102007443D01*
X157357395Y-102040812D01*
X157349198Y-102073535D01*
X157337834Y-102105297D01*
X157323410Y-102135793D01*
X157306068Y-102164727D01*
X157285972Y-102191823D01*
X157263318Y-102216818D01*
X157238323Y-102239472D01*
X157211227Y-102259568D01*
X157182293Y-102276910D01*
X157151797Y-102291334D01*
X157120035Y-102302698D01*
X157087312Y-102310895D01*
X157053943Y-102315845D01*
X157020250Y-102317500D01*
X155907750Y-102317500D01*
X155874057Y-102315845D01*
X155840688Y-102310895D01*
X155807965Y-102302698D01*
X155776203Y-102291334D01*
X155745707Y-102276910D01*
X155716773Y-102259568D01*
X155689677Y-102239472D01*
X155664682Y-102216818D01*
X155642028Y-102191823D01*
X155621932Y-102164727D01*
X155604590Y-102135793D01*
X155590166Y-102105297D01*
X155578802Y-102073535D01*
X155570605Y-102040812D01*
X155565655Y-102007443D01*
X155564000Y-101973750D01*
X155564000Y-101286250D01*
X155565655Y-101252557D01*
X155570605Y-101219188D01*
X155578802Y-101186465D01*
X155590166Y-101154703D01*
X155604590Y-101124207D01*
X155621932Y-101095273D01*
X155642028Y-101068177D01*
X155664682Y-101043182D01*
X155689677Y-101020528D01*
X155716773Y-101000432D01*
X155745707Y-100983090D01*
X155776203Y-100968666D01*
X155807965Y-100957302D01*
X155840688Y-100949105D01*
X155874057Y-100944155D01*
X155907750Y-100942500D01*
X157020250Y-100942500D01*
X157053943Y-100944155D01*
X157053943Y-100944155D01*
G37*
D12*
X156464000Y-101630000D03*
D10*
G36*
X157053943Y-102819155D02*
G01*
X157087312Y-102824105D01*
X157120035Y-102832302D01*
X157151797Y-102843666D01*
X157182293Y-102858090D01*
X157211227Y-102875432D01*
X157238323Y-102895528D01*
X157263318Y-102918182D01*
X157285972Y-102943177D01*
X157306068Y-102970273D01*
X157323410Y-102999207D01*
X157337834Y-103029703D01*
X157349198Y-103061465D01*
X157357395Y-103094188D01*
X157362345Y-103127557D01*
X157364000Y-103161250D01*
X157364000Y-103848750D01*
X157362345Y-103882443D01*
X157357395Y-103915812D01*
X157349198Y-103948535D01*
X157337834Y-103980297D01*
X157323410Y-104010793D01*
X157306068Y-104039727D01*
X157285972Y-104066823D01*
X157263318Y-104091818D01*
X157238323Y-104114472D01*
X157211227Y-104134568D01*
X157182293Y-104151910D01*
X157151797Y-104166334D01*
X157120035Y-104177698D01*
X157087312Y-104185895D01*
X157053943Y-104190845D01*
X157020250Y-104192500D01*
X155907750Y-104192500D01*
X155874057Y-104190845D01*
X155840688Y-104185895D01*
X155807965Y-104177698D01*
X155776203Y-104166334D01*
X155745707Y-104151910D01*
X155716773Y-104134568D01*
X155689677Y-104114472D01*
X155664682Y-104091818D01*
X155642028Y-104066823D01*
X155621932Y-104039727D01*
X155604590Y-104010793D01*
X155590166Y-103980297D01*
X155578802Y-103948535D01*
X155570605Y-103915812D01*
X155565655Y-103882443D01*
X155564000Y-103848750D01*
X155564000Y-103161250D01*
X155565655Y-103127557D01*
X155570605Y-103094188D01*
X155578802Y-103061465D01*
X155590166Y-103029703D01*
X155604590Y-102999207D01*
X155621932Y-102970273D01*
X155642028Y-102943177D01*
X155664682Y-102918182D01*
X155689677Y-102895528D01*
X155716773Y-102875432D01*
X155745707Y-102858090D01*
X155776203Y-102843666D01*
X155807965Y-102832302D01*
X155840688Y-102824105D01*
X155874057Y-102819155D01*
X155907750Y-102817500D01*
X157020250Y-102817500D01*
X157053943Y-102819155D01*
X157053943Y-102819155D01*
G37*
D12*
X156464000Y-103505000D03*
D13*
X151089000Y-108661000D03*
X150439000Y-108661000D03*
X149789000Y-108661000D03*
X149139000Y-108661000D03*
X149139000Y-102921000D03*
X149789000Y-102921000D03*
X150439000Y-102921000D03*
X151089000Y-102921000D03*
D10*
G36*
X157431846Y-107196089D02*
G01*
X157463880Y-107200841D01*
X157495294Y-107208710D01*
X157525786Y-107219620D01*
X157555061Y-107233466D01*
X157582838Y-107250115D01*
X157608850Y-107269407D01*
X157632845Y-107291155D01*
X157654593Y-107315150D01*
X157673885Y-107341162D01*
X157690534Y-107368939D01*
X157704380Y-107398214D01*
X157715290Y-107428706D01*
X157723159Y-107460120D01*
X157727911Y-107492154D01*
X157729500Y-107524500D01*
X157729500Y-108514500D01*
X157727911Y-108546846D01*
X157723159Y-108578880D01*
X157715290Y-108610294D01*
X157704380Y-108640786D01*
X157690534Y-108670061D01*
X157673885Y-108697838D01*
X157654593Y-108723850D01*
X157632845Y-108747845D01*
X157608850Y-108769593D01*
X157582838Y-108788885D01*
X157555061Y-108805534D01*
X157525786Y-108819380D01*
X157495294Y-108830290D01*
X157463880Y-108838159D01*
X157431846Y-108842911D01*
X157399500Y-108844500D01*
X155909500Y-108844500D01*
X155877154Y-108842911D01*
X155845120Y-108838159D01*
X155813706Y-108830290D01*
X155783214Y-108819380D01*
X155753939Y-108805534D01*
X155726162Y-108788885D01*
X155700150Y-108769593D01*
X155676155Y-108747845D01*
X155654407Y-108723850D01*
X155635115Y-108697838D01*
X155618466Y-108670061D01*
X155604620Y-108640786D01*
X155593710Y-108610294D01*
X155585841Y-108578880D01*
X155581089Y-108546846D01*
X155579500Y-108514500D01*
X155579500Y-107524500D01*
X155581089Y-107492154D01*
X155585841Y-107460120D01*
X155593710Y-107428706D01*
X155604620Y-107398214D01*
X155618466Y-107368939D01*
X155635115Y-107341162D01*
X155654407Y-107315150D01*
X155676155Y-107291155D01*
X155700150Y-107269407D01*
X155726162Y-107250115D01*
X155753939Y-107233466D01*
X155783214Y-107219620D01*
X155813706Y-107208710D01*
X155845120Y-107200841D01*
X155877154Y-107196089D01*
X155909500Y-107194500D01*
X157399500Y-107194500D01*
X157431846Y-107196089D01*
X157431846Y-107196089D01*
G37*
D14*
X156654500Y-108019500D03*
D10*
G36*
X157431846Y-104396089D02*
G01*
X157463880Y-104400841D01*
X157495294Y-104408710D01*
X157525786Y-104419620D01*
X157555061Y-104433466D01*
X157582838Y-104450115D01*
X157608850Y-104469407D01*
X157632845Y-104491155D01*
X157654593Y-104515150D01*
X157673885Y-104541162D01*
X157690534Y-104568939D01*
X157704380Y-104598214D01*
X157715290Y-104628706D01*
X157723159Y-104660120D01*
X157727911Y-104692154D01*
X157729500Y-104724500D01*
X157729500Y-105714500D01*
X157727911Y-105746846D01*
X157723159Y-105778880D01*
X157715290Y-105810294D01*
X157704380Y-105840786D01*
X157690534Y-105870061D01*
X157673885Y-105897838D01*
X157654593Y-105923850D01*
X157632845Y-105947845D01*
X157608850Y-105969593D01*
X157582838Y-105988885D01*
X157555061Y-106005534D01*
X157525786Y-106019380D01*
X157495294Y-106030290D01*
X157463880Y-106038159D01*
X157431846Y-106042911D01*
X157399500Y-106044500D01*
X155909500Y-106044500D01*
X155877154Y-106042911D01*
X155845120Y-106038159D01*
X155813706Y-106030290D01*
X155783214Y-106019380D01*
X155753939Y-106005534D01*
X155726162Y-105988885D01*
X155700150Y-105969593D01*
X155676155Y-105947845D01*
X155654407Y-105923850D01*
X155635115Y-105897838D01*
X155618466Y-105870061D01*
X155604620Y-105840786D01*
X155593710Y-105810294D01*
X155585841Y-105778880D01*
X155581089Y-105746846D01*
X155579500Y-105714500D01*
X155579500Y-104724500D01*
X155581089Y-104692154D01*
X155585841Y-104660120D01*
X155593710Y-104628706D01*
X155604620Y-104598214D01*
X155618466Y-104568939D01*
X155635115Y-104541162D01*
X155654407Y-104515150D01*
X155676155Y-104491155D01*
X155700150Y-104469407D01*
X155726162Y-104450115D01*
X155753939Y-104433466D01*
X155783214Y-104419620D01*
X155813706Y-104408710D01*
X155845120Y-104400841D01*
X155877154Y-104396089D01*
X155909500Y-104394500D01*
X157399500Y-104394500D01*
X157431846Y-104396089D01*
X157431846Y-104396089D01*
G37*
D14*
X156654500Y-105219500D03*
D15*
X153924000Y-95885000D03*
X146304000Y-111125000D03*
X153924000Y-98425000D03*
X146304000Y-108585000D03*
X153924000Y-100965000D03*
X146304000Y-106045000D03*
X153924000Y-103505000D03*
X146304000Y-103505000D03*
X153924000Y-106045000D03*
X146304000Y-100965000D03*
X153924000Y-108585000D03*
X146304000Y-98425000D03*
X153924000Y-111125000D03*
D16*
X146304000Y-95885000D03*
D17*
X147828000Y-92329000D03*
X147828000Y-87249000D03*
X152908000Y-87249000D03*
X152908000Y-92329000D03*
D18*
X150368000Y-89789000D03*
M02*
