G04 #@! TF.GenerationSoftware,KiCad,Pcbnew,(5.1.4)-1*
G04 #@! TF.CreationDate,2019-08-19T16:22:37-04:00*
G04 #@! TF.ProjectId,clock_buffer,636c6f63-6b5f-4627-9566-6665722e6b69,rev?*
G04 #@! TF.SameCoordinates,Original*
G04 #@! TF.FileFunction,Legend,Top*
G04 #@! TF.FilePolarity,Positive*
%FSLAX46Y46*%
G04 Gerber Fmt 4.6, Leading zero omitted, Abs format (unit mm)*
G04 Created by KiCad (PCBNEW (5.1.4)-1) date 2019-08-19 16:22:37*
%MOMM*%
%LPD*%
G04 APERTURE LIST*
%ADD10C,0.127000*%
%ADD11C,0.200000*%
%ADD12C,0.120000*%
%ADD13C,0.050000*%
%ADD14C,0.150000*%
G04 APERTURE END LIST*
D10*
X151664000Y-104176000D02*
X151477500Y-104176000D01*
X151664000Y-108676000D02*
X151664000Y-104176000D01*
X151477500Y-108676000D02*
X151664000Y-108676000D01*
X148564000Y-104176000D02*
X148750500Y-104176000D01*
X148564000Y-108676000D02*
X148564000Y-104176000D01*
X148750500Y-108676000D02*
X148564000Y-108676000D01*
D11*
X149239000Y-110406000D02*
G75*
G03X149239000Y-110406000I-100000J0D01*
G01*
D12*
X150601000Y-94269936D02*
X150601000Y-95474064D01*
X152421000Y-94269936D02*
X152421000Y-95474064D01*
X155254000Y-94495000D02*
X144974000Y-94495000D01*
X155254000Y-112515000D02*
X155254000Y-94495000D01*
X144974000Y-112515000D02*
X155254000Y-112515000D01*
X144974000Y-94495000D02*
X144974000Y-112515000D01*
X152764000Y-94555000D02*
X151114000Y-94555000D01*
X152764000Y-112455000D02*
X152764000Y-94555000D01*
X147464000Y-112455000D02*
X152764000Y-112455000D01*
X147464000Y-94555000D02*
X147464000Y-112455000D01*
X149114000Y-94555000D02*
X147464000Y-94555000D01*
X151114000Y-94555000D02*
G75*
G02X149114000Y-94555000I-1000000J0D01*
G01*
X148314000Y-114430000D02*
X151914000Y-114430000D01*
X148314000Y-121790000D02*
X151914000Y-121790000D01*
X153794000Y-116310000D02*
X153794000Y-119910000D01*
X146434000Y-116310000D02*
X146434000Y-119910000D01*
X150713064Y-100055000D02*
X149508936Y-100055000D01*
X150713064Y-101875000D02*
X149508936Y-101875000D01*
X150719064Y-97515000D02*
X149514936Y-97515000D01*
X150719064Y-99335000D02*
X149514936Y-99335000D01*
X148306064Y-92054000D02*
X147101936Y-92054000D01*
X148306064Y-93874000D02*
X147101936Y-93874000D01*
D13*
X149351135Y-105877690D02*
X149351135Y-106688234D01*
X149398814Y-106783592D01*
X149446493Y-106831271D01*
X149541851Y-106878950D01*
X149732567Y-106878950D01*
X149827925Y-106831271D01*
X149875604Y-106783592D01*
X149923283Y-106688234D01*
X149923283Y-105877690D01*
X150352395Y-105973049D02*
X150400074Y-105925370D01*
X150495432Y-105877690D01*
X150733827Y-105877690D01*
X150829185Y-105925370D01*
X150876864Y-105973049D01*
X150924543Y-106068407D01*
X150924543Y-106163765D01*
X150876864Y-106306802D01*
X150304716Y-106878950D01*
X150924543Y-106878950D01*
D14*
X151344333Y-92273380D02*
X150868142Y-92273380D01*
X150868142Y-91273380D01*
X152201476Y-92273380D02*
X151630047Y-92273380D01*
X151915761Y-92273380D02*
X151915761Y-91273380D01*
X151820523Y-91416238D01*
X151725285Y-91511476D01*
X151630047Y-91559095D01*
X145843666Y-112863380D02*
X145843666Y-113577666D01*
X145796047Y-113720523D01*
X145700809Y-113815761D01*
X145557952Y-113863380D01*
X145462714Y-113863380D01*
X146272238Y-112958619D02*
X146319857Y-112911000D01*
X146415095Y-112863380D01*
X146653190Y-112863380D01*
X146748428Y-112911000D01*
X146796047Y-112958619D01*
X146843666Y-113053857D01*
X146843666Y-113149095D01*
X146796047Y-113291952D01*
X146224619Y-113863380D01*
X146843666Y-113863380D01*
X153971666Y-112812380D02*
X153971666Y-113526666D01*
X153924047Y-113669523D01*
X153828809Y-113764761D01*
X153685952Y-113812380D01*
X153590714Y-113812380D01*
X154971666Y-113812380D02*
X154400238Y-113812380D01*
X154685952Y-113812380D02*
X154685952Y-112812380D01*
X154590714Y-112955238D01*
X154495476Y-113050476D01*
X154400238Y-113098095D01*
X148312142Y-103290666D02*
X148359761Y-103338285D01*
X148407380Y-103481142D01*
X148407380Y-103576380D01*
X148359761Y-103719238D01*
X148264523Y-103814476D01*
X148169285Y-103862095D01*
X147978809Y-103909714D01*
X147835952Y-103909714D01*
X147645476Y-103862095D01*
X147550238Y-103814476D01*
X147455000Y-103719238D01*
X147407380Y-103576380D01*
X147407380Y-103481142D01*
X147455000Y-103338285D01*
X147502619Y-103290666D01*
X147407380Y-102957333D02*
X147407380Y-102338285D01*
X147788333Y-102671619D01*
X147788333Y-102528761D01*
X147835952Y-102433523D01*
X147883571Y-102385904D01*
X147978809Y-102338285D01*
X148216904Y-102338285D01*
X148312142Y-102385904D01*
X148359761Y-102433523D01*
X148407380Y-102528761D01*
X148407380Y-102814476D01*
X148359761Y-102909714D01*
X148312142Y-102957333D01*
X148550333Y-97004142D02*
X148502714Y-97051761D01*
X148359857Y-97099380D01*
X148264619Y-97099380D01*
X148121761Y-97051761D01*
X148026523Y-96956523D01*
X147978904Y-96861285D01*
X147931285Y-96670809D01*
X147931285Y-96527952D01*
X147978904Y-96337476D01*
X148026523Y-96242238D01*
X148121761Y-96147000D01*
X148264619Y-96099380D01*
X148359857Y-96099380D01*
X148502714Y-96147000D01*
X148550333Y-96194619D01*
X148931285Y-96194619D02*
X148978904Y-96147000D01*
X149074142Y-96099380D01*
X149312238Y-96099380D01*
X149407476Y-96147000D01*
X149455095Y-96194619D01*
X149502714Y-96289857D01*
X149502714Y-96385095D01*
X149455095Y-96527952D01*
X148883666Y-97099380D01*
X149502714Y-97099380D01*
X147534333Y-91543142D02*
X147486714Y-91590761D01*
X147343857Y-91638380D01*
X147248619Y-91638380D01*
X147105761Y-91590761D01*
X147010523Y-91495523D01*
X146962904Y-91400285D01*
X146915285Y-91209809D01*
X146915285Y-91066952D01*
X146962904Y-90876476D01*
X147010523Y-90781238D01*
X147105761Y-90686000D01*
X147248619Y-90638380D01*
X147343857Y-90638380D01*
X147486714Y-90686000D01*
X147534333Y-90733619D01*
X148486714Y-91638380D02*
X147915285Y-91638380D01*
X148201000Y-91638380D02*
X148201000Y-90638380D01*
X148105761Y-90781238D01*
X148010523Y-90876476D01*
X147915285Y-90924095D01*
M02*
