G04 #@! TF.GenerationSoftware,KiCad,Pcbnew,(5.1.4)-1*
G04 #@! TF.CreationDate,2019-08-19T16:22:37-04:00*
G04 #@! TF.ProjectId,clock_buffer,636c6f63-6b5f-4627-9566-6665722e6b69,rev?*
G04 #@! TF.SameCoordinates,Original*
G04 #@! TF.FileFunction,Copper,L2,Bot*
G04 #@! TF.FilePolarity,Positive*
%FSLAX46Y46*%
G04 Gerber Fmt 4.6, Leading zero omitted, Abs format (unit mm)*
G04 Created by KiCad (PCBNEW (5.1.4)-1) date 2019-08-19 16:22:37*
%MOMM*%
%LPD*%
G04 APERTURE LIST*
%ADD10O,1.600000X1.600000*%
%ADD11R,1.600000X1.600000*%
%ADD12C,2.250000*%
%ADD13C,2.050000*%
%ADD14C,0.800000*%
%ADD15C,0.254000*%
G04 APERTURE END LIST*
D10*
X153924000Y-95885000D03*
X146304000Y-111125000D03*
X153924000Y-98425000D03*
X146304000Y-108585000D03*
X153924000Y-100965000D03*
X146304000Y-106045000D03*
X153924000Y-103505000D03*
X146304000Y-103505000D03*
X153924000Y-106045000D03*
X146304000Y-100965000D03*
X153924000Y-108585000D03*
X146304000Y-98425000D03*
X153924000Y-111125000D03*
D11*
X146304000Y-95885000D03*
D12*
X147574000Y-120650000D03*
X147574000Y-115570000D03*
X152654000Y-115570000D03*
X152654000Y-120650000D03*
D13*
X150114000Y-118110000D03*
D14*
X152400000Y-109728000D03*
D15*
G36*
X155515001Y-122114000D02*
G01*
X153603161Y-122114000D01*
X153698926Y-121874531D01*
X152654000Y-120829605D01*
X151609074Y-121874531D01*
X151704839Y-122114000D01*
X148523161Y-122114000D01*
X148618926Y-121874531D01*
X147574000Y-120829605D01*
X146529074Y-121874531D01*
X146624839Y-122114000D01*
X144713000Y-122114000D01*
X144713000Y-120707650D01*
X145806424Y-120707650D01*
X145851634Y-121051380D01*
X145963034Y-121379685D01*
X146072286Y-121584079D01*
X146349469Y-121694926D01*
X147394395Y-120650000D01*
X147753605Y-120650000D01*
X148798531Y-121694926D01*
X149075714Y-121584079D01*
X149229089Y-121273160D01*
X149318860Y-120938295D01*
X149334004Y-120707650D01*
X150886424Y-120707650D01*
X150931634Y-121051380D01*
X151043034Y-121379685D01*
X151152286Y-121584079D01*
X151429469Y-121694926D01*
X152474395Y-120650000D01*
X152833605Y-120650000D01*
X153878531Y-121694926D01*
X154155714Y-121584079D01*
X154309089Y-121273160D01*
X154398860Y-120938295D01*
X154421576Y-120592350D01*
X154376366Y-120248620D01*
X154264966Y-119920315D01*
X154155714Y-119715921D01*
X153878531Y-119605074D01*
X152833605Y-120650000D01*
X152474395Y-120650000D01*
X151429469Y-119605074D01*
X151152286Y-119715921D01*
X150998911Y-120026840D01*
X150909140Y-120361705D01*
X150886424Y-120707650D01*
X149334004Y-120707650D01*
X149341576Y-120592350D01*
X149296366Y-120248620D01*
X149184966Y-119920315D01*
X149075714Y-119715921D01*
X148798531Y-119605074D01*
X147753605Y-120650000D01*
X147394395Y-120650000D01*
X146349469Y-119605074D01*
X146072286Y-119715921D01*
X145918911Y-120026840D01*
X145829140Y-120361705D01*
X145806424Y-120707650D01*
X144713000Y-120707650D01*
X144713000Y-119425469D01*
X146529074Y-119425469D01*
X147574000Y-120470395D01*
X148618926Y-119425469D01*
X148508079Y-119148286D01*
X148197160Y-118994911D01*
X147862295Y-118905140D01*
X147516350Y-118882424D01*
X147172620Y-118927634D01*
X146844315Y-119039034D01*
X146639921Y-119148286D01*
X146529074Y-119425469D01*
X144713000Y-119425469D01*
X144713000Y-117946504D01*
X148454000Y-117946504D01*
X148454000Y-118273496D01*
X148517793Y-118594204D01*
X148642927Y-118896305D01*
X148824594Y-119168188D01*
X149055812Y-119399406D01*
X149327695Y-119581073D01*
X149629796Y-119706207D01*
X149950504Y-119770000D01*
X150277496Y-119770000D01*
X150598204Y-119706207D01*
X150900305Y-119581073D01*
X151133182Y-119425469D01*
X151609074Y-119425469D01*
X152654000Y-120470395D01*
X153698926Y-119425469D01*
X153588079Y-119148286D01*
X153277160Y-118994911D01*
X152942295Y-118905140D01*
X152596350Y-118882424D01*
X152252620Y-118927634D01*
X151924315Y-119039034D01*
X151719921Y-119148286D01*
X151609074Y-119425469D01*
X151133182Y-119425469D01*
X151172188Y-119399406D01*
X151403406Y-119168188D01*
X151585073Y-118896305D01*
X151710207Y-118594204D01*
X151774000Y-118273496D01*
X151774000Y-117946504D01*
X151710207Y-117625796D01*
X151585073Y-117323695D01*
X151403406Y-117051812D01*
X151172188Y-116820594D01*
X151133183Y-116794531D01*
X151609074Y-116794531D01*
X151719921Y-117071714D01*
X152030840Y-117225089D01*
X152365705Y-117314860D01*
X152711650Y-117337576D01*
X153055380Y-117292366D01*
X153383685Y-117180966D01*
X153588079Y-117071714D01*
X153698926Y-116794531D01*
X152654000Y-115749605D01*
X151609074Y-116794531D01*
X151133183Y-116794531D01*
X150900305Y-116638927D01*
X150598204Y-116513793D01*
X150277496Y-116450000D01*
X149950504Y-116450000D01*
X149629796Y-116513793D01*
X149327695Y-116638927D01*
X149055812Y-116820594D01*
X148824594Y-117051812D01*
X148642927Y-117323695D01*
X148517793Y-117625796D01*
X148454000Y-117946504D01*
X144713000Y-117946504D01*
X144713000Y-116794531D01*
X146529074Y-116794531D01*
X146639921Y-117071714D01*
X146950840Y-117225089D01*
X147285705Y-117314860D01*
X147631650Y-117337576D01*
X147975380Y-117292366D01*
X148303685Y-117180966D01*
X148508079Y-117071714D01*
X148618926Y-116794531D01*
X147574000Y-115749605D01*
X146529074Y-116794531D01*
X144713000Y-116794531D01*
X144713000Y-115627650D01*
X145806424Y-115627650D01*
X145851634Y-115971380D01*
X145963034Y-116299685D01*
X146072286Y-116504079D01*
X146349469Y-116614926D01*
X147394395Y-115570000D01*
X147753605Y-115570000D01*
X148798531Y-116614926D01*
X149075714Y-116504079D01*
X149229089Y-116193160D01*
X149318860Y-115858295D01*
X149334004Y-115627650D01*
X150886424Y-115627650D01*
X150931634Y-115971380D01*
X151043034Y-116299685D01*
X151152286Y-116504079D01*
X151429469Y-116614926D01*
X152474395Y-115570000D01*
X152833605Y-115570000D01*
X153878531Y-116614926D01*
X154155714Y-116504079D01*
X154309089Y-116193160D01*
X154398860Y-115858295D01*
X154421576Y-115512350D01*
X154376366Y-115168620D01*
X154264966Y-114840315D01*
X154155714Y-114635921D01*
X153878531Y-114525074D01*
X152833605Y-115570000D01*
X152474395Y-115570000D01*
X151429469Y-114525074D01*
X151152286Y-114635921D01*
X150998911Y-114946840D01*
X150909140Y-115281705D01*
X150886424Y-115627650D01*
X149334004Y-115627650D01*
X149341576Y-115512350D01*
X149296366Y-115168620D01*
X149184966Y-114840315D01*
X149075714Y-114635921D01*
X148798531Y-114525074D01*
X147753605Y-115570000D01*
X147394395Y-115570000D01*
X146349469Y-114525074D01*
X146072286Y-114635921D01*
X145918911Y-114946840D01*
X145829140Y-115281705D01*
X145806424Y-115627650D01*
X144713000Y-115627650D01*
X144713000Y-114345469D01*
X146529074Y-114345469D01*
X147574000Y-115390395D01*
X148618926Y-114345469D01*
X151609074Y-114345469D01*
X152654000Y-115390395D01*
X153698926Y-114345469D01*
X153588079Y-114068286D01*
X153277160Y-113914911D01*
X152942295Y-113825140D01*
X152596350Y-113802424D01*
X152252620Y-113847634D01*
X151924315Y-113959034D01*
X151719921Y-114068286D01*
X151609074Y-114345469D01*
X148618926Y-114345469D01*
X148508079Y-114068286D01*
X148197160Y-113914911D01*
X147862295Y-113825140D01*
X147516350Y-113802424D01*
X147172620Y-113847634D01*
X146844315Y-113959034D01*
X146639921Y-114068286D01*
X146529074Y-114345469D01*
X144713000Y-114345469D01*
X144713000Y-111474039D01*
X144912096Y-111474039D01*
X144952754Y-111608087D01*
X145072963Y-111862420D01*
X145240481Y-112088414D01*
X145448869Y-112277385D01*
X145690119Y-112422070D01*
X145954960Y-112516909D01*
X146177000Y-112395624D01*
X146177000Y-111252000D01*
X146431000Y-111252000D01*
X146431000Y-112395624D01*
X146653040Y-112516909D01*
X146917881Y-112422070D01*
X147159131Y-112277385D01*
X147367519Y-112088414D01*
X147535037Y-111862420D01*
X147655246Y-111608087D01*
X147695904Y-111474039D01*
X147573915Y-111252000D01*
X146431000Y-111252000D01*
X146177000Y-111252000D01*
X145034085Y-111252000D01*
X144912096Y-111474039D01*
X144713000Y-111474039D01*
X144713000Y-98425000D01*
X144862057Y-98425000D01*
X144889764Y-98706309D01*
X144971818Y-98976808D01*
X145105068Y-99226101D01*
X145284392Y-99444608D01*
X145502899Y-99623932D01*
X145635858Y-99695000D01*
X145502899Y-99766068D01*
X145284392Y-99945392D01*
X145105068Y-100163899D01*
X144971818Y-100413192D01*
X144889764Y-100683691D01*
X144862057Y-100965000D01*
X144889764Y-101246309D01*
X144971818Y-101516808D01*
X145105068Y-101766101D01*
X145284392Y-101984608D01*
X145502899Y-102163932D01*
X145635858Y-102235000D01*
X145502899Y-102306068D01*
X145284392Y-102485392D01*
X145105068Y-102703899D01*
X144971818Y-102953192D01*
X144889764Y-103223691D01*
X144862057Y-103505000D01*
X144889764Y-103786309D01*
X144971818Y-104056808D01*
X145105068Y-104306101D01*
X145284392Y-104524608D01*
X145502899Y-104703932D01*
X145635858Y-104775000D01*
X145502899Y-104846068D01*
X145284392Y-105025392D01*
X145105068Y-105243899D01*
X144971818Y-105493192D01*
X144889764Y-105763691D01*
X144862057Y-106045000D01*
X144889764Y-106326309D01*
X144971818Y-106596808D01*
X145105068Y-106846101D01*
X145284392Y-107064608D01*
X145502899Y-107243932D01*
X145635858Y-107315000D01*
X145502899Y-107386068D01*
X145284392Y-107565392D01*
X145105068Y-107783899D01*
X144971818Y-108033192D01*
X144889764Y-108303691D01*
X144862057Y-108585000D01*
X144889764Y-108866309D01*
X144971818Y-109136808D01*
X145105068Y-109386101D01*
X145284392Y-109604608D01*
X145502899Y-109783932D01*
X145640682Y-109857579D01*
X145448869Y-109972615D01*
X145240481Y-110161586D01*
X145072963Y-110387580D01*
X144952754Y-110641913D01*
X144912096Y-110775961D01*
X145034085Y-110998000D01*
X146177000Y-110998000D01*
X146177000Y-110978000D01*
X146431000Y-110978000D01*
X146431000Y-110998000D01*
X147573915Y-110998000D01*
X147695904Y-110775961D01*
X147655246Y-110641913D01*
X147535037Y-110387580D01*
X147367519Y-110161586D01*
X147159131Y-109972615D01*
X146967318Y-109857579D01*
X147105101Y-109783932D01*
X147323608Y-109604608D01*
X147502932Y-109386101D01*
X147636182Y-109136808D01*
X147649471Y-109093000D01*
X152578529Y-109093000D01*
X152591818Y-109136808D01*
X152725068Y-109386101D01*
X152904392Y-109604608D01*
X153122899Y-109783932D01*
X153255858Y-109855000D01*
X153122899Y-109926068D01*
X152904392Y-110105392D01*
X152725068Y-110323899D01*
X152591818Y-110573192D01*
X152509764Y-110843691D01*
X152482057Y-111125000D01*
X152509764Y-111406309D01*
X152591818Y-111676808D01*
X152725068Y-111926101D01*
X152904392Y-112144608D01*
X153122899Y-112323932D01*
X153372192Y-112457182D01*
X153642691Y-112539236D01*
X153853508Y-112560000D01*
X153994492Y-112560000D01*
X154205309Y-112539236D01*
X154475808Y-112457182D01*
X154725101Y-112323932D01*
X154943608Y-112144608D01*
X155122932Y-111926101D01*
X155256182Y-111676808D01*
X155338236Y-111406309D01*
X155365943Y-111125000D01*
X155338236Y-110843691D01*
X155256182Y-110573192D01*
X155122932Y-110323899D01*
X154943608Y-110105392D01*
X154725101Y-109926068D01*
X154592142Y-109855000D01*
X154725101Y-109783932D01*
X154943608Y-109604608D01*
X155122932Y-109386101D01*
X155256182Y-109136808D01*
X155338236Y-108866309D01*
X155365943Y-108585000D01*
X155338236Y-108303691D01*
X155256182Y-108033192D01*
X155122932Y-107783899D01*
X154943608Y-107565392D01*
X154725101Y-107386068D01*
X154592142Y-107315000D01*
X154725101Y-107243932D01*
X154943608Y-107064608D01*
X155122932Y-106846101D01*
X155256182Y-106596808D01*
X155338236Y-106326309D01*
X155365943Y-106045000D01*
X155338236Y-105763691D01*
X155256182Y-105493192D01*
X155122932Y-105243899D01*
X154943608Y-105025392D01*
X154725101Y-104846068D01*
X154592142Y-104775000D01*
X154725101Y-104703932D01*
X154943608Y-104524608D01*
X155122932Y-104306101D01*
X155256182Y-104056808D01*
X155338236Y-103786309D01*
X155365943Y-103505000D01*
X155338236Y-103223691D01*
X155256182Y-102953192D01*
X155122932Y-102703899D01*
X154943608Y-102485392D01*
X154725101Y-102306068D01*
X154592142Y-102235000D01*
X154725101Y-102163932D01*
X154943608Y-101984608D01*
X155122932Y-101766101D01*
X155256182Y-101516808D01*
X155338236Y-101246309D01*
X155365943Y-100965000D01*
X155338236Y-100683691D01*
X155256182Y-100413192D01*
X155122932Y-100163899D01*
X154943608Y-99945392D01*
X154725101Y-99766068D01*
X154592142Y-99695000D01*
X154725101Y-99623932D01*
X154943608Y-99444608D01*
X155122932Y-99226101D01*
X155256182Y-98976808D01*
X155338236Y-98706309D01*
X155365943Y-98425000D01*
X155338236Y-98143691D01*
X155256182Y-97873192D01*
X155122932Y-97623899D01*
X154943608Y-97405392D01*
X154725101Y-97226068D01*
X154592142Y-97155000D01*
X154725101Y-97083932D01*
X154943608Y-96904608D01*
X155122932Y-96686101D01*
X155256182Y-96436808D01*
X155338236Y-96166309D01*
X155365943Y-95885000D01*
X155338236Y-95603691D01*
X155256182Y-95333192D01*
X155122932Y-95083899D01*
X154943608Y-94865392D01*
X154725101Y-94686068D01*
X154475808Y-94552818D01*
X154205309Y-94470764D01*
X153994492Y-94450000D01*
X153853508Y-94450000D01*
X153642691Y-94470764D01*
X153372192Y-94552818D01*
X153122899Y-94686068D01*
X152904392Y-94865392D01*
X152725068Y-95083899D01*
X152591818Y-95333192D01*
X152509764Y-95603691D01*
X152482057Y-95885000D01*
X152509764Y-96166309D01*
X152591818Y-96436808D01*
X152725068Y-96686101D01*
X152904392Y-96904608D01*
X153122899Y-97083932D01*
X153255858Y-97155000D01*
X153122899Y-97226068D01*
X152904392Y-97405392D01*
X152725068Y-97623899D01*
X152591818Y-97873192D01*
X152509764Y-98143691D01*
X152482057Y-98425000D01*
X152509764Y-98706309D01*
X152591818Y-98976808D01*
X152725068Y-99226101D01*
X152904392Y-99444608D01*
X153122899Y-99623932D01*
X153255858Y-99695000D01*
X153122899Y-99766068D01*
X152904392Y-99945392D01*
X152725068Y-100163899D01*
X152591818Y-100413192D01*
X152509764Y-100683691D01*
X152482057Y-100965000D01*
X152509764Y-101246309D01*
X152591818Y-101516808D01*
X152725068Y-101766101D01*
X152904392Y-101984608D01*
X153122899Y-102163932D01*
X153255858Y-102235000D01*
X153122899Y-102306068D01*
X152904392Y-102485392D01*
X152725068Y-102703899D01*
X152591818Y-102953192D01*
X152509764Y-103223691D01*
X152482057Y-103505000D01*
X152507074Y-103759000D01*
X147720926Y-103759000D01*
X147745943Y-103505000D01*
X147718236Y-103223691D01*
X147636182Y-102953192D01*
X147502932Y-102703899D01*
X147323608Y-102485392D01*
X147105101Y-102306068D01*
X146972142Y-102235000D01*
X147105101Y-102163932D01*
X147323608Y-101984608D01*
X147502932Y-101766101D01*
X147636182Y-101516808D01*
X147718236Y-101246309D01*
X147745943Y-100965000D01*
X147718236Y-100683691D01*
X147636182Y-100413192D01*
X147502932Y-100163899D01*
X147323608Y-99945392D01*
X147105101Y-99766068D01*
X146972142Y-99695000D01*
X147105101Y-99623932D01*
X147323608Y-99444608D01*
X147502932Y-99226101D01*
X147636182Y-98976808D01*
X147718236Y-98706309D01*
X147745943Y-98425000D01*
X147718236Y-98143691D01*
X147636182Y-97873192D01*
X147502932Y-97623899D01*
X147323608Y-97405392D01*
X147210518Y-97312581D01*
X147228482Y-97310812D01*
X147348180Y-97274502D01*
X147458494Y-97215537D01*
X147555185Y-97136185D01*
X147634537Y-97039494D01*
X147693502Y-96929180D01*
X147729812Y-96809482D01*
X147742072Y-96685000D01*
X147742072Y-95085000D01*
X147729812Y-94960518D01*
X147693502Y-94840820D01*
X147634537Y-94730506D01*
X147555185Y-94633815D01*
X147458494Y-94554463D01*
X147348180Y-94495498D01*
X147228482Y-94459188D01*
X147104000Y-94446928D01*
X145504000Y-94446928D01*
X145379518Y-94459188D01*
X145259820Y-94495498D01*
X145149506Y-94554463D01*
X145052815Y-94633815D01*
X144973463Y-94730506D01*
X144914498Y-94840820D01*
X144878188Y-94960518D01*
X144865928Y-95085000D01*
X144865928Y-96685000D01*
X144878188Y-96809482D01*
X144914498Y-96929180D01*
X144973463Y-97039494D01*
X145052815Y-97136185D01*
X145149506Y-97215537D01*
X145259820Y-97274502D01*
X145379518Y-97310812D01*
X145397482Y-97312581D01*
X145284392Y-97405392D01*
X145105068Y-97623899D01*
X144971818Y-97873192D01*
X144889764Y-98143691D01*
X144862057Y-98425000D01*
X144713000Y-98425000D01*
X144713000Y-90865000D01*
X155515000Y-90865000D01*
X155515001Y-122114000D01*
X155515001Y-122114000D01*
G37*
X155515001Y-122114000D02*
X153603161Y-122114000D01*
X153698926Y-121874531D01*
X152654000Y-120829605D01*
X151609074Y-121874531D01*
X151704839Y-122114000D01*
X148523161Y-122114000D01*
X148618926Y-121874531D01*
X147574000Y-120829605D01*
X146529074Y-121874531D01*
X146624839Y-122114000D01*
X144713000Y-122114000D01*
X144713000Y-120707650D01*
X145806424Y-120707650D01*
X145851634Y-121051380D01*
X145963034Y-121379685D01*
X146072286Y-121584079D01*
X146349469Y-121694926D01*
X147394395Y-120650000D01*
X147753605Y-120650000D01*
X148798531Y-121694926D01*
X149075714Y-121584079D01*
X149229089Y-121273160D01*
X149318860Y-120938295D01*
X149334004Y-120707650D01*
X150886424Y-120707650D01*
X150931634Y-121051380D01*
X151043034Y-121379685D01*
X151152286Y-121584079D01*
X151429469Y-121694926D01*
X152474395Y-120650000D01*
X152833605Y-120650000D01*
X153878531Y-121694926D01*
X154155714Y-121584079D01*
X154309089Y-121273160D01*
X154398860Y-120938295D01*
X154421576Y-120592350D01*
X154376366Y-120248620D01*
X154264966Y-119920315D01*
X154155714Y-119715921D01*
X153878531Y-119605074D01*
X152833605Y-120650000D01*
X152474395Y-120650000D01*
X151429469Y-119605074D01*
X151152286Y-119715921D01*
X150998911Y-120026840D01*
X150909140Y-120361705D01*
X150886424Y-120707650D01*
X149334004Y-120707650D01*
X149341576Y-120592350D01*
X149296366Y-120248620D01*
X149184966Y-119920315D01*
X149075714Y-119715921D01*
X148798531Y-119605074D01*
X147753605Y-120650000D01*
X147394395Y-120650000D01*
X146349469Y-119605074D01*
X146072286Y-119715921D01*
X145918911Y-120026840D01*
X145829140Y-120361705D01*
X145806424Y-120707650D01*
X144713000Y-120707650D01*
X144713000Y-119425469D01*
X146529074Y-119425469D01*
X147574000Y-120470395D01*
X148618926Y-119425469D01*
X148508079Y-119148286D01*
X148197160Y-118994911D01*
X147862295Y-118905140D01*
X147516350Y-118882424D01*
X147172620Y-118927634D01*
X146844315Y-119039034D01*
X146639921Y-119148286D01*
X146529074Y-119425469D01*
X144713000Y-119425469D01*
X144713000Y-117946504D01*
X148454000Y-117946504D01*
X148454000Y-118273496D01*
X148517793Y-118594204D01*
X148642927Y-118896305D01*
X148824594Y-119168188D01*
X149055812Y-119399406D01*
X149327695Y-119581073D01*
X149629796Y-119706207D01*
X149950504Y-119770000D01*
X150277496Y-119770000D01*
X150598204Y-119706207D01*
X150900305Y-119581073D01*
X151133182Y-119425469D01*
X151609074Y-119425469D01*
X152654000Y-120470395D01*
X153698926Y-119425469D01*
X153588079Y-119148286D01*
X153277160Y-118994911D01*
X152942295Y-118905140D01*
X152596350Y-118882424D01*
X152252620Y-118927634D01*
X151924315Y-119039034D01*
X151719921Y-119148286D01*
X151609074Y-119425469D01*
X151133182Y-119425469D01*
X151172188Y-119399406D01*
X151403406Y-119168188D01*
X151585073Y-118896305D01*
X151710207Y-118594204D01*
X151774000Y-118273496D01*
X151774000Y-117946504D01*
X151710207Y-117625796D01*
X151585073Y-117323695D01*
X151403406Y-117051812D01*
X151172188Y-116820594D01*
X151133183Y-116794531D01*
X151609074Y-116794531D01*
X151719921Y-117071714D01*
X152030840Y-117225089D01*
X152365705Y-117314860D01*
X152711650Y-117337576D01*
X153055380Y-117292366D01*
X153383685Y-117180966D01*
X153588079Y-117071714D01*
X153698926Y-116794531D01*
X152654000Y-115749605D01*
X151609074Y-116794531D01*
X151133183Y-116794531D01*
X150900305Y-116638927D01*
X150598204Y-116513793D01*
X150277496Y-116450000D01*
X149950504Y-116450000D01*
X149629796Y-116513793D01*
X149327695Y-116638927D01*
X149055812Y-116820594D01*
X148824594Y-117051812D01*
X148642927Y-117323695D01*
X148517793Y-117625796D01*
X148454000Y-117946504D01*
X144713000Y-117946504D01*
X144713000Y-116794531D01*
X146529074Y-116794531D01*
X146639921Y-117071714D01*
X146950840Y-117225089D01*
X147285705Y-117314860D01*
X147631650Y-117337576D01*
X147975380Y-117292366D01*
X148303685Y-117180966D01*
X148508079Y-117071714D01*
X148618926Y-116794531D01*
X147574000Y-115749605D01*
X146529074Y-116794531D01*
X144713000Y-116794531D01*
X144713000Y-115627650D01*
X145806424Y-115627650D01*
X145851634Y-115971380D01*
X145963034Y-116299685D01*
X146072286Y-116504079D01*
X146349469Y-116614926D01*
X147394395Y-115570000D01*
X147753605Y-115570000D01*
X148798531Y-116614926D01*
X149075714Y-116504079D01*
X149229089Y-116193160D01*
X149318860Y-115858295D01*
X149334004Y-115627650D01*
X150886424Y-115627650D01*
X150931634Y-115971380D01*
X151043034Y-116299685D01*
X151152286Y-116504079D01*
X151429469Y-116614926D01*
X152474395Y-115570000D01*
X152833605Y-115570000D01*
X153878531Y-116614926D01*
X154155714Y-116504079D01*
X154309089Y-116193160D01*
X154398860Y-115858295D01*
X154421576Y-115512350D01*
X154376366Y-115168620D01*
X154264966Y-114840315D01*
X154155714Y-114635921D01*
X153878531Y-114525074D01*
X152833605Y-115570000D01*
X152474395Y-115570000D01*
X151429469Y-114525074D01*
X151152286Y-114635921D01*
X150998911Y-114946840D01*
X150909140Y-115281705D01*
X150886424Y-115627650D01*
X149334004Y-115627650D01*
X149341576Y-115512350D01*
X149296366Y-115168620D01*
X149184966Y-114840315D01*
X149075714Y-114635921D01*
X148798531Y-114525074D01*
X147753605Y-115570000D01*
X147394395Y-115570000D01*
X146349469Y-114525074D01*
X146072286Y-114635921D01*
X145918911Y-114946840D01*
X145829140Y-115281705D01*
X145806424Y-115627650D01*
X144713000Y-115627650D01*
X144713000Y-114345469D01*
X146529074Y-114345469D01*
X147574000Y-115390395D01*
X148618926Y-114345469D01*
X151609074Y-114345469D01*
X152654000Y-115390395D01*
X153698926Y-114345469D01*
X153588079Y-114068286D01*
X153277160Y-113914911D01*
X152942295Y-113825140D01*
X152596350Y-113802424D01*
X152252620Y-113847634D01*
X151924315Y-113959034D01*
X151719921Y-114068286D01*
X151609074Y-114345469D01*
X148618926Y-114345469D01*
X148508079Y-114068286D01*
X148197160Y-113914911D01*
X147862295Y-113825140D01*
X147516350Y-113802424D01*
X147172620Y-113847634D01*
X146844315Y-113959034D01*
X146639921Y-114068286D01*
X146529074Y-114345469D01*
X144713000Y-114345469D01*
X144713000Y-111474039D01*
X144912096Y-111474039D01*
X144952754Y-111608087D01*
X145072963Y-111862420D01*
X145240481Y-112088414D01*
X145448869Y-112277385D01*
X145690119Y-112422070D01*
X145954960Y-112516909D01*
X146177000Y-112395624D01*
X146177000Y-111252000D01*
X146431000Y-111252000D01*
X146431000Y-112395624D01*
X146653040Y-112516909D01*
X146917881Y-112422070D01*
X147159131Y-112277385D01*
X147367519Y-112088414D01*
X147535037Y-111862420D01*
X147655246Y-111608087D01*
X147695904Y-111474039D01*
X147573915Y-111252000D01*
X146431000Y-111252000D01*
X146177000Y-111252000D01*
X145034085Y-111252000D01*
X144912096Y-111474039D01*
X144713000Y-111474039D01*
X144713000Y-98425000D01*
X144862057Y-98425000D01*
X144889764Y-98706309D01*
X144971818Y-98976808D01*
X145105068Y-99226101D01*
X145284392Y-99444608D01*
X145502899Y-99623932D01*
X145635858Y-99695000D01*
X145502899Y-99766068D01*
X145284392Y-99945392D01*
X145105068Y-100163899D01*
X144971818Y-100413192D01*
X144889764Y-100683691D01*
X144862057Y-100965000D01*
X144889764Y-101246309D01*
X144971818Y-101516808D01*
X145105068Y-101766101D01*
X145284392Y-101984608D01*
X145502899Y-102163932D01*
X145635858Y-102235000D01*
X145502899Y-102306068D01*
X145284392Y-102485392D01*
X145105068Y-102703899D01*
X144971818Y-102953192D01*
X144889764Y-103223691D01*
X144862057Y-103505000D01*
X144889764Y-103786309D01*
X144971818Y-104056808D01*
X145105068Y-104306101D01*
X145284392Y-104524608D01*
X145502899Y-104703932D01*
X145635858Y-104775000D01*
X145502899Y-104846068D01*
X145284392Y-105025392D01*
X145105068Y-105243899D01*
X144971818Y-105493192D01*
X144889764Y-105763691D01*
X144862057Y-106045000D01*
X144889764Y-106326309D01*
X144971818Y-106596808D01*
X145105068Y-106846101D01*
X145284392Y-107064608D01*
X145502899Y-107243932D01*
X145635858Y-107315000D01*
X145502899Y-107386068D01*
X145284392Y-107565392D01*
X145105068Y-107783899D01*
X144971818Y-108033192D01*
X144889764Y-108303691D01*
X144862057Y-108585000D01*
X144889764Y-108866309D01*
X144971818Y-109136808D01*
X145105068Y-109386101D01*
X145284392Y-109604608D01*
X145502899Y-109783932D01*
X145640682Y-109857579D01*
X145448869Y-109972615D01*
X145240481Y-110161586D01*
X145072963Y-110387580D01*
X144952754Y-110641913D01*
X144912096Y-110775961D01*
X145034085Y-110998000D01*
X146177000Y-110998000D01*
X146177000Y-110978000D01*
X146431000Y-110978000D01*
X146431000Y-110998000D01*
X147573915Y-110998000D01*
X147695904Y-110775961D01*
X147655246Y-110641913D01*
X147535037Y-110387580D01*
X147367519Y-110161586D01*
X147159131Y-109972615D01*
X146967318Y-109857579D01*
X147105101Y-109783932D01*
X147323608Y-109604608D01*
X147502932Y-109386101D01*
X147636182Y-109136808D01*
X147649471Y-109093000D01*
X152578529Y-109093000D01*
X152591818Y-109136808D01*
X152725068Y-109386101D01*
X152904392Y-109604608D01*
X153122899Y-109783932D01*
X153255858Y-109855000D01*
X153122899Y-109926068D01*
X152904392Y-110105392D01*
X152725068Y-110323899D01*
X152591818Y-110573192D01*
X152509764Y-110843691D01*
X152482057Y-111125000D01*
X152509764Y-111406309D01*
X152591818Y-111676808D01*
X152725068Y-111926101D01*
X152904392Y-112144608D01*
X153122899Y-112323932D01*
X153372192Y-112457182D01*
X153642691Y-112539236D01*
X153853508Y-112560000D01*
X153994492Y-112560000D01*
X154205309Y-112539236D01*
X154475808Y-112457182D01*
X154725101Y-112323932D01*
X154943608Y-112144608D01*
X155122932Y-111926101D01*
X155256182Y-111676808D01*
X155338236Y-111406309D01*
X155365943Y-111125000D01*
X155338236Y-110843691D01*
X155256182Y-110573192D01*
X155122932Y-110323899D01*
X154943608Y-110105392D01*
X154725101Y-109926068D01*
X154592142Y-109855000D01*
X154725101Y-109783932D01*
X154943608Y-109604608D01*
X155122932Y-109386101D01*
X155256182Y-109136808D01*
X155338236Y-108866309D01*
X155365943Y-108585000D01*
X155338236Y-108303691D01*
X155256182Y-108033192D01*
X155122932Y-107783899D01*
X154943608Y-107565392D01*
X154725101Y-107386068D01*
X154592142Y-107315000D01*
X154725101Y-107243932D01*
X154943608Y-107064608D01*
X155122932Y-106846101D01*
X155256182Y-106596808D01*
X155338236Y-106326309D01*
X155365943Y-106045000D01*
X155338236Y-105763691D01*
X155256182Y-105493192D01*
X155122932Y-105243899D01*
X154943608Y-105025392D01*
X154725101Y-104846068D01*
X154592142Y-104775000D01*
X154725101Y-104703932D01*
X154943608Y-104524608D01*
X155122932Y-104306101D01*
X155256182Y-104056808D01*
X155338236Y-103786309D01*
X155365943Y-103505000D01*
X155338236Y-103223691D01*
X155256182Y-102953192D01*
X155122932Y-102703899D01*
X154943608Y-102485392D01*
X154725101Y-102306068D01*
X154592142Y-102235000D01*
X154725101Y-102163932D01*
X154943608Y-101984608D01*
X155122932Y-101766101D01*
X155256182Y-101516808D01*
X155338236Y-101246309D01*
X155365943Y-100965000D01*
X155338236Y-100683691D01*
X155256182Y-100413192D01*
X155122932Y-100163899D01*
X154943608Y-99945392D01*
X154725101Y-99766068D01*
X154592142Y-99695000D01*
X154725101Y-99623932D01*
X154943608Y-99444608D01*
X155122932Y-99226101D01*
X155256182Y-98976808D01*
X155338236Y-98706309D01*
X155365943Y-98425000D01*
X155338236Y-98143691D01*
X155256182Y-97873192D01*
X155122932Y-97623899D01*
X154943608Y-97405392D01*
X154725101Y-97226068D01*
X154592142Y-97155000D01*
X154725101Y-97083932D01*
X154943608Y-96904608D01*
X155122932Y-96686101D01*
X155256182Y-96436808D01*
X155338236Y-96166309D01*
X155365943Y-95885000D01*
X155338236Y-95603691D01*
X155256182Y-95333192D01*
X155122932Y-95083899D01*
X154943608Y-94865392D01*
X154725101Y-94686068D01*
X154475808Y-94552818D01*
X154205309Y-94470764D01*
X153994492Y-94450000D01*
X153853508Y-94450000D01*
X153642691Y-94470764D01*
X153372192Y-94552818D01*
X153122899Y-94686068D01*
X152904392Y-94865392D01*
X152725068Y-95083899D01*
X152591818Y-95333192D01*
X152509764Y-95603691D01*
X152482057Y-95885000D01*
X152509764Y-96166309D01*
X152591818Y-96436808D01*
X152725068Y-96686101D01*
X152904392Y-96904608D01*
X153122899Y-97083932D01*
X153255858Y-97155000D01*
X153122899Y-97226068D01*
X152904392Y-97405392D01*
X152725068Y-97623899D01*
X152591818Y-97873192D01*
X152509764Y-98143691D01*
X152482057Y-98425000D01*
X152509764Y-98706309D01*
X152591818Y-98976808D01*
X152725068Y-99226101D01*
X152904392Y-99444608D01*
X153122899Y-99623932D01*
X153255858Y-99695000D01*
X153122899Y-99766068D01*
X152904392Y-99945392D01*
X152725068Y-100163899D01*
X152591818Y-100413192D01*
X152509764Y-100683691D01*
X152482057Y-100965000D01*
X152509764Y-101246309D01*
X152591818Y-101516808D01*
X152725068Y-101766101D01*
X152904392Y-101984608D01*
X153122899Y-102163932D01*
X153255858Y-102235000D01*
X153122899Y-102306068D01*
X152904392Y-102485392D01*
X152725068Y-102703899D01*
X152591818Y-102953192D01*
X152509764Y-103223691D01*
X152482057Y-103505000D01*
X152507074Y-103759000D01*
X147720926Y-103759000D01*
X147745943Y-103505000D01*
X147718236Y-103223691D01*
X147636182Y-102953192D01*
X147502932Y-102703899D01*
X147323608Y-102485392D01*
X147105101Y-102306068D01*
X146972142Y-102235000D01*
X147105101Y-102163932D01*
X147323608Y-101984608D01*
X147502932Y-101766101D01*
X147636182Y-101516808D01*
X147718236Y-101246309D01*
X147745943Y-100965000D01*
X147718236Y-100683691D01*
X147636182Y-100413192D01*
X147502932Y-100163899D01*
X147323608Y-99945392D01*
X147105101Y-99766068D01*
X146972142Y-99695000D01*
X147105101Y-99623932D01*
X147323608Y-99444608D01*
X147502932Y-99226101D01*
X147636182Y-98976808D01*
X147718236Y-98706309D01*
X147745943Y-98425000D01*
X147718236Y-98143691D01*
X147636182Y-97873192D01*
X147502932Y-97623899D01*
X147323608Y-97405392D01*
X147210518Y-97312581D01*
X147228482Y-97310812D01*
X147348180Y-97274502D01*
X147458494Y-97215537D01*
X147555185Y-97136185D01*
X147634537Y-97039494D01*
X147693502Y-96929180D01*
X147729812Y-96809482D01*
X147742072Y-96685000D01*
X147742072Y-95085000D01*
X147729812Y-94960518D01*
X147693502Y-94840820D01*
X147634537Y-94730506D01*
X147555185Y-94633815D01*
X147458494Y-94554463D01*
X147348180Y-94495498D01*
X147228482Y-94459188D01*
X147104000Y-94446928D01*
X145504000Y-94446928D01*
X145379518Y-94459188D01*
X145259820Y-94495498D01*
X145149506Y-94554463D01*
X145052815Y-94633815D01*
X144973463Y-94730506D01*
X144914498Y-94840820D01*
X144878188Y-94960518D01*
X144865928Y-95085000D01*
X144865928Y-96685000D01*
X144878188Y-96809482D01*
X144914498Y-96929180D01*
X144973463Y-97039494D01*
X145052815Y-97136185D01*
X145149506Y-97215537D01*
X145259820Y-97274502D01*
X145379518Y-97310812D01*
X145397482Y-97312581D01*
X145284392Y-97405392D01*
X145105068Y-97623899D01*
X144971818Y-97873192D01*
X144889764Y-98143691D01*
X144862057Y-98425000D01*
X144713000Y-98425000D01*
X144713000Y-90865000D01*
X155515000Y-90865000D01*
X155515001Y-122114000D01*
M02*
