G04 #@! TF.GenerationSoftware,KiCad,Pcbnew,(5.1.4)-1*
G04 #@! TF.CreationDate,2019-08-27T15:23:33-04:00*
G04 #@! TF.ProjectId,clock_buffer,636c6f63-6b5f-4627-9566-6665722e6b69,rev?*
G04 #@! TF.SameCoordinates,Original*
G04 #@! TF.FileFunction,Copper,L1,Top*
G04 #@! TF.FilePolarity,Positive*
%FSLAX46Y46*%
G04 Gerber Fmt 4.6, Leading zero omitted, Abs format (unit mm)*
G04 Created by KiCad (PCBNEW (5.1.4)-1) date 2019-08-27 15:23:33*
%MOMM*%
%LPD*%
G04 APERTURE LIST*
%ADD10C,0.100000*%
%ADD11C,0.875000*%
%ADD12C,0.975000*%
%ADD13R,0.410000X1.570000*%
%ADD14C,1.250000*%
%ADD15O,1.600000X1.600000*%
%ADD16R,1.600000X1.600000*%
%ADD17C,2.250000*%
%ADD18C,2.050000*%
%ADD19C,0.800000*%
%ADD20C,1.000000*%
%ADD21C,0.400000*%
%ADD22C,0.254000*%
G04 APERTURE END LIST*
D10*
G36*
X148477691Y-100738553D02*
G01*
X148498926Y-100741703D01*
X148519750Y-100746919D01*
X148539962Y-100754151D01*
X148559368Y-100763330D01*
X148577781Y-100774366D01*
X148595024Y-100787154D01*
X148610930Y-100801570D01*
X148625346Y-100817476D01*
X148638134Y-100834719D01*
X148649170Y-100853132D01*
X148658349Y-100872538D01*
X148665581Y-100892750D01*
X148670797Y-100913574D01*
X148673947Y-100934809D01*
X148675000Y-100956250D01*
X148675000Y-101393750D01*
X148673947Y-101415191D01*
X148670797Y-101436426D01*
X148665581Y-101457250D01*
X148658349Y-101477462D01*
X148649170Y-101496868D01*
X148638134Y-101515281D01*
X148625346Y-101532524D01*
X148610930Y-101548430D01*
X148595024Y-101562846D01*
X148577781Y-101575634D01*
X148559368Y-101586670D01*
X148539962Y-101595849D01*
X148519750Y-101603081D01*
X148498926Y-101608297D01*
X148477691Y-101611447D01*
X148456250Y-101612500D01*
X147943750Y-101612500D01*
X147922309Y-101611447D01*
X147901074Y-101608297D01*
X147880250Y-101603081D01*
X147860038Y-101595849D01*
X147840632Y-101586670D01*
X147822219Y-101575634D01*
X147804976Y-101562846D01*
X147789070Y-101548430D01*
X147774654Y-101532524D01*
X147761866Y-101515281D01*
X147750830Y-101496868D01*
X147741651Y-101477462D01*
X147734419Y-101457250D01*
X147729203Y-101436426D01*
X147726053Y-101415191D01*
X147725000Y-101393750D01*
X147725000Y-100956250D01*
X147726053Y-100934809D01*
X147729203Y-100913574D01*
X147734419Y-100892750D01*
X147741651Y-100872538D01*
X147750830Y-100853132D01*
X147761866Y-100834719D01*
X147774654Y-100817476D01*
X147789070Y-100801570D01*
X147804976Y-100787154D01*
X147822219Y-100774366D01*
X147840632Y-100763330D01*
X147860038Y-100754151D01*
X147880250Y-100746919D01*
X147901074Y-100741703D01*
X147922309Y-100738553D01*
X147943750Y-100737500D01*
X148456250Y-100737500D01*
X148477691Y-100738553D01*
X148477691Y-100738553D01*
G37*
D11*
X148200000Y-101175000D03*
D10*
G36*
X148477691Y-99163553D02*
G01*
X148498926Y-99166703D01*
X148519750Y-99171919D01*
X148539962Y-99179151D01*
X148559368Y-99188330D01*
X148577781Y-99199366D01*
X148595024Y-99212154D01*
X148610930Y-99226570D01*
X148625346Y-99242476D01*
X148638134Y-99259719D01*
X148649170Y-99278132D01*
X148658349Y-99297538D01*
X148665581Y-99317750D01*
X148670797Y-99338574D01*
X148673947Y-99359809D01*
X148675000Y-99381250D01*
X148675000Y-99818750D01*
X148673947Y-99840191D01*
X148670797Y-99861426D01*
X148665581Y-99882250D01*
X148658349Y-99902462D01*
X148649170Y-99921868D01*
X148638134Y-99940281D01*
X148625346Y-99957524D01*
X148610930Y-99973430D01*
X148595024Y-99987846D01*
X148577781Y-100000634D01*
X148559368Y-100011670D01*
X148539962Y-100020849D01*
X148519750Y-100028081D01*
X148498926Y-100033297D01*
X148477691Y-100036447D01*
X148456250Y-100037500D01*
X147943750Y-100037500D01*
X147922309Y-100036447D01*
X147901074Y-100033297D01*
X147880250Y-100028081D01*
X147860038Y-100020849D01*
X147840632Y-100011670D01*
X147822219Y-100000634D01*
X147804976Y-99987846D01*
X147789070Y-99973430D01*
X147774654Y-99957524D01*
X147761866Y-99940281D01*
X147750830Y-99921868D01*
X147741651Y-99902462D01*
X147734419Y-99882250D01*
X147729203Y-99861426D01*
X147726053Y-99840191D01*
X147725000Y-99818750D01*
X147725000Y-99381250D01*
X147726053Y-99359809D01*
X147729203Y-99338574D01*
X147734419Y-99317750D01*
X147741651Y-99297538D01*
X147750830Y-99278132D01*
X147761866Y-99259719D01*
X147774654Y-99242476D01*
X147789070Y-99226570D01*
X147804976Y-99212154D01*
X147822219Y-99199366D01*
X147840632Y-99188330D01*
X147860038Y-99179151D01*
X147880250Y-99171919D01*
X147901074Y-99166703D01*
X147922309Y-99163553D01*
X147943750Y-99162500D01*
X148456250Y-99162500D01*
X148477691Y-99163553D01*
X148477691Y-99163553D01*
G37*
D11*
X148200000Y-99600000D03*
D10*
G36*
X148603642Y-110680174D02*
G01*
X148627303Y-110683684D01*
X148650507Y-110689496D01*
X148673029Y-110697554D01*
X148694653Y-110707782D01*
X148715170Y-110720079D01*
X148734383Y-110734329D01*
X148752107Y-110750393D01*
X148768171Y-110768117D01*
X148782421Y-110787330D01*
X148794718Y-110807847D01*
X148804946Y-110829471D01*
X148813004Y-110851993D01*
X148818816Y-110875197D01*
X148822326Y-110898858D01*
X148823500Y-110922750D01*
X148823500Y-111835250D01*
X148822326Y-111859142D01*
X148818816Y-111882803D01*
X148813004Y-111906007D01*
X148804946Y-111928529D01*
X148794718Y-111950153D01*
X148782421Y-111970670D01*
X148768171Y-111989883D01*
X148752107Y-112007607D01*
X148734383Y-112023671D01*
X148715170Y-112037921D01*
X148694653Y-112050218D01*
X148673029Y-112060446D01*
X148650507Y-112068504D01*
X148627303Y-112074316D01*
X148603642Y-112077826D01*
X148579750Y-112079000D01*
X148092250Y-112079000D01*
X148068358Y-112077826D01*
X148044697Y-112074316D01*
X148021493Y-112068504D01*
X147998971Y-112060446D01*
X147977347Y-112050218D01*
X147956830Y-112037921D01*
X147937617Y-112023671D01*
X147919893Y-112007607D01*
X147903829Y-111989883D01*
X147889579Y-111970670D01*
X147877282Y-111950153D01*
X147867054Y-111928529D01*
X147858996Y-111906007D01*
X147853184Y-111882803D01*
X147849674Y-111859142D01*
X147848500Y-111835250D01*
X147848500Y-110922750D01*
X147849674Y-110898858D01*
X147853184Y-110875197D01*
X147858996Y-110851993D01*
X147867054Y-110829471D01*
X147877282Y-110807847D01*
X147889579Y-110787330D01*
X147903829Y-110768117D01*
X147919893Y-110750393D01*
X147937617Y-110734329D01*
X147956830Y-110720079D01*
X147977347Y-110707782D01*
X147998971Y-110697554D01*
X148021493Y-110689496D01*
X148044697Y-110683684D01*
X148068358Y-110680174D01*
X148092250Y-110679000D01*
X148579750Y-110679000D01*
X148603642Y-110680174D01*
X148603642Y-110680174D01*
G37*
D12*
X148336000Y-111379000D03*
D10*
G36*
X150478642Y-110680174D02*
G01*
X150502303Y-110683684D01*
X150525507Y-110689496D01*
X150548029Y-110697554D01*
X150569653Y-110707782D01*
X150590170Y-110720079D01*
X150609383Y-110734329D01*
X150627107Y-110750393D01*
X150643171Y-110768117D01*
X150657421Y-110787330D01*
X150669718Y-110807847D01*
X150679946Y-110829471D01*
X150688004Y-110851993D01*
X150693816Y-110875197D01*
X150697326Y-110898858D01*
X150698500Y-110922750D01*
X150698500Y-111835250D01*
X150697326Y-111859142D01*
X150693816Y-111882803D01*
X150688004Y-111906007D01*
X150679946Y-111928529D01*
X150669718Y-111950153D01*
X150657421Y-111970670D01*
X150643171Y-111989883D01*
X150627107Y-112007607D01*
X150609383Y-112023671D01*
X150590170Y-112037921D01*
X150569653Y-112050218D01*
X150548029Y-112060446D01*
X150525507Y-112068504D01*
X150502303Y-112074316D01*
X150478642Y-112077826D01*
X150454750Y-112079000D01*
X149967250Y-112079000D01*
X149943358Y-112077826D01*
X149919697Y-112074316D01*
X149896493Y-112068504D01*
X149873971Y-112060446D01*
X149852347Y-112050218D01*
X149831830Y-112037921D01*
X149812617Y-112023671D01*
X149794893Y-112007607D01*
X149778829Y-111989883D01*
X149764579Y-111970670D01*
X149752282Y-111950153D01*
X149742054Y-111928529D01*
X149733996Y-111906007D01*
X149728184Y-111882803D01*
X149724674Y-111859142D01*
X149723500Y-111835250D01*
X149723500Y-110922750D01*
X149724674Y-110898858D01*
X149728184Y-110875197D01*
X149733996Y-110851993D01*
X149742054Y-110829471D01*
X149752282Y-110807847D01*
X149764579Y-110787330D01*
X149778829Y-110768117D01*
X149794893Y-110750393D01*
X149812617Y-110734329D01*
X149831830Y-110720079D01*
X149852347Y-110707782D01*
X149873971Y-110697554D01*
X149896493Y-110689496D01*
X149919697Y-110683684D01*
X149943358Y-110680174D01*
X149967250Y-110679000D01*
X150454750Y-110679000D01*
X150478642Y-110680174D01*
X150478642Y-110680174D01*
G37*
D12*
X150211000Y-111379000D03*
D10*
G36*
X148603642Y-112648674D02*
G01*
X148627303Y-112652184D01*
X148650507Y-112657996D01*
X148673029Y-112666054D01*
X148694653Y-112676282D01*
X148715170Y-112688579D01*
X148734383Y-112702829D01*
X148752107Y-112718893D01*
X148768171Y-112736617D01*
X148782421Y-112755830D01*
X148794718Y-112776347D01*
X148804946Y-112797971D01*
X148813004Y-112820493D01*
X148818816Y-112843697D01*
X148822326Y-112867358D01*
X148823500Y-112891250D01*
X148823500Y-113803750D01*
X148822326Y-113827642D01*
X148818816Y-113851303D01*
X148813004Y-113874507D01*
X148804946Y-113897029D01*
X148794718Y-113918653D01*
X148782421Y-113939170D01*
X148768171Y-113958383D01*
X148752107Y-113976107D01*
X148734383Y-113992171D01*
X148715170Y-114006421D01*
X148694653Y-114018718D01*
X148673029Y-114028946D01*
X148650507Y-114037004D01*
X148627303Y-114042816D01*
X148603642Y-114046326D01*
X148579750Y-114047500D01*
X148092250Y-114047500D01*
X148068358Y-114046326D01*
X148044697Y-114042816D01*
X148021493Y-114037004D01*
X147998971Y-114028946D01*
X147977347Y-114018718D01*
X147956830Y-114006421D01*
X147937617Y-113992171D01*
X147919893Y-113976107D01*
X147903829Y-113958383D01*
X147889579Y-113939170D01*
X147877282Y-113918653D01*
X147867054Y-113897029D01*
X147858996Y-113874507D01*
X147853184Y-113851303D01*
X147849674Y-113827642D01*
X147848500Y-113803750D01*
X147848500Y-112891250D01*
X147849674Y-112867358D01*
X147853184Y-112843697D01*
X147858996Y-112820493D01*
X147867054Y-112797971D01*
X147877282Y-112776347D01*
X147889579Y-112755830D01*
X147903829Y-112736617D01*
X147919893Y-112718893D01*
X147937617Y-112702829D01*
X147956830Y-112688579D01*
X147977347Y-112676282D01*
X147998971Y-112666054D01*
X148021493Y-112657996D01*
X148044697Y-112652184D01*
X148068358Y-112648674D01*
X148092250Y-112647500D01*
X148579750Y-112647500D01*
X148603642Y-112648674D01*
X148603642Y-112648674D01*
G37*
D12*
X148336000Y-113347500D03*
D10*
G36*
X150478642Y-112648674D02*
G01*
X150502303Y-112652184D01*
X150525507Y-112657996D01*
X150548029Y-112666054D01*
X150569653Y-112676282D01*
X150590170Y-112688579D01*
X150609383Y-112702829D01*
X150627107Y-112718893D01*
X150643171Y-112736617D01*
X150657421Y-112755830D01*
X150669718Y-112776347D01*
X150679946Y-112797971D01*
X150688004Y-112820493D01*
X150693816Y-112843697D01*
X150697326Y-112867358D01*
X150698500Y-112891250D01*
X150698500Y-113803750D01*
X150697326Y-113827642D01*
X150693816Y-113851303D01*
X150688004Y-113874507D01*
X150679946Y-113897029D01*
X150669718Y-113918653D01*
X150657421Y-113939170D01*
X150643171Y-113958383D01*
X150627107Y-113976107D01*
X150609383Y-113992171D01*
X150590170Y-114006421D01*
X150569653Y-114018718D01*
X150548029Y-114028946D01*
X150525507Y-114037004D01*
X150502303Y-114042816D01*
X150478642Y-114046326D01*
X150454750Y-114047500D01*
X149967250Y-114047500D01*
X149943358Y-114046326D01*
X149919697Y-114042816D01*
X149896493Y-114037004D01*
X149873971Y-114028946D01*
X149852347Y-114018718D01*
X149831830Y-114006421D01*
X149812617Y-113992171D01*
X149794893Y-113976107D01*
X149778829Y-113958383D01*
X149764579Y-113939170D01*
X149752282Y-113918653D01*
X149742054Y-113897029D01*
X149733996Y-113874507D01*
X149728184Y-113851303D01*
X149724674Y-113827642D01*
X149723500Y-113803750D01*
X149723500Y-112891250D01*
X149724674Y-112867358D01*
X149728184Y-112843697D01*
X149733996Y-112820493D01*
X149742054Y-112797971D01*
X149752282Y-112776347D01*
X149764579Y-112755830D01*
X149778829Y-112736617D01*
X149794893Y-112718893D01*
X149812617Y-112702829D01*
X149831830Y-112688579D01*
X149852347Y-112676282D01*
X149873971Y-112666054D01*
X149896493Y-112657996D01*
X149919697Y-112652184D01*
X149943358Y-112648674D01*
X149967250Y-112647500D01*
X150454750Y-112647500D01*
X150478642Y-112648674D01*
X150478642Y-112648674D01*
G37*
D12*
X150211000Y-113347500D03*
D10*
G36*
X156944142Y-101143674D02*
G01*
X156967803Y-101147184D01*
X156991007Y-101152996D01*
X157013529Y-101161054D01*
X157035153Y-101171282D01*
X157055670Y-101183579D01*
X157074883Y-101197829D01*
X157092607Y-101213893D01*
X157108671Y-101231617D01*
X157122921Y-101250830D01*
X157135218Y-101271347D01*
X157145446Y-101292971D01*
X157153504Y-101315493D01*
X157159316Y-101338697D01*
X157162826Y-101362358D01*
X157164000Y-101386250D01*
X157164000Y-101873750D01*
X157162826Y-101897642D01*
X157159316Y-101921303D01*
X157153504Y-101944507D01*
X157145446Y-101967029D01*
X157135218Y-101988653D01*
X157122921Y-102009170D01*
X157108671Y-102028383D01*
X157092607Y-102046107D01*
X157074883Y-102062171D01*
X157055670Y-102076421D01*
X157035153Y-102088718D01*
X157013529Y-102098946D01*
X156991007Y-102107004D01*
X156967803Y-102112816D01*
X156944142Y-102116326D01*
X156920250Y-102117500D01*
X156007750Y-102117500D01*
X155983858Y-102116326D01*
X155960197Y-102112816D01*
X155936993Y-102107004D01*
X155914471Y-102098946D01*
X155892847Y-102088718D01*
X155872330Y-102076421D01*
X155853117Y-102062171D01*
X155835393Y-102046107D01*
X155819329Y-102028383D01*
X155805079Y-102009170D01*
X155792782Y-101988653D01*
X155782554Y-101967029D01*
X155774496Y-101944507D01*
X155768684Y-101921303D01*
X155765174Y-101897642D01*
X155764000Y-101873750D01*
X155764000Y-101386250D01*
X155765174Y-101362358D01*
X155768684Y-101338697D01*
X155774496Y-101315493D01*
X155782554Y-101292971D01*
X155792782Y-101271347D01*
X155805079Y-101250830D01*
X155819329Y-101231617D01*
X155835393Y-101213893D01*
X155853117Y-101197829D01*
X155872330Y-101183579D01*
X155892847Y-101171282D01*
X155914471Y-101161054D01*
X155936993Y-101152996D01*
X155960197Y-101147184D01*
X155983858Y-101143674D01*
X156007750Y-101142500D01*
X156920250Y-101142500D01*
X156944142Y-101143674D01*
X156944142Y-101143674D01*
G37*
D12*
X156464000Y-101630000D03*
D10*
G36*
X156944142Y-103018674D02*
G01*
X156967803Y-103022184D01*
X156991007Y-103027996D01*
X157013529Y-103036054D01*
X157035153Y-103046282D01*
X157055670Y-103058579D01*
X157074883Y-103072829D01*
X157092607Y-103088893D01*
X157108671Y-103106617D01*
X157122921Y-103125830D01*
X157135218Y-103146347D01*
X157145446Y-103167971D01*
X157153504Y-103190493D01*
X157159316Y-103213697D01*
X157162826Y-103237358D01*
X157164000Y-103261250D01*
X157164000Y-103748750D01*
X157162826Y-103772642D01*
X157159316Y-103796303D01*
X157153504Y-103819507D01*
X157145446Y-103842029D01*
X157135218Y-103863653D01*
X157122921Y-103884170D01*
X157108671Y-103903383D01*
X157092607Y-103921107D01*
X157074883Y-103937171D01*
X157055670Y-103951421D01*
X157035153Y-103963718D01*
X157013529Y-103973946D01*
X156991007Y-103982004D01*
X156967803Y-103987816D01*
X156944142Y-103991326D01*
X156920250Y-103992500D01*
X156007750Y-103992500D01*
X155983858Y-103991326D01*
X155960197Y-103987816D01*
X155936993Y-103982004D01*
X155914471Y-103973946D01*
X155892847Y-103963718D01*
X155872330Y-103951421D01*
X155853117Y-103937171D01*
X155835393Y-103921107D01*
X155819329Y-103903383D01*
X155805079Y-103884170D01*
X155792782Y-103863653D01*
X155782554Y-103842029D01*
X155774496Y-103819507D01*
X155768684Y-103796303D01*
X155765174Y-103772642D01*
X155764000Y-103748750D01*
X155764000Y-103261250D01*
X155765174Y-103237358D01*
X155768684Y-103213697D01*
X155774496Y-103190493D01*
X155782554Y-103167971D01*
X155792782Y-103146347D01*
X155805079Y-103125830D01*
X155819329Y-103106617D01*
X155835393Y-103088893D01*
X155853117Y-103072829D01*
X155872330Y-103058579D01*
X155892847Y-103046282D01*
X155914471Y-103036054D01*
X155936993Y-103027996D01*
X155960197Y-103022184D01*
X155983858Y-103018674D01*
X156007750Y-103017500D01*
X156920250Y-103017500D01*
X156944142Y-103018674D01*
X156944142Y-103018674D01*
G37*
D12*
X156464000Y-103505000D03*
D13*
X151089000Y-108661000D03*
X150439000Y-108661000D03*
X149789000Y-108661000D03*
X149139000Y-108661000D03*
X149139000Y-102921000D03*
X149789000Y-102921000D03*
X150439000Y-102921000D03*
X151089000Y-102921000D03*
D10*
G36*
X157304004Y-107395704D02*
G01*
X157328273Y-107399304D01*
X157352071Y-107405265D01*
X157375171Y-107413530D01*
X157397349Y-107424020D01*
X157418393Y-107436633D01*
X157438098Y-107451247D01*
X157456277Y-107467723D01*
X157472753Y-107485902D01*
X157487367Y-107505607D01*
X157499980Y-107526651D01*
X157510470Y-107548829D01*
X157518735Y-107571929D01*
X157524696Y-107595727D01*
X157528296Y-107619996D01*
X157529500Y-107644500D01*
X157529500Y-108394500D01*
X157528296Y-108419004D01*
X157524696Y-108443273D01*
X157518735Y-108467071D01*
X157510470Y-108490171D01*
X157499980Y-108512349D01*
X157487367Y-108533393D01*
X157472753Y-108553098D01*
X157456277Y-108571277D01*
X157438098Y-108587753D01*
X157418393Y-108602367D01*
X157397349Y-108614980D01*
X157375171Y-108625470D01*
X157352071Y-108633735D01*
X157328273Y-108639696D01*
X157304004Y-108643296D01*
X157279500Y-108644500D01*
X156029500Y-108644500D01*
X156004996Y-108643296D01*
X155980727Y-108639696D01*
X155956929Y-108633735D01*
X155933829Y-108625470D01*
X155911651Y-108614980D01*
X155890607Y-108602367D01*
X155870902Y-108587753D01*
X155852723Y-108571277D01*
X155836247Y-108553098D01*
X155821633Y-108533393D01*
X155809020Y-108512349D01*
X155798530Y-108490171D01*
X155790265Y-108467071D01*
X155784304Y-108443273D01*
X155780704Y-108419004D01*
X155779500Y-108394500D01*
X155779500Y-107644500D01*
X155780704Y-107619996D01*
X155784304Y-107595727D01*
X155790265Y-107571929D01*
X155798530Y-107548829D01*
X155809020Y-107526651D01*
X155821633Y-107505607D01*
X155836247Y-107485902D01*
X155852723Y-107467723D01*
X155870902Y-107451247D01*
X155890607Y-107436633D01*
X155911651Y-107424020D01*
X155933829Y-107413530D01*
X155956929Y-107405265D01*
X155980727Y-107399304D01*
X156004996Y-107395704D01*
X156029500Y-107394500D01*
X157279500Y-107394500D01*
X157304004Y-107395704D01*
X157304004Y-107395704D01*
G37*
D14*
X156654500Y-108019500D03*
D10*
G36*
X157304004Y-104595704D02*
G01*
X157328273Y-104599304D01*
X157352071Y-104605265D01*
X157375171Y-104613530D01*
X157397349Y-104624020D01*
X157418393Y-104636633D01*
X157438098Y-104651247D01*
X157456277Y-104667723D01*
X157472753Y-104685902D01*
X157487367Y-104705607D01*
X157499980Y-104726651D01*
X157510470Y-104748829D01*
X157518735Y-104771929D01*
X157524696Y-104795727D01*
X157528296Y-104819996D01*
X157529500Y-104844500D01*
X157529500Y-105594500D01*
X157528296Y-105619004D01*
X157524696Y-105643273D01*
X157518735Y-105667071D01*
X157510470Y-105690171D01*
X157499980Y-105712349D01*
X157487367Y-105733393D01*
X157472753Y-105753098D01*
X157456277Y-105771277D01*
X157438098Y-105787753D01*
X157418393Y-105802367D01*
X157397349Y-105814980D01*
X157375171Y-105825470D01*
X157352071Y-105833735D01*
X157328273Y-105839696D01*
X157304004Y-105843296D01*
X157279500Y-105844500D01*
X156029500Y-105844500D01*
X156004996Y-105843296D01*
X155980727Y-105839696D01*
X155956929Y-105833735D01*
X155933829Y-105825470D01*
X155911651Y-105814980D01*
X155890607Y-105802367D01*
X155870902Y-105787753D01*
X155852723Y-105771277D01*
X155836247Y-105753098D01*
X155821633Y-105733393D01*
X155809020Y-105712349D01*
X155798530Y-105690171D01*
X155790265Y-105667071D01*
X155784304Y-105643273D01*
X155780704Y-105619004D01*
X155779500Y-105594500D01*
X155779500Y-104844500D01*
X155780704Y-104819996D01*
X155784304Y-104795727D01*
X155790265Y-104771929D01*
X155798530Y-104748829D01*
X155809020Y-104726651D01*
X155821633Y-104705607D01*
X155836247Y-104685902D01*
X155852723Y-104667723D01*
X155870902Y-104651247D01*
X155890607Y-104636633D01*
X155911651Y-104624020D01*
X155933829Y-104613530D01*
X155956929Y-104605265D01*
X155980727Y-104599304D01*
X156004996Y-104595704D01*
X156029500Y-104594500D01*
X157279500Y-104594500D01*
X157304004Y-104595704D01*
X157304004Y-104595704D01*
G37*
D14*
X156654500Y-105219500D03*
D15*
X153924000Y-95885000D03*
X146304000Y-111125000D03*
X153924000Y-98425000D03*
X146304000Y-108585000D03*
X153924000Y-100965000D03*
X146304000Y-106045000D03*
X153924000Y-103505000D03*
X146304000Y-103505000D03*
X153924000Y-106045000D03*
X146304000Y-100965000D03*
X153924000Y-108585000D03*
X146304000Y-98425000D03*
X153924000Y-111125000D03*
D16*
X146304000Y-95885000D03*
D17*
X147828000Y-92329000D03*
X147828000Y-87249000D03*
X152908000Y-87249000D03*
X152908000Y-92329000D03*
D18*
X150368000Y-89789000D03*
D19*
X147800000Y-104800000D03*
D20*
X153924000Y-103505000D02*
X156464000Y-103505000D01*
X156464000Y-105029000D02*
X156654500Y-105219500D01*
X156464000Y-103505000D02*
X156464000Y-105029000D01*
D21*
X149788999Y-109846001D02*
X149780000Y-109855000D01*
X149789000Y-108661000D02*
X149788999Y-109846001D01*
X150211000Y-110286000D02*
X150211000Y-111379000D01*
X149780000Y-109855000D02*
X150211000Y-110286000D01*
D20*
X150211000Y-111379000D02*
X150211000Y-113347500D01*
X156654500Y-112204500D02*
X156654500Y-108019500D01*
X150211000Y-113347500D02*
X155511500Y-113347500D01*
X155511500Y-113347500D02*
X156654500Y-112204500D01*
D21*
X148775000Y-101175000D02*
X148200000Y-101175000D01*
X149753002Y-101175000D02*
X148775000Y-101175000D01*
X150439000Y-101860998D02*
X149753002Y-101175000D01*
X150439000Y-102921000D02*
X150439000Y-101860998D01*
X147738388Y-101636612D02*
X148200000Y-101175000D01*
X147209999Y-102165001D02*
X147738388Y-101636612D01*
X145867997Y-102165001D02*
X147209999Y-102165001D01*
X145103999Y-102928999D02*
X145867997Y-102165001D01*
X145797998Y-109855000D02*
X145103999Y-109161001D01*
X145103999Y-109161001D02*
X145103999Y-102928999D01*
X149780000Y-109855000D02*
X145797998Y-109855000D01*
D20*
X150368000Y-89789000D02*
X150368000Y-100203000D01*
D21*
X151089000Y-100924000D02*
X150368000Y-100203000D01*
X151089000Y-102921000D02*
X151089000Y-100924000D01*
X152973000Y-111125000D02*
X153924000Y-111125000D01*
X151089000Y-109241000D02*
X152973000Y-111125000D01*
X151089000Y-108661000D02*
X151089000Y-109241000D01*
D22*
G36*
X145105634Y-110343505D02*
G01*
X145072963Y-110387580D01*
X144952754Y-110641913D01*
X144912096Y-110775961D01*
X145034085Y-110998000D01*
X146177000Y-110998000D01*
X146177000Y-110978000D01*
X146431000Y-110978000D01*
X146431000Y-110998000D01*
X146451000Y-110998000D01*
X146451000Y-111252000D01*
X146431000Y-111252000D01*
X146431000Y-112395624D01*
X146653040Y-112516909D01*
X146917881Y-112422070D01*
X147159131Y-112277385D01*
X147226558Y-112216240D01*
X147258998Y-112323180D01*
X147280416Y-112363250D01*
X147258998Y-112403320D01*
X147222688Y-112523018D01*
X147210428Y-112647500D01*
X147213500Y-113061750D01*
X147372250Y-113220500D01*
X148209000Y-113220500D01*
X148209000Y-111506000D01*
X148189000Y-111506000D01*
X148189000Y-111252000D01*
X148209000Y-111252000D01*
X148209000Y-111232000D01*
X148463000Y-111232000D01*
X148463000Y-111252000D01*
X148483000Y-111252000D01*
X148483000Y-111506000D01*
X148463000Y-111506000D01*
X148463000Y-113220500D01*
X148483000Y-113220500D01*
X148483000Y-113474500D01*
X148463000Y-113474500D01*
X148463000Y-113494500D01*
X148209000Y-113494500D01*
X148209000Y-113474500D01*
X147372250Y-113474500D01*
X147213500Y-113633250D01*
X147210428Y-114047500D01*
X147216091Y-114105000D01*
X144695000Y-114105000D01*
X144695000Y-111474039D01*
X144912096Y-111474039D01*
X144952754Y-111608087D01*
X145072963Y-111862420D01*
X145240481Y-112088414D01*
X145448869Y-112277385D01*
X145690119Y-112422070D01*
X145954960Y-112516909D01*
X146177000Y-112395624D01*
X146177000Y-111252000D01*
X145034085Y-111252000D01*
X144912096Y-111474039D01*
X144695000Y-111474039D01*
X144695000Y-109932870D01*
X145105634Y-110343505D01*
X145105634Y-110343505D01*
G37*
X145105634Y-110343505D02*
X145072963Y-110387580D01*
X144952754Y-110641913D01*
X144912096Y-110775961D01*
X145034085Y-110998000D01*
X146177000Y-110998000D01*
X146177000Y-110978000D01*
X146431000Y-110978000D01*
X146431000Y-110998000D01*
X146451000Y-110998000D01*
X146451000Y-111252000D01*
X146431000Y-111252000D01*
X146431000Y-112395624D01*
X146653040Y-112516909D01*
X146917881Y-112422070D01*
X147159131Y-112277385D01*
X147226558Y-112216240D01*
X147258998Y-112323180D01*
X147280416Y-112363250D01*
X147258998Y-112403320D01*
X147222688Y-112523018D01*
X147210428Y-112647500D01*
X147213500Y-113061750D01*
X147372250Y-113220500D01*
X148209000Y-113220500D01*
X148209000Y-111506000D01*
X148189000Y-111506000D01*
X148189000Y-111252000D01*
X148209000Y-111252000D01*
X148209000Y-111232000D01*
X148463000Y-111232000D01*
X148463000Y-111252000D01*
X148483000Y-111252000D01*
X148483000Y-111506000D01*
X148463000Y-111506000D01*
X148463000Y-113220500D01*
X148483000Y-113220500D01*
X148483000Y-113474500D01*
X148463000Y-113474500D01*
X148463000Y-113494500D01*
X148209000Y-113494500D01*
X148209000Y-113474500D01*
X147372250Y-113474500D01*
X147213500Y-113633250D01*
X147210428Y-114047500D01*
X147216091Y-114105000D01*
X144695000Y-114105000D01*
X144695000Y-111474039D01*
X144912096Y-111474039D01*
X144952754Y-111608087D01*
X145072963Y-111862420D01*
X145240481Y-112088414D01*
X145448869Y-112277385D01*
X145690119Y-112422070D01*
X145954960Y-112516909D01*
X146177000Y-112395624D01*
X146177000Y-111252000D01*
X145034085Y-111252000D01*
X144912096Y-111474039D01*
X144695000Y-111474039D01*
X144695000Y-109932870D01*
X145105634Y-110343505D01*
G36*
X146783074Y-86024469D02*
G01*
X147828000Y-87069395D01*
X148872926Y-86024469D01*
X148821151Y-85895000D01*
X151914849Y-85895000D01*
X151863074Y-86024469D01*
X152908000Y-87069395D01*
X153952926Y-86024469D01*
X153901151Y-85895000D01*
X157505000Y-85895000D01*
X157505001Y-100604751D01*
X157408180Y-100552998D01*
X157288482Y-100516688D01*
X157164000Y-100504428D01*
X156749750Y-100507500D01*
X156591000Y-100666250D01*
X156591000Y-101503000D01*
X156611000Y-101503000D01*
X156611000Y-101757000D01*
X156591000Y-101757000D01*
X156591000Y-101777000D01*
X156337000Y-101777000D01*
X156337000Y-101757000D01*
X156317000Y-101757000D01*
X156317000Y-101503000D01*
X156337000Y-101503000D01*
X156337000Y-100666250D01*
X156178250Y-100507500D01*
X155764000Y-100504428D01*
X155639518Y-100516688D01*
X155519820Y-100552998D01*
X155409506Y-100611963D01*
X155335021Y-100673091D01*
X155256182Y-100413192D01*
X155122932Y-100163899D01*
X154943608Y-99945392D01*
X154725101Y-99766068D01*
X154592142Y-99695000D01*
X154725101Y-99623932D01*
X154943608Y-99444608D01*
X155122932Y-99226101D01*
X155256182Y-98976808D01*
X155338236Y-98706309D01*
X155365943Y-98425000D01*
X155338236Y-98143691D01*
X155256182Y-97873192D01*
X155122932Y-97623899D01*
X154943608Y-97405392D01*
X154725101Y-97226068D01*
X154592142Y-97155000D01*
X154725101Y-97083932D01*
X154943608Y-96904608D01*
X155122932Y-96686101D01*
X155256182Y-96436808D01*
X155338236Y-96166309D01*
X155365943Y-95885000D01*
X155338236Y-95603691D01*
X155256182Y-95333192D01*
X155122932Y-95083899D01*
X154943608Y-94865392D01*
X154725101Y-94686068D01*
X154475808Y-94552818D01*
X154205309Y-94470764D01*
X153994492Y-94450000D01*
X153853508Y-94450000D01*
X153642691Y-94470764D01*
X153372192Y-94552818D01*
X153122899Y-94686068D01*
X152904392Y-94865392D01*
X152725068Y-95083899D01*
X152591818Y-95333192D01*
X152509764Y-95603691D01*
X152482057Y-95885000D01*
X152509764Y-96166309D01*
X152591818Y-96436808D01*
X152725068Y-96686101D01*
X152904392Y-96904608D01*
X153122899Y-97083932D01*
X153255858Y-97155000D01*
X153122899Y-97226068D01*
X152904392Y-97405392D01*
X152725068Y-97623899D01*
X152591818Y-97873192D01*
X152509764Y-98143691D01*
X152482057Y-98425000D01*
X152509764Y-98706309D01*
X152591818Y-98976808D01*
X152725068Y-99226101D01*
X152904392Y-99444608D01*
X153122899Y-99623932D01*
X153255858Y-99695000D01*
X153122899Y-99766068D01*
X152904392Y-99945392D01*
X152725068Y-100163899D01*
X152591818Y-100413192D01*
X152509764Y-100683691D01*
X152482057Y-100965000D01*
X152509764Y-101246309D01*
X152591818Y-101516808D01*
X152725068Y-101766101D01*
X152904392Y-101984608D01*
X153122899Y-102163932D01*
X153255858Y-102235000D01*
X153122899Y-102306068D01*
X152904392Y-102485392D01*
X152725068Y-102703899D01*
X152591818Y-102953192D01*
X152509764Y-103223691D01*
X152482057Y-103505000D01*
X152509764Y-103786309D01*
X152591818Y-104056808D01*
X152725068Y-104306101D01*
X152904392Y-104524608D01*
X153122899Y-104703932D01*
X153255858Y-104775000D01*
X153122899Y-104846068D01*
X152904392Y-105025392D01*
X152725068Y-105243899D01*
X152591818Y-105493192D01*
X152509764Y-105763691D01*
X152482057Y-106045000D01*
X152509764Y-106326309D01*
X152591818Y-106596808D01*
X152725068Y-106846101D01*
X152904392Y-107064608D01*
X153122899Y-107243932D01*
X153255858Y-107315000D01*
X153122899Y-107386068D01*
X152904392Y-107565392D01*
X152725068Y-107783899D01*
X152591818Y-108033192D01*
X152509764Y-108303691D01*
X152482057Y-108585000D01*
X152509764Y-108866309D01*
X152591818Y-109136808D01*
X152725068Y-109386101D01*
X152904392Y-109604608D01*
X153122899Y-109783932D01*
X153255858Y-109855000D01*
X153122899Y-109926068D01*
X153030646Y-110001778D01*
X151932072Y-108903205D01*
X151932072Y-107876000D01*
X151919812Y-107751518D01*
X151883502Y-107631820D01*
X151824537Y-107521506D01*
X151745185Y-107424815D01*
X151727000Y-107409891D01*
X151727000Y-104172109D01*
X151745185Y-104157185D01*
X151824537Y-104060494D01*
X151883502Y-103950180D01*
X151919812Y-103830482D01*
X151932072Y-103706000D01*
X151932072Y-102136000D01*
X151924000Y-102054041D01*
X151924000Y-100965018D01*
X151928040Y-100924000D01*
X151911918Y-100760311D01*
X151864172Y-100602913D01*
X151786636Y-100457854D01*
X151711818Y-100366688D01*
X151682291Y-100330709D01*
X151650426Y-100304558D01*
X151503000Y-100157132D01*
X151503000Y-93553531D01*
X151863074Y-93553531D01*
X151973921Y-93830714D01*
X152284840Y-93984089D01*
X152619705Y-94073860D01*
X152965650Y-94096576D01*
X153309380Y-94051366D01*
X153637685Y-93939966D01*
X153842079Y-93830714D01*
X153952926Y-93553531D01*
X152908000Y-92508605D01*
X151863074Y-93553531D01*
X151503000Y-93553531D01*
X151503000Y-93301755D01*
X151683469Y-93373926D01*
X152728395Y-92329000D01*
X153087605Y-92329000D01*
X154132531Y-93373926D01*
X154409714Y-93263079D01*
X154563089Y-92952160D01*
X154652860Y-92617295D01*
X154675576Y-92271350D01*
X154630366Y-91927620D01*
X154518966Y-91599315D01*
X154409714Y-91394921D01*
X154132531Y-91284074D01*
X153087605Y-92329000D01*
X152728395Y-92329000D01*
X151683469Y-91284074D01*
X151503000Y-91356245D01*
X151503000Y-91104469D01*
X151863074Y-91104469D01*
X152908000Y-92149395D01*
X153952926Y-91104469D01*
X153842079Y-90827286D01*
X153531160Y-90673911D01*
X153196295Y-90584140D01*
X152850350Y-90561424D01*
X152506620Y-90606634D01*
X152178315Y-90718034D01*
X151973921Y-90827286D01*
X151863074Y-91104469D01*
X151503000Y-91104469D01*
X151503000Y-91001594D01*
X151657406Y-90847188D01*
X151839073Y-90575305D01*
X151964207Y-90273204D01*
X152028000Y-89952496D01*
X152028000Y-89625504D01*
X151964207Y-89304796D01*
X151839073Y-89002695D01*
X151657406Y-88730812D01*
X151426188Y-88499594D01*
X151387183Y-88473531D01*
X151863074Y-88473531D01*
X151973921Y-88750714D01*
X152284840Y-88904089D01*
X152619705Y-88993860D01*
X152965650Y-89016576D01*
X153309380Y-88971366D01*
X153637685Y-88859966D01*
X153842079Y-88750714D01*
X153952926Y-88473531D01*
X152908000Y-87428605D01*
X151863074Y-88473531D01*
X151387183Y-88473531D01*
X151154305Y-88317927D01*
X150852204Y-88192793D01*
X150531496Y-88129000D01*
X150204504Y-88129000D01*
X149883796Y-88192793D01*
X149581695Y-88317927D01*
X149309812Y-88499594D01*
X149078594Y-88730812D01*
X148896927Y-89002695D01*
X148771793Y-89304796D01*
X148708000Y-89625504D01*
X148708000Y-89952496D01*
X148771793Y-90273204D01*
X148896927Y-90575305D01*
X149078594Y-90847188D01*
X149233000Y-91001594D01*
X149233000Y-91356245D01*
X149052531Y-91284074D01*
X148007605Y-92329000D01*
X149052531Y-93373926D01*
X149233000Y-93301755D01*
X149233001Y-98859386D01*
X149205537Y-98808006D01*
X149126185Y-98711315D01*
X149029494Y-98631963D01*
X148919180Y-98572998D01*
X148799482Y-98536688D01*
X148675000Y-98524428D01*
X148485750Y-98527500D01*
X148327000Y-98686250D01*
X148327000Y-99473000D01*
X148347000Y-99473000D01*
X148347000Y-99727000D01*
X148327000Y-99727000D01*
X148327000Y-99747000D01*
X148073000Y-99747000D01*
X148073000Y-99727000D01*
X148053000Y-99727000D01*
X148053000Y-99473000D01*
X148073000Y-99473000D01*
X148073000Y-98686250D01*
X147914250Y-98527500D01*
X147736132Y-98524609D01*
X147745943Y-98425000D01*
X147718236Y-98143691D01*
X147636182Y-97873192D01*
X147502932Y-97623899D01*
X147323608Y-97405392D01*
X147210518Y-97312581D01*
X147228482Y-97310812D01*
X147348180Y-97274502D01*
X147458494Y-97215537D01*
X147555185Y-97136185D01*
X147634537Y-97039494D01*
X147693502Y-96929180D01*
X147729812Y-96809482D01*
X147742072Y-96685000D01*
X147742072Y-95085000D01*
X147729812Y-94960518D01*
X147693502Y-94840820D01*
X147634537Y-94730506D01*
X147555185Y-94633815D01*
X147458494Y-94554463D01*
X147348180Y-94495498D01*
X147228482Y-94459188D01*
X147104000Y-94446928D01*
X145504000Y-94446928D01*
X145379518Y-94459188D01*
X145259820Y-94495498D01*
X145149506Y-94554463D01*
X145052815Y-94633815D01*
X144973463Y-94730506D01*
X144914498Y-94840820D01*
X144878188Y-94960518D01*
X144865928Y-95085000D01*
X144865928Y-96685000D01*
X144878188Y-96809482D01*
X144914498Y-96929180D01*
X144973463Y-97039494D01*
X145052815Y-97136185D01*
X145149506Y-97215537D01*
X145259820Y-97274502D01*
X145379518Y-97310812D01*
X145397482Y-97312581D01*
X145284392Y-97405392D01*
X145105068Y-97623899D01*
X144971818Y-97873192D01*
X144889764Y-98143691D01*
X144862057Y-98425000D01*
X144889764Y-98706309D01*
X144971818Y-98976808D01*
X145105068Y-99226101D01*
X145284392Y-99444608D01*
X145502899Y-99623932D01*
X145635858Y-99695000D01*
X145502899Y-99766068D01*
X145284392Y-99945392D01*
X145105068Y-100163899D01*
X144971818Y-100413192D01*
X144889764Y-100683691D01*
X144862057Y-100965000D01*
X144889764Y-101246309D01*
X144971818Y-101516808D01*
X145098436Y-101753694D01*
X144695000Y-102157131D01*
X144695000Y-93553531D01*
X146783074Y-93553531D01*
X146893921Y-93830714D01*
X147204840Y-93984089D01*
X147539705Y-94073860D01*
X147885650Y-94096576D01*
X148229380Y-94051366D01*
X148557685Y-93939966D01*
X148762079Y-93830714D01*
X148872926Y-93553531D01*
X147828000Y-92508605D01*
X146783074Y-93553531D01*
X144695000Y-93553531D01*
X144695000Y-92386650D01*
X146060424Y-92386650D01*
X146105634Y-92730380D01*
X146217034Y-93058685D01*
X146326286Y-93263079D01*
X146603469Y-93373926D01*
X147648395Y-92329000D01*
X146603469Y-91284074D01*
X146326286Y-91394921D01*
X146172911Y-91705840D01*
X146083140Y-92040705D01*
X146060424Y-92386650D01*
X144695000Y-92386650D01*
X144695000Y-91104469D01*
X146783074Y-91104469D01*
X147828000Y-92149395D01*
X148872926Y-91104469D01*
X148762079Y-90827286D01*
X148451160Y-90673911D01*
X148116295Y-90584140D01*
X147770350Y-90561424D01*
X147426620Y-90606634D01*
X147098315Y-90718034D01*
X146893921Y-90827286D01*
X146783074Y-91104469D01*
X144695000Y-91104469D01*
X144695000Y-88473531D01*
X146783074Y-88473531D01*
X146893921Y-88750714D01*
X147204840Y-88904089D01*
X147539705Y-88993860D01*
X147885650Y-89016576D01*
X148229380Y-88971366D01*
X148557685Y-88859966D01*
X148762079Y-88750714D01*
X148872926Y-88473531D01*
X147828000Y-87428605D01*
X146783074Y-88473531D01*
X144695000Y-88473531D01*
X144695000Y-87306650D01*
X146060424Y-87306650D01*
X146105634Y-87650380D01*
X146217034Y-87978685D01*
X146326286Y-88183079D01*
X146603469Y-88293926D01*
X147648395Y-87249000D01*
X148007605Y-87249000D01*
X149052531Y-88293926D01*
X149329714Y-88183079D01*
X149483089Y-87872160D01*
X149572860Y-87537295D01*
X149588004Y-87306650D01*
X151140424Y-87306650D01*
X151185634Y-87650380D01*
X151297034Y-87978685D01*
X151406286Y-88183079D01*
X151683469Y-88293926D01*
X152728395Y-87249000D01*
X153087605Y-87249000D01*
X154132531Y-88293926D01*
X154409714Y-88183079D01*
X154563089Y-87872160D01*
X154652860Y-87537295D01*
X154675576Y-87191350D01*
X154630366Y-86847620D01*
X154518966Y-86519315D01*
X154409714Y-86314921D01*
X154132531Y-86204074D01*
X153087605Y-87249000D01*
X152728395Y-87249000D01*
X151683469Y-86204074D01*
X151406286Y-86314921D01*
X151252911Y-86625840D01*
X151163140Y-86960705D01*
X151140424Y-87306650D01*
X149588004Y-87306650D01*
X149595576Y-87191350D01*
X149550366Y-86847620D01*
X149438966Y-86519315D01*
X149329714Y-86314921D01*
X149052531Y-86204074D01*
X148007605Y-87249000D01*
X147648395Y-87249000D01*
X146603469Y-86204074D01*
X146326286Y-86314921D01*
X146172911Y-86625840D01*
X146083140Y-86960705D01*
X146060424Y-87306650D01*
X144695000Y-87306650D01*
X144695000Y-85895000D01*
X146834849Y-85895000D01*
X146783074Y-86024469D01*
X146783074Y-86024469D01*
G37*
X146783074Y-86024469D02*
X147828000Y-87069395D01*
X148872926Y-86024469D01*
X148821151Y-85895000D01*
X151914849Y-85895000D01*
X151863074Y-86024469D01*
X152908000Y-87069395D01*
X153952926Y-86024469D01*
X153901151Y-85895000D01*
X157505000Y-85895000D01*
X157505001Y-100604751D01*
X157408180Y-100552998D01*
X157288482Y-100516688D01*
X157164000Y-100504428D01*
X156749750Y-100507500D01*
X156591000Y-100666250D01*
X156591000Y-101503000D01*
X156611000Y-101503000D01*
X156611000Y-101757000D01*
X156591000Y-101757000D01*
X156591000Y-101777000D01*
X156337000Y-101777000D01*
X156337000Y-101757000D01*
X156317000Y-101757000D01*
X156317000Y-101503000D01*
X156337000Y-101503000D01*
X156337000Y-100666250D01*
X156178250Y-100507500D01*
X155764000Y-100504428D01*
X155639518Y-100516688D01*
X155519820Y-100552998D01*
X155409506Y-100611963D01*
X155335021Y-100673091D01*
X155256182Y-100413192D01*
X155122932Y-100163899D01*
X154943608Y-99945392D01*
X154725101Y-99766068D01*
X154592142Y-99695000D01*
X154725101Y-99623932D01*
X154943608Y-99444608D01*
X155122932Y-99226101D01*
X155256182Y-98976808D01*
X155338236Y-98706309D01*
X155365943Y-98425000D01*
X155338236Y-98143691D01*
X155256182Y-97873192D01*
X155122932Y-97623899D01*
X154943608Y-97405392D01*
X154725101Y-97226068D01*
X154592142Y-97155000D01*
X154725101Y-97083932D01*
X154943608Y-96904608D01*
X155122932Y-96686101D01*
X155256182Y-96436808D01*
X155338236Y-96166309D01*
X155365943Y-95885000D01*
X155338236Y-95603691D01*
X155256182Y-95333192D01*
X155122932Y-95083899D01*
X154943608Y-94865392D01*
X154725101Y-94686068D01*
X154475808Y-94552818D01*
X154205309Y-94470764D01*
X153994492Y-94450000D01*
X153853508Y-94450000D01*
X153642691Y-94470764D01*
X153372192Y-94552818D01*
X153122899Y-94686068D01*
X152904392Y-94865392D01*
X152725068Y-95083899D01*
X152591818Y-95333192D01*
X152509764Y-95603691D01*
X152482057Y-95885000D01*
X152509764Y-96166309D01*
X152591818Y-96436808D01*
X152725068Y-96686101D01*
X152904392Y-96904608D01*
X153122899Y-97083932D01*
X153255858Y-97155000D01*
X153122899Y-97226068D01*
X152904392Y-97405392D01*
X152725068Y-97623899D01*
X152591818Y-97873192D01*
X152509764Y-98143691D01*
X152482057Y-98425000D01*
X152509764Y-98706309D01*
X152591818Y-98976808D01*
X152725068Y-99226101D01*
X152904392Y-99444608D01*
X153122899Y-99623932D01*
X153255858Y-99695000D01*
X153122899Y-99766068D01*
X152904392Y-99945392D01*
X152725068Y-100163899D01*
X152591818Y-100413192D01*
X152509764Y-100683691D01*
X152482057Y-100965000D01*
X152509764Y-101246309D01*
X152591818Y-101516808D01*
X152725068Y-101766101D01*
X152904392Y-101984608D01*
X153122899Y-102163932D01*
X153255858Y-102235000D01*
X153122899Y-102306068D01*
X152904392Y-102485392D01*
X152725068Y-102703899D01*
X152591818Y-102953192D01*
X152509764Y-103223691D01*
X152482057Y-103505000D01*
X152509764Y-103786309D01*
X152591818Y-104056808D01*
X152725068Y-104306101D01*
X152904392Y-104524608D01*
X153122899Y-104703932D01*
X153255858Y-104775000D01*
X153122899Y-104846068D01*
X152904392Y-105025392D01*
X152725068Y-105243899D01*
X152591818Y-105493192D01*
X152509764Y-105763691D01*
X152482057Y-106045000D01*
X152509764Y-106326309D01*
X152591818Y-106596808D01*
X152725068Y-106846101D01*
X152904392Y-107064608D01*
X153122899Y-107243932D01*
X153255858Y-107315000D01*
X153122899Y-107386068D01*
X152904392Y-107565392D01*
X152725068Y-107783899D01*
X152591818Y-108033192D01*
X152509764Y-108303691D01*
X152482057Y-108585000D01*
X152509764Y-108866309D01*
X152591818Y-109136808D01*
X152725068Y-109386101D01*
X152904392Y-109604608D01*
X153122899Y-109783932D01*
X153255858Y-109855000D01*
X153122899Y-109926068D01*
X153030646Y-110001778D01*
X151932072Y-108903205D01*
X151932072Y-107876000D01*
X151919812Y-107751518D01*
X151883502Y-107631820D01*
X151824537Y-107521506D01*
X151745185Y-107424815D01*
X151727000Y-107409891D01*
X151727000Y-104172109D01*
X151745185Y-104157185D01*
X151824537Y-104060494D01*
X151883502Y-103950180D01*
X151919812Y-103830482D01*
X151932072Y-103706000D01*
X151932072Y-102136000D01*
X151924000Y-102054041D01*
X151924000Y-100965018D01*
X151928040Y-100924000D01*
X151911918Y-100760311D01*
X151864172Y-100602913D01*
X151786636Y-100457854D01*
X151711818Y-100366688D01*
X151682291Y-100330709D01*
X151650426Y-100304558D01*
X151503000Y-100157132D01*
X151503000Y-93553531D01*
X151863074Y-93553531D01*
X151973921Y-93830714D01*
X152284840Y-93984089D01*
X152619705Y-94073860D01*
X152965650Y-94096576D01*
X153309380Y-94051366D01*
X153637685Y-93939966D01*
X153842079Y-93830714D01*
X153952926Y-93553531D01*
X152908000Y-92508605D01*
X151863074Y-93553531D01*
X151503000Y-93553531D01*
X151503000Y-93301755D01*
X151683469Y-93373926D01*
X152728395Y-92329000D01*
X153087605Y-92329000D01*
X154132531Y-93373926D01*
X154409714Y-93263079D01*
X154563089Y-92952160D01*
X154652860Y-92617295D01*
X154675576Y-92271350D01*
X154630366Y-91927620D01*
X154518966Y-91599315D01*
X154409714Y-91394921D01*
X154132531Y-91284074D01*
X153087605Y-92329000D01*
X152728395Y-92329000D01*
X151683469Y-91284074D01*
X151503000Y-91356245D01*
X151503000Y-91104469D01*
X151863074Y-91104469D01*
X152908000Y-92149395D01*
X153952926Y-91104469D01*
X153842079Y-90827286D01*
X153531160Y-90673911D01*
X153196295Y-90584140D01*
X152850350Y-90561424D01*
X152506620Y-90606634D01*
X152178315Y-90718034D01*
X151973921Y-90827286D01*
X151863074Y-91104469D01*
X151503000Y-91104469D01*
X151503000Y-91001594D01*
X151657406Y-90847188D01*
X151839073Y-90575305D01*
X151964207Y-90273204D01*
X152028000Y-89952496D01*
X152028000Y-89625504D01*
X151964207Y-89304796D01*
X151839073Y-89002695D01*
X151657406Y-88730812D01*
X151426188Y-88499594D01*
X151387183Y-88473531D01*
X151863074Y-88473531D01*
X151973921Y-88750714D01*
X152284840Y-88904089D01*
X152619705Y-88993860D01*
X152965650Y-89016576D01*
X153309380Y-88971366D01*
X153637685Y-88859966D01*
X153842079Y-88750714D01*
X153952926Y-88473531D01*
X152908000Y-87428605D01*
X151863074Y-88473531D01*
X151387183Y-88473531D01*
X151154305Y-88317927D01*
X150852204Y-88192793D01*
X150531496Y-88129000D01*
X150204504Y-88129000D01*
X149883796Y-88192793D01*
X149581695Y-88317927D01*
X149309812Y-88499594D01*
X149078594Y-88730812D01*
X148896927Y-89002695D01*
X148771793Y-89304796D01*
X148708000Y-89625504D01*
X148708000Y-89952496D01*
X148771793Y-90273204D01*
X148896927Y-90575305D01*
X149078594Y-90847188D01*
X149233000Y-91001594D01*
X149233000Y-91356245D01*
X149052531Y-91284074D01*
X148007605Y-92329000D01*
X149052531Y-93373926D01*
X149233000Y-93301755D01*
X149233001Y-98859386D01*
X149205537Y-98808006D01*
X149126185Y-98711315D01*
X149029494Y-98631963D01*
X148919180Y-98572998D01*
X148799482Y-98536688D01*
X148675000Y-98524428D01*
X148485750Y-98527500D01*
X148327000Y-98686250D01*
X148327000Y-99473000D01*
X148347000Y-99473000D01*
X148347000Y-99727000D01*
X148327000Y-99727000D01*
X148327000Y-99747000D01*
X148073000Y-99747000D01*
X148073000Y-99727000D01*
X148053000Y-99727000D01*
X148053000Y-99473000D01*
X148073000Y-99473000D01*
X148073000Y-98686250D01*
X147914250Y-98527500D01*
X147736132Y-98524609D01*
X147745943Y-98425000D01*
X147718236Y-98143691D01*
X147636182Y-97873192D01*
X147502932Y-97623899D01*
X147323608Y-97405392D01*
X147210518Y-97312581D01*
X147228482Y-97310812D01*
X147348180Y-97274502D01*
X147458494Y-97215537D01*
X147555185Y-97136185D01*
X147634537Y-97039494D01*
X147693502Y-96929180D01*
X147729812Y-96809482D01*
X147742072Y-96685000D01*
X147742072Y-95085000D01*
X147729812Y-94960518D01*
X147693502Y-94840820D01*
X147634537Y-94730506D01*
X147555185Y-94633815D01*
X147458494Y-94554463D01*
X147348180Y-94495498D01*
X147228482Y-94459188D01*
X147104000Y-94446928D01*
X145504000Y-94446928D01*
X145379518Y-94459188D01*
X145259820Y-94495498D01*
X145149506Y-94554463D01*
X145052815Y-94633815D01*
X144973463Y-94730506D01*
X144914498Y-94840820D01*
X144878188Y-94960518D01*
X144865928Y-95085000D01*
X144865928Y-96685000D01*
X144878188Y-96809482D01*
X144914498Y-96929180D01*
X144973463Y-97039494D01*
X145052815Y-97136185D01*
X145149506Y-97215537D01*
X145259820Y-97274502D01*
X145379518Y-97310812D01*
X145397482Y-97312581D01*
X145284392Y-97405392D01*
X145105068Y-97623899D01*
X144971818Y-97873192D01*
X144889764Y-98143691D01*
X144862057Y-98425000D01*
X144889764Y-98706309D01*
X144971818Y-98976808D01*
X145105068Y-99226101D01*
X145284392Y-99444608D01*
X145502899Y-99623932D01*
X145635858Y-99695000D01*
X145502899Y-99766068D01*
X145284392Y-99945392D01*
X145105068Y-100163899D01*
X144971818Y-100413192D01*
X144889764Y-100683691D01*
X144862057Y-100965000D01*
X144889764Y-101246309D01*
X144971818Y-101516808D01*
X145098436Y-101753694D01*
X144695000Y-102157131D01*
X144695000Y-93553531D01*
X146783074Y-93553531D01*
X146893921Y-93830714D01*
X147204840Y-93984089D01*
X147539705Y-94073860D01*
X147885650Y-94096576D01*
X148229380Y-94051366D01*
X148557685Y-93939966D01*
X148762079Y-93830714D01*
X148872926Y-93553531D01*
X147828000Y-92508605D01*
X146783074Y-93553531D01*
X144695000Y-93553531D01*
X144695000Y-92386650D01*
X146060424Y-92386650D01*
X146105634Y-92730380D01*
X146217034Y-93058685D01*
X146326286Y-93263079D01*
X146603469Y-93373926D01*
X147648395Y-92329000D01*
X146603469Y-91284074D01*
X146326286Y-91394921D01*
X146172911Y-91705840D01*
X146083140Y-92040705D01*
X146060424Y-92386650D01*
X144695000Y-92386650D01*
X144695000Y-91104469D01*
X146783074Y-91104469D01*
X147828000Y-92149395D01*
X148872926Y-91104469D01*
X148762079Y-90827286D01*
X148451160Y-90673911D01*
X148116295Y-90584140D01*
X147770350Y-90561424D01*
X147426620Y-90606634D01*
X147098315Y-90718034D01*
X146893921Y-90827286D01*
X146783074Y-91104469D01*
X144695000Y-91104469D01*
X144695000Y-88473531D01*
X146783074Y-88473531D01*
X146893921Y-88750714D01*
X147204840Y-88904089D01*
X147539705Y-88993860D01*
X147885650Y-89016576D01*
X148229380Y-88971366D01*
X148557685Y-88859966D01*
X148762079Y-88750714D01*
X148872926Y-88473531D01*
X147828000Y-87428605D01*
X146783074Y-88473531D01*
X144695000Y-88473531D01*
X144695000Y-87306650D01*
X146060424Y-87306650D01*
X146105634Y-87650380D01*
X146217034Y-87978685D01*
X146326286Y-88183079D01*
X146603469Y-88293926D01*
X147648395Y-87249000D01*
X148007605Y-87249000D01*
X149052531Y-88293926D01*
X149329714Y-88183079D01*
X149483089Y-87872160D01*
X149572860Y-87537295D01*
X149588004Y-87306650D01*
X151140424Y-87306650D01*
X151185634Y-87650380D01*
X151297034Y-87978685D01*
X151406286Y-88183079D01*
X151683469Y-88293926D01*
X152728395Y-87249000D01*
X153087605Y-87249000D01*
X154132531Y-88293926D01*
X154409714Y-88183079D01*
X154563089Y-87872160D01*
X154652860Y-87537295D01*
X154675576Y-87191350D01*
X154630366Y-86847620D01*
X154518966Y-86519315D01*
X154409714Y-86314921D01*
X154132531Y-86204074D01*
X153087605Y-87249000D01*
X152728395Y-87249000D01*
X151683469Y-86204074D01*
X151406286Y-86314921D01*
X151252911Y-86625840D01*
X151163140Y-86960705D01*
X151140424Y-87306650D01*
X149588004Y-87306650D01*
X149595576Y-87191350D01*
X149550366Y-86847620D01*
X149438966Y-86519315D01*
X149329714Y-86314921D01*
X149052531Y-86204074D01*
X148007605Y-87249000D01*
X147648395Y-87249000D01*
X146603469Y-86204074D01*
X146326286Y-86314921D01*
X146172911Y-86625840D01*
X146083140Y-86960705D01*
X146060424Y-87306650D01*
X144695000Y-87306650D01*
X144695000Y-85895000D01*
X146834849Y-85895000D01*
X146783074Y-86024469D01*
G36*
X148299000Y-102635250D02*
G01*
X148457750Y-102794000D01*
X148945928Y-102794000D01*
X148945928Y-103048000D01*
X148457750Y-103048000D01*
X148299000Y-103206750D01*
X148295994Y-103696813D01*
X148306461Y-103821459D01*
X148341044Y-103941667D01*
X148398414Y-104052819D01*
X148473000Y-104146418D01*
X148473000Y-107436775D01*
X148403463Y-107521506D01*
X148344498Y-107631820D01*
X148308188Y-107751518D01*
X148295928Y-107876000D01*
X148295928Y-109020000D01*
X147671615Y-109020000D01*
X147718236Y-108866309D01*
X147745943Y-108585000D01*
X147718236Y-108303691D01*
X147636182Y-108033192D01*
X147502932Y-107783899D01*
X147323608Y-107565392D01*
X147105101Y-107386068D01*
X146972142Y-107315000D01*
X147105101Y-107243932D01*
X147323608Y-107064608D01*
X147502932Y-106846101D01*
X147636182Y-106596808D01*
X147718236Y-106326309D01*
X147745943Y-106045000D01*
X147718236Y-105763691D01*
X147636182Y-105493192D01*
X147502932Y-105243899D01*
X147323608Y-105025392D01*
X147105101Y-104846068D01*
X146972142Y-104775000D01*
X147105101Y-104703932D01*
X147323608Y-104524608D01*
X147502932Y-104306101D01*
X147636182Y-104056808D01*
X147718236Y-103786309D01*
X147745943Y-103505000D01*
X147718236Y-103223691D01*
X147636182Y-102953192D01*
X147607416Y-102899374D01*
X147676145Y-102862637D01*
X147803290Y-102758292D01*
X147829444Y-102726423D01*
X148296693Y-102259175D01*
X148299000Y-102635250D01*
X148299000Y-102635250D01*
G37*
X148299000Y-102635250D02*
X148457750Y-102794000D01*
X148945928Y-102794000D01*
X148945928Y-103048000D01*
X148457750Y-103048000D01*
X148299000Y-103206750D01*
X148295994Y-103696813D01*
X148306461Y-103821459D01*
X148341044Y-103941667D01*
X148398414Y-104052819D01*
X148473000Y-104146418D01*
X148473000Y-107436775D01*
X148403463Y-107521506D01*
X148344498Y-107631820D01*
X148308188Y-107751518D01*
X148295928Y-107876000D01*
X148295928Y-109020000D01*
X147671615Y-109020000D01*
X147718236Y-108866309D01*
X147745943Y-108585000D01*
X147718236Y-108303691D01*
X147636182Y-108033192D01*
X147502932Y-107783899D01*
X147323608Y-107565392D01*
X147105101Y-107386068D01*
X146972142Y-107315000D01*
X147105101Y-107243932D01*
X147323608Y-107064608D01*
X147502932Y-106846101D01*
X147636182Y-106596808D01*
X147718236Y-106326309D01*
X147745943Y-106045000D01*
X147718236Y-105763691D01*
X147636182Y-105493192D01*
X147502932Y-105243899D01*
X147323608Y-105025392D01*
X147105101Y-104846068D01*
X146972142Y-104775000D01*
X147105101Y-104703932D01*
X147323608Y-104524608D01*
X147502932Y-104306101D01*
X147636182Y-104056808D01*
X147718236Y-103786309D01*
X147745943Y-103505000D01*
X147718236Y-103223691D01*
X147636182Y-102953192D01*
X147607416Y-102899374D01*
X147676145Y-102862637D01*
X147803290Y-102758292D01*
X147829444Y-102726423D01*
X148296693Y-102259175D01*
X148299000Y-102635250D01*
M02*
