G04 #@! TF.GenerationSoftware,KiCad,Pcbnew,(5.1.4)-1*
G04 #@! TF.CreationDate,2019-08-19T16:22:37-04:00*
G04 #@! TF.ProjectId,clock_buffer,636c6f63-6b5f-4627-9566-6665722e6b69,rev?*
G04 #@! TF.SameCoordinates,Original*
G04 #@! TF.FileFunction,Paste,Top*
G04 #@! TF.FilePolarity,Positive*
%FSLAX46Y46*%
G04 Gerber Fmt 4.6, Leading zero omitted, Abs format (unit mm)*
G04 Created by KiCad (PCBNEW (5.1.4)-1) date 2019-08-19 16:22:37*
%MOMM*%
%LPD*%
G04 APERTURE LIST*
%ADD10R,0.410000X1.570000*%
%ADD11C,0.100000*%
%ADD12C,1.250000*%
G04 APERTURE END LIST*
D10*
X149139000Y-103556000D03*
X149789000Y-103556000D03*
X150439000Y-103556000D03*
X151089000Y-103556000D03*
X151089000Y-109296000D03*
X150439000Y-109296000D03*
X149789000Y-109296000D03*
X149139000Y-109296000D03*
D11*
G36*
X152160504Y-95648204D02*
G01*
X152184773Y-95651804D01*
X152208571Y-95657765D01*
X152231671Y-95666030D01*
X152253849Y-95676520D01*
X152274893Y-95689133D01*
X152294598Y-95703747D01*
X152312777Y-95720223D01*
X152329253Y-95738402D01*
X152343867Y-95758107D01*
X152356480Y-95779151D01*
X152366970Y-95801329D01*
X152375235Y-95824429D01*
X152381196Y-95848227D01*
X152384796Y-95872496D01*
X152386000Y-95897000D01*
X152386000Y-96647000D01*
X152384796Y-96671504D01*
X152381196Y-96695773D01*
X152375235Y-96719571D01*
X152366970Y-96742671D01*
X152356480Y-96764849D01*
X152343867Y-96785893D01*
X152329253Y-96805598D01*
X152312777Y-96823777D01*
X152294598Y-96840253D01*
X152274893Y-96854867D01*
X152253849Y-96867480D01*
X152231671Y-96877970D01*
X152208571Y-96886235D01*
X152184773Y-96892196D01*
X152160504Y-96895796D01*
X152136000Y-96897000D01*
X150886000Y-96897000D01*
X150861496Y-96895796D01*
X150837227Y-96892196D01*
X150813429Y-96886235D01*
X150790329Y-96877970D01*
X150768151Y-96867480D01*
X150747107Y-96854867D01*
X150727402Y-96840253D01*
X150709223Y-96823777D01*
X150692747Y-96805598D01*
X150678133Y-96785893D01*
X150665520Y-96764849D01*
X150655030Y-96742671D01*
X150646765Y-96719571D01*
X150640804Y-96695773D01*
X150637204Y-96671504D01*
X150636000Y-96647000D01*
X150636000Y-95897000D01*
X150637204Y-95872496D01*
X150640804Y-95848227D01*
X150646765Y-95824429D01*
X150655030Y-95801329D01*
X150665520Y-95779151D01*
X150678133Y-95758107D01*
X150692747Y-95738402D01*
X150709223Y-95720223D01*
X150727402Y-95703747D01*
X150747107Y-95689133D01*
X150768151Y-95676520D01*
X150790329Y-95666030D01*
X150813429Y-95657765D01*
X150837227Y-95651804D01*
X150861496Y-95648204D01*
X150886000Y-95647000D01*
X152136000Y-95647000D01*
X152160504Y-95648204D01*
X152160504Y-95648204D01*
G37*
D12*
X151511000Y-96272000D03*
D11*
G36*
X152160504Y-92848204D02*
G01*
X152184773Y-92851804D01*
X152208571Y-92857765D01*
X152231671Y-92866030D01*
X152253849Y-92876520D01*
X152274893Y-92889133D01*
X152294598Y-92903747D01*
X152312777Y-92920223D01*
X152329253Y-92938402D01*
X152343867Y-92958107D01*
X152356480Y-92979151D01*
X152366970Y-93001329D01*
X152375235Y-93024429D01*
X152381196Y-93048227D01*
X152384796Y-93072496D01*
X152386000Y-93097000D01*
X152386000Y-93847000D01*
X152384796Y-93871504D01*
X152381196Y-93895773D01*
X152375235Y-93919571D01*
X152366970Y-93942671D01*
X152356480Y-93964849D01*
X152343867Y-93985893D01*
X152329253Y-94005598D01*
X152312777Y-94023777D01*
X152294598Y-94040253D01*
X152274893Y-94054867D01*
X152253849Y-94067480D01*
X152231671Y-94077970D01*
X152208571Y-94086235D01*
X152184773Y-94092196D01*
X152160504Y-94095796D01*
X152136000Y-94097000D01*
X150886000Y-94097000D01*
X150861496Y-94095796D01*
X150837227Y-94092196D01*
X150813429Y-94086235D01*
X150790329Y-94077970D01*
X150768151Y-94067480D01*
X150747107Y-94054867D01*
X150727402Y-94040253D01*
X150709223Y-94023777D01*
X150692747Y-94005598D01*
X150678133Y-93985893D01*
X150665520Y-93964849D01*
X150655030Y-93942671D01*
X150646765Y-93919571D01*
X150640804Y-93895773D01*
X150637204Y-93871504D01*
X150636000Y-93847000D01*
X150636000Y-93097000D01*
X150637204Y-93072496D01*
X150640804Y-93048227D01*
X150646765Y-93024429D01*
X150655030Y-93001329D01*
X150665520Y-92979151D01*
X150678133Y-92958107D01*
X150692747Y-92938402D01*
X150709223Y-92920223D01*
X150727402Y-92903747D01*
X150747107Y-92889133D01*
X150768151Y-92876520D01*
X150790329Y-92866030D01*
X150813429Y-92857765D01*
X150837227Y-92851804D01*
X150861496Y-92848204D01*
X150886000Y-92847000D01*
X152136000Y-92847000D01*
X152160504Y-92848204D01*
X152160504Y-92848204D01*
G37*
D12*
X151511000Y-93472000D03*
D11*
G36*
X149110504Y-100091204D02*
G01*
X149134773Y-100094804D01*
X149158571Y-100100765D01*
X149181671Y-100109030D01*
X149203849Y-100119520D01*
X149224893Y-100132133D01*
X149244598Y-100146747D01*
X149262777Y-100163223D01*
X149279253Y-100181402D01*
X149293867Y-100201107D01*
X149306480Y-100222151D01*
X149316970Y-100244329D01*
X149325235Y-100267429D01*
X149331196Y-100291227D01*
X149334796Y-100315496D01*
X149336000Y-100340000D01*
X149336000Y-101590000D01*
X149334796Y-101614504D01*
X149331196Y-101638773D01*
X149325235Y-101662571D01*
X149316970Y-101685671D01*
X149306480Y-101707849D01*
X149293867Y-101728893D01*
X149279253Y-101748598D01*
X149262777Y-101766777D01*
X149244598Y-101783253D01*
X149224893Y-101797867D01*
X149203849Y-101810480D01*
X149181671Y-101820970D01*
X149158571Y-101829235D01*
X149134773Y-101835196D01*
X149110504Y-101838796D01*
X149086000Y-101840000D01*
X148336000Y-101840000D01*
X148311496Y-101838796D01*
X148287227Y-101835196D01*
X148263429Y-101829235D01*
X148240329Y-101820970D01*
X148218151Y-101810480D01*
X148197107Y-101797867D01*
X148177402Y-101783253D01*
X148159223Y-101766777D01*
X148142747Y-101748598D01*
X148128133Y-101728893D01*
X148115520Y-101707849D01*
X148105030Y-101685671D01*
X148096765Y-101662571D01*
X148090804Y-101638773D01*
X148087204Y-101614504D01*
X148086000Y-101590000D01*
X148086000Y-100340000D01*
X148087204Y-100315496D01*
X148090804Y-100291227D01*
X148096765Y-100267429D01*
X148105030Y-100244329D01*
X148115520Y-100222151D01*
X148128133Y-100201107D01*
X148142747Y-100181402D01*
X148159223Y-100163223D01*
X148177402Y-100146747D01*
X148197107Y-100132133D01*
X148218151Y-100119520D01*
X148240329Y-100109030D01*
X148263429Y-100100765D01*
X148287227Y-100094804D01*
X148311496Y-100091204D01*
X148336000Y-100090000D01*
X149086000Y-100090000D01*
X149110504Y-100091204D01*
X149110504Y-100091204D01*
G37*
D12*
X148711000Y-100965000D03*
D11*
G36*
X151910504Y-100091204D02*
G01*
X151934773Y-100094804D01*
X151958571Y-100100765D01*
X151981671Y-100109030D01*
X152003849Y-100119520D01*
X152024893Y-100132133D01*
X152044598Y-100146747D01*
X152062777Y-100163223D01*
X152079253Y-100181402D01*
X152093867Y-100201107D01*
X152106480Y-100222151D01*
X152116970Y-100244329D01*
X152125235Y-100267429D01*
X152131196Y-100291227D01*
X152134796Y-100315496D01*
X152136000Y-100340000D01*
X152136000Y-101590000D01*
X152134796Y-101614504D01*
X152131196Y-101638773D01*
X152125235Y-101662571D01*
X152116970Y-101685671D01*
X152106480Y-101707849D01*
X152093867Y-101728893D01*
X152079253Y-101748598D01*
X152062777Y-101766777D01*
X152044598Y-101783253D01*
X152024893Y-101797867D01*
X152003849Y-101810480D01*
X151981671Y-101820970D01*
X151958571Y-101829235D01*
X151934773Y-101835196D01*
X151910504Y-101838796D01*
X151886000Y-101840000D01*
X151136000Y-101840000D01*
X151111496Y-101838796D01*
X151087227Y-101835196D01*
X151063429Y-101829235D01*
X151040329Y-101820970D01*
X151018151Y-101810480D01*
X150997107Y-101797867D01*
X150977402Y-101783253D01*
X150959223Y-101766777D01*
X150942747Y-101748598D01*
X150928133Y-101728893D01*
X150915520Y-101707849D01*
X150905030Y-101685671D01*
X150896765Y-101662571D01*
X150890804Y-101638773D01*
X150887204Y-101614504D01*
X150886000Y-101590000D01*
X150886000Y-100340000D01*
X150887204Y-100315496D01*
X150890804Y-100291227D01*
X150896765Y-100267429D01*
X150905030Y-100244329D01*
X150915520Y-100222151D01*
X150928133Y-100201107D01*
X150942747Y-100181402D01*
X150959223Y-100163223D01*
X150977402Y-100146747D01*
X150997107Y-100132133D01*
X151018151Y-100119520D01*
X151040329Y-100109030D01*
X151063429Y-100100765D01*
X151087227Y-100094804D01*
X151111496Y-100091204D01*
X151136000Y-100090000D01*
X151886000Y-100090000D01*
X151910504Y-100091204D01*
X151910504Y-100091204D01*
G37*
D12*
X151511000Y-100965000D03*
D11*
G36*
X149116504Y-97551204D02*
G01*
X149140773Y-97554804D01*
X149164571Y-97560765D01*
X149187671Y-97569030D01*
X149209849Y-97579520D01*
X149230893Y-97592133D01*
X149250598Y-97606747D01*
X149268777Y-97623223D01*
X149285253Y-97641402D01*
X149299867Y-97661107D01*
X149312480Y-97682151D01*
X149322970Y-97704329D01*
X149331235Y-97727429D01*
X149337196Y-97751227D01*
X149340796Y-97775496D01*
X149342000Y-97800000D01*
X149342000Y-99050000D01*
X149340796Y-99074504D01*
X149337196Y-99098773D01*
X149331235Y-99122571D01*
X149322970Y-99145671D01*
X149312480Y-99167849D01*
X149299867Y-99188893D01*
X149285253Y-99208598D01*
X149268777Y-99226777D01*
X149250598Y-99243253D01*
X149230893Y-99257867D01*
X149209849Y-99270480D01*
X149187671Y-99280970D01*
X149164571Y-99289235D01*
X149140773Y-99295196D01*
X149116504Y-99298796D01*
X149092000Y-99300000D01*
X148342000Y-99300000D01*
X148317496Y-99298796D01*
X148293227Y-99295196D01*
X148269429Y-99289235D01*
X148246329Y-99280970D01*
X148224151Y-99270480D01*
X148203107Y-99257867D01*
X148183402Y-99243253D01*
X148165223Y-99226777D01*
X148148747Y-99208598D01*
X148134133Y-99188893D01*
X148121520Y-99167849D01*
X148111030Y-99145671D01*
X148102765Y-99122571D01*
X148096804Y-99098773D01*
X148093204Y-99074504D01*
X148092000Y-99050000D01*
X148092000Y-97800000D01*
X148093204Y-97775496D01*
X148096804Y-97751227D01*
X148102765Y-97727429D01*
X148111030Y-97704329D01*
X148121520Y-97682151D01*
X148134133Y-97661107D01*
X148148747Y-97641402D01*
X148165223Y-97623223D01*
X148183402Y-97606747D01*
X148203107Y-97592133D01*
X148224151Y-97579520D01*
X148246329Y-97569030D01*
X148269429Y-97560765D01*
X148293227Y-97554804D01*
X148317496Y-97551204D01*
X148342000Y-97550000D01*
X149092000Y-97550000D01*
X149116504Y-97551204D01*
X149116504Y-97551204D01*
G37*
D12*
X148717000Y-98425000D03*
D11*
G36*
X151916504Y-97551204D02*
G01*
X151940773Y-97554804D01*
X151964571Y-97560765D01*
X151987671Y-97569030D01*
X152009849Y-97579520D01*
X152030893Y-97592133D01*
X152050598Y-97606747D01*
X152068777Y-97623223D01*
X152085253Y-97641402D01*
X152099867Y-97661107D01*
X152112480Y-97682151D01*
X152122970Y-97704329D01*
X152131235Y-97727429D01*
X152137196Y-97751227D01*
X152140796Y-97775496D01*
X152142000Y-97800000D01*
X152142000Y-99050000D01*
X152140796Y-99074504D01*
X152137196Y-99098773D01*
X152131235Y-99122571D01*
X152122970Y-99145671D01*
X152112480Y-99167849D01*
X152099867Y-99188893D01*
X152085253Y-99208598D01*
X152068777Y-99226777D01*
X152050598Y-99243253D01*
X152030893Y-99257867D01*
X152009849Y-99270480D01*
X151987671Y-99280970D01*
X151964571Y-99289235D01*
X151940773Y-99295196D01*
X151916504Y-99298796D01*
X151892000Y-99300000D01*
X151142000Y-99300000D01*
X151117496Y-99298796D01*
X151093227Y-99295196D01*
X151069429Y-99289235D01*
X151046329Y-99280970D01*
X151024151Y-99270480D01*
X151003107Y-99257867D01*
X150983402Y-99243253D01*
X150965223Y-99226777D01*
X150948747Y-99208598D01*
X150934133Y-99188893D01*
X150921520Y-99167849D01*
X150911030Y-99145671D01*
X150902765Y-99122571D01*
X150896804Y-99098773D01*
X150893204Y-99074504D01*
X150892000Y-99050000D01*
X150892000Y-97800000D01*
X150893204Y-97775496D01*
X150896804Y-97751227D01*
X150902765Y-97727429D01*
X150911030Y-97704329D01*
X150921520Y-97682151D01*
X150934133Y-97661107D01*
X150948747Y-97641402D01*
X150965223Y-97623223D01*
X150983402Y-97606747D01*
X151003107Y-97592133D01*
X151024151Y-97579520D01*
X151046329Y-97569030D01*
X151069429Y-97560765D01*
X151093227Y-97554804D01*
X151117496Y-97551204D01*
X151142000Y-97550000D01*
X151892000Y-97550000D01*
X151916504Y-97551204D01*
X151916504Y-97551204D01*
G37*
D12*
X151517000Y-98425000D03*
D11*
G36*
X146703504Y-92090204D02*
G01*
X146727773Y-92093804D01*
X146751571Y-92099765D01*
X146774671Y-92108030D01*
X146796849Y-92118520D01*
X146817893Y-92131133D01*
X146837598Y-92145747D01*
X146855777Y-92162223D01*
X146872253Y-92180402D01*
X146886867Y-92200107D01*
X146899480Y-92221151D01*
X146909970Y-92243329D01*
X146918235Y-92266429D01*
X146924196Y-92290227D01*
X146927796Y-92314496D01*
X146929000Y-92339000D01*
X146929000Y-93589000D01*
X146927796Y-93613504D01*
X146924196Y-93637773D01*
X146918235Y-93661571D01*
X146909970Y-93684671D01*
X146899480Y-93706849D01*
X146886867Y-93727893D01*
X146872253Y-93747598D01*
X146855777Y-93765777D01*
X146837598Y-93782253D01*
X146817893Y-93796867D01*
X146796849Y-93809480D01*
X146774671Y-93819970D01*
X146751571Y-93828235D01*
X146727773Y-93834196D01*
X146703504Y-93837796D01*
X146679000Y-93839000D01*
X145929000Y-93839000D01*
X145904496Y-93837796D01*
X145880227Y-93834196D01*
X145856429Y-93828235D01*
X145833329Y-93819970D01*
X145811151Y-93809480D01*
X145790107Y-93796867D01*
X145770402Y-93782253D01*
X145752223Y-93765777D01*
X145735747Y-93747598D01*
X145721133Y-93727893D01*
X145708520Y-93706849D01*
X145698030Y-93684671D01*
X145689765Y-93661571D01*
X145683804Y-93637773D01*
X145680204Y-93613504D01*
X145679000Y-93589000D01*
X145679000Y-92339000D01*
X145680204Y-92314496D01*
X145683804Y-92290227D01*
X145689765Y-92266429D01*
X145698030Y-92243329D01*
X145708520Y-92221151D01*
X145721133Y-92200107D01*
X145735747Y-92180402D01*
X145752223Y-92162223D01*
X145770402Y-92145747D01*
X145790107Y-92131133D01*
X145811151Y-92118520D01*
X145833329Y-92108030D01*
X145856429Y-92099765D01*
X145880227Y-92093804D01*
X145904496Y-92090204D01*
X145929000Y-92089000D01*
X146679000Y-92089000D01*
X146703504Y-92090204D01*
X146703504Y-92090204D01*
G37*
D12*
X146304000Y-92964000D03*
D11*
G36*
X149503504Y-92090204D02*
G01*
X149527773Y-92093804D01*
X149551571Y-92099765D01*
X149574671Y-92108030D01*
X149596849Y-92118520D01*
X149617893Y-92131133D01*
X149637598Y-92145747D01*
X149655777Y-92162223D01*
X149672253Y-92180402D01*
X149686867Y-92200107D01*
X149699480Y-92221151D01*
X149709970Y-92243329D01*
X149718235Y-92266429D01*
X149724196Y-92290227D01*
X149727796Y-92314496D01*
X149729000Y-92339000D01*
X149729000Y-93589000D01*
X149727796Y-93613504D01*
X149724196Y-93637773D01*
X149718235Y-93661571D01*
X149709970Y-93684671D01*
X149699480Y-93706849D01*
X149686867Y-93727893D01*
X149672253Y-93747598D01*
X149655777Y-93765777D01*
X149637598Y-93782253D01*
X149617893Y-93796867D01*
X149596849Y-93809480D01*
X149574671Y-93819970D01*
X149551571Y-93828235D01*
X149527773Y-93834196D01*
X149503504Y-93837796D01*
X149479000Y-93839000D01*
X148729000Y-93839000D01*
X148704496Y-93837796D01*
X148680227Y-93834196D01*
X148656429Y-93828235D01*
X148633329Y-93819970D01*
X148611151Y-93809480D01*
X148590107Y-93796867D01*
X148570402Y-93782253D01*
X148552223Y-93765777D01*
X148535747Y-93747598D01*
X148521133Y-93727893D01*
X148508520Y-93706849D01*
X148498030Y-93684671D01*
X148489765Y-93661571D01*
X148483804Y-93637773D01*
X148480204Y-93613504D01*
X148479000Y-93589000D01*
X148479000Y-92339000D01*
X148480204Y-92314496D01*
X148483804Y-92290227D01*
X148489765Y-92266429D01*
X148498030Y-92243329D01*
X148508520Y-92221151D01*
X148521133Y-92200107D01*
X148535747Y-92180402D01*
X148552223Y-92162223D01*
X148570402Y-92145747D01*
X148590107Y-92131133D01*
X148611151Y-92118520D01*
X148633329Y-92108030D01*
X148656429Y-92099765D01*
X148680227Y-92093804D01*
X148704496Y-92090204D01*
X148729000Y-92089000D01*
X149479000Y-92089000D01*
X149503504Y-92090204D01*
X149503504Y-92090204D01*
G37*
D12*
X149104000Y-92964000D03*
M02*
