G04 #@! TF.GenerationSoftware,KiCad,Pcbnew,(5.1.4)-1*
G04 #@! TF.CreationDate,2019-08-19T16:22:37-04:00*
G04 #@! TF.ProjectId,clock_buffer,636c6f63-6b5f-4627-9566-6665722e6b69,rev?*
G04 #@! TF.SameCoordinates,Original*
G04 #@! TF.FileFunction,Legend,Bot*
G04 #@! TF.FilePolarity,Positive*
%FSLAX46Y46*%
G04 Gerber Fmt 4.6, Leading zero omitted, Abs format (unit mm)*
G04 Created by KiCad (PCBNEW (5.1.4)-1) date 2019-08-19 16:22:37*
%MOMM*%
%LPD*%
G04 APERTURE LIST*
%ADD10C,0.150000*%
G04 APERTURE END LIST*
D10*
X148821142Y-92728023D02*
X148868761Y-92680404D01*
X148916380Y-92537547D01*
X148916380Y-92442309D01*
X148868761Y-92299452D01*
X148773523Y-92204214D01*
X148678285Y-92156595D01*
X148487809Y-92108976D01*
X148344952Y-92108976D01*
X148154476Y-92156595D01*
X148059238Y-92204214D01*
X147964000Y-92299452D01*
X147916380Y-92442309D01*
X147916380Y-92537547D01*
X147964000Y-92680404D01*
X148011619Y-92728023D01*
X148868761Y-93537547D02*
X148916380Y-93442309D01*
X148916380Y-93251833D01*
X148868761Y-93156595D01*
X148773523Y-93108976D01*
X148392571Y-93108976D01*
X148297333Y-93156595D01*
X148249714Y-93251833D01*
X148249714Y-93442309D01*
X148297333Y-93537547D01*
X148392571Y-93585166D01*
X148487809Y-93585166D01*
X148583047Y-93108976D01*
X148916380Y-94013738D02*
X147916380Y-94013738D01*
X148916380Y-94585166D01*
X147916380Y-94585166D01*
X147916380Y-94918500D02*
X147916380Y-95489928D01*
X148916380Y-95204214D02*
X147916380Y-95204214D01*
X148916380Y-96394690D02*
X148440190Y-96061357D01*
X148916380Y-95823261D02*
X147916380Y-95823261D01*
X147916380Y-96204214D01*
X147964000Y-96299452D01*
X148011619Y-96347071D01*
X148106857Y-96394690D01*
X148249714Y-96394690D01*
X148344952Y-96347071D01*
X148392571Y-96299452D01*
X148440190Y-96204214D01*
X148440190Y-95823261D01*
X148392571Y-96823261D02*
X148392571Y-97156595D01*
X148916380Y-97299452D02*
X148916380Y-96823261D01*
X147916380Y-96823261D01*
X147916380Y-97299452D01*
X147916380Y-97632785D02*
X148916380Y-98299452D01*
X147916380Y-98299452D02*
X148916380Y-97632785D01*
X150566380Y-92156595D02*
X149566380Y-92156595D01*
X149566380Y-92537547D01*
X149614000Y-92632785D01*
X149661619Y-92680404D01*
X149756857Y-92728023D01*
X149899714Y-92728023D01*
X149994952Y-92680404D01*
X150042571Y-92632785D01*
X150090190Y-92537547D01*
X150090190Y-92156595D01*
X149899714Y-93585166D02*
X150566380Y-93585166D01*
X149899714Y-93156595D02*
X150423523Y-93156595D01*
X150518761Y-93204214D01*
X150566380Y-93299452D01*
X150566380Y-93442309D01*
X150518761Y-93537547D01*
X150471142Y-93585166D01*
X150566380Y-94204214D02*
X150518761Y-94108976D01*
X150423523Y-94061357D01*
X149566380Y-94061357D01*
X150518761Y-94537547D02*
X150566380Y-94632785D01*
X150566380Y-94823261D01*
X150518761Y-94918500D01*
X150423523Y-94966119D01*
X150375904Y-94966119D01*
X150280666Y-94918500D01*
X150233047Y-94823261D01*
X150233047Y-94680404D01*
X150185428Y-94585166D01*
X150090190Y-94537547D01*
X150042571Y-94537547D01*
X149947333Y-94585166D01*
X149899714Y-94680404D01*
X149899714Y-94823261D01*
X149947333Y-94918500D01*
X150518761Y-95775642D02*
X150566380Y-95680404D01*
X150566380Y-95489928D01*
X150518761Y-95394690D01*
X150423523Y-95347071D01*
X150042571Y-95347071D01*
X149947333Y-95394690D01*
X149899714Y-95489928D01*
X149899714Y-95680404D01*
X149947333Y-95775642D01*
X150042571Y-95823261D01*
X150137809Y-95823261D01*
X150233047Y-95347071D01*
X150042571Y-96585166D02*
X150090190Y-96728023D01*
X150137809Y-96775642D01*
X150233047Y-96823261D01*
X150375904Y-96823261D01*
X150471142Y-96775642D01*
X150518761Y-96728023D01*
X150566380Y-96632785D01*
X150566380Y-96251833D01*
X149566380Y-96251833D01*
X149566380Y-96585166D01*
X149614000Y-96680404D01*
X149661619Y-96728023D01*
X149756857Y-96775642D01*
X149852095Y-96775642D01*
X149947333Y-96728023D01*
X149994952Y-96680404D01*
X150042571Y-96585166D01*
X150042571Y-96251833D01*
X150566380Y-97394690D02*
X150518761Y-97299452D01*
X150423523Y-97251833D01*
X149566380Y-97251833D01*
X150566380Y-98204214D02*
X150042571Y-98204214D01*
X149947333Y-98156595D01*
X149899714Y-98061357D01*
X149899714Y-97870880D01*
X149947333Y-97775642D01*
X150518761Y-98204214D02*
X150566380Y-98108976D01*
X150566380Y-97870880D01*
X150518761Y-97775642D01*
X150423523Y-97728023D01*
X150328285Y-97728023D01*
X150233047Y-97775642D01*
X150185428Y-97870880D01*
X150185428Y-98108976D01*
X150137809Y-98204214D01*
X150518761Y-98632785D02*
X150566380Y-98728023D01*
X150566380Y-98918500D01*
X150518761Y-99013738D01*
X150423523Y-99061357D01*
X150375904Y-99061357D01*
X150280666Y-99013738D01*
X150233047Y-98918500D01*
X150233047Y-98775642D01*
X150185428Y-98680404D01*
X150090190Y-98632785D01*
X150042571Y-98632785D01*
X149947333Y-98680404D01*
X149899714Y-98775642D01*
X149899714Y-98918500D01*
X149947333Y-99013738D01*
X149899714Y-99347071D02*
X149899714Y-99728023D01*
X149566380Y-99489928D02*
X150423523Y-99489928D01*
X150518761Y-99537547D01*
X150566380Y-99632785D01*
X150566380Y-99728023D01*
X150518761Y-100442309D02*
X150566380Y-100347071D01*
X150566380Y-100156595D01*
X150518761Y-100061357D01*
X150423523Y-100013738D01*
X150042571Y-100013738D01*
X149947333Y-100061357D01*
X149899714Y-100156595D01*
X149899714Y-100347071D01*
X149947333Y-100442309D01*
X150042571Y-100489928D01*
X150137809Y-100489928D01*
X150233047Y-100013738D01*
X150566380Y-100918500D02*
X149899714Y-100918500D01*
X150090190Y-100918500D02*
X149994952Y-100966119D01*
X149947333Y-101013738D01*
X149899714Y-101108976D01*
X149899714Y-101204214D01*
X150471142Y-102870880D02*
X150518761Y-102823261D01*
X150566380Y-102680404D01*
X150566380Y-102585166D01*
X150518761Y-102442309D01*
X150423523Y-102347071D01*
X150328285Y-102299452D01*
X150137809Y-102251833D01*
X149994952Y-102251833D01*
X149804476Y-102299452D01*
X149709238Y-102347071D01*
X149614000Y-102442309D01*
X149566380Y-102585166D01*
X149566380Y-102680404D01*
X149614000Y-102823261D01*
X149661619Y-102870880D01*
X150566380Y-103442309D02*
X150518761Y-103347071D01*
X150423523Y-103299452D01*
X149566380Y-103299452D01*
X150566380Y-103966119D02*
X150518761Y-103870880D01*
X150471142Y-103823261D01*
X150375904Y-103775642D01*
X150090190Y-103775642D01*
X149994952Y-103823261D01*
X149947333Y-103870880D01*
X149899714Y-103966119D01*
X149899714Y-104108976D01*
X149947333Y-104204214D01*
X149994952Y-104251833D01*
X150090190Y-104299452D01*
X150375904Y-104299452D01*
X150471142Y-104251833D01*
X150518761Y-104204214D01*
X150566380Y-104108976D01*
X150566380Y-103966119D01*
X150518761Y-105156595D02*
X150566380Y-105061357D01*
X150566380Y-104870880D01*
X150518761Y-104775642D01*
X150471142Y-104728023D01*
X150375904Y-104680404D01*
X150090190Y-104680404D01*
X149994952Y-104728023D01*
X149947333Y-104775642D01*
X149899714Y-104870880D01*
X149899714Y-105061357D01*
X149947333Y-105156595D01*
X150566380Y-105585166D02*
X149566380Y-105585166D01*
X150185428Y-105680404D02*
X150566380Y-105966119D01*
X149899714Y-105966119D02*
X150280666Y-105585166D01*
X150042571Y-107489928D02*
X150090190Y-107632785D01*
X150137809Y-107680404D01*
X150233047Y-107728023D01*
X150375904Y-107728023D01*
X150471142Y-107680404D01*
X150518761Y-107632785D01*
X150566380Y-107537547D01*
X150566380Y-107156595D01*
X149566380Y-107156595D01*
X149566380Y-107489928D01*
X149614000Y-107585166D01*
X149661619Y-107632785D01*
X149756857Y-107680404D01*
X149852095Y-107680404D01*
X149947333Y-107632785D01*
X149994952Y-107585166D01*
X150042571Y-107489928D01*
X150042571Y-107156595D01*
X149899714Y-108585166D02*
X150566380Y-108585166D01*
X149899714Y-108156595D02*
X150423523Y-108156595D01*
X150518761Y-108204214D01*
X150566380Y-108299452D01*
X150566380Y-108442309D01*
X150518761Y-108537547D01*
X150471142Y-108585166D01*
X149899714Y-108918499D02*
X149899714Y-109299452D01*
X150566380Y-109061357D02*
X149709238Y-109061357D01*
X149614000Y-109108976D01*
X149566380Y-109204214D01*
X149566380Y-109299452D01*
X149899714Y-109489928D02*
X149899714Y-109870880D01*
X150566380Y-109632785D02*
X149709238Y-109632785D01*
X149614000Y-109680404D01*
X149566380Y-109775642D01*
X149566380Y-109870880D01*
X150518761Y-110585166D02*
X150566380Y-110489928D01*
X150566380Y-110299452D01*
X150518761Y-110204214D01*
X150423523Y-110156595D01*
X150042571Y-110156595D01*
X149947333Y-110204214D01*
X149899714Y-110299452D01*
X149899714Y-110489928D01*
X149947333Y-110585166D01*
X150042571Y-110632785D01*
X150137809Y-110632785D01*
X150233047Y-110156595D01*
X150566380Y-111061357D02*
X149899714Y-111061357D01*
X150090190Y-111061357D02*
X149994952Y-111108976D01*
X149947333Y-111156595D01*
X149899714Y-111251833D01*
X149899714Y-111347071D01*
X152216380Y-92728023D02*
X151740190Y-92394690D01*
X152216380Y-92156595D02*
X151216380Y-92156595D01*
X151216380Y-92537547D01*
X151264000Y-92632785D01*
X151311619Y-92680404D01*
X151406857Y-92728023D01*
X151549714Y-92728023D01*
X151644952Y-92680404D01*
X151692571Y-92632785D01*
X151740190Y-92537547D01*
X151740190Y-92156595D01*
X152168761Y-93537547D02*
X152216380Y-93442309D01*
X152216380Y-93251833D01*
X152168761Y-93156595D01*
X152073523Y-93108976D01*
X151692571Y-93108976D01*
X151597333Y-93156595D01*
X151549714Y-93251833D01*
X151549714Y-93442309D01*
X151597333Y-93537547D01*
X151692571Y-93585166D01*
X151787809Y-93585166D01*
X151883047Y-93108976D01*
X151549714Y-93918500D02*
X152216380Y-94156595D01*
X151549714Y-94394690D01*
X152121142Y-94775642D02*
X152168761Y-94823261D01*
X152216380Y-94775642D01*
X152168761Y-94728023D01*
X152121142Y-94775642D01*
X152216380Y-94775642D01*
X152216380Y-96537547D02*
X152216380Y-95966119D01*
X152216380Y-96251833D02*
X151216380Y-96251833D01*
X151359238Y-96156595D01*
X151454476Y-96061357D01*
X151502095Y-95966119D01*
X152121142Y-96966119D02*
X152168761Y-97013738D01*
X152216380Y-96966119D01*
X152168761Y-96918500D01*
X152121142Y-96966119D01*
X152216380Y-96966119D01*
X151216380Y-97632785D02*
X151216380Y-97728023D01*
X151264000Y-97823261D01*
X151311619Y-97870880D01*
X151406857Y-97918500D01*
X151597333Y-97966119D01*
X151835428Y-97966119D01*
X152025904Y-97918500D01*
X152121142Y-97870880D01*
X152168761Y-97823261D01*
X152216380Y-97728023D01*
X152216380Y-97632785D01*
X152168761Y-97537547D01*
X152121142Y-97489928D01*
X152025904Y-97442309D01*
X151835428Y-97394690D01*
X151597333Y-97394690D01*
X151406857Y-97442309D01*
X151311619Y-97489928D01*
X151264000Y-97537547D01*
X151216380Y-97632785D01*
M02*
