G04 #@! TF.GenerationSoftware,KiCad,Pcbnew,(5.1.4)-1*
G04 #@! TF.CreationDate,2019-09-17T16:36:48-04:00*
G04 #@! TF.ProjectId,amplifier,616d706c-6966-4696-9572-2e6b69636164,rev?*
G04 #@! TF.SameCoordinates,Original*
G04 #@! TF.FileFunction,Paste,Top*
G04 #@! TF.FilePolarity,Positive*
%FSLAX46Y46*%
G04 Gerber Fmt 4.6, Leading zero omitted, Abs format (unit mm)*
G04 Created by KiCad (PCBNEW (5.1.4)-1) date 2019-09-17 16:36:48*
%MOMM*%
%LPD*%
G04 APERTURE LIST*
%ADD10R,0.650000X1.060000*%
%ADD11R,0.558800X1.270000*%
%ADD12C,0.100000*%
%ADD13C,0.975000*%
%ADD14C,1.250000*%
%ADD15R,1.500000X5.080000*%
%ADD16R,5.080000X1.500000*%
%ADD17R,0.530800X1.511200*%
G04 APERTURE END LIST*
D10*
X118552000Y-68156000D03*
X116652000Y-68156000D03*
X116652000Y-65956000D03*
X117602000Y-65956000D03*
X118552000Y-65956000D03*
D11*
X131762500Y-68783200D03*
X129857500Y-68783200D03*
X129857500Y-66344800D03*
X130810000Y-66344800D03*
X131762500Y-66344800D03*
D12*
G36*
X135746642Y-72199174D02*
G01*
X135770303Y-72202684D01*
X135793507Y-72208496D01*
X135816029Y-72216554D01*
X135837653Y-72226782D01*
X135858170Y-72239079D01*
X135877383Y-72253329D01*
X135895107Y-72269393D01*
X135911171Y-72287117D01*
X135925421Y-72306330D01*
X135937718Y-72326847D01*
X135947946Y-72348471D01*
X135956004Y-72370993D01*
X135961816Y-72394197D01*
X135965326Y-72417858D01*
X135966500Y-72441750D01*
X135966500Y-73354250D01*
X135965326Y-73378142D01*
X135961816Y-73401803D01*
X135956004Y-73425007D01*
X135947946Y-73447529D01*
X135937718Y-73469153D01*
X135925421Y-73489670D01*
X135911171Y-73508883D01*
X135895107Y-73526607D01*
X135877383Y-73542671D01*
X135858170Y-73556921D01*
X135837653Y-73569218D01*
X135816029Y-73579446D01*
X135793507Y-73587504D01*
X135770303Y-73593316D01*
X135746642Y-73596826D01*
X135722750Y-73598000D01*
X135235250Y-73598000D01*
X135211358Y-73596826D01*
X135187697Y-73593316D01*
X135164493Y-73587504D01*
X135141971Y-73579446D01*
X135120347Y-73569218D01*
X135099830Y-73556921D01*
X135080617Y-73542671D01*
X135062893Y-73526607D01*
X135046829Y-73508883D01*
X135032579Y-73489670D01*
X135020282Y-73469153D01*
X135010054Y-73447529D01*
X135001996Y-73425007D01*
X134996184Y-73401803D01*
X134992674Y-73378142D01*
X134991500Y-73354250D01*
X134991500Y-72441750D01*
X134992674Y-72417858D01*
X134996184Y-72394197D01*
X135001996Y-72370993D01*
X135010054Y-72348471D01*
X135020282Y-72326847D01*
X135032579Y-72306330D01*
X135046829Y-72287117D01*
X135062893Y-72269393D01*
X135080617Y-72253329D01*
X135099830Y-72239079D01*
X135120347Y-72226782D01*
X135141971Y-72216554D01*
X135164493Y-72208496D01*
X135187697Y-72202684D01*
X135211358Y-72199174D01*
X135235250Y-72198000D01*
X135722750Y-72198000D01*
X135746642Y-72199174D01*
X135746642Y-72199174D01*
G37*
D13*
X135479000Y-72898000D03*
D12*
G36*
X133871642Y-72199174D02*
G01*
X133895303Y-72202684D01*
X133918507Y-72208496D01*
X133941029Y-72216554D01*
X133962653Y-72226782D01*
X133983170Y-72239079D01*
X134002383Y-72253329D01*
X134020107Y-72269393D01*
X134036171Y-72287117D01*
X134050421Y-72306330D01*
X134062718Y-72326847D01*
X134072946Y-72348471D01*
X134081004Y-72370993D01*
X134086816Y-72394197D01*
X134090326Y-72417858D01*
X134091500Y-72441750D01*
X134091500Y-73354250D01*
X134090326Y-73378142D01*
X134086816Y-73401803D01*
X134081004Y-73425007D01*
X134072946Y-73447529D01*
X134062718Y-73469153D01*
X134050421Y-73489670D01*
X134036171Y-73508883D01*
X134020107Y-73526607D01*
X134002383Y-73542671D01*
X133983170Y-73556921D01*
X133962653Y-73569218D01*
X133941029Y-73579446D01*
X133918507Y-73587504D01*
X133895303Y-73593316D01*
X133871642Y-73596826D01*
X133847750Y-73598000D01*
X133360250Y-73598000D01*
X133336358Y-73596826D01*
X133312697Y-73593316D01*
X133289493Y-73587504D01*
X133266971Y-73579446D01*
X133245347Y-73569218D01*
X133224830Y-73556921D01*
X133205617Y-73542671D01*
X133187893Y-73526607D01*
X133171829Y-73508883D01*
X133157579Y-73489670D01*
X133145282Y-73469153D01*
X133135054Y-73447529D01*
X133126996Y-73425007D01*
X133121184Y-73401803D01*
X133117674Y-73378142D01*
X133116500Y-73354250D01*
X133116500Y-72441750D01*
X133117674Y-72417858D01*
X133121184Y-72394197D01*
X133126996Y-72370993D01*
X133135054Y-72348471D01*
X133145282Y-72326847D01*
X133157579Y-72306330D01*
X133171829Y-72287117D01*
X133187893Y-72269393D01*
X133205617Y-72253329D01*
X133224830Y-72239079D01*
X133245347Y-72226782D01*
X133266971Y-72216554D01*
X133289493Y-72208496D01*
X133312697Y-72202684D01*
X133336358Y-72199174D01*
X133360250Y-72198000D01*
X133847750Y-72198000D01*
X133871642Y-72199174D01*
X133871642Y-72199174D01*
G37*
D13*
X133604000Y-72898000D03*
D12*
G36*
X129886142Y-72199174D02*
G01*
X129909803Y-72202684D01*
X129933007Y-72208496D01*
X129955529Y-72216554D01*
X129977153Y-72226782D01*
X129997670Y-72239079D01*
X130016883Y-72253329D01*
X130034607Y-72269393D01*
X130050671Y-72287117D01*
X130064921Y-72306330D01*
X130077218Y-72326847D01*
X130087446Y-72348471D01*
X130095504Y-72370993D01*
X130101316Y-72394197D01*
X130104826Y-72417858D01*
X130106000Y-72441750D01*
X130106000Y-73354250D01*
X130104826Y-73378142D01*
X130101316Y-73401803D01*
X130095504Y-73425007D01*
X130087446Y-73447529D01*
X130077218Y-73469153D01*
X130064921Y-73489670D01*
X130050671Y-73508883D01*
X130034607Y-73526607D01*
X130016883Y-73542671D01*
X129997670Y-73556921D01*
X129977153Y-73569218D01*
X129955529Y-73579446D01*
X129933007Y-73587504D01*
X129909803Y-73593316D01*
X129886142Y-73596826D01*
X129862250Y-73598000D01*
X129374750Y-73598000D01*
X129350858Y-73596826D01*
X129327197Y-73593316D01*
X129303993Y-73587504D01*
X129281471Y-73579446D01*
X129259847Y-73569218D01*
X129239330Y-73556921D01*
X129220117Y-73542671D01*
X129202393Y-73526607D01*
X129186329Y-73508883D01*
X129172079Y-73489670D01*
X129159782Y-73469153D01*
X129149554Y-73447529D01*
X129141496Y-73425007D01*
X129135684Y-73401803D01*
X129132174Y-73378142D01*
X129131000Y-73354250D01*
X129131000Y-72441750D01*
X129132174Y-72417858D01*
X129135684Y-72394197D01*
X129141496Y-72370993D01*
X129149554Y-72348471D01*
X129159782Y-72326847D01*
X129172079Y-72306330D01*
X129186329Y-72287117D01*
X129202393Y-72269393D01*
X129220117Y-72253329D01*
X129239330Y-72239079D01*
X129259847Y-72226782D01*
X129281471Y-72216554D01*
X129303993Y-72208496D01*
X129327197Y-72202684D01*
X129350858Y-72199174D01*
X129374750Y-72198000D01*
X129862250Y-72198000D01*
X129886142Y-72199174D01*
X129886142Y-72199174D01*
G37*
D13*
X129618500Y-72898000D03*
D12*
G36*
X131761142Y-72199174D02*
G01*
X131784803Y-72202684D01*
X131808007Y-72208496D01*
X131830529Y-72216554D01*
X131852153Y-72226782D01*
X131872670Y-72239079D01*
X131891883Y-72253329D01*
X131909607Y-72269393D01*
X131925671Y-72287117D01*
X131939921Y-72306330D01*
X131952218Y-72326847D01*
X131962446Y-72348471D01*
X131970504Y-72370993D01*
X131976316Y-72394197D01*
X131979826Y-72417858D01*
X131981000Y-72441750D01*
X131981000Y-73354250D01*
X131979826Y-73378142D01*
X131976316Y-73401803D01*
X131970504Y-73425007D01*
X131962446Y-73447529D01*
X131952218Y-73469153D01*
X131939921Y-73489670D01*
X131925671Y-73508883D01*
X131909607Y-73526607D01*
X131891883Y-73542671D01*
X131872670Y-73556921D01*
X131852153Y-73569218D01*
X131830529Y-73579446D01*
X131808007Y-73587504D01*
X131784803Y-73593316D01*
X131761142Y-73596826D01*
X131737250Y-73598000D01*
X131249750Y-73598000D01*
X131225858Y-73596826D01*
X131202197Y-73593316D01*
X131178993Y-73587504D01*
X131156471Y-73579446D01*
X131134847Y-73569218D01*
X131114330Y-73556921D01*
X131095117Y-73542671D01*
X131077393Y-73526607D01*
X131061329Y-73508883D01*
X131047079Y-73489670D01*
X131034782Y-73469153D01*
X131024554Y-73447529D01*
X131016496Y-73425007D01*
X131010684Y-73401803D01*
X131007174Y-73378142D01*
X131006000Y-73354250D01*
X131006000Y-72441750D01*
X131007174Y-72417858D01*
X131010684Y-72394197D01*
X131016496Y-72370993D01*
X131024554Y-72348471D01*
X131034782Y-72326847D01*
X131047079Y-72306330D01*
X131061329Y-72287117D01*
X131077393Y-72269393D01*
X131095117Y-72253329D01*
X131114330Y-72239079D01*
X131134847Y-72226782D01*
X131156471Y-72216554D01*
X131178993Y-72208496D01*
X131202197Y-72202684D01*
X131225858Y-72199174D01*
X131249750Y-72198000D01*
X131737250Y-72198000D01*
X131761142Y-72199174D01*
X131761142Y-72199174D01*
G37*
D13*
X131493500Y-72898000D03*
D12*
G36*
X134846142Y-76554174D02*
G01*
X134869803Y-76557684D01*
X134893007Y-76563496D01*
X134915529Y-76571554D01*
X134937153Y-76581782D01*
X134957670Y-76594079D01*
X134976883Y-76608329D01*
X134994607Y-76624393D01*
X135010671Y-76642117D01*
X135024921Y-76661330D01*
X135037218Y-76681847D01*
X135047446Y-76703471D01*
X135055504Y-76725993D01*
X135061316Y-76749197D01*
X135064826Y-76772858D01*
X135066000Y-76796750D01*
X135066000Y-77284250D01*
X135064826Y-77308142D01*
X135061316Y-77331803D01*
X135055504Y-77355007D01*
X135047446Y-77377529D01*
X135037218Y-77399153D01*
X135024921Y-77419670D01*
X135010671Y-77438883D01*
X134994607Y-77456607D01*
X134976883Y-77472671D01*
X134957670Y-77486921D01*
X134937153Y-77499218D01*
X134915529Y-77509446D01*
X134893007Y-77517504D01*
X134869803Y-77523316D01*
X134846142Y-77526826D01*
X134822250Y-77528000D01*
X133909750Y-77528000D01*
X133885858Y-77526826D01*
X133862197Y-77523316D01*
X133838993Y-77517504D01*
X133816471Y-77509446D01*
X133794847Y-77499218D01*
X133774330Y-77486921D01*
X133755117Y-77472671D01*
X133737393Y-77456607D01*
X133721329Y-77438883D01*
X133707079Y-77419670D01*
X133694782Y-77399153D01*
X133684554Y-77377529D01*
X133676496Y-77355007D01*
X133670684Y-77331803D01*
X133667174Y-77308142D01*
X133666000Y-77284250D01*
X133666000Y-76796750D01*
X133667174Y-76772858D01*
X133670684Y-76749197D01*
X133676496Y-76725993D01*
X133684554Y-76703471D01*
X133694782Y-76681847D01*
X133707079Y-76661330D01*
X133721329Y-76642117D01*
X133737393Y-76624393D01*
X133755117Y-76608329D01*
X133774330Y-76594079D01*
X133794847Y-76581782D01*
X133816471Y-76571554D01*
X133838993Y-76563496D01*
X133862197Y-76557684D01*
X133885858Y-76554174D01*
X133909750Y-76553000D01*
X134822250Y-76553000D01*
X134846142Y-76554174D01*
X134846142Y-76554174D01*
G37*
D13*
X134366000Y-77040500D03*
D12*
G36*
X134846142Y-78429174D02*
G01*
X134869803Y-78432684D01*
X134893007Y-78438496D01*
X134915529Y-78446554D01*
X134937153Y-78456782D01*
X134957670Y-78469079D01*
X134976883Y-78483329D01*
X134994607Y-78499393D01*
X135010671Y-78517117D01*
X135024921Y-78536330D01*
X135037218Y-78556847D01*
X135047446Y-78578471D01*
X135055504Y-78600993D01*
X135061316Y-78624197D01*
X135064826Y-78647858D01*
X135066000Y-78671750D01*
X135066000Y-79159250D01*
X135064826Y-79183142D01*
X135061316Y-79206803D01*
X135055504Y-79230007D01*
X135047446Y-79252529D01*
X135037218Y-79274153D01*
X135024921Y-79294670D01*
X135010671Y-79313883D01*
X134994607Y-79331607D01*
X134976883Y-79347671D01*
X134957670Y-79361921D01*
X134937153Y-79374218D01*
X134915529Y-79384446D01*
X134893007Y-79392504D01*
X134869803Y-79398316D01*
X134846142Y-79401826D01*
X134822250Y-79403000D01*
X133909750Y-79403000D01*
X133885858Y-79401826D01*
X133862197Y-79398316D01*
X133838993Y-79392504D01*
X133816471Y-79384446D01*
X133794847Y-79374218D01*
X133774330Y-79361921D01*
X133755117Y-79347671D01*
X133737393Y-79331607D01*
X133721329Y-79313883D01*
X133707079Y-79294670D01*
X133694782Y-79274153D01*
X133684554Y-79252529D01*
X133676496Y-79230007D01*
X133670684Y-79206803D01*
X133667174Y-79183142D01*
X133666000Y-79159250D01*
X133666000Y-78671750D01*
X133667174Y-78647858D01*
X133670684Y-78624197D01*
X133676496Y-78600993D01*
X133684554Y-78578471D01*
X133694782Y-78556847D01*
X133707079Y-78536330D01*
X133721329Y-78517117D01*
X133737393Y-78499393D01*
X133755117Y-78483329D01*
X133774330Y-78469079D01*
X133794847Y-78456782D01*
X133816471Y-78446554D01*
X133838993Y-78438496D01*
X133862197Y-78432684D01*
X133885858Y-78429174D01*
X133909750Y-78428000D01*
X134822250Y-78428000D01*
X134846142Y-78429174D01*
X134846142Y-78429174D01*
G37*
D13*
X134366000Y-78915500D03*
D12*
G36*
X138873142Y-78295174D02*
G01*
X138896803Y-78298684D01*
X138920007Y-78304496D01*
X138942529Y-78312554D01*
X138964153Y-78322782D01*
X138984670Y-78335079D01*
X139003883Y-78349329D01*
X139021607Y-78365393D01*
X139037671Y-78383117D01*
X139051921Y-78402330D01*
X139064218Y-78422847D01*
X139074446Y-78444471D01*
X139082504Y-78466993D01*
X139088316Y-78490197D01*
X139091826Y-78513858D01*
X139093000Y-78537750D01*
X139093000Y-79450250D01*
X139091826Y-79474142D01*
X139088316Y-79497803D01*
X139082504Y-79521007D01*
X139074446Y-79543529D01*
X139064218Y-79565153D01*
X139051921Y-79585670D01*
X139037671Y-79604883D01*
X139021607Y-79622607D01*
X139003883Y-79638671D01*
X138984670Y-79652921D01*
X138964153Y-79665218D01*
X138942529Y-79675446D01*
X138920007Y-79683504D01*
X138896803Y-79689316D01*
X138873142Y-79692826D01*
X138849250Y-79694000D01*
X138361750Y-79694000D01*
X138337858Y-79692826D01*
X138314197Y-79689316D01*
X138290993Y-79683504D01*
X138268471Y-79675446D01*
X138246847Y-79665218D01*
X138226330Y-79652921D01*
X138207117Y-79638671D01*
X138189393Y-79622607D01*
X138173329Y-79604883D01*
X138159079Y-79585670D01*
X138146782Y-79565153D01*
X138136554Y-79543529D01*
X138128496Y-79521007D01*
X138122684Y-79497803D01*
X138119174Y-79474142D01*
X138118000Y-79450250D01*
X138118000Y-78537750D01*
X138119174Y-78513858D01*
X138122684Y-78490197D01*
X138128496Y-78466993D01*
X138136554Y-78444471D01*
X138146782Y-78422847D01*
X138159079Y-78402330D01*
X138173329Y-78383117D01*
X138189393Y-78365393D01*
X138207117Y-78349329D01*
X138226330Y-78335079D01*
X138246847Y-78322782D01*
X138268471Y-78312554D01*
X138290993Y-78304496D01*
X138314197Y-78298684D01*
X138337858Y-78295174D01*
X138361750Y-78294000D01*
X138849250Y-78294000D01*
X138873142Y-78295174D01*
X138873142Y-78295174D01*
G37*
D13*
X138605500Y-78994000D03*
D12*
G36*
X136998142Y-78295174D02*
G01*
X137021803Y-78298684D01*
X137045007Y-78304496D01*
X137067529Y-78312554D01*
X137089153Y-78322782D01*
X137109670Y-78335079D01*
X137128883Y-78349329D01*
X137146607Y-78365393D01*
X137162671Y-78383117D01*
X137176921Y-78402330D01*
X137189218Y-78422847D01*
X137199446Y-78444471D01*
X137207504Y-78466993D01*
X137213316Y-78490197D01*
X137216826Y-78513858D01*
X137218000Y-78537750D01*
X137218000Y-79450250D01*
X137216826Y-79474142D01*
X137213316Y-79497803D01*
X137207504Y-79521007D01*
X137199446Y-79543529D01*
X137189218Y-79565153D01*
X137176921Y-79585670D01*
X137162671Y-79604883D01*
X137146607Y-79622607D01*
X137128883Y-79638671D01*
X137109670Y-79652921D01*
X137089153Y-79665218D01*
X137067529Y-79675446D01*
X137045007Y-79683504D01*
X137021803Y-79689316D01*
X136998142Y-79692826D01*
X136974250Y-79694000D01*
X136486750Y-79694000D01*
X136462858Y-79692826D01*
X136439197Y-79689316D01*
X136415993Y-79683504D01*
X136393471Y-79675446D01*
X136371847Y-79665218D01*
X136351330Y-79652921D01*
X136332117Y-79638671D01*
X136314393Y-79622607D01*
X136298329Y-79604883D01*
X136284079Y-79585670D01*
X136271782Y-79565153D01*
X136261554Y-79543529D01*
X136253496Y-79521007D01*
X136247684Y-79497803D01*
X136244174Y-79474142D01*
X136243000Y-79450250D01*
X136243000Y-78537750D01*
X136244174Y-78513858D01*
X136247684Y-78490197D01*
X136253496Y-78466993D01*
X136261554Y-78444471D01*
X136271782Y-78422847D01*
X136284079Y-78402330D01*
X136298329Y-78383117D01*
X136314393Y-78365393D01*
X136332117Y-78349329D01*
X136351330Y-78335079D01*
X136371847Y-78322782D01*
X136393471Y-78312554D01*
X136415993Y-78304496D01*
X136439197Y-78298684D01*
X136462858Y-78295174D01*
X136486750Y-78294000D01*
X136974250Y-78294000D01*
X136998142Y-78295174D01*
X136998142Y-78295174D01*
G37*
D13*
X136730500Y-78994000D03*
D12*
G36*
X119267504Y-75960204D02*
G01*
X119291773Y-75963804D01*
X119315571Y-75969765D01*
X119338671Y-75978030D01*
X119360849Y-75988520D01*
X119381893Y-76001133D01*
X119401598Y-76015747D01*
X119419777Y-76032223D01*
X119436253Y-76050402D01*
X119450867Y-76070107D01*
X119463480Y-76091151D01*
X119473970Y-76113329D01*
X119482235Y-76136429D01*
X119488196Y-76160227D01*
X119491796Y-76184496D01*
X119493000Y-76209000D01*
X119493000Y-76959000D01*
X119491796Y-76983504D01*
X119488196Y-77007773D01*
X119482235Y-77031571D01*
X119473970Y-77054671D01*
X119463480Y-77076849D01*
X119450867Y-77097893D01*
X119436253Y-77117598D01*
X119419777Y-77135777D01*
X119401598Y-77152253D01*
X119381893Y-77166867D01*
X119360849Y-77179480D01*
X119338671Y-77189970D01*
X119315571Y-77198235D01*
X119291773Y-77204196D01*
X119267504Y-77207796D01*
X119243000Y-77209000D01*
X117993000Y-77209000D01*
X117968496Y-77207796D01*
X117944227Y-77204196D01*
X117920429Y-77198235D01*
X117897329Y-77189970D01*
X117875151Y-77179480D01*
X117854107Y-77166867D01*
X117834402Y-77152253D01*
X117816223Y-77135777D01*
X117799747Y-77117598D01*
X117785133Y-77097893D01*
X117772520Y-77076849D01*
X117762030Y-77054671D01*
X117753765Y-77031571D01*
X117747804Y-77007773D01*
X117744204Y-76983504D01*
X117743000Y-76959000D01*
X117743000Y-76209000D01*
X117744204Y-76184496D01*
X117747804Y-76160227D01*
X117753765Y-76136429D01*
X117762030Y-76113329D01*
X117772520Y-76091151D01*
X117785133Y-76070107D01*
X117799747Y-76050402D01*
X117816223Y-76032223D01*
X117834402Y-76015747D01*
X117854107Y-76001133D01*
X117875151Y-75988520D01*
X117897329Y-75978030D01*
X117920429Y-75969765D01*
X117944227Y-75963804D01*
X117968496Y-75960204D01*
X117993000Y-75959000D01*
X119243000Y-75959000D01*
X119267504Y-75960204D01*
X119267504Y-75960204D01*
G37*
D14*
X118618000Y-76584000D03*
D12*
G36*
X119267504Y-73160204D02*
G01*
X119291773Y-73163804D01*
X119315571Y-73169765D01*
X119338671Y-73178030D01*
X119360849Y-73188520D01*
X119381893Y-73201133D01*
X119401598Y-73215747D01*
X119419777Y-73232223D01*
X119436253Y-73250402D01*
X119450867Y-73270107D01*
X119463480Y-73291151D01*
X119473970Y-73313329D01*
X119482235Y-73336429D01*
X119488196Y-73360227D01*
X119491796Y-73384496D01*
X119493000Y-73409000D01*
X119493000Y-74159000D01*
X119491796Y-74183504D01*
X119488196Y-74207773D01*
X119482235Y-74231571D01*
X119473970Y-74254671D01*
X119463480Y-74276849D01*
X119450867Y-74297893D01*
X119436253Y-74317598D01*
X119419777Y-74335777D01*
X119401598Y-74352253D01*
X119381893Y-74366867D01*
X119360849Y-74379480D01*
X119338671Y-74389970D01*
X119315571Y-74398235D01*
X119291773Y-74404196D01*
X119267504Y-74407796D01*
X119243000Y-74409000D01*
X117993000Y-74409000D01*
X117968496Y-74407796D01*
X117944227Y-74404196D01*
X117920429Y-74398235D01*
X117897329Y-74389970D01*
X117875151Y-74379480D01*
X117854107Y-74366867D01*
X117834402Y-74352253D01*
X117816223Y-74335777D01*
X117799747Y-74317598D01*
X117785133Y-74297893D01*
X117772520Y-74276849D01*
X117762030Y-74254671D01*
X117753765Y-74231571D01*
X117747804Y-74207773D01*
X117744204Y-74183504D01*
X117743000Y-74159000D01*
X117743000Y-73409000D01*
X117744204Y-73384496D01*
X117747804Y-73360227D01*
X117753765Y-73336429D01*
X117762030Y-73313329D01*
X117772520Y-73291151D01*
X117785133Y-73270107D01*
X117799747Y-73250402D01*
X117816223Y-73232223D01*
X117834402Y-73215747D01*
X117854107Y-73201133D01*
X117875151Y-73188520D01*
X117897329Y-73178030D01*
X117920429Y-73169765D01*
X117944227Y-73163804D01*
X117968496Y-73160204D01*
X117993000Y-73159000D01*
X119243000Y-73159000D01*
X119267504Y-73160204D01*
X119267504Y-73160204D01*
G37*
D14*
X118618000Y-73784000D03*
D15*
X129540000Y-84836000D03*
X133790000Y-84836000D03*
X125290000Y-84836000D03*
D16*
X143002000Y-78994000D03*
X143002000Y-74744000D03*
X143002000Y-83244000D03*
D12*
G36*
X116853642Y-78803174D02*
G01*
X116877303Y-78806684D01*
X116900507Y-78812496D01*
X116923029Y-78820554D01*
X116944653Y-78830782D01*
X116965170Y-78843079D01*
X116984383Y-78857329D01*
X117002107Y-78873393D01*
X117018171Y-78891117D01*
X117032421Y-78910330D01*
X117044718Y-78930847D01*
X117054946Y-78952471D01*
X117063004Y-78974993D01*
X117068816Y-78998197D01*
X117072326Y-79021858D01*
X117073500Y-79045750D01*
X117073500Y-79958250D01*
X117072326Y-79982142D01*
X117068816Y-80005803D01*
X117063004Y-80029007D01*
X117054946Y-80051529D01*
X117044718Y-80073153D01*
X117032421Y-80093670D01*
X117018171Y-80112883D01*
X117002107Y-80130607D01*
X116984383Y-80146671D01*
X116965170Y-80160921D01*
X116944653Y-80173218D01*
X116923029Y-80183446D01*
X116900507Y-80191504D01*
X116877303Y-80197316D01*
X116853642Y-80200826D01*
X116829750Y-80202000D01*
X116342250Y-80202000D01*
X116318358Y-80200826D01*
X116294697Y-80197316D01*
X116271493Y-80191504D01*
X116248971Y-80183446D01*
X116227347Y-80173218D01*
X116206830Y-80160921D01*
X116187617Y-80146671D01*
X116169893Y-80130607D01*
X116153829Y-80112883D01*
X116139579Y-80093670D01*
X116127282Y-80073153D01*
X116117054Y-80051529D01*
X116108996Y-80029007D01*
X116103184Y-80005803D01*
X116099674Y-79982142D01*
X116098500Y-79958250D01*
X116098500Y-79045750D01*
X116099674Y-79021858D01*
X116103184Y-78998197D01*
X116108996Y-78974993D01*
X116117054Y-78952471D01*
X116127282Y-78930847D01*
X116139579Y-78910330D01*
X116153829Y-78891117D01*
X116169893Y-78873393D01*
X116187617Y-78857329D01*
X116206830Y-78843079D01*
X116227347Y-78830782D01*
X116248971Y-78820554D01*
X116271493Y-78812496D01*
X116294697Y-78806684D01*
X116318358Y-78803174D01*
X116342250Y-78802000D01*
X116829750Y-78802000D01*
X116853642Y-78803174D01*
X116853642Y-78803174D01*
G37*
D13*
X116586000Y-79502000D03*
D12*
G36*
X118728642Y-78803174D02*
G01*
X118752303Y-78806684D01*
X118775507Y-78812496D01*
X118798029Y-78820554D01*
X118819653Y-78830782D01*
X118840170Y-78843079D01*
X118859383Y-78857329D01*
X118877107Y-78873393D01*
X118893171Y-78891117D01*
X118907421Y-78910330D01*
X118919718Y-78930847D01*
X118929946Y-78952471D01*
X118938004Y-78974993D01*
X118943816Y-78998197D01*
X118947326Y-79021858D01*
X118948500Y-79045750D01*
X118948500Y-79958250D01*
X118947326Y-79982142D01*
X118943816Y-80005803D01*
X118938004Y-80029007D01*
X118929946Y-80051529D01*
X118919718Y-80073153D01*
X118907421Y-80093670D01*
X118893171Y-80112883D01*
X118877107Y-80130607D01*
X118859383Y-80146671D01*
X118840170Y-80160921D01*
X118819653Y-80173218D01*
X118798029Y-80183446D01*
X118775507Y-80191504D01*
X118752303Y-80197316D01*
X118728642Y-80200826D01*
X118704750Y-80202000D01*
X118217250Y-80202000D01*
X118193358Y-80200826D01*
X118169697Y-80197316D01*
X118146493Y-80191504D01*
X118123971Y-80183446D01*
X118102347Y-80173218D01*
X118081830Y-80160921D01*
X118062617Y-80146671D01*
X118044893Y-80130607D01*
X118028829Y-80112883D01*
X118014579Y-80093670D01*
X118002282Y-80073153D01*
X117992054Y-80051529D01*
X117983996Y-80029007D01*
X117978184Y-80005803D01*
X117974674Y-79982142D01*
X117973500Y-79958250D01*
X117973500Y-79045750D01*
X117974674Y-79021858D01*
X117978184Y-78998197D01*
X117983996Y-78974993D01*
X117992054Y-78952471D01*
X118002282Y-78930847D01*
X118014579Y-78910330D01*
X118028829Y-78891117D01*
X118044893Y-78873393D01*
X118062617Y-78857329D01*
X118081830Y-78843079D01*
X118102347Y-78830782D01*
X118123971Y-78820554D01*
X118146493Y-78812496D01*
X118169697Y-78806684D01*
X118193358Y-78803174D01*
X118217250Y-78802000D01*
X118704750Y-78802000D01*
X118728642Y-78803174D01*
X118728642Y-78803174D01*
G37*
D13*
X118461000Y-79502000D03*
D12*
G36*
X114900142Y-76009174D02*
G01*
X114923803Y-76012684D01*
X114947007Y-76018496D01*
X114969529Y-76026554D01*
X114991153Y-76036782D01*
X115011670Y-76049079D01*
X115030883Y-76063329D01*
X115048607Y-76079393D01*
X115064671Y-76097117D01*
X115078921Y-76116330D01*
X115091218Y-76136847D01*
X115101446Y-76158471D01*
X115109504Y-76180993D01*
X115115316Y-76204197D01*
X115118826Y-76227858D01*
X115120000Y-76251750D01*
X115120000Y-77164250D01*
X115118826Y-77188142D01*
X115115316Y-77211803D01*
X115109504Y-77235007D01*
X115101446Y-77257529D01*
X115091218Y-77279153D01*
X115078921Y-77299670D01*
X115064671Y-77318883D01*
X115048607Y-77336607D01*
X115030883Y-77352671D01*
X115011670Y-77366921D01*
X114991153Y-77379218D01*
X114969529Y-77389446D01*
X114947007Y-77397504D01*
X114923803Y-77403316D01*
X114900142Y-77406826D01*
X114876250Y-77408000D01*
X114388750Y-77408000D01*
X114364858Y-77406826D01*
X114341197Y-77403316D01*
X114317993Y-77397504D01*
X114295471Y-77389446D01*
X114273847Y-77379218D01*
X114253330Y-77366921D01*
X114234117Y-77352671D01*
X114216393Y-77336607D01*
X114200329Y-77318883D01*
X114186079Y-77299670D01*
X114173782Y-77279153D01*
X114163554Y-77257529D01*
X114155496Y-77235007D01*
X114149684Y-77211803D01*
X114146174Y-77188142D01*
X114145000Y-77164250D01*
X114145000Y-76251750D01*
X114146174Y-76227858D01*
X114149684Y-76204197D01*
X114155496Y-76180993D01*
X114163554Y-76158471D01*
X114173782Y-76136847D01*
X114186079Y-76116330D01*
X114200329Y-76097117D01*
X114216393Y-76079393D01*
X114234117Y-76063329D01*
X114253330Y-76049079D01*
X114273847Y-76036782D01*
X114295471Y-76026554D01*
X114317993Y-76018496D01*
X114341197Y-76012684D01*
X114364858Y-76009174D01*
X114388750Y-76008000D01*
X114876250Y-76008000D01*
X114900142Y-76009174D01*
X114900142Y-76009174D01*
G37*
D13*
X114632500Y-76708000D03*
D12*
G36*
X116775142Y-76009174D02*
G01*
X116798803Y-76012684D01*
X116822007Y-76018496D01*
X116844529Y-76026554D01*
X116866153Y-76036782D01*
X116886670Y-76049079D01*
X116905883Y-76063329D01*
X116923607Y-76079393D01*
X116939671Y-76097117D01*
X116953921Y-76116330D01*
X116966218Y-76136847D01*
X116976446Y-76158471D01*
X116984504Y-76180993D01*
X116990316Y-76204197D01*
X116993826Y-76227858D01*
X116995000Y-76251750D01*
X116995000Y-77164250D01*
X116993826Y-77188142D01*
X116990316Y-77211803D01*
X116984504Y-77235007D01*
X116976446Y-77257529D01*
X116966218Y-77279153D01*
X116953921Y-77299670D01*
X116939671Y-77318883D01*
X116923607Y-77336607D01*
X116905883Y-77352671D01*
X116886670Y-77366921D01*
X116866153Y-77379218D01*
X116844529Y-77389446D01*
X116822007Y-77397504D01*
X116798803Y-77403316D01*
X116775142Y-77406826D01*
X116751250Y-77408000D01*
X116263750Y-77408000D01*
X116239858Y-77406826D01*
X116216197Y-77403316D01*
X116192993Y-77397504D01*
X116170471Y-77389446D01*
X116148847Y-77379218D01*
X116128330Y-77366921D01*
X116109117Y-77352671D01*
X116091393Y-77336607D01*
X116075329Y-77318883D01*
X116061079Y-77299670D01*
X116048782Y-77279153D01*
X116038554Y-77257529D01*
X116030496Y-77235007D01*
X116024684Y-77211803D01*
X116021174Y-77188142D01*
X116020000Y-77164250D01*
X116020000Y-76251750D01*
X116021174Y-76227858D01*
X116024684Y-76204197D01*
X116030496Y-76180993D01*
X116038554Y-76158471D01*
X116048782Y-76136847D01*
X116061079Y-76116330D01*
X116075329Y-76097117D01*
X116091393Y-76079393D01*
X116109117Y-76063329D01*
X116128330Y-76049079D01*
X116148847Y-76036782D01*
X116170471Y-76026554D01*
X116192993Y-76018496D01*
X116216197Y-76012684D01*
X116239858Y-76009174D01*
X116263750Y-76008000D01*
X116751250Y-76008000D01*
X116775142Y-76009174D01*
X116775142Y-76009174D01*
G37*
D13*
X116507500Y-76708000D03*
D12*
G36*
X114821642Y-72961174D02*
G01*
X114845303Y-72964684D01*
X114868507Y-72970496D01*
X114891029Y-72978554D01*
X114912653Y-72988782D01*
X114933170Y-73001079D01*
X114952383Y-73015329D01*
X114970107Y-73031393D01*
X114986171Y-73049117D01*
X115000421Y-73068330D01*
X115012718Y-73088847D01*
X115022946Y-73110471D01*
X115031004Y-73132993D01*
X115036816Y-73156197D01*
X115040326Y-73179858D01*
X115041500Y-73203750D01*
X115041500Y-74116250D01*
X115040326Y-74140142D01*
X115036816Y-74163803D01*
X115031004Y-74187007D01*
X115022946Y-74209529D01*
X115012718Y-74231153D01*
X115000421Y-74251670D01*
X114986171Y-74270883D01*
X114970107Y-74288607D01*
X114952383Y-74304671D01*
X114933170Y-74318921D01*
X114912653Y-74331218D01*
X114891029Y-74341446D01*
X114868507Y-74349504D01*
X114845303Y-74355316D01*
X114821642Y-74358826D01*
X114797750Y-74360000D01*
X114310250Y-74360000D01*
X114286358Y-74358826D01*
X114262697Y-74355316D01*
X114239493Y-74349504D01*
X114216971Y-74341446D01*
X114195347Y-74331218D01*
X114174830Y-74318921D01*
X114155617Y-74304671D01*
X114137893Y-74288607D01*
X114121829Y-74270883D01*
X114107579Y-74251670D01*
X114095282Y-74231153D01*
X114085054Y-74209529D01*
X114076996Y-74187007D01*
X114071184Y-74163803D01*
X114067674Y-74140142D01*
X114066500Y-74116250D01*
X114066500Y-73203750D01*
X114067674Y-73179858D01*
X114071184Y-73156197D01*
X114076996Y-73132993D01*
X114085054Y-73110471D01*
X114095282Y-73088847D01*
X114107579Y-73068330D01*
X114121829Y-73049117D01*
X114137893Y-73031393D01*
X114155617Y-73015329D01*
X114174830Y-73001079D01*
X114195347Y-72988782D01*
X114216971Y-72978554D01*
X114239493Y-72970496D01*
X114262697Y-72964684D01*
X114286358Y-72961174D01*
X114310250Y-72960000D01*
X114797750Y-72960000D01*
X114821642Y-72961174D01*
X114821642Y-72961174D01*
G37*
D13*
X114554000Y-73660000D03*
D12*
G36*
X116696642Y-72961174D02*
G01*
X116720303Y-72964684D01*
X116743507Y-72970496D01*
X116766029Y-72978554D01*
X116787653Y-72988782D01*
X116808170Y-73001079D01*
X116827383Y-73015329D01*
X116845107Y-73031393D01*
X116861171Y-73049117D01*
X116875421Y-73068330D01*
X116887718Y-73088847D01*
X116897946Y-73110471D01*
X116906004Y-73132993D01*
X116911816Y-73156197D01*
X116915326Y-73179858D01*
X116916500Y-73203750D01*
X116916500Y-74116250D01*
X116915326Y-74140142D01*
X116911816Y-74163803D01*
X116906004Y-74187007D01*
X116897946Y-74209529D01*
X116887718Y-74231153D01*
X116875421Y-74251670D01*
X116861171Y-74270883D01*
X116845107Y-74288607D01*
X116827383Y-74304671D01*
X116808170Y-74318921D01*
X116787653Y-74331218D01*
X116766029Y-74341446D01*
X116743507Y-74349504D01*
X116720303Y-74355316D01*
X116696642Y-74358826D01*
X116672750Y-74360000D01*
X116185250Y-74360000D01*
X116161358Y-74358826D01*
X116137697Y-74355316D01*
X116114493Y-74349504D01*
X116091971Y-74341446D01*
X116070347Y-74331218D01*
X116049830Y-74318921D01*
X116030617Y-74304671D01*
X116012893Y-74288607D01*
X115996829Y-74270883D01*
X115982579Y-74251670D01*
X115970282Y-74231153D01*
X115960054Y-74209529D01*
X115951996Y-74187007D01*
X115946184Y-74163803D01*
X115942674Y-74140142D01*
X115941500Y-74116250D01*
X115941500Y-73203750D01*
X115942674Y-73179858D01*
X115946184Y-73156197D01*
X115951996Y-73132993D01*
X115960054Y-73110471D01*
X115970282Y-73088847D01*
X115982579Y-73068330D01*
X115996829Y-73049117D01*
X116012893Y-73031393D01*
X116030617Y-73015329D01*
X116049830Y-73001079D01*
X116070347Y-72988782D01*
X116091971Y-72978554D01*
X116114493Y-72970496D01*
X116137697Y-72964684D01*
X116161358Y-72961174D01*
X116185250Y-72960000D01*
X116672750Y-72960000D01*
X116696642Y-72961174D01*
X116696642Y-72961174D01*
G37*
D13*
X116429000Y-73660000D03*
D12*
G36*
X120760642Y-69659174D02*
G01*
X120784303Y-69662684D01*
X120807507Y-69668496D01*
X120830029Y-69676554D01*
X120851653Y-69686782D01*
X120872170Y-69699079D01*
X120891383Y-69713329D01*
X120909107Y-69729393D01*
X120925171Y-69747117D01*
X120939421Y-69766330D01*
X120951718Y-69786847D01*
X120961946Y-69808471D01*
X120970004Y-69830993D01*
X120975816Y-69854197D01*
X120979326Y-69877858D01*
X120980500Y-69901750D01*
X120980500Y-70814250D01*
X120979326Y-70838142D01*
X120975816Y-70861803D01*
X120970004Y-70885007D01*
X120961946Y-70907529D01*
X120951718Y-70929153D01*
X120939421Y-70949670D01*
X120925171Y-70968883D01*
X120909107Y-70986607D01*
X120891383Y-71002671D01*
X120872170Y-71016921D01*
X120851653Y-71029218D01*
X120830029Y-71039446D01*
X120807507Y-71047504D01*
X120784303Y-71053316D01*
X120760642Y-71056826D01*
X120736750Y-71058000D01*
X120249250Y-71058000D01*
X120225358Y-71056826D01*
X120201697Y-71053316D01*
X120178493Y-71047504D01*
X120155971Y-71039446D01*
X120134347Y-71029218D01*
X120113830Y-71016921D01*
X120094617Y-71002671D01*
X120076893Y-70986607D01*
X120060829Y-70968883D01*
X120046579Y-70949670D01*
X120034282Y-70929153D01*
X120024054Y-70907529D01*
X120015996Y-70885007D01*
X120010184Y-70861803D01*
X120006674Y-70838142D01*
X120005500Y-70814250D01*
X120005500Y-69901750D01*
X120006674Y-69877858D01*
X120010184Y-69854197D01*
X120015996Y-69830993D01*
X120024054Y-69808471D01*
X120034282Y-69786847D01*
X120046579Y-69766330D01*
X120060829Y-69747117D01*
X120076893Y-69729393D01*
X120094617Y-69713329D01*
X120113830Y-69699079D01*
X120134347Y-69686782D01*
X120155971Y-69676554D01*
X120178493Y-69668496D01*
X120201697Y-69662684D01*
X120225358Y-69659174D01*
X120249250Y-69658000D01*
X120736750Y-69658000D01*
X120760642Y-69659174D01*
X120760642Y-69659174D01*
G37*
D13*
X120493000Y-70358000D03*
D12*
G36*
X118885642Y-69659174D02*
G01*
X118909303Y-69662684D01*
X118932507Y-69668496D01*
X118955029Y-69676554D01*
X118976653Y-69686782D01*
X118997170Y-69699079D01*
X119016383Y-69713329D01*
X119034107Y-69729393D01*
X119050171Y-69747117D01*
X119064421Y-69766330D01*
X119076718Y-69786847D01*
X119086946Y-69808471D01*
X119095004Y-69830993D01*
X119100816Y-69854197D01*
X119104326Y-69877858D01*
X119105500Y-69901750D01*
X119105500Y-70814250D01*
X119104326Y-70838142D01*
X119100816Y-70861803D01*
X119095004Y-70885007D01*
X119086946Y-70907529D01*
X119076718Y-70929153D01*
X119064421Y-70949670D01*
X119050171Y-70968883D01*
X119034107Y-70986607D01*
X119016383Y-71002671D01*
X118997170Y-71016921D01*
X118976653Y-71029218D01*
X118955029Y-71039446D01*
X118932507Y-71047504D01*
X118909303Y-71053316D01*
X118885642Y-71056826D01*
X118861750Y-71058000D01*
X118374250Y-71058000D01*
X118350358Y-71056826D01*
X118326697Y-71053316D01*
X118303493Y-71047504D01*
X118280971Y-71039446D01*
X118259347Y-71029218D01*
X118238830Y-71016921D01*
X118219617Y-71002671D01*
X118201893Y-70986607D01*
X118185829Y-70968883D01*
X118171579Y-70949670D01*
X118159282Y-70929153D01*
X118149054Y-70907529D01*
X118140996Y-70885007D01*
X118135184Y-70861803D01*
X118131674Y-70838142D01*
X118130500Y-70814250D01*
X118130500Y-69901750D01*
X118131674Y-69877858D01*
X118135184Y-69854197D01*
X118140996Y-69830993D01*
X118149054Y-69808471D01*
X118159282Y-69786847D01*
X118171579Y-69766330D01*
X118185829Y-69747117D01*
X118201893Y-69729393D01*
X118219617Y-69713329D01*
X118238830Y-69699079D01*
X118259347Y-69686782D01*
X118280971Y-69676554D01*
X118303493Y-69668496D01*
X118326697Y-69662684D01*
X118350358Y-69659174D01*
X118374250Y-69658000D01*
X118861750Y-69658000D01*
X118885642Y-69659174D01*
X118885642Y-69659174D01*
G37*
D13*
X118618000Y-70358000D03*
D12*
G36*
X114900142Y-69659174D02*
G01*
X114923803Y-69662684D01*
X114947007Y-69668496D01*
X114969529Y-69676554D01*
X114991153Y-69686782D01*
X115011670Y-69699079D01*
X115030883Y-69713329D01*
X115048607Y-69729393D01*
X115064671Y-69747117D01*
X115078921Y-69766330D01*
X115091218Y-69786847D01*
X115101446Y-69808471D01*
X115109504Y-69830993D01*
X115115316Y-69854197D01*
X115118826Y-69877858D01*
X115120000Y-69901750D01*
X115120000Y-70814250D01*
X115118826Y-70838142D01*
X115115316Y-70861803D01*
X115109504Y-70885007D01*
X115101446Y-70907529D01*
X115091218Y-70929153D01*
X115078921Y-70949670D01*
X115064671Y-70968883D01*
X115048607Y-70986607D01*
X115030883Y-71002671D01*
X115011670Y-71016921D01*
X114991153Y-71029218D01*
X114969529Y-71039446D01*
X114947007Y-71047504D01*
X114923803Y-71053316D01*
X114900142Y-71056826D01*
X114876250Y-71058000D01*
X114388750Y-71058000D01*
X114364858Y-71056826D01*
X114341197Y-71053316D01*
X114317993Y-71047504D01*
X114295471Y-71039446D01*
X114273847Y-71029218D01*
X114253330Y-71016921D01*
X114234117Y-71002671D01*
X114216393Y-70986607D01*
X114200329Y-70968883D01*
X114186079Y-70949670D01*
X114173782Y-70929153D01*
X114163554Y-70907529D01*
X114155496Y-70885007D01*
X114149684Y-70861803D01*
X114146174Y-70838142D01*
X114145000Y-70814250D01*
X114145000Y-69901750D01*
X114146174Y-69877858D01*
X114149684Y-69854197D01*
X114155496Y-69830993D01*
X114163554Y-69808471D01*
X114173782Y-69786847D01*
X114186079Y-69766330D01*
X114200329Y-69747117D01*
X114216393Y-69729393D01*
X114234117Y-69713329D01*
X114253330Y-69699079D01*
X114273847Y-69686782D01*
X114295471Y-69676554D01*
X114317993Y-69668496D01*
X114341197Y-69662684D01*
X114364858Y-69659174D01*
X114388750Y-69658000D01*
X114876250Y-69658000D01*
X114900142Y-69659174D01*
X114900142Y-69659174D01*
G37*
D13*
X114632500Y-70358000D03*
D12*
G36*
X116775142Y-69659174D02*
G01*
X116798803Y-69662684D01*
X116822007Y-69668496D01*
X116844529Y-69676554D01*
X116866153Y-69686782D01*
X116886670Y-69699079D01*
X116905883Y-69713329D01*
X116923607Y-69729393D01*
X116939671Y-69747117D01*
X116953921Y-69766330D01*
X116966218Y-69786847D01*
X116976446Y-69808471D01*
X116984504Y-69830993D01*
X116990316Y-69854197D01*
X116993826Y-69877858D01*
X116995000Y-69901750D01*
X116995000Y-70814250D01*
X116993826Y-70838142D01*
X116990316Y-70861803D01*
X116984504Y-70885007D01*
X116976446Y-70907529D01*
X116966218Y-70929153D01*
X116953921Y-70949670D01*
X116939671Y-70968883D01*
X116923607Y-70986607D01*
X116905883Y-71002671D01*
X116886670Y-71016921D01*
X116866153Y-71029218D01*
X116844529Y-71039446D01*
X116822007Y-71047504D01*
X116798803Y-71053316D01*
X116775142Y-71056826D01*
X116751250Y-71058000D01*
X116263750Y-71058000D01*
X116239858Y-71056826D01*
X116216197Y-71053316D01*
X116192993Y-71047504D01*
X116170471Y-71039446D01*
X116148847Y-71029218D01*
X116128330Y-71016921D01*
X116109117Y-71002671D01*
X116091393Y-70986607D01*
X116075329Y-70968883D01*
X116061079Y-70949670D01*
X116048782Y-70929153D01*
X116038554Y-70907529D01*
X116030496Y-70885007D01*
X116024684Y-70861803D01*
X116021174Y-70838142D01*
X116020000Y-70814250D01*
X116020000Y-69901750D01*
X116021174Y-69877858D01*
X116024684Y-69854197D01*
X116030496Y-69830993D01*
X116038554Y-69808471D01*
X116048782Y-69786847D01*
X116061079Y-69766330D01*
X116075329Y-69747117D01*
X116091393Y-69729393D01*
X116109117Y-69713329D01*
X116128330Y-69699079D01*
X116148847Y-69686782D01*
X116170471Y-69676554D01*
X116192993Y-69668496D01*
X116216197Y-69662684D01*
X116239858Y-69659174D01*
X116263750Y-69658000D01*
X116751250Y-69658000D01*
X116775142Y-69659174D01*
X116775142Y-69659174D01*
G37*
D13*
X116507500Y-70358000D03*
D12*
G36*
X116932142Y-62039174D02*
G01*
X116955803Y-62042684D01*
X116979007Y-62048496D01*
X117001529Y-62056554D01*
X117023153Y-62066782D01*
X117043670Y-62079079D01*
X117062883Y-62093329D01*
X117080607Y-62109393D01*
X117096671Y-62127117D01*
X117110921Y-62146330D01*
X117123218Y-62166847D01*
X117133446Y-62188471D01*
X117141504Y-62210993D01*
X117147316Y-62234197D01*
X117150826Y-62257858D01*
X117152000Y-62281750D01*
X117152000Y-63194250D01*
X117150826Y-63218142D01*
X117147316Y-63241803D01*
X117141504Y-63265007D01*
X117133446Y-63287529D01*
X117123218Y-63309153D01*
X117110921Y-63329670D01*
X117096671Y-63348883D01*
X117080607Y-63366607D01*
X117062883Y-63382671D01*
X117043670Y-63396921D01*
X117023153Y-63409218D01*
X117001529Y-63419446D01*
X116979007Y-63427504D01*
X116955803Y-63433316D01*
X116932142Y-63436826D01*
X116908250Y-63438000D01*
X116420750Y-63438000D01*
X116396858Y-63436826D01*
X116373197Y-63433316D01*
X116349993Y-63427504D01*
X116327471Y-63419446D01*
X116305847Y-63409218D01*
X116285330Y-63396921D01*
X116266117Y-63382671D01*
X116248393Y-63366607D01*
X116232329Y-63348883D01*
X116218079Y-63329670D01*
X116205782Y-63309153D01*
X116195554Y-63287529D01*
X116187496Y-63265007D01*
X116181684Y-63241803D01*
X116178174Y-63218142D01*
X116177000Y-63194250D01*
X116177000Y-62281750D01*
X116178174Y-62257858D01*
X116181684Y-62234197D01*
X116187496Y-62210993D01*
X116195554Y-62188471D01*
X116205782Y-62166847D01*
X116218079Y-62146330D01*
X116232329Y-62127117D01*
X116248393Y-62109393D01*
X116266117Y-62093329D01*
X116285330Y-62079079D01*
X116305847Y-62066782D01*
X116327471Y-62056554D01*
X116349993Y-62048496D01*
X116373197Y-62042684D01*
X116396858Y-62039174D01*
X116420750Y-62038000D01*
X116908250Y-62038000D01*
X116932142Y-62039174D01*
X116932142Y-62039174D01*
G37*
D13*
X116664500Y-62738000D03*
D12*
G36*
X118807142Y-62039174D02*
G01*
X118830803Y-62042684D01*
X118854007Y-62048496D01*
X118876529Y-62056554D01*
X118898153Y-62066782D01*
X118918670Y-62079079D01*
X118937883Y-62093329D01*
X118955607Y-62109393D01*
X118971671Y-62127117D01*
X118985921Y-62146330D01*
X118998218Y-62166847D01*
X119008446Y-62188471D01*
X119016504Y-62210993D01*
X119022316Y-62234197D01*
X119025826Y-62257858D01*
X119027000Y-62281750D01*
X119027000Y-63194250D01*
X119025826Y-63218142D01*
X119022316Y-63241803D01*
X119016504Y-63265007D01*
X119008446Y-63287529D01*
X118998218Y-63309153D01*
X118985921Y-63329670D01*
X118971671Y-63348883D01*
X118955607Y-63366607D01*
X118937883Y-63382671D01*
X118918670Y-63396921D01*
X118898153Y-63409218D01*
X118876529Y-63419446D01*
X118854007Y-63427504D01*
X118830803Y-63433316D01*
X118807142Y-63436826D01*
X118783250Y-63438000D01*
X118295750Y-63438000D01*
X118271858Y-63436826D01*
X118248197Y-63433316D01*
X118224993Y-63427504D01*
X118202471Y-63419446D01*
X118180847Y-63409218D01*
X118160330Y-63396921D01*
X118141117Y-63382671D01*
X118123393Y-63366607D01*
X118107329Y-63348883D01*
X118093079Y-63329670D01*
X118080782Y-63309153D01*
X118070554Y-63287529D01*
X118062496Y-63265007D01*
X118056684Y-63241803D01*
X118053174Y-63218142D01*
X118052000Y-63194250D01*
X118052000Y-62281750D01*
X118053174Y-62257858D01*
X118056684Y-62234197D01*
X118062496Y-62210993D01*
X118070554Y-62188471D01*
X118080782Y-62166847D01*
X118093079Y-62146330D01*
X118107329Y-62127117D01*
X118123393Y-62109393D01*
X118141117Y-62093329D01*
X118160330Y-62079079D01*
X118180847Y-62066782D01*
X118202471Y-62056554D01*
X118224993Y-62048496D01*
X118248197Y-62042684D01*
X118271858Y-62039174D01*
X118295750Y-62038000D01*
X118783250Y-62038000D01*
X118807142Y-62039174D01*
X118807142Y-62039174D01*
G37*
D13*
X118539500Y-62738000D03*
D12*
G36*
X127734142Y-67682674D02*
G01*
X127757803Y-67686184D01*
X127781007Y-67691996D01*
X127803529Y-67700054D01*
X127825153Y-67710282D01*
X127845670Y-67722579D01*
X127864883Y-67736829D01*
X127882607Y-67752893D01*
X127898671Y-67770617D01*
X127912921Y-67789830D01*
X127925218Y-67810347D01*
X127935446Y-67831971D01*
X127943504Y-67854493D01*
X127949316Y-67877697D01*
X127952826Y-67901358D01*
X127954000Y-67925250D01*
X127954000Y-68412750D01*
X127952826Y-68436642D01*
X127949316Y-68460303D01*
X127943504Y-68483507D01*
X127935446Y-68506029D01*
X127925218Y-68527653D01*
X127912921Y-68548170D01*
X127898671Y-68567383D01*
X127882607Y-68585107D01*
X127864883Y-68601171D01*
X127845670Y-68615421D01*
X127825153Y-68627718D01*
X127803529Y-68637946D01*
X127781007Y-68646004D01*
X127757803Y-68651816D01*
X127734142Y-68655326D01*
X127710250Y-68656500D01*
X126797750Y-68656500D01*
X126773858Y-68655326D01*
X126750197Y-68651816D01*
X126726993Y-68646004D01*
X126704471Y-68637946D01*
X126682847Y-68627718D01*
X126662330Y-68615421D01*
X126643117Y-68601171D01*
X126625393Y-68585107D01*
X126609329Y-68567383D01*
X126595079Y-68548170D01*
X126582782Y-68527653D01*
X126572554Y-68506029D01*
X126564496Y-68483507D01*
X126558684Y-68460303D01*
X126555174Y-68436642D01*
X126554000Y-68412750D01*
X126554000Y-67925250D01*
X126555174Y-67901358D01*
X126558684Y-67877697D01*
X126564496Y-67854493D01*
X126572554Y-67831971D01*
X126582782Y-67810347D01*
X126595079Y-67789830D01*
X126609329Y-67770617D01*
X126625393Y-67752893D01*
X126643117Y-67736829D01*
X126662330Y-67722579D01*
X126682847Y-67710282D01*
X126704471Y-67700054D01*
X126726993Y-67691996D01*
X126750197Y-67686184D01*
X126773858Y-67682674D01*
X126797750Y-67681500D01*
X127710250Y-67681500D01*
X127734142Y-67682674D01*
X127734142Y-67682674D01*
G37*
D13*
X127254000Y-68169000D03*
D12*
G36*
X127734142Y-65807674D02*
G01*
X127757803Y-65811184D01*
X127781007Y-65816996D01*
X127803529Y-65825054D01*
X127825153Y-65835282D01*
X127845670Y-65847579D01*
X127864883Y-65861829D01*
X127882607Y-65877893D01*
X127898671Y-65895617D01*
X127912921Y-65914830D01*
X127925218Y-65935347D01*
X127935446Y-65956971D01*
X127943504Y-65979493D01*
X127949316Y-66002697D01*
X127952826Y-66026358D01*
X127954000Y-66050250D01*
X127954000Y-66537750D01*
X127952826Y-66561642D01*
X127949316Y-66585303D01*
X127943504Y-66608507D01*
X127935446Y-66631029D01*
X127925218Y-66652653D01*
X127912921Y-66673170D01*
X127898671Y-66692383D01*
X127882607Y-66710107D01*
X127864883Y-66726171D01*
X127845670Y-66740421D01*
X127825153Y-66752718D01*
X127803529Y-66762946D01*
X127781007Y-66771004D01*
X127757803Y-66776816D01*
X127734142Y-66780326D01*
X127710250Y-66781500D01*
X126797750Y-66781500D01*
X126773858Y-66780326D01*
X126750197Y-66776816D01*
X126726993Y-66771004D01*
X126704471Y-66762946D01*
X126682847Y-66752718D01*
X126662330Y-66740421D01*
X126643117Y-66726171D01*
X126625393Y-66710107D01*
X126609329Y-66692383D01*
X126595079Y-66673170D01*
X126582782Y-66652653D01*
X126572554Y-66631029D01*
X126564496Y-66608507D01*
X126558684Y-66585303D01*
X126555174Y-66561642D01*
X126554000Y-66537750D01*
X126554000Y-66050250D01*
X126555174Y-66026358D01*
X126558684Y-66002697D01*
X126564496Y-65979493D01*
X126572554Y-65956971D01*
X126582782Y-65935347D01*
X126595079Y-65914830D01*
X126609329Y-65895617D01*
X126625393Y-65877893D01*
X126643117Y-65861829D01*
X126662330Y-65847579D01*
X126682847Y-65835282D01*
X126704471Y-65825054D01*
X126726993Y-65816996D01*
X126750197Y-65811184D01*
X126773858Y-65807674D01*
X126797750Y-65806500D01*
X127710250Y-65806500D01*
X127734142Y-65807674D01*
X127734142Y-65807674D01*
G37*
D13*
X127254000Y-66294000D03*
D12*
G36*
X134846142Y-68444674D02*
G01*
X134869803Y-68448184D01*
X134893007Y-68453996D01*
X134915529Y-68462054D01*
X134937153Y-68472282D01*
X134957670Y-68484579D01*
X134976883Y-68498829D01*
X134994607Y-68514893D01*
X135010671Y-68532617D01*
X135024921Y-68551830D01*
X135037218Y-68572347D01*
X135047446Y-68593971D01*
X135055504Y-68616493D01*
X135061316Y-68639697D01*
X135064826Y-68663358D01*
X135066000Y-68687250D01*
X135066000Y-69174750D01*
X135064826Y-69198642D01*
X135061316Y-69222303D01*
X135055504Y-69245507D01*
X135047446Y-69268029D01*
X135037218Y-69289653D01*
X135024921Y-69310170D01*
X135010671Y-69329383D01*
X134994607Y-69347107D01*
X134976883Y-69363171D01*
X134957670Y-69377421D01*
X134937153Y-69389718D01*
X134915529Y-69399946D01*
X134893007Y-69408004D01*
X134869803Y-69413816D01*
X134846142Y-69417326D01*
X134822250Y-69418500D01*
X133909750Y-69418500D01*
X133885858Y-69417326D01*
X133862197Y-69413816D01*
X133838993Y-69408004D01*
X133816471Y-69399946D01*
X133794847Y-69389718D01*
X133774330Y-69377421D01*
X133755117Y-69363171D01*
X133737393Y-69347107D01*
X133721329Y-69329383D01*
X133707079Y-69310170D01*
X133694782Y-69289653D01*
X133684554Y-69268029D01*
X133676496Y-69245507D01*
X133670684Y-69222303D01*
X133667174Y-69198642D01*
X133666000Y-69174750D01*
X133666000Y-68687250D01*
X133667174Y-68663358D01*
X133670684Y-68639697D01*
X133676496Y-68616493D01*
X133684554Y-68593971D01*
X133694782Y-68572347D01*
X133707079Y-68551830D01*
X133721329Y-68532617D01*
X133737393Y-68514893D01*
X133755117Y-68498829D01*
X133774330Y-68484579D01*
X133794847Y-68472282D01*
X133816471Y-68462054D01*
X133838993Y-68453996D01*
X133862197Y-68448184D01*
X133885858Y-68444674D01*
X133909750Y-68443500D01*
X134822250Y-68443500D01*
X134846142Y-68444674D01*
X134846142Y-68444674D01*
G37*
D13*
X134366000Y-68931000D03*
D12*
G36*
X134846142Y-66569674D02*
G01*
X134869803Y-66573184D01*
X134893007Y-66578996D01*
X134915529Y-66587054D01*
X134937153Y-66597282D01*
X134957670Y-66609579D01*
X134976883Y-66623829D01*
X134994607Y-66639893D01*
X135010671Y-66657617D01*
X135024921Y-66676830D01*
X135037218Y-66697347D01*
X135047446Y-66718971D01*
X135055504Y-66741493D01*
X135061316Y-66764697D01*
X135064826Y-66788358D01*
X135066000Y-66812250D01*
X135066000Y-67299750D01*
X135064826Y-67323642D01*
X135061316Y-67347303D01*
X135055504Y-67370507D01*
X135047446Y-67393029D01*
X135037218Y-67414653D01*
X135024921Y-67435170D01*
X135010671Y-67454383D01*
X134994607Y-67472107D01*
X134976883Y-67488171D01*
X134957670Y-67502421D01*
X134937153Y-67514718D01*
X134915529Y-67524946D01*
X134893007Y-67533004D01*
X134869803Y-67538816D01*
X134846142Y-67542326D01*
X134822250Y-67543500D01*
X133909750Y-67543500D01*
X133885858Y-67542326D01*
X133862197Y-67538816D01*
X133838993Y-67533004D01*
X133816471Y-67524946D01*
X133794847Y-67514718D01*
X133774330Y-67502421D01*
X133755117Y-67488171D01*
X133737393Y-67472107D01*
X133721329Y-67454383D01*
X133707079Y-67435170D01*
X133694782Y-67414653D01*
X133684554Y-67393029D01*
X133676496Y-67370507D01*
X133670684Y-67347303D01*
X133667174Y-67323642D01*
X133666000Y-67299750D01*
X133666000Y-66812250D01*
X133667174Y-66788358D01*
X133670684Y-66764697D01*
X133676496Y-66741493D01*
X133684554Y-66718971D01*
X133694782Y-66697347D01*
X133707079Y-66676830D01*
X133721329Y-66657617D01*
X133737393Y-66639893D01*
X133755117Y-66623829D01*
X133774330Y-66609579D01*
X133794847Y-66597282D01*
X133816471Y-66587054D01*
X133838993Y-66578996D01*
X133862197Y-66573184D01*
X133885858Y-66569674D01*
X133909750Y-66568500D01*
X134822250Y-66568500D01*
X134846142Y-66569674D01*
X134846142Y-66569674D01*
G37*
D13*
X134366000Y-67056000D03*
D17*
X129605999Y-76624000D03*
X130556000Y-76624000D03*
X131506001Y-76624000D03*
X131506001Y-78824000D03*
X130556000Y-78824000D03*
X129605999Y-78824000D03*
M02*
