M48
; DRILL file {KiCad (5.1.4)-1} date 21-Oct-19 16:42:37
; FORMAT={3:3/ absolute / metric / suppress leading zeros}
; #@! TF.CreationDate,2019-10-21T16:42:37-04:00
; #@! TF.GenerationSoftware,Kicad,Pcbnew,(5.1.4)-1
FMAT,2
METRIC,TZ
T1C0.400
T2C0.700
T3C0.890
T4C1.000
T5C1.020
T6C1.300
T7C1.570
T8C3.200
T9C1.700
T10C3.250
%
G90
G05
T1
X156384Y-148374
X169639Y-141619
T2
X140356Y-122936
X140356Y-128016
X89408Y-132080
X89408Y-137160
X76454Y-132080
X76454Y-137160
X132856Y-122936
X132856Y-128016
X53848Y-133096
X53848Y-138176
X122856Y-122936
X122856Y-128016
X130356Y-122936
X130356Y-128016
X56388Y-133096
X56388Y-138176
X115062Y-132080
X115062Y-137160
X125356Y-122936
X125356Y-128016
X64008Y-133096
X64008Y-138176
X142856Y-122936
X142856Y-128016
X145356Y-122936
X145356Y-128016
X66548Y-133096
X66548Y-138176
X122428Y-132080
X122428Y-137160
X117856Y-122936
X117856Y-128016
X61468Y-133096
X61468Y-138176
X120356Y-122936
X120356Y-128016
X71628Y-133096
X71628Y-138176
X137856Y-122936
X137856Y-128016
X69088Y-133096
X69088Y-138176
X102362Y-132080
X102362Y-137160
X127856Y-122936
X127856Y-128016
X83820Y-132080
X83820Y-137160
X58928Y-133096
X58928Y-138176
X140716Y-86360
X140716Y-91440
X135356Y-122936
X135356Y-128016
X96774Y-132080
X96774Y-137160
X109982Y-132080
X109982Y-137160
T3
X59408Y-146810
X60428Y-148590
X61448Y-146810
X62468Y-148590
X63488Y-146810
X64508Y-148590
X65528Y-146810
X66548Y-148590
X162640Y-147064
X163660Y-148844
X164680Y-147064
X165700Y-148844
X166720Y-147064
X167740Y-148844
X168760Y-147064
X169780Y-148844
X187640Y-147064
X188660Y-148844
X189680Y-147064
X190700Y-148844
X191720Y-147064
X192740Y-148844
X193760Y-147064
X194780Y-148844
X212640Y-147064
X213660Y-148844
X214680Y-147064
X215700Y-148844
X216720Y-147064
X217740Y-148844
X218760Y-147064
X219780Y-148844
X137640Y-147064
X138660Y-148844
X139680Y-147064
X140700Y-148844
X141720Y-147064
X142740Y-148844
X143760Y-147064
X144780Y-148844
T4
X242062Y-90678
X177262Y-132588
X177262Y-135128
X177262Y-137668
X242062Y-108458
X172762Y-132588
X172762Y-135128
X172762Y-137668
X159262Y-132588
X159262Y-135128
X159262Y-137668
X163762Y-132588
X163762Y-135128
X163762Y-137668
X150262Y-132588
X150262Y-135128
X150262Y-137668
X173482Y-108458
X145762Y-132588
X145762Y-135128
X145762Y-137668
X173482Y-83058
X132262Y-132588
X132262Y-135128
X132262Y-137668
X173482Y-95758
X136762Y-132588
X136762Y-135128
X136762Y-137668
X57658Y-83058
X57658Y-85598
X60198Y-83058
X60198Y-85598
X62738Y-83058
X62738Y-85598
X65278Y-83058
X65278Y-85598
X67818Y-83058
X67818Y-85598
X70358Y-83058
X70358Y-85598
X72898Y-83058
X72898Y-85598
X75438Y-83058
X75438Y-85598
X77978Y-83058
X77978Y-85598
X80518Y-83058
X80518Y-85598
X83058Y-83058
X83058Y-85598
X85598Y-83058
X85598Y-85598
X88138Y-83058
X88138Y-85598
X90678Y-83058
X90678Y-85598
X93218Y-83058
X93218Y-85598
X95758Y-83058
X95758Y-85598
X141262Y-132588
X141262Y-135128
X141262Y-137668
X140716Y-83058
X143256Y-83058
X145796Y-83058
X148336Y-83058
X168262Y-132588
X168262Y-135128
X168262Y-137668
X154762Y-132588
X154762Y-135128
X154762Y-137668
X127762Y-132588
X127762Y-135128
X127762Y-137668
T5
X55626Y-110998
X55626Y-126238
X58166Y-110998
X58166Y-126238
X60706Y-110998
X60706Y-126238
X63246Y-110998
X63246Y-126238
X65786Y-110998
X65786Y-126238
X68326Y-110998
X68326Y-126238
X70866Y-110998
X70866Y-126238
X73406Y-110998
X73406Y-126238
X75946Y-110998
X75946Y-126238
X78486Y-110998
X78486Y-126238
X81026Y-110998
X81026Y-126238
X83566Y-110998
X83566Y-126238
X86106Y-110998
X86106Y-126238
X88646Y-110998
X88646Y-126238
X91186Y-110998
X91186Y-126238
X93726Y-110998
X93726Y-126238
X96266Y-110998
X96266Y-126238
X98806Y-110998
X98806Y-126238
X101346Y-110998
X101346Y-126238
X103886Y-110998
X103886Y-126238
X106426Y-110998
X106426Y-126238
X108966Y-110998
X108966Y-126238
X111506Y-110998
X111506Y-126238
X114046Y-110998
X114046Y-126238
T6
X268224Y-96012
X268224Y-101012
T7
X54858Y-147700
X71118Y-147700
X158090Y-147954
X174350Y-147954
X183090Y-147954
X199350Y-147954
X208090Y-147954
X224350Y-147954
X133090Y-147954
X149350Y-147954
T8
X268478Y-149098
X108458Y-86106
X268478Y-86614
X60452Y-118618
T9
X119264Y-143062
X119264Y-150062
X80264Y-143062
X80264Y-150062
X93264Y-143062
X93264Y-150062
X106264Y-143062
X106264Y-150062
T10
X56638Y-151130
X69338Y-151130
X159870Y-151384
X172570Y-151384
X184870Y-151384
X197570Y-151384
X209870Y-151384
X222570Y-151384
X134870Y-151384
X147570Y-151384
T0
M30
