G04 #@! TF.GenerationSoftware,KiCad,Pcbnew,(5.1.4)-1*
G04 #@! TF.CreationDate,2019-10-21T16:42:35-04:00*
G04 #@! TF.ProjectId,relay_ctrl_lab,72656c61-795f-4637-9472-6c5f6c61622e,rev?*
G04 #@! TF.SameCoordinates,Original*
G04 #@! TF.FileFunction,Soldermask,Top*
G04 #@! TF.FilePolarity,Negative*
%FSLAX46Y46*%
G04 Gerber Fmt 4.6, Leading zero omitted, Abs format (unit mm)*
G04 Created by KiCad (PCBNEW (5.1.4)-1) date 2019-10-21 16:42:35*
%MOMM*%
%LPD*%
G04 APERTURE LIST*
%ADD10O,2.100000X2.100000*%
%ADD11R,2.100000X2.100000*%
%ADD12O,1.800000X1.800000*%
%ADD13C,1.800000*%
%ADD14C,2.400000*%
%ADD15C,3.650000*%
%ADD16C,1.900000*%
%ADD17R,1.900000X1.900000*%
%ADD18C,2.100000*%
%ADD19R,3.200000X2.600000*%
%ADD20R,3.000000X3.200000*%
%ADD21R,3.200000X2.400000*%
%ADD22C,6.000000*%
%ADD23C,1.930000*%
%ADD24C,2.900000*%
%ADD25R,2.900000X2.900000*%
G04 APERTURE END LIST*
D10*
X172762000Y-137668000D03*
X172762000Y-135128000D03*
D11*
X172762000Y-132588000D03*
D10*
X168262000Y-137668000D03*
X168262000Y-135128000D03*
D11*
X168262000Y-132588000D03*
D10*
X177262000Y-137668000D03*
X177262000Y-135128000D03*
D11*
X177262000Y-132588000D03*
D10*
X154762000Y-137668000D03*
X154762000Y-135128000D03*
D11*
X154762000Y-132588000D03*
D10*
X159262000Y-137668000D03*
X159262000Y-135128000D03*
D11*
X159262000Y-132588000D03*
D10*
X163762000Y-137668000D03*
X163762000Y-135128000D03*
D11*
X163762000Y-132588000D03*
D10*
X141262000Y-137668000D03*
X141262000Y-135128000D03*
D11*
X141262000Y-132588000D03*
D10*
X145762000Y-137668000D03*
X145762000Y-135128000D03*
D11*
X145762000Y-132588000D03*
D10*
X150262000Y-137668000D03*
X150262000Y-135128000D03*
D11*
X150262000Y-132588000D03*
D10*
X127762000Y-137668000D03*
X127762000Y-135128000D03*
D11*
X127762000Y-132588000D03*
D10*
X132262000Y-137668000D03*
X132262000Y-135128000D03*
D11*
X132262000Y-132588000D03*
D10*
X136762000Y-137668000D03*
X136762000Y-135128000D03*
D11*
X136762000Y-132588000D03*
D12*
X140356000Y-122936000D03*
D13*
X140356000Y-128016000D03*
D12*
X142856000Y-122936000D03*
D13*
X142856000Y-128016000D03*
D12*
X145356000Y-122936000D03*
D13*
X145356000Y-128016000D03*
D12*
X132856000Y-122936000D03*
D13*
X132856000Y-128016000D03*
D12*
X135356000Y-122936000D03*
D13*
X135356000Y-128016000D03*
D12*
X137856000Y-122936000D03*
D13*
X137856000Y-128016000D03*
D12*
X125356000Y-122936000D03*
D13*
X125356000Y-128016000D03*
D12*
X127856000Y-122936000D03*
D13*
X127856000Y-128016000D03*
D12*
X130356000Y-122936000D03*
D13*
X130356000Y-128016000D03*
D12*
X117856000Y-122936000D03*
D13*
X117856000Y-128016000D03*
D12*
X120356000Y-122936000D03*
D13*
X120356000Y-128016000D03*
D12*
X122856000Y-122936000D03*
D13*
X122856000Y-128016000D03*
D14*
X149350000Y-147954000D03*
X133090000Y-147954000D03*
D15*
X134870000Y-151384000D03*
X147570000Y-151384000D03*
D16*
X137640000Y-147064000D03*
X139680000Y-147064000D03*
X141720000Y-147064000D03*
X143760000Y-147064000D03*
X138660000Y-148844000D03*
X140700000Y-148844000D03*
X142740000Y-148844000D03*
D17*
X144780000Y-148844000D03*
D14*
X174350000Y-147954000D03*
X158090000Y-147954000D03*
D15*
X159870000Y-151384000D03*
X172570000Y-151384000D03*
D16*
X162640000Y-147064000D03*
X164680000Y-147064000D03*
X166720000Y-147064000D03*
X168760000Y-147064000D03*
X163660000Y-148844000D03*
X165700000Y-148844000D03*
X167740000Y-148844000D03*
D17*
X169780000Y-148844000D03*
D14*
X199350000Y-147954000D03*
X183090000Y-147954000D03*
D15*
X184870000Y-151384000D03*
X197570000Y-151384000D03*
D16*
X187640000Y-147064000D03*
X189680000Y-147064000D03*
X191720000Y-147064000D03*
X193760000Y-147064000D03*
X188660000Y-148844000D03*
X190700000Y-148844000D03*
X192740000Y-148844000D03*
D17*
X194780000Y-148844000D03*
D14*
X224350000Y-147954000D03*
X208090000Y-147954000D03*
D15*
X209870000Y-151384000D03*
X222570000Y-151384000D03*
D16*
X212640000Y-147064000D03*
X214680000Y-147064000D03*
X216720000Y-147064000D03*
X218760000Y-147064000D03*
X213660000Y-148844000D03*
X215700000Y-148844000D03*
X217740000Y-148844000D03*
D17*
X219780000Y-148844000D03*
D18*
X80264000Y-143062000D03*
X80264000Y-150062000D03*
D19*
X83964000Y-151162000D03*
X76564000Y-149262000D03*
D20*
X83864000Y-141762000D03*
D21*
X83964000Y-153962000D03*
D18*
X106264000Y-143062000D03*
X106264000Y-150062000D03*
D19*
X109964000Y-151162000D03*
X102564000Y-149262000D03*
D20*
X109864000Y-141762000D03*
D21*
X109964000Y-153962000D03*
D18*
X93264000Y-143062000D03*
X93264000Y-150062000D03*
D19*
X96964000Y-151162000D03*
X89564000Y-149262000D03*
D20*
X96864000Y-141762000D03*
D21*
X96964000Y-153962000D03*
D18*
X119264000Y-143062000D03*
X119264000Y-150062000D03*
D19*
X122964000Y-151162000D03*
X115564000Y-149262000D03*
D20*
X122864000Y-141762000D03*
D21*
X122964000Y-153962000D03*
D12*
X89408000Y-132080000D03*
D13*
X89408000Y-137160000D03*
D12*
X115062000Y-132080000D03*
D13*
X115062000Y-137160000D03*
D12*
X109982000Y-132080000D03*
D13*
X109982000Y-137160000D03*
D12*
X122428000Y-132080000D03*
D13*
X122428000Y-137160000D03*
D12*
X96774000Y-132080000D03*
D13*
X96774000Y-137160000D03*
D12*
X102362000Y-132080000D03*
D13*
X102362000Y-137160000D03*
D12*
X83820000Y-132080000D03*
D13*
X83820000Y-137160000D03*
D22*
X60452000Y-118618000D03*
X268478000Y-149098000D03*
X268478000Y-86614000D03*
X108458000Y-86106000D03*
D23*
X98806000Y-110998000D03*
X101346000Y-110998000D03*
X103886000Y-110998000D03*
X106426000Y-110998000D03*
X108966000Y-110998000D03*
X111506000Y-110998000D03*
X114046000Y-110998000D03*
X96266000Y-110998000D03*
X93726000Y-110998000D03*
X91186000Y-110998000D03*
X114046000Y-126238000D03*
X111506000Y-126238000D03*
X108966000Y-126238000D03*
X106426000Y-126238000D03*
X103886000Y-126238000D03*
X101346000Y-126238000D03*
X98806000Y-126238000D03*
X96266000Y-126238000D03*
X55626000Y-110998000D03*
X58166000Y-110998000D03*
X60706000Y-110998000D03*
X63246000Y-110998000D03*
X65786000Y-110998000D03*
X68326000Y-110998000D03*
X70866000Y-110998000D03*
X73406000Y-110998000D03*
X75946000Y-110998000D03*
X78486000Y-110998000D03*
X81026000Y-110998000D03*
X83566000Y-110998000D03*
X86106000Y-110998000D03*
X88646000Y-110998000D03*
X93726000Y-126238000D03*
X91186000Y-126238000D03*
X88646000Y-126238000D03*
X86106000Y-126238000D03*
X83566000Y-126238000D03*
X81026000Y-126238000D03*
X78486000Y-126238000D03*
X75946000Y-126238000D03*
X73406000Y-126238000D03*
X70866000Y-126238000D03*
X68326000Y-126238000D03*
X65786000Y-126238000D03*
X63246000Y-126238000D03*
X60706000Y-126238000D03*
X58166000Y-126238000D03*
X55626000Y-126238000D03*
D10*
X57658000Y-85598000D03*
X57658000Y-83058000D03*
X60198000Y-85598000D03*
X60198000Y-83058000D03*
X62738000Y-85598000D03*
X62738000Y-83058000D03*
X65278000Y-85598000D03*
X65278000Y-83058000D03*
X67818000Y-85598000D03*
X67818000Y-83058000D03*
X70358000Y-85598000D03*
X70358000Y-83058000D03*
X72898000Y-85598000D03*
X72898000Y-83058000D03*
X75438000Y-85598000D03*
X75438000Y-83058000D03*
X77978000Y-85598000D03*
X77978000Y-83058000D03*
X80518000Y-85598000D03*
X80518000Y-83058000D03*
X83058000Y-85598000D03*
X83058000Y-83058000D03*
X85598000Y-85598000D03*
X85598000Y-83058000D03*
X88138000Y-85598000D03*
X88138000Y-83058000D03*
X90678000Y-85598000D03*
X90678000Y-83058000D03*
X93218000Y-85598000D03*
X93218000Y-83058000D03*
X95758000Y-85598000D03*
D11*
X95758000Y-83058000D03*
D24*
X268224000Y-101012000D03*
D25*
X268224000Y-96012000D03*
D12*
X140716000Y-91440000D03*
D13*
X140716000Y-86360000D03*
D11*
X242062000Y-108458000D03*
X242062000Y-90678000D03*
D10*
X140716000Y-83058000D03*
X143256000Y-83058000D03*
X145796000Y-83058000D03*
D11*
X148336000Y-83058000D03*
X173482000Y-95758000D03*
X173482000Y-108458000D03*
X173482000Y-83058000D03*
D14*
X71118000Y-147700000D03*
X54858000Y-147700000D03*
D15*
X56638000Y-151130000D03*
X69338000Y-151130000D03*
D16*
X59408000Y-146810000D03*
X61448000Y-146810000D03*
X63488000Y-146810000D03*
X65528000Y-146810000D03*
X60428000Y-148590000D03*
X62468000Y-148590000D03*
X64508000Y-148590000D03*
D17*
X66548000Y-148590000D03*
D12*
X76454000Y-132080000D03*
D13*
X76454000Y-137160000D03*
D12*
X53848000Y-133096000D03*
D13*
X53848000Y-138176000D03*
D12*
X58928000Y-133096000D03*
D13*
X58928000Y-138176000D03*
D12*
X66548000Y-133096000D03*
D13*
X66548000Y-138176000D03*
D12*
X56388000Y-133096000D03*
D13*
X56388000Y-138176000D03*
D12*
X61468000Y-133096000D03*
D13*
X61468000Y-138176000D03*
D12*
X64008000Y-133096000D03*
D13*
X64008000Y-138176000D03*
D12*
X69088000Y-133096000D03*
D13*
X69088000Y-138176000D03*
D12*
X71628000Y-133096000D03*
D13*
X71628000Y-138176000D03*
M02*
