G04 #@! TF.GenerationSoftware,KiCad,Pcbnew,(5.1.4)-1*
G04 #@! TF.CreationDate,2019-10-02T12:40:23-04:00*
G04 #@! TF.ProjectId,clock_buffer,636c6f63-6b5f-4627-9566-6665722e6b69,rev?*
G04 #@! TF.SameCoordinates,Original*
G04 #@! TF.FileFunction,Paste,Top*
G04 #@! TF.FilePolarity,Positive*
%FSLAX46Y46*%
G04 Gerber Fmt 4.6, Leading zero omitted, Abs format (unit mm)*
G04 Created by KiCad (PCBNEW (5.1.4)-1) date 2019-10-02 12:40:23*
%MOMM*%
%LPD*%
G04 APERTURE LIST*
%ADD10C,0.100000*%
%ADD11C,0.975000*%
%ADD12C,0.590000*%
%ADD13R,0.590000X1.210000*%
%ADD14C,1.250000*%
G04 APERTURE END LIST*
D10*
G36*
X156944142Y-107385174D02*
G01*
X156967803Y-107388684D01*
X156991007Y-107394496D01*
X157013529Y-107402554D01*
X157035153Y-107412782D01*
X157055670Y-107425079D01*
X157074883Y-107439329D01*
X157092607Y-107455393D01*
X157108671Y-107473117D01*
X157122921Y-107492330D01*
X157135218Y-107512847D01*
X157145446Y-107534471D01*
X157153504Y-107556993D01*
X157159316Y-107580197D01*
X157162826Y-107603858D01*
X157164000Y-107627750D01*
X157164000Y-108115250D01*
X157162826Y-108139142D01*
X157159316Y-108162803D01*
X157153504Y-108186007D01*
X157145446Y-108208529D01*
X157135218Y-108230153D01*
X157122921Y-108250670D01*
X157108671Y-108269883D01*
X157092607Y-108287607D01*
X157074883Y-108303671D01*
X157055670Y-108317921D01*
X157035153Y-108330218D01*
X157013529Y-108340446D01*
X156991007Y-108348504D01*
X156967803Y-108354316D01*
X156944142Y-108357826D01*
X156920250Y-108359000D01*
X156007750Y-108359000D01*
X155983858Y-108357826D01*
X155960197Y-108354316D01*
X155936993Y-108348504D01*
X155914471Y-108340446D01*
X155892847Y-108330218D01*
X155872330Y-108317921D01*
X155853117Y-108303671D01*
X155835393Y-108287607D01*
X155819329Y-108269883D01*
X155805079Y-108250670D01*
X155792782Y-108230153D01*
X155782554Y-108208529D01*
X155774496Y-108186007D01*
X155768684Y-108162803D01*
X155765174Y-108139142D01*
X155764000Y-108115250D01*
X155764000Y-107627750D01*
X155765174Y-107603858D01*
X155768684Y-107580197D01*
X155774496Y-107556993D01*
X155782554Y-107534471D01*
X155792782Y-107512847D01*
X155805079Y-107492330D01*
X155819329Y-107473117D01*
X155835393Y-107455393D01*
X155853117Y-107439329D01*
X155872330Y-107425079D01*
X155892847Y-107412782D01*
X155914471Y-107402554D01*
X155936993Y-107394496D01*
X155960197Y-107388684D01*
X155983858Y-107385174D01*
X156007750Y-107384000D01*
X156920250Y-107384000D01*
X156944142Y-107385174D01*
X156944142Y-107385174D01*
G37*
D11*
X156464000Y-107871500D03*
D10*
G36*
X156944142Y-105510174D02*
G01*
X156967803Y-105513684D01*
X156991007Y-105519496D01*
X157013529Y-105527554D01*
X157035153Y-105537782D01*
X157055670Y-105550079D01*
X157074883Y-105564329D01*
X157092607Y-105580393D01*
X157108671Y-105598117D01*
X157122921Y-105617330D01*
X157135218Y-105637847D01*
X157145446Y-105659471D01*
X157153504Y-105681993D01*
X157159316Y-105705197D01*
X157162826Y-105728858D01*
X157164000Y-105752750D01*
X157164000Y-106240250D01*
X157162826Y-106264142D01*
X157159316Y-106287803D01*
X157153504Y-106311007D01*
X157145446Y-106333529D01*
X157135218Y-106355153D01*
X157122921Y-106375670D01*
X157108671Y-106394883D01*
X157092607Y-106412607D01*
X157074883Y-106428671D01*
X157055670Y-106442921D01*
X157035153Y-106455218D01*
X157013529Y-106465446D01*
X156991007Y-106473504D01*
X156967803Y-106479316D01*
X156944142Y-106482826D01*
X156920250Y-106484000D01*
X156007750Y-106484000D01*
X155983858Y-106482826D01*
X155960197Y-106479316D01*
X155936993Y-106473504D01*
X155914471Y-106465446D01*
X155892847Y-106455218D01*
X155872330Y-106442921D01*
X155853117Y-106428671D01*
X155835393Y-106412607D01*
X155819329Y-106394883D01*
X155805079Y-106375670D01*
X155792782Y-106355153D01*
X155782554Y-106333529D01*
X155774496Y-106311007D01*
X155768684Y-106287803D01*
X155765174Y-106264142D01*
X155764000Y-106240250D01*
X155764000Y-105752750D01*
X155765174Y-105728858D01*
X155768684Y-105705197D01*
X155774496Y-105681993D01*
X155782554Y-105659471D01*
X155792782Y-105637847D01*
X155805079Y-105617330D01*
X155819329Y-105598117D01*
X155835393Y-105580393D01*
X155853117Y-105564329D01*
X155872330Y-105550079D01*
X155892847Y-105537782D01*
X155914471Y-105527554D01*
X155936993Y-105519496D01*
X155960197Y-105513684D01*
X155983858Y-105510174D01*
X156007750Y-105509000D01*
X156920250Y-105509000D01*
X156944142Y-105510174D01*
X156944142Y-105510174D01*
G37*
D11*
X156464000Y-105996500D03*
D10*
G36*
X152053958Y-98994710D02*
G01*
X152068276Y-98996834D01*
X152082317Y-99000351D01*
X152095946Y-99005228D01*
X152109031Y-99011417D01*
X152121447Y-99018858D01*
X152133073Y-99027481D01*
X152143798Y-99037202D01*
X152153519Y-99047927D01*
X152162142Y-99059553D01*
X152169583Y-99071969D01*
X152175772Y-99085054D01*
X152180649Y-99098683D01*
X152184166Y-99112724D01*
X152186290Y-99127042D01*
X152187000Y-99141500D01*
X152187000Y-99486500D01*
X152186290Y-99500958D01*
X152184166Y-99515276D01*
X152180649Y-99529317D01*
X152175772Y-99542946D01*
X152169583Y-99556031D01*
X152162142Y-99568447D01*
X152153519Y-99580073D01*
X152143798Y-99590798D01*
X152133073Y-99600519D01*
X152121447Y-99609142D01*
X152109031Y-99616583D01*
X152095946Y-99622772D01*
X152082317Y-99627649D01*
X152068276Y-99631166D01*
X152053958Y-99633290D01*
X152039500Y-99634000D01*
X151744500Y-99634000D01*
X151730042Y-99633290D01*
X151715724Y-99631166D01*
X151701683Y-99627649D01*
X151688054Y-99622772D01*
X151674969Y-99616583D01*
X151662553Y-99609142D01*
X151650927Y-99600519D01*
X151640202Y-99590798D01*
X151630481Y-99580073D01*
X151621858Y-99568447D01*
X151614417Y-99556031D01*
X151608228Y-99542946D01*
X151603351Y-99529317D01*
X151599834Y-99515276D01*
X151597710Y-99500958D01*
X151597000Y-99486500D01*
X151597000Y-99141500D01*
X151597710Y-99127042D01*
X151599834Y-99112724D01*
X151603351Y-99098683D01*
X151608228Y-99085054D01*
X151614417Y-99071969D01*
X151621858Y-99059553D01*
X151630481Y-99047927D01*
X151640202Y-99037202D01*
X151650927Y-99027481D01*
X151662553Y-99018858D01*
X151674969Y-99011417D01*
X151688054Y-99005228D01*
X151701683Y-99000351D01*
X151715724Y-98996834D01*
X151730042Y-98994710D01*
X151744500Y-98994000D01*
X152039500Y-98994000D01*
X152053958Y-98994710D01*
X152053958Y-98994710D01*
G37*
D12*
X151892000Y-99314000D03*
D10*
G36*
X151083958Y-98994710D02*
G01*
X151098276Y-98996834D01*
X151112317Y-99000351D01*
X151125946Y-99005228D01*
X151139031Y-99011417D01*
X151151447Y-99018858D01*
X151163073Y-99027481D01*
X151173798Y-99037202D01*
X151183519Y-99047927D01*
X151192142Y-99059553D01*
X151199583Y-99071969D01*
X151205772Y-99085054D01*
X151210649Y-99098683D01*
X151214166Y-99112724D01*
X151216290Y-99127042D01*
X151217000Y-99141500D01*
X151217000Y-99486500D01*
X151216290Y-99500958D01*
X151214166Y-99515276D01*
X151210649Y-99529317D01*
X151205772Y-99542946D01*
X151199583Y-99556031D01*
X151192142Y-99568447D01*
X151183519Y-99580073D01*
X151173798Y-99590798D01*
X151163073Y-99600519D01*
X151151447Y-99609142D01*
X151139031Y-99616583D01*
X151125946Y-99622772D01*
X151112317Y-99627649D01*
X151098276Y-99631166D01*
X151083958Y-99633290D01*
X151069500Y-99634000D01*
X150774500Y-99634000D01*
X150760042Y-99633290D01*
X150745724Y-99631166D01*
X150731683Y-99627649D01*
X150718054Y-99622772D01*
X150704969Y-99616583D01*
X150692553Y-99609142D01*
X150680927Y-99600519D01*
X150670202Y-99590798D01*
X150660481Y-99580073D01*
X150651858Y-99568447D01*
X150644417Y-99556031D01*
X150638228Y-99542946D01*
X150633351Y-99529317D01*
X150629834Y-99515276D01*
X150627710Y-99500958D01*
X150627000Y-99486500D01*
X150627000Y-99141500D01*
X150627710Y-99127042D01*
X150629834Y-99112724D01*
X150633351Y-99098683D01*
X150638228Y-99085054D01*
X150644417Y-99071969D01*
X150651858Y-99059553D01*
X150660481Y-99047927D01*
X150670202Y-99037202D01*
X150680927Y-99027481D01*
X150692553Y-99018858D01*
X150704969Y-99011417D01*
X150718054Y-99005228D01*
X150731683Y-99000351D01*
X150745724Y-98996834D01*
X150760042Y-98994710D01*
X150774500Y-98994000D01*
X151069500Y-98994000D01*
X151083958Y-98994710D01*
X151083958Y-98994710D01*
G37*
D12*
X150922000Y-99314000D03*
D10*
G36*
X149998958Y-98994710D02*
G01*
X150013276Y-98996834D01*
X150027317Y-99000351D01*
X150040946Y-99005228D01*
X150054031Y-99011417D01*
X150066447Y-99018858D01*
X150078073Y-99027481D01*
X150088798Y-99037202D01*
X150098519Y-99047927D01*
X150107142Y-99059553D01*
X150114583Y-99071969D01*
X150120772Y-99085054D01*
X150125649Y-99098683D01*
X150129166Y-99112724D01*
X150131290Y-99127042D01*
X150132000Y-99141500D01*
X150132000Y-99486500D01*
X150131290Y-99500958D01*
X150129166Y-99515276D01*
X150125649Y-99529317D01*
X150120772Y-99542946D01*
X150114583Y-99556031D01*
X150107142Y-99568447D01*
X150098519Y-99580073D01*
X150088798Y-99590798D01*
X150078073Y-99600519D01*
X150066447Y-99609142D01*
X150054031Y-99616583D01*
X150040946Y-99622772D01*
X150027317Y-99627649D01*
X150013276Y-99631166D01*
X149998958Y-99633290D01*
X149984500Y-99634000D01*
X149689500Y-99634000D01*
X149675042Y-99633290D01*
X149660724Y-99631166D01*
X149646683Y-99627649D01*
X149633054Y-99622772D01*
X149619969Y-99616583D01*
X149607553Y-99609142D01*
X149595927Y-99600519D01*
X149585202Y-99590798D01*
X149575481Y-99580073D01*
X149566858Y-99568447D01*
X149559417Y-99556031D01*
X149553228Y-99542946D01*
X149548351Y-99529317D01*
X149544834Y-99515276D01*
X149542710Y-99500958D01*
X149542000Y-99486500D01*
X149542000Y-99141500D01*
X149542710Y-99127042D01*
X149544834Y-99112724D01*
X149548351Y-99098683D01*
X149553228Y-99085054D01*
X149559417Y-99071969D01*
X149566858Y-99059553D01*
X149575481Y-99047927D01*
X149585202Y-99037202D01*
X149595927Y-99027481D01*
X149607553Y-99018858D01*
X149619969Y-99011417D01*
X149633054Y-99005228D01*
X149646683Y-99000351D01*
X149660724Y-98996834D01*
X149675042Y-98994710D01*
X149689500Y-98994000D01*
X149984500Y-98994000D01*
X149998958Y-98994710D01*
X149998958Y-98994710D01*
G37*
D12*
X149837000Y-99314000D03*
D10*
G36*
X149028958Y-98994710D02*
G01*
X149043276Y-98996834D01*
X149057317Y-99000351D01*
X149070946Y-99005228D01*
X149084031Y-99011417D01*
X149096447Y-99018858D01*
X149108073Y-99027481D01*
X149118798Y-99037202D01*
X149128519Y-99047927D01*
X149137142Y-99059553D01*
X149144583Y-99071969D01*
X149150772Y-99085054D01*
X149155649Y-99098683D01*
X149159166Y-99112724D01*
X149161290Y-99127042D01*
X149162000Y-99141500D01*
X149162000Y-99486500D01*
X149161290Y-99500958D01*
X149159166Y-99515276D01*
X149155649Y-99529317D01*
X149150772Y-99542946D01*
X149144583Y-99556031D01*
X149137142Y-99568447D01*
X149128519Y-99580073D01*
X149118798Y-99590798D01*
X149108073Y-99600519D01*
X149096447Y-99609142D01*
X149084031Y-99616583D01*
X149070946Y-99622772D01*
X149057317Y-99627649D01*
X149043276Y-99631166D01*
X149028958Y-99633290D01*
X149014500Y-99634000D01*
X148719500Y-99634000D01*
X148705042Y-99633290D01*
X148690724Y-99631166D01*
X148676683Y-99627649D01*
X148663054Y-99622772D01*
X148649969Y-99616583D01*
X148637553Y-99609142D01*
X148625927Y-99600519D01*
X148615202Y-99590798D01*
X148605481Y-99580073D01*
X148596858Y-99568447D01*
X148589417Y-99556031D01*
X148583228Y-99542946D01*
X148578351Y-99529317D01*
X148574834Y-99515276D01*
X148572710Y-99500958D01*
X148572000Y-99486500D01*
X148572000Y-99141500D01*
X148572710Y-99127042D01*
X148574834Y-99112724D01*
X148578351Y-99098683D01*
X148583228Y-99085054D01*
X148589417Y-99071969D01*
X148596858Y-99059553D01*
X148605481Y-99047927D01*
X148615202Y-99037202D01*
X148625927Y-99027481D01*
X148637553Y-99018858D01*
X148649969Y-99011417D01*
X148663054Y-99005228D01*
X148676683Y-99000351D01*
X148690724Y-98996834D01*
X148705042Y-98994710D01*
X148719500Y-98994000D01*
X149014500Y-98994000D01*
X149028958Y-98994710D01*
X149028958Y-98994710D01*
G37*
D12*
X148867000Y-99314000D03*
D13*
X151318000Y-103617000D03*
X149418000Y-103617000D03*
X149418000Y-101107000D03*
X150368000Y-101107000D03*
X151318000Y-101107000D03*
D10*
G36*
X156944142Y-103496674D02*
G01*
X156967803Y-103500184D01*
X156991007Y-103505996D01*
X157013529Y-103514054D01*
X157035153Y-103524282D01*
X157055670Y-103536579D01*
X157074883Y-103550829D01*
X157092607Y-103566893D01*
X157108671Y-103584617D01*
X157122921Y-103603830D01*
X157135218Y-103624347D01*
X157145446Y-103645971D01*
X157153504Y-103668493D01*
X157159316Y-103691697D01*
X157162826Y-103715358D01*
X157164000Y-103739250D01*
X157164000Y-104226750D01*
X157162826Y-104250642D01*
X157159316Y-104274303D01*
X157153504Y-104297507D01*
X157145446Y-104320029D01*
X157135218Y-104341653D01*
X157122921Y-104362170D01*
X157108671Y-104381383D01*
X157092607Y-104399107D01*
X157074883Y-104415171D01*
X157055670Y-104429421D01*
X157035153Y-104441718D01*
X157013529Y-104451946D01*
X156991007Y-104460004D01*
X156967803Y-104465816D01*
X156944142Y-104469326D01*
X156920250Y-104470500D01*
X156007750Y-104470500D01*
X155983858Y-104469326D01*
X155960197Y-104465816D01*
X155936993Y-104460004D01*
X155914471Y-104451946D01*
X155892847Y-104441718D01*
X155872330Y-104429421D01*
X155853117Y-104415171D01*
X155835393Y-104399107D01*
X155819329Y-104381383D01*
X155805079Y-104362170D01*
X155792782Y-104341653D01*
X155782554Y-104320029D01*
X155774496Y-104297507D01*
X155768684Y-104274303D01*
X155765174Y-104250642D01*
X155764000Y-104226750D01*
X155764000Y-103739250D01*
X155765174Y-103715358D01*
X155768684Y-103691697D01*
X155774496Y-103668493D01*
X155782554Y-103645971D01*
X155792782Y-103624347D01*
X155805079Y-103603830D01*
X155819329Y-103584617D01*
X155835393Y-103566893D01*
X155853117Y-103550829D01*
X155872330Y-103536579D01*
X155892847Y-103524282D01*
X155914471Y-103514054D01*
X155936993Y-103505996D01*
X155960197Y-103500184D01*
X155983858Y-103496674D01*
X156007750Y-103495500D01*
X156920250Y-103495500D01*
X156944142Y-103496674D01*
X156944142Y-103496674D01*
G37*
D11*
X156464000Y-103983000D03*
D10*
G36*
X156944142Y-101621674D02*
G01*
X156967803Y-101625184D01*
X156991007Y-101630996D01*
X157013529Y-101639054D01*
X157035153Y-101649282D01*
X157055670Y-101661579D01*
X157074883Y-101675829D01*
X157092607Y-101691893D01*
X157108671Y-101709617D01*
X157122921Y-101728830D01*
X157135218Y-101749347D01*
X157145446Y-101770971D01*
X157153504Y-101793493D01*
X157159316Y-101816697D01*
X157162826Y-101840358D01*
X157164000Y-101864250D01*
X157164000Y-102351750D01*
X157162826Y-102375642D01*
X157159316Y-102399303D01*
X157153504Y-102422507D01*
X157145446Y-102445029D01*
X157135218Y-102466653D01*
X157122921Y-102487170D01*
X157108671Y-102506383D01*
X157092607Y-102524107D01*
X157074883Y-102540171D01*
X157055670Y-102554421D01*
X157035153Y-102566718D01*
X157013529Y-102576946D01*
X156991007Y-102585004D01*
X156967803Y-102590816D01*
X156944142Y-102594326D01*
X156920250Y-102595500D01*
X156007750Y-102595500D01*
X155983858Y-102594326D01*
X155960197Y-102590816D01*
X155936993Y-102585004D01*
X155914471Y-102576946D01*
X155892847Y-102566718D01*
X155872330Y-102554421D01*
X155853117Y-102540171D01*
X155835393Y-102524107D01*
X155819329Y-102506383D01*
X155805079Y-102487170D01*
X155792782Y-102466653D01*
X155782554Y-102445029D01*
X155774496Y-102422507D01*
X155768684Y-102399303D01*
X155765174Y-102375642D01*
X155764000Y-102351750D01*
X155764000Y-101864250D01*
X155765174Y-101840358D01*
X155768684Y-101816697D01*
X155774496Y-101793493D01*
X155782554Y-101770971D01*
X155792782Y-101749347D01*
X155805079Y-101728830D01*
X155819329Y-101709617D01*
X155835393Y-101691893D01*
X155853117Y-101675829D01*
X155872330Y-101661579D01*
X155892847Y-101649282D01*
X155914471Y-101639054D01*
X155936993Y-101630996D01*
X155960197Y-101625184D01*
X155983858Y-101621674D01*
X156007750Y-101620500D01*
X156920250Y-101620500D01*
X156944142Y-101621674D01*
X156944142Y-101621674D01*
G37*
D11*
X156464000Y-102108000D03*
D10*
G36*
X156944142Y-93493674D02*
G01*
X156967803Y-93497184D01*
X156991007Y-93502996D01*
X157013529Y-93511054D01*
X157035153Y-93521282D01*
X157055670Y-93533579D01*
X157074883Y-93547829D01*
X157092607Y-93563893D01*
X157108671Y-93581617D01*
X157122921Y-93600830D01*
X157135218Y-93621347D01*
X157145446Y-93642971D01*
X157153504Y-93665493D01*
X157159316Y-93688697D01*
X157162826Y-93712358D01*
X157164000Y-93736250D01*
X157164000Y-94223750D01*
X157162826Y-94247642D01*
X157159316Y-94271303D01*
X157153504Y-94294507D01*
X157145446Y-94317029D01*
X157135218Y-94338653D01*
X157122921Y-94359170D01*
X157108671Y-94378383D01*
X157092607Y-94396107D01*
X157074883Y-94412171D01*
X157055670Y-94426421D01*
X157035153Y-94438718D01*
X157013529Y-94448946D01*
X156991007Y-94457004D01*
X156967803Y-94462816D01*
X156944142Y-94466326D01*
X156920250Y-94467500D01*
X156007750Y-94467500D01*
X155983858Y-94466326D01*
X155960197Y-94462816D01*
X155936993Y-94457004D01*
X155914471Y-94448946D01*
X155892847Y-94438718D01*
X155872330Y-94426421D01*
X155853117Y-94412171D01*
X155835393Y-94396107D01*
X155819329Y-94378383D01*
X155805079Y-94359170D01*
X155792782Y-94338653D01*
X155782554Y-94317029D01*
X155774496Y-94294507D01*
X155768684Y-94271303D01*
X155765174Y-94247642D01*
X155764000Y-94223750D01*
X155764000Y-93736250D01*
X155765174Y-93712358D01*
X155768684Y-93688697D01*
X155774496Y-93665493D01*
X155782554Y-93642971D01*
X155792782Y-93621347D01*
X155805079Y-93600830D01*
X155819329Y-93581617D01*
X155835393Y-93563893D01*
X155853117Y-93547829D01*
X155872330Y-93533579D01*
X155892847Y-93521282D01*
X155914471Y-93511054D01*
X155936993Y-93502996D01*
X155960197Y-93497184D01*
X155983858Y-93493674D01*
X156007750Y-93492500D01*
X156920250Y-93492500D01*
X156944142Y-93493674D01*
X156944142Y-93493674D01*
G37*
D11*
X156464000Y-93980000D03*
D10*
G36*
X156944142Y-95368674D02*
G01*
X156967803Y-95372184D01*
X156991007Y-95377996D01*
X157013529Y-95386054D01*
X157035153Y-95396282D01*
X157055670Y-95408579D01*
X157074883Y-95422829D01*
X157092607Y-95438893D01*
X157108671Y-95456617D01*
X157122921Y-95475830D01*
X157135218Y-95496347D01*
X157145446Y-95517971D01*
X157153504Y-95540493D01*
X157159316Y-95563697D01*
X157162826Y-95587358D01*
X157164000Y-95611250D01*
X157164000Y-96098750D01*
X157162826Y-96122642D01*
X157159316Y-96146303D01*
X157153504Y-96169507D01*
X157145446Y-96192029D01*
X157135218Y-96213653D01*
X157122921Y-96234170D01*
X157108671Y-96253383D01*
X157092607Y-96271107D01*
X157074883Y-96287171D01*
X157055670Y-96301421D01*
X157035153Y-96313718D01*
X157013529Y-96323946D01*
X156991007Y-96332004D01*
X156967803Y-96337816D01*
X156944142Y-96341326D01*
X156920250Y-96342500D01*
X156007750Y-96342500D01*
X155983858Y-96341326D01*
X155960197Y-96337816D01*
X155936993Y-96332004D01*
X155914471Y-96323946D01*
X155892847Y-96313718D01*
X155872330Y-96301421D01*
X155853117Y-96287171D01*
X155835393Y-96271107D01*
X155819329Y-96253383D01*
X155805079Y-96234170D01*
X155792782Y-96213653D01*
X155782554Y-96192029D01*
X155774496Y-96169507D01*
X155768684Y-96146303D01*
X155765174Y-96122642D01*
X155764000Y-96098750D01*
X155764000Y-95611250D01*
X155765174Y-95587358D01*
X155768684Y-95563697D01*
X155774496Y-95540493D01*
X155782554Y-95517971D01*
X155792782Y-95496347D01*
X155805079Y-95475830D01*
X155819329Y-95456617D01*
X155835393Y-95438893D01*
X155853117Y-95422829D01*
X155872330Y-95408579D01*
X155892847Y-95396282D01*
X155914471Y-95386054D01*
X155936993Y-95377996D01*
X155960197Y-95372184D01*
X155983858Y-95368674D01*
X156007750Y-95367500D01*
X156920250Y-95367500D01*
X156944142Y-95368674D01*
X156944142Y-95368674D01*
G37*
D11*
X156464000Y-95855000D03*
D10*
G36*
X157304004Y-99712204D02*
G01*
X157328273Y-99715804D01*
X157352071Y-99721765D01*
X157375171Y-99730030D01*
X157397349Y-99740520D01*
X157418393Y-99753133D01*
X157438098Y-99767747D01*
X157456277Y-99784223D01*
X157472753Y-99802402D01*
X157487367Y-99822107D01*
X157499980Y-99843151D01*
X157510470Y-99865329D01*
X157518735Y-99888429D01*
X157524696Y-99912227D01*
X157528296Y-99936496D01*
X157529500Y-99961000D01*
X157529500Y-100711000D01*
X157528296Y-100735504D01*
X157524696Y-100759773D01*
X157518735Y-100783571D01*
X157510470Y-100806671D01*
X157499980Y-100828849D01*
X157487367Y-100849893D01*
X157472753Y-100869598D01*
X157456277Y-100887777D01*
X157438098Y-100904253D01*
X157418393Y-100918867D01*
X157397349Y-100931480D01*
X157375171Y-100941970D01*
X157352071Y-100950235D01*
X157328273Y-100956196D01*
X157304004Y-100959796D01*
X157279500Y-100961000D01*
X156029500Y-100961000D01*
X156004996Y-100959796D01*
X155980727Y-100956196D01*
X155956929Y-100950235D01*
X155933829Y-100941970D01*
X155911651Y-100931480D01*
X155890607Y-100918867D01*
X155870902Y-100904253D01*
X155852723Y-100887777D01*
X155836247Y-100869598D01*
X155821633Y-100849893D01*
X155809020Y-100828849D01*
X155798530Y-100806671D01*
X155790265Y-100783571D01*
X155784304Y-100759773D01*
X155780704Y-100735504D01*
X155779500Y-100711000D01*
X155779500Y-99961000D01*
X155780704Y-99936496D01*
X155784304Y-99912227D01*
X155790265Y-99888429D01*
X155798530Y-99865329D01*
X155809020Y-99843151D01*
X155821633Y-99822107D01*
X155836247Y-99802402D01*
X155852723Y-99784223D01*
X155870902Y-99767747D01*
X155890607Y-99753133D01*
X155911651Y-99740520D01*
X155933829Y-99730030D01*
X155956929Y-99721765D01*
X155980727Y-99715804D01*
X156004996Y-99712204D01*
X156029500Y-99711000D01*
X157279500Y-99711000D01*
X157304004Y-99712204D01*
X157304004Y-99712204D01*
G37*
D14*
X156654500Y-100336000D03*
D10*
G36*
X157304004Y-96912204D02*
G01*
X157328273Y-96915804D01*
X157352071Y-96921765D01*
X157375171Y-96930030D01*
X157397349Y-96940520D01*
X157418393Y-96953133D01*
X157438098Y-96967747D01*
X157456277Y-96984223D01*
X157472753Y-97002402D01*
X157487367Y-97022107D01*
X157499980Y-97043151D01*
X157510470Y-97065329D01*
X157518735Y-97088429D01*
X157524696Y-97112227D01*
X157528296Y-97136496D01*
X157529500Y-97161000D01*
X157529500Y-97911000D01*
X157528296Y-97935504D01*
X157524696Y-97959773D01*
X157518735Y-97983571D01*
X157510470Y-98006671D01*
X157499980Y-98028849D01*
X157487367Y-98049893D01*
X157472753Y-98069598D01*
X157456277Y-98087777D01*
X157438098Y-98104253D01*
X157418393Y-98118867D01*
X157397349Y-98131480D01*
X157375171Y-98141970D01*
X157352071Y-98150235D01*
X157328273Y-98156196D01*
X157304004Y-98159796D01*
X157279500Y-98161000D01*
X156029500Y-98161000D01*
X156004996Y-98159796D01*
X155980727Y-98156196D01*
X155956929Y-98150235D01*
X155933829Y-98141970D01*
X155911651Y-98131480D01*
X155890607Y-98118867D01*
X155870902Y-98104253D01*
X155852723Y-98087777D01*
X155836247Y-98069598D01*
X155821633Y-98049893D01*
X155809020Y-98028849D01*
X155798530Y-98006671D01*
X155790265Y-97983571D01*
X155784304Y-97959773D01*
X155780704Y-97935504D01*
X155779500Y-97911000D01*
X155779500Y-97161000D01*
X155780704Y-97136496D01*
X155784304Y-97112227D01*
X155790265Y-97088429D01*
X155798530Y-97065329D01*
X155809020Y-97043151D01*
X155821633Y-97022107D01*
X155836247Y-97002402D01*
X155852723Y-96984223D01*
X155870902Y-96967747D01*
X155890607Y-96953133D01*
X155911651Y-96940520D01*
X155933829Y-96930030D01*
X155956929Y-96921765D01*
X155980727Y-96915804D01*
X156004996Y-96912204D01*
X156029500Y-96911000D01*
X157279500Y-96911000D01*
X157304004Y-96912204D01*
X157304004Y-96912204D01*
G37*
D14*
X156654500Y-97536000D03*
M02*
