G04 #@! TF.GenerationSoftware,KiCad,Pcbnew,(5.1.4)-1*
G04 #@! TF.CreationDate,2019-10-02T12:40:23-04:00*
G04 #@! TF.ProjectId,clock_buffer,636c6f63-6b5f-4627-9566-6665722e6b69,rev?*
G04 #@! TF.SameCoordinates,Original*
G04 #@! TF.FileFunction,Copper,L1,Top*
G04 #@! TF.FilePolarity,Positive*
%FSLAX46Y46*%
G04 Gerber Fmt 4.6, Leading zero omitted, Abs format (unit mm)*
G04 Created by KiCad (PCBNEW (5.1.4)-1) date 2019-10-02 12:40:23*
%MOMM*%
%LPD*%
G04 APERTURE LIST*
%ADD10C,0.100000*%
%ADD11C,0.975000*%
%ADD12C,0.590000*%
%ADD13R,0.590000X1.210000*%
%ADD14C,1.250000*%
%ADD15O,1.600000X1.600000*%
%ADD16R,1.600000X1.600000*%
%ADD17C,2.250000*%
%ADD18C,2.050000*%
%ADD19C,0.800000*%
%ADD20C,1.000000*%
%ADD21C,0.500000*%
%ADD22C,0.400000*%
%ADD23C,0.600000*%
%ADD24C,0.254000*%
G04 APERTURE END LIST*
D10*
G36*
X156944142Y-107385174D02*
G01*
X156967803Y-107388684D01*
X156991007Y-107394496D01*
X157013529Y-107402554D01*
X157035153Y-107412782D01*
X157055670Y-107425079D01*
X157074883Y-107439329D01*
X157092607Y-107455393D01*
X157108671Y-107473117D01*
X157122921Y-107492330D01*
X157135218Y-107512847D01*
X157145446Y-107534471D01*
X157153504Y-107556993D01*
X157159316Y-107580197D01*
X157162826Y-107603858D01*
X157164000Y-107627750D01*
X157164000Y-108115250D01*
X157162826Y-108139142D01*
X157159316Y-108162803D01*
X157153504Y-108186007D01*
X157145446Y-108208529D01*
X157135218Y-108230153D01*
X157122921Y-108250670D01*
X157108671Y-108269883D01*
X157092607Y-108287607D01*
X157074883Y-108303671D01*
X157055670Y-108317921D01*
X157035153Y-108330218D01*
X157013529Y-108340446D01*
X156991007Y-108348504D01*
X156967803Y-108354316D01*
X156944142Y-108357826D01*
X156920250Y-108359000D01*
X156007750Y-108359000D01*
X155983858Y-108357826D01*
X155960197Y-108354316D01*
X155936993Y-108348504D01*
X155914471Y-108340446D01*
X155892847Y-108330218D01*
X155872330Y-108317921D01*
X155853117Y-108303671D01*
X155835393Y-108287607D01*
X155819329Y-108269883D01*
X155805079Y-108250670D01*
X155792782Y-108230153D01*
X155782554Y-108208529D01*
X155774496Y-108186007D01*
X155768684Y-108162803D01*
X155765174Y-108139142D01*
X155764000Y-108115250D01*
X155764000Y-107627750D01*
X155765174Y-107603858D01*
X155768684Y-107580197D01*
X155774496Y-107556993D01*
X155782554Y-107534471D01*
X155792782Y-107512847D01*
X155805079Y-107492330D01*
X155819329Y-107473117D01*
X155835393Y-107455393D01*
X155853117Y-107439329D01*
X155872330Y-107425079D01*
X155892847Y-107412782D01*
X155914471Y-107402554D01*
X155936993Y-107394496D01*
X155960197Y-107388684D01*
X155983858Y-107385174D01*
X156007750Y-107384000D01*
X156920250Y-107384000D01*
X156944142Y-107385174D01*
X156944142Y-107385174D01*
G37*
D11*
X156464000Y-107871500D03*
D10*
G36*
X156944142Y-105510174D02*
G01*
X156967803Y-105513684D01*
X156991007Y-105519496D01*
X157013529Y-105527554D01*
X157035153Y-105537782D01*
X157055670Y-105550079D01*
X157074883Y-105564329D01*
X157092607Y-105580393D01*
X157108671Y-105598117D01*
X157122921Y-105617330D01*
X157135218Y-105637847D01*
X157145446Y-105659471D01*
X157153504Y-105681993D01*
X157159316Y-105705197D01*
X157162826Y-105728858D01*
X157164000Y-105752750D01*
X157164000Y-106240250D01*
X157162826Y-106264142D01*
X157159316Y-106287803D01*
X157153504Y-106311007D01*
X157145446Y-106333529D01*
X157135218Y-106355153D01*
X157122921Y-106375670D01*
X157108671Y-106394883D01*
X157092607Y-106412607D01*
X157074883Y-106428671D01*
X157055670Y-106442921D01*
X157035153Y-106455218D01*
X157013529Y-106465446D01*
X156991007Y-106473504D01*
X156967803Y-106479316D01*
X156944142Y-106482826D01*
X156920250Y-106484000D01*
X156007750Y-106484000D01*
X155983858Y-106482826D01*
X155960197Y-106479316D01*
X155936993Y-106473504D01*
X155914471Y-106465446D01*
X155892847Y-106455218D01*
X155872330Y-106442921D01*
X155853117Y-106428671D01*
X155835393Y-106412607D01*
X155819329Y-106394883D01*
X155805079Y-106375670D01*
X155792782Y-106355153D01*
X155782554Y-106333529D01*
X155774496Y-106311007D01*
X155768684Y-106287803D01*
X155765174Y-106264142D01*
X155764000Y-106240250D01*
X155764000Y-105752750D01*
X155765174Y-105728858D01*
X155768684Y-105705197D01*
X155774496Y-105681993D01*
X155782554Y-105659471D01*
X155792782Y-105637847D01*
X155805079Y-105617330D01*
X155819329Y-105598117D01*
X155835393Y-105580393D01*
X155853117Y-105564329D01*
X155872330Y-105550079D01*
X155892847Y-105537782D01*
X155914471Y-105527554D01*
X155936993Y-105519496D01*
X155960197Y-105513684D01*
X155983858Y-105510174D01*
X156007750Y-105509000D01*
X156920250Y-105509000D01*
X156944142Y-105510174D01*
X156944142Y-105510174D01*
G37*
D11*
X156464000Y-105996500D03*
D10*
G36*
X152053958Y-98994710D02*
G01*
X152068276Y-98996834D01*
X152082317Y-99000351D01*
X152095946Y-99005228D01*
X152109031Y-99011417D01*
X152121447Y-99018858D01*
X152133073Y-99027481D01*
X152143798Y-99037202D01*
X152153519Y-99047927D01*
X152162142Y-99059553D01*
X152169583Y-99071969D01*
X152175772Y-99085054D01*
X152180649Y-99098683D01*
X152184166Y-99112724D01*
X152186290Y-99127042D01*
X152187000Y-99141500D01*
X152187000Y-99486500D01*
X152186290Y-99500958D01*
X152184166Y-99515276D01*
X152180649Y-99529317D01*
X152175772Y-99542946D01*
X152169583Y-99556031D01*
X152162142Y-99568447D01*
X152153519Y-99580073D01*
X152143798Y-99590798D01*
X152133073Y-99600519D01*
X152121447Y-99609142D01*
X152109031Y-99616583D01*
X152095946Y-99622772D01*
X152082317Y-99627649D01*
X152068276Y-99631166D01*
X152053958Y-99633290D01*
X152039500Y-99634000D01*
X151744500Y-99634000D01*
X151730042Y-99633290D01*
X151715724Y-99631166D01*
X151701683Y-99627649D01*
X151688054Y-99622772D01*
X151674969Y-99616583D01*
X151662553Y-99609142D01*
X151650927Y-99600519D01*
X151640202Y-99590798D01*
X151630481Y-99580073D01*
X151621858Y-99568447D01*
X151614417Y-99556031D01*
X151608228Y-99542946D01*
X151603351Y-99529317D01*
X151599834Y-99515276D01*
X151597710Y-99500958D01*
X151597000Y-99486500D01*
X151597000Y-99141500D01*
X151597710Y-99127042D01*
X151599834Y-99112724D01*
X151603351Y-99098683D01*
X151608228Y-99085054D01*
X151614417Y-99071969D01*
X151621858Y-99059553D01*
X151630481Y-99047927D01*
X151640202Y-99037202D01*
X151650927Y-99027481D01*
X151662553Y-99018858D01*
X151674969Y-99011417D01*
X151688054Y-99005228D01*
X151701683Y-99000351D01*
X151715724Y-98996834D01*
X151730042Y-98994710D01*
X151744500Y-98994000D01*
X152039500Y-98994000D01*
X152053958Y-98994710D01*
X152053958Y-98994710D01*
G37*
D12*
X151892000Y-99314000D03*
D10*
G36*
X151083958Y-98994710D02*
G01*
X151098276Y-98996834D01*
X151112317Y-99000351D01*
X151125946Y-99005228D01*
X151139031Y-99011417D01*
X151151447Y-99018858D01*
X151163073Y-99027481D01*
X151173798Y-99037202D01*
X151183519Y-99047927D01*
X151192142Y-99059553D01*
X151199583Y-99071969D01*
X151205772Y-99085054D01*
X151210649Y-99098683D01*
X151214166Y-99112724D01*
X151216290Y-99127042D01*
X151217000Y-99141500D01*
X151217000Y-99486500D01*
X151216290Y-99500958D01*
X151214166Y-99515276D01*
X151210649Y-99529317D01*
X151205772Y-99542946D01*
X151199583Y-99556031D01*
X151192142Y-99568447D01*
X151183519Y-99580073D01*
X151173798Y-99590798D01*
X151163073Y-99600519D01*
X151151447Y-99609142D01*
X151139031Y-99616583D01*
X151125946Y-99622772D01*
X151112317Y-99627649D01*
X151098276Y-99631166D01*
X151083958Y-99633290D01*
X151069500Y-99634000D01*
X150774500Y-99634000D01*
X150760042Y-99633290D01*
X150745724Y-99631166D01*
X150731683Y-99627649D01*
X150718054Y-99622772D01*
X150704969Y-99616583D01*
X150692553Y-99609142D01*
X150680927Y-99600519D01*
X150670202Y-99590798D01*
X150660481Y-99580073D01*
X150651858Y-99568447D01*
X150644417Y-99556031D01*
X150638228Y-99542946D01*
X150633351Y-99529317D01*
X150629834Y-99515276D01*
X150627710Y-99500958D01*
X150627000Y-99486500D01*
X150627000Y-99141500D01*
X150627710Y-99127042D01*
X150629834Y-99112724D01*
X150633351Y-99098683D01*
X150638228Y-99085054D01*
X150644417Y-99071969D01*
X150651858Y-99059553D01*
X150660481Y-99047927D01*
X150670202Y-99037202D01*
X150680927Y-99027481D01*
X150692553Y-99018858D01*
X150704969Y-99011417D01*
X150718054Y-99005228D01*
X150731683Y-99000351D01*
X150745724Y-98996834D01*
X150760042Y-98994710D01*
X150774500Y-98994000D01*
X151069500Y-98994000D01*
X151083958Y-98994710D01*
X151083958Y-98994710D01*
G37*
D12*
X150922000Y-99314000D03*
D10*
G36*
X149998958Y-98994710D02*
G01*
X150013276Y-98996834D01*
X150027317Y-99000351D01*
X150040946Y-99005228D01*
X150054031Y-99011417D01*
X150066447Y-99018858D01*
X150078073Y-99027481D01*
X150088798Y-99037202D01*
X150098519Y-99047927D01*
X150107142Y-99059553D01*
X150114583Y-99071969D01*
X150120772Y-99085054D01*
X150125649Y-99098683D01*
X150129166Y-99112724D01*
X150131290Y-99127042D01*
X150132000Y-99141500D01*
X150132000Y-99486500D01*
X150131290Y-99500958D01*
X150129166Y-99515276D01*
X150125649Y-99529317D01*
X150120772Y-99542946D01*
X150114583Y-99556031D01*
X150107142Y-99568447D01*
X150098519Y-99580073D01*
X150088798Y-99590798D01*
X150078073Y-99600519D01*
X150066447Y-99609142D01*
X150054031Y-99616583D01*
X150040946Y-99622772D01*
X150027317Y-99627649D01*
X150013276Y-99631166D01*
X149998958Y-99633290D01*
X149984500Y-99634000D01*
X149689500Y-99634000D01*
X149675042Y-99633290D01*
X149660724Y-99631166D01*
X149646683Y-99627649D01*
X149633054Y-99622772D01*
X149619969Y-99616583D01*
X149607553Y-99609142D01*
X149595927Y-99600519D01*
X149585202Y-99590798D01*
X149575481Y-99580073D01*
X149566858Y-99568447D01*
X149559417Y-99556031D01*
X149553228Y-99542946D01*
X149548351Y-99529317D01*
X149544834Y-99515276D01*
X149542710Y-99500958D01*
X149542000Y-99486500D01*
X149542000Y-99141500D01*
X149542710Y-99127042D01*
X149544834Y-99112724D01*
X149548351Y-99098683D01*
X149553228Y-99085054D01*
X149559417Y-99071969D01*
X149566858Y-99059553D01*
X149575481Y-99047927D01*
X149585202Y-99037202D01*
X149595927Y-99027481D01*
X149607553Y-99018858D01*
X149619969Y-99011417D01*
X149633054Y-99005228D01*
X149646683Y-99000351D01*
X149660724Y-98996834D01*
X149675042Y-98994710D01*
X149689500Y-98994000D01*
X149984500Y-98994000D01*
X149998958Y-98994710D01*
X149998958Y-98994710D01*
G37*
D12*
X149837000Y-99314000D03*
D10*
G36*
X149028958Y-98994710D02*
G01*
X149043276Y-98996834D01*
X149057317Y-99000351D01*
X149070946Y-99005228D01*
X149084031Y-99011417D01*
X149096447Y-99018858D01*
X149108073Y-99027481D01*
X149118798Y-99037202D01*
X149128519Y-99047927D01*
X149137142Y-99059553D01*
X149144583Y-99071969D01*
X149150772Y-99085054D01*
X149155649Y-99098683D01*
X149159166Y-99112724D01*
X149161290Y-99127042D01*
X149162000Y-99141500D01*
X149162000Y-99486500D01*
X149161290Y-99500958D01*
X149159166Y-99515276D01*
X149155649Y-99529317D01*
X149150772Y-99542946D01*
X149144583Y-99556031D01*
X149137142Y-99568447D01*
X149128519Y-99580073D01*
X149118798Y-99590798D01*
X149108073Y-99600519D01*
X149096447Y-99609142D01*
X149084031Y-99616583D01*
X149070946Y-99622772D01*
X149057317Y-99627649D01*
X149043276Y-99631166D01*
X149028958Y-99633290D01*
X149014500Y-99634000D01*
X148719500Y-99634000D01*
X148705042Y-99633290D01*
X148690724Y-99631166D01*
X148676683Y-99627649D01*
X148663054Y-99622772D01*
X148649969Y-99616583D01*
X148637553Y-99609142D01*
X148625927Y-99600519D01*
X148615202Y-99590798D01*
X148605481Y-99580073D01*
X148596858Y-99568447D01*
X148589417Y-99556031D01*
X148583228Y-99542946D01*
X148578351Y-99529317D01*
X148574834Y-99515276D01*
X148572710Y-99500958D01*
X148572000Y-99486500D01*
X148572000Y-99141500D01*
X148572710Y-99127042D01*
X148574834Y-99112724D01*
X148578351Y-99098683D01*
X148583228Y-99085054D01*
X148589417Y-99071969D01*
X148596858Y-99059553D01*
X148605481Y-99047927D01*
X148615202Y-99037202D01*
X148625927Y-99027481D01*
X148637553Y-99018858D01*
X148649969Y-99011417D01*
X148663054Y-99005228D01*
X148676683Y-99000351D01*
X148690724Y-98996834D01*
X148705042Y-98994710D01*
X148719500Y-98994000D01*
X149014500Y-98994000D01*
X149028958Y-98994710D01*
X149028958Y-98994710D01*
G37*
D12*
X148867000Y-99314000D03*
D13*
X151318000Y-103617000D03*
X149418000Y-103617000D03*
X149418000Y-101107000D03*
X150368000Y-101107000D03*
X151318000Y-101107000D03*
D10*
G36*
X156944142Y-103496674D02*
G01*
X156967803Y-103500184D01*
X156991007Y-103505996D01*
X157013529Y-103514054D01*
X157035153Y-103524282D01*
X157055670Y-103536579D01*
X157074883Y-103550829D01*
X157092607Y-103566893D01*
X157108671Y-103584617D01*
X157122921Y-103603830D01*
X157135218Y-103624347D01*
X157145446Y-103645971D01*
X157153504Y-103668493D01*
X157159316Y-103691697D01*
X157162826Y-103715358D01*
X157164000Y-103739250D01*
X157164000Y-104226750D01*
X157162826Y-104250642D01*
X157159316Y-104274303D01*
X157153504Y-104297507D01*
X157145446Y-104320029D01*
X157135218Y-104341653D01*
X157122921Y-104362170D01*
X157108671Y-104381383D01*
X157092607Y-104399107D01*
X157074883Y-104415171D01*
X157055670Y-104429421D01*
X157035153Y-104441718D01*
X157013529Y-104451946D01*
X156991007Y-104460004D01*
X156967803Y-104465816D01*
X156944142Y-104469326D01*
X156920250Y-104470500D01*
X156007750Y-104470500D01*
X155983858Y-104469326D01*
X155960197Y-104465816D01*
X155936993Y-104460004D01*
X155914471Y-104451946D01*
X155892847Y-104441718D01*
X155872330Y-104429421D01*
X155853117Y-104415171D01*
X155835393Y-104399107D01*
X155819329Y-104381383D01*
X155805079Y-104362170D01*
X155792782Y-104341653D01*
X155782554Y-104320029D01*
X155774496Y-104297507D01*
X155768684Y-104274303D01*
X155765174Y-104250642D01*
X155764000Y-104226750D01*
X155764000Y-103739250D01*
X155765174Y-103715358D01*
X155768684Y-103691697D01*
X155774496Y-103668493D01*
X155782554Y-103645971D01*
X155792782Y-103624347D01*
X155805079Y-103603830D01*
X155819329Y-103584617D01*
X155835393Y-103566893D01*
X155853117Y-103550829D01*
X155872330Y-103536579D01*
X155892847Y-103524282D01*
X155914471Y-103514054D01*
X155936993Y-103505996D01*
X155960197Y-103500184D01*
X155983858Y-103496674D01*
X156007750Y-103495500D01*
X156920250Y-103495500D01*
X156944142Y-103496674D01*
X156944142Y-103496674D01*
G37*
D11*
X156464000Y-103983000D03*
D10*
G36*
X156944142Y-101621674D02*
G01*
X156967803Y-101625184D01*
X156991007Y-101630996D01*
X157013529Y-101639054D01*
X157035153Y-101649282D01*
X157055670Y-101661579D01*
X157074883Y-101675829D01*
X157092607Y-101691893D01*
X157108671Y-101709617D01*
X157122921Y-101728830D01*
X157135218Y-101749347D01*
X157145446Y-101770971D01*
X157153504Y-101793493D01*
X157159316Y-101816697D01*
X157162826Y-101840358D01*
X157164000Y-101864250D01*
X157164000Y-102351750D01*
X157162826Y-102375642D01*
X157159316Y-102399303D01*
X157153504Y-102422507D01*
X157145446Y-102445029D01*
X157135218Y-102466653D01*
X157122921Y-102487170D01*
X157108671Y-102506383D01*
X157092607Y-102524107D01*
X157074883Y-102540171D01*
X157055670Y-102554421D01*
X157035153Y-102566718D01*
X157013529Y-102576946D01*
X156991007Y-102585004D01*
X156967803Y-102590816D01*
X156944142Y-102594326D01*
X156920250Y-102595500D01*
X156007750Y-102595500D01*
X155983858Y-102594326D01*
X155960197Y-102590816D01*
X155936993Y-102585004D01*
X155914471Y-102576946D01*
X155892847Y-102566718D01*
X155872330Y-102554421D01*
X155853117Y-102540171D01*
X155835393Y-102524107D01*
X155819329Y-102506383D01*
X155805079Y-102487170D01*
X155792782Y-102466653D01*
X155782554Y-102445029D01*
X155774496Y-102422507D01*
X155768684Y-102399303D01*
X155765174Y-102375642D01*
X155764000Y-102351750D01*
X155764000Y-101864250D01*
X155765174Y-101840358D01*
X155768684Y-101816697D01*
X155774496Y-101793493D01*
X155782554Y-101770971D01*
X155792782Y-101749347D01*
X155805079Y-101728830D01*
X155819329Y-101709617D01*
X155835393Y-101691893D01*
X155853117Y-101675829D01*
X155872330Y-101661579D01*
X155892847Y-101649282D01*
X155914471Y-101639054D01*
X155936993Y-101630996D01*
X155960197Y-101625184D01*
X155983858Y-101621674D01*
X156007750Y-101620500D01*
X156920250Y-101620500D01*
X156944142Y-101621674D01*
X156944142Y-101621674D01*
G37*
D11*
X156464000Y-102108000D03*
D10*
G36*
X156944142Y-93493674D02*
G01*
X156967803Y-93497184D01*
X156991007Y-93502996D01*
X157013529Y-93511054D01*
X157035153Y-93521282D01*
X157055670Y-93533579D01*
X157074883Y-93547829D01*
X157092607Y-93563893D01*
X157108671Y-93581617D01*
X157122921Y-93600830D01*
X157135218Y-93621347D01*
X157145446Y-93642971D01*
X157153504Y-93665493D01*
X157159316Y-93688697D01*
X157162826Y-93712358D01*
X157164000Y-93736250D01*
X157164000Y-94223750D01*
X157162826Y-94247642D01*
X157159316Y-94271303D01*
X157153504Y-94294507D01*
X157145446Y-94317029D01*
X157135218Y-94338653D01*
X157122921Y-94359170D01*
X157108671Y-94378383D01*
X157092607Y-94396107D01*
X157074883Y-94412171D01*
X157055670Y-94426421D01*
X157035153Y-94438718D01*
X157013529Y-94448946D01*
X156991007Y-94457004D01*
X156967803Y-94462816D01*
X156944142Y-94466326D01*
X156920250Y-94467500D01*
X156007750Y-94467500D01*
X155983858Y-94466326D01*
X155960197Y-94462816D01*
X155936993Y-94457004D01*
X155914471Y-94448946D01*
X155892847Y-94438718D01*
X155872330Y-94426421D01*
X155853117Y-94412171D01*
X155835393Y-94396107D01*
X155819329Y-94378383D01*
X155805079Y-94359170D01*
X155792782Y-94338653D01*
X155782554Y-94317029D01*
X155774496Y-94294507D01*
X155768684Y-94271303D01*
X155765174Y-94247642D01*
X155764000Y-94223750D01*
X155764000Y-93736250D01*
X155765174Y-93712358D01*
X155768684Y-93688697D01*
X155774496Y-93665493D01*
X155782554Y-93642971D01*
X155792782Y-93621347D01*
X155805079Y-93600830D01*
X155819329Y-93581617D01*
X155835393Y-93563893D01*
X155853117Y-93547829D01*
X155872330Y-93533579D01*
X155892847Y-93521282D01*
X155914471Y-93511054D01*
X155936993Y-93502996D01*
X155960197Y-93497184D01*
X155983858Y-93493674D01*
X156007750Y-93492500D01*
X156920250Y-93492500D01*
X156944142Y-93493674D01*
X156944142Y-93493674D01*
G37*
D11*
X156464000Y-93980000D03*
D10*
G36*
X156944142Y-95368674D02*
G01*
X156967803Y-95372184D01*
X156991007Y-95377996D01*
X157013529Y-95386054D01*
X157035153Y-95396282D01*
X157055670Y-95408579D01*
X157074883Y-95422829D01*
X157092607Y-95438893D01*
X157108671Y-95456617D01*
X157122921Y-95475830D01*
X157135218Y-95496347D01*
X157145446Y-95517971D01*
X157153504Y-95540493D01*
X157159316Y-95563697D01*
X157162826Y-95587358D01*
X157164000Y-95611250D01*
X157164000Y-96098750D01*
X157162826Y-96122642D01*
X157159316Y-96146303D01*
X157153504Y-96169507D01*
X157145446Y-96192029D01*
X157135218Y-96213653D01*
X157122921Y-96234170D01*
X157108671Y-96253383D01*
X157092607Y-96271107D01*
X157074883Y-96287171D01*
X157055670Y-96301421D01*
X157035153Y-96313718D01*
X157013529Y-96323946D01*
X156991007Y-96332004D01*
X156967803Y-96337816D01*
X156944142Y-96341326D01*
X156920250Y-96342500D01*
X156007750Y-96342500D01*
X155983858Y-96341326D01*
X155960197Y-96337816D01*
X155936993Y-96332004D01*
X155914471Y-96323946D01*
X155892847Y-96313718D01*
X155872330Y-96301421D01*
X155853117Y-96287171D01*
X155835393Y-96271107D01*
X155819329Y-96253383D01*
X155805079Y-96234170D01*
X155792782Y-96213653D01*
X155782554Y-96192029D01*
X155774496Y-96169507D01*
X155768684Y-96146303D01*
X155765174Y-96122642D01*
X155764000Y-96098750D01*
X155764000Y-95611250D01*
X155765174Y-95587358D01*
X155768684Y-95563697D01*
X155774496Y-95540493D01*
X155782554Y-95517971D01*
X155792782Y-95496347D01*
X155805079Y-95475830D01*
X155819329Y-95456617D01*
X155835393Y-95438893D01*
X155853117Y-95422829D01*
X155872330Y-95408579D01*
X155892847Y-95396282D01*
X155914471Y-95386054D01*
X155936993Y-95377996D01*
X155960197Y-95372184D01*
X155983858Y-95368674D01*
X156007750Y-95367500D01*
X156920250Y-95367500D01*
X156944142Y-95368674D01*
X156944142Y-95368674D01*
G37*
D11*
X156464000Y-95855000D03*
D10*
G36*
X157304004Y-99712204D02*
G01*
X157328273Y-99715804D01*
X157352071Y-99721765D01*
X157375171Y-99730030D01*
X157397349Y-99740520D01*
X157418393Y-99753133D01*
X157438098Y-99767747D01*
X157456277Y-99784223D01*
X157472753Y-99802402D01*
X157487367Y-99822107D01*
X157499980Y-99843151D01*
X157510470Y-99865329D01*
X157518735Y-99888429D01*
X157524696Y-99912227D01*
X157528296Y-99936496D01*
X157529500Y-99961000D01*
X157529500Y-100711000D01*
X157528296Y-100735504D01*
X157524696Y-100759773D01*
X157518735Y-100783571D01*
X157510470Y-100806671D01*
X157499980Y-100828849D01*
X157487367Y-100849893D01*
X157472753Y-100869598D01*
X157456277Y-100887777D01*
X157438098Y-100904253D01*
X157418393Y-100918867D01*
X157397349Y-100931480D01*
X157375171Y-100941970D01*
X157352071Y-100950235D01*
X157328273Y-100956196D01*
X157304004Y-100959796D01*
X157279500Y-100961000D01*
X156029500Y-100961000D01*
X156004996Y-100959796D01*
X155980727Y-100956196D01*
X155956929Y-100950235D01*
X155933829Y-100941970D01*
X155911651Y-100931480D01*
X155890607Y-100918867D01*
X155870902Y-100904253D01*
X155852723Y-100887777D01*
X155836247Y-100869598D01*
X155821633Y-100849893D01*
X155809020Y-100828849D01*
X155798530Y-100806671D01*
X155790265Y-100783571D01*
X155784304Y-100759773D01*
X155780704Y-100735504D01*
X155779500Y-100711000D01*
X155779500Y-99961000D01*
X155780704Y-99936496D01*
X155784304Y-99912227D01*
X155790265Y-99888429D01*
X155798530Y-99865329D01*
X155809020Y-99843151D01*
X155821633Y-99822107D01*
X155836247Y-99802402D01*
X155852723Y-99784223D01*
X155870902Y-99767747D01*
X155890607Y-99753133D01*
X155911651Y-99740520D01*
X155933829Y-99730030D01*
X155956929Y-99721765D01*
X155980727Y-99715804D01*
X156004996Y-99712204D01*
X156029500Y-99711000D01*
X157279500Y-99711000D01*
X157304004Y-99712204D01*
X157304004Y-99712204D01*
G37*
D14*
X156654500Y-100336000D03*
D10*
G36*
X157304004Y-96912204D02*
G01*
X157328273Y-96915804D01*
X157352071Y-96921765D01*
X157375171Y-96930030D01*
X157397349Y-96940520D01*
X157418393Y-96953133D01*
X157438098Y-96967747D01*
X157456277Y-96984223D01*
X157472753Y-97002402D01*
X157487367Y-97022107D01*
X157499980Y-97043151D01*
X157510470Y-97065329D01*
X157518735Y-97088429D01*
X157524696Y-97112227D01*
X157528296Y-97136496D01*
X157529500Y-97161000D01*
X157529500Y-97911000D01*
X157528296Y-97935504D01*
X157524696Y-97959773D01*
X157518735Y-97983571D01*
X157510470Y-98006671D01*
X157499980Y-98028849D01*
X157487367Y-98049893D01*
X157472753Y-98069598D01*
X157456277Y-98087777D01*
X157438098Y-98104253D01*
X157418393Y-98118867D01*
X157397349Y-98131480D01*
X157375171Y-98141970D01*
X157352071Y-98150235D01*
X157328273Y-98156196D01*
X157304004Y-98159796D01*
X157279500Y-98161000D01*
X156029500Y-98161000D01*
X156004996Y-98159796D01*
X155980727Y-98156196D01*
X155956929Y-98150235D01*
X155933829Y-98141970D01*
X155911651Y-98131480D01*
X155890607Y-98118867D01*
X155870902Y-98104253D01*
X155852723Y-98087777D01*
X155836247Y-98069598D01*
X155821633Y-98049893D01*
X155809020Y-98028849D01*
X155798530Y-98006671D01*
X155790265Y-97983571D01*
X155784304Y-97959773D01*
X155780704Y-97935504D01*
X155779500Y-97911000D01*
X155779500Y-97161000D01*
X155780704Y-97136496D01*
X155784304Y-97112227D01*
X155790265Y-97088429D01*
X155798530Y-97065329D01*
X155809020Y-97043151D01*
X155821633Y-97022107D01*
X155836247Y-97002402D01*
X155852723Y-96984223D01*
X155870902Y-96967747D01*
X155890607Y-96953133D01*
X155911651Y-96940520D01*
X155933829Y-96930030D01*
X155956929Y-96921765D01*
X155980727Y-96915804D01*
X156004996Y-96912204D01*
X156029500Y-96911000D01*
X157279500Y-96911000D01*
X157304004Y-96912204D01*
X157304004Y-96912204D01*
G37*
D14*
X156654500Y-97536000D03*
D15*
X153924000Y-95885000D03*
X146304000Y-111125000D03*
X153924000Y-98425000D03*
X146304000Y-108585000D03*
X153924000Y-100965000D03*
X146304000Y-106045000D03*
X153924000Y-103505000D03*
X146304000Y-103505000D03*
X153924000Y-106045000D03*
X146304000Y-100965000D03*
X153924000Y-108585000D03*
X146304000Y-98425000D03*
X153924000Y-111125000D03*
D16*
X146304000Y-95885000D03*
D17*
X148590000Y-92329000D03*
X148590000Y-87249000D03*
X153670000Y-87249000D03*
X153670000Y-92329000D03*
D18*
X151130000Y-89789000D03*
D19*
X156464000Y-104140000D03*
D20*
X156434000Y-95885000D02*
X156464000Y-95855000D01*
X153924000Y-95885000D02*
X156434000Y-95885000D01*
X156464000Y-97345500D02*
X156654500Y-97536000D01*
X156464000Y-95855000D02*
X156464000Y-97345500D01*
X156654500Y-101917500D02*
X156464000Y-102108000D01*
X156654500Y-100336000D02*
X156654500Y-101917500D01*
D21*
X152113000Y-103617000D02*
X151318000Y-103617000D01*
X153290999Y-104794999D02*
X152113000Y-103617000D01*
X155262499Y-104794999D02*
X153290999Y-104794999D01*
X156464000Y-105996500D02*
X155262499Y-104794999D01*
X155907763Y-102664237D02*
X156464000Y-102108000D01*
X155313990Y-103258010D02*
X155907763Y-102664237D01*
X155313990Y-104846490D02*
X155313990Y-103258010D01*
X156464000Y-105996500D02*
X155313990Y-104846490D01*
D22*
X151089000Y-89830000D02*
X151130000Y-89789000D01*
D23*
X150368000Y-90551000D02*
X151130000Y-89789000D01*
X149837000Y-99314000D02*
X150368000Y-99314000D01*
X150368000Y-101107000D02*
X150368000Y-99314000D01*
X150368000Y-99314000D02*
X150368000Y-90551000D01*
X150368000Y-99314000D02*
X150922000Y-99314000D01*
X149418000Y-106619000D02*
X149418000Y-103617000D01*
X153924000Y-111125000D02*
X149418000Y-106619000D01*
D24*
G36*
X147250101Y-86088709D02*
G01*
X147365467Y-86204075D01*
X147088286Y-86314921D01*
X146934911Y-86625840D01*
X146845140Y-86960705D01*
X146822424Y-87306650D01*
X146867634Y-87650380D01*
X146979034Y-87978685D01*
X147088286Y-88183079D01*
X147365469Y-88293926D01*
X148410395Y-87249000D01*
X148396253Y-87234858D01*
X148575858Y-87055253D01*
X148590000Y-87069395D01*
X148604143Y-87055253D01*
X148783748Y-87234858D01*
X148769605Y-87249000D01*
X149814531Y-88293926D01*
X150091714Y-88183079D01*
X150245089Y-87872160D01*
X150334860Y-87537295D01*
X150357576Y-87191350D01*
X150312366Y-86847620D01*
X150200966Y-86519315D01*
X150091714Y-86314921D01*
X149814533Y-86204075D01*
X149929899Y-86088709D01*
X149872190Y-86031000D01*
X152387810Y-86031000D01*
X152330101Y-86088709D01*
X152445467Y-86204075D01*
X152168286Y-86314921D01*
X152014911Y-86625840D01*
X151925140Y-86960705D01*
X151902424Y-87306650D01*
X151947634Y-87650380D01*
X152059034Y-87978685D01*
X152168286Y-88183079D01*
X152445469Y-88293926D01*
X153490395Y-87249000D01*
X153476253Y-87234858D01*
X153655858Y-87055253D01*
X153670000Y-87069395D01*
X153684143Y-87055253D01*
X153863748Y-87234858D01*
X153849605Y-87249000D01*
X154894531Y-88293926D01*
X155171714Y-88183079D01*
X155325089Y-87872160D01*
X155414860Y-87537295D01*
X155437576Y-87191350D01*
X155392366Y-86847620D01*
X155280966Y-86519315D01*
X155171714Y-86314921D01*
X154894533Y-86204075D01*
X155009899Y-86088709D01*
X154952190Y-86031000D01*
X157301000Y-86031000D01*
X157301000Y-92870485D01*
X157288482Y-92866688D01*
X157164000Y-92854428D01*
X156749750Y-92857500D01*
X156591000Y-93016250D01*
X156591000Y-93853000D01*
X156611000Y-93853000D01*
X156611000Y-94107000D01*
X156591000Y-94107000D01*
X156591000Y-94127000D01*
X156337000Y-94127000D01*
X156337000Y-94107000D01*
X155287750Y-94107000D01*
X155129000Y-94265750D01*
X155125928Y-94467500D01*
X155138188Y-94591982D01*
X155174498Y-94711680D01*
X155199257Y-94758000D01*
X154800139Y-94758000D01*
X154720634Y-94692752D01*
X154472731Y-94560245D01*
X154203741Y-94478648D01*
X153994098Y-94458000D01*
X153853902Y-94458000D01*
X153644259Y-94478648D01*
X153375269Y-94560245D01*
X153127366Y-94692752D01*
X152910077Y-94871077D01*
X152731752Y-95088366D01*
X152599245Y-95336269D01*
X152517648Y-95605259D01*
X152490096Y-95885000D01*
X152517648Y-96164741D01*
X152599245Y-96433731D01*
X152731752Y-96681634D01*
X152910077Y-96898923D01*
X153127366Y-97077248D01*
X153272830Y-97155000D01*
X153127366Y-97232752D01*
X152910077Y-97411077D01*
X152731752Y-97628366D01*
X152599245Y-97876269D01*
X152517648Y-98145259D01*
X152490096Y-98425000D01*
X152491239Y-98436600D01*
X152431180Y-98404498D01*
X152311482Y-98368188D01*
X152187000Y-98355928D01*
X152177750Y-98359000D01*
X152019000Y-98517750D01*
X152019000Y-99187000D01*
X152039000Y-99187000D01*
X152039000Y-99441000D01*
X152019000Y-99441000D01*
X152019000Y-99461000D01*
X151847033Y-99461000D01*
X151847033Y-99379509D01*
X151853485Y-99314000D01*
X151847033Y-99248491D01*
X151847033Y-99141500D01*
X151832093Y-98989811D01*
X151787847Y-98843951D01*
X151765000Y-98801207D01*
X151765000Y-98517750D01*
X151606250Y-98359000D01*
X151597000Y-98355928D01*
X151472518Y-98368188D01*
X151352820Y-98404498D01*
X151335707Y-98413645D01*
X151295000Y-98401297D01*
X151295000Y-93553531D01*
X152625074Y-93553531D01*
X152735921Y-93830714D01*
X153046840Y-93984089D01*
X153381705Y-94073860D01*
X153727650Y-94096576D01*
X154071380Y-94051366D01*
X154399685Y-93939966D01*
X154604079Y-93830714D01*
X154714926Y-93553531D01*
X153670000Y-92508605D01*
X152625074Y-93553531D01*
X151295000Y-93553531D01*
X151295000Y-92386650D01*
X151902424Y-92386650D01*
X151947634Y-92730380D01*
X152059034Y-93058685D01*
X152168286Y-93263079D01*
X152445469Y-93373926D01*
X153490395Y-92329000D01*
X153849605Y-92329000D01*
X154894531Y-93373926D01*
X155169787Y-93263850D01*
X155138188Y-93368018D01*
X155125928Y-93492500D01*
X155129000Y-93694250D01*
X155287750Y-93853000D01*
X156337000Y-93853000D01*
X156337000Y-93016250D01*
X156178250Y-92857500D01*
X155764000Y-92854428D01*
X155639518Y-92866688D01*
X155519820Y-92902998D01*
X155409506Y-92961963D01*
X155312815Y-93041315D01*
X155233463Y-93138006D01*
X155232801Y-93139244D01*
X155325089Y-92952160D01*
X155414860Y-92617295D01*
X155437576Y-92271350D01*
X155392366Y-91927620D01*
X155280966Y-91599315D01*
X155171714Y-91394921D01*
X154894531Y-91284074D01*
X153849605Y-92329000D01*
X153490395Y-92329000D01*
X152445469Y-91284074D01*
X152168286Y-91394921D01*
X152014911Y-91705840D01*
X151925140Y-92040705D01*
X151902424Y-92386650D01*
X151295000Y-92386650D01*
X151295000Y-91440544D01*
X151611871Y-91377514D01*
X151912515Y-91252983D01*
X152134782Y-91104469D01*
X152625074Y-91104469D01*
X153670000Y-92149395D01*
X154714926Y-91104469D01*
X154604079Y-90827286D01*
X154293160Y-90673911D01*
X153958295Y-90584140D01*
X153612350Y-90561424D01*
X153268620Y-90606634D01*
X152940315Y-90718034D01*
X152735921Y-90827286D01*
X152625074Y-91104469D01*
X152134782Y-91104469D01*
X152183088Y-91072192D01*
X152413192Y-90842088D01*
X152593983Y-90571515D01*
X152718514Y-90270871D01*
X152782000Y-89951708D01*
X152782000Y-89626292D01*
X152718514Y-89307129D01*
X152593983Y-89006485D01*
X152413192Y-88735912D01*
X152183088Y-88505808D01*
X152134783Y-88473531D01*
X152625074Y-88473531D01*
X152735921Y-88750714D01*
X153046840Y-88904089D01*
X153381705Y-88993860D01*
X153727650Y-89016576D01*
X154071380Y-88971366D01*
X154399685Y-88859966D01*
X154604079Y-88750714D01*
X154714926Y-88473531D01*
X153670000Y-87428605D01*
X152625074Y-88473531D01*
X152134783Y-88473531D01*
X151912515Y-88325017D01*
X151611871Y-88200486D01*
X151292708Y-88137000D01*
X150967292Y-88137000D01*
X150648129Y-88200486D01*
X150347485Y-88325017D01*
X150076912Y-88505808D01*
X149846808Y-88735912D01*
X149666017Y-89006485D01*
X149541486Y-89307129D01*
X149478000Y-89626292D01*
X149478000Y-89951708D01*
X149521181Y-90168792D01*
X149507420Y-90194537D01*
X149490390Y-90250679D01*
X149454414Y-90369276D01*
X149441001Y-90505462D01*
X149436516Y-90551000D01*
X149441001Y-90596537D01*
X149441001Y-90786304D01*
X149213160Y-90673911D01*
X148878295Y-90584140D01*
X148532350Y-90561424D01*
X148188620Y-90606634D01*
X147860315Y-90718034D01*
X147655921Y-90827286D01*
X147545074Y-91104469D01*
X148590000Y-92149395D01*
X148604143Y-92135253D01*
X148783748Y-92314858D01*
X148769605Y-92329000D01*
X148783748Y-92343143D01*
X148604143Y-92522748D01*
X148590000Y-92508605D01*
X147545074Y-93553531D01*
X147655921Y-93830714D01*
X147966840Y-93984089D01*
X148301705Y-94073860D01*
X148647650Y-94096576D01*
X148991380Y-94051366D01*
X149319685Y-93939966D01*
X149441001Y-93875121D01*
X149441000Y-98408274D01*
X149423293Y-98413645D01*
X149406180Y-98404498D01*
X149286482Y-98368188D01*
X149162000Y-98355928D01*
X149152750Y-98359000D01*
X148994000Y-98517750D01*
X148994000Y-98801207D01*
X148971153Y-98843951D01*
X148926907Y-98989811D01*
X148911967Y-99141500D01*
X148911967Y-99248491D01*
X148905515Y-99314000D01*
X148911967Y-99379509D01*
X148911967Y-99461000D01*
X148740000Y-99461000D01*
X148740000Y-99441000D01*
X148095750Y-99441000D01*
X147937000Y-99599750D01*
X147933928Y-99634000D01*
X147946188Y-99758482D01*
X147982498Y-99878180D01*
X148041463Y-99988494D01*
X148120815Y-100085185D01*
X148217506Y-100164537D01*
X148327820Y-100223502D01*
X148447518Y-100259812D01*
X148530417Y-100267977D01*
X148497188Y-100377518D01*
X148484928Y-100502000D01*
X148488000Y-100821250D01*
X148646750Y-100980000D01*
X149291000Y-100980000D01*
X149291000Y-100960000D01*
X149441000Y-100960000D01*
X149441000Y-101152537D01*
X149442967Y-101172509D01*
X149442967Y-101712000D01*
X149455073Y-101834913D01*
X149490925Y-101953103D01*
X149545000Y-102054270D01*
X149545000Y-102188250D01*
X149703750Y-102347000D01*
X149713000Y-102350072D01*
X149837482Y-102337812D01*
X149906781Y-102316790D01*
X149950087Y-102329927D01*
X150073000Y-102342033D01*
X150663000Y-102342033D01*
X150785913Y-102329927D01*
X150843000Y-102312610D01*
X150900087Y-102329927D01*
X151023000Y-102342033D01*
X151613000Y-102342033D01*
X151735913Y-102329927D01*
X151854103Y-102294075D01*
X151963028Y-102235853D01*
X152058501Y-102157501D01*
X152136853Y-102062028D01*
X152195075Y-101953103D01*
X152230927Y-101834913D01*
X152243033Y-101712000D01*
X152243033Y-100502000D01*
X152230927Y-100379087D01*
X152198132Y-100270976D01*
X152311482Y-100259812D01*
X152431180Y-100223502D01*
X152541494Y-100164537D01*
X152638185Y-100085185D01*
X152717537Y-99988494D01*
X152776502Y-99878180D01*
X152812812Y-99758482D01*
X152825072Y-99634000D01*
X152822000Y-99599750D01*
X152663252Y-99441002D01*
X152822000Y-99441002D01*
X152822000Y-99331601D01*
X152910077Y-99438923D01*
X153127366Y-99617248D01*
X153272830Y-99695000D01*
X153127366Y-99772752D01*
X152910077Y-99951077D01*
X152731752Y-100168366D01*
X152599245Y-100416269D01*
X152517648Y-100685259D01*
X152490096Y-100965000D01*
X152517648Y-101244741D01*
X152599245Y-101513731D01*
X152731752Y-101761634D01*
X152910077Y-101978923D01*
X153127366Y-102157248D01*
X153272830Y-102235000D01*
X153127366Y-102312752D01*
X152910077Y-102491077D01*
X152731752Y-102708366D01*
X152627014Y-102904316D01*
X152602592Y-102884273D01*
X152450237Y-102802838D01*
X152284922Y-102752690D01*
X152179809Y-102742337D01*
X152136853Y-102661972D01*
X152058501Y-102566499D01*
X151963028Y-102488147D01*
X151854103Y-102429925D01*
X151735913Y-102394073D01*
X151613000Y-102381967D01*
X151023000Y-102381967D01*
X150900087Y-102394073D01*
X150781897Y-102429925D01*
X150672972Y-102488147D01*
X150577499Y-102566499D01*
X150499147Y-102661972D01*
X150440925Y-102770897D01*
X150405073Y-102889087D01*
X150392967Y-103012000D01*
X150392967Y-104222000D01*
X150405073Y-104344913D01*
X150440925Y-104463103D01*
X150499147Y-104572028D01*
X150577499Y-104667501D01*
X150672972Y-104745853D01*
X150781897Y-104804075D01*
X150900087Y-104839927D01*
X151023000Y-104852033D01*
X151613000Y-104852033D01*
X151735913Y-104839927D01*
X151854103Y-104804075D01*
X151963028Y-104745853D01*
X151984207Y-104728472D01*
X152640402Y-105384667D01*
X152651603Y-105398315D01*
X152599245Y-105496269D01*
X152517648Y-105765259D01*
X152490096Y-106045000D01*
X152517648Y-106324741D01*
X152599245Y-106593731D01*
X152731752Y-106841634D01*
X152910077Y-107058923D01*
X153127366Y-107237248D01*
X153272830Y-107315000D01*
X153127366Y-107392752D01*
X152910077Y-107571077D01*
X152731752Y-107788366D01*
X152599245Y-108036269D01*
X152517648Y-108305259D01*
X152508466Y-108398491D01*
X150345000Y-106235025D01*
X150345000Y-103571462D01*
X150343033Y-103551490D01*
X150343033Y-103012000D01*
X150330927Y-102889087D01*
X150295075Y-102770897D01*
X150236853Y-102661972D01*
X150158501Y-102566499D01*
X150063028Y-102488147D01*
X149954103Y-102429925D01*
X149835913Y-102394073D01*
X149713000Y-102381967D01*
X149123000Y-102381967D01*
X149000087Y-102394073D01*
X148881897Y-102429925D01*
X148772972Y-102488147D01*
X148677499Y-102566499D01*
X148599147Y-102661972D01*
X148540925Y-102770897D01*
X148505073Y-102889087D01*
X148492967Y-103012000D01*
X148492967Y-103551501D01*
X148491001Y-103571462D01*
X148491000Y-106573472D01*
X148486516Y-106619000D01*
X148491000Y-106664527D01*
X148491000Y-106664537D01*
X148504413Y-106800723D01*
X148544483Y-106932815D01*
X148557420Y-106975463D01*
X148643499Y-107136505D01*
X148678085Y-107178648D01*
X148759341Y-107277659D01*
X148794713Y-107306688D01*
X152501118Y-111013093D01*
X152490096Y-111125000D01*
X152517648Y-111404741D01*
X152599245Y-111673731D01*
X152731752Y-111921634D01*
X152910077Y-112138923D01*
X153127366Y-112317248D01*
X153375269Y-112449755D01*
X153644259Y-112531352D01*
X153853902Y-112552000D01*
X153994098Y-112552000D01*
X154203741Y-112531352D01*
X154472731Y-112449755D01*
X154720634Y-112317248D01*
X154937923Y-112138923D01*
X155116248Y-111921634D01*
X155248755Y-111673731D01*
X155330352Y-111404741D01*
X155357904Y-111125000D01*
X155330352Y-110845259D01*
X155248755Y-110576269D01*
X155116248Y-110328366D01*
X154937923Y-110111077D01*
X154720634Y-109932752D01*
X154575170Y-109855000D01*
X154720634Y-109777248D01*
X154937923Y-109598923D01*
X155116248Y-109381634D01*
X155248755Y-109133731D01*
X155330352Y-108864741D01*
X155334012Y-108827581D01*
X155409506Y-108889537D01*
X155519820Y-108948502D01*
X155639518Y-108984812D01*
X155764000Y-108997072D01*
X156178250Y-108994000D01*
X156337000Y-108835250D01*
X156337000Y-107998500D01*
X156317000Y-107998500D01*
X156317000Y-107744500D01*
X156337000Y-107744500D01*
X156337000Y-107724500D01*
X156591000Y-107724500D01*
X156591000Y-107744500D01*
X156611000Y-107744500D01*
X156611000Y-107998500D01*
X156591000Y-107998500D01*
X156591000Y-108835250D01*
X156749750Y-108994000D01*
X157164000Y-108997072D01*
X157288482Y-108984812D01*
X157301001Y-108981014D01*
X157301001Y-114121000D01*
X145213000Y-114121000D01*
X145213000Y-112051340D01*
X145240481Y-112088414D01*
X145448869Y-112277385D01*
X145690119Y-112422070D01*
X145954960Y-112516909D01*
X146177000Y-112395624D01*
X146177000Y-111252000D01*
X146431000Y-111252000D01*
X146431000Y-112395624D01*
X146653040Y-112516909D01*
X146917881Y-112422070D01*
X147159131Y-112277385D01*
X147367519Y-112088414D01*
X147535037Y-111862420D01*
X147655246Y-111608087D01*
X147695904Y-111474039D01*
X147573915Y-111252000D01*
X146431000Y-111252000D01*
X146177000Y-111252000D01*
X146157000Y-111252000D01*
X146157000Y-110998000D01*
X146177000Y-110998000D01*
X146177000Y-110978000D01*
X146431000Y-110978000D01*
X146431000Y-110998000D01*
X147573915Y-110998000D01*
X147695904Y-110775961D01*
X147655246Y-110641913D01*
X147535037Y-110387580D01*
X147367519Y-110161586D01*
X147159131Y-109972615D01*
X146959320Y-109852782D01*
X147100634Y-109777248D01*
X147317923Y-109598923D01*
X147496248Y-109381634D01*
X147628755Y-109133731D01*
X147710352Y-108864741D01*
X147737904Y-108585000D01*
X147710352Y-108305259D01*
X147628755Y-108036269D01*
X147496248Y-107788366D01*
X147317923Y-107571077D01*
X147100634Y-107392752D01*
X146955170Y-107315000D01*
X147100634Y-107237248D01*
X147317923Y-107058923D01*
X147496248Y-106841634D01*
X147628755Y-106593731D01*
X147710352Y-106324741D01*
X147737904Y-106045000D01*
X147710352Y-105765259D01*
X147628755Y-105496269D01*
X147496248Y-105248366D01*
X147317923Y-105031077D01*
X147100634Y-104852752D01*
X146955170Y-104775000D01*
X147100634Y-104697248D01*
X147317923Y-104518923D01*
X147496248Y-104301634D01*
X147628755Y-104053731D01*
X147710352Y-103784741D01*
X147737904Y-103505000D01*
X147710352Y-103225259D01*
X147628755Y-102956269D01*
X147496248Y-102708366D01*
X147317923Y-102491077D01*
X147100634Y-102312752D01*
X146955170Y-102235000D01*
X147100634Y-102157248D01*
X147317923Y-101978923D01*
X147496248Y-101761634D01*
X147522777Y-101712000D01*
X148484928Y-101712000D01*
X148497188Y-101836482D01*
X148533498Y-101956180D01*
X148592463Y-102066494D01*
X148671815Y-102163185D01*
X148768506Y-102242537D01*
X148878820Y-102301502D01*
X148998518Y-102337812D01*
X149123000Y-102350072D01*
X149132250Y-102347000D01*
X149291000Y-102188250D01*
X149291000Y-101234000D01*
X148646750Y-101234000D01*
X148488000Y-101392750D01*
X148484928Y-101712000D01*
X147522777Y-101712000D01*
X147628755Y-101513731D01*
X147710352Y-101244741D01*
X147737904Y-100965000D01*
X147710352Y-100685259D01*
X147628755Y-100416269D01*
X147496248Y-100168366D01*
X147317923Y-99951077D01*
X147100634Y-99772752D01*
X146955170Y-99695000D01*
X147100634Y-99617248D01*
X147317923Y-99438923D01*
X147496248Y-99221634D01*
X147617920Y-98994000D01*
X147933928Y-98994000D01*
X147937000Y-99028250D01*
X148095750Y-99187000D01*
X148740000Y-99187000D01*
X148740000Y-98517750D01*
X148581250Y-98359000D01*
X148572000Y-98355928D01*
X148447518Y-98368188D01*
X148327820Y-98404498D01*
X148217506Y-98463463D01*
X148120815Y-98542815D01*
X148041463Y-98639506D01*
X147982498Y-98749820D01*
X147946188Y-98869518D01*
X147933928Y-98994000D01*
X147617920Y-98994000D01*
X147628755Y-98973731D01*
X147710352Y-98704741D01*
X147737904Y-98425000D01*
X147710352Y-98145259D01*
X147628755Y-97876269D01*
X147496248Y-97628366D01*
X147317923Y-97411077D01*
X147190511Y-97306512D01*
X147226913Y-97302927D01*
X147345103Y-97267075D01*
X147454028Y-97208853D01*
X147549501Y-97130501D01*
X147627853Y-97035028D01*
X147686075Y-96926103D01*
X147721927Y-96807913D01*
X147734033Y-96685000D01*
X147734033Y-95085000D01*
X147721927Y-94962087D01*
X147686075Y-94843897D01*
X147627853Y-94734972D01*
X147549501Y-94639499D01*
X147454028Y-94561147D01*
X147345103Y-94502925D01*
X147226913Y-94467073D01*
X147104000Y-94454967D01*
X145504000Y-94454967D01*
X145381087Y-94467073D01*
X145262897Y-94502925D01*
X145213000Y-94529596D01*
X145213000Y-92386650D01*
X146822424Y-92386650D01*
X146867634Y-92730380D01*
X146979034Y-93058685D01*
X147088286Y-93263079D01*
X147365469Y-93373926D01*
X148410395Y-92329000D01*
X147365469Y-91284074D01*
X147088286Y-91394921D01*
X146934911Y-91705840D01*
X146845140Y-92040705D01*
X146822424Y-92386650D01*
X145213000Y-92386650D01*
X145213000Y-88473531D01*
X147545074Y-88473531D01*
X147655921Y-88750714D01*
X147966840Y-88904089D01*
X148301705Y-88993860D01*
X148647650Y-89016576D01*
X148991380Y-88971366D01*
X149319685Y-88859966D01*
X149524079Y-88750714D01*
X149634926Y-88473531D01*
X148590000Y-87428605D01*
X147545074Y-88473531D01*
X145213000Y-88473531D01*
X145213000Y-86031000D01*
X147307810Y-86031000D01*
X147250101Y-86088709D01*
X147250101Y-86088709D01*
G37*
X147250101Y-86088709D02*
X147365467Y-86204075D01*
X147088286Y-86314921D01*
X146934911Y-86625840D01*
X146845140Y-86960705D01*
X146822424Y-87306650D01*
X146867634Y-87650380D01*
X146979034Y-87978685D01*
X147088286Y-88183079D01*
X147365469Y-88293926D01*
X148410395Y-87249000D01*
X148396253Y-87234858D01*
X148575858Y-87055253D01*
X148590000Y-87069395D01*
X148604143Y-87055253D01*
X148783748Y-87234858D01*
X148769605Y-87249000D01*
X149814531Y-88293926D01*
X150091714Y-88183079D01*
X150245089Y-87872160D01*
X150334860Y-87537295D01*
X150357576Y-87191350D01*
X150312366Y-86847620D01*
X150200966Y-86519315D01*
X150091714Y-86314921D01*
X149814533Y-86204075D01*
X149929899Y-86088709D01*
X149872190Y-86031000D01*
X152387810Y-86031000D01*
X152330101Y-86088709D01*
X152445467Y-86204075D01*
X152168286Y-86314921D01*
X152014911Y-86625840D01*
X151925140Y-86960705D01*
X151902424Y-87306650D01*
X151947634Y-87650380D01*
X152059034Y-87978685D01*
X152168286Y-88183079D01*
X152445469Y-88293926D01*
X153490395Y-87249000D01*
X153476253Y-87234858D01*
X153655858Y-87055253D01*
X153670000Y-87069395D01*
X153684143Y-87055253D01*
X153863748Y-87234858D01*
X153849605Y-87249000D01*
X154894531Y-88293926D01*
X155171714Y-88183079D01*
X155325089Y-87872160D01*
X155414860Y-87537295D01*
X155437576Y-87191350D01*
X155392366Y-86847620D01*
X155280966Y-86519315D01*
X155171714Y-86314921D01*
X154894533Y-86204075D01*
X155009899Y-86088709D01*
X154952190Y-86031000D01*
X157301000Y-86031000D01*
X157301000Y-92870485D01*
X157288482Y-92866688D01*
X157164000Y-92854428D01*
X156749750Y-92857500D01*
X156591000Y-93016250D01*
X156591000Y-93853000D01*
X156611000Y-93853000D01*
X156611000Y-94107000D01*
X156591000Y-94107000D01*
X156591000Y-94127000D01*
X156337000Y-94127000D01*
X156337000Y-94107000D01*
X155287750Y-94107000D01*
X155129000Y-94265750D01*
X155125928Y-94467500D01*
X155138188Y-94591982D01*
X155174498Y-94711680D01*
X155199257Y-94758000D01*
X154800139Y-94758000D01*
X154720634Y-94692752D01*
X154472731Y-94560245D01*
X154203741Y-94478648D01*
X153994098Y-94458000D01*
X153853902Y-94458000D01*
X153644259Y-94478648D01*
X153375269Y-94560245D01*
X153127366Y-94692752D01*
X152910077Y-94871077D01*
X152731752Y-95088366D01*
X152599245Y-95336269D01*
X152517648Y-95605259D01*
X152490096Y-95885000D01*
X152517648Y-96164741D01*
X152599245Y-96433731D01*
X152731752Y-96681634D01*
X152910077Y-96898923D01*
X153127366Y-97077248D01*
X153272830Y-97155000D01*
X153127366Y-97232752D01*
X152910077Y-97411077D01*
X152731752Y-97628366D01*
X152599245Y-97876269D01*
X152517648Y-98145259D01*
X152490096Y-98425000D01*
X152491239Y-98436600D01*
X152431180Y-98404498D01*
X152311482Y-98368188D01*
X152187000Y-98355928D01*
X152177750Y-98359000D01*
X152019000Y-98517750D01*
X152019000Y-99187000D01*
X152039000Y-99187000D01*
X152039000Y-99441000D01*
X152019000Y-99441000D01*
X152019000Y-99461000D01*
X151847033Y-99461000D01*
X151847033Y-99379509D01*
X151853485Y-99314000D01*
X151847033Y-99248491D01*
X151847033Y-99141500D01*
X151832093Y-98989811D01*
X151787847Y-98843951D01*
X151765000Y-98801207D01*
X151765000Y-98517750D01*
X151606250Y-98359000D01*
X151597000Y-98355928D01*
X151472518Y-98368188D01*
X151352820Y-98404498D01*
X151335707Y-98413645D01*
X151295000Y-98401297D01*
X151295000Y-93553531D01*
X152625074Y-93553531D01*
X152735921Y-93830714D01*
X153046840Y-93984089D01*
X153381705Y-94073860D01*
X153727650Y-94096576D01*
X154071380Y-94051366D01*
X154399685Y-93939966D01*
X154604079Y-93830714D01*
X154714926Y-93553531D01*
X153670000Y-92508605D01*
X152625074Y-93553531D01*
X151295000Y-93553531D01*
X151295000Y-92386650D01*
X151902424Y-92386650D01*
X151947634Y-92730380D01*
X152059034Y-93058685D01*
X152168286Y-93263079D01*
X152445469Y-93373926D01*
X153490395Y-92329000D01*
X153849605Y-92329000D01*
X154894531Y-93373926D01*
X155169787Y-93263850D01*
X155138188Y-93368018D01*
X155125928Y-93492500D01*
X155129000Y-93694250D01*
X155287750Y-93853000D01*
X156337000Y-93853000D01*
X156337000Y-93016250D01*
X156178250Y-92857500D01*
X155764000Y-92854428D01*
X155639518Y-92866688D01*
X155519820Y-92902998D01*
X155409506Y-92961963D01*
X155312815Y-93041315D01*
X155233463Y-93138006D01*
X155232801Y-93139244D01*
X155325089Y-92952160D01*
X155414860Y-92617295D01*
X155437576Y-92271350D01*
X155392366Y-91927620D01*
X155280966Y-91599315D01*
X155171714Y-91394921D01*
X154894531Y-91284074D01*
X153849605Y-92329000D01*
X153490395Y-92329000D01*
X152445469Y-91284074D01*
X152168286Y-91394921D01*
X152014911Y-91705840D01*
X151925140Y-92040705D01*
X151902424Y-92386650D01*
X151295000Y-92386650D01*
X151295000Y-91440544D01*
X151611871Y-91377514D01*
X151912515Y-91252983D01*
X152134782Y-91104469D01*
X152625074Y-91104469D01*
X153670000Y-92149395D01*
X154714926Y-91104469D01*
X154604079Y-90827286D01*
X154293160Y-90673911D01*
X153958295Y-90584140D01*
X153612350Y-90561424D01*
X153268620Y-90606634D01*
X152940315Y-90718034D01*
X152735921Y-90827286D01*
X152625074Y-91104469D01*
X152134782Y-91104469D01*
X152183088Y-91072192D01*
X152413192Y-90842088D01*
X152593983Y-90571515D01*
X152718514Y-90270871D01*
X152782000Y-89951708D01*
X152782000Y-89626292D01*
X152718514Y-89307129D01*
X152593983Y-89006485D01*
X152413192Y-88735912D01*
X152183088Y-88505808D01*
X152134783Y-88473531D01*
X152625074Y-88473531D01*
X152735921Y-88750714D01*
X153046840Y-88904089D01*
X153381705Y-88993860D01*
X153727650Y-89016576D01*
X154071380Y-88971366D01*
X154399685Y-88859966D01*
X154604079Y-88750714D01*
X154714926Y-88473531D01*
X153670000Y-87428605D01*
X152625074Y-88473531D01*
X152134783Y-88473531D01*
X151912515Y-88325017D01*
X151611871Y-88200486D01*
X151292708Y-88137000D01*
X150967292Y-88137000D01*
X150648129Y-88200486D01*
X150347485Y-88325017D01*
X150076912Y-88505808D01*
X149846808Y-88735912D01*
X149666017Y-89006485D01*
X149541486Y-89307129D01*
X149478000Y-89626292D01*
X149478000Y-89951708D01*
X149521181Y-90168792D01*
X149507420Y-90194537D01*
X149490390Y-90250679D01*
X149454414Y-90369276D01*
X149441001Y-90505462D01*
X149436516Y-90551000D01*
X149441001Y-90596537D01*
X149441001Y-90786304D01*
X149213160Y-90673911D01*
X148878295Y-90584140D01*
X148532350Y-90561424D01*
X148188620Y-90606634D01*
X147860315Y-90718034D01*
X147655921Y-90827286D01*
X147545074Y-91104469D01*
X148590000Y-92149395D01*
X148604143Y-92135253D01*
X148783748Y-92314858D01*
X148769605Y-92329000D01*
X148783748Y-92343143D01*
X148604143Y-92522748D01*
X148590000Y-92508605D01*
X147545074Y-93553531D01*
X147655921Y-93830714D01*
X147966840Y-93984089D01*
X148301705Y-94073860D01*
X148647650Y-94096576D01*
X148991380Y-94051366D01*
X149319685Y-93939966D01*
X149441001Y-93875121D01*
X149441000Y-98408274D01*
X149423293Y-98413645D01*
X149406180Y-98404498D01*
X149286482Y-98368188D01*
X149162000Y-98355928D01*
X149152750Y-98359000D01*
X148994000Y-98517750D01*
X148994000Y-98801207D01*
X148971153Y-98843951D01*
X148926907Y-98989811D01*
X148911967Y-99141500D01*
X148911967Y-99248491D01*
X148905515Y-99314000D01*
X148911967Y-99379509D01*
X148911967Y-99461000D01*
X148740000Y-99461000D01*
X148740000Y-99441000D01*
X148095750Y-99441000D01*
X147937000Y-99599750D01*
X147933928Y-99634000D01*
X147946188Y-99758482D01*
X147982498Y-99878180D01*
X148041463Y-99988494D01*
X148120815Y-100085185D01*
X148217506Y-100164537D01*
X148327820Y-100223502D01*
X148447518Y-100259812D01*
X148530417Y-100267977D01*
X148497188Y-100377518D01*
X148484928Y-100502000D01*
X148488000Y-100821250D01*
X148646750Y-100980000D01*
X149291000Y-100980000D01*
X149291000Y-100960000D01*
X149441000Y-100960000D01*
X149441000Y-101152537D01*
X149442967Y-101172509D01*
X149442967Y-101712000D01*
X149455073Y-101834913D01*
X149490925Y-101953103D01*
X149545000Y-102054270D01*
X149545000Y-102188250D01*
X149703750Y-102347000D01*
X149713000Y-102350072D01*
X149837482Y-102337812D01*
X149906781Y-102316790D01*
X149950087Y-102329927D01*
X150073000Y-102342033D01*
X150663000Y-102342033D01*
X150785913Y-102329927D01*
X150843000Y-102312610D01*
X150900087Y-102329927D01*
X151023000Y-102342033D01*
X151613000Y-102342033D01*
X151735913Y-102329927D01*
X151854103Y-102294075D01*
X151963028Y-102235853D01*
X152058501Y-102157501D01*
X152136853Y-102062028D01*
X152195075Y-101953103D01*
X152230927Y-101834913D01*
X152243033Y-101712000D01*
X152243033Y-100502000D01*
X152230927Y-100379087D01*
X152198132Y-100270976D01*
X152311482Y-100259812D01*
X152431180Y-100223502D01*
X152541494Y-100164537D01*
X152638185Y-100085185D01*
X152717537Y-99988494D01*
X152776502Y-99878180D01*
X152812812Y-99758482D01*
X152825072Y-99634000D01*
X152822000Y-99599750D01*
X152663252Y-99441002D01*
X152822000Y-99441002D01*
X152822000Y-99331601D01*
X152910077Y-99438923D01*
X153127366Y-99617248D01*
X153272830Y-99695000D01*
X153127366Y-99772752D01*
X152910077Y-99951077D01*
X152731752Y-100168366D01*
X152599245Y-100416269D01*
X152517648Y-100685259D01*
X152490096Y-100965000D01*
X152517648Y-101244741D01*
X152599245Y-101513731D01*
X152731752Y-101761634D01*
X152910077Y-101978923D01*
X153127366Y-102157248D01*
X153272830Y-102235000D01*
X153127366Y-102312752D01*
X152910077Y-102491077D01*
X152731752Y-102708366D01*
X152627014Y-102904316D01*
X152602592Y-102884273D01*
X152450237Y-102802838D01*
X152284922Y-102752690D01*
X152179809Y-102742337D01*
X152136853Y-102661972D01*
X152058501Y-102566499D01*
X151963028Y-102488147D01*
X151854103Y-102429925D01*
X151735913Y-102394073D01*
X151613000Y-102381967D01*
X151023000Y-102381967D01*
X150900087Y-102394073D01*
X150781897Y-102429925D01*
X150672972Y-102488147D01*
X150577499Y-102566499D01*
X150499147Y-102661972D01*
X150440925Y-102770897D01*
X150405073Y-102889087D01*
X150392967Y-103012000D01*
X150392967Y-104222000D01*
X150405073Y-104344913D01*
X150440925Y-104463103D01*
X150499147Y-104572028D01*
X150577499Y-104667501D01*
X150672972Y-104745853D01*
X150781897Y-104804075D01*
X150900087Y-104839927D01*
X151023000Y-104852033D01*
X151613000Y-104852033D01*
X151735913Y-104839927D01*
X151854103Y-104804075D01*
X151963028Y-104745853D01*
X151984207Y-104728472D01*
X152640402Y-105384667D01*
X152651603Y-105398315D01*
X152599245Y-105496269D01*
X152517648Y-105765259D01*
X152490096Y-106045000D01*
X152517648Y-106324741D01*
X152599245Y-106593731D01*
X152731752Y-106841634D01*
X152910077Y-107058923D01*
X153127366Y-107237248D01*
X153272830Y-107315000D01*
X153127366Y-107392752D01*
X152910077Y-107571077D01*
X152731752Y-107788366D01*
X152599245Y-108036269D01*
X152517648Y-108305259D01*
X152508466Y-108398491D01*
X150345000Y-106235025D01*
X150345000Y-103571462D01*
X150343033Y-103551490D01*
X150343033Y-103012000D01*
X150330927Y-102889087D01*
X150295075Y-102770897D01*
X150236853Y-102661972D01*
X150158501Y-102566499D01*
X150063028Y-102488147D01*
X149954103Y-102429925D01*
X149835913Y-102394073D01*
X149713000Y-102381967D01*
X149123000Y-102381967D01*
X149000087Y-102394073D01*
X148881897Y-102429925D01*
X148772972Y-102488147D01*
X148677499Y-102566499D01*
X148599147Y-102661972D01*
X148540925Y-102770897D01*
X148505073Y-102889087D01*
X148492967Y-103012000D01*
X148492967Y-103551501D01*
X148491001Y-103571462D01*
X148491000Y-106573472D01*
X148486516Y-106619000D01*
X148491000Y-106664527D01*
X148491000Y-106664537D01*
X148504413Y-106800723D01*
X148544483Y-106932815D01*
X148557420Y-106975463D01*
X148643499Y-107136505D01*
X148678085Y-107178648D01*
X148759341Y-107277659D01*
X148794713Y-107306688D01*
X152501118Y-111013093D01*
X152490096Y-111125000D01*
X152517648Y-111404741D01*
X152599245Y-111673731D01*
X152731752Y-111921634D01*
X152910077Y-112138923D01*
X153127366Y-112317248D01*
X153375269Y-112449755D01*
X153644259Y-112531352D01*
X153853902Y-112552000D01*
X153994098Y-112552000D01*
X154203741Y-112531352D01*
X154472731Y-112449755D01*
X154720634Y-112317248D01*
X154937923Y-112138923D01*
X155116248Y-111921634D01*
X155248755Y-111673731D01*
X155330352Y-111404741D01*
X155357904Y-111125000D01*
X155330352Y-110845259D01*
X155248755Y-110576269D01*
X155116248Y-110328366D01*
X154937923Y-110111077D01*
X154720634Y-109932752D01*
X154575170Y-109855000D01*
X154720634Y-109777248D01*
X154937923Y-109598923D01*
X155116248Y-109381634D01*
X155248755Y-109133731D01*
X155330352Y-108864741D01*
X155334012Y-108827581D01*
X155409506Y-108889537D01*
X155519820Y-108948502D01*
X155639518Y-108984812D01*
X155764000Y-108997072D01*
X156178250Y-108994000D01*
X156337000Y-108835250D01*
X156337000Y-107998500D01*
X156317000Y-107998500D01*
X156317000Y-107744500D01*
X156337000Y-107744500D01*
X156337000Y-107724500D01*
X156591000Y-107724500D01*
X156591000Y-107744500D01*
X156611000Y-107744500D01*
X156611000Y-107998500D01*
X156591000Y-107998500D01*
X156591000Y-108835250D01*
X156749750Y-108994000D01*
X157164000Y-108997072D01*
X157288482Y-108984812D01*
X157301001Y-108981014D01*
X157301001Y-114121000D01*
X145213000Y-114121000D01*
X145213000Y-112051340D01*
X145240481Y-112088414D01*
X145448869Y-112277385D01*
X145690119Y-112422070D01*
X145954960Y-112516909D01*
X146177000Y-112395624D01*
X146177000Y-111252000D01*
X146431000Y-111252000D01*
X146431000Y-112395624D01*
X146653040Y-112516909D01*
X146917881Y-112422070D01*
X147159131Y-112277385D01*
X147367519Y-112088414D01*
X147535037Y-111862420D01*
X147655246Y-111608087D01*
X147695904Y-111474039D01*
X147573915Y-111252000D01*
X146431000Y-111252000D01*
X146177000Y-111252000D01*
X146157000Y-111252000D01*
X146157000Y-110998000D01*
X146177000Y-110998000D01*
X146177000Y-110978000D01*
X146431000Y-110978000D01*
X146431000Y-110998000D01*
X147573915Y-110998000D01*
X147695904Y-110775961D01*
X147655246Y-110641913D01*
X147535037Y-110387580D01*
X147367519Y-110161586D01*
X147159131Y-109972615D01*
X146959320Y-109852782D01*
X147100634Y-109777248D01*
X147317923Y-109598923D01*
X147496248Y-109381634D01*
X147628755Y-109133731D01*
X147710352Y-108864741D01*
X147737904Y-108585000D01*
X147710352Y-108305259D01*
X147628755Y-108036269D01*
X147496248Y-107788366D01*
X147317923Y-107571077D01*
X147100634Y-107392752D01*
X146955170Y-107315000D01*
X147100634Y-107237248D01*
X147317923Y-107058923D01*
X147496248Y-106841634D01*
X147628755Y-106593731D01*
X147710352Y-106324741D01*
X147737904Y-106045000D01*
X147710352Y-105765259D01*
X147628755Y-105496269D01*
X147496248Y-105248366D01*
X147317923Y-105031077D01*
X147100634Y-104852752D01*
X146955170Y-104775000D01*
X147100634Y-104697248D01*
X147317923Y-104518923D01*
X147496248Y-104301634D01*
X147628755Y-104053731D01*
X147710352Y-103784741D01*
X147737904Y-103505000D01*
X147710352Y-103225259D01*
X147628755Y-102956269D01*
X147496248Y-102708366D01*
X147317923Y-102491077D01*
X147100634Y-102312752D01*
X146955170Y-102235000D01*
X147100634Y-102157248D01*
X147317923Y-101978923D01*
X147496248Y-101761634D01*
X147522777Y-101712000D01*
X148484928Y-101712000D01*
X148497188Y-101836482D01*
X148533498Y-101956180D01*
X148592463Y-102066494D01*
X148671815Y-102163185D01*
X148768506Y-102242537D01*
X148878820Y-102301502D01*
X148998518Y-102337812D01*
X149123000Y-102350072D01*
X149132250Y-102347000D01*
X149291000Y-102188250D01*
X149291000Y-101234000D01*
X148646750Y-101234000D01*
X148488000Y-101392750D01*
X148484928Y-101712000D01*
X147522777Y-101712000D01*
X147628755Y-101513731D01*
X147710352Y-101244741D01*
X147737904Y-100965000D01*
X147710352Y-100685259D01*
X147628755Y-100416269D01*
X147496248Y-100168366D01*
X147317923Y-99951077D01*
X147100634Y-99772752D01*
X146955170Y-99695000D01*
X147100634Y-99617248D01*
X147317923Y-99438923D01*
X147496248Y-99221634D01*
X147617920Y-98994000D01*
X147933928Y-98994000D01*
X147937000Y-99028250D01*
X148095750Y-99187000D01*
X148740000Y-99187000D01*
X148740000Y-98517750D01*
X148581250Y-98359000D01*
X148572000Y-98355928D01*
X148447518Y-98368188D01*
X148327820Y-98404498D01*
X148217506Y-98463463D01*
X148120815Y-98542815D01*
X148041463Y-98639506D01*
X147982498Y-98749820D01*
X147946188Y-98869518D01*
X147933928Y-98994000D01*
X147617920Y-98994000D01*
X147628755Y-98973731D01*
X147710352Y-98704741D01*
X147737904Y-98425000D01*
X147710352Y-98145259D01*
X147628755Y-97876269D01*
X147496248Y-97628366D01*
X147317923Y-97411077D01*
X147190511Y-97306512D01*
X147226913Y-97302927D01*
X147345103Y-97267075D01*
X147454028Y-97208853D01*
X147549501Y-97130501D01*
X147627853Y-97035028D01*
X147686075Y-96926103D01*
X147721927Y-96807913D01*
X147734033Y-96685000D01*
X147734033Y-95085000D01*
X147721927Y-94962087D01*
X147686075Y-94843897D01*
X147627853Y-94734972D01*
X147549501Y-94639499D01*
X147454028Y-94561147D01*
X147345103Y-94502925D01*
X147226913Y-94467073D01*
X147104000Y-94454967D01*
X145504000Y-94454967D01*
X145381087Y-94467073D01*
X145262897Y-94502925D01*
X145213000Y-94529596D01*
X145213000Y-92386650D01*
X146822424Y-92386650D01*
X146867634Y-92730380D01*
X146979034Y-93058685D01*
X147088286Y-93263079D01*
X147365469Y-93373926D01*
X148410395Y-92329000D01*
X147365469Y-91284074D01*
X147088286Y-91394921D01*
X146934911Y-91705840D01*
X146845140Y-92040705D01*
X146822424Y-92386650D01*
X145213000Y-92386650D01*
X145213000Y-88473531D01*
X147545074Y-88473531D01*
X147655921Y-88750714D01*
X147966840Y-88904089D01*
X148301705Y-88993860D01*
X148647650Y-89016576D01*
X148991380Y-88971366D01*
X149319685Y-88859966D01*
X149524079Y-88750714D01*
X149634926Y-88473531D01*
X148590000Y-87428605D01*
X147545074Y-88473531D01*
X145213000Y-88473531D01*
X145213000Y-86031000D01*
X147307810Y-86031000D01*
X147250101Y-86088709D01*
G36*
X156591000Y-103856000D02*
G01*
X156611000Y-103856000D01*
X156611000Y-104110000D01*
X156591000Y-104110000D01*
X156591000Y-104130000D01*
X156337000Y-104130000D01*
X156337000Y-104110000D01*
X156317000Y-104110000D01*
X156317000Y-103856000D01*
X156337000Y-103856000D01*
X156337000Y-103836000D01*
X156591000Y-103836000D01*
X156591000Y-103856000D01*
X156591000Y-103856000D01*
G37*
X156591000Y-103856000D02*
X156611000Y-103856000D01*
X156611000Y-104110000D01*
X156591000Y-104110000D01*
X156591000Y-104130000D01*
X156337000Y-104130000D01*
X156337000Y-104110000D01*
X156317000Y-104110000D01*
X156317000Y-103856000D01*
X156337000Y-103856000D01*
X156337000Y-103836000D01*
X156591000Y-103836000D01*
X156591000Y-103856000D01*
M02*
