G04 #@! TF.GenerationSoftware,KiCad,Pcbnew,(5.1.5)-3*
G04 #@! TF.CreationDate,2020-06-18T11:51:05-04:00*
G04 #@! TF.ProjectId,mtd415te,6d746434-3135-4746-952e-6b696361645f,rev?*
G04 #@! TF.SameCoordinates,Original*
G04 #@! TF.FileFunction,Soldermask,Bot*
G04 #@! TF.FilePolarity,Negative*
%FSLAX46Y46*%
G04 Gerber Fmt 4.6, Leading zero omitted, Abs format (unit mm)*
G04 Created by KiCad (PCBNEW (5.1.5)-3) date 2020-06-18 11:51:05*
%MOMM*%
%LPD*%
G04 APERTURE LIST*
%ADD10C,0.100000*%
G04 APERTURE END LIST*
D10*
G36*
X130178228Y-155679483D02*
G01*
X130366922Y-155736723D01*
X130540815Y-155829671D01*
X130693239Y-155954761D01*
X130818329Y-156107185D01*
X130911277Y-156281078D01*
X130968517Y-156469772D01*
X130987843Y-156666000D01*
X130968517Y-156862228D01*
X130911277Y-157050922D01*
X130818329Y-157224815D01*
X130693239Y-157377239D01*
X130540815Y-157502329D01*
X130366922Y-157595277D01*
X130178228Y-157652517D01*
X130031175Y-157667000D01*
X128032825Y-157667000D01*
X127885772Y-157652517D01*
X127697078Y-157595277D01*
X127523185Y-157502329D01*
X127370761Y-157377239D01*
X127245671Y-157224815D01*
X127152723Y-157050922D01*
X127095483Y-156862228D01*
X127076157Y-156666000D01*
X127095483Y-156469772D01*
X127152723Y-156281078D01*
X127245671Y-156107185D01*
X127370761Y-155954761D01*
X127523185Y-155829671D01*
X127697078Y-155736723D01*
X127885772Y-155679483D01*
X128032825Y-155665000D01*
X130031175Y-155665000D01*
X130178228Y-155679483D01*
G37*
G36*
X133878227Y-151479483D02*
G01*
X134066921Y-151536723D01*
X134240815Y-151629671D01*
X134393239Y-151754761D01*
X134518329Y-151907185D01*
X134611277Y-152081078D01*
X134668517Y-152269772D01*
X134683000Y-152416825D01*
X134683000Y-154415175D01*
X134668517Y-154562228D01*
X134611277Y-154750922D01*
X134518329Y-154924815D01*
X134393239Y-155077239D01*
X134240815Y-155202329D01*
X134066922Y-155295277D01*
X133878228Y-155352517D01*
X133682000Y-155371843D01*
X133485773Y-155352517D01*
X133297079Y-155295277D01*
X133123186Y-155202329D01*
X132970762Y-155077239D01*
X132845672Y-154924815D01*
X132752724Y-154750922D01*
X132695484Y-154562228D01*
X132681001Y-154415175D01*
X132681000Y-152416826D01*
X132695483Y-152269773D01*
X132752723Y-152081079D01*
X132845671Y-151907185D01*
X132970761Y-151754761D01*
X133123185Y-151629671D01*
X133297078Y-151536723D01*
X133485772Y-151479483D01*
X133682000Y-151460157D01*
X133878227Y-151479483D01*
G37*
G36*
X100789228Y-153659703D02*
G01*
X100944100Y-153723853D01*
X101083481Y-153816985D01*
X101202015Y-153935519D01*
X101295147Y-154074900D01*
X101359297Y-154229772D01*
X101392000Y-154394184D01*
X101392000Y-154561816D01*
X101359297Y-154726228D01*
X101295147Y-154881100D01*
X101202015Y-155020481D01*
X101083481Y-155139015D01*
X100944100Y-155232147D01*
X100789228Y-155296297D01*
X100624816Y-155329000D01*
X100457184Y-155329000D01*
X100292772Y-155296297D01*
X100137900Y-155232147D01*
X99998519Y-155139015D01*
X99879985Y-155020481D01*
X99786853Y-154881100D01*
X99722703Y-154726228D01*
X99690000Y-154561816D01*
X99690000Y-154394184D01*
X99722703Y-154229772D01*
X99786853Y-154074900D01*
X99879985Y-153935519D01*
X99998519Y-153816985D01*
X100137900Y-153723853D01*
X100292772Y-153659703D01*
X100457184Y-153627000D01*
X100624816Y-153627000D01*
X100789228Y-153659703D01*
G37*
G36*
X109099228Y-153659703D02*
G01*
X109254100Y-153723853D01*
X109393481Y-153816985D01*
X109512015Y-153935519D01*
X109605147Y-154074900D01*
X109669297Y-154229772D01*
X109702000Y-154394184D01*
X109702000Y-154561816D01*
X109669297Y-154726228D01*
X109605147Y-154881100D01*
X109512015Y-155020481D01*
X109393481Y-155139015D01*
X109254100Y-155232147D01*
X109099228Y-155296297D01*
X108934816Y-155329000D01*
X108767184Y-155329000D01*
X108602772Y-155296297D01*
X108447900Y-155232147D01*
X108308519Y-155139015D01*
X108189985Y-155020481D01*
X108096853Y-154881100D01*
X108032703Y-154726228D01*
X108000000Y-154561816D01*
X108000000Y-154394184D01*
X108032703Y-154229772D01*
X108096853Y-154074900D01*
X108189985Y-153935519D01*
X108308519Y-153816985D01*
X108447900Y-153723853D01*
X108602772Y-153659703D01*
X108767184Y-153627000D01*
X108934816Y-153627000D01*
X109099228Y-153659703D01*
G37*
G36*
X103559228Y-153659703D02*
G01*
X103714100Y-153723853D01*
X103853481Y-153816985D01*
X103972015Y-153935519D01*
X104065147Y-154074900D01*
X104129297Y-154229772D01*
X104162000Y-154394184D01*
X104162000Y-154561816D01*
X104129297Y-154726228D01*
X104065147Y-154881100D01*
X103972015Y-155020481D01*
X103853481Y-155139015D01*
X103714100Y-155232147D01*
X103559228Y-155296297D01*
X103394816Y-155329000D01*
X103227184Y-155329000D01*
X103062772Y-155296297D01*
X102907900Y-155232147D01*
X102768519Y-155139015D01*
X102649985Y-155020481D01*
X102556853Y-154881100D01*
X102492703Y-154726228D01*
X102460000Y-154561816D01*
X102460000Y-154394184D01*
X102492703Y-154229772D01*
X102556853Y-154074900D01*
X102649985Y-153935519D01*
X102768519Y-153816985D01*
X102907900Y-153723853D01*
X103062772Y-153659703D01*
X103227184Y-153627000D01*
X103394816Y-153627000D01*
X103559228Y-153659703D01*
G37*
G36*
X106329228Y-153659703D02*
G01*
X106484100Y-153723853D01*
X106623481Y-153816985D01*
X106742015Y-153935519D01*
X106835147Y-154074900D01*
X106899297Y-154229772D01*
X106932000Y-154394184D01*
X106932000Y-154561816D01*
X106899297Y-154726228D01*
X106835147Y-154881100D01*
X106742015Y-155020481D01*
X106623481Y-155139015D01*
X106484100Y-155232147D01*
X106329228Y-155296297D01*
X106164816Y-155329000D01*
X105997184Y-155329000D01*
X105832772Y-155296297D01*
X105677900Y-155232147D01*
X105538519Y-155139015D01*
X105419985Y-155020481D01*
X105326853Y-154881100D01*
X105262703Y-154726228D01*
X105230000Y-154561816D01*
X105230000Y-154394184D01*
X105262703Y-154229772D01*
X105326853Y-154074900D01*
X105419985Y-153935519D01*
X105538519Y-153816985D01*
X105677900Y-153723853D01*
X105832772Y-153659703D01*
X105997184Y-153627000D01*
X106164816Y-153627000D01*
X106329228Y-153659703D01*
G37*
G36*
X66753228Y-153659703D02*
G01*
X66908100Y-153723853D01*
X67047481Y-153816985D01*
X67166015Y-153935519D01*
X67259147Y-154074900D01*
X67323297Y-154229772D01*
X67356000Y-154394184D01*
X67356000Y-154561816D01*
X67323297Y-154726228D01*
X67259147Y-154881100D01*
X67166015Y-155020481D01*
X67047481Y-155139015D01*
X66908100Y-155232147D01*
X66753228Y-155296297D01*
X66588816Y-155329000D01*
X66421184Y-155329000D01*
X66256772Y-155296297D01*
X66101900Y-155232147D01*
X65962519Y-155139015D01*
X65843985Y-155020481D01*
X65750853Y-154881100D01*
X65686703Y-154726228D01*
X65654000Y-154561816D01*
X65654000Y-154394184D01*
X65686703Y-154229772D01*
X65750853Y-154074900D01*
X65843985Y-153935519D01*
X65962519Y-153816985D01*
X66101900Y-153723853D01*
X66256772Y-153659703D01*
X66421184Y-153627000D01*
X66588816Y-153627000D01*
X66753228Y-153659703D01*
G37*
G36*
X69523228Y-153659703D02*
G01*
X69678100Y-153723853D01*
X69817481Y-153816985D01*
X69936015Y-153935519D01*
X70029147Y-154074900D01*
X70093297Y-154229772D01*
X70126000Y-154394184D01*
X70126000Y-154561816D01*
X70093297Y-154726228D01*
X70029147Y-154881100D01*
X69936015Y-155020481D01*
X69817481Y-155139015D01*
X69678100Y-155232147D01*
X69523228Y-155296297D01*
X69358816Y-155329000D01*
X69191184Y-155329000D01*
X69026772Y-155296297D01*
X68871900Y-155232147D01*
X68732519Y-155139015D01*
X68613985Y-155020481D01*
X68520853Y-154881100D01*
X68456703Y-154726228D01*
X68424000Y-154561816D01*
X68424000Y-154394184D01*
X68456703Y-154229772D01*
X68520853Y-154074900D01*
X68613985Y-153935519D01*
X68732519Y-153816985D01*
X68871900Y-153723853D01*
X69026772Y-153659703D01*
X69191184Y-153627000D01*
X69358816Y-153627000D01*
X69523228Y-153659703D01*
G37*
G36*
X72293228Y-153659703D02*
G01*
X72448100Y-153723853D01*
X72587481Y-153816985D01*
X72706015Y-153935519D01*
X72799147Y-154074900D01*
X72863297Y-154229772D01*
X72896000Y-154394184D01*
X72896000Y-154561816D01*
X72863297Y-154726228D01*
X72799147Y-154881100D01*
X72706015Y-155020481D01*
X72587481Y-155139015D01*
X72448100Y-155232147D01*
X72293228Y-155296297D01*
X72128816Y-155329000D01*
X71961184Y-155329000D01*
X71796772Y-155296297D01*
X71641900Y-155232147D01*
X71502519Y-155139015D01*
X71383985Y-155020481D01*
X71290853Y-154881100D01*
X71226703Y-154726228D01*
X71194000Y-154561816D01*
X71194000Y-154394184D01*
X71226703Y-154229772D01*
X71290853Y-154074900D01*
X71383985Y-153935519D01*
X71502519Y-153816985D01*
X71641900Y-153723853D01*
X71796772Y-153659703D01*
X71961184Y-153627000D01*
X72128816Y-153627000D01*
X72293228Y-153659703D01*
G37*
G36*
X75063228Y-153659703D02*
G01*
X75218100Y-153723853D01*
X75357481Y-153816985D01*
X75476015Y-153935519D01*
X75569147Y-154074900D01*
X75633297Y-154229772D01*
X75666000Y-154394184D01*
X75666000Y-154561816D01*
X75633297Y-154726228D01*
X75569147Y-154881100D01*
X75476015Y-155020481D01*
X75357481Y-155139015D01*
X75218100Y-155232147D01*
X75063228Y-155296297D01*
X74898816Y-155329000D01*
X74731184Y-155329000D01*
X74566772Y-155296297D01*
X74411900Y-155232147D01*
X74272519Y-155139015D01*
X74153985Y-155020481D01*
X74060853Y-154881100D01*
X73996703Y-154726228D01*
X73964000Y-154561816D01*
X73964000Y-154394184D01*
X73996703Y-154229772D01*
X74060853Y-154074900D01*
X74153985Y-153935519D01*
X74272519Y-153816985D01*
X74411900Y-153723853D01*
X74566772Y-153659703D01*
X74731184Y-153627000D01*
X74898816Y-153627000D01*
X75063228Y-153659703D01*
G37*
G36*
X58758254Y-151085818D02*
G01*
X58987097Y-151180608D01*
X59131513Y-151240427D01*
X59467436Y-151464884D01*
X59753116Y-151750564D01*
X59973961Y-152081081D01*
X59977574Y-152086489D01*
X60132182Y-152459746D01*
X60211000Y-152855993D01*
X60211000Y-153260007D01*
X60132182Y-153656254D01*
X60016506Y-153935520D01*
X59977573Y-154029513D01*
X59753116Y-154365436D01*
X59467436Y-154651116D01*
X59131513Y-154875573D01*
X59131512Y-154875574D01*
X59131511Y-154875574D01*
X58758254Y-155030182D01*
X58362007Y-155109000D01*
X57957993Y-155109000D01*
X57561746Y-155030182D01*
X57188489Y-154875574D01*
X57188488Y-154875574D01*
X57188487Y-154875573D01*
X56852564Y-154651116D01*
X56566884Y-154365436D01*
X56342427Y-154029513D01*
X56303494Y-153935520D01*
X56187818Y-153656254D01*
X56109000Y-153260007D01*
X56109000Y-152855993D01*
X56187818Y-152459746D01*
X56342426Y-152086489D01*
X56346040Y-152081081D01*
X56566884Y-151750564D01*
X56852564Y-151464884D01*
X57188487Y-151240427D01*
X57332903Y-151180608D01*
X57561746Y-151085818D01*
X57957993Y-151007000D01*
X58362007Y-151007000D01*
X58758254Y-151085818D01*
G37*
G36*
X117794254Y-151085818D02*
G01*
X118023097Y-151180608D01*
X118167513Y-151240427D01*
X118503436Y-151464884D01*
X118789116Y-151750564D01*
X119009961Y-152081081D01*
X119013574Y-152086489D01*
X119168182Y-152459746D01*
X119247000Y-152855993D01*
X119247000Y-153260007D01*
X119168182Y-153656254D01*
X119052506Y-153935520D01*
X119013573Y-154029513D01*
X118789116Y-154365436D01*
X118503436Y-154651116D01*
X118167513Y-154875573D01*
X118167512Y-154875574D01*
X118167511Y-154875574D01*
X117794254Y-155030182D01*
X117398007Y-155109000D01*
X116993993Y-155109000D01*
X116597746Y-155030182D01*
X116224489Y-154875574D01*
X116224488Y-154875574D01*
X116224487Y-154875573D01*
X115888564Y-154651116D01*
X115602884Y-154365436D01*
X115378427Y-154029513D01*
X115339494Y-153935520D01*
X115223818Y-153656254D01*
X115145000Y-153260007D01*
X115145000Y-152855993D01*
X115223818Y-152459746D01*
X115378426Y-152086489D01*
X115382040Y-152081081D01*
X115602884Y-151750564D01*
X115888564Y-151464884D01*
X116224487Y-151240427D01*
X116368903Y-151180608D01*
X116597746Y-151085818D01*
X116993993Y-151007000D01*
X117398007Y-151007000D01*
X117794254Y-151085818D01*
G37*
G36*
X92794254Y-151085818D02*
G01*
X93023097Y-151180608D01*
X93167513Y-151240427D01*
X93503436Y-151464884D01*
X93789116Y-151750564D01*
X94009961Y-152081081D01*
X94013574Y-152086489D01*
X94168182Y-152459746D01*
X94247000Y-152855993D01*
X94247000Y-153260007D01*
X94168182Y-153656254D01*
X94052506Y-153935520D01*
X94013573Y-154029513D01*
X93789116Y-154365436D01*
X93503436Y-154651116D01*
X93167513Y-154875573D01*
X93167512Y-154875574D01*
X93167511Y-154875574D01*
X92794254Y-155030182D01*
X92398007Y-155109000D01*
X91993993Y-155109000D01*
X91597746Y-155030182D01*
X91224489Y-154875574D01*
X91224488Y-154875574D01*
X91224487Y-154875573D01*
X90888564Y-154651116D01*
X90602884Y-154365436D01*
X90378427Y-154029513D01*
X90339494Y-153935520D01*
X90223818Y-153656254D01*
X90145000Y-153260007D01*
X90145000Y-152855993D01*
X90223818Y-152459746D01*
X90378426Y-152086489D01*
X90382040Y-152081081D01*
X90602884Y-151750564D01*
X90888564Y-151464884D01*
X91224487Y-151240427D01*
X91368903Y-151180608D01*
X91597746Y-151085818D01*
X91993993Y-151007000D01*
X92398007Y-151007000D01*
X92794254Y-151085818D01*
G37*
G36*
X83758254Y-151085818D02*
G01*
X83987097Y-151180608D01*
X84131513Y-151240427D01*
X84467436Y-151464884D01*
X84753116Y-151750564D01*
X84973961Y-152081081D01*
X84977574Y-152086489D01*
X85132182Y-152459746D01*
X85211000Y-152855993D01*
X85211000Y-153260007D01*
X85132182Y-153656254D01*
X85016506Y-153935520D01*
X84977573Y-154029513D01*
X84753116Y-154365436D01*
X84467436Y-154651116D01*
X84131513Y-154875573D01*
X84131512Y-154875574D01*
X84131511Y-154875574D01*
X83758254Y-155030182D01*
X83362007Y-155109000D01*
X82957993Y-155109000D01*
X82561746Y-155030182D01*
X82188489Y-154875574D01*
X82188488Y-154875574D01*
X82188487Y-154875573D01*
X81852564Y-154651116D01*
X81566884Y-154365436D01*
X81342427Y-154029513D01*
X81303494Y-153935520D01*
X81187818Y-153656254D01*
X81109000Y-153260007D01*
X81109000Y-152855993D01*
X81187818Y-152459746D01*
X81342426Y-152086489D01*
X81346040Y-152081081D01*
X81566884Y-151750564D01*
X81852564Y-151464884D01*
X82188487Y-151240427D01*
X82332903Y-151180608D01*
X82561746Y-151085818D01*
X82957993Y-151007000D01*
X83362007Y-151007000D01*
X83758254Y-151085818D01*
G37*
G36*
X161416239Y-146163467D02*
G01*
X161730282Y-146225934D01*
X162321926Y-146471001D01*
X162854392Y-146826784D01*
X163307216Y-147279608D01*
X163662999Y-147812074D01*
X163908066Y-148403718D01*
X163908066Y-148403719D01*
X164033000Y-149031803D01*
X164033000Y-149672197D01*
X164006241Y-149806722D01*
X163908066Y-150300282D01*
X163662999Y-150891926D01*
X163415265Y-151262685D01*
X163307217Y-151424391D01*
X162854391Y-151877217D01*
X162748477Y-151947986D01*
X162321926Y-152232999D01*
X161730282Y-152478066D01*
X161416239Y-152540533D01*
X161102197Y-152603000D01*
X160461803Y-152603000D01*
X160147761Y-152540533D01*
X159833718Y-152478066D01*
X159242074Y-152232999D01*
X158815523Y-151947986D01*
X158709609Y-151877217D01*
X158256783Y-151424391D01*
X158148735Y-151262685D01*
X157901001Y-150891926D01*
X157655934Y-150300282D01*
X157557759Y-149806722D01*
X157531000Y-149672197D01*
X157531000Y-149031803D01*
X157655934Y-148403719D01*
X157655934Y-148403718D01*
X157901001Y-147812074D01*
X158256784Y-147279608D01*
X158709608Y-146826784D01*
X159242074Y-146471001D01*
X159833718Y-146225934D01*
X160147761Y-146163467D01*
X160461803Y-146101000D01*
X161102197Y-146101000D01*
X161416239Y-146163467D01*
G37*
G36*
X48894239Y-146163467D02*
G01*
X49208282Y-146225934D01*
X49799926Y-146471001D01*
X50332392Y-146826784D01*
X50785216Y-147279608D01*
X51140999Y-147812074D01*
X51386066Y-148403718D01*
X51386066Y-148403719D01*
X51511000Y-149031803D01*
X51511000Y-149672197D01*
X51484241Y-149806722D01*
X51386066Y-150300282D01*
X51140999Y-150891926D01*
X50893265Y-151262685D01*
X50785217Y-151424391D01*
X50332391Y-151877217D01*
X50226477Y-151947986D01*
X49799926Y-152232999D01*
X49208282Y-152478066D01*
X48894239Y-152540533D01*
X48580197Y-152603000D01*
X47939803Y-152603000D01*
X47625761Y-152540533D01*
X47311718Y-152478066D01*
X46720074Y-152232999D01*
X46293523Y-151947986D01*
X46187609Y-151877217D01*
X45734783Y-151424391D01*
X45626735Y-151262685D01*
X45379001Y-150891926D01*
X45133934Y-150300282D01*
X45035759Y-149806722D01*
X45009000Y-149672197D01*
X45009000Y-149031803D01*
X45133934Y-148403719D01*
X45133934Y-148403718D01*
X45379001Y-147812074D01*
X45734784Y-147279608D01*
X46187608Y-146826784D01*
X46720074Y-146471001D01*
X47311718Y-146225934D01*
X47625761Y-146163467D01*
X47939803Y-146101000D01*
X48580197Y-146101000D01*
X48894239Y-146163467D01*
G37*
G36*
X68138228Y-150819703D02*
G01*
X68293100Y-150883853D01*
X68432481Y-150976985D01*
X68551015Y-151095519D01*
X68644147Y-151234900D01*
X68708297Y-151389772D01*
X68741000Y-151554184D01*
X68741000Y-151721816D01*
X68708297Y-151886228D01*
X68644147Y-152041100D01*
X68551015Y-152180481D01*
X68432481Y-152299015D01*
X68293100Y-152392147D01*
X68138228Y-152456297D01*
X67973816Y-152489000D01*
X67806184Y-152489000D01*
X67641772Y-152456297D01*
X67486900Y-152392147D01*
X67347519Y-152299015D01*
X67228985Y-152180481D01*
X67135853Y-152041100D01*
X67071703Y-151886228D01*
X67039000Y-151721816D01*
X67039000Y-151554184D01*
X67071703Y-151389772D01*
X67135853Y-151234900D01*
X67228985Y-151095519D01*
X67347519Y-150976985D01*
X67486900Y-150883853D01*
X67641772Y-150819703D01*
X67806184Y-150787000D01*
X67973816Y-150787000D01*
X68138228Y-150819703D01*
G37*
G36*
X99404228Y-150819703D02*
G01*
X99559100Y-150883853D01*
X99698481Y-150976985D01*
X99817015Y-151095519D01*
X99910147Y-151234900D01*
X99974297Y-151389772D01*
X100007000Y-151554184D01*
X100007000Y-151721816D01*
X99974297Y-151886228D01*
X99910147Y-152041100D01*
X99817015Y-152180481D01*
X99698481Y-152299015D01*
X99559100Y-152392147D01*
X99404228Y-152456297D01*
X99239816Y-152489000D01*
X99072184Y-152489000D01*
X98907772Y-152456297D01*
X98752900Y-152392147D01*
X98613519Y-152299015D01*
X98494985Y-152180481D01*
X98401853Y-152041100D01*
X98337703Y-151886228D01*
X98305000Y-151721816D01*
X98305000Y-151554184D01*
X98337703Y-151389772D01*
X98401853Y-151234900D01*
X98494985Y-151095519D01*
X98613519Y-150976985D01*
X98752900Y-150883853D01*
X98907772Y-150819703D01*
X99072184Y-150787000D01*
X99239816Y-150787000D01*
X99404228Y-150819703D01*
G37*
G36*
X102174228Y-150819703D02*
G01*
X102329100Y-150883853D01*
X102468481Y-150976985D01*
X102587015Y-151095519D01*
X102680147Y-151234900D01*
X102744297Y-151389772D01*
X102777000Y-151554184D01*
X102777000Y-151721816D01*
X102744297Y-151886228D01*
X102680147Y-152041100D01*
X102587015Y-152180481D01*
X102468481Y-152299015D01*
X102329100Y-152392147D01*
X102174228Y-152456297D01*
X102009816Y-152489000D01*
X101842184Y-152489000D01*
X101677772Y-152456297D01*
X101522900Y-152392147D01*
X101383519Y-152299015D01*
X101264985Y-152180481D01*
X101171853Y-152041100D01*
X101107703Y-151886228D01*
X101075000Y-151721816D01*
X101075000Y-151554184D01*
X101107703Y-151389772D01*
X101171853Y-151234900D01*
X101264985Y-151095519D01*
X101383519Y-150976985D01*
X101522900Y-150883853D01*
X101677772Y-150819703D01*
X101842184Y-150787000D01*
X102009816Y-150787000D01*
X102174228Y-150819703D01*
G37*
G36*
X104944228Y-150819703D02*
G01*
X105099100Y-150883853D01*
X105238481Y-150976985D01*
X105357015Y-151095519D01*
X105450147Y-151234900D01*
X105514297Y-151389772D01*
X105547000Y-151554184D01*
X105547000Y-151721816D01*
X105514297Y-151886228D01*
X105450147Y-152041100D01*
X105357015Y-152180481D01*
X105238481Y-152299015D01*
X105099100Y-152392147D01*
X104944228Y-152456297D01*
X104779816Y-152489000D01*
X104612184Y-152489000D01*
X104447772Y-152456297D01*
X104292900Y-152392147D01*
X104153519Y-152299015D01*
X104034985Y-152180481D01*
X103941853Y-152041100D01*
X103877703Y-151886228D01*
X103845000Y-151721816D01*
X103845000Y-151554184D01*
X103877703Y-151389772D01*
X103941853Y-151234900D01*
X104034985Y-151095519D01*
X104153519Y-150976985D01*
X104292900Y-150883853D01*
X104447772Y-150819703D01*
X104612184Y-150787000D01*
X104779816Y-150787000D01*
X104944228Y-150819703D01*
G37*
G36*
X107714228Y-150819703D02*
G01*
X107869100Y-150883853D01*
X108008481Y-150976985D01*
X108127015Y-151095519D01*
X108220147Y-151234900D01*
X108284297Y-151389772D01*
X108317000Y-151554184D01*
X108317000Y-151721816D01*
X108284297Y-151886228D01*
X108220147Y-152041100D01*
X108127015Y-152180481D01*
X108008481Y-152299015D01*
X107869100Y-152392147D01*
X107714228Y-152456297D01*
X107549816Y-152489000D01*
X107382184Y-152489000D01*
X107217772Y-152456297D01*
X107062900Y-152392147D01*
X106923519Y-152299015D01*
X106804985Y-152180481D01*
X106711853Y-152041100D01*
X106647703Y-151886228D01*
X106615000Y-151721816D01*
X106615000Y-151554184D01*
X106647703Y-151389772D01*
X106711853Y-151234900D01*
X106804985Y-151095519D01*
X106923519Y-150976985D01*
X107062900Y-150883853D01*
X107217772Y-150819703D01*
X107382184Y-150787000D01*
X107549816Y-150787000D01*
X107714228Y-150819703D01*
G37*
G36*
X77051000Y-152489000D02*
G01*
X75349000Y-152489000D01*
X75349000Y-150787000D01*
X77051000Y-150787000D01*
X77051000Y-152489000D01*
G37*
G36*
X73678228Y-150819703D02*
G01*
X73833100Y-150883853D01*
X73972481Y-150976985D01*
X74091015Y-151095519D01*
X74184147Y-151234900D01*
X74248297Y-151389772D01*
X74281000Y-151554184D01*
X74281000Y-151721816D01*
X74248297Y-151886228D01*
X74184147Y-152041100D01*
X74091015Y-152180481D01*
X73972481Y-152299015D01*
X73833100Y-152392147D01*
X73678228Y-152456297D01*
X73513816Y-152489000D01*
X73346184Y-152489000D01*
X73181772Y-152456297D01*
X73026900Y-152392147D01*
X72887519Y-152299015D01*
X72768985Y-152180481D01*
X72675853Y-152041100D01*
X72611703Y-151886228D01*
X72579000Y-151721816D01*
X72579000Y-151554184D01*
X72611703Y-151389772D01*
X72675853Y-151234900D01*
X72768985Y-151095519D01*
X72887519Y-150976985D01*
X73026900Y-150883853D01*
X73181772Y-150819703D01*
X73346184Y-150787000D01*
X73513816Y-150787000D01*
X73678228Y-150819703D01*
G37*
G36*
X70908228Y-150819703D02*
G01*
X71063100Y-150883853D01*
X71202481Y-150976985D01*
X71321015Y-151095519D01*
X71414147Y-151234900D01*
X71478297Y-151389772D01*
X71511000Y-151554184D01*
X71511000Y-151721816D01*
X71478297Y-151886228D01*
X71414147Y-152041100D01*
X71321015Y-152180481D01*
X71202481Y-152299015D01*
X71063100Y-152392147D01*
X70908228Y-152456297D01*
X70743816Y-152489000D01*
X70576184Y-152489000D01*
X70411772Y-152456297D01*
X70256900Y-152392147D01*
X70117519Y-152299015D01*
X69998985Y-152180481D01*
X69905853Y-152041100D01*
X69841703Y-151886228D01*
X69809000Y-151721816D01*
X69809000Y-151554184D01*
X69841703Y-151389772D01*
X69905853Y-151234900D01*
X69998985Y-151095519D01*
X70117519Y-150976985D01*
X70256900Y-150883853D01*
X70411772Y-150819703D01*
X70576184Y-150787000D01*
X70743816Y-150787000D01*
X70908228Y-150819703D01*
G37*
G36*
X65368228Y-150819703D02*
G01*
X65523100Y-150883853D01*
X65662481Y-150976985D01*
X65781015Y-151095519D01*
X65874147Y-151234900D01*
X65938297Y-151389772D01*
X65971000Y-151554184D01*
X65971000Y-151721816D01*
X65938297Y-151886228D01*
X65874147Y-152041100D01*
X65781015Y-152180481D01*
X65662481Y-152299015D01*
X65523100Y-152392147D01*
X65368228Y-152456297D01*
X65203816Y-152489000D01*
X65036184Y-152489000D01*
X64871772Y-152456297D01*
X64716900Y-152392147D01*
X64577519Y-152299015D01*
X64458985Y-152180481D01*
X64365853Y-152041100D01*
X64301703Y-151886228D01*
X64269000Y-151721816D01*
X64269000Y-151554184D01*
X64301703Y-151389772D01*
X64365853Y-151234900D01*
X64458985Y-151095519D01*
X64577519Y-150976985D01*
X64716900Y-150883853D01*
X64871772Y-150819703D01*
X65036184Y-150787000D01*
X65203816Y-150787000D01*
X65368228Y-150819703D01*
G37*
G36*
X111087000Y-152489000D02*
G01*
X109385000Y-152489000D01*
X109385000Y-150787000D01*
X111087000Y-150787000D01*
X111087000Y-152489000D01*
G37*
G36*
X130178228Y-149749483D02*
G01*
X130366922Y-149806723D01*
X130540815Y-149899671D01*
X130693239Y-150024761D01*
X130818329Y-150177185D01*
X130911277Y-150351078D01*
X130968517Y-150539772D01*
X130987843Y-150736000D01*
X130968517Y-150932228D01*
X130911277Y-151120922D01*
X130818329Y-151294815D01*
X130693239Y-151447239D01*
X130540815Y-151572329D01*
X130366922Y-151665277D01*
X130178228Y-151722517D01*
X130031175Y-151737000D01*
X128032825Y-151737000D01*
X127885772Y-151722517D01*
X127697078Y-151665277D01*
X127523185Y-151572329D01*
X127370761Y-151447239D01*
X127245671Y-151294815D01*
X127152723Y-151120922D01*
X127095483Y-150932228D01*
X127076157Y-150736000D01*
X127095483Y-150539772D01*
X127152723Y-150351078D01*
X127245671Y-150177185D01*
X127370761Y-150024761D01*
X127523185Y-149899671D01*
X127697078Y-149806723D01*
X127885772Y-149749483D01*
X128032825Y-149735000D01*
X130031175Y-149735000D01*
X130178228Y-149749483D01*
G37*
G36*
X47891000Y-138061000D02*
G01*
X46089000Y-138061000D01*
X46089000Y-136259000D01*
X47891000Y-136259000D01*
X47891000Y-138061000D01*
G37*
G36*
X130441000Y-138061000D02*
G01*
X128639000Y-138061000D01*
X128639000Y-136259000D01*
X130441000Y-136259000D01*
X130441000Y-138061000D01*
G37*
G36*
X94119000Y-138061000D02*
G01*
X92317000Y-138061000D01*
X92317000Y-136259000D01*
X94119000Y-136259000D01*
X94119000Y-138061000D01*
G37*
G36*
X84213000Y-138061000D02*
G01*
X82411000Y-138061000D01*
X82411000Y-136259000D01*
X84213000Y-136259000D01*
X84213000Y-138061000D01*
G37*
G36*
X129653512Y-133723927D02*
G01*
X129802812Y-133753624D01*
X129966784Y-133821544D01*
X130114354Y-133920147D01*
X130239853Y-134045646D01*
X130338456Y-134193216D01*
X130406376Y-134357188D01*
X130441000Y-134531259D01*
X130441000Y-134708741D01*
X130406376Y-134882812D01*
X130338456Y-135046784D01*
X130239853Y-135194354D01*
X130114354Y-135319853D01*
X129966784Y-135418456D01*
X129802812Y-135486376D01*
X129653512Y-135516073D01*
X129628742Y-135521000D01*
X129451258Y-135521000D01*
X129426488Y-135516073D01*
X129277188Y-135486376D01*
X129113216Y-135418456D01*
X128965646Y-135319853D01*
X128840147Y-135194354D01*
X128741544Y-135046784D01*
X128673624Y-134882812D01*
X128639000Y-134708741D01*
X128639000Y-134531259D01*
X128673624Y-134357188D01*
X128741544Y-134193216D01*
X128840147Y-134045646D01*
X128965646Y-133920147D01*
X129113216Y-133821544D01*
X129277188Y-133753624D01*
X129426488Y-133723927D01*
X129451258Y-133719000D01*
X129628742Y-133719000D01*
X129653512Y-133723927D01*
G37*
G36*
X93331512Y-133723927D02*
G01*
X93480812Y-133753624D01*
X93644784Y-133821544D01*
X93792354Y-133920147D01*
X93917853Y-134045646D01*
X94016456Y-134193216D01*
X94084376Y-134357188D01*
X94119000Y-134531259D01*
X94119000Y-134708741D01*
X94084376Y-134882812D01*
X94016456Y-135046784D01*
X93917853Y-135194354D01*
X93792354Y-135319853D01*
X93644784Y-135418456D01*
X93480812Y-135486376D01*
X93331512Y-135516073D01*
X93306742Y-135521000D01*
X93129258Y-135521000D01*
X93104488Y-135516073D01*
X92955188Y-135486376D01*
X92791216Y-135418456D01*
X92643646Y-135319853D01*
X92518147Y-135194354D01*
X92419544Y-135046784D01*
X92351624Y-134882812D01*
X92317000Y-134708741D01*
X92317000Y-134531259D01*
X92351624Y-134357188D01*
X92419544Y-134193216D01*
X92518147Y-134045646D01*
X92643646Y-133920147D01*
X92791216Y-133821544D01*
X92955188Y-133753624D01*
X93104488Y-133723927D01*
X93129258Y-133719000D01*
X93306742Y-133719000D01*
X93331512Y-133723927D01*
G37*
G36*
X83425512Y-133723927D02*
G01*
X83574812Y-133753624D01*
X83738784Y-133821544D01*
X83886354Y-133920147D01*
X84011853Y-134045646D01*
X84110456Y-134193216D01*
X84178376Y-134357188D01*
X84213000Y-134531259D01*
X84213000Y-134708741D01*
X84178376Y-134882812D01*
X84110456Y-135046784D01*
X84011853Y-135194354D01*
X83886354Y-135319853D01*
X83738784Y-135418456D01*
X83574812Y-135486376D01*
X83425512Y-135516073D01*
X83400742Y-135521000D01*
X83223258Y-135521000D01*
X83198488Y-135516073D01*
X83049188Y-135486376D01*
X82885216Y-135418456D01*
X82737646Y-135319853D01*
X82612147Y-135194354D01*
X82513544Y-135046784D01*
X82445624Y-134882812D01*
X82411000Y-134708741D01*
X82411000Y-134531259D01*
X82445624Y-134357188D01*
X82513544Y-134193216D01*
X82612147Y-134045646D01*
X82737646Y-133920147D01*
X82885216Y-133821544D01*
X83049188Y-133753624D01*
X83198488Y-133723927D01*
X83223258Y-133719000D01*
X83400742Y-133719000D01*
X83425512Y-133723927D01*
G37*
G36*
X47103512Y-133723927D02*
G01*
X47252812Y-133753624D01*
X47416784Y-133821544D01*
X47564354Y-133920147D01*
X47689853Y-134045646D01*
X47788456Y-134193216D01*
X47856376Y-134357188D01*
X47891000Y-134531259D01*
X47891000Y-134708741D01*
X47856376Y-134882812D01*
X47788456Y-135046784D01*
X47689853Y-135194354D01*
X47564354Y-135319853D01*
X47416784Y-135418456D01*
X47252812Y-135486376D01*
X47103512Y-135516073D01*
X47078742Y-135521000D01*
X46901258Y-135521000D01*
X46876488Y-135516073D01*
X46727188Y-135486376D01*
X46563216Y-135418456D01*
X46415646Y-135319853D01*
X46290147Y-135194354D01*
X46191544Y-135046784D01*
X46123624Y-134882812D01*
X46089000Y-134708741D01*
X46089000Y-134531259D01*
X46123624Y-134357188D01*
X46191544Y-134193216D01*
X46290147Y-134045646D01*
X46415646Y-133920147D01*
X46563216Y-133821544D01*
X46727188Y-133753624D01*
X46876488Y-133723927D01*
X46901258Y-133719000D01*
X47078742Y-133719000D01*
X47103512Y-133723927D01*
G37*
G36*
X93331512Y-131183927D02*
G01*
X93480812Y-131213624D01*
X93644784Y-131281544D01*
X93792354Y-131380147D01*
X93917853Y-131505646D01*
X94016456Y-131653216D01*
X94084376Y-131817188D01*
X94119000Y-131991259D01*
X94119000Y-132168741D01*
X94084376Y-132342812D01*
X94016456Y-132506784D01*
X93917853Y-132654354D01*
X93792354Y-132779853D01*
X93644784Y-132878456D01*
X93480812Y-132946376D01*
X93331512Y-132976073D01*
X93306742Y-132981000D01*
X93129258Y-132981000D01*
X93104488Y-132976073D01*
X92955188Y-132946376D01*
X92791216Y-132878456D01*
X92643646Y-132779853D01*
X92518147Y-132654354D01*
X92419544Y-132506784D01*
X92351624Y-132342812D01*
X92317000Y-132168741D01*
X92317000Y-131991259D01*
X92351624Y-131817188D01*
X92419544Y-131653216D01*
X92518147Y-131505646D01*
X92643646Y-131380147D01*
X92791216Y-131281544D01*
X92955188Y-131213624D01*
X93104488Y-131183927D01*
X93129258Y-131179000D01*
X93306742Y-131179000D01*
X93331512Y-131183927D01*
G37*
G36*
X47103512Y-131183927D02*
G01*
X47252812Y-131213624D01*
X47416784Y-131281544D01*
X47564354Y-131380147D01*
X47689853Y-131505646D01*
X47788456Y-131653216D01*
X47856376Y-131817188D01*
X47891000Y-131991259D01*
X47891000Y-132168741D01*
X47856376Y-132342812D01*
X47788456Y-132506784D01*
X47689853Y-132654354D01*
X47564354Y-132779853D01*
X47416784Y-132878456D01*
X47252812Y-132946376D01*
X47103512Y-132976073D01*
X47078742Y-132981000D01*
X46901258Y-132981000D01*
X46876488Y-132976073D01*
X46727188Y-132946376D01*
X46563216Y-132878456D01*
X46415646Y-132779853D01*
X46290147Y-132654354D01*
X46191544Y-132506784D01*
X46123624Y-132342812D01*
X46089000Y-132168741D01*
X46089000Y-131991259D01*
X46123624Y-131817188D01*
X46191544Y-131653216D01*
X46290147Y-131505646D01*
X46415646Y-131380147D01*
X46563216Y-131281544D01*
X46727188Y-131213624D01*
X46876488Y-131183927D01*
X46901258Y-131179000D01*
X47078742Y-131179000D01*
X47103512Y-131183927D01*
G37*
G36*
X83425512Y-131183927D02*
G01*
X83574812Y-131213624D01*
X83738784Y-131281544D01*
X83886354Y-131380147D01*
X84011853Y-131505646D01*
X84110456Y-131653216D01*
X84178376Y-131817188D01*
X84213000Y-131991259D01*
X84213000Y-132168741D01*
X84178376Y-132342812D01*
X84110456Y-132506784D01*
X84011853Y-132654354D01*
X83886354Y-132779853D01*
X83738784Y-132878456D01*
X83574812Y-132946376D01*
X83425512Y-132976073D01*
X83400742Y-132981000D01*
X83223258Y-132981000D01*
X83198488Y-132976073D01*
X83049188Y-132946376D01*
X82885216Y-132878456D01*
X82737646Y-132779853D01*
X82612147Y-132654354D01*
X82513544Y-132506784D01*
X82445624Y-132342812D01*
X82411000Y-132168741D01*
X82411000Y-131991259D01*
X82445624Y-131817188D01*
X82513544Y-131653216D01*
X82612147Y-131505646D01*
X82737646Y-131380147D01*
X82885216Y-131281544D01*
X83049188Y-131213624D01*
X83198488Y-131183927D01*
X83223258Y-131179000D01*
X83400742Y-131179000D01*
X83425512Y-131183927D01*
G37*
G36*
X129653512Y-131183927D02*
G01*
X129802812Y-131213624D01*
X129966784Y-131281544D01*
X130114354Y-131380147D01*
X130239853Y-131505646D01*
X130338456Y-131653216D01*
X130406376Y-131817188D01*
X130441000Y-131991259D01*
X130441000Y-132168741D01*
X130406376Y-132342812D01*
X130338456Y-132506784D01*
X130239853Y-132654354D01*
X130114354Y-132779853D01*
X129966784Y-132878456D01*
X129802812Y-132946376D01*
X129653512Y-132976073D01*
X129628742Y-132981000D01*
X129451258Y-132981000D01*
X129426488Y-132976073D01*
X129277188Y-132946376D01*
X129113216Y-132878456D01*
X128965646Y-132779853D01*
X128840147Y-132654354D01*
X128741544Y-132506784D01*
X128673624Y-132342812D01*
X128639000Y-132168741D01*
X128639000Y-131991259D01*
X128673624Y-131817188D01*
X128741544Y-131653216D01*
X128840147Y-131505646D01*
X128965646Y-131380147D01*
X129113216Y-131281544D01*
X129277188Y-131213624D01*
X129426488Y-131183927D01*
X129451258Y-131179000D01*
X129628742Y-131179000D01*
X129653512Y-131183927D01*
G37*
G36*
X129653512Y-128643927D02*
G01*
X129802812Y-128673624D01*
X129966784Y-128741544D01*
X130114354Y-128840147D01*
X130239853Y-128965646D01*
X130338456Y-129113216D01*
X130406376Y-129277188D01*
X130441000Y-129451259D01*
X130441000Y-129628741D01*
X130406376Y-129802812D01*
X130338456Y-129966784D01*
X130239853Y-130114354D01*
X130114354Y-130239853D01*
X129966784Y-130338456D01*
X129802812Y-130406376D01*
X129653512Y-130436073D01*
X129628742Y-130441000D01*
X129451258Y-130441000D01*
X129426488Y-130436073D01*
X129277188Y-130406376D01*
X129113216Y-130338456D01*
X128965646Y-130239853D01*
X128840147Y-130114354D01*
X128741544Y-129966784D01*
X128673624Y-129802812D01*
X128639000Y-129628741D01*
X128639000Y-129451259D01*
X128673624Y-129277188D01*
X128741544Y-129113216D01*
X128840147Y-128965646D01*
X128965646Y-128840147D01*
X129113216Y-128741544D01*
X129277188Y-128673624D01*
X129426488Y-128643927D01*
X129451258Y-128639000D01*
X129628742Y-128639000D01*
X129653512Y-128643927D01*
G37*
G36*
X93331512Y-128643927D02*
G01*
X93480812Y-128673624D01*
X93644784Y-128741544D01*
X93792354Y-128840147D01*
X93917853Y-128965646D01*
X94016456Y-129113216D01*
X94084376Y-129277188D01*
X94119000Y-129451259D01*
X94119000Y-129628741D01*
X94084376Y-129802812D01*
X94016456Y-129966784D01*
X93917853Y-130114354D01*
X93792354Y-130239853D01*
X93644784Y-130338456D01*
X93480812Y-130406376D01*
X93331512Y-130436073D01*
X93306742Y-130441000D01*
X93129258Y-130441000D01*
X93104488Y-130436073D01*
X92955188Y-130406376D01*
X92791216Y-130338456D01*
X92643646Y-130239853D01*
X92518147Y-130114354D01*
X92419544Y-129966784D01*
X92351624Y-129802812D01*
X92317000Y-129628741D01*
X92317000Y-129451259D01*
X92351624Y-129277188D01*
X92419544Y-129113216D01*
X92518147Y-128965646D01*
X92643646Y-128840147D01*
X92791216Y-128741544D01*
X92955188Y-128673624D01*
X93104488Y-128643927D01*
X93129258Y-128639000D01*
X93306742Y-128639000D01*
X93331512Y-128643927D01*
G37*
G36*
X83425512Y-128643927D02*
G01*
X83574812Y-128673624D01*
X83738784Y-128741544D01*
X83886354Y-128840147D01*
X84011853Y-128965646D01*
X84110456Y-129113216D01*
X84178376Y-129277188D01*
X84213000Y-129451259D01*
X84213000Y-129628741D01*
X84178376Y-129802812D01*
X84110456Y-129966784D01*
X84011853Y-130114354D01*
X83886354Y-130239853D01*
X83738784Y-130338456D01*
X83574812Y-130406376D01*
X83425512Y-130436073D01*
X83400742Y-130441000D01*
X83223258Y-130441000D01*
X83198488Y-130436073D01*
X83049188Y-130406376D01*
X82885216Y-130338456D01*
X82737646Y-130239853D01*
X82612147Y-130114354D01*
X82513544Y-129966784D01*
X82445624Y-129802812D01*
X82411000Y-129628741D01*
X82411000Y-129451259D01*
X82445624Y-129277188D01*
X82513544Y-129113216D01*
X82612147Y-128965646D01*
X82737646Y-128840147D01*
X82885216Y-128741544D01*
X83049188Y-128673624D01*
X83198488Y-128643927D01*
X83223258Y-128639000D01*
X83400742Y-128639000D01*
X83425512Y-128643927D01*
G37*
G36*
X47103512Y-128643927D02*
G01*
X47252812Y-128673624D01*
X47416784Y-128741544D01*
X47564354Y-128840147D01*
X47689853Y-128965646D01*
X47788456Y-129113216D01*
X47856376Y-129277188D01*
X47891000Y-129451259D01*
X47891000Y-129628741D01*
X47856376Y-129802812D01*
X47788456Y-129966784D01*
X47689853Y-130114354D01*
X47564354Y-130239853D01*
X47416784Y-130338456D01*
X47252812Y-130406376D01*
X47103512Y-130436073D01*
X47078742Y-130441000D01*
X46901258Y-130441000D01*
X46876488Y-130436073D01*
X46727188Y-130406376D01*
X46563216Y-130338456D01*
X46415646Y-130239853D01*
X46290147Y-130114354D01*
X46191544Y-129966784D01*
X46123624Y-129802812D01*
X46089000Y-129628741D01*
X46089000Y-129451259D01*
X46123624Y-129277188D01*
X46191544Y-129113216D01*
X46290147Y-128965646D01*
X46415646Y-128840147D01*
X46563216Y-128741544D01*
X46727188Y-128673624D01*
X46876488Y-128643927D01*
X46901258Y-128639000D01*
X47078742Y-128639000D01*
X47103512Y-128643927D01*
G37*
G36*
X47103512Y-126103927D02*
G01*
X47252812Y-126133624D01*
X47416784Y-126201544D01*
X47564354Y-126300147D01*
X47689853Y-126425646D01*
X47788456Y-126573216D01*
X47856376Y-126737188D01*
X47891000Y-126911259D01*
X47891000Y-127088741D01*
X47856376Y-127262812D01*
X47788456Y-127426784D01*
X47689853Y-127574354D01*
X47564354Y-127699853D01*
X47416784Y-127798456D01*
X47252812Y-127866376D01*
X47103512Y-127896073D01*
X47078742Y-127901000D01*
X46901258Y-127901000D01*
X46876488Y-127896073D01*
X46727188Y-127866376D01*
X46563216Y-127798456D01*
X46415646Y-127699853D01*
X46290147Y-127574354D01*
X46191544Y-127426784D01*
X46123624Y-127262812D01*
X46089000Y-127088741D01*
X46089000Y-126911259D01*
X46123624Y-126737188D01*
X46191544Y-126573216D01*
X46290147Y-126425646D01*
X46415646Y-126300147D01*
X46563216Y-126201544D01*
X46727188Y-126133624D01*
X46876488Y-126103927D01*
X46901258Y-126099000D01*
X47078742Y-126099000D01*
X47103512Y-126103927D01*
G37*
G36*
X83425512Y-126103927D02*
G01*
X83574812Y-126133624D01*
X83738784Y-126201544D01*
X83886354Y-126300147D01*
X84011853Y-126425646D01*
X84110456Y-126573216D01*
X84178376Y-126737188D01*
X84213000Y-126911259D01*
X84213000Y-127088741D01*
X84178376Y-127262812D01*
X84110456Y-127426784D01*
X84011853Y-127574354D01*
X83886354Y-127699853D01*
X83738784Y-127798456D01*
X83574812Y-127866376D01*
X83425512Y-127896073D01*
X83400742Y-127901000D01*
X83223258Y-127901000D01*
X83198488Y-127896073D01*
X83049188Y-127866376D01*
X82885216Y-127798456D01*
X82737646Y-127699853D01*
X82612147Y-127574354D01*
X82513544Y-127426784D01*
X82445624Y-127262812D01*
X82411000Y-127088741D01*
X82411000Y-126911259D01*
X82445624Y-126737188D01*
X82513544Y-126573216D01*
X82612147Y-126425646D01*
X82737646Y-126300147D01*
X82885216Y-126201544D01*
X83049188Y-126133624D01*
X83198488Y-126103927D01*
X83223258Y-126099000D01*
X83400742Y-126099000D01*
X83425512Y-126103927D01*
G37*
G36*
X93331512Y-126103927D02*
G01*
X93480812Y-126133624D01*
X93644784Y-126201544D01*
X93792354Y-126300147D01*
X93917853Y-126425646D01*
X94016456Y-126573216D01*
X94084376Y-126737188D01*
X94119000Y-126911259D01*
X94119000Y-127088741D01*
X94084376Y-127262812D01*
X94016456Y-127426784D01*
X93917853Y-127574354D01*
X93792354Y-127699853D01*
X93644784Y-127798456D01*
X93480812Y-127866376D01*
X93331512Y-127896073D01*
X93306742Y-127901000D01*
X93129258Y-127901000D01*
X93104488Y-127896073D01*
X92955188Y-127866376D01*
X92791216Y-127798456D01*
X92643646Y-127699853D01*
X92518147Y-127574354D01*
X92419544Y-127426784D01*
X92351624Y-127262812D01*
X92317000Y-127088741D01*
X92317000Y-126911259D01*
X92351624Y-126737188D01*
X92419544Y-126573216D01*
X92518147Y-126425646D01*
X92643646Y-126300147D01*
X92791216Y-126201544D01*
X92955188Y-126133624D01*
X93104488Y-126103927D01*
X93129258Y-126099000D01*
X93306742Y-126099000D01*
X93331512Y-126103927D01*
G37*
G36*
X129653512Y-126103927D02*
G01*
X129802812Y-126133624D01*
X129966784Y-126201544D01*
X130114354Y-126300147D01*
X130239853Y-126425646D01*
X130338456Y-126573216D01*
X130406376Y-126737188D01*
X130441000Y-126911259D01*
X130441000Y-127088741D01*
X130406376Y-127262812D01*
X130338456Y-127426784D01*
X130239853Y-127574354D01*
X130114354Y-127699853D01*
X129966784Y-127798456D01*
X129802812Y-127866376D01*
X129653512Y-127896073D01*
X129628742Y-127901000D01*
X129451258Y-127901000D01*
X129426488Y-127896073D01*
X129277188Y-127866376D01*
X129113216Y-127798456D01*
X128965646Y-127699853D01*
X128840147Y-127574354D01*
X128741544Y-127426784D01*
X128673624Y-127262812D01*
X128639000Y-127088741D01*
X128639000Y-126911259D01*
X128673624Y-126737188D01*
X128741544Y-126573216D01*
X128840147Y-126425646D01*
X128965646Y-126300147D01*
X129113216Y-126201544D01*
X129277188Y-126133624D01*
X129426488Y-126103927D01*
X129451258Y-126099000D01*
X129628742Y-126099000D01*
X129653512Y-126103927D01*
G37*
G36*
X47103512Y-123563927D02*
G01*
X47252812Y-123593624D01*
X47416784Y-123661544D01*
X47564354Y-123760147D01*
X47689853Y-123885646D01*
X47788456Y-124033216D01*
X47856376Y-124197188D01*
X47891000Y-124371259D01*
X47891000Y-124548741D01*
X47856376Y-124722812D01*
X47788456Y-124886784D01*
X47689853Y-125034354D01*
X47564354Y-125159853D01*
X47416784Y-125258456D01*
X47252812Y-125326376D01*
X47103512Y-125356073D01*
X47078742Y-125361000D01*
X46901258Y-125361000D01*
X46876488Y-125356073D01*
X46727188Y-125326376D01*
X46563216Y-125258456D01*
X46415646Y-125159853D01*
X46290147Y-125034354D01*
X46191544Y-124886784D01*
X46123624Y-124722812D01*
X46089000Y-124548741D01*
X46089000Y-124371259D01*
X46123624Y-124197188D01*
X46191544Y-124033216D01*
X46290147Y-123885646D01*
X46415646Y-123760147D01*
X46563216Y-123661544D01*
X46727188Y-123593624D01*
X46876488Y-123563927D01*
X46901258Y-123559000D01*
X47078742Y-123559000D01*
X47103512Y-123563927D01*
G37*
G36*
X83425512Y-123563927D02*
G01*
X83574812Y-123593624D01*
X83738784Y-123661544D01*
X83886354Y-123760147D01*
X84011853Y-123885646D01*
X84110456Y-124033216D01*
X84178376Y-124197188D01*
X84213000Y-124371259D01*
X84213000Y-124548741D01*
X84178376Y-124722812D01*
X84110456Y-124886784D01*
X84011853Y-125034354D01*
X83886354Y-125159853D01*
X83738784Y-125258456D01*
X83574812Y-125326376D01*
X83425512Y-125356073D01*
X83400742Y-125361000D01*
X83223258Y-125361000D01*
X83198488Y-125356073D01*
X83049188Y-125326376D01*
X82885216Y-125258456D01*
X82737646Y-125159853D01*
X82612147Y-125034354D01*
X82513544Y-124886784D01*
X82445624Y-124722812D01*
X82411000Y-124548741D01*
X82411000Y-124371259D01*
X82445624Y-124197188D01*
X82513544Y-124033216D01*
X82612147Y-123885646D01*
X82737646Y-123760147D01*
X82885216Y-123661544D01*
X83049188Y-123593624D01*
X83198488Y-123563927D01*
X83223258Y-123559000D01*
X83400742Y-123559000D01*
X83425512Y-123563927D01*
G37*
G36*
X93331512Y-123563927D02*
G01*
X93480812Y-123593624D01*
X93644784Y-123661544D01*
X93792354Y-123760147D01*
X93917853Y-123885646D01*
X94016456Y-124033216D01*
X94084376Y-124197188D01*
X94119000Y-124371259D01*
X94119000Y-124548741D01*
X94084376Y-124722812D01*
X94016456Y-124886784D01*
X93917853Y-125034354D01*
X93792354Y-125159853D01*
X93644784Y-125258456D01*
X93480812Y-125326376D01*
X93331512Y-125356073D01*
X93306742Y-125361000D01*
X93129258Y-125361000D01*
X93104488Y-125356073D01*
X92955188Y-125326376D01*
X92791216Y-125258456D01*
X92643646Y-125159853D01*
X92518147Y-125034354D01*
X92419544Y-124886784D01*
X92351624Y-124722812D01*
X92317000Y-124548741D01*
X92317000Y-124371259D01*
X92351624Y-124197188D01*
X92419544Y-124033216D01*
X92518147Y-123885646D01*
X92643646Y-123760147D01*
X92791216Y-123661544D01*
X92955188Y-123593624D01*
X93104488Y-123563927D01*
X93129258Y-123559000D01*
X93306742Y-123559000D01*
X93331512Y-123563927D01*
G37*
G36*
X129653512Y-123563927D02*
G01*
X129802812Y-123593624D01*
X129966784Y-123661544D01*
X130114354Y-123760147D01*
X130239853Y-123885646D01*
X130338456Y-124033216D01*
X130406376Y-124197188D01*
X130441000Y-124371259D01*
X130441000Y-124548741D01*
X130406376Y-124722812D01*
X130338456Y-124886784D01*
X130239853Y-125034354D01*
X130114354Y-125159853D01*
X129966784Y-125258456D01*
X129802812Y-125326376D01*
X129653512Y-125356073D01*
X129628742Y-125361000D01*
X129451258Y-125361000D01*
X129426488Y-125356073D01*
X129277188Y-125326376D01*
X129113216Y-125258456D01*
X128965646Y-125159853D01*
X128840147Y-125034354D01*
X128741544Y-124886784D01*
X128673624Y-124722812D01*
X128639000Y-124548741D01*
X128639000Y-124371259D01*
X128673624Y-124197188D01*
X128741544Y-124033216D01*
X128840147Y-123885646D01*
X128965646Y-123760147D01*
X129113216Y-123661544D01*
X129277188Y-123593624D01*
X129426488Y-123563927D01*
X129451258Y-123559000D01*
X129628742Y-123559000D01*
X129653512Y-123563927D01*
G37*
G36*
X47103512Y-121023927D02*
G01*
X47252812Y-121053624D01*
X47416784Y-121121544D01*
X47564354Y-121220147D01*
X47689853Y-121345646D01*
X47788456Y-121493216D01*
X47856376Y-121657188D01*
X47891000Y-121831259D01*
X47891000Y-122008741D01*
X47856376Y-122182812D01*
X47788456Y-122346784D01*
X47689853Y-122494354D01*
X47564354Y-122619853D01*
X47416784Y-122718456D01*
X47252812Y-122786376D01*
X47103512Y-122816073D01*
X47078742Y-122821000D01*
X46901258Y-122821000D01*
X46876488Y-122816073D01*
X46727188Y-122786376D01*
X46563216Y-122718456D01*
X46415646Y-122619853D01*
X46290147Y-122494354D01*
X46191544Y-122346784D01*
X46123624Y-122182812D01*
X46089000Y-122008741D01*
X46089000Y-121831259D01*
X46123624Y-121657188D01*
X46191544Y-121493216D01*
X46290147Y-121345646D01*
X46415646Y-121220147D01*
X46563216Y-121121544D01*
X46727188Y-121053624D01*
X46876488Y-121023927D01*
X46901258Y-121019000D01*
X47078742Y-121019000D01*
X47103512Y-121023927D01*
G37*
G36*
X93331512Y-121023927D02*
G01*
X93480812Y-121053624D01*
X93644784Y-121121544D01*
X93792354Y-121220147D01*
X93917853Y-121345646D01*
X94016456Y-121493216D01*
X94084376Y-121657188D01*
X94119000Y-121831259D01*
X94119000Y-122008741D01*
X94084376Y-122182812D01*
X94016456Y-122346784D01*
X93917853Y-122494354D01*
X93792354Y-122619853D01*
X93644784Y-122718456D01*
X93480812Y-122786376D01*
X93331512Y-122816073D01*
X93306742Y-122821000D01*
X93129258Y-122821000D01*
X93104488Y-122816073D01*
X92955188Y-122786376D01*
X92791216Y-122718456D01*
X92643646Y-122619853D01*
X92518147Y-122494354D01*
X92419544Y-122346784D01*
X92351624Y-122182812D01*
X92317000Y-122008741D01*
X92317000Y-121831259D01*
X92351624Y-121657188D01*
X92419544Y-121493216D01*
X92518147Y-121345646D01*
X92643646Y-121220147D01*
X92791216Y-121121544D01*
X92955188Y-121053624D01*
X93104488Y-121023927D01*
X93129258Y-121019000D01*
X93306742Y-121019000D01*
X93331512Y-121023927D01*
G37*
G36*
X83425512Y-121023927D02*
G01*
X83574812Y-121053624D01*
X83738784Y-121121544D01*
X83886354Y-121220147D01*
X84011853Y-121345646D01*
X84110456Y-121493216D01*
X84178376Y-121657188D01*
X84213000Y-121831259D01*
X84213000Y-122008741D01*
X84178376Y-122182812D01*
X84110456Y-122346784D01*
X84011853Y-122494354D01*
X83886354Y-122619853D01*
X83738784Y-122718456D01*
X83574812Y-122786376D01*
X83425512Y-122816073D01*
X83400742Y-122821000D01*
X83223258Y-122821000D01*
X83198488Y-122816073D01*
X83049188Y-122786376D01*
X82885216Y-122718456D01*
X82737646Y-122619853D01*
X82612147Y-122494354D01*
X82513544Y-122346784D01*
X82445624Y-122182812D01*
X82411000Y-122008741D01*
X82411000Y-121831259D01*
X82445624Y-121657188D01*
X82513544Y-121493216D01*
X82612147Y-121345646D01*
X82737646Y-121220147D01*
X82885216Y-121121544D01*
X83049188Y-121053624D01*
X83198488Y-121023927D01*
X83223258Y-121019000D01*
X83400742Y-121019000D01*
X83425512Y-121023927D01*
G37*
G36*
X129653512Y-121023927D02*
G01*
X129802812Y-121053624D01*
X129966784Y-121121544D01*
X130114354Y-121220147D01*
X130239853Y-121345646D01*
X130338456Y-121493216D01*
X130406376Y-121657188D01*
X130441000Y-121831259D01*
X130441000Y-122008741D01*
X130406376Y-122182812D01*
X130338456Y-122346784D01*
X130239853Y-122494354D01*
X130114354Y-122619853D01*
X129966784Y-122718456D01*
X129802812Y-122786376D01*
X129653512Y-122816073D01*
X129628742Y-122821000D01*
X129451258Y-122821000D01*
X129426488Y-122816073D01*
X129277188Y-122786376D01*
X129113216Y-122718456D01*
X128965646Y-122619853D01*
X128840147Y-122494354D01*
X128741544Y-122346784D01*
X128673624Y-122182812D01*
X128639000Y-122008741D01*
X128639000Y-121831259D01*
X128673624Y-121657188D01*
X128741544Y-121493216D01*
X128840147Y-121345646D01*
X128965646Y-121220147D01*
X129113216Y-121121544D01*
X129277188Y-121053624D01*
X129426488Y-121023927D01*
X129451258Y-121019000D01*
X129628742Y-121019000D01*
X129653512Y-121023927D01*
G37*
G36*
X83425512Y-118483927D02*
G01*
X83574812Y-118513624D01*
X83738784Y-118581544D01*
X83886354Y-118680147D01*
X84011853Y-118805646D01*
X84110456Y-118953216D01*
X84178376Y-119117188D01*
X84213000Y-119291259D01*
X84213000Y-119468741D01*
X84178376Y-119642812D01*
X84110456Y-119806784D01*
X84011853Y-119954354D01*
X83886354Y-120079853D01*
X83738784Y-120178456D01*
X83574812Y-120246376D01*
X83425512Y-120276073D01*
X83400742Y-120281000D01*
X83223258Y-120281000D01*
X83198488Y-120276073D01*
X83049188Y-120246376D01*
X82885216Y-120178456D01*
X82737646Y-120079853D01*
X82612147Y-119954354D01*
X82513544Y-119806784D01*
X82445624Y-119642812D01*
X82411000Y-119468741D01*
X82411000Y-119291259D01*
X82445624Y-119117188D01*
X82513544Y-118953216D01*
X82612147Y-118805646D01*
X82737646Y-118680147D01*
X82885216Y-118581544D01*
X83049188Y-118513624D01*
X83198488Y-118483927D01*
X83223258Y-118479000D01*
X83400742Y-118479000D01*
X83425512Y-118483927D01*
G37*
G36*
X93331512Y-118483927D02*
G01*
X93480812Y-118513624D01*
X93644784Y-118581544D01*
X93792354Y-118680147D01*
X93917853Y-118805646D01*
X94016456Y-118953216D01*
X94084376Y-119117188D01*
X94119000Y-119291259D01*
X94119000Y-119468741D01*
X94084376Y-119642812D01*
X94016456Y-119806784D01*
X93917853Y-119954354D01*
X93792354Y-120079853D01*
X93644784Y-120178456D01*
X93480812Y-120246376D01*
X93331512Y-120276073D01*
X93306742Y-120281000D01*
X93129258Y-120281000D01*
X93104488Y-120276073D01*
X92955188Y-120246376D01*
X92791216Y-120178456D01*
X92643646Y-120079853D01*
X92518147Y-119954354D01*
X92419544Y-119806784D01*
X92351624Y-119642812D01*
X92317000Y-119468741D01*
X92317000Y-119291259D01*
X92351624Y-119117188D01*
X92419544Y-118953216D01*
X92518147Y-118805646D01*
X92643646Y-118680147D01*
X92791216Y-118581544D01*
X92955188Y-118513624D01*
X93104488Y-118483927D01*
X93129258Y-118479000D01*
X93306742Y-118479000D01*
X93331512Y-118483927D01*
G37*
G36*
X47103512Y-118483927D02*
G01*
X47252812Y-118513624D01*
X47416784Y-118581544D01*
X47564354Y-118680147D01*
X47689853Y-118805646D01*
X47788456Y-118953216D01*
X47856376Y-119117188D01*
X47891000Y-119291259D01*
X47891000Y-119468741D01*
X47856376Y-119642812D01*
X47788456Y-119806784D01*
X47689853Y-119954354D01*
X47564354Y-120079853D01*
X47416784Y-120178456D01*
X47252812Y-120246376D01*
X47103512Y-120276073D01*
X47078742Y-120281000D01*
X46901258Y-120281000D01*
X46876488Y-120276073D01*
X46727188Y-120246376D01*
X46563216Y-120178456D01*
X46415646Y-120079853D01*
X46290147Y-119954354D01*
X46191544Y-119806784D01*
X46123624Y-119642812D01*
X46089000Y-119468741D01*
X46089000Y-119291259D01*
X46123624Y-119117188D01*
X46191544Y-118953216D01*
X46290147Y-118805646D01*
X46415646Y-118680147D01*
X46563216Y-118581544D01*
X46727188Y-118513624D01*
X46876488Y-118483927D01*
X46901258Y-118479000D01*
X47078742Y-118479000D01*
X47103512Y-118483927D01*
G37*
G36*
X129653512Y-118483927D02*
G01*
X129802812Y-118513624D01*
X129966784Y-118581544D01*
X130114354Y-118680147D01*
X130239853Y-118805646D01*
X130338456Y-118953216D01*
X130406376Y-119117188D01*
X130441000Y-119291259D01*
X130441000Y-119468741D01*
X130406376Y-119642812D01*
X130338456Y-119806784D01*
X130239853Y-119954354D01*
X130114354Y-120079853D01*
X129966784Y-120178456D01*
X129802812Y-120246376D01*
X129653512Y-120276073D01*
X129628742Y-120281000D01*
X129451258Y-120281000D01*
X129426488Y-120276073D01*
X129277188Y-120246376D01*
X129113216Y-120178456D01*
X128965646Y-120079853D01*
X128840147Y-119954354D01*
X128741544Y-119806784D01*
X128673624Y-119642812D01*
X128639000Y-119468741D01*
X128639000Y-119291259D01*
X128673624Y-119117188D01*
X128741544Y-118953216D01*
X128840147Y-118805646D01*
X128965646Y-118680147D01*
X129113216Y-118581544D01*
X129277188Y-118513624D01*
X129426488Y-118483927D01*
X129451258Y-118479000D01*
X129628742Y-118479000D01*
X129653512Y-118483927D01*
G37*
G36*
X132701512Y-74541927D02*
G01*
X132850812Y-74571624D01*
X133014784Y-74639544D01*
X133162354Y-74738147D01*
X133287853Y-74863646D01*
X133386456Y-75011216D01*
X133454376Y-75175188D01*
X133489000Y-75349259D01*
X133489000Y-75526741D01*
X133454376Y-75700812D01*
X133386456Y-75864784D01*
X133287853Y-76012354D01*
X133162354Y-76137853D01*
X133014784Y-76236456D01*
X132850812Y-76304376D01*
X132701512Y-76334073D01*
X132676742Y-76339000D01*
X132499258Y-76339000D01*
X132474488Y-76334073D01*
X132325188Y-76304376D01*
X132161216Y-76236456D01*
X132013646Y-76137853D01*
X131888147Y-76012354D01*
X131789544Y-75864784D01*
X131721624Y-75700812D01*
X131687000Y-75526741D01*
X131687000Y-75349259D01*
X131721624Y-75175188D01*
X131789544Y-75011216D01*
X131888147Y-74863646D01*
X132013646Y-74738147D01*
X132161216Y-74639544D01*
X132325188Y-74571624D01*
X132474488Y-74541927D01*
X132499258Y-74537000D01*
X132676742Y-74537000D01*
X132701512Y-74541927D01*
G37*
G36*
X135241512Y-74541927D02*
G01*
X135390812Y-74571624D01*
X135554784Y-74639544D01*
X135702354Y-74738147D01*
X135827853Y-74863646D01*
X135926456Y-75011216D01*
X135994376Y-75175188D01*
X136029000Y-75349259D01*
X136029000Y-75526741D01*
X135994376Y-75700812D01*
X135926456Y-75864784D01*
X135827853Y-76012354D01*
X135702354Y-76137853D01*
X135554784Y-76236456D01*
X135390812Y-76304376D01*
X135241512Y-76334073D01*
X135216742Y-76339000D01*
X135039258Y-76339000D01*
X135014488Y-76334073D01*
X134865188Y-76304376D01*
X134701216Y-76236456D01*
X134553646Y-76137853D01*
X134428147Y-76012354D01*
X134329544Y-75864784D01*
X134261624Y-75700812D01*
X134227000Y-75526741D01*
X134227000Y-75349259D01*
X134261624Y-75175188D01*
X134329544Y-75011216D01*
X134428147Y-74863646D01*
X134553646Y-74738147D01*
X134701216Y-74639544D01*
X134865188Y-74571624D01*
X135014488Y-74541927D01*
X135039258Y-74537000D01*
X135216742Y-74537000D01*
X135241512Y-74541927D01*
G37*
G36*
X154467512Y-72001927D02*
G01*
X154616812Y-72031624D01*
X154780784Y-72099544D01*
X154928354Y-72198147D01*
X155053853Y-72323646D01*
X155152456Y-72471216D01*
X155220376Y-72635188D01*
X155255000Y-72809259D01*
X155255000Y-72986741D01*
X155220376Y-73160812D01*
X155152456Y-73324784D01*
X155053853Y-73472354D01*
X154928354Y-73597853D01*
X154780784Y-73696456D01*
X154616812Y-73764376D01*
X154467512Y-73794073D01*
X154442742Y-73799000D01*
X154265258Y-73799000D01*
X154240488Y-73794073D01*
X154091188Y-73764376D01*
X153927216Y-73696456D01*
X153779646Y-73597853D01*
X153654147Y-73472354D01*
X153555544Y-73324784D01*
X153487624Y-73160812D01*
X153453000Y-72986741D01*
X153453000Y-72809259D01*
X153487624Y-72635188D01*
X153555544Y-72471216D01*
X153654147Y-72323646D01*
X153779646Y-72198147D01*
X153927216Y-72099544D01*
X154091188Y-72031624D01*
X154240488Y-72001927D01*
X154265258Y-71997000D01*
X154442742Y-71997000D01*
X154467512Y-72001927D01*
G37*
G36*
X135241512Y-72001927D02*
G01*
X135390812Y-72031624D01*
X135554784Y-72099544D01*
X135702354Y-72198147D01*
X135827853Y-72323646D01*
X135926456Y-72471216D01*
X135994376Y-72635188D01*
X136029000Y-72809259D01*
X136029000Y-72986741D01*
X135994376Y-73160812D01*
X135926456Y-73324784D01*
X135827853Y-73472354D01*
X135702354Y-73597853D01*
X135554784Y-73696456D01*
X135390812Y-73764376D01*
X135241512Y-73794073D01*
X135216742Y-73799000D01*
X135039258Y-73799000D01*
X135014488Y-73794073D01*
X134865188Y-73764376D01*
X134701216Y-73696456D01*
X134553646Y-73597853D01*
X134428147Y-73472354D01*
X134329544Y-73324784D01*
X134261624Y-73160812D01*
X134227000Y-72986741D01*
X134227000Y-72809259D01*
X134261624Y-72635188D01*
X134329544Y-72471216D01*
X134428147Y-72323646D01*
X134553646Y-72198147D01*
X134701216Y-72099544D01*
X134865188Y-72031624D01*
X135014488Y-72001927D01*
X135039258Y-71997000D01*
X135216742Y-71997000D01*
X135241512Y-72001927D01*
G37*
G36*
X161911512Y-72001927D02*
G01*
X162060812Y-72031624D01*
X162224784Y-72099544D01*
X162372354Y-72198147D01*
X162497853Y-72323646D01*
X162596456Y-72471216D01*
X162664376Y-72635188D01*
X162699000Y-72809259D01*
X162699000Y-72986741D01*
X162664376Y-73160812D01*
X162596456Y-73324784D01*
X162497853Y-73472354D01*
X162372354Y-73597853D01*
X162224784Y-73696456D01*
X162060812Y-73764376D01*
X161911512Y-73794073D01*
X161886742Y-73799000D01*
X161709258Y-73799000D01*
X161684488Y-73794073D01*
X161535188Y-73764376D01*
X161371216Y-73696456D01*
X161223646Y-73597853D01*
X161098147Y-73472354D01*
X160999544Y-73324784D01*
X160931624Y-73160812D01*
X160897000Y-72986741D01*
X160897000Y-72809259D01*
X160931624Y-72635188D01*
X160999544Y-72471216D01*
X161098147Y-72323646D01*
X161223646Y-72198147D01*
X161371216Y-72099544D01*
X161535188Y-72031624D01*
X161684488Y-72001927D01*
X161709258Y-71997000D01*
X161886742Y-71997000D01*
X161911512Y-72001927D01*
G37*
G36*
X132701512Y-72001927D02*
G01*
X132850812Y-72031624D01*
X133014784Y-72099544D01*
X133162354Y-72198147D01*
X133287853Y-72323646D01*
X133386456Y-72471216D01*
X133454376Y-72635188D01*
X133489000Y-72809259D01*
X133489000Y-72986741D01*
X133454376Y-73160812D01*
X133386456Y-73324784D01*
X133287853Y-73472354D01*
X133162354Y-73597853D01*
X133014784Y-73696456D01*
X132850812Y-73764376D01*
X132701512Y-73794073D01*
X132676742Y-73799000D01*
X132499258Y-73799000D01*
X132474488Y-73794073D01*
X132325188Y-73764376D01*
X132161216Y-73696456D01*
X132013646Y-73597853D01*
X131888147Y-73472354D01*
X131789544Y-73324784D01*
X131721624Y-73160812D01*
X131687000Y-72986741D01*
X131687000Y-72809259D01*
X131721624Y-72635188D01*
X131789544Y-72471216D01*
X131888147Y-72323646D01*
X132013646Y-72198147D01*
X132161216Y-72099544D01*
X132325188Y-72031624D01*
X132474488Y-72001927D01*
X132499258Y-71997000D01*
X132676742Y-71997000D01*
X132701512Y-72001927D01*
G37*
G36*
X159371512Y-72001927D02*
G01*
X159520812Y-72031624D01*
X159684784Y-72099544D01*
X159832354Y-72198147D01*
X159957853Y-72323646D01*
X160056456Y-72471216D01*
X160124376Y-72635188D01*
X160159000Y-72809259D01*
X160159000Y-72986741D01*
X160124376Y-73160812D01*
X160056456Y-73324784D01*
X159957853Y-73472354D01*
X159832354Y-73597853D01*
X159684784Y-73696456D01*
X159520812Y-73764376D01*
X159371512Y-73794073D01*
X159346742Y-73799000D01*
X159169258Y-73799000D01*
X159144488Y-73794073D01*
X158995188Y-73764376D01*
X158831216Y-73696456D01*
X158683646Y-73597853D01*
X158558147Y-73472354D01*
X158459544Y-73324784D01*
X158391624Y-73160812D01*
X158357000Y-72986741D01*
X158357000Y-72809259D01*
X158391624Y-72635188D01*
X158459544Y-72471216D01*
X158558147Y-72323646D01*
X158683646Y-72198147D01*
X158831216Y-72099544D01*
X158995188Y-72031624D01*
X159144488Y-72001927D01*
X159169258Y-71997000D01*
X159346742Y-71997000D01*
X159371512Y-72001927D01*
G37*
G36*
X151927512Y-72001927D02*
G01*
X152076812Y-72031624D01*
X152240784Y-72099544D01*
X152388354Y-72198147D01*
X152513853Y-72323646D01*
X152612456Y-72471216D01*
X152680376Y-72635188D01*
X152715000Y-72809259D01*
X152715000Y-72986741D01*
X152680376Y-73160812D01*
X152612456Y-73324784D01*
X152513853Y-73472354D01*
X152388354Y-73597853D01*
X152240784Y-73696456D01*
X152076812Y-73764376D01*
X151927512Y-73794073D01*
X151902742Y-73799000D01*
X151725258Y-73799000D01*
X151700488Y-73794073D01*
X151551188Y-73764376D01*
X151387216Y-73696456D01*
X151239646Y-73597853D01*
X151114147Y-73472354D01*
X151015544Y-73324784D01*
X150947624Y-73160812D01*
X150913000Y-72986741D01*
X150913000Y-72809259D01*
X150947624Y-72635188D01*
X151015544Y-72471216D01*
X151114147Y-72323646D01*
X151239646Y-72198147D01*
X151387216Y-72099544D01*
X151551188Y-72031624D01*
X151700488Y-72001927D01*
X151725258Y-71997000D01*
X151902742Y-71997000D01*
X151927512Y-72001927D01*
G37*
G36*
X147267512Y-72001927D02*
G01*
X147416812Y-72031624D01*
X147580784Y-72099544D01*
X147728354Y-72198147D01*
X147853853Y-72323646D01*
X147952456Y-72471216D01*
X148020376Y-72635188D01*
X148055000Y-72809259D01*
X148055000Y-72986741D01*
X148020376Y-73160812D01*
X147952456Y-73324784D01*
X147853853Y-73472354D01*
X147728354Y-73597853D01*
X147580784Y-73696456D01*
X147416812Y-73764376D01*
X147267512Y-73794073D01*
X147242742Y-73799000D01*
X147065258Y-73799000D01*
X147040488Y-73794073D01*
X146891188Y-73764376D01*
X146727216Y-73696456D01*
X146579646Y-73597853D01*
X146454147Y-73472354D01*
X146355544Y-73324784D01*
X146287624Y-73160812D01*
X146253000Y-72986741D01*
X146253000Y-72809259D01*
X146287624Y-72635188D01*
X146355544Y-72471216D01*
X146454147Y-72323646D01*
X146579646Y-72198147D01*
X146727216Y-72099544D01*
X146891188Y-72031624D01*
X147040488Y-72001927D01*
X147065258Y-71997000D01*
X147242742Y-71997000D01*
X147267512Y-72001927D01*
G37*
G36*
X144727512Y-72001927D02*
G01*
X144876812Y-72031624D01*
X145040784Y-72099544D01*
X145188354Y-72198147D01*
X145313853Y-72323646D01*
X145412456Y-72471216D01*
X145480376Y-72635188D01*
X145515000Y-72809259D01*
X145515000Y-72986741D01*
X145480376Y-73160812D01*
X145412456Y-73324784D01*
X145313853Y-73472354D01*
X145188354Y-73597853D01*
X145040784Y-73696456D01*
X144876812Y-73764376D01*
X144727512Y-73794073D01*
X144702742Y-73799000D01*
X144525258Y-73799000D01*
X144500488Y-73794073D01*
X144351188Y-73764376D01*
X144187216Y-73696456D01*
X144039646Y-73597853D01*
X143914147Y-73472354D01*
X143815544Y-73324784D01*
X143747624Y-73160812D01*
X143713000Y-72986741D01*
X143713000Y-72809259D01*
X143747624Y-72635188D01*
X143815544Y-72471216D01*
X143914147Y-72323646D01*
X144039646Y-72198147D01*
X144187216Y-72099544D01*
X144351188Y-72031624D01*
X144500488Y-72001927D01*
X144525258Y-71997000D01*
X144702742Y-71997000D01*
X144727512Y-72001927D01*
G37*
G36*
X159371512Y-69461927D02*
G01*
X159520812Y-69491624D01*
X159684784Y-69559544D01*
X159832354Y-69658147D01*
X159957853Y-69783646D01*
X160056456Y-69931216D01*
X160124376Y-70095188D01*
X160159000Y-70269259D01*
X160159000Y-70446741D01*
X160124376Y-70620812D01*
X160056456Y-70784784D01*
X159957853Y-70932354D01*
X159832354Y-71057853D01*
X159684784Y-71156456D01*
X159520812Y-71224376D01*
X159371512Y-71254073D01*
X159346742Y-71259000D01*
X159169258Y-71259000D01*
X159144488Y-71254073D01*
X158995188Y-71224376D01*
X158831216Y-71156456D01*
X158683646Y-71057853D01*
X158558147Y-70932354D01*
X158459544Y-70784784D01*
X158391624Y-70620812D01*
X158357000Y-70446741D01*
X158357000Y-70269259D01*
X158391624Y-70095188D01*
X158459544Y-69931216D01*
X158558147Y-69783646D01*
X158683646Y-69658147D01*
X158831216Y-69559544D01*
X158995188Y-69491624D01*
X159144488Y-69461927D01*
X159169258Y-69457000D01*
X159346742Y-69457000D01*
X159371512Y-69461927D01*
G37*
G36*
X151927512Y-69461927D02*
G01*
X152076812Y-69491624D01*
X152240784Y-69559544D01*
X152388354Y-69658147D01*
X152513853Y-69783646D01*
X152612456Y-69931216D01*
X152680376Y-70095188D01*
X152715000Y-70269259D01*
X152715000Y-70446741D01*
X152680376Y-70620812D01*
X152612456Y-70784784D01*
X152513853Y-70932354D01*
X152388354Y-71057853D01*
X152240784Y-71156456D01*
X152076812Y-71224376D01*
X151927512Y-71254073D01*
X151902742Y-71259000D01*
X151725258Y-71259000D01*
X151700488Y-71254073D01*
X151551188Y-71224376D01*
X151387216Y-71156456D01*
X151239646Y-71057853D01*
X151114147Y-70932354D01*
X151015544Y-70784784D01*
X150947624Y-70620812D01*
X150913000Y-70446741D01*
X150913000Y-70269259D01*
X150947624Y-70095188D01*
X151015544Y-69931216D01*
X151114147Y-69783646D01*
X151239646Y-69658147D01*
X151387216Y-69559544D01*
X151551188Y-69491624D01*
X151700488Y-69461927D01*
X151725258Y-69457000D01*
X151902742Y-69457000D01*
X151927512Y-69461927D01*
G37*
G36*
X135241512Y-69461927D02*
G01*
X135390812Y-69491624D01*
X135554784Y-69559544D01*
X135702354Y-69658147D01*
X135827853Y-69783646D01*
X135926456Y-69931216D01*
X135994376Y-70095188D01*
X136029000Y-70269259D01*
X136029000Y-70446741D01*
X135994376Y-70620812D01*
X135926456Y-70784784D01*
X135827853Y-70932354D01*
X135702354Y-71057853D01*
X135554784Y-71156456D01*
X135390812Y-71224376D01*
X135241512Y-71254073D01*
X135216742Y-71259000D01*
X135039258Y-71259000D01*
X135014488Y-71254073D01*
X134865188Y-71224376D01*
X134701216Y-71156456D01*
X134553646Y-71057853D01*
X134428147Y-70932354D01*
X134329544Y-70784784D01*
X134261624Y-70620812D01*
X134227000Y-70446741D01*
X134227000Y-70269259D01*
X134261624Y-70095188D01*
X134329544Y-69931216D01*
X134428147Y-69783646D01*
X134553646Y-69658147D01*
X134701216Y-69559544D01*
X134865188Y-69491624D01*
X135014488Y-69461927D01*
X135039258Y-69457000D01*
X135216742Y-69457000D01*
X135241512Y-69461927D01*
G37*
G36*
X132701512Y-69461927D02*
G01*
X132850812Y-69491624D01*
X133014784Y-69559544D01*
X133162354Y-69658147D01*
X133287853Y-69783646D01*
X133386456Y-69931216D01*
X133454376Y-70095188D01*
X133489000Y-70269259D01*
X133489000Y-70446741D01*
X133454376Y-70620812D01*
X133386456Y-70784784D01*
X133287853Y-70932354D01*
X133162354Y-71057853D01*
X133014784Y-71156456D01*
X132850812Y-71224376D01*
X132701512Y-71254073D01*
X132676742Y-71259000D01*
X132499258Y-71259000D01*
X132474488Y-71254073D01*
X132325188Y-71224376D01*
X132161216Y-71156456D01*
X132013646Y-71057853D01*
X131888147Y-70932354D01*
X131789544Y-70784784D01*
X131721624Y-70620812D01*
X131687000Y-70446741D01*
X131687000Y-70269259D01*
X131721624Y-70095188D01*
X131789544Y-69931216D01*
X131888147Y-69783646D01*
X132013646Y-69658147D01*
X132161216Y-69559544D01*
X132325188Y-69491624D01*
X132474488Y-69461927D01*
X132499258Y-69457000D01*
X132676742Y-69457000D01*
X132701512Y-69461927D01*
G37*
G36*
X147267512Y-69461927D02*
G01*
X147416812Y-69491624D01*
X147580784Y-69559544D01*
X147728354Y-69658147D01*
X147853853Y-69783646D01*
X147952456Y-69931216D01*
X148020376Y-70095188D01*
X148055000Y-70269259D01*
X148055000Y-70446741D01*
X148020376Y-70620812D01*
X147952456Y-70784784D01*
X147853853Y-70932354D01*
X147728354Y-71057853D01*
X147580784Y-71156456D01*
X147416812Y-71224376D01*
X147267512Y-71254073D01*
X147242742Y-71259000D01*
X147065258Y-71259000D01*
X147040488Y-71254073D01*
X146891188Y-71224376D01*
X146727216Y-71156456D01*
X146579646Y-71057853D01*
X146454147Y-70932354D01*
X146355544Y-70784784D01*
X146287624Y-70620812D01*
X146253000Y-70446741D01*
X146253000Y-70269259D01*
X146287624Y-70095188D01*
X146355544Y-69931216D01*
X146454147Y-69783646D01*
X146579646Y-69658147D01*
X146727216Y-69559544D01*
X146891188Y-69491624D01*
X147040488Y-69461927D01*
X147065258Y-69457000D01*
X147242742Y-69457000D01*
X147267512Y-69461927D01*
G37*
G36*
X144727512Y-69461927D02*
G01*
X144876812Y-69491624D01*
X145040784Y-69559544D01*
X145188354Y-69658147D01*
X145313853Y-69783646D01*
X145412456Y-69931216D01*
X145480376Y-70095188D01*
X145515000Y-70269259D01*
X145515000Y-70446741D01*
X145480376Y-70620812D01*
X145412456Y-70784784D01*
X145313853Y-70932354D01*
X145188354Y-71057853D01*
X145040784Y-71156456D01*
X144876812Y-71224376D01*
X144727512Y-71254073D01*
X144702742Y-71259000D01*
X144525258Y-71259000D01*
X144500488Y-71254073D01*
X144351188Y-71224376D01*
X144187216Y-71156456D01*
X144039646Y-71057853D01*
X143914147Y-70932354D01*
X143815544Y-70784784D01*
X143747624Y-70620812D01*
X143713000Y-70446741D01*
X143713000Y-70269259D01*
X143747624Y-70095188D01*
X143815544Y-69931216D01*
X143914147Y-69783646D01*
X144039646Y-69658147D01*
X144187216Y-69559544D01*
X144351188Y-69491624D01*
X144500488Y-69461927D01*
X144525258Y-69457000D01*
X144702742Y-69457000D01*
X144727512Y-69461927D01*
G37*
G36*
X161911512Y-69461927D02*
G01*
X162060812Y-69491624D01*
X162224784Y-69559544D01*
X162372354Y-69658147D01*
X162497853Y-69783646D01*
X162596456Y-69931216D01*
X162664376Y-70095188D01*
X162699000Y-70269259D01*
X162699000Y-70446741D01*
X162664376Y-70620812D01*
X162596456Y-70784784D01*
X162497853Y-70932354D01*
X162372354Y-71057853D01*
X162224784Y-71156456D01*
X162060812Y-71224376D01*
X161911512Y-71254073D01*
X161886742Y-71259000D01*
X161709258Y-71259000D01*
X161684488Y-71254073D01*
X161535188Y-71224376D01*
X161371216Y-71156456D01*
X161223646Y-71057853D01*
X161098147Y-70932354D01*
X160999544Y-70784784D01*
X160931624Y-70620812D01*
X160897000Y-70446741D01*
X160897000Y-70269259D01*
X160931624Y-70095188D01*
X160999544Y-69931216D01*
X161098147Y-69783646D01*
X161223646Y-69658147D01*
X161371216Y-69559544D01*
X161535188Y-69491624D01*
X161684488Y-69461927D01*
X161709258Y-69457000D01*
X161886742Y-69457000D01*
X161911512Y-69461927D01*
G37*
G36*
X154467512Y-69461927D02*
G01*
X154616812Y-69491624D01*
X154780784Y-69559544D01*
X154928354Y-69658147D01*
X155053853Y-69783646D01*
X155152456Y-69931216D01*
X155220376Y-70095188D01*
X155255000Y-70269259D01*
X155255000Y-70446741D01*
X155220376Y-70620812D01*
X155152456Y-70784784D01*
X155053853Y-70932354D01*
X154928354Y-71057853D01*
X154780784Y-71156456D01*
X154616812Y-71224376D01*
X154467512Y-71254073D01*
X154442742Y-71259000D01*
X154265258Y-71259000D01*
X154240488Y-71254073D01*
X154091188Y-71224376D01*
X153927216Y-71156456D01*
X153779646Y-71057853D01*
X153654147Y-70932354D01*
X153555544Y-70784784D01*
X153487624Y-70620812D01*
X153453000Y-70446741D01*
X153453000Y-70269259D01*
X153487624Y-70095188D01*
X153555544Y-69931216D01*
X153654147Y-69783646D01*
X153779646Y-69658147D01*
X153927216Y-69559544D01*
X154091188Y-69491624D01*
X154240488Y-69461927D01*
X154265258Y-69457000D01*
X154442742Y-69457000D01*
X154467512Y-69461927D01*
G37*
G36*
X161911512Y-66921927D02*
G01*
X162060812Y-66951624D01*
X162224784Y-67019544D01*
X162372354Y-67118147D01*
X162497853Y-67243646D01*
X162596456Y-67391216D01*
X162664376Y-67555188D01*
X162699000Y-67729259D01*
X162699000Y-67906741D01*
X162664376Y-68080812D01*
X162596456Y-68244784D01*
X162497853Y-68392354D01*
X162372354Y-68517853D01*
X162224784Y-68616456D01*
X162060812Y-68684376D01*
X161911512Y-68714073D01*
X161886742Y-68719000D01*
X161709258Y-68719000D01*
X161684488Y-68714073D01*
X161535188Y-68684376D01*
X161371216Y-68616456D01*
X161223646Y-68517853D01*
X161098147Y-68392354D01*
X160999544Y-68244784D01*
X160931624Y-68080812D01*
X160897000Y-67906741D01*
X160897000Y-67729259D01*
X160931624Y-67555188D01*
X160999544Y-67391216D01*
X161098147Y-67243646D01*
X161223646Y-67118147D01*
X161371216Y-67019544D01*
X161535188Y-66951624D01*
X161684488Y-66921927D01*
X161709258Y-66917000D01*
X161886742Y-66917000D01*
X161911512Y-66921927D01*
G37*
G36*
X159371512Y-66921927D02*
G01*
X159520812Y-66951624D01*
X159684784Y-67019544D01*
X159832354Y-67118147D01*
X159957853Y-67243646D01*
X160056456Y-67391216D01*
X160124376Y-67555188D01*
X160159000Y-67729259D01*
X160159000Y-67906741D01*
X160124376Y-68080812D01*
X160056456Y-68244784D01*
X159957853Y-68392354D01*
X159832354Y-68517853D01*
X159684784Y-68616456D01*
X159520812Y-68684376D01*
X159371512Y-68714073D01*
X159346742Y-68719000D01*
X159169258Y-68719000D01*
X159144488Y-68714073D01*
X158995188Y-68684376D01*
X158831216Y-68616456D01*
X158683646Y-68517853D01*
X158558147Y-68392354D01*
X158459544Y-68244784D01*
X158391624Y-68080812D01*
X158357000Y-67906741D01*
X158357000Y-67729259D01*
X158391624Y-67555188D01*
X158459544Y-67391216D01*
X158558147Y-67243646D01*
X158683646Y-67118147D01*
X158831216Y-67019544D01*
X158995188Y-66951624D01*
X159144488Y-66921927D01*
X159169258Y-66917000D01*
X159346742Y-66917000D01*
X159371512Y-66921927D01*
G37*
G36*
X133489000Y-68719000D02*
G01*
X131687000Y-68719000D01*
X131687000Y-66917000D01*
X133489000Y-66917000D01*
X133489000Y-68719000D01*
G37*
G36*
X154467512Y-66921927D02*
G01*
X154616812Y-66951624D01*
X154780784Y-67019544D01*
X154928354Y-67118147D01*
X155053853Y-67243646D01*
X155152456Y-67391216D01*
X155220376Y-67555188D01*
X155255000Y-67729259D01*
X155255000Y-67906741D01*
X155220376Y-68080812D01*
X155152456Y-68244784D01*
X155053853Y-68392354D01*
X154928354Y-68517853D01*
X154780784Y-68616456D01*
X154616812Y-68684376D01*
X154467512Y-68714073D01*
X154442742Y-68719000D01*
X154265258Y-68719000D01*
X154240488Y-68714073D01*
X154091188Y-68684376D01*
X153927216Y-68616456D01*
X153779646Y-68517853D01*
X153654147Y-68392354D01*
X153555544Y-68244784D01*
X153487624Y-68080812D01*
X153453000Y-67906741D01*
X153453000Y-67729259D01*
X153487624Y-67555188D01*
X153555544Y-67391216D01*
X153654147Y-67243646D01*
X153779646Y-67118147D01*
X153927216Y-67019544D01*
X154091188Y-66951624D01*
X154240488Y-66921927D01*
X154265258Y-66917000D01*
X154442742Y-66917000D01*
X154467512Y-66921927D01*
G37*
G36*
X144727512Y-66921927D02*
G01*
X144876812Y-66951624D01*
X145040784Y-67019544D01*
X145188354Y-67118147D01*
X145313853Y-67243646D01*
X145412456Y-67391216D01*
X145480376Y-67555188D01*
X145515000Y-67729259D01*
X145515000Y-67906741D01*
X145480376Y-68080812D01*
X145412456Y-68244784D01*
X145313853Y-68392354D01*
X145188354Y-68517853D01*
X145040784Y-68616456D01*
X144876812Y-68684376D01*
X144727512Y-68714073D01*
X144702742Y-68719000D01*
X144525258Y-68719000D01*
X144500488Y-68714073D01*
X144351188Y-68684376D01*
X144187216Y-68616456D01*
X144039646Y-68517853D01*
X143914147Y-68392354D01*
X143815544Y-68244784D01*
X143747624Y-68080812D01*
X143713000Y-67906741D01*
X143713000Y-67729259D01*
X143747624Y-67555188D01*
X143815544Y-67391216D01*
X143914147Y-67243646D01*
X144039646Y-67118147D01*
X144187216Y-67019544D01*
X144351188Y-66951624D01*
X144500488Y-66921927D01*
X144525258Y-66917000D01*
X144702742Y-66917000D01*
X144727512Y-66921927D01*
G37*
G36*
X135241512Y-66921927D02*
G01*
X135390812Y-66951624D01*
X135554784Y-67019544D01*
X135702354Y-67118147D01*
X135827853Y-67243646D01*
X135926456Y-67391216D01*
X135994376Y-67555188D01*
X136029000Y-67729259D01*
X136029000Y-67906741D01*
X135994376Y-68080812D01*
X135926456Y-68244784D01*
X135827853Y-68392354D01*
X135702354Y-68517853D01*
X135554784Y-68616456D01*
X135390812Y-68684376D01*
X135241512Y-68714073D01*
X135216742Y-68719000D01*
X135039258Y-68719000D01*
X135014488Y-68714073D01*
X134865188Y-68684376D01*
X134701216Y-68616456D01*
X134553646Y-68517853D01*
X134428147Y-68392354D01*
X134329544Y-68244784D01*
X134261624Y-68080812D01*
X134227000Y-67906741D01*
X134227000Y-67729259D01*
X134261624Y-67555188D01*
X134329544Y-67391216D01*
X134428147Y-67243646D01*
X134553646Y-67118147D01*
X134701216Y-67019544D01*
X134865188Y-66951624D01*
X135014488Y-66921927D01*
X135039258Y-66917000D01*
X135216742Y-66917000D01*
X135241512Y-66921927D01*
G37*
G36*
X147267512Y-66921927D02*
G01*
X147416812Y-66951624D01*
X147580784Y-67019544D01*
X147728354Y-67118147D01*
X147853853Y-67243646D01*
X147952456Y-67391216D01*
X148020376Y-67555188D01*
X148055000Y-67729259D01*
X148055000Y-67906741D01*
X148020376Y-68080812D01*
X147952456Y-68244784D01*
X147853853Y-68392354D01*
X147728354Y-68517853D01*
X147580784Y-68616456D01*
X147416812Y-68684376D01*
X147267512Y-68714073D01*
X147242742Y-68719000D01*
X147065258Y-68719000D01*
X147040488Y-68714073D01*
X146891188Y-68684376D01*
X146727216Y-68616456D01*
X146579646Y-68517853D01*
X146454147Y-68392354D01*
X146355544Y-68244784D01*
X146287624Y-68080812D01*
X146253000Y-67906741D01*
X146253000Y-67729259D01*
X146287624Y-67555188D01*
X146355544Y-67391216D01*
X146454147Y-67243646D01*
X146579646Y-67118147D01*
X146727216Y-67019544D01*
X146891188Y-66951624D01*
X147040488Y-66921927D01*
X147065258Y-66917000D01*
X147242742Y-66917000D01*
X147267512Y-66921927D01*
G37*
G36*
X151927512Y-66921927D02*
G01*
X152076812Y-66951624D01*
X152240784Y-67019544D01*
X152388354Y-67118147D01*
X152513853Y-67243646D01*
X152612456Y-67391216D01*
X152680376Y-67555188D01*
X152715000Y-67729259D01*
X152715000Y-67906741D01*
X152680376Y-68080812D01*
X152612456Y-68244784D01*
X152513853Y-68392354D01*
X152388354Y-68517853D01*
X152240784Y-68616456D01*
X152076812Y-68684376D01*
X151927512Y-68714073D01*
X151902742Y-68719000D01*
X151725258Y-68719000D01*
X151700488Y-68714073D01*
X151551188Y-68684376D01*
X151387216Y-68616456D01*
X151239646Y-68517853D01*
X151114147Y-68392354D01*
X151015544Y-68244784D01*
X150947624Y-68080812D01*
X150913000Y-67906741D01*
X150913000Y-67729259D01*
X150947624Y-67555188D01*
X151015544Y-67391216D01*
X151114147Y-67243646D01*
X151239646Y-67118147D01*
X151387216Y-67019544D01*
X151551188Y-66951624D01*
X151700488Y-66921927D01*
X151725258Y-66917000D01*
X151902742Y-66917000D01*
X151927512Y-66921927D01*
G37*
G36*
X154467512Y-64381927D02*
G01*
X154616812Y-64411624D01*
X154780784Y-64479544D01*
X154928354Y-64578147D01*
X155053853Y-64703646D01*
X155152456Y-64851216D01*
X155220376Y-65015188D01*
X155255000Y-65189259D01*
X155255000Y-65366741D01*
X155220376Y-65540812D01*
X155152456Y-65704784D01*
X155053853Y-65852354D01*
X154928354Y-65977853D01*
X154780784Y-66076456D01*
X154616812Y-66144376D01*
X154467512Y-66174073D01*
X154442742Y-66179000D01*
X154265258Y-66179000D01*
X154240488Y-66174073D01*
X154091188Y-66144376D01*
X153927216Y-66076456D01*
X153779646Y-65977853D01*
X153654147Y-65852354D01*
X153555544Y-65704784D01*
X153487624Y-65540812D01*
X153453000Y-65366741D01*
X153453000Y-65189259D01*
X153487624Y-65015188D01*
X153555544Y-64851216D01*
X153654147Y-64703646D01*
X153779646Y-64578147D01*
X153927216Y-64479544D01*
X154091188Y-64411624D01*
X154240488Y-64381927D01*
X154265258Y-64377000D01*
X154442742Y-64377000D01*
X154467512Y-64381927D01*
G37*
G36*
X145515000Y-66179000D02*
G01*
X143713000Y-66179000D01*
X143713000Y-64377000D01*
X145515000Y-64377000D01*
X145515000Y-66179000D01*
G37*
G36*
X147267512Y-64381927D02*
G01*
X147416812Y-64411624D01*
X147580784Y-64479544D01*
X147728354Y-64578147D01*
X147853853Y-64703646D01*
X147952456Y-64851216D01*
X148020376Y-65015188D01*
X148055000Y-65189259D01*
X148055000Y-65366741D01*
X148020376Y-65540812D01*
X147952456Y-65704784D01*
X147853853Y-65852354D01*
X147728354Y-65977853D01*
X147580784Y-66076456D01*
X147416812Y-66144376D01*
X147267512Y-66174073D01*
X147242742Y-66179000D01*
X147065258Y-66179000D01*
X147040488Y-66174073D01*
X146891188Y-66144376D01*
X146727216Y-66076456D01*
X146579646Y-65977853D01*
X146454147Y-65852354D01*
X146355544Y-65704784D01*
X146287624Y-65540812D01*
X146253000Y-65366741D01*
X146253000Y-65189259D01*
X146287624Y-65015188D01*
X146355544Y-64851216D01*
X146454147Y-64703646D01*
X146579646Y-64578147D01*
X146727216Y-64479544D01*
X146891188Y-64411624D01*
X147040488Y-64381927D01*
X147065258Y-64377000D01*
X147242742Y-64377000D01*
X147267512Y-64381927D01*
G37*
G36*
X152715000Y-66179000D02*
G01*
X150913000Y-66179000D01*
X150913000Y-64377000D01*
X152715000Y-64377000D01*
X152715000Y-66179000D01*
G37*
G36*
X160159000Y-66179000D02*
G01*
X158357000Y-66179000D01*
X158357000Y-64377000D01*
X160159000Y-64377000D01*
X160159000Y-66179000D01*
G37*
G36*
X161911512Y-64381927D02*
G01*
X162060812Y-64411624D01*
X162224784Y-64479544D01*
X162372354Y-64578147D01*
X162497853Y-64703646D01*
X162596456Y-64851216D01*
X162664376Y-65015188D01*
X162699000Y-65189259D01*
X162699000Y-65366741D01*
X162664376Y-65540812D01*
X162596456Y-65704784D01*
X162497853Y-65852354D01*
X162372354Y-65977853D01*
X162224784Y-66076456D01*
X162060812Y-66144376D01*
X161911512Y-66174073D01*
X161886742Y-66179000D01*
X161709258Y-66179000D01*
X161684488Y-66174073D01*
X161535188Y-66144376D01*
X161371216Y-66076456D01*
X161223646Y-65977853D01*
X161098147Y-65852354D01*
X160999544Y-65704784D01*
X160931624Y-65540812D01*
X160897000Y-65366741D01*
X160897000Y-65189259D01*
X160931624Y-65015188D01*
X160999544Y-64851216D01*
X161098147Y-64703646D01*
X161223646Y-64578147D01*
X161371216Y-64479544D01*
X161535188Y-64411624D01*
X161684488Y-64381927D01*
X161709258Y-64377000D01*
X161886742Y-64377000D01*
X161911512Y-64381927D01*
G37*
G36*
X136029000Y-64147000D02*
G01*
X134227000Y-64147000D01*
X134227000Y-62345000D01*
X136029000Y-62345000D01*
X136029000Y-64147000D01*
G37*
G36*
X135241512Y-59809927D02*
G01*
X135390812Y-59839624D01*
X135554784Y-59907544D01*
X135702354Y-60006147D01*
X135827853Y-60131646D01*
X135926456Y-60279216D01*
X135994376Y-60443188D01*
X136029000Y-60617259D01*
X136029000Y-60794741D01*
X135994376Y-60968812D01*
X135926456Y-61132784D01*
X135827853Y-61280354D01*
X135702354Y-61405853D01*
X135554784Y-61504456D01*
X135390812Y-61572376D01*
X135241512Y-61602073D01*
X135216742Y-61607000D01*
X135039258Y-61607000D01*
X135014488Y-61602073D01*
X134865188Y-61572376D01*
X134701216Y-61504456D01*
X134553646Y-61405853D01*
X134428147Y-61280354D01*
X134329544Y-61132784D01*
X134261624Y-60968812D01*
X134227000Y-60794741D01*
X134227000Y-60617259D01*
X134261624Y-60443188D01*
X134329544Y-60279216D01*
X134428147Y-60131646D01*
X134553646Y-60006147D01*
X134701216Y-59907544D01*
X134865188Y-59839624D01*
X135014488Y-59809927D01*
X135039258Y-59805000D01*
X135216742Y-59805000D01*
X135241512Y-59809927D01*
G37*
G36*
X145028228Y-59887703D02*
G01*
X145183100Y-59951853D01*
X145322481Y-60044985D01*
X145441015Y-60163519D01*
X145534147Y-60302900D01*
X145598297Y-60457772D01*
X145631000Y-60622184D01*
X145631000Y-60789816D01*
X145598297Y-60954228D01*
X145534147Y-61109100D01*
X145441015Y-61248481D01*
X145322481Y-61367015D01*
X145183100Y-61460147D01*
X145028228Y-61524297D01*
X144863816Y-61557000D01*
X144696184Y-61557000D01*
X144531772Y-61524297D01*
X144376900Y-61460147D01*
X144237519Y-61367015D01*
X144118985Y-61248481D01*
X144025853Y-61109100D01*
X143961703Y-60954228D01*
X143929000Y-60789816D01*
X143929000Y-60622184D01*
X143961703Y-60457772D01*
X144025853Y-60302900D01*
X144118985Y-60163519D01*
X144237519Y-60044985D01*
X144376900Y-59951853D01*
X144531772Y-59887703D01*
X144696184Y-59855000D01*
X144863816Y-59855000D01*
X145028228Y-59887703D01*
G37*
G36*
X155188228Y-59887703D02*
G01*
X155343100Y-59951853D01*
X155482481Y-60044985D01*
X155601015Y-60163519D01*
X155694147Y-60302900D01*
X155758297Y-60457772D01*
X155791000Y-60622184D01*
X155791000Y-60789816D01*
X155758297Y-60954228D01*
X155694147Y-61109100D01*
X155601015Y-61248481D01*
X155482481Y-61367015D01*
X155343100Y-61460147D01*
X155188228Y-61524297D01*
X155023816Y-61557000D01*
X154856184Y-61557000D01*
X154691772Y-61524297D01*
X154536900Y-61460147D01*
X154397519Y-61367015D01*
X154278985Y-61248481D01*
X154185853Y-61109100D01*
X154121703Y-60954228D01*
X154089000Y-60789816D01*
X154089000Y-60622184D01*
X154121703Y-60457772D01*
X154185853Y-60302900D01*
X154278985Y-60163519D01*
X154397519Y-60044985D01*
X154536900Y-59951853D01*
X154691772Y-59887703D01*
X154856184Y-59855000D01*
X155023816Y-59855000D01*
X155188228Y-59887703D01*
G37*
G36*
X152648228Y-59887703D02*
G01*
X152803100Y-59951853D01*
X152942481Y-60044985D01*
X153061015Y-60163519D01*
X153154147Y-60302900D01*
X153218297Y-60457772D01*
X153251000Y-60622184D01*
X153251000Y-60789816D01*
X153218297Y-60954228D01*
X153154147Y-61109100D01*
X153061015Y-61248481D01*
X152942481Y-61367015D01*
X152803100Y-61460147D01*
X152648228Y-61524297D01*
X152483816Y-61557000D01*
X152316184Y-61557000D01*
X152151772Y-61524297D01*
X151996900Y-61460147D01*
X151857519Y-61367015D01*
X151738985Y-61248481D01*
X151645853Y-61109100D01*
X151581703Y-60954228D01*
X151549000Y-60789816D01*
X151549000Y-60622184D01*
X151581703Y-60457772D01*
X151645853Y-60302900D01*
X151738985Y-60163519D01*
X151857519Y-60044985D01*
X151996900Y-59951853D01*
X152151772Y-59887703D01*
X152316184Y-59855000D01*
X152483816Y-59855000D01*
X152648228Y-59887703D01*
G37*
G36*
X150108228Y-59887703D02*
G01*
X150263100Y-59951853D01*
X150402481Y-60044985D01*
X150521015Y-60163519D01*
X150614147Y-60302900D01*
X150678297Y-60457772D01*
X150711000Y-60622184D01*
X150711000Y-60789816D01*
X150678297Y-60954228D01*
X150614147Y-61109100D01*
X150521015Y-61248481D01*
X150402481Y-61367015D01*
X150263100Y-61460147D01*
X150108228Y-61524297D01*
X149943816Y-61557000D01*
X149776184Y-61557000D01*
X149611772Y-61524297D01*
X149456900Y-61460147D01*
X149317519Y-61367015D01*
X149198985Y-61248481D01*
X149105853Y-61109100D01*
X149041703Y-60954228D01*
X149009000Y-60789816D01*
X149009000Y-60622184D01*
X149041703Y-60457772D01*
X149105853Y-60302900D01*
X149198985Y-60163519D01*
X149317519Y-60044985D01*
X149456900Y-59951853D01*
X149611772Y-59887703D01*
X149776184Y-59855000D01*
X149943816Y-59855000D01*
X150108228Y-59887703D01*
G37*
G36*
X147568228Y-59887703D02*
G01*
X147723100Y-59951853D01*
X147862481Y-60044985D01*
X147981015Y-60163519D01*
X148074147Y-60302900D01*
X148138297Y-60457772D01*
X148171000Y-60622184D01*
X148171000Y-60789816D01*
X148138297Y-60954228D01*
X148074147Y-61109100D01*
X147981015Y-61248481D01*
X147862481Y-61367015D01*
X147723100Y-61460147D01*
X147568228Y-61524297D01*
X147403816Y-61557000D01*
X147236184Y-61557000D01*
X147071772Y-61524297D01*
X146916900Y-61460147D01*
X146777519Y-61367015D01*
X146658985Y-61248481D01*
X146565853Y-61109100D01*
X146501703Y-60954228D01*
X146469000Y-60789816D01*
X146469000Y-60622184D01*
X146501703Y-60457772D01*
X146565853Y-60302900D01*
X146658985Y-60163519D01*
X146777519Y-60044985D01*
X146916900Y-59951853D01*
X147071772Y-59887703D01*
X147236184Y-59855000D01*
X147403816Y-59855000D01*
X147568228Y-59887703D01*
G37*
G36*
X142488228Y-59887703D02*
G01*
X142643100Y-59951853D01*
X142782481Y-60044985D01*
X142901015Y-60163519D01*
X142994147Y-60302900D01*
X143058297Y-60457772D01*
X143091000Y-60622184D01*
X143091000Y-60789816D01*
X143058297Y-60954228D01*
X142994147Y-61109100D01*
X142901015Y-61248481D01*
X142782481Y-61367015D01*
X142643100Y-61460147D01*
X142488228Y-61524297D01*
X142323816Y-61557000D01*
X142156184Y-61557000D01*
X141991772Y-61524297D01*
X141836900Y-61460147D01*
X141697519Y-61367015D01*
X141578985Y-61248481D01*
X141485853Y-61109100D01*
X141421703Y-60954228D01*
X141389000Y-60789816D01*
X141389000Y-60622184D01*
X141421703Y-60457772D01*
X141485853Y-60302900D01*
X141578985Y-60163519D01*
X141697519Y-60044985D01*
X141836900Y-59951853D01*
X141991772Y-59887703D01*
X142156184Y-59855000D01*
X142323816Y-59855000D01*
X142488228Y-59887703D01*
G37*
G36*
X139948228Y-59887703D02*
G01*
X140103100Y-59951853D01*
X140242481Y-60044985D01*
X140361015Y-60163519D01*
X140454147Y-60302900D01*
X140518297Y-60457772D01*
X140551000Y-60622184D01*
X140551000Y-60789816D01*
X140518297Y-60954228D01*
X140454147Y-61109100D01*
X140361015Y-61248481D01*
X140242481Y-61367015D01*
X140103100Y-61460147D01*
X139948228Y-61524297D01*
X139783816Y-61557000D01*
X139616184Y-61557000D01*
X139451772Y-61524297D01*
X139296900Y-61460147D01*
X139157519Y-61367015D01*
X139038985Y-61248481D01*
X138945853Y-61109100D01*
X138881703Y-60954228D01*
X138849000Y-60789816D01*
X138849000Y-60622184D01*
X138881703Y-60457772D01*
X138945853Y-60302900D01*
X139038985Y-60163519D01*
X139157519Y-60044985D01*
X139296900Y-59951853D01*
X139451772Y-59887703D01*
X139616184Y-59855000D01*
X139783816Y-59855000D01*
X139948228Y-59887703D01*
G37*
G36*
X135241512Y-57269927D02*
G01*
X135390812Y-57299624D01*
X135554784Y-57367544D01*
X135702354Y-57466147D01*
X135827853Y-57591646D01*
X135926456Y-57739216D01*
X135994376Y-57903188D01*
X136029000Y-58077259D01*
X136029000Y-58254741D01*
X135994376Y-58428812D01*
X135926456Y-58592784D01*
X135827853Y-58740354D01*
X135702354Y-58865853D01*
X135554784Y-58964456D01*
X135390812Y-59032376D01*
X135241512Y-59062073D01*
X135216742Y-59067000D01*
X135039258Y-59067000D01*
X135014488Y-59062073D01*
X134865188Y-59032376D01*
X134701216Y-58964456D01*
X134553646Y-58865853D01*
X134428147Y-58740354D01*
X134329544Y-58592784D01*
X134261624Y-58428812D01*
X134227000Y-58254741D01*
X134227000Y-58077259D01*
X134261624Y-57903188D01*
X134329544Y-57739216D01*
X134428147Y-57591646D01*
X134553646Y-57466147D01*
X134701216Y-57367544D01*
X134865188Y-57299624D01*
X135014488Y-57269927D01*
X135039258Y-57265000D01*
X135216742Y-57265000D01*
X135241512Y-57269927D01*
G37*
G36*
X155188228Y-57347703D02*
G01*
X155343100Y-57411853D01*
X155482481Y-57504985D01*
X155601015Y-57623519D01*
X155694147Y-57762900D01*
X155758297Y-57917772D01*
X155791000Y-58082184D01*
X155791000Y-58249816D01*
X155758297Y-58414228D01*
X155694147Y-58569100D01*
X155601015Y-58708481D01*
X155482481Y-58827015D01*
X155343100Y-58920147D01*
X155188228Y-58984297D01*
X155023816Y-59017000D01*
X154856184Y-59017000D01*
X154691772Y-58984297D01*
X154536900Y-58920147D01*
X154397519Y-58827015D01*
X154278985Y-58708481D01*
X154185853Y-58569100D01*
X154121703Y-58414228D01*
X154089000Y-58249816D01*
X154089000Y-58082184D01*
X154121703Y-57917772D01*
X154185853Y-57762900D01*
X154278985Y-57623519D01*
X154397519Y-57504985D01*
X154536900Y-57411853D01*
X154691772Y-57347703D01*
X154856184Y-57315000D01*
X155023816Y-57315000D01*
X155188228Y-57347703D01*
G37*
G36*
X139948228Y-57347703D02*
G01*
X140103100Y-57411853D01*
X140242481Y-57504985D01*
X140361015Y-57623519D01*
X140454147Y-57762900D01*
X140518297Y-57917772D01*
X140551000Y-58082184D01*
X140551000Y-58249816D01*
X140518297Y-58414228D01*
X140454147Y-58569100D01*
X140361015Y-58708481D01*
X140242481Y-58827015D01*
X140103100Y-58920147D01*
X139948228Y-58984297D01*
X139783816Y-59017000D01*
X139616184Y-59017000D01*
X139451772Y-58984297D01*
X139296900Y-58920147D01*
X139157519Y-58827015D01*
X139038985Y-58708481D01*
X138945853Y-58569100D01*
X138881703Y-58414228D01*
X138849000Y-58249816D01*
X138849000Y-58082184D01*
X138881703Y-57917772D01*
X138945853Y-57762900D01*
X139038985Y-57623519D01*
X139157519Y-57504985D01*
X139296900Y-57411853D01*
X139451772Y-57347703D01*
X139616184Y-57315000D01*
X139783816Y-57315000D01*
X139948228Y-57347703D01*
G37*
G36*
X162191000Y-57543000D02*
G01*
X160389000Y-57543000D01*
X160389000Y-55741000D01*
X162191000Y-55741000D01*
X162191000Y-57543000D01*
G37*
G36*
X135241512Y-54729927D02*
G01*
X135390812Y-54759624D01*
X135554784Y-54827544D01*
X135702354Y-54926147D01*
X135827853Y-55051646D01*
X135926456Y-55199216D01*
X135994376Y-55363188D01*
X136029000Y-55537259D01*
X136029000Y-55714741D01*
X135994376Y-55888812D01*
X135926456Y-56052784D01*
X135827853Y-56200354D01*
X135702354Y-56325853D01*
X135554784Y-56424456D01*
X135390812Y-56492376D01*
X135241512Y-56522073D01*
X135216742Y-56527000D01*
X135039258Y-56527000D01*
X135014488Y-56522073D01*
X134865188Y-56492376D01*
X134701216Y-56424456D01*
X134553646Y-56325853D01*
X134428147Y-56200354D01*
X134329544Y-56052784D01*
X134261624Y-55888812D01*
X134227000Y-55714741D01*
X134227000Y-55537259D01*
X134261624Y-55363188D01*
X134329544Y-55199216D01*
X134428147Y-55051646D01*
X134553646Y-54926147D01*
X134701216Y-54827544D01*
X134865188Y-54759624D01*
X135014488Y-54729927D01*
X135039258Y-54725000D01*
X135216742Y-54725000D01*
X135241512Y-54729927D01*
G37*
G36*
X152648228Y-54807703D02*
G01*
X152803100Y-54871853D01*
X152942481Y-54964985D01*
X153061015Y-55083519D01*
X153154147Y-55222900D01*
X153218297Y-55377772D01*
X153251000Y-55542184D01*
X153251000Y-55709816D01*
X153218297Y-55874228D01*
X153154147Y-56029100D01*
X153061015Y-56168481D01*
X152942481Y-56287015D01*
X152803100Y-56380147D01*
X152648228Y-56444297D01*
X152483816Y-56477000D01*
X152316184Y-56477000D01*
X152151772Y-56444297D01*
X151996900Y-56380147D01*
X151857519Y-56287015D01*
X151738985Y-56168481D01*
X151645853Y-56029100D01*
X151581703Y-55874228D01*
X151549000Y-55709816D01*
X151549000Y-55542184D01*
X151581703Y-55377772D01*
X151645853Y-55222900D01*
X151738985Y-55083519D01*
X151857519Y-54964985D01*
X151996900Y-54871853D01*
X152151772Y-54807703D01*
X152316184Y-54775000D01*
X152483816Y-54775000D01*
X152648228Y-54807703D01*
G37*
G36*
X139948228Y-54807703D02*
G01*
X140103100Y-54871853D01*
X140242481Y-54964985D01*
X140361015Y-55083519D01*
X140454147Y-55222900D01*
X140518297Y-55377772D01*
X140551000Y-55542184D01*
X140551000Y-55709816D01*
X140518297Y-55874228D01*
X140454147Y-56029100D01*
X140361015Y-56168481D01*
X140242481Y-56287015D01*
X140103100Y-56380147D01*
X139948228Y-56444297D01*
X139783816Y-56477000D01*
X139616184Y-56477000D01*
X139451772Y-56444297D01*
X139296900Y-56380147D01*
X139157519Y-56287015D01*
X139038985Y-56168481D01*
X138945853Y-56029100D01*
X138881703Y-55874228D01*
X138849000Y-55709816D01*
X138849000Y-55542184D01*
X138881703Y-55377772D01*
X138945853Y-55222900D01*
X139038985Y-55083519D01*
X139157519Y-54964985D01*
X139296900Y-54871853D01*
X139451772Y-54807703D01*
X139616184Y-54775000D01*
X139783816Y-54775000D01*
X139948228Y-54807703D01*
G37*
G36*
X142488228Y-54807703D02*
G01*
X142643100Y-54871853D01*
X142782481Y-54964985D01*
X142901015Y-55083519D01*
X142994147Y-55222900D01*
X143058297Y-55377772D01*
X143091000Y-55542184D01*
X143091000Y-55709816D01*
X143058297Y-55874228D01*
X142994147Y-56029100D01*
X142901015Y-56168481D01*
X142782481Y-56287015D01*
X142643100Y-56380147D01*
X142488228Y-56444297D01*
X142323816Y-56477000D01*
X142156184Y-56477000D01*
X141991772Y-56444297D01*
X141836900Y-56380147D01*
X141697519Y-56287015D01*
X141578985Y-56168481D01*
X141485853Y-56029100D01*
X141421703Y-55874228D01*
X141389000Y-55709816D01*
X141389000Y-55542184D01*
X141421703Y-55377772D01*
X141485853Y-55222900D01*
X141578985Y-55083519D01*
X141697519Y-54964985D01*
X141836900Y-54871853D01*
X141991772Y-54807703D01*
X142156184Y-54775000D01*
X142323816Y-54775000D01*
X142488228Y-54807703D01*
G37*
G36*
X147568228Y-54807703D02*
G01*
X147723100Y-54871853D01*
X147862481Y-54964985D01*
X147981015Y-55083519D01*
X148074147Y-55222900D01*
X148138297Y-55377772D01*
X148171000Y-55542184D01*
X148171000Y-55709816D01*
X148138297Y-55874228D01*
X148074147Y-56029100D01*
X147981015Y-56168481D01*
X147862481Y-56287015D01*
X147723100Y-56380147D01*
X147568228Y-56444297D01*
X147403816Y-56477000D01*
X147236184Y-56477000D01*
X147071772Y-56444297D01*
X146916900Y-56380147D01*
X146777519Y-56287015D01*
X146658985Y-56168481D01*
X146565853Y-56029100D01*
X146501703Y-55874228D01*
X146469000Y-55709816D01*
X146469000Y-55542184D01*
X146501703Y-55377772D01*
X146565853Y-55222900D01*
X146658985Y-55083519D01*
X146777519Y-54964985D01*
X146916900Y-54871853D01*
X147071772Y-54807703D01*
X147236184Y-54775000D01*
X147403816Y-54775000D01*
X147568228Y-54807703D01*
G37*
G36*
X145028228Y-54807703D02*
G01*
X145183100Y-54871853D01*
X145322481Y-54964985D01*
X145441015Y-55083519D01*
X145534147Y-55222900D01*
X145598297Y-55377772D01*
X145631000Y-55542184D01*
X145631000Y-55709816D01*
X145598297Y-55874228D01*
X145534147Y-56029100D01*
X145441015Y-56168481D01*
X145322481Y-56287015D01*
X145183100Y-56380147D01*
X145028228Y-56444297D01*
X144863816Y-56477000D01*
X144696184Y-56477000D01*
X144531772Y-56444297D01*
X144376900Y-56380147D01*
X144237519Y-56287015D01*
X144118985Y-56168481D01*
X144025853Y-56029100D01*
X143961703Y-55874228D01*
X143929000Y-55709816D01*
X143929000Y-55542184D01*
X143961703Y-55377772D01*
X144025853Y-55222900D01*
X144118985Y-55083519D01*
X144237519Y-54964985D01*
X144376900Y-54871853D01*
X144531772Y-54807703D01*
X144696184Y-54775000D01*
X144863816Y-54775000D01*
X145028228Y-54807703D01*
G37*
G36*
X150108228Y-54807703D02*
G01*
X150263100Y-54871853D01*
X150402481Y-54964985D01*
X150521015Y-55083519D01*
X150614147Y-55222900D01*
X150678297Y-55377772D01*
X150711000Y-55542184D01*
X150711000Y-55709816D01*
X150678297Y-55874228D01*
X150614147Y-56029100D01*
X150521015Y-56168481D01*
X150402481Y-56287015D01*
X150263100Y-56380147D01*
X150108228Y-56444297D01*
X149943816Y-56477000D01*
X149776184Y-56477000D01*
X149611772Y-56444297D01*
X149456900Y-56380147D01*
X149317519Y-56287015D01*
X149198985Y-56168481D01*
X149105853Y-56029100D01*
X149041703Y-55874228D01*
X149009000Y-55709816D01*
X149009000Y-55542184D01*
X149041703Y-55377772D01*
X149105853Y-55222900D01*
X149198985Y-55083519D01*
X149317519Y-54964985D01*
X149456900Y-54871853D01*
X149611772Y-54807703D01*
X149776184Y-54775000D01*
X149943816Y-54775000D01*
X150108228Y-54807703D01*
G37*
G36*
X155188228Y-54807703D02*
G01*
X155343100Y-54871853D01*
X155482481Y-54964985D01*
X155601015Y-55083519D01*
X155694147Y-55222900D01*
X155758297Y-55377772D01*
X155791000Y-55542184D01*
X155791000Y-55709816D01*
X155758297Y-55874228D01*
X155694147Y-56029100D01*
X155601015Y-56168481D01*
X155482481Y-56287015D01*
X155343100Y-56380147D01*
X155188228Y-56444297D01*
X155023816Y-56477000D01*
X154856184Y-56477000D01*
X154691772Y-56444297D01*
X154536900Y-56380147D01*
X154397519Y-56287015D01*
X154278985Y-56168481D01*
X154185853Y-56029100D01*
X154121703Y-55874228D01*
X154089000Y-55709816D01*
X154089000Y-55542184D01*
X154121703Y-55377772D01*
X154185853Y-55222900D01*
X154278985Y-55083519D01*
X154397519Y-54964985D01*
X154536900Y-54871853D01*
X154691772Y-54807703D01*
X154856184Y-54775000D01*
X155023816Y-54775000D01*
X155188228Y-54807703D01*
G37*
G36*
X161403512Y-53205927D02*
G01*
X161552812Y-53235624D01*
X161716784Y-53303544D01*
X161864354Y-53402147D01*
X161989853Y-53527646D01*
X162088456Y-53675216D01*
X162156376Y-53839188D01*
X162191000Y-54013259D01*
X162191000Y-54190741D01*
X162156376Y-54364812D01*
X162088456Y-54528784D01*
X161989853Y-54676354D01*
X161864354Y-54801853D01*
X161716784Y-54900456D01*
X161552812Y-54968376D01*
X161403512Y-54998073D01*
X161378742Y-55003000D01*
X161201258Y-55003000D01*
X161176488Y-54998073D01*
X161027188Y-54968376D01*
X160863216Y-54900456D01*
X160715646Y-54801853D01*
X160590147Y-54676354D01*
X160491544Y-54528784D01*
X160423624Y-54364812D01*
X160389000Y-54190741D01*
X160389000Y-54013259D01*
X160423624Y-53839188D01*
X160491544Y-53675216D01*
X160590147Y-53527646D01*
X160715646Y-53402147D01*
X160863216Y-53303544D01*
X161027188Y-53235624D01*
X161176488Y-53205927D01*
X161201258Y-53201000D01*
X161378742Y-53201000D01*
X161403512Y-53205927D01*
G37*
G36*
X147568228Y-52267703D02*
G01*
X147723100Y-52331853D01*
X147862481Y-52424985D01*
X147981015Y-52543519D01*
X148074147Y-52682900D01*
X148138297Y-52837772D01*
X148171000Y-53002184D01*
X148171000Y-53169816D01*
X148138297Y-53334228D01*
X148074147Y-53489100D01*
X147981015Y-53628481D01*
X147862481Y-53747015D01*
X147723100Y-53840147D01*
X147568228Y-53904297D01*
X147403816Y-53937000D01*
X147236184Y-53937000D01*
X147071772Y-53904297D01*
X146916900Y-53840147D01*
X146777519Y-53747015D01*
X146658985Y-53628481D01*
X146565853Y-53489100D01*
X146501703Y-53334228D01*
X146469000Y-53169816D01*
X146469000Y-53002184D01*
X146501703Y-52837772D01*
X146565853Y-52682900D01*
X146658985Y-52543519D01*
X146777519Y-52424985D01*
X146916900Y-52331853D01*
X147071772Y-52267703D01*
X147236184Y-52235000D01*
X147403816Y-52235000D01*
X147568228Y-52267703D01*
G37*
G36*
X145028228Y-52267703D02*
G01*
X145183100Y-52331853D01*
X145322481Y-52424985D01*
X145441015Y-52543519D01*
X145534147Y-52682900D01*
X145598297Y-52837772D01*
X145631000Y-53002184D01*
X145631000Y-53169816D01*
X145598297Y-53334228D01*
X145534147Y-53489100D01*
X145441015Y-53628481D01*
X145322481Y-53747015D01*
X145183100Y-53840147D01*
X145028228Y-53904297D01*
X144863816Y-53937000D01*
X144696184Y-53937000D01*
X144531772Y-53904297D01*
X144376900Y-53840147D01*
X144237519Y-53747015D01*
X144118985Y-53628481D01*
X144025853Y-53489100D01*
X143961703Y-53334228D01*
X143929000Y-53169816D01*
X143929000Y-53002184D01*
X143961703Y-52837772D01*
X144025853Y-52682900D01*
X144118985Y-52543519D01*
X144237519Y-52424985D01*
X144376900Y-52331853D01*
X144531772Y-52267703D01*
X144696184Y-52235000D01*
X144863816Y-52235000D01*
X145028228Y-52267703D01*
G37*
G36*
X142488228Y-52267703D02*
G01*
X142643100Y-52331853D01*
X142782481Y-52424985D01*
X142901015Y-52543519D01*
X142994147Y-52682900D01*
X143058297Y-52837772D01*
X143091000Y-53002184D01*
X143091000Y-53169816D01*
X143058297Y-53334228D01*
X142994147Y-53489100D01*
X142901015Y-53628481D01*
X142782481Y-53747015D01*
X142643100Y-53840147D01*
X142488228Y-53904297D01*
X142323816Y-53937000D01*
X142156184Y-53937000D01*
X141991772Y-53904297D01*
X141836900Y-53840147D01*
X141697519Y-53747015D01*
X141578985Y-53628481D01*
X141485853Y-53489100D01*
X141421703Y-53334228D01*
X141389000Y-53169816D01*
X141389000Y-53002184D01*
X141421703Y-52837772D01*
X141485853Y-52682900D01*
X141578985Y-52543519D01*
X141697519Y-52424985D01*
X141836900Y-52331853D01*
X141991772Y-52267703D01*
X142156184Y-52235000D01*
X142323816Y-52235000D01*
X142488228Y-52267703D01*
G37*
G36*
X150108228Y-52267703D02*
G01*
X150263100Y-52331853D01*
X150402481Y-52424985D01*
X150521015Y-52543519D01*
X150614147Y-52682900D01*
X150678297Y-52837772D01*
X150711000Y-53002184D01*
X150711000Y-53169816D01*
X150678297Y-53334228D01*
X150614147Y-53489100D01*
X150521015Y-53628481D01*
X150402481Y-53747015D01*
X150263100Y-53840147D01*
X150108228Y-53904297D01*
X149943816Y-53937000D01*
X149776184Y-53937000D01*
X149611772Y-53904297D01*
X149456900Y-53840147D01*
X149317519Y-53747015D01*
X149198985Y-53628481D01*
X149105853Y-53489100D01*
X149041703Y-53334228D01*
X149009000Y-53169816D01*
X149009000Y-53002184D01*
X149041703Y-52837772D01*
X149105853Y-52682900D01*
X149198985Y-52543519D01*
X149317519Y-52424985D01*
X149456900Y-52331853D01*
X149611772Y-52267703D01*
X149776184Y-52235000D01*
X149943816Y-52235000D01*
X150108228Y-52267703D01*
G37*
G36*
X139948228Y-52267703D02*
G01*
X140103100Y-52331853D01*
X140242481Y-52424985D01*
X140361015Y-52543519D01*
X140454147Y-52682900D01*
X140518297Y-52837772D01*
X140551000Y-53002184D01*
X140551000Y-53169816D01*
X140518297Y-53334228D01*
X140454147Y-53489100D01*
X140361015Y-53628481D01*
X140242481Y-53747015D01*
X140103100Y-53840147D01*
X139948228Y-53904297D01*
X139783816Y-53937000D01*
X139616184Y-53937000D01*
X139451772Y-53904297D01*
X139296900Y-53840147D01*
X139157519Y-53747015D01*
X139038985Y-53628481D01*
X138945853Y-53489100D01*
X138881703Y-53334228D01*
X138849000Y-53169816D01*
X138849000Y-53002184D01*
X138881703Y-52837772D01*
X138945853Y-52682900D01*
X139038985Y-52543519D01*
X139157519Y-52424985D01*
X139296900Y-52331853D01*
X139451772Y-52267703D01*
X139616184Y-52235000D01*
X139783816Y-52235000D01*
X139948228Y-52267703D01*
G37*
G36*
X152648228Y-52267703D02*
G01*
X152803100Y-52331853D01*
X152942481Y-52424985D01*
X153061015Y-52543519D01*
X153154147Y-52682900D01*
X153218297Y-52837772D01*
X153251000Y-53002184D01*
X153251000Y-53169816D01*
X153218297Y-53334228D01*
X153154147Y-53489100D01*
X153061015Y-53628481D01*
X152942481Y-53747015D01*
X152803100Y-53840147D01*
X152648228Y-53904297D01*
X152483816Y-53937000D01*
X152316184Y-53937000D01*
X152151772Y-53904297D01*
X151996900Y-53840147D01*
X151857519Y-53747015D01*
X151738985Y-53628481D01*
X151645853Y-53489100D01*
X151581703Y-53334228D01*
X151549000Y-53169816D01*
X151549000Y-53002184D01*
X151581703Y-52837772D01*
X151645853Y-52682900D01*
X151738985Y-52543519D01*
X151857519Y-52424985D01*
X151996900Y-52331853D01*
X152151772Y-52267703D01*
X152316184Y-52235000D01*
X152483816Y-52235000D01*
X152648228Y-52267703D01*
G37*
G36*
X155188228Y-52267703D02*
G01*
X155343100Y-52331853D01*
X155482481Y-52424985D01*
X155601015Y-52543519D01*
X155694147Y-52682900D01*
X155758297Y-52837772D01*
X155791000Y-53002184D01*
X155791000Y-53169816D01*
X155758297Y-53334228D01*
X155694147Y-53489100D01*
X155601015Y-53628481D01*
X155482481Y-53747015D01*
X155343100Y-53840147D01*
X155188228Y-53904297D01*
X155023816Y-53937000D01*
X154856184Y-53937000D01*
X154691772Y-53904297D01*
X154536900Y-53840147D01*
X154397519Y-53747015D01*
X154278985Y-53628481D01*
X154185853Y-53489100D01*
X154121703Y-53334228D01*
X154089000Y-53169816D01*
X154089000Y-53002184D01*
X154121703Y-52837772D01*
X154185853Y-52682900D01*
X154278985Y-52543519D01*
X154397519Y-52424985D01*
X154536900Y-52331853D01*
X154691772Y-52267703D01*
X154856184Y-52235000D01*
X155023816Y-52235000D01*
X155188228Y-52267703D01*
G37*
G36*
X161403512Y-50665927D02*
G01*
X161552812Y-50695624D01*
X161716784Y-50763544D01*
X161864354Y-50862147D01*
X161989853Y-50987646D01*
X162088456Y-51135216D01*
X162156376Y-51299188D01*
X162191000Y-51473259D01*
X162191000Y-51650741D01*
X162156376Y-51824812D01*
X162088456Y-51988784D01*
X161989853Y-52136354D01*
X161864354Y-52261853D01*
X161716784Y-52360456D01*
X161552812Y-52428376D01*
X161403512Y-52458073D01*
X161378742Y-52463000D01*
X161201258Y-52463000D01*
X161176488Y-52458073D01*
X161027188Y-52428376D01*
X160863216Y-52360456D01*
X160715646Y-52261853D01*
X160590147Y-52136354D01*
X160491544Y-51988784D01*
X160423624Y-51824812D01*
X160389000Y-51650741D01*
X160389000Y-51473259D01*
X160423624Y-51299188D01*
X160491544Y-51135216D01*
X160590147Y-50987646D01*
X160715646Y-50862147D01*
X160863216Y-50763544D01*
X161027188Y-50695624D01*
X161176488Y-50665927D01*
X161201258Y-50661000D01*
X161378742Y-50661000D01*
X161403512Y-50665927D01*
G37*
G36*
X155188228Y-49727703D02*
G01*
X155343100Y-49791853D01*
X155482481Y-49884985D01*
X155601015Y-50003519D01*
X155694147Y-50142900D01*
X155758297Y-50297772D01*
X155791000Y-50462184D01*
X155791000Y-50629816D01*
X155758297Y-50794228D01*
X155694147Y-50949100D01*
X155601015Y-51088481D01*
X155482481Y-51207015D01*
X155343100Y-51300147D01*
X155188228Y-51364297D01*
X155023816Y-51397000D01*
X154856184Y-51397000D01*
X154691772Y-51364297D01*
X154536900Y-51300147D01*
X154397519Y-51207015D01*
X154278985Y-51088481D01*
X154185853Y-50949100D01*
X154121703Y-50794228D01*
X154089000Y-50629816D01*
X154089000Y-50462184D01*
X154121703Y-50297772D01*
X154185853Y-50142900D01*
X154278985Y-50003519D01*
X154397519Y-49884985D01*
X154536900Y-49791853D01*
X154691772Y-49727703D01*
X154856184Y-49695000D01*
X155023816Y-49695000D01*
X155188228Y-49727703D01*
G37*
G36*
X139948228Y-49727703D02*
G01*
X140103100Y-49791853D01*
X140242481Y-49884985D01*
X140361015Y-50003519D01*
X140454147Y-50142900D01*
X140518297Y-50297772D01*
X140551000Y-50462184D01*
X140551000Y-50629816D01*
X140518297Y-50794228D01*
X140454147Y-50949100D01*
X140361015Y-51088481D01*
X140242481Y-51207015D01*
X140103100Y-51300147D01*
X139948228Y-51364297D01*
X139783816Y-51397000D01*
X139616184Y-51397000D01*
X139451772Y-51364297D01*
X139296900Y-51300147D01*
X139157519Y-51207015D01*
X139038985Y-51088481D01*
X138945853Y-50949100D01*
X138881703Y-50794228D01*
X138849000Y-50629816D01*
X138849000Y-50462184D01*
X138881703Y-50297772D01*
X138945853Y-50142900D01*
X139038985Y-50003519D01*
X139157519Y-49884985D01*
X139296900Y-49791853D01*
X139451772Y-49727703D01*
X139616184Y-49695000D01*
X139783816Y-49695000D01*
X139948228Y-49727703D01*
G37*
G36*
X161403512Y-48125927D02*
G01*
X161552812Y-48155624D01*
X161716784Y-48223544D01*
X161864354Y-48322147D01*
X161989853Y-48447646D01*
X162088456Y-48595216D01*
X162156376Y-48759188D01*
X162191000Y-48933259D01*
X162191000Y-49110741D01*
X162156376Y-49284812D01*
X162088456Y-49448784D01*
X161989853Y-49596354D01*
X161864354Y-49721853D01*
X161716784Y-49820456D01*
X161552812Y-49888376D01*
X161403512Y-49918073D01*
X161378742Y-49923000D01*
X161201258Y-49923000D01*
X161176488Y-49918073D01*
X161027188Y-49888376D01*
X160863216Y-49820456D01*
X160715646Y-49721853D01*
X160590147Y-49596354D01*
X160491544Y-49448784D01*
X160423624Y-49284812D01*
X160389000Y-49110741D01*
X160389000Y-48933259D01*
X160423624Y-48759188D01*
X160491544Y-48595216D01*
X160590147Y-48447646D01*
X160715646Y-48322147D01*
X160863216Y-48223544D01*
X161027188Y-48155624D01*
X161176488Y-48125927D01*
X161201258Y-48121000D01*
X161378742Y-48121000D01*
X161403512Y-48125927D01*
G37*
G36*
X155188228Y-47187703D02*
G01*
X155343100Y-47251853D01*
X155482481Y-47344985D01*
X155601015Y-47463519D01*
X155694147Y-47602900D01*
X155758297Y-47757772D01*
X155791000Y-47922184D01*
X155791000Y-48089816D01*
X155758297Y-48254228D01*
X155694147Y-48409100D01*
X155601015Y-48548481D01*
X155482481Y-48667015D01*
X155343100Y-48760147D01*
X155188228Y-48824297D01*
X155023816Y-48857000D01*
X154856184Y-48857000D01*
X154691772Y-48824297D01*
X154536900Y-48760147D01*
X154397519Y-48667015D01*
X154278985Y-48548481D01*
X154185853Y-48409100D01*
X154121703Y-48254228D01*
X154089000Y-48089816D01*
X154089000Y-47922184D01*
X154121703Y-47757772D01*
X154185853Y-47602900D01*
X154278985Y-47463519D01*
X154397519Y-47344985D01*
X154536900Y-47251853D01*
X154691772Y-47187703D01*
X154856184Y-47155000D01*
X155023816Y-47155000D01*
X155188228Y-47187703D01*
G37*
G36*
X139948228Y-47187703D02*
G01*
X140103100Y-47251853D01*
X140242481Y-47344985D01*
X140361015Y-47463519D01*
X140454147Y-47602900D01*
X140518297Y-47757772D01*
X140551000Y-47922184D01*
X140551000Y-48089816D01*
X140518297Y-48254228D01*
X140454147Y-48409100D01*
X140361015Y-48548481D01*
X140242481Y-48667015D01*
X140103100Y-48760147D01*
X139948228Y-48824297D01*
X139783816Y-48857000D01*
X139616184Y-48857000D01*
X139451772Y-48824297D01*
X139296900Y-48760147D01*
X139157519Y-48667015D01*
X139038985Y-48548481D01*
X138945853Y-48409100D01*
X138881703Y-48254228D01*
X138849000Y-48089816D01*
X138849000Y-47922184D01*
X138881703Y-47757772D01*
X138945853Y-47602900D01*
X139038985Y-47463519D01*
X139157519Y-47344985D01*
X139296900Y-47251853D01*
X139451772Y-47187703D01*
X139616184Y-47155000D01*
X139783816Y-47155000D01*
X139948228Y-47187703D01*
G37*
G36*
X155188228Y-44647703D02*
G01*
X155343100Y-44711853D01*
X155482481Y-44804985D01*
X155601015Y-44923519D01*
X155694147Y-45062900D01*
X155758297Y-45217772D01*
X155791000Y-45382184D01*
X155791000Y-45549816D01*
X155758297Y-45714228D01*
X155694147Y-45869100D01*
X155601015Y-46008481D01*
X155482481Y-46127015D01*
X155343100Y-46220147D01*
X155188228Y-46284297D01*
X155023816Y-46317000D01*
X154856184Y-46317000D01*
X154691772Y-46284297D01*
X154536900Y-46220147D01*
X154397519Y-46127015D01*
X154278985Y-46008481D01*
X154185853Y-45869100D01*
X154121703Y-45714228D01*
X154089000Y-45549816D01*
X154089000Y-45382184D01*
X154121703Y-45217772D01*
X154185853Y-45062900D01*
X154278985Y-44923519D01*
X154397519Y-44804985D01*
X154536900Y-44711853D01*
X154691772Y-44647703D01*
X154856184Y-44615000D01*
X155023816Y-44615000D01*
X155188228Y-44647703D01*
G37*
G36*
X139948228Y-44647703D02*
G01*
X140103100Y-44711853D01*
X140242481Y-44804985D01*
X140361015Y-44923519D01*
X140454147Y-45062900D01*
X140518297Y-45217772D01*
X140551000Y-45382184D01*
X140551000Y-45549816D01*
X140518297Y-45714228D01*
X140454147Y-45869100D01*
X140361015Y-46008481D01*
X140242481Y-46127015D01*
X140103100Y-46220147D01*
X139948228Y-46284297D01*
X139783816Y-46317000D01*
X139616184Y-46317000D01*
X139451772Y-46284297D01*
X139296900Y-46220147D01*
X139157519Y-46127015D01*
X139038985Y-46008481D01*
X138945853Y-45869100D01*
X138881703Y-45714228D01*
X138849000Y-45549816D01*
X138849000Y-45382184D01*
X138881703Y-45217772D01*
X138945853Y-45062900D01*
X139038985Y-44923519D01*
X139157519Y-44804985D01*
X139296900Y-44711853D01*
X139451772Y-44647703D01*
X139616184Y-44615000D01*
X139783816Y-44615000D01*
X139948228Y-44647703D01*
G37*
G36*
X48894239Y-38213467D02*
G01*
X49208282Y-38275934D01*
X49799926Y-38521001D01*
X50332392Y-38876784D01*
X50785216Y-39329608D01*
X51140999Y-39862074D01*
X51386066Y-40453718D01*
X51386066Y-40453719D01*
X51511000Y-41081803D01*
X51511000Y-41722197D01*
X51448533Y-42036239D01*
X51386066Y-42350282D01*
X51140999Y-42941926D01*
X50893265Y-43312685D01*
X50789167Y-43468480D01*
X50785216Y-43474392D01*
X50332392Y-43927216D01*
X49799926Y-44282999D01*
X49208282Y-44528066D01*
X48894239Y-44590533D01*
X48580197Y-44653000D01*
X47939803Y-44653000D01*
X47625761Y-44590533D01*
X47311718Y-44528066D01*
X46720074Y-44282999D01*
X46187608Y-43927216D01*
X45734784Y-43474392D01*
X45730834Y-43468480D01*
X45626735Y-43312685D01*
X45379001Y-42941926D01*
X45133934Y-42350282D01*
X45071467Y-42036239D01*
X45009000Y-41722197D01*
X45009000Y-41081803D01*
X45133934Y-40453719D01*
X45133934Y-40453718D01*
X45379001Y-39862074D01*
X45734784Y-39329608D01*
X46187608Y-38876784D01*
X46720074Y-38521001D01*
X47311718Y-38275934D01*
X47625761Y-38213467D01*
X47939803Y-38151000D01*
X48580197Y-38151000D01*
X48894239Y-38213467D01*
G37*
G36*
X161416239Y-38213467D02*
G01*
X161730282Y-38275934D01*
X162321926Y-38521001D01*
X162854392Y-38876784D01*
X163307216Y-39329608D01*
X163662999Y-39862074D01*
X163908066Y-40453718D01*
X163908066Y-40453719D01*
X164033000Y-41081803D01*
X164033000Y-41722197D01*
X163970533Y-42036239D01*
X163908066Y-42350282D01*
X163662999Y-42941926D01*
X163415265Y-43312685D01*
X163311167Y-43468480D01*
X163307216Y-43474392D01*
X162854392Y-43927216D01*
X162321926Y-44282999D01*
X161730282Y-44528066D01*
X161416239Y-44590533D01*
X161102197Y-44653000D01*
X160461803Y-44653000D01*
X160147761Y-44590533D01*
X159833718Y-44528066D01*
X159242074Y-44282999D01*
X158709608Y-43927216D01*
X158256784Y-43474392D01*
X158252834Y-43468480D01*
X158148735Y-43312685D01*
X157901001Y-42941926D01*
X157655934Y-42350282D01*
X157593467Y-42036239D01*
X157531000Y-41722197D01*
X157531000Y-41081803D01*
X157655934Y-40453719D01*
X157655934Y-40453718D01*
X157901001Y-39862074D01*
X158256784Y-39329608D01*
X158709608Y-38876784D01*
X159242074Y-38521001D01*
X159833718Y-38275934D01*
X160147761Y-38213467D01*
X160461803Y-38151000D01*
X161102197Y-38151000D01*
X161416239Y-38213467D01*
G37*
G36*
X155188228Y-42107703D02*
G01*
X155343100Y-42171853D01*
X155482481Y-42264985D01*
X155601015Y-42383519D01*
X155694147Y-42522900D01*
X155758297Y-42677772D01*
X155791000Y-42842184D01*
X155791000Y-43009816D01*
X155758297Y-43174228D01*
X155694147Y-43329100D01*
X155601015Y-43468481D01*
X155482481Y-43587015D01*
X155343100Y-43680147D01*
X155188228Y-43744297D01*
X155023816Y-43777000D01*
X154856184Y-43777000D01*
X154691772Y-43744297D01*
X154536900Y-43680147D01*
X154397519Y-43587015D01*
X154278985Y-43468481D01*
X154185853Y-43329100D01*
X154121703Y-43174228D01*
X154089000Y-43009816D01*
X154089000Y-42842184D01*
X154121703Y-42677772D01*
X154185853Y-42522900D01*
X154278985Y-42383519D01*
X154397519Y-42264985D01*
X154536900Y-42171853D01*
X154691772Y-42107703D01*
X154856184Y-42075000D01*
X155023816Y-42075000D01*
X155188228Y-42107703D01*
G37*
G36*
X139948228Y-42107703D02*
G01*
X140103100Y-42171853D01*
X140242481Y-42264985D01*
X140361015Y-42383519D01*
X140454147Y-42522900D01*
X140518297Y-42677772D01*
X140551000Y-42842184D01*
X140551000Y-43009816D01*
X140518297Y-43174228D01*
X140454147Y-43329100D01*
X140361015Y-43468481D01*
X140242481Y-43587015D01*
X140103100Y-43680147D01*
X139948228Y-43744297D01*
X139783816Y-43777000D01*
X139616184Y-43777000D01*
X139451772Y-43744297D01*
X139296900Y-43680147D01*
X139157519Y-43587015D01*
X139038985Y-43468481D01*
X138945853Y-43329100D01*
X138881703Y-43174228D01*
X138849000Y-43009816D01*
X138849000Y-42842184D01*
X138881703Y-42677772D01*
X138945853Y-42522900D01*
X139038985Y-42383519D01*
X139157519Y-42264985D01*
X139296900Y-42171853D01*
X139451772Y-42107703D01*
X139616184Y-42075000D01*
X139783816Y-42075000D01*
X139948228Y-42107703D01*
G37*
G36*
X139948228Y-39567703D02*
G01*
X140103100Y-39631853D01*
X140242481Y-39724985D01*
X140361015Y-39843519D01*
X140454147Y-39982900D01*
X140518297Y-40137772D01*
X140551000Y-40302184D01*
X140551000Y-40469816D01*
X140518297Y-40634228D01*
X140454147Y-40789100D01*
X140361015Y-40928481D01*
X140242481Y-41047015D01*
X140103100Y-41140147D01*
X139948228Y-41204297D01*
X139783816Y-41237000D01*
X139616184Y-41237000D01*
X139451772Y-41204297D01*
X139296900Y-41140147D01*
X139157519Y-41047015D01*
X139038985Y-40928481D01*
X138945853Y-40789100D01*
X138881703Y-40634228D01*
X138849000Y-40469816D01*
X138849000Y-40302184D01*
X138881703Y-40137772D01*
X138945853Y-39982900D01*
X139038985Y-39843519D01*
X139157519Y-39724985D01*
X139296900Y-39631853D01*
X139451772Y-39567703D01*
X139616184Y-39535000D01*
X139783816Y-39535000D01*
X139948228Y-39567703D01*
G37*
G36*
X155188228Y-39567703D02*
G01*
X155343100Y-39631853D01*
X155482481Y-39724985D01*
X155601015Y-39843519D01*
X155694147Y-39982900D01*
X155758297Y-40137772D01*
X155791000Y-40302184D01*
X155791000Y-40469816D01*
X155758297Y-40634228D01*
X155694147Y-40789100D01*
X155601015Y-40928481D01*
X155482481Y-41047015D01*
X155343100Y-41140147D01*
X155188228Y-41204297D01*
X155023816Y-41237000D01*
X154856184Y-41237000D01*
X154691772Y-41204297D01*
X154536900Y-41140147D01*
X154397519Y-41047015D01*
X154278985Y-40928481D01*
X154185853Y-40789100D01*
X154121703Y-40634228D01*
X154089000Y-40469816D01*
X154089000Y-40302184D01*
X154121703Y-40137772D01*
X154185853Y-39982900D01*
X154278985Y-39843519D01*
X154397519Y-39724985D01*
X154536900Y-39631853D01*
X154691772Y-39567703D01*
X154856184Y-39535000D01*
X155023816Y-39535000D01*
X155188228Y-39567703D01*
G37*
G36*
X129399512Y-36949927D02*
G01*
X129548812Y-36979624D01*
X129712784Y-37047544D01*
X129860354Y-37146147D01*
X129985853Y-37271646D01*
X130084456Y-37419216D01*
X130152376Y-37583188D01*
X130187000Y-37757259D01*
X130187000Y-37934741D01*
X130152376Y-38108812D01*
X130084456Y-38272784D01*
X129985853Y-38420354D01*
X129860354Y-38545853D01*
X129712784Y-38644456D01*
X129548812Y-38712376D01*
X129399512Y-38742073D01*
X129374742Y-38747000D01*
X129197258Y-38747000D01*
X129172488Y-38742073D01*
X129023188Y-38712376D01*
X128859216Y-38644456D01*
X128711646Y-38545853D01*
X128586147Y-38420354D01*
X128487544Y-38272784D01*
X128419624Y-38108812D01*
X128385000Y-37934741D01*
X128385000Y-37757259D01*
X128419624Y-37583188D01*
X128487544Y-37419216D01*
X128586147Y-37271646D01*
X128711646Y-37146147D01*
X128859216Y-37047544D01*
X129023188Y-36979624D01*
X129172488Y-36949927D01*
X129197258Y-36945000D01*
X129374742Y-36945000D01*
X129399512Y-36949927D01*
G37*
G36*
X131939512Y-36949927D02*
G01*
X132088812Y-36979624D01*
X132252784Y-37047544D01*
X132400354Y-37146147D01*
X132525853Y-37271646D01*
X132624456Y-37419216D01*
X132692376Y-37583188D01*
X132727000Y-37757259D01*
X132727000Y-37934741D01*
X132692376Y-38108812D01*
X132624456Y-38272784D01*
X132525853Y-38420354D01*
X132400354Y-38545853D01*
X132252784Y-38644456D01*
X132088812Y-38712376D01*
X131939512Y-38742073D01*
X131914742Y-38747000D01*
X131737258Y-38747000D01*
X131712488Y-38742073D01*
X131563188Y-38712376D01*
X131399216Y-38644456D01*
X131251646Y-38545853D01*
X131126147Y-38420354D01*
X131027544Y-38272784D01*
X130959624Y-38108812D01*
X130925000Y-37934741D01*
X130925000Y-37757259D01*
X130959624Y-37583188D01*
X131027544Y-37419216D01*
X131126147Y-37271646D01*
X131251646Y-37146147D01*
X131399216Y-37047544D01*
X131563188Y-36979624D01*
X131712488Y-36949927D01*
X131737258Y-36945000D01*
X131914742Y-36945000D01*
X131939512Y-36949927D01*
G37*
G36*
X155188228Y-37027703D02*
G01*
X155343100Y-37091853D01*
X155482481Y-37184985D01*
X155601015Y-37303519D01*
X155694147Y-37442900D01*
X155758297Y-37597772D01*
X155791000Y-37762184D01*
X155791000Y-37929816D01*
X155758297Y-38094228D01*
X155694147Y-38249100D01*
X155601015Y-38388481D01*
X155482481Y-38507015D01*
X155343100Y-38600147D01*
X155188228Y-38664297D01*
X155023816Y-38697000D01*
X154856184Y-38697000D01*
X154691772Y-38664297D01*
X154536900Y-38600147D01*
X154397519Y-38507015D01*
X154278985Y-38388481D01*
X154185853Y-38249100D01*
X154121703Y-38094228D01*
X154089000Y-37929816D01*
X154089000Y-37762184D01*
X154121703Y-37597772D01*
X154185853Y-37442900D01*
X154278985Y-37303519D01*
X154397519Y-37184985D01*
X154536900Y-37091853D01*
X154691772Y-37027703D01*
X154856184Y-36995000D01*
X155023816Y-36995000D01*
X155188228Y-37027703D01*
G37*
G36*
X139948228Y-37027703D02*
G01*
X140103100Y-37091853D01*
X140242481Y-37184985D01*
X140361015Y-37303519D01*
X140454147Y-37442900D01*
X140518297Y-37597772D01*
X140551000Y-37762184D01*
X140551000Y-37929816D01*
X140518297Y-38094228D01*
X140454147Y-38249100D01*
X140361015Y-38388481D01*
X140242481Y-38507015D01*
X140103100Y-38600147D01*
X139948228Y-38664297D01*
X139783816Y-38697000D01*
X139616184Y-38697000D01*
X139451772Y-38664297D01*
X139296900Y-38600147D01*
X139157519Y-38507015D01*
X139038985Y-38388481D01*
X138945853Y-38249100D01*
X138881703Y-38094228D01*
X138849000Y-37929816D01*
X138849000Y-37762184D01*
X138881703Y-37597772D01*
X138945853Y-37442900D01*
X139038985Y-37303519D01*
X139157519Y-37184985D01*
X139296900Y-37091853D01*
X139451772Y-37027703D01*
X139616184Y-36995000D01*
X139783816Y-36995000D01*
X139948228Y-37027703D01*
G37*
G36*
X131939512Y-34409927D02*
G01*
X132088812Y-34439624D01*
X132252784Y-34507544D01*
X132400354Y-34606147D01*
X132525853Y-34731646D01*
X132624456Y-34879216D01*
X132692376Y-35043188D01*
X132727000Y-35217259D01*
X132727000Y-35394741D01*
X132692376Y-35568812D01*
X132624456Y-35732784D01*
X132525853Y-35880354D01*
X132400354Y-36005853D01*
X132252784Y-36104456D01*
X132088812Y-36172376D01*
X131939512Y-36202073D01*
X131914742Y-36207000D01*
X131737258Y-36207000D01*
X131712488Y-36202073D01*
X131563188Y-36172376D01*
X131399216Y-36104456D01*
X131251646Y-36005853D01*
X131126147Y-35880354D01*
X131027544Y-35732784D01*
X130959624Y-35568812D01*
X130925000Y-35394741D01*
X130925000Y-35217259D01*
X130959624Y-35043188D01*
X131027544Y-34879216D01*
X131126147Y-34731646D01*
X131251646Y-34606147D01*
X131399216Y-34507544D01*
X131563188Y-34439624D01*
X131712488Y-34409927D01*
X131737258Y-34405000D01*
X131914742Y-34405000D01*
X131939512Y-34409927D01*
G37*
G36*
X129399512Y-34409927D02*
G01*
X129548812Y-34439624D01*
X129712784Y-34507544D01*
X129860354Y-34606147D01*
X129985853Y-34731646D01*
X130084456Y-34879216D01*
X130152376Y-35043188D01*
X130187000Y-35217259D01*
X130187000Y-35394741D01*
X130152376Y-35568812D01*
X130084456Y-35732784D01*
X129985853Y-35880354D01*
X129860354Y-36005853D01*
X129712784Y-36104456D01*
X129548812Y-36172376D01*
X129399512Y-36202073D01*
X129374742Y-36207000D01*
X129197258Y-36207000D01*
X129172488Y-36202073D01*
X129023188Y-36172376D01*
X128859216Y-36104456D01*
X128711646Y-36005853D01*
X128586147Y-35880354D01*
X128487544Y-35732784D01*
X128419624Y-35568812D01*
X128385000Y-35394741D01*
X128385000Y-35217259D01*
X128419624Y-35043188D01*
X128487544Y-34879216D01*
X128586147Y-34731646D01*
X128711646Y-34606147D01*
X128859216Y-34507544D01*
X129023188Y-34439624D01*
X129172488Y-34409927D01*
X129197258Y-34405000D01*
X129374742Y-34405000D01*
X129399512Y-34409927D01*
G37*
G36*
X155188228Y-34487703D02*
G01*
X155343100Y-34551853D01*
X155482481Y-34644985D01*
X155601015Y-34763519D01*
X155694147Y-34902900D01*
X155758297Y-35057772D01*
X155791000Y-35222184D01*
X155791000Y-35389816D01*
X155758297Y-35554228D01*
X155694147Y-35709100D01*
X155601015Y-35848481D01*
X155482481Y-35967015D01*
X155343100Y-36060147D01*
X155188228Y-36124297D01*
X155023816Y-36157000D01*
X154856184Y-36157000D01*
X154691772Y-36124297D01*
X154536900Y-36060147D01*
X154397519Y-35967015D01*
X154278985Y-35848481D01*
X154185853Y-35709100D01*
X154121703Y-35554228D01*
X154089000Y-35389816D01*
X154089000Y-35222184D01*
X154121703Y-35057772D01*
X154185853Y-34902900D01*
X154278985Y-34763519D01*
X154397519Y-34644985D01*
X154536900Y-34551853D01*
X154691772Y-34487703D01*
X154856184Y-34455000D01*
X155023816Y-34455000D01*
X155188228Y-34487703D01*
G37*
G36*
X139948228Y-34487703D02*
G01*
X140103100Y-34551853D01*
X140242481Y-34644985D01*
X140361015Y-34763519D01*
X140454147Y-34902900D01*
X140518297Y-35057772D01*
X140551000Y-35222184D01*
X140551000Y-35389816D01*
X140518297Y-35554228D01*
X140454147Y-35709100D01*
X140361015Y-35848481D01*
X140242481Y-35967015D01*
X140103100Y-36060147D01*
X139948228Y-36124297D01*
X139783816Y-36157000D01*
X139616184Y-36157000D01*
X139451772Y-36124297D01*
X139296900Y-36060147D01*
X139157519Y-35967015D01*
X139038985Y-35848481D01*
X138945853Y-35709100D01*
X138881703Y-35554228D01*
X138849000Y-35389816D01*
X138849000Y-35222184D01*
X138881703Y-35057772D01*
X138945853Y-34902900D01*
X139038985Y-34763519D01*
X139157519Y-34644985D01*
X139296900Y-34551853D01*
X139451772Y-34487703D01*
X139616184Y-34455000D01*
X139783816Y-34455000D01*
X139948228Y-34487703D01*
G37*
G36*
X131939512Y-31869927D02*
G01*
X132088812Y-31899624D01*
X132252784Y-31967544D01*
X132400354Y-32066147D01*
X132525853Y-32191646D01*
X132624456Y-32339216D01*
X132692376Y-32503188D01*
X132727000Y-32677259D01*
X132727000Y-32854741D01*
X132692376Y-33028812D01*
X132624456Y-33192784D01*
X132525853Y-33340354D01*
X132400354Y-33465853D01*
X132252784Y-33564456D01*
X132088812Y-33632376D01*
X131939512Y-33662073D01*
X131914742Y-33667000D01*
X131737258Y-33667000D01*
X131712488Y-33662073D01*
X131563188Y-33632376D01*
X131399216Y-33564456D01*
X131251646Y-33465853D01*
X131126147Y-33340354D01*
X131027544Y-33192784D01*
X130959624Y-33028812D01*
X130925000Y-32854741D01*
X130925000Y-32677259D01*
X130959624Y-32503188D01*
X131027544Y-32339216D01*
X131126147Y-32191646D01*
X131251646Y-32066147D01*
X131399216Y-31967544D01*
X131563188Y-31899624D01*
X131712488Y-31869927D01*
X131737258Y-31865000D01*
X131914742Y-31865000D01*
X131939512Y-31869927D01*
G37*
G36*
X129399512Y-31869927D02*
G01*
X129548812Y-31899624D01*
X129712784Y-31967544D01*
X129860354Y-32066147D01*
X129985853Y-32191646D01*
X130084456Y-32339216D01*
X130152376Y-32503188D01*
X130187000Y-32677259D01*
X130187000Y-32854741D01*
X130152376Y-33028812D01*
X130084456Y-33192784D01*
X129985853Y-33340354D01*
X129860354Y-33465853D01*
X129712784Y-33564456D01*
X129548812Y-33632376D01*
X129399512Y-33662073D01*
X129374742Y-33667000D01*
X129197258Y-33667000D01*
X129172488Y-33662073D01*
X129023188Y-33632376D01*
X128859216Y-33564456D01*
X128711646Y-33465853D01*
X128586147Y-33340354D01*
X128487544Y-33192784D01*
X128419624Y-33028812D01*
X128385000Y-32854741D01*
X128385000Y-32677259D01*
X128419624Y-32503188D01*
X128487544Y-32339216D01*
X128586147Y-32191646D01*
X128711646Y-32066147D01*
X128859216Y-31967544D01*
X129023188Y-31899624D01*
X129172488Y-31869927D01*
X129197258Y-31865000D01*
X129374742Y-31865000D01*
X129399512Y-31869927D01*
G37*
G36*
X155188228Y-31947703D02*
G01*
X155343100Y-32011853D01*
X155482481Y-32104985D01*
X155601015Y-32223519D01*
X155694147Y-32362900D01*
X155758297Y-32517772D01*
X155791000Y-32682184D01*
X155791000Y-32849816D01*
X155758297Y-33014228D01*
X155694147Y-33169100D01*
X155601015Y-33308481D01*
X155482481Y-33427015D01*
X155343100Y-33520147D01*
X155188228Y-33584297D01*
X155023816Y-33617000D01*
X154856184Y-33617000D01*
X154691772Y-33584297D01*
X154536900Y-33520147D01*
X154397519Y-33427015D01*
X154278985Y-33308481D01*
X154185853Y-33169100D01*
X154121703Y-33014228D01*
X154089000Y-32849816D01*
X154089000Y-32682184D01*
X154121703Y-32517772D01*
X154185853Y-32362900D01*
X154278985Y-32223519D01*
X154397519Y-32104985D01*
X154536900Y-32011853D01*
X154691772Y-31947703D01*
X154856184Y-31915000D01*
X155023816Y-31915000D01*
X155188228Y-31947703D01*
G37*
G36*
X139948228Y-31947703D02*
G01*
X140103100Y-32011853D01*
X140242481Y-32104985D01*
X140361015Y-32223519D01*
X140454147Y-32362900D01*
X140518297Y-32517772D01*
X140551000Y-32682184D01*
X140551000Y-32849816D01*
X140518297Y-33014228D01*
X140454147Y-33169100D01*
X140361015Y-33308481D01*
X140242481Y-33427015D01*
X140103100Y-33520147D01*
X139948228Y-33584297D01*
X139783816Y-33617000D01*
X139616184Y-33617000D01*
X139451772Y-33584297D01*
X139296900Y-33520147D01*
X139157519Y-33427015D01*
X139038985Y-33308481D01*
X138945853Y-33169100D01*
X138881703Y-33014228D01*
X138849000Y-32849816D01*
X138849000Y-32682184D01*
X138881703Y-32517772D01*
X138945853Y-32362900D01*
X139038985Y-32223519D01*
X139157519Y-32104985D01*
X139296900Y-32011853D01*
X139451772Y-31947703D01*
X139616184Y-31915000D01*
X139783816Y-31915000D01*
X139948228Y-31947703D01*
G37*
G36*
X131939512Y-29329927D02*
G01*
X132088812Y-29359624D01*
X132252784Y-29427544D01*
X132400354Y-29526147D01*
X132525853Y-29651646D01*
X132624456Y-29799216D01*
X132692376Y-29963188D01*
X132727000Y-30137259D01*
X132727000Y-30314741D01*
X132692376Y-30488812D01*
X132624456Y-30652784D01*
X132525853Y-30800354D01*
X132400354Y-30925853D01*
X132252784Y-31024456D01*
X132088812Y-31092376D01*
X131939512Y-31122073D01*
X131914742Y-31127000D01*
X131737258Y-31127000D01*
X131712488Y-31122073D01*
X131563188Y-31092376D01*
X131399216Y-31024456D01*
X131251646Y-30925853D01*
X131126147Y-30800354D01*
X131027544Y-30652784D01*
X130959624Y-30488812D01*
X130925000Y-30314741D01*
X130925000Y-30137259D01*
X130959624Y-29963188D01*
X131027544Y-29799216D01*
X131126147Y-29651646D01*
X131251646Y-29526147D01*
X131399216Y-29427544D01*
X131563188Y-29359624D01*
X131712488Y-29329927D01*
X131737258Y-29325000D01*
X131914742Y-29325000D01*
X131939512Y-29329927D01*
G37*
G36*
X130187000Y-31127000D02*
G01*
X128385000Y-31127000D01*
X128385000Y-29325000D01*
X130187000Y-29325000D01*
X130187000Y-31127000D01*
G37*
G36*
X139948228Y-29407703D02*
G01*
X140103100Y-29471853D01*
X140242481Y-29564985D01*
X140361015Y-29683519D01*
X140454147Y-29822900D01*
X140518297Y-29977772D01*
X140551000Y-30142184D01*
X140551000Y-30309816D01*
X140518297Y-30474228D01*
X140454147Y-30629100D01*
X140361015Y-30768481D01*
X140242481Y-30887015D01*
X140103100Y-30980147D01*
X139948228Y-31044297D01*
X139783816Y-31077000D01*
X139616184Y-31077000D01*
X139451772Y-31044297D01*
X139296900Y-30980147D01*
X139157519Y-30887015D01*
X139038985Y-30768481D01*
X138945853Y-30629100D01*
X138881703Y-30474228D01*
X138849000Y-30309816D01*
X138849000Y-30142184D01*
X138881703Y-29977772D01*
X138945853Y-29822900D01*
X139038985Y-29683519D01*
X139157519Y-29564985D01*
X139296900Y-29471853D01*
X139451772Y-29407703D01*
X139616184Y-29375000D01*
X139783816Y-29375000D01*
X139948228Y-29407703D01*
G37*
G36*
X152648228Y-29407703D02*
G01*
X152803100Y-29471853D01*
X152942481Y-29564985D01*
X153061015Y-29683519D01*
X153154147Y-29822900D01*
X153218297Y-29977772D01*
X153251000Y-30142184D01*
X153251000Y-30309816D01*
X153218297Y-30474228D01*
X153154147Y-30629100D01*
X153061015Y-30768481D01*
X152942481Y-30887015D01*
X152803100Y-30980147D01*
X152648228Y-31044297D01*
X152483816Y-31077000D01*
X152316184Y-31077000D01*
X152151772Y-31044297D01*
X151996900Y-30980147D01*
X151857519Y-30887015D01*
X151738985Y-30768481D01*
X151645853Y-30629100D01*
X151581703Y-30474228D01*
X151549000Y-30309816D01*
X151549000Y-30142184D01*
X151581703Y-29977772D01*
X151645853Y-29822900D01*
X151738985Y-29683519D01*
X151857519Y-29564985D01*
X151996900Y-29471853D01*
X152151772Y-29407703D01*
X152316184Y-29375000D01*
X152483816Y-29375000D01*
X152648228Y-29407703D01*
G37*
G36*
X155188228Y-29407703D02*
G01*
X155343100Y-29471853D01*
X155482481Y-29564985D01*
X155601015Y-29683519D01*
X155694147Y-29822900D01*
X155758297Y-29977772D01*
X155791000Y-30142184D01*
X155791000Y-30309816D01*
X155758297Y-30474228D01*
X155694147Y-30629100D01*
X155601015Y-30768481D01*
X155482481Y-30887015D01*
X155343100Y-30980147D01*
X155188228Y-31044297D01*
X155023816Y-31077000D01*
X154856184Y-31077000D01*
X154691772Y-31044297D01*
X154536900Y-30980147D01*
X154397519Y-30887015D01*
X154278985Y-30768481D01*
X154185853Y-30629100D01*
X154121703Y-30474228D01*
X154089000Y-30309816D01*
X154089000Y-30142184D01*
X154121703Y-29977772D01*
X154185853Y-29822900D01*
X154278985Y-29683519D01*
X154397519Y-29564985D01*
X154536900Y-29471853D01*
X154691772Y-29407703D01*
X154856184Y-29375000D01*
X155023816Y-29375000D01*
X155188228Y-29407703D01*
G37*
G36*
X139948228Y-26867703D02*
G01*
X140103100Y-26931853D01*
X140242481Y-27024985D01*
X140361015Y-27143519D01*
X140454147Y-27282900D01*
X140518297Y-27437772D01*
X140551000Y-27602184D01*
X140551000Y-27769816D01*
X140518297Y-27934228D01*
X140454147Y-28089100D01*
X140361015Y-28228481D01*
X140242481Y-28347015D01*
X140103100Y-28440147D01*
X139948228Y-28504297D01*
X139783816Y-28537000D01*
X139616184Y-28537000D01*
X139451772Y-28504297D01*
X139296900Y-28440147D01*
X139157519Y-28347015D01*
X139038985Y-28228481D01*
X138945853Y-28089100D01*
X138881703Y-27934228D01*
X138849000Y-27769816D01*
X138849000Y-27602184D01*
X138881703Y-27437772D01*
X138945853Y-27282900D01*
X139038985Y-27143519D01*
X139157519Y-27024985D01*
X139296900Y-26931853D01*
X139451772Y-26867703D01*
X139616184Y-26835000D01*
X139783816Y-26835000D01*
X139948228Y-26867703D01*
G37*
G36*
X155188228Y-26867703D02*
G01*
X155343100Y-26931853D01*
X155482481Y-27024985D01*
X155601015Y-27143519D01*
X155694147Y-27282900D01*
X155758297Y-27437772D01*
X155791000Y-27602184D01*
X155791000Y-27769816D01*
X155758297Y-27934228D01*
X155694147Y-28089100D01*
X155601015Y-28228481D01*
X155482481Y-28347015D01*
X155343100Y-28440147D01*
X155188228Y-28504297D01*
X155023816Y-28537000D01*
X154856184Y-28537000D01*
X154691772Y-28504297D01*
X154536900Y-28440147D01*
X154397519Y-28347015D01*
X154278985Y-28228481D01*
X154185853Y-28089100D01*
X154121703Y-27934228D01*
X154089000Y-27769816D01*
X154089000Y-27602184D01*
X154121703Y-27437772D01*
X154185853Y-27282900D01*
X154278985Y-27143519D01*
X154397519Y-27024985D01*
X154536900Y-26931853D01*
X154691772Y-26867703D01*
X154856184Y-26835000D01*
X155023816Y-26835000D01*
X155188228Y-26867703D01*
G37*
M02*
