M48
; DRILL file {KiCad (5.1.5)-3} date 27-Jun-20 01:24:00
; FORMAT={-:-/ absolute / inch / decimal}
; #@! TF.CreationDate,2020-06-27T01:24:00-04:00
; #@! TF.GenerationSoftware,Kicad,Pcbnew,(5.1.5)-3
; #@! TF.FileFunction,Plated,1,2,PTH
FMAT,2
INCH
T1C0.0157
T2C0.0315
T3C0.0350
T4C0.0394
T5C0.0433
T6C0.0790
%
G90
G05
T1
X9.2Y-4.65
X9.52Y-4.98
X9.72Y-4.65
X9.8Y-4.62
X9.91Y-4.61
X10.0Y-4.97
X10.14Y-4.96
X10.27Y-4.96
X10.46Y-5.12
X10.46Y-5.4
X10.5Y-5.69
X10.6Y-5.69
X10.61Y-4.97
X10.7Y-5.69
X10.8Y-5.69
X10.94Y-5.12
X10.94Y-5.4
T2
X8.05Y-4.65
X8.05Y-4.95
X8.15Y-4.65
X8.15Y-4.95
X7.27Y-4.65
X7.27Y-4.95
X7.37Y-4.65
X7.37Y-4.95
X0.97Y-4.65
X0.97Y-4.95
X1.07Y-4.65
X1.07Y-4.95
X5.69Y-4.65
X5.69Y-4.95
X5.79Y-4.65
X5.79Y-4.95
X4.9Y-4.65
X4.9Y-4.95
X5.0Y-4.65
X5.0Y-4.95
X4.12Y-4.65
X4.12Y-4.95
X4.22Y-4.65
X4.22Y-4.95
X8.84Y-4.65
X8.84Y-4.95
X8.94Y-4.65
X8.94Y-4.95
X2.54Y-4.65
X2.54Y-4.95
X2.64Y-4.65
X2.64Y-4.95
X1.75Y-4.65
X1.75Y-4.95
X1.85Y-4.65
X1.85Y-4.95
T3
X4.0196Y-5.33
X4.1196Y-5.33
X0.87Y-5.33
X0.97Y-5.33
X8.744Y-5.33
X8.844Y-5.33
X3.2322Y-5.33
X3.3322Y-5.33
X7.9566Y-5.33
X8.0566Y-5.33
X9.5314Y-5.33
X9.6314Y-5.33
X5.5944Y-5.33
X5.6944Y-5.33
X2.4448Y-5.33
X2.5448Y-5.33
X4.807Y-5.33
X4.907Y-5.33
X6.3818Y-5.33
X6.4818Y-5.33
X7.1692Y-5.33
X7.2692Y-5.33
X1.6574Y-5.33
X1.7574Y-5.33
T4
X10.39Y-5.76
X10.39Y-5.86
X10.49Y-5.76
X10.49Y-5.86
X10.59Y-5.76
X10.59Y-5.86
X10.69Y-5.76
X10.69Y-5.86
X10.79Y-5.76
X10.79Y-5.86
X10.94Y-5.76
X11.04Y-5.76
X11.14Y-5.76
X11.24Y-5.76
X11.34Y-5.76
X10.39Y-5.98
X10.49Y-5.98
X10.59Y-5.98
X10.69Y-5.98
X10.79Y-5.98
X10.56Y-4.86
X10.66Y-4.86
X10.76Y-4.86
X10.86Y-4.86
T5
X10.06Y-5.03
X10.06Y-5.13
X10.06Y-5.23
X10.06Y-5.33
X10.06Y-5.43
X10.06Y-5.53
X10.06Y-5.63
X10.16Y-5.03
X10.16Y-5.63
X10.26Y-5.03
X10.26Y-5.13
X10.26Y-5.23
X10.26Y-5.33
X10.26Y-5.43
X10.26Y-5.53
X10.26Y-5.63
X10.36Y-5.03
X10.36Y-5.13
X10.36Y-5.23
X10.36Y-5.33
X10.36Y-5.43
X10.36Y-5.53
X10.36Y-5.63
X10.46Y-5.03
X10.46Y-5.63
X10.56Y-5.03
X10.56Y-5.63
X10.66Y-5.03
X10.66Y-5.63
X10.76Y-5.03
X10.76Y-5.63
X10.86Y-5.03
X10.86Y-5.63
X10.96Y-5.03
X10.96Y-5.63
X11.06Y-5.03
X11.06Y-5.63
X11.16Y-5.03
X11.16Y-5.63
X11.26Y-5.03
X11.26Y-5.13
X11.26Y-5.63
X11.36Y-5.03
X11.36Y-5.63
T6
X3.9196Y-5.53
X4.3196Y-5.13
X0.77Y-5.53
X1.17Y-5.13
X8.644Y-5.53
X9.044Y-5.13
X3.1322Y-5.53
X3.5322Y-5.13
X7.8566Y-5.53
X8.2566Y-5.13
X9.4314Y-5.53
X9.8314Y-5.13
X5.4944Y-5.53
X5.8944Y-5.13
X2.3448Y-5.53
X2.7448Y-5.13
X4.707Y-5.53
X5.107Y-5.13
X6.2818Y-5.53
X6.6818Y-5.13
X7.0692Y-5.53
X7.4692Y-5.13
X1.5574Y-5.53
X1.9574Y-5.13
T0
M30
