G04 #@! TF.GenerationSoftware,KiCad,Pcbnew,(5.1.5)-3*
G04 #@! TF.CreationDate,2020-06-27T01:24:02-04:00*
G04 #@! TF.ProjectId,ssr cavity multiplexer,73737220-6361-4766-9974-79206d756c74,rev?*
G04 #@! TF.SameCoordinates,Original*
G04 #@! TF.FileFunction,Soldermask,Top*
G04 #@! TF.FilePolarity,Negative*
%FSLAX46Y46*%
G04 Gerber Fmt 4.6, Leading zero omitted, Abs format (unit mm)*
G04 Created by KiCad (PCBNEW (5.1.5)-3) date 2020-06-27 01:24:02*
%MOMM*%
%LPD*%
G04 APERTURE LIST*
%ADD10C,0.100000*%
G04 APERTURE END LIST*
D10*
G36*
X274179512Y-150995927D02*
G01*
X274328812Y-151025624D01*
X274492784Y-151093544D01*
X274640354Y-151192147D01*
X274765853Y-151317646D01*
X274864456Y-151465216D01*
X274932376Y-151629188D01*
X274967000Y-151803259D01*
X274967000Y-151980741D01*
X274932376Y-152154812D01*
X274864456Y-152318784D01*
X274765853Y-152466354D01*
X274640354Y-152591853D01*
X274492784Y-152690456D01*
X274328812Y-152758376D01*
X274179512Y-152788073D01*
X274154742Y-152793000D01*
X273977258Y-152793000D01*
X273952488Y-152788073D01*
X273803188Y-152758376D01*
X273639216Y-152690456D01*
X273491646Y-152591853D01*
X273366147Y-152466354D01*
X273267544Y-152318784D01*
X273199624Y-152154812D01*
X273165000Y-151980741D01*
X273165000Y-151803259D01*
X273199624Y-151629188D01*
X273267544Y-151465216D01*
X273366147Y-151317646D01*
X273491646Y-151192147D01*
X273639216Y-151093544D01*
X273803188Y-151025624D01*
X273952488Y-150995927D01*
X273977258Y-150991000D01*
X274154742Y-150991000D01*
X274179512Y-150995927D01*
G37*
G36*
X266559512Y-150995927D02*
G01*
X266708812Y-151025624D01*
X266872784Y-151093544D01*
X267020354Y-151192147D01*
X267145853Y-151317646D01*
X267244456Y-151465216D01*
X267312376Y-151629188D01*
X267347000Y-151803259D01*
X267347000Y-151980741D01*
X267312376Y-152154812D01*
X267244456Y-152318784D01*
X267145853Y-152466354D01*
X267020354Y-152591853D01*
X266872784Y-152690456D01*
X266708812Y-152758376D01*
X266559512Y-152788073D01*
X266534742Y-152793000D01*
X266357258Y-152793000D01*
X266332488Y-152788073D01*
X266183188Y-152758376D01*
X266019216Y-152690456D01*
X265871646Y-152591853D01*
X265746147Y-152466354D01*
X265647544Y-152318784D01*
X265579624Y-152154812D01*
X265545000Y-151980741D01*
X265545000Y-151803259D01*
X265579624Y-151629188D01*
X265647544Y-151465216D01*
X265746147Y-151317646D01*
X265871646Y-151192147D01*
X266019216Y-151093544D01*
X266183188Y-151025624D01*
X266332488Y-150995927D01*
X266357258Y-150991000D01*
X266534742Y-150991000D01*
X266559512Y-150995927D01*
G37*
G36*
X264807000Y-152793000D02*
G01*
X263005000Y-152793000D01*
X263005000Y-150991000D01*
X264807000Y-150991000D01*
X264807000Y-152793000D01*
G37*
G36*
X271639512Y-150995927D02*
G01*
X271788812Y-151025624D01*
X271952784Y-151093544D01*
X272100354Y-151192147D01*
X272225853Y-151317646D01*
X272324456Y-151465216D01*
X272392376Y-151629188D01*
X272427000Y-151803259D01*
X272427000Y-151980741D01*
X272392376Y-152154812D01*
X272324456Y-152318784D01*
X272225853Y-152466354D01*
X272100354Y-152591853D01*
X271952784Y-152690456D01*
X271788812Y-152758376D01*
X271639512Y-152788073D01*
X271614742Y-152793000D01*
X271437258Y-152793000D01*
X271412488Y-152788073D01*
X271263188Y-152758376D01*
X271099216Y-152690456D01*
X270951646Y-152591853D01*
X270826147Y-152466354D01*
X270727544Y-152318784D01*
X270659624Y-152154812D01*
X270625000Y-151980741D01*
X270625000Y-151803259D01*
X270659624Y-151629188D01*
X270727544Y-151465216D01*
X270826147Y-151317646D01*
X270951646Y-151192147D01*
X271099216Y-151093544D01*
X271263188Y-151025624D01*
X271412488Y-150995927D01*
X271437258Y-150991000D01*
X271614742Y-150991000D01*
X271639512Y-150995927D01*
G37*
G36*
X269099512Y-150995927D02*
G01*
X269248812Y-151025624D01*
X269412784Y-151093544D01*
X269560354Y-151192147D01*
X269685853Y-151317646D01*
X269784456Y-151465216D01*
X269852376Y-151629188D01*
X269887000Y-151803259D01*
X269887000Y-151980741D01*
X269852376Y-152154812D01*
X269784456Y-152318784D01*
X269685853Y-152466354D01*
X269560354Y-152591853D01*
X269412784Y-152690456D01*
X269248812Y-152758376D01*
X269099512Y-152788073D01*
X269074742Y-152793000D01*
X268897258Y-152793000D01*
X268872488Y-152788073D01*
X268723188Y-152758376D01*
X268559216Y-152690456D01*
X268411646Y-152591853D01*
X268286147Y-152466354D01*
X268187544Y-152318784D01*
X268119624Y-152154812D01*
X268085000Y-151980741D01*
X268085000Y-151803259D01*
X268119624Y-151629188D01*
X268187544Y-151465216D01*
X268286147Y-151317646D01*
X268411646Y-151192147D01*
X268559216Y-151093544D01*
X268723188Y-151025624D01*
X268872488Y-150995927D01*
X268897258Y-150991000D01*
X269074742Y-150991000D01*
X269099512Y-150995927D01*
G37*
G36*
X264019512Y-147947927D02*
G01*
X264168812Y-147977624D01*
X264332784Y-148045544D01*
X264480354Y-148144147D01*
X264605853Y-148269646D01*
X264704456Y-148417216D01*
X264772376Y-148581188D01*
X264807000Y-148755259D01*
X264807000Y-148932741D01*
X264772376Y-149106812D01*
X264704456Y-149270784D01*
X264605853Y-149418354D01*
X264480354Y-149543853D01*
X264332784Y-149642456D01*
X264168812Y-149710376D01*
X264019512Y-149740073D01*
X263994742Y-149745000D01*
X263817258Y-149745000D01*
X263792488Y-149740073D01*
X263643188Y-149710376D01*
X263479216Y-149642456D01*
X263331646Y-149543853D01*
X263206147Y-149418354D01*
X263107544Y-149270784D01*
X263039624Y-149106812D01*
X263005000Y-148932741D01*
X263005000Y-148755259D01*
X263039624Y-148581188D01*
X263107544Y-148417216D01*
X263206147Y-148269646D01*
X263331646Y-148144147D01*
X263479216Y-148045544D01*
X263643188Y-147977624D01*
X263792488Y-147947927D01*
X263817258Y-147943000D01*
X263994742Y-147943000D01*
X264019512Y-147947927D01*
G37*
G36*
X269099512Y-147947927D02*
G01*
X269248812Y-147977624D01*
X269412784Y-148045544D01*
X269560354Y-148144147D01*
X269685853Y-148269646D01*
X269784456Y-148417216D01*
X269852376Y-148581188D01*
X269887000Y-148755259D01*
X269887000Y-148932741D01*
X269852376Y-149106812D01*
X269784456Y-149270784D01*
X269685853Y-149418354D01*
X269560354Y-149543853D01*
X269412784Y-149642456D01*
X269248812Y-149710376D01*
X269099512Y-149740073D01*
X269074742Y-149745000D01*
X268897258Y-149745000D01*
X268872488Y-149740073D01*
X268723188Y-149710376D01*
X268559216Y-149642456D01*
X268411646Y-149543853D01*
X268286147Y-149418354D01*
X268187544Y-149270784D01*
X268119624Y-149106812D01*
X268085000Y-148932741D01*
X268085000Y-148755259D01*
X268119624Y-148581188D01*
X268187544Y-148417216D01*
X268286147Y-148269646D01*
X268411646Y-148144147D01*
X268559216Y-148045544D01*
X268723188Y-147977624D01*
X268872488Y-147947927D01*
X268897258Y-147943000D01*
X269074742Y-147943000D01*
X269099512Y-147947927D01*
G37*
G36*
X271639512Y-147947927D02*
G01*
X271788812Y-147977624D01*
X271952784Y-148045544D01*
X272100354Y-148144147D01*
X272225853Y-148269646D01*
X272324456Y-148417216D01*
X272392376Y-148581188D01*
X272427000Y-148755259D01*
X272427000Y-148932741D01*
X272392376Y-149106812D01*
X272324456Y-149270784D01*
X272225853Y-149418354D01*
X272100354Y-149543853D01*
X271952784Y-149642456D01*
X271788812Y-149710376D01*
X271639512Y-149740073D01*
X271614742Y-149745000D01*
X271437258Y-149745000D01*
X271412488Y-149740073D01*
X271263188Y-149710376D01*
X271099216Y-149642456D01*
X270951646Y-149543853D01*
X270826147Y-149418354D01*
X270727544Y-149270784D01*
X270659624Y-149106812D01*
X270625000Y-148932741D01*
X270625000Y-148755259D01*
X270659624Y-148581188D01*
X270727544Y-148417216D01*
X270826147Y-148269646D01*
X270951646Y-148144147D01*
X271099216Y-148045544D01*
X271263188Y-147977624D01*
X271412488Y-147947927D01*
X271437258Y-147943000D01*
X271614742Y-147943000D01*
X271639512Y-147947927D01*
G37*
G36*
X274967000Y-149745000D02*
G01*
X273165000Y-149745000D01*
X273165000Y-147943000D01*
X274967000Y-147943000D01*
X274967000Y-149745000D01*
G37*
G36*
X266559512Y-147947927D02*
G01*
X266708812Y-147977624D01*
X266872784Y-148045544D01*
X267020354Y-148144147D01*
X267145853Y-148269646D01*
X267244456Y-148417216D01*
X267312376Y-148581188D01*
X267347000Y-148755259D01*
X267347000Y-148932741D01*
X267312376Y-149106812D01*
X267244456Y-149270784D01*
X267145853Y-149418354D01*
X267020354Y-149543853D01*
X266872784Y-149642456D01*
X266708812Y-149710376D01*
X266559512Y-149740073D01*
X266534742Y-149745000D01*
X266357258Y-149745000D01*
X266332488Y-149740073D01*
X266183188Y-149710376D01*
X266019216Y-149642456D01*
X265871646Y-149543853D01*
X265746147Y-149418354D01*
X265647544Y-149270784D01*
X265579624Y-149106812D01*
X265545000Y-148932741D01*
X265545000Y-148755259D01*
X265579624Y-148581188D01*
X265647544Y-148417216D01*
X265746147Y-148269646D01*
X265871646Y-148144147D01*
X266019216Y-148045544D01*
X266183188Y-147977624D01*
X266332488Y-147947927D01*
X266357258Y-147943000D01*
X266534742Y-147943000D01*
X266559512Y-147947927D01*
G37*
G36*
X288149512Y-145407927D02*
G01*
X288298812Y-145437624D01*
X288462784Y-145505544D01*
X288610354Y-145604147D01*
X288735853Y-145729646D01*
X288834456Y-145877216D01*
X288902376Y-146041188D01*
X288937000Y-146215259D01*
X288937000Y-146392741D01*
X288902376Y-146566812D01*
X288834456Y-146730784D01*
X288735853Y-146878354D01*
X288610354Y-147003853D01*
X288462784Y-147102456D01*
X288298812Y-147170376D01*
X288149512Y-147200073D01*
X288124742Y-147205000D01*
X287947258Y-147205000D01*
X287922488Y-147200073D01*
X287773188Y-147170376D01*
X287609216Y-147102456D01*
X287461646Y-147003853D01*
X287336147Y-146878354D01*
X287237544Y-146730784D01*
X287169624Y-146566812D01*
X287135000Y-146392741D01*
X287135000Y-146215259D01*
X287169624Y-146041188D01*
X287237544Y-145877216D01*
X287336147Y-145729646D01*
X287461646Y-145604147D01*
X287609216Y-145505544D01*
X287773188Y-145437624D01*
X287922488Y-145407927D01*
X287947258Y-145403000D01*
X288124742Y-145403000D01*
X288149512Y-145407927D01*
G37*
G36*
X280529512Y-145407927D02*
G01*
X280678812Y-145437624D01*
X280842784Y-145505544D01*
X280990354Y-145604147D01*
X281115853Y-145729646D01*
X281214456Y-145877216D01*
X281282376Y-146041188D01*
X281317000Y-146215259D01*
X281317000Y-146392741D01*
X281282376Y-146566812D01*
X281214456Y-146730784D01*
X281115853Y-146878354D01*
X280990354Y-147003853D01*
X280842784Y-147102456D01*
X280678812Y-147170376D01*
X280529512Y-147200073D01*
X280504742Y-147205000D01*
X280327258Y-147205000D01*
X280302488Y-147200073D01*
X280153188Y-147170376D01*
X279989216Y-147102456D01*
X279841646Y-147003853D01*
X279716147Y-146878354D01*
X279617544Y-146730784D01*
X279549624Y-146566812D01*
X279515000Y-146392741D01*
X279515000Y-146215259D01*
X279549624Y-146041188D01*
X279617544Y-145877216D01*
X279716147Y-145729646D01*
X279841646Y-145604147D01*
X279989216Y-145505544D01*
X280153188Y-145437624D01*
X280302488Y-145407927D01*
X280327258Y-145403000D01*
X280504742Y-145403000D01*
X280529512Y-145407927D01*
G37*
G36*
X278777000Y-147205000D02*
G01*
X276975000Y-147205000D01*
X276975000Y-145403000D01*
X278777000Y-145403000D01*
X278777000Y-147205000D01*
G37*
G36*
X285609512Y-145407927D02*
G01*
X285758812Y-145437624D01*
X285922784Y-145505544D01*
X286070354Y-145604147D01*
X286195853Y-145729646D01*
X286294456Y-145877216D01*
X286362376Y-146041188D01*
X286397000Y-146215259D01*
X286397000Y-146392741D01*
X286362376Y-146566812D01*
X286294456Y-146730784D01*
X286195853Y-146878354D01*
X286070354Y-147003853D01*
X285922784Y-147102456D01*
X285758812Y-147170376D01*
X285609512Y-147200073D01*
X285584742Y-147205000D01*
X285407258Y-147205000D01*
X285382488Y-147200073D01*
X285233188Y-147170376D01*
X285069216Y-147102456D01*
X284921646Y-147003853D01*
X284796147Y-146878354D01*
X284697544Y-146730784D01*
X284629624Y-146566812D01*
X284595000Y-146392741D01*
X284595000Y-146215259D01*
X284629624Y-146041188D01*
X284697544Y-145877216D01*
X284796147Y-145729646D01*
X284921646Y-145604147D01*
X285069216Y-145505544D01*
X285233188Y-145437624D01*
X285382488Y-145407927D01*
X285407258Y-145403000D01*
X285584742Y-145403000D01*
X285609512Y-145407927D01*
G37*
G36*
X283069512Y-145407927D02*
G01*
X283218812Y-145437624D01*
X283382784Y-145505544D01*
X283530354Y-145604147D01*
X283655853Y-145729646D01*
X283754456Y-145877216D01*
X283822376Y-146041188D01*
X283857000Y-146215259D01*
X283857000Y-146392741D01*
X283822376Y-146566812D01*
X283754456Y-146730784D01*
X283655853Y-146878354D01*
X283530354Y-147003853D01*
X283382784Y-147102456D01*
X283218812Y-147170376D01*
X283069512Y-147200073D01*
X283044742Y-147205000D01*
X282867258Y-147205000D01*
X282842488Y-147200073D01*
X282693188Y-147170376D01*
X282529216Y-147102456D01*
X282381646Y-147003853D01*
X282256147Y-146878354D01*
X282157544Y-146730784D01*
X282089624Y-146566812D01*
X282055000Y-146392741D01*
X282055000Y-146215259D01*
X282089624Y-146041188D01*
X282157544Y-145877216D01*
X282256147Y-145729646D01*
X282381646Y-145604147D01*
X282529216Y-145505544D01*
X282693188Y-145437624D01*
X282842488Y-145407927D01*
X282867258Y-145403000D01*
X283044742Y-145403000D01*
X283069512Y-145407927D01*
G37*
G36*
X271639512Y-145407927D02*
G01*
X271788812Y-145437624D01*
X271952784Y-145505544D01*
X272100354Y-145604147D01*
X272225853Y-145729646D01*
X272324456Y-145877216D01*
X272392376Y-146041188D01*
X272427000Y-146215259D01*
X272427000Y-146392741D01*
X272392376Y-146566812D01*
X272324456Y-146730784D01*
X272225853Y-146878354D01*
X272100354Y-147003853D01*
X271952784Y-147102456D01*
X271788812Y-147170376D01*
X271639512Y-147200073D01*
X271614742Y-147205000D01*
X271437258Y-147205000D01*
X271412488Y-147200073D01*
X271263188Y-147170376D01*
X271099216Y-147102456D01*
X270951646Y-147003853D01*
X270826147Y-146878354D01*
X270727544Y-146730784D01*
X270659624Y-146566812D01*
X270625000Y-146392741D01*
X270625000Y-146215259D01*
X270659624Y-146041188D01*
X270727544Y-145877216D01*
X270826147Y-145729646D01*
X270951646Y-145604147D01*
X271099216Y-145505544D01*
X271263188Y-145437624D01*
X271412488Y-145407927D01*
X271437258Y-145403000D01*
X271614742Y-145403000D01*
X271639512Y-145407927D01*
G37*
G36*
X269099512Y-145407927D02*
G01*
X269248812Y-145437624D01*
X269412784Y-145505544D01*
X269560354Y-145604147D01*
X269685853Y-145729646D01*
X269784456Y-145877216D01*
X269852376Y-146041188D01*
X269887000Y-146215259D01*
X269887000Y-146392741D01*
X269852376Y-146566812D01*
X269784456Y-146730784D01*
X269685853Y-146878354D01*
X269560354Y-147003853D01*
X269412784Y-147102456D01*
X269248812Y-147170376D01*
X269099512Y-147200073D01*
X269074742Y-147205000D01*
X268897258Y-147205000D01*
X268872488Y-147200073D01*
X268723188Y-147170376D01*
X268559216Y-147102456D01*
X268411646Y-147003853D01*
X268286147Y-146878354D01*
X268187544Y-146730784D01*
X268119624Y-146566812D01*
X268085000Y-146392741D01*
X268085000Y-146215259D01*
X268119624Y-146041188D01*
X268187544Y-145877216D01*
X268286147Y-145729646D01*
X268411646Y-145604147D01*
X268559216Y-145505544D01*
X268723188Y-145437624D01*
X268872488Y-145407927D01*
X268897258Y-145403000D01*
X269074742Y-145403000D01*
X269099512Y-145407927D01*
G37*
G36*
X266559512Y-145407927D02*
G01*
X266708812Y-145437624D01*
X266872784Y-145505544D01*
X267020354Y-145604147D01*
X267145853Y-145729646D01*
X267244456Y-145877216D01*
X267312376Y-146041188D01*
X267347000Y-146215259D01*
X267347000Y-146392741D01*
X267312376Y-146566812D01*
X267244456Y-146730784D01*
X267145853Y-146878354D01*
X267020354Y-147003853D01*
X266872784Y-147102456D01*
X266708812Y-147170376D01*
X266559512Y-147200073D01*
X266534742Y-147205000D01*
X266357258Y-147205000D01*
X266332488Y-147200073D01*
X266183188Y-147170376D01*
X266019216Y-147102456D01*
X265871646Y-147003853D01*
X265746147Y-146878354D01*
X265647544Y-146730784D01*
X265579624Y-146566812D01*
X265545000Y-146392741D01*
X265545000Y-146215259D01*
X265579624Y-146041188D01*
X265647544Y-145877216D01*
X265746147Y-145729646D01*
X265871646Y-145604147D01*
X266019216Y-145505544D01*
X266183188Y-145437624D01*
X266332488Y-145407927D01*
X266357258Y-145403000D01*
X266534742Y-145403000D01*
X266559512Y-145407927D01*
G37*
G36*
X264019512Y-145407927D02*
G01*
X264168812Y-145437624D01*
X264332784Y-145505544D01*
X264480354Y-145604147D01*
X264605853Y-145729646D01*
X264704456Y-145877216D01*
X264772376Y-146041188D01*
X264807000Y-146215259D01*
X264807000Y-146392741D01*
X264772376Y-146566812D01*
X264704456Y-146730784D01*
X264605853Y-146878354D01*
X264480354Y-147003853D01*
X264332784Y-147102456D01*
X264168812Y-147170376D01*
X264019512Y-147200073D01*
X263994742Y-147205000D01*
X263817258Y-147205000D01*
X263792488Y-147200073D01*
X263643188Y-147170376D01*
X263479216Y-147102456D01*
X263331646Y-147003853D01*
X263206147Y-146878354D01*
X263107544Y-146730784D01*
X263039624Y-146566812D01*
X263005000Y-146392741D01*
X263005000Y-146215259D01*
X263039624Y-146041188D01*
X263107544Y-145877216D01*
X263206147Y-145729646D01*
X263331646Y-145604147D01*
X263479216Y-145505544D01*
X263643188Y-145437624D01*
X263792488Y-145407927D01*
X263817258Y-145403000D01*
X263994742Y-145403000D01*
X264019512Y-145407927D01*
G37*
G36*
X274179512Y-145407927D02*
G01*
X274328812Y-145437624D01*
X274492784Y-145505544D01*
X274640354Y-145604147D01*
X274765853Y-145729646D01*
X274864456Y-145877216D01*
X274932376Y-146041188D01*
X274967000Y-146215259D01*
X274967000Y-146392741D01*
X274932376Y-146566812D01*
X274864456Y-146730784D01*
X274765853Y-146878354D01*
X274640354Y-147003853D01*
X274492784Y-147102456D01*
X274328812Y-147170376D01*
X274179512Y-147200073D01*
X274154742Y-147205000D01*
X273977258Y-147205000D01*
X273952488Y-147200073D01*
X273803188Y-147170376D01*
X273639216Y-147102456D01*
X273491646Y-147003853D01*
X273366147Y-146878354D01*
X273267544Y-146730784D01*
X273199624Y-146566812D01*
X273165000Y-146392741D01*
X273165000Y-146215259D01*
X273199624Y-146041188D01*
X273267544Y-145877216D01*
X273366147Y-145729646D01*
X273491646Y-145604147D01*
X273639216Y-145505544D01*
X273803188Y-145437624D01*
X273952488Y-145407927D01*
X273977258Y-145403000D01*
X274154742Y-145403000D01*
X274179512Y-145407927D01*
G37*
G36*
X283712228Y-142183703D02*
G01*
X283867100Y-142247853D01*
X284006481Y-142340985D01*
X284125015Y-142459519D01*
X284218147Y-142598900D01*
X284282297Y-142753772D01*
X284315000Y-142918184D01*
X284315000Y-143085816D01*
X284282297Y-143250228D01*
X284218147Y-143405100D01*
X284125015Y-143544481D01*
X284006481Y-143663015D01*
X283867100Y-143756147D01*
X283712228Y-143820297D01*
X283547816Y-143853000D01*
X283380184Y-143853000D01*
X283215772Y-143820297D01*
X283060900Y-143756147D01*
X282921519Y-143663015D01*
X282802985Y-143544481D01*
X282709853Y-143405100D01*
X282645703Y-143250228D01*
X282613000Y-143085816D01*
X282613000Y-142918184D01*
X282645703Y-142753772D01*
X282709853Y-142598900D01*
X282802985Y-142459519D01*
X282921519Y-142340985D01*
X283060900Y-142247853D01*
X283215772Y-142183703D01*
X283380184Y-142151000D01*
X283547816Y-142151000D01*
X283712228Y-142183703D01*
G37*
G36*
X288792228Y-142183703D02*
G01*
X288947100Y-142247853D01*
X289086481Y-142340985D01*
X289205015Y-142459519D01*
X289298147Y-142598900D01*
X289362297Y-142753772D01*
X289395000Y-142918184D01*
X289395000Y-143085816D01*
X289362297Y-143250228D01*
X289298147Y-143405100D01*
X289205015Y-143544481D01*
X289086481Y-143663015D01*
X288947100Y-143756147D01*
X288792228Y-143820297D01*
X288627816Y-143853000D01*
X288460184Y-143853000D01*
X288295772Y-143820297D01*
X288140900Y-143756147D01*
X288001519Y-143663015D01*
X287882985Y-143544481D01*
X287789853Y-143405100D01*
X287725703Y-143250228D01*
X287693000Y-143085816D01*
X287693000Y-142918184D01*
X287725703Y-142753772D01*
X287789853Y-142598900D01*
X287882985Y-142459519D01*
X288001519Y-142340985D01*
X288140900Y-142247853D01*
X288295772Y-142183703D01*
X288460184Y-142151000D01*
X288627816Y-142151000D01*
X288792228Y-142183703D01*
G37*
G36*
X276092228Y-142183703D02*
G01*
X276247100Y-142247853D01*
X276386481Y-142340985D01*
X276505015Y-142459519D01*
X276598147Y-142598900D01*
X276662297Y-142753772D01*
X276695000Y-142918184D01*
X276695000Y-143085816D01*
X276662297Y-143250228D01*
X276598147Y-143405100D01*
X276505015Y-143544481D01*
X276386481Y-143663015D01*
X276247100Y-143756147D01*
X276092228Y-143820297D01*
X275927816Y-143853000D01*
X275760184Y-143853000D01*
X275595772Y-143820297D01*
X275440900Y-143756147D01*
X275301519Y-143663015D01*
X275182985Y-143544481D01*
X275089853Y-143405100D01*
X275025703Y-143250228D01*
X274993000Y-143085816D01*
X274993000Y-142918184D01*
X275025703Y-142753772D01*
X275089853Y-142598900D01*
X275182985Y-142459519D01*
X275301519Y-142340985D01*
X275440900Y-142247853D01*
X275595772Y-142183703D01*
X275760184Y-142151000D01*
X275927816Y-142151000D01*
X276092228Y-142183703D01*
G37*
G36*
X278632228Y-142183703D02*
G01*
X278787100Y-142247853D01*
X278926481Y-142340985D01*
X279045015Y-142459519D01*
X279138147Y-142598900D01*
X279202297Y-142753772D01*
X279235000Y-142918184D01*
X279235000Y-143085816D01*
X279202297Y-143250228D01*
X279138147Y-143405100D01*
X279045015Y-143544481D01*
X278926481Y-143663015D01*
X278787100Y-143756147D01*
X278632228Y-143820297D01*
X278467816Y-143853000D01*
X278300184Y-143853000D01*
X278135772Y-143820297D01*
X277980900Y-143756147D01*
X277841519Y-143663015D01*
X277722985Y-143544481D01*
X277629853Y-143405100D01*
X277565703Y-143250228D01*
X277533000Y-143085816D01*
X277533000Y-142918184D01*
X277565703Y-142753772D01*
X277629853Y-142598900D01*
X277722985Y-142459519D01*
X277841519Y-142340985D01*
X277980900Y-142247853D01*
X278135772Y-142183703D01*
X278300184Y-142151000D01*
X278467816Y-142151000D01*
X278632228Y-142183703D01*
G37*
G36*
X286252228Y-142183703D02*
G01*
X286407100Y-142247853D01*
X286546481Y-142340985D01*
X286665015Y-142459519D01*
X286758147Y-142598900D01*
X286822297Y-142753772D01*
X286855000Y-142918184D01*
X286855000Y-143085816D01*
X286822297Y-143250228D01*
X286758147Y-143405100D01*
X286665015Y-143544481D01*
X286546481Y-143663015D01*
X286407100Y-143756147D01*
X286252228Y-143820297D01*
X286087816Y-143853000D01*
X285920184Y-143853000D01*
X285755772Y-143820297D01*
X285600900Y-143756147D01*
X285461519Y-143663015D01*
X285342985Y-143544481D01*
X285249853Y-143405100D01*
X285185703Y-143250228D01*
X285153000Y-143085816D01*
X285153000Y-142918184D01*
X285185703Y-142753772D01*
X285249853Y-142598900D01*
X285342985Y-142459519D01*
X285461519Y-142340985D01*
X285600900Y-142247853D01*
X285755772Y-142183703D01*
X285920184Y-142151000D01*
X286087816Y-142151000D01*
X286252228Y-142183703D01*
G37*
G36*
X255772228Y-142183703D02*
G01*
X255927100Y-142247853D01*
X256066481Y-142340985D01*
X256185015Y-142459519D01*
X256278147Y-142598900D01*
X256342297Y-142753772D01*
X256375000Y-142918184D01*
X256375000Y-143085816D01*
X256342297Y-143250228D01*
X256278147Y-143405100D01*
X256185015Y-143544481D01*
X256066481Y-143663015D01*
X255927100Y-143756147D01*
X255772228Y-143820297D01*
X255607816Y-143853000D01*
X255440184Y-143853000D01*
X255275772Y-143820297D01*
X255120900Y-143756147D01*
X254981519Y-143663015D01*
X254862985Y-143544481D01*
X254769853Y-143405100D01*
X254705703Y-143250228D01*
X254673000Y-143085816D01*
X254673000Y-142918184D01*
X254705703Y-142753772D01*
X254769853Y-142598900D01*
X254862985Y-142459519D01*
X254981519Y-142340985D01*
X255120900Y-142247853D01*
X255275772Y-142183703D01*
X255440184Y-142151000D01*
X255607816Y-142151000D01*
X255772228Y-142183703D01*
G37*
G36*
X271012228Y-142183703D02*
G01*
X271167100Y-142247853D01*
X271306481Y-142340985D01*
X271425015Y-142459519D01*
X271518147Y-142598900D01*
X271582297Y-142753772D01*
X271615000Y-142918184D01*
X271615000Y-143085816D01*
X271582297Y-143250228D01*
X271518147Y-143405100D01*
X271425015Y-143544481D01*
X271306481Y-143663015D01*
X271167100Y-143756147D01*
X271012228Y-143820297D01*
X270847816Y-143853000D01*
X270680184Y-143853000D01*
X270515772Y-143820297D01*
X270360900Y-143756147D01*
X270221519Y-143663015D01*
X270102985Y-143544481D01*
X270009853Y-143405100D01*
X269945703Y-143250228D01*
X269913000Y-143085816D01*
X269913000Y-142918184D01*
X269945703Y-142753772D01*
X270009853Y-142598900D01*
X270102985Y-142459519D01*
X270221519Y-142340985D01*
X270360900Y-142247853D01*
X270515772Y-142183703D01*
X270680184Y-142151000D01*
X270847816Y-142151000D01*
X271012228Y-142183703D01*
G37*
G36*
X268472228Y-142183703D02*
G01*
X268627100Y-142247853D01*
X268766481Y-142340985D01*
X268885015Y-142459519D01*
X268978147Y-142598900D01*
X269042297Y-142753772D01*
X269075000Y-142918184D01*
X269075000Y-143085816D01*
X269042297Y-143250228D01*
X268978147Y-143405100D01*
X268885015Y-143544481D01*
X268766481Y-143663015D01*
X268627100Y-143756147D01*
X268472228Y-143820297D01*
X268307816Y-143853000D01*
X268140184Y-143853000D01*
X267975772Y-143820297D01*
X267820900Y-143756147D01*
X267681519Y-143663015D01*
X267562985Y-143544481D01*
X267469853Y-143405100D01*
X267405703Y-143250228D01*
X267373000Y-143085816D01*
X267373000Y-142918184D01*
X267405703Y-142753772D01*
X267469853Y-142598900D01*
X267562985Y-142459519D01*
X267681519Y-142340985D01*
X267820900Y-142247853D01*
X267975772Y-142183703D01*
X268140184Y-142151000D01*
X268307816Y-142151000D01*
X268472228Y-142183703D01*
G37*
G36*
X263392228Y-142183703D02*
G01*
X263547100Y-142247853D01*
X263686481Y-142340985D01*
X263805015Y-142459519D01*
X263898147Y-142598900D01*
X263962297Y-142753772D01*
X263995000Y-142918184D01*
X263995000Y-143085816D01*
X263962297Y-143250228D01*
X263898147Y-143405100D01*
X263805015Y-143544481D01*
X263686481Y-143663015D01*
X263547100Y-143756147D01*
X263392228Y-143820297D01*
X263227816Y-143853000D01*
X263060184Y-143853000D01*
X262895772Y-143820297D01*
X262740900Y-143756147D01*
X262601519Y-143663015D01*
X262482985Y-143544481D01*
X262389853Y-143405100D01*
X262325703Y-143250228D01*
X262293000Y-143085816D01*
X262293000Y-142918184D01*
X262325703Y-142753772D01*
X262389853Y-142598900D01*
X262482985Y-142459519D01*
X262601519Y-142340985D01*
X262740900Y-142247853D01*
X262895772Y-142183703D01*
X263060184Y-142151000D01*
X263227816Y-142151000D01*
X263392228Y-142183703D01*
G37*
G36*
X260852228Y-142183703D02*
G01*
X261007100Y-142247853D01*
X261146481Y-142340985D01*
X261265015Y-142459519D01*
X261358147Y-142598900D01*
X261422297Y-142753772D01*
X261455000Y-142918184D01*
X261455000Y-143085816D01*
X261422297Y-143250228D01*
X261358147Y-143405100D01*
X261265015Y-143544481D01*
X261146481Y-143663015D01*
X261007100Y-143756147D01*
X260852228Y-143820297D01*
X260687816Y-143853000D01*
X260520184Y-143853000D01*
X260355772Y-143820297D01*
X260200900Y-143756147D01*
X260061519Y-143663015D01*
X259942985Y-143544481D01*
X259849853Y-143405100D01*
X259785703Y-143250228D01*
X259753000Y-143085816D01*
X259753000Y-142918184D01*
X259785703Y-142753772D01*
X259849853Y-142598900D01*
X259942985Y-142459519D01*
X260061519Y-142340985D01*
X260200900Y-142247853D01*
X260355772Y-142183703D01*
X260520184Y-142151000D01*
X260687816Y-142151000D01*
X260852228Y-142183703D01*
G37*
G36*
X258312228Y-142183703D02*
G01*
X258467100Y-142247853D01*
X258606481Y-142340985D01*
X258725015Y-142459519D01*
X258818147Y-142598900D01*
X258882297Y-142753772D01*
X258915000Y-142918184D01*
X258915000Y-143085816D01*
X258882297Y-143250228D01*
X258818147Y-143405100D01*
X258725015Y-143544481D01*
X258606481Y-143663015D01*
X258467100Y-143756147D01*
X258312228Y-143820297D01*
X258147816Y-143853000D01*
X257980184Y-143853000D01*
X257815772Y-143820297D01*
X257660900Y-143756147D01*
X257521519Y-143663015D01*
X257402985Y-143544481D01*
X257309853Y-143405100D01*
X257245703Y-143250228D01*
X257213000Y-143085816D01*
X257213000Y-142918184D01*
X257245703Y-142753772D01*
X257309853Y-142598900D01*
X257402985Y-142459519D01*
X257521519Y-142340985D01*
X257660900Y-142247853D01*
X257815772Y-142183703D01*
X257980184Y-142151000D01*
X258147816Y-142151000D01*
X258312228Y-142183703D01*
G37*
G36*
X281172228Y-142183703D02*
G01*
X281327100Y-142247853D01*
X281466481Y-142340985D01*
X281585015Y-142459519D01*
X281678147Y-142598900D01*
X281742297Y-142753772D01*
X281775000Y-142918184D01*
X281775000Y-143085816D01*
X281742297Y-143250228D01*
X281678147Y-143405100D01*
X281585015Y-143544481D01*
X281466481Y-143663015D01*
X281327100Y-143756147D01*
X281172228Y-143820297D01*
X281007816Y-143853000D01*
X280840184Y-143853000D01*
X280675772Y-143820297D01*
X280520900Y-143756147D01*
X280381519Y-143663015D01*
X280262985Y-143544481D01*
X280169853Y-143405100D01*
X280105703Y-143250228D01*
X280073000Y-143085816D01*
X280073000Y-142918184D01*
X280105703Y-142753772D01*
X280169853Y-142598900D01*
X280262985Y-142459519D01*
X280381519Y-142340985D01*
X280520900Y-142247853D01*
X280675772Y-142183703D01*
X280840184Y-142151000D01*
X281007816Y-142151000D01*
X281172228Y-142183703D01*
G37*
G36*
X265932228Y-142183703D02*
G01*
X266087100Y-142247853D01*
X266226481Y-142340985D01*
X266345015Y-142459519D01*
X266438147Y-142598900D01*
X266502297Y-142753772D01*
X266535000Y-142918184D01*
X266535000Y-143085816D01*
X266502297Y-143250228D01*
X266438147Y-143405100D01*
X266345015Y-143544481D01*
X266226481Y-143663015D01*
X266087100Y-143756147D01*
X265932228Y-143820297D01*
X265767816Y-143853000D01*
X265600184Y-143853000D01*
X265435772Y-143820297D01*
X265280900Y-143756147D01*
X265141519Y-143663015D01*
X265022985Y-143544481D01*
X264929853Y-143405100D01*
X264865703Y-143250228D01*
X264833000Y-143085816D01*
X264833000Y-142918184D01*
X264865703Y-142753772D01*
X264929853Y-142598900D01*
X265022985Y-142459519D01*
X265141519Y-142340985D01*
X265280900Y-142247853D01*
X265435772Y-142183703D01*
X265600184Y-142151000D01*
X265767816Y-142151000D01*
X265932228Y-142183703D01*
G37*
G36*
X273552228Y-142183703D02*
G01*
X273707100Y-142247853D01*
X273846481Y-142340985D01*
X273965015Y-142459519D01*
X274058147Y-142598900D01*
X274122297Y-142753772D01*
X274155000Y-142918184D01*
X274155000Y-143085816D01*
X274122297Y-143250228D01*
X274058147Y-143405100D01*
X273965015Y-143544481D01*
X273846481Y-143663015D01*
X273707100Y-143756147D01*
X273552228Y-143820297D01*
X273387816Y-143853000D01*
X273220184Y-143853000D01*
X273055772Y-143820297D01*
X272900900Y-143756147D01*
X272761519Y-143663015D01*
X272642985Y-143544481D01*
X272549853Y-143405100D01*
X272485703Y-143250228D01*
X272453000Y-143085816D01*
X272453000Y-142918184D01*
X272485703Y-142753772D01*
X272549853Y-142598900D01*
X272642985Y-142459519D01*
X272761519Y-142340985D01*
X272900900Y-142247853D01*
X273055772Y-142183703D01*
X273220184Y-142151000D01*
X273387816Y-142151000D01*
X273552228Y-142183703D01*
G37*
G36*
X119939616Y-139203977D02*
G01*
X120177711Y-139302599D01*
X120391992Y-139445777D01*
X120574223Y-139628008D01*
X120717401Y-139842289D01*
X120816023Y-140080384D01*
X120866300Y-140333142D01*
X120866300Y-140590858D01*
X120816023Y-140843616D01*
X120717401Y-141081711D01*
X120574223Y-141295992D01*
X120391992Y-141478223D01*
X120177711Y-141621401D01*
X119939616Y-141720023D01*
X119686858Y-141770300D01*
X119429142Y-141770300D01*
X119176384Y-141720023D01*
X118938289Y-141621401D01*
X118724008Y-141478223D01*
X118541777Y-141295992D01*
X118398599Y-141081711D01*
X118299977Y-140843616D01*
X118249700Y-140590858D01*
X118249700Y-140333142D01*
X118299977Y-140080384D01*
X118398599Y-139842289D01*
X118541777Y-139628008D01*
X118724008Y-139445777D01*
X118938289Y-139302599D01*
X119176384Y-139203977D01*
X119429142Y-139153700D01*
X119686858Y-139153700D01*
X119939616Y-139203977D01*
G37*
G36*
X19939616Y-139203977D02*
G01*
X20177711Y-139302599D01*
X20391992Y-139445777D01*
X20574223Y-139628008D01*
X20717401Y-139842289D01*
X20816023Y-140080384D01*
X20866300Y-140333142D01*
X20866300Y-140590858D01*
X20816023Y-140843616D01*
X20717401Y-141081711D01*
X20574223Y-141295992D01*
X20391992Y-141478223D01*
X20177711Y-141621401D01*
X19939616Y-141720023D01*
X19686858Y-141770300D01*
X19429142Y-141770300D01*
X19176384Y-141720023D01*
X18938289Y-141621401D01*
X18724008Y-141478223D01*
X18541777Y-141295992D01*
X18398599Y-141081711D01*
X18299977Y-140843616D01*
X18249700Y-140590858D01*
X18249700Y-140333142D01*
X18299977Y-140080384D01*
X18398599Y-139842289D01*
X18541777Y-139628008D01*
X18724008Y-139445777D01*
X18938289Y-139302599D01*
X19176384Y-139203977D01*
X19429142Y-139153700D01*
X19686858Y-139153700D01*
X19939616Y-139203977D01*
G37*
G36*
X39939616Y-139203977D02*
G01*
X40177711Y-139302599D01*
X40391992Y-139445777D01*
X40574223Y-139628008D01*
X40717401Y-139842289D01*
X40816023Y-140080384D01*
X40866300Y-140333142D01*
X40866300Y-140590858D01*
X40816023Y-140843616D01*
X40717401Y-141081711D01*
X40574223Y-141295992D01*
X40391992Y-141478223D01*
X40177711Y-141621401D01*
X39939616Y-141720023D01*
X39686858Y-141770300D01*
X39429142Y-141770300D01*
X39176384Y-141720023D01*
X38938289Y-141621401D01*
X38724008Y-141478223D01*
X38541777Y-141295992D01*
X38398599Y-141081711D01*
X38299977Y-140843616D01*
X38249700Y-140590858D01*
X38249700Y-140333142D01*
X38299977Y-140080384D01*
X38398599Y-139842289D01*
X38541777Y-139628008D01*
X38724008Y-139445777D01*
X38938289Y-139302599D01*
X39176384Y-139203977D01*
X39429142Y-139153700D01*
X39686858Y-139153700D01*
X39939616Y-139203977D01*
G37*
G36*
X59939616Y-139203977D02*
G01*
X60177711Y-139302599D01*
X60391992Y-139445777D01*
X60574223Y-139628008D01*
X60717401Y-139842289D01*
X60816023Y-140080384D01*
X60866300Y-140333142D01*
X60866300Y-140590858D01*
X60816023Y-140843616D01*
X60717401Y-141081711D01*
X60574223Y-141295992D01*
X60391992Y-141478223D01*
X60177711Y-141621401D01*
X59939616Y-141720023D01*
X59686858Y-141770300D01*
X59429142Y-141770300D01*
X59176384Y-141720023D01*
X58938289Y-141621401D01*
X58724008Y-141478223D01*
X58541777Y-141295992D01*
X58398599Y-141081711D01*
X58299977Y-140843616D01*
X58249700Y-140590858D01*
X58249700Y-140333142D01*
X58299977Y-140080384D01*
X58398599Y-139842289D01*
X58541777Y-139628008D01*
X58724008Y-139445777D01*
X58938289Y-139302599D01*
X59176384Y-139203977D01*
X59429142Y-139153700D01*
X59686858Y-139153700D01*
X59939616Y-139203977D01*
G37*
G36*
X159939616Y-139203977D02*
G01*
X160177711Y-139302599D01*
X160391992Y-139445777D01*
X160574223Y-139628008D01*
X160717401Y-139842289D01*
X160816023Y-140080384D01*
X160866300Y-140333142D01*
X160866300Y-140590858D01*
X160816023Y-140843616D01*
X160717401Y-141081711D01*
X160574223Y-141295992D01*
X160391992Y-141478223D01*
X160177711Y-141621401D01*
X159939616Y-141720023D01*
X159686858Y-141770300D01*
X159429142Y-141770300D01*
X159176384Y-141720023D01*
X158938289Y-141621401D01*
X158724008Y-141478223D01*
X158541777Y-141295992D01*
X158398599Y-141081711D01*
X158299977Y-140843616D01*
X158249700Y-140590858D01*
X158249700Y-140333142D01*
X158299977Y-140080384D01*
X158398599Y-139842289D01*
X158541777Y-139628008D01*
X158724008Y-139445777D01*
X158938289Y-139302599D01*
X159176384Y-139203977D01*
X159429142Y-139153700D01*
X159686858Y-139153700D01*
X159939616Y-139203977D01*
G37*
G36*
X219939616Y-139203977D02*
G01*
X220177711Y-139302599D01*
X220391992Y-139445777D01*
X220574223Y-139628008D01*
X220717401Y-139842289D01*
X220816023Y-140080384D01*
X220866300Y-140333142D01*
X220866300Y-140590858D01*
X220816023Y-140843616D01*
X220717401Y-141081711D01*
X220574223Y-141295992D01*
X220391992Y-141478223D01*
X220177711Y-141621401D01*
X219939616Y-141720023D01*
X219686858Y-141770300D01*
X219429142Y-141770300D01*
X219176384Y-141720023D01*
X218938289Y-141621401D01*
X218724008Y-141478223D01*
X218541777Y-141295992D01*
X218398599Y-141081711D01*
X218299977Y-140843616D01*
X218249700Y-140590858D01*
X218249700Y-140333142D01*
X218299977Y-140080384D01*
X218398599Y-139842289D01*
X218541777Y-139628008D01*
X218724008Y-139445777D01*
X218938289Y-139302599D01*
X219176384Y-139203977D01*
X219429142Y-139153700D01*
X219686858Y-139153700D01*
X219939616Y-139203977D01*
G37*
G36*
X99939616Y-139203977D02*
G01*
X100177711Y-139302599D01*
X100391992Y-139445777D01*
X100574223Y-139628008D01*
X100717401Y-139842289D01*
X100816023Y-140080384D01*
X100866300Y-140333142D01*
X100866300Y-140590858D01*
X100816023Y-140843616D01*
X100717401Y-141081711D01*
X100574223Y-141295992D01*
X100391992Y-141478223D01*
X100177711Y-141621401D01*
X99939616Y-141720023D01*
X99686858Y-141770300D01*
X99429142Y-141770300D01*
X99176384Y-141720023D01*
X98938289Y-141621401D01*
X98724008Y-141478223D01*
X98541777Y-141295992D01*
X98398599Y-141081711D01*
X98299977Y-140843616D01*
X98249700Y-140590858D01*
X98249700Y-140333142D01*
X98299977Y-140080384D01*
X98398599Y-139842289D01*
X98541777Y-139628008D01*
X98724008Y-139445777D01*
X98938289Y-139302599D01*
X99176384Y-139203977D01*
X99429142Y-139153700D01*
X99686858Y-139153700D01*
X99939616Y-139203977D01*
G37*
G36*
X199939616Y-139203977D02*
G01*
X200177711Y-139302599D01*
X200391992Y-139445777D01*
X200574223Y-139628008D01*
X200717401Y-139842289D01*
X200816023Y-140080384D01*
X200866300Y-140333142D01*
X200866300Y-140590858D01*
X200816023Y-140843616D01*
X200717401Y-141081711D01*
X200574223Y-141295992D01*
X200391992Y-141478223D01*
X200177711Y-141621401D01*
X199939616Y-141720023D01*
X199686858Y-141770300D01*
X199429142Y-141770300D01*
X199176384Y-141720023D01*
X198938289Y-141621401D01*
X198724008Y-141478223D01*
X198541777Y-141295992D01*
X198398599Y-141081711D01*
X198299977Y-140843616D01*
X198249700Y-140590858D01*
X198249700Y-140333142D01*
X198299977Y-140080384D01*
X198398599Y-139842289D01*
X198541777Y-139628008D01*
X198724008Y-139445777D01*
X198938289Y-139302599D01*
X199176384Y-139203977D01*
X199429142Y-139153700D01*
X199686858Y-139153700D01*
X199939616Y-139203977D01*
G37*
G36*
X179939616Y-139203977D02*
G01*
X180177711Y-139302599D01*
X180391992Y-139445777D01*
X180574223Y-139628008D01*
X180717401Y-139842289D01*
X180816023Y-140080384D01*
X180866300Y-140333142D01*
X180866300Y-140590858D01*
X180816023Y-140843616D01*
X180717401Y-141081711D01*
X180574223Y-141295992D01*
X180391992Y-141478223D01*
X180177711Y-141621401D01*
X179939616Y-141720023D01*
X179686858Y-141770300D01*
X179429142Y-141770300D01*
X179176384Y-141720023D01*
X178938289Y-141621401D01*
X178724008Y-141478223D01*
X178541777Y-141295992D01*
X178398599Y-141081711D01*
X178299977Y-140843616D01*
X178249700Y-140590858D01*
X178249700Y-140333142D01*
X178299977Y-140080384D01*
X178398599Y-139842289D01*
X178541777Y-139628008D01*
X178724008Y-139445777D01*
X178938289Y-139302599D01*
X179176384Y-139203977D01*
X179429142Y-139153700D01*
X179686858Y-139153700D01*
X179939616Y-139203977D01*
G37*
G36*
X239939616Y-139203977D02*
G01*
X240177711Y-139302599D01*
X240391992Y-139445777D01*
X240574223Y-139628008D01*
X240717401Y-139842289D01*
X240816023Y-140080384D01*
X240866300Y-140333142D01*
X240866300Y-140590858D01*
X240816023Y-140843616D01*
X240717401Y-141081711D01*
X240574223Y-141295992D01*
X240391992Y-141478223D01*
X240177711Y-141621401D01*
X239939616Y-141720023D01*
X239686858Y-141770300D01*
X239429142Y-141770300D01*
X239176384Y-141720023D01*
X238938289Y-141621401D01*
X238724008Y-141478223D01*
X238541777Y-141295992D01*
X238398599Y-141081711D01*
X238299977Y-140843616D01*
X238249700Y-140590858D01*
X238249700Y-140333142D01*
X238299977Y-140080384D01*
X238398599Y-139842289D01*
X238541777Y-139628008D01*
X238724008Y-139445777D01*
X238938289Y-139302599D01*
X239176384Y-139203977D01*
X239429142Y-139153700D01*
X239686858Y-139153700D01*
X239939616Y-139203977D01*
G37*
G36*
X79939616Y-139203977D02*
G01*
X80177711Y-139302599D01*
X80391992Y-139445777D01*
X80574223Y-139628008D01*
X80717401Y-139842289D01*
X80816023Y-140080384D01*
X80866300Y-140333142D01*
X80866300Y-140590858D01*
X80816023Y-140843616D01*
X80717401Y-141081711D01*
X80574223Y-141295992D01*
X80391992Y-141478223D01*
X80177711Y-141621401D01*
X79939616Y-141720023D01*
X79686858Y-141770300D01*
X79429142Y-141770300D01*
X79176384Y-141720023D01*
X78938289Y-141621401D01*
X78724008Y-141478223D01*
X78541777Y-141295992D01*
X78398599Y-141081711D01*
X78299977Y-140843616D01*
X78249700Y-140590858D01*
X78249700Y-140333142D01*
X78299977Y-140080384D01*
X78398599Y-139842289D01*
X78541777Y-139628008D01*
X78724008Y-139445777D01*
X78938289Y-139302599D01*
X79176384Y-139203977D01*
X79429142Y-139153700D01*
X79686858Y-139153700D01*
X79939616Y-139203977D01*
G37*
G36*
X139939616Y-139203977D02*
G01*
X140177711Y-139302599D01*
X140391992Y-139445777D01*
X140574223Y-139628008D01*
X140717401Y-139842289D01*
X140816023Y-140080384D01*
X140866300Y-140333142D01*
X140866300Y-140590858D01*
X140816023Y-140843616D01*
X140717401Y-141081711D01*
X140574223Y-141295992D01*
X140391992Y-141478223D01*
X140177711Y-141621401D01*
X139939616Y-141720023D01*
X139686858Y-141770300D01*
X139429142Y-141770300D01*
X139176384Y-141720023D01*
X138938289Y-141621401D01*
X138724008Y-141478223D01*
X138541777Y-141295992D01*
X138398599Y-141081711D01*
X138299977Y-140843616D01*
X138249700Y-140590858D01*
X138249700Y-140333142D01*
X138299977Y-140080384D01*
X138398599Y-139842289D01*
X138541777Y-139628008D01*
X138724008Y-139445777D01*
X138938289Y-139302599D01*
X139176384Y-139203977D01*
X139429142Y-139153700D01*
X139686858Y-139153700D01*
X139939616Y-139203977D01*
G37*
G36*
X268808468Y-140436065D02*
G01*
X268847138Y-140447796D01*
X268882777Y-140466846D01*
X268914017Y-140492483D01*
X268939654Y-140523723D01*
X268958704Y-140559362D01*
X268970435Y-140598032D01*
X268975000Y-140644388D01*
X268975000Y-141295612D01*
X268970435Y-141341968D01*
X268958704Y-141380638D01*
X268939654Y-141416277D01*
X268914017Y-141447517D01*
X268882777Y-141473154D01*
X268847138Y-141492204D01*
X268808468Y-141503935D01*
X268762112Y-141508500D01*
X267685888Y-141508500D01*
X267639532Y-141503935D01*
X267600862Y-141492204D01*
X267565223Y-141473154D01*
X267533983Y-141447517D01*
X267508346Y-141416277D01*
X267489296Y-141380638D01*
X267477565Y-141341968D01*
X267473000Y-141295612D01*
X267473000Y-140644388D01*
X267477565Y-140598032D01*
X267489296Y-140559362D01*
X267508346Y-140523723D01*
X267533983Y-140492483D01*
X267565223Y-140466846D01*
X267600862Y-140447796D01*
X267639532Y-140436065D01*
X267685888Y-140431500D01*
X268762112Y-140431500D01*
X268808468Y-140436065D01*
G37*
G36*
X266268468Y-140436065D02*
G01*
X266307138Y-140447796D01*
X266342777Y-140466846D01*
X266374017Y-140492483D01*
X266399654Y-140523723D01*
X266418704Y-140559362D01*
X266430435Y-140598032D01*
X266435000Y-140644388D01*
X266435000Y-141295612D01*
X266430435Y-141341968D01*
X266418704Y-141380638D01*
X266399654Y-141416277D01*
X266374017Y-141447517D01*
X266342777Y-141473154D01*
X266307138Y-141492204D01*
X266268468Y-141503935D01*
X266222112Y-141508500D01*
X265145888Y-141508500D01*
X265099532Y-141503935D01*
X265060862Y-141492204D01*
X265025223Y-141473154D01*
X264993983Y-141447517D01*
X264968346Y-141416277D01*
X264949296Y-141380638D01*
X264937565Y-141341968D01*
X264933000Y-141295612D01*
X264933000Y-140644388D01*
X264937565Y-140598032D01*
X264949296Y-140559362D01*
X264968346Y-140523723D01*
X264993983Y-140492483D01*
X265025223Y-140466846D01*
X265060862Y-140447796D01*
X265099532Y-140436065D01*
X265145888Y-140431500D01*
X266222112Y-140431500D01*
X266268468Y-140436065D01*
G37*
G36*
X276428468Y-140357565D02*
G01*
X276467138Y-140369296D01*
X276502777Y-140388346D01*
X276534017Y-140413983D01*
X276559654Y-140445223D01*
X276578704Y-140480862D01*
X276590435Y-140519532D01*
X276595000Y-140565888D01*
X276595000Y-141217112D01*
X276590435Y-141263468D01*
X276578704Y-141302138D01*
X276559654Y-141337777D01*
X276534017Y-141369017D01*
X276502777Y-141394654D01*
X276467138Y-141413704D01*
X276428468Y-141425435D01*
X276382112Y-141430000D01*
X275305888Y-141430000D01*
X275259532Y-141425435D01*
X275220862Y-141413704D01*
X275185223Y-141394654D01*
X275153983Y-141369017D01*
X275128346Y-141337777D01*
X275109296Y-141302138D01*
X275097565Y-141263468D01*
X275093000Y-141217112D01*
X275093000Y-140565888D01*
X275097565Y-140519532D01*
X275109296Y-140480862D01*
X275128346Y-140445223D01*
X275153983Y-140413983D01*
X275185223Y-140388346D01*
X275220862Y-140369296D01*
X275259532Y-140357565D01*
X275305888Y-140353000D01*
X276382112Y-140353000D01*
X276428468Y-140357565D01*
G37*
G36*
X273888468Y-140357565D02*
G01*
X273927138Y-140369296D01*
X273962777Y-140388346D01*
X273994017Y-140413983D01*
X274019654Y-140445223D01*
X274038704Y-140480862D01*
X274050435Y-140519532D01*
X274055000Y-140565888D01*
X274055000Y-141217112D01*
X274050435Y-141263468D01*
X274038704Y-141302138D01*
X274019654Y-141337777D01*
X273994017Y-141369017D01*
X273962777Y-141394654D01*
X273927138Y-141413704D01*
X273888468Y-141425435D01*
X273842112Y-141430000D01*
X272765888Y-141430000D01*
X272719532Y-141425435D01*
X272680862Y-141413704D01*
X272645223Y-141394654D01*
X272613983Y-141369017D01*
X272588346Y-141337777D01*
X272569296Y-141302138D01*
X272557565Y-141263468D01*
X272553000Y-141217112D01*
X272553000Y-140565888D01*
X272557565Y-140519532D01*
X272569296Y-140480862D01*
X272588346Y-140445223D01*
X272613983Y-140413983D01*
X272645223Y-140388346D01*
X272680862Y-140369296D01*
X272719532Y-140357565D01*
X272765888Y-140353000D01*
X273842112Y-140353000D01*
X273888468Y-140357565D01*
G37*
G36*
X271348468Y-140357565D02*
G01*
X271387138Y-140369296D01*
X271422777Y-140388346D01*
X271454017Y-140413983D01*
X271479654Y-140445223D01*
X271498704Y-140480862D01*
X271510435Y-140519532D01*
X271515000Y-140565888D01*
X271515000Y-141217112D01*
X271510435Y-141263468D01*
X271498704Y-141302138D01*
X271479654Y-141337777D01*
X271454017Y-141369017D01*
X271422777Y-141394654D01*
X271387138Y-141413704D01*
X271348468Y-141425435D01*
X271302112Y-141430000D01*
X270225888Y-141430000D01*
X270179532Y-141425435D01*
X270140862Y-141413704D01*
X270105223Y-141394654D01*
X270073983Y-141369017D01*
X270048346Y-141337777D01*
X270029296Y-141302138D01*
X270017565Y-141263468D01*
X270013000Y-141217112D01*
X270013000Y-140565888D01*
X270017565Y-140519532D01*
X270029296Y-140480862D01*
X270048346Y-140445223D01*
X270073983Y-140413983D01*
X270105223Y-140388346D01*
X270140862Y-140369296D01*
X270179532Y-140357565D01*
X270225888Y-140353000D01*
X271302112Y-140353000D01*
X271348468Y-140357565D01*
G37*
G36*
X260852228Y-139643703D02*
G01*
X261007100Y-139707853D01*
X261146481Y-139800985D01*
X261265015Y-139919519D01*
X261358147Y-140058900D01*
X261422297Y-140213772D01*
X261455000Y-140378184D01*
X261455000Y-140545816D01*
X261422297Y-140710228D01*
X261358147Y-140865100D01*
X261265015Y-141004481D01*
X261146481Y-141123015D01*
X261007100Y-141216147D01*
X260852228Y-141280297D01*
X260687816Y-141313000D01*
X260520184Y-141313000D01*
X260355772Y-141280297D01*
X260200900Y-141216147D01*
X260061519Y-141123015D01*
X259942985Y-141004481D01*
X259849853Y-140865100D01*
X259785703Y-140710228D01*
X259753000Y-140545816D01*
X259753000Y-140378184D01*
X259785703Y-140213772D01*
X259849853Y-140058900D01*
X259942985Y-139919519D01*
X260061519Y-139800985D01*
X260200900Y-139707853D01*
X260355772Y-139643703D01*
X260520184Y-139611000D01*
X260687816Y-139611000D01*
X260852228Y-139643703D01*
G37*
G36*
X255772228Y-139643703D02*
G01*
X255927100Y-139707853D01*
X256066481Y-139800985D01*
X256185015Y-139919519D01*
X256278147Y-140058900D01*
X256342297Y-140213772D01*
X256375000Y-140378184D01*
X256375000Y-140545816D01*
X256342297Y-140710228D01*
X256278147Y-140865100D01*
X256185015Y-141004481D01*
X256066481Y-141123015D01*
X255927100Y-141216147D01*
X255772228Y-141280297D01*
X255607816Y-141313000D01*
X255440184Y-141313000D01*
X255275772Y-141280297D01*
X255120900Y-141216147D01*
X254981519Y-141123015D01*
X254862985Y-141004481D01*
X254769853Y-140865100D01*
X254705703Y-140710228D01*
X254673000Y-140545816D01*
X254673000Y-140378184D01*
X254705703Y-140213772D01*
X254769853Y-140058900D01*
X254862985Y-139919519D01*
X254981519Y-139800985D01*
X255120900Y-139707853D01*
X255275772Y-139643703D01*
X255440184Y-139611000D01*
X255607816Y-139611000D01*
X255772228Y-139643703D01*
G37*
G36*
X263392228Y-139643703D02*
G01*
X263547100Y-139707853D01*
X263686481Y-139800985D01*
X263805015Y-139919519D01*
X263898147Y-140058900D01*
X263962297Y-140213772D01*
X263995000Y-140378184D01*
X263995000Y-140545816D01*
X263962297Y-140710228D01*
X263898147Y-140865100D01*
X263805015Y-141004481D01*
X263686481Y-141123015D01*
X263547100Y-141216147D01*
X263392228Y-141280297D01*
X263227816Y-141313000D01*
X263060184Y-141313000D01*
X262895772Y-141280297D01*
X262740900Y-141216147D01*
X262601519Y-141123015D01*
X262482985Y-141004481D01*
X262389853Y-140865100D01*
X262325703Y-140710228D01*
X262293000Y-140545816D01*
X262293000Y-140378184D01*
X262325703Y-140213772D01*
X262389853Y-140058900D01*
X262482985Y-139919519D01*
X262601519Y-139800985D01*
X262740900Y-139707853D01*
X262895772Y-139643703D01*
X263060184Y-139611000D01*
X263227816Y-139611000D01*
X263392228Y-139643703D01*
G37*
G36*
X266268468Y-138561065D02*
G01*
X266307138Y-138572796D01*
X266342777Y-138591846D01*
X266374017Y-138617483D01*
X266399654Y-138648723D01*
X266418704Y-138684362D01*
X266430435Y-138723032D01*
X266435000Y-138769388D01*
X266435000Y-139420612D01*
X266430435Y-139466968D01*
X266418704Y-139505638D01*
X266399654Y-139541277D01*
X266374017Y-139572517D01*
X266342777Y-139598154D01*
X266307138Y-139617204D01*
X266268468Y-139628935D01*
X266222112Y-139633500D01*
X265145888Y-139633500D01*
X265099532Y-139628935D01*
X265060862Y-139617204D01*
X265025223Y-139598154D01*
X264993983Y-139572517D01*
X264968346Y-139541277D01*
X264949296Y-139505638D01*
X264937565Y-139466968D01*
X264933000Y-139420612D01*
X264933000Y-138769388D01*
X264937565Y-138723032D01*
X264949296Y-138684362D01*
X264968346Y-138648723D01*
X264993983Y-138617483D01*
X265025223Y-138591846D01*
X265060862Y-138572796D01*
X265099532Y-138561065D01*
X265145888Y-138556500D01*
X266222112Y-138556500D01*
X266268468Y-138561065D01*
G37*
G36*
X268808468Y-138561065D02*
G01*
X268847138Y-138572796D01*
X268882777Y-138591846D01*
X268914017Y-138617483D01*
X268939654Y-138648723D01*
X268958704Y-138684362D01*
X268970435Y-138723032D01*
X268975000Y-138769388D01*
X268975000Y-139420612D01*
X268970435Y-139466968D01*
X268958704Y-139505638D01*
X268939654Y-139541277D01*
X268914017Y-139572517D01*
X268882777Y-139598154D01*
X268847138Y-139617204D01*
X268808468Y-139628935D01*
X268762112Y-139633500D01*
X267685888Y-139633500D01*
X267639532Y-139628935D01*
X267600862Y-139617204D01*
X267565223Y-139598154D01*
X267533983Y-139572517D01*
X267508346Y-139541277D01*
X267489296Y-139505638D01*
X267477565Y-139466968D01*
X267473000Y-139420612D01*
X267473000Y-138769388D01*
X267477565Y-138723032D01*
X267489296Y-138684362D01*
X267508346Y-138648723D01*
X267533983Y-138617483D01*
X267565223Y-138591846D01*
X267600862Y-138572796D01*
X267639532Y-138561065D01*
X267685888Y-138556500D01*
X268762112Y-138556500D01*
X268808468Y-138561065D01*
G37*
G36*
X271348468Y-138482565D02*
G01*
X271387138Y-138494296D01*
X271422777Y-138513346D01*
X271454017Y-138538983D01*
X271479654Y-138570223D01*
X271498704Y-138605862D01*
X271510435Y-138644532D01*
X271515000Y-138690888D01*
X271515000Y-139342112D01*
X271510435Y-139388468D01*
X271498704Y-139427138D01*
X271479654Y-139462777D01*
X271454017Y-139494017D01*
X271422777Y-139519654D01*
X271387138Y-139538704D01*
X271348468Y-139550435D01*
X271302112Y-139555000D01*
X270225888Y-139555000D01*
X270179532Y-139550435D01*
X270140862Y-139538704D01*
X270105223Y-139519654D01*
X270073983Y-139494017D01*
X270048346Y-139462777D01*
X270029296Y-139427138D01*
X270017565Y-139388468D01*
X270013000Y-139342112D01*
X270013000Y-138690888D01*
X270017565Y-138644532D01*
X270029296Y-138605862D01*
X270048346Y-138570223D01*
X270073983Y-138538983D01*
X270105223Y-138513346D01*
X270140862Y-138494296D01*
X270179532Y-138482565D01*
X270225888Y-138478000D01*
X271302112Y-138478000D01*
X271348468Y-138482565D01*
G37*
G36*
X273888468Y-138482565D02*
G01*
X273927138Y-138494296D01*
X273962777Y-138513346D01*
X273994017Y-138538983D01*
X274019654Y-138570223D01*
X274038704Y-138605862D01*
X274050435Y-138644532D01*
X274055000Y-138690888D01*
X274055000Y-139342112D01*
X274050435Y-139388468D01*
X274038704Y-139427138D01*
X274019654Y-139462777D01*
X273994017Y-139494017D01*
X273962777Y-139519654D01*
X273927138Y-139538704D01*
X273888468Y-139550435D01*
X273842112Y-139555000D01*
X272765888Y-139555000D01*
X272719532Y-139550435D01*
X272680862Y-139538704D01*
X272645223Y-139519654D01*
X272613983Y-139494017D01*
X272588346Y-139462777D01*
X272569296Y-139427138D01*
X272557565Y-139388468D01*
X272553000Y-139342112D01*
X272553000Y-138690888D01*
X272557565Y-138644532D01*
X272569296Y-138605862D01*
X272588346Y-138570223D01*
X272613983Y-138538983D01*
X272645223Y-138513346D01*
X272680862Y-138494296D01*
X272719532Y-138482565D01*
X272765888Y-138478000D01*
X273842112Y-138478000D01*
X273888468Y-138482565D01*
G37*
G36*
X276428468Y-138482565D02*
G01*
X276467138Y-138494296D01*
X276502777Y-138513346D01*
X276534017Y-138538983D01*
X276559654Y-138570223D01*
X276578704Y-138605862D01*
X276590435Y-138644532D01*
X276595000Y-138690888D01*
X276595000Y-139342112D01*
X276590435Y-139388468D01*
X276578704Y-139427138D01*
X276559654Y-139462777D01*
X276534017Y-139494017D01*
X276502777Y-139519654D01*
X276467138Y-139538704D01*
X276428468Y-139550435D01*
X276382112Y-139555000D01*
X275305888Y-139555000D01*
X275259532Y-139550435D01*
X275220862Y-139538704D01*
X275185223Y-139519654D01*
X275153983Y-139494017D01*
X275128346Y-139462777D01*
X275109296Y-139427138D01*
X275097565Y-139388468D01*
X275093000Y-139342112D01*
X275093000Y-138690888D01*
X275097565Y-138644532D01*
X275109296Y-138605862D01*
X275128346Y-138570223D01*
X275153983Y-138538983D01*
X275185223Y-138513346D01*
X275220862Y-138494296D01*
X275259532Y-138482565D01*
X275305888Y-138478000D01*
X276382112Y-138478000D01*
X276428468Y-138482565D01*
G37*
G36*
X263392228Y-137103703D02*
G01*
X263547100Y-137167853D01*
X263686481Y-137260985D01*
X263805015Y-137379519D01*
X263898147Y-137518900D01*
X263962297Y-137673772D01*
X263995000Y-137838184D01*
X263995000Y-138005816D01*
X263962297Y-138170228D01*
X263898147Y-138325100D01*
X263805015Y-138464481D01*
X263686481Y-138583015D01*
X263547100Y-138676147D01*
X263392228Y-138740297D01*
X263227816Y-138773000D01*
X263060184Y-138773000D01*
X262895772Y-138740297D01*
X262740900Y-138676147D01*
X262601519Y-138583015D01*
X262482985Y-138464481D01*
X262389853Y-138325100D01*
X262325703Y-138170228D01*
X262293000Y-138005816D01*
X262293000Y-137838184D01*
X262325703Y-137673772D01*
X262389853Y-137518900D01*
X262482985Y-137379519D01*
X262601519Y-137260985D01*
X262740900Y-137167853D01*
X262895772Y-137103703D01*
X263060184Y-137071000D01*
X263227816Y-137071000D01*
X263392228Y-137103703D01*
G37*
G36*
X255772228Y-137103703D02*
G01*
X255927100Y-137167853D01*
X256066481Y-137260985D01*
X256185015Y-137379519D01*
X256278147Y-137518900D01*
X256342297Y-137673772D01*
X256375000Y-137838184D01*
X256375000Y-138005816D01*
X256342297Y-138170228D01*
X256278147Y-138325100D01*
X256185015Y-138464481D01*
X256066481Y-138583015D01*
X255927100Y-138676147D01*
X255772228Y-138740297D01*
X255607816Y-138773000D01*
X255440184Y-138773000D01*
X255275772Y-138740297D01*
X255120900Y-138676147D01*
X254981519Y-138583015D01*
X254862985Y-138464481D01*
X254769853Y-138325100D01*
X254705703Y-138170228D01*
X254673000Y-138005816D01*
X254673000Y-137838184D01*
X254705703Y-137673772D01*
X254769853Y-137518900D01*
X254862985Y-137379519D01*
X254981519Y-137260985D01*
X255120900Y-137167853D01*
X255275772Y-137103703D01*
X255440184Y-137071000D01*
X255607816Y-137071000D01*
X255772228Y-137103703D01*
G37*
G36*
X260852228Y-137103703D02*
G01*
X261007100Y-137167853D01*
X261146481Y-137260985D01*
X261265015Y-137379519D01*
X261358147Y-137518900D01*
X261422297Y-137673772D01*
X261455000Y-137838184D01*
X261455000Y-138005816D01*
X261422297Y-138170228D01*
X261358147Y-138325100D01*
X261265015Y-138464481D01*
X261146481Y-138583015D01*
X261007100Y-138676147D01*
X260852228Y-138740297D01*
X260687816Y-138773000D01*
X260520184Y-138773000D01*
X260355772Y-138740297D01*
X260200900Y-138676147D01*
X260061519Y-138583015D01*
X259942985Y-138464481D01*
X259849853Y-138325100D01*
X259785703Y-138170228D01*
X259753000Y-138005816D01*
X259753000Y-137838184D01*
X259785703Y-137673772D01*
X259849853Y-137518900D01*
X259942985Y-137379519D01*
X260061519Y-137260985D01*
X260200900Y-137167853D01*
X260355772Y-137103703D01*
X260520184Y-137071000D01*
X260687816Y-137071000D01*
X260852228Y-137103703D01*
G37*
G36*
X260852228Y-134563703D02*
G01*
X261007100Y-134627853D01*
X261146481Y-134720985D01*
X261265015Y-134839519D01*
X261358147Y-134978900D01*
X261422297Y-135133772D01*
X261455000Y-135298184D01*
X261455000Y-135465816D01*
X261422297Y-135630228D01*
X261358147Y-135785100D01*
X261265015Y-135924481D01*
X261146481Y-136043015D01*
X261007100Y-136136147D01*
X260852228Y-136200297D01*
X260687816Y-136233000D01*
X260520184Y-136233000D01*
X260355772Y-136200297D01*
X260200900Y-136136147D01*
X260061519Y-136043015D01*
X259942985Y-135924481D01*
X259849853Y-135785100D01*
X259785703Y-135630228D01*
X259753000Y-135465816D01*
X259753000Y-135298184D01*
X259785703Y-135133772D01*
X259849853Y-134978900D01*
X259942985Y-134839519D01*
X260061519Y-134720985D01*
X260200900Y-134627853D01*
X260355772Y-134563703D01*
X260520184Y-134531000D01*
X260687816Y-134531000D01*
X260852228Y-134563703D01*
G37*
G36*
X255772228Y-134563703D02*
G01*
X255927100Y-134627853D01*
X256066481Y-134720985D01*
X256185015Y-134839519D01*
X256278147Y-134978900D01*
X256342297Y-135133772D01*
X256375000Y-135298184D01*
X256375000Y-135465816D01*
X256342297Y-135630228D01*
X256278147Y-135785100D01*
X256185015Y-135924481D01*
X256066481Y-136043015D01*
X255927100Y-136136147D01*
X255772228Y-136200297D01*
X255607816Y-136233000D01*
X255440184Y-136233000D01*
X255275772Y-136200297D01*
X255120900Y-136136147D01*
X254981519Y-136043015D01*
X254862985Y-135924481D01*
X254769853Y-135785100D01*
X254705703Y-135630228D01*
X254673000Y-135465816D01*
X254673000Y-135298184D01*
X254705703Y-135133772D01*
X254769853Y-134978900D01*
X254862985Y-134839519D01*
X254981519Y-134720985D01*
X255120900Y-134627853D01*
X255275772Y-134563703D01*
X255440184Y-134531000D01*
X255607816Y-134531000D01*
X255772228Y-134563703D01*
G37*
G36*
X263392228Y-134563703D02*
G01*
X263547100Y-134627853D01*
X263686481Y-134720985D01*
X263805015Y-134839519D01*
X263898147Y-134978900D01*
X263962297Y-135133772D01*
X263995000Y-135298184D01*
X263995000Y-135465816D01*
X263962297Y-135630228D01*
X263898147Y-135785100D01*
X263805015Y-135924481D01*
X263686481Y-136043015D01*
X263547100Y-136136147D01*
X263392228Y-136200297D01*
X263227816Y-136233000D01*
X263060184Y-136233000D01*
X262895772Y-136200297D01*
X262740900Y-136136147D01*
X262601519Y-136043015D01*
X262482985Y-135924481D01*
X262389853Y-135785100D01*
X262325703Y-135630228D01*
X262293000Y-135465816D01*
X262293000Y-135298184D01*
X262325703Y-135133772D01*
X262389853Y-134978900D01*
X262482985Y-134839519D01*
X262601519Y-134720985D01*
X262740900Y-134627853D01*
X262895772Y-134563703D01*
X263060184Y-134531000D01*
X263227816Y-134531000D01*
X263392228Y-134563703D01*
G37*
G36*
X22192425Y-134636599D02*
G01*
X22316621Y-134661302D01*
X22453022Y-134717801D01*
X22575779Y-134799825D01*
X22680175Y-134904221D01*
X22762199Y-135026978D01*
X22818698Y-135163379D01*
X22847500Y-135308181D01*
X22847500Y-135455819D01*
X22818698Y-135600621D01*
X22762199Y-135737022D01*
X22680175Y-135859779D01*
X22575779Y-135964175D01*
X22453022Y-136046199D01*
X22316621Y-136102698D01*
X22192425Y-136127401D01*
X22171820Y-136131500D01*
X22024180Y-136131500D01*
X22003575Y-136127401D01*
X21879379Y-136102698D01*
X21742978Y-136046199D01*
X21620221Y-135964175D01*
X21515825Y-135859779D01*
X21433801Y-135737022D01*
X21377302Y-135600621D01*
X21348500Y-135455819D01*
X21348500Y-135308181D01*
X21377302Y-135163379D01*
X21433801Y-135026978D01*
X21515825Y-134904221D01*
X21620221Y-134799825D01*
X21742978Y-134717801D01*
X21879379Y-134661302D01*
X22003575Y-134636599D01*
X22024180Y-134632500D01*
X22171820Y-134632500D01*
X22192425Y-134636599D01*
G37*
G36*
X44732425Y-134636599D02*
G01*
X44856621Y-134661302D01*
X44993022Y-134717801D01*
X45115779Y-134799825D01*
X45220175Y-134904221D01*
X45302199Y-135026978D01*
X45358698Y-135163379D01*
X45387500Y-135308181D01*
X45387500Y-135455819D01*
X45358698Y-135600621D01*
X45302199Y-135737022D01*
X45220175Y-135859779D01*
X45115779Y-135964175D01*
X44993022Y-136046199D01*
X44856621Y-136102698D01*
X44732425Y-136127401D01*
X44711820Y-136131500D01*
X44564180Y-136131500D01*
X44543575Y-136127401D01*
X44419379Y-136102698D01*
X44282978Y-136046199D01*
X44160221Y-135964175D01*
X44055825Y-135859779D01*
X43973801Y-135737022D01*
X43917302Y-135600621D01*
X43888500Y-135455819D01*
X43888500Y-135308181D01*
X43917302Y-135163379D01*
X43973801Y-135026978D01*
X44055825Y-134904221D01*
X44160221Y-134799825D01*
X44282978Y-134717801D01*
X44419379Y-134661302D01*
X44543575Y-134636599D01*
X44564180Y-134632500D01*
X44711820Y-134632500D01*
X44732425Y-134636599D01*
G37*
G36*
X42192425Y-134636599D02*
G01*
X42316621Y-134661302D01*
X42453022Y-134717801D01*
X42575779Y-134799825D01*
X42680175Y-134904221D01*
X42762199Y-135026978D01*
X42818698Y-135163379D01*
X42847500Y-135308181D01*
X42847500Y-135455819D01*
X42818698Y-135600621D01*
X42762199Y-135737022D01*
X42680175Y-135859779D01*
X42575779Y-135964175D01*
X42453022Y-136046199D01*
X42316621Y-136102698D01*
X42192425Y-136127401D01*
X42171820Y-136131500D01*
X42024180Y-136131500D01*
X42003575Y-136127401D01*
X41879379Y-136102698D01*
X41742978Y-136046199D01*
X41620221Y-135964175D01*
X41515825Y-135859779D01*
X41433801Y-135737022D01*
X41377302Y-135600621D01*
X41348500Y-135455819D01*
X41348500Y-135308181D01*
X41377302Y-135163379D01*
X41433801Y-135026978D01*
X41515825Y-134904221D01*
X41620221Y-134799825D01*
X41742978Y-134717801D01*
X41879379Y-134661302D01*
X42003575Y-134636599D01*
X42024180Y-134632500D01*
X42171820Y-134632500D01*
X42192425Y-134636599D01*
G37*
G36*
X64732425Y-134636599D02*
G01*
X64856621Y-134661302D01*
X64993022Y-134717801D01*
X65115779Y-134799825D01*
X65220175Y-134904221D01*
X65302199Y-135026978D01*
X65358698Y-135163379D01*
X65387500Y-135308181D01*
X65387500Y-135455819D01*
X65358698Y-135600621D01*
X65302199Y-135737022D01*
X65220175Y-135859779D01*
X65115779Y-135964175D01*
X64993022Y-136046199D01*
X64856621Y-136102698D01*
X64732425Y-136127401D01*
X64711820Y-136131500D01*
X64564180Y-136131500D01*
X64543575Y-136127401D01*
X64419379Y-136102698D01*
X64282978Y-136046199D01*
X64160221Y-135964175D01*
X64055825Y-135859779D01*
X63973801Y-135737022D01*
X63917302Y-135600621D01*
X63888500Y-135455819D01*
X63888500Y-135308181D01*
X63917302Y-135163379D01*
X63973801Y-135026978D01*
X64055825Y-134904221D01*
X64160221Y-134799825D01*
X64282978Y-134717801D01*
X64419379Y-134661302D01*
X64543575Y-134636599D01*
X64564180Y-134632500D01*
X64711820Y-134632500D01*
X64732425Y-134636599D01*
G37*
G36*
X224732425Y-134636599D02*
G01*
X224856621Y-134661302D01*
X224993022Y-134717801D01*
X225115779Y-134799825D01*
X225220175Y-134904221D01*
X225302199Y-135026978D01*
X225358698Y-135163379D01*
X225387500Y-135308181D01*
X225387500Y-135455819D01*
X225358698Y-135600621D01*
X225302199Y-135737022D01*
X225220175Y-135859779D01*
X225115779Y-135964175D01*
X224993022Y-136046199D01*
X224856621Y-136102698D01*
X224732425Y-136127401D01*
X224711820Y-136131500D01*
X224564180Y-136131500D01*
X224543575Y-136127401D01*
X224419379Y-136102698D01*
X224282978Y-136046199D01*
X224160221Y-135964175D01*
X224055825Y-135859779D01*
X223973801Y-135737022D01*
X223917302Y-135600621D01*
X223888500Y-135455819D01*
X223888500Y-135308181D01*
X223917302Y-135163379D01*
X223973801Y-135026978D01*
X224055825Y-134904221D01*
X224160221Y-134799825D01*
X224282978Y-134717801D01*
X224419379Y-134661302D01*
X224543575Y-134636599D01*
X224564180Y-134632500D01*
X224711820Y-134632500D01*
X224732425Y-134636599D01*
G37*
G36*
X62192425Y-134636599D02*
G01*
X62316621Y-134661302D01*
X62453022Y-134717801D01*
X62575779Y-134799825D01*
X62680175Y-134904221D01*
X62762199Y-135026978D01*
X62818698Y-135163379D01*
X62847500Y-135308181D01*
X62847500Y-135455819D01*
X62818698Y-135600621D01*
X62762199Y-135737022D01*
X62680175Y-135859779D01*
X62575779Y-135964175D01*
X62453022Y-136046199D01*
X62316621Y-136102698D01*
X62192425Y-136127401D01*
X62171820Y-136131500D01*
X62024180Y-136131500D01*
X62003575Y-136127401D01*
X61879379Y-136102698D01*
X61742978Y-136046199D01*
X61620221Y-135964175D01*
X61515825Y-135859779D01*
X61433801Y-135737022D01*
X61377302Y-135600621D01*
X61348500Y-135455819D01*
X61348500Y-135308181D01*
X61377302Y-135163379D01*
X61433801Y-135026978D01*
X61515825Y-134904221D01*
X61620221Y-134799825D01*
X61742978Y-134717801D01*
X61879379Y-134661302D01*
X62003575Y-134636599D01*
X62024180Y-134632500D01*
X62171820Y-134632500D01*
X62192425Y-134636599D01*
G37*
G36*
X164732425Y-134636599D02*
G01*
X164856621Y-134661302D01*
X164993022Y-134717801D01*
X165115779Y-134799825D01*
X165220175Y-134904221D01*
X165302199Y-135026978D01*
X165358698Y-135163379D01*
X165387500Y-135308181D01*
X165387500Y-135455819D01*
X165358698Y-135600621D01*
X165302199Y-135737022D01*
X165220175Y-135859779D01*
X165115779Y-135964175D01*
X164993022Y-136046199D01*
X164856621Y-136102698D01*
X164732425Y-136127401D01*
X164711820Y-136131500D01*
X164564180Y-136131500D01*
X164543575Y-136127401D01*
X164419379Y-136102698D01*
X164282978Y-136046199D01*
X164160221Y-135964175D01*
X164055825Y-135859779D01*
X163973801Y-135737022D01*
X163917302Y-135600621D01*
X163888500Y-135455819D01*
X163888500Y-135308181D01*
X163917302Y-135163379D01*
X163973801Y-135026978D01*
X164055825Y-134904221D01*
X164160221Y-134799825D01*
X164282978Y-134717801D01*
X164419379Y-134661302D01*
X164543575Y-134636599D01*
X164564180Y-134632500D01*
X164711820Y-134632500D01*
X164732425Y-134636599D01*
G37*
G36*
X162192425Y-134636599D02*
G01*
X162316621Y-134661302D01*
X162453022Y-134717801D01*
X162575779Y-134799825D01*
X162680175Y-134904221D01*
X162762199Y-135026978D01*
X162818698Y-135163379D01*
X162847500Y-135308181D01*
X162847500Y-135455819D01*
X162818698Y-135600621D01*
X162762199Y-135737022D01*
X162680175Y-135859779D01*
X162575779Y-135964175D01*
X162453022Y-136046199D01*
X162316621Y-136102698D01*
X162192425Y-136127401D01*
X162171820Y-136131500D01*
X162024180Y-136131500D01*
X162003575Y-136127401D01*
X161879379Y-136102698D01*
X161742978Y-136046199D01*
X161620221Y-135964175D01*
X161515825Y-135859779D01*
X161433801Y-135737022D01*
X161377302Y-135600621D01*
X161348500Y-135455819D01*
X161348500Y-135308181D01*
X161377302Y-135163379D01*
X161433801Y-135026978D01*
X161515825Y-134904221D01*
X161620221Y-134799825D01*
X161742978Y-134717801D01*
X161879379Y-134661302D01*
X162003575Y-134636599D01*
X162024180Y-134632500D01*
X162171820Y-134632500D01*
X162192425Y-134636599D01*
G37*
G36*
X104732425Y-134636599D02*
G01*
X104856621Y-134661302D01*
X104993022Y-134717801D01*
X105115779Y-134799825D01*
X105220175Y-134904221D01*
X105302199Y-135026978D01*
X105358698Y-135163379D01*
X105387500Y-135308181D01*
X105387500Y-135455819D01*
X105358698Y-135600621D01*
X105302199Y-135737022D01*
X105220175Y-135859779D01*
X105115779Y-135964175D01*
X104993022Y-136046199D01*
X104856621Y-136102698D01*
X104732425Y-136127401D01*
X104711820Y-136131500D01*
X104564180Y-136131500D01*
X104543575Y-136127401D01*
X104419379Y-136102698D01*
X104282978Y-136046199D01*
X104160221Y-135964175D01*
X104055825Y-135859779D01*
X103973801Y-135737022D01*
X103917302Y-135600621D01*
X103888500Y-135455819D01*
X103888500Y-135308181D01*
X103917302Y-135163379D01*
X103973801Y-135026978D01*
X104055825Y-134904221D01*
X104160221Y-134799825D01*
X104282978Y-134717801D01*
X104419379Y-134661302D01*
X104543575Y-134636599D01*
X104564180Y-134632500D01*
X104711820Y-134632500D01*
X104732425Y-134636599D01*
G37*
G36*
X102192425Y-134636599D02*
G01*
X102316621Y-134661302D01*
X102453022Y-134717801D01*
X102575779Y-134799825D01*
X102680175Y-134904221D01*
X102762199Y-135026978D01*
X102818698Y-135163379D01*
X102847500Y-135308181D01*
X102847500Y-135455819D01*
X102818698Y-135600621D01*
X102762199Y-135737022D01*
X102680175Y-135859779D01*
X102575779Y-135964175D01*
X102453022Y-136046199D01*
X102316621Y-136102698D01*
X102192425Y-136127401D01*
X102171820Y-136131500D01*
X102024180Y-136131500D01*
X102003575Y-136127401D01*
X101879379Y-136102698D01*
X101742978Y-136046199D01*
X101620221Y-135964175D01*
X101515825Y-135859779D01*
X101433801Y-135737022D01*
X101377302Y-135600621D01*
X101348500Y-135455819D01*
X101348500Y-135308181D01*
X101377302Y-135163379D01*
X101433801Y-135026978D01*
X101515825Y-134904221D01*
X101620221Y-134799825D01*
X101742978Y-134717801D01*
X101879379Y-134661302D01*
X102003575Y-134636599D01*
X102024180Y-134632500D01*
X102171820Y-134632500D01*
X102192425Y-134636599D01*
G37*
G36*
X24732425Y-134636599D02*
G01*
X24856621Y-134661302D01*
X24993022Y-134717801D01*
X25115779Y-134799825D01*
X25220175Y-134904221D01*
X25302199Y-135026978D01*
X25358698Y-135163379D01*
X25387500Y-135308181D01*
X25387500Y-135455819D01*
X25358698Y-135600621D01*
X25302199Y-135737022D01*
X25220175Y-135859779D01*
X25115779Y-135964175D01*
X24993022Y-136046199D01*
X24856621Y-136102698D01*
X24732425Y-136127401D01*
X24711820Y-136131500D01*
X24564180Y-136131500D01*
X24543575Y-136127401D01*
X24419379Y-136102698D01*
X24282978Y-136046199D01*
X24160221Y-135964175D01*
X24055825Y-135859779D01*
X23973801Y-135737022D01*
X23917302Y-135600621D01*
X23888500Y-135455819D01*
X23888500Y-135308181D01*
X23917302Y-135163379D01*
X23973801Y-135026978D01*
X24055825Y-134904221D01*
X24160221Y-134799825D01*
X24282978Y-134717801D01*
X24419379Y-134661302D01*
X24543575Y-134636599D01*
X24564180Y-134632500D01*
X24711820Y-134632500D01*
X24732425Y-134636599D01*
G37*
G36*
X122192425Y-134636599D02*
G01*
X122316621Y-134661302D01*
X122453022Y-134717801D01*
X122575779Y-134799825D01*
X122680175Y-134904221D01*
X122762199Y-135026978D01*
X122818698Y-135163379D01*
X122847500Y-135308181D01*
X122847500Y-135455819D01*
X122818698Y-135600621D01*
X122762199Y-135737022D01*
X122680175Y-135859779D01*
X122575779Y-135964175D01*
X122453022Y-136046199D01*
X122316621Y-136102698D01*
X122192425Y-136127401D01*
X122171820Y-136131500D01*
X122024180Y-136131500D01*
X122003575Y-136127401D01*
X121879379Y-136102698D01*
X121742978Y-136046199D01*
X121620221Y-135964175D01*
X121515825Y-135859779D01*
X121433801Y-135737022D01*
X121377302Y-135600621D01*
X121348500Y-135455819D01*
X121348500Y-135308181D01*
X121377302Y-135163379D01*
X121433801Y-135026978D01*
X121515825Y-134904221D01*
X121620221Y-134799825D01*
X121742978Y-134717801D01*
X121879379Y-134661302D01*
X122003575Y-134636599D01*
X122024180Y-134632500D01*
X122171820Y-134632500D01*
X122192425Y-134636599D01*
G37*
G36*
X144732425Y-134636599D02*
G01*
X144856621Y-134661302D01*
X144993022Y-134717801D01*
X145115779Y-134799825D01*
X145220175Y-134904221D01*
X145302199Y-135026978D01*
X145358698Y-135163379D01*
X145387500Y-135308181D01*
X145387500Y-135455819D01*
X145358698Y-135600621D01*
X145302199Y-135737022D01*
X145220175Y-135859779D01*
X145115779Y-135964175D01*
X144993022Y-136046199D01*
X144856621Y-136102698D01*
X144732425Y-136127401D01*
X144711820Y-136131500D01*
X144564180Y-136131500D01*
X144543575Y-136127401D01*
X144419379Y-136102698D01*
X144282978Y-136046199D01*
X144160221Y-135964175D01*
X144055825Y-135859779D01*
X143973801Y-135737022D01*
X143917302Y-135600621D01*
X143888500Y-135455819D01*
X143888500Y-135308181D01*
X143917302Y-135163379D01*
X143973801Y-135026978D01*
X144055825Y-134904221D01*
X144160221Y-134799825D01*
X144282978Y-134717801D01*
X144419379Y-134661302D01*
X144543575Y-134636599D01*
X144564180Y-134632500D01*
X144711820Y-134632500D01*
X144732425Y-134636599D01*
G37*
G36*
X142192425Y-134636599D02*
G01*
X142316621Y-134661302D01*
X142453022Y-134717801D01*
X142575779Y-134799825D01*
X142680175Y-134904221D01*
X142762199Y-135026978D01*
X142818698Y-135163379D01*
X142847500Y-135308181D01*
X142847500Y-135455819D01*
X142818698Y-135600621D01*
X142762199Y-135737022D01*
X142680175Y-135859779D01*
X142575779Y-135964175D01*
X142453022Y-136046199D01*
X142316621Y-136102698D01*
X142192425Y-136127401D01*
X142171820Y-136131500D01*
X142024180Y-136131500D01*
X142003575Y-136127401D01*
X141879379Y-136102698D01*
X141742978Y-136046199D01*
X141620221Y-135964175D01*
X141515825Y-135859779D01*
X141433801Y-135737022D01*
X141377302Y-135600621D01*
X141348500Y-135455819D01*
X141348500Y-135308181D01*
X141377302Y-135163379D01*
X141433801Y-135026978D01*
X141515825Y-134904221D01*
X141620221Y-134799825D01*
X141742978Y-134717801D01*
X141879379Y-134661302D01*
X142003575Y-134636599D01*
X142024180Y-134632500D01*
X142171820Y-134632500D01*
X142192425Y-134636599D01*
G37*
G36*
X244732425Y-134636599D02*
G01*
X244856621Y-134661302D01*
X244993022Y-134717801D01*
X245115779Y-134799825D01*
X245220175Y-134904221D01*
X245302199Y-135026978D01*
X245358698Y-135163379D01*
X245387500Y-135308181D01*
X245387500Y-135455819D01*
X245358698Y-135600621D01*
X245302199Y-135737022D01*
X245220175Y-135859779D01*
X245115779Y-135964175D01*
X244993022Y-136046199D01*
X244856621Y-136102698D01*
X244732425Y-136127401D01*
X244711820Y-136131500D01*
X244564180Y-136131500D01*
X244543575Y-136127401D01*
X244419379Y-136102698D01*
X244282978Y-136046199D01*
X244160221Y-135964175D01*
X244055825Y-135859779D01*
X243973801Y-135737022D01*
X243917302Y-135600621D01*
X243888500Y-135455819D01*
X243888500Y-135308181D01*
X243917302Y-135163379D01*
X243973801Y-135026978D01*
X244055825Y-134904221D01*
X244160221Y-134799825D01*
X244282978Y-134717801D01*
X244419379Y-134661302D01*
X244543575Y-134636599D01*
X244564180Y-134632500D01*
X244711820Y-134632500D01*
X244732425Y-134636599D01*
G37*
G36*
X242192425Y-134636599D02*
G01*
X242316621Y-134661302D01*
X242453022Y-134717801D01*
X242575779Y-134799825D01*
X242680175Y-134904221D01*
X242762199Y-135026978D01*
X242818698Y-135163379D01*
X242847500Y-135308181D01*
X242847500Y-135455819D01*
X242818698Y-135600621D01*
X242762199Y-135737022D01*
X242680175Y-135859779D01*
X242575779Y-135964175D01*
X242453022Y-136046199D01*
X242316621Y-136102698D01*
X242192425Y-136127401D01*
X242171820Y-136131500D01*
X242024180Y-136131500D01*
X242003575Y-136127401D01*
X241879379Y-136102698D01*
X241742978Y-136046199D01*
X241620221Y-135964175D01*
X241515825Y-135859779D01*
X241433801Y-135737022D01*
X241377302Y-135600621D01*
X241348500Y-135455819D01*
X241348500Y-135308181D01*
X241377302Y-135163379D01*
X241433801Y-135026978D01*
X241515825Y-134904221D01*
X241620221Y-134799825D01*
X241742978Y-134717801D01*
X241879379Y-134661302D01*
X242003575Y-134636599D01*
X242024180Y-134632500D01*
X242171820Y-134632500D01*
X242192425Y-134636599D01*
G37*
G36*
X184732425Y-134636599D02*
G01*
X184856621Y-134661302D01*
X184993022Y-134717801D01*
X185115779Y-134799825D01*
X185220175Y-134904221D01*
X185302199Y-135026978D01*
X185358698Y-135163379D01*
X185387500Y-135308181D01*
X185387500Y-135455819D01*
X185358698Y-135600621D01*
X185302199Y-135737022D01*
X185220175Y-135859779D01*
X185115779Y-135964175D01*
X184993022Y-136046199D01*
X184856621Y-136102698D01*
X184732425Y-136127401D01*
X184711820Y-136131500D01*
X184564180Y-136131500D01*
X184543575Y-136127401D01*
X184419379Y-136102698D01*
X184282978Y-136046199D01*
X184160221Y-135964175D01*
X184055825Y-135859779D01*
X183973801Y-135737022D01*
X183917302Y-135600621D01*
X183888500Y-135455819D01*
X183888500Y-135308181D01*
X183917302Y-135163379D01*
X183973801Y-135026978D01*
X184055825Y-134904221D01*
X184160221Y-134799825D01*
X184282978Y-134717801D01*
X184419379Y-134661302D01*
X184543575Y-134636599D01*
X184564180Y-134632500D01*
X184711820Y-134632500D01*
X184732425Y-134636599D01*
G37*
G36*
X182192425Y-134636599D02*
G01*
X182316621Y-134661302D01*
X182453022Y-134717801D01*
X182575779Y-134799825D01*
X182680175Y-134904221D01*
X182762199Y-135026978D01*
X182818698Y-135163379D01*
X182847500Y-135308181D01*
X182847500Y-135455819D01*
X182818698Y-135600621D01*
X182762199Y-135737022D01*
X182680175Y-135859779D01*
X182575779Y-135964175D01*
X182453022Y-136046199D01*
X182316621Y-136102698D01*
X182192425Y-136127401D01*
X182171820Y-136131500D01*
X182024180Y-136131500D01*
X182003575Y-136127401D01*
X181879379Y-136102698D01*
X181742978Y-136046199D01*
X181620221Y-135964175D01*
X181515825Y-135859779D01*
X181433801Y-135737022D01*
X181377302Y-135600621D01*
X181348500Y-135455819D01*
X181348500Y-135308181D01*
X181377302Y-135163379D01*
X181433801Y-135026978D01*
X181515825Y-134904221D01*
X181620221Y-134799825D01*
X181742978Y-134717801D01*
X181879379Y-134661302D01*
X182003575Y-134636599D01*
X182024180Y-134632500D01*
X182171820Y-134632500D01*
X182192425Y-134636599D01*
G37*
G36*
X204732425Y-134636599D02*
G01*
X204856621Y-134661302D01*
X204993022Y-134717801D01*
X205115779Y-134799825D01*
X205220175Y-134904221D01*
X205302199Y-135026978D01*
X205358698Y-135163379D01*
X205387500Y-135308181D01*
X205387500Y-135455819D01*
X205358698Y-135600621D01*
X205302199Y-135737022D01*
X205220175Y-135859779D01*
X205115779Y-135964175D01*
X204993022Y-136046199D01*
X204856621Y-136102698D01*
X204732425Y-136127401D01*
X204711820Y-136131500D01*
X204564180Y-136131500D01*
X204543575Y-136127401D01*
X204419379Y-136102698D01*
X204282978Y-136046199D01*
X204160221Y-135964175D01*
X204055825Y-135859779D01*
X203973801Y-135737022D01*
X203917302Y-135600621D01*
X203888500Y-135455819D01*
X203888500Y-135308181D01*
X203917302Y-135163379D01*
X203973801Y-135026978D01*
X204055825Y-134904221D01*
X204160221Y-134799825D01*
X204282978Y-134717801D01*
X204419379Y-134661302D01*
X204543575Y-134636599D01*
X204564180Y-134632500D01*
X204711820Y-134632500D01*
X204732425Y-134636599D01*
G37*
G36*
X202192425Y-134636599D02*
G01*
X202316621Y-134661302D01*
X202453022Y-134717801D01*
X202575779Y-134799825D01*
X202680175Y-134904221D01*
X202762199Y-135026978D01*
X202818698Y-135163379D01*
X202847500Y-135308181D01*
X202847500Y-135455819D01*
X202818698Y-135600621D01*
X202762199Y-135737022D01*
X202680175Y-135859779D01*
X202575779Y-135964175D01*
X202453022Y-136046199D01*
X202316621Y-136102698D01*
X202192425Y-136127401D01*
X202171820Y-136131500D01*
X202024180Y-136131500D01*
X202003575Y-136127401D01*
X201879379Y-136102698D01*
X201742978Y-136046199D01*
X201620221Y-135964175D01*
X201515825Y-135859779D01*
X201433801Y-135737022D01*
X201377302Y-135600621D01*
X201348500Y-135455819D01*
X201348500Y-135308181D01*
X201377302Y-135163379D01*
X201433801Y-135026978D01*
X201515825Y-134904221D01*
X201620221Y-134799825D01*
X201742978Y-134717801D01*
X201879379Y-134661302D01*
X202003575Y-134636599D01*
X202024180Y-134632500D01*
X202171820Y-134632500D01*
X202192425Y-134636599D01*
G37*
G36*
X124732425Y-134636599D02*
G01*
X124856621Y-134661302D01*
X124993022Y-134717801D01*
X125115779Y-134799825D01*
X125220175Y-134904221D01*
X125302199Y-135026978D01*
X125358698Y-135163379D01*
X125387500Y-135308181D01*
X125387500Y-135455819D01*
X125358698Y-135600621D01*
X125302199Y-135737022D01*
X125220175Y-135859779D01*
X125115779Y-135964175D01*
X124993022Y-136046199D01*
X124856621Y-136102698D01*
X124732425Y-136127401D01*
X124711820Y-136131500D01*
X124564180Y-136131500D01*
X124543575Y-136127401D01*
X124419379Y-136102698D01*
X124282978Y-136046199D01*
X124160221Y-135964175D01*
X124055825Y-135859779D01*
X123973801Y-135737022D01*
X123917302Y-135600621D01*
X123888500Y-135455819D01*
X123888500Y-135308181D01*
X123917302Y-135163379D01*
X123973801Y-135026978D01*
X124055825Y-134904221D01*
X124160221Y-134799825D01*
X124282978Y-134717801D01*
X124419379Y-134661302D01*
X124543575Y-134636599D01*
X124564180Y-134632500D01*
X124711820Y-134632500D01*
X124732425Y-134636599D01*
G37*
G36*
X222192425Y-134636599D02*
G01*
X222316621Y-134661302D01*
X222453022Y-134717801D01*
X222575779Y-134799825D01*
X222680175Y-134904221D01*
X222762199Y-135026978D01*
X222818698Y-135163379D01*
X222847500Y-135308181D01*
X222847500Y-135455819D01*
X222818698Y-135600621D01*
X222762199Y-135737022D01*
X222680175Y-135859779D01*
X222575779Y-135964175D01*
X222453022Y-136046199D01*
X222316621Y-136102698D01*
X222192425Y-136127401D01*
X222171820Y-136131500D01*
X222024180Y-136131500D01*
X222003575Y-136127401D01*
X221879379Y-136102698D01*
X221742978Y-136046199D01*
X221620221Y-135964175D01*
X221515825Y-135859779D01*
X221433801Y-135737022D01*
X221377302Y-135600621D01*
X221348500Y-135455819D01*
X221348500Y-135308181D01*
X221377302Y-135163379D01*
X221433801Y-135026978D01*
X221515825Y-134904221D01*
X221620221Y-134799825D01*
X221742978Y-134717801D01*
X221879379Y-134661302D01*
X222003575Y-134636599D01*
X222024180Y-134632500D01*
X222171820Y-134632500D01*
X222192425Y-134636599D01*
G37*
G36*
X82192425Y-134636599D02*
G01*
X82316621Y-134661302D01*
X82453022Y-134717801D01*
X82575779Y-134799825D01*
X82680175Y-134904221D01*
X82762199Y-135026978D01*
X82818698Y-135163379D01*
X82847500Y-135308181D01*
X82847500Y-135455819D01*
X82818698Y-135600621D01*
X82762199Y-135737022D01*
X82680175Y-135859779D01*
X82575779Y-135964175D01*
X82453022Y-136046199D01*
X82316621Y-136102698D01*
X82192425Y-136127401D01*
X82171820Y-136131500D01*
X82024180Y-136131500D01*
X82003575Y-136127401D01*
X81879379Y-136102698D01*
X81742978Y-136046199D01*
X81620221Y-135964175D01*
X81515825Y-135859779D01*
X81433801Y-135737022D01*
X81377302Y-135600621D01*
X81348500Y-135455819D01*
X81348500Y-135308181D01*
X81377302Y-135163379D01*
X81433801Y-135026978D01*
X81515825Y-134904221D01*
X81620221Y-134799825D01*
X81742978Y-134717801D01*
X81879379Y-134661302D01*
X82003575Y-134636599D01*
X82024180Y-134632500D01*
X82171820Y-134632500D01*
X82192425Y-134636599D01*
G37*
G36*
X84732425Y-134636599D02*
G01*
X84856621Y-134661302D01*
X84993022Y-134717801D01*
X85115779Y-134799825D01*
X85220175Y-134904221D01*
X85302199Y-135026978D01*
X85358698Y-135163379D01*
X85387500Y-135308181D01*
X85387500Y-135455819D01*
X85358698Y-135600621D01*
X85302199Y-135737022D01*
X85220175Y-135859779D01*
X85115779Y-135964175D01*
X84993022Y-136046199D01*
X84856621Y-136102698D01*
X84732425Y-136127401D01*
X84711820Y-136131500D01*
X84564180Y-136131500D01*
X84543575Y-136127401D01*
X84419379Y-136102698D01*
X84282978Y-136046199D01*
X84160221Y-135964175D01*
X84055825Y-135859779D01*
X83973801Y-135737022D01*
X83917302Y-135600621D01*
X83888500Y-135455819D01*
X83888500Y-135308181D01*
X83917302Y-135163379D01*
X83973801Y-135026978D01*
X84055825Y-134904221D01*
X84160221Y-134799825D01*
X84282978Y-134717801D01*
X84419379Y-134661302D01*
X84543575Y-134636599D01*
X84564180Y-134632500D01*
X84711820Y-134632500D01*
X84732425Y-134636599D01*
G37*
G36*
X260852228Y-132023703D02*
G01*
X261007100Y-132087853D01*
X261146481Y-132180985D01*
X261265015Y-132299519D01*
X261358147Y-132438900D01*
X261422297Y-132593772D01*
X261455000Y-132758184D01*
X261455000Y-132925816D01*
X261422297Y-133090228D01*
X261358147Y-133245100D01*
X261265015Y-133384481D01*
X261146481Y-133503015D01*
X261007100Y-133596147D01*
X260852228Y-133660297D01*
X260687816Y-133693000D01*
X260520184Y-133693000D01*
X260355772Y-133660297D01*
X260200900Y-133596147D01*
X260061519Y-133503015D01*
X259942985Y-133384481D01*
X259849853Y-133245100D01*
X259785703Y-133090228D01*
X259753000Y-132925816D01*
X259753000Y-132758184D01*
X259785703Y-132593772D01*
X259849853Y-132438900D01*
X259942985Y-132299519D01*
X260061519Y-132180985D01*
X260200900Y-132087853D01*
X260355772Y-132023703D01*
X260520184Y-131991000D01*
X260687816Y-131991000D01*
X260852228Y-132023703D01*
G37*
G36*
X255772228Y-132023703D02*
G01*
X255927100Y-132087853D01*
X256066481Y-132180985D01*
X256185015Y-132299519D01*
X256278147Y-132438900D01*
X256342297Y-132593772D01*
X256375000Y-132758184D01*
X256375000Y-132925816D01*
X256342297Y-133090228D01*
X256278147Y-133245100D01*
X256185015Y-133384481D01*
X256066481Y-133503015D01*
X255927100Y-133596147D01*
X255772228Y-133660297D01*
X255607816Y-133693000D01*
X255440184Y-133693000D01*
X255275772Y-133660297D01*
X255120900Y-133596147D01*
X254981519Y-133503015D01*
X254862985Y-133384481D01*
X254769853Y-133245100D01*
X254705703Y-133090228D01*
X254673000Y-132925816D01*
X254673000Y-132758184D01*
X254705703Y-132593772D01*
X254769853Y-132438900D01*
X254862985Y-132299519D01*
X254981519Y-132180985D01*
X255120900Y-132087853D01*
X255275772Y-132023703D01*
X255440184Y-131991000D01*
X255607816Y-131991000D01*
X255772228Y-132023703D01*
G37*
G36*
X263392228Y-132023703D02*
G01*
X263547100Y-132087853D01*
X263686481Y-132180985D01*
X263805015Y-132299519D01*
X263898147Y-132438900D01*
X263962297Y-132593772D01*
X263995000Y-132758184D01*
X263995000Y-132925816D01*
X263962297Y-133090228D01*
X263898147Y-133245100D01*
X263805015Y-133384481D01*
X263686481Y-133503015D01*
X263547100Y-133596147D01*
X263392228Y-133660297D01*
X263227816Y-133693000D01*
X263060184Y-133693000D01*
X262895772Y-133660297D01*
X262740900Y-133596147D01*
X262601519Y-133503015D01*
X262482985Y-133384481D01*
X262389853Y-133245100D01*
X262325703Y-133090228D01*
X262293000Y-132925816D01*
X262293000Y-132758184D01*
X262325703Y-132593772D01*
X262389853Y-132438900D01*
X262482985Y-132299519D01*
X262601519Y-132180985D01*
X262740900Y-132087853D01*
X262895772Y-132023703D01*
X263060184Y-131991000D01*
X263227816Y-131991000D01*
X263392228Y-132023703D01*
G37*
G36*
X170099616Y-129043977D02*
G01*
X170337711Y-129142599D01*
X170551992Y-129285777D01*
X170734223Y-129468008D01*
X170877401Y-129682289D01*
X170976023Y-129920384D01*
X171026300Y-130173142D01*
X171026300Y-130430858D01*
X170976023Y-130683616D01*
X170877401Y-130921711D01*
X170734223Y-131135992D01*
X170551992Y-131318223D01*
X170337711Y-131461401D01*
X170099616Y-131560023D01*
X169846858Y-131610300D01*
X169589142Y-131610300D01*
X169336384Y-131560023D01*
X169098289Y-131461401D01*
X168884008Y-131318223D01*
X168701777Y-131135992D01*
X168558599Y-130921711D01*
X168459977Y-130683616D01*
X168409700Y-130430858D01*
X168409700Y-130173142D01*
X168459977Y-129920384D01*
X168558599Y-129682289D01*
X168701777Y-129468008D01*
X168884008Y-129285777D01*
X169098289Y-129142599D01*
X169336384Y-129043977D01*
X169589142Y-128993700D01*
X169846858Y-128993700D01*
X170099616Y-129043977D01*
G37*
G36*
X250099616Y-129043977D02*
G01*
X250337711Y-129142599D01*
X250551992Y-129285777D01*
X250734223Y-129468008D01*
X250877401Y-129682289D01*
X250976023Y-129920384D01*
X251026300Y-130173142D01*
X251026300Y-130430858D01*
X250976023Y-130683616D01*
X250877401Y-130921711D01*
X250734223Y-131135992D01*
X250551992Y-131318223D01*
X250337711Y-131461401D01*
X250099616Y-131560023D01*
X249846858Y-131610300D01*
X249589142Y-131610300D01*
X249336384Y-131560023D01*
X249098289Y-131461401D01*
X248884008Y-131318223D01*
X248701777Y-131135992D01*
X248558599Y-130921711D01*
X248459977Y-130683616D01*
X248409700Y-130430858D01*
X248409700Y-130173142D01*
X248459977Y-129920384D01*
X248558599Y-129682289D01*
X248701777Y-129468008D01*
X248884008Y-129285777D01*
X249098289Y-129142599D01*
X249336384Y-129043977D01*
X249589142Y-128993700D01*
X249846858Y-128993700D01*
X250099616Y-129043977D01*
G37*
G36*
X30099616Y-129043977D02*
G01*
X30337711Y-129142599D01*
X30551992Y-129285777D01*
X30734223Y-129468008D01*
X30877401Y-129682289D01*
X30976023Y-129920384D01*
X31026300Y-130173142D01*
X31026300Y-130430858D01*
X30976023Y-130683616D01*
X30877401Y-130921711D01*
X30734223Y-131135992D01*
X30551992Y-131318223D01*
X30337711Y-131461401D01*
X30099616Y-131560023D01*
X29846858Y-131610300D01*
X29589142Y-131610300D01*
X29336384Y-131560023D01*
X29098289Y-131461401D01*
X28884008Y-131318223D01*
X28701777Y-131135992D01*
X28558599Y-130921711D01*
X28459977Y-130683616D01*
X28409700Y-130430858D01*
X28409700Y-130173142D01*
X28459977Y-129920384D01*
X28558599Y-129682289D01*
X28701777Y-129468008D01*
X28884008Y-129285777D01*
X29098289Y-129142599D01*
X29336384Y-129043977D01*
X29589142Y-128993700D01*
X29846858Y-128993700D01*
X30099616Y-129043977D01*
G37*
G36*
X50099616Y-129043977D02*
G01*
X50337711Y-129142599D01*
X50551992Y-129285777D01*
X50734223Y-129468008D01*
X50877401Y-129682289D01*
X50976023Y-129920384D01*
X51026300Y-130173142D01*
X51026300Y-130430858D01*
X50976023Y-130683616D01*
X50877401Y-130921711D01*
X50734223Y-131135992D01*
X50551992Y-131318223D01*
X50337711Y-131461401D01*
X50099616Y-131560023D01*
X49846858Y-131610300D01*
X49589142Y-131610300D01*
X49336384Y-131560023D01*
X49098289Y-131461401D01*
X48884008Y-131318223D01*
X48701777Y-131135992D01*
X48558599Y-130921711D01*
X48459977Y-130683616D01*
X48409700Y-130430858D01*
X48409700Y-130173142D01*
X48459977Y-129920384D01*
X48558599Y-129682289D01*
X48701777Y-129468008D01*
X48884008Y-129285777D01*
X49098289Y-129142599D01*
X49336384Y-129043977D01*
X49589142Y-128993700D01*
X49846858Y-128993700D01*
X50099616Y-129043977D01*
G37*
G36*
X70099616Y-129043977D02*
G01*
X70337711Y-129142599D01*
X70551992Y-129285777D01*
X70734223Y-129468008D01*
X70877401Y-129682289D01*
X70976023Y-129920384D01*
X71026300Y-130173142D01*
X71026300Y-130430858D01*
X70976023Y-130683616D01*
X70877401Y-130921711D01*
X70734223Y-131135992D01*
X70551992Y-131318223D01*
X70337711Y-131461401D01*
X70099616Y-131560023D01*
X69846858Y-131610300D01*
X69589142Y-131610300D01*
X69336384Y-131560023D01*
X69098289Y-131461401D01*
X68884008Y-131318223D01*
X68701777Y-131135992D01*
X68558599Y-130921711D01*
X68459977Y-130683616D01*
X68409700Y-130430858D01*
X68409700Y-130173142D01*
X68459977Y-129920384D01*
X68558599Y-129682289D01*
X68701777Y-129468008D01*
X68884008Y-129285777D01*
X69098289Y-129142599D01*
X69336384Y-129043977D01*
X69589142Y-128993700D01*
X69846858Y-128993700D01*
X70099616Y-129043977D01*
G37*
G36*
X230099616Y-129043977D02*
G01*
X230337711Y-129142599D01*
X230551992Y-129285777D01*
X230734223Y-129468008D01*
X230877401Y-129682289D01*
X230976023Y-129920384D01*
X231026300Y-130173142D01*
X231026300Y-130430858D01*
X230976023Y-130683616D01*
X230877401Y-130921711D01*
X230734223Y-131135992D01*
X230551992Y-131318223D01*
X230337711Y-131461401D01*
X230099616Y-131560023D01*
X229846858Y-131610300D01*
X229589142Y-131610300D01*
X229336384Y-131560023D01*
X229098289Y-131461401D01*
X228884008Y-131318223D01*
X228701777Y-131135992D01*
X228558599Y-130921711D01*
X228459977Y-130683616D01*
X228409700Y-130430858D01*
X228409700Y-130173142D01*
X228459977Y-129920384D01*
X228558599Y-129682289D01*
X228701777Y-129468008D01*
X228884008Y-129285777D01*
X229098289Y-129142599D01*
X229336384Y-129043977D01*
X229589142Y-128993700D01*
X229846858Y-128993700D01*
X230099616Y-129043977D01*
G37*
G36*
X110099616Y-129043977D02*
G01*
X110337711Y-129142599D01*
X110551992Y-129285777D01*
X110734223Y-129468008D01*
X110877401Y-129682289D01*
X110976023Y-129920384D01*
X111026300Y-130173142D01*
X111026300Y-130430858D01*
X110976023Y-130683616D01*
X110877401Y-130921711D01*
X110734223Y-131135992D01*
X110551992Y-131318223D01*
X110337711Y-131461401D01*
X110099616Y-131560023D01*
X109846858Y-131610300D01*
X109589142Y-131610300D01*
X109336384Y-131560023D01*
X109098289Y-131461401D01*
X108884008Y-131318223D01*
X108701777Y-131135992D01*
X108558599Y-130921711D01*
X108459977Y-130683616D01*
X108409700Y-130430858D01*
X108409700Y-130173142D01*
X108459977Y-129920384D01*
X108558599Y-129682289D01*
X108701777Y-129468008D01*
X108884008Y-129285777D01*
X109098289Y-129142599D01*
X109336384Y-129043977D01*
X109589142Y-128993700D01*
X109846858Y-128993700D01*
X110099616Y-129043977D01*
G37*
G36*
X190099616Y-129043977D02*
G01*
X190337711Y-129142599D01*
X190551992Y-129285777D01*
X190734223Y-129468008D01*
X190877401Y-129682289D01*
X190976023Y-129920384D01*
X191026300Y-130173142D01*
X191026300Y-130430858D01*
X190976023Y-130683616D01*
X190877401Y-130921711D01*
X190734223Y-131135992D01*
X190551992Y-131318223D01*
X190337711Y-131461401D01*
X190099616Y-131560023D01*
X189846858Y-131610300D01*
X189589142Y-131610300D01*
X189336384Y-131560023D01*
X189098289Y-131461401D01*
X188884008Y-131318223D01*
X188701777Y-131135992D01*
X188558599Y-130921711D01*
X188459977Y-130683616D01*
X188409700Y-130430858D01*
X188409700Y-130173142D01*
X188459977Y-129920384D01*
X188558599Y-129682289D01*
X188701777Y-129468008D01*
X188884008Y-129285777D01*
X189098289Y-129142599D01*
X189336384Y-129043977D01*
X189589142Y-128993700D01*
X189846858Y-128993700D01*
X190099616Y-129043977D01*
G37*
G36*
X130099616Y-129043977D02*
G01*
X130337711Y-129142599D01*
X130551992Y-129285777D01*
X130734223Y-129468008D01*
X130877401Y-129682289D01*
X130976023Y-129920384D01*
X131026300Y-130173142D01*
X131026300Y-130430858D01*
X130976023Y-130683616D01*
X130877401Y-130921711D01*
X130734223Y-131135992D01*
X130551992Y-131318223D01*
X130337711Y-131461401D01*
X130099616Y-131560023D01*
X129846858Y-131610300D01*
X129589142Y-131610300D01*
X129336384Y-131560023D01*
X129098289Y-131461401D01*
X128884008Y-131318223D01*
X128701777Y-131135992D01*
X128558599Y-130921711D01*
X128459977Y-130683616D01*
X128409700Y-130430858D01*
X128409700Y-130173142D01*
X128459977Y-129920384D01*
X128558599Y-129682289D01*
X128701777Y-129468008D01*
X128884008Y-129285777D01*
X129098289Y-129142599D01*
X129336384Y-129043977D01*
X129589142Y-128993700D01*
X129846858Y-128993700D01*
X130099616Y-129043977D01*
G37*
G36*
X210099616Y-129043977D02*
G01*
X210337711Y-129142599D01*
X210551992Y-129285777D01*
X210734223Y-129468008D01*
X210877401Y-129682289D01*
X210976023Y-129920384D01*
X211026300Y-130173142D01*
X211026300Y-130430858D01*
X210976023Y-130683616D01*
X210877401Y-130921711D01*
X210734223Y-131135992D01*
X210551992Y-131318223D01*
X210337711Y-131461401D01*
X210099616Y-131560023D01*
X209846858Y-131610300D01*
X209589142Y-131610300D01*
X209336384Y-131560023D01*
X209098289Y-131461401D01*
X208884008Y-131318223D01*
X208701777Y-131135992D01*
X208558599Y-130921711D01*
X208459977Y-130683616D01*
X208409700Y-130430858D01*
X208409700Y-130173142D01*
X208459977Y-129920384D01*
X208558599Y-129682289D01*
X208701777Y-129468008D01*
X208884008Y-129285777D01*
X209098289Y-129142599D01*
X209336384Y-129043977D01*
X209589142Y-128993700D01*
X209846858Y-128993700D01*
X210099616Y-129043977D01*
G37*
G36*
X150099616Y-129043977D02*
G01*
X150337711Y-129142599D01*
X150551992Y-129285777D01*
X150734223Y-129468008D01*
X150877401Y-129682289D01*
X150976023Y-129920384D01*
X151026300Y-130173142D01*
X151026300Y-130430858D01*
X150976023Y-130683616D01*
X150877401Y-130921711D01*
X150734223Y-131135992D01*
X150551992Y-131318223D01*
X150337711Y-131461401D01*
X150099616Y-131560023D01*
X149846858Y-131610300D01*
X149589142Y-131610300D01*
X149336384Y-131560023D01*
X149098289Y-131461401D01*
X148884008Y-131318223D01*
X148701777Y-131135992D01*
X148558599Y-130921711D01*
X148459977Y-130683616D01*
X148409700Y-130430858D01*
X148409700Y-130173142D01*
X148459977Y-129920384D01*
X148558599Y-129682289D01*
X148701777Y-129468008D01*
X148884008Y-129285777D01*
X149098289Y-129142599D01*
X149336384Y-129043977D01*
X149589142Y-128993700D01*
X149846858Y-128993700D01*
X150099616Y-129043977D01*
G37*
G36*
X90099616Y-129043977D02*
G01*
X90337711Y-129142599D01*
X90551992Y-129285777D01*
X90734223Y-129468008D01*
X90877401Y-129682289D01*
X90976023Y-129920384D01*
X91026300Y-130173142D01*
X91026300Y-130430858D01*
X90976023Y-130683616D01*
X90877401Y-130921711D01*
X90734223Y-131135992D01*
X90551992Y-131318223D01*
X90337711Y-131461401D01*
X90099616Y-131560023D01*
X89846858Y-131610300D01*
X89589142Y-131610300D01*
X89336384Y-131560023D01*
X89098289Y-131461401D01*
X88884008Y-131318223D01*
X88701777Y-131135992D01*
X88558599Y-130921711D01*
X88459977Y-130683616D01*
X88409700Y-130430858D01*
X88409700Y-130173142D01*
X88459977Y-129920384D01*
X88558599Y-129682289D01*
X88701777Y-129468008D01*
X88884008Y-129285777D01*
X89098289Y-129142599D01*
X89336384Y-129043977D01*
X89589142Y-128993700D01*
X89846858Y-128993700D01*
X90099616Y-129043977D01*
G37*
G36*
X263392228Y-129483703D02*
G01*
X263547100Y-129547853D01*
X263686481Y-129640985D01*
X263805015Y-129759519D01*
X263898147Y-129898900D01*
X263962297Y-130053772D01*
X263995000Y-130218184D01*
X263995000Y-130385816D01*
X263962297Y-130550228D01*
X263898147Y-130705100D01*
X263805015Y-130844481D01*
X263686481Y-130963015D01*
X263547100Y-131056147D01*
X263392228Y-131120297D01*
X263227816Y-131153000D01*
X263060184Y-131153000D01*
X262895772Y-131120297D01*
X262740900Y-131056147D01*
X262601519Y-130963015D01*
X262482985Y-130844481D01*
X262389853Y-130705100D01*
X262325703Y-130550228D01*
X262293000Y-130385816D01*
X262293000Y-130218184D01*
X262325703Y-130053772D01*
X262389853Y-129898900D01*
X262482985Y-129759519D01*
X262601519Y-129640985D01*
X262740900Y-129547853D01*
X262895772Y-129483703D01*
X263060184Y-129451000D01*
X263227816Y-129451000D01*
X263392228Y-129483703D01*
G37*
G36*
X255772228Y-129483703D02*
G01*
X255927100Y-129547853D01*
X256066481Y-129640985D01*
X256185015Y-129759519D01*
X256278147Y-129898900D01*
X256342297Y-130053772D01*
X256375000Y-130218184D01*
X256375000Y-130385816D01*
X256342297Y-130550228D01*
X256278147Y-130705100D01*
X256185015Y-130844481D01*
X256066481Y-130963015D01*
X255927100Y-131056147D01*
X255772228Y-131120297D01*
X255607816Y-131153000D01*
X255440184Y-131153000D01*
X255275772Y-131120297D01*
X255120900Y-131056147D01*
X254981519Y-130963015D01*
X254862985Y-130844481D01*
X254769853Y-130705100D01*
X254705703Y-130550228D01*
X254673000Y-130385816D01*
X254673000Y-130218184D01*
X254705703Y-130053772D01*
X254769853Y-129898900D01*
X254862985Y-129759519D01*
X254981519Y-129640985D01*
X255120900Y-129547853D01*
X255275772Y-129483703D01*
X255440184Y-129451000D01*
X255607816Y-129451000D01*
X255772228Y-129483703D01*
G37*
G36*
X260852228Y-129483703D02*
G01*
X261007100Y-129547853D01*
X261146481Y-129640985D01*
X261265015Y-129759519D01*
X261358147Y-129898900D01*
X261422297Y-130053772D01*
X261455000Y-130218184D01*
X261455000Y-130385816D01*
X261422297Y-130550228D01*
X261358147Y-130705100D01*
X261265015Y-130844481D01*
X261146481Y-130963015D01*
X261007100Y-131056147D01*
X260852228Y-131120297D01*
X260687816Y-131153000D01*
X260520184Y-131153000D01*
X260355772Y-131120297D01*
X260200900Y-131056147D01*
X260061519Y-130963015D01*
X259942985Y-130844481D01*
X259849853Y-130705100D01*
X259785703Y-130550228D01*
X259753000Y-130385816D01*
X259753000Y-130218184D01*
X259785703Y-130053772D01*
X259849853Y-129898900D01*
X259942985Y-129759519D01*
X260061519Y-129640985D01*
X260200900Y-129547853D01*
X260355772Y-129483703D01*
X260520184Y-129451000D01*
X260687816Y-129451000D01*
X260852228Y-129483703D01*
G37*
G36*
X286252228Y-129483703D02*
G01*
X286407100Y-129547853D01*
X286546481Y-129640985D01*
X286665015Y-129759519D01*
X286758147Y-129898900D01*
X286822297Y-130053772D01*
X286855000Y-130218184D01*
X286855000Y-130385816D01*
X286822297Y-130550228D01*
X286758147Y-130705100D01*
X286665015Y-130844481D01*
X286546481Y-130963015D01*
X286407100Y-131056147D01*
X286252228Y-131120297D01*
X286087816Y-131153000D01*
X285920184Y-131153000D01*
X285755772Y-131120297D01*
X285600900Y-131056147D01*
X285461519Y-130963015D01*
X285342985Y-130844481D01*
X285249853Y-130705100D01*
X285185703Y-130550228D01*
X285153000Y-130385816D01*
X285153000Y-130218184D01*
X285185703Y-130053772D01*
X285249853Y-129898900D01*
X285342985Y-129759519D01*
X285461519Y-129640985D01*
X285600900Y-129547853D01*
X285755772Y-129483703D01*
X285920184Y-129451000D01*
X286087816Y-129451000D01*
X286252228Y-129483703D01*
G37*
G36*
X268472228Y-126943703D02*
G01*
X268627100Y-127007853D01*
X268766481Y-127100985D01*
X268885015Y-127219519D01*
X268978147Y-127358900D01*
X269042297Y-127513772D01*
X269075000Y-127678184D01*
X269075000Y-127845816D01*
X269042297Y-128010228D01*
X268978147Y-128165100D01*
X268885015Y-128304481D01*
X268766481Y-128423015D01*
X268627100Y-128516147D01*
X268472228Y-128580297D01*
X268307816Y-128613000D01*
X268140184Y-128613000D01*
X267975772Y-128580297D01*
X267820900Y-128516147D01*
X267681519Y-128423015D01*
X267562985Y-128304481D01*
X267469853Y-128165100D01*
X267405703Y-128010228D01*
X267373000Y-127845816D01*
X267373000Y-127678184D01*
X267405703Y-127513772D01*
X267469853Y-127358900D01*
X267562985Y-127219519D01*
X267681519Y-127100985D01*
X267820900Y-127007853D01*
X267975772Y-126943703D01*
X268140184Y-126911000D01*
X268307816Y-126911000D01*
X268472228Y-126943703D01*
G37*
G36*
X255772228Y-126943703D02*
G01*
X255927100Y-127007853D01*
X256066481Y-127100985D01*
X256185015Y-127219519D01*
X256278147Y-127358900D01*
X256342297Y-127513772D01*
X256375000Y-127678184D01*
X256375000Y-127845816D01*
X256342297Y-128010228D01*
X256278147Y-128165100D01*
X256185015Y-128304481D01*
X256066481Y-128423015D01*
X255927100Y-128516147D01*
X255772228Y-128580297D01*
X255607816Y-128613000D01*
X255440184Y-128613000D01*
X255275772Y-128580297D01*
X255120900Y-128516147D01*
X254981519Y-128423015D01*
X254862985Y-128304481D01*
X254769853Y-128165100D01*
X254705703Y-128010228D01*
X254673000Y-127845816D01*
X254673000Y-127678184D01*
X254705703Y-127513772D01*
X254769853Y-127358900D01*
X254862985Y-127219519D01*
X254981519Y-127100985D01*
X255120900Y-127007853D01*
X255275772Y-126943703D01*
X255440184Y-126911000D01*
X255607816Y-126911000D01*
X255772228Y-126943703D01*
G37*
G36*
X258312228Y-126943703D02*
G01*
X258467100Y-127007853D01*
X258606481Y-127100985D01*
X258725015Y-127219519D01*
X258818147Y-127358900D01*
X258882297Y-127513772D01*
X258915000Y-127678184D01*
X258915000Y-127845816D01*
X258882297Y-128010228D01*
X258818147Y-128165100D01*
X258725015Y-128304481D01*
X258606481Y-128423015D01*
X258467100Y-128516147D01*
X258312228Y-128580297D01*
X258147816Y-128613000D01*
X257980184Y-128613000D01*
X257815772Y-128580297D01*
X257660900Y-128516147D01*
X257521519Y-128423015D01*
X257402985Y-128304481D01*
X257309853Y-128165100D01*
X257245703Y-128010228D01*
X257213000Y-127845816D01*
X257213000Y-127678184D01*
X257245703Y-127513772D01*
X257309853Y-127358900D01*
X257402985Y-127219519D01*
X257521519Y-127100985D01*
X257660900Y-127007853D01*
X257815772Y-126943703D01*
X257980184Y-126911000D01*
X258147816Y-126911000D01*
X258312228Y-126943703D01*
G37*
G36*
X288792228Y-126943703D02*
G01*
X288947100Y-127007853D01*
X289086481Y-127100985D01*
X289205015Y-127219519D01*
X289298147Y-127358900D01*
X289362297Y-127513772D01*
X289395000Y-127678184D01*
X289395000Y-127845816D01*
X289362297Y-128010228D01*
X289298147Y-128165100D01*
X289205015Y-128304481D01*
X289086481Y-128423015D01*
X288947100Y-128516147D01*
X288792228Y-128580297D01*
X288627816Y-128613000D01*
X288460184Y-128613000D01*
X288295772Y-128580297D01*
X288140900Y-128516147D01*
X288001519Y-128423015D01*
X287882985Y-128304481D01*
X287789853Y-128165100D01*
X287725703Y-128010228D01*
X287693000Y-127845816D01*
X287693000Y-127678184D01*
X287725703Y-127513772D01*
X287789853Y-127358900D01*
X287882985Y-127219519D01*
X288001519Y-127100985D01*
X288140900Y-127007853D01*
X288295772Y-126943703D01*
X288460184Y-126911000D01*
X288627816Y-126911000D01*
X288792228Y-126943703D01*
G37*
G36*
X286252228Y-126943703D02*
G01*
X286407100Y-127007853D01*
X286546481Y-127100985D01*
X286665015Y-127219519D01*
X286758147Y-127358900D01*
X286822297Y-127513772D01*
X286855000Y-127678184D01*
X286855000Y-127845816D01*
X286822297Y-128010228D01*
X286758147Y-128165100D01*
X286665015Y-128304481D01*
X286546481Y-128423015D01*
X286407100Y-128516147D01*
X286252228Y-128580297D01*
X286087816Y-128613000D01*
X285920184Y-128613000D01*
X285755772Y-128580297D01*
X285600900Y-128516147D01*
X285461519Y-128423015D01*
X285342985Y-128304481D01*
X285249853Y-128165100D01*
X285185703Y-128010228D01*
X285153000Y-127845816D01*
X285153000Y-127678184D01*
X285185703Y-127513772D01*
X285249853Y-127358900D01*
X285342985Y-127219519D01*
X285461519Y-127100985D01*
X285600900Y-127007853D01*
X285755772Y-126943703D01*
X285920184Y-126911000D01*
X286087816Y-126911000D01*
X286252228Y-126943703D01*
G37*
G36*
X283712228Y-126943703D02*
G01*
X283867100Y-127007853D01*
X284006481Y-127100985D01*
X284125015Y-127219519D01*
X284218147Y-127358900D01*
X284282297Y-127513772D01*
X284315000Y-127678184D01*
X284315000Y-127845816D01*
X284282297Y-128010228D01*
X284218147Y-128165100D01*
X284125015Y-128304481D01*
X284006481Y-128423015D01*
X283867100Y-128516147D01*
X283712228Y-128580297D01*
X283547816Y-128613000D01*
X283380184Y-128613000D01*
X283215772Y-128580297D01*
X283060900Y-128516147D01*
X282921519Y-128423015D01*
X282802985Y-128304481D01*
X282709853Y-128165100D01*
X282645703Y-128010228D01*
X282613000Y-127845816D01*
X282613000Y-127678184D01*
X282645703Y-127513772D01*
X282709853Y-127358900D01*
X282802985Y-127219519D01*
X282921519Y-127100985D01*
X283060900Y-127007853D01*
X283215772Y-126943703D01*
X283380184Y-126911000D01*
X283547816Y-126911000D01*
X283712228Y-126943703D01*
G37*
G36*
X281172228Y-126943703D02*
G01*
X281327100Y-127007853D01*
X281466481Y-127100985D01*
X281585015Y-127219519D01*
X281678147Y-127358900D01*
X281742297Y-127513772D01*
X281775000Y-127678184D01*
X281775000Y-127845816D01*
X281742297Y-128010228D01*
X281678147Y-128165100D01*
X281585015Y-128304481D01*
X281466481Y-128423015D01*
X281327100Y-128516147D01*
X281172228Y-128580297D01*
X281007816Y-128613000D01*
X280840184Y-128613000D01*
X280675772Y-128580297D01*
X280520900Y-128516147D01*
X280381519Y-128423015D01*
X280262985Y-128304481D01*
X280169853Y-128165100D01*
X280105703Y-128010228D01*
X280073000Y-127845816D01*
X280073000Y-127678184D01*
X280105703Y-127513772D01*
X280169853Y-127358900D01*
X280262985Y-127219519D01*
X280381519Y-127100985D01*
X280520900Y-127007853D01*
X280675772Y-126943703D01*
X280840184Y-126911000D01*
X281007816Y-126911000D01*
X281172228Y-126943703D01*
G37*
G36*
X278632228Y-126943703D02*
G01*
X278787100Y-127007853D01*
X278926481Y-127100985D01*
X279045015Y-127219519D01*
X279138147Y-127358900D01*
X279202297Y-127513772D01*
X279235000Y-127678184D01*
X279235000Y-127845816D01*
X279202297Y-128010228D01*
X279138147Y-128165100D01*
X279045015Y-128304481D01*
X278926481Y-128423015D01*
X278787100Y-128516147D01*
X278632228Y-128580297D01*
X278467816Y-128613000D01*
X278300184Y-128613000D01*
X278135772Y-128580297D01*
X277980900Y-128516147D01*
X277841519Y-128423015D01*
X277722985Y-128304481D01*
X277629853Y-128165100D01*
X277565703Y-128010228D01*
X277533000Y-127845816D01*
X277533000Y-127678184D01*
X277565703Y-127513772D01*
X277629853Y-127358900D01*
X277722985Y-127219519D01*
X277841519Y-127100985D01*
X277980900Y-127007853D01*
X278135772Y-126943703D01*
X278300184Y-126911000D01*
X278467816Y-126911000D01*
X278632228Y-126943703D01*
G37*
G36*
X276092228Y-126943703D02*
G01*
X276247100Y-127007853D01*
X276386481Y-127100985D01*
X276505015Y-127219519D01*
X276598147Y-127358900D01*
X276662297Y-127513772D01*
X276695000Y-127678184D01*
X276695000Y-127845816D01*
X276662297Y-128010228D01*
X276598147Y-128165100D01*
X276505015Y-128304481D01*
X276386481Y-128423015D01*
X276247100Y-128516147D01*
X276092228Y-128580297D01*
X275927816Y-128613000D01*
X275760184Y-128613000D01*
X275595772Y-128580297D01*
X275440900Y-128516147D01*
X275301519Y-128423015D01*
X275182985Y-128304481D01*
X275089853Y-128165100D01*
X275025703Y-128010228D01*
X274993000Y-127845816D01*
X274993000Y-127678184D01*
X275025703Y-127513772D01*
X275089853Y-127358900D01*
X275182985Y-127219519D01*
X275301519Y-127100985D01*
X275440900Y-127007853D01*
X275595772Y-126943703D01*
X275760184Y-126911000D01*
X275927816Y-126911000D01*
X276092228Y-126943703D01*
G37*
G36*
X260852228Y-126943703D02*
G01*
X261007100Y-127007853D01*
X261146481Y-127100985D01*
X261265015Y-127219519D01*
X261358147Y-127358900D01*
X261422297Y-127513772D01*
X261455000Y-127678184D01*
X261455000Y-127845816D01*
X261422297Y-128010228D01*
X261358147Y-128165100D01*
X261265015Y-128304481D01*
X261146481Y-128423015D01*
X261007100Y-128516147D01*
X260852228Y-128580297D01*
X260687816Y-128613000D01*
X260520184Y-128613000D01*
X260355772Y-128580297D01*
X260200900Y-128516147D01*
X260061519Y-128423015D01*
X259942985Y-128304481D01*
X259849853Y-128165100D01*
X259785703Y-128010228D01*
X259753000Y-127845816D01*
X259753000Y-127678184D01*
X259785703Y-127513772D01*
X259849853Y-127358900D01*
X259942985Y-127219519D01*
X260061519Y-127100985D01*
X260200900Y-127007853D01*
X260355772Y-126943703D01*
X260520184Y-126911000D01*
X260687816Y-126911000D01*
X260852228Y-126943703D01*
G37*
G36*
X271012228Y-126943703D02*
G01*
X271167100Y-127007853D01*
X271306481Y-127100985D01*
X271425015Y-127219519D01*
X271518147Y-127358900D01*
X271582297Y-127513772D01*
X271615000Y-127678184D01*
X271615000Y-127845816D01*
X271582297Y-128010228D01*
X271518147Y-128165100D01*
X271425015Y-128304481D01*
X271306481Y-128423015D01*
X271167100Y-128516147D01*
X271012228Y-128580297D01*
X270847816Y-128613000D01*
X270680184Y-128613000D01*
X270515772Y-128580297D01*
X270360900Y-128516147D01*
X270221519Y-128423015D01*
X270102985Y-128304481D01*
X270009853Y-128165100D01*
X269945703Y-128010228D01*
X269913000Y-127845816D01*
X269913000Y-127678184D01*
X269945703Y-127513772D01*
X270009853Y-127358900D01*
X270102985Y-127219519D01*
X270221519Y-127100985D01*
X270360900Y-127007853D01*
X270515772Y-126943703D01*
X270680184Y-126911000D01*
X270847816Y-126911000D01*
X271012228Y-126943703D01*
G37*
G36*
X265932228Y-126943703D02*
G01*
X266087100Y-127007853D01*
X266226481Y-127100985D01*
X266345015Y-127219519D01*
X266438147Y-127358900D01*
X266502297Y-127513772D01*
X266535000Y-127678184D01*
X266535000Y-127845816D01*
X266502297Y-128010228D01*
X266438147Y-128165100D01*
X266345015Y-128304481D01*
X266226481Y-128423015D01*
X266087100Y-128516147D01*
X265932228Y-128580297D01*
X265767816Y-128613000D01*
X265600184Y-128613000D01*
X265435772Y-128580297D01*
X265280900Y-128516147D01*
X265141519Y-128423015D01*
X265022985Y-128304481D01*
X264929853Y-128165100D01*
X264865703Y-128010228D01*
X264833000Y-127845816D01*
X264833000Y-127678184D01*
X264865703Y-127513772D01*
X264929853Y-127358900D01*
X265022985Y-127219519D01*
X265141519Y-127100985D01*
X265280900Y-127007853D01*
X265435772Y-126943703D01*
X265600184Y-126911000D01*
X265767816Y-126911000D01*
X265932228Y-126943703D01*
G37*
G36*
X263392228Y-126943703D02*
G01*
X263547100Y-127007853D01*
X263686481Y-127100985D01*
X263805015Y-127219519D01*
X263898147Y-127358900D01*
X263962297Y-127513772D01*
X263995000Y-127678184D01*
X263995000Y-127845816D01*
X263962297Y-128010228D01*
X263898147Y-128165100D01*
X263805015Y-128304481D01*
X263686481Y-128423015D01*
X263547100Y-128516147D01*
X263392228Y-128580297D01*
X263227816Y-128613000D01*
X263060184Y-128613000D01*
X262895772Y-128580297D01*
X262740900Y-128516147D01*
X262601519Y-128423015D01*
X262482985Y-128304481D01*
X262389853Y-128165100D01*
X262325703Y-128010228D01*
X262293000Y-127845816D01*
X262293000Y-127678184D01*
X262325703Y-127513772D01*
X262389853Y-127358900D01*
X262482985Y-127219519D01*
X262601519Y-127100985D01*
X262740900Y-127007853D01*
X262895772Y-126943703D01*
X263060184Y-126911000D01*
X263227816Y-126911000D01*
X263392228Y-126943703D01*
G37*
G36*
X273552228Y-126943703D02*
G01*
X273707100Y-127007853D01*
X273846481Y-127100985D01*
X273965015Y-127219519D01*
X274058147Y-127358900D01*
X274122297Y-127513772D01*
X274155000Y-127678184D01*
X274155000Y-127845816D01*
X274122297Y-128010228D01*
X274058147Y-128165100D01*
X273965015Y-128304481D01*
X273846481Y-128423015D01*
X273707100Y-128516147D01*
X273552228Y-128580297D01*
X273387816Y-128613000D01*
X273220184Y-128613000D01*
X273055772Y-128580297D01*
X272900900Y-128516147D01*
X272761519Y-128423015D01*
X272642985Y-128304481D01*
X272549853Y-128165100D01*
X272485703Y-128010228D01*
X272453000Y-127845816D01*
X272453000Y-127678184D01*
X272485703Y-127513772D01*
X272549853Y-127358900D01*
X272642985Y-127219519D01*
X272761519Y-127100985D01*
X272900900Y-127007853D01*
X273055772Y-126943703D01*
X273220184Y-126911000D01*
X273387816Y-126911000D01*
X273552228Y-126943703D01*
G37*
G36*
X107436228Y-124911703D02*
G01*
X107591100Y-124975853D01*
X107730481Y-125068985D01*
X107849015Y-125187519D01*
X107942147Y-125326900D01*
X108006297Y-125481772D01*
X108039000Y-125646184D01*
X108039000Y-125813816D01*
X108006297Y-125978228D01*
X107942147Y-126133100D01*
X107849015Y-126272481D01*
X107730481Y-126391015D01*
X107591100Y-126484147D01*
X107436228Y-126548297D01*
X107271816Y-126581000D01*
X107104184Y-126581000D01*
X106939772Y-126548297D01*
X106784900Y-126484147D01*
X106645519Y-126391015D01*
X106526985Y-126272481D01*
X106433853Y-126133100D01*
X106369703Y-125978228D01*
X106337000Y-125813816D01*
X106337000Y-125646184D01*
X106369703Y-125481772D01*
X106433853Y-125326900D01*
X106526985Y-125187519D01*
X106645519Y-125068985D01*
X106784900Y-124975853D01*
X106939772Y-124911703D01*
X107104184Y-124879000D01*
X107271816Y-124879000D01*
X107436228Y-124911703D01*
G37*
G36*
X147314228Y-124911703D02*
G01*
X147469100Y-124975853D01*
X147608481Y-125068985D01*
X147727015Y-125187519D01*
X147820147Y-125326900D01*
X147884297Y-125481772D01*
X147917000Y-125646184D01*
X147917000Y-125813816D01*
X147884297Y-125978228D01*
X147820147Y-126133100D01*
X147727015Y-126272481D01*
X147608481Y-126391015D01*
X147469100Y-126484147D01*
X147314228Y-126548297D01*
X147149816Y-126581000D01*
X146982184Y-126581000D01*
X146817772Y-126548297D01*
X146662900Y-126484147D01*
X146523519Y-126391015D01*
X146404985Y-126272481D01*
X146311853Y-126133100D01*
X146247703Y-125978228D01*
X146215000Y-125813816D01*
X146215000Y-125646184D01*
X146247703Y-125481772D01*
X146311853Y-125326900D01*
X146404985Y-125187519D01*
X146523519Y-125068985D01*
X146662900Y-124975853D01*
X146817772Y-124911703D01*
X146982184Y-124879000D01*
X147149816Y-124879000D01*
X147314228Y-124911703D01*
G37*
G36*
X144774228Y-124911703D02*
G01*
X144929100Y-124975853D01*
X145068481Y-125068985D01*
X145187015Y-125187519D01*
X145280147Y-125326900D01*
X145344297Y-125481772D01*
X145377000Y-125646184D01*
X145377000Y-125813816D01*
X145344297Y-125978228D01*
X145280147Y-126133100D01*
X145187015Y-126272481D01*
X145068481Y-126391015D01*
X144929100Y-126484147D01*
X144774228Y-126548297D01*
X144609816Y-126581000D01*
X144442184Y-126581000D01*
X144277772Y-126548297D01*
X144122900Y-126484147D01*
X143983519Y-126391015D01*
X143864985Y-126272481D01*
X143771853Y-126133100D01*
X143707703Y-125978228D01*
X143675000Y-125813816D01*
X143675000Y-125646184D01*
X143707703Y-125481772D01*
X143771853Y-125326900D01*
X143864985Y-125187519D01*
X143983519Y-125068985D01*
X144122900Y-124975853D01*
X144277772Y-124911703D01*
X144442184Y-124879000D01*
X144609816Y-124879000D01*
X144774228Y-124911703D01*
G37*
G36*
X127248228Y-124911703D02*
G01*
X127403100Y-124975853D01*
X127542481Y-125068985D01*
X127661015Y-125187519D01*
X127754147Y-125326900D01*
X127818297Y-125481772D01*
X127851000Y-125646184D01*
X127851000Y-125813816D01*
X127818297Y-125978228D01*
X127754147Y-126133100D01*
X127661015Y-126272481D01*
X127542481Y-126391015D01*
X127403100Y-126484147D01*
X127248228Y-126548297D01*
X127083816Y-126581000D01*
X126916184Y-126581000D01*
X126751772Y-126548297D01*
X126596900Y-126484147D01*
X126457519Y-126391015D01*
X126338985Y-126272481D01*
X126245853Y-126133100D01*
X126181703Y-125978228D01*
X126149000Y-125813816D01*
X126149000Y-125646184D01*
X126181703Y-125481772D01*
X126245853Y-125326900D01*
X126338985Y-125187519D01*
X126457519Y-125068985D01*
X126596900Y-124975853D01*
X126751772Y-124911703D01*
X126916184Y-124879000D01*
X127083816Y-124879000D01*
X127248228Y-124911703D01*
G37*
G36*
X124708228Y-124911703D02*
G01*
X124863100Y-124975853D01*
X125002481Y-125068985D01*
X125121015Y-125187519D01*
X125214147Y-125326900D01*
X125278297Y-125481772D01*
X125311000Y-125646184D01*
X125311000Y-125813816D01*
X125278297Y-125978228D01*
X125214147Y-126133100D01*
X125121015Y-126272481D01*
X125002481Y-126391015D01*
X124863100Y-126484147D01*
X124708228Y-126548297D01*
X124543816Y-126581000D01*
X124376184Y-126581000D01*
X124211772Y-126548297D01*
X124056900Y-126484147D01*
X123917519Y-126391015D01*
X123798985Y-126272481D01*
X123705853Y-126133100D01*
X123641703Y-125978228D01*
X123609000Y-125813816D01*
X123609000Y-125646184D01*
X123641703Y-125481772D01*
X123705853Y-125326900D01*
X123798985Y-125187519D01*
X123917519Y-125068985D01*
X124056900Y-124975853D01*
X124211772Y-124911703D01*
X124376184Y-124879000D01*
X124543816Y-124879000D01*
X124708228Y-124911703D01*
G37*
G36*
X67304228Y-124911703D02*
G01*
X67459100Y-124975853D01*
X67598481Y-125068985D01*
X67717015Y-125187519D01*
X67810147Y-125326900D01*
X67874297Y-125481772D01*
X67907000Y-125646184D01*
X67907000Y-125813816D01*
X67874297Y-125978228D01*
X67810147Y-126133100D01*
X67717015Y-126272481D01*
X67598481Y-126391015D01*
X67459100Y-126484147D01*
X67304228Y-126548297D01*
X67139816Y-126581000D01*
X66972184Y-126581000D01*
X66807772Y-126548297D01*
X66652900Y-126484147D01*
X66513519Y-126391015D01*
X66394985Y-126272481D01*
X66301853Y-126133100D01*
X66237703Y-125978228D01*
X66205000Y-125813816D01*
X66205000Y-125646184D01*
X66237703Y-125481772D01*
X66301853Y-125326900D01*
X66394985Y-125187519D01*
X66513519Y-125068985D01*
X66652900Y-124975853D01*
X66807772Y-124911703D01*
X66972184Y-124879000D01*
X67139816Y-124879000D01*
X67304228Y-124911703D01*
G37*
G36*
X64764228Y-124911703D02*
G01*
X64919100Y-124975853D01*
X65058481Y-125068985D01*
X65177015Y-125187519D01*
X65270147Y-125326900D01*
X65334297Y-125481772D01*
X65367000Y-125646184D01*
X65367000Y-125813816D01*
X65334297Y-125978228D01*
X65270147Y-126133100D01*
X65177015Y-126272481D01*
X65058481Y-126391015D01*
X64919100Y-126484147D01*
X64764228Y-126548297D01*
X64599816Y-126581000D01*
X64432184Y-126581000D01*
X64267772Y-126548297D01*
X64112900Y-126484147D01*
X63973519Y-126391015D01*
X63854985Y-126272481D01*
X63761853Y-126133100D01*
X63697703Y-125978228D01*
X63665000Y-125813816D01*
X63665000Y-125646184D01*
X63697703Y-125481772D01*
X63761853Y-125326900D01*
X63854985Y-125187519D01*
X63973519Y-125068985D01*
X64112900Y-124975853D01*
X64267772Y-124911703D01*
X64432184Y-124879000D01*
X64599816Y-124879000D01*
X64764228Y-124911703D01*
G37*
G36*
X47238228Y-124911703D02*
G01*
X47393100Y-124975853D01*
X47532481Y-125068985D01*
X47651015Y-125187519D01*
X47744147Y-125326900D01*
X47808297Y-125481772D01*
X47841000Y-125646184D01*
X47841000Y-125813816D01*
X47808297Y-125978228D01*
X47744147Y-126133100D01*
X47651015Y-126272481D01*
X47532481Y-126391015D01*
X47393100Y-126484147D01*
X47238228Y-126548297D01*
X47073816Y-126581000D01*
X46906184Y-126581000D01*
X46741772Y-126548297D01*
X46586900Y-126484147D01*
X46447519Y-126391015D01*
X46328985Y-126272481D01*
X46235853Y-126133100D01*
X46171703Y-125978228D01*
X46139000Y-125813816D01*
X46139000Y-125646184D01*
X46171703Y-125481772D01*
X46235853Y-125326900D01*
X46328985Y-125187519D01*
X46447519Y-125068985D01*
X46586900Y-124975853D01*
X46741772Y-124911703D01*
X46906184Y-124879000D01*
X47073816Y-124879000D01*
X47238228Y-124911703D01*
G37*
G36*
X44698228Y-124911703D02*
G01*
X44853100Y-124975853D01*
X44992481Y-125068985D01*
X45111015Y-125187519D01*
X45204147Y-125326900D01*
X45268297Y-125481772D01*
X45301000Y-125646184D01*
X45301000Y-125813816D01*
X45268297Y-125978228D01*
X45204147Y-126133100D01*
X45111015Y-126272481D01*
X44992481Y-126391015D01*
X44853100Y-126484147D01*
X44698228Y-126548297D01*
X44533816Y-126581000D01*
X44366184Y-126581000D01*
X44201772Y-126548297D01*
X44046900Y-126484147D01*
X43907519Y-126391015D01*
X43788985Y-126272481D01*
X43695853Y-126133100D01*
X43631703Y-125978228D01*
X43599000Y-125813816D01*
X43599000Y-125646184D01*
X43631703Y-125481772D01*
X43695853Y-125326900D01*
X43788985Y-125187519D01*
X43907519Y-125068985D01*
X44046900Y-124975853D01*
X44201772Y-124911703D01*
X44366184Y-124879000D01*
X44533816Y-124879000D01*
X44698228Y-124911703D01*
G37*
G36*
X24886228Y-124911703D02*
G01*
X25041100Y-124975853D01*
X25180481Y-125068985D01*
X25299015Y-125187519D01*
X25392147Y-125326900D01*
X25456297Y-125481772D01*
X25489000Y-125646184D01*
X25489000Y-125813816D01*
X25456297Y-125978228D01*
X25392147Y-126133100D01*
X25299015Y-126272481D01*
X25180481Y-126391015D01*
X25041100Y-126484147D01*
X24886228Y-126548297D01*
X24721816Y-126581000D01*
X24554184Y-126581000D01*
X24389772Y-126548297D01*
X24234900Y-126484147D01*
X24095519Y-126391015D01*
X23976985Y-126272481D01*
X23883853Y-126133100D01*
X23819703Y-125978228D01*
X23787000Y-125813816D01*
X23787000Y-125646184D01*
X23819703Y-125481772D01*
X23883853Y-125326900D01*
X23976985Y-125187519D01*
X24095519Y-125068985D01*
X24234900Y-124975853D01*
X24389772Y-124911703D01*
X24554184Y-124879000D01*
X24721816Y-124879000D01*
X24886228Y-124911703D01*
G37*
G36*
X227324228Y-124911703D02*
G01*
X227479100Y-124975853D01*
X227618481Y-125068985D01*
X227737015Y-125187519D01*
X227830147Y-125326900D01*
X227894297Y-125481772D01*
X227927000Y-125646184D01*
X227927000Y-125813816D01*
X227894297Y-125978228D01*
X227830147Y-126133100D01*
X227737015Y-126272481D01*
X227618481Y-126391015D01*
X227479100Y-126484147D01*
X227324228Y-126548297D01*
X227159816Y-126581000D01*
X226992184Y-126581000D01*
X226827772Y-126548297D01*
X226672900Y-126484147D01*
X226533519Y-126391015D01*
X226414985Y-126272481D01*
X226321853Y-126133100D01*
X226257703Y-125978228D01*
X226225000Y-125813816D01*
X226225000Y-125646184D01*
X226257703Y-125481772D01*
X226321853Y-125326900D01*
X226414985Y-125187519D01*
X226533519Y-125068985D01*
X226672900Y-124975853D01*
X226827772Y-124911703D01*
X226992184Y-124879000D01*
X227159816Y-124879000D01*
X227324228Y-124911703D01*
G37*
G36*
X224784228Y-124911703D02*
G01*
X224939100Y-124975853D01*
X225078481Y-125068985D01*
X225197015Y-125187519D01*
X225290147Y-125326900D01*
X225354297Y-125481772D01*
X225387000Y-125646184D01*
X225387000Y-125813816D01*
X225354297Y-125978228D01*
X225290147Y-126133100D01*
X225197015Y-126272481D01*
X225078481Y-126391015D01*
X224939100Y-126484147D01*
X224784228Y-126548297D01*
X224619816Y-126581000D01*
X224452184Y-126581000D01*
X224287772Y-126548297D01*
X224132900Y-126484147D01*
X223993519Y-126391015D01*
X223874985Y-126272481D01*
X223781853Y-126133100D01*
X223717703Y-125978228D01*
X223685000Y-125813816D01*
X223685000Y-125646184D01*
X223717703Y-125481772D01*
X223781853Y-125326900D01*
X223874985Y-125187519D01*
X223993519Y-125068985D01*
X224132900Y-124975853D01*
X224287772Y-124911703D01*
X224452184Y-124879000D01*
X224619816Y-124879000D01*
X224784228Y-124911703D01*
G37*
G36*
X207258228Y-124911703D02*
G01*
X207413100Y-124975853D01*
X207552481Y-125068985D01*
X207671015Y-125187519D01*
X207764147Y-125326900D01*
X207828297Y-125481772D01*
X207861000Y-125646184D01*
X207861000Y-125813816D01*
X207828297Y-125978228D01*
X207764147Y-126133100D01*
X207671015Y-126272481D01*
X207552481Y-126391015D01*
X207413100Y-126484147D01*
X207258228Y-126548297D01*
X207093816Y-126581000D01*
X206926184Y-126581000D01*
X206761772Y-126548297D01*
X206606900Y-126484147D01*
X206467519Y-126391015D01*
X206348985Y-126272481D01*
X206255853Y-126133100D01*
X206191703Y-125978228D01*
X206159000Y-125813816D01*
X206159000Y-125646184D01*
X206191703Y-125481772D01*
X206255853Y-125326900D01*
X206348985Y-125187519D01*
X206467519Y-125068985D01*
X206606900Y-124975853D01*
X206761772Y-124911703D01*
X206926184Y-124879000D01*
X207093816Y-124879000D01*
X207258228Y-124911703D01*
G37*
G36*
X204718228Y-124911703D02*
G01*
X204873100Y-124975853D01*
X205012481Y-125068985D01*
X205131015Y-125187519D01*
X205224147Y-125326900D01*
X205288297Y-125481772D01*
X205321000Y-125646184D01*
X205321000Y-125813816D01*
X205288297Y-125978228D01*
X205224147Y-126133100D01*
X205131015Y-126272481D01*
X205012481Y-126391015D01*
X204873100Y-126484147D01*
X204718228Y-126548297D01*
X204553816Y-126581000D01*
X204386184Y-126581000D01*
X204221772Y-126548297D01*
X204066900Y-126484147D01*
X203927519Y-126391015D01*
X203808985Y-126272481D01*
X203715853Y-126133100D01*
X203651703Y-125978228D01*
X203619000Y-125813816D01*
X203619000Y-125646184D01*
X203651703Y-125481772D01*
X203715853Y-125326900D01*
X203808985Y-125187519D01*
X203927519Y-125068985D01*
X204066900Y-124975853D01*
X204221772Y-124911703D01*
X204386184Y-124879000D01*
X204553816Y-124879000D01*
X204718228Y-124911703D01*
G37*
G36*
X187446228Y-124911703D02*
G01*
X187601100Y-124975853D01*
X187740481Y-125068985D01*
X187859015Y-125187519D01*
X187952147Y-125326900D01*
X188016297Y-125481772D01*
X188049000Y-125646184D01*
X188049000Y-125813816D01*
X188016297Y-125978228D01*
X187952147Y-126133100D01*
X187859015Y-126272481D01*
X187740481Y-126391015D01*
X187601100Y-126484147D01*
X187446228Y-126548297D01*
X187281816Y-126581000D01*
X187114184Y-126581000D01*
X186949772Y-126548297D01*
X186794900Y-126484147D01*
X186655519Y-126391015D01*
X186536985Y-126272481D01*
X186443853Y-126133100D01*
X186379703Y-125978228D01*
X186347000Y-125813816D01*
X186347000Y-125646184D01*
X186379703Y-125481772D01*
X186443853Y-125326900D01*
X186536985Y-125187519D01*
X186655519Y-125068985D01*
X186794900Y-124975853D01*
X186949772Y-124911703D01*
X187114184Y-124879000D01*
X187281816Y-124879000D01*
X187446228Y-124911703D01*
G37*
G36*
X184906228Y-124911703D02*
G01*
X185061100Y-124975853D01*
X185200481Y-125068985D01*
X185319015Y-125187519D01*
X185412147Y-125326900D01*
X185476297Y-125481772D01*
X185509000Y-125646184D01*
X185509000Y-125813816D01*
X185476297Y-125978228D01*
X185412147Y-126133100D01*
X185319015Y-126272481D01*
X185200481Y-126391015D01*
X185061100Y-126484147D01*
X184906228Y-126548297D01*
X184741816Y-126581000D01*
X184574184Y-126581000D01*
X184409772Y-126548297D01*
X184254900Y-126484147D01*
X184115519Y-126391015D01*
X183996985Y-126272481D01*
X183903853Y-126133100D01*
X183839703Y-125978228D01*
X183807000Y-125813816D01*
X183807000Y-125646184D01*
X183839703Y-125481772D01*
X183903853Y-125326900D01*
X183996985Y-125187519D01*
X184115519Y-125068985D01*
X184254900Y-124975853D01*
X184409772Y-124911703D01*
X184574184Y-124879000D01*
X184741816Y-124879000D01*
X184906228Y-124911703D01*
G37*
G36*
X104896228Y-124911703D02*
G01*
X105051100Y-124975853D01*
X105190481Y-125068985D01*
X105309015Y-125187519D01*
X105402147Y-125326900D01*
X105466297Y-125481772D01*
X105499000Y-125646184D01*
X105499000Y-125813816D01*
X105466297Y-125978228D01*
X105402147Y-126133100D01*
X105309015Y-126272481D01*
X105190481Y-126391015D01*
X105051100Y-126484147D01*
X104896228Y-126548297D01*
X104731816Y-126581000D01*
X104564184Y-126581000D01*
X104399772Y-126548297D01*
X104244900Y-126484147D01*
X104105519Y-126391015D01*
X103986985Y-126272481D01*
X103893853Y-126133100D01*
X103829703Y-125978228D01*
X103797000Y-125813816D01*
X103797000Y-125646184D01*
X103829703Y-125481772D01*
X103893853Y-125326900D01*
X103986985Y-125187519D01*
X104105519Y-125068985D01*
X104244900Y-124975853D01*
X104399772Y-124911703D01*
X104564184Y-124879000D01*
X104731816Y-124879000D01*
X104896228Y-124911703D01*
G37*
G36*
X27426228Y-124911703D02*
G01*
X27581100Y-124975853D01*
X27720481Y-125068985D01*
X27839015Y-125187519D01*
X27932147Y-125326900D01*
X27996297Y-125481772D01*
X28029000Y-125646184D01*
X28029000Y-125813816D01*
X27996297Y-125978228D01*
X27932147Y-126133100D01*
X27839015Y-126272481D01*
X27720481Y-126391015D01*
X27581100Y-126484147D01*
X27426228Y-126548297D01*
X27261816Y-126581000D01*
X27094184Y-126581000D01*
X26929772Y-126548297D01*
X26774900Y-126484147D01*
X26635519Y-126391015D01*
X26516985Y-126272481D01*
X26423853Y-126133100D01*
X26359703Y-125978228D01*
X26327000Y-125813816D01*
X26327000Y-125646184D01*
X26359703Y-125481772D01*
X26423853Y-125326900D01*
X26516985Y-125187519D01*
X26635519Y-125068985D01*
X26774900Y-124975853D01*
X26929772Y-124911703D01*
X27094184Y-124879000D01*
X27261816Y-124879000D01*
X27426228Y-124911703D01*
G37*
G36*
X270877512Y-122547927D02*
G01*
X271026812Y-122577624D01*
X271190784Y-122645544D01*
X271338354Y-122744147D01*
X271463853Y-122869646D01*
X271562456Y-123017216D01*
X271630376Y-123181188D01*
X271665000Y-123355259D01*
X271665000Y-123532741D01*
X271630376Y-123706812D01*
X271562456Y-123870784D01*
X271463853Y-124018354D01*
X271338354Y-124143853D01*
X271190784Y-124242456D01*
X271026812Y-124310376D01*
X270877512Y-124340073D01*
X270852742Y-124345000D01*
X270675258Y-124345000D01*
X270650488Y-124340073D01*
X270501188Y-124310376D01*
X270337216Y-124242456D01*
X270189646Y-124143853D01*
X270064147Y-124018354D01*
X269965544Y-123870784D01*
X269897624Y-123706812D01*
X269863000Y-123532741D01*
X269863000Y-123355259D01*
X269897624Y-123181188D01*
X269965544Y-123017216D01*
X270064147Y-122869646D01*
X270189646Y-122744147D01*
X270337216Y-122645544D01*
X270501188Y-122577624D01*
X270650488Y-122547927D01*
X270675258Y-122543000D01*
X270852742Y-122543000D01*
X270877512Y-122547927D01*
G37*
G36*
X269125000Y-124345000D02*
G01*
X267323000Y-124345000D01*
X267323000Y-122543000D01*
X269125000Y-122543000D01*
X269125000Y-124345000D01*
G37*
G36*
X273417512Y-122547927D02*
G01*
X273566812Y-122577624D01*
X273730784Y-122645544D01*
X273878354Y-122744147D01*
X274003853Y-122869646D01*
X274102456Y-123017216D01*
X274170376Y-123181188D01*
X274205000Y-123355259D01*
X274205000Y-123532741D01*
X274170376Y-123706812D01*
X274102456Y-123870784D01*
X274003853Y-124018354D01*
X273878354Y-124143853D01*
X273730784Y-124242456D01*
X273566812Y-124310376D01*
X273417512Y-124340073D01*
X273392742Y-124345000D01*
X273215258Y-124345000D01*
X273190488Y-124340073D01*
X273041188Y-124310376D01*
X272877216Y-124242456D01*
X272729646Y-124143853D01*
X272604147Y-124018354D01*
X272505544Y-123870784D01*
X272437624Y-123706812D01*
X272403000Y-123532741D01*
X272403000Y-123355259D01*
X272437624Y-123181188D01*
X272505544Y-123017216D01*
X272604147Y-122869646D01*
X272729646Y-122744147D01*
X272877216Y-122645544D01*
X273041188Y-122577624D01*
X273190488Y-122547927D01*
X273215258Y-122543000D01*
X273392742Y-122543000D01*
X273417512Y-122547927D01*
G37*
G36*
X275957512Y-122547927D02*
G01*
X276106812Y-122577624D01*
X276270784Y-122645544D01*
X276418354Y-122744147D01*
X276543853Y-122869646D01*
X276642456Y-123017216D01*
X276710376Y-123181188D01*
X276745000Y-123355259D01*
X276745000Y-123532741D01*
X276710376Y-123706812D01*
X276642456Y-123870784D01*
X276543853Y-124018354D01*
X276418354Y-124143853D01*
X276270784Y-124242456D01*
X276106812Y-124310376D01*
X275957512Y-124340073D01*
X275932742Y-124345000D01*
X275755258Y-124345000D01*
X275730488Y-124340073D01*
X275581188Y-124310376D01*
X275417216Y-124242456D01*
X275269646Y-124143853D01*
X275144147Y-124018354D01*
X275045544Y-123870784D01*
X274977624Y-123706812D01*
X274943000Y-123532741D01*
X274943000Y-123355259D01*
X274977624Y-123181188D01*
X275045544Y-123017216D01*
X275144147Y-122869646D01*
X275269646Y-122744147D01*
X275417216Y-122645544D01*
X275581188Y-122577624D01*
X275730488Y-122547927D01*
X275755258Y-122543000D01*
X275932742Y-122543000D01*
X275957512Y-122547927D01*
G37*
G36*
X28029000Y-118961000D02*
G01*
X26327000Y-118961000D01*
X26327000Y-117259000D01*
X28029000Y-117259000D01*
X28029000Y-118961000D01*
G37*
G36*
X108039000Y-118961000D02*
G01*
X106337000Y-118961000D01*
X106337000Y-117259000D01*
X108039000Y-117259000D01*
X108039000Y-118961000D01*
G37*
G36*
X104896228Y-117291703D02*
G01*
X105051100Y-117355853D01*
X105190481Y-117448985D01*
X105309015Y-117567519D01*
X105402147Y-117706900D01*
X105466297Y-117861772D01*
X105499000Y-118026184D01*
X105499000Y-118193816D01*
X105466297Y-118358228D01*
X105402147Y-118513100D01*
X105309015Y-118652481D01*
X105190481Y-118771015D01*
X105051100Y-118864147D01*
X104896228Y-118928297D01*
X104731816Y-118961000D01*
X104564184Y-118961000D01*
X104399772Y-118928297D01*
X104244900Y-118864147D01*
X104105519Y-118771015D01*
X103986985Y-118652481D01*
X103893853Y-118513100D01*
X103829703Y-118358228D01*
X103797000Y-118193816D01*
X103797000Y-118026184D01*
X103829703Y-117861772D01*
X103893853Y-117706900D01*
X103986985Y-117567519D01*
X104105519Y-117448985D01*
X104244900Y-117355853D01*
X104399772Y-117291703D01*
X104564184Y-117259000D01*
X104731816Y-117259000D01*
X104896228Y-117291703D01*
G37*
G36*
X67907000Y-118961000D02*
G01*
X66205000Y-118961000D01*
X66205000Y-117259000D01*
X67907000Y-117259000D01*
X67907000Y-118961000D01*
G37*
G36*
X64764228Y-117291703D02*
G01*
X64919100Y-117355853D01*
X65058481Y-117448985D01*
X65177015Y-117567519D01*
X65270147Y-117706900D01*
X65334297Y-117861772D01*
X65367000Y-118026184D01*
X65367000Y-118193816D01*
X65334297Y-118358228D01*
X65270147Y-118513100D01*
X65177015Y-118652481D01*
X65058481Y-118771015D01*
X64919100Y-118864147D01*
X64764228Y-118928297D01*
X64599816Y-118961000D01*
X64432184Y-118961000D01*
X64267772Y-118928297D01*
X64112900Y-118864147D01*
X63973519Y-118771015D01*
X63854985Y-118652481D01*
X63761853Y-118513100D01*
X63697703Y-118358228D01*
X63665000Y-118193816D01*
X63665000Y-118026184D01*
X63697703Y-117861772D01*
X63761853Y-117706900D01*
X63854985Y-117567519D01*
X63973519Y-117448985D01*
X64112900Y-117355853D01*
X64267772Y-117291703D01*
X64432184Y-117259000D01*
X64599816Y-117259000D01*
X64764228Y-117291703D01*
G37*
G36*
X47841000Y-118961000D02*
G01*
X46139000Y-118961000D01*
X46139000Y-117259000D01*
X47841000Y-117259000D01*
X47841000Y-118961000D01*
G37*
G36*
X44698228Y-117291703D02*
G01*
X44853100Y-117355853D01*
X44992481Y-117448985D01*
X45111015Y-117567519D01*
X45204147Y-117706900D01*
X45268297Y-117861772D01*
X45301000Y-118026184D01*
X45301000Y-118193816D01*
X45268297Y-118358228D01*
X45204147Y-118513100D01*
X45111015Y-118652481D01*
X44992481Y-118771015D01*
X44853100Y-118864147D01*
X44698228Y-118928297D01*
X44533816Y-118961000D01*
X44366184Y-118961000D01*
X44201772Y-118928297D01*
X44046900Y-118864147D01*
X43907519Y-118771015D01*
X43788985Y-118652481D01*
X43695853Y-118513100D01*
X43631703Y-118358228D01*
X43599000Y-118193816D01*
X43599000Y-118026184D01*
X43631703Y-117861772D01*
X43695853Y-117706900D01*
X43788985Y-117567519D01*
X43907519Y-117448985D01*
X44046900Y-117355853D01*
X44201772Y-117291703D01*
X44366184Y-117259000D01*
X44533816Y-117259000D01*
X44698228Y-117291703D01*
G37*
G36*
X24886228Y-117291703D02*
G01*
X25041100Y-117355853D01*
X25180481Y-117448985D01*
X25299015Y-117567519D01*
X25392147Y-117706900D01*
X25456297Y-117861772D01*
X25489000Y-118026184D01*
X25489000Y-118193816D01*
X25456297Y-118358228D01*
X25392147Y-118513100D01*
X25299015Y-118652481D01*
X25180481Y-118771015D01*
X25041100Y-118864147D01*
X24886228Y-118928297D01*
X24721816Y-118961000D01*
X24554184Y-118961000D01*
X24389772Y-118928297D01*
X24234900Y-118864147D01*
X24095519Y-118771015D01*
X23976985Y-118652481D01*
X23883853Y-118513100D01*
X23819703Y-118358228D01*
X23787000Y-118193816D01*
X23787000Y-118026184D01*
X23819703Y-117861772D01*
X23883853Y-117706900D01*
X23976985Y-117567519D01*
X24095519Y-117448985D01*
X24234900Y-117355853D01*
X24389772Y-117291703D01*
X24554184Y-117259000D01*
X24721816Y-117259000D01*
X24886228Y-117291703D01*
G37*
G36*
X127851000Y-118961000D02*
G01*
X126149000Y-118961000D01*
X126149000Y-117259000D01*
X127851000Y-117259000D01*
X127851000Y-118961000D01*
G37*
G36*
X207861000Y-118961000D02*
G01*
X206159000Y-118961000D01*
X206159000Y-117259000D01*
X207861000Y-117259000D01*
X207861000Y-118961000D01*
G37*
G36*
X204718228Y-117291703D02*
G01*
X204873100Y-117355853D01*
X205012481Y-117448985D01*
X205131015Y-117567519D01*
X205224147Y-117706900D01*
X205288297Y-117861772D01*
X205321000Y-118026184D01*
X205321000Y-118193816D01*
X205288297Y-118358228D01*
X205224147Y-118513100D01*
X205131015Y-118652481D01*
X205012481Y-118771015D01*
X204873100Y-118864147D01*
X204718228Y-118928297D01*
X204553816Y-118961000D01*
X204386184Y-118961000D01*
X204221772Y-118928297D01*
X204066900Y-118864147D01*
X203927519Y-118771015D01*
X203808985Y-118652481D01*
X203715853Y-118513100D01*
X203651703Y-118358228D01*
X203619000Y-118193816D01*
X203619000Y-118026184D01*
X203651703Y-117861772D01*
X203715853Y-117706900D01*
X203808985Y-117567519D01*
X203927519Y-117448985D01*
X204066900Y-117355853D01*
X204221772Y-117291703D01*
X204386184Y-117259000D01*
X204553816Y-117259000D01*
X204718228Y-117291703D01*
G37*
G36*
X227927000Y-118961000D02*
G01*
X226225000Y-118961000D01*
X226225000Y-117259000D01*
X227927000Y-117259000D01*
X227927000Y-118961000D01*
G37*
G36*
X224784228Y-117291703D02*
G01*
X224939100Y-117355853D01*
X225078481Y-117448985D01*
X225197015Y-117567519D01*
X225290147Y-117706900D01*
X225354297Y-117861772D01*
X225387000Y-118026184D01*
X225387000Y-118193816D01*
X225354297Y-118358228D01*
X225290147Y-118513100D01*
X225197015Y-118652481D01*
X225078481Y-118771015D01*
X224939100Y-118864147D01*
X224784228Y-118928297D01*
X224619816Y-118961000D01*
X224452184Y-118961000D01*
X224287772Y-118928297D01*
X224132900Y-118864147D01*
X223993519Y-118771015D01*
X223874985Y-118652481D01*
X223781853Y-118513100D01*
X223717703Y-118358228D01*
X223685000Y-118193816D01*
X223685000Y-118026184D01*
X223717703Y-117861772D01*
X223781853Y-117706900D01*
X223874985Y-117567519D01*
X223993519Y-117448985D01*
X224132900Y-117355853D01*
X224287772Y-117291703D01*
X224452184Y-117259000D01*
X224619816Y-117259000D01*
X224784228Y-117291703D01*
G37*
G36*
X124708228Y-117291703D02*
G01*
X124863100Y-117355853D01*
X125002481Y-117448985D01*
X125121015Y-117567519D01*
X125214147Y-117706900D01*
X125278297Y-117861772D01*
X125311000Y-118026184D01*
X125311000Y-118193816D01*
X125278297Y-118358228D01*
X125214147Y-118513100D01*
X125121015Y-118652481D01*
X125002481Y-118771015D01*
X124863100Y-118864147D01*
X124708228Y-118928297D01*
X124543816Y-118961000D01*
X124376184Y-118961000D01*
X124211772Y-118928297D01*
X124056900Y-118864147D01*
X123917519Y-118771015D01*
X123798985Y-118652481D01*
X123705853Y-118513100D01*
X123641703Y-118358228D01*
X123609000Y-118193816D01*
X123609000Y-118026184D01*
X123641703Y-117861772D01*
X123705853Y-117706900D01*
X123798985Y-117567519D01*
X123917519Y-117448985D01*
X124056900Y-117355853D01*
X124211772Y-117291703D01*
X124376184Y-117259000D01*
X124543816Y-117259000D01*
X124708228Y-117291703D01*
G37*
G36*
X147917000Y-118961000D02*
G01*
X146215000Y-118961000D01*
X146215000Y-117259000D01*
X147917000Y-117259000D01*
X147917000Y-118961000D01*
G37*
G36*
X144774228Y-117291703D02*
G01*
X144929100Y-117355853D01*
X145068481Y-117448985D01*
X145187015Y-117567519D01*
X145280147Y-117706900D01*
X145344297Y-117861772D01*
X145377000Y-118026184D01*
X145377000Y-118193816D01*
X145344297Y-118358228D01*
X145280147Y-118513100D01*
X145187015Y-118652481D01*
X145068481Y-118771015D01*
X144929100Y-118864147D01*
X144774228Y-118928297D01*
X144609816Y-118961000D01*
X144442184Y-118961000D01*
X144277772Y-118928297D01*
X144122900Y-118864147D01*
X143983519Y-118771015D01*
X143864985Y-118652481D01*
X143771853Y-118513100D01*
X143707703Y-118358228D01*
X143675000Y-118193816D01*
X143675000Y-118026184D01*
X143707703Y-117861772D01*
X143771853Y-117706900D01*
X143864985Y-117567519D01*
X143983519Y-117448985D01*
X144122900Y-117355853D01*
X144277772Y-117291703D01*
X144442184Y-117259000D01*
X144609816Y-117259000D01*
X144774228Y-117291703D01*
G37*
G36*
X188049000Y-118961000D02*
G01*
X186347000Y-118961000D01*
X186347000Y-117259000D01*
X188049000Y-117259000D01*
X188049000Y-118961000D01*
G37*
G36*
X184906228Y-117291703D02*
G01*
X185061100Y-117355853D01*
X185200481Y-117448985D01*
X185319015Y-117567519D01*
X185412147Y-117706900D01*
X185476297Y-117861772D01*
X185509000Y-118026184D01*
X185509000Y-118193816D01*
X185476297Y-118358228D01*
X185412147Y-118513100D01*
X185319015Y-118652481D01*
X185200481Y-118771015D01*
X185061100Y-118864147D01*
X184906228Y-118928297D01*
X184741816Y-118961000D01*
X184574184Y-118961000D01*
X184409772Y-118928297D01*
X184254900Y-118864147D01*
X184115519Y-118771015D01*
X183996985Y-118652481D01*
X183903853Y-118513100D01*
X183839703Y-118358228D01*
X183807000Y-118193816D01*
X183807000Y-118026184D01*
X183839703Y-117861772D01*
X183903853Y-117706900D01*
X183996985Y-117567519D01*
X184115519Y-117448985D01*
X184254900Y-117355853D01*
X184409772Y-117291703D01*
X184574184Y-117259000D01*
X184741816Y-117259000D01*
X184906228Y-117291703D01*
G37*
G36*
X50058968Y-117363565D02*
G01*
X50097638Y-117375296D01*
X50133277Y-117394346D01*
X50164517Y-117419983D01*
X50190154Y-117451223D01*
X50209204Y-117486862D01*
X50220935Y-117525532D01*
X50225500Y-117571888D01*
X50225500Y-118648112D01*
X50220935Y-118694468D01*
X50209204Y-118733138D01*
X50190154Y-118768777D01*
X50164517Y-118800017D01*
X50133277Y-118825654D01*
X50097638Y-118844704D01*
X50058968Y-118856435D01*
X50012612Y-118861000D01*
X49361388Y-118861000D01*
X49315032Y-118856435D01*
X49276362Y-118844704D01*
X49240723Y-118825654D01*
X49209483Y-118800017D01*
X49183846Y-118768777D01*
X49164796Y-118733138D01*
X49153065Y-118694468D01*
X49148500Y-118648112D01*
X49148500Y-117571888D01*
X49153065Y-117525532D01*
X49164796Y-117486862D01*
X49183846Y-117451223D01*
X49209483Y-117419983D01*
X49240723Y-117394346D01*
X49276362Y-117375296D01*
X49315032Y-117363565D01*
X49361388Y-117359000D01*
X50012612Y-117359000D01*
X50058968Y-117363565D01*
G37*
G36*
X70124968Y-117363565D02*
G01*
X70163638Y-117375296D01*
X70199277Y-117394346D01*
X70230517Y-117419983D01*
X70256154Y-117451223D01*
X70275204Y-117486862D01*
X70286935Y-117525532D01*
X70291500Y-117571888D01*
X70291500Y-118648112D01*
X70286935Y-118694468D01*
X70275204Y-118733138D01*
X70256154Y-118768777D01*
X70230517Y-118800017D01*
X70199277Y-118825654D01*
X70163638Y-118844704D01*
X70124968Y-118856435D01*
X70078612Y-118861000D01*
X69427388Y-118861000D01*
X69381032Y-118856435D01*
X69342362Y-118844704D01*
X69306723Y-118825654D01*
X69275483Y-118800017D01*
X69249846Y-118768777D01*
X69230796Y-118733138D01*
X69219065Y-118694468D01*
X69214500Y-118648112D01*
X69214500Y-117571888D01*
X69219065Y-117525532D01*
X69230796Y-117486862D01*
X69249846Y-117451223D01*
X69275483Y-117419983D01*
X69306723Y-117394346D01*
X69342362Y-117375296D01*
X69381032Y-117363565D01*
X69427388Y-117359000D01*
X70078612Y-117359000D01*
X70124968Y-117363565D01*
G37*
G36*
X51933968Y-117363565D02*
G01*
X51972638Y-117375296D01*
X52008277Y-117394346D01*
X52039517Y-117419983D01*
X52065154Y-117451223D01*
X52084204Y-117486862D01*
X52095935Y-117525532D01*
X52100500Y-117571888D01*
X52100500Y-118648112D01*
X52095935Y-118694468D01*
X52084204Y-118733138D01*
X52065154Y-118768777D01*
X52039517Y-118800017D01*
X52008277Y-118825654D01*
X51972638Y-118844704D01*
X51933968Y-118856435D01*
X51887612Y-118861000D01*
X51236388Y-118861000D01*
X51190032Y-118856435D01*
X51151362Y-118844704D01*
X51115723Y-118825654D01*
X51084483Y-118800017D01*
X51058846Y-118768777D01*
X51039796Y-118733138D01*
X51028065Y-118694468D01*
X51023500Y-118648112D01*
X51023500Y-117571888D01*
X51028065Y-117525532D01*
X51039796Y-117486862D01*
X51058846Y-117451223D01*
X51084483Y-117419983D01*
X51115723Y-117394346D01*
X51151362Y-117375296D01*
X51190032Y-117363565D01*
X51236388Y-117359000D01*
X51887612Y-117359000D01*
X51933968Y-117363565D01*
G37*
G36*
X110256968Y-117363565D02*
G01*
X110295638Y-117375296D01*
X110331277Y-117394346D01*
X110362517Y-117419983D01*
X110388154Y-117451223D01*
X110407204Y-117486862D01*
X110418935Y-117525532D01*
X110423500Y-117571888D01*
X110423500Y-118648112D01*
X110418935Y-118694468D01*
X110407204Y-118733138D01*
X110388154Y-118768777D01*
X110362517Y-118800017D01*
X110331277Y-118825654D01*
X110295638Y-118844704D01*
X110256968Y-118856435D01*
X110210612Y-118861000D01*
X109559388Y-118861000D01*
X109513032Y-118856435D01*
X109474362Y-118844704D01*
X109438723Y-118825654D01*
X109407483Y-118800017D01*
X109381846Y-118768777D01*
X109362796Y-118733138D01*
X109351065Y-118694468D01*
X109346500Y-118648112D01*
X109346500Y-117571888D01*
X109351065Y-117525532D01*
X109362796Y-117486862D01*
X109381846Y-117451223D01*
X109407483Y-117419983D01*
X109438723Y-117394346D01*
X109474362Y-117375296D01*
X109513032Y-117363565D01*
X109559388Y-117359000D01*
X110210612Y-117359000D01*
X110256968Y-117363565D01*
G37*
G36*
X30168468Y-117363565D02*
G01*
X30207138Y-117375296D01*
X30242777Y-117394346D01*
X30274017Y-117419983D01*
X30299654Y-117451223D01*
X30318704Y-117486862D01*
X30330435Y-117525532D01*
X30335000Y-117571888D01*
X30335000Y-118648112D01*
X30330435Y-118694468D01*
X30318704Y-118733138D01*
X30299654Y-118768777D01*
X30274017Y-118800017D01*
X30242777Y-118825654D01*
X30207138Y-118844704D01*
X30168468Y-118856435D01*
X30122112Y-118861000D01*
X29470888Y-118861000D01*
X29424532Y-118856435D01*
X29385862Y-118844704D01*
X29350223Y-118825654D01*
X29318983Y-118800017D01*
X29293346Y-118768777D01*
X29274296Y-118733138D01*
X29262565Y-118694468D01*
X29258000Y-118648112D01*
X29258000Y-117571888D01*
X29262565Y-117525532D01*
X29274296Y-117486862D01*
X29293346Y-117451223D01*
X29318983Y-117419983D01*
X29350223Y-117394346D01*
X29385862Y-117375296D01*
X29424532Y-117363565D01*
X29470888Y-117359000D01*
X30122112Y-117359000D01*
X30168468Y-117363565D01*
G37*
G36*
X32043468Y-117363565D02*
G01*
X32082138Y-117375296D01*
X32117777Y-117394346D01*
X32149017Y-117419983D01*
X32174654Y-117451223D01*
X32193704Y-117486862D01*
X32205435Y-117525532D01*
X32210000Y-117571888D01*
X32210000Y-118648112D01*
X32205435Y-118694468D01*
X32193704Y-118733138D01*
X32174654Y-118768777D01*
X32149017Y-118800017D01*
X32117777Y-118825654D01*
X32082138Y-118844704D01*
X32043468Y-118856435D01*
X31997112Y-118861000D01*
X31345888Y-118861000D01*
X31299532Y-118856435D01*
X31260862Y-118844704D01*
X31225223Y-118825654D01*
X31193983Y-118800017D01*
X31168346Y-118768777D01*
X31149296Y-118733138D01*
X31137565Y-118694468D01*
X31133000Y-118648112D01*
X31133000Y-117571888D01*
X31137565Y-117525532D01*
X31149296Y-117486862D01*
X31168346Y-117451223D01*
X31193983Y-117419983D01*
X31225223Y-117394346D01*
X31260862Y-117375296D01*
X31299532Y-117363565D01*
X31345888Y-117359000D01*
X31997112Y-117359000D01*
X32043468Y-117363565D01*
G37*
G36*
X232019968Y-117363565D02*
G01*
X232058638Y-117375296D01*
X232094277Y-117394346D01*
X232125517Y-117419983D01*
X232151154Y-117451223D01*
X232170204Y-117486862D01*
X232181935Y-117525532D01*
X232186500Y-117571888D01*
X232186500Y-118648112D01*
X232181935Y-118694468D01*
X232170204Y-118733138D01*
X232151154Y-118768777D01*
X232125517Y-118800017D01*
X232094277Y-118825654D01*
X232058638Y-118844704D01*
X232019968Y-118856435D01*
X231973612Y-118861000D01*
X231322388Y-118861000D01*
X231276032Y-118856435D01*
X231237362Y-118844704D01*
X231201723Y-118825654D01*
X231170483Y-118800017D01*
X231144846Y-118768777D01*
X231125796Y-118733138D01*
X231114065Y-118694468D01*
X231109500Y-118648112D01*
X231109500Y-117571888D01*
X231114065Y-117525532D01*
X231125796Y-117486862D01*
X231144846Y-117451223D01*
X231170483Y-117419983D01*
X231201723Y-117394346D01*
X231237362Y-117375296D01*
X231276032Y-117363565D01*
X231322388Y-117359000D01*
X231973612Y-117359000D01*
X232019968Y-117363565D01*
G37*
G36*
X230144968Y-117363565D02*
G01*
X230183638Y-117375296D01*
X230219277Y-117394346D01*
X230250517Y-117419983D01*
X230276154Y-117451223D01*
X230295204Y-117486862D01*
X230306935Y-117525532D01*
X230311500Y-117571888D01*
X230311500Y-118648112D01*
X230306935Y-118694468D01*
X230295204Y-118733138D01*
X230276154Y-118768777D01*
X230250517Y-118800017D01*
X230219277Y-118825654D01*
X230183638Y-118844704D01*
X230144968Y-118856435D01*
X230098612Y-118861000D01*
X229447388Y-118861000D01*
X229401032Y-118856435D01*
X229362362Y-118844704D01*
X229326723Y-118825654D01*
X229295483Y-118800017D01*
X229269846Y-118768777D01*
X229250796Y-118733138D01*
X229239065Y-118694468D01*
X229234500Y-118648112D01*
X229234500Y-117571888D01*
X229239065Y-117525532D01*
X229250796Y-117486862D01*
X229269846Y-117451223D01*
X229295483Y-117419983D01*
X229326723Y-117394346D01*
X229362362Y-117375296D01*
X229401032Y-117363565D01*
X229447388Y-117359000D01*
X230098612Y-117359000D01*
X230144968Y-117363565D01*
G37*
G36*
X211953968Y-117363565D02*
G01*
X211992638Y-117375296D01*
X212028277Y-117394346D01*
X212059517Y-117419983D01*
X212085154Y-117451223D01*
X212104204Y-117486862D01*
X212115935Y-117525532D01*
X212120500Y-117571888D01*
X212120500Y-118648112D01*
X212115935Y-118694468D01*
X212104204Y-118733138D01*
X212085154Y-118768777D01*
X212059517Y-118800017D01*
X212028277Y-118825654D01*
X211992638Y-118844704D01*
X211953968Y-118856435D01*
X211907612Y-118861000D01*
X211256388Y-118861000D01*
X211210032Y-118856435D01*
X211171362Y-118844704D01*
X211135723Y-118825654D01*
X211104483Y-118800017D01*
X211078846Y-118768777D01*
X211059796Y-118733138D01*
X211048065Y-118694468D01*
X211043500Y-118648112D01*
X211043500Y-117571888D01*
X211048065Y-117525532D01*
X211059796Y-117486862D01*
X211078846Y-117451223D01*
X211104483Y-117419983D01*
X211135723Y-117394346D01*
X211171362Y-117375296D01*
X211210032Y-117363565D01*
X211256388Y-117359000D01*
X211907612Y-117359000D01*
X211953968Y-117363565D01*
G37*
G36*
X192063468Y-117363565D02*
G01*
X192102138Y-117375296D01*
X192137777Y-117394346D01*
X192169017Y-117419983D01*
X192194654Y-117451223D01*
X192213704Y-117486862D01*
X192225435Y-117525532D01*
X192230000Y-117571888D01*
X192230000Y-118648112D01*
X192225435Y-118694468D01*
X192213704Y-118733138D01*
X192194654Y-118768777D01*
X192169017Y-118800017D01*
X192137777Y-118825654D01*
X192102138Y-118844704D01*
X192063468Y-118856435D01*
X192017112Y-118861000D01*
X191365888Y-118861000D01*
X191319532Y-118856435D01*
X191280862Y-118844704D01*
X191245223Y-118825654D01*
X191213983Y-118800017D01*
X191188346Y-118768777D01*
X191169296Y-118733138D01*
X191157565Y-118694468D01*
X191153000Y-118648112D01*
X191153000Y-117571888D01*
X191157565Y-117525532D01*
X191169296Y-117486862D01*
X191188346Y-117451223D01*
X191213983Y-117419983D01*
X191245223Y-117394346D01*
X191280862Y-117375296D01*
X191319532Y-117363565D01*
X191365888Y-117359000D01*
X192017112Y-117359000D01*
X192063468Y-117363565D01*
G37*
G36*
X190188468Y-117363565D02*
G01*
X190227138Y-117375296D01*
X190262777Y-117394346D01*
X190294017Y-117419983D01*
X190319654Y-117451223D01*
X190338704Y-117486862D01*
X190350435Y-117525532D01*
X190355000Y-117571888D01*
X190355000Y-118648112D01*
X190350435Y-118694468D01*
X190338704Y-118733138D01*
X190319654Y-118768777D01*
X190294017Y-118800017D01*
X190262777Y-118825654D01*
X190227138Y-118844704D01*
X190188468Y-118856435D01*
X190142112Y-118861000D01*
X189490888Y-118861000D01*
X189444532Y-118856435D01*
X189405862Y-118844704D01*
X189370223Y-118825654D01*
X189338983Y-118800017D01*
X189313346Y-118768777D01*
X189294296Y-118733138D01*
X189282565Y-118694468D01*
X189278000Y-118648112D01*
X189278000Y-117571888D01*
X189282565Y-117525532D01*
X189294296Y-117486862D01*
X189313346Y-117451223D01*
X189338983Y-117419983D01*
X189370223Y-117394346D01*
X189405862Y-117375296D01*
X189444532Y-117363565D01*
X189490888Y-117359000D01*
X190142112Y-117359000D01*
X190188468Y-117363565D01*
G37*
G36*
X151931468Y-117363565D02*
G01*
X151970138Y-117375296D01*
X152005777Y-117394346D01*
X152037017Y-117419983D01*
X152062654Y-117451223D01*
X152081704Y-117486862D01*
X152093435Y-117525532D01*
X152098000Y-117571888D01*
X152098000Y-118648112D01*
X152093435Y-118694468D01*
X152081704Y-118733138D01*
X152062654Y-118768777D01*
X152037017Y-118800017D01*
X152005777Y-118825654D01*
X151970138Y-118844704D01*
X151931468Y-118856435D01*
X151885112Y-118861000D01*
X151233888Y-118861000D01*
X151187532Y-118856435D01*
X151148862Y-118844704D01*
X151113223Y-118825654D01*
X151081983Y-118800017D01*
X151056346Y-118768777D01*
X151037296Y-118733138D01*
X151025565Y-118694468D01*
X151021000Y-118648112D01*
X151021000Y-117571888D01*
X151025565Y-117525532D01*
X151037296Y-117486862D01*
X151056346Y-117451223D01*
X151081983Y-117419983D01*
X151113223Y-117394346D01*
X151148862Y-117375296D01*
X151187532Y-117363565D01*
X151233888Y-117359000D01*
X151885112Y-117359000D01*
X151931468Y-117363565D01*
G37*
G36*
X150056468Y-117363565D02*
G01*
X150095138Y-117375296D01*
X150130777Y-117394346D01*
X150162017Y-117419983D01*
X150187654Y-117451223D01*
X150206704Y-117486862D01*
X150218435Y-117525532D01*
X150223000Y-117571888D01*
X150223000Y-118648112D01*
X150218435Y-118694468D01*
X150206704Y-118733138D01*
X150187654Y-118768777D01*
X150162017Y-118800017D01*
X150130777Y-118825654D01*
X150095138Y-118844704D01*
X150056468Y-118856435D01*
X150010112Y-118861000D01*
X149358888Y-118861000D01*
X149312532Y-118856435D01*
X149273862Y-118844704D01*
X149238223Y-118825654D01*
X149206983Y-118800017D01*
X149181346Y-118768777D01*
X149162296Y-118733138D01*
X149150565Y-118694468D01*
X149146000Y-118648112D01*
X149146000Y-117571888D01*
X149150565Y-117525532D01*
X149162296Y-117486862D01*
X149181346Y-117451223D01*
X149206983Y-117419983D01*
X149238223Y-117394346D01*
X149273862Y-117375296D01*
X149312532Y-117363565D01*
X149358888Y-117359000D01*
X150010112Y-117359000D01*
X150056468Y-117363565D01*
G37*
G36*
X131865468Y-117363565D02*
G01*
X131904138Y-117375296D01*
X131939777Y-117394346D01*
X131971017Y-117419983D01*
X131996654Y-117451223D01*
X132015704Y-117486862D01*
X132027435Y-117525532D01*
X132032000Y-117571888D01*
X132032000Y-118648112D01*
X132027435Y-118694468D01*
X132015704Y-118733138D01*
X131996654Y-118768777D01*
X131971017Y-118800017D01*
X131939777Y-118825654D01*
X131904138Y-118844704D01*
X131865468Y-118856435D01*
X131819112Y-118861000D01*
X131167888Y-118861000D01*
X131121532Y-118856435D01*
X131082862Y-118844704D01*
X131047223Y-118825654D01*
X131015983Y-118800017D01*
X130990346Y-118768777D01*
X130971296Y-118733138D01*
X130959565Y-118694468D01*
X130955000Y-118648112D01*
X130955000Y-117571888D01*
X130959565Y-117525532D01*
X130971296Y-117486862D01*
X130990346Y-117451223D01*
X131015983Y-117419983D01*
X131047223Y-117394346D01*
X131082862Y-117375296D01*
X131121532Y-117363565D01*
X131167888Y-117359000D01*
X131819112Y-117359000D01*
X131865468Y-117363565D01*
G37*
G36*
X129990468Y-117363565D02*
G01*
X130029138Y-117375296D01*
X130064777Y-117394346D01*
X130096017Y-117419983D01*
X130121654Y-117451223D01*
X130140704Y-117486862D01*
X130152435Y-117525532D01*
X130157000Y-117571888D01*
X130157000Y-118648112D01*
X130152435Y-118694468D01*
X130140704Y-118733138D01*
X130121654Y-118768777D01*
X130096017Y-118800017D01*
X130064777Y-118825654D01*
X130029138Y-118844704D01*
X129990468Y-118856435D01*
X129944112Y-118861000D01*
X129292888Y-118861000D01*
X129246532Y-118856435D01*
X129207862Y-118844704D01*
X129172223Y-118825654D01*
X129140983Y-118800017D01*
X129115346Y-118768777D01*
X129096296Y-118733138D01*
X129084565Y-118694468D01*
X129080000Y-118648112D01*
X129080000Y-117571888D01*
X129084565Y-117525532D01*
X129096296Y-117486862D01*
X129115346Y-117451223D01*
X129140983Y-117419983D01*
X129172223Y-117394346D01*
X129207862Y-117375296D01*
X129246532Y-117363565D01*
X129292888Y-117359000D01*
X129944112Y-117359000D01*
X129990468Y-117363565D01*
G37*
G36*
X112131968Y-117363565D02*
G01*
X112170638Y-117375296D01*
X112206277Y-117394346D01*
X112237517Y-117419983D01*
X112263154Y-117451223D01*
X112282204Y-117486862D01*
X112293935Y-117525532D01*
X112298500Y-117571888D01*
X112298500Y-118648112D01*
X112293935Y-118694468D01*
X112282204Y-118733138D01*
X112263154Y-118768777D01*
X112237517Y-118800017D01*
X112206277Y-118825654D01*
X112170638Y-118844704D01*
X112131968Y-118856435D01*
X112085612Y-118861000D01*
X111434388Y-118861000D01*
X111388032Y-118856435D01*
X111349362Y-118844704D01*
X111313723Y-118825654D01*
X111282483Y-118800017D01*
X111256846Y-118768777D01*
X111237796Y-118733138D01*
X111226065Y-118694468D01*
X111221500Y-118648112D01*
X111221500Y-117571888D01*
X111226065Y-117525532D01*
X111237796Y-117486862D01*
X111256846Y-117451223D01*
X111282483Y-117419983D01*
X111313723Y-117394346D01*
X111349362Y-117375296D01*
X111388032Y-117363565D01*
X111434388Y-117359000D01*
X112085612Y-117359000D01*
X112131968Y-117363565D01*
G37*
G36*
X71999968Y-117363565D02*
G01*
X72038638Y-117375296D01*
X72074277Y-117394346D01*
X72105517Y-117419983D01*
X72131154Y-117451223D01*
X72150204Y-117486862D01*
X72161935Y-117525532D01*
X72166500Y-117571888D01*
X72166500Y-118648112D01*
X72161935Y-118694468D01*
X72150204Y-118733138D01*
X72131154Y-118768777D01*
X72105517Y-118800017D01*
X72074277Y-118825654D01*
X72038638Y-118844704D01*
X71999968Y-118856435D01*
X71953612Y-118861000D01*
X71302388Y-118861000D01*
X71256032Y-118856435D01*
X71217362Y-118844704D01*
X71181723Y-118825654D01*
X71150483Y-118800017D01*
X71124846Y-118768777D01*
X71105796Y-118733138D01*
X71094065Y-118694468D01*
X71089500Y-118648112D01*
X71089500Y-117571888D01*
X71094065Y-117525532D01*
X71105796Y-117486862D01*
X71124846Y-117451223D01*
X71150483Y-117419983D01*
X71181723Y-117394346D01*
X71217362Y-117375296D01*
X71256032Y-117363565D01*
X71302388Y-117359000D01*
X71953612Y-117359000D01*
X71999968Y-117363565D01*
G37*
G36*
X210078968Y-117363565D02*
G01*
X210117638Y-117375296D01*
X210153277Y-117394346D01*
X210184517Y-117419983D01*
X210210154Y-117451223D01*
X210229204Y-117486862D01*
X210240935Y-117525532D01*
X210245500Y-117571888D01*
X210245500Y-118648112D01*
X210240935Y-118694468D01*
X210229204Y-118733138D01*
X210210154Y-118768777D01*
X210184517Y-118800017D01*
X210153277Y-118825654D01*
X210117638Y-118844704D01*
X210078968Y-118856435D01*
X210032612Y-118861000D01*
X209381388Y-118861000D01*
X209335032Y-118856435D01*
X209296362Y-118844704D01*
X209260723Y-118825654D01*
X209229483Y-118800017D01*
X209203846Y-118768777D01*
X209184796Y-118733138D01*
X209173065Y-118694468D01*
X209168500Y-118648112D01*
X209168500Y-117571888D01*
X209173065Y-117525532D01*
X209184796Y-117486862D01*
X209203846Y-117451223D01*
X209229483Y-117419983D01*
X209260723Y-117394346D01*
X209296362Y-117375296D01*
X209335032Y-117363565D01*
X209381388Y-117359000D01*
X210032612Y-117359000D01*
X210078968Y-117363565D01*
G37*
M02*
