G04 #@! TF.GenerationSoftware,KiCad,Pcbnew,(5.1.4)-1*
G04 #@! TF.CreationDate,2019-09-18T19:17:11-04:00*
G04 #@! TF.ProjectId,clock_buffer,636c6f63-6b5f-4627-9566-6665722e6b69,rev?*
G04 #@! TF.SameCoordinates,Original*
G04 #@! TF.FileFunction,Paste,Top*
G04 #@! TF.FilePolarity,Positive*
%FSLAX46Y46*%
G04 Gerber Fmt 4.6, Leading zero omitted, Abs format (unit mm)*
G04 Created by KiCad (PCBNEW (5.1.4)-1) date 2019-09-18 19:17:11*
%MOMM*%
%LPD*%
G04 APERTURE LIST*
%ADD10C,0.100000*%
%ADD11C,0.875000*%
%ADD12C,0.975000*%
%ADD13R,0.410000X1.570000*%
%ADD14C,1.250000*%
G04 APERTURE END LIST*
D10*
G36*
X148613691Y-109063053D02*
G01*
X148634926Y-109066203D01*
X148655750Y-109071419D01*
X148675962Y-109078651D01*
X148695368Y-109087830D01*
X148713781Y-109098866D01*
X148731024Y-109111654D01*
X148746930Y-109126070D01*
X148761346Y-109141976D01*
X148774134Y-109159219D01*
X148785170Y-109177632D01*
X148794349Y-109197038D01*
X148801581Y-109217250D01*
X148806797Y-109238074D01*
X148809947Y-109259309D01*
X148811000Y-109280750D01*
X148811000Y-109718250D01*
X148809947Y-109739691D01*
X148806797Y-109760926D01*
X148801581Y-109781750D01*
X148794349Y-109801962D01*
X148785170Y-109821368D01*
X148774134Y-109839781D01*
X148761346Y-109857024D01*
X148746930Y-109872930D01*
X148731024Y-109887346D01*
X148713781Y-109900134D01*
X148695368Y-109911170D01*
X148675962Y-109920349D01*
X148655750Y-109927581D01*
X148634926Y-109932797D01*
X148613691Y-109935947D01*
X148592250Y-109937000D01*
X148079750Y-109937000D01*
X148058309Y-109935947D01*
X148037074Y-109932797D01*
X148016250Y-109927581D01*
X147996038Y-109920349D01*
X147976632Y-109911170D01*
X147958219Y-109900134D01*
X147940976Y-109887346D01*
X147925070Y-109872930D01*
X147910654Y-109857024D01*
X147897866Y-109839781D01*
X147886830Y-109821368D01*
X147877651Y-109801962D01*
X147870419Y-109781750D01*
X147865203Y-109760926D01*
X147862053Y-109739691D01*
X147861000Y-109718250D01*
X147861000Y-109280750D01*
X147862053Y-109259309D01*
X147865203Y-109238074D01*
X147870419Y-109217250D01*
X147877651Y-109197038D01*
X147886830Y-109177632D01*
X147897866Y-109159219D01*
X147910654Y-109141976D01*
X147925070Y-109126070D01*
X147940976Y-109111654D01*
X147958219Y-109098866D01*
X147976632Y-109087830D01*
X147996038Y-109078651D01*
X148016250Y-109071419D01*
X148037074Y-109066203D01*
X148058309Y-109063053D01*
X148079750Y-109062000D01*
X148592250Y-109062000D01*
X148613691Y-109063053D01*
X148613691Y-109063053D01*
G37*
D11*
X148336000Y-109499500D03*
D10*
G36*
X148613691Y-107488053D02*
G01*
X148634926Y-107491203D01*
X148655750Y-107496419D01*
X148675962Y-107503651D01*
X148695368Y-107512830D01*
X148713781Y-107523866D01*
X148731024Y-107536654D01*
X148746930Y-107551070D01*
X148761346Y-107566976D01*
X148774134Y-107584219D01*
X148785170Y-107602632D01*
X148794349Y-107622038D01*
X148801581Y-107642250D01*
X148806797Y-107663074D01*
X148809947Y-107684309D01*
X148811000Y-107705750D01*
X148811000Y-108143250D01*
X148809947Y-108164691D01*
X148806797Y-108185926D01*
X148801581Y-108206750D01*
X148794349Y-108226962D01*
X148785170Y-108246368D01*
X148774134Y-108264781D01*
X148761346Y-108282024D01*
X148746930Y-108297930D01*
X148731024Y-108312346D01*
X148713781Y-108325134D01*
X148695368Y-108336170D01*
X148675962Y-108345349D01*
X148655750Y-108352581D01*
X148634926Y-108357797D01*
X148613691Y-108360947D01*
X148592250Y-108362000D01*
X148079750Y-108362000D01*
X148058309Y-108360947D01*
X148037074Y-108357797D01*
X148016250Y-108352581D01*
X147996038Y-108345349D01*
X147976632Y-108336170D01*
X147958219Y-108325134D01*
X147940976Y-108312346D01*
X147925070Y-108297930D01*
X147910654Y-108282024D01*
X147897866Y-108264781D01*
X147886830Y-108246368D01*
X147877651Y-108226962D01*
X147870419Y-108206750D01*
X147865203Y-108185926D01*
X147862053Y-108164691D01*
X147861000Y-108143250D01*
X147861000Y-107705750D01*
X147862053Y-107684309D01*
X147865203Y-107663074D01*
X147870419Y-107642250D01*
X147877651Y-107622038D01*
X147886830Y-107602632D01*
X147897866Y-107584219D01*
X147910654Y-107566976D01*
X147925070Y-107551070D01*
X147940976Y-107536654D01*
X147958219Y-107523866D01*
X147976632Y-107512830D01*
X147996038Y-107503651D01*
X148016250Y-107496419D01*
X148037074Y-107491203D01*
X148058309Y-107488053D01*
X148079750Y-107487000D01*
X148592250Y-107487000D01*
X148613691Y-107488053D01*
X148613691Y-107488053D01*
G37*
D11*
X148336000Y-107924500D03*
D10*
G36*
X151407691Y-107462553D02*
G01*
X151428926Y-107465703D01*
X151449750Y-107470919D01*
X151469962Y-107478151D01*
X151489368Y-107487330D01*
X151507781Y-107498366D01*
X151525024Y-107511154D01*
X151540930Y-107525570D01*
X151555346Y-107541476D01*
X151568134Y-107558719D01*
X151579170Y-107577132D01*
X151588349Y-107596538D01*
X151595581Y-107616750D01*
X151600797Y-107637574D01*
X151603947Y-107658809D01*
X151605000Y-107680250D01*
X151605000Y-108117750D01*
X151603947Y-108139191D01*
X151600797Y-108160426D01*
X151595581Y-108181250D01*
X151588349Y-108201462D01*
X151579170Y-108220868D01*
X151568134Y-108239281D01*
X151555346Y-108256524D01*
X151540930Y-108272430D01*
X151525024Y-108286846D01*
X151507781Y-108299634D01*
X151489368Y-108310670D01*
X151469962Y-108319849D01*
X151449750Y-108327081D01*
X151428926Y-108332297D01*
X151407691Y-108335447D01*
X151386250Y-108336500D01*
X150873750Y-108336500D01*
X150852309Y-108335447D01*
X150831074Y-108332297D01*
X150810250Y-108327081D01*
X150790038Y-108319849D01*
X150770632Y-108310670D01*
X150752219Y-108299634D01*
X150734976Y-108286846D01*
X150719070Y-108272430D01*
X150704654Y-108256524D01*
X150691866Y-108239281D01*
X150680830Y-108220868D01*
X150671651Y-108201462D01*
X150664419Y-108181250D01*
X150659203Y-108160426D01*
X150656053Y-108139191D01*
X150655000Y-108117750D01*
X150655000Y-107680250D01*
X150656053Y-107658809D01*
X150659203Y-107637574D01*
X150664419Y-107616750D01*
X150671651Y-107596538D01*
X150680830Y-107577132D01*
X150691866Y-107558719D01*
X150704654Y-107541476D01*
X150719070Y-107525570D01*
X150734976Y-107511154D01*
X150752219Y-107498366D01*
X150770632Y-107487330D01*
X150790038Y-107478151D01*
X150810250Y-107470919D01*
X150831074Y-107465703D01*
X150852309Y-107462553D01*
X150873750Y-107461500D01*
X151386250Y-107461500D01*
X151407691Y-107462553D01*
X151407691Y-107462553D01*
G37*
D11*
X151130000Y-107899000D03*
D10*
G36*
X151407691Y-109037553D02*
G01*
X151428926Y-109040703D01*
X151449750Y-109045919D01*
X151469962Y-109053151D01*
X151489368Y-109062330D01*
X151507781Y-109073366D01*
X151525024Y-109086154D01*
X151540930Y-109100570D01*
X151555346Y-109116476D01*
X151568134Y-109133719D01*
X151579170Y-109152132D01*
X151588349Y-109171538D01*
X151595581Y-109191750D01*
X151600797Y-109212574D01*
X151603947Y-109233809D01*
X151605000Y-109255250D01*
X151605000Y-109692750D01*
X151603947Y-109714191D01*
X151600797Y-109735426D01*
X151595581Y-109756250D01*
X151588349Y-109776462D01*
X151579170Y-109795868D01*
X151568134Y-109814281D01*
X151555346Y-109831524D01*
X151540930Y-109847430D01*
X151525024Y-109861846D01*
X151507781Y-109874634D01*
X151489368Y-109885670D01*
X151469962Y-109894849D01*
X151449750Y-109902081D01*
X151428926Y-109907297D01*
X151407691Y-109910447D01*
X151386250Y-109911500D01*
X150873750Y-109911500D01*
X150852309Y-109910447D01*
X150831074Y-109907297D01*
X150810250Y-109902081D01*
X150790038Y-109894849D01*
X150770632Y-109885670D01*
X150752219Y-109874634D01*
X150734976Y-109861846D01*
X150719070Y-109847430D01*
X150704654Y-109831524D01*
X150691866Y-109814281D01*
X150680830Y-109795868D01*
X150671651Y-109776462D01*
X150664419Y-109756250D01*
X150659203Y-109735426D01*
X150656053Y-109714191D01*
X150655000Y-109692750D01*
X150655000Y-109255250D01*
X150656053Y-109233809D01*
X150659203Y-109212574D01*
X150664419Y-109191750D01*
X150671651Y-109171538D01*
X150680830Y-109152132D01*
X150691866Y-109133719D01*
X150704654Y-109116476D01*
X150719070Y-109100570D01*
X150734976Y-109086154D01*
X150752219Y-109073366D01*
X150770632Y-109062330D01*
X150790038Y-109053151D01*
X150810250Y-109045919D01*
X150831074Y-109040703D01*
X150852309Y-109037553D01*
X150873750Y-109036500D01*
X151386250Y-109036500D01*
X151407691Y-109037553D01*
X151407691Y-109037553D01*
G37*
D11*
X151130000Y-109474000D03*
D10*
G36*
X148613691Y-97379053D02*
G01*
X148634926Y-97382203D01*
X148655750Y-97387419D01*
X148675962Y-97394651D01*
X148695368Y-97403830D01*
X148713781Y-97414866D01*
X148731024Y-97427654D01*
X148746930Y-97442070D01*
X148761346Y-97457976D01*
X148774134Y-97475219D01*
X148785170Y-97493632D01*
X148794349Y-97513038D01*
X148801581Y-97533250D01*
X148806797Y-97554074D01*
X148809947Y-97575309D01*
X148811000Y-97596750D01*
X148811000Y-98034250D01*
X148809947Y-98055691D01*
X148806797Y-98076926D01*
X148801581Y-98097750D01*
X148794349Y-98117962D01*
X148785170Y-98137368D01*
X148774134Y-98155781D01*
X148761346Y-98173024D01*
X148746930Y-98188930D01*
X148731024Y-98203346D01*
X148713781Y-98216134D01*
X148695368Y-98227170D01*
X148675962Y-98236349D01*
X148655750Y-98243581D01*
X148634926Y-98248797D01*
X148613691Y-98251947D01*
X148592250Y-98253000D01*
X148079750Y-98253000D01*
X148058309Y-98251947D01*
X148037074Y-98248797D01*
X148016250Y-98243581D01*
X147996038Y-98236349D01*
X147976632Y-98227170D01*
X147958219Y-98216134D01*
X147940976Y-98203346D01*
X147925070Y-98188930D01*
X147910654Y-98173024D01*
X147897866Y-98155781D01*
X147886830Y-98137368D01*
X147877651Y-98117962D01*
X147870419Y-98097750D01*
X147865203Y-98076926D01*
X147862053Y-98055691D01*
X147861000Y-98034250D01*
X147861000Y-97596750D01*
X147862053Y-97575309D01*
X147865203Y-97554074D01*
X147870419Y-97533250D01*
X147877651Y-97513038D01*
X147886830Y-97493632D01*
X147897866Y-97475219D01*
X147910654Y-97457976D01*
X147925070Y-97442070D01*
X147940976Y-97427654D01*
X147958219Y-97414866D01*
X147976632Y-97403830D01*
X147996038Y-97394651D01*
X148016250Y-97387419D01*
X148037074Y-97382203D01*
X148058309Y-97379053D01*
X148079750Y-97378000D01*
X148592250Y-97378000D01*
X148613691Y-97379053D01*
X148613691Y-97379053D01*
G37*
D11*
X148336000Y-97815500D03*
D10*
G36*
X148613691Y-95804053D02*
G01*
X148634926Y-95807203D01*
X148655750Y-95812419D01*
X148675962Y-95819651D01*
X148695368Y-95828830D01*
X148713781Y-95839866D01*
X148731024Y-95852654D01*
X148746930Y-95867070D01*
X148761346Y-95882976D01*
X148774134Y-95900219D01*
X148785170Y-95918632D01*
X148794349Y-95938038D01*
X148801581Y-95958250D01*
X148806797Y-95979074D01*
X148809947Y-96000309D01*
X148811000Y-96021750D01*
X148811000Y-96459250D01*
X148809947Y-96480691D01*
X148806797Y-96501926D01*
X148801581Y-96522750D01*
X148794349Y-96542962D01*
X148785170Y-96562368D01*
X148774134Y-96580781D01*
X148761346Y-96598024D01*
X148746930Y-96613930D01*
X148731024Y-96628346D01*
X148713781Y-96641134D01*
X148695368Y-96652170D01*
X148675962Y-96661349D01*
X148655750Y-96668581D01*
X148634926Y-96673797D01*
X148613691Y-96676947D01*
X148592250Y-96678000D01*
X148079750Y-96678000D01*
X148058309Y-96676947D01*
X148037074Y-96673797D01*
X148016250Y-96668581D01*
X147996038Y-96661349D01*
X147976632Y-96652170D01*
X147958219Y-96641134D01*
X147940976Y-96628346D01*
X147925070Y-96613930D01*
X147910654Y-96598024D01*
X147897866Y-96580781D01*
X147886830Y-96562368D01*
X147877651Y-96542962D01*
X147870419Y-96522750D01*
X147865203Y-96501926D01*
X147862053Y-96480691D01*
X147861000Y-96459250D01*
X147861000Y-96021750D01*
X147862053Y-96000309D01*
X147865203Y-95979074D01*
X147870419Y-95958250D01*
X147877651Y-95938038D01*
X147886830Y-95918632D01*
X147897866Y-95900219D01*
X147910654Y-95882976D01*
X147925070Y-95867070D01*
X147940976Y-95852654D01*
X147958219Y-95839866D01*
X147976632Y-95828830D01*
X147996038Y-95819651D01*
X148016250Y-95812419D01*
X148037074Y-95807203D01*
X148058309Y-95804053D01*
X148079750Y-95803000D01*
X148592250Y-95803000D01*
X148613691Y-95804053D01*
X148613691Y-95804053D01*
G37*
D11*
X148336000Y-96240500D03*
D10*
G36*
X146571642Y-113093174D02*
G01*
X146595303Y-113096684D01*
X146618507Y-113102496D01*
X146641029Y-113110554D01*
X146662653Y-113120782D01*
X146683170Y-113133079D01*
X146702383Y-113147329D01*
X146720107Y-113163393D01*
X146736171Y-113181117D01*
X146750421Y-113200330D01*
X146762718Y-113220847D01*
X146772946Y-113242471D01*
X146781004Y-113264993D01*
X146786816Y-113288197D01*
X146790326Y-113311858D01*
X146791500Y-113335750D01*
X146791500Y-114248250D01*
X146790326Y-114272142D01*
X146786816Y-114295803D01*
X146781004Y-114319007D01*
X146772946Y-114341529D01*
X146762718Y-114363153D01*
X146750421Y-114383670D01*
X146736171Y-114402883D01*
X146720107Y-114420607D01*
X146702383Y-114436671D01*
X146683170Y-114450921D01*
X146662653Y-114463218D01*
X146641029Y-114473446D01*
X146618507Y-114481504D01*
X146595303Y-114487316D01*
X146571642Y-114490826D01*
X146547750Y-114492000D01*
X146060250Y-114492000D01*
X146036358Y-114490826D01*
X146012697Y-114487316D01*
X145989493Y-114481504D01*
X145966971Y-114473446D01*
X145945347Y-114463218D01*
X145924830Y-114450921D01*
X145905617Y-114436671D01*
X145887893Y-114420607D01*
X145871829Y-114402883D01*
X145857579Y-114383670D01*
X145845282Y-114363153D01*
X145835054Y-114341529D01*
X145826996Y-114319007D01*
X145821184Y-114295803D01*
X145817674Y-114272142D01*
X145816500Y-114248250D01*
X145816500Y-113335750D01*
X145817674Y-113311858D01*
X145821184Y-113288197D01*
X145826996Y-113264993D01*
X145835054Y-113242471D01*
X145845282Y-113220847D01*
X145857579Y-113200330D01*
X145871829Y-113181117D01*
X145887893Y-113163393D01*
X145905617Y-113147329D01*
X145924830Y-113133079D01*
X145945347Y-113120782D01*
X145966971Y-113110554D01*
X145989493Y-113102496D01*
X146012697Y-113096684D01*
X146036358Y-113093174D01*
X146060250Y-113092000D01*
X146547750Y-113092000D01*
X146571642Y-113093174D01*
X146571642Y-113093174D01*
G37*
D12*
X146304000Y-113792000D03*
D10*
G36*
X148446642Y-113093174D02*
G01*
X148470303Y-113096684D01*
X148493507Y-113102496D01*
X148516029Y-113110554D01*
X148537653Y-113120782D01*
X148558170Y-113133079D01*
X148577383Y-113147329D01*
X148595107Y-113163393D01*
X148611171Y-113181117D01*
X148625421Y-113200330D01*
X148637718Y-113220847D01*
X148647946Y-113242471D01*
X148656004Y-113264993D01*
X148661816Y-113288197D01*
X148665326Y-113311858D01*
X148666500Y-113335750D01*
X148666500Y-114248250D01*
X148665326Y-114272142D01*
X148661816Y-114295803D01*
X148656004Y-114319007D01*
X148647946Y-114341529D01*
X148637718Y-114363153D01*
X148625421Y-114383670D01*
X148611171Y-114402883D01*
X148595107Y-114420607D01*
X148577383Y-114436671D01*
X148558170Y-114450921D01*
X148537653Y-114463218D01*
X148516029Y-114473446D01*
X148493507Y-114481504D01*
X148470303Y-114487316D01*
X148446642Y-114490826D01*
X148422750Y-114492000D01*
X147935250Y-114492000D01*
X147911358Y-114490826D01*
X147887697Y-114487316D01*
X147864493Y-114481504D01*
X147841971Y-114473446D01*
X147820347Y-114463218D01*
X147799830Y-114450921D01*
X147780617Y-114436671D01*
X147762893Y-114420607D01*
X147746829Y-114402883D01*
X147732579Y-114383670D01*
X147720282Y-114363153D01*
X147710054Y-114341529D01*
X147701996Y-114319007D01*
X147696184Y-114295803D01*
X147692674Y-114272142D01*
X147691500Y-114248250D01*
X147691500Y-113335750D01*
X147692674Y-113311858D01*
X147696184Y-113288197D01*
X147701996Y-113264993D01*
X147710054Y-113242471D01*
X147720282Y-113220847D01*
X147732579Y-113200330D01*
X147746829Y-113181117D01*
X147762893Y-113163393D01*
X147780617Y-113147329D01*
X147799830Y-113133079D01*
X147820347Y-113120782D01*
X147841971Y-113110554D01*
X147864493Y-113102496D01*
X147887697Y-113096684D01*
X147911358Y-113093174D01*
X147935250Y-113092000D01*
X148422750Y-113092000D01*
X148446642Y-113093174D01*
X148446642Y-113093174D01*
G37*
D12*
X148179000Y-113792000D03*
D10*
G36*
X156944142Y-101143674D02*
G01*
X156967803Y-101147184D01*
X156991007Y-101152996D01*
X157013529Y-101161054D01*
X157035153Y-101171282D01*
X157055670Y-101183579D01*
X157074883Y-101197829D01*
X157092607Y-101213893D01*
X157108671Y-101231617D01*
X157122921Y-101250830D01*
X157135218Y-101271347D01*
X157145446Y-101292971D01*
X157153504Y-101315493D01*
X157159316Y-101338697D01*
X157162826Y-101362358D01*
X157164000Y-101386250D01*
X157164000Y-101873750D01*
X157162826Y-101897642D01*
X157159316Y-101921303D01*
X157153504Y-101944507D01*
X157145446Y-101967029D01*
X157135218Y-101988653D01*
X157122921Y-102009170D01*
X157108671Y-102028383D01*
X157092607Y-102046107D01*
X157074883Y-102062171D01*
X157055670Y-102076421D01*
X157035153Y-102088718D01*
X157013529Y-102098946D01*
X156991007Y-102107004D01*
X156967803Y-102112816D01*
X156944142Y-102116326D01*
X156920250Y-102117500D01*
X156007750Y-102117500D01*
X155983858Y-102116326D01*
X155960197Y-102112816D01*
X155936993Y-102107004D01*
X155914471Y-102098946D01*
X155892847Y-102088718D01*
X155872330Y-102076421D01*
X155853117Y-102062171D01*
X155835393Y-102046107D01*
X155819329Y-102028383D01*
X155805079Y-102009170D01*
X155792782Y-101988653D01*
X155782554Y-101967029D01*
X155774496Y-101944507D01*
X155768684Y-101921303D01*
X155765174Y-101897642D01*
X155764000Y-101873750D01*
X155764000Y-101386250D01*
X155765174Y-101362358D01*
X155768684Y-101338697D01*
X155774496Y-101315493D01*
X155782554Y-101292971D01*
X155792782Y-101271347D01*
X155805079Y-101250830D01*
X155819329Y-101231617D01*
X155835393Y-101213893D01*
X155853117Y-101197829D01*
X155872330Y-101183579D01*
X155892847Y-101171282D01*
X155914471Y-101161054D01*
X155936993Y-101152996D01*
X155960197Y-101147184D01*
X155983858Y-101143674D01*
X156007750Y-101142500D01*
X156920250Y-101142500D01*
X156944142Y-101143674D01*
X156944142Y-101143674D01*
G37*
D12*
X156464000Y-101630000D03*
D10*
G36*
X156944142Y-103018674D02*
G01*
X156967803Y-103022184D01*
X156991007Y-103027996D01*
X157013529Y-103036054D01*
X157035153Y-103046282D01*
X157055670Y-103058579D01*
X157074883Y-103072829D01*
X157092607Y-103088893D01*
X157108671Y-103106617D01*
X157122921Y-103125830D01*
X157135218Y-103146347D01*
X157145446Y-103167971D01*
X157153504Y-103190493D01*
X157159316Y-103213697D01*
X157162826Y-103237358D01*
X157164000Y-103261250D01*
X157164000Y-103748750D01*
X157162826Y-103772642D01*
X157159316Y-103796303D01*
X157153504Y-103819507D01*
X157145446Y-103842029D01*
X157135218Y-103863653D01*
X157122921Y-103884170D01*
X157108671Y-103903383D01*
X157092607Y-103921107D01*
X157074883Y-103937171D01*
X157055670Y-103951421D01*
X157035153Y-103963718D01*
X157013529Y-103973946D01*
X156991007Y-103982004D01*
X156967803Y-103987816D01*
X156944142Y-103991326D01*
X156920250Y-103992500D01*
X156007750Y-103992500D01*
X155983858Y-103991326D01*
X155960197Y-103987816D01*
X155936993Y-103982004D01*
X155914471Y-103973946D01*
X155892847Y-103963718D01*
X155872330Y-103951421D01*
X155853117Y-103937171D01*
X155835393Y-103921107D01*
X155819329Y-103903383D01*
X155805079Y-103884170D01*
X155792782Y-103863653D01*
X155782554Y-103842029D01*
X155774496Y-103819507D01*
X155768684Y-103796303D01*
X155765174Y-103772642D01*
X155764000Y-103748750D01*
X155764000Y-103261250D01*
X155765174Y-103237358D01*
X155768684Y-103213697D01*
X155774496Y-103190493D01*
X155782554Y-103167971D01*
X155792782Y-103146347D01*
X155805079Y-103125830D01*
X155819329Y-103106617D01*
X155835393Y-103088893D01*
X155853117Y-103072829D01*
X155872330Y-103058579D01*
X155892847Y-103046282D01*
X155914471Y-103036054D01*
X155936993Y-103027996D01*
X155960197Y-103022184D01*
X155983858Y-103018674D01*
X156007750Y-103017500D01*
X156920250Y-103017500D01*
X156944142Y-103018674D01*
X156944142Y-103018674D01*
G37*
D12*
X156464000Y-103505000D03*
D13*
X151089000Y-105486000D03*
X150439000Y-105486000D03*
X149789000Y-105486000D03*
X149139000Y-105486000D03*
X149139000Y-99746000D03*
X149789000Y-99746000D03*
X150439000Y-99746000D03*
X151089000Y-99746000D03*
D10*
G36*
X157304004Y-113168204D02*
G01*
X157328273Y-113171804D01*
X157352071Y-113177765D01*
X157375171Y-113186030D01*
X157397349Y-113196520D01*
X157418393Y-113209133D01*
X157438098Y-113223747D01*
X157456277Y-113240223D01*
X157472753Y-113258402D01*
X157487367Y-113278107D01*
X157499980Y-113299151D01*
X157510470Y-113321329D01*
X157518735Y-113344429D01*
X157524696Y-113368227D01*
X157528296Y-113392496D01*
X157529500Y-113417000D01*
X157529500Y-114167000D01*
X157528296Y-114191504D01*
X157524696Y-114215773D01*
X157518735Y-114239571D01*
X157510470Y-114262671D01*
X157499980Y-114284849D01*
X157487367Y-114305893D01*
X157472753Y-114325598D01*
X157456277Y-114343777D01*
X157438098Y-114360253D01*
X157418393Y-114374867D01*
X157397349Y-114387480D01*
X157375171Y-114397970D01*
X157352071Y-114406235D01*
X157328273Y-114412196D01*
X157304004Y-114415796D01*
X157279500Y-114417000D01*
X156029500Y-114417000D01*
X156004996Y-114415796D01*
X155980727Y-114412196D01*
X155956929Y-114406235D01*
X155933829Y-114397970D01*
X155911651Y-114387480D01*
X155890607Y-114374867D01*
X155870902Y-114360253D01*
X155852723Y-114343777D01*
X155836247Y-114325598D01*
X155821633Y-114305893D01*
X155809020Y-114284849D01*
X155798530Y-114262671D01*
X155790265Y-114239571D01*
X155784304Y-114215773D01*
X155780704Y-114191504D01*
X155779500Y-114167000D01*
X155779500Y-113417000D01*
X155780704Y-113392496D01*
X155784304Y-113368227D01*
X155790265Y-113344429D01*
X155798530Y-113321329D01*
X155809020Y-113299151D01*
X155821633Y-113278107D01*
X155836247Y-113258402D01*
X155852723Y-113240223D01*
X155870902Y-113223747D01*
X155890607Y-113209133D01*
X155911651Y-113196520D01*
X155933829Y-113186030D01*
X155956929Y-113177765D01*
X155980727Y-113171804D01*
X156004996Y-113168204D01*
X156029500Y-113167000D01*
X157279500Y-113167000D01*
X157304004Y-113168204D01*
X157304004Y-113168204D01*
G37*
D14*
X156654500Y-113792000D03*
D10*
G36*
X157304004Y-110368204D02*
G01*
X157328273Y-110371804D01*
X157352071Y-110377765D01*
X157375171Y-110386030D01*
X157397349Y-110396520D01*
X157418393Y-110409133D01*
X157438098Y-110423747D01*
X157456277Y-110440223D01*
X157472753Y-110458402D01*
X157487367Y-110478107D01*
X157499980Y-110499151D01*
X157510470Y-110521329D01*
X157518735Y-110544429D01*
X157524696Y-110568227D01*
X157528296Y-110592496D01*
X157529500Y-110617000D01*
X157529500Y-111367000D01*
X157528296Y-111391504D01*
X157524696Y-111415773D01*
X157518735Y-111439571D01*
X157510470Y-111462671D01*
X157499980Y-111484849D01*
X157487367Y-111505893D01*
X157472753Y-111525598D01*
X157456277Y-111543777D01*
X157438098Y-111560253D01*
X157418393Y-111574867D01*
X157397349Y-111587480D01*
X157375171Y-111597970D01*
X157352071Y-111606235D01*
X157328273Y-111612196D01*
X157304004Y-111615796D01*
X157279500Y-111617000D01*
X156029500Y-111617000D01*
X156004996Y-111615796D01*
X155980727Y-111612196D01*
X155956929Y-111606235D01*
X155933829Y-111597970D01*
X155911651Y-111587480D01*
X155890607Y-111574867D01*
X155870902Y-111560253D01*
X155852723Y-111543777D01*
X155836247Y-111525598D01*
X155821633Y-111505893D01*
X155809020Y-111484849D01*
X155798530Y-111462671D01*
X155790265Y-111439571D01*
X155784304Y-111415773D01*
X155780704Y-111391504D01*
X155779500Y-111367000D01*
X155779500Y-110617000D01*
X155780704Y-110592496D01*
X155784304Y-110568227D01*
X155790265Y-110544429D01*
X155798530Y-110521329D01*
X155809020Y-110499151D01*
X155821633Y-110478107D01*
X155836247Y-110458402D01*
X155852723Y-110440223D01*
X155870902Y-110423747D01*
X155890607Y-110409133D01*
X155911651Y-110396520D01*
X155933829Y-110386030D01*
X155956929Y-110377765D01*
X155980727Y-110371804D01*
X156004996Y-110368204D01*
X156029500Y-110367000D01*
X157279500Y-110367000D01*
X157304004Y-110368204D01*
X157304004Y-110368204D01*
G37*
D14*
X156654500Y-110992000D03*
M02*
