G04 #@! TF.GenerationSoftware,KiCad,Pcbnew,(5.1.4)-1*
G04 #@! TF.CreationDate,2019-09-18T19:17:11-04:00*
G04 #@! TF.ProjectId,clock_buffer,636c6f63-6b5f-4627-9566-6665722e6b69,rev?*
G04 #@! TF.SameCoordinates,Original*
G04 #@! TF.FileFunction,Legend,Bot*
G04 #@! TF.FilePolarity,Positive*
%FSLAX46Y46*%
G04 Gerber Fmt 4.6, Leading zero omitted, Abs format (unit mm)*
G04 Created by KiCad (PCBNEW (5.1.4)-1) date 2019-09-18 19:17:11*
%MOMM*%
%LPD*%
G04 APERTURE LIST*
%ADD10C,0.120000*%
G04 APERTURE END LIST*
D10*
X151148285Y-107986380D02*
X151110190Y-108024476D01*
X151072095Y-108138761D01*
X151072095Y-108214952D01*
X151110190Y-108329238D01*
X151186380Y-108405428D01*
X151262571Y-108443523D01*
X151414952Y-108481619D01*
X151529238Y-108481619D01*
X151681619Y-108443523D01*
X151757809Y-108405428D01*
X151834000Y-108329238D01*
X151872095Y-108214952D01*
X151872095Y-108138761D01*
X151834000Y-108024476D01*
X151795904Y-107986380D01*
X151110190Y-107338761D02*
X151072095Y-107414952D01*
X151072095Y-107567333D01*
X151110190Y-107643523D01*
X151186380Y-107681619D01*
X151491142Y-107681619D01*
X151567333Y-107643523D01*
X151605428Y-107567333D01*
X151605428Y-107414952D01*
X151567333Y-107338761D01*
X151491142Y-107300666D01*
X151414952Y-107300666D01*
X151338761Y-107681619D01*
X151072095Y-106957809D02*
X151872095Y-106957809D01*
X151072095Y-106500666D01*
X151872095Y-106500666D01*
X151872095Y-106234000D02*
X151872095Y-105776857D01*
X151072095Y-106005428D02*
X151872095Y-106005428D01*
X151072095Y-105053047D02*
X151453047Y-105319714D01*
X151072095Y-105510190D02*
X151872095Y-105510190D01*
X151872095Y-105205428D01*
X151834000Y-105129238D01*
X151795904Y-105091142D01*
X151719714Y-105053047D01*
X151605428Y-105053047D01*
X151529238Y-105091142D01*
X151491142Y-105129238D01*
X151453047Y-105205428D01*
X151453047Y-105510190D01*
X151491142Y-104710190D02*
X151491142Y-104443523D01*
X151072095Y-104329238D02*
X151072095Y-104710190D01*
X151872095Y-104710190D01*
X151872095Y-104329238D01*
X151872095Y-104062571D02*
X151072095Y-103529238D01*
X151872095Y-103529238D02*
X151072095Y-104062571D01*
X149752095Y-108443523D02*
X150552095Y-108443523D01*
X150552095Y-108138761D01*
X150514000Y-108062571D01*
X150475904Y-108024476D01*
X150399714Y-107986380D01*
X150285428Y-107986380D01*
X150209238Y-108024476D01*
X150171142Y-108062571D01*
X150133047Y-108138761D01*
X150133047Y-108443523D01*
X150285428Y-107300666D02*
X149752095Y-107300666D01*
X150285428Y-107643523D02*
X149866380Y-107643523D01*
X149790190Y-107605428D01*
X149752095Y-107529238D01*
X149752095Y-107414952D01*
X149790190Y-107338761D01*
X149828285Y-107300666D01*
X149752095Y-106805428D02*
X149790190Y-106881619D01*
X149866380Y-106919714D01*
X150552095Y-106919714D01*
X149790190Y-106538761D02*
X149752095Y-106462571D01*
X149752095Y-106310190D01*
X149790190Y-106233999D01*
X149866380Y-106195904D01*
X149904476Y-106195904D01*
X149980666Y-106233999D01*
X150018761Y-106310190D01*
X150018761Y-106424476D01*
X150056857Y-106500666D01*
X150133047Y-106538761D01*
X150171142Y-106538761D01*
X150247333Y-106500666D01*
X150285428Y-106424476D01*
X150285428Y-106310190D01*
X150247333Y-106233999D01*
X149790190Y-105548285D02*
X149752095Y-105624476D01*
X149752095Y-105776857D01*
X149790190Y-105853047D01*
X149866380Y-105891142D01*
X150171142Y-105891142D01*
X150247333Y-105853047D01*
X150285428Y-105776857D01*
X150285428Y-105624476D01*
X150247333Y-105548285D01*
X150171142Y-105510190D01*
X150094952Y-105510190D01*
X150018761Y-105891142D01*
X150171142Y-104900666D02*
X150133047Y-104786380D01*
X150094952Y-104748285D01*
X150018761Y-104710190D01*
X149904476Y-104710190D01*
X149828285Y-104748285D01*
X149790190Y-104786380D01*
X149752095Y-104862571D01*
X149752095Y-105167333D01*
X150552095Y-105167333D01*
X150552095Y-104900666D01*
X150514000Y-104824476D01*
X150475904Y-104786380D01*
X150399714Y-104748285D01*
X150323523Y-104748285D01*
X150247333Y-104786380D01*
X150209238Y-104824476D01*
X150171142Y-104900666D01*
X150171142Y-105167333D01*
X149752095Y-104253047D02*
X149790190Y-104329238D01*
X149866380Y-104367333D01*
X150552095Y-104367333D01*
X149752095Y-103605428D02*
X150171142Y-103605428D01*
X150247333Y-103643523D01*
X150285428Y-103719714D01*
X150285428Y-103872095D01*
X150247333Y-103948285D01*
X149790190Y-103605428D02*
X149752095Y-103681619D01*
X149752095Y-103872095D01*
X149790190Y-103948285D01*
X149866380Y-103986380D01*
X149942571Y-103986380D01*
X150018761Y-103948285D01*
X150056857Y-103872095D01*
X150056857Y-103681619D01*
X150094952Y-103605428D01*
X149790190Y-103262571D02*
X149752095Y-103186380D01*
X149752095Y-103034000D01*
X149790190Y-102957809D01*
X149866380Y-102919714D01*
X149904476Y-102919714D01*
X149980666Y-102957809D01*
X150018761Y-103034000D01*
X150018761Y-103148285D01*
X150056857Y-103224476D01*
X150133047Y-103262571D01*
X150171142Y-103262571D01*
X150247333Y-103224476D01*
X150285428Y-103148285D01*
X150285428Y-103034000D01*
X150247333Y-102957809D01*
X150285428Y-102691142D02*
X150285428Y-102386380D01*
X150552095Y-102576857D02*
X149866380Y-102576857D01*
X149790190Y-102538761D01*
X149752095Y-102462571D01*
X149752095Y-102386380D01*
X149790190Y-101814952D02*
X149752095Y-101891142D01*
X149752095Y-102043523D01*
X149790190Y-102119714D01*
X149866380Y-102157809D01*
X150171142Y-102157809D01*
X150247333Y-102119714D01*
X150285428Y-102043523D01*
X150285428Y-101891142D01*
X150247333Y-101814952D01*
X150171142Y-101776857D01*
X150094952Y-101776857D01*
X150018761Y-102157809D01*
X149752095Y-101434000D02*
X150285428Y-101434000D01*
X150133047Y-101434000D02*
X150209238Y-101395904D01*
X150247333Y-101357809D01*
X150285428Y-101281619D01*
X150285428Y-101205428D01*
X149828285Y-99872095D02*
X149790190Y-99910190D01*
X149752095Y-100024476D01*
X149752095Y-100100666D01*
X149790190Y-100214952D01*
X149866380Y-100291142D01*
X149942571Y-100329238D01*
X150094952Y-100367333D01*
X150209238Y-100367333D01*
X150361619Y-100329238D01*
X150437809Y-100291142D01*
X150514000Y-100214952D01*
X150552095Y-100100666D01*
X150552095Y-100024476D01*
X150514000Y-99910190D01*
X150475904Y-99872095D01*
X149752095Y-99148285D02*
X149752095Y-99529238D01*
X150552095Y-99529238D01*
X149752095Y-98881619D02*
X150552095Y-98881619D01*
X149752095Y-98424476D02*
X150209238Y-98767333D01*
X150552095Y-98424476D02*
X150094952Y-98881619D01*
X148851142Y-108176857D02*
X148813047Y-108062571D01*
X148774952Y-108024476D01*
X148698761Y-107986380D01*
X148584476Y-107986380D01*
X148508285Y-108024476D01*
X148470190Y-108062571D01*
X148432095Y-108138761D01*
X148432095Y-108443523D01*
X149232095Y-108443523D01*
X149232095Y-108176857D01*
X149194000Y-108100666D01*
X149155904Y-108062571D01*
X149079714Y-108024476D01*
X149003523Y-108024476D01*
X148927333Y-108062571D01*
X148889238Y-108100666D01*
X148851142Y-108176857D01*
X148851142Y-108443523D01*
X148965428Y-107300666D02*
X148432095Y-107300666D01*
X148965428Y-107643523D02*
X148546380Y-107643523D01*
X148470190Y-107605428D01*
X148432095Y-107529238D01*
X148432095Y-107414952D01*
X148470190Y-107338761D01*
X148508285Y-107300666D01*
X148965428Y-107034000D02*
X148965428Y-106729238D01*
X148432095Y-106919714D02*
X149117809Y-106919714D01*
X149194000Y-106881619D01*
X149232095Y-106805428D01*
X149232095Y-106729238D01*
X148965428Y-106576857D02*
X148965428Y-106272095D01*
X148432095Y-106462571D02*
X149117809Y-106462571D01*
X149194000Y-106424476D01*
X149232095Y-106348285D01*
X149232095Y-106272095D01*
X148470190Y-105700666D02*
X148432095Y-105776857D01*
X148432095Y-105929238D01*
X148470190Y-106005428D01*
X148546380Y-106043523D01*
X148851142Y-106043523D01*
X148927333Y-106005428D01*
X148965428Y-105929238D01*
X148965428Y-105776857D01*
X148927333Y-105700666D01*
X148851142Y-105662571D01*
X148774952Y-105662571D01*
X148698761Y-106043523D01*
X148432095Y-105319714D02*
X148965428Y-105319714D01*
X148813047Y-105319714D02*
X148889238Y-105281619D01*
X148927333Y-105243523D01*
X148965428Y-105167333D01*
X148965428Y-105091142D01*
X148432095Y-103757809D02*
X148813047Y-104024476D01*
X148432095Y-104214952D02*
X149232095Y-104214952D01*
X149232095Y-103910190D01*
X149194000Y-103834000D01*
X149155904Y-103795904D01*
X149079714Y-103757809D01*
X148965428Y-103757809D01*
X148889238Y-103795904D01*
X148851142Y-103834000D01*
X148813047Y-103910190D01*
X148813047Y-104214952D01*
X148470190Y-103110190D02*
X148432095Y-103186380D01*
X148432095Y-103338761D01*
X148470190Y-103414952D01*
X148546380Y-103453047D01*
X148851142Y-103453047D01*
X148927333Y-103414952D01*
X148965428Y-103338761D01*
X148965428Y-103186380D01*
X148927333Y-103110190D01*
X148851142Y-103072095D01*
X148774952Y-103072095D01*
X148698761Y-103453047D01*
X148965428Y-102805428D02*
X148432095Y-102614952D01*
X148965428Y-102424476D01*
X149155904Y-101548285D02*
X149194000Y-101510190D01*
X149232095Y-101434000D01*
X149232095Y-101243523D01*
X149194000Y-101167333D01*
X149155904Y-101129238D01*
X149079714Y-101091142D01*
X149003523Y-101091142D01*
X148889238Y-101129238D01*
X148432095Y-101586380D01*
X148432095Y-101091142D01*
X148508285Y-100748285D02*
X148470190Y-100710190D01*
X148432095Y-100748285D01*
X148470190Y-100786380D01*
X148508285Y-100748285D01*
X148432095Y-100748285D01*
X149232095Y-100214952D02*
X149232095Y-100138761D01*
X149194000Y-100062571D01*
X149155904Y-100024476D01*
X149079714Y-99986380D01*
X148927333Y-99948285D01*
X148736857Y-99948285D01*
X148584476Y-99986380D01*
X148508285Y-100024476D01*
X148470190Y-100062571D01*
X148432095Y-100138761D01*
X148432095Y-100214952D01*
X148470190Y-100291142D01*
X148508285Y-100329238D01*
X148584476Y-100367333D01*
X148736857Y-100405428D01*
X148927333Y-100405428D01*
X149079714Y-100367333D01*
X149155904Y-100329238D01*
X149194000Y-100291142D01*
X149232095Y-100214952D01*
M02*
