G04 #@! TF.GenerationSoftware,KiCad,Pcbnew,(5.1.4)-1*
G04 #@! TF.CreationDate,2019-09-17T16:39:36-04:00*
G04 #@! TF.ProjectId,led_lock_ctrl,6c65645f-6c6f-4636-9b5f-6374726c2e6b,rev?*
G04 #@! TF.SameCoordinates,Original*
G04 #@! TF.FileFunction,Copper,L1,Top*
G04 #@! TF.FilePolarity,Positive*
%FSLAX46Y46*%
G04 Gerber Fmt 4.6, Leading zero omitted, Abs format (unit mm)*
G04 Created by KiCad (PCBNEW (5.1.4)-1) date 2019-09-17 16:39:36*
%MOMM*%
%LPD*%
G04 APERTURE LIST*
%ADD10O,1.700000X1.700000*%
%ADD11R,1.700000X1.700000*%
%ADD12O,1.600000X1.600000*%
%ADD13R,1.600000X1.600000*%
%ADD14C,1.600000*%
%ADD15O,0.950000X1.900000*%
%ADD16R,1.200000X1.900000*%
%ADD17R,1.500000X1.900000*%
%ADD18R,0.400000X1.350000*%
%ADD19C,1.450000*%
%ADD20C,0.800000*%
%ADD21C,1.000000*%
%ADD22C,0.500000*%
%ADD23C,0.254000*%
G04 APERTURE END LIST*
D10*
X181356000Y-95758000D03*
X181356000Y-93218000D03*
D11*
X181356000Y-90678000D03*
D12*
X169926000Y-101346000D03*
X192786000Y-108966000D03*
X172466000Y-101346000D03*
X190246000Y-108966000D03*
X175006000Y-101346000D03*
X187706000Y-108966000D03*
X177546000Y-101346000D03*
X185166000Y-108966000D03*
X180086000Y-101346000D03*
X182626000Y-108966000D03*
X182626000Y-101346000D03*
X180086000Y-108966000D03*
X185166000Y-101346000D03*
X177546000Y-108966000D03*
X187706000Y-101346000D03*
X175006000Y-108966000D03*
X190246000Y-101346000D03*
X172466000Y-108966000D03*
X192786000Y-101346000D03*
D13*
X169926000Y-108966000D03*
D12*
X189738000Y-97790000D03*
D14*
X189738000Y-90170000D03*
D12*
X196596000Y-108966000D03*
D14*
X196596000Y-101346000D03*
D12*
X166116000Y-108966000D03*
D14*
X166116000Y-101346000D03*
D12*
X185674000Y-90170000D03*
D14*
X185674000Y-97790000D03*
D12*
X195326000Y-112522000D03*
D14*
X187706000Y-112522000D03*
D12*
X167386000Y-112522000D03*
D14*
X175006000Y-112522000D03*
D15*
X169474000Y-89820000D03*
X176474000Y-89820000D03*
D16*
X170074000Y-89820000D03*
X175874000Y-89820000D03*
D17*
X171974000Y-89820000D03*
X173974000Y-89820000D03*
D18*
X171674000Y-92520000D03*
X172324000Y-92520000D03*
X172974000Y-92520000D03*
X173624000Y-92520000D03*
X174274000Y-92520000D03*
D19*
X170474000Y-92520000D03*
X175474000Y-92520000D03*
D10*
X172466000Y-116586000D03*
X175006000Y-116586000D03*
X177546000Y-116586000D03*
X180086000Y-116586000D03*
X182626000Y-116586000D03*
X185166000Y-116586000D03*
X187706000Y-116586000D03*
X190246000Y-116586000D03*
D11*
X192786000Y-116586000D03*
D10*
X196850000Y-91694000D03*
X196850000Y-94234000D03*
D11*
X196850000Y-96774000D03*
D20*
X164592000Y-117856000D03*
X196850000Y-117856000D03*
X189738000Y-94234000D03*
X177038000Y-97282000D03*
X170688000Y-112522000D03*
X187706000Y-106172000D03*
D21*
X195326000Y-113653370D02*
X195326000Y-112522000D01*
X195326000Y-117899519D02*
X195326000Y-113653370D01*
X194389508Y-118836011D02*
X195326000Y-117899519D01*
X172422009Y-118836011D02*
X194389508Y-118836011D01*
X164988631Y-111256001D02*
X164841999Y-111256001D01*
X166254630Y-112522000D02*
X164988631Y-111256001D01*
X167386000Y-112522000D02*
X166254630Y-112522000D01*
X164615999Y-111030001D02*
X165857999Y-112272001D01*
X164615999Y-100625999D02*
X164615999Y-111030001D01*
X165395999Y-99845999D02*
X164615999Y-100625999D01*
X170338001Y-99845999D02*
X165395999Y-99845999D01*
X179506000Y-90678000D02*
X170338001Y-99845999D01*
X165857999Y-112272001D02*
X172422009Y-118836011D01*
X181356000Y-90678000D02*
X179506000Y-90678000D01*
X164841999Y-111256001D02*
X165857999Y-112272001D01*
D22*
X178963999Y-91220001D02*
X179506000Y-90678000D01*
X175034997Y-91220001D02*
X178963999Y-91220001D01*
X174274000Y-91980998D02*
X175034997Y-91220001D01*
X174274000Y-92520000D02*
X174274000Y-91980998D01*
D21*
X185166000Y-90678000D02*
X185674000Y-90170000D01*
X181356000Y-90678000D02*
X185166000Y-90678000D01*
D22*
X195834000Y-97790000D02*
X196850000Y-96774000D01*
X194818000Y-99314000D02*
X194818000Y-97790000D01*
X192786000Y-101346000D02*
X194818000Y-99314000D01*
X189738000Y-97790000D02*
X194818000Y-97790000D01*
X194818000Y-97790000D02*
X195834000Y-97790000D01*
X197395999Y-108166001D02*
X196596000Y-108966000D01*
X198150001Y-107411999D02*
X197395999Y-108166001D01*
X198150001Y-95534001D02*
X198150001Y-107411999D01*
X196850000Y-94234000D02*
X198150001Y-95534001D01*
X196596000Y-108966000D02*
X192786000Y-108966000D01*
X166116000Y-108966000D02*
X169926000Y-108966000D01*
X188930036Y-91694000D02*
X195647919Y-91694000D01*
X181376000Y-99248036D02*
X188930036Y-91694000D01*
X181375999Y-101906003D02*
X181376000Y-99248036D01*
X180686001Y-102596001D02*
X181375999Y-101906003D01*
X195647919Y-91694000D02*
X196850000Y-91694000D01*
X176985997Y-102596001D02*
X180686001Y-102596001D01*
X170615998Y-108966000D02*
X176985997Y-102596001D01*
X169926000Y-108966000D02*
X170615998Y-108966000D01*
X177546000Y-116586000D02*
X177546000Y-108966000D01*
X172466000Y-116586000D02*
X172466000Y-108966000D01*
X185166000Y-116586000D02*
X185166000Y-108966000D01*
X191045999Y-109765999D02*
X190246000Y-108966000D01*
X194086001Y-112806001D02*
X191045999Y-109765999D01*
X194086001Y-117796001D02*
X194086001Y-112806001D01*
X193996001Y-117886001D02*
X194086001Y-117796001D01*
X181386001Y-117886001D02*
X193996001Y-117886001D01*
X180086000Y-116586000D02*
X181386001Y-117886001D01*
X185965999Y-102145999D02*
X185166000Y-101346000D01*
X188956001Y-105136001D02*
X185965999Y-102145999D01*
X188956001Y-109526003D02*
X188956001Y-105136001D01*
X192786000Y-113356002D02*
X188956001Y-109526003D01*
X192786000Y-116586000D02*
X192786000Y-113356002D01*
X190246000Y-100214630D02*
X190246000Y-101346000D01*
X183915999Y-97697999D02*
X185073999Y-96539999D01*
X186571369Y-96539999D02*
X190246000Y-100214630D01*
X183915999Y-103623999D02*
X183915999Y-97697999D01*
X186455999Y-106163999D02*
X183915999Y-103623999D01*
X185073999Y-96539999D02*
X186571369Y-96539999D01*
X186455999Y-115335999D02*
X186455999Y-106163999D01*
X187706000Y-116586000D02*
X186455999Y-115335999D01*
X175006000Y-112522000D02*
X175006000Y-108966000D01*
X187706000Y-112522000D02*
X187706000Y-108966000D01*
X187706000Y-99822000D02*
X185674000Y-97790000D01*
X187706000Y-101346000D02*
X187706000Y-99822000D01*
X180086000Y-97028000D02*
X181356000Y-95758000D01*
X180086000Y-101346000D02*
X180086000Y-97028000D01*
D23*
G36*
X198222000Y-118974000D02*
G01*
X195856651Y-118974000D01*
X196089145Y-118741506D01*
X196132449Y-118705968D01*
X196274284Y-118533142D01*
X196379676Y-118335966D01*
X196444577Y-118122018D01*
X196461000Y-117955271D01*
X196461000Y-117955270D01*
X196466491Y-117899519D01*
X196461000Y-117843767D01*
X196461000Y-113401002D01*
X196524932Y-113323101D01*
X196658182Y-113073808D01*
X196740236Y-112803309D01*
X196767943Y-112522000D01*
X196740236Y-112240691D01*
X196658182Y-111970192D01*
X196524932Y-111720899D01*
X196345608Y-111502392D01*
X196127101Y-111323068D01*
X195877808Y-111189818D01*
X195607309Y-111107764D01*
X195396492Y-111087000D01*
X195255508Y-111087000D01*
X195044691Y-111107764D01*
X194774192Y-111189818D01*
X194524899Y-111323068D01*
X194306392Y-111502392D01*
X194183597Y-111652018D01*
X192925756Y-110394178D01*
X193067309Y-110380236D01*
X193337808Y-110298182D01*
X193587101Y-110164932D01*
X193805608Y-109985608D01*
X193916078Y-109851000D01*
X195465922Y-109851000D01*
X195576392Y-109985608D01*
X195794899Y-110164932D01*
X196044192Y-110298182D01*
X196314691Y-110380236D01*
X196525508Y-110401000D01*
X196666492Y-110401000D01*
X196877309Y-110380236D01*
X197147808Y-110298182D01*
X197397101Y-110164932D01*
X197615608Y-109985608D01*
X197794932Y-109767101D01*
X197928182Y-109517808D01*
X198010236Y-109247309D01*
X198037943Y-108966000D01*
X198020875Y-108792704D01*
X198052531Y-108761048D01*
X198052535Y-108761043D01*
X198222000Y-108591578D01*
X198222000Y-118974000D01*
X198222000Y-118974000D01*
G37*
X198222000Y-118974000D02*
X195856651Y-118974000D01*
X196089145Y-118741506D01*
X196132449Y-118705968D01*
X196274284Y-118533142D01*
X196379676Y-118335966D01*
X196444577Y-118122018D01*
X196461000Y-117955271D01*
X196461000Y-117955270D01*
X196466491Y-117899519D01*
X196461000Y-117843767D01*
X196461000Y-113401002D01*
X196524932Y-113323101D01*
X196658182Y-113073808D01*
X196740236Y-112803309D01*
X196767943Y-112522000D01*
X196740236Y-112240691D01*
X196658182Y-111970192D01*
X196524932Y-111720899D01*
X196345608Y-111502392D01*
X196127101Y-111323068D01*
X195877808Y-111189818D01*
X195607309Y-111107764D01*
X195396492Y-111087000D01*
X195255508Y-111087000D01*
X195044691Y-111107764D01*
X194774192Y-111189818D01*
X194524899Y-111323068D01*
X194306392Y-111502392D01*
X194183597Y-111652018D01*
X192925756Y-110394178D01*
X193067309Y-110380236D01*
X193337808Y-110298182D01*
X193587101Y-110164932D01*
X193805608Y-109985608D01*
X193916078Y-109851000D01*
X195465922Y-109851000D01*
X195576392Y-109985608D01*
X195794899Y-110164932D01*
X196044192Y-110298182D01*
X196314691Y-110380236D01*
X196525508Y-110401000D01*
X196666492Y-110401000D01*
X196877309Y-110380236D01*
X197147808Y-110298182D01*
X197397101Y-110164932D01*
X197615608Y-109985608D01*
X197794932Y-109767101D01*
X197928182Y-109517808D01*
X198010236Y-109247309D01*
X198037943Y-108966000D01*
X198020875Y-108792704D01*
X198052531Y-108761048D01*
X198052535Y-108761043D01*
X198222000Y-108591578D01*
X198222000Y-118974000D01*
G36*
X164101248Y-89879500D02*
G01*
X168364000Y-89879500D01*
X168364000Y-90422000D01*
X168410105Y-90636110D01*
X168497095Y-90837111D01*
X168621627Y-91017279D01*
X168778915Y-91169690D01*
X168962914Y-91288487D01*
X169176062Y-91364268D01*
X169202342Y-91344815D01*
X169229820Y-91359502D01*
X169346998Y-91395048D01*
X169346998Y-91405000D01*
X169442808Y-91405000D01*
X169474000Y-91408072D01*
X169760909Y-91405267D01*
X169714472Y-91580867D01*
X170474000Y-92340395D01*
X170488143Y-92326253D01*
X170667748Y-92505858D01*
X170653605Y-92520000D01*
X170667748Y-92534143D01*
X170488143Y-92713748D01*
X170474000Y-92699605D01*
X169714472Y-93459133D01*
X169776965Y-93695450D01*
X170019678Y-93808850D01*
X170279849Y-93872719D01*
X170547482Y-93884604D01*
X170812291Y-93844048D01*
X171064100Y-93752609D01*
X171118136Y-93723725D01*
X171220424Y-93780521D01*
X171339526Y-93818741D01*
X171442250Y-93830000D01*
X171601000Y-93671250D01*
X171601000Y-93558678D01*
X171672815Y-93646185D01*
X171769506Y-93725537D01*
X171837782Y-93762032D01*
X171905750Y-93830000D01*
X171996880Y-93820012D01*
X171999518Y-93820812D01*
X172124000Y-93833072D01*
X172524000Y-93833072D01*
X172648482Y-93820812D01*
X172649000Y-93820655D01*
X172649518Y-93820812D01*
X172774000Y-93833072D01*
X173174000Y-93833072D01*
X173298482Y-93820812D01*
X173299000Y-93820655D01*
X173299518Y-93820812D01*
X173424000Y-93833072D01*
X173824000Y-93833072D01*
X173948482Y-93820812D01*
X173949000Y-93820655D01*
X173949518Y-93820812D01*
X174074000Y-93833072D01*
X174474000Y-93833072D01*
X174598482Y-93820812D01*
X174718180Y-93784502D01*
X174828494Y-93725537D01*
X174833162Y-93721706D01*
X174849519Y-93729349D01*
X169867870Y-98710999D01*
X165451751Y-98710999D01*
X165395999Y-98705508D01*
X165173500Y-98727422D01*
X164959552Y-98792323D01*
X164762376Y-98897715D01*
X164632855Y-99004010D01*
X164632853Y-99004012D01*
X164589550Y-99039550D01*
X164554011Y-99082854D01*
X163852863Y-99784004D01*
X163809550Y-99819550D01*
X163667715Y-99992376D01*
X163576883Y-100162313D01*
X163562323Y-100189553D01*
X163497422Y-100403501D01*
X163475508Y-100625999D01*
X163480999Y-100681751D01*
X163481000Y-110974240D01*
X163475508Y-111030001D01*
X163497422Y-111252499D01*
X163562323Y-111466447D01*
X163581536Y-111502392D01*
X163667716Y-111663624D01*
X163809551Y-111836450D01*
X163852859Y-111871992D01*
X164000004Y-112019137D01*
X164035550Y-112062450D01*
X164078863Y-112097996D01*
X165094855Y-113113989D01*
X165094861Y-113113994D01*
X170954866Y-118974000D01*
X163474000Y-118974000D01*
X163474000Y-92593482D01*
X169109396Y-92593482D01*
X169149952Y-92858291D01*
X169241391Y-93110100D01*
X169298550Y-93217035D01*
X169534867Y-93279528D01*
X170294395Y-92520000D01*
X169534867Y-91760472D01*
X169298550Y-91822965D01*
X169185150Y-92065678D01*
X169121281Y-92325849D01*
X169109396Y-92593482D01*
X163474000Y-92593482D01*
X163474000Y-89052000D01*
X164101248Y-89052000D01*
X164101248Y-89879500D01*
X164101248Y-89879500D01*
G37*
X164101248Y-89879500D02*
X168364000Y-89879500D01*
X168364000Y-90422000D01*
X168410105Y-90636110D01*
X168497095Y-90837111D01*
X168621627Y-91017279D01*
X168778915Y-91169690D01*
X168962914Y-91288487D01*
X169176062Y-91364268D01*
X169202342Y-91344815D01*
X169229820Y-91359502D01*
X169346998Y-91395048D01*
X169346998Y-91405000D01*
X169442808Y-91405000D01*
X169474000Y-91408072D01*
X169760909Y-91405267D01*
X169714472Y-91580867D01*
X170474000Y-92340395D01*
X170488143Y-92326253D01*
X170667748Y-92505858D01*
X170653605Y-92520000D01*
X170667748Y-92534143D01*
X170488143Y-92713748D01*
X170474000Y-92699605D01*
X169714472Y-93459133D01*
X169776965Y-93695450D01*
X170019678Y-93808850D01*
X170279849Y-93872719D01*
X170547482Y-93884604D01*
X170812291Y-93844048D01*
X171064100Y-93752609D01*
X171118136Y-93723725D01*
X171220424Y-93780521D01*
X171339526Y-93818741D01*
X171442250Y-93830000D01*
X171601000Y-93671250D01*
X171601000Y-93558678D01*
X171672815Y-93646185D01*
X171769506Y-93725537D01*
X171837782Y-93762032D01*
X171905750Y-93830000D01*
X171996880Y-93820012D01*
X171999518Y-93820812D01*
X172124000Y-93833072D01*
X172524000Y-93833072D01*
X172648482Y-93820812D01*
X172649000Y-93820655D01*
X172649518Y-93820812D01*
X172774000Y-93833072D01*
X173174000Y-93833072D01*
X173298482Y-93820812D01*
X173299000Y-93820655D01*
X173299518Y-93820812D01*
X173424000Y-93833072D01*
X173824000Y-93833072D01*
X173948482Y-93820812D01*
X173949000Y-93820655D01*
X173949518Y-93820812D01*
X174074000Y-93833072D01*
X174474000Y-93833072D01*
X174598482Y-93820812D01*
X174718180Y-93784502D01*
X174828494Y-93725537D01*
X174833162Y-93721706D01*
X174849519Y-93729349D01*
X169867870Y-98710999D01*
X165451751Y-98710999D01*
X165395999Y-98705508D01*
X165173500Y-98727422D01*
X164959552Y-98792323D01*
X164762376Y-98897715D01*
X164632855Y-99004010D01*
X164632853Y-99004012D01*
X164589550Y-99039550D01*
X164554011Y-99082854D01*
X163852863Y-99784004D01*
X163809550Y-99819550D01*
X163667715Y-99992376D01*
X163576883Y-100162313D01*
X163562323Y-100189553D01*
X163497422Y-100403501D01*
X163475508Y-100625999D01*
X163480999Y-100681751D01*
X163481000Y-110974240D01*
X163475508Y-111030001D01*
X163497422Y-111252499D01*
X163562323Y-111466447D01*
X163581536Y-111502392D01*
X163667716Y-111663624D01*
X163809551Y-111836450D01*
X163852859Y-111871992D01*
X164000004Y-112019137D01*
X164035550Y-112062450D01*
X164078863Y-112097996D01*
X165094855Y-113113989D01*
X165094861Y-113113994D01*
X170954866Y-118974000D01*
X163474000Y-118974000D01*
X163474000Y-92593482D01*
X169109396Y-92593482D01*
X169149952Y-92858291D01*
X169241391Y-93110100D01*
X169298550Y-93217035D01*
X169534867Y-93279528D01*
X170294395Y-92520000D01*
X169534867Y-91760472D01*
X169298550Y-91822965D01*
X169185150Y-92065678D01*
X169121281Y-92325849D01*
X169109396Y-92593482D01*
X163474000Y-92593482D01*
X163474000Y-89052000D01*
X164101248Y-89052000D01*
X164101248Y-89879500D01*
G36*
X176347068Y-109767101D02*
G01*
X176526392Y-109985608D01*
X176661001Y-110096079D01*
X176661000Y-115391240D01*
X176490866Y-115530866D01*
X176305294Y-115756986D01*
X176270799Y-115821523D01*
X176201178Y-115704645D01*
X176006269Y-115488412D01*
X175772920Y-115314359D01*
X175510099Y-115189175D01*
X175362890Y-115144524D01*
X175133000Y-115265845D01*
X175133000Y-116459000D01*
X175153000Y-116459000D01*
X175153000Y-116713000D01*
X175133000Y-116713000D01*
X175133000Y-116733000D01*
X174879000Y-116733000D01*
X174879000Y-116713000D01*
X174859000Y-116713000D01*
X174859000Y-116459000D01*
X174879000Y-116459000D01*
X174879000Y-115265845D01*
X174649110Y-115144524D01*
X174501901Y-115189175D01*
X174239080Y-115314359D01*
X174005731Y-115488412D01*
X173810822Y-115704645D01*
X173741201Y-115821523D01*
X173706706Y-115756986D01*
X173521134Y-115530866D01*
X173351000Y-115391241D01*
X173351000Y-110096078D01*
X173485608Y-109985608D01*
X173664932Y-109767101D01*
X173736000Y-109634142D01*
X173807068Y-109767101D01*
X173986392Y-109985608D01*
X174121001Y-110096078D01*
X174121000Y-111387479D01*
X174091241Y-111407363D01*
X173891363Y-111607241D01*
X173734320Y-111842273D01*
X173626147Y-112103426D01*
X173571000Y-112380665D01*
X173571000Y-112663335D01*
X173626147Y-112940574D01*
X173734320Y-113201727D01*
X173891363Y-113436759D01*
X174091241Y-113636637D01*
X174326273Y-113793680D01*
X174587426Y-113901853D01*
X174864665Y-113957000D01*
X175147335Y-113957000D01*
X175424574Y-113901853D01*
X175685727Y-113793680D01*
X175920759Y-113636637D01*
X176120637Y-113436759D01*
X176277680Y-113201727D01*
X176385853Y-112940574D01*
X176441000Y-112663335D01*
X176441000Y-112380665D01*
X176385853Y-112103426D01*
X176277680Y-111842273D01*
X176120637Y-111607241D01*
X175920759Y-111407363D01*
X175891000Y-111387479D01*
X175891000Y-110096078D01*
X176025608Y-109985608D01*
X176204932Y-109767101D01*
X176276000Y-109634142D01*
X176347068Y-109767101D01*
X176347068Y-109767101D01*
G37*
X176347068Y-109767101D02*
X176526392Y-109985608D01*
X176661001Y-110096079D01*
X176661000Y-115391240D01*
X176490866Y-115530866D01*
X176305294Y-115756986D01*
X176270799Y-115821523D01*
X176201178Y-115704645D01*
X176006269Y-115488412D01*
X175772920Y-115314359D01*
X175510099Y-115189175D01*
X175362890Y-115144524D01*
X175133000Y-115265845D01*
X175133000Y-116459000D01*
X175153000Y-116459000D01*
X175153000Y-116713000D01*
X175133000Y-116713000D01*
X175133000Y-116733000D01*
X174879000Y-116733000D01*
X174879000Y-116713000D01*
X174859000Y-116713000D01*
X174859000Y-116459000D01*
X174879000Y-116459000D01*
X174879000Y-115265845D01*
X174649110Y-115144524D01*
X174501901Y-115189175D01*
X174239080Y-115314359D01*
X174005731Y-115488412D01*
X173810822Y-115704645D01*
X173741201Y-115821523D01*
X173706706Y-115756986D01*
X173521134Y-115530866D01*
X173351000Y-115391241D01*
X173351000Y-110096078D01*
X173485608Y-109985608D01*
X173664932Y-109767101D01*
X173736000Y-109634142D01*
X173807068Y-109767101D01*
X173986392Y-109985608D01*
X174121001Y-110096078D01*
X174121000Y-111387479D01*
X174091241Y-111407363D01*
X173891363Y-111607241D01*
X173734320Y-111842273D01*
X173626147Y-112103426D01*
X173571000Y-112380665D01*
X173571000Y-112663335D01*
X173626147Y-112940574D01*
X173734320Y-113201727D01*
X173891363Y-113436759D01*
X174091241Y-113636637D01*
X174326273Y-113793680D01*
X174587426Y-113901853D01*
X174864665Y-113957000D01*
X175147335Y-113957000D01*
X175424574Y-113901853D01*
X175685727Y-113793680D01*
X175920759Y-113636637D01*
X176120637Y-113436759D01*
X176277680Y-113201727D01*
X176385853Y-112940574D01*
X176441000Y-112663335D01*
X176441000Y-112380665D01*
X176385853Y-112103426D01*
X176277680Y-111842273D01*
X176120637Y-111607241D01*
X175920759Y-111407363D01*
X175891000Y-111387479D01*
X175891000Y-110096078D01*
X176025608Y-109985608D01*
X176204932Y-109767101D01*
X176276000Y-109634142D01*
X176347068Y-109767101D01*
G36*
X182074192Y-102678182D02*
G01*
X182344691Y-102760236D01*
X182555508Y-102781000D01*
X182696492Y-102781000D01*
X182907309Y-102760236D01*
X183030999Y-102722715D01*
X183030999Y-103580530D01*
X183026718Y-103623999D01*
X183030999Y-103667468D01*
X183030999Y-103667475D01*
X183043804Y-103797488D01*
X183094410Y-103964311D01*
X183176588Y-104118057D01*
X183287182Y-104252816D01*
X183320955Y-104280533D01*
X185571000Y-106530579D01*
X185571000Y-107589285D01*
X185447309Y-107551764D01*
X185236492Y-107531000D01*
X185095508Y-107531000D01*
X184884691Y-107551764D01*
X184614192Y-107633818D01*
X184364899Y-107767068D01*
X184146392Y-107946392D01*
X183967068Y-108164899D01*
X183893421Y-108302682D01*
X183778385Y-108110869D01*
X183589414Y-107902481D01*
X183363420Y-107734963D01*
X183109087Y-107614754D01*
X182975039Y-107574096D01*
X182753000Y-107696085D01*
X182753000Y-108839000D01*
X182773000Y-108839000D01*
X182773000Y-109093000D01*
X182753000Y-109093000D01*
X182753000Y-110235915D01*
X182975039Y-110357904D01*
X183109087Y-110317246D01*
X183363420Y-110197037D01*
X183589414Y-110029519D01*
X183778385Y-109821131D01*
X183893421Y-109629318D01*
X183967068Y-109767101D01*
X184146392Y-109985608D01*
X184281001Y-110096079D01*
X184281000Y-115391240D01*
X184110866Y-115530866D01*
X183925294Y-115756986D01*
X183890799Y-115821523D01*
X183821178Y-115704645D01*
X183626269Y-115488412D01*
X183392920Y-115314359D01*
X183130099Y-115189175D01*
X182982890Y-115144524D01*
X182753000Y-115265845D01*
X182753000Y-116459000D01*
X182773000Y-116459000D01*
X182773000Y-116713000D01*
X182753000Y-116713000D01*
X182753000Y-116733000D01*
X182499000Y-116733000D01*
X182499000Y-116713000D01*
X182479000Y-116713000D01*
X182479000Y-116459000D01*
X182499000Y-116459000D01*
X182499000Y-115265845D01*
X182269110Y-115144524D01*
X182121901Y-115189175D01*
X181859080Y-115314359D01*
X181625731Y-115488412D01*
X181430822Y-115704645D01*
X181361201Y-115821523D01*
X181326706Y-115756986D01*
X181141134Y-115530866D01*
X180915014Y-115345294D01*
X180657034Y-115207401D01*
X180377111Y-115122487D01*
X180158950Y-115101000D01*
X180013050Y-115101000D01*
X179794889Y-115122487D01*
X179514966Y-115207401D01*
X179256986Y-115345294D01*
X179030866Y-115530866D01*
X178845294Y-115756986D01*
X178816000Y-115811791D01*
X178786706Y-115756986D01*
X178601134Y-115530866D01*
X178431000Y-115391241D01*
X178431000Y-110096078D01*
X178565608Y-109985608D01*
X178744932Y-109767101D01*
X178818579Y-109629318D01*
X178933615Y-109821131D01*
X179122586Y-110029519D01*
X179348580Y-110197037D01*
X179602913Y-110317246D01*
X179736961Y-110357904D01*
X179959000Y-110235915D01*
X179959000Y-109093000D01*
X180213000Y-109093000D01*
X180213000Y-110235915D01*
X180435039Y-110357904D01*
X180569087Y-110317246D01*
X180823420Y-110197037D01*
X181049414Y-110029519D01*
X181238385Y-109821131D01*
X181356000Y-109625018D01*
X181473615Y-109821131D01*
X181662586Y-110029519D01*
X181888580Y-110197037D01*
X182142913Y-110317246D01*
X182276961Y-110357904D01*
X182499000Y-110235915D01*
X182499000Y-109093000D01*
X180213000Y-109093000D01*
X179959000Y-109093000D01*
X179939000Y-109093000D01*
X179939000Y-108839000D01*
X179959000Y-108839000D01*
X179959000Y-107696085D01*
X180213000Y-107696085D01*
X180213000Y-108839000D01*
X182499000Y-108839000D01*
X182499000Y-107696085D01*
X182276961Y-107574096D01*
X182142913Y-107614754D01*
X181888580Y-107734963D01*
X181662586Y-107902481D01*
X181473615Y-108110869D01*
X181356000Y-108306982D01*
X181238385Y-108110869D01*
X181049414Y-107902481D01*
X180823420Y-107734963D01*
X180569087Y-107614754D01*
X180435039Y-107574096D01*
X180213000Y-107696085D01*
X179959000Y-107696085D01*
X179736961Y-107574096D01*
X179602913Y-107614754D01*
X179348580Y-107734963D01*
X179122586Y-107902481D01*
X178933615Y-108110869D01*
X178818579Y-108302682D01*
X178744932Y-108164899D01*
X178565608Y-107946392D01*
X178347101Y-107767068D01*
X178097808Y-107633818D01*
X177827309Y-107551764D01*
X177616492Y-107531000D01*
X177475508Y-107531000D01*
X177264691Y-107551764D01*
X176994192Y-107633818D01*
X176744899Y-107767068D01*
X176526392Y-107946392D01*
X176347068Y-108164899D01*
X176276000Y-108297858D01*
X176204932Y-108164899D01*
X176025608Y-107946392D01*
X175807101Y-107767068D01*
X175557808Y-107633818D01*
X175287309Y-107551764D01*
X175076492Y-107531000D01*
X174935508Y-107531000D01*
X174724691Y-107551764D01*
X174454192Y-107633818D01*
X174204899Y-107767068D01*
X173986392Y-107946392D01*
X173807068Y-108164899D01*
X173736000Y-108297858D01*
X173664932Y-108164899D01*
X173485608Y-107946392D01*
X173267101Y-107767068D01*
X173136380Y-107697196D01*
X177352576Y-103481001D01*
X180642532Y-103481001D01*
X180686001Y-103485282D01*
X180729470Y-103481001D01*
X180729478Y-103481001D01*
X180859491Y-103468196D01*
X181026314Y-103417590D01*
X181180060Y-103335412D01*
X181314818Y-103224818D01*
X181342535Y-103191045D01*
X181931610Y-102601970D01*
X182074192Y-102678182D01*
X182074192Y-102678182D01*
G37*
X182074192Y-102678182D02*
X182344691Y-102760236D01*
X182555508Y-102781000D01*
X182696492Y-102781000D01*
X182907309Y-102760236D01*
X183030999Y-102722715D01*
X183030999Y-103580530D01*
X183026718Y-103623999D01*
X183030999Y-103667468D01*
X183030999Y-103667475D01*
X183043804Y-103797488D01*
X183094410Y-103964311D01*
X183176588Y-104118057D01*
X183287182Y-104252816D01*
X183320955Y-104280533D01*
X185571000Y-106530579D01*
X185571000Y-107589285D01*
X185447309Y-107551764D01*
X185236492Y-107531000D01*
X185095508Y-107531000D01*
X184884691Y-107551764D01*
X184614192Y-107633818D01*
X184364899Y-107767068D01*
X184146392Y-107946392D01*
X183967068Y-108164899D01*
X183893421Y-108302682D01*
X183778385Y-108110869D01*
X183589414Y-107902481D01*
X183363420Y-107734963D01*
X183109087Y-107614754D01*
X182975039Y-107574096D01*
X182753000Y-107696085D01*
X182753000Y-108839000D01*
X182773000Y-108839000D01*
X182773000Y-109093000D01*
X182753000Y-109093000D01*
X182753000Y-110235915D01*
X182975039Y-110357904D01*
X183109087Y-110317246D01*
X183363420Y-110197037D01*
X183589414Y-110029519D01*
X183778385Y-109821131D01*
X183893421Y-109629318D01*
X183967068Y-109767101D01*
X184146392Y-109985608D01*
X184281001Y-110096079D01*
X184281000Y-115391240D01*
X184110866Y-115530866D01*
X183925294Y-115756986D01*
X183890799Y-115821523D01*
X183821178Y-115704645D01*
X183626269Y-115488412D01*
X183392920Y-115314359D01*
X183130099Y-115189175D01*
X182982890Y-115144524D01*
X182753000Y-115265845D01*
X182753000Y-116459000D01*
X182773000Y-116459000D01*
X182773000Y-116713000D01*
X182753000Y-116713000D01*
X182753000Y-116733000D01*
X182499000Y-116733000D01*
X182499000Y-116713000D01*
X182479000Y-116713000D01*
X182479000Y-116459000D01*
X182499000Y-116459000D01*
X182499000Y-115265845D01*
X182269110Y-115144524D01*
X182121901Y-115189175D01*
X181859080Y-115314359D01*
X181625731Y-115488412D01*
X181430822Y-115704645D01*
X181361201Y-115821523D01*
X181326706Y-115756986D01*
X181141134Y-115530866D01*
X180915014Y-115345294D01*
X180657034Y-115207401D01*
X180377111Y-115122487D01*
X180158950Y-115101000D01*
X180013050Y-115101000D01*
X179794889Y-115122487D01*
X179514966Y-115207401D01*
X179256986Y-115345294D01*
X179030866Y-115530866D01*
X178845294Y-115756986D01*
X178816000Y-115811791D01*
X178786706Y-115756986D01*
X178601134Y-115530866D01*
X178431000Y-115391241D01*
X178431000Y-110096078D01*
X178565608Y-109985608D01*
X178744932Y-109767101D01*
X178818579Y-109629318D01*
X178933615Y-109821131D01*
X179122586Y-110029519D01*
X179348580Y-110197037D01*
X179602913Y-110317246D01*
X179736961Y-110357904D01*
X179959000Y-110235915D01*
X179959000Y-109093000D01*
X180213000Y-109093000D01*
X180213000Y-110235915D01*
X180435039Y-110357904D01*
X180569087Y-110317246D01*
X180823420Y-110197037D01*
X181049414Y-110029519D01*
X181238385Y-109821131D01*
X181356000Y-109625018D01*
X181473615Y-109821131D01*
X181662586Y-110029519D01*
X181888580Y-110197037D01*
X182142913Y-110317246D01*
X182276961Y-110357904D01*
X182499000Y-110235915D01*
X182499000Y-109093000D01*
X180213000Y-109093000D01*
X179959000Y-109093000D01*
X179939000Y-109093000D01*
X179939000Y-108839000D01*
X179959000Y-108839000D01*
X179959000Y-107696085D01*
X180213000Y-107696085D01*
X180213000Y-108839000D01*
X182499000Y-108839000D01*
X182499000Y-107696085D01*
X182276961Y-107574096D01*
X182142913Y-107614754D01*
X181888580Y-107734963D01*
X181662586Y-107902481D01*
X181473615Y-108110869D01*
X181356000Y-108306982D01*
X181238385Y-108110869D01*
X181049414Y-107902481D01*
X180823420Y-107734963D01*
X180569087Y-107614754D01*
X180435039Y-107574096D01*
X180213000Y-107696085D01*
X179959000Y-107696085D01*
X179736961Y-107574096D01*
X179602913Y-107614754D01*
X179348580Y-107734963D01*
X179122586Y-107902481D01*
X178933615Y-108110869D01*
X178818579Y-108302682D01*
X178744932Y-108164899D01*
X178565608Y-107946392D01*
X178347101Y-107767068D01*
X178097808Y-107633818D01*
X177827309Y-107551764D01*
X177616492Y-107531000D01*
X177475508Y-107531000D01*
X177264691Y-107551764D01*
X176994192Y-107633818D01*
X176744899Y-107767068D01*
X176526392Y-107946392D01*
X176347068Y-108164899D01*
X176276000Y-108297858D01*
X176204932Y-108164899D01*
X176025608Y-107946392D01*
X175807101Y-107767068D01*
X175557808Y-107633818D01*
X175287309Y-107551764D01*
X175076492Y-107531000D01*
X174935508Y-107531000D01*
X174724691Y-107551764D01*
X174454192Y-107633818D01*
X174204899Y-107767068D01*
X173986392Y-107946392D01*
X173807068Y-108164899D01*
X173736000Y-108297858D01*
X173664932Y-108164899D01*
X173485608Y-107946392D01*
X173267101Y-107767068D01*
X173136380Y-107697196D01*
X177352576Y-103481001D01*
X180642532Y-103481001D01*
X180686001Y-103485282D01*
X180729470Y-103481001D01*
X180729478Y-103481001D01*
X180859491Y-103468196D01*
X181026314Y-103417590D01*
X181180060Y-103335412D01*
X181314818Y-103224818D01*
X181342535Y-103191045D01*
X181931610Y-102601970D01*
X182074192Y-102678182D01*
G36*
X191901001Y-113722582D02*
G01*
X191901000Y-115101375D01*
X191811518Y-115110188D01*
X191691820Y-115146498D01*
X191581506Y-115205463D01*
X191484815Y-115284815D01*
X191405463Y-115381506D01*
X191346498Y-115491820D01*
X191322034Y-115572466D01*
X191246269Y-115488412D01*
X191012920Y-115314359D01*
X190750099Y-115189175D01*
X190602890Y-115144524D01*
X190373000Y-115265845D01*
X190373000Y-116459000D01*
X190393000Y-116459000D01*
X190393000Y-116713000D01*
X190373000Y-116713000D01*
X190373000Y-116733000D01*
X190119000Y-116733000D01*
X190119000Y-116713000D01*
X190099000Y-116713000D01*
X190099000Y-116459000D01*
X190119000Y-116459000D01*
X190119000Y-115265845D01*
X189889110Y-115144524D01*
X189741901Y-115189175D01*
X189479080Y-115314359D01*
X189245731Y-115488412D01*
X189050822Y-115704645D01*
X188981201Y-115821523D01*
X188946706Y-115756986D01*
X188761134Y-115530866D01*
X188535014Y-115345294D01*
X188277034Y-115207401D01*
X187997111Y-115122487D01*
X187778950Y-115101000D01*
X187633050Y-115101000D01*
X187486966Y-115115388D01*
X187340999Y-114969421D01*
X187340999Y-113912509D01*
X187564665Y-113957000D01*
X187847335Y-113957000D01*
X188124574Y-113901853D01*
X188385727Y-113793680D01*
X188620759Y-113636637D01*
X188820637Y-113436759D01*
X188977680Y-113201727D01*
X189085853Y-112940574D01*
X189141000Y-112663335D01*
X189141000Y-112380665D01*
X189085853Y-112103426D01*
X188977680Y-111842273D01*
X188820637Y-111607241D01*
X188620759Y-111407363D01*
X188591000Y-111387479D01*
X188591000Y-110412580D01*
X191901001Y-113722582D01*
X191901001Y-113722582D01*
G37*
X191901001Y-113722582D02*
X191901000Y-115101375D01*
X191811518Y-115110188D01*
X191691820Y-115146498D01*
X191581506Y-115205463D01*
X191484815Y-115284815D01*
X191405463Y-115381506D01*
X191346498Y-115491820D01*
X191322034Y-115572466D01*
X191246269Y-115488412D01*
X191012920Y-115314359D01*
X190750099Y-115189175D01*
X190602890Y-115144524D01*
X190373000Y-115265845D01*
X190373000Y-116459000D01*
X190393000Y-116459000D01*
X190393000Y-116713000D01*
X190373000Y-116713000D01*
X190373000Y-116733000D01*
X190119000Y-116733000D01*
X190119000Y-116713000D01*
X190099000Y-116713000D01*
X190099000Y-116459000D01*
X190119000Y-116459000D01*
X190119000Y-115265845D01*
X189889110Y-115144524D01*
X189741901Y-115189175D01*
X189479080Y-115314359D01*
X189245731Y-115488412D01*
X189050822Y-115704645D01*
X188981201Y-115821523D01*
X188946706Y-115756986D01*
X188761134Y-115530866D01*
X188535014Y-115345294D01*
X188277034Y-115207401D01*
X187997111Y-115122487D01*
X187778950Y-115101000D01*
X187633050Y-115101000D01*
X187486966Y-115115388D01*
X187340999Y-114969421D01*
X187340999Y-113912509D01*
X187564665Y-113957000D01*
X187847335Y-113957000D01*
X188124574Y-113901853D01*
X188385727Y-113793680D01*
X188620759Y-113636637D01*
X188820637Y-113436759D01*
X188977680Y-113201727D01*
X189085853Y-112940574D01*
X189141000Y-112663335D01*
X189141000Y-112380665D01*
X189085853Y-112103426D01*
X188977680Y-111842273D01*
X188820637Y-111607241D01*
X188620759Y-111407363D01*
X188591000Y-111387479D01*
X188591000Y-110412580D01*
X191901001Y-113722582D01*
G36*
X168500188Y-109890482D02*
G01*
X168536498Y-110010180D01*
X168595463Y-110120494D01*
X168674815Y-110217185D01*
X168771506Y-110296537D01*
X168881820Y-110355502D01*
X169001518Y-110391812D01*
X169126000Y-110404072D01*
X170726000Y-110404072D01*
X170850482Y-110391812D01*
X170970180Y-110355502D01*
X171080494Y-110296537D01*
X171177185Y-110217185D01*
X171256537Y-110120494D01*
X171315502Y-110010180D01*
X171351812Y-109890482D01*
X171353581Y-109872518D01*
X171446392Y-109985608D01*
X171581001Y-110096079D01*
X171581000Y-115391240D01*
X171410866Y-115530866D01*
X171225294Y-115756986D01*
X171128745Y-115937616D01*
X168553063Y-113361934D01*
X168584932Y-113323101D01*
X168718182Y-113073808D01*
X168800236Y-112803309D01*
X168827943Y-112522000D01*
X168800236Y-112240691D01*
X168718182Y-111970192D01*
X168584932Y-111720899D01*
X168405608Y-111502392D01*
X168187101Y-111323068D01*
X167937808Y-111189818D01*
X167667309Y-111107764D01*
X167456492Y-111087000D01*
X167315508Y-111087000D01*
X167104691Y-111107764D01*
X166834192Y-111189818D01*
X166634381Y-111296619D01*
X165830627Y-110492866D01*
X165795080Y-110449552D01*
X165750999Y-110413376D01*
X165750999Y-110354849D01*
X165834691Y-110380236D01*
X166045508Y-110401000D01*
X166186492Y-110401000D01*
X166397309Y-110380236D01*
X166667808Y-110298182D01*
X166917101Y-110164932D01*
X167135608Y-109985608D01*
X167246078Y-109851000D01*
X168496299Y-109851000D01*
X168500188Y-109890482D01*
X168500188Y-109890482D01*
G37*
X168500188Y-109890482D02*
X168536498Y-110010180D01*
X168595463Y-110120494D01*
X168674815Y-110217185D01*
X168771506Y-110296537D01*
X168881820Y-110355502D01*
X169001518Y-110391812D01*
X169126000Y-110404072D01*
X170726000Y-110404072D01*
X170850482Y-110391812D01*
X170970180Y-110355502D01*
X171080494Y-110296537D01*
X171177185Y-110217185D01*
X171256537Y-110120494D01*
X171315502Y-110010180D01*
X171351812Y-109890482D01*
X171353581Y-109872518D01*
X171446392Y-109985608D01*
X171581001Y-110096079D01*
X171581000Y-115391240D01*
X171410866Y-115530866D01*
X171225294Y-115756986D01*
X171128745Y-115937616D01*
X168553063Y-113361934D01*
X168584932Y-113323101D01*
X168718182Y-113073808D01*
X168800236Y-112803309D01*
X168827943Y-112522000D01*
X168800236Y-112240691D01*
X168718182Y-111970192D01*
X168584932Y-111720899D01*
X168405608Y-111502392D01*
X168187101Y-111323068D01*
X167937808Y-111189818D01*
X167667309Y-111107764D01*
X167456492Y-111087000D01*
X167315508Y-111087000D01*
X167104691Y-111107764D01*
X166834192Y-111189818D01*
X166634381Y-111296619D01*
X165830627Y-110492866D01*
X165795080Y-110449552D01*
X165750999Y-110413376D01*
X165750999Y-110354849D01*
X165834691Y-110380236D01*
X166045508Y-110401000D01*
X166186492Y-110401000D01*
X166397309Y-110380236D01*
X166667808Y-110298182D01*
X166917101Y-110164932D01*
X167135608Y-109985608D01*
X167246078Y-109851000D01*
X168496299Y-109851000D01*
X168500188Y-109890482D01*
G36*
X197265001Y-100075018D02*
G01*
X197082004Y-99988429D01*
X196807816Y-99919700D01*
X196525488Y-99905783D01*
X196245870Y-99947213D01*
X195979708Y-100042397D01*
X195854486Y-100109329D01*
X195782903Y-100353298D01*
X196596000Y-101166395D01*
X196610143Y-101152253D01*
X196789748Y-101331858D01*
X196775605Y-101346000D01*
X196789748Y-101360143D01*
X196610143Y-101539748D01*
X196596000Y-101525605D01*
X195782903Y-102338702D01*
X195854486Y-102582671D01*
X196109996Y-102703571D01*
X196384184Y-102772300D01*
X196666512Y-102786217D01*
X196946130Y-102744787D01*
X197212292Y-102649603D01*
X197265002Y-102621429D01*
X197265002Y-107045419D01*
X196800957Y-107509465D01*
X196800952Y-107509469D01*
X196769296Y-107541125D01*
X196666492Y-107531000D01*
X196525508Y-107531000D01*
X196314691Y-107551764D01*
X196044192Y-107633818D01*
X195794899Y-107767068D01*
X195576392Y-107946392D01*
X195465922Y-108081000D01*
X193916078Y-108081000D01*
X193805608Y-107946392D01*
X193587101Y-107767068D01*
X193337808Y-107633818D01*
X193067309Y-107551764D01*
X192856492Y-107531000D01*
X192715508Y-107531000D01*
X192504691Y-107551764D01*
X192234192Y-107633818D01*
X191984899Y-107767068D01*
X191766392Y-107946392D01*
X191587068Y-108164899D01*
X191516000Y-108297858D01*
X191444932Y-108164899D01*
X191265608Y-107946392D01*
X191047101Y-107767068D01*
X190797808Y-107633818D01*
X190527309Y-107551764D01*
X190316492Y-107531000D01*
X190175508Y-107531000D01*
X189964691Y-107551764D01*
X189841001Y-107589285D01*
X189841001Y-105179466D01*
X189845282Y-105136000D01*
X189841001Y-105092534D01*
X189841001Y-105092524D01*
X189828196Y-104962511D01*
X189777590Y-104795688D01*
X189695412Y-104641942D01*
X189584818Y-104507184D01*
X189551050Y-104479471D01*
X187845756Y-102774178D01*
X187987309Y-102760236D01*
X188257808Y-102678182D01*
X188507101Y-102544932D01*
X188725608Y-102365608D01*
X188904932Y-102147101D01*
X188976000Y-102014142D01*
X189047068Y-102147101D01*
X189226392Y-102365608D01*
X189444899Y-102544932D01*
X189694192Y-102678182D01*
X189964691Y-102760236D01*
X190175508Y-102781000D01*
X190316492Y-102781000D01*
X190527309Y-102760236D01*
X190797808Y-102678182D01*
X191047101Y-102544932D01*
X191265608Y-102365608D01*
X191444932Y-102147101D01*
X191516000Y-102014142D01*
X191587068Y-102147101D01*
X191766392Y-102365608D01*
X191984899Y-102544932D01*
X192234192Y-102678182D01*
X192504691Y-102760236D01*
X192715508Y-102781000D01*
X192856492Y-102781000D01*
X193067309Y-102760236D01*
X193337808Y-102678182D01*
X193587101Y-102544932D01*
X193805608Y-102365608D01*
X193984932Y-102147101D01*
X194118182Y-101897808D01*
X194200236Y-101627309D01*
X194220998Y-101416512D01*
X195155783Y-101416512D01*
X195197213Y-101696130D01*
X195292397Y-101962292D01*
X195359329Y-102087514D01*
X195603298Y-102159097D01*
X196416395Y-101346000D01*
X195603298Y-100532903D01*
X195359329Y-100604486D01*
X195238429Y-100859996D01*
X195169700Y-101134184D01*
X195155783Y-101416512D01*
X194220998Y-101416512D01*
X194227943Y-101346000D01*
X194210875Y-101172704D01*
X195413050Y-99970529D01*
X195446817Y-99942817D01*
X195477211Y-99905783D01*
X195557410Y-99808060D01*
X195557411Y-99808059D01*
X195639589Y-99654313D01*
X195690195Y-99487490D01*
X195703000Y-99357477D01*
X195703000Y-99357469D01*
X195707281Y-99314000D01*
X195703000Y-99270531D01*
X195703000Y-98675000D01*
X195790531Y-98675000D01*
X195834000Y-98679281D01*
X195877469Y-98675000D01*
X195877477Y-98675000D01*
X196007490Y-98662195D01*
X196174313Y-98611589D01*
X196328059Y-98529411D01*
X196462817Y-98418817D01*
X196490534Y-98385044D01*
X196613506Y-98262072D01*
X197265001Y-98262072D01*
X197265001Y-100075018D01*
X197265001Y-100075018D01*
G37*
X197265001Y-100075018D02*
X197082004Y-99988429D01*
X196807816Y-99919700D01*
X196525488Y-99905783D01*
X196245870Y-99947213D01*
X195979708Y-100042397D01*
X195854486Y-100109329D01*
X195782903Y-100353298D01*
X196596000Y-101166395D01*
X196610143Y-101152253D01*
X196789748Y-101331858D01*
X196775605Y-101346000D01*
X196789748Y-101360143D01*
X196610143Y-101539748D01*
X196596000Y-101525605D01*
X195782903Y-102338702D01*
X195854486Y-102582671D01*
X196109996Y-102703571D01*
X196384184Y-102772300D01*
X196666512Y-102786217D01*
X196946130Y-102744787D01*
X197212292Y-102649603D01*
X197265002Y-102621429D01*
X197265002Y-107045419D01*
X196800957Y-107509465D01*
X196800952Y-107509469D01*
X196769296Y-107541125D01*
X196666492Y-107531000D01*
X196525508Y-107531000D01*
X196314691Y-107551764D01*
X196044192Y-107633818D01*
X195794899Y-107767068D01*
X195576392Y-107946392D01*
X195465922Y-108081000D01*
X193916078Y-108081000D01*
X193805608Y-107946392D01*
X193587101Y-107767068D01*
X193337808Y-107633818D01*
X193067309Y-107551764D01*
X192856492Y-107531000D01*
X192715508Y-107531000D01*
X192504691Y-107551764D01*
X192234192Y-107633818D01*
X191984899Y-107767068D01*
X191766392Y-107946392D01*
X191587068Y-108164899D01*
X191516000Y-108297858D01*
X191444932Y-108164899D01*
X191265608Y-107946392D01*
X191047101Y-107767068D01*
X190797808Y-107633818D01*
X190527309Y-107551764D01*
X190316492Y-107531000D01*
X190175508Y-107531000D01*
X189964691Y-107551764D01*
X189841001Y-107589285D01*
X189841001Y-105179466D01*
X189845282Y-105136000D01*
X189841001Y-105092534D01*
X189841001Y-105092524D01*
X189828196Y-104962511D01*
X189777590Y-104795688D01*
X189695412Y-104641942D01*
X189584818Y-104507184D01*
X189551050Y-104479471D01*
X187845756Y-102774178D01*
X187987309Y-102760236D01*
X188257808Y-102678182D01*
X188507101Y-102544932D01*
X188725608Y-102365608D01*
X188904932Y-102147101D01*
X188976000Y-102014142D01*
X189047068Y-102147101D01*
X189226392Y-102365608D01*
X189444899Y-102544932D01*
X189694192Y-102678182D01*
X189964691Y-102760236D01*
X190175508Y-102781000D01*
X190316492Y-102781000D01*
X190527309Y-102760236D01*
X190797808Y-102678182D01*
X191047101Y-102544932D01*
X191265608Y-102365608D01*
X191444932Y-102147101D01*
X191516000Y-102014142D01*
X191587068Y-102147101D01*
X191766392Y-102365608D01*
X191984899Y-102544932D01*
X192234192Y-102678182D01*
X192504691Y-102760236D01*
X192715508Y-102781000D01*
X192856492Y-102781000D01*
X193067309Y-102760236D01*
X193337808Y-102678182D01*
X193587101Y-102544932D01*
X193805608Y-102365608D01*
X193984932Y-102147101D01*
X194118182Y-101897808D01*
X194200236Y-101627309D01*
X194220998Y-101416512D01*
X195155783Y-101416512D01*
X195197213Y-101696130D01*
X195292397Y-101962292D01*
X195359329Y-102087514D01*
X195603298Y-102159097D01*
X196416395Y-101346000D01*
X195603298Y-100532903D01*
X195359329Y-100604486D01*
X195238429Y-100859996D01*
X195169700Y-101134184D01*
X195155783Y-101416512D01*
X194220998Y-101416512D01*
X194227943Y-101346000D01*
X194210875Y-101172704D01*
X195413050Y-99970529D01*
X195446817Y-99942817D01*
X195477211Y-99905783D01*
X195557410Y-99808060D01*
X195557411Y-99808059D01*
X195639589Y-99654313D01*
X195690195Y-99487490D01*
X195703000Y-99357477D01*
X195703000Y-99357469D01*
X195707281Y-99314000D01*
X195703000Y-99270531D01*
X195703000Y-98675000D01*
X195790531Y-98675000D01*
X195834000Y-98679281D01*
X195877469Y-98675000D01*
X195877477Y-98675000D01*
X196007490Y-98662195D01*
X196174313Y-98611589D01*
X196328059Y-98529411D01*
X196462817Y-98418817D01*
X196490534Y-98385044D01*
X196613506Y-98262072D01*
X197265001Y-98262072D01*
X197265001Y-100075018D01*
G36*
X168511764Y-101064691D02*
G01*
X168484057Y-101346000D01*
X168511764Y-101627309D01*
X168593818Y-101897808D01*
X168727068Y-102147101D01*
X168906392Y-102365608D01*
X169124899Y-102544932D01*
X169374192Y-102678182D01*
X169644691Y-102760236D01*
X169855508Y-102781000D01*
X169996492Y-102781000D01*
X170207309Y-102760236D01*
X170477808Y-102678182D01*
X170727101Y-102544932D01*
X170945608Y-102365608D01*
X171124932Y-102147101D01*
X171196000Y-102014142D01*
X171267068Y-102147101D01*
X171446392Y-102365608D01*
X171664899Y-102544932D01*
X171914192Y-102678182D01*
X172184691Y-102760236D01*
X172395508Y-102781000D01*
X172536492Y-102781000D01*
X172747309Y-102760236D01*
X173017808Y-102678182D01*
X173267101Y-102544932D01*
X173485608Y-102365608D01*
X173664932Y-102147101D01*
X173736000Y-102014142D01*
X173807068Y-102147101D01*
X173986392Y-102365608D01*
X174204899Y-102544932D01*
X174454192Y-102678182D01*
X174724691Y-102760236D01*
X174935508Y-102781000D01*
X175076492Y-102781000D01*
X175287309Y-102760236D01*
X175557808Y-102678182D01*
X175760668Y-102569751D01*
X170795634Y-107534786D01*
X170726000Y-107527928D01*
X169126000Y-107527928D01*
X169001518Y-107540188D01*
X168881820Y-107576498D01*
X168771506Y-107635463D01*
X168674815Y-107714815D01*
X168595463Y-107811506D01*
X168536498Y-107921820D01*
X168500188Y-108041518D01*
X168496299Y-108081000D01*
X167246078Y-108081000D01*
X167135608Y-107946392D01*
X166917101Y-107767068D01*
X166667808Y-107633818D01*
X166397309Y-107551764D01*
X166186492Y-107531000D01*
X166045508Y-107531000D01*
X165834691Y-107551764D01*
X165750999Y-107577151D01*
X165750999Y-102733902D01*
X165904184Y-102772300D01*
X166186512Y-102786217D01*
X166466130Y-102744787D01*
X166732292Y-102649603D01*
X166857514Y-102582671D01*
X166929097Y-102338702D01*
X166116000Y-101525605D01*
X166101858Y-101539748D01*
X165922253Y-101360143D01*
X165936395Y-101346000D01*
X165922253Y-101331858D01*
X166101858Y-101152253D01*
X166116000Y-101166395D01*
X166130143Y-101152253D01*
X166309748Y-101331858D01*
X166295605Y-101346000D01*
X167108702Y-102159097D01*
X167352671Y-102087514D01*
X167473571Y-101832004D01*
X167542300Y-101557816D01*
X167556217Y-101275488D01*
X167514787Y-100995870D01*
X167509469Y-100980999D01*
X168537151Y-100980999D01*
X168511764Y-101064691D01*
X168511764Y-101064691D01*
G37*
X168511764Y-101064691D02*
X168484057Y-101346000D01*
X168511764Y-101627309D01*
X168593818Y-101897808D01*
X168727068Y-102147101D01*
X168906392Y-102365608D01*
X169124899Y-102544932D01*
X169374192Y-102678182D01*
X169644691Y-102760236D01*
X169855508Y-102781000D01*
X169996492Y-102781000D01*
X170207309Y-102760236D01*
X170477808Y-102678182D01*
X170727101Y-102544932D01*
X170945608Y-102365608D01*
X171124932Y-102147101D01*
X171196000Y-102014142D01*
X171267068Y-102147101D01*
X171446392Y-102365608D01*
X171664899Y-102544932D01*
X171914192Y-102678182D01*
X172184691Y-102760236D01*
X172395508Y-102781000D01*
X172536492Y-102781000D01*
X172747309Y-102760236D01*
X173017808Y-102678182D01*
X173267101Y-102544932D01*
X173485608Y-102365608D01*
X173664932Y-102147101D01*
X173736000Y-102014142D01*
X173807068Y-102147101D01*
X173986392Y-102365608D01*
X174204899Y-102544932D01*
X174454192Y-102678182D01*
X174724691Y-102760236D01*
X174935508Y-102781000D01*
X175076492Y-102781000D01*
X175287309Y-102760236D01*
X175557808Y-102678182D01*
X175760668Y-102569751D01*
X170795634Y-107534786D01*
X170726000Y-107527928D01*
X169126000Y-107527928D01*
X169001518Y-107540188D01*
X168881820Y-107576498D01*
X168771506Y-107635463D01*
X168674815Y-107714815D01*
X168595463Y-107811506D01*
X168536498Y-107921820D01*
X168500188Y-108041518D01*
X168496299Y-108081000D01*
X167246078Y-108081000D01*
X167135608Y-107946392D01*
X166917101Y-107767068D01*
X166667808Y-107633818D01*
X166397309Y-107551764D01*
X166186492Y-107531000D01*
X166045508Y-107531000D01*
X165834691Y-107551764D01*
X165750999Y-107577151D01*
X165750999Y-102733902D01*
X165904184Y-102772300D01*
X166186512Y-102786217D01*
X166466130Y-102744787D01*
X166732292Y-102649603D01*
X166857514Y-102582671D01*
X166929097Y-102338702D01*
X166116000Y-101525605D01*
X166101858Y-101539748D01*
X165922253Y-101360143D01*
X165936395Y-101346000D01*
X165922253Y-101331858D01*
X166101858Y-101152253D01*
X166116000Y-101166395D01*
X166130143Y-101152253D01*
X166309748Y-101331858D01*
X166295605Y-101346000D01*
X167108702Y-102159097D01*
X167352671Y-102087514D01*
X167473571Y-101832004D01*
X167542300Y-101557816D01*
X167556217Y-101275488D01*
X167514787Y-100995870D01*
X167509469Y-100980999D01*
X168537151Y-100980999D01*
X168511764Y-101064691D01*
G36*
X184884691Y-102760236D02*
G01*
X185095508Y-102781000D01*
X185236492Y-102781000D01*
X185339296Y-102770875D01*
X185370952Y-102802531D01*
X185370957Y-102802535D01*
X188071002Y-105502581D01*
X188071001Y-107577152D01*
X187987309Y-107551764D01*
X187776492Y-107531000D01*
X187635508Y-107531000D01*
X187424691Y-107551764D01*
X187340999Y-107577151D01*
X187340999Y-106207464D01*
X187345280Y-106163998D01*
X187340999Y-106120532D01*
X187340999Y-106120522D01*
X187328194Y-105990509D01*
X187277588Y-105823686D01*
X187195410Y-105669940D01*
X187084816Y-105535182D01*
X187051048Y-105507469D01*
X184800999Y-103257421D01*
X184800999Y-102734849D01*
X184884691Y-102760236D01*
X184884691Y-102760236D01*
G37*
X184884691Y-102760236D02*
X185095508Y-102781000D01*
X185236492Y-102781000D01*
X185339296Y-102770875D01*
X185370952Y-102802531D01*
X185370957Y-102802535D01*
X188071002Y-105502581D01*
X188071001Y-107577152D01*
X187987309Y-107551764D01*
X187776492Y-107531000D01*
X187635508Y-107531000D01*
X187424691Y-107551764D01*
X187340999Y-107577151D01*
X187340999Y-106207464D01*
X187345280Y-106163998D01*
X187340999Y-106120532D01*
X187340999Y-106120522D01*
X187328194Y-105990509D01*
X187277588Y-105823686D01*
X187195410Y-105669940D01*
X187084816Y-105535182D01*
X187051048Y-105507469D01*
X184800999Y-103257421D01*
X184800999Y-102734849D01*
X184884691Y-102760236D01*
G36*
X188924903Y-89177298D02*
G01*
X189738000Y-89990395D01*
X190551097Y-89177298D01*
X190514333Y-89052000D01*
X198222001Y-89052000D01*
X198222001Y-91110622D01*
X198090706Y-90864986D01*
X197905134Y-90638866D01*
X197679014Y-90453294D01*
X197421034Y-90315401D01*
X197141111Y-90230487D01*
X196922950Y-90209000D01*
X196777050Y-90209000D01*
X196558889Y-90230487D01*
X196278966Y-90315401D01*
X196020986Y-90453294D01*
X195794866Y-90638866D01*
X195655241Y-90809000D01*
X191023178Y-90809000D01*
X191095571Y-90656004D01*
X191164300Y-90381816D01*
X191178217Y-90099488D01*
X191136787Y-89819870D01*
X191041603Y-89553708D01*
X190974671Y-89428486D01*
X190730702Y-89356903D01*
X189917605Y-90170000D01*
X189931748Y-90184143D01*
X189752143Y-90363748D01*
X189738000Y-90349605D01*
X189723858Y-90363748D01*
X189544253Y-90184143D01*
X189558395Y-90170000D01*
X188745298Y-89356903D01*
X188501329Y-89428486D01*
X188380429Y-89683996D01*
X188311700Y-89958184D01*
X188297783Y-90240512D01*
X188339213Y-90520130D01*
X188434397Y-90786292D01*
X188501329Y-90911514D01*
X188511166Y-90914400D01*
X188435977Y-90954589D01*
X188426793Y-90962126D01*
X188334989Y-91037468D01*
X188334987Y-91037470D01*
X188301219Y-91065183D01*
X188273506Y-91098951D01*
X180971000Y-98401458D01*
X180971000Y-97394578D01*
X181136966Y-97228612D01*
X181283050Y-97243000D01*
X181428950Y-97243000D01*
X181647111Y-97221513D01*
X181927034Y-97136599D01*
X182185014Y-96998706D01*
X182411134Y-96813134D01*
X182596706Y-96587014D01*
X182734599Y-96329034D01*
X182819513Y-96049111D01*
X182848185Y-95758000D01*
X182819513Y-95466889D01*
X182734599Y-95186966D01*
X182596706Y-94928986D01*
X182411134Y-94702866D01*
X182185014Y-94517294D01*
X182120477Y-94482799D01*
X182237355Y-94413178D01*
X182453588Y-94218269D01*
X182627641Y-93984920D01*
X182752825Y-93722099D01*
X182797476Y-93574890D01*
X182676155Y-93345000D01*
X181483000Y-93345000D01*
X181483000Y-93365000D01*
X181229000Y-93365000D01*
X181229000Y-93345000D01*
X180035845Y-93345000D01*
X179914524Y-93574890D01*
X179959175Y-93722099D01*
X180084359Y-93984920D01*
X180258412Y-94218269D01*
X180474645Y-94413178D01*
X180591523Y-94482799D01*
X180526986Y-94517294D01*
X180300866Y-94702866D01*
X180115294Y-94928986D01*
X179977401Y-95186966D01*
X179892487Y-95466889D01*
X179863815Y-95758000D01*
X179885388Y-95977034D01*
X179490951Y-96371471D01*
X179457184Y-96399183D01*
X179429471Y-96432951D01*
X179429468Y-96432954D01*
X179346590Y-96533941D01*
X179264412Y-96687687D01*
X179213805Y-96854510D01*
X179196719Y-97028000D01*
X179201001Y-97071479D01*
X179201000Y-100215922D01*
X179066392Y-100326392D01*
X178887068Y-100544899D01*
X178816000Y-100677858D01*
X178744932Y-100544899D01*
X178565608Y-100326392D01*
X178347101Y-100147068D01*
X178097808Y-100013818D01*
X177827309Y-99931764D01*
X177616492Y-99911000D01*
X177475508Y-99911000D01*
X177264691Y-99931764D01*
X176994192Y-100013818D01*
X176744899Y-100147068D01*
X176526392Y-100326392D01*
X176347068Y-100544899D01*
X176276000Y-100677858D01*
X176204932Y-100544899D01*
X176025608Y-100326392D01*
X175807101Y-100147068D01*
X175557808Y-100013818D01*
X175287309Y-99931764D01*
X175076492Y-99911000D01*
X174935508Y-99911000D01*
X174724691Y-99931764D01*
X174454192Y-100013818D01*
X174204899Y-100147068D01*
X173986392Y-100326392D01*
X173807068Y-100544899D01*
X173736000Y-100677858D01*
X173664932Y-100544899D01*
X173485608Y-100326392D01*
X173267101Y-100147068D01*
X173017808Y-100013818D01*
X172747309Y-99931764D01*
X172536492Y-99911000D01*
X172395508Y-99911000D01*
X172184691Y-99931764D01*
X171914192Y-100013818D01*
X171664899Y-100147068D01*
X171537553Y-100251578D01*
X179951489Y-91837643D01*
X179975463Y-91882494D01*
X180054815Y-91979185D01*
X180151506Y-92058537D01*
X180261820Y-92117502D01*
X180342466Y-92141966D01*
X180258412Y-92217731D01*
X180084359Y-92451080D01*
X179959175Y-92713901D01*
X179914524Y-92861110D01*
X180035845Y-93091000D01*
X181229000Y-93091000D01*
X181229000Y-93071000D01*
X181483000Y-93071000D01*
X181483000Y-93091000D01*
X182676155Y-93091000D01*
X182797476Y-92861110D01*
X182752825Y-92713901D01*
X182627641Y-92451080D01*
X182453588Y-92217731D01*
X182369534Y-92141966D01*
X182450180Y-92117502D01*
X182560494Y-92058537D01*
X182657185Y-91979185D01*
X182736537Y-91882494D01*
X182773683Y-91813000D01*
X185110249Y-91813000D01*
X185166000Y-91818491D01*
X185221751Y-91813000D01*
X185221752Y-91813000D01*
X185388499Y-91796577D01*
X185602447Y-91731676D01*
X185799623Y-91626284D01*
X185836613Y-91595927D01*
X185955309Y-91584236D01*
X186225808Y-91502182D01*
X186475101Y-91368932D01*
X186693608Y-91189608D01*
X186872932Y-90971101D01*
X187006182Y-90721808D01*
X187088236Y-90451309D01*
X187115943Y-90170000D01*
X187088236Y-89888691D01*
X187006182Y-89618192D01*
X186872932Y-89368899D01*
X186693608Y-89150392D01*
X186573717Y-89052000D01*
X188961667Y-89052000D01*
X188924903Y-89177298D01*
X188924903Y-89177298D01*
G37*
X188924903Y-89177298D02*
X189738000Y-89990395D01*
X190551097Y-89177298D01*
X190514333Y-89052000D01*
X198222001Y-89052000D01*
X198222001Y-91110622D01*
X198090706Y-90864986D01*
X197905134Y-90638866D01*
X197679014Y-90453294D01*
X197421034Y-90315401D01*
X197141111Y-90230487D01*
X196922950Y-90209000D01*
X196777050Y-90209000D01*
X196558889Y-90230487D01*
X196278966Y-90315401D01*
X196020986Y-90453294D01*
X195794866Y-90638866D01*
X195655241Y-90809000D01*
X191023178Y-90809000D01*
X191095571Y-90656004D01*
X191164300Y-90381816D01*
X191178217Y-90099488D01*
X191136787Y-89819870D01*
X191041603Y-89553708D01*
X190974671Y-89428486D01*
X190730702Y-89356903D01*
X189917605Y-90170000D01*
X189931748Y-90184143D01*
X189752143Y-90363748D01*
X189738000Y-90349605D01*
X189723858Y-90363748D01*
X189544253Y-90184143D01*
X189558395Y-90170000D01*
X188745298Y-89356903D01*
X188501329Y-89428486D01*
X188380429Y-89683996D01*
X188311700Y-89958184D01*
X188297783Y-90240512D01*
X188339213Y-90520130D01*
X188434397Y-90786292D01*
X188501329Y-90911514D01*
X188511166Y-90914400D01*
X188435977Y-90954589D01*
X188426793Y-90962126D01*
X188334989Y-91037468D01*
X188334987Y-91037470D01*
X188301219Y-91065183D01*
X188273506Y-91098951D01*
X180971000Y-98401458D01*
X180971000Y-97394578D01*
X181136966Y-97228612D01*
X181283050Y-97243000D01*
X181428950Y-97243000D01*
X181647111Y-97221513D01*
X181927034Y-97136599D01*
X182185014Y-96998706D01*
X182411134Y-96813134D01*
X182596706Y-96587014D01*
X182734599Y-96329034D01*
X182819513Y-96049111D01*
X182848185Y-95758000D01*
X182819513Y-95466889D01*
X182734599Y-95186966D01*
X182596706Y-94928986D01*
X182411134Y-94702866D01*
X182185014Y-94517294D01*
X182120477Y-94482799D01*
X182237355Y-94413178D01*
X182453588Y-94218269D01*
X182627641Y-93984920D01*
X182752825Y-93722099D01*
X182797476Y-93574890D01*
X182676155Y-93345000D01*
X181483000Y-93345000D01*
X181483000Y-93365000D01*
X181229000Y-93365000D01*
X181229000Y-93345000D01*
X180035845Y-93345000D01*
X179914524Y-93574890D01*
X179959175Y-93722099D01*
X180084359Y-93984920D01*
X180258412Y-94218269D01*
X180474645Y-94413178D01*
X180591523Y-94482799D01*
X180526986Y-94517294D01*
X180300866Y-94702866D01*
X180115294Y-94928986D01*
X179977401Y-95186966D01*
X179892487Y-95466889D01*
X179863815Y-95758000D01*
X179885388Y-95977034D01*
X179490951Y-96371471D01*
X179457184Y-96399183D01*
X179429471Y-96432951D01*
X179429468Y-96432954D01*
X179346590Y-96533941D01*
X179264412Y-96687687D01*
X179213805Y-96854510D01*
X179196719Y-97028000D01*
X179201001Y-97071479D01*
X179201000Y-100215922D01*
X179066392Y-100326392D01*
X178887068Y-100544899D01*
X178816000Y-100677858D01*
X178744932Y-100544899D01*
X178565608Y-100326392D01*
X178347101Y-100147068D01*
X178097808Y-100013818D01*
X177827309Y-99931764D01*
X177616492Y-99911000D01*
X177475508Y-99911000D01*
X177264691Y-99931764D01*
X176994192Y-100013818D01*
X176744899Y-100147068D01*
X176526392Y-100326392D01*
X176347068Y-100544899D01*
X176276000Y-100677858D01*
X176204932Y-100544899D01*
X176025608Y-100326392D01*
X175807101Y-100147068D01*
X175557808Y-100013818D01*
X175287309Y-99931764D01*
X175076492Y-99911000D01*
X174935508Y-99911000D01*
X174724691Y-99931764D01*
X174454192Y-100013818D01*
X174204899Y-100147068D01*
X173986392Y-100326392D01*
X173807068Y-100544899D01*
X173736000Y-100677858D01*
X173664932Y-100544899D01*
X173485608Y-100326392D01*
X173267101Y-100147068D01*
X173017808Y-100013818D01*
X172747309Y-99931764D01*
X172536492Y-99911000D01*
X172395508Y-99911000D01*
X172184691Y-99931764D01*
X171914192Y-100013818D01*
X171664899Y-100147068D01*
X171537553Y-100251578D01*
X179951489Y-91837643D01*
X179975463Y-91882494D01*
X180054815Y-91979185D01*
X180151506Y-92058537D01*
X180261820Y-92117502D01*
X180342466Y-92141966D01*
X180258412Y-92217731D01*
X180084359Y-92451080D01*
X179959175Y-92713901D01*
X179914524Y-92861110D01*
X180035845Y-93091000D01*
X181229000Y-93091000D01*
X181229000Y-93071000D01*
X181483000Y-93071000D01*
X181483000Y-93091000D01*
X182676155Y-93091000D01*
X182797476Y-92861110D01*
X182752825Y-92713901D01*
X182627641Y-92451080D01*
X182453588Y-92217731D01*
X182369534Y-92141966D01*
X182450180Y-92117502D01*
X182560494Y-92058537D01*
X182657185Y-91979185D01*
X182736537Y-91882494D01*
X182773683Y-91813000D01*
X185110249Y-91813000D01*
X185166000Y-91818491D01*
X185221751Y-91813000D01*
X185221752Y-91813000D01*
X185388499Y-91796577D01*
X185602447Y-91731676D01*
X185799623Y-91626284D01*
X185836613Y-91595927D01*
X185955309Y-91584236D01*
X186225808Y-91502182D01*
X186475101Y-91368932D01*
X186693608Y-91189608D01*
X186872932Y-90971101D01*
X187006182Y-90721808D01*
X187088236Y-90451309D01*
X187115943Y-90170000D01*
X187088236Y-89888691D01*
X187006182Y-89618192D01*
X186872932Y-89368899D01*
X186693608Y-89150392D01*
X186573717Y-89052000D01*
X188961667Y-89052000D01*
X188924903Y-89177298D01*
G36*
X195794866Y-92749134D02*
G01*
X196020986Y-92934706D01*
X196075791Y-92964000D01*
X196020986Y-92993294D01*
X195794866Y-93178866D01*
X195609294Y-93404986D01*
X195471401Y-93662966D01*
X195386487Y-93942889D01*
X195357815Y-94234000D01*
X195386487Y-94525111D01*
X195471401Y-94805034D01*
X195609294Y-95063014D01*
X195794866Y-95289134D01*
X195824687Y-95313607D01*
X195755820Y-95334498D01*
X195645506Y-95393463D01*
X195548815Y-95472815D01*
X195469463Y-95569506D01*
X195410498Y-95679820D01*
X195374188Y-95799518D01*
X195361928Y-95924000D01*
X195361928Y-96905000D01*
X194861477Y-96905000D01*
X194818000Y-96900718D01*
X194774524Y-96905000D01*
X190868078Y-96905000D01*
X190757608Y-96770392D01*
X190539101Y-96591068D01*
X190289808Y-96457818D01*
X190019309Y-96375764D01*
X189808492Y-96355000D01*
X189667508Y-96355000D01*
X189456691Y-96375764D01*
X189186192Y-96457818D01*
X188936899Y-96591068D01*
X188718392Y-96770392D01*
X188539068Y-96988899D01*
X188445988Y-97163040D01*
X187227903Y-95944955D01*
X187200186Y-95911182D01*
X187065428Y-95800588D01*
X186911682Y-95718410D01*
X186744859Y-95667804D01*
X186614846Y-95654999D01*
X186614838Y-95654999D01*
X186571369Y-95650718D01*
X186527900Y-95654999D01*
X186220616Y-95654999D01*
X189296615Y-92579000D01*
X195655241Y-92579000D01*
X195794866Y-92749134D01*
X195794866Y-92749134D01*
G37*
X195794866Y-92749134D02*
X196020986Y-92934706D01*
X196075791Y-92964000D01*
X196020986Y-92993294D01*
X195794866Y-93178866D01*
X195609294Y-93404986D01*
X195471401Y-93662966D01*
X195386487Y-93942889D01*
X195357815Y-94234000D01*
X195386487Y-94525111D01*
X195471401Y-94805034D01*
X195609294Y-95063014D01*
X195794866Y-95289134D01*
X195824687Y-95313607D01*
X195755820Y-95334498D01*
X195645506Y-95393463D01*
X195548815Y-95472815D01*
X195469463Y-95569506D01*
X195410498Y-95679820D01*
X195374188Y-95799518D01*
X195361928Y-95924000D01*
X195361928Y-96905000D01*
X194861477Y-96905000D01*
X194818000Y-96900718D01*
X194774524Y-96905000D01*
X190868078Y-96905000D01*
X190757608Y-96770392D01*
X190539101Y-96591068D01*
X190289808Y-96457818D01*
X190019309Y-96375764D01*
X189808492Y-96355000D01*
X189667508Y-96355000D01*
X189456691Y-96375764D01*
X189186192Y-96457818D01*
X188936899Y-96591068D01*
X188718392Y-96770392D01*
X188539068Y-96988899D01*
X188445988Y-97163040D01*
X187227903Y-95944955D01*
X187200186Y-95911182D01*
X187065428Y-95800588D01*
X186911682Y-95718410D01*
X186744859Y-95667804D01*
X186614846Y-95654999D01*
X186614838Y-95654999D01*
X186571369Y-95650718D01*
X186527900Y-95654999D01*
X186220616Y-95654999D01*
X189296615Y-92579000D01*
X195655241Y-92579000D01*
X195794866Y-92749134D01*
G36*
X175667748Y-92505858D02*
G01*
X175653605Y-92520000D01*
X175667748Y-92534143D01*
X175488143Y-92713748D01*
X175474000Y-92699605D01*
X175459858Y-92713748D01*
X175280253Y-92534143D01*
X175294395Y-92520000D01*
X175280253Y-92505858D01*
X175459858Y-92326253D01*
X175474000Y-92340395D01*
X175488143Y-92326253D01*
X175667748Y-92505858D01*
X175667748Y-92505858D01*
G37*
X175667748Y-92505858D02*
X175653605Y-92520000D01*
X175667748Y-92534143D01*
X175488143Y-92713748D01*
X175474000Y-92699605D01*
X175459858Y-92713748D01*
X175280253Y-92534143D01*
X175294395Y-92520000D01*
X175280253Y-92505858D01*
X175459858Y-92326253D01*
X175474000Y-92340395D01*
X175488143Y-92326253D01*
X175667748Y-92505858D01*
G36*
X174101000Y-89693000D02*
G01*
X175538950Y-89693000D01*
X175538950Y-89947000D01*
X174101000Y-89947000D01*
X174101000Y-89967000D01*
X173847000Y-89967000D01*
X173847000Y-89947000D01*
X172101000Y-89947000D01*
X172101000Y-89967000D01*
X171847000Y-89967000D01*
X171847000Y-89947000D01*
X171827000Y-89947000D01*
X171827000Y-89879500D01*
X172230772Y-89879500D01*
X172230772Y-89693000D01*
X173847000Y-89693000D01*
X173847000Y-89673000D01*
X174101000Y-89673000D01*
X174101000Y-89693000D01*
X174101000Y-89693000D01*
G37*
X174101000Y-89693000D02*
X175538950Y-89693000D01*
X175538950Y-89947000D01*
X174101000Y-89947000D01*
X174101000Y-89967000D01*
X173847000Y-89967000D01*
X173847000Y-89947000D01*
X172101000Y-89947000D01*
X172101000Y-89967000D01*
X171847000Y-89967000D01*
X171847000Y-89947000D01*
X171827000Y-89947000D01*
X171827000Y-89879500D01*
X172230772Y-89879500D01*
X172230772Y-89693000D01*
X173847000Y-89693000D01*
X173847000Y-89673000D01*
X174101000Y-89673000D01*
X174101000Y-89693000D01*
M02*
