M48
; DRILL file {KiCad (5.1.4)-1} date 17-Sep-19 16:39:38
; FORMAT={3:3/ absolute / metric / suppress leading zeros}
; #@! TF.CreationDate,2019-09-17T16:39:38-04:00
; #@! TF.GenerationSoftware,Kicad,Pcbnew,(5.1.4)-1
FMAT,2
METRIC,TZ
T1C0.400
T2C0.600
T3C0.800
T4C0.850
T5C1.000
%
G90
G05
T1
X164592Y-117856
X170688Y-112522
X177038Y-97282
X187706Y-106172
X189738Y-94234
X196850Y-117856
T2
X169474Y-89820
X176474Y-89820
T3
X187706Y-112522
X195326Y-112522
X196596Y-101346
X196596Y-108966
X169926Y-101346
X169926Y-108966
X172466Y-101346
X172466Y-108966
X175006Y-101346
X175006Y-108966
X177546Y-101346
X177546Y-108966
X180086Y-101346
X180086Y-108966
X182626Y-101346
X182626Y-108966
X185166Y-101346
X185166Y-108966
X187706Y-101346
X187706Y-108966
X190246Y-101346
X190246Y-108966
X192786Y-101346
X192786Y-108966
X166116Y-101346
X166116Y-108966
X189738Y-90170
X189738Y-97790
X185674Y-90170
X185674Y-97790
X167386Y-112522
X175006Y-112522
T4
X170474Y-92520
X175474Y-92520
T5
X181356Y-90678
X181356Y-93218
X181356Y-95758
X172466Y-116586
X175006Y-116586
X177546Y-116586
X180086Y-116586
X182626Y-116586
X185166Y-116586
X187706Y-116586
X190246Y-116586
X192786Y-116586
X196850Y-91694
X196850Y-94234
X196850Y-96774
T0
M30
