G04 #@! TF.GenerationSoftware,KiCad,Pcbnew,(5.1.5)-3*
G04 #@! TF.CreationDate,2020-06-18T11:59:14-04:00*
G04 #@! TF.ProjectId,red_pitaya_shield,7265645f-7069-4746-9179-615f73686965,rev?*
G04 #@! TF.SameCoordinates,Original*
G04 #@! TF.FileFunction,Soldermask,Bot*
G04 #@! TF.FilePolarity,Negative*
%FSLAX46Y46*%
G04 Gerber Fmt 4.6, Leading zero omitted, Abs format (unit mm)*
G04 Created by KiCad (PCBNEW (5.1.5)-3) date 2020-06-18 11:59:14*
%MOMM*%
%LPD*%
G04 APERTURE LIST*
%ADD10C,0.100000*%
G04 APERTURE END LIST*
D10*
G36*
X210791000Y-127051000D02*
G01*
X209189000Y-127051000D01*
X209189000Y-121869000D01*
X210791000Y-121869000D01*
X210791000Y-127051000D01*
G37*
G36*
X202291000Y-127051000D02*
G01*
X200689000Y-127051000D01*
X200689000Y-121869000D01*
X202291000Y-121869000D01*
X202291000Y-127051000D01*
G37*
G36*
X194379606Y-118924562D02*
G01*
X194898455Y-119139476D01*
X195365407Y-119451484D01*
X195762516Y-119848593D01*
X196074524Y-120315545D01*
X196289438Y-120834394D01*
X196289438Y-120834395D01*
X196373301Y-121256000D01*
X196399000Y-121385201D01*
X196399000Y-121946799D01*
X196289438Y-122497606D01*
X196074524Y-123016455D01*
X195762516Y-123483407D01*
X195365407Y-123880516D01*
X194898455Y-124192524D01*
X194379606Y-124407438D01*
X193828800Y-124517000D01*
X193267200Y-124517000D01*
X192716394Y-124407438D01*
X192197545Y-124192524D01*
X191730593Y-123880516D01*
X191333484Y-123483407D01*
X191021476Y-123016455D01*
X190806562Y-122497606D01*
X190697000Y-121946799D01*
X190697000Y-121385201D01*
X190722700Y-121256000D01*
X190806562Y-120834395D01*
X190806562Y-120834394D01*
X191021476Y-120315545D01*
X191333484Y-119848593D01*
X191730593Y-119451484D01*
X192197545Y-119139476D01*
X192716394Y-118924562D01*
X193267200Y-118815000D01*
X193828800Y-118815000D01*
X194379606Y-118924562D01*
G37*
G36*
X224206000Y-121256000D02*
G01*
X219024000Y-121256000D01*
X219024000Y-119654000D01*
X224206000Y-119654000D01*
X224206000Y-121256000D01*
G37*
G36*
X224206000Y-112756000D02*
G01*
X219024000Y-112756000D01*
X219024000Y-111154000D01*
X224206000Y-111154000D01*
X224206000Y-112756000D01*
G37*
G36*
X206361512Y-102227927D02*
G01*
X206510812Y-102257624D01*
X206674784Y-102325544D01*
X206822354Y-102424147D01*
X206947853Y-102549646D01*
X207046456Y-102697216D01*
X207114376Y-102861188D01*
X207149000Y-103035259D01*
X207149000Y-103212741D01*
X207114376Y-103386812D01*
X207046456Y-103550784D01*
X206947853Y-103698354D01*
X206822354Y-103823853D01*
X206674784Y-103922456D01*
X206510812Y-103990376D01*
X206361512Y-104020073D01*
X206336742Y-104025000D01*
X206159258Y-104025000D01*
X206134488Y-104020073D01*
X205985188Y-103990376D01*
X205821216Y-103922456D01*
X205673646Y-103823853D01*
X205548147Y-103698354D01*
X205449544Y-103550784D01*
X205381624Y-103386812D01*
X205347000Y-103212741D01*
X205347000Y-103035259D01*
X205381624Y-102861188D01*
X205449544Y-102697216D01*
X205548147Y-102549646D01*
X205673646Y-102424147D01*
X205821216Y-102325544D01*
X205985188Y-102257624D01*
X206134488Y-102227927D01*
X206159258Y-102223000D01*
X206336742Y-102223000D01*
X206361512Y-102227927D01*
G37*
G36*
X204609000Y-104025000D02*
G01*
X202807000Y-104025000D01*
X202807000Y-102223000D01*
X204609000Y-102223000D01*
X204609000Y-104025000D01*
G37*
G36*
X214489512Y-94480927D02*
G01*
X214638812Y-94510624D01*
X214802784Y-94578544D01*
X214950354Y-94677147D01*
X215075853Y-94802646D01*
X215174456Y-94950216D01*
X215242376Y-95114188D01*
X215277000Y-95288259D01*
X215277000Y-95465741D01*
X215242376Y-95639812D01*
X215174456Y-95803784D01*
X215075853Y-95951354D01*
X214950354Y-96076853D01*
X214802784Y-96175456D01*
X214638812Y-96243376D01*
X214489512Y-96273073D01*
X214464742Y-96278000D01*
X214287258Y-96278000D01*
X214262488Y-96273073D01*
X214113188Y-96243376D01*
X213949216Y-96175456D01*
X213801646Y-96076853D01*
X213676147Y-95951354D01*
X213577544Y-95803784D01*
X213509624Y-95639812D01*
X213475000Y-95465741D01*
X213475000Y-95288259D01*
X213509624Y-95114188D01*
X213577544Y-94950216D01*
X213676147Y-94802646D01*
X213801646Y-94677147D01*
X213949216Y-94578544D01*
X214113188Y-94510624D01*
X214262488Y-94480927D01*
X214287258Y-94476000D01*
X214464742Y-94476000D01*
X214489512Y-94480927D01*
G37*
G36*
X217817000Y-96278000D02*
G01*
X216015000Y-96278000D01*
X216015000Y-94476000D01*
X217817000Y-94476000D01*
X217817000Y-96278000D01*
G37*
G36*
X211949512Y-94480927D02*
G01*
X212098812Y-94510624D01*
X212262784Y-94578544D01*
X212410354Y-94677147D01*
X212535853Y-94802646D01*
X212634456Y-94950216D01*
X212702376Y-95114188D01*
X212737000Y-95288259D01*
X212737000Y-95465741D01*
X212702376Y-95639812D01*
X212634456Y-95803784D01*
X212535853Y-95951354D01*
X212410354Y-96076853D01*
X212262784Y-96175456D01*
X212098812Y-96243376D01*
X211949512Y-96273073D01*
X211924742Y-96278000D01*
X211747258Y-96278000D01*
X211722488Y-96273073D01*
X211573188Y-96243376D01*
X211409216Y-96175456D01*
X211261646Y-96076853D01*
X211136147Y-95951354D01*
X211037544Y-95803784D01*
X210969624Y-95639812D01*
X210935000Y-95465741D01*
X210935000Y-95288259D01*
X210969624Y-95114188D01*
X211037544Y-94950216D01*
X211136147Y-94802646D01*
X211261646Y-94677147D01*
X211409216Y-94578544D01*
X211573188Y-94510624D01*
X211722488Y-94480927D01*
X211747258Y-94476000D01*
X211924742Y-94476000D01*
X211949512Y-94480927D01*
G37*
G36*
X209409512Y-94480927D02*
G01*
X209558812Y-94510624D01*
X209722784Y-94578544D01*
X209870354Y-94677147D01*
X209995853Y-94802646D01*
X210094456Y-94950216D01*
X210162376Y-95114188D01*
X210197000Y-95288259D01*
X210197000Y-95465741D01*
X210162376Y-95639812D01*
X210094456Y-95803784D01*
X209995853Y-95951354D01*
X209870354Y-96076853D01*
X209722784Y-96175456D01*
X209558812Y-96243376D01*
X209409512Y-96273073D01*
X209384742Y-96278000D01*
X209207258Y-96278000D01*
X209182488Y-96273073D01*
X209033188Y-96243376D01*
X208869216Y-96175456D01*
X208721646Y-96076853D01*
X208596147Y-95951354D01*
X208497544Y-95803784D01*
X208429624Y-95639812D01*
X208395000Y-95465741D01*
X208395000Y-95288259D01*
X208429624Y-95114188D01*
X208497544Y-94950216D01*
X208596147Y-94802646D01*
X208721646Y-94677147D01*
X208869216Y-94578544D01*
X209033188Y-94510624D01*
X209182488Y-94480927D01*
X209207258Y-94476000D01*
X209384742Y-94476000D01*
X209409512Y-94480927D01*
G37*
G36*
X206869512Y-94480927D02*
G01*
X207018812Y-94510624D01*
X207182784Y-94578544D01*
X207330354Y-94677147D01*
X207455853Y-94802646D01*
X207554456Y-94950216D01*
X207622376Y-95114188D01*
X207657000Y-95288259D01*
X207657000Y-95465741D01*
X207622376Y-95639812D01*
X207554456Y-95803784D01*
X207455853Y-95951354D01*
X207330354Y-96076853D01*
X207182784Y-96175456D01*
X207018812Y-96243376D01*
X206869512Y-96273073D01*
X206844742Y-96278000D01*
X206667258Y-96278000D01*
X206642488Y-96273073D01*
X206493188Y-96243376D01*
X206329216Y-96175456D01*
X206181646Y-96076853D01*
X206056147Y-95951354D01*
X205957544Y-95803784D01*
X205889624Y-95639812D01*
X205855000Y-95465741D01*
X205855000Y-95288259D01*
X205889624Y-95114188D01*
X205957544Y-94950216D01*
X206056147Y-94802646D01*
X206181646Y-94677147D01*
X206329216Y-94578544D01*
X206493188Y-94510624D01*
X206642488Y-94480927D01*
X206667258Y-94476000D01*
X206844742Y-94476000D01*
X206869512Y-94480927D01*
G37*
G36*
X198487512Y-94353927D02*
G01*
X198636812Y-94383624D01*
X198800784Y-94451544D01*
X198948354Y-94550147D01*
X199073853Y-94675646D01*
X199172456Y-94823216D01*
X199240376Y-94987188D01*
X199275000Y-95161259D01*
X199275000Y-95338741D01*
X199240376Y-95512812D01*
X199172456Y-95676784D01*
X199073853Y-95824354D01*
X198948354Y-95949853D01*
X198800784Y-96048456D01*
X198636812Y-96116376D01*
X198487512Y-96146073D01*
X198462742Y-96151000D01*
X198285258Y-96151000D01*
X198260488Y-96146073D01*
X198111188Y-96116376D01*
X197947216Y-96048456D01*
X197799646Y-95949853D01*
X197674147Y-95824354D01*
X197575544Y-95676784D01*
X197507624Y-95512812D01*
X197473000Y-95338741D01*
X197473000Y-95161259D01*
X197507624Y-94987188D01*
X197575544Y-94823216D01*
X197674147Y-94675646D01*
X197799646Y-94550147D01*
X197947216Y-94451544D01*
X198111188Y-94383624D01*
X198260488Y-94353927D01*
X198285258Y-94349000D01*
X198462742Y-94349000D01*
X198487512Y-94353927D01*
G37*
G36*
X192137512Y-94353927D02*
G01*
X192286812Y-94383624D01*
X192450784Y-94451544D01*
X192598354Y-94550147D01*
X192723853Y-94675646D01*
X192822456Y-94823216D01*
X192890376Y-94987188D01*
X192925000Y-95161259D01*
X192925000Y-95338741D01*
X192890376Y-95512812D01*
X192822456Y-95676784D01*
X192723853Y-95824354D01*
X192598354Y-95949853D01*
X192450784Y-96048456D01*
X192286812Y-96116376D01*
X192137512Y-96146073D01*
X192112742Y-96151000D01*
X191935258Y-96151000D01*
X191910488Y-96146073D01*
X191761188Y-96116376D01*
X191597216Y-96048456D01*
X191449646Y-95949853D01*
X191324147Y-95824354D01*
X191225544Y-95676784D01*
X191157624Y-95512812D01*
X191123000Y-95338741D01*
X191123000Y-95161259D01*
X191157624Y-94987188D01*
X191225544Y-94823216D01*
X191324147Y-94675646D01*
X191449646Y-94550147D01*
X191597216Y-94451544D01*
X191761188Y-94383624D01*
X191910488Y-94353927D01*
X191935258Y-94349000D01*
X192112742Y-94349000D01*
X192137512Y-94353927D01*
G37*
G36*
X194677512Y-94353927D02*
G01*
X194826812Y-94383624D01*
X194990784Y-94451544D01*
X195138354Y-94550147D01*
X195263853Y-94675646D01*
X195362456Y-94823216D01*
X195430376Y-94987188D01*
X195465000Y-95161259D01*
X195465000Y-95338741D01*
X195430376Y-95512812D01*
X195362456Y-95676784D01*
X195263853Y-95824354D01*
X195138354Y-95949853D01*
X194990784Y-96048456D01*
X194826812Y-96116376D01*
X194677512Y-96146073D01*
X194652742Y-96151000D01*
X194475258Y-96151000D01*
X194450488Y-96146073D01*
X194301188Y-96116376D01*
X194137216Y-96048456D01*
X193989646Y-95949853D01*
X193864147Y-95824354D01*
X193765544Y-95676784D01*
X193697624Y-95512812D01*
X193663000Y-95338741D01*
X193663000Y-95161259D01*
X193697624Y-94987188D01*
X193765544Y-94823216D01*
X193864147Y-94675646D01*
X193989646Y-94550147D01*
X194137216Y-94451544D01*
X194301188Y-94383624D01*
X194450488Y-94353927D01*
X194475258Y-94349000D01*
X194652742Y-94349000D01*
X194677512Y-94353927D01*
G37*
G36*
X201027512Y-94353927D02*
G01*
X201176812Y-94383624D01*
X201340784Y-94451544D01*
X201488354Y-94550147D01*
X201613853Y-94675646D01*
X201712456Y-94823216D01*
X201780376Y-94987188D01*
X201815000Y-95161259D01*
X201815000Y-95338741D01*
X201780376Y-95512812D01*
X201712456Y-95676784D01*
X201613853Y-95824354D01*
X201488354Y-95949853D01*
X201340784Y-96048456D01*
X201176812Y-96116376D01*
X201027512Y-96146073D01*
X201002742Y-96151000D01*
X200825258Y-96151000D01*
X200800488Y-96146073D01*
X200651188Y-96116376D01*
X200487216Y-96048456D01*
X200339646Y-95949853D01*
X200214147Y-95824354D01*
X200115544Y-95676784D01*
X200047624Y-95512812D01*
X200013000Y-95338741D01*
X200013000Y-95161259D01*
X200047624Y-94987188D01*
X200115544Y-94823216D01*
X200214147Y-94675646D01*
X200339646Y-94550147D01*
X200487216Y-94451544D01*
X200651188Y-94383624D01*
X200800488Y-94353927D01*
X200825258Y-94349000D01*
X201002742Y-94349000D01*
X201027512Y-94353927D01*
G37*
G36*
X239591606Y-89206562D02*
G01*
X240110455Y-89421476D01*
X240577407Y-89733484D01*
X240974516Y-90130593D01*
X241286524Y-90597545D01*
X241482635Y-91071000D01*
X241501438Y-91116395D01*
X241611000Y-91667200D01*
X241611000Y-92228800D01*
X241574914Y-92410216D01*
X241501438Y-92779606D01*
X241286524Y-93298455D01*
X240974516Y-93765407D01*
X240577407Y-94162516D01*
X240110455Y-94474524D01*
X239591606Y-94689438D01*
X239040800Y-94799000D01*
X238479200Y-94799000D01*
X237928394Y-94689438D01*
X237409545Y-94474524D01*
X236942593Y-94162516D01*
X236545484Y-93765407D01*
X236233476Y-93298455D01*
X236018562Y-92779606D01*
X235945086Y-92410216D01*
X235909000Y-92228800D01*
X235909000Y-91667200D01*
X236018562Y-91116395D01*
X236037365Y-91071000D01*
X236233476Y-90597545D01*
X236545484Y-90130593D01*
X236942593Y-89733484D01*
X237409545Y-89421476D01*
X237928394Y-89206562D01*
X238479200Y-89097000D01*
X239040800Y-89097000D01*
X239591606Y-89206562D01*
G37*
G36*
X217029512Y-91940927D02*
G01*
X217178812Y-91970624D01*
X217342784Y-92038544D01*
X217490354Y-92137147D01*
X217615853Y-92262646D01*
X217714456Y-92410216D01*
X217782376Y-92574188D01*
X217817000Y-92748259D01*
X217817000Y-92925741D01*
X217782376Y-93099812D01*
X217714456Y-93263784D01*
X217615853Y-93411354D01*
X217490354Y-93536853D01*
X217342784Y-93635456D01*
X217178812Y-93703376D01*
X217029512Y-93733073D01*
X217004742Y-93738000D01*
X216827258Y-93738000D01*
X216802488Y-93733073D01*
X216653188Y-93703376D01*
X216489216Y-93635456D01*
X216341646Y-93536853D01*
X216216147Y-93411354D01*
X216117544Y-93263784D01*
X216049624Y-93099812D01*
X216015000Y-92925741D01*
X216015000Y-92748259D01*
X216049624Y-92574188D01*
X216117544Y-92410216D01*
X216216147Y-92262646D01*
X216341646Y-92137147D01*
X216489216Y-92038544D01*
X216653188Y-91970624D01*
X216802488Y-91940927D01*
X216827258Y-91936000D01*
X217004742Y-91936000D01*
X217029512Y-91940927D01*
G37*
G36*
X206869512Y-91940927D02*
G01*
X207018812Y-91970624D01*
X207182784Y-92038544D01*
X207330354Y-92137147D01*
X207455853Y-92262646D01*
X207554456Y-92410216D01*
X207622376Y-92574188D01*
X207657000Y-92748259D01*
X207657000Y-92925741D01*
X207622376Y-93099812D01*
X207554456Y-93263784D01*
X207455853Y-93411354D01*
X207330354Y-93536853D01*
X207182784Y-93635456D01*
X207018812Y-93703376D01*
X206869512Y-93733073D01*
X206844742Y-93738000D01*
X206667258Y-93738000D01*
X206642488Y-93733073D01*
X206493188Y-93703376D01*
X206329216Y-93635456D01*
X206181646Y-93536853D01*
X206056147Y-93411354D01*
X205957544Y-93263784D01*
X205889624Y-93099812D01*
X205855000Y-92925741D01*
X205855000Y-92748259D01*
X205889624Y-92574188D01*
X205957544Y-92410216D01*
X206056147Y-92262646D01*
X206181646Y-92137147D01*
X206329216Y-92038544D01*
X206493188Y-91970624D01*
X206642488Y-91940927D01*
X206667258Y-91936000D01*
X206844742Y-91936000D01*
X206869512Y-91940927D01*
G37*
G36*
X214489512Y-91940927D02*
G01*
X214638812Y-91970624D01*
X214802784Y-92038544D01*
X214950354Y-92137147D01*
X215075853Y-92262646D01*
X215174456Y-92410216D01*
X215242376Y-92574188D01*
X215277000Y-92748259D01*
X215277000Y-92925741D01*
X215242376Y-93099812D01*
X215174456Y-93263784D01*
X215075853Y-93411354D01*
X214950354Y-93536853D01*
X214802784Y-93635456D01*
X214638812Y-93703376D01*
X214489512Y-93733073D01*
X214464742Y-93738000D01*
X214287258Y-93738000D01*
X214262488Y-93733073D01*
X214113188Y-93703376D01*
X213949216Y-93635456D01*
X213801646Y-93536853D01*
X213676147Y-93411354D01*
X213577544Y-93263784D01*
X213509624Y-93099812D01*
X213475000Y-92925741D01*
X213475000Y-92748259D01*
X213509624Y-92574188D01*
X213577544Y-92410216D01*
X213676147Y-92262646D01*
X213801646Y-92137147D01*
X213949216Y-92038544D01*
X214113188Y-91970624D01*
X214262488Y-91940927D01*
X214287258Y-91936000D01*
X214464742Y-91936000D01*
X214489512Y-91940927D01*
G37*
G36*
X211949512Y-91940927D02*
G01*
X212098812Y-91970624D01*
X212262784Y-92038544D01*
X212410354Y-92137147D01*
X212535853Y-92262646D01*
X212634456Y-92410216D01*
X212702376Y-92574188D01*
X212737000Y-92748259D01*
X212737000Y-92925741D01*
X212702376Y-93099812D01*
X212634456Y-93263784D01*
X212535853Y-93411354D01*
X212410354Y-93536853D01*
X212262784Y-93635456D01*
X212098812Y-93703376D01*
X211949512Y-93733073D01*
X211924742Y-93738000D01*
X211747258Y-93738000D01*
X211722488Y-93733073D01*
X211573188Y-93703376D01*
X211409216Y-93635456D01*
X211261646Y-93536853D01*
X211136147Y-93411354D01*
X211037544Y-93263784D01*
X210969624Y-93099812D01*
X210935000Y-92925741D01*
X210935000Y-92748259D01*
X210969624Y-92574188D01*
X211037544Y-92410216D01*
X211136147Y-92262646D01*
X211261646Y-92137147D01*
X211409216Y-92038544D01*
X211573188Y-91970624D01*
X211722488Y-91940927D01*
X211747258Y-91936000D01*
X211924742Y-91936000D01*
X211949512Y-91940927D01*
G37*
G36*
X209409512Y-91940927D02*
G01*
X209558812Y-91970624D01*
X209722784Y-92038544D01*
X209870354Y-92137147D01*
X209995853Y-92262646D01*
X210094456Y-92410216D01*
X210162376Y-92574188D01*
X210197000Y-92748259D01*
X210197000Y-92925741D01*
X210162376Y-93099812D01*
X210094456Y-93263784D01*
X209995853Y-93411354D01*
X209870354Y-93536853D01*
X209722784Y-93635456D01*
X209558812Y-93703376D01*
X209409512Y-93733073D01*
X209384742Y-93738000D01*
X209207258Y-93738000D01*
X209182488Y-93733073D01*
X209033188Y-93703376D01*
X208869216Y-93635456D01*
X208721646Y-93536853D01*
X208596147Y-93411354D01*
X208497544Y-93263784D01*
X208429624Y-93099812D01*
X208395000Y-92925741D01*
X208395000Y-92748259D01*
X208429624Y-92574188D01*
X208497544Y-92410216D01*
X208596147Y-92262646D01*
X208721646Y-92137147D01*
X208869216Y-92038544D01*
X209033188Y-91970624D01*
X209182488Y-91940927D01*
X209207258Y-91936000D01*
X209384742Y-91936000D01*
X209409512Y-91940927D01*
G37*
G36*
X201027512Y-91813927D02*
G01*
X201176812Y-91843624D01*
X201340784Y-91911544D01*
X201488354Y-92010147D01*
X201613853Y-92135646D01*
X201712456Y-92283216D01*
X201780376Y-92447188D01*
X201815000Y-92621259D01*
X201815000Y-92798741D01*
X201780376Y-92972812D01*
X201712456Y-93136784D01*
X201613853Y-93284354D01*
X201488354Y-93409853D01*
X201340784Y-93508456D01*
X201176812Y-93576376D01*
X201027512Y-93606073D01*
X201002742Y-93611000D01*
X200825258Y-93611000D01*
X200800488Y-93606073D01*
X200651188Y-93576376D01*
X200487216Y-93508456D01*
X200339646Y-93409853D01*
X200214147Y-93284354D01*
X200115544Y-93136784D01*
X200047624Y-92972812D01*
X200013000Y-92798741D01*
X200013000Y-92621259D01*
X200047624Y-92447188D01*
X200115544Y-92283216D01*
X200214147Y-92135646D01*
X200339646Y-92010147D01*
X200487216Y-91911544D01*
X200651188Y-91843624D01*
X200800488Y-91813927D01*
X200825258Y-91809000D01*
X201002742Y-91809000D01*
X201027512Y-91813927D01*
G37*
G36*
X194677512Y-91813927D02*
G01*
X194826812Y-91843624D01*
X194990784Y-91911544D01*
X195138354Y-92010147D01*
X195263853Y-92135646D01*
X195362456Y-92283216D01*
X195430376Y-92447188D01*
X195465000Y-92621259D01*
X195465000Y-92798741D01*
X195430376Y-92972812D01*
X195362456Y-93136784D01*
X195263853Y-93284354D01*
X195138354Y-93409853D01*
X194990784Y-93508456D01*
X194826812Y-93576376D01*
X194677512Y-93606073D01*
X194652742Y-93611000D01*
X194475258Y-93611000D01*
X194450488Y-93606073D01*
X194301188Y-93576376D01*
X194137216Y-93508456D01*
X193989646Y-93409853D01*
X193864147Y-93284354D01*
X193765544Y-93136784D01*
X193697624Y-92972812D01*
X193663000Y-92798741D01*
X193663000Y-92621259D01*
X193697624Y-92447188D01*
X193765544Y-92283216D01*
X193864147Y-92135646D01*
X193989646Y-92010147D01*
X194137216Y-91911544D01*
X194301188Y-91843624D01*
X194450488Y-91813927D01*
X194475258Y-91809000D01*
X194652742Y-91809000D01*
X194677512Y-91813927D01*
G37*
G36*
X192137512Y-91813927D02*
G01*
X192286812Y-91843624D01*
X192450784Y-91911544D01*
X192598354Y-92010147D01*
X192723853Y-92135646D01*
X192822456Y-92283216D01*
X192890376Y-92447188D01*
X192925000Y-92621259D01*
X192925000Y-92798741D01*
X192890376Y-92972812D01*
X192822456Y-93136784D01*
X192723853Y-93284354D01*
X192598354Y-93409853D01*
X192450784Y-93508456D01*
X192286812Y-93576376D01*
X192137512Y-93606073D01*
X192112742Y-93611000D01*
X191935258Y-93611000D01*
X191910488Y-93606073D01*
X191761188Y-93576376D01*
X191597216Y-93508456D01*
X191449646Y-93409853D01*
X191324147Y-93284354D01*
X191225544Y-93136784D01*
X191157624Y-92972812D01*
X191123000Y-92798741D01*
X191123000Y-92621259D01*
X191157624Y-92447188D01*
X191225544Y-92283216D01*
X191324147Y-92135646D01*
X191449646Y-92010147D01*
X191597216Y-91911544D01*
X191761188Y-91843624D01*
X191910488Y-91813927D01*
X191935258Y-91809000D01*
X192112742Y-91809000D01*
X192137512Y-91813927D01*
G37*
G36*
X198487512Y-91813927D02*
G01*
X198636812Y-91843624D01*
X198800784Y-91911544D01*
X198948354Y-92010147D01*
X199073853Y-92135646D01*
X199172456Y-92283216D01*
X199240376Y-92447188D01*
X199275000Y-92621259D01*
X199275000Y-92798741D01*
X199240376Y-92972812D01*
X199172456Y-93136784D01*
X199073853Y-93284354D01*
X198948354Y-93409853D01*
X198800784Y-93508456D01*
X198636812Y-93576376D01*
X198487512Y-93606073D01*
X198462742Y-93611000D01*
X198285258Y-93611000D01*
X198260488Y-93606073D01*
X198111188Y-93576376D01*
X197947216Y-93508456D01*
X197799646Y-93409853D01*
X197674147Y-93284354D01*
X197575544Y-93136784D01*
X197507624Y-92972812D01*
X197473000Y-92798741D01*
X197473000Y-92621259D01*
X197507624Y-92447188D01*
X197575544Y-92283216D01*
X197674147Y-92135646D01*
X197799646Y-92010147D01*
X197947216Y-91911544D01*
X198111188Y-91843624D01*
X198260488Y-91813927D01*
X198285258Y-91809000D01*
X198462742Y-91809000D01*
X198487512Y-91813927D01*
G37*
G36*
X223913000Y-93611000D02*
G01*
X222111000Y-93611000D01*
X222111000Y-91809000D01*
X223913000Y-91809000D01*
X223913000Y-93611000D01*
G37*
G36*
X230745512Y-91813927D02*
G01*
X230894812Y-91843624D01*
X231058784Y-91911544D01*
X231206354Y-92010147D01*
X231331853Y-92135646D01*
X231430456Y-92283216D01*
X231498376Y-92447188D01*
X231533000Y-92621259D01*
X231533000Y-92798741D01*
X231498376Y-92972812D01*
X231430456Y-93136784D01*
X231331853Y-93284354D01*
X231206354Y-93409853D01*
X231058784Y-93508456D01*
X230894812Y-93576376D01*
X230745512Y-93606073D01*
X230720742Y-93611000D01*
X230543258Y-93611000D01*
X230518488Y-93606073D01*
X230369188Y-93576376D01*
X230205216Y-93508456D01*
X230057646Y-93409853D01*
X229932147Y-93284354D01*
X229833544Y-93136784D01*
X229765624Y-92972812D01*
X229731000Y-92798741D01*
X229731000Y-92621259D01*
X229765624Y-92447188D01*
X229833544Y-92283216D01*
X229932147Y-92135646D01*
X230057646Y-92010147D01*
X230205216Y-91911544D01*
X230369188Y-91843624D01*
X230518488Y-91813927D01*
X230543258Y-91809000D01*
X230720742Y-91809000D01*
X230745512Y-91813927D01*
G37*
G36*
X228205512Y-91813927D02*
G01*
X228354812Y-91843624D01*
X228518784Y-91911544D01*
X228666354Y-92010147D01*
X228791853Y-92135646D01*
X228890456Y-92283216D01*
X228958376Y-92447188D01*
X228993000Y-92621259D01*
X228993000Y-92798741D01*
X228958376Y-92972812D01*
X228890456Y-93136784D01*
X228791853Y-93284354D01*
X228666354Y-93409853D01*
X228518784Y-93508456D01*
X228354812Y-93576376D01*
X228205512Y-93606073D01*
X228180742Y-93611000D01*
X228003258Y-93611000D01*
X227978488Y-93606073D01*
X227829188Y-93576376D01*
X227665216Y-93508456D01*
X227517646Y-93409853D01*
X227392147Y-93284354D01*
X227293544Y-93136784D01*
X227225624Y-92972812D01*
X227191000Y-92798741D01*
X227191000Y-92621259D01*
X227225624Y-92447188D01*
X227293544Y-92283216D01*
X227392147Y-92135646D01*
X227517646Y-92010147D01*
X227665216Y-91911544D01*
X227829188Y-91843624D01*
X227978488Y-91813927D01*
X228003258Y-91809000D01*
X228180742Y-91809000D01*
X228205512Y-91813927D01*
G37*
G36*
X225665512Y-91813927D02*
G01*
X225814812Y-91843624D01*
X225978784Y-91911544D01*
X226126354Y-92010147D01*
X226251853Y-92135646D01*
X226350456Y-92283216D01*
X226418376Y-92447188D01*
X226453000Y-92621259D01*
X226453000Y-92798741D01*
X226418376Y-92972812D01*
X226350456Y-93136784D01*
X226251853Y-93284354D01*
X226126354Y-93409853D01*
X225978784Y-93508456D01*
X225814812Y-93576376D01*
X225665512Y-93606073D01*
X225640742Y-93611000D01*
X225463258Y-93611000D01*
X225438488Y-93606073D01*
X225289188Y-93576376D01*
X225125216Y-93508456D01*
X224977646Y-93409853D01*
X224852147Y-93284354D01*
X224753544Y-93136784D01*
X224685624Y-92972812D01*
X224651000Y-92798741D01*
X224651000Y-92621259D01*
X224685624Y-92447188D01*
X224753544Y-92283216D01*
X224852147Y-92135646D01*
X224977646Y-92010147D01*
X225125216Y-91911544D01*
X225289188Y-91843624D01*
X225438488Y-91813927D01*
X225463258Y-91809000D01*
X225640742Y-91809000D01*
X225665512Y-91813927D01*
G37*
G36*
X201027512Y-89273927D02*
G01*
X201176812Y-89303624D01*
X201340784Y-89371544D01*
X201488354Y-89470147D01*
X201613853Y-89595646D01*
X201712456Y-89743216D01*
X201780376Y-89907188D01*
X201815000Y-90081259D01*
X201815000Y-90258741D01*
X201780376Y-90432812D01*
X201712456Y-90596784D01*
X201613853Y-90744354D01*
X201488354Y-90869853D01*
X201340784Y-90968456D01*
X201176812Y-91036376D01*
X201027512Y-91066073D01*
X201002742Y-91071000D01*
X200825258Y-91071000D01*
X200800488Y-91066073D01*
X200651188Y-91036376D01*
X200487216Y-90968456D01*
X200339646Y-90869853D01*
X200214147Y-90744354D01*
X200115544Y-90596784D01*
X200047624Y-90432812D01*
X200013000Y-90258741D01*
X200013000Y-90081259D01*
X200047624Y-89907188D01*
X200115544Y-89743216D01*
X200214147Y-89595646D01*
X200339646Y-89470147D01*
X200487216Y-89371544D01*
X200651188Y-89303624D01*
X200800488Y-89273927D01*
X200825258Y-89269000D01*
X201002742Y-89269000D01*
X201027512Y-89273927D01*
G37*
G36*
X192137512Y-89273927D02*
G01*
X192286812Y-89303624D01*
X192450784Y-89371544D01*
X192598354Y-89470147D01*
X192723853Y-89595646D01*
X192822456Y-89743216D01*
X192890376Y-89907188D01*
X192925000Y-90081259D01*
X192925000Y-90258741D01*
X192890376Y-90432812D01*
X192822456Y-90596784D01*
X192723853Y-90744354D01*
X192598354Y-90869853D01*
X192450784Y-90968456D01*
X192286812Y-91036376D01*
X192137512Y-91066073D01*
X192112742Y-91071000D01*
X191935258Y-91071000D01*
X191910488Y-91066073D01*
X191761188Y-91036376D01*
X191597216Y-90968456D01*
X191449646Y-90869853D01*
X191324147Y-90744354D01*
X191225544Y-90596784D01*
X191157624Y-90432812D01*
X191123000Y-90258741D01*
X191123000Y-90081259D01*
X191157624Y-89907188D01*
X191225544Y-89743216D01*
X191324147Y-89595646D01*
X191449646Y-89470147D01*
X191597216Y-89371544D01*
X191761188Y-89303624D01*
X191910488Y-89273927D01*
X191935258Y-89269000D01*
X192112742Y-89269000D01*
X192137512Y-89273927D01*
G37*
G36*
X194677512Y-89273927D02*
G01*
X194826812Y-89303624D01*
X194990784Y-89371544D01*
X195138354Y-89470147D01*
X195263853Y-89595646D01*
X195362456Y-89743216D01*
X195430376Y-89907188D01*
X195465000Y-90081259D01*
X195465000Y-90258741D01*
X195430376Y-90432812D01*
X195362456Y-90596784D01*
X195263853Y-90744354D01*
X195138354Y-90869853D01*
X194990784Y-90968456D01*
X194826812Y-91036376D01*
X194677512Y-91066073D01*
X194652742Y-91071000D01*
X194475258Y-91071000D01*
X194450488Y-91066073D01*
X194301188Y-91036376D01*
X194137216Y-90968456D01*
X193989646Y-90869853D01*
X193864147Y-90744354D01*
X193765544Y-90596784D01*
X193697624Y-90432812D01*
X193663000Y-90258741D01*
X193663000Y-90081259D01*
X193697624Y-89907188D01*
X193765544Y-89743216D01*
X193864147Y-89595646D01*
X193989646Y-89470147D01*
X194137216Y-89371544D01*
X194301188Y-89303624D01*
X194450488Y-89273927D01*
X194475258Y-89269000D01*
X194652742Y-89269000D01*
X194677512Y-89273927D01*
G37*
G36*
X198487512Y-89273927D02*
G01*
X198636812Y-89303624D01*
X198800784Y-89371544D01*
X198948354Y-89470147D01*
X199073853Y-89595646D01*
X199172456Y-89743216D01*
X199240376Y-89907188D01*
X199275000Y-90081259D01*
X199275000Y-90258741D01*
X199240376Y-90432812D01*
X199172456Y-90596784D01*
X199073853Y-90744354D01*
X198948354Y-90869853D01*
X198800784Y-90968456D01*
X198636812Y-91036376D01*
X198487512Y-91066073D01*
X198462742Y-91071000D01*
X198285258Y-91071000D01*
X198260488Y-91066073D01*
X198111188Y-91036376D01*
X197947216Y-90968456D01*
X197799646Y-90869853D01*
X197674147Y-90744354D01*
X197575544Y-90596784D01*
X197507624Y-90432812D01*
X197473000Y-90258741D01*
X197473000Y-90081259D01*
X197507624Y-89907188D01*
X197575544Y-89743216D01*
X197674147Y-89595646D01*
X197799646Y-89470147D01*
X197947216Y-89371544D01*
X198111188Y-89303624D01*
X198260488Y-89273927D01*
X198285258Y-89269000D01*
X198462742Y-89269000D01*
X198487512Y-89273927D01*
G37*
G36*
X194677512Y-86733927D02*
G01*
X194826812Y-86763624D01*
X194990784Y-86831544D01*
X195138354Y-86930147D01*
X195263853Y-87055646D01*
X195362456Y-87203216D01*
X195430376Y-87367188D01*
X195465000Y-87541259D01*
X195465000Y-87718741D01*
X195430376Y-87892812D01*
X195362456Y-88056784D01*
X195263853Y-88204354D01*
X195138354Y-88329853D01*
X194990784Y-88428456D01*
X194826812Y-88496376D01*
X194677512Y-88526073D01*
X194652742Y-88531000D01*
X194475258Y-88531000D01*
X194450488Y-88526073D01*
X194301188Y-88496376D01*
X194137216Y-88428456D01*
X193989646Y-88329853D01*
X193864147Y-88204354D01*
X193765544Y-88056784D01*
X193697624Y-87892812D01*
X193663000Y-87718741D01*
X193663000Y-87541259D01*
X193697624Y-87367188D01*
X193765544Y-87203216D01*
X193864147Y-87055646D01*
X193989646Y-86930147D01*
X194137216Y-86831544D01*
X194301188Y-86763624D01*
X194450488Y-86733927D01*
X194475258Y-86729000D01*
X194652742Y-86729000D01*
X194677512Y-86733927D01*
G37*
G36*
X192137512Y-86733927D02*
G01*
X192286812Y-86763624D01*
X192450784Y-86831544D01*
X192598354Y-86930147D01*
X192723853Y-87055646D01*
X192822456Y-87203216D01*
X192890376Y-87367188D01*
X192925000Y-87541259D01*
X192925000Y-87718741D01*
X192890376Y-87892812D01*
X192822456Y-88056784D01*
X192723853Y-88204354D01*
X192598354Y-88329853D01*
X192450784Y-88428456D01*
X192286812Y-88496376D01*
X192137512Y-88526073D01*
X192112742Y-88531000D01*
X191935258Y-88531000D01*
X191910488Y-88526073D01*
X191761188Y-88496376D01*
X191597216Y-88428456D01*
X191449646Y-88329853D01*
X191324147Y-88204354D01*
X191225544Y-88056784D01*
X191157624Y-87892812D01*
X191123000Y-87718741D01*
X191123000Y-87541259D01*
X191157624Y-87367188D01*
X191225544Y-87203216D01*
X191324147Y-87055646D01*
X191449646Y-86930147D01*
X191597216Y-86831544D01*
X191761188Y-86763624D01*
X191910488Y-86733927D01*
X191935258Y-86729000D01*
X192112742Y-86729000D01*
X192137512Y-86733927D01*
G37*
G36*
X198487512Y-86733927D02*
G01*
X198636812Y-86763624D01*
X198800784Y-86831544D01*
X198948354Y-86930147D01*
X199073853Y-87055646D01*
X199172456Y-87203216D01*
X199240376Y-87367188D01*
X199275000Y-87541259D01*
X199275000Y-87718741D01*
X199240376Y-87892812D01*
X199172456Y-88056784D01*
X199073853Y-88204354D01*
X198948354Y-88329853D01*
X198800784Y-88428456D01*
X198636812Y-88496376D01*
X198487512Y-88526073D01*
X198462742Y-88531000D01*
X198285258Y-88531000D01*
X198260488Y-88526073D01*
X198111188Y-88496376D01*
X197947216Y-88428456D01*
X197799646Y-88329853D01*
X197674147Y-88204354D01*
X197575544Y-88056784D01*
X197507624Y-87892812D01*
X197473000Y-87718741D01*
X197473000Y-87541259D01*
X197507624Y-87367188D01*
X197575544Y-87203216D01*
X197674147Y-87055646D01*
X197799646Y-86930147D01*
X197947216Y-86831544D01*
X198111188Y-86763624D01*
X198260488Y-86733927D01*
X198285258Y-86729000D01*
X198462742Y-86729000D01*
X198487512Y-86733927D01*
G37*
G36*
X201027512Y-86733927D02*
G01*
X201176812Y-86763624D01*
X201340784Y-86831544D01*
X201488354Y-86930147D01*
X201613853Y-87055646D01*
X201712456Y-87203216D01*
X201780376Y-87367188D01*
X201815000Y-87541259D01*
X201815000Y-87718741D01*
X201780376Y-87892812D01*
X201712456Y-88056784D01*
X201613853Y-88204354D01*
X201488354Y-88329853D01*
X201340784Y-88428456D01*
X201176812Y-88496376D01*
X201027512Y-88526073D01*
X201002742Y-88531000D01*
X200825258Y-88531000D01*
X200800488Y-88526073D01*
X200651188Y-88496376D01*
X200487216Y-88428456D01*
X200339646Y-88329853D01*
X200214147Y-88204354D01*
X200115544Y-88056784D01*
X200047624Y-87892812D01*
X200013000Y-87718741D01*
X200013000Y-87541259D01*
X200047624Y-87367188D01*
X200115544Y-87203216D01*
X200214147Y-87055646D01*
X200339646Y-86930147D01*
X200487216Y-86831544D01*
X200651188Y-86763624D01*
X200800488Y-86733927D01*
X200825258Y-86729000D01*
X201002742Y-86729000D01*
X201027512Y-86733927D01*
G37*
G36*
X216148228Y-84398703D02*
G01*
X216303100Y-84462853D01*
X216442481Y-84555985D01*
X216561015Y-84674519D01*
X216654147Y-84813900D01*
X216718297Y-84968772D01*
X216751000Y-85133184D01*
X216751000Y-85300816D01*
X216718297Y-85465228D01*
X216654147Y-85620100D01*
X216561015Y-85759481D01*
X216442481Y-85878015D01*
X216303100Y-85971147D01*
X216148228Y-86035297D01*
X215983816Y-86068000D01*
X215816184Y-86068000D01*
X215651772Y-86035297D01*
X215496900Y-85971147D01*
X215357519Y-85878015D01*
X215238985Y-85759481D01*
X215145853Y-85620100D01*
X215081703Y-85465228D01*
X215049000Y-85300816D01*
X215049000Y-85133184D01*
X215081703Y-84968772D01*
X215145853Y-84813900D01*
X215238985Y-84674519D01*
X215357519Y-84555985D01*
X215496900Y-84462853D01*
X215651772Y-84398703D01*
X215816184Y-84366000D01*
X215983816Y-84366000D01*
X216148228Y-84398703D01*
G37*
G36*
X228848228Y-84398703D02*
G01*
X229003100Y-84462853D01*
X229142481Y-84555985D01*
X229261015Y-84674519D01*
X229354147Y-84813900D01*
X229418297Y-84968772D01*
X229451000Y-85133184D01*
X229451000Y-85300816D01*
X229418297Y-85465228D01*
X229354147Y-85620100D01*
X229261015Y-85759481D01*
X229142481Y-85878015D01*
X229003100Y-85971147D01*
X228848228Y-86035297D01*
X228683816Y-86068000D01*
X228516184Y-86068000D01*
X228351772Y-86035297D01*
X228196900Y-85971147D01*
X228057519Y-85878015D01*
X227938985Y-85759481D01*
X227845853Y-85620100D01*
X227781703Y-85465228D01*
X227749000Y-85300816D01*
X227749000Y-85133184D01*
X227781703Y-84968772D01*
X227845853Y-84813900D01*
X227938985Y-84674519D01*
X228057519Y-84555985D01*
X228196900Y-84462853D01*
X228351772Y-84398703D01*
X228516184Y-84366000D01*
X228683816Y-84366000D01*
X228848228Y-84398703D01*
G37*
G36*
X226308228Y-84398703D02*
G01*
X226463100Y-84462853D01*
X226602481Y-84555985D01*
X226721015Y-84674519D01*
X226814147Y-84813900D01*
X226878297Y-84968772D01*
X226911000Y-85133184D01*
X226911000Y-85300816D01*
X226878297Y-85465228D01*
X226814147Y-85620100D01*
X226721015Y-85759481D01*
X226602481Y-85878015D01*
X226463100Y-85971147D01*
X226308228Y-86035297D01*
X226143816Y-86068000D01*
X225976184Y-86068000D01*
X225811772Y-86035297D01*
X225656900Y-85971147D01*
X225517519Y-85878015D01*
X225398985Y-85759481D01*
X225305853Y-85620100D01*
X225241703Y-85465228D01*
X225209000Y-85300816D01*
X225209000Y-85133184D01*
X225241703Y-84968772D01*
X225305853Y-84813900D01*
X225398985Y-84674519D01*
X225517519Y-84555985D01*
X225656900Y-84462853D01*
X225811772Y-84398703D01*
X225976184Y-84366000D01*
X226143816Y-84366000D01*
X226308228Y-84398703D01*
G37*
G36*
X223768228Y-84398703D02*
G01*
X223923100Y-84462853D01*
X224062481Y-84555985D01*
X224181015Y-84674519D01*
X224274147Y-84813900D01*
X224338297Y-84968772D01*
X224371000Y-85133184D01*
X224371000Y-85300816D01*
X224338297Y-85465228D01*
X224274147Y-85620100D01*
X224181015Y-85759481D01*
X224062481Y-85878015D01*
X223923100Y-85971147D01*
X223768228Y-86035297D01*
X223603816Y-86068000D01*
X223436184Y-86068000D01*
X223271772Y-86035297D01*
X223116900Y-85971147D01*
X222977519Y-85878015D01*
X222858985Y-85759481D01*
X222765853Y-85620100D01*
X222701703Y-85465228D01*
X222669000Y-85300816D01*
X222669000Y-85133184D01*
X222701703Y-84968772D01*
X222765853Y-84813900D01*
X222858985Y-84674519D01*
X222977519Y-84555985D01*
X223116900Y-84462853D01*
X223271772Y-84398703D01*
X223436184Y-84366000D01*
X223603816Y-84366000D01*
X223768228Y-84398703D01*
G37*
G36*
X221228228Y-84398703D02*
G01*
X221383100Y-84462853D01*
X221522481Y-84555985D01*
X221641015Y-84674519D01*
X221734147Y-84813900D01*
X221798297Y-84968772D01*
X221831000Y-85133184D01*
X221831000Y-85300816D01*
X221798297Y-85465228D01*
X221734147Y-85620100D01*
X221641015Y-85759481D01*
X221522481Y-85878015D01*
X221383100Y-85971147D01*
X221228228Y-86035297D01*
X221063816Y-86068000D01*
X220896184Y-86068000D01*
X220731772Y-86035297D01*
X220576900Y-85971147D01*
X220437519Y-85878015D01*
X220318985Y-85759481D01*
X220225853Y-85620100D01*
X220161703Y-85465228D01*
X220129000Y-85300816D01*
X220129000Y-85133184D01*
X220161703Y-84968772D01*
X220225853Y-84813900D01*
X220318985Y-84674519D01*
X220437519Y-84555985D01*
X220576900Y-84462853D01*
X220731772Y-84398703D01*
X220896184Y-84366000D01*
X221063816Y-84366000D01*
X221228228Y-84398703D01*
G37*
G36*
X213608228Y-84398703D02*
G01*
X213763100Y-84462853D01*
X213902481Y-84555985D01*
X214021015Y-84674519D01*
X214114147Y-84813900D01*
X214178297Y-84968772D01*
X214211000Y-85133184D01*
X214211000Y-85300816D01*
X214178297Y-85465228D01*
X214114147Y-85620100D01*
X214021015Y-85759481D01*
X213902481Y-85878015D01*
X213763100Y-85971147D01*
X213608228Y-86035297D01*
X213443816Y-86068000D01*
X213276184Y-86068000D01*
X213111772Y-86035297D01*
X212956900Y-85971147D01*
X212817519Y-85878015D01*
X212698985Y-85759481D01*
X212605853Y-85620100D01*
X212541703Y-85465228D01*
X212509000Y-85300816D01*
X212509000Y-85133184D01*
X212541703Y-84968772D01*
X212605853Y-84813900D01*
X212698985Y-84674519D01*
X212817519Y-84555985D01*
X212956900Y-84462853D01*
X213111772Y-84398703D01*
X213276184Y-84366000D01*
X213443816Y-84366000D01*
X213608228Y-84398703D01*
G37*
G36*
X211068228Y-84398703D02*
G01*
X211223100Y-84462853D01*
X211362481Y-84555985D01*
X211481015Y-84674519D01*
X211574147Y-84813900D01*
X211638297Y-84968772D01*
X211671000Y-85133184D01*
X211671000Y-85300816D01*
X211638297Y-85465228D01*
X211574147Y-85620100D01*
X211481015Y-85759481D01*
X211362481Y-85878015D01*
X211223100Y-85971147D01*
X211068228Y-86035297D01*
X210903816Y-86068000D01*
X210736184Y-86068000D01*
X210571772Y-86035297D01*
X210416900Y-85971147D01*
X210277519Y-85878015D01*
X210158985Y-85759481D01*
X210065853Y-85620100D01*
X210001703Y-85465228D01*
X209969000Y-85300816D01*
X209969000Y-85133184D01*
X210001703Y-84968772D01*
X210065853Y-84813900D01*
X210158985Y-84674519D01*
X210277519Y-84555985D01*
X210416900Y-84462853D01*
X210571772Y-84398703D01*
X210736184Y-84366000D01*
X210903816Y-84366000D01*
X211068228Y-84398703D01*
G37*
G36*
X208528228Y-84398703D02*
G01*
X208683100Y-84462853D01*
X208822481Y-84555985D01*
X208941015Y-84674519D01*
X209034147Y-84813900D01*
X209098297Y-84968772D01*
X209131000Y-85133184D01*
X209131000Y-85300816D01*
X209098297Y-85465228D01*
X209034147Y-85620100D01*
X208941015Y-85759481D01*
X208822481Y-85878015D01*
X208683100Y-85971147D01*
X208528228Y-86035297D01*
X208363816Y-86068000D01*
X208196184Y-86068000D01*
X208031772Y-86035297D01*
X207876900Y-85971147D01*
X207737519Y-85878015D01*
X207618985Y-85759481D01*
X207525853Y-85620100D01*
X207461703Y-85465228D01*
X207429000Y-85300816D01*
X207429000Y-85133184D01*
X207461703Y-84968772D01*
X207525853Y-84813900D01*
X207618985Y-84674519D01*
X207737519Y-84555985D01*
X207876900Y-84462853D01*
X208031772Y-84398703D01*
X208196184Y-84366000D01*
X208363816Y-84366000D01*
X208528228Y-84398703D01*
G37*
G36*
X241548228Y-84398703D02*
G01*
X241703100Y-84462853D01*
X241842481Y-84555985D01*
X241961015Y-84674519D01*
X242054147Y-84813900D01*
X242118297Y-84968772D01*
X242151000Y-85133184D01*
X242151000Y-85300816D01*
X242118297Y-85465228D01*
X242054147Y-85620100D01*
X241961015Y-85759481D01*
X241842481Y-85878015D01*
X241703100Y-85971147D01*
X241548228Y-86035297D01*
X241383816Y-86068000D01*
X241216184Y-86068000D01*
X241051772Y-86035297D01*
X240896900Y-85971147D01*
X240757519Y-85878015D01*
X240638985Y-85759481D01*
X240545853Y-85620100D01*
X240481703Y-85465228D01*
X240449000Y-85300816D01*
X240449000Y-85133184D01*
X240481703Y-84968772D01*
X240545853Y-84813900D01*
X240638985Y-84674519D01*
X240757519Y-84555985D01*
X240896900Y-84462853D01*
X241051772Y-84398703D01*
X241216184Y-84366000D01*
X241383816Y-84366000D01*
X241548228Y-84398703D01*
G37*
G36*
X239008228Y-84398703D02*
G01*
X239163100Y-84462853D01*
X239302481Y-84555985D01*
X239421015Y-84674519D01*
X239514147Y-84813900D01*
X239578297Y-84968772D01*
X239611000Y-85133184D01*
X239611000Y-85300816D01*
X239578297Y-85465228D01*
X239514147Y-85620100D01*
X239421015Y-85759481D01*
X239302481Y-85878015D01*
X239163100Y-85971147D01*
X239008228Y-86035297D01*
X238843816Y-86068000D01*
X238676184Y-86068000D01*
X238511772Y-86035297D01*
X238356900Y-85971147D01*
X238217519Y-85878015D01*
X238098985Y-85759481D01*
X238005853Y-85620100D01*
X237941703Y-85465228D01*
X237909000Y-85300816D01*
X237909000Y-85133184D01*
X237941703Y-84968772D01*
X238005853Y-84813900D01*
X238098985Y-84674519D01*
X238217519Y-84555985D01*
X238356900Y-84462853D01*
X238511772Y-84398703D01*
X238676184Y-84366000D01*
X238843816Y-84366000D01*
X239008228Y-84398703D01*
G37*
G36*
X236468228Y-84398703D02*
G01*
X236623100Y-84462853D01*
X236762481Y-84555985D01*
X236881015Y-84674519D01*
X236974147Y-84813900D01*
X237038297Y-84968772D01*
X237071000Y-85133184D01*
X237071000Y-85300816D01*
X237038297Y-85465228D01*
X236974147Y-85620100D01*
X236881015Y-85759481D01*
X236762481Y-85878015D01*
X236623100Y-85971147D01*
X236468228Y-86035297D01*
X236303816Y-86068000D01*
X236136184Y-86068000D01*
X235971772Y-86035297D01*
X235816900Y-85971147D01*
X235677519Y-85878015D01*
X235558985Y-85759481D01*
X235465853Y-85620100D01*
X235401703Y-85465228D01*
X235369000Y-85300816D01*
X235369000Y-85133184D01*
X235401703Y-84968772D01*
X235465853Y-84813900D01*
X235558985Y-84674519D01*
X235677519Y-84555985D01*
X235816900Y-84462853D01*
X235971772Y-84398703D01*
X236136184Y-84366000D01*
X236303816Y-84366000D01*
X236468228Y-84398703D01*
G37*
G36*
X233928228Y-84398703D02*
G01*
X234083100Y-84462853D01*
X234222481Y-84555985D01*
X234341015Y-84674519D01*
X234434147Y-84813900D01*
X234498297Y-84968772D01*
X234531000Y-85133184D01*
X234531000Y-85300816D01*
X234498297Y-85465228D01*
X234434147Y-85620100D01*
X234341015Y-85759481D01*
X234222481Y-85878015D01*
X234083100Y-85971147D01*
X233928228Y-86035297D01*
X233763816Y-86068000D01*
X233596184Y-86068000D01*
X233431772Y-86035297D01*
X233276900Y-85971147D01*
X233137519Y-85878015D01*
X233018985Y-85759481D01*
X232925853Y-85620100D01*
X232861703Y-85465228D01*
X232829000Y-85300816D01*
X232829000Y-85133184D01*
X232861703Y-84968772D01*
X232925853Y-84813900D01*
X233018985Y-84674519D01*
X233137519Y-84555985D01*
X233276900Y-84462853D01*
X233431772Y-84398703D01*
X233596184Y-84366000D01*
X233763816Y-84366000D01*
X233928228Y-84398703D01*
G37*
G36*
X231388228Y-84398703D02*
G01*
X231543100Y-84462853D01*
X231682481Y-84555985D01*
X231801015Y-84674519D01*
X231894147Y-84813900D01*
X231958297Y-84968772D01*
X231991000Y-85133184D01*
X231991000Y-85300816D01*
X231958297Y-85465228D01*
X231894147Y-85620100D01*
X231801015Y-85759481D01*
X231682481Y-85878015D01*
X231543100Y-85971147D01*
X231388228Y-86035297D01*
X231223816Y-86068000D01*
X231056184Y-86068000D01*
X230891772Y-86035297D01*
X230736900Y-85971147D01*
X230597519Y-85878015D01*
X230478985Y-85759481D01*
X230385853Y-85620100D01*
X230321703Y-85465228D01*
X230289000Y-85300816D01*
X230289000Y-85133184D01*
X230321703Y-84968772D01*
X230385853Y-84813900D01*
X230478985Y-84674519D01*
X230597519Y-84555985D01*
X230736900Y-84462853D01*
X230891772Y-84398703D01*
X231056184Y-84366000D01*
X231223816Y-84366000D01*
X231388228Y-84398703D01*
G37*
G36*
X218688228Y-84398703D02*
G01*
X218843100Y-84462853D01*
X218982481Y-84555985D01*
X219101015Y-84674519D01*
X219194147Y-84813900D01*
X219258297Y-84968772D01*
X219291000Y-85133184D01*
X219291000Y-85300816D01*
X219258297Y-85465228D01*
X219194147Y-85620100D01*
X219101015Y-85759481D01*
X218982481Y-85878015D01*
X218843100Y-85971147D01*
X218688228Y-86035297D01*
X218523816Y-86068000D01*
X218356184Y-86068000D01*
X218191772Y-86035297D01*
X218036900Y-85971147D01*
X217897519Y-85878015D01*
X217778985Y-85759481D01*
X217685853Y-85620100D01*
X217621703Y-85465228D01*
X217589000Y-85300816D01*
X217589000Y-85133184D01*
X217621703Y-84968772D01*
X217685853Y-84813900D01*
X217778985Y-84674519D01*
X217897519Y-84555985D01*
X218036900Y-84462853D01*
X218191772Y-84398703D01*
X218356184Y-84366000D01*
X218523816Y-84366000D01*
X218688228Y-84398703D01*
G37*
G36*
X198487512Y-84193927D02*
G01*
X198636812Y-84223624D01*
X198800784Y-84291544D01*
X198948354Y-84390147D01*
X199073853Y-84515646D01*
X199172456Y-84663216D01*
X199240376Y-84827188D01*
X199275000Y-85001259D01*
X199275000Y-85178741D01*
X199240376Y-85352812D01*
X199172456Y-85516784D01*
X199073853Y-85664354D01*
X198948354Y-85789853D01*
X198800784Y-85888456D01*
X198636812Y-85956376D01*
X198487512Y-85986073D01*
X198462742Y-85991000D01*
X198285258Y-85991000D01*
X198260488Y-85986073D01*
X198111188Y-85956376D01*
X197947216Y-85888456D01*
X197799646Y-85789853D01*
X197674147Y-85664354D01*
X197575544Y-85516784D01*
X197507624Y-85352812D01*
X197473000Y-85178741D01*
X197473000Y-85001259D01*
X197507624Y-84827188D01*
X197575544Y-84663216D01*
X197674147Y-84515646D01*
X197799646Y-84390147D01*
X197947216Y-84291544D01*
X198111188Y-84223624D01*
X198260488Y-84193927D01*
X198285258Y-84189000D01*
X198462742Y-84189000D01*
X198487512Y-84193927D01*
G37*
G36*
X201815000Y-85991000D02*
G01*
X200013000Y-85991000D01*
X200013000Y-84189000D01*
X201815000Y-84189000D01*
X201815000Y-85991000D01*
G37*
G36*
X195465000Y-85991000D02*
G01*
X193663000Y-85991000D01*
X193663000Y-84189000D01*
X195465000Y-84189000D01*
X195465000Y-85991000D01*
G37*
G36*
X192137512Y-84193927D02*
G01*
X192286812Y-84223624D01*
X192450784Y-84291544D01*
X192598354Y-84390147D01*
X192723853Y-84515646D01*
X192822456Y-84663216D01*
X192890376Y-84827188D01*
X192925000Y-85001259D01*
X192925000Y-85178741D01*
X192890376Y-85352812D01*
X192822456Y-85516784D01*
X192723853Y-85664354D01*
X192598354Y-85789853D01*
X192450784Y-85888456D01*
X192286812Y-85956376D01*
X192137512Y-85986073D01*
X192112742Y-85991000D01*
X191935258Y-85991000D01*
X191910488Y-85986073D01*
X191761188Y-85956376D01*
X191597216Y-85888456D01*
X191449646Y-85789853D01*
X191324147Y-85664354D01*
X191225544Y-85516784D01*
X191157624Y-85352812D01*
X191123000Y-85178741D01*
X191123000Y-85001259D01*
X191157624Y-84827188D01*
X191225544Y-84663216D01*
X191324147Y-84515646D01*
X191449646Y-84390147D01*
X191597216Y-84291544D01*
X191761188Y-84223624D01*
X191910488Y-84193927D01*
X191935258Y-84189000D01*
X192112742Y-84189000D01*
X192137512Y-84193927D01*
G37*
G36*
X216148228Y-81858703D02*
G01*
X216303100Y-81922853D01*
X216442481Y-82015985D01*
X216561015Y-82134519D01*
X216654147Y-82273900D01*
X216718297Y-82428772D01*
X216751000Y-82593184D01*
X216751000Y-82760816D01*
X216718297Y-82925228D01*
X216654147Y-83080100D01*
X216561015Y-83219481D01*
X216442481Y-83338015D01*
X216303100Y-83431147D01*
X216148228Y-83495297D01*
X215983816Y-83528000D01*
X215816184Y-83528000D01*
X215651772Y-83495297D01*
X215496900Y-83431147D01*
X215357519Y-83338015D01*
X215238985Y-83219481D01*
X215145853Y-83080100D01*
X215081703Y-82925228D01*
X215049000Y-82760816D01*
X215049000Y-82593184D01*
X215081703Y-82428772D01*
X215145853Y-82273900D01*
X215238985Y-82134519D01*
X215357519Y-82015985D01*
X215496900Y-81922853D01*
X215651772Y-81858703D01*
X215816184Y-81826000D01*
X215983816Y-81826000D01*
X216148228Y-81858703D01*
G37*
G36*
X208528228Y-81858703D02*
G01*
X208683100Y-81922853D01*
X208822481Y-82015985D01*
X208941015Y-82134519D01*
X209034147Y-82273900D01*
X209098297Y-82428772D01*
X209131000Y-82593184D01*
X209131000Y-82760816D01*
X209098297Y-82925228D01*
X209034147Y-83080100D01*
X208941015Y-83219481D01*
X208822481Y-83338015D01*
X208683100Y-83431147D01*
X208528228Y-83495297D01*
X208363816Y-83528000D01*
X208196184Y-83528000D01*
X208031772Y-83495297D01*
X207876900Y-83431147D01*
X207737519Y-83338015D01*
X207618985Y-83219481D01*
X207525853Y-83080100D01*
X207461703Y-82925228D01*
X207429000Y-82760816D01*
X207429000Y-82593184D01*
X207461703Y-82428772D01*
X207525853Y-82273900D01*
X207618985Y-82134519D01*
X207737519Y-82015985D01*
X207876900Y-81922853D01*
X208031772Y-81858703D01*
X208196184Y-81826000D01*
X208363816Y-81826000D01*
X208528228Y-81858703D01*
G37*
G36*
X239008228Y-81858703D02*
G01*
X239163100Y-81922853D01*
X239302481Y-82015985D01*
X239421015Y-82134519D01*
X239514147Y-82273900D01*
X239578297Y-82428772D01*
X239611000Y-82593184D01*
X239611000Y-82760816D01*
X239578297Y-82925228D01*
X239514147Y-83080100D01*
X239421015Y-83219481D01*
X239302481Y-83338015D01*
X239163100Y-83431147D01*
X239008228Y-83495297D01*
X238843816Y-83528000D01*
X238676184Y-83528000D01*
X238511772Y-83495297D01*
X238356900Y-83431147D01*
X238217519Y-83338015D01*
X238098985Y-83219481D01*
X238005853Y-83080100D01*
X237941703Y-82925228D01*
X237909000Y-82760816D01*
X237909000Y-82593184D01*
X237941703Y-82428772D01*
X238005853Y-82273900D01*
X238098985Y-82134519D01*
X238217519Y-82015985D01*
X238356900Y-81922853D01*
X238511772Y-81858703D01*
X238676184Y-81826000D01*
X238843816Y-81826000D01*
X239008228Y-81858703D01*
G37*
G36*
X213608228Y-81858703D02*
G01*
X213763100Y-81922853D01*
X213902481Y-82015985D01*
X214021015Y-82134519D01*
X214114147Y-82273900D01*
X214178297Y-82428772D01*
X214211000Y-82593184D01*
X214211000Y-82760816D01*
X214178297Y-82925228D01*
X214114147Y-83080100D01*
X214021015Y-83219481D01*
X213902481Y-83338015D01*
X213763100Y-83431147D01*
X213608228Y-83495297D01*
X213443816Y-83528000D01*
X213276184Y-83528000D01*
X213111772Y-83495297D01*
X212956900Y-83431147D01*
X212817519Y-83338015D01*
X212698985Y-83219481D01*
X212605853Y-83080100D01*
X212541703Y-82925228D01*
X212509000Y-82760816D01*
X212509000Y-82593184D01*
X212541703Y-82428772D01*
X212605853Y-82273900D01*
X212698985Y-82134519D01*
X212817519Y-82015985D01*
X212956900Y-81922853D01*
X213111772Y-81858703D01*
X213276184Y-81826000D01*
X213443816Y-81826000D01*
X213608228Y-81858703D01*
G37*
G36*
X213608228Y-79318703D02*
G01*
X213763100Y-79382853D01*
X213902481Y-79475985D01*
X214021015Y-79594519D01*
X214114147Y-79733900D01*
X214178297Y-79888772D01*
X214211000Y-80053184D01*
X214211000Y-80220816D01*
X214178297Y-80385228D01*
X214114147Y-80540100D01*
X214021015Y-80679481D01*
X213902481Y-80798015D01*
X213763100Y-80891147D01*
X213608228Y-80955297D01*
X213443816Y-80988000D01*
X213276184Y-80988000D01*
X213111772Y-80955297D01*
X212956900Y-80891147D01*
X212817519Y-80798015D01*
X212698985Y-80679481D01*
X212605853Y-80540100D01*
X212541703Y-80385228D01*
X212509000Y-80220816D01*
X212509000Y-80053184D01*
X212541703Y-79888772D01*
X212605853Y-79733900D01*
X212698985Y-79594519D01*
X212817519Y-79475985D01*
X212956900Y-79382853D01*
X213111772Y-79318703D01*
X213276184Y-79286000D01*
X213443816Y-79286000D01*
X213608228Y-79318703D01*
G37*
G36*
X216148228Y-79318703D02*
G01*
X216303100Y-79382853D01*
X216442481Y-79475985D01*
X216561015Y-79594519D01*
X216654147Y-79733900D01*
X216718297Y-79888772D01*
X216751000Y-80053184D01*
X216751000Y-80220816D01*
X216718297Y-80385228D01*
X216654147Y-80540100D01*
X216561015Y-80679481D01*
X216442481Y-80798015D01*
X216303100Y-80891147D01*
X216148228Y-80955297D01*
X215983816Y-80988000D01*
X215816184Y-80988000D01*
X215651772Y-80955297D01*
X215496900Y-80891147D01*
X215357519Y-80798015D01*
X215238985Y-80679481D01*
X215145853Y-80540100D01*
X215081703Y-80385228D01*
X215049000Y-80220816D01*
X215049000Y-80053184D01*
X215081703Y-79888772D01*
X215145853Y-79733900D01*
X215238985Y-79594519D01*
X215357519Y-79475985D01*
X215496900Y-79382853D01*
X215651772Y-79318703D01*
X215816184Y-79286000D01*
X215983816Y-79286000D01*
X216148228Y-79318703D01*
G37*
G36*
X208528228Y-79318703D02*
G01*
X208683100Y-79382853D01*
X208822481Y-79475985D01*
X208941015Y-79594519D01*
X209034147Y-79733900D01*
X209098297Y-79888772D01*
X209131000Y-80053184D01*
X209131000Y-80220816D01*
X209098297Y-80385228D01*
X209034147Y-80540100D01*
X208941015Y-80679481D01*
X208822481Y-80798015D01*
X208683100Y-80891147D01*
X208528228Y-80955297D01*
X208363816Y-80988000D01*
X208196184Y-80988000D01*
X208031772Y-80955297D01*
X207876900Y-80891147D01*
X207737519Y-80798015D01*
X207618985Y-80679481D01*
X207525853Y-80540100D01*
X207461703Y-80385228D01*
X207429000Y-80220816D01*
X207429000Y-80053184D01*
X207461703Y-79888772D01*
X207525853Y-79733900D01*
X207618985Y-79594519D01*
X207737519Y-79475985D01*
X207876900Y-79382853D01*
X208031772Y-79318703D01*
X208196184Y-79286000D01*
X208363816Y-79286000D01*
X208528228Y-79318703D01*
G37*
G36*
X213608228Y-76778703D02*
G01*
X213763100Y-76842853D01*
X213902481Y-76935985D01*
X214021015Y-77054519D01*
X214114147Y-77193900D01*
X214178297Y-77348772D01*
X214211000Y-77513184D01*
X214211000Y-77680816D01*
X214178297Y-77845228D01*
X214114147Y-78000100D01*
X214021015Y-78139481D01*
X213902481Y-78258015D01*
X213763100Y-78351147D01*
X213608228Y-78415297D01*
X213443816Y-78448000D01*
X213276184Y-78448000D01*
X213111772Y-78415297D01*
X212956900Y-78351147D01*
X212817519Y-78258015D01*
X212698985Y-78139481D01*
X212605853Y-78000100D01*
X212541703Y-77845228D01*
X212509000Y-77680816D01*
X212509000Y-77513184D01*
X212541703Y-77348772D01*
X212605853Y-77193900D01*
X212698985Y-77054519D01*
X212817519Y-76935985D01*
X212956900Y-76842853D01*
X213111772Y-76778703D01*
X213276184Y-76746000D01*
X213443816Y-76746000D01*
X213608228Y-76778703D01*
G37*
G36*
X208528228Y-76778703D02*
G01*
X208683100Y-76842853D01*
X208822481Y-76935985D01*
X208941015Y-77054519D01*
X209034147Y-77193900D01*
X209098297Y-77348772D01*
X209131000Y-77513184D01*
X209131000Y-77680816D01*
X209098297Y-77845228D01*
X209034147Y-78000100D01*
X208941015Y-78139481D01*
X208822481Y-78258015D01*
X208683100Y-78351147D01*
X208528228Y-78415297D01*
X208363816Y-78448000D01*
X208196184Y-78448000D01*
X208031772Y-78415297D01*
X207876900Y-78351147D01*
X207737519Y-78258015D01*
X207618985Y-78139481D01*
X207525853Y-78000100D01*
X207461703Y-77845228D01*
X207429000Y-77680816D01*
X207429000Y-77513184D01*
X207461703Y-77348772D01*
X207525853Y-77193900D01*
X207618985Y-77054519D01*
X207737519Y-76935985D01*
X207876900Y-76842853D01*
X208031772Y-76778703D01*
X208196184Y-76746000D01*
X208363816Y-76746000D01*
X208528228Y-76778703D01*
G37*
G36*
X216148228Y-76778703D02*
G01*
X216303100Y-76842853D01*
X216442481Y-76935985D01*
X216561015Y-77054519D01*
X216654147Y-77193900D01*
X216718297Y-77348772D01*
X216751000Y-77513184D01*
X216751000Y-77680816D01*
X216718297Y-77845228D01*
X216654147Y-78000100D01*
X216561015Y-78139481D01*
X216442481Y-78258015D01*
X216303100Y-78351147D01*
X216148228Y-78415297D01*
X215983816Y-78448000D01*
X215816184Y-78448000D01*
X215651772Y-78415297D01*
X215496900Y-78351147D01*
X215357519Y-78258015D01*
X215238985Y-78139481D01*
X215145853Y-78000100D01*
X215081703Y-77845228D01*
X215049000Y-77680816D01*
X215049000Y-77513184D01*
X215081703Y-77348772D01*
X215145853Y-77193900D01*
X215238985Y-77054519D01*
X215357519Y-76935985D01*
X215496900Y-76842853D01*
X215651772Y-76778703D01*
X215816184Y-76746000D01*
X215983816Y-76746000D01*
X216148228Y-76778703D01*
G37*
G36*
X216148228Y-74238703D02*
G01*
X216303100Y-74302853D01*
X216442481Y-74395985D01*
X216561015Y-74514519D01*
X216654147Y-74653900D01*
X216718297Y-74808772D01*
X216751000Y-74973184D01*
X216751000Y-75140816D01*
X216718297Y-75305228D01*
X216654147Y-75460100D01*
X216561015Y-75599481D01*
X216442481Y-75718015D01*
X216303100Y-75811147D01*
X216148228Y-75875297D01*
X215983816Y-75908000D01*
X215816184Y-75908000D01*
X215651772Y-75875297D01*
X215496900Y-75811147D01*
X215357519Y-75718015D01*
X215238985Y-75599481D01*
X215145853Y-75460100D01*
X215081703Y-75305228D01*
X215049000Y-75140816D01*
X215049000Y-74973184D01*
X215081703Y-74808772D01*
X215145853Y-74653900D01*
X215238985Y-74514519D01*
X215357519Y-74395985D01*
X215496900Y-74302853D01*
X215651772Y-74238703D01*
X215816184Y-74206000D01*
X215983816Y-74206000D01*
X216148228Y-74238703D01*
G37*
G36*
X208528228Y-74238703D02*
G01*
X208683100Y-74302853D01*
X208822481Y-74395985D01*
X208941015Y-74514519D01*
X209034147Y-74653900D01*
X209098297Y-74808772D01*
X209131000Y-74973184D01*
X209131000Y-75140816D01*
X209098297Y-75305228D01*
X209034147Y-75460100D01*
X208941015Y-75599481D01*
X208822481Y-75718015D01*
X208683100Y-75811147D01*
X208528228Y-75875297D01*
X208363816Y-75908000D01*
X208196184Y-75908000D01*
X208031772Y-75875297D01*
X207876900Y-75811147D01*
X207737519Y-75718015D01*
X207618985Y-75599481D01*
X207525853Y-75460100D01*
X207461703Y-75305228D01*
X207429000Y-75140816D01*
X207429000Y-74973184D01*
X207461703Y-74808772D01*
X207525853Y-74653900D01*
X207618985Y-74514519D01*
X207737519Y-74395985D01*
X207876900Y-74302853D01*
X208031772Y-74238703D01*
X208196184Y-74206000D01*
X208363816Y-74206000D01*
X208528228Y-74238703D01*
G37*
G36*
X213608228Y-74238703D02*
G01*
X213763100Y-74302853D01*
X213902481Y-74395985D01*
X214021015Y-74514519D01*
X214114147Y-74653900D01*
X214178297Y-74808772D01*
X214211000Y-74973184D01*
X214211000Y-75140816D01*
X214178297Y-75305228D01*
X214114147Y-75460100D01*
X214021015Y-75599481D01*
X213902481Y-75718015D01*
X213763100Y-75811147D01*
X213608228Y-75875297D01*
X213443816Y-75908000D01*
X213276184Y-75908000D01*
X213111772Y-75875297D01*
X212956900Y-75811147D01*
X212817519Y-75718015D01*
X212698985Y-75599481D01*
X212605853Y-75460100D01*
X212541703Y-75305228D01*
X212509000Y-75140816D01*
X212509000Y-74973184D01*
X212541703Y-74808772D01*
X212605853Y-74653900D01*
X212698985Y-74514519D01*
X212817519Y-74395985D01*
X212956900Y-74302853D01*
X213111772Y-74238703D01*
X213276184Y-74206000D01*
X213443816Y-74206000D01*
X213608228Y-74238703D01*
G37*
G36*
X213608228Y-71698703D02*
G01*
X213763100Y-71762853D01*
X213902481Y-71855985D01*
X214021015Y-71974519D01*
X214114147Y-72113900D01*
X214178297Y-72268772D01*
X214211000Y-72433184D01*
X214211000Y-72600816D01*
X214178297Y-72765228D01*
X214114147Y-72920100D01*
X214021015Y-73059481D01*
X213902481Y-73178015D01*
X213763100Y-73271147D01*
X213608228Y-73335297D01*
X213443816Y-73368000D01*
X213276184Y-73368000D01*
X213111772Y-73335297D01*
X212956900Y-73271147D01*
X212817519Y-73178015D01*
X212698985Y-73059481D01*
X212605853Y-72920100D01*
X212541703Y-72765228D01*
X212509000Y-72600816D01*
X212509000Y-72433184D01*
X212541703Y-72268772D01*
X212605853Y-72113900D01*
X212698985Y-71974519D01*
X212817519Y-71855985D01*
X212956900Y-71762853D01*
X213111772Y-71698703D01*
X213276184Y-71666000D01*
X213443816Y-71666000D01*
X213608228Y-71698703D01*
G37*
G36*
X208528228Y-71698703D02*
G01*
X208683100Y-71762853D01*
X208822481Y-71855985D01*
X208941015Y-71974519D01*
X209034147Y-72113900D01*
X209098297Y-72268772D01*
X209131000Y-72433184D01*
X209131000Y-72600816D01*
X209098297Y-72765228D01*
X209034147Y-72920100D01*
X208941015Y-73059481D01*
X208822481Y-73178015D01*
X208683100Y-73271147D01*
X208528228Y-73335297D01*
X208363816Y-73368000D01*
X208196184Y-73368000D01*
X208031772Y-73335297D01*
X207876900Y-73271147D01*
X207737519Y-73178015D01*
X207618985Y-73059481D01*
X207525853Y-72920100D01*
X207461703Y-72765228D01*
X207429000Y-72600816D01*
X207429000Y-72433184D01*
X207461703Y-72268772D01*
X207525853Y-72113900D01*
X207618985Y-71974519D01*
X207737519Y-71855985D01*
X207876900Y-71762853D01*
X208031772Y-71698703D01*
X208196184Y-71666000D01*
X208363816Y-71666000D01*
X208528228Y-71698703D01*
G37*
G36*
X216148228Y-71698703D02*
G01*
X216303100Y-71762853D01*
X216442481Y-71855985D01*
X216561015Y-71974519D01*
X216654147Y-72113900D01*
X216718297Y-72268772D01*
X216751000Y-72433184D01*
X216751000Y-72600816D01*
X216718297Y-72765228D01*
X216654147Y-72920100D01*
X216561015Y-73059481D01*
X216442481Y-73178015D01*
X216303100Y-73271147D01*
X216148228Y-73335297D01*
X215983816Y-73368000D01*
X215816184Y-73368000D01*
X215651772Y-73335297D01*
X215496900Y-73271147D01*
X215357519Y-73178015D01*
X215238985Y-73059481D01*
X215145853Y-72920100D01*
X215081703Y-72765228D01*
X215049000Y-72600816D01*
X215049000Y-72433184D01*
X215081703Y-72268772D01*
X215145853Y-72113900D01*
X215238985Y-71974519D01*
X215357519Y-71855985D01*
X215496900Y-71762853D01*
X215651772Y-71698703D01*
X215816184Y-71666000D01*
X215983816Y-71666000D01*
X216148228Y-71698703D01*
G37*
G36*
X231388228Y-69158703D02*
G01*
X231543100Y-69222853D01*
X231682481Y-69315985D01*
X231801015Y-69434519D01*
X231894147Y-69573900D01*
X231958297Y-69728772D01*
X231991000Y-69893184D01*
X231991000Y-70060816D01*
X231958297Y-70225228D01*
X231894147Y-70380100D01*
X231801015Y-70519481D01*
X231682481Y-70638015D01*
X231543100Y-70731147D01*
X231388228Y-70795297D01*
X231223816Y-70828000D01*
X231056184Y-70828000D01*
X230891772Y-70795297D01*
X230736900Y-70731147D01*
X230597519Y-70638015D01*
X230478985Y-70519481D01*
X230385853Y-70380100D01*
X230321703Y-70225228D01*
X230289000Y-70060816D01*
X230289000Y-69893184D01*
X230321703Y-69728772D01*
X230385853Y-69573900D01*
X230478985Y-69434519D01*
X230597519Y-69315985D01*
X230736900Y-69222853D01*
X230891772Y-69158703D01*
X231056184Y-69126000D01*
X231223816Y-69126000D01*
X231388228Y-69158703D01*
G37*
G36*
X208528228Y-69158703D02*
G01*
X208683100Y-69222853D01*
X208822481Y-69315985D01*
X208941015Y-69434519D01*
X209034147Y-69573900D01*
X209098297Y-69728772D01*
X209131000Y-69893184D01*
X209131000Y-70060816D01*
X209098297Y-70225228D01*
X209034147Y-70380100D01*
X208941015Y-70519481D01*
X208822481Y-70638015D01*
X208683100Y-70731147D01*
X208528228Y-70795297D01*
X208363816Y-70828000D01*
X208196184Y-70828000D01*
X208031772Y-70795297D01*
X207876900Y-70731147D01*
X207737519Y-70638015D01*
X207618985Y-70519481D01*
X207525853Y-70380100D01*
X207461703Y-70225228D01*
X207429000Y-70060816D01*
X207429000Y-69893184D01*
X207461703Y-69728772D01*
X207525853Y-69573900D01*
X207618985Y-69434519D01*
X207737519Y-69315985D01*
X207876900Y-69222853D01*
X208031772Y-69158703D01*
X208196184Y-69126000D01*
X208363816Y-69126000D01*
X208528228Y-69158703D01*
G37*
G36*
X211068228Y-69158703D02*
G01*
X211223100Y-69222853D01*
X211362481Y-69315985D01*
X211481015Y-69434519D01*
X211574147Y-69573900D01*
X211638297Y-69728772D01*
X211671000Y-69893184D01*
X211671000Y-70060816D01*
X211638297Y-70225228D01*
X211574147Y-70380100D01*
X211481015Y-70519481D01*
X211362481Y-70638015D01*
X211223100Y-70731147D01*
X211068228Y-70795297D01*
X210903816Y-70828000D01*
X210736184Y-70828000D01*
X210571772Y-70795297D01*
X210416900Y-70731147D01*
X210277519Y-70638015D01*
X210158985Y-70519481D01*
X210065853Y-70380100D01*
X210001703Y-70225228D01*
X209969000Y-70060816D01*
X209969000Y-69893184D01*
X210001703Y-69728772D01*
X210065853Y-69573900D01*
X210158985Y-69434519D01*
X210277519Y-69315985D01*
X210416900Y-69222853D01*
X210571772Y-69158703D01*
X210736184Y-69126000D01*
X210903816Y-69126000D01*
X211068228Y-69158703D01*
G37*
G36*
X213608228Y-69158703D02*
G01*
X213763100Y-69222853D01*
X213902481Y-69315985D01*
X214021015Y-69434519D01*
X214114147Y-69573900D01*
X214178297Y-69728772D01*
X214211000Y-69893184D01*
X214211000Y-70060816D01*
X214178297Y-70225228D01*
X214114147Y-70380100D01*
X214021015Y-70519481D01*
X213902481Y-70638015D01*
X213763100Y-70731147D01*
X213608228Y-70795297D01*
X213443816Y-70828000D01*
X213276184Y-70828000D01*
X213111772Y-70795297D01*
X212956900Y-70731147D01*
X212817519Y-70638015D01*
X212698985Y-70519481D01*
X212605853Y-70380100D01*
X212541703Y-70225228D01*
X212509000Y-70060816D01*
X212509000Y-69893184D01*
X212541703Y-69728772D01*
X212605853Y-69573900D01*
X212698985Y-69434519D01*
X212817519Y-69315985D01*
X212956900Y-69222853D01*
X213111772Y-69158703D01*
X213276184Y-69126000D01*
X213443816Y-69126000D01*
X213608228Y-69158703D01*
G37*
G36*
X216148228Y-69158703D02*
G01*
X216303100Y-69222853D01*
X216442481Y-69315985D01*
X216561015Y-69434519D01*
X216654147Y-69573900D01*
X216718297Y-69728772D01*
X216751000Y-69893184D01*
X216751000Y-70060816D01*
X216718297Y-70225228D01*
X216654147Y-70380100D01*
X216561015Y-70519481D01*
X216442481Y-70638015D01*
X216303100Y-70731147D01*
X216148228Y-70795297D01*
X215983816Y-70828000D01*
X215816184Y-70828000D01*
X215651772Y-70795297D01*
X215496900Y-70731147D01*
X215357519Y-70638015D01*
X215238985Y-70519481D01*
X215145853Y-70380100D01*
X215081703Y-70225228D01*
X215049000Y-70060816D01*
X215049000Y-69893184D01*
X215081703Y-69728772D01*
X215145853Y-69573900D01*
X215238985Y-69434519D01*
X215357519Y-69315985D01*
X215496900Y-69222853D01*
X215651772Y-69158703D01*
X215816184Y-69126000D01*
X215983816Y-69126000D01*
X216148228Y-69158703D01*
G37*
G36*
X218688228Y-69158703D02*
G01*
X218843100Y-69222853D01*
X218982481Y-69315985D01*
X219101015Y-69434519D01*
X219194147Y-69573900D01*
X219258297Y-69728772D01*
X219291000Y-69893184D01*
X219291000Y-70060816D01*
X219258297Y-70225228D01*
X219194147Y-70380100D01*
X219101015Y-70519481D01*
X218982481Y-70638015D01*
X218843100Y-70731147D01*
X218688228Y-70795297D01*
X218523816Y-70828000D01*
X218356184Y-70828000D01*
X218191772Y-70795297D01*
X218036900Y-70731147D01*
X217897519Y-70638015D01*
X217778985Y-70519481D01*
X217685853Y-70380100D01*
X217621703Y-70225228D01*
X217589000Y-70060816D01*
X217589000Y-69893184D01*
X217621703Y-69728772D01*
X217685853Y-69573900D01*
X217778985Y-69434519D01*
X217897519Y-69315985D01*
X218036900Y-69222853D01*
X218191772Y-69158703D01*
X218356184Y-69126000D01*
X218523816Y-69126000D01*
X218688228Y-69158703D01*
G37*
G36*
X221228228Y-69158703D02*
G01*
X221383100Y-69222853D01*
X221522481Y-69315985D01*
X221641015Y-69434519D01*
X221734147Y-69573900D01*
X221798297Y-69728772D01*
X221831000Y-69893184D01*
X221831000Y-70060816D01*
X221798297Y-70225228D01*
X221734147Y-70380100D01*
X221641015Y-70519481D01*
X221522481Y-70638015D01*
X221383100Y-70731147D01*
X221228228Y-70795297D01*
X221063816Y-70828000D01*
X220896184Y-70828000D01*
X220731772Y-70795297D01*
X220576900Y-70731147D01*
X220437519Y-70638015D01*
X220318985Y-70519481D01*
X220225853Y-70380100D01*
X220161703Y-70225228D01*
X220129000Y-70060816D01*
X220129000Y-69893184D01*
X220161703Y-69728772D01*
X220225853Y-69573900D01*
X220318985Y-69434519D01*
X220437519Y-69315985D01*
X220576900Y-69222853D01*
X220731772Y-69158703D01*
X220896184Y-69126000D01*
X221063816Y-69126000D01*
X221228228Y-69158703D01*
G37*
G36*
X223768228Y-69158703D02*
G01*
X223923100Y-69222853D01*
X224062481Y-69315985D01*
X224181015Y-69434519D01*
X224274147Y-69573900D01*
X224338297Y-69728772D01*
X224371000Y-69893184D01*
X224371000Y-70060816D01*
X224338297Y-70225228D01*
X224274147Y-70380100D01*
X224181015Y-70519481D01*
X224062481Y-70638015D01*
X223923100Y-70731147D01*
X223768228Y-70795297D01*
X223603816Y-70828000D01*
X223436184Y-70828000D01*
X223271772Y-70795297D01*
X223116900Y-70731147D01*
X222977519Y-70638015D01*
X222858985Y-70519481D01*
X222765853Y-70380100D01*
X222701703Y-70225228D01*
X222669000Y-70060816D01*
X222669000Y-69893184D01*
X222701703Y-69728772D01*
X222765853Y-69573900D01*
X222858985Y-69434519D01*
X222977519Y-69315985D01*
X223116900Y-69222853D01*
X223271772Y-69158703D01*
X223436184Y-69126000D01*
X223603816Y-69126000D01*
X223768228Y-69158703D01*
G37*
G36*
X228848228Y-69158703D02*
G01*
X229003100Y-69222853D01*
X229142481Y-69315985D01*
X229261015Y-69434519D01*
X229354147Y-69573900D01*
X229418297Y-69728772D01*
X229451000Y-69893184D01*
X229451000Y-70060816D01*
X229418297Y-70225228D01*
X229354147Y-70380100D01*
X229261015Y-70519481D01*
X229142481Y-70638015D01*
X229003100Y-70731147D01*
X228848228Y-70795297D01*
X228683816Y-70828000D01*
X228516184Y-70828000D01*
X228351772Y-70795297D01*
X228196900Y-70731147D01*
X228057519Y-70638015D01*
X227938985Y-70519481D01*
X227845853Y-70380100D01*
X227781703Y-70225228D01*
X227749000Y-70060816D01*
X227749000Y-69893184D01*
X227781703Y-69728772D01*
X227845853Y-69573900D01*
X227938985Y-69434519D01*
X228057519Y-69315985D01*
X228196900Y-69222853D01*
X228351772Y-69158703D01*
X228516184Y-69126000D01*
X228683816Y-69126000D01*
X228848228Y-69158703D01*
G37*
G36*
X233928228Y-69158703D02*
G01*
X234083100Y-69222853D01*
X234222481Y-69315985D01*
X234341015Y-69434519D01*
X234434147Y-69573900D01*
X234498297Y-69728772D01*
X234531000Y-69893184D01*
X234531000Y-70060816D01*
X234498297Y-70225228D01*
X234434147Y-70380100D01*
X234341015Y-70519481D01*
X234222481Y-70638015D01*
X234083100Y-70731147D01*
X233928228Y-70795297D01*
X233763816Y-70828000D01*
X233596184Y-70828000D01*
X233431772Y-70795297D01*
X233276900Y-70731147D01*
X233137519Y-70638015D01*
X233018985Y-70519481D01*
X232925853Y-70380100D01*
X232861703Y-70225228D01*
X232829000Y-70060816D01*
X232829000Y-69893184D01*
X232861703Y-69728772D01*
X232925853Y-69573900D01*
X233018985Y-69434519D01*
X233137519Y-69315985D01*
X233276900Y-69222853D01*
X233431772Y-69158703D01*
X233596184Y-69126000D01*
X233763816Y-69126000D01*
X233928228Y-69158703D01*
G37*
G36*
X239008228Y-69158703D02*
G01*
X239163100Y-69222853D01*
X239302481Y-69315985D01*
X239421015Y-69434519D01*
X239514147Y-69573900D01*
X239578297Y-69728772D01*
X239611000Y-69893184D01*
X239611000Y-70060816D01*
X239578297Y-70225228D01*
X239514147Y-70380100D01*
X239421015Y-70519481D01*
X239302481Y-70638015D01*
X239163100Y-70731147D01*
X239008228Y-70795297D01*
X238843816Y-70828000D01*
X238676184Y-70828000D01*
X238511772Y-70795297D01*
X238356900Y-70731147D01*
X238217519Y-70638015D01*
X238098985Y-70519481D01*
X238005853Y-70380100D01*
X237941703Y-70225228D01*
X237909000Y-70060816D01*
X237909000Y-69893184D01*
X237941703Y-69728772D01*
X238005853Y-69573900D01*
X238098985Y-69434519D01*
X238217519Y-69315985D01*
X238356900Y-69222853D01*
X238511772Y-69158703D01*
X238676184Y-69126000D01*
X238843816Y-69126000D01*
X239008228Y-69158703D01*
G37*
G36*
X241548228Y-69158703D02*
G01*
X241703100Y-69222853D01*
X241842481Y-69315985D01*
X241961015Y-69434519D01*
X242054147Y-69573900D01*
X242118297Y-69728772D01*
X242151000Y-69893184D01*
X242151000Y-70060816D01*
X242118297Y-70225228D01*
X242054147Y-70380100D01*
X241961015Y-70519481D01*
X241842481Y-70638015D01*
X241703100Y-70731147D01*
X241548228Y-70795297D01*
X241383816Y-70828000D01*
X241216184Y-70828000D01*
X241051772Y-70795297D01*
X240896900Y-70731147D01*
X240757519Y-70638015D01*
X240638985Y-70519481D01*
X240545853Y-70380100D01*
X240481703Y-70225228D01*
X240449000Y-70060816D01*
X240449000Y-69893184D01*
X240481703Y-69728772D01*
X240545853Y-69573900D01*
X240638985Y-69434519D01*
X240757519Y-69315985D01*
X240896900Y-69222853D01*
X241051772Y-69158703D01*
X241216184Y-69126000D01*
X241383816Y-69126000D01*
X241548228Y-69158703D01*
G37*
G36*
X236468228Y-69158703D02*
G01*
X236623100Y-69222853D01*
X236762481Y-69315985D01*
X236881015Y-69434519D01*
X236974147Y-69573900D01*
X237038297Y-69728772D01*
X237071000Y-69893184D01*
X237071000Y-70060816D01*
X237038297Y-70225228D01*
X236974147Y-70380100D01*
X236881015Y-70519481D01*
X236762481Y-70638015D01*
X236623100Y-70731147D01*
X236468228Y-70795297D01*
X236303816Y-70828000D01*
X236136184Y-70828000D01*
X235971772Y-70795297D01*
X235816900Y-70731147D01*
X235677519Y-70638015D01*
X235558985Y-70519481D01*
X235465853Y-70380100D01*
X235401703Y-70225228D01*
X235369000Y-70060816D01*
X235369000Y-69893184D01*
X235401703Y-69728772D01*
X235465853Y-69573900D01*
X235558985Y-69434519D01*
X235677519Y-69315985D01*
X235816900Y-69222853D01*
X235971772Y-69158703D01*
X236136184Y-69126000D01*
X236303816Y-69126000D01*
X236468228Y-69158703D01*
G37*
G36*
X226308228Y-69158703D02*
G01*
X226463100Y-69222853D01*
X226602481Y-69315985D01*
X226721015Y-69434519D01*
X226814147Y-69573900D01*
X226878297Y-69728772D01*
X226911000Y-69893184D01*
X226911000Y-70060816D01*
X226878297Y-70225228D01*
X226814147Y-70380100D01*
X226721015Y-70519481D01*
X226602481Y-70638015D01*
X226463100Y-70731147D01*
X226308228Y-70795297D01*
X226143816Y-70828000D01*
X225976184Y-70828000D01*
X225811772Y-70795297D01*
X225656900Y-70731147D01*
X225517519Y-70638015D01*
X225398985Y-70519481D01*
X225305853Y-70380100D01*
X225241703Y-70225228D01*
X225209000Y-70060816D01*
X225209000Y-69893184D01*
X225241703Y-69728772D01*
X225305853Y-69573900D01*
X225398985Y-69434519D01*
X225517519Y-69315985D01*
X225656900Y-69222853D01*
X225811772Y-69158703D01*
X225976184Y-69126000D01*
X226143816Y-69126000D01*
X226308228Y-69158703D01*
G37*
G36*
X194563030Y-61456000D02*
G01*
X194887606Y-61520562D01*
X195406455Y-61735476D01*
X195873407Y-62047484D01*
X196270516Y-62444593D01*
X196582524Y-62911545D01*
X196797438Y-63430394D01*
X196907000Y-63981201D01*
X196907000Y-64542799D01*
X196797438Y-65093606D01*
X196582524Y-65612455D01*
X196270516Y-66079407D01*
X195873407Y-66476516D01*
X195406455Y-66788524D01*
X194887606Y-67003438D01*
X194336800Y-67113000D01*
X193775200Y-67113000D01*
X193224394Y-67003438D01*
X192705545Y-66788524D01*
X192238593Y-66476516D01*
X191841484Y-66079407D01*
X191529476Y-65612455D01*
X191314562Y-65093606D01*
X191205000Y-64542799D01*
X191205000Y-63981201D01*
X191314562Y-63430394D01*
X191529476Y-62911545D01*
X191841484Y-62444593D01*
X192238593Y-62047484D01*
X192705545Y-61735476D01*
X193224394Y-61520562D01*
X193548970Y-61456000D01*
X193775200Y-61411000D01*
X194336800Y-61411000D01*
X194563030Y-61456000D01*
G37*
G36*
X240143512Y-61460927D02*
G01*
X240292812Y-61490624D01*
X240456784Y-61558544D01*
X240604354Y-61657147D01*
X240729853Y-61782646D01*
X240828456Y-61930216D01*
X240896376Y-62094188D01*
X240931000Y-62268259D01*
X240931000Y-62445741D01*
X240896376Y-62619812D01*
X240828456Y-62783784D01*
X240729853Y-62931354D01*
X240604354Y-63056853D01*
X240456784Y-63155456D01*
X240292812Y-63223376D01*
X240143512Y-63253073D01*
X240118742Y-63258000D01*
X239941258Y-63258000D01*
X239916488Y-63253073D01*
X239767188Y-63223376D01*
X239603216Y-63155456D01*
X239455646Y-63056853D01*
X239330147Y-62931354D01*
X239231544Y-62783784D01*
X239163624Y-62619812D01*
X239129000Y-62445741D01*
X239129000Y-62268259D01*
X239163624Y-62094188D01*
X239231544Y-61930216D01*
X239330147Y-61782646D01*
X239455646Y-61657147D01*
X239603216Y-61558544D01*
X239767188Y-61490624D01*
X239916488Y-61460927D01*
X239941258Y-61456000D01*
X240118742Y-61456000D01*
X240143512Y-61460927D01*
G37*
G36*
X242683512Y-61460927D02*
G01*
X242832812Y-61490624D01*
X242996784Y-61558544D01*
X243144354Y-61657147D01*
X243269853Y-61782646D01*
X243368456Y-61930216D01*
X243436376Y-62094188D01*
X243471000Y-62268259D01*
X243471000Y-62445741D01*
X243436376Y-62619812D01*
X243368456Y-62783784D01*
X243269853Y-62931354D01*
X243144354Y-63056853D01*
X242996784Y-63155456D01*
X242832812Y-63223376D01*
X242683512Y-63253073D01*
X242658742Y-63258000D01*
X242481258Y-63258000D01*
X242456488Y-63253073D01*
X242307188Y-63223376D01*
X242143216Y-63155456D01*
X241995646Y-63056853D01*
X241870147Y-62931354D01*
X241771544Y-62783784D01*
X241703624Y-62619812D01*
X241669000Y-62445741D01*
X241669000Y-62268259D01*
X241703624Y-62094188D01*
X241771544Y-61930216D01*
X241870147Y-61782646D01*
X241995646Y-61657147D01*
X242143216Y-61558544D01*
X242307188Y-61490624D01*
X242456488Y-61460927D01*
X242481258Y-61456000D01*
X242658742Y-61456000D01*
X242683512Y-61460927D01*
G37*
G36*
X237603512Y-61460927D02*
G01*
X237752812Y-61490624D01*
X237916784Y-61558544D01*
X238064354Y-61657147D01*
X238189853Y-61782646D01*
X238288456Y-61930216D01*
X238356376Y-62094188D01*
X238391000Y-62268259D01*
X238391000Y-62445741D01*
X238356376Y-62619812D01*
X238288456Y-62783784D01*
X238189853Y-62931354D01*
X238064354Y-63056853D01*
X237916784Y-63155456D01*
X237752812Y-63223376D01*
X237603512Y-63253073D01*
X237578742Y-63258000D01*
X237401258Y-63258000D01*
X237376488Y-63253073D01*
X237227188Y-63223376D01*
X237063216Y-63155456D01*
X236915646Y-63056853D01*
X236790147Y-62931354D01*
X236691544Y-62783784D01*
X236623624Y-62619812D01*
X236589000Y-62445741D01*
X236589000Y-62268259D01*
X236623624Y-62094188D01*
X236691544Y-61930216D01*
X236790147Y-61782646D01*
X236915646Y-61657147D01*
X237063216Y-61558544D01*
X237227188Y-61490624D01*
X237376488Y-61460927D01*
X237401258Y-61456000D01*
X237578742Y-61456000D01*
X237603512Y-61460927D01*
G37*
G36*
X235851000Y-63258000D02*
G01*
X234049000Y-63258000D01*
X234049000Y-61456000D01*
X235851000Y-61456000D01*
X235851000Y-63258000D01*
G37*
G36*
X237603512Y-58920927D02*
G01*
X237752812Y-58950624D01*
X237916784Y-59018544D01*
X238064354Y-59117147D01*
X238189853Y-59242646D01*
X238288456Y-59390216D01*
X238356376Y-59554188D01*
X238391000Y-59728259D01*
X238391000Y-59905741D01*
X238356376Y-60079812D01*
X238288456Y-60243784D01*
X238189853Y-60391354D01*
X238064354Y-60516853D01*
X237916784Y-60615456D01*
X237752812Y-60683376D01*
X237603512Y-60713073D01*
X237578742Y-60718000D01*
X237401258Y-60718000D01*
X237376488Y-60713073D01*
X237227188Y-60683376D01*
X237063216Y-60615456D01*
X236915646Y-60516853D01*
X236790147Y-60391354D01*
X236691544Y-60243784D01*
X236623624Y-60079812D01*
X236589000Y-59905741D01*
X236589000Y-59728259D01*
X236623624Y-59554188D01*
X236691544Y-59390216D01*
X236790147Y-59242646D01*
X236915646Y-59117147D01*
X237063216Y-59018544D01*
X237227188Y-58950624D01*
X237376488Y-58920927D01*
X237401258Y-58916000D01*
X237578742Y-58916000D01*
X237603512Y-58920927D01*
G37*
G36*
X242683512Y-58920927D02*
G01*
X242832812Y-58950624D01*
X242996784Y-59018544D01*
X243144354Y-59117147D01*
X243269853Y-59242646D01*
X243368456Y-59390216D01*
X243436376Y-59554188D01*
X243471000Y-59728259D01*
X243471000Y-59905741D01*
X243436376Y-60079812D01*
X243368456Y-60243784D01*
X243269853Y-60391354D01*
X243144354Y-60516853D01*
X242996784Y-60615456D01*
X242832812Y-60683376D01*
X242683512Y-60713073D01*
X242658742Y-60718000D01*
X242481258Y-60718000D01*
X242456488Y-60713073D01*
X242307188Y-60683376D01*
X242143216Y-60615456D01*
X241995646Y-60516853D01*
X241870147Y-60391354D01*
X241771544Y-60243784D01*
X241703624Y-60079812D01*
X241669000Y-59905741D01*
X241669000Y-59728259D01*
X241703624Y-59554188D01*
X241771544Y-59390216D01*
X241870147Y-59242646D01*
X241995646Y-59117147D01*
X242143216Y-59018544D01*
X242307188Y-58950624D01*
X242456488Y-58920927D01*
X242481258Y-58916000D01*
X242658742Y-58916000D01*
X242683512Y-58920927D01*
G37*
G36*
X235063512Y-58920927D02*
G01*
X235212812Y-58950624D01*
X235376784Y-59018544D01*
X235524354Y-59117147D01*
X235649853Y-59242646D01*
X235748456Y-59390216D01*
X235816376Y-59554188D01*
X235851000Y-59728259D01*
X235851000Y-59905741D01*
X235816376Y-60079812D01*
X235748456Y-60243784D01*
X235649853Y-60391354D01*
X235524354Y-60516853D01*
X235376784Y-60615456D01*
X235212812Y-60683376D01*
X235063512Y-60713073D01*
X235038742Y-60718000D01*
X234861258Y-60718000D01*
X234836488Y-60713073D01*
X234687188Y-60683376D01*
X234523216Y-60615456D01*
X234375646Y-60516853D01*
X234250147Y-60391354D01*
X234151544Y-60243784D01*
X234083624Y-60079812D01*
X234049000Y-59905741D01*
X234049000Y-59728259D01*
X234083624Y-59554188D01*
X234151544Y-59390216D01*
X234250147Y-59242646D01*
X234375646Y-59117147D01*
X234523216Y-59018544D01*
X234687188Y-58950624D01*
X234836488Y-58920927D01*
X234861258Y-58916000D01*
X235038742Y-58916000D01*
X235063512Y-58920927D01*
G37*
G36*
X240143512Y-58920927D02*
G01*
X240292812Y-58950624D01*
X240456784Y-59018544D01*
X240604354Y-59117147D01*
X240729853Y-59242646D01*
X240828456Y-59390216D01*
X240896376Y-59554188D01*
X240931000Y-59728259D01*
X240931000Y-59905741D01*
X240896376Y-60079812D01*
X240828456Y-60243784D01*
X240729853Y-60391354D01*
X240604354Y-60516853D01*
X240456784Y-60615456D01*
X240292812Y-60683376D01*
X240143512Y-60713073D01*
X240118742Y-60718000D01*
X239941258Y-60718000D01*
X239916488Y-60713073D01*
X239767188Y-60683376D01*
X239603216Y-60615456D01*
X239455646Y-60516853D01*
X239330147Y-60391354D01*
X239231544Y-60243784D01*
X239163624Y-60079812D01*
X239129000Y-59905741D01*
X239129000Y-59728259D01*
X239163624Y-59554188D01*
X239231544Y-59390216D01*
X239330147Y-59242646D01*
X239455646Y-59117147D01*
X239603216Y-59018544D01*
X239767188Y-58950624D01*
X239916488Y-58920927D01*
X239941258Y-58916000D01*
X240118742Y-58916000D01*
X240143512Y-58920927D01*
G37*
G36*
X225056778Y-53222547D02*
G01*
X225223224Y-53291491D01*
X225373022Y-53391583D01*
X225500417Y-53518978D01*
X225600509Y-53668776D01*
X225669453Y-53835222D01*
X225704600Y-54011918D01*
X225704600Y-54192082D01*
X225669453Y-54368778D01*
X225600509Y-54535224D01*
X225500417Y-54685022D01*
X225373022Y-54812417D01*
X225223224Y-54912509D01*
X225056778Y-54981453D01*
X224880082Y-55016600D01*
X224699918Y-55016600D01*
X224523222Y-54981453D01*
X224356776Y-54912509D01*
X224206978Y-54812417D01*
X224079583Y-54685022D01*
X223979491Y-54535224D01*
X223910547Y-54368778D01*
X223875400Y-54192082D01*
X223875400Y-54011918D01*
X223910547Y-53835222D01*
X223979491Y-53668776D01*
X224079583Y-53518978D01*
X224206978Y-53391583D01*
X224356776Y-53291491D01*
X224523222Y-53222547D01*
X224699918Y-53187400D01*
X224880082Y-53187400D01*
X225056778Y-53222547D01*
G37*
G36*
X222516778Y-53222547D02*
G01*
X222683224Y-53291491D01*
X222833022Y-53391583D01*
X222960417Y-53518978D01*
X223060509Y-53668776D01*
X223129453Y-53835222D01*
X223164600Y-54011918D01*
X223164600Y-54192082D01*
X223129453Y-54368778D01*
X223060509Y-54535224D01*
X222960417Y-54685022D01*
X222833022Y-54812417D01*
X222683224Y-54912509D01*
X222516778Y-54981453D01*
X222340082Y-55016600D01*
X222159918Y-55016600D01*
X221983222Y-54981453D01*
X221816776Y-54912509D01*
X221666978Y-54812417D01*
X221539583Y-54685022D01*
X221439491Y-54535224D01*
X221370547Y-54368778D01*
X221335400Y-54192082D01*
X221335400Y-54011918D01*
X221370547Y-53835222D01*
X221439491Y-53668776D01*
X221539583Y-53518978D01*
X221666978Y-53391583D01*
X221816776Y-53291491D01*
X221983222Y-53222547D01*
X222159918Y-53187400D01*
X222340082Y-53187400D01*
X222516778Y-53222547D01*
G37*
G36*
X219976778Y-53222547D02*
G01*
X220143224Y-53291491D01*
X220293022Y-53391583D01*
X220420417Y-53518978D01*
X220520509Y-53668776D01*
X220589453Y-53835222D01*
X220624600Y-54011918D01*
X220624600Y-54192082D01*
X220589453Y-54368778D01*
X220520509Y-54535224D01*
X220420417Y-54685022D01*
X220293022Y-54812417D01*
X220143224Y-54912509D01*
X219976778Y-54981453D01*
X219800082Y-55016600D01*
X219619918Y-55016600D01*
X219443222Y-54981453D01*
X219276776Y-54912509D01*
X219126978Y-54812417D01*
X218999583Y-54685022D01*
X218899491Y-54535224D01*
X218830547Y-54368778D01*
X218795400Y-54192082D01*
X218795400Y-54011918D01*
X218830547Y-53835222D01*
X218899491Y-53668776D01*
X218999583Y-53518978D01*
X219126978Y-53391583D01*
X219276776Y-53291491D01*
X219443222Y-53222547D01*
X219619918Y-53187400D01*
X219800082Y-53187400D01*
X219976778Y-53222547D01*
G37*
G36*
X217436778Y-53222547D02*
G01*
X217603224Y-53291491D01*
X217753022Y-53391583D01*
X217880417Y-53518978D01*
X217980509Y-53668776D01*
X218049453Y-53835222D01*
X218084600Y-54011918D01*
X218084600Y-54192082D01*
X218049453Y-54368778D01*
X217980509Y-54535224D01*
X217880417Y-54685022D01*
X217753022Y-54812417D01*
X217603224Y-54912509D01*
X217436778Y-54981453D01*
X217260082Y-55016600D01*
X217079918Y-55016600D01*
X216903222Y-54981453D01*
X216736776Y-54912509D01*
X216586978Y-54812417D01*
X216459583Y-54685022D01*
X216359491Y-54535224D01*
X216290547Y-54368778D01*
X216255400Y-54192082D01*
X216255400Y-54011918D01*
X216290547Y-53835222D01*
X216359491Y-53668776D01*
X216459583Y-53518978D01*
X216586978Y-53391583D01*
X216736776Y-53291491D01*
X216903222Y-53222547D01*
X217079918Y-53187400D01*
X217260082Y-53187400D01*
X217436778Y-53222547D01*
G37*
G36*
X214896778Y-53222547D02*
G01*
X215063224Y-53291491D01*
X215213022Y-53391583D01*
X215340417Y-53518978D01*
X215440509Y-53668776D01*
X215509453Y-53835222D01*
X215544600Y-54011918D01*
X215544600Y-54192082D01*
X215509453Y-54368778D01*
X215440509Y-54535224D01*
X215340417Y-54685022D01*
X215213022Y-54812417D01*
X215063224Y-54912509D01*
X214896778Y-54981453D01*
X214720082Y-55016600D01*
X214539918Y-55016600D01*
X214363222Y-54981453D01*
X214196776Y-54912509D01*
X214046978Y-54812417D01*
X213919583Y-54685022D01*
X213819491Y-54535224D01*
X213750547Y-54368778D01*
X213715400Y-54192082D01*
X213715400Y-54011918D01*
X213750547Y-53835222D01*
X213819491Y-53668776D01*
X213919583Y-53518978D01*
X214046978Y-53391583D01*
X214196776Y-53291491D01*
X214363222Y-53222547D01*
X214539918Y-53187400D01*
X214720082Y-53187400D01*
X214896778Y-53222547D01*
G37*
G36*
X212356778Y-53222547D02*
G01*
X212523224Y-53291491D01*
X212673022Y-53391583D01*
X212800417Y-53518978D01*
X212900509Y-53668776D01*
X212969453Y-53835222D01*
X213004600Y-54011918D01*
X213004600Y-54192082D01*
X212969453Y-54368778D01*
X212900509Y-54535224D01*
X212800417Y-54685022D01*
X212673022Y-54812417D01*
X212523224Y-54912509D01*
X212356778Y-54981453D01*
X212180082Y-55016600D01*
X211999918Y-55016600D01*
X211823222Y-54981453D01*
X211656776Y-54912509D01*
X211506978Y-54812417D01*
X211379583Y-54685022D01*
X211279491Y-54535224D01*
X211210547Y-54368778D01*
X211175400Y-54192082D01*
X211175400Y-54011918D01*
X211210547Y-53835222D01*
X211279491Y-53668776D01*
X211379583Y-53518978D01*
X211506978Y-53391583D01*
X211656776Y-53291491D01*
X211823222Y-53222547D01*
X211999918Y-53187400D01*
X212180082Y-53187400D01*
X212356778Y-53222547D01*
G37*
G36*
X194576778Y-53222547D02*
G01*
X194743224Y-53291491D01*
X194893022Y-53391583D01*
X195020417Y-53518978D01*
X195120509Y-53668776D01*
X195189453Y-53835222D01*
X195224600Y-54011918D01*
X195224600Y-54192082D01*
X195189453Y-54368778D01*
X195120509Y-54535224D01*
X195020417Y-54685022D01*
X194893022Y-54812417D01*
X194743224Y-54912509D01*
X194576778Y-54981453D01*
X194400082Y-55016600D01*
X194219918Y-55016600D01*
X194043222Y-54981453D01*
X193876776Y-54912509D01*
X193726978Y-54812417D01*
X193599583Y-54685022D01*
X193499491Y-54535224D01*
X193430547Y-54368778D01*
X193395400Y-54192082D01*
X193395400Y-54011918D01*
X193430547Y-53835222D01*
X193499491Y-53668776D01*
X193599583Y-53518978D01*
X193726978Y-53391583D01*
X193876776Y-53291491D01*
X194043222Y-53222547D01*
X194219918Y-53187400D01*
X194400082Y-53187400D01*
X194576778Y-53222547D01*
G37*
G36*
X197116778Y-53222547D02*
G01*
X197283224Y-53291491D01*
X197433022Y-53391583D01*
X197560417Y-53518978D01*
X197660509Y-53668776D01*
X197729453Y-53835222D01*
X197764600Y-54011918D01*
X197764600Y-54192082D01*
X197729453Y-54368778D01*
X197660509Y-54535224D01*
X197560417Y-54685022D01*
X197433022Y-54812417D01*
X197283224Y-54912509D01*
X197116778Y-54981453D01*
X196940082Y-55016600D01*
X196759918Y-55016600D01*
X196583222Y-54981453D01*
X196416776Y-54912509D01*
X196266978Y-54812417D01*
X196139583Y-54685022D01*
X196039491Y-54535224D01*
X195970547Y-54368778D01*
X195935400Y-54192082D01*
X195935400Y-54011918D01*
X195970547Y-53835222D01*
X196039491Y-53668776D01*
X196139583Y-53518978D01*
X196266978Y-53391583D01*
X196416776Y-53291491D01*
X196583222Y-53222547D01*
X196759918Y-53187400D01*
X196940082Y-53187400D01*
X197116778Y-53222547D01*
G37*
G36*
X199656778Y-53222547D02*
G01*
X199823224Y-53291491D01*
X199973022Y-53391583D01*
X200100417Y-53518978D01*
X200200509Y-53668776D01*
X200269453Y-53835222D01*
X200304600Y-54011918D01*
X200304600Y-54192082D01*
X200269453Y-54368778D01*
X200200509Y-54535224D01*
X200100417Y-54685022D01*
X199973022Y-54812417D01*
X199823224Y-54912509D01*
X199656778Y-54981453D01*
X199480082Y-55016600D01*
X199299918Y-55016600D01*
X199123222Y-54981453D01*
X198956776Y-54912509D01*
X198806978Y-54812417D01*
X198679583Y-54685022D01*
X198579491Y-54535224D01*
X198510547Y-54368778D01*
X198475400Y-54192082D01*
X198475400Y-54011918D01*
X198510547Y-53835222D01*
X198579491Y-53668776D01*
X198679583Y-53518978D01*
X198806978Y-53391583D01*
X198956776Y-53291491D01*
X199123222Y-53222547D01*
X199299918Y-53187400D01*
X199480082Y-53187400D01*
X199656778Y-53222547D01*
G37*
G36*
X202196778Y-53222547D02*
G01*
X202363224Y-53291491D01*
X202513022Y-53391583D01*
X202640417Y-53518978D01*
X202740509Y-53668776D01*
X202809453Y-53835222D01*
X202844600Y-54011918D01*
X202844600Y-54192082D01*
X202809453Y-54368778D01*
X202740509Y-54535224D01*
X202640417Y-54685022D01*
X202513022Y-54812417D01*
X202363224Y-54912509D01*
X202196778Y-54981453D01*
X202020082Y-55016600D01*
X201839918Y-55016600D01*
X201663222Y-54981453D01*
X201496776Y-54912509D01*
X201346978Y-54812417D01*
X201219583Y-54685022D01*
X201119491Y-54535224D01*
X201050547Y-54368778D01*
X201015400Y-54192082D01*
X201015400Y-54011918D01*
X201050547Y-53835222D01*
X201119491Y-53668776D01*
X201219583Y-53518978D01*
X201346978Y-53391583D01*
X201496776Y-53291491D01*
X201663222Y-53222547D01*
X201839918Y-53187400D01*
X202020082Y-53187400D01*
X202196778Y-53222547D01*
G37*
G36*
X204736778Y-53222547D02*
G01*
X204903224Y-53291491D01*
X205053022Y-53391583D01*
X205180417Y-53518978D01*
X205280509Y-53668776D01*
X205349453Y-53835222D01*
X205384600Y-54011918D01*
X205384600Y-54192082D01*
X205349453Y-54368778D01*
X205280509Y-54535224D01*
X205180417Y-54685022D01*
X205053022Y-54812417D01*
X204903224Y-54912509D01*
X204736778Y-54981453D01*
X204560082Y-55016600D01*
X204379918Y-55016600D01*
X204203222Y-54981453D01*
X204036776Y-54912509D01*
X203886978Y-54812417D01*
X203759583Y-54685022D01*
X203659491Y-54535224D01*
X203590547Y-54368778D01*
X203555400Y-54192082D01*
X203555400Y-54011918D01*
X203590547Y-53835222D01*
X203659491Y-53668776D01*
X203759583Y-53518978D01*
X203886978Y-53391583D01*
X204036776Y-53291491D01*
X204203222Y-53222547D01*
X204379918Y-53187400D01*
X204560082Y-53187400D01*
X204736778Y-53222547D01*
G37*
G36*
X207276778Y-53222547D02*
G01*
X207443224Y-53291491D01*
X207593022Y-53391583D01*
X207720417Y-53518978D01*
X207820509Y-53668776D01*
X207889453Y-53835222D01*
X207924600Y-54011918D01*
X207924600Y-54192082D01*
X207889453Y-54368778D01*
X207820509Y-54535224D01*
X207720417Y-54685022D01*
X207593022Y-54812417D01*
X207443224Y-54912509D01*
X207276778Y-54981453D01*
X207100082Y-55016600D01*
X206919918Y-55016600D01*
X206743222Y-54981453D01*
X206576776Y-54912509D01*
X206426978Y-54812417D01*
X206299583Y-54685022D01*
X206199491Y-54535224D01*
X206130547Y-54368778D01*
X206095400Y-54192082D01*
X206095400Y-54011918D01*
X206130547Y-53835222D01*
X206199491Y-53668776D01*
X206299583Y-53518978D01*
X206426978Y-53391583D01*
X206576776Y-53291491D01*
X206743222Y-53222547D01*
X206919918Y-53187400D01*
X207100082Y-53187400D01*
X207276778Y-53222547D01*
G37*
G36*
X209816778Y-53222547D02*
G01*
X209983224Y-53291491D01*
X210133022Y-53391583D01*
X210260417Y-53518978D01*
X210360509Y-53668776D01*
X210429453Y-53835222D01*
X210464600Y-54011918D01*
X210464600Y-54192082D01*
X210429453Y-54368778D01*
X210360509Y-54535224D01*
X210260417Y-54685022D01*
X210133022Y-54812417D01*
X209983224Y-54912509D01*
X209816778Y-54981453D01*
X209640082Y-55016600D01*
X209459918Y-55016600D01*
X209283222Y-54981453D01*
X209116776Y-54912509D01*
X208966978Y-54812417D01*
X208839583Y-54685022D01*
X208739491Y-54535224D01*
X208670547Y-54368778D01*
X208635400Y-54192082D01*
X208635400Y-54011918D01*
X208670547Y-53835222D01*
X208739491Y-53668776D01*
X208839583Y-53518978D01*
X208966978Y-53391583D01*
X209116776Y-53291491D01*
X209283222Y-53222547D01*
X209459918Y-53187400D01*
X209640082Y-53187400D01*
X209816778Y-53222547D01*
G37*
G36*
X194576778Y-50682547D02*
G01*
X194743224Y-50751491D01*
X194893022Y-50851583D01*
X195020417Y-50978978D01*
X195120509Y-51128776D01*
X195189453Y-51295222D01*
X195224600Y-51471918D01*
X195224600Y-51652082D01*
X195189453Y-51828778D01*
X195120509Y-51995224D01*
X195020417Y-52145022D01*
X194893022Y-52272417D01*
X194743224Y-52372509D01*
X194576778Y-52441453D01*
X194400082Y-52476600D01*
X194219918Y-52476600D01*
X194043222Y-52441453D01*
X193876776Y-52372509D01*
X193726978Y-52272417D01*
X193599583Y-52145022D01*
X193499491Y-51995224D01*
X193430547Y-51828778D01*
X193395400Y-51652082D01*
X193395400Y-51471918D01*
X193430547Y-51295222D01*
X193499491Y-51128776D01*
X193599583Y-50978978D01*
X193726978Y-50851583D01*
X193876776Y-50751491D01*
X194043222Y-50682547D01*
X194219918Y-50647400D01*
X194400082Y-50647400D01*
X194576778Y-50682547D01*
G37*
G36*
X197116778Y-50682547D02*
G01*
X197283224Y-50751491D01*
X197433022Y-50851583D01*
X197560417Y-50978978D01*
X197660509Y-51128776D01*
X197729453Y-51295222D01*
X197764600Y-51471918D01*
X197764600Y-51652082D01*
X197729453Y-51828778D01*
X197660509Y-51995224D01*
X197560417Y-52145022D01*
X197433022Y-52272417D01*
X197283224Y-52372509D01*
X197116778Y-52441453D01*
X196940082Y-52476600D01*
X196759918Y-52476600D01*
X196583222Y-52441453D01*
X196416776Y-52372509D01*
X196266978Y-52272417D01*
X196139583Y-52145022D01*
X196039491Y-51995224D01*
X195970547Y-51828778D01*
X195935400Y-51652082D01*
X195935400Y-51471918D01*
X195970547Y-51295222D01*
X196039491Y-51128776D01*
X196139583Y-50978978D01*
X196266978Y-50851583D01*
X196416776Y-50751491D01*
X196583222Y-50682547D01*
X196759918Y-50647400D01*
X196940082Y-50647400D01*
X197116778Y-50682547D01*
G37*
G36*
X199656778Y-50682547D02*
G01*
X199823224Y-50751491D01*
X199973022Y-50851583D01*
X200100417Y-50978978D01*
X200200509Y-51128776D01*
X200269453Y-51295222D01*
X200304600Y-51471918D01*
X200304600Y-51652082D01*
X200269453Y-51828778D01*
X200200509Y-51995224D01*
X200100417Y-52145022D01*
X199973022Y-52272417D01*
X199823224Y-52372509D01*
X199656778Y-52441453D01*
X199480082Y-52476600D01*
X199299918Y-52476600D01*
X199123222Y-52441453D01*
X198956776Y-52372509D01*
X198806978Y-52272417D01*
X198679583Y-52145022D01*
X198579491Y-51995224D01*
X198510547Y-51828778D01*
X198475400Y-51652082D01*
X198475400Y-51471918D01*
X198510547Y-51295222D01*
X198579491Y-51128776D01*
X198679583Y-50978978D01*
X198806978Y-50851583D01*
X198956776Y-50751491D01*
X199123222Y-50682547D01*
X199299918Y-50647400D01*
X199480082Y-50647400D01*
X199656778Y-50682547D01*
G37*
G36*
X202196778Y-50682547D02*
G01*
X202363224Y-50751491D01*
X202513022Y-50851583D01*
X202640417Y-50978978D01*
X202740509Y-51128776D01*
X202809453Y-51295222D01*
X202844600Y-51471918D01*
X202844600Y-51652082D01*
X202809453Y-51828778D01*
X202740509Y-51995224D01*
X202640417Y-52145022D01*
X202513022Y-52272417D01*
X202363224Y-52372509D01*
X202196778Y-52441453D01*
X202020082Y-52476600D01*
X201839918Y-52476600D01*
X201663222Y-52441453D01*
X201496776Y-52372509D01*
X201346978Y-52272417D01*
X201219583Y-52145022D01*
X201119491Y-51995224D01*
X201050547Y-51828778D01*
X201015400Y-51652082D01*
X201015400Y-51471918D01*
X201050547Y-51295222D01*
X201119491Y-51128776D01*
X201219583Y-50978978D01*
X201346978Y-50851583D01*
X201496776Y-50751491D01*
X201663222Y-50682547D01*
X201839918Y-50647400D01*
X202020082Y-50647400D01*
X202196778Y-50682547D01*
G37*
G36*
X204736778Y-50682547D02*
G01*
X204903224Y-50751491D01*
X205053022Y-50851583D01*
X205180417Y-50978978D01*
X205280509Y-51128776D01*
X205349453Y-51295222D01*
X205384600Y-51471918D01*
X205384600Y-51652082D01*
X205349453Y-51828778D01*
X205280509Y-51995224D01*
X205180417Y-52145022D01*
X205053022Y-52272417D01*
X204903224Y-52372509D01*
X204736778Y-52441453D01*
X204560082Y-52476600D01*
X204379918Y-52476600D01*
X204203222Y-52441453D01*
X204036776Y-52372509D01*
X203886978Y-52272417D01*
X203759583Y-52145022D01*
X203659491Y-51995224D01*
X203590547Y-51828778D01*
X203555400Y-51652082D01*
X203555400Y-51471918D01*
X203590547Y-51295222D01*
X203659491Y-51128776D01*
X203759583Y-50978978D01*
X203886978Y-50851583D01*
X204036776Y-50751491D01*
X204203222Y-50682547D01*
X204379918Y-50647400D01*
X204560082Y-50647400D01*
X204736778Y-50682547D01*
G37*
G36*
X207276778Y-50682547D02*
G01*
X207443224Y-50751491D01*
X207593022Y-50851583D01*
X207720417Y-50978978D01*
X207820509Y-51128776D01*
X207889453Y-51295222D01*
X207924600Y-51471918D01*
X207924600Y-51652082D01*
X207889453Y-51828778D01*
X207820509Y-51995224D01*
X207720417Y-52145022D01*
X207593022Y-52272417D01*
X207443224Y-52372509D01*
X207276778Y-52441453D01*
X207100082Y-52476600D01*
X206919918Y-52476600D01*
X206743222Y-52441453D01*
X206576776Y-52372509D01*
X206426978Y-52272417D01*
X206299583Y-52145022D01*
X206199491Y-51995224D01*
X206130547Y-51828778D01*
X206095400Y-51652082D01*
X206095400Y-51471918D01*
X206130547Y-51295222D01*
X206199491Y-51128776D01*
X206299583Y-50978978D01*
X206426978Y-50851583D01*
X206576776Y-50751491D01*
X206743222Y-50682547D01*
X206919918Y-50647400D01*
X207100082Y-50647400D01*
X207276778Y-50682547D01*
G37*
G36*
X212356778Y-50682547D02*
G01*
X212523224Y-50751491D01*
X212673022Y-50851583D01*
X212800417Y-50978978D01*
X212900509Y-51128776D01*
X212969453Y-51295222D01*
X213004600Y-51471918D01*
X213004600Y-51652082D01*
X212969453Y-51828778D01*
X212900509Y-51995224D01*
X212800417Y-52145022D01*
X212673022Y-52272417D01*
X212523224Y-52372509D01*
X212356778Y-52441453D01*
X212180082Y-52476600D01*
X211999918Y-52476600D01*
X211823222Y-52441453D01*
X211656776Y-52372509D01*
X211506978Y-52272417D01*
X211379583Y-52145022D01*
X211279491Y-51995224D01*
X211210547Y-51828778D01*
X211175400Y-51652082D01*
X211175400Y-51471918D01*
X211210547Y-51295222D01*
X211279491Y-51128776D01*
X211379583Y-50978978D01*
X211506978Y-50851583D01*
X211656776Y-50751491D01*
X211823222Y-50682547D01*
X211999918Y-50647400D01*
X212180082Y-50647400D01*
X212356778Y-50682547D01*
G37*
G36*
X214896778Y-50682547D02*
G01*
X215063224Y-50751491D01*
X215213022Y-50851583D01*
X215340417Y-50978978D01*
X215440509Y-51128776D01*
X215509453Y-51295222D01*
X215544600Y-51471918D01*
X215544600Y-51652082D01*
X215509453Y-51828778D01*
X215440509Y-51995224D01*
X215340417Y-52145022D01*
X215213022Y-52272417D01*
X215063224Y-52372509D01*
X214896778Y-52441453D01*
X214720082Y-52476600D01*
X214539918Y-52476600D01*
X214363222Y-52441453D01*
X214196776Y-52372509D01*
X214046978Y-52272417D01*
X213919583Y-52145022D01*
X213819491Y-51995224D01*
X213750547Y-51828778D01*
X213715400Y-51652082D01*
X213715400Y-51471918D01*
X213750547Y-51295222D01*
X213819491Y-51128776D01*
X213919583Y-50978978D01*
X214046978Y-50851583D01*
X214196776Y-50751491D01*
X214363222Y-50682547D01*
X214539918Y-50647400D01*
X214720082Y-50647400D01*
X214896778Y-50682547D01*
G37*
G36*
X225704600Y-52476600D02*
G01*
X223875400Y-52476600D01*
X223875400Y-50647400D01*
X225704600Y-50647400D01*
X225704600Y-52476600D01*
G37*
G36*
X222516778Y-50682547D02*
G01*
X222683224Y-50751491D01*
X222833022Y-50851583D01*
X222960417Y-50978978D01*
X223060509Y-51128776D01*
X223129453Y-51295222D01*
X223164600Y-51471918D01*
X223164600Y-51652082D01*
X223129453Y-51828778D01*
X223060509Y-51995224D01*
X222960417Y-52145022D01*
X222833022Y-52272417D01*
X222683224Y-52372509D01*
X222516778Y-52441453D01*
X222340082Y-52476600D01*
X222159918Y-52476600D01*
X221983222Y-52441453D01*
X221816776Y-52372509D01*
X221666978Y-52272417D01*
X221539583Y-52145022D01*
X221439491Y-51995224D01*
X221370547Y-51828778D01*
X221335400Y-51652082D01*
X221335400Y-51471918D01*
X221370547Y-51295222D01*
X221439491Y-51128776D01*
X221539583Y-50978978D01*
X221666978Y-50851583D01*
X221816776Y-50751491D01*
X221983222Y-50682547D01*
X222159918Y-50647400D01*
X222340082Y-50647400D01*
X222516778Y-50682547D01*
G37*
G36*
X219976778Y-50682547D02*
G01*
X220143224Y-50751491D01*
X220293022Y-50851583D01*
X220420417Y-50978978D01*
X220520509Y-51128776D01*
X220589453Y-51295222D01*
X220624600Y-51471918D01*
X220624600Y-51652082D01*
X220589453Y-51828778D01*
X220520509Y-51995224D01*
X220420417Y-52145022D01*
X220293022Y-52272417D01*
X220143224Y-52372509D01*
X219976778Y-52441453D01*
X219800082Y-52476600D01*
X219619918Y-52476600D01*
X219443222Y-52441453D01*
X219276776Y-52372509D01*
X219126978Y-52272417D01*
X218999583Y-52145022D01*
X218899491Y-51995224D01*
X218830547Y-51828778D01*
X218795400Y-51652082D01*
X218795400Y-51471918D01*
X218830547Y-51295222D01*
X218899491Y-51128776D01*
X218999583Y-50978978D01*
X219126978Y-50851583D01*
X219276776Y-50751491D01*
X219443222Y-50682547D01*
X219619918Y-50647400D01*
X219800082Y-50647400D01*
X219976778Y-50682547D01*
G37*
G36*
X209816778Y-50682547D02*
G01*
X209983224Y-50751491D01*
X210133022Y-50851583D01*
X210260417Y-50978978D01*
X210360509Y-51128776D01*
X210429453Y-51295222D01*
X210464600Y-51471918D01*
X210464600Y-51652082D01*
X210429453Y-51828778D01*
X210360509Y-51995224D01*
X210260417Y-52145022D01*
X210133022Y-52272417D01*
X209983224Y-52372509D01*
X209816778Y-52441453D01*
X209640082Y-52476600D01*
X209459918Y-52476600D01*
X209283222Y-52441453D01*
X209116776Y-52372509D01*
X208966978Y-52272417D01*
X208839583Y-52145022D01*
X208739491Y-51995224D01*
X208670547Y-51828778D01*
X208635400Y-51652082D01*
X208635400Y-51471918D01*
X208670547Y-51295222D01*
X208739491Y-51128776D01*
X208839583Y-50978978D01*
X208966978Y-50851583D01*
X209116776Y-50751491D01*
X209283222Y-50682547D01*
X209459918Y-50647400D01*
X209640082Y-50647400D01*
X209816778Y-50682547D01*
G37*
G36*
X217436778Y-50682547D02*
G01*
X217603224Y-50751491D01*
X217753022Y-50851583D01*
X217880417Y-50978978D01*
X217980509Y-51128776D01*
X218049453Y-51295222D01*
X218084600Y-51471918D01*
X218084600Y-51652082D01*
X218049453Y-51828778D01*
X217980509Y-51995224D01*
X217880417Y-52145022D01*
X217753022Y-52272417D01*
X217603224Y-52372509D01*
X217436778Y-52441453D01*
X217260082Y-52476600D01*
X217079918Y-52476600D01*
X216903222Y-52441453D01*
X216736776Y-52372509D01*
X216586978Y-52272417D01*
X216459583Y-52145022D01*
X216359491Y-51995224D01*
X216290547Y-51828778D01*
X216255400Y-51652082D01*
X216255400Y-51471918D01*
X216290547Y-51295222D01*
X216359491Y-51128776D01*
X216459583Y-50978978D01*
X216586978Y-50851583D01*
X216736776Y-50751491D01*
X216903222Y-50682547D01*
X217079918Y-50647400D01*
X217260082Y-50647400D01*
X217436778Y-50682547D01*
G37*
M02*
