M48
; DRILL file {KiCad (5.1.5)-3} date 18-Jun-20 11:59:12
; FORMAT={-:-/ absolute / inch / decimal}
; #@! TF.CreationDate,2020-06-18T11:59:12-04:00
; #@! TF.GenerationSoftware,Kicad,Pcbnew,(5.1.5)-3
; #@! TF.FileFunction,Plated,1,2,PTH
FMAT,2
INCH
T1C0.0157
T2C0.0394
T3C0.0400
T4C0.0433
T5C0.1260
%
G90
G05
T1
X8.0Y-4.475
X8.07Y-3.39
X8.14Y-2.37
X8.2Y-4.475
X8.24Y-2.37
X8.25Y-3.42
X8.34Y-2.37
X8.35Y-3.42
X8.44Y-2.37
X8.45Y-3.42
X8.48Y-4.38
X8.54Y-2.37
X8.55Y-3.42
X8.64Y-2.37
X8.74Y-2.37
X8.84Y-3.51
X9.19Y-2.68
X9.32Y-2.68
X9.42Y-2.68
T2
X8.02Y-4.06
X8.12Y-4.06
X9.25Y-2.355
X9.25Y-2.455
X9.35Y-2.355
X9.35Y-2.455
X9.45Y-2.355
X9.45Y-2.455
X9.55Y-2.355
X9.55Y-2.455
X7.56Y-3.35
X7.56Y-3.45
X7.56Y-3.55
X7.56Y-3.65
X7.56Y-3.75
X7.66Y-3.35
X7.66Y-3.45
X7.66Y-3.55
X7.66Y-3.65
X7.66Y-3.75
X8.14Y-3.655
X8.14Y-3.755
X8.24Y-3.655
X8.24Y-3.755
X8.34Y-3.655
X8.34Y-3.755
X8.44Y-3.655
X8.44Y-3.755
X8.54Y-3.655
X8.54Y-3.755
X7.81Y-3.35
X7.81Y-3.45
X7.81Y-3.55
X7.81Y-3.65
X7.81Y-3.75
X7.91Y-3.35
X7.91Y-3.45
X7.91Y-3.55
X7.91Y-3.65
X7.91Y-3.75
X8.78Y-3.65
X8.88Y-3.65
X8.98Y-3.65
X9.08Y-3.65
T3
X7.65Y-2.03
X7.65Y-2.13
X7.75Y-2.03
X7.75Y-2.13
X7.85Y-2.03
X7.85Y-2.13
X7.95Y-2.03
X7.95Y-2.13
X8.05Y-2.03
X8.05Y-2.13
X8.15Y-2.03
X8.15Y-2.13
X8.25Y-2.03
X8.25Y-2.13
X8.35Y-2.03
X8.35Y-2.13
X8.45Y-2.03
X8.45Y-2.13
X8.55Y-2.03
X8.55Y-2.13
X8.65Y-2.03
X8.65Y-2.13
X8.75Y-2.03
X8.75Y-2.13
X8.85Y-2.03
X8.85Y-2.13
T4
X8.2Y-2.755
X8.2Y-2.855
X8.2Y-2.955
X8.2Y-3.055
X8.2Y-3.155
X8.2Y-3.255
X8.2Y-3.355
X8.3Y-2.755
X8.3Y-3.355
X8.4Y-2.755
X8.4Y-2.855
X8.4Y-2.955
X8.4Y-3.055
X8.4Y-3.155
X8.4Y-3.255
X8.4Y-3.355
X8.5Y-2.755
X8.5Y-2.855
X8.5Y-2.955
X8.5Y-3.055
X8.5Y-3.155
X8.5Y-3.255
X8.5Y-3.355
X8.6Y-2.755
X8.6Y-3.355
X8.7Y-2.755
X8.7Y-3.355
X8.8Y-2.755
X8.8Y-3.355
X8.9Y-2.755
X8.9Y-3.355
X9.0Y-2.755
X9.0Y-3.355
X9.1Y-2.755
X9.1Y-3.355
X9.2Y-2.755
X9.2Y-3.355
X9.3Y-2.755
X9.3Y-3.355
X9.4Y-2.755
X9.4Y-3.255
X9.4Y-3.355
X9.5Y-2.755
X9.5Y-3.355
T5
X9.4Y-3.62
X7.62Y-4.79
X7.64Y-2.53
T0
M30
